<?xml version="1.0" encoding="utf-8" standalone="no"?>
<!DOCTYPE svg PUBLIC "-//W3C//DTD SVG 1.1//EN"
  "http://www.w3.org/Graphics/SVG/1.1/DTD/svg11.dtd">
<svg xmlns:xlink="http://www.w3.org/1999/xlink" width="864pt" height="504pt" viewBox="0 0 864 504" xmlns="http://www.w3.org/2000/svg" version="1.1">
 <metadata>
  <rdf:RDF xmlns:dc="http://purl.org/dc/elements/1.1/" xmlns:cc="http://creativecommons.org/ns#" xmlns:rdf="http://www.w3.org/1999/02/22-rdf-syntax-ns#">
   <cc:Work>
    <dc:type rdf:resource="http://purl.org/dc/dcmitype/StillImage"/>
    <dc:date>2025-08-24T04:40:16.770174</dc:date>
    <dc:format>image/svg+xml</dc:format>
    <dc:creator>
     <cc:Agent>
      <dc:title>Matplotlib v3.10.5, https://matplotlib.org/</dc:title>
     </cc:Agent>
    </dc:creator>
   </cc:Work>
  </rdf:RDF>
 </metadata>
 <defs>
  <style type="text/css">*{stroke-linejoin: round; stroke-linecap: butt}</style>
 </defs>
 <g id="figure_1">
  <g id="patch_1">
   <path d="M 0 504 
L 864 504 
L 864 0 
L 0 0 
z
" style="fill: #ffffff"/>
  </g>
  <g id="axes_1">
   <g id="patch_2">
    <path d="M 44.57 455.955539 
L 853.2 455.955539 
L 853.2 26.88 
L 44.57 26.88 
z
" style="fill: #ffffff"/>
   </g>
   <g id="patch_3">
    <path d="M 48.510692 455.955539 
L 61.120906 455.955539 
L 61.120906 448.097013 
L 48.510692 448.097013 
z
" clip-path="url(#p12cf55e71e)" style="fill: #ffc107"/>
   </g>
   <g id="patch_4">
    <path d="M 64.27346 455.955539 
L 76.883674 455.955539 
L 76.883674 393.087328 
L 64.27346 393.087328 
z
" clip-path="url(#p12cf55e71e)" style="fill: #ffc107"/>
   </g>
   <g id="patch_5">
    <path d="M 80.036228 455.955539 
L 92.646442 455.955539 
L 92.646442 408.804381 
L 80.036228 408.804381 
z
" clip-path="url(#p12cf55e71e)" style="fill: #ffc107"/>
   </g>
   <g id="patch_6">
    <path d="M 95.798996 455.955539 
L 108.409211 455.955539 
L 108.409211 424.521434 
L 95.798996 424.521434 
z
" clip-path="url(#p12cf55e71e)" style="fill: #ffc107"/>
   </g>
   <g id="patch_7">
    <path d="M 111.561764 455.955539 
L 124.171979 455.955539 
L 124.171979 448.097013 
L 111.561764 448.097013 
z
" clip-path="url(#p12cf55e71e)" style="fill: #ffc107"/>
   </g>
   <g id="patch_8">
    <path d="M 127.324532 455.955539 
L 139.934747 455.955539 
L 139.934747 408.804381 
L 127.324532 408.804381 
z
" clip-path="url(#p12cf55e71e)" style="fill: #ffc107"/>
   </g>
   <g id="patch_9">
    <path d="M 143.0873 455.955539 
L 155.697515 455.955539 
L 155.697515 385.228802 
L 143.0873 385.228802 
z
" clip-path="url(#p12cf55e71e)" style="fill: #ffc107"/>
   </g>
   <g id="patch_10">
    <path d="M 158.850068 455.955539 
L 171.460283 455.955539 
L 171.460283 408.804381 
L 158.850068 408.804381 
z
" clip-path="url(#p12cf55e71e)" style="fill: #ffc107"/>
   </g>
   <g id="patch_11">
    <path d="M 174.612836 455.955539 
L 187.223051 455.955539 
L 187.223051 424.521434 
L 174.612836 424.521434 
z
" clip-path="url(#p12cf55e71e)" style="fill: #ffc107"/>
   </g>
   <g id="patch_12">
    <path d="M 190.375604 455.955539 
L 202.985819 455.955539 
L 202.985819 424.521434 
L 190.375604 424.521434 
z
" clip-path="url(#p12cf55e71e)" style="fill: #ffc107"/>
   </g>
   <g id="patch_13">
    <path d="M 206.138372 455.955539 
L 218.748587 455.955539 
L 218.748587 408.804381 
L 206.138372 408.804381 
z
" clip-path="url(#p12cf55e71e)" style="fill: #ffc107"/>
   </g>
   <g id="patch_14">
    <path d="M 221.90114 455.955539 
L 234.511355 455.955539 
L 234.511355 448.097013 
L 221.90114 448.097013 
z
" clip-path="url(#p12cf55e71e)" style="fill: #ffc107"/>
   </g>
   <g id="patch_15">
    <path d="M 237.663908 455.955539 
L 250.274123 455.955539 
L 250.274123 440.238486 
L 237.663908 440.238486 
z
" clip-path="url(#p12cf55e71e)" style="fill: #ffc107"/>
   </g>
   <g id="patch_16">
    <path d="M 253.426676 455.955539 
L 266.036891 455.955539 
L 266.036891 416.662907 
L 253.426676 416.662907 
z
" clip-path="url(#p12cf55e71e)" style="fill: #ffc107"/>
   </g>
   <g id="patch_17">
    <path d="M 269.189444 455.955539 
L 281.799659 455.955539 
L 281.799659 440.238486 
L 269.189444 440.238486 
z
" clip-path="url(#p12cf55e71e)" style="fill: #ffc107"/>
   </g>
   <g id="patch_18">
    <path d="M 284.952212 455.955539 
L 297.562427 455.955539 
L 297.562427 432.37996 
L 284.952212 432.37996 
z
" clip-path="url(#p12cf55e71e)" style="fill: #ffc107"/>
   </g>
   <g id="patch_19">
    <path d="M 300.714981 455.955539 
L 313.325195 455.955539 
L 313.325195 424.521434 
L 300.714981 424.521434 
z
" clip-path="url(#p12cf55e71e)" style="fill: #ffc107"/>
   </g>
   <g id="patch_20">
    <path d="M 316.477749 455.955539 
L 329.087963 455.955539 
L 329.087963 400.945854 
L 316.477749 400.945854 
z
" clip-path="url(#p12cf55e71e)" style="fill: #ffc107"/>
   </g>
   <g id="patch_21">
    <path d="M 332.240517 455.955539 
L 344.850731 455.955539 
L 344.850731 440.238486 
L 332.240517 440.238486 
z
" clip-path="url(#p12cf55e71e)" style="fill: #ffc107"/>
   </g>
   <g id="patch_22">
    <path d="M 348.003285 455.955539 
L 360.613499 455.955539 
L 360.613499 393.087328 
L 348.003285 393.087328 
z
" clip-path="url(#p12cf55e71e)" style="fill: #ffc107"/>
   </g>
   <g id="patch_23">
    <path d="M 363.766053 455.955539 
L 376.376267 455.955539 
L 376.376267 377.370275 
L 363.766053 377.370275 
z
" clip-path="url(#p12cf55e71e)" style="fill: #ffc107"/>
   </g>
   <g id="patch_24">
    <path d="M 379.528821 455.955539 
L 392.139035 455.955539 
L 392.139035 440.238486 
L 379.528821 440.238486 
z
" clip-path="url(#p12cf55e71e)" style="fill: #ffc107"/>
   </g>
   <g id="patch_25">
    <path d="M 395.291589 455.955539 
L 407.901803 455.955539 
L 407.901803 408.804381 
L 395.291589 408.804381 
z
" clip-path="url(#p12cf55e71e)" style="fill: #ffc107"/>
   </g>
   <g id="patch_26">
    <path d="M 411.054357 455.955539 
L 423.664571 455.955539 
L 423.664571 416.662907 
L 411.054357 416.662907 
z
" clip-path="url(#p12cf55e71e)" style="fill: #ffc107"/>
   </g>
   <g id="patch_27">
    <path d="M 426.817125 455.955539 
L 439.427339 455.955539 
L 439.427339 432.37996 
L 426.817125 432.37996 
z
" clip-path="url(#p12cf55e71e)" style="fill: #ffc107"/>
   </g>
   <g id="patch_28">
    <path d="M 442.579893 455.955539 
L 455.190107 455.955539 
L 455.190107 440.238486 
L 442.579893 440.238486 
z
" clip-path="url(#p12cf55e71e)" style="fill: #ffc107"/>
   </g>
   <g id="patch_29">
    <path d="M 458.342661 455.955539 
L 470.952875 455.955539 
L 470.952875 408.804381 
L 458.342661 408.804381 
z
" clip-path="url(#p12cf55e71e)" style="fill: #ffc107"/>
   </g>
   <g id="patch_30">
    <path d="M 474.105429 455.955539 
L 486.715643 455.955539 
L 486.715643 361.653223 
L 474.105429 361.653223 
z
" clip-path="url(#p12cf55e71e)" style="fill: #ffc107"/>
   </g>
   <g id="patch_31">
    <path d="M 489.868197 455.955539 
L 502.478411 455.955539 
L 502.478411 440.238486 
L 489.868197 440.238486 
z
" clip-path="url(#p12cf55e71e)" style="fill: #ffc107"/>
   </g>
   <g id="patch_32">
    <path d="M 505.630965 455.955539 
L 518.241179 455.955539 
L 518.241179 400.945854 
L 505.630965 400.945854 
z
" clip-path="url(#p12cf55e71e)" style="fill: #ffc107"/>
   </g>
   <g id="patch_33">
    <path d="M 521.393733 455.955539 
L 534.003947 455.955539 
L 534.003947 408.804381 
L 521.393733 408.804381 
z
" clip-path="url(#p12cf55e71e)" style="fill: #ffc107"/>
   </g>
   <g id="patch_34">
    <path d="M 537.156501 455.955539 
L 549.766715 455.955539 
L 549.766715 432.37996 
L 537.156501 432.37996 
z
" clip-path="url(#p12cf55e71e)" style="fill: #ffc107"/>
   </g>
   <g id="patch_35">
    <path d="M 552.919269 455.955539 
L 565.529483 455.955539 
L 565.529483 416.662907 
L 552.919269 416.662907 
z
" clip-path="url(#p12cf55e71e)" style="fill: #ffc107"/>
   </g>
   <g id="patch_36">
    <path d="M 568.682037 455.955539 
L 581.292251 455.955539 
L 581.292251 400.945854 
L 568.682037 400.945854 
z
" clip-path="url(#p12cf55e71e)" style="fill: #ffc107"/>
   </g>
   <g id="patch_37">
    <path d="M 584.444805 455.955539 
L 597.055019 455.955539 
L 597.055019 424.521434 
L 584.444805 424.521434 
z
" clip-path="url(#p12cf55e71e)" style="fill: #ffc107"/>
   </g>
   <g id="patch_38">
    <path d="M 600.207573 455.955539 
L 612.817788 455.955539 
L 612.817788 408.804381 
L 600.207573 408.804381 
z
" clip-path="url(#p12cf55e71e)" style="fill: #ffc107"/>
   </g>
   <g id="patch_39">
    <path d="M 615.970341 455.955539 
L 628.580556 455.955539 
L 628.580556 424.521434 
L 615.970341 424.521434 
z
" clip-path="url(#p12cf55e71e)" style="fill: #ffc107"/>
   </g>
   <g id="patch_40">
    <path d="M 631.733109 455.955539 
L 644.343324 455.955539 
L 644.343324 424.521434 
L 631.733109 424.521434 
z
" clip-path="url(#p12cf55e71e)" style="fill: #ffc107"/>
   </g>
   <g id="patch_41">
    <path d="M 647.495877 455.955539 
L 660.106092 455.955539 
L 660.106092 416.662907 
L 647.495877 416.662907 
z
" clip-path="url(#p12cf55e71e)" style="fill: #ffc107"/>
   </g>
   <g id="patch_42">
    <path d="M 663.258645 455.955539 
L 675.86886 455.955539 
L 675.86886 424.521434 
L 663.258645 424.521434 
z
" clip-path="url(#p12cf55e71e)" style="fill: #ffc107"/>
   </g>
   <g id="patch_43">
    <path d="M 679.021413 455.955539 
L 691.631628 455.955539 
L 691.631628 424.521434 
L 679.021413 424.521434 
z
" clip-path="url(#p12cf55e71e)" style="fill: #ffc107"/>
   </g>
   <g id="patch_44">
    <path d="M 694.784181 455.955539 
L 707.394396 455.955539 
L 707.394396 408.804381 
L 694.784181 408.804381 
z
" clip-path="url(#p12cf55e71e)" style="fill: #ffc107"/>
   </g>
   <g id="patch_45">
    <path d="M 710.546949 455.955539 
L 723.157164 455.955539 
L 723.157164 424.521434 
L 710.546949 424.521434 
z
" clip-path="url(#p12cf55e71e)" style="fill: #ffc107"/>
   </g>
   <g id="patch_46">
    <path d="M 726.309717 455.955539 
L 738.919932 455.955539 
L 738.919932 440.238486 
L 726.309717 440.238486 
z
" clip-path="url(#p12cf55e71e)" style="fill: #ffc107"/>
   </g>
   <g id="patch_47">
    <path d="M 742.072485 455.955539 
L 754.6827 455.955539 
L 754.6827 393.087328 
L 742.072485 393.087328 
z
" clip-path="url(#p12cf55e71e)" style="fill: #ffc107"/>
   </g>
   <g id="patch_48">
    <path d="M 757.835253 455.955539 
L 770.445468 455.955539 
L 770.445468 424.521434 
L 757.835253 424.521434 
z
" clip-path="url(#p12cf55e71e)" style="fill: #ffc107"/>
   </g>
   <g id="patch_49">
    <path d="M 773.598021 455.955539 
L 786.208236 455.955539 
L 786.208236 448.097013 
L 773.598021 448.097013 
z
" clip-path="url(#p12cf55e71e)" style="fill: #ffc107"/>
   </g>
   <g id="patch_50">
    <path d="M 789.360789 455.955539 
L 801.971004 455.955539 
L 801.971004 440.238486 
L 789.360789 440.238486 
z
" clip-path="url(#p12cf55e71e)" style="fill: #ffc107"/>
   </g>
   <g id="patch_51">
    <path d="M 805.123558 455.955539 
L 817.733772 455.955539 
L 817.733772 455.955539 
L 805.123558 455.955539 
z
" clip-path="url(#p12cf55e71e)" style="fill: #ffc107"/>
   </g>
   <g id="patch_52">
    <path d="M 820.886326 455.955539 
L 833.49654 455.955539 
L 833.49654 440.238486 
L 820.886326 440.238486 
z
" clip-path="url(#p12cf55e71e)" style="fill: #ffc107"/>
   </g>
   <g id="patch_53">
    <path d="M 836.649094 455.955539 
L 849.259308 455.955539 
L 849.259308 448.097013 
L 836.649094 448.097013 
z
" clip-path="url(#p12cf55e71e)" style="fill: #ffc107"/>
   </g>
   <g id="patch_54">
    <path d="M 48.510692 448.097013 
L 61.120906 448.097013 
L 61.120906 353.794696 
L 48.510692 353.794696 
z
" clip-path="url(#p12cf55e71e)" style="fill: #2196f3"/>
   </g>
   <g id="patch_55">
    <path d="M 64.27346 393.087328 
L 76.883674 393.087328 
L 76.883674 235.916801 
L 64.27346 235.916801 
z
" clip-path="url(#p12cf55e71e)" style="fill: #2196f3"/>
   </g>
   <g id="patch_56">
    <path d="M 80.036228 408.804381 
L 92.646442 408.804381 
L 92.646442 267.350906 
L 80.036228 267.350906 
z
" clip-path="url(#p12cf55e71e)" style="fill: #2196f3"/>
   </g>
   <g id="patch_57">
    <path d="M 95.798996 424.521434 
L 108.409211 424.521434 
L 108.409211 298.785012 
L 95.798996 298.785012 
z
" clip-path="url(#p12cf55e71e)" style="fill: #2196f3"/>
   </g>
   <g id="patch_58">
    <path d="M 111.561764 448.097013 
L 124.171979 448.097013 
L 124.171979 290.926486 
L 111.561764 290.926486 
z
" clip-path="url(#p12cf55e71e)" style="fill: #2196f3"/>
   </g>
   <g id="patch_59">
    <path d="M 127.324532 408.804381 
L 139.934747 408.804381 
L 139.934747 235.916801 
L 127.324532 235.916801 
z
" clip-path="url(#p12cf55e71e)" style="fill: #2196f3"/>
   </g>
   <g id="patch_60">
    <path d="M 143.0873 385.228802 
L 155.697515 385.228802 
L 155.697515 259.49238 
L 143.0873 259.49238 
z
" clip-path="url(#p12cf55e71e)" style="fill: #2196f3"/>
   </g>
   <g id="patch_61">
    <path d="M 158.850068 408.804381 
L 171.460283 408.804381 
L 171.460283 283.067959 
L 158.850068 283.067959 
z
" clip-path="url(#p12cf55e71e)" style="fill: #2196f3"/>
   </g>
   <g id="patch_62">
    <path d="M 174.612836 424.521434 
L 187.223051 424.521434 
L 187.223051 298.785012 
L 174.612836 298.785012 
z
" clip-path="url(#p12cf55e71e)" style="fill: #2196f3"/>
   </g>
   <g id="patch_63">
    <path d="M 190.375604 424.521434 
L 202.985819 424.521434 
L 202.985819 330.219117 
L 190.375604 330.219117 
z
" clip-path="url(#p12cf55e71e)" style="fill: #2196f3"/>
   </g>
   <g id="patch_64">
    <path d="M 206.138372 408.804381 
L 218.748587 408.804381 
L 218.748587 314.502065 
L 206.138372 314.502065 
z
" clip-path="url(#p12cf55e71e)" style="fill: #2196f3"/>
   </g>
   <g id="patch_65">
    <path d="M 221.90114 448.097013 
L 234.511355 448.097013 
L 234.511355 338.077644 
L 221.90114 338.077644 
z
" clip-path="url(#p12cf55e71e)" style="fill: #2196f3"/>
   </g>
   <g id="patch_66">
    <path d="M 237.663908 440.238486 
L 250.274123 440.238486 
L 250.274123 377.370275 
L 237.663908 377.370275 
z
" clip-path="url(#p12cf55e71e)" style="fill: #2196f3"/>
   </g>
   <g id="patch_67">
    <path d="M 253.426676 416.662907 
L 266.036891 416.662907 
L 266.036891 400.945854 
L 253.426676 400.945854 
z
" clip-path="url(#p12cf55e71e)" style="fill: #2196f3"/>
   </g>
   <g id="patch_68">
    <path d="M 269.189444 440.238486 
L 281.799659 440.238486 
L 281.799659 408.804381 
L 269.189444 408.804381 
z
" clip-path="url(#p12cf55e71e)" style="fill: #2196f3"/>
   </g>
   <g id="patch_69">
    <path d="M 284.952212 432.37996 
L 297.562427 432.37996 
L 297.562427 400.945854 
L 284.952212 400.945854 
z
" clip-path="url(#p12cf55e71e)" style="fill: #2196f3"/>
   </g>
   <g id="patch_70">
    <path d="M 300.714981 424.521434 
L 313.325195 424.521434 
L 313.325195 330.219117 
L 300.714981 330.219117 
z
" clip-path="url(#p12cf55e71e)" style="fill: #2196f3"/>
   </g>
   <g id="patch_71">
    <path d="M 316.477749 400.945854 
L 329.087963 400.945854 
L 329.087963 338.077644 
L 316.477749 338.077644 
z
" clip-path="url(#p12cf55e71e)" style="fill: #2196f3"/>
   </g>
   <g id="patch_72">
    <path d="M 332.240517 440.238486 
L 344.850731 440.238486 
L 344.850731 330.219117 
L 332.240517 330.219117 
z
" clip-path="url(#p12cf55e71e)" style="fill: #2196f3"/>
   </g>
   <g id="patch_73">
    <path d="M 348.003285 393.087328 
L 360.613499 393.087328 
L 360.613499 298.785012 
L 348.003285 298.785012 
z
" clip-path="url(#p12cf55e71e)" style="fill: #2196f3"/>
   </g>
   <g id="patch_74">
    <path d="M 363.766053 377.370275 
L 376.376267 377.370275 
L 376.376267 283.067959 
L 363.766053 283.067959 
z
" clip-path="url(#p12cf55e71e)" style="fill: #2196f3"/>
   </g>
   <g id="patch_75">
    <path d="M 379.528821 440.238486 
L 392.139035 440.238486 
L 392.139035 314.502065 
L 379.528821 314.502065 
z
" clip-path="url(#p12cf55e71e)" style="fill: #2196f3"/>
   </g>
   <g id="patch_76">
    <path d="M 395.291589 408.804381 
L 407.901803 408.804381 
L 407.901803 235.916801 
L 395.291589 235.916801 
z
" clip-path="url(#p12cf55e71e)" style="fill: #2196f3"/>
   </g>
   <g id="patch_77">
    <path d="M 411.054357 416.662907 
L 423.664571 416.662907 
L 423.664571 306.643538 
L 411.054357 306.643538 
z
" clip-path="url(#p12cf55e71e)" style="fill: #2196f3"/>
   </g>
   <g id="patch_78">
    <path d="M 426.817125 432.37996 
L 439.427339 432.37996 
L 439.427339 338.077644 
L 426.817125 338.077644 
z
" clip-path="url(#p12cf55e71e)" style="fill: #2196f3"/>
   </g>
   <g id="patch_79">
    <path d="M 442.579893 440.238486 
L 455.190107 440.238486 
L 455.190107 330.219117 
L 442.579893 330.219117 
z
" clip-path="url(#p12cf55e71e)" style="fill: #2196f3"/>
   </g>
   <g id="patch_80">
    <path d="M 458.342661 408.804381 
L 470.952875 408.804381 
L 470.952875 267.350906 
L 458.342661 267.350906 
z
" clip-path="url(#p12cf55e71e)" style="fill: #2196f3"/>
   </g>
   <g id="patch_81">
    <path d="M 474.105429 361.653223 
L 486.715643 361.653223 
L 486.715643 188.765643 
L 474.105429 188.765643 
z
" clip-path="url(#p12cf55e71e)" style="fill: #2196f3"/>
   </g>
   <g id="patch_82">
    <path d="M 489.868197 440.238486 
L 502.478411 440.238486 
L 502.478411 267.350906 
L 489.868197 267.350906 
z
" clip-path="url(#p12cf55e71e)" style="fill: #2196f3"/>
   </g>
   <g id="patch_83">
    <path d="M 505.630965 400.945854 
L 518.241179 400.945854 
L 518.241179 290.926486 
L 505.630965 290.926486 
z
" clip-path="url(#p12cf55e71e)" style="fill: #2196f3"/>
   </g>
   <g id="patch_84">
    <path d="M 521.393733 408.804381 
L 534.003947 408.804381 
L 534.003947 314.502065 
L 521.393733 314.502065 
z
" clip-path="url(#p12cf55e71e)" style="fill: #2196f3"/>
   </g>
   <g id="patch_85">
    <path d="M 537.156501 432.37996 
L 549.766715 432.37996 
L 549.766715 306.643538 
L 537.156501 306.643538 
z
" clip-path="url(#p12cf55e71e)" style="fill: #2196f3"/>
   </g>
   <g id="patch_86">
    <path d="M 552.919269 416.662907 
L 565.529483 416.662907 
L 565.529483 228.058275 
L 552.919269 228.058275 
z
" clip-path="url(#p12cf55e71e)" style="fill: #2196f3"/>
   </g>
   <g id="patch_87">
    <path d="M 568.682037 400.945854 
L 581.292251 400.945854 
L 581.292251 290.926486 
L 568.682037 290.926486 
z
" clip-path="url(#p12cf55e71e)" style="fill: #2196f3"/>
   </g>
   <g id="patch_88">
    <path d="M 584.444805 424.521434 
L 597.055019 424.521434 
L 597.055019 330.219117 
L 584.444805 330.219117 
z
" clip-path="url(#p12cf55e71e)" style="fill: #2196f3"/>
   </g>
   <g id="patch_89">
    <path d="M 600.207573 408.804381 
L 612.817788 408.804381 
L 612.817788 377.370275 
L 600.207573 377.370275 
z
" clip-path="url(#p12cf55e71e)" style="fill: #2196f3"/>
   </g>
   <g id="patch_90">
    <path d="M 615.970341 424.521434 
L 628.580556 424.521434 
L 628.580556 377.370275 
L 615.970341 377.370275 
z
" clip-path="url(#p12cf55e71e)" style="fill: #2196f3"/>
   </g>
   <g id="patch_91">
    <path d="M 631.733109 424.521434 
L 644.343324 424.521434 
L 644.343324 345.93617 
L 631.733109 345.93617 
z
" clip-path="url(#p12cf55e71e)" style="fill: #2196f3"/>
   </g>
   <g id="patch_92">
    <path d="M 647.495877 416.662907 
L 660.106092 416.662907 
L 660.106092 369.511749 
L 647.495877 369.511749 
z
" clip-path="url(#p12cf55e71e)" style="fill: #2196f3"/>
   </g>
   <g id="patch_93">
    <path d="M 663.258645 424.521434 
L 675.86886 424.521434 
L 675.86886 345.93617 
L 663.258645 345.93617 
z
" clip-path="url(#p12cf55e71e)" style="fill: #2196f3"/>
   </g>
   <g id="patch_94">
    <path d="M 679.021413 424.521434 
L 691.631628 424.521434 
L 691.631628 361.653223 
L 679.021413 361.653223 
z
" clip-path="url(#p12cf55e71e)" style="fill: #2196f3"/>
   </g>
   <g id="patch_95">
    <path d="M 694.784181 408.804381 
L 707.394396 408.804381 
L 707.394396 330.219117 
L 694.784181 330.219117 
z
" clip-path="url(#p12cf55e71e)" style="fill: #2196f3"/>
   </g>
   <g id="patch_96">
    <path d="M 710.546949 424.521434 
L 723.157164 424.521434 
L 723.157164 283.067959 
L 710.546949 283.067959 
z
" clip-path="url(#p12cf55e71e)" style="fill: #2196f3"/>
   </g>
   <g id="patch_97">
    <path d="M 726.309717 440.238486 
L 738.919932 440.238486 
L 738.919932 345.93617 
L 726.309717 345.93617 
z
" clip-path="url(#p12cf55e71e)" style="fill: #2196f3"/>
   </g>
   <g id="patch_98">
    <path d="M 742.072485 393.087328 
L 754.6827 393.087328 
L 754.6827 330.219117 
L 742.072485 330.219117 
z
" clip-path="url(#p12cf55e71e)" style="fill: #2196f3"/>
   </g>
   <g id="patch_99">
    <path d="M 757.835253 424.521434 
L 770.445468 424.521434 
L 770.445468 377.370275 
L 757.835253 377.370275 
z
" clip-path="url(#p12cf55e71e)" style="fill: #2196f3"/>
   </g>
   <g id="patch_100">
    <path d="M 773.598021 448.097013 
L 786.208236 448.097013 
L 786.208236 369.511749 
L 773.598021 369.511749 
z
" clip-path="url(#p12cf55e71e)" style="fill: #2196f3"/>
   </g>
   <g id="patch_101">
    <path d="M 789.360789 440.238486 
L 801.971004 440.238486 
L 801.971004 314.502065 
L 789.360789 314.502065 
z
" clip-path="url(#p12cf55e71e)" style="fill: #2196f3"/>
   </g>
   <g id="patch_102">
    <path d="M 805.123558 455.955539 
L 817.733772 455.955539 
L 817.733772 440.238486 
L 805.123558 440.238486 
z
" clip-path="url(#p12cf55e71e)" style="fill: #2196f3"/>
   </g>
   <g id="patch_103">
    <path d="M 820.886326 440.238486 
L 833.49654 440.238486 
L 833.49654 424.521434 
L 820.886326 424.521434 
z
" clip-path="url(#p12cf55e71e)" style="fill: #2196f3"/>
   </g>
   <g id="patch_104">
    <path d="M 836.649094 448.097013 
L 849.259308 448.097013 
L 849.259308 400.945854 
L 836.649094 400.945854 
z
" clip-path="url(#p12cf55e71e)" style="fill: #2196f3"/>
   </g>
   <g id="patch_105">
    <path d="M 48.510692 353.794696 
L 61.120906 353.794696 
L 61.120906 306.643538 
L 48.510692 306.643538 
z
" clip-path="url(#p12cf55e71e)" style="fill: #4caf50"/>
   </g>
   <g id="patch_106">
    <path d="M 64.27346 235.916801 
L 76.883674 235.916801 
L 76.883674 70.887748 
L 64.27346 70.887748 
z
" clip-path="url(#p12cf55e71e)" style="fill: #4caf50"/>
   </g>
   <g id="patch_107">
    <path d="M 80.036228 267.350906 
L 92.646442 267.350906 
L 92.646442 173.04859 
L 80.036228 173.04859 
z
" clip-path="url(#p12cf55e71e)" style="fill: #4caf50"/>
   </g>
   <g id="patch_108">
    <path d="M 95.798996 298.785012 
L 108.409211 298.785012 
L 108.409211 228.058275 
L 95.798996 228.058275 
z
" clip-path="url(#p12cf55e71e)" style="fill: #4caf50"/>
   </g>
   <g id="patch_109">
    <path d="M 111.561764 290.926486 
L 124.171979 290.926486 
L 124.171979 243.775327 
L 111.561764 243.775327 
z
" clip-path="url(#p12cf55e71e)" style="fill: #4caf50"/>
   </g>
   <g id="patch_110">
    <path d="M 127.324532 235.916801 
L 139.934747 235.916801 
L 139.934747 141.614485 
L 127.324532 141.614485 
z
" clip-path="url(#p12cf55e71e)" style="fill: #4caf50"/>
   </g>
   <g id="patch_111">
    <path d="M 143.0873 259.49238 
L 155.697515 259.49238 
L 155.697515 165.190064 
L 143.0873 165.190064 
z
" clip-path="url(#p12cf55e71e)" style="fill: #4caf50"/>
   </g>
   <g id="patch_112">
    <path d="M 158.850068 283.067959 
L 171.460283 283.067959 
L 171.460283 188.765643 
L 158.850068 188.765643 
z
" clip-path="url(#p12cf55e71e)" style="fill: #4caf50"/>
   </g>
   <g id="patch_113">
    <path d="M 174.612836 298.785012 
L 187.223051 298.785012 
L 187.223051 251.633854 
L 174.612836 251.633854 
z
" clip-path="url(#p12cf55e71e)" style="fill: #4caf50"/>
   </g>
   <g id="patch_114">
    <path d="M 190.375604 330.219117 
L 202.985819 330.219117 
L 202.985819 283.067959 
L 190.375604 283.067959 
z
" clip-path="url(#p12cf55e71e)" style="fill: #4caf50"/>
   </g>
   <g id="patch_115">
    <path d="M 206.138372 314.502065 
L 218.748587 314.502065 
L 218.748587 220.199748 
L 206.138372 220.199748 
z
" clip-path="url(#p12cf55e71e)" style="fill: #4caf50"/>
   </g>
   <g id="patch_116">
    <path d="M 221.90114 338.077644 
L 234.511355 338.077644 
L 234.511355 314.502065 
L 221.90114 314.502065 
z
" clip-path="url(#p12cf55e71e)" style="fill: #4caf50"/>
   </g>
   <g id="patch_117">
    <path d="M 237.663908 377.370275 
L 250.274123 377.370275 
L 250.274123 353.794696 
L 237.663908 353.794696 
z
" clip-path="url(#p12cf55e71e)" style="fill: #4caf50"/>
   </g>
   <g id="patch_118">
    <path d="M 253.426676 400.945854 
L 266.036891 400.945854 
L 266.036891 353.794696 
L 253.426676 353.794696 
z
" clip-path="url(#p12cf55e71e)" style="fill: #4caf50"/>
   </g>
   <g id="patch_119">
    <path d="M 269.189444 408.804381 
L 281.799659 408.804381 
L 281.799659 338.077644 
L 269.189444 338.077644 
z
" clip-path="url(#p12cf55e71e)" style="fill: #4caf50"/>
   </g>
   <g id="patch_120">
    <path d="M 284.952212 400.945854 
L 297.562427 400.945854 
L 297.562427 306.643538 
L 284.952212 306.643538 
z
" clip-path="url(#p12cf55e71e)" style="fill: #4caf50"/>
   </g>
   <g id="patch_121">
    <path d="M 300.714981 330.219117 
L 313.325195 330.219117 
L 313.325195 118.038906 
L 300.714981 118.038906 
z
" clip-path="url(#p12cf55e71e)" style="fill: #4caf50"/>
   </g>
   <g id="patch_122">
    <path d="M 316.477749 338.077644 
L 329.087963 338.077644 
L 329.087963 267.350906 
L 316.477749 267.350906 
z
" clip-path="url(#p12cf55e71e)" style="fill: #4caf50"/>
   </g>
   <g id="patch_123">
    <path d="M 332.240517 330.219117 
L 344.850731 330.219117 
L 344.850731 188.765643 
L 332.240517 188.765643 
z
" clip-path="url(#p12cf55e71e)" style="fill: #4caf50"/>
   </g>
   <g id="patch_124">
    <path d="M 348.003285 298.785012 
L 360.613499 298.785012 
L 360.613499 180.907117 
L 348.003285 180.907117 
z
" clip-path="url(#p12cf55e71e)" style="fill: #4caf50"/>
   </g>
   <g id="patch_125">
    <path d="M 363.766053 283.067959 
L 376.376267 283.067959 
L 376.376267 212.341222 
L 363.766053 212.341222 
z
" clip-path="url(#p12cf55e71e)" style="fill: #4caf50"/>
   </g>
   <g id="patch_126">
    <path d="M 379.528821 314.502065 
L 392.139035 314.502065 
L 392.139035 243.775327 
L 379.528821 243.775327 
z
" clip-path="url(#p12cf55e71e)" style="fill: #4caf50"/>
   </g>
   <g id="patch_127">
    <path d="M 395.291589 235.916801 
L 407.901803 235.916801 
L 407.901803 141.614485 
L 395.291589 141.614485 
z
" clip-path="url(#p12cf55e71e)" style="fill: #4caf50"/>
   </g>
   <g id="patch_128">
    <path d="M 411.054357 306.643538 
L 423.664571 306.643538 
L 423.664571 283.067959 
L 411.054357 283.067959 
z
" clip-path="url(#p12cf55e71e)" style="fill: #4caf50"/>
   </g>
   <g id="patch_129">
    <path d="M 426.817125 338.077644 
L 439.427339 338.077644 
L 439.427339 125.897432 
L 426.817125 125.897432 
z
" clip-path="url(#p12cf55e71e)" style="fill: #4caf50"/>
   </g>
   <g id="patch_130">
    <path d="M 442.579893 330.219117 
L 455.190107 330.219117 
L 455.190107 259.49238 
L 442.579893 259.49238 
z
" clip-path="url(#p12cf55e71e)" style="fill: #4caf50"/>
   </g>
   <g id="patch_131">
    <path d="M 458.342661 267.350906 
L 470.952875 267.350906 
L 470.952875 125.897432 
L 458.342661 125.897432 
z
" clip-path="url(#p12cf55e71e)" style="fill: #4caf50"/>
   </g>
   <g id="patch_132">
    <path d="M 474.105429 188.765643 
L 486.715643 188.765643 
L 486.715643 47.312169 
L 474.105429 47.312169 
z
" clip-path="url(#p12cf55e71e)" style="fill: #4caf50"/>
   </g>
   <g id="patch_133">
    <path d="M 489.868197 267.350906 
L 502.478411 267.350906 
L 502.478411 173.04859 
L 489.868197 173.04859 
z
" clip-path="url(#p12cf55e71e)" style="fill: #4caf50"/>
   </g>
   <g id="patch_134">
    <path d="M 505.630965 290.926486 
L 518.241179 290.926486 
L 518.241179 78.746274 
L 505.630965 78.746274 
z
" clip-path="url(#p12cf55e71e)" style="fill: #4caf50"/>
   </g>
   <g id="patch_135">
    <path d="M 521.393733 314.502065 
L 534.003947 314.502065 
L 534.003947 125.897432 
L 521.393733 125.897432 
z
" clip-path="url(#p12cf55e71e)" style="fill: #4caf50"/>
   </g>
   <g id="patch_136">
    <path d="M 537.156501 306.643538 
L 549.766715 306.643538 
L 549.766715 165.190064 
L 537.156501 165.190064 
z
" clip-path="url(#p12cf55e71e)" style="fill: #4caf50"/>
   </g>
   <g id="patch_137">
    <path d="M 552.919269 228.058275 
L 565.529483 228.058275 
L 565.529483 63.029221 
L 552.919269 63.029221 
z
" clip-path="url(#p12cf55e71e)" style="fill: #4caf50"/>
   </g>
   <g id="patch_138">
    <path d="M 568.682037 290.926486 
L 581.292251 290.926486 
L 581.292251 243.775327 
L 568.682037 243.775327 
z
" clip-path="url(#p12cf55e71e)" style="fill: #4caf50"/>
   </g>
   <g id="patch_139">
    <path d="M 584.444805 330.219117 
L 597.055019 330.219117 
L 597.055019 235.916801 
L 584.444805 235.916801 
z
" clip-path="url(#p12cf55e71e)" style="fill: #4caf50"/>
   </g>
   <g id="patch_140">
    <path d="M 600.207573 377.370275 
L 612.817788 377.370275 
L 612.817788 353.794696 
L 600.207573 353.794696 
z
" clip-path="url(#p12cf55e71e)" style="fill: #4caf50"/>
   </g>
   <g id="patch_141">
    <path d="M 615.970341 377.370275 
L 628.580556 377.370275 
L 628.580556 353.794696 
L 615.970341 353.794696 
z
" clip-path="url(#p12cf55e71e)" style="fill: #4caf50"/>
   </g>
   <g id="patch_142">
    <path d="M 631.733109 345.93617 
L 644.343324 345.93617 
L 644.343324 298.785012 
L 631.733109 298.785012 
z
" clip-path="url(#p12cf55e71e)" style="fill: #4caf50"/>
   </g>
   <g id="patch_143">
    <path d="M 647.495877 369.511749 
L 660.106092 369.511749 
L 660.106092 345.93617 
L 647.495877 345.93617 
z
" clip-path="url(#p12cf55e71e)" style="fill: #4caf50"/>
   </g>
   <g id="patch_144">
    <path d="M 663.258645 345.93617 
L 675.86886 345.93617 
L 675.86886 298.785012 
L 663.258645 298.785012 
z
" clip-path="url(#p12cf55e71e)" style="fill: #4caf50"/>
   </g>
   <g id="patch_145">
    <path d="M 679.021413 361.653223 
L 691.631628 361.653223 
L 691.631628 290.926486 
L 679.021413 290.926486 
z
" clip-path="url(#p12cf55e71e)" style="fill: #4caf50"/>
   </g>
   <g id="patch_146">
    <path d="M 694.784181 330.219117 
L 707.394396 330.219117 
L 707.394396 283.067959 
L 694.784181 283.067959 
z
" clip-path="url(#p12cf55e71e)" style="fill: #4caf50"/>
   </g>
   <g id="patch_147">
    <path d="M 710.546949 283.067959 
L 723.157164 283.067959 
L 723.157164 259.49238 
L 710.546949 259.49238 
z
" clip-path="url(#p12cf55e71e)" style="fill: #4caf50"/>
   </g>
   <g id="patch_148">
    <path d="M 726.309717 345.93617 
L 738.919932 345.93617 
L 738.919932 251.633854 
L 726.309717 251.633854 
z
" clip-path="url(#p12cf55e71e)" style="fill: #4caf50"/>
   </g>
   <g id="patch_149">
    <path d="M 742.072485 330.219117 
L 754.6827 330.219117 
L 754.6827 306.643538 
L 742.072485 306.643538 
z
" clip-path="url(#p12cf55e71e)" style="fill: #4caf50"/>
   </g>
   <g id="patch_150">
    <path d="M 757.835253 377.370275 
L 770.445468 377.370275 
L 770.445468 353.794696 
L 757.835253 353.794696 
z
" clip-path="url(#p12cf55e71e)" style="fill: #4caf50"/>
   </g>
   <g id="patch_151">
    <path d="M 773.598021 369.511749 
L 786.208236 369.511749 
L 786.208236 298.785012 
L 773.598021 298.785012 
z
" clip-path="url(#p12cf55e71e)" style="fill: #4caf50"/>
   </g>
   <g id="patch_152">
    <path d="M 789.360789 314.502065 
L 801.971004 314.502065 
L 801.971004 267.350906 
L 789.360789 267.350906 
z
" clip-path="url(#p12cf55e71e)" style="fill: #4caf50"/>
   </g>
   <g id="patch_153">
    <path d="M 805.123558 455.955539 
L 817.733772 455.955539 
L 817.733772 455.955539 
L 805.123558 455.955539 
z
" clip-path="url(#p12cf55e71e)" style="fill: #4caf50"/>
   </g>
   <g id="patch_154">
    <path d="M 820.886326 455.955539 
L 833.49654 455.955539 
L 833.49654 455.955539 
L 820.886326 455.955539 
z
" clip-path="url(#p12cf55e71e)" style="fill: #4caf50"/>
   </g>
   <g id="patch_155">
    <path d="M 836.649094 455.955539 
L 849.259308 455.955539 
L 849.259308 455.955539 
L 836.649094 455.955539 
z
" clip-path="url(#p12cf55e71e)" style="fill: #4caf50"/>
   </g>
   <g id="matplotlib.axis_1">
    <g id="xtick_1">
     <g id="line2d_1">
      <defs>
       <path id="m6756705e43" d="M 0 0 
L 0 3.5 
" style="stroke: #000000; stroke-width: 0.8"/>
      </defs>
      <g>
       <use xlink:href="#m6756705e43" x="54.815799" y="455.955539" style="stroke: #000000; stroke-width: 0.8"/>
      </g>
     </g>
     <g id="text_1">
      <!-- 0 -->
      <g transform="translate(54.517489 472.827413) rotate(-45) scale(0.1 -0.1)">
       <defs>
        <path id="DejaVuSans-30" d="M 2034 4250 
Q 1547 4250 1301 3770 
Q 1056 3291 1056 2328 
Q 1056 1369 1301 889 
Q 1547 409 2034 409 
Q 2525 409 2770 889 
Q 3016 1369 3016 2328 
Q 3016 3291 2770 3770 
Q 2525 4250 2034 4250 
z
M 2034 4750 
Q 2819 4750 3233 4129 
Q 3647 3509 3647 2328 
Q 3647 1150 3233 529 
Q 2819 -91 2034 -91 
Q 1250 -91 836 529 
Q 422 1150 422 2328 
Q 422 3509 836 4129 
Q 1250 4750 2034 4750 
z
" transform="scale(0.015625)"/>
       </defs>
       <use xlink:href="#DejaVuSans-30"/>
      </g>
     </g>
    </g>
    <g id="xtick_2">
     <g id="line2d_2">
      <g>
       <use xlink:href="#m6756705e43" x="70.578567" y="455.955539" style="stroke: #000000; stroke-width: 0.8"/>
      </g>
     </g>
    </g>
    <g id="xtick_3">
     <g id="line2d_3">
      <g>
       <use xlink:href="#m6756705e43" x="86.341335" y="455.955539" style="stroke: #000000; stroke-width: 0.8"/>
      </g>
     </g>
    </g>
    <g id="xtick_4">
     <g id="line2d_4">
      <g>
       <use xlink:href="#m6756705e43" x="102.104103" y="455.955539" style="stroke: #000000; stroke-width: 0.8"/>
      </g>
     </g>
    </g>
    <g id="xtick_5">
     <g id="line2d_5">
      <g>
       <use xlink:href="#m6756705e43" x="117.866871" y="455.955539" style="stroke: #000000; stroke-width: 0.8"/>
      </g>
     </g>
    </g>
    <g id="xtick_6">
     <g id="line2d_6">
      <g>
       <use xlink:href="#m6756705e43" x="133.629639" y="455.955539" style="stroke: #000000; stroke-width: 0.8"/>
      </g>
     </g>
     <g id="text_2">
      <!-- 5 -->
      <g transform="translate(133.331329 472.827413) rotate(-45) scale(0.1 -0.1)">
       <defs>
        <path id="DejaVuSans-35" d="M 691 4666 
L 3169 4666 
L 3169 4134 
L 1269 4134 
L 1269 2991 
Q 1406 3038 1543 3061 
Q 1681 3084 1819 3084 
Q 2600 3084 3056 2656 
Q 3513 2228 3513 1497 
Q 3513 744 3044 326 
Q 2575 -91 1722 -91 
Q 1428 -91 1123 -41 
Q 819 9 494 109 
L 494 744 
Q 775 591 1075 516 
Q 1375 441 1709 441 
Q 2250 441 2565 725 
Q 2881 1009 2881 1497 
Q 2881 1984 2565 2268 
Q 2250 2553 1709 2553 
Q 1456 2553 1204 2497 
Q 953 2441 691 2322 
L 691 4666 
z
" transform="scale(0.015625)"/>
       </defs>
       <use xlink:href="#DejaVuSans-35"/>
      </g>
     </g>
    </g>
    <g id="xtick_7">
     <g id="line2d_7">
      <g>
       <use xlink:href="#m6756705e43" x="149.392407" y="455.955539" style="stroke: #000000; stroke-width: 0.8"/>
      </g>
     </g>
    </g>
    <g id="xtick_8">
     <g id="line2d_8">
      <g>
       <use xlink:href="#m6756705e43" x="165.155175" y="455.955539" style="stroke: #000000; stroke-width: 0.8"/>
      </g>
     </g>
    </g>
    <g id="xtick_9">
     <g id="line2d_9">
      <g>
       <use xlink:href="#m6756705e43" x="180.917943" y="455.955539" style="stroke: #000000; stroke-width: 0.8"/>
      </g>
     </g>
    </g>
    <g id="xtick_10">
     <g id="line2d_10">
      <g>
       <use xlink:href="#m6756705e43" x="196.680712" y="455.955539" style="stroke: #000000; stroke-width: 0.8"/>
      </g>
     </g>
    </g>
    <g id="xtick_11">
     <g id="line2d_11">
      <g>
       <use xlink:href="#m6756705e43" x="212.44348" y="455.955539" style="stroke: #000000; stroke-width: 0.8"/>
      </g>
     </g>
     <g id="text_3">
      <!-- 10 -->
      <g transform="translate(209.895685 477.326379) rotate(-45) scale(0.1 -0.1)">
       <defs>
        <path id="DejaVuSans-31" d="M 794 531 
L 1825 531 
L 1825 4091 
L 703 3866 
L 703 4441 
L 1819 4666 
L 2450 4666 
L 2450 531 
L 3481 531 
L 3481 0 
L 794 0 
L 794 531 
z
" transform="scale(0.015625)"/>
       </defs>
       <use xlink:href="#DejaVuSans-31"/>
       <use xlink:href="#DejaVuSans-30" transform="translate(63.623047 0)"/>
      </g>
     </g>
    </g>
    <g id="xtick_12">
     <g id="line2d_12">
      <g>
       <use xlink:href="#m6756705e43" x="228.206248" y="455.955539" style="stroke: #000000; stroke-width: 0.8"/>
      </g>
     </g>
     <g id="text_4">
      <!-- 11 -->
      <g transform="translate(225.658453 477.326379) rotate(-45) scale(0.1 -0.1)">
       <use xlink:href="#DejaVuSans-31"/>
       <use xlink:href="#DejaVuSans-31" transform="translate(63.623047 0)"/>
      </g>
     </g>
    </g>
    <g id="xtick_13">
     <g id="line2d_13">
      <g>
       <use xlink:href="#m6756705e43" x="243.969016" y="455.955539" style="stroke: #000000; stroke-width: 0.8"/>
      </g>
     </g>
    </g>
    <g id="xtick_14">
     <g id="line2d_14">
      <g>
       <use xlink:href="#m6756705e43" x="259.731784" y="455.955539" style="stroke: #000000; stroke-width: 0.8"/>
      </g>
     </g>
    </g>
    <g id="xtick_15">
     <g id="line2d_15">
      <g>
       <use xlink:href="#m6756705e43" x="275.494552" y="455.955539" style="stroke: #000000; stroke-width: 0.8"/>
      </g>
     </g>
    </g>
    <g id="xtick_16">
     <g id="line2d_16">
      <g>
       <use xlink:href="#m6756705e43" x="291.25732" y="455.955539" style="stroke: #000000; stroke-width: 0.8"/>
      </g>
     </g>
     <g id="text_5">
      <!-- 15 -->
      <g transform="translate(288.709526 477.326379) rotate(-45) scale(0.1 -0.1)">
       <use xlink:href="#DejaVuSans-31"/>
       <use xlink:href="#DejaVuSans-35" transform="translate(63.623047 0)"/>
      </g>
     </g>
    </g>
    <g id="xtick_17">
     <g id="line2d_17">
      <g>
       <use xlink:href="#m6756705e43" x="307.020088" y="455.955539" style="stroke: #000000; stroke-width: 0.8"/>
      </g>
     </g>
    </g>
    <g id="xtick_18">
     <g id="line2d_18">
      <g>
       <use xlink:href="#m6756705e43" x="322.782856" y="455.955539" style="stroke: #000000; stroke-width: 0.8"/>
      </g>
     </g>
    </g>
    <g id="xtick_19">
     <g id="line2d_19">
      <g>
       <use xlink:href="#m6756705e43" x="338.545624" y="455.955539" style="stroke: #000000; stroke-width: 0.8"/>
      </g>
     </g>
    </g>
    <g id="xtick_20">
     <g id="line2d_20">
      <g>
       <use xlink:href="#m6756705e43" x="354.308392" y="455.955539" style="stroke: #000000; stroke-width: 0.8"/>
      </g>
     </g>
    </g>
    <g id="xtick_21">
     <g id="line2d_21">
      <g>
       <use xlink:href="#m6756705e43" x="370.07116" y="455.955539" style="stroke: #000000; stroke-width: 0.8"/>
      </g>
     </g>
     <g id="text_6">
      <!-- 20 -->
      <g transform="translate(367.523366 477.326379) rotate(-45) scale(0.1 -0.1)">
       <defs>
        <path id="DejaVuSans-32" d="M 1228 531 
L 3431 531 
L 3431 0 
L 469 0 
L 469 531 
Q 828 903 1448 1529 
Q 2069 2156 2228 2338 
Q 2531 2678 2651 2914 
Q 2772 3150 2772 3378 
Q 2772 3750 2511 3984 
Q 2250 4219 1831 4219 
Q 1534 4219 1204 4116 
Q 875 4013 500 3803 
L 500 4441 
Q 881 4594 1212 4672 
Q 1544 4750 1819 4750 
Q 2544 4750 2975 4387 
Q 3406 4025 3406 3419 
Q 3406 3131 3298 2873 
Q 3191 2616 2906 2266 
Q 2828 2175 2409 1742 
Q 1991 1309 1228 531 
z
" transform="scale(0.015625)"/>
       </defs>
       <use xlink:href="#DejaVuSans-32"/>
       <use xlink:href="#DejaVuSans-30" transform="translate(63.623047 0)"/>
      </g>
     </g>
    </g>
    <g id="xtick_22">
     <g id="line2d_22">
      <g>
       <use xlink:href="#m6756705e43" x="385.833928" y="455.955539" style="stroke: #000000; stroke-width: 0.8"/>
      </g>
     </g>
    </g>
    <g id="xtick_23">
     <g id="line2d_23">
      <g>
       <use xlink:href="#m6756705e43" x="401.596696" y="455.955539" style="stroke: #000000; stroke-width: 0.8"/>
      </g>
     </g>
    </g>
    <g id="xtick_24">
     <g id="line2d_24">
      <g>
       <use xlink:href="#m6756705e43" x="417.359464" y="455.955539" style="stroke: #000000; stroke-width: 0.8"/>
      </g>
     </g>
     <g id="text_7">
      <!-- 23 -->
      <g transform="translate(414.81167 477.326379) rotate(-45) scale(0.1 -0.1)">
       <defs>
        <path id="DejaVuSans-33" d="M 2597 2516 
Q 3050 2419 3304 2112 
Q 3559 1806 3559 1356 
Q 3559 666 3084 287 
Q 2609 -91 1734 -91 
Q 1441 -91 1130 -33 
Q 819 25 488 141 
L 488 750 
Q 750 597 1062 519 
Q 1375 441 1716 441 
Q 2309 441 2620 675 
Q 2931 909 2931 1356 
Q 2931 1769 2642 2001 
Q 2353 2234 1838 2234 
L 1294 2234 
L 1294 2753 
L 1863 2753 
Q 2328 2753 2575 2939 
Q 2822 3125 2822 3475 
Q 2822 3834 2567 4026 
Q 2313 4219 1838 4219 
Q 1578 4219 1281 4162 
Q 984 4106 628 3988 
L 628 4550 
Q 988 4650 1302 4700 
Q 1616 4750 1894 4750 
Q 2613 4750 3031 4423 
Q 3450 4097 3450 3541 
Q 3450 3153 3228 2886 
Q 3006 2619 2597 2516 
z
" transform="scale(0.015625)"/>
       </defs>
       <use xlink:href="#DejaVuSans-32"/>
       <use xlink:href="#DejaVuSans-33" transform="translate(63.623047 0)"/>
      </g>
     </g>
    </g>
    <g id="xtick_25">
     <g id="line2d_25">
      <g>
       <use xlink:href="#m6756705e43" x="433.122232" y="455.955539" style="stroke: #000000; stroke-width: 0.8"/>
      </g>
     </g>
    </g>
    <g id="xtick_26">
     <g id="line2d_26">
      <g>
       <use xlink:href="#m6756705e43" x="448.885" y="455.955539" style="stroke: #000000; stroke-width: 0.8"/>
      </g>
     </g>
     <g id="text_8">
      <!-- 25 -->
      <g transform="translate(446.337206 477.326379) rotate(-45) scale(0.1 -0.1)">
       <use xlink:href="#DejaVuSans-32"/>
       <use xlink:href="#DejaVuSans-35" transform="translate(63.623047 0)"/>
      </g>
     </g>
    </g>
    <g id="xtick_27">
     <g id="line2d_27">
      <g>
       <use xlink:href="#m6756705e43" x="464.647768" y="455.955539" style="stroke: #000000; stroke-width: 0.8"/>
      </g>
     </g>
    </g>
    <g id="xtick_28">
     <g id="line2d_28">
      <g>
       <use xlink:href="#m6756705e43" x="480.410536" y="455.955539" style="stroke: #000000; stroke-width: 0.8"/>
      </g>
     </g>
    </g>
    <g id="xtick_29">
     <g id="line2d_29">
      <g>
       <use xlink:href="#m6756705e43" x="496.173304" y="455.955539" style="stroke: #000000; stroke-width: 0.8"/>
      </g>
     </g>
    </g>
    <g id="xtick_30">
     <g id="line2d_30">
      <g>
       <use xlink:href="#m6756705e43" x="511.936072" y="455.955539" style="stroke: #000000; stroke-width: 0.8"/>
      </g>
     </g>
    </g>
    <g id="xtick_31">
     <g id="line2d_31">
      <g>
       <use xlink:href="#m6756705e43" x="527.69884" y="455.955539" style="stroke: #000000; stroke-width: 0.8"/>
      </g>
     </g>
     <g id="text_9">
      <!-- 30 -->
      <g transform="translate(525.151046 477.326379) rotate(-45) scale(0.1 -0.1)">
       <use xlink:href="#DejaVuSans-33"/>
       <use xlink:href="#DejaVuSans-30" transform="translate(63.623047 0)"/>
      </g>
     </g>
    </g>
    <g id="xtick_32">
     <g id="line2d_32">
      <g>
       <use xlink:href="#m6756705e43" x="543.461608" y="455.955539" style="stroke: #000000; stroke-width: 0.8"/>
      </g>
     </g>
    </g>
    <g id="xtick_33">
     <g id="line2d_33">
      <g>
       <use xlink:href="#m6756705e43" x="559.224376" y="455.955539" style="stroke: #000000; stroke-width: 0.8"/>
      </g>
     </g>
    </g>
    <g id="xtick_34">
     <g id="line2d_34">
      <g>
       <use xlink:href="#m6756705e43" x="574.987144" y="455.955539" style="stroke: #000000; stroke-width: 0.8"/>
      </g>
     </g>
    </g>
    <g id="xtick_35">
     <g id="line2d_35">
      <g>
       <use xlink:href="#m6756705e43" x="590.749912" y="455.955539" style="stroke: #000000; stroke-width: 0.8"/>
      </g>
     </g>
    </g>
    <g id="xtick_36">
     <g id="line2d_36">
      <g>
       <use xlink:href="#m6756705e43" x="606.51268" y="455.955539" style="stroke: #000000; stroke-width: 0.8"/>
      </g>
     </g>
     <g id="text_10">
      <!-- 35 -->
      <g transform="translate(603.964886 477.326379) rotate(-45) scale(0.1 -0.1)">
       <use xlink:href="#DejaVuSans-33"/>
       <use xlink:href="#DejaVuSans-35" transform="translate(63.623047 0)"/>
      </g>
     </g>
    </g>
    <g id="xtick_37">
     <g id="line2d_37">
      <g>
       <use xlink:href="#m6756705e43" x="622.275448" y="455.955539" style="stroke: #000000; stroke-width: 0.8"/>
      </g>
     </g>
    </g>
    <g id="xtick_38">
     <g id="line2d_38">
      <g>
       <use xlink:href="#m6756705e43" x="638.038216" y="455.955539" style="stroke: #000000; stroke-width: 0.8"/>
      </g>
     </g>
    </g>
    <g id="xtick_39">
     <g id="line2d_39">
      <g>
       <use xlink:href="#m6756705e43" x="653.800984" y="455.955539" style="stroke: #000000; stroke-width: 0.8"/>
      </g>
     </g>
    </g>
    <g id="xtick_40">
     <g id="line2d_40">
      <g>
       <use xlink:href="#m6756705e43" x="669.563752" y="455.955539" style="stroke: #000000; stroke-width: 0.8"/>
      </g>
     </g>
    </g>
    <g id="xtick_41">
     <g id="line2d_41">
      <g>
       <use xlink:href="#m6756705e43" x="685.32652" y="455.955539" style="stroke: #000000; stroke-width: 0.8"/>
      </g>
     </g>
     <g id="text_11">
      <!-- 40 -->
      <g transform="translate(682.778726 477.326379) rotate(-45) scale(0.1 -0.1)">
       <defs>
        <path id="DejaVuSans-34" d="M 2419 4116 
L 825 1625 
L 2419 1625 
L 2419 4116 
z
M 2253 4666 
L 3047 4666 
L 3047 1625 
L 3713 1625 
L 3713 1100 
L 3047 1100 
L 3047 0 
L 2419 0 
L 2419 1100 
L 313 1100 
L 313 1709 
L 2253 4666 
z
" transform="scale(0.015625)"/>
       </defs>
       <use xlink:href="#DejaVuSans-34"/>
       <use xlink:href="#DejaVuSans-30" transform="translate(63.623047 0)"/>
      </g>
     </g>
    </g>
    <g id="xtick_42">
     <g id="line2d_42">
      <g>
       <use xlink:href="#m6756705e43" x="701.089288" y="455.955539" style="stroke: #000000; stroke-width: 0.8"/>
      </g>
     </g>
    </g>
    <g id="xtick_43">
     <g id="line2d_43">
      <g>
       <use xlink:href="#m6756705e43" x="716.852057" y="455.955539" style="stroke: #000000; stroke-width: 0.8"/>
      </g>
     </g>
    </g>
    <g id="xtick_44">
     <g id="line2d_44">
      <g>
       <use xlink:href="#m6756705e43" x="732.614825" y="455.955539" style="stroke: #000000; stroke-width: 0.8"/>
      </g>
     </g>
    </g>
    <g id="xtick_45">
     <g id="line2d_45">
      <g>
       <use xlink:href="#m6756705e43" x="748.377593" y="455.955539" style="stroke: #000000; stroke-width: 0.8"/>
      </g>
     </g>
    </g>
    <g id="xtick_46">
     <g id="line2d_46">
      <g>
       <use xlink:href="#m6756705e43" x="764.140361" y="455.955539" style="stroke: #000000; stroke-width: 0.8"/>
      </g>
     </g>
     <g id="text_12">
      <!-- 45 -->
      <g transform="translate(761.592567 477.326379) rotate(-45) scale(0.1 -0.1)">
       <use xlink:href="#DejaVuSans-34"/>
       <use xlink:href="#DejaVuSans-35" transform="translate(63.623047 0)"/>
      </g>
     </g>
    </g>
    <g id="xtick_47">
     <g id="line2d_47">
      <g>
       <use xlink:href="#m6756705e43" x="779.903129" y="455.955539" style="stroke: #000000; stroke-width: 0.8"/>
      </g>
     </g>
    </g>
    <g id="xtick_48">
     <g id="line2d_48">
      <g>
       <use xlink:href="#m6756705e43" x="795.665897" y="455.955539" style="stroke: #000000; stroke-width: 0.8"/>
      </g>
     </g>
     <g id="text_13">
      <!-- 47 -->
      <g transform="translate(793.118103 477.326379) rotate(-45) scale(0.1 -0.1)">
       <defs>
        <path id="DejaVuSans-37" d="M 525 4666 
L 3525 4666 
L 3525 4397 
L 1831 0 
L 1172 0 
L 2766 4134 
L 525 4134 
L 525 4666 
z
" transform="scale(0.015625)"/>
       </defs>
       <use xlink:href="#DejaVuSans-34"/>
       <use xlink:href="#DejaVuSans-37" transform="translate(63.623047 0)"/>
      </g>
     </g>
    </g>
    <g id="xtick_49">
     <g id="line2d_49">
      <g>
       <use xlink:href="#m6756705e43" x="811.428665" y="455.955539" style="stroke: #000000; stroke-width: 0.8"/>
      </g>
     </g>
    </g>
    <g id="xtick_50">
     <g id="line2d_50">
      <g>
       <use xlink:href="#m6756705e43" x="827.191433" y="455.955539" style="stroke: #000000; stroke-width: 0.8"/>
      </g>
     </g>
    </g>
    <g id="xtick_51">
     <g id="line2d_51">
      <g>
       <use xlink:href="#m6756705e43" x="842.954201" y="455.955539" style="stroke: #000000; stroke-width: 0.8"/>
      </g>
     </g>
    </g>
    <g id="text_14">
     <!-- Game Minute -->
     <g transform="translate(415.333437 490.395378) scale(0.1 -0.1)">
      <defs>
       <path id="DejaVuSans-47" d="M 3809 666 
L 3809 1919 
L 2778 1919 
L 2778 2438 
L 4434 2438 
L 4434 434 
Q 4069 175 3628 42 
Q 3188 -91 2688 -91 
Q 1594 -91 976 548 
Q 359 1188 359 2328 
Q 359 3472 976 4111 
Q 1594 4750 2688 4750 
Q 3144 4750 3555 4637 
Q 3966 4525 4313 4306 
L 4313 3634 
Q 3963 3931 3569 4081 
Q 3175 4231 2741 4231 
Q 1884 4231 1454 3753 
Q 1025 3275 1025 2328 
Q 1025 1384 1454 906 
Q 1884 428 2741 428 
Q 3075 428 3337 486 
Q 3600 544 3809 666 
z
" transform="scale(0.015625)"/>
       <path id="DejaVuSans-61" d="M 2194 1759 
Q 1497 1759 1228 1600 
Q 959 1441 959 1056 
Q 959 750 1161 570 
Q 1363 391 1709 391 
Q 2188 391 2477 730 
Q 2766 1069 2766 1631 
L 2766 1759 
L 2194 1759 
z
M 3341 1997 
L 3341 0 
L 2766 0 
L 2766 531 
Q 2569 213 2275 61 
Q 1981 -91 1556 -91 
Q 1019 -91 701 211 
Q 384 513 384 1019 
Q 384 1609 779 1909 
Q 1175 2209 1959 2209 
L 2766 2209 
L 2766 2266 
Q 2766 2663 2505 2880 
Q 2244 3097 1772 3097 
Q 1472 3097 1187 3025 
Q 903 2953 641 2809 
L 641 3341 
Q 956 3463 1253 3523 
Q 1550 3584 1831 3584 
Q 2591 3584 2966 3190 
Q 3341 2797 3341 1997 
z
" transform="scale(0.015625)"/>
       <path id="DejaVuSans-6d" d="M 3328 2828 
Q 3544 3216 3844 3400 
Q 4144 3584 4550 3584 
Q 5097 3584 5394 3201 
Q 5691 2819 5691 2113 
L 5691 0 
L 5113 0 
L 5113 2094 
Q 5113 2597 4934 2840 
Q 4756 3084 4391 3084 
Q 3944 3084 3684 2787 
Q 3425 2491 3425 1978 
L 3425 0 
L 2847 0 
L 2847 2094 
Q 2847 2600 2669 2842 
Q 2491 3084 2119 3084 
Q 1678 3084 1418 2786 
Q 1159 2488 1159 1978 
L 1159 0 
L 581 0 
L 581 3500 
L 1159 3500 
L 1159 2956 
Q 1356 3278 1631 3431 
Q 1906 3584 2284 3584 
Q 2666 3584 2933 3390 
Q 3200 3197 3328 2828 
z
" transform="scale(0.015625)"/>
       <path id="DejaVuSans-65" d="M 3597 1894 
L 3597 1613 
L 953 1613 
Q 991 1019 1311 708 
Q 1631 397 2203 397 
Q 2534 397 2845 478 
Q 3156 559 3463 722 
L 3463 178 
Q 3153 47 2828 -22 
Q 2503 -91 2169 -91 
Q 1331 -91 842 396 
Q 353 884 353 1716 
Q 353 2575 817 3079 
Q 1281 3584 2069 3584 
Q 2775 3584 3186 3129 
Q 3597 2675 3597 1894 
z
M 3022 2063 
Q 3016 2534 2758 2815 
Q 2500 3097 2075 3097 
Q 1594 3097 1305 2825 
Q 1016 2553 972 2059 
L 3022 2063 
z
" transform="scale(0.015625)"/>
       <path id="DejaVuSans-20" transform="scale(0.015625)"/>
       <path id="DejaVuSans-4d" d="M 628 4666 
L 1569 4666 
L 2759 1491 
L 3956 4666 
L 4897 4666 
L 4897 0 
L 4281 0 
L 4281 4097 
L 3078 897 
L 2444 897 
L 1241 4097 
L 1241 0 
L 628 0 
L 628 4666 
z
" transform="scale(0.015625)"/>
       <path id="DejaVuSans-69" d="M 603 3500 
L 1178 3500 
L 1178 0 
L 603 0 
L 603 3500 
z
M 603 4863 
L 1178 4863 
L 1178 4134 
L 603 4134 
L 603 4863 
z
" transform="scale(0.015625)"/>
       <path id="DejaVuSans-6e" d="M 3513 2113 
L 3513 0 
L 2938 0 
L 2938 2094 
Q 2938 2591 2744 2837 
Q 2550 3084 2163 3084 
Q 1697 3084 1428 2787 
Q 1159 2491 1159 1978 
L 1159 0 
L 581 0 
L 581 3500 
L 1159 3500 
L 1159 2956 
Q 1366 3272 1645 3428 
Q 1925 3584 2291 3584 
Q 2894 3584 3203 3211 
Q 3513 2838 3513 2113 
z
" transform="scale(0.015625)"/>
       <path id="DejaVuSans-75" d="M 544 1381 
L 544 3500 
L 1119 3500 
L 1119 1403 
Q 1119 906 1312 657 
Q 1506 409 1894 409 
Q 2359 409 2629 706 
Q 2900 1003 2900 1516 
L 2900 3500 
L 3475 3500 
L 3475 0 
L 2900 0 
L 2900 538 
Q 2691 219 2414 64 
Q 2138 -91 1772 -91 
Q 1169 -91 856 284 
Q 544 659 544 1381 
z
M 1991 3584 
L 1991 3584 
z
" transform="scale(0.015625)"/>
       <path id="DejaVuSans-74" d="M 1172 4494 
L 1172 3500 
L 2356 3500 
L 2356 3053 
L 1172 3053 
L 1172 1153 
Q 1172 725 1289 603 
Q 1406 481 1766 481 
L 2356 481 
L 2356 0 
L 1766 0 
Q 1100 0 847 248 
Q 594 497 594 1153 
L 594 3053 
L 172 3053 
L 172 3500 
L 594 3500 
L 594 4494 
L 1172 4494 
z
" transform="scale(0.015625)"/>
      </defs>
      <use xlink:href="#DejaVuSans-47"/>
      <use xlink:href="#DejaVuSans-61" transform="translate(77.490234 0)"/>
      <use xlink:href="#DejaVuSans-6d" transform="translate(138.769531 0)"/>
      <use xlink:href="#DejaVuSans-65" transform="translate(236.181641 0)"/>
      <use xlink:href="#DejaVuSans-20" transform="translate(297.705078 0)"/>
      <use xlink:href="#DejaVuSans-4d" transform="translate(329.492188 0)"/>
      <use xlink:href="#DejaVuSans-69" transform="translate(415.771484 0)"/>
      <use xlink:href="#DejaVuSans-6e" transform="translate(443.554688 0)"/>
      <use xlink:href="#DejaVuSans-75" transform="translate(506.933594 0)"/>
      <use xlink:href="#DejaVuSans-74" transform="translate(570.3125 0)"/>
      <use xlink:href="#DejaVuSans-65" transform="translate(609.521484 0)"/>
     </g>
    </g>
   </g>
   <g id="matplotlib.axis_2">
    <g id="ytick_1">
     <g id="line2d_52">
      <path d="M 44.57 455.955539 
L 853.2 455.955539 
" clip-path="url(#p12cf55e71e)" style="fill: none; stroke-dasharray: 2.96,1.28; stroke-dashoffset: 0; stroke: #b0b0b0; stroke-opacity: 0.6; stroke-width: 0.8"/>
     </g>
     <g id="line2d_53">
      <defs>
       <path id="m46c71cf55d" d="M 0 0 
L -3.5 0 
" style="stroke: #000000; stroke-width: 0.8"/>
      </defs>
      <g>
       <use xlink:href="#m46c71cf55d" x="44.57" y="455.955539" style="stroke: #000000; stroke-width: 0.8"/>
      </g>
     </g>
     <g id="text_15">
      <!-- 0 -->
      <g transform="translate(31.2075 459.754758) scale(0.1 -0.1)">
       <use xlink:href="#DejaVuSans-30"/>
      </g>
     </g>
    </g>
    <g id="ytick_2">
     <g id="line2d_54">
      <path d="M 44.57 377.370275 
L 853.2 377.370275 
" clip-path="url(#p12cf55e71e)" style="fill: none; stroke-dasharray: 2.96,1.28; stroke-dashoffset: 0; stroke: #b0b0b0; stroke-opacity: 0.6; stroke-width: 0.8"/>
     </g>
     <g id="line2d_55">
      <g>
       <use xlink:href="#m46c71cf55d" x="44.57" y="377.370275" style="stroke: #000000; stroke-width: 0.8"/>
      </g>
     </g>
     <g id="text_16">
      <!-- 10 -->
      <g transform="translate(24.845 381.169494) scale(0.1 -0.1)">
       <use xlink:href="#DejaVuSans-31"/>
       <use xlink:href="#DejaVuSans-30" transform="translate(63.623047 0)"/>
      </g>
     </g>
    </g>
    <g id="ytick_3">
     <g id="line2d_56">
      <path d="M 44.57 298.785012 
L 853.2 298.785012 
" clip-path="url(#p12cf55e71e)" style="fill: none; stroke-dasharray: 2.96,1.28; stroke-dashoffset: 0; stroke: #b0b0b0; stroke-opacity: 0.6; stroke-width: 0.8"/>
     </g>
     <g id="line2d_57">
      <g>
       <use xlink:href="#m46c71cf55d" x="44.57" y="298.785012" style="stroke: #000000; stroke-width: 0.8"/>
      </g>
     </g>
     <g id="text_17">
      <!-- 20 -->
      <g transform="translate(24.845 302.584231) scale(0.1 -0.1)">
       <use xlink:href="#DejaVuSans-32"/>
       <use xlink:href="#DejaVuSans-30" transform="translate(63.623047 0)"/>
      </g>
     </g>
    </g>
    <g id="ytick_4">
     <g id="line2d_58">
      <path d="M 44.57 220.199748 
L 853.2 220.199748 
" clip-path="url(#p12cf55e71e)" style="fill: none; stroke-dasharray: 2.96,1.28; stroke-dashoffset: 0; stroke: #b0b0b0; stroke-opacity: 0.6; stroke-width: 0.8"/>
     </g>
     <g id="line2d_59">
      <g>
       <use xlink:href="#m46c71cf55d" x="44.57" y="220.199748" style="stroke: #000000; stroke-width: 0.8"/>
      </g>
     </g>
     <g id="text_18">
      <!-- 30 -->
      <g transform="translate(24.845 223.998967) scale(0.1 -0.1)">
       <use xlink:href="#DejaVuSans-33"/>
       <use xlink:href="#DejaVuSans-30" transform="translate(63.623047 0)"/>
      </g>
     </g>
    </g>
    <g id="ytick_5">
     <g id="line2d_60">
      <path d="M 44.57 141.614485 
L 853.2 141.614485 
" clip-path="url(#p12cf55e71e)" style="fill: none; stroke-dasharray: 2.96,1.28; stroke-dashoffset: 0; stroke: #b0b0b0; stroke-opacity: 0.6; stroke-width: 0.8"/>
     </g>
     <g id="line2d_61">
      <g>
       <use xlink:href="#m46c71cf55d" x="44.57" y="141.614485" style="stroke: #000000; stroke-width: 0.8"/>
      </g>
     </g>
     <g id="text_19">
      <!-- 40 -->
      <g transform="translate(24.845 145.413704) scale(0.1 -0.1)">
       <use xlink:href="#DejaVuSans-34"/>
       <use xlink:href="#DejaVuSans-30" transform="translate(63.623047 0)"/>
      </g>
     </g>
    </g>
    <g id="ytick_6">
     <g id="line2d_62">
      <path d="M 44.57 63.029221 
L 853.2 63.029221 
" clip-path="url(#p12cf55e71e)" style="fill: none; stroke-dasharray: 2.96,1.28; stroke-dashoffset: 0; stroke: #b0b0b0; stroke-opacity: 0.6; stroke-width: 0.8"/>
     </g>
     <g id="line2d_63">
      <g>
       <use xlink:href="#m46c71cf55d" x="44.57" y="63.029221" style="stroke: #000000; stroke-width: 0.8"/>
      </g>
     </g>
     <g id="text_20">
      <!-- 50 -->
      <g transform="translate(24.845 66.82844) scale(0.1 -0.1)">
       <use xlink:href="#DejaVuSans-35"/>
       <use xlink:href="#DejaVuSans-30" transform="translate(63.623047 0)"/>
      </g>
     </g>
    </g>
    <g id="text_21">
     <!-- Points Scored -->
     <g transform="translate(18.765312 275.199019) rotate(-90) scale(0.1 -0.1)">
      <defs>
       <path id="DejaVuSans-50" d="M 1259 4147 
L 1259 2394 
L 2053 2394 
Q 2494 2394 2734 2622 
Q 2975 2850 2975 3272 
Q 2975 3691 2734 3919 
Q 2494 4147 2053 4147 
L 1259 4147 
z
M 628 4666 
L 2053 4666 
Q 2838 4666 3239 4311 
Q 3641 3956 3641 3272 
Q 3641 2581 3239 2228 
Q 2838 1875 2053 1875 
L 1259 1875 
L 1259 0 
L 628 0 
L 628 4666 
z
" transform="scale(0.015625)"/>
       <path id="DejaVuSans-6f" d="M 1959 3097 
Q 1497 3097 1228 2736 
Q 959 2375 959 1747 
Q 959 1119 1226 758 
Q 1494 397 1959 397 
Q 2419 397 2687 759 
Q 2956 1122 2956 1747 
Q 2956 2369 2687 2733 
Q 2419 3097 1959 3097 
z
M 1959 3584 
Q 2709 3584 3137 3096 
Q 3566 2609 3566 1747 
Q 3566 888 3137 398 
Q 2709 -91 1959 -91 
Q 1206 -91 779 398 
Q 353 888 353 1747 
Q 353 2609 779 3096 
Q 1206 3584 1959 3584 
z
" transform="scale(0.015625)"/>
       <path id="DejaVuSans-73" d="M 2834 3397 
L 2834 2853 
Q 2591 2978 2328 3040 
Q 2066 3103 1784 3103 
Q 1356 3103 1142 2972 
Q 928 2841 928 2578 
Q 928 2378 1081 2264 
Q 1234 2150 1697 2047 
L 1894 2003 
Q 2506 1872 2764 1633 
Q 3022 1394 3022 966 
Q 3022 478 2636 193 
Q 2250 -91 1575 -91 
Q 1294 -91 989 -36 
Q 684 19 347 128 
L 347 722 
Q 666 556 975 473 
Q 1284 391 1588 391 
Q 1994 391 2212 530 
Q 2431 669 2431 922 
Q 2431 1156 2273 1281 
Q 2116 1406 1581 1522 
L 1381 1569 
Q 847 1681 609 1914 
Q 372 2147 372 2553 
Q 372 3047 722 3315 
Q 1072 3584 1716 3584 
Q 2034 3584 2315 3537 
Q 2597 3491 2834 3397 
z
" transform="scale(0.015625)"/>
       <path id="DejaVuSans-53" d="M 3425 4513 
L 3425 3897 
Q 3066 4069 2747 4153 
Q 2428 4238 2131 4238 
Q 1616 4238 1336 4038 
Q 1056 3838 1056 3469 
Q 1056 3159 1242 3001 
Q 1428 2844 1947 2747 
L 2328 2669 
Q 3034 2534 3370 2195 
Q 3706 1856 3706 1288 
Q 3706 609 3251 259 
Q 2797 -91 1919 -91 
Q 1588 -91 1214 -16 
Q 841 59 441 206 
L 441 856 
Q 825 641 1194 531 
Q 1563 422 1919 422 
Q 2459 422 2753 634 
Q 3047 847 3047 1241 
Q 3047 1584 2836 1778 
Q 2625 1972 2144 2069 
L 1759 2144 
Q 1053 2284 737 2584 
Q 422 2884 422 3419 
Q 422 4038 858 4394 
Q 1294 4750 2059 4750 
Q 2388 4750 2728 4690 
Q 3069 4631 3425 4513 
z
" transform="scale(0.015625)"/>
       <path id="DejaVuSans-63" d="M 3122 3366 
L 3122 2828 
Q 2878 2963 2633 3030 
Q 2388 3097 2138 3097 
Q 1578 3097 1268 2742 
Q 959 2388 959 1747 
Q 959 1106 1268 751 
Q 1578 397 2138 397 
Q 2388 397 2633 464 
Q 2878 531 3122 666 
L 3122 134 
Q 2881 22 2623 -34 
Q 2366 -91 2075 -91 
Q 1284 -91 818 406 
Q 353 903 353 1747 
Q 353 2603 823 3093 
Q 1294 3584 2113 3584 
Q 2378 3584 2631 3529 
Q 2884 3475 3122 3366 
z
" transform="scale(0.015625)"/>
       <path id="DejaVuSans-72" d="M 2631 2963 
Q 2534 3019 2420 3045 
Q 2306 3072 2169 3072 
Q 1681 3072 1420 2755 
Q 1159 2438 1159 1844 
L 1159 0 
L 581 0 
L 581 3500 
L 1159 3500 
L 1159 2956 
Q 1341 3275 1631 3429 
Q 1922 3584 2338 3584 
Q 2397 3584 2469 3576 
Q 2541 3569 2628 3553 
L 2631 2963 
z
" transform="scale(0.015625)"/>
       <path id="DejaVuSans-64" d="M 2906 2969 
L 2906 4863 
L 3481 4863 
L 3481 0 
L 2906 0 
L 2906 525 
Q 2725 213 2448 61 
Q 2172 -91 1784 -91 
Q 1150 -91 751 415 
Q 353 922 353 1747 
Q 353 2572 751 3078 
Q 1150 3584 1784 3584 
Q 2172 3584 2448 3432 
Q 2725 3281 2906 2969 
z
M 947 1747 
Q 947 1113 1208 752 
Q 1469 391 1925 391 
Q 2381 391 2643 752 
Q 2906 1113 2906 1747 
Q 2906 2381 2643 2742 
Q 2381 3103 1925 3103 
Q 1469 3103 1208 2742 
Q 947 2381 947 1747 
z
" transform="scale(0.015625)"/>
      </defs>
      <use xlink:href="#DejaVuSans-50"/>
      <use xlink:href="#DejaVuSans-6f" transform="translate(56.677734 0)"/>
      <use xlink:href="#DejaVuSans-69" transform="translate(117.859375 0)"/>
      <use xlink:href="#DejaVuSans-6e" transform="translate(145.642578 0)"/>
      <use xlink:href="#DejaVuSans-74" transform="translate(209.021484 0)"/>
      <use xlink:href="#DejaVuSans-73" transform="translate(248.230469 0)"/>
      <use xlink:href="#DejaVuSans-20" transform="translate(300.330078 0)"/>
      <use xlink:href="#DejaVuSans-53" transform="translate(332.117188 0)"/>
      <use xlink:href="#DejaVuSans-63" transform="translate(395.59375 0)"/>
      <use xlink:href="#DejaVuSans-6f" transform="translate(450.574219 0)"/>
      <use xlink:href="#DejaVuSans-72" transform="translate(511.755859 0)"/>
      <use xlink:href="#DejaVuSans-65" transform="translate(550.619141 0)"/>
      <use xlink:href="#DejaVuSans-64" transform="translate(612.142578 0)"/>
     </g>
    </g>
   </g>
   <g id="patch_156">
    <path d="M 44.57 455.955539 
L 44.57 26.88 
" style="fill: none; stroke: #000000; stroke-width: 0.8; stroke-linejoin: miter; stroke-linecap: square"/>
   </g>
   <g id="patch_157">
    <path d="M 853.2 455.955539 
L 853.2 26.88 
" style="fill: none; stroke: #000000; stroke-width: 0.8; stroke-linejoin: miter; stroke-linecap: square"/>
   </g>
   <g id="patch_158">
    <path d="M 44.57 455.955539 
L 853.2 455.955539 
" style="fill: none; stroke: #000000; stroke-width: 0.8; stroke-linejoin: miter; stroke-linecap: square"/>
   </g>
   <g id="patch_159">
    <path d="M 44.57 26.88 
L 853.2 26.88 
" style="fill: none; stroke: #000000; stroke-width: 0.8; stroke-linejoin: miter; stroke-linecap: square"/>
   </g>
   <g id="text_22">
    <!-- OG Anunoby Scoring Timeline (2024-25) -->
    <g transform="translate(327.5575 20.88) scale(0.12 -0.12)">
     <defs>
      <path id="DejaVuSans-4f" d="M 2522 4238 
Q 1834 4238 1429 3725 
Q 1025 3213 1025 2328 
Q 1025 1447 1429 934 
Q 1834 422 2522 422 
Q 3209 422 3611 934 
Q 4013 1447 4013 2328 
Q 4013 3213 3611 3725 
Q 3209 4238 2522 4238 
z
M 2522 4750 
Q 3503 4750 4090 4092 
Q 4678 3434 4678 2328 
Q 4678 1225 4090 567 
Q 3503 -91 2522 -91 
Q 1538 -91 948 565 
Q 359 1222 359 2328 
Q 359 3434 948 4092 
Q 1538 4750 2522 4750 
z
" transform="scale(0.015625)"/>
      <path id="DejaVuSans-41" d="M 2188 4044 
L 1331 1722 
L 3047 1722 
L 2188 4044 
z
M 1831 4666 
L 2547 4666 
L 4325 0 
L 3669 0 
L 3244 1197 
L 1141 1197 
L 716 0 
L 50 0 
L 1831 4666 
z
" transform="scale(0.015625)"/>
      <path id="DejaVuSans-62" d="M 3116 1747 
Q 3116 2381 2855 2742 
Q 2594 3103 2138 3103 
Q 1681 3103 1420 2742 
Q 1159 2381 1159 1747 
Q 1159 1113 1420 752 
Q 1681 391 2138 391 
Q 2594 391 2855 752 
Q 3116 1113 3116 1747 
z
M 1159 2969 
Q 1341 3281 1617 3432 
Q 1894 3584 2278 3584 
Q 2916 3584 3314 3078 
Q 3713 2572 3713 1747 
Q 3713 922 3314 415 
Q 2916 -91 2278 -91 
Q 1894 -91 1617 61 
Q 1341 213 1159 525 
L 1159 0 
L 581 0 
L 581 4863 
L 1159 4863 
L 1159 2969 
z
" transform="scale(0.015625)"/>
      <path id="DejaVuSans-79" d="M 2059 -325 
Q 1816 -950 1584 -1140 
Q 1353 -1331 966 -1331 
L 506 -1331 
L 506 -850 
L 844 -850 
Q 1081 -850 1212 -737 
Q 1344 -625 1503 -206 
L 1606 56 
L 191 3500 
L 800 3500 
L 1894 763 
L 2988 3500 
L 3597 3500 
L 2059 -325 
z
" transform="scale(0.015625)"/>
      <path id="DejaVuSans-67" d="M 2906 1791 
Q 2906 2416 2648 2759 
Q 2391 3103 1925 3103 
Q 1463 3103 1205 2759 
Q 947 2416 947 1791 
Q 947 1169 1205 825 
Q 1463 481 1925 481 
Q 2391 481 2648 825 
Q 2906 1169 2906 1791 
z
M 3481 434 
Q 3481 -459 3084 -895 
Q 2688 -1331 1869 -1331 
Q 1566 -1331 1297 -1286 
Q 1028 -1241 775 -1147 
L 775 -588 
Q 1028 -725 1275 -790 
Q 1522 -856 1778 -856 
Q 2344 -856 2625 -561 
Q 2906 -266 2906 331 
L 2906 616 
Q 2728 306 2450 153 
Q 2172 0 1784 0 
Q 1141 0 747 490 
Q 353 981 353 1791 
Q 353 2603 747 3093 
Q 1141 3584 1784 3584 
Q 2172 3584 2450 3431 
Q 2728 3278 2906 2969 
L 2906 3500 
L 3481 3500 
L 3481 434 
z
" transform="scale(0.015625)"/>
      <path id="DejaVuSans-54" d="M -19 4666 
L 3928 4666 
L 3928 4134 
L 2272 4134 
L 2272 0 
L 1638 0 
L 1638 4134 
L -19 4134 
L -19 4666 
z
" transform="scale(0.015625)"/>
      <path id="DejaVuSans-6c" d="M 603 4863 
L 1178 4863 
L 1178 0 
L 603 0 
L 603 4863 
z
" transform="scale(0.015625)"/>
      <path id="DejaVuSans-28" d="M 1984 4856 
Q 1566 4138 1362 3434 
Q 1159 2731 1159 2009 
Q 1159 1288 1364 580 
Q 1569 -128 1984 -844 
L 1484 -844 
Q 1016 -109 783 600 
Q 550 1309 550 2009 
Q 550 2706 781 3412 
Q 1013 4119 1484 4856 
L 1984 4856 
z
" transform="scale(0.015625)"/>
      <path id="DejaVuSans-2d" d="M 313 2009 
L 1997 2009 
L 1997 1497 
L 313 1497 
L 313 2009 
z
" transform="scale(0.015625)"/>
      <path id="DejaVuSans-29" d="M 513 4856 
L 1013 4856 
Q 1481 4119 1714 3412 
Q 1947 2706 1947 2009 
Q 1947 1309 1714 600 
Q 1481 -109 1013 -844 
L 513 -844 
Q 928 -128 1133 580 
Q 1338 1288 1338 2009 
Q 1338 2731 1133 3434 
Q 928 4138 513 4856 
z
" transform="scale(0.015625)"/>
     </defs>
     <use xlink:href="#DejaVuSans-4f"/>
     <use xlink:href="#DejaVuSans-47" transform="translate(78.710938 0)"/>
     <use xlink:href="#DejaVuSans-20" transform="translate(156.201172 0)"/>
     <use xlink:href="#DejaVuSans-41" transform="translate(187.988281 0)"/>
     <use xlink:href="#DejaVuSans-6e" transform="translate(256.396484 0)"/>
     <use xlink:href="#DejaVuSans-75" transform="translate(319.775391 0)"/>
     <use xlink:href="#DejaVuSans-6e" transform="translate(383.154297 0)"/>
     <use xlink:href="#DejaVuSans-6f" transform="translate(446.533203 0)"/>
     <use xlink:href="#DejaVuSans-62" transform="translate(507.714844 0)"/>
     <use xlink:href="#DejaVuSans-79" transform="translate(571.191406 0)"/>
     <use xlink:href="#DejaVuSans-20" transform="translate(630.371094 0)"/>
     <use xlink:href="#DejaVuSans-53" transform="translate(662.158203 0)"/>
     <use xlink:href="#DejaVuSans-63" transform="translate(725.634766 0)"/>
     <use xlink:href="#DejaVuSans-6f" transform="translate(780.615234 0)"/>
     <use xlink:href="#DejaVuSans-72" transform="translate(841.796875 0)"/>
     <use xlink:href="#DejaVuSans-69" transform="translate(882.910156 0)"/>
     <use xlink:href="#DejaVuSans-6e" transform="translate(910.693359 0)"/>
     <use xlink:href="#DejaVuSans-67" transform="translate(974.072266 0)"/>
     <use xlink:href="#DejaVuSans-20" transform="translate(1037.548828 0)"/>
     <use xlink:href="#DejaVuSans-54" transform="translate(1069.335938 0)"/>
     <use xlink:href="#DejaVuSans-69" transform="translate(1127.294922 0)"/>
     <use xlink:href="#DejaVuSans-6d" transform="translate(1155.078125 0)"/>
     <use xlink:href="#DejaVuSans-65" transform="translate(1252.490234 0)"/>
     <use xlink:href="#DejaVuSans-6c" transform="translate(1314.013672 0)"/>
     <use xlink:href="#DejaVuSans-69" transform="translate(1341.796875 0)"/>
     <use xlink:href="#DejaVuSans-6e" transform="translate(1369.580078 0)"/>
     <use xlink:href="#DejaVuSans-65" transform="translate(1432.958984 0)"/>
     <use xlink:href="#DejaVuSans-20" transform="translate(1494.482422 0)"/>
     <use xlink:href="#DejaVuSans-28" transform="translate(1526.269531 0)"/>
     <use xlink:href="#DejaVuSans-32" transform="translate(1565.283203 0)"/>
     <use xlink:href="#DejaVuSans-30" transform="translate(1628.90625 0)"/>
     <use xlink:href="#DejaVuSans-32" transform="translate(1692.529297 0)"/>
     <use xlink:href="#DejaVuSans-34" transform="translate(1756.152344 0)"/>
     <use xlink:href="#DejaVuSans-2d" transform="translate(1819.775391 0)"/>
     <use xlink:href="#DejaVuSans-32" transform="translate(1855.859375 0)"/>
     <use xlink:href="#DejaVuSans-35" transform="translate(1919.482422 0)"/>
     <use xlink:href="#DejaVuSans-29" transform="translate(1983.105469 0)"/>
    </g>
   </g>
   <g id="legend_1">
    <g id="patch_160">
     <path d="M 793.33125 93.5925 
L 846.2 93.5925 
Q 848.2 93.5925 848.2 91.5925 
L 848.2 33.88 
Q 848.2 31.88 846.2 31.88 
L 793.33125 31.88 
Q 791.33125 31.88 791.33125 33.88 
L 791.33125 91.5925 
Q 791.33125 93.5925 793.33125 93.5925 
z
" style="fill: #ffffff; opacity: 0.8; stroke: #cccccc; stroke-linejoin: miter"/>
    </g>
    <g id="text_23">
     <!-- Shot Type -->
     <g transform="translate(795.33125 43.478437) scale(0.1 -0.1)">
      <defs>
       <path id="DejaVuSans-68" d="M 3513 2113 
L 3513 0 
L 2938 0 
L 2938 2094 
Q 2938 2591 2744 2837 
Q 2550 3084 2163 3084 
Q 1697 3084 1428 2787 
Q 1159 2491 1159 1978 
L 1159 0 
L 581 0 
L 581 4863 
L 1159 4863 
L 1159 2956 
Q 1366 3272 1645 3428 
Q 1925 3584 2291 3584 
Q 2894 3584 3203 3211 
Q 3513 2838 3513 2113 
z
" transform="scale(0.015625)"/>
       <path id="DejaVuSans-70" d="M 1159 525 
L 1159 -1331 
L 581 -1331 
L 581 3500 
L 1159 3500 
L 1159 2969 
Q 1341 3281 1617 3432 
Q 1894 3584 2278 3584 
Q 2916 3584 3314 3078 
Q 3713 2572 3713 1747 
Q 3713 922 3314 415 
Q 2916 -91 2278 -91 
Q 1894 -91 1617 61 
Q 1341 213 1159 525 
z
M 3116 1747 
Q 3116 2381 2855 2742 
Q 2594 3103 2138 3103 
Q 1681 3103 1420 2742 
Q 1159 2381 1159 1747 
Q 1159 1113 1420 752 
Q 1681 391 2138 391 
Q 2594 391 2855 752 
Q 3116 1113 3116 1747 
z
" transform="scale(0.015625)"/>
      </defs>
      <use xlink:href="#DejaVuSans-53"/>
      <use xlink:href="#DejaVuSans-68" transform="translate(63.476562 0)"/>
      <use xlink:href="#DejaVuSans-6f" transform="translate(126.855469 0)"/>
      <use xlink:href="#DejaVuSans-74" transform="translate(188.037109 0)"/>
      <use xlink:href="#DejaVuSans-20" transform="translate(227.246094 0)"/>
      <use xlink:href="#DejaVuSans-54" transform="translate(259.033203 0)"/>
      <use xlink:href="#DejaVuSans-79" transform="translate(304.492188 0)"/>
      <use xlink:href="#DejaVuSans-70" transform="translate(363.671875 0)"/>
      <use xlink:href="#DejaVuSans-65" transform="translate(427.148438 0)"/>
     </g>
    </g>
    <g id="patch_161">
     <path d="M 796.515625 58.156563 
L 816.515625 58.156563 
L 816.515625 51.156563 
L 796.515625 51.156563 
z
" style="fill: #ffc107"/>
    </g>
    <g id="text_24">
     <!-- FT -->
     <g transform="translate(824.515625 58.156563) scale(0.1 -0.1)">
      <defs>
       <path id="DejaVuSans-46" d="M 628 4666 
L 3309 4666 
L 3309 4134 
L 1259 4134 
L 1259 2759 
L 3109 2759 
L 3109 2228 
L 1259 2228 
L 1259 0 
L 628 0 
L 628 4666 
z
" transform="scale(0.015625)"/>
      </defs>
      <use xlink:href="#DejaVuSans-46"/>
      <use xlink:href="#DejaVuSans-54" transform="translate(55.769531 0)"/>
     </g>
    </g>
    <g id="patch_162">
     <path d="M 796.515625 72.834688 
L 816.515625 72.834688 
L 816.515625 65.834688 
L 796.515625 65.834688 
z
" style="fill: #2196f3"/>
    </g>
    <g id="text_25">
     <!-- 2PT -->
     <g transform="translate(824.515625 72.834688) scale(0.1 -0.1)">
      <use xlink:href="#DejaVuSans-32"/>
      <use xlink:href="#DejaVuSans-50" transform="translate(63.623047 0)"/>
      <use xlink:href="#DejaVuSans-54" transform="translate(123.925781 0)"/>
     </g>
    </g>
    <g id="patch_163">
     <path d="M 796.515625 87.512812 
L 816.515625 87.512812 
L 816.515625 80.512812 
L 796.515625 80.512812 
z
" style="fill: #4caf50"/>
    </g>
    <g id="text_26">
     <!-- 3PT -->
     <g transform="translate(824.515625 87.512812) scale(0.1 -0.1)">
      <use xlink:href="#DejaVuSans-33"/>
      <use xlink:href="#DejaVuSans-50" transform="translate(63.623047 0)"/>
      <use xlink:href="#DejaVuSans-54" transform="translate(123.925781 0)"/>
     </g>
    </g>
   </g>
  </g>
 </g>
 <defs>
  <clipPath id="p12cf55e71e">
   <rect x="44.57" y="26.88" width="808.63" height="429.075539"/>
  </clipPath>
 </defs>
</svg>
