<?xml version="1.0" encoding="utf-8" standalone="no"?>
<!DOCTYPE svg PUBLIC "-//W3C//DTD SVG 1.1//EN"
  "http://www.w3.org/Graphics/SVG/1.1/DTD/svg11.dtd">
<svg xmlns:xlink="http://www.w3.org/1999/xlink" width="864pt" height="504pt" viewBox="0 0 864 504" xmlns="http://www.w3.org/2000/svg" version="1.1">
 <metadata>
  <rdf:RDF xmlns:dc="http://purl.org/dc/elements/1.1/" xmlns:cc="http://creativecommons.org/ns#" xmlns:rdf="http://www.w3.org/1999/02/22-rdf-syntax-ns#">
   <cc:Work>
    <dc:type rdf:resource="http://purl.org/dc/dcmitype/StillImage"/>
    <dc:date>2025-08-24T03:40:05.340772</dc:date>
    <dc:format>image/svg+xml</dc:format>
    <dc:creator>
     <cc:Agent>
      <dc:title>Matplotlib v3.10.5, https://matplotlib.org/</dc:title>
     </cc:Agent>
    </dc:creator>
   </cc:Work>
  </rdf:RDF>
 </metadata>
 <defs>
  <style type="text/css">*{stroke-linejoin: round; stroke-linecap: butt}</style>
 </defs>
 <g id="figure_1">
  <g id="patch_1">
   <path d="M 0 504 
L 864 504 
L 864 0 
L 0 0 
z
" style="fill: #ffffff"/>
  </g>
  <g id="axes_1">
   <g id="patch_2">
    <path d="M 50.87 455.955539 
L 853.2 455.955539 
L 853.2 26.88 
L 50.87 26.88 
z
" style="fill: #ffffff"/>
   </g>
   <g id="patch_3">
    <path d="M 55.110645 455.955539 
L 68.680708 455.955539 
L 68.680708 434.447993 
L 55.110645 434.447993 
z
" clip-path="url(#pee82afadb1)" style="fill: #ffc107"/>
   </g>
   <g id="patch_4">
    <path d="M 72.073224 455.955539 
L 85.643288 455.955539 
L 85.643288 434.447993 
L 72.073224 434.447993 
z
" clip-path="url(#pee82afadb1)" style="fill: #ffc107"/>
   </g>
   <g id="patch_5">
    <path d="M 89.035803 455.955539 
L 102.605867 455.955539 
L 102.605867 417.241957 
L 89.035803 417.241957 
z
" clip-path="url(#pee82afadb1)" style="fill: #ffc107"/>
   </g>
   <g id="patch_6">
    <path d="M 105.998383 455.955539 
L 119.568446 455.955539 
L 119.568446 447.352521 
L 105.998383 447.352521 
z
" clip-path="url(#pee82afadb1)" style="fill: #ffc107"/>
   </g>
   <g id="patch_7">
    <path d="M 122.960962 455.955539 
L 136.531025 455.955539 
L 136.531025 434.447993 
L 122.960962 434.447993 
z
" clip-path="url(#pee82afadb1)" style="fill: #ffc107"/>
   </g>
   <g id="patch_8">
    <path d="M 139.923541 455.955539 
L 153.493605 455.955539 
L 153.493605 438.749502 
L 139.923541 438.749502 
z
" clip-path="url(#pee82afadb1)" style="fill: #ffc107"/>
   </g>
   <g id="patch_9">
    <path d="M 156.886121 455.955539 
L 170.456184 455.955539 
L 170.456184 443.051011 
L 156.886121 443.051011 
z
" clip-path="url(#pee82afadb1)" style="fill: #ffc107"/>
   </g>
   <g id="patch_10">
    <path d="M 173.8487 455.955539 
L 187.418763 455.955539 
L 187.418763 412.940447 
L 173.8487 412.940447 
z
" clip-path="url(#pee82afadb1)" style="fill: #ffc107"/>
   </g>
   <g id="patch_11">
    <path d="M 190.811279 455.955539 
L 204.381342 455.955539 
L 204.381342 391.432902 
L 190.811279 391.432902 
z
" clip-path="url(#pee82afadb1)" style="fill: #ffc107"/>
   </g>
   <g id="patch_12">
    <path d="M 207.773858 455.955539 
L 221.343922 455.955539 
L 221.343922 374.226865 
L 207.773858 374.226865 
z
" clip-path="url(#pee82afadb1)" style="fill: #ffc107"/>
   </g>
   <g id="patch_13">
    <path d="M 224.736438 455.955539 
L 238.306501 455.955539 
L 238.306501 434.447993 
L 224.736438 434.447993 
z
" clip-path="url(#pee82afadb1)" style="fill: #ffc107"/>
   </g>
   <g id="patch_14">
    <path d="M 241.699017 455.955539 
L 255.26908 455.955539 
L 255.26908 425.844975 
L 241.699017 425.844975 
z
" clip-path="url(#pee82afadb1)" style="fill: #ffc107"/>
   </g>
   <g id="patch_15">
    <path d="M 258.661596 455.955539 
L 272.23166 455.955539 
L 272.23166 455.955539 
L 258.661596 455.955539 
z
" clip-path="url(#pee82afadb1)" style="fill: #ffc107"/>
   </g>
   <g id="patch_16">
    <path d="M 275.624175 455.955539 
L 289.194239 455.955539 
L 289.194239 455.955539 
L 275.624175 455.955539 
z
" clip-path="url(#pee82afadb1)" style="fill: #ffc107"/>
   </g>
   <g id="patch_17">
    <path d="M 292.586755 455.955539 
L 306.156818 455.955539 
L 306.156818 438.749502 
L 292.586755 438.749502 
z
" clip-path="url(#pee82afadb1)" style="fill: #ffc107"/>
   </g>
   <g id="patch_18">
    <path d="M 309.549334 455.955539 
L 323.119397 455.955539 
L 323.119397 434.447993 
L 309.549334 434.447993 
z
" clip-path="url(#pee82afadb1)" style="fill: #ffc107"/>
   </g>
   <g id="patch_19">
    <path d="M 326.511913 455.955539 
L 340.081977 455.955539 
L 340.081977 412.940447 
L 326.511913 412.940447 
z
" clip-path="url(#pee82afadb1)" style="fill: #ffc107"/>
   </g>
   <g id="patch_20">
    <path d="M 343.474493 455.955539 
L 357.044556 455.955539 
L 357.044556 408.638938 
L 343.474493 408.638938 
z
" clip-path="url(#pee82afadb1)" style="fill: #ffc107"/>
   </g>
   <g id="patch_21">
    <path d="M 360.437072 455.955539 
L 374.007135 455.955539 
L 374.007135 400.03592 
L 360.437072 400.03592 
z
" clip-path="url(#pee82afadb1)" style="fill: #ffc107"/>
   </g>
   <g id="patch_22">
    <path d="M 377.399651 455.955539 
L 390.969715 455.955539 
L 390.969715 430.146484 
L 377.399651 430.146484 
z
" clip-path="url(#pee82afadb1)" style="fill: #ffc107"/>
   </g>
   <g id="patch_23">
    <path d="M 394.36223 455.955539 
L 407.932294 455.955539 
L 407.932294 382.829883 
L 394.36223 382.829883 
z
" clip-path="url(#pee82afadb1)" style="fill: #ffc107"/>
   </g>
   <g id="patch_24">
    <path d="M 411.32481 455.955539 
L 424.894873 455.955539 
L 424.894873 378.528374 
L 411.32481 378.528374 
z
" clip-path="url(#pee82afadb1)" style="fill: #ffc107"/>
   </g>
   <g id="patch_25">
    <path d="M 428.287389 455.955539 
L 441.857452 455.955539 
L 441.857452 443.051011 
L 428.287389 443.051011 
z
" clip-path="url(#pee82afadb1)" style="fill: #ffc107"/>
   </g>
   <g id="patch_26">
    <path d="M 445.249968 455.955539 
L 458.820032 455.955539 
L 458.820032 438.749502 
L 445.249968 438.749502 
z
" clip-path="url(#pee82afadb1)" style="fill: #ffc107"/>
   </g>
   <g id="patch_27">
    <path d="M 462.212548 455.955539 
L 475.782611 455.955539 
L 475.782611 430.146484 
L 462.212548 430.146484 
z
" clip-path="url(#pee82afadb1)" style="fill: #ffc107"/>
   </g>
   <g id="patch_28">
    <path d="M 479.175127 455.955539 
L 492.74519 455.955539 
L 492.74519 425.844975 
L 479.175127 425.844975 
z
" clip-path="url(#pee82afadb1)" style="fill: #ffc107"/>
   </g>
   <g id="patch_29">
    <path d="M 496.137706 455.955539 
L 509.70777 455.955539 
L 509.70777 391.432902 
L 496.137706 391.432902 
z
" clip-path="url(#pee82afadb1)" style="fill: #ffc107"/>
   </g>
   <g id="patch_30">
    <path d="M 513.100285 455.955539 
L 526.670349 455.955539 
L 526.670349 408.638938 
L 513.100285 408.638938 
z
" clip-path="url(#pee82afadb1)" style="fill: #ffc107"/>
   </g>
   <g id="patch_31">
    <path d="M 530.062865 455.955539 
L 543.632928 455.955539 
L 543.632928 417.241957 
L 530.062865 417.241957 
z
" clip-path="url(#pee82afadb1)" style="fill: #ffc107"/>
   </g>
   <g id="patch_32">
    <path d="M 547.025444 455.955539 
L 560.595507 455.955539 
L 560.595507 374.226865 
L 547.025444 374.226865 
z
" clip-path="url(#pee82afadb1)" style="fill: #ffc107"/>
   </g>
   <g id="patch_33">
    <path d="M 563.988023 455.955539 
L 577.558087 455.955539 
L 577.558087 344.116301 
L 563.988023 344.116301 
z
" clip-path="url(#pee82afadb1)" style="fill: #ffc107"/>
   </g>
   <g id="patch_34">
    <path d="M 580.950603 455.955539 
L 594.520666 455.955539 
L 594.520666 387.131392 
L 580.950603 387.131392 
z
" clip-path="url(#pee82afadb1)" style="fill: #ffc107"/>
   </g>
   <g id="patch_35">
    <path d="M 597.913182 455.955539 
L 611.483245 455.955539 
L 611.483245 378.528374 
L 597.913182 378.528374 
z
" clip-path="url(#pee82afadb1)" style="fill: #ffc107"/>
   </g>
   <g id="patch_36">
    <path d="M 614.875761 455.955539 
L 628.445825 455.955539 
L 628.445825 412.940447 
L 614.875761 412.940447 
z
" clip-path="url(#pee82afadb1)" style="fill: #ffc107"/>
   </g>
   <g id="patch_37">
    <path d="M 631.83834 455.955539 
L 645.408404 455.955539 
L 645.408404 447.352521 
L 631.83834 447.352521 
z
" clip-path="url(#pee82afadb1)" style="fill: #ffc107"/>
   </g>
   <g id="patch_38">
    <path d="M 648.80092 455.955539 
L 662.370983 455.955539 
L 662.370983 447.352521 
L 648.80092 447.352521 
z
" clip-path="url(#pee82afadb1)" style="fill: #ffc107"/>
   </g>
   <g id="patch_39">
    <path d="M 665.763499 455.955539 
L 679.333562 455.955539 
L 679.333562 455.955539 
L 665.763499 455.955539 
z
" clip-path="url(#pee82afadb1)" style="fill: #ffc107"/>
   </g>
   <g id="patch_40">
    <path d="M 682.726078 455.955539 
L 696.296142 455.955539 
L 696.296142 447.352521 
L 682.726078 447.352521 
z
" clip-path="url(#pee82afadb1)" style="fill: #ffc107"/>
   </g>
   <g id="patch_41">
    <path d="M 699.688658 455.955539 
L 713.258721 455.955539 
L 713.258721 425.844975 
L 699.688658 425.844975 
z
" clip-path="url(#pee82afadb1)" style="fill: #ffc107"/>
   </g>
   <g id="patch_42">
    <path d="M 716.651237 455.955539 
L 730.2213 455.955539 
L 730.2213 417.241957 
L 716.651237 417.241957 
z
" clip-path="url(#pee82afadb1)" style="fill: #ffc107"/>
   </g>
   <g id="patch_43">
    <path d="M 733.613816 455.955539 
L 747.183879 455.955539 
L 747.183879 404.337429 
L 733.613816 404.337429 
z
" clip-path="url(#pee82afadb1)" style="fill: #ffc107"/>
   </g>
   <g id="patch_44">
    <path d="M 750.576395 455.955539 
L 764.146459 455.955539 
L 764.146459 417.241957 
L 750.576395 417.241957 
z
" clip-path="url(#pee82afadb1)" style="fill: #ffc107"/>
   </g>
   <g id="patch_45">
    <path d="M 767.538975 455.955539 
L 781.109038 455.955539 
L 781.109038 378.528374 
L 767.538975 378.528374 
z
" clip-path="url(#pee82afadb1)" style="fill: #ffc107"/>
   </g>
   <g id="patch_46">
    <path d="M 784.501554 455.955539 
L 798.071617 455.955539 
L 798.071617 404.337429 
L 784.501554 404.337429 
z
" clip-path="url(#pee82afadb1)" style="fill: #ffc107"/>
   </g>
   <g id="patch_47">
    <path d="M 801.464133 455.955539 
L 815.034197 455.955539 
L 815.034197 361.322337 
L 801.464133 361.322337 
z
" clip-path="url(#pee82afadb1)" style="fill: #ffc107"/>
   </g>
   <g id="patch_48">
    <path d="M 818.426712 455.955539 
L 831.996776 455.955539 
L 831.996776 344.116301 
L 818.426712 344.116301 
z
" clip-path="url(#pee82afadb1)" style="fill: #ffc107"/>
   </g>
   <g id="patch_49">
    <path d="M 835.389292 455.955539 
L 848.959355 455.955539 
L 848.959355 455.955539 
L 835.389292 455.955539 
z
" clip-path="url(#pee82afadb1)" style="fill: #ffc107"/>
   </g>
   <g id="patch_50">
    <path d="M 55.110645 434.447993 
L 68.680708 434.447993 
L 68.680708 279.593663 
L 55.110645 279.593663 
z
" clip-path="url(#pee82afadb1)" style="fill: #2196f3"/>
   </g>
   <g id="patch_51">
    <path d="M 72.073224 434.447993 
L 85.643288 434.447993 
L 85.643288 262.387627 
L 72.073224 262.387627 
z
" clip-path="url(#pee82afadb1)" style="fill: #2196f3"/>
   </g>
   <g id="patch_52">
    <path d="M 89.035803 417.241957 
L 102.605867 417.241957 
L 102.605867 279.593663 
L 89.035803 279.593663 
z
" clip-path="url(#pee82afadb1)" style="fill: #2196f3"/>
   </g>
   <g id="patch_53">
    <path d="M 105.998383 447.352521 
L 119.568446 447.352521 
L 119.568446 266.689136 
L 105.998383 266.689136 
z
" clip-path="url(#pee82afadb1)" style="fill: #2196f3"/>
   </g>
   <g id="patch_54">
    <path d="M 122.960962 434.447993 
L 136.531025 434.447993 
L 136.531025 262.387627 
L 122.960962 262.387627 
z
" clip-path="url(#pee82afadb1)" style="fill: #2196f3"/>
   </g>
   <g id="patch_55">
    <path d="M 139.923541 438.749502 
L 153.493605 438.749502 
L 153.493605 309.704227 
L 139.923541 309.704227 
z
" clip-path="url(#pee82afadb1)" style="fill: #2196f3"/>
   </g>
   <g id="patch_56">
    <path d="M 156.886121 443.051011 
L 170.456184 443.051011 
L 170.456184 210.769517 
L 156.886121 210.769517 
z
" clip-path="url(#pee82afadb1)" style="fill: #2196f3"/>
   </g>
   <g id="patch_57">
    <path d="M 173.8487 412.940447 
L 187.418763 412.940447 
L 187.418763 266.689136 
L 173.8487 266.689136 
z
" clip-path="url(#pee82afadb1)" style="fill: #2196f3"/>
   </g>
   <g id="patch_58">
    <path d="M 190.811279 391.432902 
L 204.381342 391.432902 
L 204.381342 133.342352 
L 190.811279 133.342352 
z
" clip-path="url(#pee82afadb1)" style="fill: #2196f3"/>
   </g>
   <g id="patch_59">
    <path d="M 207.773858 374.226865 
L 221.343922 374.226865 
L 221.343922 167.754425 
L 207.773858 167.754425 
z
" clip-path="url(#pee82afadb1)" style="fill: #2196f3"/>
   </g>
   <g id="patch_60">
    <path d="M 224.736438 434.447993 
L 238.306501 434.447993 
L 238.306501 279.593663 
L 224.736438 279.593663 
z
" clip-path="url(#pee82afadb1)" style="fill: #2196f3"/>
   </g>
   <g id="patch_61">
    <path d="M 241.699017 425.844975 
L 255.26908 425.844975 
L 255.26908 348.41781 
L 241.699017 348.41781 
z
" clip-path="url(#pee82afadb1)" style="fill: #2196f3"/>
   </g>
   <g id="patch_62">
    <path d="M 258.661596 455.955539 
L 272.23166 455.955539 
L 272.23166 438.749502 
L 258.661596 438.749502 
z
" clip-path="url(#pee82afadb1)" style="fill: #2196f3"/>
   </g>
   <g id="patch_63">
    <path d="M 275.624175 455.955539 
L 289.194239 455.955539 
L 289.194239 447.352521 
L 275.624175 447.352521 
z
" clip-path="url(#pee82afadb1)" style="fill: #2196f3"/>
   </g>
   <g id="patch_64">
    <path d="M 292.586755 438.749502 
L 306.156818 438.749502 
L 306.156818 378.528374 
L 292.586755 378.528374 
z
" clip-path="url(#pee82afadb1)" style="fill: #2196f3"/>
   </g>
   <g id="patch_65">
    <path d="M 309.549334 434.447993 
L 323.119397 434.447993 
L 323.119397 322.608755 
L 309.549334 322.608755 
z
" clip-path="url(#pee82afadb1)" style="fill: #2196f3"/>
   </g>
   <g id="patch_66">
    <path d="M 326.511913 412.940447 
L 340.081977 412.940447 
L 340.081977 223.674044 
L 326.511913 223.674044 
z
" clip-path="url(#pee82afadb1)" style="fill: #2196f3"/>
   </g>
   <g id="patch_67">
    <path d="M 343.474493 408.638938 
L 357.044556 408.638938 
L 357.044556 253.784608 
L 343.474493 253.784608 
z
" clip-path="url(#pee82afadb1)" style="fill: #2196f3"/>
   </g>
   <g id="patch_68">
    <path d="M 360.437072 400.03592 
L 374.007135 400.03592 
L 374.007135 176.357443 
L 360.437072 176.357443 
z
" clip-path="url(#pee82afadb1)" style="fill: #2196f3"/>
   </g>
   <g id="patch_69">
    <path d="M 377.399651 430.146484 
L 390.969715 430.146484 
L 390.969715 301.101209 
L 377.399651 301.101209 
z
" clip-path="url(#pee82afadb1)" style="fill: #2196f3"/>
   </g>
   <g id="patch_70">
    <path d="M 394.36223 382.829883 
L 407.932294 382.829883 
L 407.932294 236.578572 
L 394.36223 236.578572 
z
" clip-path="url(#pee82afadb1)" style="fill: #2196f3"/>
   </g>
   <g id="patch_71">
    <path d="M 411.32481 378.528374 
L 424.894873 378.528374 
L 424.894873 137.643861 
L 411.32481 137.643861 
z
" clip-path="url(#pee82afadb1)" style="fill: #2196f3"/>
   </g>
   <g id="patch_72">
    <path d="M 428.287389 443.051011 
L 441.857452 443.051011 
L 441.857452 253.784608 
L 428.287389 253.784608 
z
" clip-path="url(#pee82afadb1)" style="fill: #2196f3"/>
   </g>
   <g id="patch_73">
    <path d="M 445.249968 438.749502 
L 458.820032 438.749502 
L 458.820032 301.101209 
L 445.249968 301.101209 
z
" clip-path="url(#pee82afadb1)" style="fill: #2196f3"/>
   </g>
   <g id="patch_74">
    <path d="M 462.212548 430.146484 
L 475.782611 430.146484 
L 475.782611 258.086117 
L 462.212548 258.086117 
z
" clip-path="url(#pee82afadb1)" style="fill: #2196f3"/>
   </g>
   <g id="patch_75">
    <path d="M 479.175127 425.844975 
L 492.74519 425.844975 
L 492.74519 236.578572 
L 479.175127 236.578572 
z
" clip-path="url(#pee82afadb1)" style="fill: #2196f3"/>
   </g>
   <g id="patch_76">
    <path d="M 496.137706 391.432902 
L 509.70777 391.432902 
L 509.70777 253.784608 
L 496.137706 253.784608 
z
" clip-path="url(#pee82afadb1)" style="fill: #2196f3"/>
   </g>
   <g id="patch_77">
    <path d="M 513.100285 408.638938 
L 526.670349 408.638938 
L 526.670349 245.18159 
L 513.100285 245.18159 
z
" clip-path="url(#pee82afadb1)" style="fill: #2196f3"/>
   </g>
   <g id="patch_78">
    <path d="M 530.062865 417.241957 
L 543.632928 417.241957 
L 543.632928 270.990645 
L 530.062865 270.990645 
z
" clip-path="url(#pee82afadb1)" style="fill: #2196f3"/>
   </g>
   <g id="patch_79">
    <path d="M 547.025444 374.226865 
L 560.595507 374.226865 
L 560.595507 167.754425 
L 547.025444 167.754425 
z
" clip-path="url(#pee82afadb1)" style="fill: #2196f3"/>
   </g>
   <g id="patch_80">
    <path d="M 563.988023 344.116301 
L 577.558087 344.116301 
L 577.558087 189.261971 
L 563.988023 189.261971 
z
" clip-path="url(#pee82afadb1)" style="fill: #2196f3"/>
   </g>
   <g id="patch_81">
    <path d="M 580.950603 387.131392 
L 594.520666 387.131392 
L 594.520666 249.483099 
L 580.950603 249.483099 
z
" clip-path="url(#pee82afadb1)" style="fill: #2196f3"/>
   </g>
   <g id="patch_82">
    <path d="M 597.913182 378.528374 
L 611.483245 378.528374 
L 611.483245 223.674044 
L 597.913182 223.674044 
z
" clip-path="url(#pee82afadb1)" style="fill: #2196f3"/>
   </g>
   <g id="patch_83">
    <path d="M 614.875761 412.940447 
L 628.445825 412.940447 
L 628.445825 266.689136 
L 614.875761 266.689136 
z
" clip-path="url(#pee82afadb1)" style="fill: #2196f3"/>
   </g>
   <g id="patch_84">
    <path d="M 631.83834 455.955539 
L 645.408404 455.955539 
L 645.408404 455.955539 
L 631.83834 455.955539 
z
" clip-path="url(#pee82afadb1)" style="fill: #2196f3"/>
   </g>
   <g id="patch_85">
    <path d="M 648.80092 455.955539 
L 662.370983 455.955539 
L 662.370983 455.955539 
L 648.80092 455.955539 
z
" clip-path="url(#pee82afadb1)" style="fill: #2196f3"/>
   </g>
   <g id="patch_86">
    <path d="M 665.763499 455.955539 
L 679.333562 455.955539 
L 679.333562 447.352521 
L 665.763499 447.352521 
z
" clip-path="url(#pee82afadb1)" style="fill: #2196f3"/>
   </g>
   <g id="patch_87">
    <path d="M 682.726078 447.352521 
L 696.296142 447.352521 
L 696.296142 395.734411 
L 682.726078 395.734411 
z
" clip-path="url(#pee82afadb1)" style="fill: #2196f3"/>
   </g>
   <g id="patch_88">
    <path d="M 699.688658 425.844975 
L 713.258721 425.844975 
L 713.258721 314.005737 
L 699.688658 314.005737 
z
" clip-path="url(#pee82afadb1)" style="fill: #2196f3"/>
   </g>
   <g id="patch_89">
    <path d="M 716.651237 417.241957 
L 730.2213 417.241957 
L 730.2213 288.196682 
L 716.651237 288.196682 
z
" clip-path="url(#pee82afadb1)" style="fill: #2196f3"/>
   </g>
   <g id="patch_90">
    <path d="M 733.613816 404.337429 
L 747.183879 404.337429 
L 747.183879 292.498191 
L 733.613816 292.498191 
z
" clip-path="url(#pee82afadb1)" style="fill: #2196f3"/>
   </g>
   <g id="patch_91">
    <path d="M 750.576395 417.241957 
L 764.146459 417.241957 
L 764.146459 270.990645 
L 750.576395 270.990645 
z
" clip-path="url(#pee82afadb1)" style="fill: #2196f3"/>
   </g>
   <g id="patch_92">
    <path d="M 767.538975 378.528374 
L 781.109038 378.528374 
L 781.109038 206.468008 
L 767.538975 206.468008 
z
" clip-path="url(#pee82afadb1)" style="fill: #2196f3"/>
   </g>
   <g id="patch_93">
    <path d="M 784.501554 404.337429 
L 798.071617 404.337429 
L 798.071617 240.880081 
L 784.501554 240.880081 
z
" clip-path="url(#pee82afadb1)" style="fill: #2196f3"/>
   </g>
   <g id="patch_94">
    <path d="M 801.464133 361.322337 
L 815.034197 361.322337 
L 815.034197 215.071026 
L 801.464133 215.071026 
z
" clip-path="url(#pee82afadb1)" style="fill: #2196f3"/>
   </g>
   <g id="patch_95">
    <path d="M 818.426712 344.116301 
L 831.996776 344.116301 
L 831.996776 266.689136 
L 818.426712 266.689136 
z
" clip-path="url(#pee82afadb1)" style="fill: #2196f3"/>
   </g>
   <g id="patch_96">
    <path d="M 835.389292 455.955539 
L 848.959355 455.955539 
L 848.959355 455.955539 
L 835.389292 455.955539 
z
" clip-path="url(#pee82afadb1)" style="fill: #2196f3"/>
   </g>
   <g id="patch_97">
    <path d="M 55.110645 279.593663 
L 68.680708 279.593663 
L 68.680708 240.880081 
L 55.110645 240.880081 
z
" clip-path="url(#pee82afadb1)" style="fill: #4caf50"/>
   </g>
   <g id="patch_98">
    <path d="M 72.073224 262.387627 
L 85.643288 262.387627 
L 85.643288 249.483099 
L 72.073224 249.483099 
z
" clip-path="url(#pee82afadb1)" style="fill: #4caf50"/>
   </g>
   <g id="patch_99">
    <path d="M 89.035803 279.593663 
L 102.605867 279.593663 
L 102.605867 253.784608 
L 89.035803 253.784608 
z
" clip-path="url(#pee82afadb1)" style="fill: #4caf50"/>
   </g>
   <g id="patch_100">
    <path d="M 105.998383 266.689136 
L 119.568446 266.689136 
L 119.568446 253.784608 
L 105.998383 253.784608 
z
" clip-path="url(#pee82afadb1)" style="fill: #4caf50"/>
   </g>
   <g id="patch_101">
    <path d="M 122.960962 262.387627 
L 136.531025 262.387627 
L 136.531025 249.483099 
L 122.960962 249.483099 
z
" clip-path="url(#pee82afadb1)" style="fill: #4caf50"/>
   </g>
   <g id="patch_102">
    <path d="M 139.923541 309.704227 
L 153.493605 309.704227 
L 153.493605 270.990645 
L 139.923541 270.990645 
z
" clip-path="url(#pee82afadb1)" style="fill: #4caf50"/>
   </g>
   <g id="patch_103">
    <path d="M 156.886121 210.769517 
L 170.456184 210.769517 
L 170.456184 159.151407 
L 156.886121 159.151407 
z
" clip-path="url(#pee82afadb1)" style="fill: #4caf50"/>
   </g>
   <g id="patch_104">
    <path d="M 173.8487 266.689136 
L 187.418763 266.689136 
L 187.418763 215.071026 
L 173.8487 215.071026 
z
" clip-path="url(#pee82afadb1)" style="fill: #4caf50"/>
   </g>
   <g id="patch_105">
    <path d="M 190.811279 455.955539 
L 204.381342 455.955539 
L 204.381342 455.955539 
L 190.811279 455.955539 
z
" clip-path="url(#pee82afadb1)" style="fill: #4caf50"/>
   </g>
   <g id="patch_106">
    <path d="M 207.773858 167.754425 
L 221.343922 167.754425 
L 221.343922 154.849898 
L 207.773858 154.849898 
z
" clip-path="url(#pee82afadb1)" style="fill: #4caf50"/>
   </g>
   <g id="patch_107">
    <path d="M 224.736438 279.593663 
L 238.306501 279.593663 
L 238.306501 240.880081 
L 224.736438 240.880081 
z
" clip-path="url(#pee82afadb1)" style="fill: #4caf50"/>
   </g>
   <g id="patch_108">
    <path d="M 241.699017 348.41781 
L 255.26908 348.41781 
L 255.26908 309.704227 
L 241.699017 309.704227 
z
" clip-path="url(#pee82afadb1)" style="fill: #4caf50"/>
   </g>
   <g id="patch_109">
    <path d="M 258.661596 455.955539 
L 272.23166 455.955539 
L 272.23166 455.955539 
L 258.661596 455.955539 
z
" clip-path="url(#pee82afadb1)" style="fill: #4caf50"/>
   </g>
   <g id="patch_110">
    <path d="M 275.624175 455.955539 
L 289.194239 455.955539 
L 289.194239 455.955539 
L 275.624175 455.955539 
z
" clip-path="url(#pee82afadb1)" style="fill: #4caf50"/>
   </g>
   <g id="patch_111">
    <path d="M 292.586755 378.528374 
L 306.156818 378.528374 
L 306.156818 365.623847 
L 292.586755 365.623847 
z
" clip-path="url(#pee82afadb1)" style="fill: #4caf50"/>
   </g>
   <g id="patch_112">
    <path d="M 309.549334 322.608755 
L 323.119397 322.608755 
L 323.119397 296.7997 
L 309.549334 296.7997 
z
" clip-path="url(#pee82afadb1)" style="fill: #4caf50"/>
   </g>
   <g id="patch_113">
    <path d="M 326.511913 223.674044 
L 340.081977 223.674044 
L 340.081977 184.960462 
L 326.511913 184.960462 
z
" clip-path="url(#pee82afadb1)" style="fill: #4caf50"/>
   </g>
   <g id="patch_114">
    <path d="M 343.474493 253.784608 
L 357.044556 253.784608 
L 357.044556 215.071026 
L 343.474493 215.071026 
z
" clip-path="url(#pee82afadb1)" style="fill: #4caf50"/>
   </g>
   <g id="patch_115">
    <path d="M 360.437072 176.357443 
L 374.007135 176.357443 
L 374.007135 163.452916 
L 360.437072 163.452916 
z
" clip-path="url(#pee82afadb1)" style="fill: #4caf50"/>
   </g>
   <g id="patch_116">
    <path d="M 377.399651 301.101209 
L 390.969715 301.101209 
L 390.969715 236.578572 
L 377.399651 236.578572 
z
" clip-path="url(#pee82afadb1)" style="fill: #4caf50"/>
   </g>
   <g id="patch_117">
    <path d="M 394.36223 236.578572 
L 407.932294 236.578572 
L 407.932294 223.674044 
L 394.36223 223.674044 
z
" clip-path="url(#pee82afadb1)" style="fill: #4caf50"/>
   </g>
   <g id="patch_118">
    <path d="M 411.32481 137.643861 
L 424.894873 137.643861 
L 424.894873 47.312169 
L 411.32481 47.312169 
z
" clip-path="url(#pee82afadb1)" style="fill: #4caf50"/>
   </g>
   <g id="patch_119">
    <path d="M 428.287389 253.784608 
L 441.857452 253.784608 
L 441.857452 215.071026 
L 428.287389 215.071026 
z
" clip-path="url(#pee82afadb1)" style="fill: #4caf50"/>
   </g>
   <g id="patch_120">
    <path d="M 445.249968 455.955539 
L 458.820032 455.955539 
L 458.820032 455.955539 
L 445.249968 455.955539 
z
" clip-path="url(#pee82afadb1)" style="fill: #4caf50"/>
   </g>
   <g id="patch_121">
    <path d="M 462.212548 258.086117 
L 475.782611 258.086117 
L 475.782611 232.277063 
L 462.212548 232.277063 
z
" clip-path="url(#pee82afadb1)" style="fill: #4caf50"/>
   </g>
   <g id="patch_122">
    <path d="M 479.175127 236.578572 
L 492.74519 236.578572 
L 492.74519 197.864989 
L 479.175127 197.864989 
z
" clip-path="url(#pee82afadb1)" style="fill: #4caf50"/>
   </g>
   <g id="patch_123">
    <path d="M 496.137706 253.784608 
L 509.70777 253.784608 
L 509.70777 240.880081 
L 496.137706 240.880081 
z
" clip-path="url(#pee82afadb1)" style="fill: #4caf50"/>
   </g>
   <g id="patch_124">
    <path d="M 513.100285 455.955539 
L 526.670349 455.955539 
L 526.670349 455.955539 
L 513.100285 455.955539 
z
" clip-path="url(#pee82afadb1)" style="fill: #4caf50"/>
   </g>
   <g id="patch_125">
    <path d="M 530.062865 270.990645 
L 543.632928 270.990645 
L 543.632928 245.18159 
L 530.062865 245.18159 
z
" clip-path="url(#pee82afadb1)" style="fill: #4caf50"/>
   </g>
   <g id="patch_126">
    <path d="M 547.025444 167.754425 
L 560.595507 167.754425 
L 560.595507 116.136315 
L 547.025444 116.136315 
z
" clip-path="url(#pee82afadb1)" style="fill: #4caf50"/>
   </g>
   <g id="patch_127">
    <path d="M 563.988023 189.261971 
L 577.558087 189.261971 
L 577.558087 176.357443 
L 563.988023 176.357443 
z
" clip-path="url(#pee82afadb1)" style="fill: #4caf50"/>
   </g>
   <g id="patch_128">
    <path d="M 580.950603 249.483099 
L 594.520666 249.483099 
L 594.520666 236.578572 
L 580.950603 236.578572 
z
" clip-path="url(#pee82afadb1)" style="fill: #4caf50"/>
   </g>
   <g id="patch_129">
    <path d="M 597.913182 223.674044 
L 611.483245 223.674044 
L 611.483245 197.864989 
L 597.913182 197.864989 
z
" clip-path="url(#pee82afadb1)" style="fill: #4caf50"/>
   </g>
   <g id="patch_130">
    <path d="M 614.875761 266.689136 
L 628.445825 266.689136 
L 628.445825 253.784608 
L 614.875761 253.784608 
z
" clip-path="url(#pee82afadb1)" style="fill: #4caf50"/>
   </g>
   <g id="patch_131">
    <path d="M 631.83834 455.955539 
L 645.408404 455.955539 
L 645.408404 455.955539 
L 631.83834 455.955539 
z
" clip-path="url(#pee82afadb1)" style="fill: #4caf50"/>
   </g>
   <g id="patch_132">
    <path d="M 648.80092 455.955539 
L 662.370983 455.955539 
L 662.370983 455.955539 
L 648.80092 455.955539 
z
" clip-path="url(#pee82afadb1)" style="fill: #4caf50"/>
   </g>
   <g id="patch_133">
    <path d="M 665.763499 455.955539 
L 679.333562 455.955539 
L 679.333562 455.955539 
L 665.763499 455.955539 
z
" clip-path="url(#pee82afadb1)" style="fill: #4caf50"/>
   </g>
   <g id="patch_134">
    <path d="M 682.726078 395.734411 
L 696.296142 395.734411 
L 696.296142 382.829883 
L 682.726078 382.829883 
z
" clip-path="url(#pee82afadb1)" style="fill: #4caf50"/>
   </g>
   <g id="patch_135">
    <path d="M 699.688658 455.955539 
L 713.258721 455.955539 
L 713.258721 455.955539 
L 699.688658 455.955539 
z
" clip-path="url(#pee82afadb1)" style="fill: #4caf50"/>
   </g>
   <g id="patch_136">
    <path d="M 716.651237 288.196682 
L 730.2213 288.196682 
L 730.2213 275.292154 
L 716.651237 275.292154 
z
" clip-path="url(#pee82afadb1)" style="fill: #4caf50"/>
   </g>
   <g id="patch_137">
    <path d="M 733.613816 292.498191 
L 747.183879 292.498191 
L 747.183879 279.593663 
L 733.613816 279.593663 
z
" clip-path="url(#pee82afadb1)" style="fill: #4caf50"/>
   </g>
   <g id="patch_138">
    <path d="M 750.576395 270.990645 
L 764.146459 270.990645 
L 764.146459 258.086117 
L 750.576395 258.086117 
z
" clip-path="url(#pee82afadb1)" style="fill: #4caf50"/>
   </g>
   <g id="patch_139">
    <path d="M 767.538975 206.468008 
L 781.109038 206.468008 
L 781.109038 167.754425 
L 767.538975 167.754425 
z
" clip-path="url(#pee82afadb1)" style="fill: #4caf50"/>
   </g>
   <g id="patch_140">
    <path d="M 784.501554 455.955539 
L 798.071617 455.955539 
L 798.071617 455.955539 
L 784.501554 455.955539 
z
" clip-path="url(#pee82afadb1)" style="fill: #4caf50"/>
   </g>
   <g id="patch_141">
    <path d="M 801.464133 215.071026 
L 815.034197 215.071026 
L 815.034197 189.261971 
L 801.464133 189.261971 
z
" clip-path="url(#pee82afadb1)" style="fill: #4caf50"/>
   </g>
   <g id="patch_142">
    <path d="M 818.426712 266.689136 
L 831.996776 266.689136 
L 831.996776 215.071026 
L 818.426712 215.071026 
z
" clip-path="url(#pee82afadb1)" style="fill: #4caf50"/>
   </g>
   <g id="patch_143">
    <path d="M 835.389292 455.955539 
L 848.959355 455.955539 
L 848.959355 443.051011 
L 835.389292 443.051011 
z
" clip-path="url(#pee82afadb1)" style="fill: #4caf50"/>
   </g>
   <g id="matplotlib.axis_1">
    <g id="xtick_1">
     <g id="line2d_1">
      <defs>
       <path id="mef32f263e9" d="M 0 0 
L 0 3.5 
" style="stroke: #000000; stroke-width: 0.8"/>
      </defs>
      <g>
       <use xlink:href="#mef32f263e9" x="61.895677" y="455.955539" style="stroke: #000000; stroke-width: 0.8"/>
      </g>
     </g>
     <g id="text_1">
      <!-- 0 -->
      <g transform="translate(61.597366 472.827413) rotate(-45) scale(0.1 -0.1)">
       <defs>
        <path id="DejaVuSans-30" d="M 2034 4250 
Q 1547 4250 1301 3770 
Q 1056 3291 1056 2328 
Q 1056 1369 1301 889 
Q 1547 409 2034 409 
Q 2525 409 2770 889 
Q 3016 1369 3016 2328 
Q 3016 3291 2770 3770 
Q 2525 4250 2034 4250 
z
M 2034 4750 
Q 2819 4750 3233 4129 
Q 3647 3509 3647 2328 
Q 3647 1150 3233 529 
Q 2819 -91 2034 -91 
Q 1250 -91 836 529 
Q 422 1150 422 2328 
Q 422 3509 836 4129 
Q 1250 4750 2034 4750 
z
" transform="scale(0.015625)"/>
       </defs>
       <use xlink:href="#DejaVuSans-30"/>
      </g>
     </g>
    </g>
    <g id="xtick_2">
     <g id="line2d_2">
      <g>
       <use xlink:href="#mef32f263e9" x="78.858256" y="455.955539" style="stroke: #000000; stroke-width: 0.8"/>
      </g>
     </g>
    </g>
    <g id="xtick_3">
     <g id="line2d_3">
      <g>
       <use xlink:href="#mef32f263e9" x="95.820835" y="455.955539" style="stroke: #000000; stroke-width: 0.8"/>
      </g>
     </g>
    </g>
    <g id="xtick_4">
     <g id="line2d_4">
      <g>
       <use xlink:href="#mef32f263e9" x="112.783414" y="455.955539" style="stroke: #000000; stroke-width: 0.8"/>
      </g>
     </g>
    </g>
    <g id="xtick_5">
     <g id="line2d_5">
      <g>
       <use xlink:href="#mef32f263e9" x="129.745994" y="455.955539" style="stroke: #000000; stroke-width: 0.8"/>
      </g>
     </g>
    </g>
    <g id="xtick_6">
     <g id="line2d_6">
      <g>
       <use xlink:href="#mef32f263e9" x="146.708573" y="455.955539" style="stroke: #000000; stroke-width: 0.8"/>
      </g>
     </g>
     <g id="text_2">
      <!-- 5 -->
      <g transform="translate(146.410262 472.827413) rotate(-45) scale(0.1 -0.1)">
       <defs>
        <path id="DejaVuSans-35" d="M 691 4666 
L 3169 4666 
L 3169 4134 
L 1269 4134 
L 1269 2991 
Q 1406 3038 1543 3061 
Q 1681 3084 1819 3084 
Q 2600 3084 3056 2656 
Q 3513 2228 3513 1497 
Q 3513 744 3044 326 
Q 2575 -91 1722 -91 
Q 1428 -91 1123 -41 
Q 819 9 494 109 
L 494 744 
Q 775 591 1075 516 
Q 1375 441 1709 441 
Q 2250 441 2565 725 
Q 2881 1009 2881 1497 
Q 2881 1984 2565 2268 
Q 2250 2553 1709 2553 
Q 1456 2553 1204 2497 
Q 953 2441 691 2322 
L 691 4666 
z
" transform="scale(0.015625)"/>
       </defs>
       <use xlink:href="#DejaVuSans-35"/>
      </g>
     </g>
    </g>
    <g id="xtick_7">
     <g id="line2d_7">
      <g>
       <use xlink:href="#mef32f263e9" x="163.671152" y="455.955539" style="stroke: #000000; stroke-width: 0.8"/>
      </g>
     </g>
    </g>
    <g id="xtick_8">
     <g id="line2d_8">
      <g>
       <use xlink:href="#mef32f263e9" x="180.633732" y="455.955539" style="stroke: #000000; stroke-width: 0.8"/>
      </g>
     </g>
    </g>
    <g id="xtick_9">
     <g id="line2d_9">
      <g>
       <use xlink:href="#mef32f263e9" x="197.596311" y="455.955539" style="stroke: #000000; stroke-width: 0.8"/>
      </g>
     </g>
    </g>
    <g id="xtick_10">
     <g id="line2d_10">
      <g>
       <use xlink:href="#mef32f263e9" x="214.55889" y="455.955539" style="stroke: #000000; stroke-width: 0.8"/>
      </g>
     </g>
    </g>
    <g id="xtick_11">
     <g id="line2d_11">
      <g>
       <use xlink:href="#mef32f263e9" x="231.521469" y="455.955539" style="stroke: #000000; stroke-width: 0.8"/>
      </g>
     </g>
     <g id="text_3">
      <!-- 10 -->
      <g transform="translate(228.973675 477.326379) rotate(-45) scale(0.1 -0.1)">
       <defs>
        <path id="DejaVuSans-31" d="M 794 531 
L 1825 531 
L 1825 4091 
L 703 3866 
L 703 4441 
L 1819 4666 
L 2450 4666 
L 2450 531 
L 3481 531 
L 3481 0 
L 794 0 
L 794 531 
z
" transform="scale(0.015625)"/>
       </defs>
       <use xlink:href="#DejaVuSans-31"/>
       <use xlink:href="#DejaVuSans-30" transform="translate(63.623047 0)"/>
      </g>
     </g>
    </g>
    <g id="xtick_12">
     <g id="line2d_12">
      <g>
       <use xlink:href="#mef32f263e9" x="248.484049" y="455.955539" style="stroke: #000000; stroke-width: 0.8"/>
      </g>
     </g>
     <g id="text_4">
      <!-- 11 -->
      <g transform="translate(245.936255 477.326379) rotate(-45) scale(0.1 -0.1)">
       <use xlink:href="#DejaVuSans-31"/>
       <use xlink:href="#DejaVuSans-31" transform="translate(63.623047 0)"/>
      </g>
     </g>
    </g>
    <g id="xtick_13">
     <g id="line2d_13">
      <g>
       <use xlink:href="#mef32f263e9" x="265.446628" y="455.955539" style="stroke: #000000; stroke-width: 0.8"/>
      </g>
     </g>
    </g>
    <g id="xtick_14">
     <g id="line2d_14">
      <g>
       <use xlink:href="#mef32f263e9" x="282.409207" y="455.955539" style="stroke: #000000; stroke-width: 0.8"/>
      </g>
     </g>
     <g id="text_5">
      <!-- 15 -->
      <g transform="translate(279.861413 477.326379) rotate(-45) scale(0.1 -0.1)">
       <use xlink:href="#DejaVuSans-31"/>
       <use xlink:href="#DejaVuSans-35" transform="translate(63.623047 0)"/>
      </g>
     </g>
    </g>
    <g id="xtick_15">
     <g id="line2d_15">
      <g>
       <use xlink:href="#mef32f263e9" x="299.371786" y="455.955539" style="stroke: #000000; stroke-width: 0.8"/>
      </g>
     </g>
    </g>
    <g id="xtick_16">
     <g id="line2d_16">
      <g>
       <use xlink:href="#mef32f263e9" x="316.334366" y="455.955539" style="stroke: #000000; stroke-width: 0.8"/>
      </g>
     </g>
    </g>
    <g id="xtick_17">
     <g id="line2d_17">
      <g>
       <use xlink:href="#mef32f263e9" x="333.296945" y="455.955539" style="stroke: #000000; stroke-width: 0.8"/>
      </g>
     </g>
    </g>
    <g id="xtick_18">
     <g id="line2d_18">
      <g>
       <use xlink:href="#mef32f263e9" x="350.259524" y="455.955539" style="stroke: #000000; stroke-width: 0.8"/>
      </g>
     </g>
    </g>
    <g id="xtick_19">
     <g id="line2d_19">
      <g>
       <use xlink:href="#mef32f263e9" x="367.222104" y="455.955539" style="stroke: #000000; stroke-width: 0.8"/>
      </g>
     </g>
     <g id="text_6">
      <!-- 20 -->
      <g transform="translate(364.674309 477.326379) rotate(-45) scale(0.1 -0.1)">
       <defs>
        <path id="DejaVuSans-32" d="M 1228 531 
L 3431 531 
L 3431 0 
L 469 0 
L 469 531 
Q 828 903 1448 1529 
Q 2069 2156 2228 2338 
Q 2531 2678 2651 2914 
Q 2772 3150 2772 3378 
Q 2772 3750 2511 3984 
Q 2250 4219 1831 4219 
Q 1534 4219 1204 4116 
Q 875 4013 500 3803 
L 500 4441 
Q 881 4594 1212 4672 
Q 1544 4750 1819 4750 
Q 2544 4750 2975 4387 
Q 3406 4025 3406 3419 
Q 3406 3131 3298 2873 
Q 3191 2616 2906 2266 
Q 2828 2175 2409 1742 
Q 1991 1309 1228 531 
z
" transform="scale(0.015625)"/>
       </defs>
       <use xlink:href="#DejaVuSans-32"/>
       <use xlink:href="#DejaVuSans-30" transform="translate(63.623047 0)"/>
      </g>
     </g>
    </g>
    <g id="xtick_20">
     <g id="line2d_20">
      <g>
       <use xlink:href="#mef32f263e9" x="384.184683" y="455.955539" style="stroke: #000000; stroke-width: 0.8"/>
      </g>
     </g>
    </g>
    <g id="xtick_21">
     <g id="line2d_21">
      <g>
       <use xlink:href="#mef32f263e9" x="401.147262" y="455.955539" style="stroke: #000000; stroke-width: 0.8"/>
      </g>
     </g>
    </g>
    <g id="xtick_22">
     <g id="line2d_22">
      <g>
       <use xlink:href="#mef32f263e9" x="418.109841" y="455.955539" style="stroke: #000000; stroke-width: 0.8"/>
      </g>
     </g>
     <g id="text_7">
      <!-- 23 -->
      <g transform="translate(415.562047 477.326379) rotate(-45) scale(0.1 -0.1)">
       <defs>
        <path id="DejaVuSans-33" d="M 2597 2516 
Q 3050 2419 3304 2112 
Q 3559 1806 3559 1356 
Q 3559 666 3084 287 
Q 2609 -91 1734 -91 
Q 1441 -91 1130 -33 
Q 819 25 488 141 
L 488 750 
Q 750 597 1062 519 
Q 1375 441 1716 441 
Q 2309 441 2620 675 
Q 2931 909 2931 1356 
Q 2931 1769 2642 2001 
Q 2353 2234 1838 2234 
L 1294 2234 
L 1294 2753 
L 1863 2753 
Q 2328 2753 2575 2939 
Q 2822 3125 2822 3475 
Q 2822 3834 2567 4026 
Q 2313 4219 1838 4219 
Q 1578 4219 1281 4162 
Q 984 4106 628 3988 
L 628 4550 
Q 988 4650 1302 4700 
Q 1616 4750 1894 4750 
Q 2613 4750 3031 4423 
Q 3450 4097 3450 3541 
Q 3450 3153 3228 2886 
Q 3006 2619 2597 2516 
z
" transform="scale(0.015625)"/>
       </defs>
       <use xlink:href="#DejaVuSans-32"/>
       <use xlink:href="#DejaVuSans-33" transform="translate(63.623047 0)"/>
      </g>
     </g>
    </g>
    <g id="xtick_23">
     <g id="line2d_23">
      <g>
       <use xlink:href="#mef32f263e9" x="435.072421" y="455.955539" style="stroke: #000000; stroke-width: 0.8"/>
      </g>
     </g>
    </g>
    <g id="xtick_24">
     <g id="line2d_24">
      <g>
       <use xlink:href="#mef32f263e9" x="452.035" y="455.955539" style="stroke: #000000; stroke-width: 0.8"/>
      </g>
     </g>
     <g id="text_8">
      <!-- 25 -->
      <g transform="translate(449.487206 477.326379) rotate(-45) scale(0.1 -0.1)">
       <use xlink:href="#DejaVuSans-32"/>
       <use xlink:href="#DejaVuSans-35" transform="translate(63.623047 0)"/>
      </g>
     </g>
    </g>
    <g id="xtick_25">
     <g id="line2d_25">
      <g>
       <use xlink:href="#mef32f263e9" x="468.997579" y="455.955539" style="stroke: #000000; stroke-width: 0.8"/>
      </g>
     </g>
    </g>
    <g id="xtick_26">
     <g id="line2d_26">
      <g>
       <use xlink:href="#mef32f263e9" x="485.960159" y="455.955539" style="stroke: #000000; stroke-width: 0.8"/>
      </g>
     </g>
    </g>
    <g id="xtick_27">
     <g id="line2d_27">
      <g>
       <use xlink:href="#mef32f263e9" x="502.922738" y="455.955539" style="stroke: #000000; stroke-width: 0.8"/>
      </g>
     </g>
    </g>
    <g id="xtick_28">
     <g id="line2d_28">
      <g>
       <use xlink:href="#mef32f263e9" x="519.885317" y="455.955539" style="stroke: #000000; stroke-width: 0.8"/>
      </g>
     </g>
    </g>
    <g id="xtick_29">
     <g id="line2d_29">
      <g>
       <use xlink:href="#mef32f263e9" x="536.847896" y="455.955539" style="stroke: #000000; stroke-width: 0.8"/>
      </g>
     </g>
     <g id="text_9">
      <!-- 30 -->
      <g transform="translate(534.300102 477.326379) rotate(-45) scale(0.1 -0.1)">
       <use xlink:href="#DejaVuSans-33"/>
       <use xlink:href="#DejaVuSans-30" transform="translate(63.623047 0)"/>
      </g>
     </g>
    </g>
    <g id="xtick_30">
     <g id="line2d_30">
      <g>
       <use xlink:href="#mef32f263e9" x="553.810476" y="455.955539" style="stroke: #000000; stroke-width: 0.8"/>
      </g>
     </g>
    </g>
    <g id="xtick_31">
     <g id="line2d_31">
      <g>
       <use xlink:href="#mef32f263e9" x="570.773055" y="455.955539" style="stroke: #000000; stroke-width: 0.8"/>
      </g>
     </g>
    </g>
    <g id="xtick_32">
     <g id="line2d_32">
      <g>
       <use xlink:href="#mef32f263e9" x="587.735634" y="455.955539" style="stroke: #000000; stroke-width: 0.8"/>
      </g>
     </g>
    </g>
    <g id="xtick_33">
     <g id="line2d_33">
      <g>
       <use xlink:href="#mef32f263e9" x="604.698214" y="455.955539" style="stroke: #000000; stroke-width: 0.8"/>
      </g>
     </g>
    </g>
    <g id="xtick_34">
     <g id="line2d_34">
      <g>
       <use xlink:href="#mef32f263e9" x="621.660793" y="455.955539" style="stroke: #000000; stroke-width: 0.8"/>
      </g>
     </g>
     <g id="text_10">
      <!-- 35 -->
      <g transform="translate(619.112999 477.326379) rotate(-45) scale(0.1 -0.1)">
       <use xlink:href="#DejaVuSans-33"/>
       <use xlink:href="#DejaVuSans-35" transform="translate(63.623047 0)"/>
      </g>
     </g>
    </g>
    <g id="xtick_35">
     <g id="line2d_35">
      <g>
       <use xlink:href="#mef32f263e9" x="638.623372" y="455.955539" style="stroke: #000000; stroke-width: 0.8"/>
      </g>
     </g>
    </g>
    <g id="xtick_36">
     <g id="line2d_36">
      <g>
       <use xlink:href="#mef32f263e9" x="655.585951" y="455.955539" style="stroke: #000000; stroke-width: 0.8"/>
      </g>
     </g>
    </g>
    <g id="xtick_37">
     <g id="line2d_37">
      <g>
       <use xlink:href="#mef32f263e9" x="672.548531" y="455.955539" style="stroke: #000000; stroke-width: 0.8"/>
      </g>
     </g>
    </g>
    <g id="xtick_38">
     <g id="line2d_38">
      <g>
       <use xlink:href="#mef32f263e9" x="689.51111" y="455.955539" style="stroke: #000000; stroke-width: 0.8"/>
      </g>
     </g>
    </g>
    <g id="xtick_39">
     <g id="line2d_39">
      <g>
       <use xlink:href="#mef32f263e9" x="706.473689" y="455.955539" style="stroke: #000000; stroke-width: 0.8"/>
      </g>
     </g>
     <g id="text_11">
      <!-- 40 -->
      <g transform="translate(703.925895 477.326379) rotate(-45) scale(0.1 -0.1)">
       <defs>
        <path id="DejaVuSans-34" d="M 2419 4116 
L 825 1625 
L 2419 1625 
L 2419 4116 
z
M 2253 4666 
L 3047 4666 
L 3047 1625 
L 3713 1625 
L 3713 1100 
L 3047 1100 
L 3047 0 
L 2419 0 
L 2419 1100 
L 313 1100 
L 313 1709 
L 2253 4666 
z
" transform="scale(0.015625)"/>
       </defs>
       <use xlink:href="#DejaVuSans-34"/>
       <use xlink:href="#DejaVuSans-30" transform="translate(63.623047 0)"/>
      </g>
     </g>
    </g>
    <g id="xtick_40">
     <g id="line2d_40">
      <g>
       <use xlink:href="#mef32f263e9" x="723.436268" y="455.955539" style="stroke: #000000; stroke-width: 0.8"/>
      </g>
     </g>
    </g>
    <g id="xtick_41">
     <g id="line2d_41">
      <g>
       <use xlink:href="#mef32f263e9" x="740.398848" y="455.955539" style="stroke: #000000; stroke-width: 0.8"/>
      </g>
     </g>
    </g>
    <g id="xtick_42">
     <g id="line2d_42">
      <g>
       <use xlink:href="#mef32f263e9" x="757.361427" y="455.955539" style="stroke: #000000; stroke-width: 0.8"/>
      </g>
     </g>
    </g>
    <g id="xtick_43">
     <g id="line2d_43">
      <g>
       <use xlink:href="#mef32f263e9" x="774.324006" y="455.955539" style="stroke: #000000; stroke-width: 0.8"/>
      </g>
     </g>
    </g>
    <g id="xtick_44">
     <g id="line2d_44">
      <g>
       <use xlink:href="#mef32f263e9" x="791.286586" y="455.955539" style="stroke: #000000; stroke-width: 0.8"/>
      </g>
     </g>
     <g id="text_12">
      <!-- 45 -->
      <g transform="translate(788.738792 477.326379) rotate(-45) scale(0.1 -0.1)">
       <use xlink:href="#DejaVuSans-34"/>
       <use xlink:href="#DejaVuSans-35" transform="translate(63.623047 0)"/>
      </g>
     </g>
    </g>
    <g id="xtick_45">
     <g id="line2d_45">
      <g>
       <use xlink:href="#mef32f263e9" x="808.249165" y="455.955539" style="stroke: #000000; stroke-width: 0.8"/>
      </g>
     </g>
    </g>
    <g id="xtick_46">
     <g id="line2d_46">
      <g>
       <use xlink:href="#mef32f263e9" x="825.211744" y="455.955539" style="stroke: #000000; stroke-width: 0.8"/>
      </g>
     </g>
     <g id="text_13">
      <!-- 47 -->
      <g transform="translate(822.66395 477.326379) rotate(-45) scale(0.1 -0.1)">
       <defs>
        <path id="DejaVuSans-37" d="M 525 4666 
L 3525 4666 
L 3525 4397 
L 1831 0 
L 1172 0 
L 2766 4134 
L 525 4134 
L 525 4666 
z
" transform="scale(0.015625)"/>
       </defs>
       <use xlink:href="#DejaVuSans-34"/>
       <use xlink:href="#DejaVuSans-37" transform="translate(63.623047 0)"/>
      </g>
     </g>
    </g>
    <g id="xtick_47">
     <g id="line2d_47">
      <g>
       <use xlink:href="#mef32f263e9" x="842.174323" y="455.955539" style="stroke: #000000; stroke-width: 0.8"/>
      </g>
     </g>
    </g>
    <g id="text_14">
     <!-- Game Minute -->
     <g transform="translate(418.483438 490.395378) scale(0.1 -0.1)">
      <defs>
       <path id="DejaVuSans-47" d="M 3809 666 
L 3809 1919 
L 2778 1919 
L 2778 2438 
L 4434 2438 
L 4434 434 
Q 4069 175 3628 42 
Q 3188 -91 2688 -91 
Q 1594 -91 976 548 
Q 359 1188 359 2328 
Q 359 3472 976 4111 
Q 1594 4750 2688 4750 
Q 3144 4750 3555 4637 
Q 3966 4525 4313 4306 
L 4313 3634 
Q 3963 3931 3569 4081 
Q 3175 4231 2741 4231 
Q 1884 4231 1454 3753 
Q 1025 3275 1025 2328 
Q 1025 1384 1454 906 
Q 1884 428 2741 428 
Q 3075 428 3337 486 
Q 3600 544 3809 666 
z
" transform="scale(0.015625)"/>
       <path id="DejaVuSans-61" d="M 2194 1759 
Q 1497 1759 1228 1600 
Q 959 1441 959 1056 
Q 959 750 1161 570 
Q 1363 391 1709 391 
Q 2188 391 2477 730 
Q 2766 1069 2766 1631 
L 2766 1759 
L 2194 1759 
z
M 3341 1997 
L 3341 0 
L 2766 0 
L 2766 531 
Q 2569 213 2275 61 
Q 1981 -91 1556 -91 
Q 1019 -91 701 211 
Q 384 513 384 1019 
Q 384 1609 779 1909 
Q 1175 2209 1959 2209 
L 2766 2209 
L 2766 2266 
Q 2766 2663 2505 2880 
Q 2244 3097 1772 3097 
Q 1472 3097 1187 3025 
Q 903 2953 641 2809 
L 641 3341 
Q 956 3463 1253 3523 
Q 1550 3584 1831 3584 
Q 2591 3584 2966 3190 
Q 3341 2797 3341 1997 
z
" transform="scale(0.015625)"/>
       <path id="DejaVuSans-6d" d="M 3328 2828 
Q 3544 3216 3844 3400 
Q 4144 3584 4550 3584 
Q 5097 3584 5394 3201 
Q 5691 2819 5691 2113 
L 5691 0 
L 5113 0 
L 5113 2094 
Q 5113 2597 4934 2840 
Q 4756 3084 4391 3084 
Q 3944 3084 3684 2787 
Q 3425 2491 3425 1978 
L 3425 0 
L 2847 0 
L 2847 2094 
Q 2847 2600 2669 2842 
Q 2491 3084 2119 3084 
Q 1678 3084 1418 2786 
Q 1159 2488 1159 1978 
L 1159 0 
L 581 0 
L 581 3500 
L 1159 3500 
L 1159 2956 
Q 1356 3278 1631 3431 
Q 1906 3584 2284 3584 
Q 2666 3584 2933 3390 
Q 3200 3197 3328 2828 
z
" transform="scale(0.015625)"/>
       <path id="DejaVuSans-65" d="M 3597 1894 
L 3597 1613 
L 953 1613 
Q 991 1019 1311 708 
Q 1631 397 2203 397 
Q 2534 397 2845 478 
Q 3156 559 3463 722 
L 3463 178 
Q 3153 47 2828 -22 
Q 2503 -91 2169 -91 
Q 1331 -91 842 396 
Q 353 884 353 1716 
Q 353 2575 817 3079 
Q 1281 3584 2069 3584 
Q 2775 3584 3186 3129 
Q 3597 2675 3597 1894 
z
M 3022 2063 
Q 3016 2534 2758 2815 
Q 2500 3097 2075 3097 
Q 1594 3097 1305 2825 
Q 1016 2553 972 2059 
L 3022 2063 
z
" transform="scale(0.015625)"/>
       <path id="DejaVuSans-20" transform="scale(0.015625)"/>
       <path id="DejaVuSans-4d" d="M 628 4666 
L 1569 4666 
L 2759 1491 
L 3956 4666 
L 4897 4666 
L 4897 0 
L 4281 0 
L 4281 4097 
L 3078 897 
L 2444 897 
L 1241 4097 
L 1241 0 
L 628 0 
L 628 4666 
z
" transform="scale(0.015625)"/>
       <path id="DejaVuSans-69" d="M 603 3500 
L 1178 3500 
L 1178 0 
L 603 0 
L 603 3500 
z
M 603 4863 
L 1178 4863 
L 1178 4134 
L 603 4134 
L 603 4863 
z
" transform="scale(0.015625)"/>
       <path id="DejaVuSans-6e" d="M 3513 2113 
L 3513 0 
L 2938 0 
L 2938 2094 
Q 2938 2591 2744 2837 
Q 2550 3084 2163 3084 
Q 1697 3084 1428 2787 
Q 1159 2491 1159 1978 
L 1159 0 
L 581 0 
L 581 3500 
L 1159 3500 
L 1159 2956 
Q 1366 3272 1645 3428 
Q 1925 3584 2291 3584 
Q 2894 3584 3203 3211 
Q 3513 2838 3513 2113 
z
" transform="scale(0.015625)"/>
       <path id="DejaVuSans-75" d="M 544 1381 
L 544 3500 
L 1119 3500 
L 1119 1403 
Q 1119 906 1312 657 
Q 1506 409 1894 409 
Q 2359 409 2629 706 
Q 2900 1003 2900 1516 
L 2900 3500 
L 3475 3500 
L 3475 0 
L 2900 0 
L 2900 538 
Q 2691 219 2414 64 
Q 2138 -91 1772 -91 
Q 1169 -91 856 284 
Q 544 659 544 1381 
z
M 1991 3584 
L 1991 3584 
z
" transform="scale(0.015625)"/>
       <path id="DejaVuSans-74" d="M 1172 4494 
L 1172 3500 
L 2356 3500 
L 2356 3053 
L 1172 3053 
L 1172 1153 
Q 1172 725 1289 603 
Q 1406 481 1766 481 
L 2356 481 
L 2356 0 
L 1766 0 
Q 1100 0 847 248 
Q 594 497 594 1153 
L 594 3053 
L 172 3053 
L 172 3500 
L 594 3500 
L 594 4494 
L 1172 4494 
z
" transform="scale(0.015625)"/>
      </defs>
      <use xlink:href="#DejaVuSans-47"/>
      <use xlink:href="#DejaVuSans-61" transform="translate(77.490234 0)"/>
      <use xlink:href="#DejaVuSans-6d" transform="translate(138.769531 0)"/>
      <use xlink:href="#DejaVuSans-65" transform="translate(236.181641 0)"/>
      <use xlink:href="#DejaVuSans-20" transform="translate(297.705078 0)"/>
      <use xlink:href="#DejaVuSans-4d" transform="translate(329.492188 0)"/>
      <use xlink:href="#DejaVuSans-69" transform="translate(415.771484 0)"/>
      <use xlink:href="#DejaVuSans-6e" transform="translate(443.554688 0)"/>
      <use xlink:href="#DejaVuSans-75" transform="translate(506.933594 0)"/>
      <use xlink:href="#DejaVuSans-74" transform="translate(570.3125 0)"/>
      <use xlink:href="#DejaVuSans-65" transform="translate(609.521484 0)"/>
     </g>
    </g>
   </g>
   <g id="matplotlib.axis_2">
    <g id="ytick_1">
     <g id="line2d_48">
      <path d="M 50.87 455.955539 
L 853.2 455.955539 
" clip-path="url(#pee82afadb1)" style="fill: none; stroke-dasharray: 2.96,1.28; stroke-dashoffset: 0; stroke: #b0b0b0; stroke-opacity: 0.6; stroke-width: 0.8"/>
     </g>
     <g id="line2d_49">
      <defs>
       <path id="m6cffc78e64" d="M 0 0 
L -3.5 0 
" style="stroke: #000000; stroke-width: 0.8"/>
      </defs>
      <g>
       <use xlink:href="#m6cffc78e64" x="50.87" y="455.955539" style="stroke: #000000; stroke-width: 0.8"/>
      </g>
     </g>
     <g id="text_15">
      <!-- 0 -->
      <g transform="translate(37.5075 459.754758) scale(0.1 -0.1)">
       <use xlink:href="#DejaVuSans-30"/>
      </g>
     </g>
    </g>
    <g id="ytick_2">
     <g id="line2d_50">
      <path d="M 50.87 402.186674 
L 853.2 402.186674 
" clip-path="url(#pee82afadb1)" style="fill: none; stroke-dasharray: 2.96,1.28; stroke-dashoffset: 0; stroke: #b0b0b0; stroke-opacity: 0.6; stroke-width: 0.8"/>
     </g>
     <g id="line2d_51">
      <g>
       <use xlink:href="#m6cffc78e64" x="50.87" y="402.186674" style="stroke: #000000; stroke-width: 0.8"/>
      </g>
     </g>
     <g id="text_16">
      <!-- 25 -->
      <g transform="translate(31.145 405.985893) scale(0.1 -0.1)">
       <use xlink:href="#DejaVuSans-32"/>
       <use xlink:href="#DejaVuSans-35" transform="translate(63.623047 0)"/>
      </g>
     </g>
    </g>
    <g id="ytick_3">
     <g id="line2d_52">
      <path d="M 50.87 348.41781 
L 853.2 348.41781 
" clip-path="url(#pee82afadb1)" style="fill: none; stroke-dasharray: 2.96,1.28; stroke-dashoffset: 0; stroke: #b0b0b0; stroke-opacity: 0.6; stroke-width: 0.8"/>
     </g>
     <g id="line2d_53">
      <g>
       <use xlink:href="#m6cffc78e64" x="50.87" y="348.41781" style="stroke: #000000; stroke-width: 0.8"/>
      </g>
     </g>
     <g id="text_17">
      <!-- 50 -->
      <g transform="translate(31.145 352.217029) scale(0.1 -0.1)">
       <use xlink:href="#DejaVuSans-35"/>
       <use xlink:href="#DejaVuSans-30" transform="translate(63.623047 0)"/>
      </g>
     </g>
    </g>
    <g id="ytick_4">
     <g id="line2d_54">
      <path d="M 50.87 294.648945 
L 853.2 294.648945 
" clip-path="url(#pee82afadb1)" style="fill: none; stroke-dasharray: 2.96,1.28; stroke-dashoffset: 0; stroke: #b0b0b0; stroke-opacity: 0.6; stroke-width: 0.8"/>
     </g>
     <g id="line2d_55">
      <g>
       <use xlink:href="#m6cffc78e64" x="50.87" y="294.648945" style="stroke: #000000; stroke-width: 0.8"/>
      </g>
     </g>
     <g id="text_18">
      <!-- 75 -->
      <g transform="translate(31.145 298.448164) scale(0.1 -0.1)">
       <use xlink:href="#DejaVuSans-37"/>
       <use xlink:href="#DejaVuSans-35" transform="translate(63.623047 0)"/>
      </g>
     </g>
    </g>
    <g id="ytick_5">
     <g id="line2d_56">
      <path d="M 50.87 240.880081 
L 853.2 240.880081 
" clip-path="url(#pee82afadb1)" style="fill: none; stroke-dasharray: 2.96,1.28; stroke-dashoffset: 0; stroke: #b0b0b0; stroke-opacity: 0.6; stroke-width: 0.8"/>
     </g>
     <g id="line2d_57">
      <g>
       <use xlink:href="#m6cffc78e64" x="50.87" y="240.880081" style="stroke: #000000; stroke-width: 0.8"/>
      </g>
     </g>
     <g id="text_19">
      <!-- 100 -->
      <g transform="translate(24.7825 244.6793) scale(0.1 -0.1)">
       <use xlink:href="#DejaVuSans-31"/>
       <use xlink:href="#DejaVuSans-30" transform="translate(63.623047 0)"/>
       <use xlink:href="#DejaVuSans-30" transform="translate(127.246094 0)"/>
      </g>
     </g>
    </g>
    <g id="ytick_6">
     <g id="line2d_58">
      <path d="M 50.87 187.111216 
L 853.2 187.111216 
" clip-path="url(#pee82afadb1)" style="fill: none; stroke-dasharray: 2.96,1.28; stroke-dashoffset: 0; stroke: #b0b0b0; stroke-opacity: 0.6; stroke-width: 0.8"/>
     </g>
     <g id="line2d_59">
      <g>
       <use xlink:href="#m6cffc78e64" x="50.87" y="187.111216" style="stroke: #000000; stroke-width: 0.8"/>
      </g>
     </g>
     <g id="text_20">
      <!-- 125 -->
      <g transform="translate(24.7825 190.910435) scale(0.1 -0.1)">
       <use xlink:href="#DejaVuSans-31"/>
       <use xlink:href="#DejaVuSans-32" transform="translate(63.623047 0)"/>
       <use xlink:href="#DejaVuSans-35" transform="translate(127.246094 0)"/>
      </g>
     </g>
    </g>
    <g id="ytick_7">
     <g id="line2d_60">
      <path d="M 50.87 133.342352 
L 853.2 133.342352 
" clip-path="url(#pee82afadb1)" style="fill: none; stroke-dasharray: 2.96,1.28; stroke-dashoffset: 0; stroke: #b0b0b0; stroke-opacity: 0.6; stroke-width: 0.8"/>
     </g>
     <g id="line2d_61">
      <g>
       <use xlink:href="#m6cffc78e64" x="50.87" y="133.342352" style="stroke: #000000; stroke-width: 0.8"/>
      </g>
     </g>
     <g id="text_21">
      <!-- 150 -->
      <g transform="translate(24.7825 137.141571) scale(0.1 -0.1)">
       <use xlink:href="#DejaVuSans-31"/>
       <use xlink:href="#DejaVuSans-35" transform="translate(63.623047 0)"/>
       <use xlink:href="#DejaVuSans-30" transform="translate(127.246094 0)"/>
      </g>
     </g>
    </g>
    <g id="ytick_8">
     <g id="line2d_62">
      <path d="M 50.87 79.573487 
L 853.2 79.573487 
" clip-path="url(#pee82afadb1)" style="fill: none; stroke-dasharray: 2.96,1.28; stroke-dashoffset: 0; stroke: #b0b0b0; stroke-opacity: 0.6; stroke-width: 0.8"/>
     </g>
     <g id="line2d_63">
      <g>
       <use xlink:href="#m6cffc78e64" x="50.87" y="79.573487" style="stroke: #000000; stroke-width: 0.8"/>
      </g>
     </g>
     <g id="text_22">
      <!-- 175 -->
      <g transform="translate(24.7825 83.372706) scale(0.1 -0.1)">
       <use xlink:href="#DejaVuSans-31"/>
       <use xlink:href="#DejaVuSans-37" transform="translate(63.623047 0)"/>
       <use xlink:href="#DejaVuSans-35" transform="translate(127.246094 0)"/>
      </g>
     </g>
    </g>
    <g id="text_23">
     <!-- Points Scored -->
     <g transform="translate(18.702813 275.199019) rotate(-90) scale(0.1 -0.1)">
      <defs>
       <path id="DejaVuSans-50" d="M 1259 4147 
L 1259 2394 
L 2053 2394 
Q 2494 2394 2734 2622 
Q 2975 2850 2975 3272 
Q 2975 3691 2734 3919 
Q 2494 4147 2053 4147 
L 1259 4147 
z
M 628 4666 
L 2053 4666 
Q 2838 4666 3239 4311 
Q 3641 3956 3641 3272 
Q 3641 2581 3239 2228 
Q 2838 1875 2053 1875 
L 1259 1875 
L 1259 0 
L 628 0 
L 628 4666 
z
" transform="scale(0.015625)"/>
       <path id="DejaVuSans-6f" d="M 1959 3097 
Q 1497 3097 1228 2736 
Q 959 2375 959 1747 
Q 959 1119 1226 758 
Q 1494 397 1959 397 
Q 2419 397 2687 759 
Q 2956 1122 2956 1747 
Q 2956 2369 2687 2733 
Q 2419 3097 1959 3097 
z
M 1959 3584 
Q 2709 3584 3137 3096 
Q 3566 2609 3566 1747 
Q 3566 888 3137 398 
Q 2709 -91 1959 -91 
Q 1206 -91 779 398 
Q 353 888 353 1747 
Q 353 2609 779 3096 
Q 1206 3584 1959 3584 
z
" transform="scale(0.015625)"/>
       <path id="DejaVuSans-73" d="M 2834 3397 
L 2834 2853 
Q 2591 2978 2328 3040 
Q 2066 3103 1784 3103 
Q 1356 3103 1142 2972 
Q 928 2841 928 2578 
Q 928 2378 1081 2264 
Q 1234 2150 1697 2047 
L 1894 2003 
Q 2506 1872 2764 1633 
Q 3022 1394 3022 966 
Q 3022 478 2636 193 
Q 2250 -91 1575 -91 
Q 1294 -91 989 -36 
Q 684 19 347 128 
L 347 722 
Q 666 556 975 473 
Q 1284 391 1588 391 
Q 1994 391 2212 530 
Q 2431 669 2431 922 
Q 2431 1156 2273 1281 
Q 2116 1406 1581 1522 
L 1381 1569 
Q 847 1681 609 1914 
Q 372 2147 372 2553 
Q 372 3047 722 3315 
Q 1072 3584 1716 3584 
Q 2034 3584 2315 3537 
Q 2597 3491 2834 3397 
z
" transform="scale(0.015625)"/>
       <path id="DejaVuSans-53" d="M 3425 4513 
L 3425 3897 
Q 3066 4069 2747 4153 
Q 2428 4238 2131 4238 
Q 1616 4238 1336 4038 
Q 1056 3838 1056 3469 
Q 1056 3159 1242 3001 
Q 1428 2844 1947 2747 
L 2328 2669 
Q 3034 2534 3370 2195 
Q 3706 1856 3706 1288 
Q 3706 609 3251 259 
Q 2797 -91 1919 -91 
Q 1588 -91 1214 -16 
Q 841 59 441 206 
L 441 856 
Q 825 641 1194 531 
Q 1563 422 1919 422 
Q 2459 422 2753 634 
Q 3047 847 3047 1241 
Q 3047 1584 2836 1778 
Q 2625 1972 2144 2069 
L 1759 2144 
Q 1053 2284 737 2584 
Q 422 2884 422 3419 
Q 422 4038 858 4394 
Q 1294 4750 2059 4750 
Q 2388 4750 2728 4690 
Q 3069 4631 3425 4513 
z
" transform="scale(0.015625)"/>
       <path id="DejaVuSans-63" d="M 3122 3366 
L 3122 2828 
Q 2878 2963 2633 3030 
Q 2388 3097 2138 3097 
Q 1578 3097 1268 2742 
Q 959 2388 959 1747 
Q 959 1106 1268 751 
Q 1578 397 2138 397 
Q 2388 397 2633 464 
Q 2878 531 3122 666 
L 3122 134 
Q 2881 22 2623 -34 
Q 2366 -91 2075 -91 
Q 1284 -91 818 406 
Q 353 903 353 1747 
Q 353 2603 823 3093 
Q 1294 3584 2113 3584 
Q 2378 3584 2631 3529 
Q 2884 3475 3122 3366 
z
" transform="scale(0.015625)"/>
       <path id="DejaVuSans-72" d="M 2631 2963 
Q 2534 3019 2420 3045 
Q 2306 3072 2169 3072 
Q 1681 3072 1420 2755 
Q 1159 2438 1159 1844 
L 1159 0 
L 581 0 
L 581 3500 
L 1159 3500 
L 1159 2956 
Q 1341 3275 1631 3429 
Q 1922 3584 2338 3584 
Q 2397 3584 2469 3576 
Q 2541 3569 2628 3553 
L 2631 2963 
z
" transform="scale(0.015625)"/>
       <path id="DejaVuSans-64" d="M 2906 2969 
L 2906 4863 
L 3481 4863 
L 3481 0 
L 2906 0 
L 2906 525 
Q 2725 213 2448 61 
Q 2172 -91 1784 -91 
Q 1150 -91 751 415 
Q 353 922 353 1747 
Q 353 2572 751 3078 
Q 1150 3584 1784 3584 
Q 2172 3584 2448 3432 
Q 2725 3281 2906 2969 
z
M 947 1747 
Q 947 1113 1208 752 
Q 1469 391 1925 391 
Q 2381 391 2643 752 
Q 2906 1113 2906 1747 
Q 2906 2381 2643 2742 
Q 2381 3103 1925 3103 
Q 1469 3103 1208 2742 
Q 947 2381 947 1747 
z
" transform="scale(0.015625)"/>
      </defs>
      <use xlink:href="#DejaVuSans-50"/>
      <use xlink:href="#DejaVuSans-6f" transform="translate(56.677734 0)"/>
      <use xlink:href="#DejaVuSans-69" transform="translate(117.859375 0)"/>
      <use xlink:href="#DejaVuSans-6e" transform="translate(145.642578 0)"/>
      <use xlink:href="#DejaVuSans-74" transform="translate(209.021484 0)"/>
      <use xlink:href="#DejaVuSans-73" transform="translate(248.230469 0)"/>
      <use xlink:href="#DejaVuSans-20" transform="translate(300.330078 0)"/>
      <use xlink:href="#DejaVuSans-53" transform="translate(332.117188 0)"/>
      <use xlink:href="#DejaVuSans-63" transform="translate(395.59375 0)"/>
      <use xlink:href="#DejaVuSans-6f" transform="translate(450.574219 0)"/>
      <use xlink:href="#DejaVuSans-72" transform="translate(511.755859 0)"/>
      <use xlink:href="#DejaVuSans-65" transform="translate(550.619141 0)"/>
      <use xlink:href="#DejaVuSans-64" transform="translate(612.142578 0)"/>
     </g>
    </g>
   </g>
   <g id="patch_144">
    <path d="M 50.87 455.955539 
L 50.87 26.88 
" style="fill: none; stroke: #000000; stroke-width: 0.8; stroke-linejoin: miter; stroke-linecap: square"/>
   </g>
   <g id="patch_145">
    <path d="M 853.2 455.955539 
L 853.2 26.88 
" style="fill: none; stroke: #000000; stroke-width: 0.8; stroke-linejoin: miter; stroke-linecap: square"/>
   </g>
   <g id="patch_146">
    <path d="M 50.87 455.955539 
L 853.2 455.955539 
" style="fill: none; stroke: #000000; stroke-width: 0.8; stroke-linejoin: miter; stroke-linecap: square"/>
   </g>
   <g id="patch_147">
    <path d="M 50.87 26.88 
L 853.2 26.88 
" style="fill: none; stroke: #000000; stroke-width: 0.8; stroke-linejoin: miter; stroke-linecap: square"/>
   </g>
   <g id="text_24">
    <!-- Nikola Jokic Scoring Timeline (2023-24) -->
    <g transform="translate(334.314063 20.88) scale(0.12 -0.12)">
     <defs>
      <path id="DejaVuSans-4e" d="M 628 4666 
L 1478 4666 
L 3547 763 
L 3547 4666 
L 4159 4666 
L 4159 0 
L 3309 0 
L 1241 3903 
L 1241 0 
L 628 0 
L 628 4666 
z
" transform="scale(0.015625)"/>
      <path id="DejaVuSans-6b" d="M 581 4863 
L 1159 4863 
L 1159 1991 
L 2875 3500 
L 3609 3500 
L 1753 1863 
L 3688 0 
L 2938 0 
L 1159 1709 
L 1159 0 
L 581 0 
L 581 4863 
z
" transform="scale(0.015625)"/>
      <path id="DejaVuSans-6c" d="M 603 4863 
L 1178 4863 
L 1178 0 
L 603 0 
L 603 4863 
z
" transform="scale(0.015625)"/>
      <path id="DejaVuSans-4a" d="M 628 4666 
L 1259 4666 
L 1259 325 
Q 1259 -519 939 -900 
Q 619 -1281 -91 -1281 
L -331 -1281 
L -331 -750 
L -134 -750 
Q 284 -750 456 -515 
Q 628 -281 628 325 
L 628 4666 
z
" transform="scale(0.015625)"/>
      <path id="DejaVuSans-67" d="M 2906 1791 
Q 2906 2416 2648 2759 
Q 2391 3103 1925 3103 
Q 1463 3103 1205 2759 
Q 947 2416 947 1791 
Q 947 1169 1205 825 
Q 1463 481 1925 481 
Q 2391 481 2648 825 
Q 2906 1169 2906 1791 
z
M 3481 434 
Q 3481 -459 3084 -895 
Q 2688 -1331 1869 -1331 
Q 1566 -1331 1297 -1286 
Q 1028 -1241 775 -1147 
L 775 -588 
Q 1028 -725 1275 -790 
Q 1522 -856 1778 -856 
Q 2344 -856 2625 -561 
Q 2906 -266 2906 331 
L 2906 616 
Q 2728 306 2450 153 
Q 2172 0 1784 0 
Q 1141 0 747 490 
Q 353 981 353 1791 
Q 353 2603 747 3093 
Q 1141 3584 1784 3584 
Q 2172 3584 2450 3431 
Q 2728 3278 2906 2969 
L 2906 3500 
L 3481 3500 
L 3481 434 
z
" transform="scale(0.015625)"/>
      <path id="DejaVuSans-54" d="M -19 4666 
L 3928 4666 
L 3928 4134 
L 2272 4134 
L 2272 0 
L 1638 0 
L 1638 4134 
L -19 4134 
L -19 4666 
z
" transform="scale(0.015625)"/>
      <path id="DejaVuSans-28" d="M 1984 4856 
Q 1566 4138 1362 3434 
Q 1159 2731 1159 2009 
Q 1159 1288 1364 580 
Q 1569 -128 1984 -844 
L 1484 -844 
Q 1016 -109 783 600 
Q 550 1309 550 2009 
Q 550 2706 781 3412 
Q 1013 4119 1484 4856 
L 1984 4856 
z
" transform="scale(0.015625)"/>
      <path id="DejaVuSans-2d" d="M 313 2009 
L 1997 2009 
L 1997 1497 
L 313 1497 
L 313 2009 
z
" transform="scale(0.015625)"/>
      <path id="DejaVuSans-29" d="M 513 4856 
L 1013 4856 
Q 1481 4119 1714 3412 
Q 1947 2706 1947 2009 
Q 1947 1309 1714 600 
Q 1481 -109 1013 -844 
L 513 -844 
Q 928 -128 1133 580 
Q 1338 1288 1338 2009 
Q 1338 2731 1133 3434 
Q 928 4138 513 4856 
z
" transform="scale(0.015625)"/>
     </defs>
     <use xlink:href="#DejaVuSans-4e"/>
     <use xlink:href="#DejaVuSans-69" transform="translate(74.804688 0)"/>
     <use xlink:href="#DejaVuSans-6b" transform="translate(102.587891 0)"/>
     <use xlink:href="#DejaVuSans-6f" transform="translate(156.873047 0)"/>
     <use xlink:href="#DejaVuSans-6c" transform="translate(218.054688 0)"/>
     <use xlink:href="#DejaVuSans-61" transform="translate(245.837891 0)"/>
     <use xlink:href="#DejaVuSans-20" transform="translate(307.117188 0)"/>
     <use xlink:href="#DejaVuSans-4a" transform="translate(338.904297 0)"/>
     <use xlink:href="#DejaVuSans-6f" transform="translate(368.396484 0)"/>
     <use xlink:href="#DejaVuSans-6b" transform="translate(429.578125 0)"/>
     <use xlink:href="#DejaVuSans-69" transform="translate(487.488281 0)"/>
     <use xlink:href="#DejaVuSans-63" transform="translate(515.271484 0)"/>
     <use xlink:href="#DejaVuSans-20" transform="translate(570.251953 0)"/>
     <use xlink:href="#DejaVuSans-53" transform="translate(602.039062 0)"/>
     <use xlink:href="#DejaVuSans-63" transform="translate(665.515625 0)"/>
     <use xlink:href="#DejaVuSans-6f" transform="translate(720.496094 0)"/>
     <use xlink:href="#DejaVuSans-72" transform="translate(781.677734 0)"/>
     <use xlink:href="#DejaVuSans-69" transform="translate(822.791016 0)"/>
     <use xlink:href="#DejaVuSans-6e" transform="translate(850.574219 0)"/>
     <use xlink:href="#DejaVuSans-67" transform="translate(913.953125 0)"/>
     <use xlink:href="#DejaVuSans-20" transform="translate(977.429688 0)"/>
     <use xlink:href="#DejaVuSans-54" transform="translate(1009.216797 0)"/>
     <use xlink:href="#DejaVuSans-69" transform="translate(1067.175781 0)"/>
     <use xlink:href="#DejaVuSans-6d" transform="translate(1094.958984 0)"/>
     <use xlink:href="#DejaVuSans-65" transform="translate(1192.371094 0)"/>
     <use xlink:href="#DejaVuSans-6c" transform="translate(1253.894531 0)"/>
     <use xlink:href="#DejaVuSans-69" transform="translate(1281.677734 0)"/>
     <use xlink:href="#DejaVuSans-6e" transform="translate(1309.460938 0)"/>
     <use xlink:href="#DejaVuSans-65" transform="translate(1372.839844 0)"/>
     <use xlink:href="#DejaVuSans-20" transform="translate(1434.363281 0)"/>
     <use xlink:href="#DejaVuSans-28" transform="translate(1466.150391 0)"/>
     <use xlink:href="#DejaVuSans-32" transform="translate(1505.164062 0)"/>
     <use xlink:href="#DejaVuSans-30" transform="translate(1568.787109 0)"/>
     <use xlink:href="#DejaVuSans-32" transform="translate(1632.410156 0)"/>
     <use xlink:href="#DejaVuSans-33" transform="translate(1696.033203 0)"/>
     <use xlink:href="#DejaVuSans-2d" transform="translate(1759.65625 0)"/>
     <use xlink:href="#DejaVuSans-32" transform="translate(1795.740234 0)"/>
     <use xlink:href="#DejaVuSans-34" transform="translate(1859.363281 0)"/>
     <use xlink:href="#DejaVuSans-29" transform="translate(1922.986328 0)"/>
    </g>
   </g>
   <g id="legend_1">
    <g id="patch_148">
     <path d="M 793.33125 93.5925 
L 846.2 93.5925 
Q 848.2 93.5925 848.2 91.5925 
L 848.2 33.88 
Q 848.2 31.88 846.2 31.88 
L 793.33125 31.88 
Q 791.33125 31.88 791.33125 33.88 
L 791.33125 91.5925 
Q 791.33125 93.5925 793.33125 93.5925 
z
" style="fill: #ffffff; opacity: 0.8; stroke: #cccccc; stroke-linejoin: miter"/>
    </g>
    <g id="text_25">
     <!-- Shot Type -->
     <g transform="translate(795.33125 43.478437) scale(0.1 -0.1)">
      <defs>
       <path id="DejaVuSans-68" d="M 3513 2113 
L 3513 0 
L 2938 0 
L 2938 2094 
Q 2938 2591 2744 2837 
Q 2550 3084 2163 3084 
Q 1697 3084 1428 2787 
Q 1159 2491 1159 1978 
L 1159 0 
L 581 0 
L 581 4863 
L 1159 4863 
L 1159 2956 
Q 1366 3272 1645 3428 
Q 1925 3584 2291 3584 
Q 2894 3584 3203 3211 
Q 3513 2838 3513 2113 
z
" transform="scale(0.015625)"/>
       <path id="DejaVuSans-79" d="M 2059 -325 
Q 1816 -950 1584 -1140 
Q 1353 -1331 966 -1331 
L 506 -1331 
L 506 -850 
L 844 -850 
Q 1081 -850 1212 -737 
Q 1344 -625 1503 -206 
L 1606 56 
L 191 3500 
L 800 3500 
L 1894 763 
L 2988 3500 
L 3597 3500 
L 2059 -325 
z
" transform="scale(0.015625)"/>
       <path id="DejaVuSans-70" d="M 1159 525 
L 1159 -1331 
L 581 -1331 
L 581 3500 
L 1159 3500 
L 1159 2969 
Q 1341 3281 1617 3432 
Q 1894 3584 2278 3584 
Q 2916 3584 3314 3078 
Q 3713 2572 3713 1747 
Q 3713 922 3314 415 
Q 2916 -91 2278 -91 
Q 1894 -91 1617 61 
Q 1341 213 1159 525 
z
M 3116 1747 
Q 3116 2381 2855 2742 
Q 2594 3103 2138 3103 
Q 1681 3103 1420 2742 
Q 1159 2381 1159 1747 
Q 1159 1113 1420 752 
Q 1681 391 2138 391 
Q 2594 391 2855 752 
Q 3116 1113 3116 1747 
z
" transform="scale(0.015625)"/>
      </defs>
      <use xlink:href="#DejaVuSans-53"/>
      <use xlink:href="#DejaVuSans-68" transform="translate(63.476562 0)"/>
      <use xlink:href="#DejaVuSans-6f" transform="translate(126.855469 0)"/>
      <use xlink:href="#DejaVuSans-74" transform="translate(188.037109 0)"/>
      <use xlink:href="#DejaVuSans-20" transform="translate(227.246094 0)"/>
      <use xlink:href="#DejaVuSans-54" transform="translate(259.033203 0)"/>
      <use xlink:href="#DejaVuSans-79" transform="translate(304.492188 0)"/>
      <use xlink:href="#DejaVuSans-70" transform="translate(363.671875 0)"/>
      <use xlink:href="#DejaVuSans-65" transform="translate(427.148438 0)"/>
     </g>
    </g>
    <g id="patch_149">
     <path d="M 796.515625 58.156563 
L 816.515625 58.156563 
L 816.515625 51.156563 
L 796.515625 51.156563 
z
" style="fill: #ffc107"/>
    </g>
    <g id="text_26">
     <!-- FT -->
     <g transform="translate(824.515625 58.156563) scale(0.1 -0.1)">
      <defs>
       <path id="DejaVuSans-46" d="M 628 4666 
L 3309 4666 
L 3309 4134 
L 1259 4134 
L 1259 2759 
L 3109 2759 
L 3109 2228 
L 1259 2228 
L 1259 0 
L 628 0 
L 628 4666 
z
" transform="scale(0.015625)"/>
      </defs>
      <use xlink:href="#DejaVuSans-46"/>
      <use xlink:href="#DejaVuSans-54" transform="translate(55.769531 0)"/>
     </g>
    </g>
    <g id="patch_150">
     <path d="M 796.515625 72.834688 
L 816.515625 72.834688 
L 816.515625 65.834688 
L 796.515625 65.834688 
z
" style="fill: #2196f3"/>
    </g>
    <g id="text_27">
     <!-- 2PT -->
     <g transform="translate(824.515625 72.834688) scale(0.1 -0.1)">
      <use xlink:href="#DejaVuSans-32"/>
      <use xlink:href="#DejaVuSans-50" transform="translate(63.623047 0)"/>
      <use xlink:href="#DejaVuSans-54" transform="translate(123.925781 0)"/>
     </g>
    </g>
    <g id="patch_151">
     <path d="M 796.515625 87.512812 
L 816.515625 87.512812 
L 816.515625 80.512812 
L 796.515625 80.512812 
z
" style="fill: #4caf50"/>
    </g>
    <g id="text_28">
     <!-- 3PT -->
     <g transform="translate(824.515625 87.512812) scale(0.1 -0.1)">
      <use xlink:href="#DejaVuSans-33"/>
      <use xlink:href="#DejaVuSans-50" transform="translate(63.623047 0)"/>
      <use xlink:href="#DejaVuSans-54" transform="translate(123.925781 0)"/>
     </g>
    </g>
   </g>
  </g>
 </g>
 <defs>
  <clipPath id="pee82afadb1">
   <rect x="50.87" y="26.88" width="802.33" height="429.075539"/>
  </clipPath>
 </defs>
</svg>
