<?xml version="1.0" encoding="utf-8" standalone="no"?>
<!DOCTYPE svg PUBLIC "-//W3C//DTD SVG 1.1//EN"
  "http://www.w3.org/Graphics/SVG/1.1/DTD/svg11.dtd">
<svg xmlns:xlink="http://www.w3.org/1999/xlink" width="864pt" height="504pt" viewBox="0 0 864 504" xmlns="http://www.w3.org/2000/svg" version="1.1">
 <metadata>
  <rdf:RDF xmlns:dc="http://purl.org/dc/elements/1.1/" xmlns:cc="http://creativecommons.org/ns#" xmlns:rdf="http://www.w3.org/1999/02/22-rdf-syntax-ns#">
   <cc:Work>
    <dc:type rdf:resource="http://purl.org/dc/dcmitype/StillImage"/>
    <dc:date>2025-08-24T04:09:28.165410</dc:date>
    <dc:format>image/svg+xml</dc:format>
    <dc:creator>
     <cc:Agent>
      <dc:title>Matplotlib v3.10.5, https://matplotlib.org/</dc:title>
     </cc:Agent>
    </dc:creator>
   </cc:Work>
  </rdf:RDF>
 </metadata>
 <defs>
  <style type="text/css">*{stroke-linejoin: round; stroke-linecap: butt}</style>
 </defs>
 <g id="figure_1">
  <g id="patch_1">
   <path d="M 0 504 
L 864 504 
L 864 0 
L 0 0 
z
" style="fill: #ffffff"/>
  </g>
  <g id="axes_1">
   <g id="patch_2">
    <path d="M 52.85 455.955539 
L 853.2 455.955539 
L 853.2 26.88 
L 52.85 26.88 
z
" style="fill: #ffffff"/>
   </g>
   <g id="patch_3">
    <path d="M 56.992598 302.365999 
L 61.41137 302.365999 
L 61.41137 308.460822 
L 56.992598 308.460822 
z
" clip-path="url(#paada11fff7)" style="fill: #ffc107"/>
   </g>
   <g id="patch_4">
    <path d="M 73.562992 302.365999 
L 77.981763 302.365999 
L 77.981763 296.271176 
L 73.562992 296.271176 
z
" clip-path="url(#paada11fff7)" style="fill: #ffc107"/>
   </g>
   <g id="patch_5">
    <path d="M 90.133385 302.365999 
L 94.552157 302.365999 
L 94.552157 338.934937 
L 90.133385 338.934937 
z
" clip-path="url(#paada11fff7)" style="fill: #ffc107"/>
   </g>
   <g id="patch_6">
    <path d="M 106.703778 302.365999 
L 111.12255 302.365999 
L 111.12255 277.986707 
L 106.703778 277.986707 
z
" clip-path="url(#paada11fff7)" style="fill: #ffc107"/>
   </g>
   <g id="patch_7">
    <path d="M 123.274172 302.365999 
L 127.692943 302.365999 
L 127.692943 296.271176 
L 123.274172 296.271176 
z
" clip-path="url(#paada11fff7)" style="fill: #ffc107"/>
   </g>
   <g id="patch_8">
    <path d="M 139.844565 302.365999 
L 144.263337 302.365999 
L 144.263337 265.797061 
L 139.844565 265.797061 
z
" clip-path="url(#paada11fff7)" style="fill: #ffc107"/>
   </g>
   <g id="patch_9">
    <path d="M 156.414959 302.365999 
L 160.83373 302.365999 
L 160.83373 265.797061 
L 156.414959 265.797061 
z
" clip-path="url(#paada11fff7)" style="fill: #ffc107"/>
   </g>
   <g id="patch_10">
    <path d="M 172.985352 302.365999 
L 177.404124 302.365999 
L 177.404124 314.555645 
L 172.985352 314.555645 
z
" clip-path="url(#paada11fff7)" style="fill: #ffc107"/>
   </g>
   <g id="patch_11">
    <path d="M 189.555745 302.365999 
L 193.974517 302.365999 
L 193.974517 277.986707 
L 189.555745 277.986707 
z
" clip-path="url(#paada11fff7)" style="fill: #ffc107"/>
   </g>
   <g id="patch_12">
    <path d="M 206.126139 302.365999 
L 210.54491 302.365999 
L 210.54491 345.02976 
L 206.126139 345.02976 
z
" clip-path="url(#paada11fff7)" style="fill: #ffc107"/>
   </g>
   <g id="patch_13">
    <path d="M 222.696532 302.365999 
L 227.115304 302.365999 
L 227.115304 204.848832 
L 222.696532 204.848832 
z
" clip-path="url(#paada11fff7)" style="fill: #ffc107"/>
   </g>
   <g id="patch_14">
    <path d="M 239.266925 302.365999 
L 243.685697 302.365999 
L 243.685697 253.607415 
L 239.266925 253.607415 
z
" clip-path="url(#paada11fff7)" style="fill: #ffc107"/>
   </g>
   <g id="patch_15">
    <path d="M 255.837319 302.365999 
L 260.25609 302.365999 
L 260.25609 302.365999 
L 255.837319 302.365999 
z
" clip-path="url(#paada11fff7)" style="fill: #ffc107"/>
   </g>
   <g id="patch_16">
    <path d="M 272.407712 302.365999 
L 276.826484 302.365999 
L 276.826484 302.365999 
L 272.407712 302.365999 
z
" clip-path="url(#paada11fff7)" style="fill: #ffc107"/>
   </g>
   <g id="patch_17">
    <path d="M 288.978106 302.365999 
L 293.396877 302.365999 
L 293.396877 302.365999 
L 288.978106 302.365999 
z
" clip-path="url(#paada11fff7)" style="fill: #ffc107"/>
   </g>
   <g id="patch_18">
    <path d="M 305.548499 302.365999 
L 309.967271 302.365999 
L 309.967271 302.365999 
L 305.548499 302.365999 
z
" clip-path="url(#paada11fff7)" style="fill: #ffc107"/>
   </g>
   <g id="patch_19">
    <path d="M 322.118892 302.365999 
L 326.537664 302.365999 
L 326.537664 326.745291 
L 322.118892 326.745291 
z
" clip-path="url(#paada11fff7)" style="fill: #ffc107"/>
   </g>
   <g id="patch_20">
    <path d="M 338.689286 302.365999 
L 343.108057 302.365999 
L 343.108057 284.08153 
L 338.689286 284.08153 
z
" clip-path="url(#paada11fff7)" style="fill: #ffc107"/>
   </g>
   <g id="patch_21">
    <path d="M 355.259679 302.365999 
L 359.678451 302.365999 
L 359.678451 308.460822 
L 355.259679 308.460822 
z
" clip-path="url(#paada11fff7)" style="fill: #ffc107"/>
   </g>
   <g id="patch_22">
    <path d="M 371.830072 302.365999 
L 376.248844 302.365999 
L 376.248844 284.08153 
L 371.830072 284.08153 
z
" clip-path="url(#paada11fff7)" style="fill: #ffc107"/>
   </g>
   <g id="patch_23">
    <path d="M 388.400466 302.365999 
L 392.819237 302.365999 
L 392.819237 326.745291 
L 388.400466 326.745291 
z
" clip-path="url(#paada11fff7)" style="fill: #ffc107"/>
   </g>
   <g id="patch_24">
    <path d="M 404.970859 302.365999 
L 409.389631 302.365999 
L 409.389631 290.176353 
L 404.970859 290.176353 
z
" clip-path="url(#paada11fff7)" style="fill: #ffc107"/>
   </g>
   <g id="patch_25">
    <path d="M 421.541253 302.365999 
L 425.960024 302.365999 
L 425.960024 302.365999 
L 421.541253 302.365999 
z
" clip-path="url(#paada11fff7)" style="fill: #ffc107"/>
   </g>
   <g id="patch_26">
    <path d="M 438.111646 302.365999 
L 442.530418 302.365999 
L 442.530418 265.797061 
L 438.111646 265.797061 
z
" clip-path="url(#paada11fff7)" style="fill: #ffc107"/>
   </g>
   <g id="patch_27">
    <path d="M 454.682039 302.365999 
L 459.100811 302.365999 
L 459.100811 320.650468 
L 454.682039 320.650468 
z
" clip-path="url(#paada11fff7)" style="fill: #ffc107"/>
   </g>
   <g id="patch_28">
    <path d="M 471.252433 302.365999 
L 475.671204 302.365999 
L 475.671204 290.176353 
L 471.252433 290.176353 
z
" clip-path="url(#paada11fff7)" style="fill: #ffc107"/>
   </g>
   <g id="patch_29">
    <path d="M 487.822826 302.365999 
L 492.241598 302.365999 
L 492.241598 277.986707 
L 487.822826 277.986707 
z
" clip-path="url(#paada11fff7)" style="fill: #ffc107"/>
   </g>
   <g id="patch_30">
    <path d="M 504.393219 302.365999 
L 508.811991 302.365999 
L 508.811991 296.271176 
L 504.393219 296.271176 
z
" clip-path="url(#paada11fff7)" style="fill: #ffc107"/>
   </g>
   <g id="patch_31">
    <path d="M 520.963613 302.365999 
L 525.382384 302.365999 
L 525.382384 381.598698 
L 520.963613 381.598698 
z
" clip-path="url(#paada11fff7)" style="fill: #ffc107"/>
   </g>
   <g id="patch_32">
    <path d="M 537.534006 302.365999 
L 541.952778 302.365999 
L 541.952778 326.745291 
L 537.534006 326.745291 
z
" clip-path="url(#paada11fff7)" style="fill: #ffc107"/>
   </g>
   <g id="patch_33">
    <path d="M 554.1044 302.365999 
L 558.523171 302.365999 
L 558.523171 235.322946 
L 554.1044 235.322946 
z
" clip-path="url(#paada11fff7)" style="fill: #ffc107"/>
   </g>
   <g id="patch_34">
    <path d="M 570.674793 302.365999 
L 575.093565 302.365999 
L 575.093565 326.745291 
L 570.674793 326.745291 
z
" clip-path="url(#paada11fff7)" style="fill: #ffc107"/>
   </g>
   <g id="patch_35">
    <path d="M 587.245186 302.365999 
L 591.663958 302.365999 
L 591.663958 357.219406 
L 587.245186 357.219406 
z
" clip-path="url(#paada11fff7)" style="fill: #ffc107"/>
   </g>
   <g id="patch_36">
    <path d="M 603.81558 302.365999 
L 608.234351 302.365999 
L 608.234351 369.409052 
L 603.81558 369.409052 
z
" clip-path="url(#paada11fff7)" style="fill: #ffc107"/>
   </g>
   <g id="patch_37">
    <path d="M 620.385973 302.365999 
L 624.804745 302.365999 
L 624.804745 314.555645 
L 620.385973 314.555645 
z
" clip-path="url(#paada11fff7)" style="fill: #ffc107"/>
   </g>
   <g id="patch_38">
    <path d="M 636.956366 302.365999 
L 641.375138 302.365999 
L 641.375138 198.754009 
L 636.956366 198.754009 
z
" clip-path="url(#paada11fff7)" style="fill: #ffc107"/>
   </g>
   <g id="patch_39">
    <path d="M 653.52676 302.365999 
L 657.945531 302.365999 
L 657.945531 314.555645 
L 653.52676 314.555645 
z
" clip-path="url(#paada11fff7)" style="fill: #ffc107"/>
   </g>
   <g id="patch_40">
    <path d="M 670.097153 302.365999 
L 674.515925 302.365999 
L 674.515925 302.365999 
L 670.097153 302.365999 
z
" clip-path="url(#paada11fff7)" style="fill: #ffc107"/>
   </g>
   <g id="patch_41">
    <path d="M 686.667547 302.365999 
L 691.086318 302.365999 
L 691.086318 290.176353 
L 686.667547 290.176353 
z
" clip-path="url(#paada11fff7)" style="fill: #ffc107"/>
   </g>
   <g id="patch_42">
    <path d="M 703.23794 302.365999 
L 707.656712 302.365999 
L 707.656712 296.271176 
L 703.23794 296.271176 
z
" clip-path="url(#paada11fff7)" style="fill: #ffc107"/>
   </g>
   <g id="patch_43">
    <path d="M 719.808333 302.365999 
L 724.227105 302.365999 
L 724.227105 326.745291 
L 719.808333 326.745291 
z
" clip-path="url(#paada11fff7)" style="fill: #ffc107"/>
   </g>
   <g id="patch_44">
    <path d="M 736.378727 302.365999 
L 740.797498 302.365999 
L 740.797498 332.840114 
L 736.378727 332.840114 
z
" clip-path="url(#paada11fff7)" style="fill: #ffc107"/>
   </g>
   <g id="patch_45">
    <path d="M 752.94912 302.365999 
L 757.367892 302.365999 
L 757.367892 302.365999 
L 752.94912 302.365999 
z
" clip-path="url(#paada11fff7)" style="fill: #ffc107"/>
   </g>
   <g id="patch_46">
    <path d="M 769.519513 302.365999 
L 773.938285 302.365999 
L 773.938285 296.271176 
L 769.519513 296.271176 
z
" clip-path="url(#paada11fff7)" style="fill: #ffc107"/>
   </g>
   <g id="patch_47">
    <path d="M 786.089907 302.365999 
L 790.508678 302.365999 
L 790.508678 308.460822 
L 786.089907 308.460822 
z
" clip-path="url(#paada11fff7)" style="fill: #ffc107"/>
   </g>
   <g id="patch_48">
    <path d="M 802.6603 302.365999 
L 807.079072 302.365999 
L 807.079072 265.797061 
L 802.6603 265.797061 
z
" clip-path="url(#paada11fff7)" style="fill: #ffc107"/>
   </g>
   <g id="patch_49">
    <path d="M 819.230694 302.365999 
L 823.649465 302.365999 
L 823.649465 375.503875 
L 819.230694 375.503875 
z
" clip-path="url(#paada11fff7)" style="fill: #ffc107"/>
   </g>
   <g id="patch_50">
    <path d="M 835.801087 302.365999 
L 840.219859 302.365999 
L 840.219859 320.650468 
L 835.801087 320.650468 
z
" clip-path="url(#paada11fff7)" style="fill: #ffc107"/>
   </g>
   <g id="patch_51">
    <path d="M 61.41137 302.365999 
L 65.830141 302.365999 
L 65.830141 436.452105 
L 61.41137 436.452105 
z
" clip-path="url(#paada11fff7)" style="fill: #2196f3"/>
   </g>
   <g id="patch_52">
    <path d="M 77.981763 302.365999 
L 82.400535 302.365999 
L 82.400535 387.693521 
L 77.981763 387.693521 
z
" clip-path="url(#paada11fff7)" style="fill: #2196f3"/>
   </g>
   <g id="patch_53">
    <path d="M 94.552157 302.365999 
L 98.970928 302.365999 
L 98.970928 314.555645 
L 94.552157 314.555645 
z
" clip-path="url(#paada11fff7)" style="fill: #2196f3"/>
   </g>
   <g id="patch_54">
    <path d="M 111.12255 302.365999 
L 115.541322 302.365999 
L 115.541322 351.124583 
L 111.12255 351.124583 
z
" clip-path="url(#paada11fff7)" style="fill: #2196f3"/>
   </g>
   <g id="patch_55">
    <path d="M 127.692943 302.365999 
L 132.111715 302.365999 
L 132.111715 375.503875 
L 127.692943 375.503875 
z
" clip-path="url(#paada11fff7)" style="fill: #2196f3"/>
   </g>
   <g id="patch_56">
    <path d="M 144.263337 302.365999 
L 148.682108 302.365999 
L 148.682108 156.090248 
L 144.263337 156.090248 
z
" clip-path="url(#paada11fff7)" style="fill: #2196f3"/>
   </g>
   <g id="patch_57">
    <path d="M 160.83373 302.365999 
L 165.252502 302.365999 
L 165.252502 387.693521 
L 160.83373 387.693521 
z
" clip-path="url(#paada11fff7)" style="fill: #2196f3"/>
   </g>
   <g id="patch_58">
    <path d="M 177.404124 302.365999 
L 181.822895 302.365999 
L 181.822895 314.555645 
L 177.404124 314.555645 
z
" clip-path="url(#paada11fff7)" style="fill: #2196f3"/>
   </g>
   <g id="patch_59">
    <path d="M 193.974517 302.365999 
L 198.393288 302.365999 
L 198.393288 399.883167 
L 193.974517 399.883167 
z
" clip-path="url(#paada11fff7)" style="fill: #2196f3"/>
   </g>
   <g id="patch_60">
    <path d="M 210.54491 302.365999 
L 214.963682 302.365999 
L 214.963682 217.038478 
L 210.54491 217.038478 
z
" clip-path="url(#paada11fff7)" style="fill: #2196f3"/>
   </g>
   <g id="patch_61">
    <path d="M 227.115304 302.365999 
L 231.534075 302.365999 
L 231.534075 314.555645 
L 227.115304 314.555645 
z
" clip-path="url(#paada11fff7)" style="fill: #2196f3"/>
   </g>
   <g id="patch_62">
    <path d="M 243.685697 302.365999 
L 248.104469 302.365999 
L 248.104469 46.383434 
L 243.685697 46.383434 
z
" clip-path="url(#paada11fff7)" style="fill: #2196f3"/>
   </g>
   <g id="patch_63">
    <path d="M 260.25609 302.365999 
L 264.674862 302.365999 
L 264.674862 302.365999 
L 260.25609 302.365999 
z
" clip-path="url(#paada11fff7)" style="fill: #2196f3"/>
   </g>
   <g id="patch_64">
    <path d="M 276.826484 302.365999 
L 281.245255 302.365999 
L 281.245255 302.365999 
L 276.826484 302.365999 
z
" clip-path="url(#paada11fff7)" style="fill: #2196f3"/>
   </g>
   <g id="patch_65">
    <path d="M 293.396877 302.365999 
L 297.815649 302.365999 
L 297.815649 326.745291 
L 293.396877 326.745291 
z
" clip-path="url(#paada11fff7)" style="fill: #2196f3"/>
   </g>
   <g id="patch_66">
    <path d="M 309.967271 302.365999 
L 314.386042 302.365999 
L 314.386042 290.176353 
L 309.967271 290.176353 
z
" clip-path="url(#paada11fff7)" style="fill: #2196f3"/>
   </g>
   <g id="patch_67">
    <path d="M 326.537664 302.365999 
L 330.956435 302.365999 
L 330.956435 338.934937 
L 326.537664 338.934937 
z
" clip-path="url(#paada11fff7)" style="fill: #2196f3"/>
   </g>
   <g id="patch_68">
    <path d="M 343.108057 302.365999 
L 347.526829 302.365999 
L 347.526829 290.176353 
L 343.108057 290.176353 
z
" clip-path="url(#paada11fff7)" style="fill: #2196f3"/>
   </g>
   <g id="patch_69">
    <path d="M 359.678451 302.365999 
L 364.097222 302.365999 
L 364.097222 436.452105 
L 359.678451 436.452105 
z
" clip-path="url(#paada11fff7)" style="fill: #2196f3"/>
   </g>
   <g id="patch_70">
    <path d="M 376.248844 302.365999 
L 380.667616 302.365999 
L 380.667616 351.124583 
L 376.248844 351.124583 
z
" clip-path="url(#paada11fff7)" style="fill: #2196f3"/>
   </g>
   <g id="patch_71">
    <path d="M 392.819237 302.365999 
L 397.238009 302.365999 
L 397.238009 424.262459 
L 392.819237 424.262459 
z
" clip-path="url(#paada11fff7)" style="fill: #2196f3"/>
   </g>
   <g id="patch_72">
    <path d="M 409.389631 302.365999 
L 413.808402 302.365999 
L 413.808402 229.228123 
L 409.389631 229.228123 
z
" clip-path="url(#paada11fff7)" style="fill: #2196f3"/>
   </g>
   <g id="patch_73">
    <path d="M 425.960024 302.365999 
L 430.378796 302.365999 
L 430.378796 326.745291 
L 425.960024 326.745291 
z
" clip-path="url(#paada11fff7)" style="fill: #2196f3"/>
   </g>
   <g id="patch_74">
    <path d="M 442.530418 302.365999 
L 446.949189 302.365999 
L 446.949189 375.503875 
L 442.530418 375.503875 
z
" clip-path="url(#paada11fff7)" style="fill: #2196f3"/>
   </g>
   <g id="patch_75">
    <path d="M 459.100811 302.365999 
L 463.519582 302.365999 
L 463.519582 424.262459 
L 459.100811 424.262459 
z
" clip-path="url(#paada11fff7)" style="fill: #2196f3"/>
   </g>
   <g id="patch_76">
    <path d="M 475.671204 302.365999 
L 480.089976 302.365999 
L 480.089976 387.693521 
L 475.671204 387.693521 
z
" clip-path="url(#paada11fff7)" style="fill: #2196f3"/>
   </g>
   <g id="patch_77">
    <path d="M 492.241598 302.365999 
L 496.660369 302.365999 
L 496.660369 399.883167 
L 492.241598 399.883167 
z
" clip-path="url(#paada11fff7)" style="fill: #2196f3"/>
   </g>
   <g id="patch_78">
    <path d="M 508.811991 302.365999 
L 513.230763 302.365999 
L 513.230763 412.072813 
L 508.811991 412.072813 
z
" clip-path="url(#paada11fff7)" style="fill: #2196f3"/>
   </g>
   <g id="patch_79">
    <path d="M 525.382384 302.365999 
L 529.801156 302.365999 
L 529.801156 375.503875 
L 525.382384 375.503875 
z
" clip-path="url(#paada11fff7)" style="fill: #2196f3"/>
   </g>
   <g id="patch_80">
    <path d="M 541.952778 302.365999 
L 546.371549 302.365999 
L 546.371549 290.176353 
L 541.952778 290.176353 
z
" clip-path="url(#paada11fff7)" style="fill: #2196f3"/>
   </g>
   <g id="patch_81">
    <path d="M 558.523171 302.365999 
L 562.941943 302.365999 
L 562.941943 351.124583 
L 558.523171 351.124583 
z
" clip-path="url(#paada11fff7)" style="fill: #2196f3"/>
   </g>
   <g id="patch_82">
    <path d="M 575.093565 302.365999 
L 579.512336 302.365999 
L 579.512336 387.693521 
L 575.093565 387.693521 
z
" clip-path="url(#paada11fff7)" style="fill: #2196f3"/>
   </g>
   <g id="patch_83">
    <path d="M 591.663958 302.365999 
L 596.082729 302.365999 
L 596.082729 265.797061 
L 591.663958 265.797061 
z
" clip-path="url(#paada11fff7)" style="fill: #2196f3"/>
   </g>
   <g id="patch_84">
    <path d="M 608.234351 302.365999 
L 612.653123 302.365999 
L 612.653123 326.745291 
L 608.234351 326.745291 
z
" clip-path="url(#paada11fff7)" style="fill: #2196f3"/>
   </g>
   <g id="patch_85">
    <path d="M 624.804745 302.365999 
L 629.223516 302.365999 
L 629.223516 326.745291 
L 624.804745 326.745291 
z
" clip-path="url(#paada11fff7)" style="fill: #2196f3"/>
   </g>
   <g id="patch_86">
    <path d="M 641.375138 302.365999 
L 645.79391 302.365999 
L 645.79391 253.607415 
L 641.375138 253.607415 
z
" clip-path="url(#paada11fff7)" style="fill: #2196f3"/>
   </g>
   <g id="patch_87">
    <path d="M 657.945531 302.365999 
L 662.364303 302.365999 
L 662.364303 277.986707 
L 657.945531 277.986707 
z
" clip-path="url(#paada11fff7)" style="fill: #2196f3"/>
   </g>
   <g id="patch_88">
    <path d="M 674.515925 302.365999 
L 678.934696 302.365999 
L 678.934696 290.176353 
L 674.515925 290.176353 
z
" clip-path="url(#paada11fff7)" style="fill: #2196f3"/>
   </g>
   <g id="patch_89">
    <path d="M 691.086318 302.365999 
L 695.50509 302.365999 
L 695.50509 302.365999 
L 691.086318 302.365999 
z
" clip-path="url(#paada11fff7)" style="fill: #2196f3"/>
   </g>
   <g id="patch_90">
    <path d="M 707.656712 302.365999 
L 712.075483 302.365999 
L 712.075483 338.934937 
L 707.656712 338.934937 
z
" clip-path="url(#paada11fff7)" style="fill: #2196f3"/>
   </g>
   <g id="patch_91">
    <path d="M 724.227105 302.365999 
L 728.645876 302.365999 
L 728.645876 351.124583 
L 724.227105 351.124583 
z
" clip-path="url(#paada11fff7)" style="fill: #2196f3"/>
   </g>
   <g id="patch_92">
    <path d="M 740.797498 302.365999 
L 745.21627 302.365999 
L 745.21627 399.883167 
L 740.797498 399.883167 
z
" clip-path="url(#paada11fff7)" style="fill: #2196f3"/>
   </g>
   <g id="patch_93">
    <path d="M 757.367892 302.365999 
L 761.786663 302.365999 
L 761.786663 253.607415 
L 757.367892 253.607415 
z
" clip-path="url(#paada11fff7)" style="fill: #2196f3"/>
   </g>
   <g id="patch_94">
    <path d="M 773.938285 302.365999 
L 778.357057 302.365999 
L 778.357057 326.745291 
L 773.938285 326.745291 
z
" clip-path="url(#paada11fff7)" style="fill: #2196f3"/>
   </g>
   <g id="patch_95">
    <path d="M 790.508678 302.365999 
L 794.92745 302.365999 
L 794.92745 412.072813 
L 790.508678 412.072813 
z
" clip-path="url(#paada11fff7)" style="fill: #2196f3"/>
   </g>
   <g id="patch_96">
    <path d="M 807.079072 302.365999 
L 811.497843 302.365999 
L 811.497843 399.883167 
L 807.079072 399.883167 
z
" clip-path="url(#paada11fff7)" style="fill: #2196f3"/>
   </g>
   <g id="patch_97">
    <path d="M 823.649465 302.365999 
L 828.068237 302.365999 
L 828.068237 363.314229 
L 823.649465 363.314229 
z
" clip-path="url(#paada11fff7)" style="fill: #2196f3"/>
   </g>
   <g id="patch_98">
    <path d="M 840.219859 302.365999 
L 844.63863 302.365999 
L 844.63863 204.848832 
L 840.219859 204.848832 
z
" clip-path="url(#paada11fff7)" style="fill: #2196f3"/>
   </g>
   <g id="patch_99">
    <path d="M 65.830141 302.365999 
L 70.248913 302.365999 
L 70.248913 302.365999 
L 65.830141 302.365999 
z
" clip-path="url(#paada11fff7)" style="fill: #4caf50"/>
   </g>
   <g id="patch_100">
    <path d="M 82.400535 302.365999 
L 86.819306 302.365999 
L 86.819306 229.228123 
L 82.400535 229.228123 
z
" clip-path="url(#paada11fff7)" style="fill: #4caf50"/>
   </g>
   <g id="patch_101">
    <path d="M 98.970928 302.365999 
L 103.3897 302.365999 
L 103.3897 265.797061 
L 98.970928 265.797061 
z
" clip-path="url(#paada11fff7)" style="fill: #4caf50"/>
   </g>
   <g id="patch_102">
    <path d="M 115.541322 302.365999 
L 119.960093 302.365999 
L 119.960093 302.365999 
L 115.541322 302.365999 
z
" clip-path="url(#paada11fff7)" style="fill: #4caf50"/>
   </g>
   <g id="patch_103">
    <path d="M 132.111715 302.365999 
L 136.530487 302.365999 
L 136.530487 284.08153 
L 132.111715 284.08153 
z
" clip-path="url(#paada11fff7)" style="fill: #4caf50"/>
   </g>
   <g id="patch_104">
    <path d="M 148.682108 302.365999 
L 153.10088 302.365999 
L 153.10088 284.08153 
L 148.682108 284.08153 
z
" clip-path="url(#paada11fff7)" style="fill: #4caf50"/>
   </g>
   <g id="patch_105">
    <path d="M 165.252502 302.365999 
L 169.671273 302.365999 
L 169.671273 284.08153 
L 165.252502 284.08153 
z
" clip-path="url(#paada11fff7)" style="fill: #4caf50"/>
   </g>
   <g id="patch_106">
    <path d="M 181.822895 302.365999 
L 186.241667 302.365999 
L 186.241667 265.797061 
L 181.822895 265.797061 
z
" clip-path="url(#paada11fff7)" style="fill: #4caf50"/>
   </g>
   <g id="patch_107">
    <path d="M 198.393288 302.365999 
L 202.81206 302.365999 
L 202.81206 156.090248 
L 198.393288 156.090248 
z
" clip-path="url(#paada11fff7)" style="fill: #4caf50"/>
   </g>
   <g id="patch_108">
    <path d="M 214.963682 302.365999 
L 219.382453 302.365999 
L 219.382453 247.512592 
L 214.963682 247.512592 
z
" clip-path="url(#paada11fff7)" style="fill: #4caf50"/>
   </g>
   <g id="patch_109">
    <path d="M 231.534075 302.365999 
L 235.952847 302.365999 
L 235.952847 320.650468 
L 231.534075 320.650468 
z
" clip-path="url(#paada11fff7)" style="fill: #4caf50"/>
   </g>
   <g id="patch_110">
    <path d="M 248.104469 302.365999 
L 252.52324 302.365999 
L 252.52324 284.08153 
L 248.104469 284.08153 
z
" clip-path="url(#paada11fff7)" style="fill: #4caf50"/>
   </g>
   <g id="patch_111">
    <path d="M 264.674862 302.365999 
L 269.093634 302.365999 
L 269.093634 302.365999 
L 264.674862 302.365999 
z
" clip-path="url(#paada11fff7)" style="fill: #4caf50"/>
   </g>
   <g id="patch_112">
    <path d="M 281.245255 302.365999 
L 285.664027 302.365999 
L 285.664027 302.365999 
L 281.245255 302.365999 
z
" clip-path="url(#paada11fff7)" style="fill: #4caf50"/>
   </g>
   <g id="patch_113">
    <path d="M 297.815649 302.365999 
L 302.23442 302.365999 
L 302.23442 302.365999 
L 297.815649 302.365999 
z
" clip-path="url(#paada11fff7)" style="fill: #4caf50"/>
   </g>
   <g id="patch_114">
    <path d="M 314.386042 302.365999 
L 318.804814 302.365999 
L 318.804814 302.365999 
L 314.386042 302.365999 
z
" clip-path="url(#paada11fff7)" style="fill: #4caf50"/>
   </g>
   <g id="patch_115">
    <path d="M 330.956435 302.365999 
L 335.375207 302.365999 
L 335.375207 320.650468 
L 330.956435 320.650468 
z
" clip-path="url(#paada11fff7)" style="fill: #4caf50"/>
   </g>
   <g id="patch_116">
    <path d="M 347.526829 302.365999 
L 351.9456 302.365999 
L 351.9456 320.650468 
L 347.526829 320.650468 
z
" clip-path="url(#paada11fff7)" style="fill: #4caf50"/>
   </g>
   <g id="patch_117">
    <path d="M 364.097222 302.365999 
L 368.515994 302.365999 
L 368.515994 302.365999 
L 364.097222 302.365999 
z
" clip-path="url(#paada11fff7)" style="fill: #4caf50"/>
   </g>
   <g id="patch_118">
    <path d="M 380.667616 302.365999 
L 385.086387 302.365999 
L 385.086387 338.934937 
L 380.667616 338.934937 
z
" clip-path="url(#paada11fff7)" style="fill: #4caf50"/>
   </g>
   <g id="patch_119">
    <path d="M 397.238009 302.365999 
L 401.656781 302.365999 
L 401.656781 284.08153 
L 397.238009 284.08153 
z
" clip-path="url(#paada11fff7)" style="fill: #4caf50"/>
   </g>
   <g id="patch_120">
    <path d="M 413.808402 302.365999 
L 418.227174 302.365999 
L 418.227174 357.219406 
L 413.808402 357.219406 
z
" clip-path="url(#paada11fff7)" style="fill: #4caf50"/>
   </g>
   <g id="patch_121">
    <path d="M 430.378796 302.365999 
L 434.797567 302.365999 
L 434.797567 265.797061 
L 430.378796 265.797061 
z
" clip-path="url(#paada11fff7)" style="fill: #4caf50"/>
   </g>
   <g id="patch_122">
    <path d="M 446.949189 302.365999 
L 451.367961 302.365999 
L 451.367961 284.08153 
L 446.949189 284.08153 
z
" clip-path="url(#paada11fff7)" style="fill: #4caf50"/>
   </g>
   <g id="patch_123">
    <path d="M 463.519582 302.365999 
L 467.938354 302.365999 
L 467.938354 265.797061 
L 463.519582 265.797061 
z
" clip-path="url(#paada11fff7)" style="fill: #4caf50"/>
   </g>
   <g id="patch_124">
    <path d="M 480.089976 302.365999 
L 484.508747 302.365999 
L 484.508747 247.512592 
L 480.089976 247.512592 
z
" clip-path="url(#paada11fff7)" style="fill: #4caf50"/>
   </g>
   <g id="patch_125">
    <path d="M 496.660369 302.365999 
L 501.079141 302.365999 
L 501.079141 284.08153 
L 496.660369 284.08153 
z
" clip-path="url(#paada11fff7)" style="fill: #4caf50"/>
   </g>
   <g id="patch_126">
    <path d="M 513.230763 302.365999 
L 517.649534 302.365999 
L 517.649534 284.08153 
L 513.230763 284.08153 
z
" clip-path="url(#paada11fff7)" style="fill: #4caf50"/>
   </g>
   <g id="patch_127">
    <path d="M 529.801156 302.365999 
L 534.219928 302.365999 
L 534.219928 284.08153 
L 529.801156 284.08153 
z
" clip-path="url(#paada11fff7)" style="fill: #4caf50"/>
   </g>
   <g id="patch_128">
    <path d="M 546.371549 302.365999 
L 550.790321 302.365999 
L 550.790321 229.228123 
L 546.371549 229.228123 
z
" clip-path="url(#paada11fff7)" style="fill: #4caf50"/>
   </g>
   <g id="patch_129">
    <path d="M 562.941943 302.365999 
L 567.360714 302.365999 
L 567.360714 247.512592 
L 562.941943 247.512592 
z
" clip-path="url(#paada11fff7)" style="fill: #4caf50"/>
   </g>
   <g id="patch_130">
    <path d="M 579.512336 302.365999 
L 583.931108 302.365999 
L 583.931108 338.934937 
L 579.512336 338.934937 
z
" clip-path="url(#paada11fff7)" style="fill: #4caf50"/>
   </g>
   <g id="patch_131">
    <path d="M 596.082729 302.365999 
L 600.501501 302.365999 
L 600.501501 265.797061 
L 596.082729 265.797061 
z
" clip-path="url(#paada11fff7)" style="fill: #4caf50"/>
   </g>
   <g id="patch_132">
    <path d="M 612.653123 302.365999 
L 617.071894 302.365999 
L 617.071894 229.228123 
L 612.653123 229.228123 
z
" clip-path="url(#paada11fff7)" style="fill: #4caf50"/>
   </g>
   <g id="patch_133">
    <path d="M 629.223516 302.365999 
L 633.642288 302.365999 
L 633.642288 247.512592 
L 629.223516 247.512592 
z
" clip-path="url(#paada11fff7)" style="fill: #4caf50"/>
   </g>
   <g id="patch_134">
    <path d="M 645.79391 302.365999 
L 650.212681 302.365999 
L 650.212681 247.512592 
L 645.79391 247.512592 
z
" clip-path="url(#paada11fff7)" style="fill: #4caf50"/>
   </g>
   <g id="patch_135">
    <path d="M 662.364303 302.365999 
L 666.783075 302.365999 
L 666.783075 302.365999 
L 662.364303 302.365999 
z
" clip-path="url(#paada11fff7)" style="fill: #4caf50"/>
   </g>
   <g id="patch_136">
    <path d="M 678.934696 302.365999 
L 683.353468 302.365999 
L 683.353468 284.08153 
L 678.934696 284.08153 
z
" clip-path="url(#paada11fff7)" style="fill: #4caf50"/>
   </g>
   <g id="patch_137">
    <path d="M 695.50509 302.365999 
L 699.923861 302.365999 
L 699.923861 284.08153 
L 695.50509 284.08153 
z
" clip-path="url(#paada11fff7)" style="fill: #4caf50"/>
   </g>
   <g id="patch_138">
    <path d="M 712.075483 302.365999 
L 716.494255 302.365999 
L 716.494255 284.08153 
L 712.075483 284.08153 
z
" clip-path="url(#paada11fff7)" style="fill: #4caf50"/>
   </g>
   <g id="patch_139">
    <path d="M 728.645876 302.365999 
L 733.064648 302.365999 
L 733.064648 247.512592 
L 728.645876 247.512592 
z
" clip-path="url(#paada11fff7)" style="fill: #4caf50"/>
   </g>
   <g id="patch_140">
    <path d="M 745.21627 302.365999 
L 749.635041 302.365999 
L 749.635041 210.943655 
L 745.21627 210.943655 
z
" clip-path="url(#paada11fff7)" style="fill: #4caf50"/>
   </g>
   <g id="patch_141">
    <path d="M 761.786663 302.365999 
L 766.205435 302.365999 
L 766.205435 284.08153 
L 761.786663 284.08153 
z
" clip-path="url(#paada11fff7)" style="fill: #4caf50"/>
   </g>
   <g id="patch_142">
    <path d="M 778.357057 302.365999 
L 782.775828 302.365999 
L 782.775828 265.797061 
L 778.357057 265.797061 
z
" clip-path="url(#paada11fff7)" style="fill: #4caf50"/>
   </g>
   <g id="patch_143">
    <path d="M 794.92745 302.365999 
L 799.346222 302.365999 
L 799.346222 357.219406 
L 794.92745 357.219406 
z
" clip-path="url(#paada11fff7)" style="fill: #4caf50"/>
   </g>
   <g id="patch_144">
    <path d="M 811.497843 302.365999 
L 815.916615 302.365999 
L 815.916615 284.08153 
L 811.497843 284.08153 
z
" clip-path="url(#paada11fff7)" style="fill: #4caf50"/>
   </g>
   <g id="patch_145">
    <path d="M 828.068237 302.365999 
L 832.487008 302.365999 
L 832.487008 302.365999 
L 828.068237 302.365999 
z
" clip-path="url(#paada11fff7)" style="fill: #4caf50"/>
   </g>
   <g id="patch_146">
    <path d="M 844.63863 302.365999 
L 849.057402 302.365999 
L 849.057402 338.934937 
L 844.63863 338.934937 
z
" clip-path="url(#paada11fff7)" style="fill: #4caf50"/>
   </g>
   <g id="matplotlib.axis_1">
    <g id="xtick_1">
     <g id="line2d_1">
      <defs>
       <path id="m7bf2a68918" d="M 0 0 
L 0 3.5 
" style="stroke: #000000; stroke-width: 0.8"/>
      </defs>
      <g>
       <use xlink:href="#m7bf2a68918" x="63.620756" y="455.955539" style="stroke: #000000; stroke-width: 0.8"/>
      </g>
     </g>
     <g id="text_1">
      <!-- 0 -->
      <g transform="translate(63.322445 472.827413) rotate(-45) scale(0.1 -0.1)">
       <defs>
        <path id="DejaVuSans-30" d="M 2034 4250 
Q 1547 4250 1301 3770 
Q 1056 3291 1056 2328 
Q 1056 1369 1301 889 
Q 1547 409 2034 409 
Q 2525 409 2770 889 
Q 3016 1369 3016 2328 
Q 3016 3291 2770 3770 
Q 2525 4250 2034 4250 
z
M 2034 4750 
Q 2819 4750 3233 4129 
Q 3647 3509 3647 2328 
Q 3647 1150 3233 529 
Q 2819 -91 2034 -91 
Q 1250 -91 836 529 
Q 422 1150 422 2328 
Q 422 3509 836 4129 
Q 1250 4750 2034 4750 
z
" transform="scale(0.015625)"/>
       </defs>
       <use xlink:href="#DejaVuSans-30"/>
      </g>
     </g>
    </g>
    <g id="xtick_2">
     <g id="line2d_2">
      <g>
       <use xlink:href="#m7bf2a68918" x="80.191149" y="455.955539" style="stroke: #000000; stroke-width: 0.8"/>
      </g>
     </g>
    </g>
    <g id="xtick_3">
     <g id="line2d_3">
      <g>
       <use xlink:href="#m7bf2a68918" x="96.761542" y="455.955539" style="stroke: #000000; stroke-width: 0.8"/>
      </g>
     </g>
    </g>
    <g id="xtick_4">
     <g id="line2d_4">
      <g>
       <use xlink:href="#m7bf2a68918" x="113.331936" y="455.955539" style="stroke: #000000; stroke-width: 0.8"/>
      </g>
     </g>
    </g>
    <g id="xtick_5">
     <g id="line2d_5">
      <g>
       <use xlink:href="#m7bf2a68918" x="129.902329" y="455.955539" style="stroke: #000000; stroke-width: 0.8"/>
      </g>
     </g>
    </g>
    <g id="xtick_6">
     <g id="line2d_6">
      <g>
       <use xlink:href="#m7bf2a68918" x="146.472723" y="455.955539" style="stroke: #000000; stroke-width: 0.8"/>
      </g>
     </g>
     <g id="text_2">
      <!-- 5 -->
      <g transform="translate(146.174412 472.827413) rotate(-45) scale(0.1 -0.1)">
       <defs>
        <path id="DejaVuSans-35" d="M 691 4666 
L 3169 4666 
L 3169 4134 
L 1269 4134 
L 1269 2991 
Q 1406 3038 1543 3061 
Q 1681 3084 1819 3084 
Q 2600 3084 3056 2656 
Q 3513 2228 3513 1497 
Q 3513 744 3044 326 
Q 2575 -91 1722 -91 
Q 1428 -91 1123 -41 
Q 819 9 494 109 
L 494 744 
Q 775 591 1075 516 
Q 1375 441 1709 441 
Q 2250 441 2565 725 
Q 2881 1009 2881 1497 
Q 2881 1984 2565 2268 
Q 2250 2553 1709 2553 
Q 1456 2553 1204 2497 
Q 953 2441 691 2322 
L 691 4666 
z
" transform="scale(0.015625)"/>
       </defs>
       <use xlink:href="#DejaVuSans-35"/>
      </g>
     </g>
    </g>
    <g id="xtick_7">
     <g id="line2d_7">
      <g>
       <use xlink:href="#m7bf2a68918" x="163.043116" y="455.955539" style="stroke: #000000; stroke-width: 0.8"/>
      </g>
     </g>
    </g>
    <g id="xtick_8">
     <g id="line2d_8">
      <g>
       <use xlink:href="#m7bf2a68918" x="179.613509" y="455.955539" style="stroke: #000000; stroke-width: 0.8"/>
      </g>
     </g>
    </g>
    <g id="xtick_9">
     <g id="line2d_9">
      <g>
       <use xlink:href="#m7bf2a68918" x="196.183903" y="455.955539" style="stroke: #000000; stroke-width: 0.8"/>
      </g>
     </g>
    </g>
    <g id="xtick_10">
     <g id="line2d_10">
      <g>
       <use xlink:href="#m7bf2a68918" x="212.754296" y="455.955539" style="stroke: #000000; stroke-width: 0.8"/>
      </g>
     </g>
    </g>
    <g id="xtick_11">
     <g id="line2d_11">
      <g>
       <use xlink:href="#m7bf2a68918" x="229.324689" y="455.955539" style="stroke: #000000; stroke-width: 0.8"/>
      </g>
     </g>
     <g id="text_3">
      <!-- 10 -->
      <g transform="translate(226.776895 477.326379) rotate(-45) scale(0.1 -0.1)">
       <defs>
        <path id="DejaVuSans-31" d="M 794 531 
L 1825 531 
L 1825 4091 
L 703 3866 
L 703 4441 
L 1819 4666 
L 2450 4666 
L 2450 531 
L 3481 531 
L 3481 0 
L 794 0 
L 794 531 
z
" transform="scale(0.015625)"/>
       </defs>
       <use xlink:href="#DejaVuSans-31"/>
       <use xlink:href="#DejaVuSans-30" transform="translate(63.623047 0)"/>
      </g>
     </g>
    </g>
    <g id="xtick_12">
     <g id="line2d_12">
      <g>
       <use xlink:href="#m7bf2a68918" x="245.895083" y="455.955539" style="stroke: #000000; stroke-width: 0.8"/>
      </g>
     </g>
     <g id="text_4">
      <!-- 11 -->
      <g transform="translate(243.347289 477.326379) rotate(-45) scale(0.1 -0.1)">
       <use xlink:href="#DejaVuSans-31"/>
       <use xlink:href="#DejaVuSans-31" transform="translate(63.623047 0)"/>
      </g>
     </g>
    </g>
    <g id="xtick_13">
     <g id="line2d_13">
      <g>
       <use xlink:href="#m7bf2a68918" x="262.465476" y="455.955539" style="stroke: #000000; stroke-width: 0.8"/>
      </g>
     </g>
    </g>
    <g id="xtick_14">
     <g id="line2d_14">
      <g>
       <use xlink:href="#m7bf2a68918" x="279.03587" y="455.955539" style="stroke: #000000; stroke-width: 0.8"/>
      </g>
     </g>
    </g>
    <g id="xtick_15">
     <g id="line2d_15">
      <g>
       <use xlink:href="#m7bf2a68918" x="295.606263" y="455.955539" style="stroke: #000000; stroke-width: 0.8"/>
      </g>
     </g>
    </g>
    <g id="xtick_16">
     <g id="line2d_16">
      <g>
       <use xlink:href="#m7bf2a68918" x="312.176656" y="455.955539" style="stroke: #000000; stroke-width: 0.8"/>
      </g>
     </g>
     <g id="text_5">
      <!-- 15 -->
      <g transform="translate(309.628862 477.326379) rotate(-45) scale(0.1 -0.1)">
       <use xlink:href="#DejaVuSans-31"/>
       <use xlink:href="#DejaVuSans-35" transform="translate(63.623047 0)"/>
      </g>
     </g>
    </g>
    <g id="xtick_17">
     <g id="line2d_17">
      <g>
       <use xlink:href="#m7bf2a68918" x="328.74705" y="455.955539" style="stroke: #000000; stroke-width: 0.8"/>
      </g>
     </g>
    </g>
    <g id="xtick_18">
     <g id="line2d_18">
      <g>
       <use xlink:href="#m7bf2a68918" x="345.317443" y="455.955539" style="stroke: #000000; stroke-width: 0.8"/>
      </g>
     </g>
    </g>
    <g id="xtick_19">
     <g id="line2d_19">
      <g>
       <use xlink:href="#m7bf2a68918" x="361.887836" y="455.955539" style="stroke: #000000; stroke-width: 0.8"/>
      </g>
     </g>
    </g>
    <g id="xtick_20">
     <g id="line2d_20">
      <g>
       <use xlink:href="#m7bf2a68918" x="378.45823" y="455.955539" style="stroke: #000000; stroke-width: 0.8"/>
      </g>
     </g>
    </g>
    <g id="xtick_21">
     <g id="line2d_21">
      <g>
       <use xlink:href="#m7bf2a68918" x="395.028623" y="455.955539" style="stroke: #000000; stroke-width: 0.8"/>
      </g>
     </g>
     <g id="text_6">
      <!-- 20 -->
      <g transform="translate(392.480829 477.326379) rotate(-45) scale(0.1 -0.1)">
       <defs>
        <path id="DejaVuSans-32" d="M 1228 531 
L 3431 531 
L 3431 0 
L 469 0 
L 469 531 
Q 828 903 1448 1529 
Q 2069 2156 2228 2338 
Q 2531 2678 2651 2914 
Q 2772 3150 2772 3378 
Q 2772 3750 2511 3984 
Q 2250 4219 1831 4219 
Q 1534 4219 1204 4116 
Q 875 4013 500 3803 
L 500 4441 
Q 881 4594 1212 4672 
Q 1544 4750 1819 4750 
Q 2544 4750 2975 4387 
Q 3406 4025 3406 3419 
Q 3406 3131 3298 2873 
Q 3191 2616 2906 2266 
Q 2828 2175 2409 1742 
Q 1991 1309 1228 531 
z
" transform="scale(0.015625)"/>
       </defs>
       <use xlink:href="#DejaVuSans-32"/>
       <use xlink:href="#DejaVuSans-30" transform="translate(63.623047 0)"/>
      </g>
     </g>
    </g>
    <g id="xtick_22">
     <g id="line2d_22">
      <g>
       <use xlink:href="#m7bf2a68918" x="411.599017" y="455.955539" style="stroke: #000000; stroke-width: 0.8"/>
      </g>
     </g>
    </g>
    <g id="xtick_23">
     <g id="line2d_23">
      <g>
       <use xlink:href="#m7bf2a68918" x="428.16941" y="455.955539" style="stroke: #000000; stroke-width: 0.8"/>
      </g>
     </g>
    </g>
    <g id="xtick_24">
     <g id="line2d_24">
      <g>
       <use xlink:href="#m7bf2a68918" x="444.739803" y="455.955539" style="stroke: #000000; stroke-width: 0.8"/>
      </g>
     </g>
     <g id="text_7">
      <!-- 23 -->
      <g transform="translate(442.192009 477.326379) rotate(-45) scale(0.1 -0.1)">
       <defs>
        <path id="DejaVuSans-33" d="M 2597 2516 
Q 3050 2419 3304 2112 
Q 3559 1806 3559 1356 
Q 3559 666 3084 287 
Q 2609 -91 1734 -91 
Q 1441 -91 1130 -33 
Q 819 25 488 141 
L 488 750 
Q 750 597 1062 519 
Q 1375 441 1716 441 
Q 2309 441 2620 675 
Q 2931 909 2931 1356 
Q 2931 1769 2642 2001 
Q 2353 2234 1838 2234 
L 1294 2234 
L 1294 2753 
L 1863 2753 
Q 2328 2753 2575 2939 
Q 2822 3125 2822 3475 
Q 2822 3834 2567 4026 
Q 2313 4219 1838 4219 
Q 1578 4219 1281 4162 
Q 984 4106 628 3988 
L 628 4550 
Q 988 4650 1302 4700 
Q 1616 4750 1894 4750 
Q 2613 4750 3031 4423 
Q 3450 4097 3450 3541 
Q 3450 3153 3228 2886 
Q 3006 2619 2597 2516 
z
" transform="scale(0.015625)"/>
       </defs>
       <use xlink:href="#DejaVuSans-32"/>
       <use xlink:href="#DejaVuSans-33" transform="translate(63.623047 0)"/>
      </g>
     </g>
    </g>
    <g id="xtick_25">
     <g id="line2d_25">
      <g>
       <use xlink:href="#m7bf2a68918" x="461.310197" y="455.955539" style="stroke: #000000; stroke-width: 0.8"/>
      </g>
     </g>
    </g>
    <g id="xtick_26">
     <g id="line2d_26">
      <g>
       <use xlink:href="#m7bf2a68918" x="477.88059" y="455.955539" style="stroke: #000000; stroke-width: 0.8"/>
      </g>
     </g>
     <g id="text_8">
      <!-- 25 -->
      <g transform="translate(475.332796 477.326379) rotate(-45) scale(0.1 -0.1)">
       <use xlink:href="#DejaVuSans-32"/>
       <use xlink:href="#DejaVuSans-35" transform="translate(63.623047 0)"/>
      </g>
     </g>
    </g>
    <g id="xtick_27">
     <g id="line2d_27">
      <g>
       <use xlink:href="#m7bf2a68918" x="494.450983" y="455.955539" style="stroke: #000000; stroke-width: 0.8"/>
      </g>
     </g>
    </g>
    <g id="xtick_28">
     <g id="line2d_28">
      <g>
       <use xlink:href="#m7bf2a68918" x="511.021377" y="455.955539" style="stroke: #000000; stroke-width: 0.8"/>
      </g>
     </g>
    </g>
    <g id="xtick_29">
     <g id="line2d_29">
      <g>
       <use xlink:href="#m7bf2a68918" x="527.59177" y="455.955539" style="stroke: #000000; stroke-width: 0.8"/>
      </g>
     </g>
    </g>
    <g id="xtick_30">
     <g id="line2d_30">
      <g>
       <use xlink:href="#m7bf2a68918" x="544.162164" y="455.955539" style="stroke: #000000; stroke-width: 0.8"/>
      </g>
     </g>
    </g>
    <g id="xtick_31">
     <g id="line2d_31">
      <g>
       <use xlink:href="#m7bf2a68918" x="560.732557" y="455.955539" style="stroke: #000000; stroke-width: 0.8"/>
      </g>
     </g>
     <g id="text_9">
      <!-- 30 -->
      <g transform="translate(558.184763 477.326379) rotate(-45) scale(0.1 -0.1)">
       <use xlink:href="#DejaVuSans-33"/>
       <use xlink:href="#DejaVuSans-30" transform="translate(63.623047 0)"/>
      </g>
     </g>
    </g>
    <g id="xtick_32">
     <g id="line2d_32">
      <g>
       <use xlink:href="#m7bf2a68918" x="577.30295" y="455.955539" style="stroke: #000000; stroke-width: 0.8"/>
      </g>
     </g>
    </g>
    <g id="xtick_33">
     <g id="line2d_33">
      <g>
       <use xlink:href="#m7bf2a68918" x="593.873344" y="455.955539" style="stroke: #000000; stroke-width: 0.8"/>
      </g>
     </g>
    </g>
    <g id="xtick_34">
     <g id="line2d_34">
      <g>
       <use xlink:href="#m7bf2a68918" x="610.443737" y="455.955539" style="stroke: #000000; stroke-width: 0.8"/>
      </g>
     </g>
    </g>
    <g id="xtick_35">
     <g id="line2d_35">
      <g>
       <use xlink:href="#m7bf2a68918" x="627.01413" y="455.955539" style="stroke: #000000; stroke-width: 0.8"/>
      </g>
     </g>
    </g>
    <g id="xtick_36">
     <g id="line2d_36">
      <g>
       <use xlink:href="#m7bf2a68918" x="643.584524" y="455.955539" style="stroke: #000000; stroke-width: 0.8"/>
      </g>
     </g>
     <g id="text_10">
      <!-- 35 -->
      <g transform="translate(641.03673 477.326379) rotate(-45) scale(0.1 -0.1)">
       <use xlink:href="#DejaVuSans-33"/>
       <use xlink:href="#DejaVuSans-35" transform="translate(63.623047 0)"/>
      </g>
     </g>
    </g>
    <g id="xtick_37">
     <g id="line2d_37">
      <g>
       <use xlink:href="#m7bf2a68918" x="660.154917" y="455.955539" style="stroke: #000000; stroke-width: 0.8"/>
      </g>
     </g>
    </g>
    <g id="xtick_38">
     <g id="line2d_38">
      <g>
       <use xlink:href="#m7bf2a68918" x="676.725311" y="455.955539" style="stroke: #000000; stroke-width: 0.8"/>
      </g>
     </g>
    </g>
    <g id="xtick_39">
     <g id="line2d_39">
      <g>
       <use xlink:href="#m7bf2a68918" x="693.295704" y="455.955539" style="stroke: #000000; stroke-width: 0.8"/>
      </g>
     </g>
    </g>
    <g id="xtick_40">
     <g id="line2d_40">
      <g>
       <use xlink:href="#m7bf2a68918" x="709.866097" y="455.955539" style="stroke: #000000; stroke-width: 0.8"/>
      </g>
     </g>
    </g>
    <g id="xtick_41">
     <g id="line2d_41">
      <g>
       <use xlink:href="#m7bf2a68918" x="726.436491" y="455.955539" style="stroke: #000000; stroke-width: 0.8"/>
      </g>
     </g>
     <g id="text_11">
      <!-- 40 -->
      <g transform="translate(723.888697 477.326379) rotate(-45) scale(0.1 -0.1)">
       <defs>
        <path id="DejaVuSans-34" d="M 2419 4116 
L 825 1625 
L 2419 1625 
L 2419 4116 
z
M 2253 4666 
L 3047 4666 
L 3047 1625 
L 3713 1625 
L 3713 1100 
L 3047 1100 
L 3047 0 
L 2419 0 
L 2419 1100 
L 313 1100 
L 313 1709 
L 2253 4666 
z
" transform="scale(0.015625)"/>
       </defs>
       <use xlink:href="#DejaVuSans-34"/>
       <use xlink:href="#DejaVuSans-30" transform="translate(63.623047 0)"/>
      </g>
     </g>
    </g>
    <g id="xtick_42">
     <g id="line2d_42">
      <g>
       <use xlink:href="#m7bf2a68918" x="743.006884" y="455.955539" style="stroke: #000000; stroke-width: 0.8"/>
      </g>
     </g>
    </g>
    <g id="xtick_43">
     <g id="line2d_43">
      <g>
       <use xlink:href="#m7bf2a68918" x="759.577277" y="455.955539" style="stroke: #000000; stroke-width: 0.8"/>
      </g>
     </g>
    </g>
    <g id="xtick_44">
     <g id="line2d_44">
      <g>
       <use xlink:href="#m7bf2a68918" x="776.147671" y="455.955539" style="stroke: #000000; stroke-width: 0.8"/>
      </g>
     </g>
    </g>
    <g id="xtick_45">
     <g id="line2d_45">
      <g>
       <use xlink:href="#m7bf2a68918" x="792.718064" y="455.955539" style="stroke: #000000; stroke-width: 0.8"/>
      </g>
     </g>
    </g>
    <g id="xtick_46">
     <g id="line2d_46">
      <g>
       <use xlink:href="#m7bf2a68918" x="809.288458" y="455.955539" style="stroke: #000000; stroke-width: 0.8"/>
      </g>
     </g>
     <g id="text_12">
      <!-- 45 -->
      <g transform="translate(806.740663 477.326379) rotate(-45) scale(0.1 -0.1)">
       <use xlink:href="#DejaVuSans-34"/>
       <use xlink:href="#DejaVuSans-35" transform="translate(63.623047 0)"/>
      </g>
     </g>
    </g>
    <g id="xtick_47">
     <g id="line2d_47">
      <g>
       <use xlink:href="#m7bf2a68918" x="825.858851" y="455.955539" style="stroke: #000000; stroke-width: 0.8"/>
      </g>
     </g>
    </g>
    <g id="xtick_48">
     <g id="line2d_48">
      <g>
       <use xlink:href="#m7bf2a68918" x="842.429244" y="455.955539" style="stroke: #000000; stroke-width: 0.8"/>
      </g>
     </g>
     <g id="text_13">
      <!-- 47 -->
      <g transform="translate(839.88145 477.326379) rotate(-45) scale(0.1 -0.1)">
       <defs>
        <path id="DejaVuSans-37" d="M 525 4666 
L 3525 4666 
L 3525 4397 
L 1831 0 
L 1172 0 
L 2766 4134 
L 525 4134 
L 525 4666 
z
" transform="scale(0.015625)"/>
       </defs>
       <use xlink:href="#DejaVuSans-34"/>
       <use xlink:href="#DejaVuSans-37" transform="translate(63.623047 0)"/>
      </g>
     </g>
    </g>
    <g id="text_14">
     <!-- Game Minute -->
     <g transform="translate(419.473438 490.395378) scale(0.1 -0.1)">
      <defs>
       <path id="DejaVuSans-47" d="M 3809 666 
L 3809 1919 
L 2778 1919 
L 2778 2438 
L 4434 2438 
L 4434 434 
Q 4069 175 3628 42 
Q 3188 -91 2688 -91 
Q 1594 -91 976 548 
Q 359 1188 359 2328 
Q 359 3472 976 4111 
Q 1594 4750 2688 4750 
Q 3144 4750 3555 4637 
Q 3966 4525 4313 4306 
L 4313 3634 
Q 3963 3931 3569 4081 
Q 3175 4231 2741 4231 
Q 1884 4231 1454 3753 
Q 1025 3275 1025 2328 
Q 1025 1384 1454 906 
Q 1884 428 2741 428 
Q 3075 428 3337 486 
Q 3600 544 3809 666 
z
" transform="scale(0.015625)"/>
       <path id="DejaVuSans-61" d="M 2194 1759 
Q 1497 1759 1228 1600 
Q 959 1441 959 1056 
Q 959 750 1161 570 
Q 1363 391 1709 391 
Q 2188 391 2477 730 
Q 2766 1069 2766 1631 
L 2766 1759 
L 2194 1759 
z
M 3341 1997 
L 3341 0 
L 2766 0 
L 2766 531 
Q 2569 213 2275 61 
Q 1981 -91 1556 -91 
Q 1019 -91 701 211 
Q 384 513 384 1019 
Q 384 1609 779 1909 
Q 1175 2209 1959 2209 
L 2766 2209 
L 2766 2266 
Q 2766 2663 2505 2880 
Q 2244 3097 1772 3097 
Q 1472 3097 1187 3025 
Q 903 2953 641 2809 
L 641 3341 
Q 956 3463 1253 3523 
Q 1550 3584 1831 3584 
Q 2591 3584 2966 3190 
Q 3341 2797 3341 1997 
z
" transform="scale(0.015625)"/>
       <path id="DejaVuSans-6d" d="M 3328 2828 
Q 3544 3216 3844 3400 
Q 4144 3584 4550 3584 
Q 5097 3584 5394 3201 
Q 5691 2819 5691 2113 
L 5691 0 
L 5113 0 
L 5113 2094 
Q 5113 2597 4934 2840 
Q 4756 3084 4391 3084 
Q 3944 3084 3684 2787 
Q 3425 2491 3425 1978 
L 3425 0 
L 2847 0 
L 2847 2094 
Q 2847 2600 2669 2842 
Q 2491 3084 2119 3084 
Q 1678 3084 1418 2786 
Q 1159 2488 1159 1978 
L 1159 0 
L 581 0 
L 581 3500 
L 1159 3500 
L 1159 2956 
Q 1356 3278 1631 3431 
Q 1906 3584 2284 3584 
Q 2666 3584 2933 3390 
Q 3200 3197 3328 2828 
z
" transform="scale(0.015625)"/>
       <path id="DejaVuSans-65" d="M 3597 1894 
L 3597 1613 
L 953 1613 
Q 991 1019 1311 708 
Q 1631 397 2203 397 
Q 2534 397 2845 478 
Q 3156 559 3463 722 
L 3463 178 
Q 3153 47 2828 -22 
Q 2503 -91 2169 -91 
Q 1331 -91 842 396 
Q 353 884 353 1716 
Q 353 2575 817 3079 
Q 1281 3584 2069 3584 
Q 2775 3584 3186 3129 
Q 3597 2675 3597 1894 
z
M 3022 2063 
Q 3016 2534 2758 2815 
Q 2500 3097 2075 3097 
Q 1594 3097 1305 2825 
Q 1016 2553 972 2059 
L 3022 2063 
z
" transform="scale(0.015625)"/>
       <path id="DejaVuSans-20" transform="scale(0.015625)"/>
       <path id="DejaVuSans-4d" d="M 628 4666 
L 1569 4666 
L 2759 1491 
L 3956 4666 
L 4897 4666 
L 4897 0 
L 4281 0 
L 4281 4097 
L 3078 897 
L 2444 897 
L 1241 4097 
L 1241 0 
L 628 0 
L 628 4666 
z
" transform="scale(0.015625)"/>
       <path id="DejaVuSans-69" d="M 603 3500 
L 1178 3500 
L 1178 0 
L 603 0 
L 603 3500 
z
M 603 4863 
L 1178 4863 
L 1178 4134 
L 603 4134 
L 603 4863 
z
" transform="scale(0.015625)"/>
       <path id="DejaVuSans-6e" d="M 3513 2113 
L 3513 0 
L 2938 0 
L 2938 2094 
Q 2938 2591 2744 2837 
Q 2550 3084 2163 3084 
Q 1697 3084 1428 2787 
Q 1159 2491 1159 1978 
L 1159 0 
L 581 0 
L 581 3500 
L 1159 3500 
L 1159 2956 
Q 1366 3272 1645 3428 
Q 1925 3584 2291 3584 
Q 2894 3584 3203 3211 
Q 3513 2838 3513 2113 
z
" transform="scale(0.015625)"/>
       <path id="DejaVuSans-75" d="M 544 1381 
L 544 3500 
L 1119 3500 
L 1119 1403 
Q 1119 906 1312 657 
Q 1506 409 1894 409 
Q 2359 409 2629 706 
Q 2900 1003 2900 1516 
L 2900 3500 
L 3475 3500 
L 3475 0 
L 2900 0 
L 2900 538 
Q 2691 219 2414 64 
Q 2138 -91 1772 -91 
Q 1169 -91 856 284 
Q 544 659 544 1381 
z
M 1991 3584 
L 1991 3584 
z
" transform="scale(0.015625)"/>
       <path id="DejaVuSans-74" d="M 1172 4494 
L 1172 3500 
L 2356 3500 
L 2356 3053 
L 1172 3053 
L 1172 1153 
Q 1172 725 1289 603 
Q 1406 481 1766 481 
L 2356 481 
L 2356 0 
L 1766 0 
Q 1100 0 847 248 
Q 594 497 594 1153 
L 594 3053 
L 172 3053 
L 172 3500 
L 594 3500 
L 594 4494 
L 1172 4494 
z
" transform="scale(0.015625)"/>
      </defs>
      <use xlink:href="#DejaVuSans-47"/>
      <use xlink:href="#DejaVuSans-61" transform="translate(77.490234 0)"/>
      <use xlink:href="#DejaVuSans-6d" transform="translate(138.769531 0)"/>
      <use xlink:href="#DejaVuSans-65" transform="translate(236.181641 0)"/>
      <use xlink:href="#DejaVuSans-20" transform="translate(297.705078 0)"/>
      <use xlink:href="#DejaVuSans-4d" transform="translate(329.492188 0)"/>
      <use xlink:href="#DejaVuSans-69" transform="translate(415.771484 0)"/>
      <use xlink:href="#DejaVuSans-6e" transform="translate(443.554688 0)"/>
      <use xlink:href="#DejaVuSans-75" transform="translate(506.933594 0)"/>
      <use xlink:href="#DejaVuSans-74" transform="translate(570.3125 0)"/>
      <use xlink:href="#DejaVuSans-65" transform="translate(609.521484 0)"/>
     </g>
    </g>
   </g>
   <g id="matplotlib.axis_2">
    <g id="ytick_1">
     <g id="line2d_49">
      <defs>
       <path id="m1e5541cb2b" d="M 0 0 
L -3.5 0 
" style="stroke: #000000; stroke-width: 0.8"/>
      </defs>
      <g>
       <use xlink:href="#m1e5541cb2b" x="52.85" y="424.262459" style="stroke: #000000; stroke-width: 0.8"/>
      </g>
     </g>
     <g id="text_15">
      <!-- 40 -->
      <g transform="translate(24.745313 428.061678) scale(0.1 -0.1)">
       <defs>
        <path id="DejaVuSans-2212" d="M 678 2272 
L 4684 2272 
L 4684 1741 
L 678 1741 
L 678 2272 
z
" transform="scale(0.015625)"/>
       </defs>
       <use xlink:href="#DejaVuSans-2212"/>
       <use xlink:href="#DejaVuSans-34" transform="translate(83.789062 0)"/>
       <use xlink:href="#DejaVuSans-30" transform="translate(147.412109 0)"/>
      </g>
     </g>
    </g>
    <g id="ytick_2">
     <g id="line2d_50">
      <g>
       <use xlink:href="#m1e5541cb2b" x="52.85" y="363.314229" style="stroke: #000000; stroke-width: 0.8"/>
      </g>
     </g>
     <g id="text_16">
      <!-- 20 -->
      <g transform="translate(24.745313 367.113448) scale(0.1 -0.1)">
       <use xlink:href="#DejaVuSans-2212"/>
       <use xlink:href="#DejaVuSans-32" transform="translate(83.789062 0)"/>
       <use xlink:href="#DejaVuSans-30" transform="translate(147.412109 0)"/>
      </g>
     </g>
    </g>
    <g id="ytick_3">
     <g id="line2d_51">
      <g>
       <use xlink:href="#m1e5541cb2b" x="52.85" y="302.365999" style="stroke: #000000; stroke-width: 0.8"/>
      </g>
     </g>
     <g id="text_17">
      <!-- 0 -->
      <g transform="translate(39.4875 306.165218) scale(0.1 -0.1)">
       <use xlink:href="#DejaVuSans-30"/>
      </g>
     </g>
    </g>
    <g id="ytick_4">
     <g id="line2d_52">
      <g>
       <use xlink:href="#m1e5541cb2b" x="52.85" y="241.417769" style="stroke: #000000; stroke-width: 0.8"/>
      </g>
     </g>
     <g id="text_18">
      <!-- 20 -->
      <g transform="translate(33.125 245.216988) scale(0.1 -0.1)">
       <use xlink:href="#DejaVuSans-32"/>
       <use xlink:href="#DejaVuSans-30" transform="translate(63.623047 0)"/>
      </g>
     </g>
    </g>
    <g id="ytick_5">
     <g id="line2d_53">
      <g>
       <use xlink:href="#m1e5541cb2b" x="52.85" y="180.46954" style="stroke: #000000; stroke-width: 0.8"/>
      </g>
     </g>
     <g id="text_19">
      <!-- 40 -->
      <g transform="translate(33.125 184.268758) scale(0.1 -0.1)">
       <use xlink:href="#DejaVuSans-34"/>
       <use xlink:href="#DejaVuSans-30" transform="translate(63.623047 0)"/>
      </g>
     </g>
    </g>
    <g id="ytick_6">
     <g id="line2d_54">
      <g>
       <use xlink:href="#m1e5541cb2b" x="52.85" y="119.52131" style="stroke: #000000; stroke-width: 0.8"/>
      </g>
     </g>
     <g id="text_20">
      <!-- 60 -->
      <g transform="translate(33.125 123.320528) scale(0.1 -0.1)">
       <defs>
        <path id="DejaVuSans-36" d="M 2113 2584 
Q 1688 2584 1439 2293 
Q 1191 2003 1191 1497 
Q 1191 994 1439 701 
Q 1688 409 2113 409 
Q 2538 409 2786 701 
Q 3034 994 3034 1497 
Q 3034 2003 2786 2293 
Q 2538 2584 2113 2584 
z
M 3366 4563 
L 3366 3988 
Q 3128 4100 2886 4159 
Q 2644 4219 2406 4219 
Q 1781 4219 1451 3797 
Q 1122 3375 1075 2522 
Q 1259 2794 1537 2939 
Q 1816 3084 2150 3084 
Q 2853 3084 3261 2657 
Q 3669 2231 3669 1497 
Q 3669 778 3244 343 
Q 2819 -91 2113 -91 
Q 1303 -91 875 529 
Q 447 1150 447 2328 
Q 447 3434 972 4092 
Q 1497 4750 2381 4750 
Q 2619 4750 2861 4703 
Q 3103 4656 3366 4563 
z
" transform="scale(0.015625)"/>
       </defs>
       <use xlink:href="#DejaVuSans-36"/>
       <use xlink:href="#DejaVuSans-30" transform="translate(63.623047 0)"/>
      </g>
     </g>
    </g>
    <g id="ytick_7">
     <g id="line2d_55">
      <g>
       <use xlink:href="#m1e5541cb2b" x="52.85" y="58.57308" style="stroke: #000000; stroke-width: 0.8"/>
      </g>
     </g>
     <g id="text_21">
      <!-- 80 -->
      <g transform="translate(33.125 62.372298) scale(0.1 -0.1)">
       <defs>
        <path id="DejaVuSans-38" d="M 2034 2216 
Q 1584 2216 1326 1975 
Q 1069 1734 1069 1313 
Q 1069 891 1326 650 
Q 1584 409 2034 409 
Q 2484 409 2743 651 
Q 3003 894 3003 1313 
Q 3003 1734 2745 1975 
Q 2488 2216 2034 2216 
z
M 1403 2484 
Q 997 2584 770 2862 
Q 544 3141 544 3541 
Q 544 4100 942 4425 
Q 1341 4750 2034 4750 
Q 2731 4750 3128 4425 
Q 3525 4100 3525 3541 
Q 3525 3141 3298 2862 
Q 3072 2584 2669 2484 
Q 3125 2378 3379 2068 
Q 3634 1759 3634 1313 
Q 3634 634 3220 271 
Q 2806 -91 2034 -91 
Q 1263 -91 848 271 
Q 434 634 434 1313 
Q 434 1759 690 2068 
Q 947 2378 1403 2484 
z
M 1172 3481 
Q 1172 3119 1398 2916 
Q 1625 2713 2034 2713 
Q 2441 2713 2670 2916 
Q 2900 3119 2900 3481 
Q 2900 3844 2670 4047 
Q 2441 4250 2034 4250 
Q 1625 4250 1398 4047 
Q 1172 3844 1172 3481 
z
" transform="scale(0.015625)"/>
       </defs>
       <use xlink:href="#DejaVuSans-38"/>
       <use xlink:href="#DejaVuSans-30" transform="translate(63.623047 0)"/>
      </g>
     </g>
    </g>
    <g id="text_22">
     <!-- Point Difference -->
     <g transform="translate(18.665625 281.267769) rotate(-90) scale(0.1 -0.1)">
      <defs>
       <path id="DejaVuSans-50" d="M 1259 4147 
L 1259 2394 
L 2053 2394 
Q 2494 2394 2734 2622 
Q 2975 2850 2975 3272 
Q 2975 3691 2734 3919 
Q 2494 4147 2053 4147 
L 1259 4147 
z
M 628 4666 
L 2053 4666 
Q 2838 4666 3239 4311 
Q 3641 3956 3641 3272 
Q 3641 2581 3239 2228 
Q 2838 1875 2053 1875 
L 1259 1875 
L 1259 0 
L 628 0 
L 628 4666 
z
" transform="scale(0.015625)"/>
       <path id="DejaVuSans-6f" d="M 1959 3097 
Q 1497 3097 1228 2736 
Q 959 2375 959 1747 
Q 959 1119 1226 758 
Q 1494 397 1959 397 
Q 2419 397 2687 759 
Q 2956 1122 2956 1747 
Q 2956 2369 2687 2733 
Q 2419 3097 1959 3097 
z
M 1959 3584 
Q 2709 3584 3137 3096 
Q 3566 2609 3566 1747 
Q 3566 888 3137 398 
Q 2709 -91 1959 -91 
Q 1206 -91 779 398 
Q 353 888 353 1747 
Q 353 2609 779 3096 
Q 1206 3584 1959 3584 
z
" transform="scale(0.015625)"/>
       <path id="DejaVuSans-44" d="M 1259 4147 
L 1259 519 
L 2022 519 
Q 2988 519 3436 956 
Q 3884 1394 3884 2338 
Q 3884 3275 3436 3711 
Q 2988 4147 2022 4147 
L 1259 4147 
z
M 628 4666 
L 1925 4666 
Q 3281 4666 3915 4102 
Q 4550 3538 4550 2338 
Q 4550 1131 3912 565 
Q 3275 0 1925 0 
L 628 0 
L 628 4666 
z
" transform="scale(0.015625)"/>
       <path id="DejaVuSans-66" d="M 2375 4863 
L 2375 4384 
L 1825 4384 
Q 1516 4384 1395 4259 
Q 1275 4134 1275 3809 
L 1275 3500 
L 2222 3500 
L 2222 3053 
L 1275 3053 
L 1275 0 
L 697 0 
L 697 3053 
L 147 3053 
L 147 3500 
L 697 3500 
L 697 3744 
Q 697 4328 969 4595 
Q 1241 4863 1831 4863 
L 2375 4863 
z
" transform="scale(0.015625)"/>
       <path id="DejaVuSans-72" d="M 2631 2963 
Q 2534 3019 2420 3045 
Q 2306 3072 2169 3072 
Q 1681 3072 1420 2755 
Q 1159 2438 1159 1844 
L 1159 0 
L 581 0 
L 581 3500 
L 1159 3500 
L 1159 2956 
Q 1341 3275 1631 3429 
Q 1922 3584 2338 3584 
Q 2397 3584 2469 3576 
Q 2541 3569 2628 3553 
L 2631 2963 
z
" transform="scale(0.015625)"/>
       <path id="DejaVuSans-63" d="M 3122 3366 
L 3122 2828 
Q 2878 2963 2633 3030 
Q 2388 3097 2138 3097 
Q 1578 3097 1268 2742 
Q 959 2388 959 1747 
Q 959 1106 1268 751 
Q 1578 397 2138 397 
Q 2388 397 2633 464 
Q 2878 531 3122 666 
L 3122 134 
Q 2881 22 2623 -34 
Q 2366 -91 2075 -91 
Q 1284 -91 818 406 
Q 353 903 353 1747 
Q 353 2603 823 3093 
Q 1294 3584 2113 3584 
Q 2378 3584 2631 3529 
Q 2884 3475 3122 3366 
z
" transform="scale(0.015625)"/>
      </defs>
      <use xlink:href="#DejaVuSans-50"/>
      <use xlink:href="#DejaVuSans-6f" transform="translate(56.677734 0)"/>
      <use xlink:href="#DejaVuSans-69" transform="translate(117.859375 0)"/>
      <use xlink:href="#DejaVuSans-6e" transform="translate(145.642578 0)"/>
      <use xlink:href="#DejaVuSans-74" transform="translate(209.021484 0)"/>
      <use xlink:href="#DejaVuSans-20" transform="translate(248.230469 0)"/>
      <use xlink:href="#DejaVuSans-44" transform="translate(280.017578 0)"/>
      <use xlink:href="#DejaVuSans-69" transform="translate(357.019531 0)"/>
      <use xlink:href="#DejaVuSans-66" transform="translate(384.802734 0)"/>
      <use xlink:href="#DejaVuSans-66" transform="translate(420.007812 0)"/>
      <use xlink:href="#DejaVuSans-65" transform="translate(455.212891 0)"/>
      <use xlink:href="#DejaVuSans-72" transform="translate(516.736328 0)"/>
      <use xlink:href="#DejaVuSans-65" transform="translate(555.599609 0)"/>
      <use xlink:href="#DejaVuSans-6e" transform="translate(617.123047 0)"/>
      <use xlink:href="#DejaVuSans-63" transform="translate(680.501953 0)"/>
      <use xlink:href="#DejaVuSans-65" transform="translate(735.482422 0)"/>
     </g>
    </g>
   </g>
   <g id="line2d_56">
    <path d="M 52.85 302.365999 
L 853.2 302.365999 
" clip-path="url(#paada11fff7)" style="fill: none; stroke: #808080; stroke-width: 0.8; stroke-linecap: square"/>
   </g>
   <g id="patch_147">
    <path d="M 52.85 455.955539 
L 52.85 26.88 
" style="fill: none; stroke: #000000; stroke-width: 0.8; stroke-linejoin: miter; stroke-linecap: square"/>
   </g>
   <g id="patch_148">
    <path d="M 853.2 455.955539 
L 853.2 26.88 
" style="fill: none; stroke: #000000; stroke-width: 0.8; stroke-linejoin: miter; stroke-linecap: square"/>
   </g>
   <g id="patch_149">
    <path d="M 52.85 455.955539 
L 853.2 455.955539 
" style="fill: none; stroke: #000000; stroke-width: 0.8; stroke-linejoin: miter; stroke-linecap: square"/>
   </g>
   <g id="patch_150">
    <path d="M 52.85 26.88 
L 853.2 26.88 
" style="fill: none; stroke: #000000; stroke-width: 0.8; stroke-linejoin: miter; stroke-linecap: square"/>
   </g>
   <g id="text_23">
    <!-- Nikola Jokic Point Difference (24-25 vs 23-24) -->
    <g transform="translate(317.133438 20.88) scale(0.12 -0.12)">
     <defs>
      <path id="DejaVuSans-4e" d="M 628 4666 
L 1478 4666 
L 3547 763 
L 3547 4666 
L 4159 4666 
L 4159 0 
L 3309 0 
L 1241 3903 
L 1241 0 
L 628 0 
L 628 4666 
z
" transform="scale(0.015625)"/>
      <path id="DejaVuSans-6b" d="M 581 4863 
L 1159 4863 
L 1159 1991 
L 2875 3500 
L 3609 3500 
L 1753 1863 
L 3688 0 
L 2938 0 
L 1159 1709 
L 1159 0 
L 581 0 
L 581 4863 
z
" transform="scale(0.015625)"/>
      <path id="DejaVuSans-6c" d="M 603 4863 
L 1178 4863 
L 1178 0 
L 603 0 
L 603 4863 
z
" transform="scale(0.015625)"/>
      <path id="DejaVuSans-4a" d="M 628 4666 
L 1259 4666 
L 1259 325 
Q 1259 -519 939 -900 
Q 619 -1281 -91 -1281 
L -331 -1281 
L -331 -750 
L -134 -750 
Q 284 -750 456 -515 
Q 628 -281 628 325 
L 628 4666 
z
" transform="scale(0.015625)"/>
      <path id="DejaVuSans-28" d="M 1984 4856 
Q 1566 4138 1362 3434 
Q 1159 2731 1159 2009 
Q 1159 1288 1364 580 
Q 1569 -128 1984 -844 
L 1484 -844 
Q 1016 -109 783 600 
Q 550 1309 550 2009 
Q 550 2706 781 3412 
Q 1013 4119 1484 4856 
L 1984 4856 
z
" transform="scale(0.015625)"/>
      <path id="DejaVuSans-2d" d="M 313 2009 
L 1997 2009 
L 1997 1497 
L 313 1497 
L 313 2009 
z
" transform="scale(0.015625)"/>
      <path id="DejaVuSans-76" d="M 191 3500 
L 800 3500 
L 1894 563 
L 2988 3500 
L 3597 3500 
L 2284 0 
L 1503 0 
L 191 3500 
z
" transform="scale(0.015625)"/>
      <path id="DejaVuSans-73" d="M 2834 3397 
L 2834 2853 
Q 2591 2978 2328 3040 
Q 2066 3103 1784 3103 
Q 1356 3103 1142 2972 
Q 928 2841 928 2578 
Q 928 2378 1081 2264 
Q 1234 2150 1697 2047 
L 1894 2003 
Q 2506 1872 2764 1633 
Q 3022 1394 3022 966 
Q 3022 478 2636 193 
Q 2250 -91 1575 -91 
Q 1294 -91 989 -36 
Q 684 19 347 128 
L 347 722 
Q 666 556 975 473 
Q 1284 391 1588 391 
Q 1994 391 2212 530 
Q 2431 669 2431 922 
Q 2431 1156 2273 1281 
Q 2116 1406 1581 1522 
L 1381 1569 
Q 847 1681 609 1914 
Q 372 2147 372 2553 
Q 372 3047 722 3315 
Q 1072 3584 1716 3584 
Q 2034 3584 2315 3537 
Q 2597 3491 2834 3397 
z
" transform="scale(0.015625)"/>
      <path id="DejaVuSans-29" d="M 513 4856 
L 1013 4856 
Q 1481 4119 1714 3412 
Q 1947 2706 1947 2009 
Q 1947 1309 1714 600 
Q 1481 -109 1013 -844 
L 513 -844 
Q 928 -128 1133 580 
Q 1338 1288 1338 2009 
Q 1338 2731 1133 3434 
Q 928 4138 513 4856 
z
" transform="scale(0.015625)"/>
     </defs>
     <use xlink:href="#DejaVuSans-4e"/>
     <use xlink:href="#DejaVuSans-69" transform="translate(74.804688 0)"/>
     <use xlink:href="#DejaVuSans-6b" transform="translate(102.587891 0)"/>
     <use xlink:href="#DejaVuSans-6f" transform="translate(156.873047 0)"/>
     <use xlink:href="#DejaVuSans-6c" transform="translate(218.054688 0)"/>
     <use xlink:href="#DejaVuSans-61" transform="translate(245.837891 0)"/>
     <use xlink:href="#DejaVuSans-20" transform="translate(307.117188 0)"/>
     <use xlink:href="#DejaVuSans-4a" transform="translate(338.904297 0)"/>
     <use xlink:href="#DejaVuSans-6f" transform="translate(368.396484 0)"/>
     <use xlink:href="#DejaVuSans-6b" transform="translate(429.578125 0)"/>
     <use xlink:href="#DejaVuSans-69" transform="translate(487.488281 0)"/>
     <use xlink:href="#DejaVuSans-63" transform="translate(515.271484 0)"/>
     <use xlink:href="#DejaVuSans-20" transform="translate(570.251953 0)"/>
     <use xlink:href="#DejaVuSans-50" transform="translate(602.039062 0)"/>
     <use xlink:href="#DejaVuSans-6f" transform="translate(658.716797 0)"/>
     <use xlink:href="#DejaVuSans-69" transform="translate(719.898438 0)"/>
     <use xlink:href="#DejaVuSans-6e" transform="translate(747.681641 0)"/>
     <use xlink:href="#DejaVuSans-74" transform="translate(811.060547 0)"/>
     <use xlink:href="#DejaVuSans-20" transform="translate(850.269531 0)"/>
     <use xlink:href="#DejaVuSans-44" transform="translate(882.056641 0)"/>
     <use xlink:href="#DejaVuSans-69" transform="translate(959.058594 0)"/>
     <use xlink:href="#DejaVuSans-66" transform="translate(986.841797 0)"/>
     <use xlink:href="#DejaVuSans-66" transform="translate(1022.046875 0)"/>
     <use xlink:href="#DejaVuSans-65" transform="translate(1057.251953 0)"/>
     <use xlink:href="#DejaVuSans-72" transform="translate(1118.775391 0)"/>
     <use xlink:href="#DejaVuSans-65" transform="translate(1157.638672 0)"/>
     <use xlink:href="#DejaVuSans-6e" transform="translate(1219.162109 0)"/>
     <use xlink:href="#DejaVuSans-63" transform="translate(1282.541016 0)"/>
     <use xlink:href="#DejaVuSans-65" transform="translate(1337.521484 0)"/>
     <use xlink:href="#DejaVuSans-20" transform="translate(1399.044922 0)"/>
     <use xlink:href="#DejaVuSans-28" transform="translate(1430.832031 0)"/>
     <use xlink:href="#DejaVuSans-32" transform="translate(1469.845703 0)"/>
     <use xlink:href="#DejaVuSans-34" transform="translate(1533.46875 0)"/>
     <use xlink:href="#DejaVuSans-2d" transform="translate(1597.091797 0)"/>
     <use xlink:href="#DejaVuSans-32" transform="translate(1633.175781 0)"/>
     <use xlink:href="#DejaVuSans-35" transform="translate(1696.798828 0)"/>
     <use xlink:href="#DejaVuSans-20" transform="translate(1760.421875 0)"/>
     <use xlink:href="#DejaVuSans-76" transform="translate(1792.208984 0)"/>
     <use xlink:href="#DejaVuSans-73" transform="translate(1851.388672 0)"/>
     <use xlink:href="#DejaVuSans-20" transform="translate(1903.488281 0)"/>
     <use xlink:href="#DejaVuSans-32" transform="translate(1935.275391 0)"/>
     <use xlink:href="#DejaVuSans-33" transform="translate(1998.898438 0)"/>
     <use xlink:href="#DejaVuSans-2d" transform="translate(2062.521484 0)"/>
     <use xlink:href="#DejaVuSans-32" transform="translate(2098.605469 0)"/>
     <use xlink:href="#DejaVuSans-34" transform="translate(2162.228516 0)"/>
     <use xlink:href="#DejaVuSans-29" transform="translate(2225.851562 0)"/>
    </g>
   </g>
   <g id="legend_1">
    <g id="patch_151">
     <path d="M 793.33125 93.5925 
L 846.2 93.5925 
Q 848.2 93.5925 848.2 91.5925 
L 848.2 33.88 
Q 848.2 31.88 846.2 31.88 
L 793.33125 31.88 
Q 791.33125 31.88 791.33125 33.88 
L 791.33125 91.5925 
Q 791.33125 93.5925 793.33125 93.5925 
z
" style="fill: #ffffff; opacity: 0.8; stroke: #cccccc; stroke-linejoin: miter"/>
    </g>
    <g id="text_24">
     <!-- Shot Type -->
     <g transform="translate(795.33125 43.478437) scale(0.1 -0.1)">
      <defs>
       <path id="DejaVuSans-53" d="M 3425 4513 
L 3425 3897 
Q 3066 4069 2747 4153 
Q 2428 4238 2131 4238 
Q 1616 4238 1336 4038 
Q 1056 3838 1056 3469 
Q 1056 3159 1242 3001 
Q 1428 2844 1947 2747 
L 2328 2669 
Q 3034 2534 3370 2195 
Q 3706 1856 3706 1288 
Q 3706 609 3251 259 
Q 2797 -91 1919 -91 
Q 1588 -91 1214 -16 
Q 841 59 441 206 
L 441 856 
Q 825 641 1194 531 
Q 1563 422 1919 422 
Q 2459 422 2753 634 
Q 3047 847 3047 1241 
Q 3047 1584 2836 1778 
Q 2625 1972 2144 2069 
L 1759 2144 
Q 1053 2284 737 2584 
Q 422 2884 422 3419 
Q 422 4038 858 4394 
Q 1294 4750 2059 4750 
Q 2388 4750 2728 4690 
Q 3069 4631 3425 4513 
z
" transform="scale(0.015625)"/>
       <path id="DejaVuSans-68" d="M 3513 2113 
L 3513 0 
L 2938 0 
L 2938 2094 
Q 2938 2591 2744 2837 
Q 2550 3084 2163 3084 
Q 1697 3084 1428 2787 
Q 1159 2491 1159 1978 
L 1159 0 
L 581 0 
L 581 4863 
L 1159 4863 
L 1159 2956 
Q 1366 3272 1645 3428 
Q 1925 3584 2291 3584 
Q 2894 3584 3203 3211 
Q 3513 2838 3513 2113 
z
" transform="scale(0.015625)"/>
       <path id="DejaVuSans-54" d="M -19 4666 
L 3928 4666 
L 3928 4134 
L 2272 4134 
L 2272 0 
L 1638 0 
L 1638 4134 
L -19 4134 
L -19 4666 
z
" transform="scale(0.015625)"/>
       <path id="DejaVuSans-79" d="M 2059 -325 
Q 1816 -950 1584 -1140 
Q 1353 -1331 966 -1331 
L 506 -1331 
L 506 -850 
L 844 -850 
Q 1081 -850 1212 -737 
Q 1344 -625 1503 -206 
L 1606 56 
L 191 3500 
L 800 3500 
L 1894 763 
L 2988 3500 
L 3597 3500 
L 2059 -325 
z
" transform="scale(0.015625)"/>
       <path id="DejaVuSans-70" d="M 1159 525 
L 1159 -1331 
L 581 -1331 
L 581 3500 
L 1159 3500 
L 1159 2969 
Q 1341 3281 1617 3432 
Q 1894 3584 2278 3584 
Q 2916 3584 3314 3078 
Q 3713 2572 3713 1747 
Q 3713 922 3314 415 
Q 2916 -91 2278 -91 
Q 1894 -91 1617 61 
Q 1341 213 1159 525 
z
M 3116 1747 
Q 3116 2381 2855 2742 
Q 2594 3103 2138 3103 
Q 1681 3103 1420 2742 
Q 1159 2381 1159 1747 
Q 1159 1113 1420 752 
Q 1681 391 2138 391 
Q 2594 391 2855 752 
Q 3116 1113 3116 1747 
z
" transform="scale(0.015625)"/>
      </defs>
      <use xlink:href="#DejaVuSans-53"/>
      <use xlink:href="#DejaVuSans-68" transform="translate(63.476562 0)"/>
      <use xlink:href="#DejaVuSans-6f" transform="translate(126.855469 0)"/>
      <use xlink:href="#DejaVuSans-74" transform="translate(188.037109 0)"/>
      <use xlink:href="#DejaVuSans-20" transform="translate(227.246094 0)"/>
      <use xlink:href="#DejaVuSans-54" transform="translate(259.033203 0)"/>
      <use xlink:href="#DejaVuSans-79" transform="translate(304.492188 0)"/>
      <use xlink:href="#DejaVuSans-70" transform="translate(363.671875 0)"/>
      <use xlink:href="#DejaVuSans-65" transform="translate(427.148438 0)"/>
     </g>
    </g>
    <g id="patch_152">
     <path d="M 796.515625 58.156563 
L 816.515625 58.156563 
L 816.515625 51.156563 
L 796.515625 51.156563 
z
" style="fill: #ffc107"/>
    </g>
    <g id="text_25">
     <!-- FT -->
     <g transform="translate(824.515625 58.156563) scale(0.1 -0.1)">
      <defs>
       <path id="DejaVuSans-46" d="M 628 4666 
L 3309 4666 
L 3309 4134 
L 1259 4134 
L 1259 2759 
L 3109 2759 
L 3109 2228 
L 1259 2228 
L 1259 0 
L 628 0 
L 628 4666 
z
" transform="scale(0.015625)"/>
      </defs>
      <use xlink:href="#DejaVuSans-46"/>
      <use xlink:href="#DejaVuSans-54" transform="translate(55.769531 0)"/>
     </g>
    </g>
    <g id="patch_153">
     <path d="M 796.515625 72.834688 
L 816.515625 72.834688 
L 816.515625 65.834688 
L 796.515625 65.834688 
z
" style="fill: #2196f3"/>
    </g>
    <g id="text_26">
     <!-- 2PT -->
     <g transform="translate(824.515625 72.834688) scale(0.1 -0.1)">
      <use xlink:href="#DejaVuSans-32"/>
      <use xlink:href="#DejaVuSans-50" transform="translate(63.623047 0)"/>
      <use xlink:href="#DejaVuSans-54" transform="translate(123.925781 0)"/>
     </g>
    </g>
    <g id="patch_154">
     <path d="M 796.515625 87.512812 
L 816.515625 87.512812 
L 816.515625 80.512812 
L 796.515625 80.512812 
z
" style="fill: #4caf50"/>
    </g>
    <g id="text_27">
     <!-- 3PT -->
     <g transform="translate(824.515625 87.512812) scale(0.1 -0.1)">
      <use xlink:href="#DejaVuSans-33"/>
      <use xlink:href="#DejaVuSans-50" transform="translate(63.623047 0)"/>
      <use xlink:href="#DejaVuSans-54" transform="translate(123.925781 0)"/>
     </g>
    </g>
   </g>
  </g>
 </g>
 <defs>
  <clipPath id="paada11fff7">
   <rect x="52.85" y="26.88" width="800.35" height="429.075539"/>
  </clipPath>
 </defs>
</svg>
