<?xml version="1.0" encoding="utf-8" standalone="no"?>
<!DOCTYPE svg PUBLIC "-//W3C//DTD SVG 1.1//EN"
  "http://www.w3.org/Graphics/SVG/1.1/DTD/svg11.dtd">
<svg xmlns:xlink="http://www.w3.org/1999/xlink" width="864pt" height="504pt" viewBox="0 0 864 504" xmlns="http://www.w3.org/2000/svg" version="1.1">
 <metadata>
  <rdf:RDF xmlns:dc="http://purl.org/dc/elements/1.1/" xmlns:cc="http://creativecommons.org/ns#" xmlns:rdf="http://www.w3.org/1999/02/22-rdf-syntax-ns#">
   <cc:Work>
    <dc:type rdf:resource="http://purl.org/dc/dcmitype/StillImage"/>
    <dc:date>2025-08-24T04:35:27.737988</dc:date>
    <dc:format>image/svg+xml</dc:format>
    <dc:creator>
     <cc:Agent>
      <dc:title>Matplotlib v3.10.5, https://matplotlib.org/</dc:title>
     </cc:Agent>
    </dc:creator>
   </cc:Work>
  </rdf:RDF>
 </metadata>
 <defs>
  <style type="text/css">*{stroke-linejoin: round; stroke-linecap: butt}</style>
 </defs>
 <g id="figure_1">
  <g id="patch_1">
   <path d="M 0 504 
L 864 504 
L 864 0 
L 0 0 
z
" style="fill: #ffffff"/>
  </g>
  <g id="axes_1">
   <g id="patch_2">
    <path d="M 44.57 455.955539 
L 853.2 455.955539 
L 853.2 26.88 
L 44.57 26.88 
z
" style="fill: #ffffff"/>
   </g>
   <g id="patch_3">
    <path d="M 48.936253 455.955539 
L 62.908261 455.955539 
L 62.908261 447.260999 
L 48.936253 447.260999 
z
" clip-path="url(#p5c866591d3)" style="fill: #ffc107"/>
   </g>
   <g id="patch_4">
    <path d="M 66.401263 455.955539 
L 80.373272 455.955539 
L 80.373272 438.566459 
L 66.401263 438.566459 
z
" clip-path="url(#p5c866591d3)" style="fill: #ffc107"/>
   </g>
   <g id="patch_5">
    <path d="M 83.866274 455.955539 
L 97.838283 455.955539 
L 97.838283 438.566459 
L 83.866274 438.566459 
z
" clip-path="url(#p5c866591d3)" style="fill: #ffc107"/>
   </g>
   <g id="patch_6">
    <path d="M 101.331285 455.955539 
L 115.303294 455.955539 
L 115.303294 455.955539 
L 101.331285 455.955539 
z
" clip-path="url(#p5c866591d3)" style="fill: #ffc107"/>
   </g>
   <g id="patch_7">
    <path d="M 118.796296 455.955539 
L 132.768305 455.955539 
L 132.768305 455.955539 
L 118.796296 455.955539 
z
" clip-path="url(#p5c866591d3)" style="fill: #ffc107"/>
   </g>
   <g id="patch_8">
    <path d="M 136.261307 455.955539 
L 150.233315 455.955539 
L 150.233315 447.260999 
L 136.261307 447.260999 
z
" clip-path="url(#p5c866591d3)" style="fill: #ffc107"/>
   </g>
   <g id="patch_9">
    <path d="M 153.726317 455.955539 
L 167.698326 455.955539 
L 167.698326 438.566459 
L 153.726317 438.566459 
z
" clip-path="url(#p5c866591d3)" style="fill: #ffc107"/>
   </g>
   <g id="patch_10">
    <path d="M 171.191328 455.955539 
L 185.163337 455.955539 
L 185.163337 455.955539 
L 171.191328 455.955539 
z
" clip-path="url(#p5c866591d3)" style="fill: #ffc107"/>
   </g>
   <g id="patch_11">
    <path d="M 188.656339 455.955539 
L 202.628348 455.955539 
L 202.628348 412.48284 
L 188.656339 412.48284 
z
" clip-path="url(#p5c866591d3)" style="fill: #ffc107"/>
   </g>
   <g id="patch_12">
    <path d="M 206.12135 455.955539 
L 220.093359 455.955539 
L 220.093359 412.48284 
L 206.12135 412.48284 
z
" clip-path="url(#p5c866591d3)" style="fill: #ffc107"/>
   </g>
   <g id="patch_13">
    <path d="M 223.586361 455.955539 
L 237.558369 455.955539 
L 237.558369 395.09376 
L 223.586361 395.09376 
z
" clip-path="url(#p5c866591d3)" style="fill: #ffc107"/>
   </g>
   <g id="patch_14">
    <path d="M 241.051371 455.955539 
L 255.02338 455.955539 
L 255.02338 429.87192 
L 241.051371 429.87192 
z
" clip-path="url(#p5c866591d3)" style="fill: #ffc107"/>
   </g>
   <g id="patch_15">
    <path d="M 258.516382 455.955539 
L 272.488391 455.955539 
L 272.488391 438.566459 
L 258.516382 438.566459 
z
" clip-path="url(#p5c866591d3)" style="fill: #ffc107"/>
   </g>
   <g id="patch_16">
    <path d="M 275.981393 455.955539 
L 289.953402 455.955539 
L 289.953402 455.955539 
L 275.981393 455.955539 
z
" clip-path="url(#p5c866591d3)" style="fill: #ffc107"/>
   </g>
   <g id="patch_17">
    <path d="M 293.446404 455.955539 
L 307.418413 455.955539 
L 307.418413 421.17738 
L 293.446404 421.17738 
z
" clip-path="url(#p5c866591d3)" style="fill: #ffc107"/>
   </g>
   <g id="patch_18">
    <path d="M 310.911415 455.955539 
L 324.883423 455.955539 
L 324.883423 455.955539 
L 310.911415 455.955539 
z
" clip-path="url(#p5c866591d3)" style="fill: #ffc107"/>
   </g>
   <g id="patch_19">
    <path d="M 328.376425 455.955539 
L 342.348434 455.955539 
L 342.348434 455.955539 
L 328.376425 455.955539 
z
" clip-path="url(#p5c866591d3)" style="fill: #ffc107"/>
   </g>
   <g id="patch_20">
    <path d="M 345.841436 455.955539 
L 359.813445 455.955539 
L 359.813445 429.87192 
L 345.841436 429.87192 
z
" clip-path="url(#p5c866591d3)" style="fill: #ffc107"/>
   </g>
   <g id="patch_21">
    <path d="M 363.306447 455.955539 
L 377.278456 455.955539 
L 377.278456 421.17738 
L 363.306447 421.17738 
z
" clip-path="url(#p5c866591d3)" style="fill: #ffc107"/>
   </g>
   <g id="patch_22">
    <path d="M 380.771458 455.955539 
L 394.743467 455.955539 
L 394.743467 455.955539 
L 380.771458 455.955539 
z
" clip-path="url(#p5c866591d3)" style="fill: #ffc107"/>
   </g>
   <g id="patch_23">
    <path d="M 398.236469 455.955539 
L 412.208477 455.955539 
L 412.208477 438.566459 
L 398.236469 438.566459 
z
" clip-path="url(#p5c866591d3)" style="fill: #ffc107"/>
   </g>
   <g id="patch_24">
    <path d="M 415.701479 455.955539 
L 429.673488 455.955539 
L 429.673488 455.955539 
L 415.701479 455.955539 
z
" clip-path="url(#p5c866591d3)" style="fill: #ffc107"/>
   </g>
   <g id="patch_25">
    <path d="M 433.16649 455.955539 
L 447.138499 455.955539 
L 447.138499 447.260999 
L 433.16649 447.260999 
z
" clip-path="url(#p5c866591d3)" style="fill: #ffc107"/>
   </g>
   <g id="patch_26">
    <path d="M 450.631501 455.955539 
L 464.60351 455.955539 
L 464.60351 455.955539 
L 450.631501 455.955539 
z
" clip-path="url(#p5c866591d3)" style="fill: #ffc107"/>
   </g>
   <g id="patch_27">
    <path d="M 468.096512 455.955539 
L 482.068521 455.955539 
L 482.068521 438.566459 
L 468.096512 438.566459 
z
" clip-path="url(#p5c866591d3)" style="fill: #ffc107"/>
   </g>
   <g id="patch_28">
    <path d="M 485.561523 455.955539 
L 499.533531 455.955539 
L 499.533531 455.955539 
L 485.561523 455.955539 
z
" clip-path="url(#p5c866591d3)" style="fill: #ffc107"/>
   </g>
   <g id="patch_29">
    <path d="M 503.026533 455.955539 
L 516.998542 455.955539 
L 516.998542 455.955539 
L 503.026533 455.955539 
z
" clip-path="url(#p5c866591d3)" style="fill: #ffc107"/>
   </g>
   <g id="patch_30">
    <path d="M 520.491544 455.955539 
L 534.463553 455.955539 
L 534.463553 412.48284 
L 520.491544 412.48284 
z
" clip-path="url(#p5c866591d3)" style="fill: #ffc107"/>
   </g>
   <g id="patch_31">
    <path d="M 537.956555 455.955539 
L 551.928564 455.955539 
L 551.928564 455.955539 
L 537.956555 455.955539 
z
" clip-path="url(#p5c866591d3)" style="fill: #ffc107"/>
   </g>
   <g id="patch_32">
    <path d="M 555.421566 455.955539 
L 569.393575 455.955539 
L 569.393575 455.955539 
L 555.421566 455.955539 
z
" clip-path="url(#p5c866591d3)" style="fill: #ffc107"/>
   </g>
   <g id="patch_33">
    <path d="M 572.886577 455.955539 
L 586.858585 455.955539 
L 586.858585 429.87192 
L 572.886577 429.87192 
z
" clip-path="url(#p5c866591d3)" style="fill: #ffc107"/>
   </g>
   <g id="patch_34">
    <path d="M 590.351587 455.955539 
L 604.323596 455.955539 
L 604.323596 438.566459 
L 590.351587 438.566459 
z
" clip-path="url(#p5c866591d3)" style="fill: #ffc107"/>
   </g>
   <g id="patch_35">
    <path d="M 607.816598 455.955539 
L 621.788607 455.955539 
L 621.788607 386.399221 
L 607.816598 386.399221 
z
" clip-path="url(#p5c866591d3)" style="fill: #ffc107"/>
   </g>
   <g id="patch_36">
    <path d="M 625.281609 455.955539 
L 639.253618 455.955539 
L 639.253618 360.315601 
L 625.281609 360.315601 
z
" clip-path="url(#p5c866591d3)" style="fill: #ffc107"/>
   </g>
   <g id="patch_37">
    <path d="M 642.74662 455.955539 
L 656.718629 455.955539 
L 656.718629 447.260999 
L 642.74662 447.260999 
z
" clip-path="url(#p5c866591d3)" style="fill: #ffc107"/>
   </g>
   <g id="patch_38">
    <path d="M 660.211631 455.955539 
L 674.183639 455.955539 
L 674.183639 429.87192 
L 660.211631 429.87192 
z
" clip-path="url(#p5c866591d3)" style="fill: #ffc107"/>
   </g>
   <g id="patch_39">
    <path d="M 677.676641 455.955539 
L 691.64865 455.955539 
L 691.64865 447.260999 
L 677.676641 447.260999 
z
" clip-path="url(#p5c866591d3)" style="fill: #ffc107"/>
   </g>
   <g id="patch_40">
    <path d="M 695.141652 455.955539 
L 709.113661 455.955539 
L 709.113661 438.566459 
L 695.141652 438.566459 
z
" clip-path="url(#p5c866591d3)" style="fill: #ffc107"/>
   </g>
   <g id="patch_41">
    <path d="M 712.606663 455.955539 
L 726.578672 455.955539 
L 726.578672 455.955539 
L 712.606663 455.955539 
z
" clip-path="url(#p5c866591d3)" style="fill: #ffc107"/>
   </g>
   <g id="patch_42">
    <path d="M 730.071674 455.955539 
L 744.043683 455.955539 
L 744.043683 455.955539 
L 730.071674 455.955539 
z
" clip-path="url(#p5c866591d3)" style="fill: #ffc107"/>
   </g>
   <g id="patch_43">
    <path d="M 747.536685 455.955539 
L 761.508693 455.955539 
L 761.508693 455.955539 
L 747.536685 455.955539 
z
" clip-path="url(#p5c866591d3)" style="fill: #ffc107"/>
   </g>
   <g id="patch_44">
    <path d="M 765.001695 455.955539 
L 778.973704 455.955539 
L 778.973704 455.955539 
L 765.001695 455.955539 
z
" clip-path="url(#p5c866591d3)" style="fill: #ffc107"/>
   </g>
   <g id="patch_45">
    <path d="M 782.466706 455.955539 
L 796.438715 455.955539 
L 796.438715 455.955539 
L 782.466706 455.955539 
z
" clip-path="url(#p5c866591d3)" style="fill: #ffc107"/>
   </g>
   <g id="patch_46">
    <path d="M 799.931717 455.955539 
L 813.903726 455.955539 
L 813.903726 438.566459 
L 799.931717 438.566459 
z
" clip-path="url(#p5c866591d3)" style="fill: #ffc107"/>
   </g>
   <g id="patch_47">
    <path d="M 817.396728 455.955539 
L 831.368737 455.955539 
L 831.368737 455.955539 
L 817.396728 455.955539 
z
" clip-path="url(#p5c866591d3)" style="fill: #ffc107"/>
   </g>
   <g id="patch_48">
    <path d="M 834.861739 455.955539 
L 848.833747 455.955539 
L 848.833747 386.399221 
L 834.861739 386.399221 
z
" clip-path="url(#p5c866591d3)" style="fill: #ffc107"/>
   </g>
   <g id="patch_49">
    <path d="M 48.936253 447.260999 
L 62.908261 447.260999 
L 62.908261 429.87192 
L 48.936253 429.87192 
z
" clip-path="url(#p5c866591d3)" style="fill: #2196f3"/>
   </g>
   <g id="patch_50">
    <path d="M 66.401263 455.955539 
L 80.373272 455.955539 
L 80.373272 455.955539 
L 66.401263 455.955539 
z
" clip-path="url(#p5c866591d3)" style="fill: #2196f3"/>
   </g>
   <g id="patch_51">
    <path d="M 83.866274 438.566459 
L 97.838283 438.566459 
L 97.838283 421.17738 
L 83.866274 421.17738 
z
" clip-path="url(#p5c866591d3)" style="fill: #2196f3"/>
   </g>
   <g id="patch_52">
    <path d="M 101.331285 455.955539 
L 115.303294 455.955539 
L 115.303294 438.566459 
L 101.331285 438.566459 
z
" clip-path="url(#p5c866591d3)" style="fill: #2196f3"/>
   </g>
   <g id="patch_53">
    <path d="M 118.796296 455.955539 
L 132.768305 455.955539 
L 132.768305 455.955539 
L 118.796296 455.955539 
z
" clip-path="url(#p5c866591d3)" style="fill: #2196f3"/>
   </g>
   <g id="patch_54">
    <path d="M 136.261307 447.260999 
L 150.233315 447.260999 
L 150.233315 412.48284 
L 136.261307 412.48284 
z
" clip-path="url(#p5c866591d3)" style="fill: #2196f3"/>
   </g>
   <g id="patch_55">
    <path d="M 153.726317 438.566459 
L 167.698326 438.566459 
L 167.698326 421.17738 
L 153.726317 421.17738 
z
" clip-path="url(#p5c866591d3)" style="fill: #2196f3"/>
   </g>
   <g id="patch_56">
    <path d="M 171.191328 455.955539 
L 185.163337 455.955539 
L 185.163337 421.17738 
L 171.191328 421.17738 
z
" clip-path="url(#p5c866591d3)" style="fill: #2196f3"/>
   </g>
   <g id="patch_57">
    <path d="M 188.656339 412.48284 
L 202.628348 412.48284 
L 202.628348 255.981124 
L 188.656339 255.981124 
z
" clip-path="url(#p5c866591d3)" style="fill: #2196f3"/>
   </g>
   <g id="patch_58">
    <path d="M 206.12135 412.48284 
L 220.093359 412.48284 
L 220.093359 255.981124 
L 206.12135 255.981124 
z
" clip-path="url(#p5c866591d3)" style="fill: #2196f3"/>
   </g>
   <g id="patch_59">
    <path d="M 223.586361 395.09376 
L 237.558369 395.09376 
L 237.558369 325.537442 
L 223.586361 325.537442 
z
" clip-path="url(#p5c866591d3)" style="fill: #2196f3"/>
   </g>
   <g id="patch_60">
    <path d="M 241.051371 429.87192 
L 255.02338 429.87192 
L 255.02338 377.704681 
L 241.051371 377.704681 
z
" clip-path="url(#p5c866591d3)" style="fill: #2196f3"/>
   </g>
   <g id="patch_61">
    <path d="M 258.516382 438.566459 
L 272.488391 438.566459 
L 272.488391 369.010141 
L 258.516382 369.010141 
z
" clip-path="url(#p5c866591d3)" style="fill: #2196f3"/>
   </g>
   <g id="patch_62">
    <path d="M 275.981393 455.955539 
L 289.953402 455.955539 
L 289.953402 386.399221 
L 275.981393 386.399221 
z
" clip-path="url(#p5c866591d3)" style="fill: #2196f3"/>
   </g>
   <g id="patch_63">
    <path d="M 293.446404 421.17738 
L 307.418413 421.17738 
L 307.418413 334.231982 
L 293.446404 334.231982 
z
" clip-path="url(#p5c866591d3)" style="fill: #2196f3"/>
   </g>
   <g id="patch_64">
    <path d="M 310.911415 455.955539 
L 324.883423 455.955539 
L 324.883423 438.566459 
L 310.911415 438.566459 
z
" clip-path="url(#p5c866591d3)" style="fill: #2196f3"/>
   </g>
   <g id="patch_65">
    <path d="M 328.376425 455.955539 
L 342.348434 455.955539 
L 342.348434 351.621061 
L 328.376425 351.621061 
z
" clip-path="url(#p5c866591d3)" style="fill: #2196f3"/>
   </g>
   <g id="patch_66">
    <path d="M 345.841436 429.87192 
L 359.813445 429.87192 
L 359.813445 377.704681 
L 345.841436 377.704681 
z
" clip-path="url(#p5c866591d3)" style="fill: #2196f3"/>
   </g>
   <g id="patch_67">
    <path d="M 363.306447 421.17738 
L 377.278456 421.17738 
L 377.278456 403.7883 
L 363.306447 403.7883 
z
" clip-path="url(#p5c866591d3)" style="fill: #2196f3"/>
   </g>
   <g id="patch_68">
    <path d="M 380.771458 455.955539 
L 394.743467 455.955539 
L 394.743467 438.566459 
L 380.771458 438.566459 
z
" clip-path="url(#p5c866591d3)" style="fill: #2196f3"/>
   </g>
   <g id="patch_69">
    <path d="M 398.236469 438.566459 
L 412.208477 438.566459 
L 412.208477 421.17738 
L 398.236469 421.17738 
z
" clip-path="url(#p5c866591d3)" style="fill: #2196f3"/>
   </g>
   <g id="patch_70">
    <path d="M 415.701479 455.955539 
L 429.673488 455.955539 
L 429.673488 438.566459 
L 415.701479 438.566459 
z
" clip-path="url(#p5c866591d3)" style="fill: #2196f3"/>
   </g>
   <g id="patch_71">
    <path d="M 433.16649 447.260999 
L 447.138499 447.260999 
L 447.138499 412.48284 
L 433.16649 412.48284 
z
" clip-path="url(#p5c866591d3)" style="fill: #2196f3"/>
   </g>
   <g id="patch_72">
    <path d="M 450.631501 455.955539 
L 464.60351 455.955539 
L 464.60351 438.566459 
L 450.631501 438.566459 
z
" clip-path="url(#p5c866591d3)" style="fill: #2196f3"/>
   </g>
   <g id="patch_73">
    <path d="M 468.096512 455.955539 
L 482.068521 455.955539 
L 482.068521 455.955539 
L 468.096512 455.955539 
z
" clip-path="url(#p5c866591d3)" style="fill: #2196f3"/>
   </g>
   <g id="patch_74">
    <path d="M 485.561523 455.955539 
L 499.533531 455.955539 
L 499.533531 455.955539 
L 485.561523 455.955539 
z
" clip-path="url(#p5c866591d3)" style="fill: #2196f3"/>
   </g>
   <g id="patch_75">
    <path d="M 503.026533 455.955539 
L 516.998542 455.955539 
L 516.998542 455.955539 
L 503.026533 455.955539 
z
" clip-path="url(#p5c866591d3)" style="fill: #2196f3"/>
   </g>
   <g id="patch_76">
    <path d="M 520.491544 455.955539 
L 534.463553 455.955539 
L 534.463553 455.955539 
L 520.491544 455.955539 
z
" clip-path="url(#p5c866591d3)" style="fill: #2196f3"/>
   </g>
   <g id="patch_77">
    <path d="M 537.956555 455.955539 
L 551.928564 455.955539 
L 551.928564 438.566459 
L 537.956555 438.566459 
z
" clip-path="url(#p5c866591d3)" style="fill: #2196f3"/>
   </g>
   <g id="patch_78">
    <path d="M 555.421566 455.955539 
L 569.393575 455.955539 
L 569.393575 438.566459 
L 555.421566 438.566459 
z
" clip-path="url(#p5c866591d3)" style="fill: #2196f3"/>
   </g>
   <g id="patch_79">
    <path d="M 572.886577 429.87192 
L 586.858585 429.87192 
L 586.858585 377.704681 
L 572.886577 377.704681 
z
" clip-path="url(#p5c866591d3)" style="fill: #2196f3"/>
   </g>
   <g id="patch_80">
    <path d="M 590.351587 438.566459 
L 604.323596 438.566459 
L 604.323596 386.399221 
L 590.351587 386.399221 
z
" clip-path="url(#p5c866591d3)" style="fill: #2196f3"/>
   </g>
   <g id="patch_81">
    <path d="M 607.816598 386.399221 
L 621.788607 386.399221 
L 621.788607 369.010141 
L 607.816598 369.010141 
z
" clip-path="url(#p5c866591d3)" style="fill: #2196f3"/>
   </g>
   <g id="patch_82">
    <path d="M 625.281609 360.315601 
L 639.253618 360.315601 
L 639.253618 308.148362 
L 625.281609 308.148362 
z
" clip-path="url(#p5c866591d3)" style="fill: #2196f3"/>
   </g>
   <g id="patch_83">
    <path d="M 642.74662 447.260999 
L 656.718629 447.260999 
L 656.718629 377.704681 
L 642.74662 377.704681 
z
" clip-path="url(#p5c866591d3)" style="fill: #2196f3"/>
   </g>
   <g id="patch_84">
    <path d="M 660.211631 429.87192 
L 674.183639 429.87192 
L 674.183639 360.315601 
L 660.211631 360.315601 
z
" clip-path="url(#p5c866591d3)" style="fill: #2196f3"/>
   </g>
   <g id="patch_85">
    <path d="M 677.676641 447.260999 
L 691.64865 447.260999 
L 691.64865 377.704681 
L 677.676641 377.704681 
z
" clip-path="url(#p5c866591d3)" style="fill: #2196f3"/>
   </g>
   <g id="patch_86">
    <path d="M 695.141652 438.566459 
L 709.113661 438.566459 
L 709.113661 403.7883 
L 695.141652 403.7883 
z
" clip-path="url(#p5c866591d3)" style="fill: #2196f3"/>
   </g>
   <g id="patch_87">
    <path d="M 712.606663 455.955539 
L 726.578672 455.955539 
L 726.578672 403.7883 
L 712.606663 403.7883 
z
" clip-path="url(#p5c866591d3)" style="fill: #2196f3"/>
   </g>
   <g id="patch_88">
    <path d="M 730.071674 455.955539 
L 744.043683 455.955539 
L 744.043683 421.17738 
L 730.071674 421.17738 
z
" clip-path="url(#p5c866591d3)" style="fill: #2196f3"/>
   </g>
   <g id="patch_89">
    <path d="M 747.536685 455.955539 
L 761.508693 455.955539 
L 761.508693 403.7883 
L 747.536685 403.7883 
z
" clip-path="url(#p5c866591d3)" style="fill: #2196f3"/>
   </g>
   <g id="patch_90">
    <path d="M 765.001695 455.955539 
L 778.973704 455.955539 
L 778.973704 403.7883 
L 765.001695 403.7883 
z
" clip-path="url(#p5c866591d3)" style="fill: #2196f3"/>
   </g>
   <g id="patch_91">
    <path d="M 782.466706 455.955539 
L 796.438715 455.955539 
L 796.438715 438.566459 
L 782.466706 438.566459 
z
" clip-path="url(#p5c866591d3)" style="fill: #2196f3"/>
   </g>
   <g id="patch_92">
    <path d="M 799.931717 455.955539 
L 813.903726 455.955539 
L 813.903726 455.955539 
L 799.931717 455.955539 
z
" clip-path="url(#p5c866591d3)" style="fill: #2196f3"/>
   </g>
   <g id="patch_93">
    <path d="M 817.396728 455.955539 
L 831.368737 455.955539 
L 831.368737 438.566459 
L 817.396728 438.566459 
z
" clip-path="url(#p5c866591d3)" style="fill: #2196f3"/>
   </g>
   <g id="patch_94">
    <path d="M 834.861739 386.399221 
L 848.833747 386.399221 
L 848.833747 369.010141 
L 834.861739 369.010141 
z
" clip-path="url(#p5c866591d3)" style="fill: #2196f3"/>
   </g>
   <g id="patch_95">
    <path d="M 48.936253 455.955539 
L 62.908261 455.955539 
L 62.908261 455.955539 
L 48.936253 455.955539 
z
" clip-path="url(#p5c866591d3)" style="fill: #4caf50"/>
   </g>
   <g id="patch_96">
    <path d="M 66.401263 438.566459 
L 80.373272 438.566459 
L 80.373272 412.48284 
L 66.401263 412.48284 
z
" clip-path="url(#p5c866591d3)" style="fill: #4caf50"/>
   </g>
   <g id="patch_97">
    <path d="M 83.866274 455.955539 
L 97.838283 455.955539 
L 97.838283 455.955539 
L 83.866274 455.955539 
z
" clip-path="url(#p5c866591d3)" style="fill: #4caf50"/>
   </g>
   <g id="patch_98">
    <path d="M 101.331285 455.955539 
L 115.303294 455.955539 
L 115.303294 455.955539 
L 101.331285 455.955539 
z
" clip-path="url(#p5c866591d3)" style="fill: #4caf50"/>
   </g>
   <g id="patch_99">
    <path d="M 118.796296 455.955539 
L 132.768305 455.955539 
L 132.768305 429.87192 
L 118.796296 429.87192 
z
" clip-path="url(#p5c866591d3)" style="fill: #4caf50"/>
   </g>
   <g id="patch_100">
    <path d="M 136.261307 412.48284 
L 150.233315 412.48284 
L 150.233315 360.315601 
L 136.261307 360.315601 
z
" clip-path="url(#p5c866591d3)" style="fill: #4caf50"/>
   </g>
   <g id="patch_101">
    <path d="M 153.726317 421.17738 
L 167.698326 421.17738 
L 167.698326 264.675663 
L 153.726317 264.675663 
z
" clip-path="url(#p5c866591d3)" style="fill: #4caf50"/>
   </g>
   <g id="patch_102">
    <path d="M 171.191328 421.17738 
L 185.163337 421.17738 
L 185.163337 238.592044 
L 171.191328 238.592044 
z
" clip-path="url(#p5c866591d3)" style="fill: #4caf50"/>
   </g>
   <g id="patch_103">
    <path d="M 188.656339 255.981124 
L 202.628348 255.981124 
L 202.628348 47.312169 
L 188.656339 47.312169 
z
" clip-path="url(#p5c866591d3)" style="fill: #4caf50"/>
   </g>
   <g id="patch_104">
    <path d="M 206.12135 255.981124 
L 220.093359 255.981124 
L 220.093359 203.813885 
L 206.12135 203.813885 
z
" clip-path="url(#p5c866591d3)" style="fill: #4caf50"/>
   </g>
   <g id="patch_105">
    <path d="M 223.586361 325.537442 
L 237.558369 325.537442 
L 237.558369 169.035726 
L 223.586361 169.035726 
z
" clip-path="url(#p5c866591d3)" style="fill: #4caf50"/>
   </g>
   <g id="patch_106">
    <path d="M 241.051371 377.704681 
L 255.02338 377.704681 
L 255.02338 221.202964 
L 241.051371 221.202964 
z
" clip-path="url(#p5c866591d3)" style="fill: #4caf50"/>
   </g>
   <g id="patch_107">
    <path d="M 258.516382 369.010141 
L 272.488391 369.010141 
L 272.488391 212.508425 
L 258.516382 212.508425 
z
" clip-path="url(#p5c866591d3)" style="fill: #4caf50"/>
   </g>
   <g id="patch_108">
    <path d="M 275.981393 386.399221 
L 289.953402 386.399221 
L 289.953402 73.395788 
L 275.981393 73.395788 
z
" clip-path="url(#p5c866591d3)" style="fill: #4caf50"/>
   </g>
   <g id="patch_109">
    <path d="M 293.446404 334.231982 
L 307.418413 334.231982 
L 307.418413 177.730265 
L 293.446404 177.730265 
z
" clip-path="url(#p5c866591d3)" style="fill: #4caf50"/>
   </g>
   <g id="patch_110">
    <path d="M 310.911415 438.566459 
L 324.883423 438.566459 
L 324.883423 360.315601 
L 310.911415 360.315601 
z
" clip-path="url(#p5c866591d3)" style="fill: #4caf50"/>
   </g>
   <g id="patch_111">
    <path d="M 328.376425 351.621061 
L 342.348434 351.621061 
L 342.348434 247.286584 
L 328.376425 247.286584 
z
" clip-path="url(#p5c866591d3)" style="fill: #4caf50"/>
   </g>
   <g id="patch_112">
    <path d="M 345.841436 377.704681 
L 359.813445 377.704681 
L 359.813445 273.370203 
L 345.841436 273.370203 
z
" clip-path="url(#p5c866591d3)" style="fill: #4caf50"/>
   </g>
   <g id="patch_113">
    <path d="M 363.306447 403.7883 
L 377.278456 403.7883 
L 377.278456 351.621061 
L 363.306447 351.621061 
z
" clip-path="url(#p5c866591d3)" style="fill: #4caf50"/>
   </g>
   <g id="patch_114">
    <path d="M 380.771458 438.566459 
L 394.743467 438.566459 
L 394.743467 334.231982 
L 380.771458 334.231982 
z
" clip-path="url(#p5c866591d3)" style="fill: #4caf50"/>
   </g>
   <g id="patch_115">
    <path d="M 398.236469 455.955539 
L 412.208477 455.955539 
L 412.208477 455.955539 
L 398.236469 455.955539 
z
" clip-path="url(#p5c866591d3)" style="fill: #4caf50"/>
   </g>
   <g id="patch_116">
    <path d="M 415.701479 438.566459 
L 429.673488 438.566459 
L 429.673488 334.231982 
L 415.701479 334.231982 
z
" clip-path="url(#p5c866591d3)" style="fill: #4caf50"/>
   </g>
   <g id="patch_117">
    <path d="M 433.16649 412.48284 
L 447.138499 412.48284 
L 447.138499 229.897504 
L 433.16649 229.897504 
z
" clip-path="url(#p5c866591d3)" style="fill: #4caf50"/>
   </g>
   <g id="patch_118">
    <path d="M 450.631501 455.955539 
L 464.60351 455.955539 
L 464.60351 455.955539 
L 450.631501 455.955539 
z
" clip-path="url(#p5c866591d3)" style="fill: #4caf50"/>
   </g>
   <g id="patch_119">
    <path d="M 468.096512 438.566459 
L 482.068521 438.566459 
L 482.068521 412.48284 
L 468.096512 412.48284 
z
" clip-path="url(#p5c866591d3)" style="fill: #4caf50"/>
   </g>
   <g id="patch_120">
    <path d="M 485.561523 455.955539 
L 499.533531 455.955539 
L 499.533531 429.87192 
L 485.561523 429.87192 
z
" clip-path="url(#p5c866591d3)" style="fill: #4caf50"/>
   </g>
   <g id="patch_121">
    <path d="M 503.026533 455.955539 
L 516.998542 455.955539 
L 516.998542 403.7883 
L 503.026533 403.7883 
z
" clip-path="url(#p5c866591d3)" style="fill: #4caf50"/>
   </g>
   <g id="patch_122">
    <path d="M 520.491544 412.48284 
L 534.463553 412.48284 
L 534.463553 386.399221 
L 520.491544 386.399221 
z
" clip-path="url(#p5c866591d3)" style="fill: #4caf50"/>
   </g>
   <g id="patch_123">
    <path d="M 537.956555 438.566459 
L 551.928564 438.566459 
L 551.928564 360.315601 
L 537.956555 360.315601 
z
" clip-path="url(#p5c866591d3)" style="fill: #4caf50"/>
   </g>
   <g id="patch_124">
    <path d="M 555.421566 438.566459 
L 569.393575 438.566459 
L 569.393575 334.231982 
L 555.421566 334.231982 
z
" clip-path="url(#p5c866591d3)" style="fill: #4caf50"/>
   </g>
   <g id="patch_125">
    <path d="M 572.886577 377.704681 
L 586.858585 377.704681 
L 586.858585 221.202964 
L 572.886577 221.202964 
z
" clip-path="url(#p5c866591d3)" style="fill: #4caf50"/>
   </g>
   <g id="patch_126">
    <path d="M 590.351587 386.399221 
L 604.323596 386.399221 
L 604.323596 151.646646 
L 590.351587 151.646646 
z
" clip-path="url(#p5c866591d3)" style="fill: #4caf50"/>
   </g>
   <g id="patch_127">
    <path d="M 607.816598 369.010141 
L 621.788607 369.010141 
L 621.788607 186.424805 
L 607.816598 186.424805 
z
" clip-path="url(#p5c866591d3)" style="fill: #4caf50"/>
   </g>
   <g id="patch_128">
    <path d="M 625.281609 308.148362 
L 639.253618 308.148362 
L 639.253618 177.730265 
L 625.281609 177.730265 
z
" clip-path="url(#p5c866591d3)" style="fill: #4caf50"/>
   </g>
   <g id="patch_129">
    <path d="M 642.74662 377.704681 
L 656.718629 377.704681 
L 656.718629 273.370203 
L 642.74662 273.370203 
z
" clip-path="url(#p5c866591d3)" style="fill: #4caf50"/>
   </g>
   <g id="patch_130">
    <path d="M 660.211631 360.315601 
L 674.183639 360.315601 
L 674.183639 282.064743 
L 660.211631 282.064743 
z
" clip-path="url(#p5c866591d3)" style="fill: #4caf50"/>
   </g>
   <g id="patch_131">
    <path d="M 677.676641 377.704681 
L 691.64865 377.704681 
L 691.64865 142.952106 
L 677.676641 142.952106 
z
" clip-path="url(#p5c866591d3)" style="fill: #4caf50"/>
   </g>
   <g id="patch_132">
    <path d="M 695.141652 403.7883 
L 709.113661 403.7883 
L 709.113661 221.202964 
L 695.141652 221.202964 
z
" clip-path="url(#p5c866591d3)" style="fill: #4caf50"/>
   </g>
   <g id="patch_133">
    <path d="M 712.606663 403.7883 
L 726.578672 403.7883 
L 726.578672 273.370203 
L 712.606663 273.370203 
z
" clip-path="url(#p5c866591d3)" style="fill: #4caf50"/>
   </g>
   <g id="patch_134">
    <path d="M 730.071674 421.17738 
L 744.043683 421.17738 
L 744.043683 316.842902 
L 730.071674 316.842902 
z
" clip-path="url(#p5c866591d3)" style="fill: #4caf50"/>
   </g>
   <g id="patch_135">
    <path d="M 747.536685 403.7883 
L 761.508693 403.7883 
L 761.508693 273.370203 
L 747.536685 273.370203 
z
" clip-path="url(#p5c866591d3)" style="fill: #4caf50"/>
   </g>
   <g id="patch_136">
    <path d="M 765.001695 403.7883 
L 778.973704 403.7883 
L 778.973704 325.537442 
L 765.001695 325.537442 
z
" clip-path="url(#p5c866591d3)" style="fill: #4caf50"/>
   </g>
   <g id="patch_137">
    <path d="M 782.466706 438.566459 
L 796.438715 438.566459 
L 796.438715 360.315601 
L 782.466706 360.315601 
z
" clip-path="url(#p5c866591d3)" style="fill: #4caf50"/>
   </g>
   <g id="patch_138">
    <path d="M 799.931717 438.566459 
L 813.903726 438.566459 
L 813.903726 386.399221 
L 799.931717 386.399221 
z
" clip-path="url(#p5c866591d3)" style="fill: #4caf50"/>
   </g>
   <g id="patch_139">
    <path d="M 817.396728 438.566459 
L 831.368737 438.566459 
L 831.368737 334.231982 
L 817.396728 334.231982 
z
" clip-path="url(#p5c866591d3)" style="fill: #4caf50"/>
   </g>
   <g id="patch_140">
    <path d="M 834.861739 369.010141 
L 848.833747 369.010141 
L 848.833747 342.926522 
L 834.861739 342.926522 
z
" clip-path="url(#p5c866591d3)" style="fill: #4caf50"/>
   </g>
   <g id="matplotlib.axis_1">
    <g id="xtick_1">
     <g id="line2d_1">
      <defs>
       <path id="mdf25423a75" d="M 0 0 
L 0 3.5 
" style="stroke: #000000; stroke-width: 0.8"/>
      </defs>
      <g>
       <use xlink:href="#mdf25423a75" x="55.922257" y="455.955539" style="stroke: #000000; stroke-width: 0.8"/>
      </g>
     </g>
    </g>
    <g id="xtick_2">
     <g id="line2d_2">
      <g>
       <use xlink:href="#mdf25423a75" x="73.387268" y="455.955539" style="stroke: #000000; stroke-width: 0.8"/>
      </g>
     </g>
    </g>
    <g id="xtick_3">
     <g id="line2d_3">
      <g>
       <use xlink:href="#mdf25423a75" x="90.852279" y="455.955539" style="stroke: #000000; stroke-width: 0.8"/>
      </g>
     </g>
    </g>
    <g id="xtick_4">
     <g id="line2d_4">
      <g>
       <use xlink:href="#mdf25423a75" x="108.317289" y="455.955539" style="stroke: #000000; stroke-width: 0.8"/>
      </g>
     </g>
    </g>
    <g id="xtick_5">
     <g id="line2d_5">
      <g>
       <use xlink:href="#mdf25423a75" x="125.7823" y="455.955539" style="stroke: #000000; stroke-width: 0.8"/>
      </g>
     </g>
     <g id="text_1">
      <!-- 5 -->
      <g transform="translate(125.48399 472.827413) rotate(-45) scale(0.1 -0.1)">
       <defs>
        <path id="DejaVuSans-35" d="M 691 4666 
L 3169 4666 
L 3169 4134 
L 1269 4134 
L 1269 2991 
Q 1406 3038 1543 3061 
Q 1681 3084 1819 3084 
Q 2600 3084 3056 2656 
Q 3513 2228 3513 1497 
Q 3513 744 3044 326 
Q 2575 -91 1722 -91 
Q 1428 -91 1123 -41 
Q 819 9 494 109 
L 494 744 
Q 775 591 1075 516 
Q 1375 441 1709 441 
Q 2250 441 2565 725 
Q 2881 1009 2881 1497 
Q 2881 1984 2565 2268 
Q 2250 2553 1709 2553 
Q 1456 2553 1204 2497 
Q 953 2441 691 2322 
L 691 4666 
z
" transform="scale(0.015625)"/>
       </defs>
       <use xlink:href="#DejaVuSans-35"/>
      </g>
     </g>
    </g>
    <g id="xtick_6">
     <g id="line2d_6">
      <g>
       <use xlink:href="#mdf25423a75" x="143.247311" y="455.955539" style="stroke: #000000; stroke-width: 0.8"/>
      </g>
     </g>
    </g>
    <g id="xtick_7">
     <g id="line2d_7">
      <g>
       <use xlink:href="#mdf25423a75" x="160.712322" y="455.955539" style="stroke: #000000; stroke-width: 0.8"/>
      </g>
     </g>
    </g>
    <g id="xtick_8">
     <g id="line2d_8">
      <g>
       <use xlink:href="#mdf25423a75" x="178.177333" y="455.955539" style="stroke: #000000; stroke-width: 0.8"/>
      </g>
     </g>
    </g>
    <g id="xtick_9">
     <g id="line2d_9">
      <g>
       <use xlink:href="#mdf25423a75" x="195.642343" y="455.955539" style="stroke: #000000; stroke-width: 0.8"/>
      </g>
     </g>
    </g>
    <g id="xtick_10">
     <g id="line2d_10">
      <g>
       <use xlink:href="#mdf25423a75" x="213.107354" y="455.955539" style="stroke: #000000; stroke-width: 0.8"/>
      </g>
     </g>
     <g id="text_2">
      <!-- 10 -->
      <g transform="translate(210.55956 477.326379) rotate(-45) scale(0.1 -0.1)">
       <defs>
        <path id="DejaVuSans-31" d="M 794 531 
L 1825 531 
L 1825 4091 
L 703 3866 
L 703 4441 
L 1819 4666 
L 2450 4666 
L 2450 531 
L 3481 531 
L 3481 0 
L 794 0 
L 794 531 
z
" transform="scale(0.015625)"/>
        <path id="DejaVuSans-30" d="M 2034 4250 
Q 1547 4250 1301 3770 
Q 1056 3291 1056 2328 
Q 1056 1369 1301 889 
Q 1547 409 2034 409 
Q 2525 409 2770 889 
Q 3016 1369 3016 2328 
Q 3016 3291 2770 3770 
Q 2525 4250 2034 4250 
z
M 2034 4750 
Q 2819 4750 3233 4129 
Q 3647 3509 3647 2328 
Q 3647 1150 3233 529 
Q 2819 -91 2034 -91 
Q 1250 -91 836 529 
Q 422 1150 422 2328 
Q 422 3509 836 4129 
Q 1250 4750 2034 4750 
z
" transform="scale(0.015625)"/>
       </defs>
       <use xlink:href="#DejaVuSans-31"/>
       <use xlink:href="#DejaVuSans-30" transform="translate(63.623047 0)"/>
      </g>
     </g>
    </g>
    <g id="xtick_11">
     <g id="line2d_11">
      <g>
       <use xlink:href="#mdf25423a75" x="230.572365" y="455.955539" style="stroke: #000000; stroke-width: 0.8"/>
      </g>
     </g>
     <g id="text_3">
      <!-- 11 -->
      <g transform="translate(228.024571 477.326379) rotate(-45) scale(0.1 -0.1)">
       <use xlink:href="#DejaVuSans-31"/>
       <use xlink:href="#DejaVuSans-31" transform="translate(63.623047 0)"/>
      </g>
     </g>
    </g>
    <g id="xtick_12">
     <g id="line2d_12">
      <g>
       <use xlink:href="#mdf25423a75" x="248.037376" y="455.955539" style="stroke: #000000; stroke-width: 0.8"/>
      </g>
     </g>
    </g>
    <g id="xtick_13">
     <g id="line2d_13">
      <g>
       <use xlink:href="#mdf25423a75" x="265.502387" y="455.955539" style="stroke: #000000; stroke-width: 0.8"/>
      </g>
     </g>
    </g>
    <g id="xtick_14">
     <g id="line2d_14">
      <g>
       <use xlink:href="#mdf25423a75" x="282.967397" y="455.955539" style="stroke: #000000; stroke-width: 0.8"/>
      </g>
     </g>
    </g>
    <g id="xtick_15">
     <g id="line2d_15">
      <g>
       <use xlink:href="#mdf25423a75" x="300.432408" y="455.955539" style="stroke: #000000; stroke-width: 0.8"/>
      </g>
     </g>
     <g id="text_4">
      <!-- 15 -->
      <g transform="translate(297.884614 477.326379) rotate(-45) scale(0.1 -0.1)">
       <use xlink:href="#DejaVuSans-31"/>
       <use xlink:href="#DejaVuSans-35" transform="translate(63.623047 0)"/>
      </g>
     </g>
    </g>
    <g id="xtick_16">
     <g id="line2d_16">
      <g>
       <use xlink:href="#mdf25423a75" x="317.897419" y="455.955539" style="stroke: #000000; stroke-width: 0.8"/>
      </g>
     </g>
    </g>
    <g id="xtick_17">
     <g id="line2d_17">
      <g>
       <use xlink:href="#mdf25423a75" x="335.36243" y="455.955539" style="stroke: #000000; stroke-width: 0.8"/>
      </g>
     </g>
    </g>
    <g id="xtick_18">
     <g id="line2d_18">
      <g>
       <use xlink:href="#mdf25423a75" x="352.827441" y="455.955539" style="stroke: #000000; stroke-width: 0.8"/>
      </g>
     </g>
    </g>
    <g id="xtick_19">
     <g id="line2d_19">
      <g>
       <use xlink:href="#mdf25423a75" x="370.292451" y="455.955539" style="stroke: #000000; stroke-width: 0.8"/>
      </g>
     </g>
    </g>
    <g id="xtick_20">
     <g id="line2d_20">
      <g>
       <use xlink:href="#mdf25423a75" x="387.757462" y="455.955539" style="stroke: #000000; stroke-width: 0.8"/>
      </g>
     </g>
     <g id="text_5">
      <!-- 20 -->
      <g transform="translate(385.209668 477.326379) rotate(-45) scale(0.1 -0.1)">
       <defs>
        <path id="DejaVuSans-32" d="M 1228 531 
L 3431 531 
L 3431 0 
L 469 0 
L 469 531 
Q 828 903 1448 1529 
Q 2069 2156 2228 2338 
Q 2531 2678 2651 2914 
Q 2772 3150 2772 3378 
Q 2772 3750 2511 3984 
Q 2250 4219 1831 4219 
Q 1534 4219 1204 4116 
Q 875 4013 500 3803 
L 500 4441 
Q 881 4594 1212 4672 
Q 1544 4750 1819 4750 
Q 2544 4750 2975 4387 
Q 3406 4025 3406 3419 
Q 3406 3131 3298 2873 
Q 3191 2616 2906 2266 
Q 2828 2175 2409 1742 
Q 1991 1309 1228 531 
z
" transform="scale(0.015625)"/>
       </defs>
       <use xlink:href="#DejaVuSans-32"/>
       <use xlink:href="#DejaVuSans-30" transform="translate(63.623047 0)"/>
      </g>
     </g>
    </g>
    <g id="xtick_21">
     <g id="line2d_21">
      <g>
       <use xlink:href="#mdf25423a75" x="405.222473" y="455.955539" style="stroke: #000000; stroke-width: 0.8"/>
      </g>
     </g>
    </g>
    <g id="xtick_22">
     <g id="line2d_22">
      <g>
       <use xlink:href="#mdf25423a75" x="422.687484" y="455.955539" style="stroke: #000000; stroke-width: 0.8"/>
      </g>
     </g>
    </g>
    <g id="xtick_23">
     <g id="line2d_23">
      <g>
       <use xlink:href="#mdf25423a75" x="440.152495" y="455.955539" style="stroke: #000000; stroke-width: 0.8"/>
      </g>
     </g>
     <g id="text_6">
      <!-- 23 -->
      <g transform="translate(437.6047 477.326379) rotate(-45) scale(0.1 -0.1)">
       <defs>
        <path id="DejaVuSans-33" d="M 2597 2516 
Q 3050 2419 3304 2112 
Q 3559 1806 3559 1356 
Q 3559 666 3084 287 
Q 2609 -91 1734 -91 
Q 1441 -91 1130 -33 
Q 819 25 488 141 
L 488 750 
Q 750 597 1062 519 
Q 1375 441 1716 441 
Q 2309 441 2620 675 
Q 2931 909 2931 1356 
Q 2931 1769 2642 2001 
Q 2353 2234 1838 2234 
L 1294 2234 
L 1294 2753 
L 1863 2753 
Q 2328 2753 2575 2939 
Q 2822 3125 2822 3475 
Q 2822 3834 2567 4026 
Q 2313 4219 1838 4219 
Q 1578 4219 1281 4162 
Q 984 4106 628 3988 
L 628 4550 
Q 988 4650 1302 4700 
Q 1616 4750 1894 4750 
Q 2613 4750 3031 4423 
Q 3450 4097 3450 3541 
Q 3450 3153 3228 2886 
Q 3006 2619 2597 2516 
z
" transform="scale(0.015625)"/>
       </defs>
       <use xlink:href="#DejaVuSans-32"/>
       <use xlink:href="#DejaVuSans-33" transform="translate(63.623047 0)"/>
      </g>
     </g>
    </g>
    <g id="xtick_24">
     <g id="line2d_24">
      <g>
       <use xlink:href="#mdf25423a75" x="457.617505" y="455.955539" style="stroke: #000000; stroke-width: 0.8"/>
      </g>
     </g>
    </g>
    <g id="xtick_25">
     <g id="line2d_25">
      <g>
       <use xlink:href="#mdf25423a75" x="475.082516" y="455.955539" style="stroke: #000000; stroke-width: 0.8"/>
      </g>
     </g>
     <g id="text_7">
      <!-- 25 -->
      <g transform="translate(472.534722 477.326379) rotate(-45) scale(0.1 -0.1)">
       <use xlink:href="#DejaVuSans-32"/>
       <use xlink:href="#DejaVuSans-35" transform="translate(63.623047 0)"/>
      </g>
     </g>
    </g>
    <g id="xtick_26">
     <g id="line2d_26">
      <g>
       <use xlink:href="#mdf25423a75" x="492.547527" y="455.955539" style="stroke: #000000; stroke-width: 0.8"/>
      </g>
     </g>
    </g>
    <g id="xtick_27">
     <g id="line2d_27">
      <g>
       <use xlink:href="#mdf25423a75" x="510.012538" y="455.955539" style="stroke: #000000; stroke-width: 0.8"/>
      </g>
     </g>
    </g>
    <g id="xtick_28">
     <g id="line2d_28">
      <g>
       <use xlink:href="#mdf25423a75" x="527.477549" y="455.955539" style="stroke: #000000; stroke-width: 0.8"/>
      </g>
     </g>
    </g>
    <g id="xtick_29">
     <g id="line2d_29">
      <g>
       <use xlink:href="#mdf25423a75" x="544.942559" y="455.955539" style="stroke: #000000; stroke-width: 0.8"/>
      </g>
     </g>
     <g id="text_8">
      <!-- 30 -->
      <g transform="translate(542.394765 477.326379) rotate(-45) scale(0.1 -0.1)">
       <use xlink:href="#DejaVuSans-33"/>
       <use xlink:href="#DejaVuSans-30" transform="translate(63.623047 0)"/>
      </g>
     </g>
    </g>
    <g id="xtick_30">
     <g id="line2d_30">
      <g>
       <use xlink:href="#mdf25423a75" x="562.40757" y="455.955539" style="stroke: #000000; stroke-width: 0.8"/>
      </g>
     </g>
    </g>
    <g id="xtick_31">
     <g id="line2d_31">
      <g>
       <use xlink:href="#mdf25423a75" x="579.872581" y="455.955539" style="stroke: #000000; stroke-width: 0.8"/>
      </g>
     </g>
    </g>
    <g id="xtick_32">
     <g id="line2d_32">
      <g>
       <use xlink:href="#mdf25423a75" x="597.337592" y="455.955539" style="stroke: #000000; stroke-width: 0.8"/>
      </g>
     </g>
    </g>
    <g id="xtick_33">
     <g id="line2d_33">
      <g>
       <use xlink:href="#mdf25423a75" x="614.802603" y="455.955539" style="stroke: #000000; stroke-width: 0.8"/>
      </g>
     </g>
    </g>
    <g id="xtick_34">
     <g id="line2d_34">
      <g>
       <use xlink:href="#mdf25423a75" x="632.267613" y="455.955539" style="stroke: #000000; stroke-width: 0.8"/>
      </g>
     </g>
     <g id="text_9">
      <!-- 35 -->
      <g transform="translate(629.719819 477.326379) rotate(-45) scale(0.1 -0.1)">
       <use xlink:href="#DejaVuSans-33"/>
       <use xlink:href="#DejaVuSans-35" transform="translate(63.623047 0)"/>
      </g>
     </g>
    </g>
    <g id="xtick_35">
     <g id="line2d_35">
      <g>
       <use xlink:href="#mdf25423a75" x="649.732624" y="455.955539" style="stroke: #000000; stroke-width: 0.8"/>
      </g>
     </g>
    </g>
    <g id="xtick_36">
     <g id="line2d_36">
      <g>
       <use xlink:href="#mdf25423a75" x="667.197635" y="455.955539" style="stroke: #000000; stroke-width: 0.8"/>
      </g>
     </g>
    </g>
    <g id="xtick_37">
     <g id="line2d_37">
      <g>
       <use xlink:href="#mdf25423a75" x="684.662646" y="455.955539" style="stroke: #000000; stroke-width: 0.8"/>
      </g>
     </g>
    </g>
    <g id="xtick_38">
     <g id="line2d_38">
      <g>
       <use xlink:href="#mdf25423a75" x="702.127657" y="455.955539" style="stroke: #000000; stroke-width: 0.8"/>
      </g>
     </g>
    </g>
    <g id="xtick_39">
     <g id="line2d_39">
      <g>
       <use xlink:href="#mdf25423a75" x="719.592667" y="455.955539" style="stroke: #000000; stroke-width: 0.8"/>
      </g>
     </g>
     <g id="text_10">
      <!-- 40 -->
      <g transform="translate(717.044873 477.326379) rotate(-45) scale(0.1 -0.1)">
       <defs>
        <path id="DejaVuSans-34" d="M 2419 4116 
L 825 1625 
L 2419 1625 
L 2419 4116 
z
M 2253 4666 
L 3047 4666 
L 3047 1625 
L 3713 1625 
L 3713 1100 
L 3047 1100 
L 3047 0 
L 2419 0 
L 2419 1100 
L 313 1100 
L 313 1709 
L 2253 4666 
z
" transform="scale(0.015625)"/>
       </defs>
       <use xlink:href="#DejaVuSans-34"/>
       <use xlink:href="#DejaVuSans-30" transform="translate(63.623047 0)"/>
      </g>
     </g>
    </g>
    <g id="xtick_40">
     <g id="line2d_40">
      <g>
       <use xlink:href="#mdf25423a75" x="737.057678" y="455.955539" style="stroke: #000000; stroke-width: 0.8"/>
      </g>
     </g>
    </g>
    <g id="xtick_41">
     <g id="line2d_41">
      <g>
       <use xlink:href="#mdf25423a75" x="754.522689" y="455.955539" style="stroke: #000000; stroke-width: 0.8"/>
      </g>
     </g>
    </g>
    <g id="xtick_42">
     <g id="line2d_42">
      <g>
       <use xlink:href="#mdf25423a75" x="771.9877" y="455.955539" style="stroke: #000000; stroke-width: 0.8"/>
      </g>
     </g>
    </g>
    <g id="xtick_43">
     <g id="line2d_43">
      <g>
       <use xlink:href="#mdf25423a75" x="789.452711" y="455.955539" style="stroke: #000000; stroke-width: 0.8"/>
      </g>
     </g>
    </g>
    <g id="xtick_44">
     <g id="line2d_44">
      <g>
       <use xlink:href="#mdf25423a75" x="806.917721" y="455.955539" style="stroke: #000000; stroke-width: 0.8"/>
      </g>
     </g>
     <g id="text_11">
      <!-- 45 -->
      <g transform="translate(804.369927 477.326379) rotate(-45) scale(0.1 -0.1)">
       <use xlink:href="#DejaVuSans-34"/>
       <use xlink:href="#DejaVuSans-35" transform="translate(63.623047 0)"/>
      </g>
     </g>
    </g>
    <g id="xtick_45">
     <g id="line2d_45">
      <g>
       <use xlink:href="#mdf25423a75" x="824.382732" y="455.955539" style="stroke: #000000; stroke-width: 0.8"/>
      </g>
     </g>
    </g>
    <g id="xtick_46">
     <g id="line2d_46">
      <g>
       <use xlink:href="#mdf25423a75" x="841.847743" y="455.955539" style="stroke: #000000; stroke-width: 0.8"/>
      </g>
     </g>
     <g id="text_12">
      <!-- 47 -->
      <g transform="translate(839.299949 477.326379) rotate(-45) scale(0.1 -0.1)">
       <defs>
        <path id="DejaVuSans-37" d="M 525 4666 
L 3525 4666 
L 3525 4397 
L 1831 0 
L 1172 0 
L 2766 4134 
L 525 4134 
L 525 4666 
z
" transform="scale(0.015625)"/>
       </defs>
       <use xlink:href="#DejaVuSans-34"/>
       <use xlink:href="#DejaVuSans-37" transform="translate(63.623047 0)"/>
      </g>
     </g>
    </g>
    <g id="text_13">
     <!-- Game Minute -->
     <g transform="translate(415.333438 490.395378) scale(0.1 -0.1)">
      <defs>
       <path id="DejaVuSans-47" d="M 3809 666 
L 3809 1919 
L 2778 1919 
L 2778 2438 
L 4434 2438 
L 4434 434 
Q 4069 175 3628 42 
Q 3188 -91 2688 -91 
Q 1594 -91 976 548 
Q 359 1188 359 2328 
Q 359 3472 976 4111 
Q 1594 4750 2688 4750 
Q 3144 4750 3555 4637 
Q 3966 4525 4313 4306 
L 4313 3634 
Q 3963 3931 3569 4081 
Q 3175 4231 2741 4231 
Q 1884 4231 1454 3753 
Q 1025 3275 1025 2328 
Q 1025 1384 1454 906 
Q 1884 428 2741 428 
Q 3075 428 3337 486 
Q 3600 544 3809 666 
z
" transform="scale(0.015625)"/>
       <path id="DejaVuSans-61" d="M 2194 1759 
Q 1497 1759 1228 1600 
Q 959 1441 959 1056 
Q 959 750 1161 570 
Q 1363 391 1709 391 
Q 2188 391 2477 730 
Q 2766 1069 2766 1631 
L 2766 1759 
L 2194 1759 
z
M 3341 1997 
L 3341 0 
L 2766 0 
L 2766 531 
Q 2569 213 2275 61 
Q 1981 -91 1556 -91 
Q 1019 -91 701 211 
Q 384 513 384 1019 
Q 384 1609 779 1909 
Q 1175 2209 1959 2209 
L 2766 2209 
L 2766 2266 
Q 2766 2663 2505 2880 
Q 2244 3097 1772 3097 
Q 1472 3097 1187 3025 
Q 903 2953 641 2809 
L 641 3341 
Q 956 3463 1253 3523 
Q 1550 3584 1831 3584 
Q 2591 3584 2966 3190 
Q 3341 2797 3341 1997 
z
" transform="scale(0.015625)"/>
       <path id="DejaVuSans-6d" d="M 3328 2828 
Q 3544 3216 3844 3400 
Q 4144 3584 4550 3584 
Q 5097 3584 5394 3201 
Q 5691 2819 5691 2113 
L 5691 0 
L 5113 0 
L 5113 2094 
Q 5113 2597 4934 2840 
Q 4756 3084 4391 3084 
Q 3944 3084 3684 2787 
Q 3425 2491 3425 1978 
L 3425 0 
L 2847 0 
L 2847 2094 
Q 2847 2600 2669 2842 
Q 2491 3084 2119 3084 
Q 1678 3084 1418 2786 
Q 1159 2488 1159 1978 
L 1159 0 
L 581 0 
L 581 3500 
L 1159 3500 
L 1159 2956 
Q 1356 3278 1631 3431 
Q 1906 3584 2284 3584 
Q 2666 3584 2933 3390 
Q 3200 3197 3328 2828 
z
" transform="scale(0.015625)"/>
       <path id="DejaVuSans-65" d="M 3597 1894 
L 3597 1613 
L 953 1613 
Q 991 1019 1311 708 
Q 1631 397 2203 397 
Q 2534 397 2845 478 
Q 3156 559 3463 722 
L 3463 178 
Q 3153 47 2828 -22 
Q 2503 -91 2169 -91 
Q 1331 -91 842 396 
Q 353 884 353 1716 
Q 353 2575 817 3079 
Q 1281 3584 2069 3584 
Q 2775 3584 3186 3129 
Q 3597 2675 3597 1894 
z
M 3022 2063 
Q 3016 2534 2758 2815 
Q 2500 3097 2075 3097 
Q 1594 3097 1305 2825 
Q 1016 2553 972 2059 
L 3022 2063 
z
" transform="scale(0.015625)"/>
       <path id="DejaVuSans-20" transform="scale(0.015625)"/>
       <path id="DejaVuSans-4d" d="M 628 4666 
L 1569 4666 
L 2759 1491 
L 3956 4666 
L 4897 4666 
L 4897 0 
L 4281 0 
L 4281 4097 
L 3078 897 
L 2444 897 
L 1241 4097 
L 1241 0 
L 628 0 
L 628 4666 
z
" transform="scale(0.015625)"/>
       <path id="DejaVuSans-69" d="M 603 3500 
L 1178 3500 
L 1178 0 
L 603 0 
L 603 3500 
z
M 603 4863 
L 1178 4863 
L 1178 4134 
L 603 4134 
L 603 4863 
z
" transform="scale(0.015625)"/>
       <path id="DejaVuSans-6e" d="M 3513 2113 
L 3513 0 
L 2938 0 
L 2938 2094 
Q 2938 2591 2744 2837 
Q 2550 3084 2163 3084 
Q 1697 3084 1428 2787 
Q 1159 2491 1159 1978 
L 1159 0 
L 581 0 
L 581 3500 
L 1159 3500 
L 1159 2956 
Q 1366 3272 1645 3428 
Q 1925 3584 2291 3584 
Q 2894 3584 3203 3211 
Q 3513 2838 3513 2113 
z
" transform="scale(0.015625)"/>
       <path id="DejaVuSans-75" d="M 544 1381 
L 544 3500 
L 1119 3500 
L 1119 1403 
Q 1119 906 1312 657 
Q 1506 409 1894 409 
Q 2359 409 2629 706 
Q 2900 1003 2900 1516 
L 2900 3500 
L 3475 3500 
L 3475 0 
L 2900 0 
L 2900 538 
Q 2691 219 2414 64 
Q 2138 -91 1772 -91 
Q 1169 -91 856 284 
Q 544 659 544 1381 
z
M 1991 3584 
L 1991 3584 
z
" transform="scale(0.015625)"/>
       <path id="DejaVuSans-74" d="M 1172 4494 
L 1172 3500 
L 2356 3500 
L 2356 3053 
L 1172 3053 
L 1172 1153 
Q 1172 725 1289 603 
Q 1406 481 1766 481 
L 2356 481 
L 2356 0 
L 1766 0 
Q 1100 0 847 248 
Q 594 497 594 1153 
L 594 3053 
L 172 3053 
L 172 3500 
L 594 3500 
L 594 4494 
L 1172 4494 
z
" transform="scale(0.015625)"/>
      </defs>
      <use xlink:href="#DejaVuSans-47"/>
      <use xlink:href="#DejaVuSans-61" transform="translate(77.490234 0)"/>
      <use xlink:href="#DejaVuSans-6d" transform="translate(138.769531 0)"/>
      <use xlink:href="#DejaVuSans-65" transform="translate(236.181641 0)"/>
      <use xlink:href="#DejaVuSans-20" transform="translate(297.705078 0)"/>
      <use xlink:href="#DejaVuSans-4d" transform="translate(329.492188 0)"/>
      <use xlink:href="#DejaVuSans-69" transform="translate(415.771484 0)"/>
      <use xlink:href="#DejaVuSans-6e" transform="translate(443.554688 0)"/>
      <use xlink:href="#DejaVuSans-75" transform="translate(506.933594 0)"/>
      <use xlink:href="#DejaVuSans-74" transform="translate(570.3125 0)"/>
      <use xlink:href="#DejaVuSans-65" transform="translate(609.521484 0)"/>
     </g>
    </g>
   </g>
   <g id="matplotlib.axis_2">
    <g id="ytick_1">
     <g id="line2d_47">
      <path d="M 44.57 455.955539 
L 853.2 455.955539 
" clip-path="url(#p5c866591d3)" style="fill: none; stroke-dasharray: 2.96,1.28; stroke-dashoffset: 0; stroke: #b0b0b0; stroke-opacity: 0.6; stroke-width: 0.8"/>
     </g>
     <g id="line2d_48">
      <defs>
       <path id="me57f4bd431" d="M 0 0 
L -3.5 0 
" style="stroke: #000000; stroke-width: 0.8"/>
      </defs>
      <g>
       <use xlink:href="#me57f4bd431" x="44.57" y="455.955539" style="stroke: #000000; stroke-width: 0.8"/>
      </g>
     </g>
     <g id="text_14">
      <!-- 0 -->
      <g transform="translate(31.2075 459.754758) scale(0.1 -0.1)">
       <use xlink:href="#DejaVuSans-30"/>
      </g>
     </g>
    </g>
    <g id="ytick_2">
     <g id="line2d_49">
      <path d="M 44.57 369.010141 
L 853.2 369.010141 
" clip-path="url(#p5c866591d3)" style="fill: none; stroke-dasharray: 2.96,1.28; stroke-dashoffset: 0; stroke: #b0b0b0; stroke-opacity: 0.6; stroke-width: 0.8"/>
     </g>
     <g id="line2d_50">
      <g>
       <use xlink:href="#me57f4bd431" x="44.57" y="369.010141" style="stroke: #000000; stroke-width: 0.8"/>
      </g>
     </g>
     <g id="text_15">
      <!-- 10 -->
      <g transform="translate(24.845 372.80936) scale(0.1 -0.1)">
       <use xlink:href="#DejaVuSans-31"/>
       <use xlink:href="#DejaVuSans-30" transform="translate(63.623047 0)"/>
      </g>
     </g>
    </g>
    <g id="ytick_3">
     <g id="line2d_51">
      <path d="M 44.57 282.064743 
L 853.2 282.064743 
" clip-path="url(#p5c866591d3)" style="fill: none; stroke-dasharray: 2.96,1.28; stroke-dashoffset: 0; stroke: #b0b0b0; stroke-opacity: 0.6; stroke-width: 0.8"/>
     </g>
     <g id="line2d_52">
      <g>
       <use xlink:href="#me57f4bd431" x="44.57" y="282.064743" style="stroke: #000000; stroke-width: 0.8"/>
      </g>
     </g>
     <g id="text_16">
      <!-- 20 -->
      <g transform="translate(24.845 285.863962) scale(0.1 -0.1)">
       <use xlink:href="#DejaVuSans-32"/>
       <use xlink:href="#DejaVuSans-30" transform="translate(63.623047 0)"/>
      </g>
     </g>
    </g>
    <g id="ytick_4">
     <g id="line2d_53">
      <path d="M 44.57 195.119345 
L 853.2 195.119345 
" clip-path="url(#p5c866591d3)" style="fill: none; stroke-dasharray: 2.96,1.28; stroke-dashoffset: 0; stroke: #b0b0b0; stroke-opacity: 0.6; stroke-width: 0.8"/>
     </g>
     <g id="line2d_54">
      <g>
       <use xlink:href="#me57f4bd431" x="44.57" y="195.119345" style="stroke: #000000; stroke-width: 0.8"/>
      </g>
     </g>
     <g id="text_17">
      <!-- 30 -->
      <g transform="translate(24.845 198.918564) scale(0.1 -0.1)">
       <use xlink:href="#DejaVuSans-33"/>
       <use xlink:href="#DejaVuSans-30" transform="translate(63.623047 0)"/>
      </g>
     </g>
    </g>
    <g id="ytick_5">
     <g id="line2d_55">
      <path d="M 44.57 108.173947 
L 853.2 108.173947 
" clip-path="url(#p5c866591d3)" style="fill: none; stroke-dasharray: 2.96,1.28; stroke-dashoffset: 0; stroke: #b0b0b0; stroke-opacity: 0.6; stroke-width: 0.8"/>
     </g>
     <g id="line2d_56">
      <g>
       <use xlink:href="#me57f4bd431" x="44.57" y="108.173947" style="stroke: #000000; stroke-width: 0.8"/>
      </g>
     </g>
     <g id="text_18">
      <!-- 40 -->
      <g transform="translate(24.845 111.973166) scale(0.1 -0.1)">
       <use xlink:href="#DejaVuSans-34"/>
       <use xlink:href="#DejaVuSans-30" transform="translate(63.623047 0)"/>
      </g>
     </g>
    </g>
    <g id="text_19">
     <!-- Points Scored -->
     <g transform="translate(18.765312 275.199019) rotate(-90) scale(0.1 -0.1)">
      <defs>
       <path id="DejaVuSans-50" d="M 1259 4147 
L 1259 2394 
L 2053 2394 
Q 2494 2394 2734 2622 
Q 2975 2850 2975 3272 
Q 2975 3691 2734 3919 
Q 2494 4147 2053 4147 
L 1259 4147 
z
M 628 4666 
L 2053 4666 
Q 2838 4666 3239 4311 
Q 3641 3956 3641 3272 
Q 3641 2581 3239 2228 
Q 2838 1875 2053 1875 
L 1259 1875 
L 1259 0 
L 628 0 
L 628 4666 
z
" transform="scale(0.015625)"/>
       <path id="DejaVuSans-6f" d="M 1959 3097 
Q 1497 3097 1228 2736 
Q 959 2375 959 1747 
Q 959 1119 1226 758 
Q 1494 397 1959 397 
Q 2419 397 2687 759 
Q 2956 1122 2956 1747 
Q 2956 2369 2687 2733 
Q 2419 3097 1959 3097 
z
M 1959 3584 
Q 2709 3584 3137 3096 
Q 3566 2609 3566 1747 
Q 3566 888 3137 398 
Q 2709 -91 1959 -91 
Q 1206 -91 779 398 
Q 353 888 353 1747 
Q 353 2609 779 3096 
Q 1206 3584 1959 3584 
z
" transform="scale(0.015625)"/>
       <path id="DejaVuSans-73" d="M 2834 3397 
L 2834 2853 
Q 2591 2978 2328 3040 
Q 2066 3103 1784 3103 
Q 1356 3103 1142 2972 
Q 928 2841 928 2578 
Q 928 2378 1081 2264 
Q 1234 2150 1697 2047 
L 1894 2003 
Q 2506 1872 2764 1633 
Q 3022 1394 3022 966 
Q 3022 478 2636 193 
Q 2250 -91 1575 -91 
Q 1294 -91 989 -36 
Q 684 19 347 128 
L 347 722 
Q 666 556 975 473 
Q 1284 391 1588 391 
Q 1994 391 2212 530 
Q 2431 669 2431 922 
Q 2431 1156 2273 1281 
Q 2116 1406 1581 1522 
L 1381 1569 
Q 847 1681 609 1914 
Q 372 2147 372 2553 
Q 372 3047 722 3315 
Q 1072 3584 1716 3584 
Q 2034 3584 2315 3537 
Q 2597 3491 2834 3397 
z
" transform="scale(0.015625)"/>
       <path id="DejaVuSans-53" d="M 3425 4513 
L 3425 3897 
Q 3066 4069 2747 4153 
Q 2428 4238 2131 4238 
Q 1616 4238 1336 4038 
Q 1056 3838 1056 3469 
Q 1056 3159 1242 3001 
Q 1428 2844 1947 2747 
L 2328 2669 
Q 3034 2534 3370 2195 
Q 3706 1856 3706 1288 
Q 3706 609 3251 259 
Q 2797 -91 1919 -91 
Q 1588 -91 1214 -16 
Q 841 59 441 206 
L 441 856 
Q 825 641 1194 531 
Q 1563 422 1919 422 
Q 2459 422 2753 634 
Q 3047 847 3047 1241 
Q 3047 1584 2836 1778 
Q 2625 1972 2144 2069 
L 1759 2144 
Q 1053 2284 737 2584 
Q 422 2884 422 3419 
Q 422 4038 858 4394 
Q 1294 4750 2059 4750 
Q 2388 4750 2728 4690 
Q 3069 4631 3425 4513 
z
" transform="scale(0.015625)"/>
       <path id="DejaVuSans-63" d="M 3122 3366 
L 3122 2828 
Q 2878 2963 2633 3030 
Q 2388 3097 2138 3097 
Q 1578 3097 1268 2742 
Q 959 2388 959 1747 
Q 959 1106 1268 751 
Q 1578 397 2138 397 
Q 2388 397 2633 464 
Q 2878 531 3122 666 
L 3122 134 
Q 2881 22 2623 -34 
Q 2366 -91 2075 -91 
Q 1284 -91 818 406 
Q 353 903 353 1747 
Q 353 2603 823 3093 
Q 1294 3584 2113 3584 
Q 2378 3584 2631 3529 
Q 2884 3475 3122 3366 
z
" transform="scale(0.015625)"/>
       <path id="DejaVuSans-72" d="M 2631 2963 
Q 2534 3019 2420 3045 
Q 2306 3072 2169 3072 
Q 1681 3072 1420 2755 
Q 1159 2438 1159 1844 
L 1159 0 
L 581 0 
L 581 3500 
L 1159 3500 
L 1159 2956 
Q 1341 3275 1631 3429 
Q 1922 3584 2338 3584 
Q 2397 3584 2469 3576 
Q 2541 3569 2628 3553 
L 2631 2963 
z
" transform="scale(0.015625)"/>
       <path id="DejaVuSans-64" d="M 2906 2969 
L 2906 4863 
L 3481 4863 
L 3481 0 
L 2906 0 
L 2906 525 
Q 2725 213 2448 61 
Q 2172 -91 1784 -91 
Q 1150 -91 751 415 
Q 353 922 353 1747 
Q 353 2572 751 3078 
Q 1150 3584 1784 3584 
Q 2172 3584 2448 3432 
Q 2725 3281 2906 2969 
z
M 947 1747 
Q 947 1113 1208 752 
Q 1469 391 1925 391 
Q 2381 391 2643 752 
Q 2906 1113 2906 1747 
Q 2906 2381 2643 2742 
Q 2381 3103 1925 3103 
Q 1469 3103 1208 2742 
Q 947 2381 947 1747 
z
" transform="scale(0.015625)"/>
      </defs>
      <use xlink:href="#DejaVuSans-50"/>
      <use xlink:href="#DejaVuSans-6f" transform="translate(56.677734 0)"/>
      <use xlink:href="#DejaVuSans-69" transform="translate(117.859375 0)"/>
      <use xlink:href="#DejaVuSans-6e" transform="translate(145.642578 0)"/>
      <use xlink:href="#DejaVuSans-74" transform="translate(209.021484 0)"/>
      <use xlink:href="#DejaVuSans-73" transform="translate(248.230469 0)"/>
      <use xlink:href="#DejaVuSans-20" transform="translate(300.330078 0)"/>
      <use xlink:href="#DejaVuSans-53" transform="translate(332.117188 0)"/>
      <use xlink:href="#DejaVuSans-63" transform="translate(395.59375 0)"/>
      <use xlink:href="#DejaVuSans-6f" transform="translate(450.574219 0)"/>
      <use xlink:href="#DejaVuSans-72" transform="translate(511.755859 0)"/>
      <use xlink:href="#DejaVuSans-65" transform="translate(550.619141 0)"/>
      <use xlink:href="#DejaVuSans-64" transform="translate(612.142578 0)"/>
     </g>
    </g>
   </g>
   <g id="patch_141">
    <path d="M 44.57 455.955539 
L 44.57 26.88 
" style="fill: none; stroke: #000000; stroke-width: 0.8; stroke-linejoin: miter; stroke-linecap: square"/>
   </g>
   <g id="patch_142">
    <path d="M 853.2 455.955539 
L 853.2 26.88 
" style="fill: none; stroke: #000000; stroke-width: 0.8; stroke-linejoin: miter; stroke-linecap: square"/>
   </g>
   <g id="patch_143">
    <path d="M 44.57 455.955539 
L 853.2 455.955539 
" style="fill: none; stroke: #000000; stroke-width: 0.8; stroke-linejoin: miter; stroke-linecap: square"/>
   </g>
   <g id="patch_144">
    <path d="M 44.57 26.88 
L 853.2 26.88 
" style="fill: none; stroke: #000000; stroke-width: 0.8; stroke-linejoin: miter; stroke-linecap: square"/>
   </g>
   <g id="text_20">
    <!-- Gary Trent Scoring Timeline (2024-25) -->
    <g transform="translate(334.171562 20.88) scale(0.12 -0.12)">
     <defs>
      <path id="DejaVuSans-79" d="M 2059 -325 
Q 1816 -950 1584 -1140 
Q 1353 -1331 966 -1331 
L 506 -1331 
L 506 -850 
L 844 -850 
Q 1081 -850 1212 -737 
Q 1344 -625 1503 -206 
L 1606 56 
L 191 3500 
L 800 3500 
L 1894 763 
L 2988 3500 
L 3597 3500 
L 2059 -325 
z
" transform="scale(0.015625)"/>
      <path id="DejaVuSans-54" d="M -19 4666 
L 3928 4666 
L 3928 4134 
L 2272 4134 
L 2272 0 
L 1638 0 
L 1638 4134 
L -19 4134 
L -19 4666 
z
" transform="scale(0.015625)"/>
      <path id="DejaVuSans-67" d="M 2906 1791 
Q 2906 2416 2648 2759 
Q 2391 3103 1925 3103 
Q 1463 3103 1205 2759 
Q 947 2416 947 1791 
Q 947 1169 1205 825 
Q 1463 481 1925 481 
Q 2391 481 2648 825 
Q 2906 1169 2906 1791 
z
M 3481 434 
Q 3481 -459 3084 -895 
Q 2688 -1331 1869 -1331 
Q 1566 -1331 1297 -1286 
Q 1028 -1241 775 -1147 
L 775 -588 
Q 1028 -725 1275 -790 
Q 1522 -856 1778 -856 
Q 2344 -856 2625 -561 
Q 2906 -266 2906 331 
L 2906 616 
Q 2728 306 2450 153 
Q 2172 0 1784 0 
Q 1141 0 747 490 
Q 353 981 353 1791 
Q 353 2603 747 3093 
Q 1141 3584 1784 3584 
Q 2172 3584 2450 3431 
Q 2728 3278 2906 2969 
L 2906 3500 
L 3481 3500 
L 3481 434 
z
" transform="scale(0.015625)"/>
      <path id="DejaVuSans-6c" d="M 603 4863 
L 1178 4863 
L 1178 0 
L 603 0 
L 603 4863 
z
" transform="scale(0.015625)"/>
      <path id="DejaVuSans-28" d="M 1984 4856 
Q 1566 4138 1362 3434 
Q 1159 2731 1159 2009 
Q 1159 1288 1364 580 
Q 1569 -128 1984 -844 
L 1484 -844 
Q 1016 -109 783 600 
Q 550 1309 550 2009 
Q 550 2706 781 3412 
Q 1013 4119 1484 4856 
L 1984 4856 
z
" transform="scale(0.015625)"/>
      <path id="DejaVuSans-2d" d="M 313 2009 
L 1997 2009 
L 1997 1497 
L 313 1497 
L 313 2009 
z
" transform="scale(0.015625)"/>
      <path id="DejaVuSans-29" d="M 513 4856 
L 1013 4856 
Q 1481 4119 1714 3412 
Q 1947 2706 1947 2009 
Q 1947 1309 1714 600 
Q 1481 -109 1013 -844 
L 513 -844 
Q 928 -128 1133 580 
Q 1338 1288 1338 2009 
Q 1338 2731 1133 3434 
Q 928 4138 513 4856 
z
" transform="scale(0.015625)"/>
     </defs>
     <use xlink:href="#DejaVuSans-47"/>
     <use xlink:href="#DejaVuSans-61" transform="translate(77.490234 0)"/>
     <use xlink:href="#DejaVuSans-72" transform="translate(138.769531 0)"/>
     <use xlink:href="#DejaVuSans-79" transform="translate(179.882812 0)"/>
     <use xlink:href="#DejaVuSans-20" transform="translate(239.0625 0)"/>
     <use xlink:href="#DejaVuSans-54" transform="translate(270.849609 0)"/>
     <use xlink:href="#DejaVuSans-72" transform="translate(317.183594 0)"/>
     <use xlink:href="#DejaVuSans-65" transform="translate(356.046875 0)"/>
     <use xlink:href="#DejaVuSans-6e" transform="translate(417.570312 0)"/>
     <use xlink:href="#DejaVuSans-74" transform="translate(480.949219 0)"/>
     <use xlink:href="#DejaVuSans-20" transform="translate(520.158203 0)"/>
     <use xlink:href="#DejaVuSans-53" transform="translate(551.945312 0)"/>
     <use xlink:href="#DejaVuSans-63" transform="translate(615.421875 0)"/>
     <use xlink:href="#DejaVuSans-6f" transform="translate(670.402344 0)"/>
     <use xlink:href="#DejaVuSans-72" transform="translate(731.583984 0)"/>
     <use xlink:href="#DejaVuSans-69" transform="translate(772.697266 0)"/>
     <use xlink:href="#DejaVuSans-6e" transform="translate(800.480469 0)"/>
     <use xlink:href="#DejaVuSans-67" transform="translate(863.859375 0)"/>
     <use xlink:href="#DejaVuSans-20" transform="translate(927.335938 0)"/>
     <use xlink:href="#DejaVuSans-54" transform="translate(959.123047 0)"/>
     <use xlink:href="#DejaVuSans-69" transform="translate(1017.082031 0)"/>
     <use xlink:href="#DejaVuSans-6d" transform="translate(1044.865234 0)"/>
     <use xlink:href="#DejaVuSans-65" transform="translate(1142.277344 0)"/>
     <use xlink:href="#DejaVuSans-6c" transform="translate(1203.800781 0)"/>
     <use xlink:href="#DejaVuSans-69" transform="translate(1231.583984 0)"/>
     <use xlink:href="#DejaVuSans-6e" transform="translate(1259.367188 0)"/>
     <use xlink:href="#DejaVuSans-65" transform="translate(1322.746094 0)"/>
     <use xlink:href="#DejaVuSans-20" transform="translate(1384.269531 0)"/>
     <use xlink:href="#DejaVuSans-28" transform="translate(1416.056641 0)"/>
     <use xlink:href="#DejaVuSans-32" transform="translate(1455.070312 0)"/>
     <use xlink:href="#DejaVuSans-30" transform="translate(1518.693359 0)"/>
     <use xlink:href="#DejaVuSans-32" transform="translate(1582.316406 0)"/>
     <use xlink:href="#DejaVuSans-34" transform="translate(1645.939453 0)"/>
     <use xlink:href="#DejaVuSans-2d" transform="translate(1709.5625 0)"/>
     <use xlink:href="#DejaVuSans-32" transform="translate(1745.646484 0)"/>
     <use xlink:href="#DejaVuSans-35" transform="translate(1809.269531 0)"/>
     <use xlink:href="#DejaVuSans-29" transform="translate(1872.892578 0)"/>
    </g>
   </g>
   <g id="legend_1">
    <g id="patch_145">
     <path d="M 793.33125 93.5925 
L 846.2 93.5925 
Q 848.2 93.5925 848.2 91.5925 
L 848.2 33.88 
Q 848.2 31.88 846.2 31.88 
L 793.33125 31.88 
Q 791.33125 31.88 791.33125 33.88 
L 791.33125 91.5925 
Q 791.33125 93.5925 793.33125 93.5925 
z
" style="fill: #ffffff; opacity: 0.8; stroke: #cccccc; stroke-linejoin: miter"/>
    </g>
    <g id="text_21">
     <!-- Shot Type -->
     <g transform="translate(795.33125 43.478437) scale(0.1 -0.1)">
      <defs>
       <path id="DejaVuSans-68" d="M 3513 2113 
L 3513 0 
L 2938 0 
L 2938 2094 
Q 2938 2591 2744 2837 
Q 2550 3084 2163 3084 
Q 1697 3084 1428 2787 
Q 1159 2491 1159 1978 
L 1159 0 
L 581 0 
L 581 4863 
L 1159 4863 
L 1159 2956 
Q 1366 3272 1645 3428 
Q 1925 3584 2291 3584 
Q 2894 3584 3203 3211 
Q 3513 2838 3513 2113 
z
" transform="scale(0.015625)"/>
       <path id="DejaVuSans-70" d="M 1159 525 
L 1159 -1331 
L 581 -1331 
L 581 3500 
L 1159 3500 
L 1159 2969 
Q 1341 3281 1617 3432 
Q 1894 3584 2278 3584 
Q 2916 3584 3314 3078 
Q 3713 2572 3713 1747 
Q 3713 922 3314 415 
Q 2916 -91 2278 -91 
Q 1894 -91 1617 61 
Q 1341 213 1159 525 
z
M 3116 1747 
Q 3116 2381 2855 2742 
Q 2594 3103 2138 3103 
Q 1681 3103 1420 2742 
Q 1159 2381 1159 1747 
Q 1159 1113 1420 752 
Q 1681 391 2138 391 
Q 2594 391 2855 752 
Q 3116 1113 3116 1747 
z
" transform="scale(0.015625)"/>
      </defs>
      <use xlink:href="#DejaVuSans-53"/>
      <use xlink:href="#DejaVuSans-68" transform="translate(63.476562 0)"/>
      <use xlink:href="#DejaVuSans-6f" transform="translate(126.855469 0)"/>
      <use xlink:href="#DejaVuSans-74" transform="translate(188.037109 0)"/>
      <use xlink:href="#DejaVuSans-20" transform="translate(227.246094 0)"/>
      <use xlink:href="#DejaVuSans-54" transform="translate(259.033203 0)"/>
      <use xlink:href="#DejaVuSans-79" transform="translate(304.492188 0)"/>
      <use xlink:href="#DejaVuSans-70" transform="translate(363.671875 0)"/>
      <use xlink:href="#DejaVuSans-65" transform="translate(427.148438 0)"/>
     </g>
    </g>
    <g id="patch_146">
     <path d="M 796.515625 58.156563 
L 816.515625 58.156563 
L 816.515625 51.156563 
L 796.515625 51.156563 
z
" style="fill: #ffc107"/>
    </g>
    <g id="text_22">
     <!-- FT -->
     <g transform="translate(824.515625 58.156563) scale(0.1 -0.1)">
      <defs>
       <path id="DejaVuSans-46" d="M 628 4666 
L 3309 4666 
L 3309 4134 
L 1259 4134 
L 1259 2759 
L 3109 2759 
L 3109 2228 
L 1259 2228 
L 1259 0 
L 628 0 
L 628 4666 
z
" transform="scale(0.015625)"/>
      </defs>
      <use xlink:href="#DejaVuSans-46"/>
      <use xlink:href="#DejaVuSans-54" transform="translate(55.769531 0)"/>
     </g>
    </g>
    <g id="patch_147">
     <path d="M 796.515625 72.834688 
L 816.515625 72.834688 
L 816.515625 65.834688 
L 796.515625 65.834688 
z
" style="fill: #2196f3"/>
    </g>
    <g id="text_23">
     <!-- 2PT -->
     <g transform="translate(824.515625 72.834688) scale(0.1 -0.1)">
      <use xlink:href="#DejaVuSans-32"/>
      <use xlink:href="#DejaVuSans-50" transform="translate(63.623047 0)"/>
      <use xlink:href="#DejaVuSans-54" transform="translate(123.925781 0)"/>
     </g>
    </g>
    <g id="patch_148">
     <path d="M 796.515625 87.512812 
L 816.515625 87.512812 
L 816.515625 80.512812 
L 796.515625 80.512812 
z
" style="fill: #4caf50"/>
    </g>
    <g id="text_24">
     <!-- 3PT -->
     <g transform="translate(824.515625 87.512812) scale(0.1 -0.1)">
      <use xlink:href="#DejaVuSans-33"/>
      <use xlink:href="#DejaVuSans-50" transform="translate(63.623047 0)"/>
      <use xlink:href="#DejaVuSans-54" transform="translate(123.925781 0)"/>
     </g>
    </g>
   </g>
  </g>
 </g>
 <defs>
  <clipPath id="p5c866591d3">
   <rect x="44.57" y="26.88" width="808.63" height="429.075539"/>
  </clipPath>
 </defs>
</svg>
