<?xml version="1.0" encoding="utf-8" standalone="no"?>
<!DOCTYPE svg PUBLIC "-//W3C//DTD SVG 1.1//EN"
  "http://www.w3.org/Graphics/SVG/1.1/DTD/svg11.dtd">
<svg xmlns:xlink="http://www.w3.org/1999/xlink" width="864pt" height="504pt" viewBox="0 0 864 504" xmlns="http://www.w3.org/2000/svg" version="1.1">
 <metadata>
  <rdf:RDF xmlns:dc="http://purl.org/dc/elements/1.1/" xmlns:cc="http://creativecommons.org/ns#" xmlns:rdf="http://www.w3.org/1999/02/22-rdf-syntax-ns#">
   <cc:Work>
    <dc:type rdf:resource="http://purl.org/dc/dcmitype/StillImage"/>
    <dc:date>2025-08-24T04:39:33.904776</dc:date>
    <dc:format>image/svg+xml</dc:format>
    <dc:creator>
     <cc:Agent>
      <dc:title>Matplotlib v3.10.5, https://matplotlib.org/</dc:title>
     </cc:Agent>
    </dc:creator>
   </cc:Work>
  </rdf:RDF>
 </metadata>
 <defs>
  <style type="text/css">*{stroke-linejoin: round; stroke-linecap: butt}</style>
 </defs>
 <g id="figure_1">
  <g id="patch_1">
   <path d="M 0 504 
L 864 504 
L 864 0 
L 0 0 
z
" style="fill: #ffffff"/>
  </g>
  <g id="axes_1">
   <g id="patch_2">
    <path d="M 44.57 455.955539 
L 853.2 455.955539 
L 853.2 26.88 
L 44.57 26.88 
z
" style="fill: #ffffff"/>
   </g>
   <g id="patch_3">
    <path d="M 48.160719 455.955539 
L 59.651021 455.955539 
L 59.651021 443.936616 
L 48.160719 443.936616 
z
" clip-path="url(#p097013e89c)" style="fill: #ffc107"/>
   </g>
   <g id="patch_4">
    <path d="M 62.523597 455.955539 
L 74.013899 455.955539 
L 74.013899 443.936616 
L 62.523597 443.936616 
z
" clip-path="url(#p097013e89c)" style="fill: #ffc107"/>
   </g>
   <g id="patch_5">
    <path d="M 76.886474 455.955539 
L 88.376776 455.955539 
L 88.376776 419.898771 
L 76.886474 419.898771 
z
" clip-path="url(#p097013e89c)" style="fill: #ffc107"/>
   </g>
   <g id="patch_6">
    <path d="M 91.249352 455.955539 
L 102.739654 455.955539 
L 102.739654 443.936616 
L 91.249352 443.936616 
z
" clip-path="url(#p097013e89c)" style="fill: #ffc107"/>
   </g>
   <g id="patch_7">
    <path d="M 105.612229 455.955539 
L 117.102531 455.955539 
L 117.102531 425.908232 
L 105.612229 425.908232 
z
" clip-path="url(#p097013e89c)" style="fill: #ffc107"/>
   </g>
   <g id="patch_8">
    <path d="M 119.975107 455.955539 
L 131.465409 455.955539 
L 131.465409 407.879848 
L 119.975107 407.879848 
z
" clip-path="url(#p097013e89c)" style="fill: #ffc107"/>
   </g>
   <g id="patch_9">
    <path d="M 134.337984 455.955539 
L 145.828286 455.955539 
L 145.828286 437.927155 
L 134.337984 437.927155 
z
" clip-path="url(#p097013e89c)" style="fill: #ffc107"/>
   </g>
   <g id="patch_10">
    <path d="M 148.700861 455.955539 
L 160.191163 455.955539 
L 160.191163 425.908232 
L 148.700861 425.908232 
z
" clip-path="url(#p097013e89c)" style="fill: #ffc107"/>
   </g>
   <g id="patch_11">
    <path d="M 163.063739 455.955539 
L 174.554041 455.955539 
L 174.554041 365.813619 
L 163.063739 365.813619 
z
" clip-path="url(#p097013e89c)" style="fill: #ffc107"/>
   </g>
   <g id="patch_12">
    <path d="M 177.426616 455.955539 
L 188.916918 455.955539 
L 188.916918 407.879848 
L 177.426616 407.879848 
z
" clip-path="url(#p097013e89c)" style="fill: #ffc107"/>
   </g>
   <g id="patch_13">
    <path d="M 191.789494 455.955539 
L 203.279796 455.955539 
L 203.279796 377.832542 
L 191.789494 377.832542 
z
" clip-path="url(#p097013e89c)" style="fill: #ffc107"/>
   </g>
   <g id="patch_14">
    <path d="M 206.152371 455.955539 
L 217.642673 455.955539 
L 217.642673 395.860926 
L 206.152371 395.860926 
z
" clip-path="url(#p097013e89c)" style="fill: #ffc107"/>
   </g>
   <g id="patch_15">
    <path d="M 220.515249 455.955539 
L 232.005551 455.955539 
L 232.005551 443.936616 
L 220.515249 443.936616 
z
" clip-path="url(#p097013e89c)" style="fill: #ffc107"/>
   </g>
   <g id="patch_16">
    <path d="M 234.878126 455.955539 
L 246.368428 455.955539 
L 246.368428 395.860926 
L 234.878126 395.860926 
z
" clip-path="url(#p097013e89c)" style="fill: #ffc107"/>
   </g>
   <g id="patch_17">
    <path d="M 249.241004 455.955539 
L 260.731306 455.955539 
L 260.731306 389.851464 
L 249.241004 389.851464 
z
" clip-path="url(#p097013e89c)" style="fill: #ffc107"/>
   </g>
   <g id="patch_18">
    <path d="M 263.603881 455.955539 
L 275.094183 455.955539 
L 275.094183 383.842003 
L 263.603881 383.842003 
z
" clip-path="url(#p097013e89c)" style="fill: #ffc107"/>
   </g>
   <g id="patch_19">
    <path d="M 277.966758 455.955539 
L 289.45706 455.955539 
L 289.45706 365.813619 
L 277.966758 365.813619 
z
" clip-path="url(#p097013e89c)" style="fill: #ffc107"/>
   </g>
   <g id="patch_20">
    <path d="M 292.329636 455.955539 
L 303.819938 455.955539 
L 303.819938 413.88931 
L 292.329636 413.88931 
z
" clip-path="url(#p097013e89c)" style="fill: #ffc107"/>
   </g>
   <g id="patch_21">
    <path d="M 306.692513 455.955539 
L 318.182815 455.955539 
L 318.182815 353.794696 
L 306.692513 353.794696 
z
" clip-path="url(#p097013e89c)" style="fill: #ffc107"/>
   </g>
   <g id="patch_22">
    <path d="M 321.055391 455.955539 
L 332.545693 455.955539 
L 332.545693 425.908232 
L 321.055391 425.908232 
z
" clip-path="url(#p097013e89c)" style="fill: #ffc107"/>
   </g>
   <g id="patch_23">
    <path d="M 335.418268 455.955539 
L 346.90857 455.955539 
L 346.90857 395.860926 
L 335.418268 395.860926 
z
" clip-path="url(#p097013e89c)" style="fill: #ffc107"/>
   </g>
   <g id="patch_24">
    <path d="M 349.781146 455.955539 
L 361.271448 455.955539 
L 361.271448 407.879848 
L 349.781146 407.879848 
z
" clip-path="url(#p097013e89c)" style="fill: #ffc107"/>
   </g>
   <g id="patch_25">
    <path d="M 364.144023 455.955539 
L 375.634325 455.955539 
L 375.634325 341.775774 
L 364.144023 341.775774 
z
" clip-path="url(#p097013e89c)" style="fill: #ffc107"/>
   </g>
   <g id="patch_26">
    <path d="M 378.506901 455.955539 
L 389.997202 455.955539 
L 389.997202 335.766312 
L 378.506901 335.766312 
z
" clip-path="url(#p097013e89c)" style="fill: #ffc107"/>
   </g>
   <g id="patch_27">
    <path d="M 392.869778 455.955539 
L 404.36008 455.955539 
L 404.36008 425.908232 
L 392.869778 425.908232 
z
" clip-path="url(#p097013e89c)" style="fill: #ffc107"/>
   </g>
   <g id="patch_28">
    <path d="M 407.232655 455.955539 
L 418.722957 455.955539 
L 418.722957 413.88931 
L 407.232655 413.88931 
z
" clip-path="url(#p097013e89c)" style="fill: #ffc107"/>
   </g>
   <g id="patch_29">
    <path d="M 421.595533 455.955539 
L 433.085835 455.955539 
L 433.085835 413.88931 
L 421.595533 413.88931 
z
" clip-path="url(#p097013e89c)" style="fill: #ffc107"/>
   </g>
   <g id="patch_30">
    <path d="M 435.95841 455.955539 
L 447.448712 455.955539 
L 447.448712 413.88931 
L 435.95841 413.88931 
z
" clip-path="url(#p097013e89c)" style="fill: #ffc107"/>
   </g>
   <g id="patch_31">
    <path d="M 450.321288 455.955539 
L 461.81159 455.955539 
L 461.81159 407.879848 
L 450.321288 407.879848 
z
" clip-path="url(#p097013e89c)" style="fill: #ffc107"/>
   </g>
   <g id="patch_32">
    <path d="M 464.684165 455.955539 
L 476.174467 455.955539 
L 476.174467 383.842003 
L 464.684165 383.842003 
z
" clip-path="url(#p097013e89c)" style="fill: #ffc107"/>
   </g>
   <g id="patch_33">
    <path d="M 479.047043 455.955539 
L 490.537345 455.955539 
L 490.537345 383.842003 
L 479.047043 383.842003 
z
" clip-path="url(#p097013e89c)" style="fill: #ffc107"/>
   </g>
   <g id="patch_34">
    <path d="M 493.40992 455.955539 
L 504.900222 455.955539 
L 504.900222 389.851464 
L 493.40992 389.851464 
z
" clip-path="url(#p097013e89c)" style="fill: #ffc107"/>
   </g>
   <g id="patch_35">
    <path d="M 507.772798 455.955539 
L 519.263099 455.955539 
L 519.263099 377.832542 
L 507.772798 377.832542 
z
" clip-path="url(#p097013e89c)" style="fill: #ffc107"/>
   </g>
   <g id="patch_36">
    <path d="M 522.135675 455.955539 
L 533.625977 455.955539 
L 533.625977 371.82308 
L 522.135675 371.82308 
z
" clip-path="url(#p097013e89c)" style="fill: #ffc107"/>
   </g>
   <g id="patch_37">
    <path d="M 536.498552 455.955539 
L 547.988854 455.955539 
L 547.988854 449.946078 
L 536.498552 449.946078 
z
" clip-path="url(#p097013e89c)" style="fill: #ffc107"/>
   </g>
   <g id="patch_38">
    <path d="M 550.86143 455.955539 
L 562.351732 455.955539 
L 562.351732 395.860926 
L 550.86143 395.860926 
z
" clip-path="url(#p097013e89c)" style="fill: #ffc107"/>
   </g>
   <g id="patch_39">
    <path d="M 565.224307 455.955539 
L 576.714609 455.955539 
L 576.714609 407.879848 
L 565.224307 407.879848 
z
" clip-path="url(#p097013e89c)" style="fill: #ffc107"/>
   </g>
   <g id="patch_40">
    <path d="M 579.587185 455.955539 
L 591.077487 455.955539 
L 591.077487 395.860926 
L 579.587185 395.860926 
z
" clip-path="url(#p097013e89c)" style="fill: #ffc107"/>
   </g>
   <g id="patch_41">
    <path d="M 593.950062 455.955539 
L 605.440364 455.955539 
L 605.440364 437.927155 
L 593.950062 437.927155 
z
" clip-path="url(#p097013e89c)" style="fill: #ffc107"/>
   </g>
   <g id="patch_42">
    <path d="M 608.31294 455.955539 
L 619.803242 455.955539 
L 619.803242 407.879848 
L 608.31294 407.879848 
z
" clip-path="url(#p097013e89c)" style="fill: #ffc107"/>
   </g>
   <g id="patch_43">
    <path d="M 622.675817 455.955539 
L 634.166119 455.955539 
L 634.166119 365.813619 
L 622.675817 365.813619 
z
" clip-path="url(#p097013e89c)" style="fill: #ffc107"/>
   </g>
   <g id="patch_44">
    <path d="M 637.038694 455.955539 
L 648.528996 455.955539 
L 648.528996 371.82308 
L 637.038694 371.82308 
z
" clip-path="url(#p097013e89c)" style="fill: #ffc107"/>
   </g>
   <g id="patch_45">
    <path d="M 651.401572 455.955539 
L 662.891874 455.955539 
L 662.891874 407.879848 
L 651.401572 407.879848 
z
" clip-path="url(#p097013e89c)" style="fill: #ffc107"/>
   </g>
   <g id="patch_46">
    <path d="M 665.764449 455.955539 
L 677.254751 455.955539 
L 677.254751 413.88931 
L 665.764449 413.88931 
z
" clip-path="url(#p097013e89c)" style="fill: #ffc107"/>
   </g>
   <g id="patch_47">
    <path d="M 680.127327 455.955539 
L 691.617629 455.955539 
L 691.617629 407.879848 
L 680.127327 407.879848 
z
" clip-path="url(#p097013e89c)" style="fill: #ffc107"/>
   </g>
   <g id="patch_48">
    <path d="M 694.490204 455.955539 
L 705.980506 455.955539 
L 705.980506 401.870387 
L 694.490204 401.870387 
z
" clip-path="url(#p097013e89c)" style="fill: #ffc107"/>
   </g>
   <g id="patch_49">
    <path d="M 708.853082 455.955539 
L 720.343384 455.955539 
L 720.343384 401.870387 
L 708.853082 401.870387 
z
" clip-path="url(#p097013e89c)" style="fill: #ffc107"/>
   </g>
   <g id="patch_50">
    <path d="M 723.215959 455.955539 
L 734.706261 455.955539 
L 734.706261 401.870387 
L 723.215959 401.870387 
z
" clip-path="url(#p097013e89c)" style="fill: #ffc107"/>
   </g>
   <g id="patch_51">
    <path d="M 737.578837 455.955539 
L 749.069139 455.955539 
L 749.069139 449.946078 
L 737.578837 449.946078 
z
" clip-path="url(#p097013e89c)" style="fill: #ffc107"/>
   </g>
   <g id="patch_52">
    <path d="M 751.941714 455.955539 
L 763.432016 455.955539 
L 763.432016 449.946078 
L 751.941714 449.946078 
z
" clip-path="url(#p097013e89c)" style="fill: #ffc107"/>
   </g>
   <g id="patch_53">
    <path d="M 766.304591 455.955539 
L 777.794893 455.955539 
L 777.794893 437.927155 
L 766.304591 437.927155 
z
" clip-path="url(#p097013e89c)" style="fill: #ffc107"/>
   </g>
   <g id="patch_54">
    <path d="M 780.667469 455.955539 
L 792.157771 455.955539 
L 792.157771 443.936616 
L 780.667469 443.936616 
z
" clip-path="url(#p097013e89c)" style="fill: #ffc107"/>
   </g>
   <g id="patch_55">
    <path d="M 795.030346 455.955539 
L 806.520648 455.955539 
L 806.520648 431.917694 
L 795.030346 431.917694 
z
" clip-path="url(#p097013e89c)" style="fill: #ffc107"/>
   </g>
   <g id="patch_56">
    <path d="M 809.393224 455.955539 
L 820.883526 455.955539 
L 820.883526 455.955539 
L 809.393224 455.955539 
z
" clip-path="url(#p097013e89c)" style="fill: #ffc107"/>
   </g>
   <g id="patch_57">
    <path d="M 823.756101 455.955539 
L 835.246403 455.955539 
L 835.246403 455.955539 
L 823.756101 455.955539 
z
" clip-path="url(#p097013e89c)" style="fill: #ffc107"/>
   </g>
   <g id="patch_58">
    <path d="M 838.118979 455.955539 
L 849.609281 455.955539 
L 849.609281 455.955539 
L 838.118979 455.955539 
z
" clip-path="url(#p097013e89c)" style="fill: #ffc107"/>
   </g>
   <g id="patch_59">
    <path d="M 48.160719 443.936616 
L 59.651021 443.936616 
L 59.651021 347.785235 
L 48.160719 347.785235 
z
" clip-path="url(#p097013e89c)" style="fill: #2196f3"/>
   </g>
   <g id="patch_60">
    <path d="M 62.523597 443.936616 
L 74.013899 443.936616 
L 74.013899 323.74739 
L 62.523597 323.74739 
z
" clip-path="url(#p097013e89c)" style="fill: #2196f3"/>
   </g>
   <g id="patch_61">
    <path d="M 76.886474 419.898771 
L 88.376776 419.898771 
L 88.376776 275.671699 
L 76.886474 275.671699 
z
" clip-path="url(#p097013e89c)" style="fill: #2196f3"/>
   </g>
   <g id="patch_62">
    <path d="M 91.249352 443.936616 
L 102.739654 443.936616 
L 102.739654 239.614931 
L 91.249352 239.614931 
z
" clip-path="url(#p097013e89c)" style="fill: #2196f3"/>
   </g>
   <g id="patch_63">
    <path d="M 105.612229 425.908232 
L 117.102531 425.908232 
L 117.102531 257.643315 
L 105.612229 257.643315 
z
" clip-path="url(#p097013e89c)" style="fill: #2196f3"/>
   </g>
   <g id="patch_64">
    <path d="M 119.975107 407.879848 
L 131.465409 407.879848 
L 131.465409 251.633854 
L 119.975107 251.633854 
z
" clip-path="url(#p097013e89c)" style="fill: #2196f3"/>
   </g>
   <g id="patch_65">
    <path d="M 134.337984 437.927155 
L 145.828286 437.927155 
L 145.828286 245.624392 
L 134.337984 245.624392 
z
" clip-path="url(#p097013e89c)" style="fill: #2196f3"/>
   </g>
   <g id="patch_66">
    <path d="M 148.700861 425.908232 
L 160.191163 425.908232 
L 160.191163 365.813619 
L 148.700861 365.813619 
z
" clip-path="url(#p097013e89c)" style="fill: #2196f3"/>
   </g>
   <g id="patch_67">
    <path d="M 163.063739 365.813619 
L 174.554041 365.813619 
L 174.554041 269.662238 
L 163.063739 269.662238 
z
" clip-path="url(#p097013e89c)" style="fill: #2196f3"/>
   </g>
   <g id="patch_68">
    <path d="M 177.426616 407.879848 
L 188.916918 407.879848 
L 188.916918 263.652776 
L 177.426616 263.652776 
z
" clip-path="url(#p097013e89c)" style="fill: #2196f3"/>
   </g>
   <g id="patch_69">
    <path d="M 191.789494 377.832542 
L 203.279796 377.832542 
L 203.279796 305.719006 
L 191.789494 305.719006 
z
" clip-path="url(#p097013e89c)" style="fill: #2196f3"/>
   </g>
   <g id="patch_70">
    <path d="M 206.152371 395.860926 
L 217.642673 395.860926 
L 217.642673 335.766312 
L 206.152371 335.766312 
z
" clip-path="url(#p097013e89c)" style="fill: #2196f3"/>
   </g>
   <g id="patch_71">
    <path d="M 220.515249 443.936616 
L 232.005551 443.936616 
L 232.005551 395.860926 
L 220.515249 395.860926 
z
" clip-path="url(#p097013e89c)" style="fill: #2196f3"/>
   </g>
   <g id="patch_72">
    <path d="M 234.878126 395.860926 
L 246.368428 395.860926 
L 246.368428 299.709544 
L 234.878126 299.709544 
z
" clip-path="url(#p097013e89c)" style="fill: #2196f3"/>
   </g>
   <g id="patch_73">
    <path d="M 249.241004 389.851464 
L 260.731306 389.851464 
L 260.731306 293.700083 
L 249.241004 293.700083 
z
" clip-path="url(#p097013e89c)" style="fill: #2196f3"/>
   </g>
   <g id="patch_74">
    <path d="M 263.603881 383.842003 
L 275.094183 383.842003 
L 275.094183 263.652776 
L 263.603881 263.652776 
z
" clip-path="url(#p097013e89c)" style="fill: #2196f3"/>
   </g>
   <g id="patch_75">
    <path d="M 277.966758 365.813619 
L 289.45706 365.813619 
L 289.45706 209.567624 
L 277.966758 209.567624 
z
" clip-path="url(#p097013e89c)" style="fill: #2196f3"/>
   </g>
   <g id="patch_76">
    <path d="M 292.329636 413.88931 
L 303.819938 413.88931 
L 303.819938 281.68116 
L 292.329636 281.68116 
z
" clip-path="url(#p097013e89c)" style="fill: #2196f3"/>
   </g>
   <g id="patch_77">
    <path d="M 306.692513 353.794696 
L 318.182815 353.794696 
L 318.182815 221.586547 
L 306.692513 221.586547 
z
" clip-path="url(#p097013e89c)" style="fill: #2196f3"/>
   </g>
   <g id="patch_78">
    <path d="M 321.055391 425.908232 
L 332.545693 425.908232 
L 332.545693 293.700083 
L 321.055391 293.700083 
z
" clip-path="url(#p097013e89c)" style="fill: #2196f3"/>
   </g>
   <g id="patch_79">
    <path d="M 335.418268 395.860926 
L 346.90857 395.860926 
L 346.90857 215.577086 
L 335.418268 215.577086 
z
" clip-path="url(#p097013e89c)" style="fill: #2196f3"/>
   </g>
   <g id="patch_80">
    <path d="M 349.781146 407.879848 
L 361.271448 407.879848 
L 361.271448 251.633854 
L 349.781146 251.633854 
z
" clip-path="url(#p097013e89c)" style="fill: #2196f3"/>
   </g>
   <g id="patch_81">
    <path d="M 364.144023 341.775774 
L 375.634325 341.775774 
L 375.634325 173.510856 
L 364.144023 173.510856 
z
" clip-path="url(#p097013e89c)" style="fill: #2196f3"/>
   </g>
   <g id="patch_82">
    <path d="M 378.506901 335.766312 
L 389.997202 335.766312 
L 389.997202 143.46355 
L 378.506901 143.46355 
z
" clip-path="url(#p097013e89c)" style="fill: #2196f3"/>
   </g>
   <g id="patch_83">
    <path d="M 392.869778 425.908232 
L 404.36008 425.908232 
L 404.36008 305.719006 
L 392.869778 305.719006 
z
" clip-path="url(#p097013e89c)" style="fill: #2196f3"/>
   </g>
   <g id="patch_84">
    <path d="M 407.232655 413.88931 
L 418.722957 413.88931 
L 418.722957 281.68116 
L 407.232655 281.68116 
z
" clip-path="url(#p097013e89c)" style="fill: #2196f3"/>
   </g>
   <g id="patch_85">
    <path d="M 421.595533 413.88931 
L 433.085835 413.88931 
L 433.085835 221.586547 
L 421.595533 221.586547 
z
" clip-path="url(#p097013e89c)" style="fill: #2196f3"/>
   </g>
   <g id="patch_86">
    <path d="M 435.95841 413.88931 
L 447.448712 413.88931 
L 447.448712 257.643315 
L 435.95841 257.643315 
z
" clip-path="url(#p097013e89c)" style="fill: #2196f3"/>
   </g>
   <g id="patch_87">
    <path d="M 450.321288 407.879848 
L 461.81159 407.879848 
L 461.81159 287.690622 
L 450.321288 287.690622 
z
" clip-path="url(#p097013e89c)" style="fill: #2196f3"/>
   </g>
   <g id="patch_88">
    <path d="M 464.684165 383.842003 
L 476.174467 383.842003 
L 476.174467 275.671699 
L 464.684165 275.671699 
z
" clip-path="url(#p097013e89c)" style="fill: #2196f3"/>
   </g>
   <g id="patch_89">
    <path d="M 479.047043 383.842003 
L 490.537345 383.842003 
L 490.537345 287.690622 
L 479.047043 287.690622 
z
" clip-path="url(#p097013e89c)" style="fill: #2196f3"/>
   </g>
   <g id="patch_90">
    <path d="M 493.40992 389.851464 
L 504.900222 389.851464 
L 504.900222 245.624392 
L 493.40992 245.624392 
z
" clip-path="url(#p097013e89c)" style="fill: #2196f3"/>
   </g>
   <g id="patch_91">
    <path d="M 507.772798 377.832542 
L 519.263099 377.832542 
L 519.263099 293.700083 
L 507.772798 293.700083 
z
" clip-path="url(#p097013e89c)" style="fill: #2196f3"/>
   </g>
   <g id="patch_92">
    <path d="M 522.135675 371.82308 
L 533.625977 371.82308 
L 533.625977 251.633854 
L 522.135675 251.633854 
z
" clip-path="url(#p097013e89c)" style="fill: #2196f3"/>
   </g>
   <g id="patch_93">
    <path d="M 536.498552 449.946078 
L 547.988854 449.946078 
L 547.988854 365.813619 
L 536.498552 365.813619 
z
" clip-path="url(#p097013e89c)" style="fill: #2196f3"/>
   </g>
   <g id="patch_94">
    <path d="M 550.86143 395.860926 
L 562.351732 395.860926 
L 562.351732 311.728467 
L 550.86143 311.728467 
z
" clip-path="url(#p097013e89c)" style="fill: #2196f3"/>
   </g>
   <g id="patch_95">
    <path d="M 565.224307 407.879848 
L 576.714609 407.879848 
L 576.714609 299.709544 
L 565.224307 299.709544 
z
" clip-path="url(#p097013e89c)" style="fill: #2196f3"/>
   </g>
   <g id="patch_96">
    <path d="M 579.587185 395.860926 
L 591.077487 395.860926 
L 591.077487 287.690622 
L 579.587185 287.690622 
z
" clip-path="url(#p097013e89c)" style="fill: #2196f3"/>
   </g>
   <g id="patch_97">
    <path d="M 593.950062 437.927155 
L 605.440364 437.927155 
L 605.440364 305.719006 
L 593.950062 305.719006 
z
" clip-path="url(#p097013e89c)" style="fill: #2196f3"/>
   </g>
   <g id="patch_98">
    <path d="M 608.31294 407.879848 
L 619.803242 407.879848 
L 619.803242 251.633854 
L 608.31294 251.633854 
z
" clip-path="url(#p097013e89c)" style="fill: #2196f3"/>
   </g>
   <g id="patch_99">
    <path d="M 622.675817 365.813619 
L 634.166119 365.813619 
L 634.166119 221.586547 
L 622.675817 221.586547 
z
" clip-path="url(#p097013e89c)" style="fill: #2196f3"/>
   </g>
   <g id="patch_100">
    <path d="M 637.038694 371.82308 
L 648.528996 371.82308 
L 648.528996 191.53924 
L 637.038694 191.53924 
z
" clip-path="url(#p097013e89c)" style="fill: #2196f3"/>
   </g>
   <g id="patch_101">
    <path d="M 651.401572 407.879848 
L 662.891874 407.879848 
L 662.891874 155.482472 
L 651.401572 155.482472 
z
" clip-path="url(#p097013e89c)" style="fill: #2196f3"/>
   </g>
   <g id="patch_102">
    <path d="M 665.764449 413.88931 
L 677.254751 413.88931 
L 677.254751 281.68116 
L 665.764449 281.68116 
z
" clip-path="url(#p097013e89c)" style="fill: #2196f3"/>
   </g>
   <g id="patch_103">
    <path d="M 680.127327 407.879848 
L 691.617629 407.879848 
L 691.617629 287.690622 
L 680.127327 287.690622 
z
" clip-path="url(#p097013e89c)" style="fill: #2196f3"/>
   </g>
   <g id="patch_104">
    <path d="M 694.490204 401.870387 
L 705.980506 401.870387 
L 705.980506 197.548702 
L 694.490204 197.548702 
z
" clip-path="url(#p097013e89c)" style="fill: #2196f3"/>
   </g>
   <g id="patch_105">
    <path d="M 708.853082 401.870387 
L 720.343384 401.870387 
L 720.343384 293.700083 
L 708.853082 293.700083 
z
" clip-path="url(#p097013e89c)" style="fill: #2196f3"/>
   </g>
   <g id="patch_106">
    <path d="M 723.215959 401.870387 
L 734.706261 401.870387 
L 734.706261 269.662238 
L 723.215959 269.662238 
z
" clip-path="url(#p097013e89c)" style="fill: #2196f3"/>
   </g>
   <g id="patch_107">
    <path d="M 737.578837 449.946078 
L 749.069139 449.946078 
L 749.069139 425.908232 
L 737.578837 425.908232 
z
" clip-path="url(#p097013e89c)" style="fill: #2196f3"/>
   </g>
   <g id="patch_108">
    <path d="M 751.941714 449.946078 
L 763.432016 449.946078 
L 763.432016 425.908232 
L 751.941714 425.908232 
z
" clip-path="url(#p097013e89c)" style="fill: #2196f3"/>
   </g>
   <g id="patch_109">
    <path d="M 766.304591 437.927155 
L 777.794893 437.927155 
L 777.794893 413.88931 
L 766.304591 413.88931 
z
" clip-path="url(#p097013e89c)" style="fill: #2196f3"/>
   </g>
   <g id="patch_110">
    <path d="M 780.667469 443.936616 
L 792.157771 443.936616 
L 792.157771 431.917694 
L 780.667469 431.917694 
z
" clip-path="url(#p097013e89c)" style="fill: #2196f3"/>
   </g>
   <g id="patch_111">
    <path d="M 795.030346 431.917694 
L 806.520648 431.917694 
L 806.520648 407.879848 
L 795.030346 407.879848 
z
" clip-path="url(#p097013e89c)" style="fill: #2196f3"/>
   </g>
   <g id="patch_112">
    <path d="M 809.393224 455.955539 
L 820.883526 455.955539 
L 820.883526 455.955539 
L 809.393224 455.955539 
z
" clip-path="url(#p097013e89c)" style="fill: #2196f3"/>
   </g>
   <g id="patch_113">
    <path d="M 823.756101 455.955539 
L 835.246403 455.955539 
L 835.246403 431.917694 
L 823.756101 431.917694 
z
" clip-path="url(#p097013e89c)" style="fill: #2196f3"/>
   </g>
   <g id="patch_114">
    <path d="M 838.118979 455.955539 
L 849.609281 455.955539 
L 849.609281 443.936616 
L 838.118979 443.936616 
z
" clip-path="url(#p097013e89c)" style="fill: #2196f3"/>
   </g>
   <g id="patch_115">
    <path d="M 48.160719 455.955539 
L 59.651021 455.955539 
L 59.651021 455.955539 
L 48.160719 455.955539 
z
" clip-path="url(#p097013e89c)" style="fill: #4caf50"/>
   </g>
   <g id="patch_116">
    <path d="M 62.523597 323.74739 
L 74.013899 323.74739 
L 74.013899 287.690622 
L 62.523597 287.690622 
z
" clip-path="url(#p097013e89c)" style="fill: #4caf50"/>
   </g>
   <g id="patch_117">
    <path d="M 76.886474 275.671699 
L 88.376776 275.671699 
L 88.376776 239.614931 
L 76.886474 239.614931 
z
" clip-path="url(#p097013e89c)" style="fill: #4caf50"/>
   </g>
   <g id="patch_118">
    <path d="M 91.249352 455.955539 
L 102.739654 455.955539 
L 102.739654 455.955539 
L 91.249352 455.955539 
z
" clip-path="url(#p097013e89c)" style="fill: #4caf50"/>
   </g>
   <g id="patch_119">
    <path d="M 105.612229 257.643315 
L 117.102531 257.643315 
L 117.102531 203.558163 
L 105.612229 203.558163 
z
" clip-path="url(#p097013e89c)" style="fill: #4caf50"/>
   </g>
   <g id="patch_120">
    <path d="M 119.975107 251.633854 
L 131.465409 251.633854 
L 131.465409 233.60547 
L 119.975107 233.60547 
z
" clip-path="url(#p097013e89c)" style="fill: #4caf50"/>
   </g>
   <g id="patch_121">
    <path d="M 134.337984 245.624392 
L 145.828286 245.624392 
L 145.828286 227.596008 
L 134.337984 227.596008 
z
" clip-path="url(#p097013e89c)" style="fill: #4caf50"/>
   </g>
   <g id="patch_122">
    <path d="M 148.700861 365.813619 
L 160.191163 365.813619 
L 160.191163 347.785235 
L 148.700861 347.785235 
z
" clip-path="url(#p097013e89c)" style="fill: #4caf50"/>
   </g>
   <g id="patch_123">
    <path d="M 163.063739 269.662238 
L 174.554041 269.662238 
L 174.554041 233.60547 
L 163.063739 233.60547 
z
" clip-path="url(#p097013e89c)" style="fill: #4caf50"/>
   </g>
   <g id="patch_124">
    <path d="M 177.426616 455.955539 
L 188.916918 455.955539 
L 188.916918 455.955539 
L 177.426616 455.955539 
z
" clip-path="url(#p097013e89c)" style="fill: #4caf50"/>
   </g>
   <g id="patch_125">
    <path d="M 191.789494 455.955539 
L 203.279796 455.955539 
L 203.279796 455.955539 
L 191.789494 455.955539 
z
" clip-path="url(#p097013e89c)" style="fill: #4caf50"/>
   </g>
   <g id="patch_126">
    <path d="M 206.152371 335.766312 
L 217.642673 335.766312 
L 217.642673 317.737928 
L 206.152371 317.737928 
z
" clip-path="url(#p097013e89c)" style="fill: #4caf50"/>
   </g>
   <g id="patch_127">
    <path d="M 220.515249 395.860926 
L 232.005551 395.860926 
L 232.005551 377.832542 
L 220.515249 377.832542 
z
" clip-path="url(#p097013e89c)" style="fill: #4caf50"/>
   </g>
   <g id="patch_128">
    <path d="M 234.878126 299.709544 
L 246.368428 299.709544 
L 246.368428 281.68116 
L 234.878126 281.68116 
z
" clip-path="url(#p097013e89c)" style="fill: #4caf50"/>
   </g>
   <g id="patch_129">
    <path d="M 249.241004 293.700083 
L 260.731306 293.700083 
L 260.731306 239.614931 
L 249.241004 239.614931 
z
" clip-path="url(#p097013e89c)" style="fill: #4caf50"/>
   </g>
   <g id="patch_130">
    <path d="M 263.603881 263.652776 
L 275.094183 263.652776 
L 275.094183 245.624392 
L 263.603881 245.624392 
z
" clip-path="url(#p097013e89c)" style="fill: #4caf50"/>
   </g>
   <g id="patch_131">
    <path d="M 277.966758 209.567624 
L 289.45706 209.567624 
L 289.45706 191.53924 
L 277.966758 191.53924 
z
" clip-path="url(#p097013e89c)" style="fill: #4caf50"/>
   </g>
   <g id="patch_132">
    <path d="M 292.329636 281.68116 
L 303.819938 281.68116 
L 303.819938 227.596008 
L 292.329636 227.596008 
z
" clip-path="url(#p097013e89c)" style="fill: #4caf50"/>
   </g>
   <g id="patch_133">
    <path d="M 306.692513 221.586547 
L 318.182815 221.586547 
L 318.182815 185.529779 
L 306.692513 185.529779 
z
" clip-path="url(#p097013e89c)" style="fill: #4caf50"/>
   </g>
   <g id="patch_134">
    <path d="M 321.055391 293.700083 
L 332.545693 293.700083 
L 332.545693 221.586547 
L 321.055391 221.586547 
z
" clip-path="url(#p097013e89c)" style="fill: #4caf50"/>
   </g>
   <g id="patch_135">
    <path d="M 335.418268 455.955539 
L 346.90857 455.955539 
L 346.90857 455.955539 
L 335.418268 455.955539 
z
" clip-path="url(#p097013e89c)" style="fill: #4caf50"/>
   </g>
   <g id="patch_136">
    <path d="M 349.781146 251.633854 
L 361.271448 251.633854 
L 361.271448 233.60547 
L 349.781146 233.60547 
z
" clip-path="url(#p097013e89c)" style="fill: #4caf50"/>
   </g>
   <g id="patch_137">
    <path d="M 364.144023 173.510856 
L 375.634325 173.510856 
L 375.634325 155.482472 
L 364.144023 155.482472 
z
" clip-path="url(#p097013e89c)" style="fill: #4caf50"/>
   </g>
   <g id="patch_138">
    <path d="M 378.506901 143.46355 
L 389.997202 143.46355 
L 389.997202 89.378398 
L 378.506901 89.378398 
z
" clip-path="url(#p097013e89c)" style="fill: #4caf50"/>
   </g>
   <g id="patch_139">
    <path d="M 392.869778 305.719006 
L 404.36008 305.719006 
L 404.36008 269.662238 
L 392.869778 269.662238 
z
" clip-path="url(#p097013e89c)" style="fill: #4caf50"/>
   </g>
   <g id="patch_140">
    <path d="M 407.232655 281.68116 
L 418.722957 281.68116 
L 418.722957 227.596008 
L 407.232655 227.596008 
z
" clip-path="url(#p097013e89c)" style="fill: #4caf50"/>
   </g>
   <g id="patch_141">
    <path d="M 421.595533 455.955539 
L 433.085835 455.955539 
L 433.085835 455.955539 
L 421.595533 455.955539 
z
" clip-path="url(#p097013e89c)" style="fill: #4caf50"/>
   </g>
   <g id="patch_142">
    <path d="M 435.95841 257.643315 
L 447.448712 257.643315 
L 447.448712 185.529779 
L 435.95841 185.529779 
z
" clip-path="url(#p097013e89c)" style="fill: #4caf50"/>
   </g>
   <g id="patch_143">
    <path d="M 450.321288 287.690622 
L 461.81159 287.690622 
L 461.81159 251.633854 
L 450.321288 251.633854 
z
" clip-path="url(#p097013e89c)" style="fill: #4caf50"/>
   </g>
   <g id="patch_144">
    <path d="M 464.684165 275.671699 
L 476.174467 275.671699 
L 476.174467 221.586547 
L 464.684165 221.586547 
z
" clip-path="url(#p097013e89c)" style="fill: #4caf50"/>
   </g>
   <g id="patch_145">
    <path d="M 479.047043 287.690622 
L 490.537345 287.690622 
L 490.537345 251.633854 
L 479.047043 251.633854 
z
" clip-path="url(#p097013e89c)" style="fill: #4caf50"/>
   </g>
   <g id="patch_146">
    <path d="M 493.40992 455.955539 
L 504.900222 455.955539 
L 504.900222 455.955539 
L 493.40992 455.955539 
z
" clip-path="url(#p097013e89c)" style="fill: #4caf50"/>
   </g>
   <g id="patch_147">
    <path d="M 507.772798 455.955539 
L 519.263099 455.955539 
L 519.263099 455.955539 
L 507.772798 455.955539 
z
" clip-path="url(#p097013e89c)" style="fill: #4caf50"/>
   </g>
   <g id="patch_148">
    <path d="M 522.135675 251.633854 
L 533.625977 251.633854 
L 533.625977 233.60547 
L 522.135675 233.60547 
z
" clip-path="url(#p097013e89c)" style="fill: #4caf50"/>
   </g>
   <g id="patch_149">
    <path d="M 536.498552 365.813619 
L 547.988854 365.813619 
L 547.988854 329.756851 
L 536.498552 329.756851 
z
" clip-path="url(#p097013e89c)" style="fill: #4caf50"/>
   </g>
   <g id="patch_150">
    <path d="M 550.86143 311.728467 
L 562.351732 311.728467 
L 562.351732 257.643315 
L 550.86143 257.643315 
z
" clip-path="url(#p097013e89c)" style="fill: #4caf50"/>
   </g>
   <g id="patch_151">
    <path d="M 565.224307 455.955539 
L 576.714609 455.955539 
L 576.714609 455.955539 
L 565.224307 455.955539 
z
" clip-path="url(#p097013e89c)" style="fill: #4caf50"/>
   </g>
   <g id="patch_152">
    <path d="M 579.587185 287.690622 
L 591.077487 287.690622 
L 591.077487 269.662238 
L 579.587185 269.662238 
z
" clip-path="url(#p097013e89c)" style="fill: #4caf50"/>
   </g>
   <g id="patch_153">
    <path d="M 593.950062 305.719006 
L 605.440364 305.719006 
L 605.440364 287.690622 
L 593.950062 287.690622 
z
" clip-path="url(#p097013e89c)" style="fill: #4caf50"/>
   </g>
   <g id="patch_154">
    <path d="M 608.31294 251.633854 
L 619.803242 251.633854 
L 619.803242 215.577086 
L 608.31294 215.577086 
z
" clip-path="url(#p097013e89c)" style="fill: #4caf50"/>
   </g>
   <g id="patch_155">
    <path d="M 622.675817 221.586547 
L 634.166119 221.586547 
L 634.166119 167.501395 
L 622.675817 167.501395 
z
" clip-path="url(#p097013e89c)" style="fill: #4caf50"/>
   </g>
   <g id="patch_156">
    <path d="M 637.038694 191.53924 
L 648.528996 191.53924 
L 648.528996 155.482472 
L 637.038694 155.482472 
z
" clip-path="url(#p097013e89c)" style="fill: #4caf50"/>
   </g>
   <g id="patch_157">
    <path d="M 651.401572 155.482472 
L 662.891874 155.482472 
L 662.891874 47.312169 
L 651.401572 47.312169 
z
" clip-path="url(#p097013e89c)" style="fill: #4caf50"/>
   </g>
   <g id="patch_158">
    <path d="M 665.764449 281.68116 
L 677.254751 281.68116 
L 677.254751 245.624392 
L 665.764449 245.624392 
z
" clip-path="url(#p097013e89c)" style="fill: #4caf50"/>
   </g>
   <g id="patch_159">
    <path d="M 680.127327 287.690622 
L 691.617629 287.690622 
L 691.617629 251.633854 
L 680.127327 251.633854 
z
" clip-path="url(#p097013e89c)" style="fill: #4caf50"/>
   </g>
   <g id="patch_160">
    <path d="M 694.490204 197.548702 
L 705.980506 197.548702 
L 705.980506 179.520318 
L 694.490204 179.520318 
z
" clip-path="url(#p097013e89c)" style="fill: #4caf50"/>
   </g>
   <g id="patch_161">
    <path d="M 708.853082 293.700083 
L 720.343384 293.700083 
L 720.343384 203.558163 
L 708.853082 203.558163 
z
" clip-path="url(#p097013e89c)" style="fill: #4caf50"/>
   </g>
   <g id="patch_162">
    <path d="M 723.215959 269.662238 
L 734.706261 269.662238 
L 734.706261 251.633854 
L 723.215959 251.633854 
z
" clip-path="url(#p097013e89c)" style="fill: #4caf50"/>
   </g>
   <g id="patch_163">
    <path d="M 737.578837 455.955539 
L 749.069139 455.955539 
L 749.069139 455.955539 
L 737.578837 455.955539 
z
" clip-path="url(#p097013e89c)" style="fill: #4caf50"/>
   </g>
   <g id="patch_164">
    <path d="M 751.941714 455.955539 
L 763.432016 455.955539 
L 763.432016 455.955539 
L 751.941714 455.955539 
z
" clip-path="url(#p097013e89c)" style="fill: #4caf50"/>
   </g>
   <g id="patch_165">
    <path d="M 766.304591 455.955539 
L 777.794893 455.955539 
L 777.794893 455.955539 
L 766.304591 455.955539 
z
" clip-path="url(#p097013e89c)" style="fill: #4caf50"/>
   </g>
   <g id="patch_166">
    <path d="M 780.667469 455.955539 
L 792.157771 455.955539 
L 792.157771 455.955539 
L 780.667469 455.955539 
z
" clip-path="url(#p097013e89c)" style="fill: #4caf50"/>
   </g>
   <g id="patch_167">
    <path d="M 795.030346 407.879848 
L 806.520648 407.879848 
L 806.520648 389.851464 
L 795.030346 389.851464 
z
" clip-path="url(#p097013e89c)" style="fill: #4caf50"/>
   </g>
   <g id="patch_168">
    <path d="M 809.393224 455.955539 
L 820.883526 455.955539 
L 820.883526 437.927155 
L 809.393224 437.927155 
z
" clip-path="url(#p097013e89c)" style="fill: #4caf50"/>
   </g>
   <g id="patch_169">
    <path d="M 823.756101 455.955539 
L 835.246403 455.955539 
L 835.246403 455.955539 
L 823.756101 455.955539 
z
" clip-path="url(#p097013e89c)" style="fill: #4caf50"/>
   </g>
   <g id="patch_170">
    <path d="M 838.118979 455.955539 
L 849.609281 455.955539 
L 849.609281 455.955539 
L 838.118979 455.955539 
z
" clip-path="url(#p097013e89c)" style="fill: #4caf50"/>
   </g>
   <g id="matplotlib.axis_1">
    <g id="xtick_1">
     <g id="line2d_1">
      <defs>
       <path id="m3a5cf81585" d="M 0 0 
L 0 3.5 
" style="stroke: #000000; stroke-width: 0.8"/>
      </defs>
      <g>
       <use xlink:href="#m3a5cf81585" x="53.90587" y="455.955539" style="stroke: #000000; stroke-width: 0.8"/>
      </g>
     </g>
     <g id="text_1">
      <!-- 0 -->
      <g transform="translate(53.60756 472.827413) rotate(-45) scale(0.1 -0.1)">
       <defs>
        <path id="DejaVuSans-30" d="M 2034 4250 
Q 1547 4250 1301 3770 
Q 1056 3291 1056 2328 
Q 1056 1369 1301 889 
Q 1547 409 2034 409 
Q 2525 409 2770 889 
Q 3016 1369 3016 2328 
Q 3016 3291 2770 3770 
Q 2525 4250 2034 4250 
z
M 2034 4750 
Q 2819 4750 3233 4129 
Q 3647 3509 3647 2328 
Q 3647 1150 3233 529 
Q 2819 -91 2034 -91 
Q 1250 -91 836 529 
Q 422 1150 422 2328 
Q 422 3509 836 4129 
Q 1250 4750 2034 4750 
z
" transform="scale(0.015625)"/>
       </defs>
       <use xlink:href="#DejaVuSans-30"/>
      </g>
     </g>
    </g>
    <g id="xtick_2">
     <g id="line2d_2">
      <g>
       <use xlink:href="#m3a5cf81585" x="68.268748" y="455.955539" style="stroke: #000000; stroke-width: 0.8"/>
      </g>
     </g>
    </g>
    <g id="xtick_3">
     <g id="line2d_3">
      <g>
       <use xlink:href="#m3a5cf81585" x="82.631625" y="455.955539" style="stroke: #000000; stroke-width: 0.8"/>
      </g>
     </g>
    </g>
    <g id="xtick_4">
     <g id="line2d_4">
      <g>
       <use xlink:href="#m3a5cf81585" x="96.994503" y="455.955539" style="stroke: #000000; stroke-width: 0.8"/>
      </g>
     </g>
    </g>
    <g id="xtick_5">
     <g id="line2d_5">
      <g>
       <use xlink:href="#m3a5cf81585" x="111.35738" y="455.955539" style="stroke: #000000; stroke-width: 0.8"/>
      </g>
     </g>
    </g>
    <g id="xtick_6">
     <g id="line2d_6">
      <g>
       <use xlink:href="#m3a5cf81585" x="125.720258" y="455.955539" style="stroke: #000000; stroke-width: 0.8"/>
      </g>
     </g>
     <g id="text_2">
      <!-- 5 -->
      <g transform="translate(125.421947 472.827413) rotate(-45) scale(0.1 -0.1)">
       <defs>
        <path id="DejaVuSans-35" d="M 691 4666 
L 3169 4666 
L 3169 4134 
L 1269 4134 
L 1269 2991 
Q 1406 3038 1543 3061 
Q 1681 3084 1819 3084 
Q 2600 3084 3056 2656 
Q 3513 2228 3513 1497 
Q 3513 744 3044 326 
Q 2575 -91 1722 -91 
Q 1428 -91 1123 -41 
Q 819 9 494 109 
L 494 744 
Q 775 591 1075 516 
Q 1375 441 1709 441 
Q 2250 441 2565 725 
Q 2881 1009 2881 1497 
Q 2881 1984 2565 2268 
Q 2250 2553 1709 2553 
Q 1456 2553 1204 2497 
Q 953 2441 691 2322 
L 691 4666 
z
" transform="scale(0.015625)"/>
       </defs>
       <use xlink:href="#DejaVuSans-35"/>
      </g>
     </g>
    </g>
    <g id="xtick_7">
     <g id="line2d_7">
      <g>
       <use xlink:href="#m3a5cf81585" x="140.083135" y="455.955539" style="stroke: #000000; stroke-width: 0.8"/>
      </g>
     </g>
    </g>
    <g id="xtick_8">
     <g id="line2d_8">
      <g>
       <use xlink:href="#m3a5cf81585" x="154.446012" y="455.955539" style="stroke: #000000; stroke-width: 0.8"/>
      </g>
     </g>
    </g>
    <g id="xtick_9">
     <g id="line2d_9">
      <g>
       <use xlink:href="#m3a5cf81585" x="168.80889" y="455.955539" style="stroke: #000000; stroke-width: 0.8"/>
      </g>
     </g>
    </g>
    <g id="xtick_10">
     <g id="line2d_10">
      <g>
       <use xlink:href="#m3a5cf81585" x="183.171767" y="455.955539" style="stroke: #000000; stroke-width: 0.8"/>
      </g>
     </g>
    </g>
    <g id="xtick_11">
     <g id="line2d_11">
      <g>
       <use xlink:href="#m3a5cf81585" x="197.534645" y="455.955539" style="stroke: #000000; stroke-width: 0.8"/>
      </g>
     </g>
     <g id="text_3">
      <!-- 10 -->
      <g transform="translate(194.986851 477.326379) rotate(-45) scale(0.1 -0.1)">
       <defs>
        <path id="DejaVuSans-31" d="M 794 531 
L 1825 531 
L 1825 4091 
L 703 3866 
L 703 4441 
L 1819 4666 
L 2450 4666 
L 2450 531 
L 3481 531 
L 3481 0 
L 794 0 
L 794 531 
z
" transform="scale(0.015625)"/>
       </defs>
       <use xlink:href="#DejaVuSans-31"/>
       <use xlink:href="#DejaVuSans-30" transform="translate(63.623047 0)"/>
      </g>
     </g>
    </g>
    <g id="xtick_12">
     <g id="line2d_12">
      <g>
       <use xlink:href="#m3a5cf81585" x="211.897522" y="455.955539" style="stroke: #000000; stroke-width: 0.8"/>
      </g>
     </g>
     <g id="text_4">
      <!-- 11 -->
      <g transform="translate(209.349728 477.326379) rotate(-45) scale(0.1 -0.1)">
       <use xlink:href="#DejaVuSans-31"/>
       <use xlink:href="#DejaVuSans-31" transform="translate(63.623047 0)"/>
      </g>
     </g>
    </g>
    <g id="xtick_13">
     <g id="line2d_13">
      <g>
       <use xlink:href="#m3a5cf81585" x="226.2604" y="455.955539" style="stroke: #000000; stroke-width: 0.8"/>
      </g>
     </g>
    </g>
    <g id="xtick_14">
     <g id="line2d_14">
      <g>
       <use xlink:href="#m3a5cf81585" x="240.623277" y="455.955539" style="stroke: #000000; stroke-width: 0.8"/>
      </g>
     </g>
    </g>
    <g id="xtick_15">
     <g id="line2d_15">
      <g>
       <use xlink:href="#m3a5cf81585" x="254.986155" y="455.955539" style="stroke: #000000; stroke-width: 0.8"/>
      </g>
     </g>
    </g>
    <g id="xtick_16">
     <g id="line2d_16">
      <g>
       <use xlink:href="#m3a5cf81585" x="269.349032" y="455.955539" style="stroke: #000000; stroke-width: 0.8"/>
      </g>
     </g>
     <g id="text_5">
      <!-- 15 -->
      <g transform="translate(266.801238 477.326379) rotate(-45) scale(0.1 -0.1)">
       <use xlink:href="#DejaVuSans-31"/>
       <use xlink:href="#DejaVuSans-35" transform="translate(63.623047 0)"/>
      </g>
     </g>
    </g>
    <g id="xtick_17">
     <g id="line2d_17">
      <g>
       <use xlink:href="#m3a5cf81585" x="283.711909" y="455.955539" style="stroke: #000000; stroke-width: 0.8"/>
      </g>
     </g>
    </g>
    <g id="xtick_18">
     <g id="line2d_18">
      <g>
       <use xlink:href="#m3a5cf81585" x="298.074787" y="455.955539" style="stroke: #000000; stroke-width: 0.8"/>
      </g>
     </g>
    </g>
    <g id="xtick_19">
     <g id="line2d_19">
      <g>
       <use xlink:href="#m3a5cf81585" x="312.437664" y="455.955539" style="stroke: #000000; stroke-width: 0.8"/>
      </g>
     </g>
    </g>
    <g id="xtick_20">
     <g id="line2d_20">
      <g>
       <use xlink:href="#m3a5cf81585" x="326.800542" y="455.955539" style="stroke: #000000; stroke-width: 0.8"/>
      </g>
     </g>
    </g>
    <g id="xtick_21">
     <g id="line2d_21">
      <g>
       <use xlink:href="#m3a5cf81585" x="341.163419" y="455.955539" style="stroke: #000000; stroke-width: 0.8"/>
      </g>
     </g>
     <g id="text_6">
      <!-- 20 -->
      <g transform="translate(338.615625 477.326379) rotate(-45) scale(0.1 -0.1)">
       <defs>
        <path id="DejaVuSans-32" d="M 1228 531 
L 3431 531 
L 3431 0 
L 469 0 
L 469 531 
Q 828 903 1448 1529 
Q 2069 2156 2228 2338 
Q 2531 2678 2651 2914 
Q 2772 3150 2772 3378 
Q 2772 3750 2511 3984 
Q 2250 4219 1831 4219 
Q 1534 4219 1204 4116 
Q 875 4013 500 3803 
L 500 4441 
Q 881 4594 1212 4672 
Q 1544 4750 1819 4750 
Q 2544 4750 2975 4387 
Q 3406 4025 3406 3419 
Q 3406 3131 3298 2873 
Q 3191 2616 2906 2266 
Q 2828 2175 2409 1742 
Q 1991 1309 1228 531 
z
" transform="scale(0.015625)"/>
       </defs>
       <use xlink:href="#DejaVuSans-32"/>
       <use xlink:href="#DejaVuSans-30" transform="translate(63.623047 0)"/>
      </g>
     </g>
    </g>
    <g id="xtick_22">
     <g id="line2d_22">
      <g>
       <use xlink:href="#m3a5cf81585" x="355.526297" y="455.955539" style="stroke: #000000; stroke-width: 0.8"/>
      </g>
     </g>
    </g>
    <g id="xtick_23">
     <g id="line2d_23">
      <g>
       <use xlink:href="#m3a5cf81585" x="369.889174" y="455.955539" style="stroke: #000000; stroke-width: 0.8"/>
      </g>
     </g>
    </g>
    <g id="xtick_24">
     <g id="line2d_24">
      <g>
       <use xlink:href="#m3a5cf81585" x="384.252052" y="455.955539" style="stroke: #000000; stroke-width: 0.8"/>
      </g>
     </g>
     <g id="text_7">
      <!-- 23 -->
      <g transform="translate(381.704257 477.326379) rotate(-45) scale(0.1 -0.1)">
       <defs>
        <path id="DejaVuSans-33" d="M 2597 2516 
Q 3050 2419 3304 2112 
Q 3559 1806 3559 1356 
Q 3559 666 3084 287 
Q 2609 -91 1734 -91 
Q 1441 -91 1130 -33 
Q 819 25 488 141 
L 488 750 
Q 750 597 1062 519 
Q 1375 441 1716 441 
Q 2309 441 2620 675 
Q 2931 909 2931 1356 
Q 2931 1769 2642 2001 
Q 2353 2234 1838 2234 
L 1294 2234 
L 1294 2753 
L 1863 2753 
Q 2328 2753 2575 2939 
Q 2822 3125 2822 3475 
Q 2822 3834 2567 4026 
Q 2313 4219 1838 4219 
Q 1578 4219 1281 4162 
Q 984 4106 628 3988 
L 628 4550 
Q 988 4650 1302 4700 
Q 1616 4750 1894 4750 
Q 2613 4750 3031 4423 
Q 3450 4097 3450 3541 
Q 3450 3153 3228 2886 
Q 3006 2619 2597 2516 
z
" transform="scale(0.015625)"/>
       </defs>
       <use xlink:href="#DejaVuSans-32"/>
       <use xlink:href="#DejaVuSans-33" transform="translate(63.623047 0)"/>
      </g>
     </g>
    </g>
    <g id="xtick_25">
     <g id="line2d_25">
      <g>
       <use xlink:href="#m3a5cf81585" x="398.614929" y="455.955539" style="stroke: #000000; stroke-width: 0.8"/>
      </g>
     </g>
    </g>
    <g id="xtick_26">
     <g id="line2d_26">
      <g>
       <use xlink:href="#m3a5cf81585" x="412.977806" y="455.955539" style="stroke: #000000; stroke-width: 0.8"/>
      </g>
     </g>
     <g id="text_8">
      <!-- 25 -->
      <g transform="translate(410.430012 477.326379) rotate(-45) scale(0.1 -0.1)">
       <use xlink:href="#DejaVuSans-32"/>
       <use xlink:href="#DejaVuSans-35" transform="translate(63.623047 0)"/>
      </g>
     </g>
    </g>
    <g id="xtick_27">
     <g id="line2d_27">
      <g>
       <use xlink:href="#m3a5cf81585" x="427.340684" y="455.955539" style="stroke: #000000; stroke-width: 0.8"/>
      </g>
     </g>
    </g>
    <g id="xtick_28">
     <g id="line2d_28">
      <g>
       <use xlink:href="#m3a5cf81585" x="441.703561" y="455.955539" style="stroke: #000000; stroke-width: 0.8"/>
      </g>
     </g>
    </g>
    <g id="xtick_29">
     <g id="line2d_29">
      <g>
       <use xlink:href="#m3a5cf81585" x="456.066439" y="455.955539" style="stroke: #000000; stroke-width: 0.8"/>
      </g>
     </g>
    </g>
    <g id="xtick_30">
     <g id="line2d_30">
      <g>
       <use xlink:href="#m3a5cf81585" x="470.429316" y="455.955539" style="stroke: #000000; stroke-width: 0.8"/>
      </g>
     </g>
    </g>
    <g id="xtick_31">
     <g id="line2d_31">
      <g>
       <use xlink:href="#m3a5cf81585" x="484.792194" y="455.955539" style="stroke: #000000; stroke-width: 0.8"/>
      </g>
     </g>
     <g id="text_9">
      <!-- 30 -->
      <g transform="translate(482.244399 477.326379) rotate(-45) scale(0.1 -0.1)">
       <use xlink:href="#DejaVuSans-33"/>
       <use xlink:href="#DejaVuSans-30" transform="translate(63.623047 0)"/>
      </g>
     </g>
    </g>
    <g id="xtick_32">
     <g id="line2d_32">
      <g>
       <use xlink:href="#m3a5cf81585" x="499.155071" y="455.955539" style="stroke: #000000; stroke-width: 0.8"/>
      </g>
     </g>
    </g>
    <g id="xtick_33">
     <g id="line2d_33">
      <g>
       <use xlink:href="#m3a5cf81585" x="513.517948" y="455.955539" style="stroke: #000000; stroke-width: 0.8"/>
      </g>
     </g>
    </g>
    <g id="xtick_34">
     <g id="line2d_34">
      <g>
       <use xlink:href="#m3a5cf81585" x="527.880826" y="455.955539" style="stroke: #000000; stroke-width: 0.8"/>
      </g>
     </g>
    </g>
    <g id="xtick_35">
     <g id="line2d_35">
      <g>
       <use xlink:href="#m3a5cf81585" x="542.243703" y="455.955539" style="stroke: #000000; stroke-width: 0.8"/>
      </g>
     </g>
    </g>
    <g id="xtick_36">
     <g id="line2d_36">
      <g>
       <use xlink:href="#m3a5cf81585" x="556.606581" y="455.955539" style="stroke: #000000; stroke-width: 0.8"/>
      </g>
     </g>
     <g id="text_10">
      <!-- 35 -->
      <g transform="translate(554.058787 477.326379) rotate(-45) scale(0.1 -0.1)">
       <use xlink:href="#DejaVuSans-33"/>
       <use xlink:href="#DejaVuSans-35" transform="translate(63.623047 0)"/>
      </g>
     </g>
    </g>
    <g id="xtick_37">
     <g id="line2d_37">
      <g>
       <use xlink:href="#m3a5cf81585" x="570.969458" y="455.955539" style="stroke: #000000; stroke-width: 0.8"/>
      </g>
     </g>
    </g>
    <g id="xtick_38">
     <g id="line2d_38">
      <g>
       <use xlink:href="#m3a5cf81585" x="585.332336" y="455.955539" style="stroke: #000000; stroke-width: 0.8"/>
      </g>
     </g>
    </g>
    <g id="xtick_39">
     <g id="line2d_39">
      <g>
       <use xlink:href="#m3a5cf81585" x="599.695213" y="455.955539" style="stroke: #000000; stroke-width: 0.8"/>
      </g>
     </g>
    </g>
    <g id="xtick_40">
     <g id="line2d_40">
      <g>
       <use xlink:href="#m3a5cf81585" x="614.058091" y="455.955539" style="stroke: #000000; stroke-width: 0.8"/>
      </g>
     </g>
    </g>
    <g id="xtick_41">
     <g id="line2d_41">
      <g>
       <use xlink:href="#m3a5cf81585" x="628.420968" y="455.955539" style="stroke: #000000; stroke-width: 0.8"/>
      </g>
     </g>
     <g id="text_11">
      <!-- 40 -->
      <g transform="translate(625.873174 477.326379) rotate(-45) scale(0.1 -0.1)">
       <defs>
        <path id="DejaVuSans-34" d="M 2419 4116 
L 825 1625 
L 2419 1625 
L 2419 4116 
z
M 2253 4666 
L 3047 4666 
L 3047 1625 
L 3713 1625 
L 3713 1100 
L 3047 1100 
L 3047 0 
L 2419 0 
L 2419 1100 
L 313 1100 
L 313 1709 
L 2253 4666 
z
" transform="scale(0.015625)"/>
       </defs>
       <use xlink:href="#DejaVuSans-34"/>
       <use xlink:href="#DejaVuSans-30" transform="translate(63.623047 0)"/>
      </g>
     </g>
    </g>
    <g id="xtick_42">
     <g id="line2d_42">
      <g>
       <use xlink:href="#m3a5cf81585" x="642.783845" y="455.955539" style="stroke: #000000; stroke-width: 0.8"/>
      </g>
     </g>
    </g>
    <g id="xtick_43">
     <g id="line2d_43">
      <g>
       <use xlink:href="#m3a5cf81585" x="657.146723" y="455.955539" style="stroke: #000000; stroke-width: 0.8"/>
      </g>
     </g>
    </g>
    <g id="xtick_44">
     <g id="line2d_44">
      <g>
       <use xlink:href="#m3a5cf81585" x="671.5096" y="455.955539" style="stroke: #000000; stroke-width: 0.8"/>
      </g>
     </g>
    </g>
    <g id="xtick_45">
     <g id="line2d_45">
      <g>
       <use xlink:href="#m3a5cf81585" x="685.872478" y="455.955539" style="stroke: #000000; stroke-width: 0.8"/>
      </g>
     </g>
    </g>
    <g id="xtick_46">
     <g id="line2d_46">
      <g>
       <use xlink:href="#m3a5cf81585" x="700.235355" y="455.955539" style="stroke: #000000; stroke-width: 0.8"/>
      </g>
     </g>
     <g id="text_12">
      <!-- 45 -->
      <g transform="translate(697.687561 477.326379) rotate(-45) scale(0.1 -0.1)">
       <use xlink:href="#DejaVuSans-34"/>
       <use xlink:href="#DejaVuSans-35" transform="translate(63.623047 0)"/>
      </g>
     </g>
    </g>
    <g id="xtick_47">
     <g id="line2d_47">
      <g>
       <use xlink:href="#m3a5cf81585" x="714.598233" y="455.955539" style="stroke: #000000; stroke-width: 0.8"/>
      </g>
     </g>
    </g>
    <g id="xtick_48">
     <g id="line2d_48">
      <g>
       <use xlink:href="#m3a5cf81585" x="728.96111" y="455.955539" style="stroke: #000000; stroke-width: 0.8"/>
      </g>
     </g>
     <g id="text_13">
      <!-- 47 -->
      <g transform="translate(726.413316 477.326379) rotate(-45) scale(0.1 -0.1)">
       <defs>
        <path id="DejaVuSans-37" d="M 525 4666 
L 3525 4666 
L 3525 4397 
L 1831 0 
L 1172 0 
L 2766 4134 
L 525 4134 
L 525 4666 
z
" transform="scale(0.015625)"/>
       </defs>
       <use xlink:href="#DejaVuSans-34"/>
       <use xlink:href="#DejaVuSans-37" transform="translate(63.623047 0)"/>
      </g>
     </g>
    </g>
    <g id="xtick_49">
     <g id="line2d_49">
      <g>
       <use xlink:href="#m3a5cf81585" x="743.323988" y="455.955539" style="stroke: #000000; stroke-width: 0.8"/>
      </g>
     </g>
    </g>
    <g id="xtick_50">
     <g id="line2d_50">
      <g>
       <use xlink:href="#m3a5cf81585" x="757.686865" y="455.955539" style="stroke: #000000; stroke-width: 0.8"/>
      </g>
     </g>
    </g>
    <g id="xtick_51">
     <g id="line2d_51">
      <g>
       <use xlink:href="#m3a5cf81585" x="772.049742" y="455.955539" style="stroke: #000000; stroke-width: 0.8"/>
      </g>
     </g>
     <g id="text_14">
      <!-- 50 -->
      <g transform="translate(769.501948 477.326379) rotate(-45) scale(0.1 -0.1)">
       <use xlink:href="#DejaVuSans-35"/>
       <use xlink:href="#DejaVuSans-30" transform="translate(63.623047 0)"/>
      </g>
     </g>
    </g>
    <g id="xtick_52">
     <g id="line2d_52">
      <g>
       <use xlink:href="#m3a5cf81585" x="786.41262" y="455.955539" style="stroke: #000000; stroke-width: 0.8"/>
      </g>
     </g>
    </g>
    <g id="xtick_53">
     <g id="line2d_53">
      <g>
       <use xlink:href="#m3a5cf81585" x="800.775497" y="455.955539" style="stroke: #000000; stroke-width: 0.8"/>
      </g>
     </g>
    </g>
    <g id="xtick_54">
     <g id="line2d_54">
      <g>
       <use xlink:href="#m3a5cf81585" x="815.138375" y="455.955539" style="stroke: #000000; stroke-width: 0.8"/>
      </g>
     </g>
    </g>
    <g id="xtick_55">
     <g id="line2d_55">
      <g>
       <use xlink:href="#m3a5cf81585" x="829.501252" y="455.955539" style="stroke: #000000; stroke-width: 0.8"/>
      </g>
     </g>
    </g>
    <g id="xtick_56">
     <g id="line2d_56">
      <g>
       <use xlink:href="#m3a5cf81585" x="843.86413" y="455.955539" style="stroke: #000000; stroke-width: 0.8"/>
      </g>
     </g>
    </g>
    <g id="text_15">
     <!-- Game Minute -->
     <g transform="translate(415.333438 490.395378) scale(0.1 -0.1)">
      <defs>
       <path id="DejaVuSans-47" d="M 3809 666 
L 3809 1919 
L 2778 1919 
L 2778 2438 
L 4434 2438 
L 4434 434 
Q 4069 175 3628 42 
Q 3188 -91 2688 -91 
Q 1594 -91 976 548 
Q 359 1188 359 2328 
Q 359 3472 976 4111 
Q 1594 4750 2688 4750 
Q 3144 4750 3555 4637 
Q 3966 4525 4313 4306 
L 4313 3634 
Q 3963 3931 3569 4081 
Q 3175 4231 2741 4231 
Q 1884 4231 1454 3753 
Q 1025 3275 1025 2328 
Q 1025 1384 1454 906 
Q 1884 428 2741 428 
Q 3075 428 3337 486 
Q 3600 544 3809 666 
z
" transform="scale(0.015625)"/>
       <path id="DejaVuSans-61" d="M 2194 1759 
Q 1497 1759 1228 1600 
Q 959 1441 959 1056 
Q 959 750 1161 570 
Q 1363 391 1709 391 
Q 2188 391 2477 730 
Q 2766 1069 2766 1631 
L 2766 1759 
L 2194 1759 
z
M 3341 1997 
L 3341 0 
L 2766 0 
L 2766 531 
Q 2569 213 2275 61 
Q 1981 -91 1556 -91 
Q 1019 -91 701 211 
Q 384 513 384 1019 
Q 384 1609 779 1909 
Q 1175 2209 1959 2209 
L 2766 2209 
L 2766 2266 
Q 2766 2663 2505 2880 
Q 2244 3097 1772 3097 
Q 1472 3097 1187 3025 
Q 903 2953 641 2809 
L 641 3341 
Q 956 3463 1253 3523 
Q 1550 3584 1831 3584 
Q 2591 3584 2966 3190 
Q 3341 2797 3341 1997 
z
" transform="scale(0.015625)"/>
       <path id="DejaVuSans-6d" d="M 3328 2828 
Q 3544 3216 3844 3400 
Q 4144 3584 4550 3584 
Q 5097 3584 5394 3201 
Q 5691 2819 5691 2113 
L 5691 0 
L 5113 0 
L 5113 2094 
Q 5113 2597 4934 2840 
Q 4756 3084 4391 3084 
Q 3944 3084 3684 2787 
Q 3425 2491 3425 1978 
L 3425 0 
L 2847 0 
L 2847 2094 
Q 2847 2600 2669 2842 
Q 2491 3084 2119 3084 
Q 1678 3084 1418 2786 
Q 1159 2488 1159 1978 
L 1159 0 
L 581 0 
L 581 3500 
L 1159 3500 
L 1159 2956 
Q 1356 3278 1631 3431 
Q 1906 3584 2284 3584 
Q 2666 3584 2933 3390 
Q 3200 3197 3328 2828 
z
" transform="scale(0.015625)"/>
       <path id="DejaVuSans-65" d="M 3597 1894 
L 3597 1613 
L 953 1613 
Q 991 1019 1311 708 
Q 1631 397 2203 397 
Q 2534 397 2845 478 
Q 3156 559 3463 722 
L 3463 178 
Q 3153 47 2828 -22 
Q 2503 -91 2169 -91 
Q 1331 -91 842 396 
Q 353 884 353 1716 
Q 353 2575 817 3079 
Q 1281 3584 2069 3584 
Q 2775 3584 3186 3129 
Q 3597 2675 3597 1894 
z
M 3022 2063 
Q 3016 2534 2758 2815 
Q 2500 3097 2075 3097 
Q 1594 3097 1305 2825 
Q 1016 2553 972 2059 
L 3022 2063 
z
" transform="scale(0.015625)"/>
       <path id="DejaVuSans-20" transform="scale(0.015625)"/>
       <path id="DejaVuSans-4d" d="M 628 4666 
L 1569 4666 
L 2759 1491 
L 3956 4666 
L 4897 4666 
L 4897 0 
L 4281 0 
L 4281 4097 
L 3078 897 
L 2444 897 
L 1241 4097 
L 1241 0 
L 628 0 
L 628 4666 
z
" transform="scale(0.015625)"/>
       <path id="DejaVuSans-69" d="M 603 3500 
L 1178 3500 
L 1178 0 
L 603 0 
L 603 3500 
z
M 603 4863 
L 1178 4863 
L 1178 4134 
L 603 4134 
L 603 4863 
z
" transform="scale(0.015625)"/>
       <path id="DejaVuSans-6e" d="M 3513 2113 
L 3513 0 
L 2938 0 
L 2938 2094 
Q 2938 2591 2744 2837 
Q 2550 3084 2163 3084 
Q 1697 3084 1428 2787 
Q 1159 2491 1159 1978 
L 1159 0 
L 581 0 
L 581 3500 
L 1159 3500 
L 1159 2956 
Q 1366 3272 1645 3428 
Q 1925 3584 2291 3584 
Q 2894 3584 3203 3211 
Q 3513 2838 3513 2113 
z
" transform="scale(0.015625)"/>
       <path id="DejaVuSans-75" d="M 544 1381 
L 544 3500 
L 1119 3500 
L 1119 1403 
Q 1119 906 1312 657 
Q 1506 409 1894 409 
Q 2359 409 2629 706 
Q 2900 1003 2900 1516 
L 2900 3500 
L 3475 3500 
L 3475 0 
L 2900 0 
L 2900 538 
Q 2691 219 2414 64 
Q 2138 -91 1772 -91 
Q 1169 -91 856 284 
Q 544 659 544 1381 
z
M 1991 3584 
L 1991 3584 
z
" transform="scale(0.015625)"/>
       <path id="DejaVuSans-74" d="M 1172 4494 
L 1172 3500 
L 2356 3500 
L 2356 3053 
L 1172 3053 
L 1172 1153 
Q 1172 725 1289 603 
Q 1406 481 1766 481 
L 2356 481 
L 2356 0 
L 1766 0 
Q 1100 0 847 248 
Q 594 497 594 1153 
L 594 3053 
L 172 3053 
L 172 3500 
L 594 3500 
L 594 4494 
L 1172 4494 
z
" transform="scale(0.015625)"/>
      </defs>
      <use xlink:href="#DejaVuSans-47"/>
      <use xlink:href="#DejaVuSans-61" transform="translate(77.490234 0)"/>
      <use xlink:href="#DejaVuSans-6d" transform="translate(138.769531 0)"/>
      <use xlink:href="#DejaVuSans-65" transform="translate(236.181641 0)"/>
      <use xlink:href="#DejaVuSans-20" transform="translate(297.705078 0)"/>
      <use xlink:href="#DejaVuSans-4d" transform="translate(329.492188 0)"/>
      <use xlink:href="#DejaVuSans-69" transform="translate(415.771484 0)"/>
      <use xlink:href="#DejaVuSans-6e" transform="translate(443.554688 0)"/>
      <use xlink:href="#DejaVuSans-75" transform="translate(506.933594 0)"/>
      <use xlink:href="#DejaVuSans-74" transform="translate(570.3125 0)"/>
      <use xlink:href="#DejaVuSans-65" transform="translate(609.521484 0)"/>
     </g>
    </g>
   </g>
   <g id="matplotlib.axis_2">
    <g id="ytick_1">
     <g id="line2d_57">
      <path d="M 44.57 455.955539 
L 853.2 455.955539 
" clip-path="url(#p097013e89c)" style="fill: none; stroke-dasharray: 2.96,1.28; stroke-dashoffset: 0; stroke: #b0b0b0; stroke-opacity: 0.6; stroke-width: 0.8"/>
     </g>
     <g id="line2d_58">
      <defs>
       <path id="m33e73421b5" d="M 0 0 
L -3.5 0 
" style="stroke: #000000; stroke-width: 0.8"/>
      </defs>
      <g>
       <use xlink:href="#m33e73421b5" x="44.57" y="455.955539" style="stroke: #000000; stroke-width: 0.8"/>
      </g>
     </g>
     <g id="text_16">
      <!-- 0 -->
      <g transform="translate(31.2075 459.754758) scale(0.1 -0.1)">
       <use xlink:href="#DejaVuSans-30"/>
      </g>
     </g>
    </g>
    <g id="ytick_2">
     <g id="line2d_59">
      <path d="M 44.57 395.860926 
L 853.2 395.860926 
" clip-path="url(#p097013e89c)" style="fill: none; stroke-dasharray: 2.96,1.28; stroke-dashoffset: 0; stroke: #b0b0b0; stroke-opacity: 0.6; stroke-width: 0.8"/>
     </g>
     <g id="line2d_60">
      <g>
       <use xlink:href="#m33e73421b5" x="44.57" y="395.860926" style="stroke: #000000; stroke-width: 0.8"/>
      </g>
     </g>
     <g id="text_17">
      <!-- 10 -->
      <g transform="translate(24.845 399.660144) scale(0.1 -0.1)">
       <use xlink:href="#DejaVuSans-31"/>
       <use xlink:href="#DejaVuSans-30" transform="translate(63.623047 0)"/>
      </g>
     </g>
    </g>
    <g id="ytick_3">
     <g id="line2d_61">
      <path d="M 44.57 335.766312 
L 853.2 335.766312 
" clip-path="url(#p097013e89c)" style="fill: none; stroke-dasharray: 2.96,1.28; stroke-dashoffset: 0; stroke: #b0b0b0; stroke-opacity: 0.6; stroke-width: 0.8"/>
     </g>
     <g id="line2d_62">
      <g>
       <use xlink:href="#m33e73421b5" x="44.57" y="335.766312" style="stroke: #000000; stroke-width: 0.8"/>
      </g>
     </g>
     <g id="text_18">
      <!-- 20 -->
      <g transform="translate(24.845 339.565531) scale(0.1 -0.1)">
       <use xlink:href="#DejaVuSans-32"/>
       <use xlink:href="#DejaVuSans-30" transform="translate(63.623047 0)"/>
      </g>
     </g>
    </g>
    <g id="ytick_4">
     <g id="line2d_63">
      <path d="M 44.57 275.671699 
L 853.2 275.671699 
" clip-path="url(#p097013e89c)" style="fill: none; stroke-dasharray: 2.96,1.28; stroke-dashoffset: 0; stroke: #b0b0b0; stroke-opacity: 0.6; stroke-width: 0.8"/>
     </g>
     <g id="line2d_64">
      <g>
       <use xlink:href="#m33e73421b5" x="44.57" y="275.671699" style="stroke: #000000; stroke-width: 0.8"/>
      </g>
     </g>
     <g id="text_19">
      <!-- 30 -->
      <g transform="translate(24.845 279.470918) scale(0.1 -0.1)">
       <use xlink:href="#DejaVuSans-33"/>
       <use xlink:href="#DejaVuSans-30" transform="translate(63.623047 0)"/>
      </g>
     </g>
    </g>
    <g id="ytick_5">
     <g id="line2d_65">
      <path d="M 44.57 215.577086 
L 853.2 215.577086 
" clip-path="url(#p097013e89c)" style="fill: none; stroke-dasharray: 2.96,1.28; stroke-dashoffset: 0; stroke: #b0b0b0; stroke-opacity: 0.6; stroke-width: 0.8"/>
     </g>
     <g id="line2d_66">
      <g>
       <use xlink:href="#m33e73421b5" x="44.57" y="215.577086" style="stroke: #000000; stroke-width: 0.8"/>
      </g>
     </g>
     <g id="text_20">
      <!-- 40 -->
      <g transform="translate(24.845 219.376305) scale(0.1 -0.1)">
       <use xlink:href="#DejaVuSans-34"/>
       <use xlink:href="#DejaVuSans-30" transform="translate(63.623047 0)"/>
      </g>
     </g>
    </g>
    <g id="ytick_6">
     <g id="line2d_67">
      <path d="M 44.57 155.482472 
L 853.2 155.482472 
" clip-path="url(#p097013e89c)" style="fill: none; stroke-dasharray: 2.96,1.28; stroke-dashoffset: 0; stroke: #b0b0b0; stroke-opacity: 0.6; stroke-width: 0.8"/>
     </g>
     <g id="line2d_68">
      <g>
       <use xlink:href="#m33e73421b5" x="44.57" y="155.482472" style="stroke: #000000; stroke-width: 0.8"/>
      </g>
     </g>
     <g id="text_21">
      <!-- 50 -->
      <g transform="translate(24.845 159.281691) scale(0.1 -0.1)">
       <use xlink:href="#DejaVuSans-35"/>
       <use xlink:href="#DejaVuSans-30" transform="translate(63.623047 0)"/>
      </g>
     </g>
    </g>
    <g id="ytick_7">
     <g id="line2d_69">
      <path d="M 44.57 95.387859 
L 853.2 95.387859 
" clip-path="url(#p097013e89c)" style="fill: none; stroke-dasharray: 2.96,1.28; stroke-dashoffset: 0; stroke: #b0b0b0; stroke-opacity: 0.6; stroke-width: 0.8"/>
     </g>
     <g id="line2d_70">
      <g>
       <use xlink:href="#m33e73421b5" x="44.57" y="95.387859" style="stroke: #000000; stroke-width: 0.8"/>
      </g>
     </g>
     <g id="text_22">
      <!-- 60 -->
      <g transform="translate(24.845 99.187078) scale(0.1 -0.1)">
       <defs>
        <path id="DejaVuSans-36" d="M 2113 2584 
Q 1688 2584 1439 2293 
Q 1191 2003 1191 1497 
Q 1191 994 1439 701 
Q 1688 409 2113 409 
Q 2538 409 2786 701 
Q 3034 994 3034 1497 
Q 3034 2003 2786 2293 
Q 2538 2584 2113 2584 
z
M 3366 4563 
L 3366 3988 
Q 3128 4100 2886 4159 
Q 2644 4219 2406 4219 
Q 1781 4219 1451 3797 
Q 1122 3375 1075 2522 
Q 1259 2794 1537 2939 
Q 1816 3084 2150 3084 
Q 2853 3084 3261 2657 
Q 3669 2231 3669 1497 
Q 3669 778 3244 343 
Q 2819 -91 2113 -91 
Q 1303 -91 875 529 
Q 447 1150 447 2328 
Q 447 3434 972 4092 
Q 1497 4750 2381 4750 
Q 2619 4750 2861 4703 
Q 3103 4656 3366 4563 
z
" transform="scale(0.015625)"/>
       </defs>
       <use xlink:href="#DejaVuSans-36"/>
       <use xlink:href="#DejaVuSans-30" transform="translate(63.623047 0)"/>
      </g>
     </g>
    </g>
    <g id="ytick_8">
     <g id="line2d_71">
      <path d="M 44.57 35.293246 
L 853.2 35.293246 
" clip-path="url(#p097013e89c)" style="fill: none; stroke-dasharray: 2.96,1.28; stroke-dashoffset: 0; stroke: #b0b0b0; stroke-opacity: 0.6; stroke-width: 0.8"/>
     </g>
     <g id="line2d_72">
      <g>
       <use xlink:href="#m33e73421b5" x="44.57" y="35.293246" style="stroke: #000000; stroke-width: 0.8"/>
      </g>
     </g>
     <g id="text_23">
      <!-- 70 -->
      <g transform="translate(24.845 39.092465) scale(0.1 -0.1)">
       <use xlink:href="#DejaVuSans-37"/>
       <use xlink:href="#DejaVuSans-30" transform="translate(63.623047 0)"/>
      </g>
     </g>
    </g>
    <g id="text_24">
     <!-- Points Scored -->
     <g transform="translate(18.765312 275.199019) rotate(-90) scale(0.1 -0.1)">
      <defs>
       <path id="DejaVuSans-50" d="M 1259 4147 
L 1259 2394 
L 2053 2394 
Q 2494 2394 2734 2622 
Q 2975 2850 2975 3272 
Q 2975 3691 2734 3919 
Q 2494 4147 2053 4147 
L 1259 4147 
z
M 628 4666 
L 2053 4666 
Q 2838 4666 3239 4311 
Q 3641 3956 3641 3272 
Q 3641 2581 3239 2228 
Q 2838 1875 2053 1875 
L 1259 1875 
L 1259 0 
L 628 0 
L 628 4666 
z
" transform="scale(0.015625)"/>
       <path id="DejaVuSans-6f" d="M 1959 3097 
Q 1497 3097 1228 2736 
Q 959 2375 959 1747 
Q 959 1119 1226 758 
Q 1494 397 1959 397 
Q 2419 397 2687 759 
Q 2956 1122 2956 1747 
Q 2956 2369 2687 2733 
Q 2419 3097 1959 3097 
z
M 1959 3584 
Q 2709 3584 3137 3096 
Q 3566 2609 3566 1747 
Q 3566 888 3137 398 
Q 2709 -91 1959 -91 
Q 1206 -91 779 398 
Q 353 888 353 1747 
Q 353 2609 779 3096 
Q 1206 3584 1959 3584 
z
" transform="scale(0.015625)"/>
       <path id="DejaVuSans-73" d="M 2834 3397 
L 2834 2853 
Q 2591 2978 2328 3040 
Q 2066 3103 1784 3103 
Q 1356 3103 1142 2972 
Q 928 2841 928 2578 
Q 928 2378 1081 2264 
Q 1234 2150 1697 2047 
L 1894 2003 
Q 2506 1872 2764 1633 
Q 3022 1394 3022 966 
Q 3022 478 2636 193 
Q 2250 -91 1575 -91 
Q 1294 -91 989 -36 
Q 684 19 347 128 
L 347 722 
Q 666 556 975 473 
Q 1284 391 1588 391 
Q 1994 391 2212 530 
Q 2431 669 2431 922 
Q 2431 1156 2273 1281 
Q 2116 1406 1581 1522 
L 1381 1569 
Q 847 1681 609 1914 
Q 372 2147 372 2553 
Q 372 3047 722 3315 
Q 1072 3584 1716 3584 
Q 2034 3584 2315 3537 
Q 2597 3491 2834 3397 
z
" transform="scale(0.015625)"/>
       <path id="DejaVuSans-53" d="M 3425 4513 
L 3425 3897 
Q 3066 4069 2747 4153 
Q 2428 4238 2131 4238 
Q 1616 4238 1336 4038 
Q 1056 3838 1056 3469 
Q 1056 3159 1242 3001 
Q 1428 2844 1947 2747 
L 2328 2669 
Q 3034 2534 3370 2195 
Q 3706 1856 3706 1288 
Q 3706 609 3251 259 
Q 2797 -91 1919 -91 
Q 1588 -91 1214 -16 
Q 841 59 441 206 
L 441 856 
Q 825 641 1194 531 
Q 1563 422 1919 422 
Q 2459 422 2753 634 
Q 3047 847 3047 1241 
Q 3047 1584 2836 1778 
Q 2625 1972 2144 2069 
L 1759 2144 
Q 1053 2284 737 2584 
Q 422 2884 422 3419 
Q 422 4038 858 4394 
Q 1294 4750 2059 4750 
Q 2388 4750 2728 4690 
Q 3069 4631 3425 4513 
z
" transform="scale(0.015625)"/>
       <path id="DejaVuSans-63" d="M 3122 3366 
L 3122 2828 
Q 2878 2963 2633 3030 
Q 2388 3097 2138 3097 
Q 1578 3097 1268 2742 
Q 959 2388 959 1747 
Q 959 1106 1268 751 
Q 1578 397 2138 397 
Q 2388 397 2633 464 
Q 2878 531 3122 666 
L 3122 134 
Q 2881 22 2623 -34 
Q 2366 -91 2075 -91 
Q 1284 -91 818 406 
Q 353 903 353 1747 
Q 353 2603 823 3093 
Q 1294 3584 2113 3584 
Q 2378 3584 2631 3529 
Q 2884 3475 3122 3366 
z
" transform="scale(0.015625)"/>
       <path id="DejaVuSans-72" d="M 2631 2963 
Q 2534 3019 2420 3045 
Q 2306 3072 2169 3072 
Q 1681 3072 1420 2755 
Q 1159 2438 1159 1844 
L 1159 0 
L 581 0 
L 581 3500 
L 1159 3500 
L 1159 2956 
Q 1341 3275 1631 3429 
Q 1922 3584 2338 3584 
Q 2397 3584 2469 3576 
Q 2541 3569 2628 3553 
L 2631 2963 
z
" transform="scale(0.015625)"/>
       <path id="DejaVuSans-64" d="M 2906 2969 
L 2906 4863 
L 3481 4863 
L 3481 0 
L 2906 0 
L 2906 525 
Q 2725 213 2448 61 
Q 2172 -91 1784 -91 
Q 1150 -91 751 415 
Q 353 922 353 1747 
Q 353 2572 751 3078 
Q 1150 3584 1784 3584 
Q 2172 3584 2448 3432 
Q 2725 3281 2906 2969 
z
M 947 1747 
Q 947 1113 1208 752 
Q 1469 391 1925 391 
Q 2381 391 2643 752 
Q 2906 1113 2906 1747 
Q 2906 2381 2643 2742 
Q 2381 3103 1925 3103 
Q 1469 3103 1208 2742 
Q 947 2381 947 1747 
z
" transform="scale(0.015625)"/>
      </defs>
      <use xlink:href="#DejaVuSans-50"/>
      <use xlink:href="#DejaVuSans-6f" transform="translate(56.677734 0)"/>
      <use xlink:href="#DejaVuSans-69" transform="translate(117.859375 0)"/>
      <use xlink:href="#DejaVuSans-6e" transform="translate(145.642578 0)"/>
      <use xlink:href="#DejaVuSans-74" transform="translate(209.021484 0)"/>
      <use xlink:href="#DejaVuSans-73" transform="translate(248.230469 0)"/>
      <use xlink:href="#DejaVuSans-20" transform="translate(300.330078 0)"/>
      <use xlink:href="#DejaVuSans-53" transform="translate(332.117188 0)"/>
      <use xlink:href="#DejaVuSans-63" transform="translate(395.59375 0)"/>
      <use xlink:href="#DejaVuSans-6f" transform="translate(450.574219 0)"/>
      <use xlink:href="#DejaVuSans-72" transform="translate(511.755859 0)"/>
      <use xlink:href="#DejaVuSans-65" transform="translate(550.619141 0)"/>
      <use xlink:href="#DejaVuSans-64" transform="translate(612.142578 0)"/>
     </g>
    </g>
   </g>
   <g id="patch_171">
    <path d="M 44.57 455.955539 
L 44.57 26.88 
" style="fill: none; stroke: #000000; stroke-width: 0.8; stroke-linejoin: miter; stroke-linecap: square"/>
   </g>
   <g id="patch_172">
    <path d="M 853.2 455.955539 
L 853.2 26.88 
" style="fill: none; stroke: #000000; stroke-width: 0.8; stroke-linejoin: miter; stroke-linecap: square"/>
   </g>
   <g id="patch_173">
    <path d="M 44.57 455.955539 
L 853.2 455.955539 
" style="fill: none; stroke: #000000; stroke-width: 0.8; stroke-linejoin: miter; stroke-linecap: square"/>
   </g>
   <g id="patch_174">
    <path d="M 44.57 26.88 
L 853.2 26.88 
" style="fill: none; stroke: #000000; stroke-width: 0.8; stroke-linejoin: miter; stroke-linecap: square"/>
   </g>
   <g id="text_25">
    <!-- DeMar DeRozan Scoring Timeline (2024-25) -->
    <g transform="translate(317.330312 20.88) scale(0.12 -0.12)">
     <defs>
      <path id="DejaVuSans-44" d="M 1259 4147 
L 1259 519 
L 2022 519 
Q 2988 519 3436 956 
Q 3884 1394 3884 2338 
Q 3884 3275 3436 3711 
Q 2988 4147 2022 4147 
L 1259 4147 
z
M 628 4666 
L 1925 4666 
Q 3281 4666 3915 4102 
Q 4550 3538 4550 2338 
Q 4550 1131 3912 565 
Q 3275 0 1925 0 
L 628 0 
L 628 4666 
z
" transform="scale(0.015625)"/>
      <path id="DejaVuSans-52" d="M 2841 2188 
Q 3044 2119 3236 1894 
Q 3428 1669 3622 1275 
L 4263 0 
L 3584 0 
L 2988 1197 
Q 2756 1666 2539 1819 
Q 2322 1972 1947 1972 
L 1259 1972 
L 1259 0 
L 628 0 
L 628 4666 
L 2053 4666 
Q 2853 4666 3247 4331 
Q 3641 3997 3641 3322 
Q 3641 2881 3436 2590 
Q 3231 2300 2841 2188 
z
M 1259 4147 
L 1259 2491 
L 2053 2491 
Q 2509 2491 2742 2702 
Q 2975 2913 2975 3322 
Q 2975 3731 2742 3939 
Q 2509 4147 2053 4147 
L 1259 4147 
z
" transform="scale(0.015625)"/>
      <path id="DejaVuSans-7a" d="M 353 3500 
L 3084 3500 
L 3084 2975 
L 922 459 
L 3084 459 
L 3084 0 
L 275 0 
L 275 525 
L 2438 3041 
L 353 3041 
L 353 3500 
z
" transform="scale(0.015625)"/>
      <path id="DejaVuSans-67" d="M 2906 1791 
Q 2906 2416 2648 2759 
Q 2391 3103 1925 3103 
Q 1463 3103 1205 2759 
Q 947 2416 947 1791 
Q 947 1169 1205 825 
Q 1463 481 1925 481 
Q 2391 481 2648 825 
Q 2906 1169 2906 1791 
z
M 3481 434 
Q 3481 -459 3084 -895 
Q 2688 -1331 1869 -1331 
Q 1566 -1331 1297 -1286 
Q 1028 -1241 775 -1147 
L 775 -588 
Q 1028 -725 1275 -790 
Q 1522 -856 1778 -856 
Q 2344 -856 2625 -561 
Q 2906 -266 2906 331 
L 2906 616 
Q 2728 306 2450 153 
Q 2172 0 1784 0 
Q 1141 0 747 490 
Q 353 981 353 1791 
Q 353 2603 747 3093 
Q 1141 3584 1784 3584 
Q 2172 3584 2450 3431 
Q 2728 3278 2906 2969 
L 2906 3500 
L 3481 3500 
L 3481 434 
z
" transform="scale(0.015625)"/>
      <path id="DejaVuSans-54" d="M -19 4666 
L 3928 4666 
L 3928 4134 
L 2272 4134 
L 2272 0 
L 1638 0 
L 1638 4134 
L -19 4134 
L -19 4666 
z
" transform="scale(0.015625)"/>
      <path id="DejaVuSans-6c" d="M 603 4863 
L 1178 4863 
L 1178 0 
L 603 0 
L 603 4863 
z
" transform="scale(0.015625)"/>
      <path id="DejaVuSans-28" d="M 1984 4856 
Q 1566 4138 1362 3434 
Q 1159 2731 1159 2009 
Q 1159 1288 1364 580 
Q 1569 -128 1984 -844 
L 1484 -844 
Q 1016 -109 783 600 
Q 550 1309 550 2009 
Q 550 2706 781 3412 
Q 1013 4119 1484 4856 
L 1984 4856 
z
" transform="scale(0.015625)"/>
      <path id="DejaVuSans-2d" d="M 313 2009 
L 1997 2009 
L 1997 1497 
L 313 1497 
L 313 2009 
z
" transform="scale(0.015625)"/>
      <path id="DejaVuSans-29" d="M 513 4856 
L 1013 4856 
Q 1481 4119 1714 3412 
Q 1947 2706 1947 2009 
Q 1947 1309 1714 600 
Q 1481 -109 1013 -844 
L 513 -844 
Q 928 -128 1133 580 
Q 1338 1288 1338 2009 
Q 1338 2731 1133 3434 
Q 928 4138 513 4856 
z
" transform="scale(0.015625)"/>
     </defs>
     <use xlink:href="#DejaVuSans-44"/>
     <use xlink:href="#DejaVuSans-65" transform="translate(77.001953 0)"/>
     <use xlink:href="#DejaVuSans-4d" transform="translate(138.525391 0)"/>
     <use xlink:href="#DejaVuSans-61" transform="translate(224.804688 0)"/>
     <use xlink:href="#DejaVuSans-72" transform="translate(286.083984 0)"/>
     <use xlink:href="#DejaVuSans-20" transform="translate(327.197266 0)"/>
     <use xlink:href="#DejaVuSans-44" transform="translate(358.984375 0)"/>
     <use xlink:href="#DejaVuSans-65" transform="translate(435.986328 0)"/>
     <use xlink:href="#DejaVuSans-52" transform="translate(497.509766 0)"/>
     <use xlink:href="#DejaVuSans-6f" transform="translate(562.492188 0)"/>
     <use xlink:href="#DejaVuSans-7a" transform="translate(623.673828 0)"/>
     <use xlink:href="#DejaVuSans-61" transform="translate(676.164062 0)"/>
     <use xlink:href="#DejaVuSans-6e" transform="translate(737.443359 0)"/>
     <use xlink:href="#DejaVuSans-20" transform="translate(800.822266 0)"/>
     <use xlink:href="#DejaVuSans-53" transform="translate(832.609375 0)"/>
     <use xlink:href="#DejaVuSans-63" transform="translate(896.085938 0)"/>
     <use xlink:href="#DejaVuSans-6f" transform="translate(951.066406 0)"/>
     <use xlink:href="#DejaVuSans-72" transform="translate(1012.248047 0)"/>
     <use xlink:href="#DejaVuSans-69" transform="translate(1053.361328 0)"/>
     <use xlink:href="#DejaVuSans-6e" transform="translate(1081.144531 0)"/>
     <use xlink:href="#DejaVuSans-67" transform="translate(1144.523438 0)"/>
     <use xlink:href="#DejaVuSans-20" transform="translate(1208 0)"/>
     <use xlink:href="#DejaVuSans-54" transform="translate(1239.787109 0)"/>
     <use xlink:href="#DejaVuSans-69" transform="translate(1297.746094 0)"/>
     <use xlink:href="#DejaVuSans-6d" transform="translate(1325.529297 0)"/>
     <use xlink:href="#DejaVuSans-65" transform="translate(1422.941406 0)"/>
     <use xlink:href="#DejaVuSans-6c" transform="translate(1484.464844 0)"/>
     <use xlink:href="#DejaVuSans-69" transform="translate(1512.248047 0)"/>
     <use xlink:href="#DejaVuSans-6e" transform="translate(1540.03125 0)"/>
     <use xlink:href="#DejaVuSans-65" transform="translate(1603.410156 0)"/>
     <use xlink:href="#DejaVuSans-20" transform="translate(1664.933594 0)"/>
     <use xlink:href="#DejaVuSans-28" transform="translate(1696.720703 0)"/>
     <use xlink:href="#DejaVuSans-32" transform="translate(1735.734375 0)"/>
     <use xlink:href="#DejaVuSans-30" transform="translate(1799.357422 0)"/>
     <use xlink:href="#DejaVuSans-32" transform="translate(1862.980469 0)"/>
     <use xlink:href="#DejaVuSans-34" transform="translate(1926.603516 0)"/>
     <use xlink:href="#DejaVuSans-2d" transform="translate(1990.226562 0)"/>
     <use xlink:href="#DejaVuSans-32" transform="translate(2026.310547 0)"/>
     <use xlink:href="#DejaVuSans-35" transform="translate(2089.933594 0)"/>
     <use xlink:href="#DejaVuSans-29" transform="translate(2153.556641 0)"/>
    </g>
   </g>
   <g id="legend_1">
    <g id="patch_175">
     <path d="M 793.33125 93.5925 
L 846.2 93.5925 
Q 848.2 93.5925 848.2 91.5925 
L 848.2 33.88 
Q 848.2 31.88 846.2 31.88 
L 793.33125 31.88 
Q 791.33125 31.88 791.33125 33.88 
L 791.33125 91.5925 
Q 791.33125 93.5925 793.33125 93.5925 
z
" style="fill: #ffffff; opacity: 0.8; stroke: #cccccc; stroke-linejoin: miter"/>
    </g>
    <g id="text_26">
     <!-- Shot Type -->
     <g transform="translate(795.33125 43.478437) scale(0.1 -0.1)">
      <defs>
       <path id="DejaVuSans-68" d="M 3513 2113 
L 3513 0 
L 2938 0 
L 2938 2094 
Q 2938 2591 2744 2837 
Q 2550 3084 2163 3084 
Q 1697 3084 1428 2787 
Q 1159 2491 1159 1978 
L 1159 0 
L 581 0 
L 581 4863 
L 1159 4863 
L 1159 2956 
Q 1366 3272 1645 3428 
Q 1925 3584 2291 3584 
Q 2894 3584 3203 3211 
Q 3513 2838 3513 2113 
z
" transform="scale(0.015625)"/>
       <path id="DejaVuSans-79" d="M 2059 -325 
Q 1816 -950 1584 -1140 
Q 1353 -1331 966 -1331 
L 506 -1331 
L 506 -850 
L 844 -850 
Q 1081 -850 1212 -737 
Q 1344 -625 1503 -206 
L 1606 56 
L 191 3500 
L 800 3500 
L 1894 763 
L 2988 3500 
L 3597 3500 
L 2059 -325 
z
" transform="scale(0.015625)"/>
       <path id="DejaVuSans-70" d="M 1159 525 
L 1159 -1331 
L 581 -1331 
L 581 3500 
L 1159 3500 
L 1159 2969 
Q 1341 3281 1617 3432 
Q 1894 3584 2278 3584 
Q 2916 3584 3314 3078 
Q 3713 2572 3713 1747 
Q 3713 922 3314 415 
Q 2916 -91 2278 -91 
Q 1894 -91 1617 61 
Q 1341 213 1159 525 
z
M 3116 1747 
Q 3116 2381 2855 2742 
Q 2594 3103 2138 3103 
Q 1681 3103 1420 2742 
Q 1159 2381 1159 1747 
Q 1159 1113 1420 752 
Q 1681 391 2138 391 
Q 2594 391 2855 752 
Q 3116 1113 3116 1747 
z
" transform="scale(0.015625)"/>
      </defs>
      <use xlink:href="#DejaVuSans-53"/>
      <use xlink:href="#DejaVuSans-68" transform="translate(63.476562 0)"/>
      <use xlink:href="#DejaVuSans-6f" transform="translate(126.855469 0)"/>
      <use xlink:href="#DejaVuSans-74" transform="translate(188.037109 0)"/>
      <use xlink:href="#DejaVuSans-20" transform="translate(227.246094 0)"/>
      <use xlink:href="#DejaVuSans-54" transform="translate(259.033203 0)"/>
      <use xlink:href="#DejaVuSans-79" transform="translate(304.492188 0)"/>
      <use xlink:href="#DejaVuSans-70" transform="translate(363.671875 0)"/>
      <use xlink:href="#DejaVuSans-65" transform="translate(427.148438 0)"/>
     </g>
    </g>
    <g id="patch_176">
     <path d="M 796.515625 58.156563 
L 816.515625 58.156563 
L 816.515625 51.156563 
L 796.515625 51.156563 
z
" style="fill: #ffc107"/>
    </g>
    <g id="text_27">
     <!-- FT -->
     <g transform="translate(824.515625 58.156563) scale(0.1 -0.1)">
      <defs>
       <path id="DejaVuSans-46" d="M 628 4666 
L 3309 4666 
L 3309 4134 
L 1259 4134 
L 1259 2759 
L 3109 2759 
L 3109 2228 
L 1259 2228 
L 1259 0 
L 628 0 
L 628 4666 
z
" transform="scale(0.015625)"/>
      </defs>
      <use xlink:href="#DejaVuSans-46"/>
      <use xlink:href="#DejaVuSans-54" transform="translate(55.769531 0)"/>
     </g>
    </g>
    <g id="patch_177">
     <path d="M 796.515625 72.834688 
L 816.515625 72.834688 
L 816.515625 65.834688 
L 796.515625 65.834688 
z
" style="fill: #2196f3"/>
    </g>
    <g id="text_28">
     <!-- 2PT -->
     <g transform="translate(824.515625 72.834688) scale(0.1 -0.1)">
      <use xlink:href="#DejaVuSans-32"/>
      <use xlink:href="#DejaVuSans-50" transform="translate(63.623047 0)"/>
      <use xlink:href="#DejaVuSans-54" transform="translate(123.925781 0)"/>
     </g>
    </g>
    <g id="patch_178">
     <path d="M 796.515625 87.512812 
L 816.515625 87.512812 
L 816.515625 80.512812 
L 796.515625 80.512812 
z
" style="fill: #4caf50"/>
    </g>
    <g id="text_29">
     <!-- 3PT -->
     <g transform="translate(824.515625 87.512812) scale(0.1 -0.1)">
      <use xlink:href="#DejaVuSans-33"/>
      <use xlink:href="#DejaVuSans-50" transform="translate(63.623047 0)"/>
      <use xlink:href="#DejaVuSans-54" transform="translate(123.925781 0)"/>
     </g>
    </g>
   </g>
  </g>
 </g>
 <defs>
  <clipPath id="p097013e89c">
   <rect x="44.57" y="26.88" width="808.63" height="429.075539"/>
  </clipPath>
 </defs>
</svg>
