<?xml version="1.0" encoding="utf-8" standalone="no"?>
<!DOCTYPE svg PUBLIC "-//W3C//DTD SVG 1.1//EN"
  "http://www.w3.org/Graphics/SVG/1.1/DTD/svg11.dtd">
<svg xmlns:xlink="http://www.w3.org/1999/xlink" width="864pt" height="504pt" viewBox="0 0 864 504" xmlns="http://www.w3.org/2000/svg" version="1.1">
 <metadata>
  <rdf:RDF xmlns:dc="http://purl.org/dc/elements/1.1/" xmlns:cc="http://creativecommons.org/ns#" xmlns:rdf="http://www.w3.org/1999/02/22-rdf-syntax-ns#">
   <cc:Work>
    <dc:type rdf:resource="http://purl.org/dc/dcmitype/StillImage"/>
    <dc:date>2025-08-24T04:10:40.226669</dc:date>
    <dc:format>image/svg+xml</dc:format>
    <dc:creator>
     <cc:Agent>
      <dc:title>Matplotlib v3.10.5, https://matplotlib.org/</dc:title>
     </cc:Agent>
    </dc:creator>
   </cc:Work>
  </rdf:RDF>
 </metadata>
 <defs>
  <style type="text/css">*{stroke-linejoin: round; stroke-linecap: butt}</style>
 </defs>
 <g id="figure_1">
  <g id="patch_1">
   <path d="M 0 504 
L 864 504 
L 864 0 
L 0 0 
z
" style="fill: #ffffff"/>
  </g>
  <g id="axes_1">
   <g id="patch_2">
    <path d="M 46.55 455.955539 
L 853.2 455.955539 
L 853.2 26.88 
L 46.55 26.88 
z
" style="fill: #ffffff"/>
   </g>
   <g id="patch_3">
    <path d="M 50.725207 338.934937 
L 55.178761 338.934937 
L 55.178761 326.745291 
L 50.725207 326.745291 
z
" clip-path="url(#pc7b359f2d0)" style="fill: #ffc107"/>
   </g>
   <g id="patch_4">
    <path d="M 67.426035 338.934937 
L 71.879589 338.934937 
L 71.879589 290.176353 
L 67.426035 290.176353 
z
" clip-path="url(#pc7b359f2d0)" style="fill: #ffc107"/>
   </g>
   <g id="patch_5">
    <path d="M 84.126863 338.934937 
L 88.580418 338.934937 
L 88.580418 277.986707 
L 84.126863 277.986707 
z
" clip-path="url(#pc7b359f2d0)" style="fill: #ffc107"/>
   </g>
   <g id="patch_6">
    <path d="M 100.827692 338.934937 
L 105.281246 338.934937 
L 105.281246 290.176353 
L 100.827692 290.176353 
z
" clip-path="url(#pc7b359f2d0)" style="fill: #ffc107"/>
   </g>
   <g id="patch_7">
    <path d="M 117.52852 338.934937 
L 121.982074 338.934937 
L 121.982074 326.745291 
L 117.52852 326.745291 
z
" clip-path="url(#pc7b359f2d0)" style="fill: #ffc107"/>
   </g>
   <g id="patch_8">
    <path d="M 134.229348 338.934937 
L 138.682902 338.934937 
L 138.682902 265.797061 
L 134.229348 265.797061 
z
" clip-path="url(#pc7b359f2d0)" style="fill: #ffc107"/>
   </g>
   <g id="patch_9">
    <path d="M 150.930176 338.934937 
L 155.38373 338.934937 
L 155.38373 229.228123 
L 150.930176 229.228123 
z
" clip-path="url(#pc7b359f2d0)" style="fill: #ffc107"/>
   </g>
   <g id="patch_10">
    <path d="M 167.631004 338.934937 
L 172.084558 338.934937 
L 172.084558 314.555645 
L 167.631004 314.555645 
z
" clip-path="url(#pc7b359f2d0)" style="fill: #ffc107"/>
   </g>
   <g id="patch_11">
    <path d="M 184.331832 338.934937 
L 188.785386 338.934937 
L 188.785386 302.365999 
L 184.331832 302.365999 
z
" clip-path="url(#pc7b359f2d0)" style="fill: #ffc107"/>
   </g>
   <g id="patch_12">
    <path d="M 201.03266 338.934937 
L 205.486215 338.934937 
L 205.486215 338.934937 
L 201.03266 338.934937 
z
" clip-path="url(#pc7b359f2d0)" style="fill: #ffc107"/>
   </g>
   <g id="patch_13">
    <path d="M 217.733489 338.934937 
L 222.187043 338.934937 
L 222.187043 265.797061 
L 217.733489 265.797061 
z
" clip-path="url(#pc7b359f2d0)" style="fill: #ffc107"/>
   </g>
   <g id="patch_14">
    <path d="M 234.434317 338.934937 
L 238.887871 338.934937 
L 238.887871 326.745291 
L 234.434317 326.745291 
z
" clip-path="url(#pc7b359f2d0)" style="fill: #ffc107"/>
   </g>
   <g id="patch_15">
    <path d="M 251.135145 338.934937 
L 255.588699 338.934937 
L 255.588699 314.555645 
L 251.135145 314.555645 
z
" clip-path="url(#pc7b359f2d0)" style="fill: #ffc107"/>
   </g>
   <g id="patch_16">
    <path d="M 267.835973 338.934937 
L 272.289527 338.934937 
L 272.289527 326.745291 
L 267.835973 326.745291 
z
" clip-path="url(#pc7b359f2d0)" style="fill: #ffc107"/>
   </g>
   <g id="patch_17">
    <path d="M 284.536801 338.934937 
L 288.990355 338.934937 
L 288.990355 338.934937 
L 284.536801 338.934937 
z
" clip-path="url(#pc7b359f2d0)" style="fill: #ffc107"/>
   </g>
   <g id="patch_18">
    <path d="M 301.237629 338.934937 
L 305.691184 338.934937 
L 305.691184 302.365999 
L 301.237629 302.365999 
z
" clip-path="url(#pc7b359f2d0)" style="fill: #ffc107"/>
   </g>
   <g id="patch_19">
    <path d="M 317.938458 338.934937 
L 322.392012 338.934937 
L 322.392012 326.745291 
L 317.938458 326.745291 
z
" clip-path="url(#pc7b359f2d0)" style="fill: #ffc107"/>
   </g>
   <g id="patch_20">
    <path d="M 334.639286 338.934937 
L 339.09284 338.934937 
L 339.09284 314.555645 
L 334.639286 314.555645 
z
" clip-path="url(#pc7b359f2d0)" style="fill: #ffc107"/>
   </g>
   <g id="patch_21">
    <path d="M 351.340114 338.934937 
L 355.793668 338.934937 
L 355.793668 338.934937 
L 351.340114 338.934937 
z
" clip-path="url(#pc7b359f2d0)" style="fill: #ffc107"/>
   </g>
   <g id="patch_22">
    <path d="M 368.040942 338.934937 
L 372.494496 338.934937 
L 372.494496 253.607415 
L 368.040942 253.607415 
z
" clip-path="url(#pc7b359f2d0)" style="fill: #ffc107"/>
   </g>
   <g id="patch_23">
    <path d="M 384.74177 338.934937 
L 389.195324 338.934937 
L 389.195324 217.038478 
L 384.74177 217.038478 
z
" clip-path="url(#pc7b359f2d0)" style="fill: #ffc107"/>
   </g>
   <g id="patch_24">
    <path d="M 401.442598 338.934937 
L 405.896153 338.934937 
L 405.896153 314.555645 
L 401.442598 314.555645 
z
" clip-path="url(#pc7b359f2d0)" style="fill: #ffc107"/>
   </g>
   <g id="patch_25">
    <path d="M 418.143427 338.934937 
L 422.596981 338.934937 
L 422.596981 277.986707 
L 418.143427 277.986707 
z
" clip-path="url(#pc7b359f2d0)" style="fill: #ffc107"/>
   </g>
   <g id="patch_26">
    <path d="M 434.844255 338.934937 
L 439.297809 338.934937 
L 439.297809 351.124583 
L 434.844255 351.124583 
z
" clip-path="url(#pc7b359f2d0)" style="fill: #ffc107"/>
   </g>
   <g id="patch_27">
    <path d="M 451.545083 338.934937 
L 455.998637 338.934937 
L 455.998637 302.365999 
L 451.545083 302.365999 
z
" clip-path="url(#pc7b359f2d0)" style="fill: #ffc107"/>
   </g>
   <g id="patch_28">
    <path d="M 468.245911 338.934937 
L 472.699465 338.934937 
L 472.699465 314.555645 
L 468.245911 314.555645 
z
" clip-path="url(#pc7b359f2d0)" style="fill: #ffc107"/>
   </g>
   <g id="patch_29">
    <path d="M 484.946739 338.934937 
L 489.400293 338.934937 
L 489.400293 302.365999 
L 484.946739 302.365999 
z
" clip-path="url(#pc7b359f2d0)" style="fill: #ffc107"/>
   </g>
   <g id="patch_30">
    <path d="M 501.647567 338.934937 
L 506.101121 338.934937 
L 506.101121 192.659186 
L 501.647567 192.659186 
z
" clip-path="url(#pc7b359f2d0)" style="fill: #ffc107"/>
   </g>
   <g id="patch_31">
    <path d="M 518.348395 338.934937 
L 522.80195 338.934937 
L 522.80195 314.555645 
L 518.348395 314.555645 
z
" clip-path="url(#pc7b359f2d0)" style="fill: #ffc107"/>
   </g>
   <g id="patch_32">
    <path d="M 535.049224 338.934937 
L 539.502778 338.934937 
L 539.502778 326.745291 
L 535.049224 326.745291 
z
" clip-path="url(#pc7b359f2d0)" style="fill: #ffc107"/>
   </g>
   <g id="patch_33">
    <path d="M 551.750052 338.934937 
L 556.203606 338.934937 
L 556.203606 314.555645 
L 551.750052 314.555645 
z
" clip-path="url(#pc7b359f2d0)" style="fill: #ffc107"/>
   </g>
   <g id="patch_34">
    <path d="M 568.45088 338.934937 
L 572.904434 338.934937 
L 572.904434 338.934937 
L 568.45088 338.934937 
z
" clip-path="url(#pc7b359f2d0)" style="fill: #ffc107"/>
   </g>
   <g id="patch_35">
    <path d="M 585.151708 338.934937 
L 589.605262 338.934937 
L 589.605262 277.986707 
L 585.151708 277.986707 
z
" clip-path="url(#pc7b359f2d0)" style="fill: #ffc107"/>
   </g>
   <g id="patch_36">
    <path d="M 601.852536 338.934937 
L 606.30609 338.934937 
L 606.30609 277.986707 
L 601.852536 277.986707 
z
" clip-path="url(#pc7b359f2d0)" style="fill: #ffc107"/>
   </g>
   <g id="patch_37">
    <path d="M 618.553364 338.934937 
L 623.006919 338.934937 
L 623.006919 290.176353 
L 618.553364 290.176353 
z
" clip-path="url(#pc7b359f2d0)" style="fill: #ffc107"/>
   </g>
   <g id="patch_38">
    <path d="M 635.254193 338.934937 
L 639.707747 338.934937 
L 639.707747 290.176353 
L 635.254193 290.176353 
z
" clip-path="url(#pc7b359f2d0)" style="fill: #ffc107"/>
   </g>
   <g id="patch_39">
    <path d="M 651.955021 338.934937 
L 656.408575 338.934937 
L 656.408575 351.124583 
L 651.955021 351.124583 
z
" clip-path="url(#pc7b359f2d0)" style="fill: #ffc107"/>
   </g>
   <g id="patch_40">
    <path d="M 668.655849 338.934937 
L 673.109403 338.934937 
L 673.109403 326.745291 
L 668.655849 326.745291 
z
" clip-path="url(#pc7b359f2d0)" style="fill: #ffc107"/>
   </g>
   <g id="patch_41">
    <path d="M 685.356677 338.934937 
L 689.810231 338.934937 
L 689.810231 326.745291 
L 685.356677 326.745291 
z
" clip-path="url(#pc7b359f2d0)" style="fill: #ffc107"/>
   </g>
   <g id="patch_42">
    <path d="M 702.057505 338.934937 
L 706.511059 338.934937 
L 706.511059 338.934937 
L 702.057505 338.934937 
z
" clip-path="url(#pc7b359f2d0)" style="fill: #ffc107"/>
   </g>
   <g id="patch_43">
    <path d="M 718.758333 338.934937 
L 723.211888 338.934937 
L 723.211888 290.176353 
L 718.758333 290.176353 
z
" clip-path="url(#pc7b359f2d0)" style="fill: #ffc107"/>
   </g>
   <g id="patch_44">
    <path d="M 735.459161 338.934937 
L 739.912716 338.934937 
L 739.912716 290.176353 
L 735.459161 290.176353 
z
" clip-path="url(#pc7b359f2d0)" style="fill: #ffc107"/>
   </g>
   <g id="patch_45">
    <path d="M 752.15999 338.934937 
L 756.613544 338.934937 
L 756.613544 326.745291 
L 752.15999 326.745291 
z
" clip-path="url(#pc7b359f2d0)" style="fill: #ffc107"/>
   </g>
   <g id="patch_46">
    <path d="M 768.860818 338.934937 
L 773.314372 338.934937 
L 773.314372 314.555645 
L 768.860818 314.555645 
z
" clip-path="url(#pc7b359f2d0)" style="fill: #ffc107"/>
   </g>
   <g id="patch_47">
    <path d="M 785.561646 338.934937 
L 790.0152 338.934937 
L 790.0152 253.607415 
L 785.561646 253.607415 
z
" clip-path="url(#pc7b359f2d0)" style="fill: #ffc107"/>
   </g>
   <g id="patch_48">
    <path d="M 802.262474 338.934937 
L 806.716028 338.934937 
L 806.716028 338.934937 
L 802.262474 338.934937 
z
" clip-path="url(#pc7b359f2d0)" style="fill: #ffc107"/>
   </g>
   <g id="patch_49">
    <path d="M 818.963302 338.934937 
L 823.416856 338.934937 
L 823.416856 326.745291 
L 818.963302 326.745291 
z
" clip-path="url(#pc7b359f2d0)" style="fill: #ffc107"/>
   </g>
   <g id="patch_50">
    <path d="M 835.66413 338.934937 
L 840.117685 338.934937 
L 840.117685 351.124583 
L 835.66413 351.124583 
z
" clip-path="url(#pc7b359f2d0)" style="fill: #ffc107"/>
   </g>
   <g id="patch_51">
    <path d="M 55.178761 338.934937 
L 59.632315 338.934937 
L 59.632315 314.555645 
L 55.178761 314.555645 
z
" clip-path="url(#pc7b359f2d0)" style="fill: #2196f3"/>
   </g>
   <g id="patch_52">
    <path d="M 71.879589 338.934937 
L 76.333144 338.934937 
L 76.333144 265.797061 
L 71.879589 265.797061 
z
" clip-path="url(#pc7b359f2d0)" style="fill: #2196f3"/>
   </g>
   <g id="patch_53">
    <path d="M 88.580418 338.934937 
L 93.033972 338.934937 
L 93.033972 290.176353 
L 88.580418 290.176353 
z
" clip-path="url(#pc7b359f2d0)" style="fill: #2196f3"/>
   </g>
   <g id="patch_54">
    <path d="M 105.281246 338.934937 
L 109.7348 338.934937 
L 109.7348 265.797061 
L 105.281246 265.797061 
z
" clip-path="url(#pc7b359f2d0)" style="fill: #2196f3"/>
   </g>
   <g id="patch_55">
    <path d="M 121.982074 338.934937 
L 126.435628 338.934937 
L 126.435628 192.659186 
L 121.982074 192.659186 
z
" clip-path="url(#pc7b359f2d0)" style="fill: #2196f3"/>
   </g>
   <g id="patch_56">
    <path d="M 138.682902 338.934937 
L 143.136456 338.934937 
L 143.136456 168.279894 
L 138.682902 168.279894 
z
" clip-path="url(#pc7b359f2d0)" style="fill: #2196f3"/>
   </g>
   <g id="patch_57">
    <path d="M 155.38373 338.934937 
L 159.837284 338.934937 
L 159.837284 241.417769 
L 155.38373 241.417769 
z
" clip-path="url(#pc7b359f2d0)" style="fill: #2196f3"/>
   </g>
   <g id="patch_58">
    <path d="M 172.084558 338.934937 
L 176.538112 338.934937 
L 176.538112 217.038478 
L 172.084558 217.038478 
z
" clip-path="url(#pc7b359f2d0)" style="fill: #2196f3"/>
   </g>
   <g id="patch_59">
    <path d="M 188.785386 338.934937 
L 193.238941 338.934937 
L 193.238941 241.417769 
L 188.785386 241.417769 
z
" clip-path="url(#pc7b359f2d0)" style="fill: #2196f3"/>
   </g>
   <g id="patch_60">
    <path d="M 205.486215 338.934937 
L 209.939769 338.934937 
L 209.939769 217.038478 
L 205.486215 217.038478 
z
" clip-path="url(#pc7b359f2d0)" style="fill: #2196f3"/>
   </g>
   <g id="patch_61">
    <path d="M 222.187043 338.934937 
L 226.640597 338.934937 
L 226.640597 217.038478 
L 222.187043 217.038478 
z
" clip-path="url(#pc7b359f2d0)" style="fill: #2196f3"/>
   </g>
   <g id="patch_62">
    <path d="M 238.887871 338.934937 
L 243.341425 338.934937 
L 243.341425 217.038478 
L 238.887871 217.038478 
z
" clip-path="url(#pc7b359f2d0)" style="fill: #2196f3"/>
   </g>
   <g id="patch_63">
    <path d="M 255.588699 338.934937 
L 260.042253 338.934937 
L 260.042253 290.176353 
L 255.588699 290.176353 
z
" clip-path="url(#pc7b359f2d0)" style="fill: #2196f3"/>
   </g>
   <g id="patch_64">
    <path d="M 272.289527 338.934937 
L 276.743081 338.934937 
L 276.743081 387.693521 
L 272.289527 387.693521 
z
" clip-path="url(#pc7b359f2d0)" style="fill: #2196f3"/>
   </g>
   <g id="patch_65">
    <path d="M 288.990355 338.934937 
L 293.44391 338.934937 
L 293.44391 290.176353 
L 288.990355 290.176353 
z
" clip-path="url(#pc7b359f2d0)" style="fill: #2196f3"/>
   </g>
   <g id="patch_66">
    <path d="M 305.691184 338.934937 
L 310.144738 338.934937 
L 310.144738 387.693521 
L 305.691184 387.693521 
z
" clip-path="url(#pc7b359f2d0)" style="fill: #2196f3"/>
   </g>
   <g id="patch_67">
    <path d="M 322.392012 338.934937 
L 326.845566 338.934937 
L 326.845566 314.555645 
L 322.392012 314.555645 
z
" clip-path="url(#pc7b359f2d0)" style="fill: #2196f3"/>
   </g>
   <g id="patch_68">
    <path d="M 339.09284 338.934937 
L 343.546394 338.934937 
L 343.546394 436.452105 
L 339.09284 436.452105 
z
" clip-path="url(#pc7b359f2d0)" style="fill: #2196f3"/>
   </g>
   <g id="patch_69">
    <path d="M 355.793668 338.934937 
L 360.247222 338.934937 
L 360.247222 217.038478 
L 355.793668 217.038478 
z
" clip-path="url(#pc7b359f2d0)" style="fill: #2196f3"/>
   </g>
   <g id="patch_70">
    <path d="M 372.494496 338.934937 
L 376.94805 338.934937 
L 376.94805 314.555645 
L 372.494496 314.555645 
z
" clip-path="url(#pc7b359f2d0)" style="fill: #2196f3"/>
   </g>
   <g id="patch_71">
    <path d="M 389.195324 338.934937 
L 393.648879 338.934937 
L 393.648879 265.797061 
L 389.195324 265.797061 
z
" clip-path="url(#pc7b359f2d0)" style="fill: #2196f3"/>
   </g>
   <g id="patch_72">
    <path d="M 405.896153 338.934937 
L 410.349707 338.934937 
L 410.349707 265.797061 
L 405.896153 265.797061 
z
" clip-path="url(#pc7b359f2d0)" style="fill: #2196f3"/>
   </g>
   <g id="patch_73">
    <path d="M 422.596981 338.934937 
L 427.050535 338.934937 
L 427.050535 192.659186 
L 422.596981 192.659186 
z
" clip-path="url(#pc7b359f2d0)" style="fill: #2196f3"/>
   </g>
   <g id="patch_74">
    <path d="M 439.297809 338.934937 
L 443.751363 338.934937 
L 443.751363 314.555645 
L 439.297809 314.555645 
z
" clip-path="url(#pc7b359f2d0)" style="fill: #2196f3"/>
   </g>
   <g id="patch_75">
    <path d="M 455.998637 338.934937 
L 460.452191 338.934937 
L 460.452191 314.555645 
L 455.998637 314.555645 
z
" clip-path="url(#pc7b359f2d0)" style="fill: #2196f3"/>
   </g>
   <g id="patch_76">
    <path d="M 472.699465 338.934937 
L 477.153019 338.934937 
L 477.153019 241.417769 
L 472.699465 241.417769 
z
" clip-path="url(#pc7b359f2d0)" style="fill: #2196f3"/>
   </g>
   <g id="patch_77">
    <path d="M 489.400293 338.934937 
L 493.853847 338.934937 
L 493.853847 192.659186 
L 489.400293 192.659186 
z
" clip-path="url(#pc7b359f2d0)" style="fill: #2196f3"/>
   </g>
   <g id="patch_78">
    <path d="M 506.101121 338.934937 
L 510.554676 338.934937 
L 510.554676 338.934937 
L 506.101121 338.934937 
z
" clip-path="url(#pc7b359f2d0)" style="fill: #2196f3"/>
   </g>
   <g id="patch_79">
    <path d="M 522.80195 338.934937 
L 527.255504 338.934937 
L 527.255504 192.659186 
L 522.80195 192.659186 
z
" clip-path="url(#pc7b359f2d0)" style="fill: #2196f3"/>
   </g>
   <g id="patch_80">
    <path d="M 539.502778 338.934937 
L 543.956332 338.934937 
L 543.956332 412.072813 
L 539.502778 412.072813 
z
" clip-path="url(#pc7b359f2d0)" style="fill: #2196f3"/>
   </g>
   <g id="patch_81">
    <path d="M 556.203606 338.934937 
L 560.65716 338.934937 
L 560.65716 192.659186 
L 556.203606 192.659186 
z
" clip-path="url(#pc7b359f2d0)" style="fill: #2196f3"/>
   </g>
   <g id="patch_82">
    <path d="M 572.904434 338.934937 
L 577.357988 338.934937 
L 577.357988 241.417769 
L 572.904434 241.417769 
z
" clip-path="url(#pc7b359f2d0)" style="fill: #2196f3"/>
   </g>
   <g id="patch_83">
    <path d="M 589.605262 338.934937 
L 594.058816 338.934937 
L 594.058816 168.279894 
L 589.605262 168.279894 
z
" clip-path="url(#pc7b359f2d0)" style="fill: #2196f3"/>
   </g>
   <g id="patch_84">
    <path d="M 606.30609 338.934937 
L 610.759645 338.934937 
L 610.759645 217.038478 
L 606.30609 217.038478 
z
" clip-path="url(#pc7b359f2d0)" style="fill: #2196f3"/>
   </g>
   <g id="patch_85">
    <path d="M 623.006919 338.934937 
L 627.460473 338.934937 
L 627.460473 241.417769 
L 623.006919 241.417769 
z
" clip-path="url(#pc7b359f2d0)" style="fill: #2196f3"/>
   </g>
   <g id="patch_86">
    <path d="M 639.707747 338.934937 
L 644.161301 338.934937 
L 644.161301 314.555645 
L 639.707747 314.555645 
z
" clip-path="url(#pc7b359f2d0)" style="fill: #2196f3"/>
   </g>
   <g id="patch_87">
    <path d="M 656.408575 338.934937 
L 660.862129 338.934937 
L 660.862129 363.314229 
L 656.408575 363.314229 
z
" clip-path="url(#pc7b359f2d0)" style="fill: #2196f3"/>
   </g>
   <g id="patch_88">
    <path d="M 673.109403 338.934937 
L 677.562957 338.934937 
L 677.562957 338.934937 
L 673.109403 338.934937 
z
" clip-path="url(#pc7b359f2d0)" style="fill: #2196f3"/>
   </g>
   <g id="patch_89">
    <path d="M 689.810231 338.934937 
L 694.263785 338.934937 
L 694.263785 338.934937 
L 689.810231 338.934937 
z
" clip-path="url(#pc7b359f2d0)" style="fill: #2196f3"/>
   </g>
   <g id="patch_90">
    <path d="M 706.511059 338.934937 
L 710.964614 338.934937 
L 710.964614 314.555645 
L 706.511059 314.555645 
z
" clip-path="url(#pc7b359f2d0)" style="fill: #2196f3"/>
   </g>
   <g id="patch_91">
    <path d="M 723.211888 338.934937 
L 727.665442 338.934937 
L 727.665442 387.693521 
L 723.211888 387.693521 
z
" clip-path="url(#pc7b359f2d0)" style="fill: #2196f3"/>
   </g>
   <g id="patch_92">
    <path d="M 739.912716 338.934937 
L 744.36627 338.934937 
L 744.36627 217.038478 
L 739.912716 217.038478 
z
" clip-path="url(#pc7b359f2d0)" style="fill: #2196f3"/>
   </g>
   <g id="patch_93">
    <path d="M 756.613544 338.934937 
L 761.067098 338.934937 
L 761.067098 217.038478 
L 756.613544 217.038478 
z
" clip-path="url(#pc7b359f2d0)" style="fill: #2196f3"/>
   </g>
   <g id="patch_94">
    <path d="M 773.314372 338.934937 
L 777.767926 338.934937 
L 777.767926 241.417769 
L 773.314372 241.417769 
z
" clip-path="url(#pc7b359f2d0)" style="fill: #2196f3"/>
   </g>
   <g id="patch_95">
    <path d="M 790.0152 338.934937 
L 794.468754 338.934937 
L 794.468754 290.176353 
L 790.0152 290.176353 
z
" clip-path="url(#pc7b359f2d0)" style="fill: #2196f3"/>
   </g>
   <g id="patch_96">
    <path d="M 806.716028 338.934937 
L 811.169582 338.934937 
L 811.169582 314.555645 
L 806.716028 314.555645 
z
" clip-path="url(#pc7b359f2d0)" style="fill: #2196f3"/>
   </g>
   <g id="patch_97">
    <path d="M 823.416856 338.934937 
L 827.870411 338.934937 
L 827.870411 217.038478 
L 823.416856 217.038478 
z
" clip-path="url(#pc7b359f2d0)" style="fill: #2196f3"/>
   </g>
   <g id="patch_98">
    <path d="M 840.117685 338.934937 
L 844.571239 338.934937 
L 844.571239 192.659186 
L 840.117685 192.659186 
z
" clip-path="url(#pc7b359f2d0)" style="fill: #2196f3"/>
   </g>
   <g id="patch_99">
    <path d="M 59.632315 338.934937 
L 64.08587 338.934937 
L 64.08587 338.934937 
L 59.632315 338.934937 
z
" clip-path="url(#pc7b359f2d0)" style="fill: #4caf50"/>
   </g>
   <g id="patch_100">
    <path d="M 76.333144 338.934937 
L 80.786698 338.934937 
L 80.786698 156.090248 
L 76.333144 156.090248 
z
" clip-path="url(#pc7b359f2d0)" style="fill: #4caf50"/>
   </g>
   <g id="patch_101">
    <path d="M 93.033972 338.934937 
L 97.487526 338.934937 
L 97.487526 375.503875 
L 93.033972 375.503875 
z
" clip-path="url(#pc7b359f2d0)" style="fill: #4caf50"/>
   </g>
   <g id="patch_102">
    <path d="M 109.7348 338.934937 
L 114.188354 338.934937 
L 114.188354 302.365999 
L 109.7348 302.365999 
z
" clip-path="url(#pc7b359f2d0)" style="fill: #4caf50"/>
   </g>
   <g id="patch_103">
    <path d="M 126.435628 338.934937 
L 130.889182 338.934937 
L 130.889182 375.503875 
L 126.435628 375.503875 
z
" clip-path="url(#pc7b359f2d0)" style="fill: #4caf50"/>
   </g>
   <g id="patch_104">
    <path d="M 143.136456 338.934937 
L 147.59001 338.934937 
L 147.59001 302.365999 
L 143.136456 302.365999 
z
" clip-path="url(#pc7b359f2d0)" style="fill: #4caf50"/>
   </g>
   <g id="patch_105">
    <path d="M 159.837284 338.934937 
L 164.290839 338.934937 
L 164.290839 338.934937 
L 159.837284 338.934937 
z
" clip-path="url(#pc7b359f2d0)" style="fill: #4caf50"/>
   </g>
   <g id="patch_106">
    <path d="M 176.538112 338.934937 
L 180.991667 338.934937 
L 180.991667 229.228123 
L 176.538112 229.228123 
z
" clip-path="url(#pc7b359f2d0)" style="fill: #4caf50"/>
   </g>
   <g id="patch_107">
    <path d="M 193.238941 338.934937 
L 197.692495 338.934937 
L 197.692495 338.934937 
L 193.238941 338.934937 
z
" clip-path="url(#pc7b359f2d0)" style="fill: #4caf50"/>
   </g>
   <g id="patch_108">
    <path d="M 209.939769 338.934937 
L 214.393323 338.934937 
L 214.393323 302.365999 
L 209.939769 302.365999 
z
" clip-path="url(#pc7b359f2d0)" style="fill: #4caf50"/>
   </g>
   <g id="patch_109">
    <path d="M 226.640597 338.934937 
L 231.094151 338.934937 
L 231.094151 265.797061 
L 226.640597 265.797061 
z
" clip-path="url(#pc7b359f2d0)" style="fill: #4caf50"/>
   </g>
   <g id="patch_110">
    <path d="M 243.341425 338.934937 
L 247.794979 338.934937 
L 247.794979 302.365999 
L 243.341425 302.365999 
z
" clip-path="url(#pc7b359f2d0)" style="fill: #4caf50"/>
   </g>
   <g id="patch_111">
    <path d="M 260.042253 338.934937 
L 264.495807 338.934937 
L 264.495807 375.503875 
L 260.042253 375.503875 
z
" clip-path="url(#pc7b359f2d0)" style="fill: #4caf50"/>
   </g>
   <g id="patch_112">
    <path d="M 276.743081 338.934937 
L 281.196636 338.934937 
L 281.196636 302.365999 
L 276.743081 302.365999 
z
" clip-path="url(#pc7b359f2d0)" style="fill: #4caf50"/>
   </g>
   <g id="patch_113">
    <path d="M 293.44391 338.934937 
L 297.897464 338.934937 
L 297.897464 302.365999 
L 293.44391 302.365999 
z
" clip-path="url(#pc7b359f2d0)" style="fill: #4caf50"/>
   </g>
   <g id="patch_114">
    <path d="M 310.144738 338.934937 
L 314.598292 338.934937 
L 314.598292 302.365999 
L 310.144738 302.365999 
z
" clip-path="url(#pc7b359f2d0)" style="fill: #4caf50"/>
   </g>
   <g id="patch_115">
    <path d="M 326.845566 338.934937 
L 331.29912 338.934937 
L 331.29912 82.952372 
L 326.845566 82.952372 
z
" clip-path="url(#pc7b359f2d0)" style="fill: #4caf50"/>
   </g>
   <g id="patch_116">
    <path d="M 343.546394 338.934937 
L 347.999948 338.934937 
L 347.999948 302.365999 
L 343.546394 302.365999 
z
" clip-path="url(#pc7b359f2d0)" style="fill: #4caf50"/>
   </g>
   <g id="patch_117">
    <path d="M 360.247222 338.934937 
L 364.700776 338.934937 
L 364.700776 229.228123 
L 360.247222 229.228123 
z
" clip-path="url(#pc7b359f2d0)" style="fill: #4caf50"/>
   </g>
   <g id="patch_118">
    <path d="M 376.94805 338.934937 
L 381.401605 338.934937 
L 381.401605 156.090248 
L 376.94805 156.090248 
z
" clip-path="url(#pc7b359f2d0)" style="fill: #4caf50"/>
   </g>
   <g id="patch_119">
    <path d="M 393.648879 338.934937 
L 398.102433 338.934937 
L 398.102433 412.072813 
L 393.648879 412.072813 
z
" clip-path="url(#pc7b359f2d0)" style="fill: #4caf50"/>
   </g>
   <g id="patch_120">
    <path d="M 410.349707 338.934937 
L 414.803261 338.934937 
L 414.803261 229.228123 
L 410.349707 229.228123 
z
" clip-path="url(#pc7b359f2d0)" style="fill: #4caf50"/>
   </g>
   <g id="patch_121">
    <path d="M 427.050535 338.934937 
L 431.504089 338.934937 
L 431.504089 412.072813 
L 427.050535 412.072813 
z
" clip-path="url(#pc7b359f2d0)" style="fill: #4caf50"/>
   </g>
   <g id="patch_122">
    <path d="M 443.751363 338.934937 
L 448.204917 338.934937 
L 448.204917 375.503875 
L 443.751363 375.503875 
z
" clip-path="url(#pc7b359f2d0)" style="fill: #4caf50"/>
   </g>
   <g id="patch_123">
    <path d="M 460.452191 338.934937 
L 464.905745 338.934937 
L 464.905745 46.383434 
L 460.452191 46.383434 
z
" clip-path="url(#pc7b359f2d0)" style="fill: #4caf50"/>
   </g>
   <g id="patch_124">
    <path d="M 477.153019 338.934937 
L 481.606573 338.934937 
L 481.606573 302.365999 
L 477.153019 302.365999 
z
" clip-path="url(#pc7b359f2d0)" style="fill: #4caf50"/>
   </g>
   <g id="patch_125">
    <path d="M 493.853847 338.934937 
L 498.307402 338.934937 
L 498.307402 302.365999 
L 493.853847 302.365999 
z
" clip-path="url(#pc7b359f2d0)" style="fill: #4caf50"/>
   </g>
   <g id="patch_126">
    <path d="M 510.554676 338.934937 
L 515.00823 338.934937 
L 515.00823 302.365999 
L 510.554676 302.365999 
z
" clip-path="url(#pc7b359f2d0)" style="fill: #4caf50"/>
   </g>
   <g id="patch_127">
    <path d="M 527.255504 338.934937 
L 531.709058 338.934937 
L 531.709058 338.934937 
L 527.255504 338.934937 
z
" clip-path="url(#pc7b359f2d0)" style="fill: #4caf50"/>
   </g>
   <g id="patch_128">
    <path d="M 543.956332 338.934937 
L 548.409886 338.934937 
L 548.409886 82.952372 
L 543.956332 82.952372 
z
" clip-path="url(#pc7b359f2d0)" style="fill: #4caf50"/>
   </g>
   <g id="patch_129">
    <path d="M 560.65716 338.934937 
L 565.110714 338.934937 
L 565.110714 119.52131 
L 560.65716 119.52131 
z
" clip-path="url(#pc7b359f2d0)" style="fill: #4caf50"/>
   </g>
   <g id="patch_130">
    <path d="M 577.357988 338.934937 
L 581.811542 338.934937 
L 581.811542 302.365999 
L 577.357988 302.365999 
z
" clip-path="url(#pc7b359f2d0)" style="fill: #4caf50"/>
   </g>
   <g id="patch_131">
    <path d="M 594.058816 338.934937 
L 598.512371 338.934937 
L 598.512371 82.952372 
L 594.058816 82.952372 
z
" clip-path="url(#pc7b359f2d0)" style="fill: #4caf50"/>
   </g>
   <g id="patch_132">
    <path d="M 610.759645 338.934937 
L 615.213199 338.934937 
L 615.213199 375.503875 
L 610.759645 375.503875 
z
" clip-path="url(#pc7b359f2d0)" style="fill: #4caf50"/>
   </g>
   <g id="patch_133">
    <path d="M 627.460473 338.934937 
L 631.914027 338.934937 
L 631.914027 192.659186 
L 627.460473 192.659186 
z
" clip-path="url(#pc7b359f2d0)" style="fill: #4caf50"/>
   </g>
   <g id="patch_134">
    <path d="M 644.161301 338.934937 
L 648.614855 338.934937 
L 648.614855 375.503875 
L 644.161301 375.503875 
z
" clip-path="url(#pc7b359f2d0)" style="fill: #4caf50"/>
   </g>
   <g id="patch_135">
    <path d="M 660.862129 338.934937 
L 665.315683 338.934937 
L 665.315683 302.365999 
L 660.862129 302.365999 
z
" clip-path="url(#pc7b359f2d0)" style="fill: #4caf50"/>
   </g>
   <g id="patch_136">
    <path d="M 677.562957 338.934937 
L 682.016511 338.934937 
L 682.016511 338.934937 
L 677.562957 338.934937 
z
" clip-path="url(#pc7b359f2d0)" style="fill: #4caf50"/>
   </g>
   <g id="patch_137">
    <path d="M 694.263785 338.934937 
L 698.71734 338.934937 
L 698.71734 302.365999 
L 694.263785 302.365999 
z
" clip-path="url(#pc7b359f2d0)" style="fill: #4caf50"/>
   </g>
   <g id="patch_138">
    <path d="M 710.964614 338.934937 
L 715.418168 338.934937 
L 715.418168 338.934937 
L 710.964614 338.934937 
z
" clip-path="url(#pc7b359f2d0)" style="fill: #4caf50"/>
   </g>
   <g id="patch_139">
    <path d="M 727.665442 338.934937 
L 732.118996 338.934937 
L 732.118996 302.365999 
L 727.665442 302.365999 
z
" clip-path="url(#pc7b359f2d0)" style="fill: #4caf50"/>
   </g>
   <g id="patch_140">
    <path d="M 744.36627 338.934937 
L 748.819824 338.934937 
L 748.819824 338.934937 
L 744.36627 338.934937 
z
" clip-path="url(#pc7b359f2d0)" style="fill: #4caf50"/>
   </g>
   <g id="patch_141">
    <path d="M 761.067098 338.934937 
L 765.520652 338.934937 
L 765.520652 302.365999 
L 761.067098 302.365999 
z
" clip-path="url(#pc7b359f2d0)" style="fill: #4caf50"/>
   </g>
   <g id="patch_142">
    <path d="M 777.767926 338.934937 
L 782.22148 338.934937 
L 782.22148 229.228123 
L 777.767926 229.228123 
z
" clip-path="url(#pc7b359f2d0)" style="fill: #4caf50"/>
   </g>
   <g id="patch_143">
    <path d="M 794.468754 338.934937 
L 798.922308 338.934937 
L 798.922308 302.365999 
L 794.468754 302.365999 
z
" clip-path="url(#pc7b359f2d0)" style="fill: #4caf50"/>
   </g>
   <g id="patch_144">
    <path d="M 811.169582 338.934937 
L 815.623137 338.934937 
L 815.623137 338.934937 
L 811.169582 338.934937 
z
" clip-path="url(#pc7b359f2d0)" style="fill: #4caf50"/>
   </g>
   <g id="patch_145">
    <path d="M 827.870411 338.934937 
L 832.323965 338.934937 
L 832.323965 302.365999 
L 827.870411 302.365999 
z
" clip-path="url(#pc7b359f2d0)" style="fill: #4caf50"/>
   </g>
   <g id="patch_146">
    <path d="M 844.571239 338.934937 
L 849.024793 338.934937 
L 849.024793 375.503875 
L 844.571239 375.503875 
z
" clip-path="url(#pc7b359f2d0)" style="fill: #4caf50"/>
   </g>
   <g id="matplotlib.axis_1">
    <g id="xtick_1">
     <g id="line2d_1">
      <defs>
       <path id="m122fb945d6" d="M 0 0 
L 0 3.5 
" style="stroke: #000000; stroke-width: 0.8"/>
      </defs>
      <g>
       <use xlink:href="#m122fb945d6" x="57.405538" y="455.955539" style="stroke: #000000; stroke-width: 0.8"/>
      </g>
     </g>
     <g id="text_1">
      <!-- 0 -->
      <g transform="translate(57.107228 472.827413) rotate(-45) scale(0.1 -0.1)">
       <defs>
        <path id="DejaVuSans-30" d="M 2034 4250 
Q 1547 4250 1301 3770 
Q 1056 3291 1056 2328 
Q 1056 1369 1301 889 
Q 1547 409 2034 409 
Q 2525 409 2770 889 
Q 3016 1369 3016 2328 
Q 3016 3291 2770 3770 
Q 2525 4250 2034 4250 
z
M 2034 4750 
Q 2819 4750 3233 4129 
Q 3647 3509 3647 2328 
Q 3647 1150 3233 529 
Q 2819 -91 2034 -91 
Q 1250 -91 836 529 
Q 422 1150 422 2328 
Q 422 3509 836 4129 
Q 1250 4750 2034 4750 
z
" transform="scale(0.015625)"/>
       </defs>
       <use xlink:href="#DejaVuSans-30"/>
      </g>
     </g>
    </g>
    <g id="xtick_2">
     <g id="line2d_2">
      <g>
       <use xlink:href="#m122fb945d6" x="74.106366" y="455.955539" style="stroke: #000000; stroke-width: 0.8"/>
      </g>
     </g>
    </g>
    <g id="xtick_3">
     <g id="line2d_3">
      <g>
       <use xlink:href="#m122fb945d6" x="90.807195" y="455.955539" style="stroke: #000000; stroke-width: 0.8"/>
      </g>
     </g>
    </g>
    <g id="xtick_4">
     <g id="line2d_4">
      <g>
       <use xlink:href="#m122fb945d6" x="107.508023" y="455.955539" style="stroke: #000000; stroke-width: 0.8"/>
      </g>
     </g>
    </g>
    <g id="xtick_5">
     <g id="line2d_5">
      <g>
       <use xlink:href="#m122fb945d6" x="124.208851" y="455.955539" style="stroke: #000000; stroke-width: 0.8"/>
      </g>
     </g>
    </g>
    <g id="xtick_6">
     <g id="line2d_6">
      <g>
       <use xlink:href="#m122fb945d6" x="140.909679" y="455.955539" style="stroke: #000000; stroke-width: 0.8"/>
      </g>
     </g>
     <g id="text_2">
      <!-- 5 -->
      <g transform="translate(140.611368 472.827413) rotate(-45) scale(0.1 -0.1)">
       <defs>
        <path id="DejaVuSans-35" d="M 691 4666 
L 3169 4666 
L 3169 4134 
L 1269 4134 
L 1269 2991 
Q 1406 3038 1543 3061 
Q 1681 3084 1819 3084 
Q 2600 3084 3056 2656 
Q 3513 2228 3513 1497 
Q 3513 744 3044 326 
Q 2575 -91 1722 -91 
Q 1428 -91 1123 -41 
Q 819 9 494 109 
L 494 744 
Q 775 591 1075 516 
Q 1375 441 1709 441 
Q 2250 441 2565 725 
Q 2881 1009 2881 1497 
Q 2881 1984 2565 2268 
Q 2250 2553 1709 2553 
Q 1456 2553 1204 2497 
Q 953 2441 691 2322 
L 691 4666 
z
" transform="scale(0.015625)"/>
       </defs>
       <use xlink:href="#DejaVuSans-35"/>
      </g>
     </g>
    </g>
    <g id="xtick_7">
     <g id="line2d_7">
      <g>
       <use xlink:href="#m122fb945d6" x="157.610507" y="455.955539" style="stroke: #000000; stroke-width: 0.8"/>
      </g>
     </g>
    </g>
    <g id="xtick_8">
     <g id="line2d_8">
      <g>
       <use xlink:href="#m122fb945d6" x="174.311335" y="455.955539" style="stroke: #000000; stroke-width: 0.8"/>
      </g>
     </g>
    </g>
    <g id="xtick_9">
     <g id="line2d_9">
      <g>
       <use xlink:href="#m122fb945d6" x="191.012164" y="455.955539" style="stroke: #000000; stroke-width: 0.8"/>
      </g>
     </g>
    </g>
    <g id="xtick_10">
     <g id="line2d_10">
      <g>
       <use xlink:href="#m122fb945d6" x="207.712992" y="455.955539" style="stroke: #000000; stroke-width: 0.8"/>
      </g>
     </g>
    </g>
    <g id="xtick_11">
     <g id="line2d_11">
      <g>
       <use xlink:href="#m122fb945d6" x="224.41382" y="455.955539" style="stroke: #000000; stroke-width: 0.8"/>
      </g>
     </g>
     <g id="text_3">
      <!-- 10 -->
      <g transform="translate(221.866026 477.326379) rotate(-45) scale(0.1 -0.1)">
       <defs>
        <path id="DejaVuSans-31" d="M 794 531 
L 1825 531 
L 1825 4091 
L 703 3866 
L 703 4441 
L 1819 4666 
L 2450 4666 
L 2450 531 
L 3481 531 
L 3481 0 
L 794 0 
L 794 531 
z
" transform="scale(0.015625)"/>
       </defs>
       <use xlink:href="#DejaVuSans-31"/>
       <use xlink:href="#DejaVuSans-30" transform="translate(63.623047 0)"/>
      </g>
     </g>
    </g>
    <g id="xtick_12">
     <g id="line2d_12">
      <g>
       <use xlink:href="#m122fb945d6" x="241.114648" y="455.955539" style="stroke: #000000; stroke-width: 0.8"/>
      </g>
     </g>
     <g id="text_4">
      <!-- 11 -->
      <g transform="translate(238.566854 477.326379) rotate(-45) scale(0.1 -0.1)">
       <use xlink:href="#DejaVuSans-31"/>
       <use xlink:href="#DejaVuSans-31" transform="translate(63.623047 0)"/>
      </g>
     </g>
    </g>
    <g id="xtick_13">
     <g id="line2d_13">
      <g>
       <use xlink:href="#m122fb945d6" x="257.815476" y="455.955539" style="stroke: #000000; stroke-width: 0.8"/>
      </g>
     </g>
    </g>
    <g id="xtick_14">
     <g id="line2d_14">
      <g>
       <use xlink:href="#m122fb945d6" x="274.516304" y="455.955539" style="stroke: #000000; stroke-width: 0.8"/>
      </g>
     </g>
    </g>
    <g id="xtick_15">
     <g id="line2d_15">
      <g>
       <use xlink:href="#m122fb945d6" x="291.217133" y="455.955539" style="stroke: #000000; stroke-width: 0.8"/>
      </g>
     </g>
    </g>
    <g id="xtick_16">
     <g id="line2d_16">
      <g>
       <use xlink:href="#m122fb945d6" x="307.917961" y="455.955539" style="stroke: #000000; stroke-width: 0.8"/>
      </g>
     </g>
     <g id="text_5">
      <!-- 15 -->
      <g transform="translate(305.370167 477.326379) rotate(-45) scale(0.1 -0.1)">
       <use xlink:href="#DejaVuSans-31"/>
       <use xlink:href="#DejaVuSans-35" transform="translate(63.623047 0)"/>
      </g>
     </g>
    </g>
    <g id="xtick_17">
     <g id="line2d_17">
      <g>
       <use xlink:href="#m122fb945d6" x="324.618789" y="455.955539" style="stroke: #000000; stroke-width: 0.8"/>
      </g>
     </g>
    </g>
    <g id="xtick_18">
     <g id="line2d_18">
      <g>
       <use xlink:href="#m122fb945d6" x="341.319617" y="455.955539" style="stroke: #000000; stroke-width: 0.8"/>
      </g>
     </g>
    </g>
    <g id="xtick_19">
     <g id="line2d_19">
      <g>
       <use xlink:href="#m122fb945d6" x="358.020445" y="455.955539" style="stroke: #000000; stroke-width: 0.8"/>
      </g>
     </g>
    </g>
    <g id="xtick_20">
     <g id="line2d_20">
      <g>
       <use xlink:href="#m122fb945d6" x="374.721273" y="455.955539" style="stroke: #000000; stroke-width: 0.8"/>
      </g>
     </g>
    </g>
    <g id="xtick_21">
     <g id="line2d_21">
      <g>
       <use xlink:href="#m122fb945d6" x="391.422101" y="455.955539" style="stroke: #000000; stroke-width: 0.8"/>
      </g>
     </g>
     <g id="text_6">
      <!-- 20 -->
      <g transform="translate(388.874307 477.326379) rotate(-45) scale(0.1 -0.1)">
       <defs>
        <path id="DejaVuSans-32" d="M 1228 531 
L 3431 531 
L 3431 0 
L 469 0 
L 469 531 
Q 828 903 1448 1529 
Q 2069 2156 2228 2338 
Q 2531 2678 2651 2914 
Q 2772 3150 2772 3378 
Q 2772 3750 2511 3984 
Q 2250 4219 1831 4219 
Q 1534 4219 1204 4116 
Q 875 4013 500 3803 
L 500 4441 
Q 881 4594 1212 4672 
Q 1544 4750 1819 4750 
Q 2544 4750 2975 4387 
Q 3406 4025 3406 3419 
Q 3406 3131 3298 2873 
Q 3191 2616 2906 2266 
Q 2828 2175 2409 1742 
Q 1991 1309 1228 531 
z
" transform="scale(0.015625)"/>
       </defs>
       <use xlink:href="#DejaVuSans-32"/>
       <use xlink:href="#DejaVuSans-30" transform="translate(63.623047 0)"/>
      </g>
     </g>
    </g>
    <g id="xtick_22">
     <g id="line2d_22">
      <g>
       <use xlink:href="#m122fb945d6" x="408.12293" y="455.955539" style="stroke: #000000; stroke-width: 0.8"/>
      </g>
     </g>
    </g>
    <g id="xtick_23">
     <g id="line2d_23">
      <g>
       <use xlink:href="#m122fb945d6" x="424.823758" y="455.955539" style="stroke: #000000; stroke-width: 0.8"/>
      </g>
     </g>
    </g>
    <g id="xtick_24">
     <g id="line2d_24">
      <g>
       <use xlink:href="#m122fb945d6" x="441.524586" y="455.955539" style="stroke: #000000; stroke-width: 0.8"/>
      </g>
     </g>
     <g id="text_7">
      <!-- 23 -->
      <g transform="translate(438.976792 477.326379) rotate(-45) scale(0.1 -0.1)">
       <defs>
        <path id="DejaVuSans-33" d="M 2597 2516 
Q 3050 2419 3304 2112 
Q 3559 1806 3559 1356 
Q 3559 666 3084 287 
Q 2609 -91 1734 -91 
Q 1441 -91 1130 -33 
Q 819 25 488 141 
L 488 750 
Q 750 597 1062 519 
Q 1375 441 1716 441 
Q 2309 441 2620 675 
Q 2931 909 2931 1356 
Q 2931 1769 2642 2001 
Q 2353 2234 1838 2234 
L 1294 2234 
L 1294 2753 
L 1863 2753 
Q 2328 2753 2575 2939 
Q 2822 3125 2822 3475 
Q 2822 3834 2567 4026 
Q 2313 4219 1838 4219 
Q 1578 4219 1281 4162 
Q 984 4106 628 3988 
L 628 4550 
Q 988 4650 1302 4700 
Q 1616 4750 1894 4750 
Q 2613 4750 3031 4423 
Q 3450 4097 3450 3541 
Q 3450 3153 3228 2886 
Q 3006 2619 2597 2516 
z
" transform="scale(0.015625)"/>
       </defs>
       <use xlink:href="#DejaVuSans-32"/>
       <use xlink:href="#DejaVuSans-33" transform="translate(63.623047 0)"/>
      </g>
     </g>
    </g>
    <g id="xtick_25">
     <g id="line2d_25">
      <g>
       <use xlink:href="#m122fb945d6" x="458.225414" y="455.955539" style="stroke: #000000; stroke-width: 0.8"/>
      </g>
     </g>
    </g>
    <g id="xtick_26">
     <g id="line2d_26">
      <g>
       <use xlink:href="#m122fb945d6" x="474.926242" y="455.955539" style="stroke: #000000; stroke-width: 0.8"/>
      </g>
     </g>
     <g id="text_8">
      <!-- 25 -->
      <g transform="translate(472.378448 477.326379) rotate(-45) scale(0.1 -0.1)">
       <use xlink:href="#DejaVuSans-32"/>
       <use xlink:href="#DejaVuSans-35" transform="translate(63.623047 0)"/>
      </g>
     </g>
    </g>
    <g id="xtick_27">
     <g id="line2d_27">
      <g>
       <use xlink:href="#m122fb945d6" x="491.62707" y="455.955539" style="stroke: #000000; stroke-width: 0.8"/>
      </g>
     </g>
    </g>
    <g id="xtick_28">
     <g id="line2d_28">
      <g>
       <use xlink:href="#m122fb945d6" x="508.327899" y="455.955539" style="stroke: #000000; stroke-width: 0.8"/>
      </g>
     </g>
    </g>
    <g id="xtick_29">
     <g id="line2d_29">
      <g>
       <use xlink:href="#m122fb945d6" x="525.028727" y="455.955539" style="stroke: #000000; stroke-width: 0.8"/>
      </g>
     </g>
    </g>
    <g id="xtick_30">
     <g id="line2d_30">
      <g>
       <use xlink:href="#m122fb945d6" x="541.729555" y="455.955539" style="stroke: #000000; stroke-width: 0.8"/>
      </g>
     </g>
    </g>
    <g id="xtick_31">
     <g id="line2d_31">
      <g>
       <use xlink:href="#m122fb945d6" x="558.430383" y="455.955539" style="stroke: #000000; stroke-width: 0.8"/>
      </g>
     </g>
     <g id="text_9">
      <!-- 30 -->
      <g transform="translate(555.882589 477.326379) rotate(-45) scale(0.1 -0.1)">
       <use xlink:href="#DejaVuSans-33"/>
       <use xlink:href="#DejaVuSans-30" transform="translate(63.623047 0)"/>
      </g>
     </g>
    </g>
    <g id="xtick_32">
     <g id="line2d_32">
      <g>
       <use xlink:href="#m122fb945d6" x="575.131211" y="455.955539" style="stroke: #000000; stroke-width: 0.8"/>
      </g>
     </g>
    </g>
    <g id="xtick_33">
     <g id="line2d_33">
      <g>
       <use xlink:href="#m122fb945d6" x="591.832039" y="455.955539" style="stroke: #000000; stroke-width: 0.8"/>
      </g>
     </g>
    </g>
    <g id="xtick_34">
     <g id="line2d_34">
      <g>
       <use xlink:href="#m122fb945d6" x="608.532867" y="455.955539" style="stroke: #000000; stroke-width: 0.8"/>
      </g>
     </g>
    </g>
    <g id="xtick_35">
     <g id="line2d_35">
      <g>
       <use xlink:href="#m122fb945d6" x="625.233696" y="455.955539" style="stroke: #000000; stroke-width: 0.8"/>
      </g>
     </g>
    </g>
    <g id="xtick_36">
     <g id="line2d_36">
      <g>
       <use xlink:href="#m122fb945d6" x="641.934524" y="455.955539" style="stroke: #000000; stroke-width: 0.8"/>
      </g>
     </g>
     <g id="text_10">
      <!-- 35 -->
      <g transform="translate(639.38673 477.326379) rotate(-45) scale(0.1 -0.1)">
       <use xlink:href="#DejaVuSans-33"/>
       <use xlink:href="#DejaVuSans-35" transform="translate(63.623047 0)"/>
      </g>
     </g>
    </g>
    <g id="xtick_37">
     <g id="line2d_37">
      <g>
       <use xlink:href="#m122fb945d6" x="658.635352" y="455.955539" style="stroke: #000000; stroke-width: 0.8"/>
      </g>
     </g>
    </g>
    <g id="xtick_38">
     <g id="line2d_38">
      <g>
       <use xlink:href="#m122fb945d6" x="675.33618" y="455.955539" style="stroke: #000000; stroke-width: 0.8"/>
      </g>
     </g>
    </g>
    <g id="xtick_39">
     <g id="line2d_39">
      <g>
       <use xlink:href="#m122fb945d6" x="692.037008" y="455.955539" style="stroke: #000000; stroke-width: 0.8"/>
      </g>
     </g>
    </g>
    <g id="xtick_40">
     <g id="line2d_40">
      <g>
       <use xlink:href="#m122fb945d6" x="708.737836" y="455.955539" style="stroke: #000000; stroke-width: 0.8"/>
      </g>
     </g>
    </g>
    <g id="xtick_41">
     <g id="line2d_41">
      <g>
       <use xlink:href="#m122fb945d6" x="725.438665" y="455.955539" style="stroke: #000000; stroke-width: 0.8"/>
      </g>
     </g>
     <g id="text_11">
      <!-- 40 -->
      <g transform="translate(722.89087 477.326379) rotate(-45) scale(0.1 -0.1)">
       <defs>
        <path id="DejaVuSans-34" d="M 2419 4116 
L 825 1625 
L 2419 1625 
L 2419 4116 
z
M 2253 4666 
L 3047 4666 
L 3047 1625 
L 3713 1625 
L 3713 1100 
L 3047 1100 
L 3047 0 
L 2419 0 
L 2419 1100 
L 313 1100 
L 313 1709 
L 2253 4666 
z
" transform="scale(0.015625)"/>
       </defs>
       <use xlink:href="#DejaVuSans-34"/>
       <use xlink:href="#DejaVuSans-30" transform="translate(63.623047 0)"/>
      </g>
     </g>
    </g>
    <g id="xtick_42">
     <g id="line2d_42">
      <g>
       <use xlink:href="#m122fb945d6" x="742.139493" y="455.955539" style="stroke: #000000; stroke-width: 0.8"/>
      </g>
     </g>
    </g>
    <g id="xtick_43">
     <g id="line2d_43">
      <g>
       <use xlink:href="#m122fb945d6" x="758.840321" y="455.955539" style="stroke: #000000; stroke-width: 0.8"/>
      </g>
     </g>
    </g>
    <g id="xtick_44">
     <g id="line2d_44">
      <g>
       <use xlink:href="#m122fb945d6" x="775.541149" y="455.955539" style="stroke: #000000; stroke-width: 0.8"/>
      </g>
     </g>
    </g>
    <g id="xtick_45">
     <g id="line2d_45">
      <g>
       <use xlink:href="#m122fb945d6" x="792.241977" y="455.955539" style="stroke: #000000; stroke-width: 0.8"/>
      </g>
     </g>
    </g>
    <g id="xtick_46">
     <g id="line2d_46">
      <g>
       <use xlink:href="#m122fb945d6" x="808.942805" y="455.955539" style="stroke: #000000; stroke-width: 0.8"/>
      </g>
     </g>
     <g id="text_12">
      <!-- 45 -->
      <g transform="translate(806.395011 477.326379) rotate(-45) scale(0.1 -0.1)">
       <use xlink:href="#DejaVuSans-34"/>
       <use xlink:href="#DejaVuSans-35" transform="translate(63.623047 0)"/>
      </g>
     </g>
    </g>
    <g id="xtick_47">
     <g id="line2d_47">
      <g>
       <use xlink:href="#m122fb945d6" x="825.643634" y="455.955539" style="stroke: #000000; stroke-width: 0.8"/>
      </g>
     </g>
    </g>
    <g id="xtick_48">
     <g id="line2d_48">
      <g>
       <use xlink:href="#m122fb945d6" x="842.344462" y="455.955539" style="stroke: #000000; stroke-width: 0.8"/>
      </g>
     </g>
     <g id="text_13">
      <!-- 47 -->
      <g transform="translate(839.796668 477.326379) rotate(-45) scale(0.1 -0.1)">
       <defs>
        <path id="DejaVuSans-37" d="M 525 4666 
L 3525 4666 
L 3525 4397 
L 1831 0 
L 1172 0 
L 2766 4134 
L 525 4134 
L 525 4666 
z
" transform="scale(0.015625)"/>
       </defs>
       <use xlink:href="#DejaVuSans-34"/>
       <use xlink:href="#DejaVuSans-37" transform="translate(63.623047 0)"/>
      </g>
     </g>
    </g>
    <g id="text_14">
     <!-- Game Minute -->
     <g transform="translate(416.323438 490.395378) scale(0.1 -0.1)">
      <defs>
       <path id="DejaVuSans-47" d="M 3809 666 
L 3809 1919 
L 2778 1919 
L 2778 2438 
L 4434 2438 
L 4434 434 
Q 4069 175 3628 42 
Q 3188 -91 2688 -91 
Q 1594 -91 976 548 
Q 359 1188 359 2328 
Q 359 3472 976 4111 
Q 1594 4750 2688 4750 
Q 3144 4750 3555 4637 
Q 3966 4525 4313 4306 
L 4313 3634 
Q 3963 3931 3569 4081 
Q 3175 4231 2741 4231 
Q 1884 4231 1454 3753 
Q 1025 3275 1025 2328 
Q 1025 1384 1454 906 
Q 1884 428 2741 428 
Q 3075 428 3337 486 
Q 3600 544 3809 666 
z
" transform="scale(0.015625)"/>
       <path id="DejaVuSans-61" d="M 2194 1759 
Q 1497 1759 1228 1600 
Q 959 1441 959 1056 
Q 959 750 1161 570 
Q 1363 391 1709 391 
Q 2188 391 2477 730 
Q 2766 1069 2766 1631 
L 2766 1759 
L 2194 1759 
z
M 3341 1997 
L 3341 0 
L 2766 0 
L 2766 531 
Q 2569 213 2275 61 
Q 1981 -91 1556 -91 
Q 1019 -91 701 211 
Q 384 513 384 1019 
Q 384 1609 779 1909 
Q 1175 2209 1959 2209 
L 2766 2209 
L 2766 2266 
Q 2766 2663 2505 2880 
Q 2244 3097 1772 3097 
Q 1472 3097 1187 3025 
Q 903 2953 641 2809 
L 641 3341 
Q 956 3463 1253 3523 
Q 1550 3584 1831 3584 
Q 2591 3584 2966 3190 
Q 3341 2797 3341 1997 
z
" transform="scale(0.015625)"/>
       <path id="DejaVuSans-6d" d="M 3328 2828 
Q 3544 3216 3844 3400 
Q 4144 3584 4550 3584 
Q 5097 3584 5394 3201 
Q 5691 2819 5691 2113 
L 5691 0 
L 5113 0 
L 5113 2094 
Q 5113 2597 4934 2840 
Q 4756 3084 4391 3084 
Q 3944 3084 3684 2787 
Q 3425 2491 3425 1978 
L 3425 0 
L 2847 0 
L 2847 2094 
Q 2847 2600 2669 2842 
Q 2491 3084 2119 3084 
Q 1678 3084 1418 2786 
Q 1159 2488 1159 1978 
L 1159 0 
L 581 0 
L 581 3500 
L 1159 3500 
L 1159 2956 
Q 1356 3278 1631 3431 
Q 1906 3584 2284 3584 
Q 2666 3584 2933 3390 
Q 3200 3197 3328 2828 
z
" transform="scale(0.015625)"/>
       <path id="DejaVuSans-65" d="M 3597 1894 
L 3597 1613 
L 953 1613 
Q 991 1019 1311 708 
Q 1631 397 2203 397 
Q 2534 397 2845 478 
Q 3156 559 3463 722 
L 3463 178 
Q 3153 47 2828 -22 
Q 2503 -91 2169 -91 
Q 1331 -91 842 396 
Q 353 884 353 1716 
Q 353 2575 817 3079 
Q 1281 3584 2069 3584 
Q 2775 3584 3186 3129 
Q 3597 2675 3597 1894 
z
M 3022 2063 
Q 3016 2534 2758 2815 
Q 2500 3097 2075 3097 
Q 1594 3097 1305 2825 
Q 1016 2553 972 2059 
L 3022 2063 
z
" transform="scale(0.015625)"/>
       <path id="DejaVuSans-20" transform="scale(0.015625)"/>
       <path id="DejaVuSans-4d" d="M 628 4666 
L 1569 4666 
L 2759 1491 
L 3956 4666 
L 4897 4666 
L 4897 0 
L 4281 0 
L 4281 4097 
L 3078 897 
L 2444 897 
L 1241 4097 
L 1241 0 
L 628 0 
L 628 4666 
z
" transform="scale(0.015625)"/>
       <path id="DejaVuSans-69" d="M 603 3500 
L 1178 3500 
L 1178 0 
L 603 0 
L 603 3500 
z
M 603 4863 
L 1178 4863 
L 1178 4134 
L 603 4134 
L 603 4863 
z
" transform="scale(0.015625)"/>
       <path id="DejaVuSans-6e" d="M 3513 2113 
L 3513 0 
L 2938 0 
L 2938 2094 
Q 2938 2591 2744 2837 
Q 2550 3084 2163 3084 
Q 1697 3084 1428 2787 
Q 1159 2491 1159 1978 
L 1159 0 
L 581 0 
L 581 3500 
L 1159 3500 
L 1159 2956 
Q 1366 3272 1645 3428 
Q 1925 3584 2291 3584 
Q 2894 3584 3203 3211 
Q 3513 2838 3513 2113 
z
" transform="scale(0.015625)"/>
       <path id="DejaVuSans-75" d="M 544 1381 
L 544 3500 
L 1119 3500 
L 1119 1403 
Q 1119 906 1312 657 
Q 1506 409 1894 409 
Q 2359 409 2629 706 
Q 2900 1003 2900 1516 
L 2900 3500 
L 3475 3500 
L 3475 0 
L 2900 0 
L 2900 538 
Q 2691 219 2414 64 
Q 2138 -91 1772 -91 
Q 1169 -91 856 284 
Q 544 659 544 1381 
z
M 1991 3584 
L 1991 3584 
z
" transform="scale(0.015625)"/>
       <path id="DejaVuSans-74" d="M 1172 4494 
L 1172 3500 
L 2356 3500 
L 2356 3053 
L 1172 3053 
L 1172 1153 
Q 1172 725 1289 603 
Q 1406 481 1766 481 
L 2356 481 
L 2356 0 
L 1766 0 
Q 1100 0 847 248 
Q 594 497 594 1153 
L 594 3053 
L 172 3053 
L 172 3500 
L 594 3500 
L 594 4494 
L 1172 4494 
z
" transform="scale(0.015625)"/>
      </defs>
      <use xlink:href="#DejaVuSans-47"/>
      <use xlink:href="#DejaVuSans-61" transform="translate(77.490234 0)"/>
      <use xlink:href="#DejaVuSans-6d" transform="translate(138.769531 0)"/>
      <use xlink:href="#DejaVuSans-65" transform="translate(236.181641 0)"/>
      <use xlink:href="#DejaVuSans-20" transform="translate(297.705078 0)"/>
      <use xlink:href="#DejaVuSans-4d" transform="translate(329.492188 0)"/>
      <use xlink:href="#DejaVuSans-69" transform="translate(415.771484 0)"/>
      <use xlink:href="#DejaVuSans-6e" transform="translate(443.554688 0)"/>
      <use xlink:href="#DejaVuSans-75" transform="translate(506.933594 0)"/>
      <use xlink:href="#DejaVuSans-74" transform="translate(570.3125 0)"/>
      <use xlink:href="#DejaVuSans-65" transform="translate(609.521484 0)"/>
     </g>
    </g>
   </g>
   <g id="matplotlib.axis_2">
    <g id="ytick_1">
     <g id="line2d_49">
      <defs>
       <path id="m4a5b59fd15" d="M 0 0 
L -3.5 0 
" style="stroke: #000000; stroke-width: 0.8"/>
      </defs>
      <g>
       <use xlink:href="#m4a5b59fd15" x="46.55" y="399.883167" style="stroke: #000000; stroke-width: 0.8"/>
      </g>
     </g>
     <g id="text_15">
      <!-- 5 -->
      <g transform="translate(24.807812 403.682386) scale(0.1 -0.1)">
       <defs>
        <path id="DejaVuSans-2212" d="M 678 2272 
L 4684 2272 
L 4684 1741 
L 678 1741 
L 678 2272 
z
" transform="scale(0.015625)"/>
       </defs>
       <use xlink:href="#DejaVuSans-2212"/>
       <use xlink:href="#DejaVuSans-35" transform="translate(83.789062 0)"/>
      </g>
     </g>
    </g>
    <g id="ytick_2">
     <g id="line2d_50">
      <g>
       <use xlink:href="#m4a5b59fd15" x="46.55" y="338.934937" style="stroke: #000000; stroke-width: 0.8"/>
      </g>
     </g>
     <g id="text_16">
      <!-- 0 -->
      <g transform="translate(33.1875 342.734156) scale(0.1 -0.1)">
       <use xlink:href="#DejaVuSans-30"/>
      </g>
     </g>
    </g>
    <g id="ytick_3">
     <g id="line2d_51">
      <g>
       <use xlink:href="#m4a5b59fd15" x="46.55" y="277.986707" style="stroke: #000000; stroke-width: 0.8"/>
      </g>
     </g>
     <g id="text_17">
      <!-- 5 -->
      <g transform="translate(33.1875 281.785926) scale(0.1 -0.1)">
       <use xlink:href="#DejaVuSans-35"/>
      </g>
     </g>
    </g>
    <g id="ytick_4">
     <g id="line2d_52">
      <g>
       <use xlink:href="#m4a5b59fd15" x="46.55" y="217.038478" style="stroke: #000000; stroke-width: 0.8"/>
      </g>
     </g>
     <g id="text_18">
      <!-- 10 -->
      <g transform="translate(26.825 220.837696) scale(0.1 -0.1)">
       <use xlink:href="#DejaVuSans-31"/>
       <use xlink:href="#DejaVuSans-30" transform="translate(63.623047 0)"/>
      </g>
     </g>
    </g>
    <g id="ytick_5">
     <g id="line2d_53">
      <g>
       <use xlink:href="#m4a5b59fd15" x="46.55" y="156.090248" style="stroke: #000000; stroke-width: 0.8"/>
      </g>
     </g>
     <g id="text_19">
      <!-- 15 -->
      <g transform="translate(26.825 159.889466) scale(0.1 -0.1)">
       <use xlink:href="#DejaVuSans-31"/>
       <use xlink:href="#DejaVuSans-35" transform="translate(63.623047 0)"/>
      </g>
     </g>
    </g>
    <g id="ytick_6">
     <g id="line2d_54">
      <g>
       <use xlink:href="#m4a5b59fd15" x="46.55" y="95.142018" style="stroke: #000000; stroke-width: 0.8"/>
      </g>
     </g>
     <g id="text_20">
      <!-- 20 -->
      <g transform="translate(26.825 98.941236) scale(0.1 -0.1)">
       <use xlink:href="#DejaVuSans-32"/>
       <use xlink:href="#DejaVuSans-30" transform="translate(63.623047 0)"/>
      </g>
     </g>
    </g>
    <g id="ytick_7">
     <g id="line2d_55">
      <g>
       <use xlink:href="#m4a5b59fd15" x="46.55" y="34.193788" style="stroke: #000000; stroke-width: 0.8"/>
      </g>
     </g>
     <g id="text_21">
      <!-- 25 -->
      <g transform="translate(26.825 37.993006) scale(0.1 -0.1)">
       <use xlink:href="#DejaVuSans-32"/>
       <use xlink:href="#DejaVuSans-35" transform="translate(63.623047 0)"/>
      </g>
     </g>
    </g>
    <g id="text_22">
     <!-- Point Difference -->
     <g transform="translate(18.728125 281.267769) rotate(-90) scale(0.1 -0.1)">
      <defs>
       <path id="DejaVuSans-50" d="M 1259 4147 
L 1259 2394 
L 2053 2394 
Q 2494 2394 2734 2622 
Q 2975 2850 2975 3272 
Q 2975 3691 2734 3919 
Q 2494 4147 2053 4147 
L 1259 4147 
z
M 628 4666 
L 2053 4666 
Q 2838 4666 3239 4311 
Q 3641 3956 3641 3272 
Q 3641 2581 3239 2228 
Q 2838 1875 2053 1875 
L 1259 1875 
L 1259 0 
L 628 0 
L 628 4666 
z
" transform="scale(0.015625)"/>
       <path id="DejaVuSans-6f" d="M 1959 3097 
Q 1497 3097 1228 2736 
Q 959 2375 959 1747 
Q 959 1119 1226 758 
Q 1494 397 1959 397 
Q 2419 397 2687 759 
Q 2956 1122 2956 1747 
Q 2956 2369 2687 2733 
Q 2419 3097 1959 3097 
z
M 1959 3584 
Q 2709 3584 3137 3096 
Q 3566 2609 3566 1747 
Q 3566 888 3137 398 
Q 2709 -91 1959 -91 
Q 1206 -91 779 398 
Q 353 888 353 1747 
Q 353 2609 779 3096 
Q 1206 3584 1959 3584 
z
" transform="scale(0.015625)"/>
       <path id="DejaVuSans-44" d="M 1259 4147 
L 1259 519 
L 2022 519 
Q 2988 519 3436 956 
Q 3884 1394 3884 2338 
Q 3884 3275 3436 3711 
Q 2988 4147 2022 4147 
L 1259 4147 
z
M 628 4666 
L 1925 4666 
Q 3281 4666 3915 4102 
Q 4550 3538 4550 2338 
Q 4550 1131 3912 565 
Q 3275 0 1925 0 
L 628 0 
L 628 4666 
z
" transform="scale(0.015625)"/>
       <path id="DejaVuSans-66" d="M 2375 4863 
L 2375 4384 
L 1825 4384 
Q 1516 4384 1395 4259 
Q 1275 4134 1275 3809 
L 1275 3500 
L 2222 3500 
L 2222 3053 
L 1275 3053 
L 1275 0 
L 697 0 
L 697 3053 
L 147 3053 
L 147 3500 
L 697 3500 
L 697 3744 
Q 697 4328 969 4595 
Q 1241 4863 1831 4863 
L 2375 4863 
z
" transform="scale(0.015625)"/>
       <path id="DejaVuSans-72" d="M 2631 2963 
Q 2534 3019 2420 3045 
Q 2306 3072 2169 3072 
Q 1681 3072 1420 2755 
Q 1159 2438 1159 1844 
L 1159 0 
L 581 0 
L 581 3500 
L 1159 3500 
L 1159 2956 
Q 1341 3275 1631 3429 
Q 1922 3584 2338 3584 
Q 2397 3584 2469 3576 
Q 2541 3569 2628 3553 
L 2631 2963 
z
" transform="scale(0.015625)"/>
       <path id="DejaVuSans-63" d="M 3122 3366 
L 3122 2828 
Q 2878 2963 2633 3030 
Q 2388 3097 2138 3097 
Q 1578 3097 1268 2742 
Q 959 2388 959 1747 
Q 959 1106 1268 751 
Q 1578 397 2138 397 
Q 2388 397 2633 464 
Q 2878 531 3122 666 
L 3122 134 
Q 2881 22 2623 -34 
Q 2366 -91 2075 -91 
Q 1284 -91 818 406 
Q 353 903 353 1747 
Q 353 2603 823 3093 
Q 1294 3584 2113 3584 
Q 2378 3584 2631 3529 
Q 2884 3475 3122 3366 
z
" transform="scale(0.015625)"/>
      </defs>
      <use xlink:href="#DejaVuSans-50"/>
      <use xlink:href="#DejaVuSans-6f" transform="translate(56.677734 0)"/>
      <use xlink:href="#DejaVuSans-69" transform="translate(117.859375 0)"/>
      <use xlink:href="#DejaVuSans-6e" transform="translate(145.642578 0)"/>
      <use xlink:href="#DejaVuSans-74" transform="translate(209.021484 0)"/>
      <use xlink:href="#DejaVuSans-20" transform="translate(248.230469 0)"/>
      <use xlink:href="#DejaVuSans-44" transform="translate(280.017578 0)"/>
      <use xlink:href="#DejaVuSans-69" transform="translate(357.019531 0)"/>
      <use xlink:href="#DejaVuSans-66" transform="translate(384.802734 0)"/>
      <use xlink:href="#DejaVuSans-66" transform="translate(420.007812 0)"/>
      <use xlink:href="#DejaVuSans-65" transform="translate(455.212891 0)"/>
      <use xlink:href="#DejaVuSans-72" transform="translate(516.736328 0)"/>
      <use xlink:href="#DejaVuSans-65" transform="translate(555.599609 0)"/>
      <use xlink:href="#DejaVuSans-6e" transform="translate(617.123047 0)"/>
      <use xlink:href="#DejaVuSans-63" transform="translate(680.501953 0)"/>
      <use xlink:href="#DejaVuSans-65" transform="translate(735.482422 0)"/>
     </g>
    </g>
   </g>
   <g id="line2d_56">
    <path d="M 46.55 338.934937 
L 853.2 338.934937 
" clip-path="url(#pc7b359f2d0)" style="fill: none; stroke: #808080; stroke-width: 0.8; stroke-linecap: square"/>
   </g>
   <g id="patch_147">
    <path d="M 46.55 455.955539 
L 46.55 26.88 
" style="fill: none; stroke: #000000; stroke-width: 0.8; stroke-linejoin: miter; stroke-linecap: square"/>
   </g>
   <g id="patch_148">
    <path d="M 853.2 455.955539 
L 853.2 26.88 
" style="fill: none; stroke: #000000; stroke-width: 0.8; stroke-linejoin: miter; stroke-linecap: square"/>
   </g>
   <g id="patch_149">
    <path d="M 46.55 455.955539 
L 853.2 455.955539 
" style="fill: none; stroke: #000000; stroke-width: 0.8; stroke-linejoin: miter; stroke-linecap: square"/>
   </g>
   <g id="patch_150">
    <path d="M 46.55 26.88 
L 853.2 26.88 
" style="fill: none; stroke: #000000; stroke-width: 0.8; stroke-linejoin: miter; stroke-linecap: square"/>
   </g>
   <g id="text_23">
    <!-- OG Anunoby Point Difference (24-25 vs 23-24) -->
    <g transform="translate(310.376875 20.88) scale(0.12 -0.12)">
     <defs>
      <path id="DejaVuSans-4f" d="M 2522 4238 
Q 1834 4238 1429 3725 
Q 1025 3213 1025 2328 
Q 1025 1447 1429 934 
Q 1834 422 2522 422 
Q 3209 422 3611 934 
Q 4013 1447 4013 2328 
Q 4013 3213 3611 3725 
Q 3209 4238 2522 4238 
z
M 2522 4750 
Q 3503 4750 4090 4092 
Q 4678 3434 4678 2328 
Q 4678 1225 4090 567 
Q 3503 -91 2522 -91 
Q 1538 -91 948 565 
Q 359 1222 359 2328 
Q 359 3434 948 4092 
Q 1538 4750 2522 4750 
z
" transform="scale(0.015625)"/>
      <path id="DejaVuSans-41" d="M 2188 4044 
L 1331 1722 
L 3047 1722 
L 2188 4044 
z
M 1831 4666 
L 2547 4666 
L 4325 0 
L 3669 0 
L 3244 1197 
L 1141 1197 
L 716 0 
L 50 0 
L 1831 4666 
z
" transform="scale(0.015625)"/>
      <path id="DejaVuSans-62" d="M 3116 1747 
Q 3116 2381 2855 2742 
Q 2594 3103 2138 3103 
Q 1681 3103 1420 2742 
Q 1159 2381 1159 1747 
Q 1159 1113 1420 752 
Q 1681 391 2138 391 
Q 2594 391 2855 752 
Q 3116 1113 3116 1747 
z
M 1159 2969 
Q 1341 3281 1617 3432 
Q 1894 3584 2278 3584 
Q 2916 3584 3314 3078 
Q 3713 2572 3713 1747 
Q 3713 922 3314 415 
Q 2916 -91 2278 -91 
Q 1894 -91 1617 61 
Q 1341 213 1159 525 
L 1159 0 
L 581 0 
L 581 4863 
L 1159 4863 
L 1159 2969 
z
" transform="scale(0.015625)"/>
      <path id="DejaVuSans-79" d="M 2059 -325 
Q 1816 -950 1584 -1140 
Q 1353 -1331 966 -1331 
L 506 -1331 
L 506 -850 
L 844 -850 
Q 1081 -850 1212 -737 
Q 1344 -625 1503 -206 
L 1606 56 
L 191 3500 
L 800 3500 
L 1894 763 
L 2988 3500 
L 3597 3500 
L 2059 -325 
z
" transform="scale(0.015625)"/>
      <path id="DejaVuSans-28" d="M 1984 4856 
Q 1566 4138 1362 3434 
Q 1159 2731 1159 2009 
Q 1159 1288 1364 580 
Q 1569 -128 1984 -844 
L 1484 -844 
Q 1016 -109 783 600 
Q 550 1309 550 2009 
Q 550 2706 781 3412 
Q 1013 4119 1484 4856 
L 1984 4856 
z
" transform="scale(0.015625)"/>
      <path id="DejaVuSans-2d" d="M 313 2009 
L 1997 2009 
L 1997 1497 
L 313 1497 
L 313 2009 
z
" transform="scale(0.015625)"/>
      <path id="DejaVuSans-76" d="M 191 3500 
L 800 3500 
L 1894 563 
L 2988 3500 
L 3597 3500 
L 2284 0 
L 1503 0 
L 191 3500 
z
" transform="scale(0.015625)"/>
      <path id="DejaVuSans-73" d="M 2834 3397 
L 2834 2853 
Q 2591 2978 2328 3040 
Q 2066 3103 1784 3103 
Q 1356 3103 1142 2972 
Q 928 2841 928 2578 
Q 928 2378 1081 2264 
Q 1234 2150 1697 2047 
L 1894 2003 
Q 2506 1872 2764 1633 
Q 3022 1394 3022 966 
Q 3022 478 2636 193 
Q 2250 -91 1575 -91 
Q 1294 -91 989 -36 
Q 684 19 347 128 
L 347 722 
Q 666 556 975 473 
Q 1284 391 1588 391 
Q 1994 391 2212 530 
Q 2431 669 2431 922 
Q 2431 1156 2273 1281 
Q 2116 1406 1581 1522 
L 1381 1569 
Q 847 1681 609 1914 
Q 372 2147 372 2553 
Q 372 3047 722 3315 
Q 1072 3584 1716 3584 
Q 2034 3584 2315 3537 
Q 2597 3491 2834 3397 
z
" transform="scale(0.015625)"/>
      <path id="DejaVuSans-29" d="M 513 4856 
L 1013 4856 
Q 1481 4119 1714 3412 
Q 1947 2706 1947 2009 
Q 1947 1309 1714 600 
Q 1481 -109 1013 -844 
L 513 -844 
Q 928 -128 1133 580 
Q 1338 1288 1338 2009 
Q 1338 2731 1133 3434 
Q 928 4138 513 4856 
z
" transform="scale(0.015625)"/>
     </defs>
     <use xlink:href="#DejaVuSans-4f"/>
     <use xlink:href="#DejaVuSans-47" transform="translate(78.710938 0)"/>
     <use xlink:href="#DejaVuSans-20" transform="translate(156.201172 0)"/>
     <use xlink:href="#DejaVuSans-41" transform="translate(187.988281 0)"/>
     <use xlink:href="#DejaVuSans-6e" transform="translate(256.396484 0)"/>
     <use xlink:href="#DejaVuSans-75" transform="translate(319.775391 0)"/>
     <use xlink:href="#DejaVuSans-6e" transform="translate(383.154297 0)"/>
     <use xlink:href="#DejaVuSans-6f" transform="translate(446.533203 0)"/>
     <use xlink:href="#DejaVuSans-62" transform="translate(507.714844 0)"/>
     <use xlink:href="#DejaVuSans-79" transform="translate(571.191406 0)"/>
     <use xlink:href="#DejaVuSans-20" transform="translate(630.371094 0)"/>
     <use xlink:href="#DejaVuSans-50" transform="translate(662.158203 0)"/>
     <use xlink:href="#DejaVuSans-6f" transform="translate(718.835938 0)"/>
     <use xlink:href="#DejaVuSans-69" transform="translate(780.017578 0)"/>
     <use xlink:href="#DejaVuSans-6e" transform="translate(807.800781 0)"/>
     <use xlink:href="#DejaVuSans-74" transform="translate(871.179688 0)"/>
     <use xlink:href="#DejaVuSans-20" transform="translate(910.388672 0)"/>
     <use xlink:href="#DejaVuSans-44" transform="translate(942.175781 0)"/>
     <use xlink:href="#DejaVuSans-69" transform="translate(1019.177734 0)"/>
     <use xlink:href="#DejaVuSans-66" transform="translate(1046.960938 0)"/>
     <use xlink:href="#DejaVuSans-66" transform="translate(1082.166016 0)"/>
     <use xlink:href="#DejaVuSans-65" transform="translate(1117.371094 0)"/>
     <use xlink:href="#DejaVuSans-72" transform="translate(1178.894531 0)"/>
     <use xlink:href="#DejaVuSans-65" transform="translate(1217.757812 0)"/>
     <use xlink:href="#DejaVuSans-6e" transform="translate(1279.28125 0)"/>
     <use xlink:href="#DejaVuSans-63" transform="translate(1342.660156 0)"/>
     <use xlink:href="#DejaVuSans-65" transform="translate(1397.640625 0)"/>
     <use xlink:href="#DejaVuSans-20" transform="translate(1459.164062 0)"/>
     <use xlink:href="#DejaVuSans-28" transform="translate(1490.951172 0)"/>
     <use xlink:href="#DejaVuSans-32" transform="translate(1529.964844 0)"/>
     <use xlink:href="#DejaVuSans-34" transform="translate(1593.587891 0)"/>
     <use xlink:href="#DejaVuSans-2d" transform="translate(1657.210938 0)"/>
     <use xlink:href="#DejaVuSans-32" transform="translate(1693.294922 0)"/>
     <use xlink:href="#DejaVuSans-35" transform="translate(1756.917969 0)"/>
     <use xlink:href="#DejaVuSans-20" transform="translate(1820.541016 0)"/>
     <use xlink:href="#DejaVuSans-76" transform="translate(1852.328125 0)"/>
     <use xlink:href="#DejaVuSans-73" transform="translate(1911.507812 0)"/>
     <use xlink:href="#DejaVuSans-20" transform="translate(1963.607422 0)"/>
     <use xlink:href="#DejaVuSans-32" transform="translate(1995.394531 0)"/>
     <use xlink:href="#DejaVuSans-33" transform="translate(2059.017578 0)"/>
     <use xlink:href="#DejaVuSans-2d" transform="translate(2122.640625 0)"/>
     <use xlink:href="#DejaVuSans-32" transform="translate(2158.724609 0)"/>
     <use xlink:href="#DejaVuSans-34" transform="translate(2222.347656 0)"/>
     <use xlink:href="#DejaVuSans-29" transform="translate(2285.970703 0)"/>
    </g>
   </g>
   <g id="legend_1">
    <g id="patch_151">
     <path d="M 793.33125 93.5925 
L 846.2 93.5925 
Q 848.2 93.5925 848.2 91.5925 
L 848.2 33.88 
Q 848.2 31.88 846.2 31.88 
L 793.33125 31.88 
Q 791.33125 31.88 791.33125 33.88 
L 791.33125 91.5925 
Q 791.33125 93.5925 793.33125 93.5925 
z
" style="fill: #ffffff; opacity: 0.8; stroke: #cccccc; stroke-linejoin: miter"/>
    </g>
    <g id="text_24">
     <!-- Shot Type -->
     <g transform="translate(795.33125 43.478437) scale(0.1 -0.1)">
      <defs>
       <path id="DejaVuSans-53" d="M 3425 4513 
L 3425 3897 
Q 3066 4069 2747 4153 
Q 2428 4238 2131 4238 
Q 1616 4238 1336 4038 
Q 1056 3838 1056 3469 
Q 1056 3159 1242 3001 
Q 1428 2844 1947 2747 
L 2328 2669 
Q 3034 2534 3370 2195 
Q 3706 1856 3706 1288 
Q 3706 609 3251 259 
Q 2797 -91 1919 -91 
Q 1588 -91 1214 -16 
Q 841 59 441 206 
L 441 856 
Q 825 641 1194 531 
Q 1563 422 1919 422 
Q 2459 422 2753 634 
Q 3047 847 3047 1241 
Q 3047 1584 2836 1778 
Q 2625 1972 2144 2069 
L 1759 2144 
Q 1053 2284 737 2584 
Q 422 2884 422 3419 
Q 422 4038 858 4394 
Q 1294 4750 2059 4750 
Q 2388 4750 2728 4690 
Q 3069 4631 3425 4513 
z
" transform="scale(0.015625)"/>
       <path id="DejaVuSans-68" d="M 3513 2113 
L 3513 0 
L 2938 0 
L 2938 2094 
Q 2938 2591 2744 2837 
Q 2550 3084 2163 3084 
Q 1697 3084 1428 2787 
Q 1159 2491 1159 1978 
L 1159 0 
L 581 0 
L 581 4863 
L 1159 4863 
L 1159 2956 
Q 1366 3272 1645 3428 
Q 1925 3584 2291 3584 
Q 2894 3584 3203 3211 
Q 3513 2838 3513 2113 
z
" transform="scale(0.015625)"/>
       <path id="DejaVuSans-54" d="M -19 4666 
L 3928 4666 
L 3928 4134 
L 2272 4134 
L 2272 0 
L 1638 0 
L 1638 4134 
L -19 4134 
L -19 4666 
z
" transform="scale(0.015625)"/>
       <path id="DejaVuSans-70" d="M 1159 525 
L 1159 -1331 
L 581 -1331 
L 581 3500 
L 1159 3500 
L 1159 2969 
Q 1341 3281 1617 3432 
Q 1894 3584 2278 3584 
Q 2916 3584 3314 3078 
Q 3713 2572 3713 1747 
Q 3713 922 3314 415 
Q 2916 -91 2278 -91 
Q 1894 -91 1617 61 
Q 1341 213 1159 525 
z
M 3116 1747 
Q 3116 2381 2855 2742 
Q 2594 3103 2138 3103 
Q 1681 3103 1420 2742 
Q 1159 2381 1159 1747 
Q 1159 1113 1420 752 
Q 1681 391 2138 391 
Q 2594 391 2855 752 
Q 3116 1113 3116 1747 
z
" transform="scale(0.015625)"/>
      </defs>
      <use xlink:href="#DejaVuSans-53"/>
      <use xlink:href="#DejaVuSans-68" transform="translate(63.476562 0)"/>
      <use xlink:href="#DejaVuSans-6f" transform="translate(126.855469 0)"/>
      <use xlink:href="#DejaVuSans-74" transform="translate(188.037109 0)"/>
      <use xlink:href="#DejaVuSans-20" transform="translate(227.246094 0)"/>
      <use xlink:href="#DejaVuSans-54" transform="translate(259.033203 0)"/>
      <use xlink:href="#DejaVuSans-79" transform="translate(304.492188 0)"/>
      <use xlink:href="#DejaVuSans-70" transform="translate(363.671875 0)"/>
      <use xlink:href="#DejaVuSans-65" transform="translate(427.148438 0)"/>
     </g>
    </g>
    <g id="patch_152">
     <path d="M 796.515625 58.156563 
L 816.515625 58.156563 
L 816.515625 51.156563 
L 796.515625 51.156563 
z
" style="fill: #ffc107"/>
    </g>
    <g id="text_25">
     <!-- FT -->
     <g transform="translate(824.515625 58.156563) scale(0.1 -0.1)">
      <defs>
       <path id="DejaVuSans-46" d="M 628 4666 
L 3309 4666 
L 3309 4134 
L 1259 4134 
L 1259 2759 
L 3109 2759 
L 3109 2228 
L 1259 2228 
L 1259 0 
L 628 0 
L 628 4666 
z
" transform="scale(0.015625)"/>
      </defs>
      <use xlink:href="#DejaVuSans-46"/>
      <use xlink:href="#DejaVuSans-54" transform="translate(55.769531 0)"/>
     </g>
    </g>
    <g id="patch_153">
     <path d="M 796.515625 72.834688 
L 816.515625 72.834688 
L 816.515625 65.834688 
L 796.515625 65.834688 
z
" style="fill: #2196f3"/>
    </g>
    <g id="text_26">
     <!-- 2PT -->
     <g transform="translate(824.515625 72.834688) scale(0.1 -0.1)">
      <use xlink:href="#DejaVuSans-32"/>
      <use xlink:href="#DejaVuSans-50" transform="translate(63.623047 0)"/>
      <use xlink:href="#DejaVuSans-54" transform="translate(123.925781 0)"/>
     </g>
    </g>
    <g id="patch_154">
     <path d="M 796.515625 87.512812 
L 816.515625 87.512812 
L 816.515625 80.512812 
L 796.515625 80.512812 
z
" style="fill: #4caf50"/>
    </g>
    <g id="text_27">
     <!-- 3PT -->
     <g transform="translate(824.515625 87.512812) scale(0.1 -0.1)">
      <use xlink:href="#DejaVuSans-33"/>
      <use xlink:href="#DejaVuSans-50" transform="translate(63.623047 0)"/>
      <use xlink:href="#DejaVuSans-54" transform="translate(123.925781 0)"/>
     </g>
    </g>
   </g>
  </g>
 </g>
 <defs>
  <clipPath id="pc7b359f2d0">
   <rect x="46.55" y="26.88" width="806.65" height="429.075539"/>
  </clipPath>
 </defs>
</svg>
