<?xml version="1.0" encoding="utf-8" standalone="no"?>
<!DOCTYPE svg PUBLIC "-//W3C//DTD SVG 1.1//EN"
  "http://www.w3.org/Graphics/SVG/1.1/DTD/svg11.dtd">
<svg xmlns:xlink="http://www.w3.org/1999/xlink" width="864pt" height="504pt" viewBox="0 0 864 504" xmlns="http://www.w3.org/2000/svg" version="1.1">
 <metadata>
  <rdf:RDF xmlns:dc="http://purl.org/dc/elements/1.1/" xmlns:cc="http://creativecommons.org/ns#" xmlns:rdf="http://www.w3.org/1999/02/22-rdf-syntax-ns#">
   <cc:Work>
    <dc:type rdf:resource="http://purl.org/dc/dcmitype/StillImage"/>
    <dc:date>2025-08-24T03:16:40.915412</dc:date>
    <dc:format>image/svg+xml</dc:format>
    <dc:creator>
     <cc:Agent>
      <dc:title>Matplotlib v3.10.5, https://matplotlib.org/</dc:title>
     </cc:Agent>
    </dc:creator>
   </cc:Work>
  </rdf:RDF>
 </metadata>
 <defs>
  <style type="text/css">*{stroke-linejoin: round; stroke-linecap: butt}</style>
 </defs>
 <g id="figure_1">
  <g id="patch_1">
   <path d="M 0 504 
L 864 504 
L 864 0 
L 0 0 
z
" style="fill: #ffffff"/>
  </g>
  <g id="axes_1">
   <g id="patch_2">
    <path d="M 50.87 455.955539 
L 853.2 455.955539 
L 853.2 26.88 
L 50.87 26.88 
z
" style="fill: #ffffff"/>
   </g>
   <g id="patch_3">
    <path d="M 55.022847 455.955539 
L 68.311957 455.955539 
L 68.311957 423.587747 
L 55.022847 423.587747 
z
" clip-path="url(#p9fbdb47d10)" style="fill: #ffc107"/>
   </g>
   <g id="patch_4">
    <path d="M 71.634234 455.955539 
L 84.923344 455.955539 
L 84.923344 427.633721 
L 71.634234 427.633721 
z
" clip-path="url(#p9fbdb47d10)" style="fill: #ffc107"/>
   </g>
   <g id="patch_5">
    <path d="M 88.245621 455.955539 
L 101.534731 455.955539 
L 101.534731 435.725669 
L 88.245621 435.725669 
z
" clip-path="url(#p9fbdb47d10)" style="fill: #ffc107"/>
   </g>
   <g id="patch_6">
    <path d="M 104.857008 455.955539 
L 118.146118 455.955539 
L 118.146118 419.541773 
L 104.857008 419.541773 
z
" clip-path="url(#p9fbdb47d10)" style="fill: #ffc107"/>
   </g>
   <g id="patch_7">
    <path d="M 121.468395 455.955539 
L 134.757505 455.955539 
L 134.757505 399.311903 
L 121.468395 399.311903 
z
" clip-path="url(#p9fbdb47d10)" style="fill: #ffc107"/>
   </g>
   <g id="patch_8">
    <path d="M 138.079783 455.955539 
L 151.368892 455.955539 
L 151.368892 411.449825 
L 138.079783 411.449825 
z
" clip-path="url(#p9fbdb47d10)" style="fill: #ffc107"/>
   </g>
   <g id="patch_9">
    <path d="M 154.69117 455.955539 
L 167.98028 455.955539 
L 167.98028 391.219956 
L 154.69117 391.219956 
z
" clip-path="url(#p9fbdb47d10)" style="fill: #ffc107"/>
   </g>
   <g id="patch_10">
    <path d="M 171.302557 455.955539 
L 184.591667 455.955539 
L 184.591667 362.898138 
L 171.302557 362.898138 
z
" clip-path="url(#p9fbdb47d10)" style="fill: #ffc107"/>
   </g>
   <g id="patch_11">
    <path d="M 187.913944 455.955539 
L 201.203054 455.955539 
L 201.203054 415.495799 
L 187.913944 415.495799 
z
" clip-path="url(#p9fbdb47d10)" style="fill: #ffc107"/>
   </g>
   <g id="patch_12">
    <path d="M 204.525331 455.955539 
L 217.814441 455.955539 
L 217.814441 362.898138 
L 204.525331 362.898138 
z
" clip-path="url(#p9fbdb47d10)" style="fill: #ffc107"/>
   </g>
   <g id="patch_13">
    <path d="M 221.136718 455.955539 
L 234.425828 455.955539 
L 234.425828 350.760216 
L 221.136718 350.760216 
z
" clip-path="url(#p9fbdb47d10)" style="fill: #ffc107"/>
   </g>
   <g id="patch_14">
    <path d="M 237.748106 455.955539 
L 251.037215 455.955539 
L 251.037215 395.26593 
L 237.748106 395.26593 
z
" clip-path="url(#p9fbdb47d10)" style="fill: #ffc107"/>
   </g>
   <g id="patch_15">
    <path d="M 254.359493 455.955539 
L 267.648602 455.955539 
L 267.648602 455.955539 
L 254.359493 455.955539 
z
" clip-path="url(#p9fbdb47d10)" style="fill: #ffc107"/>
   </g>
   <g id="patch_16">
    <path d="M 270.97088 455.955539 
L 284.25999 455.955539 
L 284.25999 435.725669 
L 270.97088 435.725669 
z
" clip-path="url(#p9fbdb47d10)" style="fill: #ffc107"/>
   </g>
   <g id="patch_17">
    <path d="M 287.582267 455.955539 
L 300.871377 455.955539 
L 300.871377 439.771643 
L 287.582267 439.771643 
z
" clip-path="url(#p9fbdb47d10)" style="fill: #ffc107"/>
   </g>
   <g id="patch_18">
    <path d="M 304.193654 455.955539 
L 317.482764 455.955539 
L 317.482764 455.955539 
L 304.193654 455.955539 
z
" clip-path="url(#p9fbdb47d10)" style="fill: #ffc107"/>
   </g>
   <g id="patch_19">
    <path d="M 320.805041 455.955539 
L 334.094151 455.955539 
L 334.094151 431.679695 
L 320.805041 431.679695 
z
" clip-path="url(#p9fbdb47d10)" style="fill: #ffc107"/>
   </g>
   <g id="patch_20">
    <path d="M 337.416429 455.955539 
L 350.705538 455.955539 
L 350.705538 419.541773 
L 337.416429 419.541773 
z
" clip-path="url(#p9fbdb47d10)" style="fill: #ffc107"/>
   </g>
   <g id="patch_21">
    <path d="M 354.027816 455.955539 
L 367.316925 455.955539 
L 367.316925 354.80619 
L 354.027816 354.80619 
z
" clip-path="url(#p9fbdb47d10)" style="fill: #ffc107"/>
   </g>
   <g id="patch_22">
    <path d="M 370.639203 455.955539 
L 383.928313 455.955539 
L 383.928313 362.898138 
L 370.639203 362.898138 
z
" clip-path="url(#p9fbdb47d10)" style="fill: #ffc107"/>
   </g>
   <g id="patch_23">
    <path d="M 387.25059 455.955539 
L 400.5397 455.955539 
L 400.5397 342.668268 
L 387.25059 342.668268 
z
" clip-path="url(#p9fbdb47d10)" style="fill: #ffc107"/>
   </g>
   <g id="patch_24">
    <path d="M 403.861977 455.955539 
L 417.151087 455.955539 
L 417.151087 342.668268 
L 403.861977 342.668268 
z
" clip-path="url(#p9fbdb47d10)" style="fill: #ffc107"/>
   </g>
   <g id="patch_25">
    <path d="M 420.473364 455.955539 
L 433.762474 455.955539 
L 433.762474 346.714242 
L 420.473364 346.714242 
z
" clip-path="url(#p9fbdb47d10)" style="fill: #ffc107"/>
   </g>
   <g id="patch_26">
    <path d="M 437.084752 455.955539 
L 450.373861 455.955539 
L 450.373861 439.771643 
L 437.084752 439.771643 
z
" clip-path="url(#p9fbdb47d10)" style="fill: #ffc107"/>
   </g>
   <g id="patch_27">
    <path d="M 453.696139 455.955539 
L 466.985248 455.955539 
L 466.985248 435.725669 
L 453.696139 435.725669 
z
" clip-path="url(#p9fbdb47d10)" style="fill: #ffc107"/>
   </g>
   <g id="patch_28">
    <path d="M 470.307526 455.955539 
L 483.596636 455.955539 
L 483.596636 411.449825 
L 470.307526 411.449825 
z
" clip-path="url(#p9fbdb47d10)" style="fill: #ffc107"/>
   </g>
   <g id="patch_29">
    <path d="M 486.918913 455.955539 
L 500.208023 455.955539 
L 500.208023 379.082034 
L 486.918913 379.082034 
z
" clip-path="url(#p9fbdb47d10)" style="fill: #ffc107"/>
   </g>
   <g id="patch_30">
    <path d="M 503.5303 455.955539 
L 516.81941 455.955539 
L 516.81941 383.128008 
L 503.5303 383.128008 
z
" clip-path="url(#p9fbdb47d10)" style="fill: #ffc107"/>
   </g>
   <g id="patch_31">
    <path d="M 520.141687 455.955539 
L 533.430797 455.955539 
L 533.430797 358.852164 
L 520.141687 358.852164 
z
" clip-path="url(#p9fbdb47d10)" style="fill: #ffc107"/>
   </g>
   <g id="patch_32">
    <path d="M 536.753075 455.955539 
L 550.042184 455.955539 
L 550.042184 403.357877 
L 536.753075 403.357877 
z
" clip-path="url(#p9fbdb47d10)" style="fill: #ffc107"/>
   </g>
   <g id="patch_33">
    <path d="M 553.364462 455.955539 
L 566.653571 455.955539 
L 566.653571 415.495799 
L 553.364462 415.495799 
z
" clip-path="url(#p9fbdb47d10)" style="fill: #ffc107"/>
   </g>
   <g id="patch_34">
    <path d="M 569.975849 455.955539 
L 583.264959 455.955539 
L 583.264959 395.26593 
L 569.975849 395.26593 
z
" clip-path="url(#p9fbdb47d10)" style="fill: #ffc107"/>
   </g>
   <g id="patch_35">
    <path d="M 586.587236 455.955539 
L 599.876346 455.955539 
L 599.876346 334.57632 
L 586.587236 334.57632 
z
" clip-path="url(#p9fbdb47d10)" style="fill: #ffc107"/>
   </g>
   <g id="patch_36">
    <path d="M 603.198623 455.955539 
L 616.487733 455.955539 
L 616.487733 330.530346 
L 603.198623 330.530346 
z
" clip-path="url(#p9fbdb47d10)" style="fill: #ffc107"/>
   </g>
   <g id="patch_37">
    <path d="M 619.81001 455.955539 
L 633.09912 455.955539 
L 633.09912 306.254502 
L 619.81001 306.254502 
z
" clip-path="url(#p9fbdb47d10)" style="fill: #ffc107"/>
   </g>
   <g id="patch_38">
    <path d="M 636.421398 455.955539 
L 649.710507 455.955539 
L 649.710507 447.863591 
L 636.421398 447.863591 
z
" clip-path="url(#p9fbdb47d10)" style="fill: #ffc107"/>
   </g>
   <g id="patch_39">
    <path d="M 653.032785 455.955539 
L 666.321894 455.955539 
L 666.321894 439.771643 
L 653.032785 439.771643 
z
" clip-path="url(#p9fbdb47d10)" style="fill: #ffc107"/>
   </g>
   <g id="patch_40">
    <path d="M 669.644172 455.955539 
L 682.933282 455.955539 
L 682.933282 447.863591 
L 669.644172 447.863591 
z
" clip-path="url(#p9fbdb47d10)" style="fill: #ffc107"/>
   </g>
   <g id="patch_41">
    <path d="M 686.255559 455.955539 
L 699.544669 455.955539 
L 699.544669 447.863591 
L 686.255559 447.863591 
z
" clip-path="url(#p9fbdb47d10)" style="fill: #ffc107"/>
   </g>
   <g id="patch_42">
    <path d="M 702.866946 455.955539 
L 716.156056 455.955539 
L 716.156056 403.357877 
L 702.866946 403.357877 
z
" clip-path="url(#p9fbdb47d10)" style="fill: #ffc107"/>
   </g>
   <g id="patch_43">
    <path d="M 719.478333 455.955539 
L 732.767443 455.955539 
L 732.767443 419.541773 
L 719.478333 419.541773 
z
" clip-path="url(#p9fbdb47d10)" style="fill: #ffc107"/>
   </g>
   <g id="patch_44">
    <path d="M 736.08972 455.955539 
L 749.37883 455.955539 
L 749.37883 423.587747 
L 736.08972 423.587747 
z
" clip-path="url(#p9fbdb47d10)" style="fill: #ffc107"/>
   </g>
   <g id="patch_45">
    <path d="M 752.701108 455.955539 
L 765.990217 455.955539 
L 765.990217 387.173982 
L 752.701108 387.173982 
z
" clip-path="url(#p9fbdb47d10)" style="fill: #ffc107"/>
   </g>
   <g id="patch_46">
    <path d="M 769.312495 455.955539 
L 782.601605 455.955539 
L 782.601605 395.26593 
L 769.312495 395.26593 
z
" clip-path="url(#p9fbdb47d10)" style="fill: #ffc107"/>
   </g>
   <g id="patch_47">
    <path d="M 785.923882 455.955539 
L 799.212992 455.955539 
L 799.212992 411.449825 
L 785.923882 411.449825 
z
" clip-path="url(#p9fbdb47d10)" style="fill: #ffc107"/>
   </g>
   <g id="patch_48">
    <path d="M 802.535269 455.955539 
L 815.824379 455.955539 
L 815.824379 447.863591 
L 802.535269 447.863591 
z
" clip-path="url(#p9fbdb47d10)" style="fill: #ffc107"/>
   </g>
   <g id="patch_49">
    <path d="M 819.146656 455.955539 
L 832.435766 455.955539 
L 832.435766 277.932685 
L 819.146656 277.932685 
z
" clip-path="url(#p9fbdb47d10)" style="fill: #ffc107"/>
   </g>
   <g id="patch_50">
    <path d="M 835.758043 455.955539 
L 849.047153 455.955539 
L 849.047153 451.909565 
L 835.758043 451.909565 
z
" clip-path="url(#p9fbdb47d10)" style="fill: #ffc107"/>
   </g>
   <g id="patch_51">
    <path d="M 55.022847 423.587747 
L 68.311957 423.587747 
L 68.311957 358.852164 
L 55.022847 358.852164 
z
" clip-path="url(#p9fbdb47d10)" style="fill: #2196f3"/>
   </g>
   <g id="patch_52">
    <path d="M 71.634234 427.633721 
L 84.923344 427.633721 
L 84.923344 265.794763 
L 71.634234 265.794763 
z
" clip-path="url(#p9fbdb47d10)" style="fill: #2196f3"/>
   </g>
   <g id="patch_53">
    <path d="M 88.245621 435.725669 
L 101.534731 435.725669 
L 101.534731 322.438398 
L 88.245621 322.438398 
z
" clip-path="url(#p9fbdb47d10)" style="fill: #2196f3"/>
   </g>
   <g id="patch_54">
    <path d="M 104.857008 419.541773 
L 118.146118 419.541773 
L 118.146118 225.335023 
L 104.857008 225.335023 
z
" clip-path="url(#p9fbdb47d10)" style="fill: #2196f3"/>
   </g>
   <g id="patch_55">
    <path d="M 121.468395 399.311903 
L 134.757505 399.311903 
L 134.757505 197.013205 
L 121.468395 197.013205 
z
" clip-path="url(#p9fbdb47d10)" style="fill: #2196f3"/>
   </g>
   <g id="patch_56">
    <path d="M 138.079783 411.449825 
L 151.368892 411.449825 
L 151.368892 241.518919 
L 138.079783 241.518919 
z
" clip-path="url(#p9fbdb47d10)" style="fill: #2196f3"/>
   </g>
   <g id="patch_57">
    <path d="M 154.69117 391.219956 
L 167.98028 391.219956 
L 167.98028 180.829309 
L 154.69117 180.829309 
z
" clip-path="url(#p9fbdb47d10)" style="fill: #2196f3"/>
   </g>
   <g id="patch_58">
    <path d="M 171.302557 362.898138 
L 184.591667 362.898138 
L 184.591667 209.151127 
L 171.302557 209.151127 
z
" clip-path="url(#p9fbdb47d10)" style="fill: #2196f3"/>
   </g>
   <g id="patch_59">
    <path d="M 187.913944 415.495799 
L 201.203054 415.495799 
L 201.203054 164.645414 
L 187.913944 164.645414 
z
" clip-path="url(#p9fbdb47d10)" style="fill: #2196f3"/>
   </g>
   <g id="patch_60">
    <path d="M 204.525331 362.898138 
L 217.814441 362.898138 
L 217.814441 136.323596 
L 204.525331 136.323596 
z
" clip-path="url(#p9fbdb47d10)" style="fill: #2196f3"/>
   </g>
   <g id="patch_61">
    <path d="M 221.136718 350.760216 
L 234.425828 350.760216 
L 234.425828 229.380997 
L 221.136718 229.380997 
z
" clip-path="url(#p9fbdb47d10)" style="fill: #2196f3"/>
   </g>
   <g id="patch_62">
    <path d="M 237.748106 395.26593 
L 251.037215 395.26593 
L 251.037215 233.426971 
L 237.748106 233.426971 
z
" clip-path="url(#p9fbdb47d10)" style="fill: #2196f3"/>
   </g>
   <g id="patch_63">
    <path d="M 254.359493 455.955539 
L 267.648602 455.955539 
L 267.648602 447.863591 
L 254.359493 447.863591 
z
" clip-path="url(#p9fbdb47d10)" style="fill: #2196f3"/>
   </g>
   <g id="patch_64">
    <path d="M 270.97088 435.725669 
L 284.25999 435.725669 
L 284.25999 411.449825 
L 270.97088 411.449825 
z
" clip-path="url(#p9fbdb47d10)" style="fill: #2196f3"/>
   </g>
   <g id="patch_65">
    <path d="M 287.582267 439.771643 
L 300.871377 439.771643 
L 300.871377 423.587747 
L 287.582267 423.587747 
z
" clip-path="url(#p9fbdb47d10)" style="fill: #2196f3"/>
   </g>
   <g id="patch_66">
    <path d="M 304.193654 455.955539 
L 317.482764 455.955539 
L 317.482764 439.771643 
L 304.193654 439.771643 
z
" clip-path="url(#p9fbdb47d10)" style="fill: #2196f3"/>
   </g>
   <g id="patch_67">
    <path d="M 320.805041 431.679695 
L 334.094151 431.679695 
L 334.094151 415.495799 
L 320.805041 415.495799 
z
" clip-path="url(#p9fbdb47d10)" style="fill: #2196f3"/>
   </g>
   <g id="patch_68">
    <path d="M 337.416429 419.541773 
L 350.705538 419.541773 
L 350.705538 330.530346 
L 337.416429 330.530346 
z
" clip-path="url(#p9fbdb47d10)" style="fill: #2196f3"/>
   </g>
   <g id="patch_69">
    <path d="M 354.027816 354.80619 
L 367.316925 354.80619 
L 367.316925 168.691387 
L 354.027816 168.691387 
z
" clip-path="url(#p9fbdb47d10)" style="fill: #2196f3"/>
   </g>
   <g id="patch_70">
    <path d="M 370.639203 362.898138 
L 383.928313 362.898138 
L 383.928313 217.243075 
L 370.639203 217.243075 
z
" clip-path="url(#p9fbdb47d10)" style="fill: #2196f3"/>
   </g>
   <g id="patch_71">
    <path d="M 387.25059 342.668268 
L 400.5397 342.668268 
L 400.5397 108.001778 
L 387.25059 108.001778 
z
" clip-path="url(#p9fbdb47d10)" style="fill: #2196f3"/>
   </g>
   <g id="patch_72">
    <path d="M 403.861977 342.668268 
L 417.151087 342.668268 
L 417.151087 156.553466 
L 403.861977 156.553466 
z
" clip-path="url(#p9fbdb47d10)" style="fill: #2196f3"/>
   </g>
   <g id="patch_73">
    <path d="M 420.473364 346.714242 
L 433.762474 346.714242 
L 433.762474 192.967231 
L 420.473364 192.967231 
z
" clip-path="url(#p9fbdb47d10)" style="fill: #2196f3"/>
   </g>
   <g id="patch_74">
    <path d="M 437.084752 439.771643 
L 450.373861 439.771643 
L 450.373861 326.484372 
L 437.084752 326.484372 
z
" clip-path="url(#p9fbdb47d10)" style="fill: #2196f3"/>
   </g>
   <g id="patch_75">
    <path d="M 453.696139 435.725669 
L 466.985248 435.725669 
L 466.985248 249.610867 
L 453.696139 249.610867 
z
" clip-path="url(#p9fbdb47d10)" style="fill: #2196f3"/>
   </g>
   <g id="patch_76">
    <path d="M 470.307526 411.449825 
L 483.596636 411.449825 
L 483.596636 241.518919 
L 470.307526 241.518919 
z
" clip-path="url(#p9fbdb47d10)" style="fill: #2196f3"/>
   </g>
   <g id="patch_77">
    <path d="M 486.918913 379.082034 
L 500.208023 379.082034 
L 500.208023 233.426971 
L 486.918913 233.426971 
z
" clip-path="url(#p9fbdb47d10)" style="fill: #2196f3"/>
   </g>
   <g id="patch_78">
    <path d="M 503.5303 383.128008 
L 516.81941 383.128008 
L 516.81941 221.289049 
L 503.5303 221.289049 
z
" clip-path="url(#p9fbdb47d10)" style="fill: #2196f3"/>
   </g>
   <g id="patch_79">
    <path d="M 520.141687 358.852164 
L 533.430797 358.852164 
L 533.430797 237.472945 
L 520.141687 237.472945 
z
" clip-path="url(#p9fbdb47d10)" style="fill: #2196f3"/>
   </g>
   <g id="patch_80">
    <path d="M 536.753075 403.357877 
L 550.042184 403.357877 
L 550.042184 241.518919 
L 536.753075 241.518919 
z
" clip-path="url(#p9fbdb47d10)" style="fill: #2196f3"/>
   </g>
   <g id="patch_81">
    <path d="M 553.364462 415.495799 
L 566.653571 415.495799 
L 566.653571 318.392424 
L 553.364462 318.392424 
z
" clip-path="url(#p9fbdb47d10)" style="fill: #2196f3"/>
   </g>
   <g id="patch_82">
    <path d="M 569.975849 395.26593 
L 583.264959 395.26593 
L 583.264959 217.243075 
L 569.975849 217.243075 
z
" clip-path="url(#p9fbdb47d10)" style="fill: #2196f3"/>
   </g>
   <g id="patch_83">
    <path d="M 586.587236 334.57632 
L 599.876346 334.57632 
L 599.876346 197.013205 
L 586.587236 197.013205 
z
" clip-path="url(#p9fbdb47d10)" style="fill: #2196f3"/>
   </g>
   <g id="patch_84">
    <path d="M 603.198623 330.530346 
L 616.487733 330.530346 
L 616.487733 168.691387 
L 603.198623 168.691387 
z
" clip-path="url(#p9fbdb47d10)" style="fill: #2196f3"/>
   </g>
   <g id="patch_85">
    <path d="M 619.81001 306.254502 
L 633.09912 306.254502 
L 633.09912 184.875283 
L 619.81001 184.875283 
z
" clip-path="url(#p9fbdb47d10)" style="fill: #2196f3"/>
   </g>
   <g id="patch_86">
    <path d="M 636.421398 447.863591 
L 649.710507 447.863591 
L 649.710507 407.403851 
L 636.421398 407.403851 
z
" clip-path="url(#p9fbdb47d10)" style="fill: #2196f3"/>
   </g>
   <g id="patch_87">
    <path d="M 653.032785 439.771643 
L 666.321894 439.771643 
L 666.321894 391.219956 
L 653.032785 391.219956 
z
" clip-path="url(#p9fbdb47d10)" style="fill: #2196f3"/>
   </g>
   <g id="patch_88">
    <path d="M 669.644172 447.863591 
L 682.933282 447.863591 
L 682.933282 407.403851 
L 669.644172 407.403851 
z
" clip-path="url(#p9fbdb47d10)" style="fill: #2196f3"/>
   </g>
   <g id="patch_89">
    <path d="M 686.255559 447.863591 
L 699.544669 447.863591 
L 699.544669 415.495799 
L 686.255559 415.495799 
z
" clip-path="url(#p9fbdb47d10)" style="fill: #2196f3"/>
   </g>
   <g id="patch_90">
    <path d="M 702.866946 403.357877 
L 716.156056 403.357877 
L 716.156056 346.714242 
L 702.866946 346.714242 
z
" clip-path="url(#p9fbdb47d10)" style="fill: #2196f3"/>
   </g>
   <g id="patch_91">
    <path d="M 719.478333 419.541773 
L 732.767443 419.541773 
L 732.767443 387.173982 
L 719.478333 387.173982 
z
" clip-path="url(#p9fbdb47d10)" style="fill: #2196f3"/>
   </g>
   <g id="patch_92">
    <path d="M 736.08972 423.587747 
L 749.37883 423.587747 
L 749.37883 318.392424 
L 736.08972 318.392424 
z
" clip-path="url(#p9fbdb47d10)" style="fill: #2196f3"/>
   </g>
   <g id="patch_93">
    <path d="M 752.701108 387.173982 
L 765.990217 387.173982 
L 765.990217 306.254502 
L 752.701108 306.254502 
z
" clip-path="url(#p9fbdb47d10)" style="fill: #2196f3"/>
   </g>
   <g id="patch_94">
    <path d="M 769.312495 395.26593 
L 782.601605 395.26593 
L 782.601605 257.702815 
L 769.312495 257.702815 
z
" clip-path="url(#p9fbdb47d10)" style="fill: #2196f3"/>
   </g>
   <g id="patch_95">
    <path d="M 785.923882 411.449825 
L 799.212992 411.449825 
L 799.212992 354.80619 
L 785.923882 354.80619 
z
" clip-path="url(#p9fbdb47d10)" style="fill: #2196f3"/>
   </g>
   <g id="patch_96">
    <path d="M 802.535269 447.863591 
L 815.824379 447.863591 
L 815.824379 334.57632 
L 802.535269 334.57632 
z
" clip-path="url(#p9fbdb47d10)" style="fill: #2196f3"/>
   </g>
   <g id="patch_97">
    <path d="M 819.146656 277.932685 
L 832.435766 277.932685 
L 832.435766 253.656841 
L 819.146656 253.656841 
z
" clip-path="url(#p9fbdb47d10)" style="fill: #2196f3"/>
   </g>
   <g id="patch_98">
    <path d="M 835.758043 451.909565 
L 849.047153 451.909565 
L 849.047153 443.817617 
L 835.758043 443.817617 
z
" clip-path="url(#p9fbdb47d10)" style="fill: #2196f3"/>
   </g>
   <g id="patch_99">
    <path d="M 55.022847 358.852164 
L 68.311957 358.852164 
L 68.311957 346.714242 
L 55.022847 346.714242 
z
" clip-path="url(#p9fbdb47d10)" style="fill: #4caf50"/>
   </g>
   <g id="patch_100">
    <path d="M 71.634234 265.794763 
L 84.923344 265.794763 
L 84.923344 229.380997 
L 71.634234 229.380997 
z
" clip-path="url(#p9fbdb47d10)" style="fill: #4caf50"/>
   </g>
   <g id="patch_101">
    <path d="M 88.245621 322.438398 
L 101.534731 322.438398 
L 101.534731 298.162554 
L 88.245621 298.162554 
z
" clip-path="url(#p9fbdb47d10)" style="fill: #4caf50"/>
   </g>
   <g id="patch_102">
    <path d="M 104.857008 225.335023 
L 118.146118 225.335023 
L 118.146118 213.197101 
L 104.857008 213.197101 
z
" clip-path="url(#p9fbdb47d10)" style="fill: #4caf50"/>
   </g>
   <g id="patch_103">
    <path d="M 121.468395 197.013205 
L 134.757505 197.013205 
L 134.757505 112.047752 
L 121.468395 112.047752 
z
" clip-path="url(#p9fbdb47d10)" style="fill: #4caf50"/>
   </g>
   <g id="patch_104">
    <path d="M 138.079783 241.518919 
L 151.368892 241.518919 
L 151.368892 217.243075 
L 138.079783 217.243075 
z
" clip-path="url(#p9fbdb47d10)" style="fill: #4caf50"/>
   </g>
   <g id="patch_105">
    <path d="M 154.69117 180.829309 
L 167.98028 180.829309 
L 167.98028 144.415544 
L 154.69117 144.415544 
z
" clip-path="url(#p9fbdb47d10)" style="fill: #4caf50"/>
   </g>
   <g id="patch_106">
    <path d="M 171.302557 209.151127 
L 184.591667 209.151127 
L 184.591667 184.875283 
L 171.302557 184.875283 
z
" clip-path="url(#p9fbdb47d10)" style="fill: #4caf50"/>
   </g>
   <g id="patch_107">
    <path d="M 187.913944 164.645414 
L 201.203054 164.645414 
L 201.203054 140.36957 
L 187.913944 140.36957 
z
" clip-path="url(#p9fbdb47d10)" style="fill: #4caf50"/>
   </g>
   <g id="patch_108">
    <path d="M 204.525331 136.323596 
L 217.814441 136.323596 
L 217.814441 99.90983 
L 204.525331 99.90983 
z
" clip-path="url(#p9fbdb47d10)" style="fill: #4caf50"/>
   </g>
   <g id="patch_109">
    <path d="M 221.136718 229.380997 
L 234.425828 229.380997 
L 234.425828 168.691387 
L 221.136718 168.691387 
z
" clip-path="url(#p9fbdb47d10)" style="fill: #4caf50"/>
   </g>
   <g id="patch_110">
    <path d="M 237.748106 233.426971 
L 251.037215 233.426971 
L 251.037215 160.59944 
L 237.748106 160.59944 
z
" clip-path="url(#p9fbdb47d10)" style="fill: #4caf50"/>
   </g>
   <g id="patch_111">
    <path d="M 254.359493 447.863591 
L 267.648602 447.863591 
L 267.648602 435.725669 
L 254.359493 435.725669 
z
" clip-path="url(#p9fbdb47d10)" style="fill: #4caf50"/>
   </g>
   <g id="patch_112">
    <path d="M 270.97088 411.449825 
L 284.25999 411.449825 
L 284.25999 387.173982 
L 270.97088 387.173982 
z
" clip-path="url(#p9fbdb47d10)" style="fill: #4caf50"/>
   </g>
   <g id="patch_113">
    <path d="M 287.582267 423.587747 
L 300.871377 423.587747 
L 300.871377 411.449825 
L 287.582267 411.449825 
z
" clip-path="url(#p9fbdb47d10)" style="fill: #4caf50"/>
   </g>
   <g id="patch_114">
    <path d="M 304.193654 455.955539 
L 317.482764 455.955539 
L 317.482764 455.955539 
L 304.193654 455.955539 
z
" clip-path="url(#p9fbdb47d10)" style="fill: #4caf50"/>
   </g>
   <g id="patch_115">
    <path d="M 320.805041 455.955539 
L 334.094151 455.955539 
L 334.094151 455.955539 
L 320.805041 455.955539 
z
" clip-path="url(#p9fbdb47d10)" style="fill: #4caf50"/>
   </g>
   <g id="patch_116">
    <path d="M 337.416429 330.530346 
L 350.705538 330.530346 
L 350.705538 294.11658 
L 337.416429 294.11658 
z
" clip-path="url(#p9fbdb47d10)" style="fill: #4caf50"/>
   </g>
   <g id="patch_117">
    <path d="M 354.027816 168.691387 
L 367.316925 168.691387 
L 367.316925 83.725934 
L 354.027816 83.725934 
z
" clip-path="url(#p9fbdb47d10)" style="fill: #4caf50"/>
   </g>
   <g id="patch_118">
    <path d="M 370.639203 217.243075 
L 383.928313 217.243075 
L 383.928313 156.553466 
L 370.639203 156.553466 
z
" clip-path="url(#p9fbdb47d10)" style="fill: #4caf50"/>
   </g>
   <g id="patch_119">
    <path d="M 387.25059 108.001778 
L 400.5397 108.001778 
L 400.5397 95.863856 
L 387.25059 95.863856 
z
" clip-path="url(#p9fbdb47d10)" style="fill: #4caf50"/>
   </g>
   <g id="patch_120">
    <path d="M 403.861977 156.553466 
L 417.151087 156.553466 
L 417.151087 71.588012 
L 403.861977 71.588012 
z
" clip-path="url(#p9fbdb47d10)" style="fill: #4caf50"/>
   </g>
   <g id="patch_121">
    <path d="M 420.473364 192.967231 
L 433.762474 192.967231 
L 433.762474 59.45009 
L 420.473364 59.45009 
z
" clip-path="url(#p9fbdb47d10)" style="fill: #4caf50"/>
   </g>
   <g id="patch_122">
    <path d="M 437.084752 326.484372 
L 450.373861 326.484372 
L 450.373861 302.208528 
L 437.084752 302.208528 
z
" clip-path="url(#p9fbdb47d10)" style="fill: #4caf50"/>
   </g>
   <g id="patch_123">
    <path d="M 453.696139 249.610867 
L 466.985248 249.610867 
L 466.985248 201.059179 
L 453.696139 201.059179 
z
" clip-path="url(#p9fbdb47d10)" style="fill: #4caf50"/>
   </g>
   <g id="patch_124">
    <path d="M 470.307526 241.518919 
L 483.596636 241.518919 
L 483.596636 180.829309 
L 470.307526 180.829309 
z
" clip-path="url(#p9fbdb47d10)" style="fill: #4caf50"/>
   </g>
   <g id="patch_125">
    <path d="M 486.918913 233.426971 
L 500.208023 233.426971 
L 500.208023 197.013205 
L 486.918913 197.013205 
z
" clip-path="url(#p9fbdb47d10)" style="fill: #4caf50"/>
   </g>
   <g id="patch_126">
    <path d="M 503.5303 221.289049 
L 516.81941 221.289049 
L 516.81941 112.047752 
L 503.5303 112.047752 
z
" clip-path="url(#p9fbdb47d10)" style="fill: #4caf50"/>
   </g>
   <g id="patch_127">
    <path d="M 520.141687 237.472945 
L 533.430797 237.472945 
L 533.430797 201.059179 
L 520.141687 201.059179 
z
" clip-path="url(#p9fbdb47d10)" style="fill: #4caf50"/>
   </g>
   <g id="patch_128">
    <path d="M 536.753075 241.518919 
L 550.042184 241.518919 
L 550.042184 180.829309 
L 536.753075 180.829309 
z
" clip-path="url(#p9fbdb47d10)" style="fill: #4caf50"/>
   </g>
   <g id="patch_129">
    <path d="M 553.364462 318.392424 
L 566.653571 318.392424 
L 566.653571 306.254502 
L 553.364462 306.254502 
z
" clip-path="url(#p9fbdb47d10)" style="fill: #4caf50"/>
   </g>
   <g id="patch_130">
    <path d="M 569.975849 217.243075 
L 583.264959 217.243075 
L 583.264959 168.691387 
L 569.975849 168.691387 
z
" clip-path="url(#p9fbdb47d10)" style="fill: #4caf50"/>
   </g>
   <g id="patch_131">
    <path d="M 586.587236 197.013205 
L 599.876346 197.013205 
L 599.876346 112.047752 
L 586.587236 112.047752 
z
" clip-path="url(#p9fbdb47d10)" style="fill: #4caf50"/>
   </g>
   <g id="patch_132">
    <path d="M 603.198623 168.691387 
L 616.487733 168.691387 
L 616.487733 47.312169 
L 603.198623 47.312169 
z
" clip-path="url(#p9fbdb47d10)" style="fill: #4caf50"/>
   </g>
   <g id="patch_133">
    <path d="M 619.81001 184.875283 
L 633.09912 184.875283 
L 633.09912 87.771908 
L 619.81001 87.771908 
z
" clip-path="url(#p9fbdb47d10)" style="fill: #4caf50"/>
   </g>
   <g id="patch_134">
    <path d="M 636.421398 407.403851 
L 649.710507 407.403851 
L 649.710507 395.26593 
L 636.421398 395.26593 
z
" clip-path="url(#p9fbdb47d10)" style="fill: #4caf50"/>
   </g>
   <g id="patch_135">
    <path d="M 653.032785 391.219956 
L 666.321894 391.219956 
L 666.321894 379.082034 
L 653.032785 379.082034 
z
" clip-path="url(#p9fbdb47d10)" style="fill: #4caf50"/>
   </g>
   <g id="patch_136">
    <path d="M 669.644172 407.403851 
L 682.933282 407.403851 
L 682.933282 395.26593 
L 669.644172 395.26593 
z
" clip-path="url(#p9fbdb47d10)" style="fill: #4caf50"/>
   </g>
   <g id="patch_137">
    <path d="M 686.255559 415.495799 
L 699.544669 415.495799 
L 699.544669 391.219956 
L 686.255559 391.219956 
z
" clip-path="url(#p9fbdb47d10)" style="fill: #4caf50"/>
   </g>
   <g id="patch_138">
    <path d="M 702.866946 346.714242 
L 716.156056 346.714242 
L 716.156056 334.57632 
L 702.866946 334.57632 
z
" clip-path="url(#p9fbdb47d10)" style="fill: #4caf50"/>
   </g>
   <g id="patch_139">
    <path d="M 719.478333 387.173982 
L 732.767443 387.173982 
L 732.767443 338.622294 
L 719.478333 338.622294 
z
" clip-path="url(#p9fbdb47d10)" style="fill: #4caf50"/>
   </g>
   <g id="patch_140">
    <path d="M 736.08972 318.392424 
L 749.37883 318.392424 
L 749.37883 281.978658 
L 736.08972 281.978658 
z
" clip-path="url(#p9fbdb47d10)" style="fill: #4caf50"/>
   </g>
   <g id="patch_141">
    <path d="M 752.701108 306.254502 
L 765.990217 306.254502 
L 765.990217 281.978658 
L 752.701108 281.978658 
z
" clip-path="url(#p9fbdb47d10)" style="fill: #4caf50"/>
   </g>
   <g id="patch_142">
    <path d="M 769.312495 257.702815 
L 782.601605 257.702815 
L 782.601605 221.289049 
L 769.312495 221.289049 
z
" clip-path="url(#p9fbdb47d10)" style="fill: #4caf50"/>
   </g>
   <g id="patch_143">
    <path d="M 785.923882 354.80619 
L 799.212992 354.80619 
L 799.212992 342.668268 
L 785.923882 342.668268 
z
" clip-path="url(#p9fbdb47d10)" style="fill: #4caf50"/>
   </g>
   <g id="patch_144">
    <path d="M 802.535269 334.57632 
L 815.824379 334.57632 
L 815.824379 261.748789 
L 802.535269 261.748789 
z
" clip-path="url(#p9fbdb47d10)" style="fill: #4caf50"/>
   </g>
   <g id="patch_145">
    <path d="M 819.146656 253.656841 
L 832.435766 253.656841 
L 832.435766 229.380997 
L 819.146656 229.380997 
z
" clip-path="url(#p9fbdb47d10)" style="fill: #4caf50"/>
   </g>
   <g id="patch_146">
    <path d="M 835.758043 455.955539 
L 849.047153 455.955539 
L 849.047153 455.955539 
L 835.758043 455.955539 
z
" clip-path="url(#p9fbdb47d10)" style="fill: #4caf50"/>
   </g>
   <g id="matplotlib.axis_1">
    <g id="xtick_1">
     <g id="line2d_1">
      <defs>
       <path id="m51b202e4fc" d="M 0 0 
L 0 3.5 
" style="stroke: #000000; stroke-width: 0.8"/>
      </defs>
      <g>
       <use xlink:href="#m51b202e4fc" x="61.667402" y="455.955539" style="stroke: #000000; stroke-width: 0.8"/>
      </g>
     </g>
     <g id="text_1">
      <!-- 0 -->
      <g transform="translate(61.369091 472.827413) rotate(-45) scale(0.1 -0.1)">
       <defs>
        <path id="DejaVuSans-30" d="M 2034 4250 
Q 1547 4250 1301 3770 
Q 1056 3291 1056 2328 
Q 1056 1369 1301 889 
Q 1547 409 2034 409 
Q 2525 409 2770 889 
Q 3016 1369 3016 2328 
Q 3016 3291 2770 3770 
Q 2525 4250 2034 4250 
z
M 2034 4750 
Q 2819 4750 3233 4129 
Q 3647 3509 3647 2328 
Q 3647 1150 3233 529 
Q 2819 -91 2034 -91 
Q 1250 -91 836 529 
Q 422 1150 422 2328 
Q 422 3509 836 4129 
Q 1250 4750 2034 4750 
z
" transform="scale(0.015625)"/>
       </defs>
       <use xlink:href="#DejaVuSans-30"/>
      </g>
     </g>
    </g>
    <g id="xtick_2">
     <g id="line2d_2">
      <g>
       <use xlink:href="#m51b202e4fc" x="78.278789" y="455.955539" style="stroke: #000000; stroke-width: 0.8"/>
      </g>
     </g>
    </g>
    <g id="xtick_3">
     <g id="line2d_3">
      <g>
       <use xlink:href="#m51b202e4fc" x="94.890176" y="455.955539" style="stroke: #000000; stroke-width: 0.8"/>
      </g>
     </g>
    </g>
    <g id="xtick_4">
     <g id="line2d_4">
      <g>
       <use xlink:href="#m51b202e4fc" x="111.501563" y="455.955539" style="stroke: #000000; stroke-width: 0.8"/>
      </g>
     </g>
    </g>
    <g id="xtick_5">
     <g id="line2d_5">
      <g>
       <use xlink:href="#m51b202e4fc" x="128.11295" y="455.955539" style="stroke: #000000; stroke-width: 0.8"/>
      </g>
     </g>
    </g>
    <g id="xtick_6">
     <g id="line2d_6">
      <g>
       <use xlink:href="#m51b202e4fc" x="144.724337" y="455.955539" style="stroke: #000000; stroke-width: 0.8"/>
      </g>
     </g>
     <g id="text_2">
      <!-- 5 -->
      <g transform="translate(144.426027 472.827413) rotate(-45) scale(0.1 -0.1)">
       <defs>
        <path id="DejaVuSans-35" d="M 691 4666 
L 3169 4666 
L 3169 4134 
L 1269 4134 
L 1269 2991 
Q 1406 3038 1543 3061 
Q 1681 3084 1819 3084 
Q 2600 3084 3056 2656 
Q 3513 2228 3513 1497 
Q 3513 744 3044 326 
Q 2575 -91 1722 -91 
Q 1428 -91 1123 -41 
Q 819 9 494 109 
L 494 744 
Q 775 591 1075 516 
Q 1375 441 1709 441 
Q 2250 441 2565 725 
Q 2881 1009 2881 1497 
Q 2881 1984 2565 2268 
Q 2250 2553 1709 2553 
Q 1456 2553 1204 2497 
Q 953 2441 691 2322 
L 691 4666 
z
" transform="scale(0.015625)"/>
       </defs>
       <use xlink:href="#DejaVuSans-35"/>
      </g>
     </g>
    </g>
    <g id="xtick_7">
     <g id="line2d_7">
      <g>
       <use xlink:href="#m51b202e4fc" x="161.335725" y="455.955539" style="stroke: #000000; stroke-width: 0.8"/>
      </g>
     </g>
    </g>
    <g id="xtick_8">
     <g id="line2d_8">
      <g>
       <use xlink:href="#m51b202e4fc" x="177.947112" y="455.955539" style="stroke: #000000; stroke-width: 0.8"/>
      </g>
     </g>
    </g>
    <g id="xtick_9">
     <g id="line2d_9">
      <g>
       <use xlink:href="#m51b202e4fc" x="194.558499" y="455.955539" style="stroke: #000000; stroke-width: 0.8"/>
      </g>
     </g>
    </g>
    <g id="xtick_10">
     <g id="line2d_10">
      <g>
       <use xlink:href="#m51b202e4fc" x="211.169886" y="455.955539" style="stroke: #000000; stroke-width: 0.8"/>
      </g>
     </g>
    </g>
    <g id="xtick_11">
     <g id="line2d_11">
      <g>
       <use xlink:href="#m51b202e4fc" x="227.781273" y="455.955539" style="stroke: #000000; stroke-width: 0.8"/>
      </g>
     </g>
     <g id="text_3">
      <!-- 10 -->
      <g transform="translate(225.233479 477.326379) rotate(-45) scale(0.1 -0.1)">
       <defs>
        <path id="DejaVuSans-31" d="M 794 531 
L 1825 531 
L 1825 4091 
L 703 3866 
L 703 4441 
L 1819 4666 
L 2450 4666 
L 2450 531 
L 3481 531 
L 3481 0 
L 794 0 
L 794 531 
z
" transform="scale(0.015625)"/>
       </defs>
       <use xlink:href="#DejaVuSans-31"/>
       <use xlink:href="#DejaVuSans-30" transform="translate(63.623047 0)"/>
      </g>
     </g>
    </g>
    <g id="xtick_12">
     <g id="line2d_12">
      <g>
       <use xlink:href="#m51b202e4fc" x="244.39266" y="455.955539" style="stroke: #000000; stroke-width: 0.8"/>
      </g>
     </g>
     <g id="text_4">
      <!-- 11 -->
      <g transform="translate(241.844866 477.326379) rotate(-45) scale(0.1 -0.1)">
       <use xlink:href="#DejaVuSans-31"/>
       <use xlink:href="#DejaVuSans-31" transform="translate(63.623047 0)"/>
      </g>
     </g>
    </g>
    <g id="xtick_13">
     <g id="line2d_13">
      <g>
       <use xlink:href="#m51b202e4fc" x="261.004048" y="455.955539" style="stroke: #000000; stroke-width: 0.8"/>
      </g>
     </g>
    </g>
    <g id="xtick_14">
     <g id="line2d_14">
      <g>
       <use xlink:href="#m51b202e4fc" x="277.615435" y="455.955539" style="stroke: #000000; stroke-width: 0.8"/>
      </g>
     </g>
    </g>
    <g id="xtick_15">
     <g id="line2d_15">
      <g>
       <use xlink:href="#m51b202e4fc" x="294.226822" y="455.955539" style="stroke: #000000; stroke-width: 0.8"/>
      </g>
     </g>
    </g>
    <g id="xtick_16">
     <g id="line2d_16">
      <g>
       <use xlink:href="#m51b202e4fc" x="310.838209" y="455.955539" style="stroke: #000000; stroke-width: 0.8"/>
      </g>
     </g>
    </g>
    <g id="xtick_17">
     <g id="line2d_17">
      <g>
       <use xlink:href="#m51b202e4fc" x="327.449596" y="455.955539" style="stroke: #000000; stroke-width: 0.8"/>
      </g>
     </g>
    </g>
    <g id="xtick_18">
     <g id="line2d_18">
      <g>
       <use xlink:href="#m51b202e4fc" x="344.060983" y="455.955539" style="stroke: #000000; stroke-width: 0.8"/>
      </g>
     </g>
    </g>
    <g id="xtick_19">
     <g id="line2d_19">
      <g>
       <use xlink:href="#m51b202e4fc" x="360.672371" y="455.955539" style="stroke: #000000; stroke-width: 0.8"/>
      </g>
     </g>
    </g>
    <g id="xtick_20">
     <g id="line2d_20">
      <g>
       <use xlink:href="#m51b202e4fc" x="377.283758" y="455.955539" style="stroke: #000000; stroke-width: 0.8"/>
      </g>
     </g>
     <g id="text_5">
      <!-- 20 -->
      <g transform="translate(374.735964 477.326379) rotate(-45) scale(0.1 -0.1)">
       <defs>
        <path id="DejaVuSans-32" d="M 1228 531 
L 3431 531 
L 3431 0 
L 469 0 
L 469 531 
Q 828 903 1448 1529 
Q 2069 2156 2228 2338 
Q 2531 2678 2651 2914 
Q 2772 3150 2772 3378 
Q 2772 3750 2511 3984 
Q 2250 4219 1831 4219 
Q 1534 4219 1204 4116 
Q 875 4013 500 3803 
L 500 4441 
Q 881 4594 1212 4672 
Q 1544 4750 1819 4750 
Q 2544 4750 2975 4387 
Q 3406 4025 3406 3419 
Q 3406 3131 3298 2873 
Q 3191 2616 2906 2266 
Q 2828 2175 2409 1742 
Q 1991 1309 1228 531 
z
" transform="scale(0.015625)"/>
       </defs>
       <use xlink:href="#DejaVuSans-32"/>
       <use xlink:href="#DejaVuSans-30" transform="translate(63.623047 0)"/>
      </g>
     </g>
    </g>
    <g id="xtick_21">
     <g id="line2d_21">
      <g>
       <use xlink:href="#m51b202e4fc" x="393.895145" y="455.955539" style="stroke: #000000; stroke-width: 0.8"/>
      </g>
     </g>
    </g>
    <g id="xtick_22">
     <g id="line2d_22">
      <g>
       <use xlink:href="#m51b202e4fc" x="410.506532" y="455.955539" style="stroke: #000000; stroke-width: 0.8"/>
      </g>
     </g>
    </g>
    <g id="xtick_23">
     <g id="line2d_23">
      <g>
       <use xlink:href="#m51b202e4fc" x="427.117919" y="455.955539" style="stroke: #000000; stroke-width: 0.8"/>
      </g>
     </g>
     <g id="text_6">
      <!-- 23 -->
      <g transform="translate(424.570125 477.326379) rotate(-45) scale(0.1 -0.1)">
       <defs>
        <path id="DejaVuSans-33" d="M 2597 2516 
Q 3050 2419 3304 2112 
Q 3559 1806 3559 1356 
Q 3559 666 3084 287 
Q 2609 -91 1734 -91 
Q 1441 -91 1130 -33 
Q 819 25 488 141 
L 488 750 
Q 750 597 1062 519 
Q 1375 441 1716 441 
Q 2309 441 2620 675 
Q 2931 909 2931 1356 
Q 2931 1769 2642 2001 
Q 2353 2234 1838 2234 
L 1294 2234 
L 1294 2753 
L 1863 2753 
Q 2328 2753 2575 2939 
Q 2822 3125 2822 3475 
Q 2822 3834 2567 4026 
Q 2313 4219 1838 4219 
Q 1578 4219 1281 4162 
Q 984 4106 628 3988 
L 628 4550 
Q 988 4650 1302 4700 
Q 1616 4750 1894 4750 
Q 2613 4750 3031 4423 
Q 3450 4097 3450 3541 
Q 3450 3153 3228 2886 
Q 3006 2619 2597 2516 
z
" transform="scale(0.015625)"/>
       </defs>
       <use xlink:href="#DejaVuSans-32"/>
       <use xlink:href="#DejaVuSans-33" transform="translate(63.623047 0)"/>
      </g>
     </g>
    </g>
    <g id="xtick_24">
     <g id="line2d_24">
      <g>
       <use xlink:href="#m51b202e4fc" x="443.729306" y="455.955539" style="stroke: #000000; stroke-width: 0.8"/>
      </g>
     </g>
    </g>
    <g id="xtick_25">
     <g id="line2d_25">
      <g>
       <use xlink:href="#m51b202e4fc" x="460.340694" y="455.955539" style="stroke: #000000; stroke-width: 0.8"/>
      </g>
     </g>
     <g id="text_7">
      <!-- 25 -->
      <g transform="translate(457.792899 477.326379) rotate(-45) scale(0.1 -0.1)">
       <use xlink:href="#DejaVuSans-32"/>
       <use xlink:href="#DejaVuSans-35" transform="translate(63.623047 0)"/>
      </g>
     </g>
    </g>
    <g id="xtick_26">
     <g id="line2d_26">
      <g>
       <use xlink:href="#m51b202e4fc" x="476.952081" y="455.955539" style="stroke: #000000; stroke-width: 0.8"/>
      </g>
     </g>
    </g>
    <g id="xtick_27">
     <g id="line2d_27">
      <g>
       <use xlink:href="#m51b202e4fc" x="493.563468" y="455.955539" style="stroke: #000000; stroke-width: 0.8"/>
      </g>
     </g>
    </g>
    <g id="xtick_28">
     <g id="line2d_28">
      <g>
       <use xlink:href="#m51b202e4fc" x="510.174855" y="455.955539" style="stroke: #000000; stroke-width: 0.8"/>
      </g>
     </g>
    </g>
    <g id="xtick_29">
     <g id="line2d_29">
      <g>
       <use xlink:href="#m51b202e4fc" x="526.786242" y="455.955539" style="stroke: #000000; stroke-width: 0.8"/>
      </g>
     </g>
    </g>
    <g id="xtick_30">
     <g id="line2d_30">
      <g>
       <use xlink:href="#m51b202e4fc" x="543.397629" y="455.955539" style="stroke: #000000; stroke-width: 0.8"/>
      </g>
     </g>
     <g id="text_8">
      <!-- 30 -->
      <g transform="translate(540.849835 477.326379) rotate(-45) scale(0.1 -0.1)">
       <use xlink:href="#DejaVuSans-33"/>
       <use xlink:href="#DejaVuSans-30" transform="translate(63.623047 0)"/>
      </g>
     </g>
    </g>
    <g id="xtick_31">
     <g id="line2d_31">
      <g>
       <use xlink:href="#m51b202e4fc" x="560.009017" y="455.955539" style="stroke: #000000; stroke-width: 0.8"/>
      </g>
     </g>
    </g>
    <g id="xtick_32">
     <g id="line2d_32">
      <g>
       <use xlink:href="#m51b202e4fc" x="576.620404" y="455.955539" style="stroke: #000000; stroke-width: 0.8"/>
      </g>
     </g>
    </g>
    <g id="xtick_33">
     <g id="line2d_33">
      <g>
       <use xlink:href="#m51b202e4fc" x="593.231791" y="455.955539" style="stroke: #000000; stroke-width: 0.8"/>
      </g>
     </g>
    </g>
    <g id="xtick_34">
     <g id="line2d_34">
      <g>
       <use xlink:href="#m51b202e4fc" x="609.843178" y="455.955539" style="stroke: #000000; stroke-width: 0.8"/>
      </g>
     </g>
    </g>
    <g id="xtick_35">
     <g id="line2d_35">
      <g>
       <use xlink:href="#m51b202e4fc" x="626.454565" y="455.955539" style="stroke: #000000; stroke-width: 0.8"/>
      </g>
     </g>
     <g id="text_9">
      <!-- 35 -->
      <g transform="translate(623.906771 477.326379) rotate(-45) scale(0.1 -0.1)">
       <use xlink:href="#DejaVuSans-33"/>
       <use xlink:href="#DejaVuSans-35" transform="translate(63.623047 0)"/>
      </g>
     </g>
    </g>
    <g id="xtick_36">
     <g id="line2d_36">
      <g>
       <use xlink:href="#m51b202e4fc" x="643.065952" y="455.955539" style="stroke: #000000; stroke-width: 0.8"/>
      </g>
     </g>
    </g>
    <g id="xtick_37">
     <g id="line2d_37">
      <g>
       <use xlink:href="#m51b202e4fc" x="659.67734" y="455.955539" style="stroke: #000000; stroke-width: 0.8"/>
      </g>
     </g>
    </g>
    <g id="xtick_38">
     <g id="line2d_38">
      <g>
       <use xlink:href="#m51b202e4fc" x="676.288727" y="455.955539" style="stroke: #000000; stroke-width: 0.8"/>
      </g>
     </g>
    </g>
    <g id="xtick_39">
     <g id="line2d_39">
      <g>
       <use xlink:href="#m51b202e4fc" x="692.900114" y="455.955539" style="stroke: #000000; stroke-width: 0.8"/>
      </g>
     </g>
    </g>
    <g id="xtick_40">
     <g id="line2d_40">
      <g>
       <use xlink:href="#m51b202e4fc" x="709.511501" y="455.955539" style="stroke: #000000; stroke-width: 0.8"/>
      </g>
     </g>
     <g id="text_10">
      <!-- 40 -->
      <g transform="translate(706.963707 477.326379) rotate(-45) scale(0.1 -0.1)">
       <defs>
        <path id="DejaVuSans-34" d="M 2419 4116 
L 825 1625 
L 2419 1625 
L 2419 4116 
z
M 2253 4666 
L 3047 4666 
L 3047 1625 
L 3713 1625 
L 3713 1100 
L 3047 1100 
L 3047 0 
L 2419 0 
L 2419 1100 
L 313 1100 
L 313 1709 
L 2253 4666 
z
" transform="scale(0.015625)"/>
       </defs>
       <use xlink:href="#DejaVuSans-34"/>
       <use xlink:href="#DejaVuSans-30" transform="translate(63.623047 0)"/>
      </g>
     </g>
    </g>
    <g id="xtick_41">
     <g id="line2d_41">
      <g>
       <use xlink:href="#m51b202e4fc" x="726.122888" y="455.955539" style="stroke: #000000; stroke-width: 0.8"/>
      </g>
     </g>
    </g>
    <g id="xtick_42">
     <g id="line2d_42">
      <g>
       <use xlink:href="#m51b202e4fc" x="742.734275" y="455.955539" style="stroke: #000000; stroke-width: 0.8"/>
      </g>
     </g>
    </g>
    <g id="xtick_43">
     <g id="line2d_43">
      <g>
       <use xlink:href="#m51b202e4fc" x="759.345663" y="455.955539" style="stroke: #000000; stroke-width: 0.8"/>
      </g>
     </g>
    </g>
    <g id="xtick_44">
     <g id="line2d_44">
      <g>
       <use xlink:href="#m51b202e4fc" x="775.95705" y="455.955539" style="stroke: #000000; stroke-width: 0.8"/>
      </g>
     </g>
    </g>
    <g id="xtick_45">
     <g id="line2d_45">
      <g>
       <use xlink:href="#m51b202e4fc" x="792.568437" y="455.955539" style="stroke: #000000; stroke-width: 0.8"/>
      </g>
     </g>
     <g id="text_11">
      <!-- 45 -->
      <g transform="translate(790.020643 477.326379) rotate(-45) scale(0.1 -0.1)">
       <use xlink:href="#DejaVuSans-34"/>
       <use xlink:href="#DejaVuSans-35" transform="translate(63.623047 0)"/>
      </g>
     </g>
    </g>
    <g id="xtick_46">
     <g id="line2d_46">
      <g>
       <use xlink:href="#m51b202e4fc" x="809.179824" y="455.955539" style="stroke: #000000; stroke-width: 0.8"/>
      </g>
     </g>
    </g>
    <g id="xtick_47">
     <g id="line2d_47">
      <g>
       <use xlink:href="#m51b202e4fc" x="825.791211" y="455.955539" style="stroke: #000000; stroke-width: 0.8"/>
      </g>
     </g>
     <g id="text_12">
      <!-- 47 -->
      <g transform="translate(823.243417 477.326379) rotate(-45) scale(0.1 -0.1)">
       <defs>
        <path id="DejaVuSans-37" d="M 525 4666 
L 3525 4666 
L 3525 4397 
L 1831 0 
L 1172 0 
L 2766 4134 
L 525 4134 
L 525 4666 
z
" transform="scale(0.015625)"/>
       </defs>
       <use xlink:href="#DejaVuSans-34"/>
       <use xlink:href="#DejaVuSans-37" transform="translate(63.623047 0)"/>
      </g>
     </g>
    </g>
    <g id="xtick_48">
     <g id="line2d_48">
      <g>
       <use xlink:href="#m51b202e4fc" x="842.402598" y="455.955539" style="stroke: #000000; stroke-width: 0.8"/>
      </g>
     </g>
    </g>
    <g id="text_13">
     <!-- Game Minute -->
     <g transform="translate(418.483438 490.395378) scale(0.1 -0.1)">
      <defs>
       <path id="DejaVuSans-47" d="M 3809 666 
L 3809 1919 
L 2778 1919 
L 2778 2438 
L 4434 2438 
L 4434 434 
Q 4069 175 3628 42 
Q 3188 -91 2688 -91 
Q 1594 -91 976 548 
Q 359 1188 359 2328 
Q 359 3472 976 4111 
Q 1594 4750 2688 4750 
Q 3144 4750 3555 4637 
Q 3966 4525 4313 4306 
L 4313 3634 
Q 3963 3931 3569 4081 
Q 3175 4231 2741 4231 
Q 1884 4231 1454 3753 
Q 1025 3275 1025 2328 
Q 1025 1384 1454 906 
Q 1884 428 2741 428 
Q 3075 428 3337 486 
Q 3600 544 3809 666 
z
" transform="scale(0.015625)"/>
       <path id="DejaVuSans-61" d="M 2194 1759 
Q 1497 1759 1228 1600 
Q 959 1441 959 1056 
Q 959 750 1161 570 
Q 1363 391 1709 391 
Q 2188 391 2477 730 
Q 2766 1069 2766 1631 
L 2766 1759 
L 2194 1759 
z
M 3341 1997 
L 3341 0 
L 2766 0 
L 2766 531 
Q 2569 213 2275 61 
Q 1981 -91 1556 -91 
Q 1019 -91 701 211 
Q 384 513 384 1019 
Q 384 1609 779 1909 
Q 1175 2209 1959 2209 
L 2766 2209 
L 2766 2266 
Q 2766 2663 2505 2880 
Q 2244 3097 1772 3097 
Q 1472 3097 1187 3025 
Q 903 2953 641 2809 
L 641 3341 
Q 956 3463 1253 3523 
Q 1550 3584 1831 3584 
Q 2591 3584 2966 3190 
Q 3341 2797 3341 1997 
z
" transform="scale(0.015625)"/>
       <path id="DejaVuSans-6d" d="M 3328 2828 
Q 3544 3216 3844 3400 
Q 4144 3584 4550 3584 
Q 5097 3584 5394 3201 
Q 5691 2819 5691 2113 
L 5691 0 
L 5113 0 
L 5113 2094 
Q 5113 2597 4934 2840 
Q 4756 3084 4391 3084 
Q 3944 3084 3684 2787 
Q 3425 2491 3425 1978 
L 3425 0 
L 2847 0 
L 2847 2094 
Q 2847 2600 2669 2842 
Q 2491 3084 2119 3084 
Q 1678 3084 1418 2786 
Q 1159 2488 1159 1978 
L 1159 0 
L 581 0 
L 581 3500 
L 1159 3500 
L 1159 2956 
Q 1356 3278 1631 3431 
Q 1906 3584 2284 3584 
Q 2666 3584 2933 3390 
Q 3200 3197 3328 2828 
z
" transform="scale(0.015625)"/>
       <path id="DejaVuSans-65" d="M 3597 1894 
L 3597 1613 
L 953 1613 
Q 991 1019 1311 708 
Q 1631 397 2203 397 
Q 2534 397 2845 478 
Q 3156 559 3463 722 
L 3463 178 
Q 3153 47 2828 -22 
Q 2503 -91 2169 -91 
Q 1331 -91 842 396 
Q 353 884 353 1716 
Q 353 2575 817 3079 
Q 1281 3584 2069 3584 
Q 2775 3584 3186 3129 
Q 3597 2675 3597 1894 
z
M 3022 2063 
Q 3016 2534 2758 2815 
Q 2500 3097 2075 3097 
Q 1594 3097 1305 2825 
Q 1016 2553 972 2059 
L 3022 2063 
z
" transform="scale(0.015625)"/>
       <path id="DejaVuSans-20" transform="scale(0.015625)"/>
       <path id="DejaVuSans-4d" d="M 628 4666 
L 1569 4666 
L 2759 1491 
L 3956 4666 
L 4897 4666 
L 4897 0 
L 4281 0 
L 4281 4097 
L 3078 897 
L 2444 897 
L 1241 4097 
L 1241 0 
L 628 0 
L 628 4666 
z
" transform="scale(0.015625)"/>
       <path id="DejaVuSans-69" d="M 603 3500 
L 1178 3500 
L 1178 0 
L 603 0 
L 603 3500 
z
M 603 4863 
L 1178 4863 
L 1178 4134 
L 603 4134 
L 603 4863 
z
" transform="scale(0.015625)"/>
       <path id="DejaVuSans-6e" d="M 3513 2113 
L 3513 0 
L 2938 0 
L 2938 2094 
Q 2938 2591 2744 2837 
Q 2550 3084 2163 3084 
Q 1697 3084 1428 2787 
Q 1159 2491 1159 1978 
L 1159 0 
L 581 0 
L 581 3500 
L 1159 3500 
L 1159 2956 
Q 1366 3272 1645 3428 
Q 1925 3584 2291 3584 
Q 2894 3584 3203 3211 
Q 3513 2838 3513 2113 
z
" transform="scale(0.015625)"/>
       <path id="DejaVuSans-75" d="M 544 1381 
L 544 3500 
L 1119 3500 
L 1119 1403 
Q 1119 906 1312 657 
Q 1506 409 1894 409 
Q 2359 409 2629 706 
Q 2900 1003 2900 1516 
L 2900 3500 
L 3475 3500 
L 3475 0 
L 2900 0 
L 2900 538 
Q 2691 219 2414 64 
Q 2138 -91 1772 -91 
Q 1169 -91 856 284 
Q 544 659 544 1381 
z
M 1991 3584 
L 1991 3584 
z
" transform="scale(0.015625)"/>
       <path id="DejaVuSans-74" d="M 1172 4494 
L 1172 3500 
L 2356 3500 
L 2356 3053 
L 1172 3053 
L 1172 1153 
Q 1172 725 1289 603 
Q 1406 481 1766 481 
L 2356 481 
L 2356 0 
L 1766 0 
Q 1100 0 847 248 
Q 594 497 594 1153 
L 594 3053 
L 172 3053 
L 172 3500 
L 594 3500 
L 594 4494 
L 1172 4494 
z
" transform="scale(0.015625)"/>
      </defs>
      <use xlink:href="#DejaVuSans-47"/>
      <use xlink:href="#DejaVuSans-61" transform="translate(77.490234 0)"/>
      <use xlink:href="#DejaVuSans-6d" transform="translate(138.769531 0)"/>
      <use xlink:href="#DejaVuSans-65" transform="translate(236.181641 0)"/>
      <use xlink:href="#DejaVuSans-20" transform="translate(297.705078 0)"/>
      <use xlink:href="#DejaVuSans-4d" transform="translate(329.492188 0)"/>
      <use xlink:href="#DejaVuSans-69" transform="translate(415.771484 0)"/>
      <use xlink:href="#DejaVuSans-6e" transform="translate(443.554688 0)"/>
      <use xlink:href="#DejaVuSans-75" transform="translate(506.933594 0)"/>
      <use xlink:href="#DejaVuSans-74" transform="translate(570.3125 0)"/>
      <use xlink:href="#DejaVuSans-65" transform="translate(609.521484 0)"/>
     </g>
    </g>
   </g>
   <g id="matplotlib.axis_2">
    <g id="ytick_1">
     <g id="line2d_49">
      <path d="M 50.87 455.955539 
L 853.2 455.955539 
" clip-path="url(#p9fbdb47d10)" style="fill: none; stroke-dasharray: 2.96,1.28; stroke-dashoffset: 0; stroke: #b0b0b0; stroke-opacity: 0.6; stroke-width: 0.8"/>
     </g>
     <g id="line2d_50">
      <defs>
       <path id="m023212897f" d="M 0 0 
L -3.5 0 
" style="stroke: #000000; stroke-width: 0.8"/>
      </defs>
      <g>
       <use xlink:href="#m023212897f" x="50.87" y="455.955539" style="stroke: #000000; stroke-width: 0.8"/>
      </g>
     </g>
     <g id="text_14">
      <!-- 0 -->
      <g transform="translate(37.5075 459.754758) scale(0.1 -0.1)">
       <use xlink:href="#DejaVuSans-30"/>
      </g>
     </g>
    </g>
    <g id="ytick_2">
     <g id="line2d_51">
      <path d="M 50.87 375.03606 
L 853.2 375.03606 
" clip-path="url(#p9fbdb47d10)" style="fill: none; stroke-dasharray: 2.96,1.28; stroke-dashoffset: 0; stroke: #b0b0b0; stroke-opacity: 0.6; stroke-width: 0.8"/>
     </g>
     <g id="line2d_52">
      <g>
       <use xlink:href="#m023212897f" x="50.87" y="375.03606" style="stroke: #000000; stroke-width: 0.8"/>
      </g>
     </g>
     <g id="text_15">
      <!-- 20 -->
      <g transform="translate(31.145 378.835278) scale(0.1 -0.1)">
       <use xlink:href="#DejaVuSans-32"/>
       <use xlink:href="#DejaVuSans-30" transform="translate(63.623047 0)"/>
      </g>
     </g>
    </g>
    <g id="ytick_3">
     <g id="line2d_53">
      <path d="M 50.87 294.11658 
L 853.2 294.11658 
" clip-path="url(#p9fbdb47d10)" style="fill: none; stroke-dasharray: 2.96,1.28; stroke-dashoffset: 0; stroke: #b0b0b0; stroke-opacity: 0.6; stroke-width: 0.8"/>
     </g>
     <g id="line2d_54">
      <g>
       <use xlink:href="#m023212897f" x="50.87" y="294.11658" style="stroke: #000000; stroke-width: 0.8"/>
      </g>
     </g>
     <g id="text_16">
      <!-- 40 -->
      <g transform="translate(31.145 297.915799) scale(0.1 -0.1)">
       <use xlink:href="#DejaVuSans-34"/>
       <use xlink:href="#DejaVuSans-30" transform="translate(63.623047 0)"/>
      </g>
     </g>
    </g>
    <g id="ytick_4">
     <g id="line2d_55">
      <path d="M 50.87 213.197101 
L 853.2 213.197101 
" clip-path="url(#p9fbdb47d10)" style="fill: none; stroke-dasharray: 2.96,1.28; stroke-dashoffset: 0; stroke: #b0b0b0; stroke-opacity: 0.6; stroke-width: 0.8"/>
     </g>
     <g id="line2d_56">
      <g>
       <use xlink:href="#m023212897f" x="50.87" y="213.197101" style="stroke: #000000; stroke-width: 0.8"/>
      </g>
     </g>
     <g id="text_17">
      <!-- 60 -->
      <g transform="translate(31.145 216.99632) scale(0.1 -0.1)">
       <defs>
        <path id="DejaVuSans-36" d="M 2113 2584 
Q 1688 2584 1439 2293 
Q 1191 2003 1191 1497 
Q 1191 994 1439 701 
Q 1688 409 2113 409 
Q 2538 409 2786 701 
Q 3034 994 3034 1497 
Q 3034 2003 2786 2293 
Q 2538 2584 2113 2584 
z
M 3366 4563 
L 3366 3988 
Q 3128 4100 2886 4159 
Q 2644 4219 2406 4219 
Q 1781 4219 1451 3797 
Q 1122 3375 1075 2522 
Q 1259 2794 1537 2939 
Q 1816 3084 2150 3084 
Q 2853 3084 3261 2657 
Q 3669 2231 3669 1497 
Q 3669 778 3244 343 
Q 2819 -91 2113 -91 
Q 1303 -91 875 529 
Q 447 1150 447 2328 
Q 447 3434 972 4092 
Q 1497 4750 2381 4750 
Q 2619 4750 2861 4703 
Q 3103 4656 3366 4563 
z
" transform="scale(0.015625)"/>
       </defs>
       <use xlink:href="#DejaVuSans-36"/>
       <use xlink:href="#DejaVuSans-30" transform="translate(63.623047 0)"/>
      </g>
     </g>
    </g>
    <g id="ytick_5">
     <g id="line2d_57">
      <path d="M 50.87 132.277622 
L 853.2 132.277622 
" clip-path="url(#p9fbdb47d10)" style="fill: none; stroke-dasharray: 2.96,1.28; stroke-dashoffset: 0; stroke: #b0b0b0; stroke-opacity: 0.6; stroke-width: 0.8"/>
     </g>
     <g id="line2d_58">
      <g>
       <use xlink:href="#m023212897f" x="50.87" y="132.277622" style="stroke: #000000; stroke-width: 0.8"/>
      </g>
     </g>
     <g id="text_18">
      <!-- 80 -->
      <g transform="translate(31.145 136.076841) scale(0.1 -0.1)">
       <defs>
        <path id="DejaVuSans-38" d="M 2034 2216 
Q 1584 2216 1326 1975 
Q 1069 1734 1069 1313 
Q 1069 891 1326 650 
Q 1584 409 2034 409 
Q 2484 409 2743 651 
Q 3003 894 3003 1313 
Q 3003 1734 2745 1975 
Q 2488 2216 2034 2216 
z
M 1403 2484 
Q 997 2584 770 2862 
Q 544 3141 544 3541 
Q 544 4100 942 4425 
Q 1341 4750 2034 4750 
Q 2731 4750 3128 4425 
Q 3525 4100 3525 3541 
Q 3525 3141 3298 2862 
Q 3072 2584 2669 2484 
Q 3125 2378 3379 2068 
Q 3634 1759 3634 1313 
Q 3634 634 3220 271 
Q 2806 -91 2034 -91 
Q 1263 -91 848 271 
Q 434 634 434 1313 
Q 434 1759 690 2068 
Q 947 2378 1403 2484 
z
M 1172 3481 
Q 1172 3119 1398 2916 
Q 1625 2713 2034 2713 
Q 2441 2713 2670 2916 
Q 2900 3119 2900 3481 
Q 2900 3844 2670 4047 
Q 2441 4250 2034 4250 
Q 1625 4250 1398 4047 
Q 1172 3844 1172 3481 
z
" transform="scale(0.015625)"/>
       </defs>
       <use xlink:href="#DejaVuSans-38"/>
       <use xlink:href="#DejaVuSans-30" transform="translate(63.623047 0)"/>
      </g>
     </g>
    </g>
    <g id="ytick_6">
     <g id="line2d_59">
      <path d="M 50.87 51.358142 
L 853.2 51.358142 
" clip-path="url(#p9fbdb47d10)" style="fill: none; stroke-dasharray: 2.96,1.28; stroke-dashoffset: 0; stroke: #b0b0b0; stroke-opacity: 0.6; stroke-width: 0.8"/>
     </g>
     <g id="line2d_60">
      <g>
       <use xlink:href="#m023212897f" x="50.87" y="51.358142" style="stroke: #000000; stroke-width: 0.8"/>
      </g>
     </g>
     <g id="text_19">
      <!-- 100 -->
      <g transform="translate(24.7825 55.157361) scale(0.1 -0.1)">
       <use xlink:href="#DejaVuSans-31"/>
       <use xlink:href="#DejaVuSans-30" transform="translate(63.623047 0)"/>
       <use xlink:href="#DejaVuSans-30" transform="translate(127.246094 0)"/>
      </g>
     </g>
    </g>
    <g id="text_20">
     <!-- Points Scored -->
     <g transform="translate(18.702813 275.199019) rotate(-90) scale(0.1 -0.1)">
      <defs>
       <path id="DejaVuSans-50" d="M 1259 4147 
L 1259 2394 
L 2053 2394 
Q 2494 2394 2734 2622 
Q 2975 2850 2975 3272 
Q 2975 3691 2734 3919 
Q 2494 4147 2053 4147 
L 1259 4147 
z
M 628 4666 
L 2053 4666 
Q 2838 4666 3239 4311 
Q 3641 3956 3641 3272 
Q 3641 2581 3239 2228 
Q 2838 1875 2053 1875 
L 1259 1875 
L 1259 0 
L 628 0 
L 628 4666 
z
" transform="scale(0.015625)"/>
       <path id="DejaVuSans-6f" d="M 1959 3097 
Q 1497 3097 1228 2736 
Q 959 2375 959 1747 
Q 959 1119 1226 758 
Q 1494 397 1959 397 
Q 2419 397 2687 759 
Q 2956 1122 2956 1747 
Q 2956 2369 2687 2733 
Q 2419 3097 1959 3097 
z
M 1959 3584 
Q 2709 3584 3137 3096 
Q 3566 2609 3566 1747 
Q 3566 888 3137 398 
Q 2709 -91 1959 -91 
Q 1206 -91 779 398 
Q 353 888 353 1747 
Q 353 2609 779 3096 
Q 1206 3584 1959 3584 
z
" transform="scale(0.015625)"/>
       <path id="DejaVuSans-73" d="M 2834 3397 
L 2834 2853 
Q 2591 2978 2328 3040 
Q 2066 3103 1784 3103 
Q 1356 3103 1142 2972 
Q 928 2841 928 2578 
Q 928 2378 1081 2264 
Q 1234 2150 1697 2047 
L 1894 2003 
Q 2506 1872 2764 1633 
Q 3022 1394 3022 966 
Q 3022 478 2636 193 
Q 2250 -91 1575 -91 
Q 1294 -91 989 -36 
Q 684 19 347 128 
L 347 722 
Q 666 556 975 473 
Q 1284 391 1588 391 
Q 1994 391 2212 530 
Q 2431 669 2431 922 
Q 2431 1156 2273 1281 
Q 2116 1406 1581 1522 
L 1381 1569 
Q 847 1681 609 1914 
Q 372 2147 372 2553 
Q 372 3047 722 3315 
Q 1072 3584 1716 3584 
Q 2034 3584 2315 3537 
Q 2597 3491 2834 3397 
z
" transform="scale(0.015625)"/>
       <path id="DejaVuSans-53" d="M 3425 4513 
L 3425 3897 
Q 3066 4069 2747 4153 
Q 2428 4238 2131 4238 
Q 1616 4238 1336 4038 
Q 1056 3838 1056 3469 
Q 1056 3159 1242 3001 
Q 1428 2844 1947 2747 
L 2328 2669 
Q 3034 2534 3370 2195 
Q 3706 1856 3706 1288 
Q 3706 609 3251 259 
Q 2797 -91 1919 -91 
Q 1588 -91 1214 -16 
Q 841 59 441 206 
L 441 856 
Q 825 641 1194 531 
Q 1563 422 1919 422 
Q 2459 422 2753 634 
Q 3047 847 3047 1241 
Q 3047 1584 2836 1778 
Q 2625 1972 2144 2069 
L 1759 2144 
Q 1053 2284 737 2584 
Q 422 2884 422 3419 
Q 422 4038 858 4394 
Q 1294 4750 2059 4750 
Q 2388 4750 2728 4690 
Q 3069 4631 3425 4513 
z
" transform="scale(0.015625)"/>
       <path id="DejaVuSans-63" d="M 3122 3366 
L 3122 2828 
Q 2878 2963 2633 3030 
Q 2388 3097 2138 3097 
Q 1578 3097 1268 2742 
Q 959 2388 959 1747 
Q 959 1106 1268 751 
Q 1578 397 2138 397 
Q 2388 397 2633 464 
Q 2878 531 3122 666 
L 3122 134 
Q 2881 22 2623 -34 
Q 2366 -91 2075 -91 
Q 1284 -91 818 406 
Q 353 903 353 1747 
Q 353 2603 823 3093 
Q 1294 3584 2113 3584 
Q 2378 3584 2631 3529 
Q 2884 3475 3122 3366 
z
" transform="scale(0.015625)"/>
       <path id="DejaVuSans-72" d="M 2631 2963 
Q 2534 3019 2420 3045 
Q 2306 3072 2169 3072 
Q 1681 3072 1420 2755 
Q 1159 2438 1159 1844 
L 1159 0 
L 581 0 
L 581 3500 
L 1159 3500 
L 1159 2956 
Q 1341 3275 1631 3429 
Q 1922 3584 2338 3584 
Q 2397 3584 2469 3576 
Q 2541 3569 2628 3553 
L 2631 2963 
z
" transform="scale(0.015625)"/>
       <path id="DejaVuSans-64" d="M 2906 2969 
L 2906 4863 
L 3481 4863 
L 3481 0 
L 2906 0 
L 2906 525 
Q 2725 213 2448 61 
Q 2172 -91 1784 -91 
Q 1150 -91 751 415 
Q 353 922 353 1747 
Q 353 2572 751 3078 
Q 1150 3584 1784 3584 
Q 2172 3584 2448 3432 
Q 2725 3281 2906 2969 
z
M 947 1747 
Q 947 1113 1208 752 
Q 1469 391 1925 391 
Q 2381 391 2643 752 
Q 2906 1113 2906 1747 
Q 2906 2381 2643 2742 
Q 2381 3103 1925 3103 
Q 1469 3103 1208 2742 
Q 947 2381 947 1747 
z
" transform="scale(0.015625)"/>
      </defs>
      <use xlink:href="#DejaVuSans-50"/>
      <use xlink:href="#DejaVuSans-6f" transform="translate(56.677734 0)"/>
      <use xlink:href="#DejaVuSans-69" transform="translate(117.859375 0)"/>
      <use xlink:href="#DejaVuSans-6e" transform="translate(145.642578 0)"/>
      <use xlink:href="#DejaVuSans-74" transform="translate(209.021484 0)"/>
      <use xlink:href="#DejaVuSans-73" transform="translate(248.230469 0)"/>
      <use xlink:href="#DejaVuSans-20" transform="translate(300.330078 0)"/>
      <use xlink:href="#DejaVuSans-53" transform="translate(332.117188 0)"/>
      <use xlink:href="#DejaVuSans-63" transform="translate(395.59375 0)"/>
      <use xlink:href="#DejaVuSans-6f" transform="translate(450.574219 0)"/>
      <use xlink:href="#DejaVuSans-72" transform="translate(511.755859 0)"/>
      <use xlink:href="#DejaVuSans-65" transform="translate(550.619141 0)"/>
      <use xlink:href="#DejaVuSans-64" transform="translate(612.142578 0)"/>
     </g>
    </g>
   </g>
   <g id="patch_147">
    <path d="M 50.87 455.955539 
L 50.87 26.88 
" style="fill: none; stroke: #000000; stroke-width: 0.8; stroke-linejoin: miter; stroke-linecap: square"/>
   </g>
   <g id="patch_148">
    <path d="M 853.2 455.955539 
L 853.2 26.88 
" style="fill: none; stroke: #000000; stroke-width: 0.8; stroke-linejoin: miter; stroke-linecap: square"/>
   </g>
   <g id="patch_149">
    <path d="M 50.87 455.955539 
L 853.2 455.955539 
" style="fill: none; stroke: #000000; stroke-width: 0.8; stroke-linejoin: miter; stroke-linecap: square"/>
   </g>
   <g id="patch_150">
    <path d="M 50.87 26.88 
L 853.2 26.88 
" style="fill: none; stroke: #000000; stroke-width: 0.8; stroke-linejoin: miter; stroke-linecap: square"/>
   </g>
   <g id="text_21">
    <!-- Shai Gilgeous-Alexander Scoring Timeline (2024-25) -->
    <g transform="translate(295.19875 20.88) scale(0.12 -0.12)">
     <defs>
      <path id="DejaVuSans-68" d="M 3513 2113 
L 3513 0 
L 2938 0 
L 2938 2094 
Q 2938 2591 2744 2837 
Q 2550 3084 2163 3084 
Q 1697 3084 1428 2787 
Q 1159 2491 1159 1978 
L 1159 0 
L 581 0 
L 581 4863 
L 1159 4863 
L 1159 2956 
Q 1366 3272 1645 3428 
Q 1925 3584 2291 3584 
Q 2894 3584 3203 3211 
Q 3513 2838 3513 2113 
z
" transform="scale(0.015625)"/>
      <path id="DejaVuSans-6c" d="M 603 4863 
L 1178 4863 
L 1178 0 
L 603 0 
L 603 4863 
z
" transform="scale(0.015625)"/>
      <path id="DejaVuSans-67" d="M 2906 1791 
Q 2906 2416 2648 2759 
Q 2391 3103 1925 3103 
Q 1463 3103 1205 2759 
Q 947 2416 947 1791 
Q 947 1169 1205 825 
Q 1463 481 1925 481 
Q 2391 481 2648 825 
Q 2906 1169 2906 1791 
z
M 3481 434 
Q 3481 -459 3084 -895 
Q 2688 -1331 1869 -1331 
Q 1566 -1331 1297 -1286 
Q 1028 -1241 775 -1147 
L 775 -588 
Q 1028 -725 1275 -790 
Q 1522 -856 1778 -856 
Q 2344 -856 2625 -561 
Q 2906 -266 2906 331 
L 2906 616 
Q 2728 306 2450 153 
Q 2172 0 1784 0 
Q 1141 0 747 490 
Q 353 981 353 1791 
Q 353 2603 747 3093 
Q 1141 3584 1784 3584 
Q 2172 3584 2450 3431 
Q 2728 3278 2906 2969 
L 2906 3500 
L 3481 3500 
L 3481 434 
z
" transform="scale(0.015625)"/>
      <path id="DejaVuSans-2d" d="M 313 2009 
L 1997 2009 
L 1997 1497 
L 313 1497 
L 313 2009 
z
" transform="scale(0.015625)"/>
      <path id="DejaVuSans-41" d="M 2188 4044 
L 1331 1722 
L 3047 1722 
L 2188 4044 
z
M 1831 4666 
L 2547 4666 
L 4325 0 
L 3669 0 
L 3244 1197 
L 1141 1197 
L 716 0 
L 50 0 
L 1831 4666 
z
" transform="scale(0.015625)"/>
      <path id="DejaVuSans-78" d="M 3513 3500 
L 2247 1797 
L 3578 0 
L 2900 0 
L 1881 1375 
L 863 0 
L 184 0 
L 1544 1831 
L 300 3500 
L 978 3500 
L 1906 2253 
L 2834 3500 
L 3513 3500 
z
" transform="scale(0.015625)"/>
      <path id="DejaVuSans-54" d="M -19 4666 
L 3928 4666 
L 3928 4134 
L 2272 4134 
L 2272 0 
L 1638 0 
L 1638 4134 
L -19 4134 
L -19 4666 
z
" transform="scale(0.015625)"/>
      <path id="DejaVuSans-28" d="M 1984 4856 
Q 1566 4138 1362 3434 
Q 1159 2731 1159 2009 
Q 1159 1288 1364 580 
Q 1569 -128 1984 -844 
L 1484 -844 
Q 1016 -109 783 600 
Q 550 1309 550 2009 
Q 550 2706 781 3412 
Q 1013 4119 1484 4856 
L 1984 4856 
z
" transform="scale(0.015625)"/>
      <path id="DejaVuSans-29" d="M 513 4856 
L 1013 4856 
Q 1481 4119 1714 3412 
Q 1947 2706 1947 2009 
Q 1947 1309 1714 600 
Q 1481 -109 1013 -844 
L 513 -844 
Q 928 -128 1133 580 
Q 1338 1288 1338 2009 
Q 1338 2731 1133 3434 
Q 928 4138 513 4856 
z
" transform="scale(0.015625)"/>
     </defs>
     <use xlink:href="#DejaVuSans-53"/>
     <use xlink:href="#DejaVuSans-68" transform="translate(63.476562 0)"/>
     <use xlink:href="#DejaVuSans-61" transform="translate(126.855469 0)"/>
     <use xlink:href="#DejaVuSans-69" transform="translate(188.134766 0)"/>
     <use xlink:href="#DejaVuSans-20" transform="translate(215.917969 0)"/>
     <use xlink:href="#DejaVuSans-47" transform="translate(247.705078 0)"/>
     <use xlink:href="#DejaVuSans-69" transform="translate(325.195312 0)"/>
     <use xlink:href="#DejaVuSans-6c" transform="translate(352.978516 0)"/>
     <use xlink:href="#DejaVuSans-67" transform="translate(380.761719 0)"/>
     <use xlink:href="#DejaVuSans-65" transform="translate(444.238281 0)"/>
     <use xlink:href="#DejaVuSans-6f" transform="translate(505.761719 0)"/>
     <use xlink:href="#DejaVuSans-75" transform="translate(566.943359 0)"/>
     <use xlink:href="#DejaVuSans-73" transform="translate(630.322266 0)"/>
     <use xlink:href="#DejaVuSans-2d" transform="translate(682.421875 0)"/>
     <use xlink:href="#DejaVuSans-41" transform="translate(716.255859 0)"/>
     <use xlink:href="#DejaVuSans-6c" transform="translate(784.664062 0)"/>
     <use xlink:href="#DejaVuSans-65" transform="translate(812.447266 0)"/>
     <use xlink:href="#DejaVuSans-78" transform="translate(872.220703 0)"/>
     <use xlink:href="#DejaVuSans-61" transform="translate(931.400391 0)"/>
     <use xlink:href="#DejaVuSans-6e" transform="translate(992.679688 0)"/>
     <use xlink:href="#DejaVuSans-64" transform="translate(1056.058594 0)"/>
     <use xlink:href="#DejaVuSans-65" transform="translate(1119.535156 0)"/>
     <use xlink:href="#DejaVuSans-72" transform="translate(1181.058594 0)"/>
     <use xlink:href="#DejaVuSans-20" transform="translate(1222.171875 0)"/>
     <use xlink:href="#DejaVuSans-53" transform="translate(1253.958984 0)"/>
     <use xlink:href="#DejaVuSans-63" transform="translate(1317.435547 0)"/>
     <use xlink:href="#DejaVuSans-6f" transform="translate(1372.416016 0)"/>
     <use xlink:href="#DejaVuSans-72" transform="translate(1433.597656 0)"/>
     <use xlink:href="#DejaVuSans-69" transform="translate(1474.710938 0)"/>
     <use xlink:href="#DejaVuSans-6e" transform="translate(1502.494141 0)"/>
     <use xlink:href="#DejaVuSans-67" transform="translate(1565.873047 0)"/>
     <use xlink:href="#DejaVuSans-20" transform="translate(1629.349609 0)"/>
     <use xlink:href="#DejaVuSans-54" transform="translate(1661.136719 0)"/>
     <use xlink:href="#DejaVuSans-69" transform="translate(1719.095703 0)"/>
     <use xlink:href="#DejaVuSans-6d" transform="translate(1746.878906 0)"/>
     <use xlink:href="#DejaVuSans-65" transform="translate(1844.291016 0)"/>
     <use xlink:href="#DejaVuSans-6c" transform="translate(1905.814453 0)"/>
     <use xlink:href="#DejaVuSans-69" transform="translate(1933.597656 0)"/>
     <use xlink:href="#DejaVuSans-6e" transform="translate(1961.380859 0)"/>
     <use xlink:href="#DejaVuSans-65" transform="translate(2024.759766 0)"/>
     <use xlink:href="#DejaVuSans-20" transform="translate(2086.283203 0)"/>
     <use xlink:href="#DejaVuSans-28" transform="translate(2118.070312 0)"/>
     <use xlink:href="#DejaVuSans-32" transform="translate(2157.083984 0)"/>
     <use xlink:href="#DejaVuSans-30" transform="translate(2220.707031 0)"/>
     <use xlink:href="#DejaVuSans-32" transform="translate(2284.330078 0)"/>
     <use xlink:href="#DejaVuSans-34" transform="translate(2347.953125 0)"/>
     <use xlink:href="#DejaVuSans-2d" transform="translate(2411.576172 0)"/>
     <use xlink:href="#DejaVuSans-32" transform="translate(2447.660156 0)"/>
     <use xlink:href="#DejaVuSans-35" transform="translate(2511.283203 0)"/>
     <use xlink:href="#DejaVuSans-29" transform="translate(2574.90625 0)"/>
    </g>
   </g>
   <g id="legend_1">
    <g id="patch_151">
     <path d="M 793.33125 93.5925 
L 846.2 93.5925 
Q 848.2 93.5925 848.2 91.5925 
L 848.2 33.88 
Q 848.2 31.88 846.2 31.88 
L 793.33125 31.88 
Q 791.33125 31.88 791.33125 33.88 
L 791.33125 91.5925 
Q 791.33125 93.5925 793.33125 93.5925 
z
" style="fill: #ffffff; opacity: 0.8; stroke: #cccccc; stroke-linejoin: miter"/>
    </g>
    <g id="text_22">
     <!-- Shot Type -->
     <g transform="translate(795.33125 43.478437) scale(0.1 -0.1)">
      <defs>
       <path id="DejaVuSans-79" d="M 2059 -325 
Q 1816 -950 1584 -1140 
Q 1353 -1331 966 -1331 
L 506 -1331 
L 506 -850 
L 844 -850 
Q 1081 -850 1212 -737 
Q 1344 -625 1503 -206 
L 1606 56 
L 191 3500 
L 800 3500 
L 1894 763 
L 2988 3500 
L 3597 3500 
L 2059 -325 
z
" transform="scale(0.015625)"/>
       <path id="DejaVuSans-70" d="M 1159 525 
L 1159 -1331 
L 581 -1331 
L 581 3500 
L 1159 3500 
L 1159 2969 
Q 1341 3281 1617 3432 
Q 1894 3584 2278 3584 
Q 2916 3584 3314 3078 
Q 3713 2572 3713 1747 
Q 3713 922 3314 415 
Q 2916 -91 2278 -91 
Q 1894 -91 1617 61 
Q 1341 213 1159 525 
z
M 3116 1747 
Q 3116 2381 2855 2742 
Q 2594 3103 2138 3103 
Q 1681 3103 1420 2742 
Q 1159 2381 1159 1747 
Q 1159 1113 1420 752 
Q 1681 391 2138 391 
Q 2594 391 2855 752 
Q 3116 1113 3116 1747 
z
" transform="scale(0.015625)"/>
      </defs>
      <use xlink:href="#DejaVuSans-53"/>
      <use xlink:href="#DejaVuSans-68" transform="translate(63.476562 0)"/>
      <use xlink:href="#DejaVuSans-6f" transform="translate(126.855469 0)"/>
      <use xlink:href="#DejaVuSans-74" transform="translate(188.037109 0)"/>
      <use xlink:href="#DejaVuSans-20" transform="translate(227.246094 0)"/>
      <use xlink:href="#DejaVuSans-54" transform="translate(259.033203 0)"/>
      <use xlink:href="#DejaVuSans-79" transform="translate(304.492188 0)"/>
      <use xlink:href="#DejaVuSans-70" transform="translate(363.671875 0)"/>
      <use xlink:href="#DejaVuSans-65" transform="translate(427.148438 0)"/>
     </g>
    </g>
    <g id="patch_152">
     <path d="M 796.515625 58.156563 
L 816.515625 58.156563 
L 816.515625 51.156563 
L 796.515625 51.156563 
z
" style="fill: #ffc107"/>
    </g>
    <g id="text_23">
     <!-- FT -->
     <g transform="translate(824.515625 58.156563) scale(0.1 -0.1)">
      <defs>
       <path id="DejaVuSans-46" d="M 628 4666 
L 3309 4666 
L 3309 4134 
L 1259 4134 
L 1259 2759 
L 3109 2759 
L 3109 2228 
L 1259 2228 
L 1259 0 
L 628 0 
L 628 4666 
z
" transform="scale(0.015625)"/>
      </defs>
      <use xlink:href="#DejaVuSans-46"/>
      <use xlink:href="#DejaVuSans-54" transform="translate(55.769531 0)"/>
     </g>
    </g>
    <g id="patch_153">
     <path d="M 796.515625 72.834688 
L 816.515625 72.834688 
L 816.515625 65.834688 
L 796.515625 65.834688 
z
" style="fill: #2196f3"/>
    </g>
    <g id="text_24">
     <!-- 2PT -->
     <g transform="translate(824.515625 72.834688) scale(0.1 -0.1)">
      <use xlink:href="#DejaVuSans-32"/>
      <use xlink:href="#DejaVuSans-50" transform="translate(63.623047 0)"/>
      <use xlink:href="#DejaVuSans-54" transform="translate(123.925781 0)"/>
     </g>
    </g>
    <g id="patch_154">
     <path d="M 796.515625 87.512812 
L 816.515625 87.512812 
L 816.515625 80.512812 
L 796.515625 80.512812 
z
" style="fill: #4caf50"/>
    </g>
    <g id="text_25">
     <!-- 3PT -->
     <g transform="translate(824.515625 87.512812) scale(0.1 -0.1)">
      <use xlink:href="#DejaVuSans-33"/>
      <use xlink:href="#DejaVuSans-50" transform="translate(63.623047 0)"/>
      <use xlink:href="#DejaVuSans-54" transform="translate(123.925781 0)"/>
     </g>
    </g>
   </g>
  </g>
 </g>
 <defs>
  <clipPath id="p9fbdb47d10">
   <rect x="50.87" y="26.88" width="802.33" height="429.075539"/>
  </clipPath>
 </defs>
</svg>
