<?xml version="1.0" encoding="utf-8" standalone="no"?>
<!DOCTYPE svg PUBLIC "-//W3C//DTD SVG 1.1//EN"
  "http://www.w3.org/Graphics/SVG/1.1/DTD/svg11.dtd">
<svg xmlns:xlink="http://www.w3.org/1999/xlink" width="864pt" height="504pt" viewBox="0 0 864 504" xmlns="http://www.w3.org/2000/svg" version="1.1">
 <metadata>
  <rdf:RDF xmlns:dc="http://purl.org/dc/elements/1.1/" xmlns:cc="http://creativecommons.org/ns#" xmlns:rdf="http://www.w3.org/1999/02/22-rdf-syntax-ns#">
   <cc:Work>
    <dc:type rdf:resource="http://purl.org/dc/dcmitype/StillImage"/>
    <dc:date>2025-08-24T03:40:56.899533</dc:date>
    <dc:format>image/svg+xml</dc:format>
    <dc:creator>
     <cc:Agent>
      <dc:title>Matplotlib v3.10.5, https://matplotlib.org/</dc:title>
     </cc:Agent>
    </dc:creator>
   </cc:Work>
  </rdf:RDF>
 </metadata>
 <defs>
  <style type="text/css">*{stroke-linejoin: round; stroke-linecap: butt}</style>
 </defs>
 <g id="figure_1">
  <g id="patch_1">
   <path d="M 0 504 
L 864 504 
L 864 0 
L 0 0 
z
" style="fill: #ffffff"/>
  </g>
  <g id="axes_1">
   <g id="patch_2">
    <path d="M 44.57 455.955539 
L 853.2 455.955539 
L 853.2 26.88 
L 44.57 26.88 
z
" style="fill: #ffffff"/>
   </g>
   <g id="patch_3">
    <path d="M 48.755455 455.955539 
L 62.148913 455.955539 
L 62.148913 434.818813 
L 48.755455 434.818813 
z
" clip-path="url(#p81b4fef9e7)" style="fill: #ffc107"/>
   </g>
   <g id="patch_4">
    <path d="M 65.497277 455.955539 
L 78.890735 455.955539 
L 78.890735 420.727662 
L 65.497277 420.727662 
z
" clip-path="url(#p81b4fef9e7)" style="fill: #ffc107"/>
   </g>
   <g id="patch_5">
    <path d="M 82.239099 455.955539 
L 95.632557 455.955539 
L 95.632557 455.955539 
L 82.239099 455.955539 
z
" clip-path="url(#p81b4fef9e7)" style="fill: #ffc107"/>
   </g>
   <g id="patch_6">
    <path d="M 98.980921 455.955539 
L 112.374379 455.955539 
L 112.374379 441.864388 
L 98.980921 441.864388 
z
" clip-path="url(#p81b4fef9e7)" style="fill: #ffc107"/>
   </g>
   <g id="patch_7">
    <path d="M 115.722743 455.955539 
L 129.116201 455.955539 
L 129.116201 448.909964 
L 115.722743 448.909964 
z
" clip-path="url(#p81b4fef9e7)" style="fill: #ffc107"/>
   </g>
   <g id="patch_8">
    <path d="M 132.464565 455.955539 
L 145.858023 455.955539 
L 145.858023 434.818813 
L 132.464565 434.818813 
z
" clip-path="url(#p81b4fef9e7)" style="fill: #ffc107"/>
   </g>
   <g id="patch_9">
    <path d="M 149.206387 455.955539 
L 162.599845 455.955539 
L 162.599845 441.864388 
L 149.206387 441.864388 
z
" clip-path="url(#p81b4fef9e7)" style="fill: #ffc107"/>
   </g>
   <g id="patch_10">
    <path d="M 165.948209 455.955539 
L 179.341667 455.955539 
L 179.341667 455.955539 
L 165.948209 455.955539 
z
" clip-path="url(#p81b4fef9e7)" style="fill: #ffc107"/>
   </g>
   <g id="patch_11">
    <path d="M 182.690031 455.955539 
L 196.083489 455.955539 
L 196.083489 427.773238 
L 182.690031 427.773238 
z
" clip-path="url(#p81b4fef9e7)" style="fill: #ffc107"/>
   </g>
   <g id="patch_12">
    <path d="M 199.431853 455.955539 
L 212.825311 455.955539 
L 212.825311 420.727662 
L 199.431853 420.727662 
z
" clip-path="url(#p81b4fef9e7)" style="fill: #ffc107"/>
   </g>
   <g id="patch_13">
    <path d="M 216.173675 455.955539 
L 229.567133 455.955539 
L 229.567133 455.955539 
L 216.173675 455.955539 
z
" clip-path="url(#p81b4fef9e7)" style="fill: #ffc107"/>
   </g>
   <g id="patch_14">
    <path d="M 232.915497 455.955539 
L 246.308954 455.955539 
L 246.308954 427.773238 
L 232.915497 427.773238 
z
" clip-path="url(#p81b4fef9e7)" style="fill: #ffc107"/>
   </g>
   <g id="patch_15">
    <path d="M 249.657319 455.955539 
L 263.050776 455.955539 
L 263.050776 441.864388 
L 249.657319 441.864388 
z
" clip-path="url(#p81b4fef9e7)" style="fill: #ffc107"/>
   </g>
   <g id="patch_16">
    <path d="M 266.399141 455.955539 
L 279.792598 455.955539 
L 279.792598 455.955539 
L 266.399141 455.955539 
z
" clip-path="url(#p81b4fef9e7)" style="fill: #ffc107"/>
   </g>
   <g id="patch_17">
    <path d="M 283.140963 455.955539 
L 296.53442 455.955539 
L 296.53442 455.955539 
L 283.140963 455.955539 
z
" clip-path="url(#p81b4fef9e7)" style="fill: #ffc107"/>
   </g>
   <g id="patch_18">
    <path d="M 299.882785 455.955539 
L 313.276242 455.955539 
L 313.276242 455.955539 
L 299.882785 455.955539 
z
" clip-path="url(#p81b4fef9e7)" style="fill: #ffc107"/>
   </g>
   <g id="patch_19">
    <path d="M 316.624607 455.955539 
L 330.018064 455.955539 
L 330.018064 427.773238 
L 316.624607 427.773238 
z
" clip-path="url(#p81b4fef9e7)" style="fill: #ffc107"/>
   </g>
   <g id="patch_20">
    <path d="M 333.366429 455.955539 
L 346.759886 455.955539 
L 346.759886 420.727662 
L 333.366429 420.727662 
z
" clip-path="url(#p81b4fef9e7)" style="fill: #ffc107"/>
   </g>
   <g id="patch_21">
    <path d="M 350.108251 455.955539 
L 363.501708 455.955539 
L 363.501708 455.955539 
L 350.108251 455.955539 
z
" clip-path="url(#p81b4fef9e7)" style="fill: #ffc107"/>
   </g>
   <g id="patch_22">
    <path d="M 366.850072 455.955539 
L 380.24353 455.955539 
L 380.24353 427.773238 
L 366.850072 427.773238 
z
" clip-path="url(#p81b4fef9e7)" style="fill: #ffc107"/>
   </g>
   <g id="patch_23">
    <path d="M 383.591894 455.955539 
L 396.985352 455.955539 
L 396.985352 427.773238 
L 383.591894 427.773238 
z
" clip-path="url(#p81b4fef9e7)" style="fill: #ffc107"/>
   </g>
   <g id="patch_24">
    <path d="M 400.333716 455.955539 
L 413.727174 455.955539 
L 413.727174 420.727662 
L 400.333716 420.727662 
z
" clip-path="url(#p81b4fef9e7)" style="fill: #ffc107"/>
   </g>
   <g id="patch_25">
    <path d="M 417.075538 455.955539 
L 430.468996 455.955539 
L 430.468996 399.590936 
L 417.075538 399.590936 
z
" clip-path="url(#p81b4fef9e7)" style="fill: #ffc107"/>
   </g>
   <g id="patch_26">
    <path d="M 433.81736 455.955539 
L 447.210818 455.955539 
L 447.210818 406.636512 
L 433.81736 406.636512 
z
" clip-path="url(#p81b4fef9e7)" style="fill: #ffc107"/>
   </g>
   <g id="patch_27">
    <path d="M 450.559182 455.955539 
L 463.95264 455.955539 
L 463.95264 441.864388 
L 450.559182 441.864388 
z
" clip-path="url(#p81b4fef9e7)" style="fill: #ffc107"/>
   </g>
   <g id="patch_28">
    <path d="M 467.301004 455.955539 
L 480.694462 455.955539 
L 480.694462 413.682087 
L 467.301004 413.682087 
z
" clip-path="url(#p81b4fef9e7)" style="fill: #ffc107"/>
   </g>
   <g id="patch_29">
    <path d="M 484.042826 455.955539 
L 497.436284 455.955539 
L 497.436284 385.499785 
L 484.042826 385.499785 
z
" clip-path="url(#p81b4fef9e7)" style="fill: #ffc107"/>
   </g>
   <g id="patch_30">
    <path d="M 500.784648 455.955539 
L 514.178106 455.955539 
L 514.178106 406.636512 
L 500.784648 406.636512 
z
" clip-path="url(#p81b4fef9e7)" style="fill: #ffc107"/>
   </g>
   <g id="patch_31">
    <path d="M 517.52647 455.955539 
L 530.919928 455.955539 
L 530.919928 378.45421 
L 517.52647 378.45421 
z
" clip-path="url(#p81b4fef9e7)" style="fill: #ffc107"/>
   </g>
   <g id="patch_32">
    <path d="M 534.268292 455.955539 
L 547.661749 455.955539 
L 547.661749 455.955539 
L 534.268292 455.955539 
z
" clip-path="url(#p81b4fef9e7)" style="fill: #ffc107"/>
   </g>
   <g id="patch_33">
    <path d="M 551.010114 455.955539 
L 564.403571 455.955539 
L 564.403571 413.682087 
L 551.010114 413.682087 
z
" clip-path="url(#p81b4fef9e7)" style="fill: #ffc107"/>
   </g>
   <g id="patch_34">
    <path d="M 567.751936 455.955539 
L 581.145393 455.955539 
L 581.145393 420.727662 
L 567.751936 420.727662 
z
" clip-path="url(#p81b4fef9e7)" style="fill: #ffc107"/>
   </g>
   <g id="patch_35">
    <path d="M 584.493758 455.955539 
L 597.887215 455.955539 
L 597.887215 399.590936 
L 584.493758 399.590936 
z
" clip-path="url(#p81b4fef9e7)" style="fill: #ffc107"/>
   </g>
   <g id="patch_36">
    <path d="M 601.23558 455.955539 
L 614.629037 455.955539 
L 614.629037 441.864388 
L 601.23558 441.864388 
z
" clip-path="url(#p81b4fef9e7)" style="fill: #ffc107"/>
   </g>
   <g id="patch_37">
    <path d="M 617.977402 455.955539 
L 631.370859 455.955539 
L 631.370859 399.590936 
L 617.977402 399.590936 
z
" clip-path="url(#p81b4fef9e7)" style="fill: #ffc107"/>
   </g>
   <g id="patch_38">
    <path d="M 634.719224 455.955539 
L 648.112681 455.955539 
L 648.112681 441.864388 
L 634.719224 441.864388 
z
" clip-path="url(#p81b4fef9e7)" style="fill: #ffc107"/>
   </g>
   <g id="patch_39">
    <path d="M 651.461046 455.955539 
L 664.854503 455.955539 
L 664.854503 448.909964 
L 651.461046 448.909964 
z
" clip-path="url(#p81b4fef9e7)" style="fill: #ffc107"/>
   </g>
   <g id="patch_40">
    <path d="M 668.202867 455.955539 
L 681.596325 455.955539 
L 681.596325 434.818813 
L 668.202867 434.818813 
z
" clip-path="url(#p81b4fef9e7)" style="fill: #ffc107"/>
   </g>
   <g id="patch_41">
    <path d="M 684.944689 455.955539 
L 698.338147 455.955539 
L 698.338147 420.727662 
L 684.944689 420.727662 
z
" clip-path="url(#p81b4fef9e7)" style="fill: #ffc107"/>
   </g>
   <g id="patch_42">
    <path d="M 701.686511 455.955539 
L 715.079969 455.955539 
L 715.079969 427.773238 
L 701.686511 427.773238 
z
" clip-path="url(#p81b4fef9e7)" style="fill: #ffc107"/>
   </g>
   <g id="patch_43">
    <path d="M 718.428333 455.955539 
L 731.821791 455.955539 
L 731.821791 441.864388 
L 718.428333 441.864388 
z
" clip-path="url(#p81b4fef9e7)" style="fill: #ffc107"/>
   </g>
   <g id="patch_44">
    <path d="M 735.170155 455.955539 
L 748.563613 455.955539 
L 748.563613 413.682087 
L 735.170155 413.682087 
z
" clip-path="url(#p81b4fef9e7)" style="fill: #ffc107"/>
   </g>
   <g id="patch_45">
    <path d="M 751.911977 455.955539 
L 765.305435 455.955539 
L 765.305435 455.955539 
L 751.911977 455.955539 
z
" clip-path="url(#p81b4fef9e7)" style="fill: #ffc107"/>
   </g>
   <g id="patch_46">
    <path d="M 768.653799 455.955539 
L 782.047257 455.955539 
L 782.047257 378.45421 
L 768.653799 378.45421 
z
" clip-path="url(#p81b4fef9e7)" style="fill: #ffc107"/>
   </g>
   <g id="patch_47">
    <path d="M 785.395621 455.955539 
L 798.789079 455.955539 
L 798.789079 406.636512 
L 785.395621 406.636512 
z
" clip-path="url(#p81b4fef9e7)" style="fill: #ffc107"/>
   </g>
   <g id="patch_48">
    <path d="M 802.137443 455.955539 
L 815.530901 455.955539 
L 815.530901 427.773238 
L 802.137443 427.773238 
z
" clip-path="url(#p81b4fef9e7)" style="fill: #ffc107"/>
   </g>
   <g id="patch_49">
    <path d="M 818.879265 455.955539 
L 832.272723 455.955539 
L 832.272723 420.727662 
L 818.879265 420.727662 
z
" clip-path="url(#p81b4fef9e7)" style="fill: #ffc107"/>
   </g>
   <g id="patch_50">
    <path d="M 835.621087 455.955539 
L 849.014545 455.955539 
L 849.014545 350.271909 
L 835.621087 350.271909 
z
" clip-path="url(#p81b4fef9e7)" style="fill: #ffc107"/>
   </g>
   <g id="patch_51">
    <path d="M 48.755455 434.818813 
L 62.148913 434.818813 
L 62.148913 237.542703 
L 48.755455 237.542703 
z
" clip-path="url(#p81b4fef9e7)" style="fill: #2196f3"/>
   </g>
   <g id="patch_52">
    <path d="M 65.497277 420.727662 
L 78.890735 420.727662 
L 78.890735 237.542703 
L 65.497277 237.542703 
z
" clip-path="url(#p81b4fef9e7)" style="fill: #2196f3"/>
   </g>
   <g id="patch_53">
    <path d="M 82.239099 455.955539 
L 95.632557 455.955539 
L 95.632557 385.499785 
L 82.239099 385.499785 
z
" clip-path="url(#p81b4fef9e7)" style="fill: #2196f3"/>
   </g>
   <g id="patch_54">
    <path d="M 98.980921 441.864388 
L 112.374379 441.864388 
L 112.374379 357.317484 
L 98.980921 357.317484 
z
" clip-path="url(#p81b4fef9e7)" style="fill: #2196f3"/>
   </g>
   <g id="patch_55">
    <path d="M 115.722743 448.909964 
L 129.116201 448.909964 
L 129.116201 378.45421 
L 115.722743 378.45421 
z
" clip-path="url(#p81b4fef9e7)" style="fill: #2196f3"/>
   </g>
   <g id="patch_56">
    <path d="M 132.464565 434.818813 
L 145.858023 434.818813 
L 145.858023 307.998457 
L 132.464565 307.998457 
z
" clip-path="url(#p81b4fef9e7)" style="fill: #2196f3"/>
   </g>
   <g id="patch_57">
    <path d="M 149.206387 441.864388 
L 162.599845 441.864388 
L 162.599845 343.226333 
L 149.206387 343.226333 
z
" clip-path="url(#p81b4fef9e7)" style="fill: #2196f3"/>
   </g>
   <g id="patch_58">
    <path d="M 165.948209 455.955539 
L 179.341667 455.955539 
L 179.341667 371.408635 
L 165.948209 371.408635 
z
" clip-path="url(#p81b4fef9e7)" style="fill: #2196f3"/>
   </g>
   <g id="patch_59">
    <path d="M 182.690031 427.773238 
L 196.083489 427.773238 
L 196.083489 315.044032 
L 182.690031 315.044032 
z
" clip-path="url(#p81b4fef9e7)" style="fill: #2196f3"/>
   </g>
   <g id="patch_60">
    <path d="M 199.431853 420.727662 
L 212.825311 420.727662 
L 212.825311 336.180758 
L 199.431853 336.180758 
z
" clip-path="url(#p81b4fef9e7)" style="fill: #2196f3"/>
   </g>
   <g id="patch_61">
    <path d="M 216.173675 455.955539 
L 229.567133 455.955539 
L 229.567133 427.773238 
L 216.173675 427.773238 
z
" clip-path="url(#p81b4fef9e7)" style="fill: #2196f3"/>
   </g>
   <g id="patch_62">
    <path d="M 232.915497 427.773238 
L 246.308954 427.773238 
L 246.308954 385.499785 
L 232.915497 385.499785 
z
" clip-path="url(#p81b4fef9e7)" style="fill: #2196f3"/>
   </g>
   <g id="patch_63">
    <path d="M 249.657319 441.864388 
L 263.050776 441.864388 
L 263.050776 399.590936 
L 249.657319 399.590936 
z
" clip-path="url(#p81b4fef9e7)" style="fill: #2196f3"/>
   </g>
   <g id="patch_64">
    <path d="M 266.399141 455.955539 
L 279.792598 455.955539 
L 279.792598 385.499785 
L 266.399141 385.499785 
z
" clip-path="url(#p81b4fef9e7)" style="fill: #2196f3"/>
   </g>
   <g id="patch_65">
    <path d="M 283.140963 455.955539 
L 296.53442 455.955539 
L 296.53442 399.590936 
L 283.140963 399.590936 
z
" clip-path="url(#p81b4fef9e7)" style="fill: #2196f3"/>
   </g>
   <g id="patch_66">
    <path d="M 299.882785 455.955539 
L 313.276242 455.955539 
L 313.276242 357.317484 
L 299.882785 357.317484 
z
" clip-path="url(#p81b4fef9e7)" style="fill: #2196f3"/>
   </g>
   <g id="patch_67">
    <path d="M 316.624607 427.773238 
L 330.018064 427.773238 
L 330.018064 357.317484 
L 316.624607 357.317484 
z
" clip-path="url(#p81b4fef9e7)" style="fill: #2196f3"/>
   </g>
   <g id="patch_68">
    <path d="M 333.366429 420.727662 
L 346.759886 420.727662 
L 346.759886 378.45421 
L 333.366429 378.45421 
z
" clip-path="url(#p81b4fef9e7)" style="fill: #2196f3"/>
   </g>
   <g id="patch_69">
    <path d="M 350.108251 455.955539 
L 363.501708 455.955539 
L 363.501708 357.317484 
L 350.108251 357.317484 
z
" clip-path="url(#p81b4fef9e7)" style="fill: #2196f3"/>
   </g>
   <g id="patch_70">
    <path d="M 366.850072 427.773238 
L 380.24353 427.773238 
L 380.24353 357.317484 
L 366.850072 357.317484 
z
" clip-path="url(#p81b4fef9e7)" style="fill: #2196f3"/>
   </g>
   <g id="patch_71">
    <path d="M 383.591894 427.773238 
L 396.985352 427.773238 
L 396.985352 286.861731 
L 383.591894 286.861731 
z
" clip-path="url(#p81b4fef9e7)" style="fill: #2196f3"/>
   </g>
   <g id="patch_72">
    <path d="M 400.333716 420.727662 
L 413.727174 420.727662 
L 413.727174 307.998457 
L 400.333716 307.998457 
z
" clip-path="url(#p81b4fef9e7)" style="fill: #2196f3"/>
   </g>
   <g id="patch_73">
    <path d="M 417.075538 399.590936 
L 430.468996 399.590936 
L 430.468996 300.952881 
L 417.075538 300.952881 
z
" clip-path="url(#p81b4fef9e7)" style="fill: #2196f3"/>
   </g>
   <g id="patch_74">
    <path d="M 433.81736 406.636512 
L 447.210818 406.636512 
L 447.210818 307.998457 
L 433.81736 307.998457 
z
" clip-path="url(#p81b4fef9e7)" style="fill: #2196f3"/>
   </g>
   <g id="patch_75">
    <path d="M 450.559182 441.864388 
L 463.95264 441.864388 
L 463.95264 286.861731 
L 450.559182 286.861731 
z
" clip-path="url(#p81b4fef9e7)" style="fill: #2196f3"/>
   </g>
   <g id="patch_76">
    <path d="M 467.301004 413.682087 
L 480.694462 413.682087 
L 480.694462 300.952881 
L 467.301004 300.952881 
z
" clip-path="url(#p81b4fef9e7)" style="fill: #2196f3"/>
   </g>
   <g id="patch_77">
    <path d="M 484.042826 385.499785 
L 497.436284 385.499785 
L 497.436284 300.952881 
L 484.042826 300.952881 
z
" clip-path="url(#p81b4fef9e7)" style="fill: #2196f3"/>
   </g>
   <g id="patch_78">
    <path d="M 500.784648 406.636512 
L 514.178106 406.636512 
L 514.178106 279.816155 
L 500.784648 279.816155 
z
" clip-path="url(#p81b4fef9e7)" style="fill: #2196f3"/>
   </g>
   <g id="patch_79">
    <path d="M 517.52647 378.45421 
L 530.919928 378.45421 
L 530.919928 167.08695 
L 517.52647 167.08695 
z
" clip-path="url(#p81b4fef9e7)" style="fill: #2196f3"/>
   </g>
   <g id="patch_80">
    <path d="M 534.268292 455.955539 
L 547.661749 455.955539 
L 547.661749 258.679429 
L 534.268292 258.679429 
z
" clip-path="url(#p81b4fef9e7)" style="fill: #2196f3"/>
   </g>
   <g id="patch_81">
    <path d="M 551.010114 413.682087 
L 564.403571 413.682087 
L 564.403571 329.135183 
L 551.010114 329.135183 
z
" clip-path="url(#p81b4fef9e7)" style="fill: #2196f3"/>
   </g>
   <g id="patch_82">
    <path d="M 567.751936 420.727662 
L 581.145393 420.727662 
L 581.145393 307.998457 
L 567.751936 307.998457 
z
" clip-path="url(#p81b4fef9e7)" style="fill: #2196f3"/>
   </g>
   <g id="patch_83">
    <path d="M 584.493758 399.590936 
L 597.887215 399.590936 
L 597.887215 300.952881 
L 584.493758 300.952881 
z
" clip-path="url(#p81b4fef9e7)" style="fill: #2196f3"/>
   </g>
   <g id="patch_84">
    <path d="M 601.23558 441.864388 
L 614.629037 441.864388 
L 614.629037 399.590936 
L 601.23558 399.590936 
z
" clip-path="url(#p81b4fef9e7)" style="fill: #2196f3"/>
   </g>
   <g id="patch_85">
    <path d="M 617.977402 399.590936 
L 631.370859 399.590936 
L 631.370859 300.952881 
L 617.977402 300.952881 
z
" clip-path="url(#p81b4fef9e7)" style="fill: #2196f3"/>
   </g>
   <g id="patch_86">
    <path d="M 634.719224 441.864388 
L 648.112681 441.864388 
L 648.112681 329.135183 
L 634.719224 329.135183 
z
" clip-path="url(#p81b4fef9e7)" style="fill: #2196f3"/>
   </g>
   <g id="patch_87">
    <path d="M 651.461046 448.909964 
L 664.854503 448.909964 
L 664.854503 406.636512 
L 651.461046 406.636512 
z
" clip-path="url(#p81b4fef9e7)" style="fill: #2196f3"/>
   </g>
   <g id="patch_88">
    <path d="M 668.202867 434.818813 
L 681.596325 434.818813 
L 681.596325 378.45421 
L 668.202867 378.45421 
z
" clip-path="url(#p81b4fef9e7)" style="fill: #2196f3"/>
   </g>
   <g id="patch_89">
    <path d="M 684.944689 420.727662 
L 698.338147 420.727662 
L 698.338147 364.363059 
L 684.944689 364.363059 
z
" clip-path="url(#p81b4fef9e7)" style="fill: #2196f3"/>
   </g>
   <g id="patch_90">
    <path d="M 701.686511 427.773238 
L 715.079969 427.773238 
L 715.079969 399.590936 
L 701.686511 399.590936 
z
" clip-path="url(#p81b4fef9e7)" style="fill: #2196f3"/>
   </g>
   <g id="patch_91">
    <path d="M 718.428333 441.864388 
L 731.821791 441.864388 
L 731.821791 357.317484 
L 718.428333 357.317484 
z
" clip-path="url(#p81b4fef9e7)" style="fill: #2196f3"/>
   </g>
   <g id="patch_92">
    <path d="M 735.170155 413.682087 
L 748.563613 413.682087 
L 748.563613 300.952881 
L 735.170155 300.952881 
z
" clip-path="url(#p81b4fef9e7)" style="fill: #2196f3"/>
   </g>
   <g id="patch_93">
    <path d="M 751.911977 455.955539 
L 765.305435 455.955539 
L 765.305435 399.590936 
L 751.911977 399.590936 
z
" clip-path="url(#p81b4fef9e7)" style="fill: #2196f3"/>
   </g>
   <g id="patch_94">
    <path d="M 768.653799 378.45421 
L 782.047257 378.45421 
L 782.047257 251.633854 
L 768.653799 251.633854 
z
" clip-path="url(#p81b4fef9e7)" style="fill: #2196f3"/>
   </g>
   <g id="patch_95">
    <path d="M 785.395621 406.636512 
L 798.789079 406.636512 
L 798.789079 251.633854 
L 785.395621 251.633854 
z
" clip-path="url(#p81b4fef9e7)" style="fill: #2196f3"/>
   </g>
   <g id="patch_96">
    <path d="M 802.137443 427.773238 
L 815.530901 427.773238 
L 815.530901 272.77058 
L 802.137443 272.77058 
z
" clip-path="url(#p81b4fef9e7)" style="fill: #2196f3"/>
   </g>
   <g id="patch_97">
    <path d="M 818.879265 420.727662 
L 832.272723 420.727662 
L 832.272723 336.180758 
L 818.879265 336.180758 
z
" clip-path="url(#p81b4fef9e7)" style="fill: #2196f3"/>
   </g>
   <g id="patch_98">
    <path d="M 835.621087 350.271909 
L 849.014545 350.271909 
L 849.014545 293.907306 
L 835.621087 293.907306 
z
" clip-path="url(#p81b4fef9e7)" style="fill: #2196f3"/>
   </g>
   <g id="patch_99">
    <path d="M 48.755455 237.542703 
L 62.148913 237.542703 
L 62.148913 47.312169 
L 48.755455 47.312169 
z
" clip-path="url(#p81b4fef9e7)" style="fill: #4caf50"/>
   </g>
   <g id="patch_100">
    <path d="M 65.497277 237.542703 
L 78.890735 237.542703 
L 78.890735 195.269251 
L 65.497277 195.269251 
z
" clip-path="url(#p81b4fef9e7)" style="fill: #4caf50"/>
   </g>
   <g id="patch_101">
    <path d="M 82.239099 385.499785 
L 95.632557 385.499785 
L 95.632557 237.542703 
L 82.239099 237.542703 
z
" clip-path="url(#p81b4fef9e7)" style="fill: #4caf50"/>
   </g>
   <g id="patch_102">
    <path d="M 98.980921 357.317484 
L 112.374379 357.317484 
L 112.374379 188.223676 
L 98.980921 188.223676 
z
" clip-path="url(#p81b4fef9e7)" style="fill: #4caf50"/>
   </g>
   <g id="patch_103">
    <path d="M 115.722743 378.45421 
L 129.116201 378.45421 
L 129.116201 230.497128 
L 115.722743 230.497128 
z
" clip-path="url(#p81b4fef9e7)" style="fill: #4caf50"/>
   </g>
   <g id="patch_104">
    <path d="M 132.464565 307.998457 
L 145.858023 307.998457 
L 145.858023 223.451552 
L 132.464565 223.451552 
z
" clip-path="url(#p81b4fef9e7)" style="fill: #4caf50"/>
   </g>
   <g id="patch_105">
    <path d="M 149.206387 343.226333 
L 162.599845 343.226333 
L 162.599845 300.952881 
L 149.206387 300.952881 
z
" clip-path="url(#p81b4fef9e7)" style="fill: #4caf50"/>
   </g>
   <g id="patch_106">
    <path d="M 165.948209 371.408635 
L 179.341667 371.408635 
L 179.341667 329.135183 
L 165.948209 329.135183 
z
" clip-path="url(#p81b4fef9e7)" style="fill: #4caf50"/>
   </g>
   <g id="patch_107">
    <path d="M 182.690031 315.044032 
L 196.083489 315.044032 
L 196.083489 293.907306 
L 182.690031 293.907306 
z
" clip-path="url(#p81b4fef9e7)" style="fill: #4caf50"/>
   </g>
   <g id="patch_108">
    <path d="M 199.431853 336.180758 
L 212.825311 336.180758 
L 212.825311 251.633854 
L 199.431853 251.633854 
z
" clip-path="url(#p81b4fef9e7)" style="fill: #4caf50"/>
   </g>
   <g id="patch_109">
    <path d="M 216.173675 427.773238 
L 229.567133 427.773238 
L 229.567133 406.636512 
L 216.173675 406.636512 
z
" clip-path="url(#p81b4fef9e7)" style="fill: #4caf50"/>
   </g>
   <g id="patch_110">
    <path d="M 232.915497 385.499785 
L 246.308954 385.499785 
L 246.308954 343.226333 
L 232.915497 343.226333 
z
" clip-path="url(#p81b4fef9e7)" style="fill: #4caf50"/>
   </g>
   <g id="patch_111">
    <path d="M 249.657319 455.955539 
L 263.050776 455.955539 
L 263.050776 455.955539 
L 249.657319 455.955539 
z
" clip-path="url(#p81b4fef9e7)" style="fill: #4caf50"/>
   </g>
   <g id="patch_112">
    <path d="M 266.399141 455.955539 
L 279.792598 455.955539 
L 279.792598 455.955539 
L 266.399141 455.955539 
z
" clip-path="url(#p81b4fef9e7)" style="fill: #4caf50"/>
   </g>
   <g id="patch_113">
    <path d="M 283.140963 399.590936 
L 296.53442 399.590936 
L 296.53442 315.044032 
L 283.140963 315.044032 
z
" clip-path="url(#p81b4fef9e7)" style="fill: #4caf50"/>
   </g>
   <g id="patch_114">
    <path d="M 299.882785 357.317484 
L 313.276242 357.317484 
L 313.276242 336.180758 
L 299.882785 336.180758 
z
" clip-path="url(#p81b4fef9e7)" style="fill: #4caf50"/>
   </g>
   <g id="patch_115">
    <path d="M 316.624607 357.317484 
L 330.018064 357.317484 
L 330.018064 293.907306 
L 316.624607 293.907306 
z
" clip-path="url(#p81b4fef9e7)" style="fill: #4caf50"/>
   </g>
   <g id="patch_116">
    <path d="M 333.366429 378.45421 
L 346.759886 378.45421 
L 346.759886 336.180758 
L 333.366429 336.180758 
z
" clip-path="url(#p81b4fef9e7)" style="fill: #4caf50"/>
   </g>
   <g id="patch_117">
    <path d="M 350.108251 357.317484 
L 363.501708 357.317484 
L 363.501708 336.180758 
L 350.108251 336.180758 
z
" clip-path="url(#p81b4fef9e7)" style="fill: #4caf50"/>
   </g>
   <g id="patch_118">
    <path d="M 366.850072 357.317484 
L 380.24353 357.317484 
L 380.24353 336.180758 
L 366.850072 336.180758 
z
" clip-path="url(#p81b4fef9e7)" style="fill: #4caf50"/>
   </g>
   <g id="patch_119">
    <path d="M 383.591894 286.861731 
L 396.985352 286.861731 
L 396.985352 223.451552 
L 383.591894 223.451552 
z
" clip-path="url(#p81b4fef9e7)" style="fill: #4caf50"/>
   </g>
   <g id="patch_120">
    <path d="M 400.333716 307.998457 
L 413.727174 307.998457 
L 413.727174 160.041374 
L 400.333716 160.041374 
z
" clip-path="url(#p81b4fef9e7)" style="fill: #4caf50"/>
   </g>
   <g id="patch_121">
    <path d="M 417.075538 300.952881 
L 430.468996 300.952881 
L 430.468996 110.722347 
L 417.075538 110.722347 
z
" clip-path="url(#p81b4fef9e7)" style="fill: #4caf50"/>
   </g>
   <g id="patch_122">
    <path d="M 433.81736 307.998457 
L 447.210818 307.998457 
L 447.210818 160.041374 
L 433.81736 160.041374 
z
" clip-path="url(#p81b4fef9e7)" style="fill: #4caf50"/>
   </g>
   <g id="patch_123">
    <path d="M 450.559182 286.861731 
L 463.95264 286.861731 
L 463.95264 223.451552 
L 450.559182 223.451552 
z
" clip-path="url(#p81b4fef9e7)" style="fill: #4caf50"/>
   </g>
   <g id="patch_124">
    <path d="M 467.301004 300.952881 
L 480.694462 300.952881 
L 480.694462 131.859073 
L 467.301004 131.859073 
z
" clip-path="url(#p81b4fef9e7)" style="fill: #4caf50"/>
   </g>
   <g id="patch_125">
    <path d="M 484.042826 300.952881 
L 497.436284 300.952881 
L 497.436284 152.995799 
L 484.042826 152.995799 
z
" clip-path="url(#p81b4fef9e7)" style="fill: #4caf50"/>
   </g>
   <g id="patch_126">
    <path d="M 500.784648 279.816155 
L 514.178106 279.816155 
L 514.178106 174.132525 
L 500.784648 174.132525 
z
" clip-path="url(#p81b4fef9e7)" style="fill: #4caf50"/>
   </g>
   <g id="patch_127">
    <path d="M 517.52647 167.08695 
L 530.919928 167.08695 
L 530.919928 103.676771 
L 517.52647 103.676771 
z
" clip-path="url(#p81b4fef9e7)" style="fill: #4caf50"/>
   </g>
   <g id="patch_128">
    <path d="M 534.268292 258.679429 
L 547.661749 258.679429 
L 547.661749 152.995799 
L 534.268292 152.995799 
z
" clip-path="url(#p81b4fef9e7)" style="fill: #4caf50"/>
   </g>
   <g id="patch_129">
    <path d="M 551.010114 329.135183 
L 564.403571 329.135183 
L 564.403571 181.1781 
L 551.010114 181.1781 
z
" clip-path="url(#p81b4fef9e7)" style="fill: #4caf50"/>
   </g>
   <g id="patch_130">
    <path d="M 567.751936 307.998457 
L 581.145393 307.998457 
L 581.145393 265.725004 
L 567.751936 265.725004 
z
" clip-path="url(#p81b4fef9e7)" style="fill: #4caf50"/>
   </g>
   <g id="patch_131">
    <path d="M 584.493758 300.952881 
L 597.887215 300.952881 
L 597.887215 279.816155 
L 584.493758 279.816155 
z
" clip-path="url(#p81b4fef9e7)" style="fill: #4caf50"/>
   </g>
   <g id="patch_132">
    <path d="M 601.23558 399.590936 
L 614.629037 399.590936 
L 614.629037 336.180758 
L 601.23558 336.180758 
z
" clip-path="url(#p81b4fef9e7)" style="fill: #4caf50"/>
   </g>
   <g id="patch_133">
    <path d="M 617.977402 300.952881 
L 631.370859 300.952881 
L 631.370859 279.816155 
L 617.977402 279.816155 
z
" clip-path="url(#p81b4fef9e7)" style="fill: #4caf50"/>
   </g>
   <g id="patch_134">
    <path d="M 634.719224 329.135183 
L 648.112681 329.135183 
L 648.112681 223.451552 
L 634.719224 223.451552 
z
" clip-path="url(#p81b4fef9e7)" style="fill: #4caf50"/>
   </g>
   <g id="patch_135">
    <path d="M 651.461046 406.636512 
L 664.854503 406.636512 
L 664.854503 364.363059 
L 651.461046 364.363059 
z
" clip-path="url(#p81b4fef9e7)" style="fill: #4caf50"/>
   </g>
   <g id="patch_136">
    <path d="M 668.202867 455.955539 
L 681.596325 455.955539 
L 681.596325 455.955539 
L 668.202867 455.955539 
z
" clip-path="url(#p81b4fef9e7)" style="fill: #4caf50"/>
   </g>
   <g id="patch_137">
    <path d="M 684.944689 364.363059 
L 698.338147 364.363059 
L 698.338147 343.226333 
L 684.944689 343.226333 
z
" clip-path="url(#p81b4fef9e7)" style="fill: #4caf50"/>
   </g>
   <g id="patch_138">
    <path d="M 701.686511 399.590936 
L 715.079969 399.590936 
L 715.079969 357.317484 
L 701.686511 357.317484 
z
" clip-path="url(#p81b4fef9e7)" style="fill: #4caf50"/>
   </g>
   <g id="patch_139">
    <path d="M 718.428333 357.317484 
L 731.821791 357.317484 
L 731.821791 315.044032 
L 718.428333 315.044032 
z
" clip-path="url(#p81b4fef9e7)" style="fill: #4caf50"/>
   </g>
   <g id="patch_140">
    <path d="M 735.170155 300.952881 
L 748.563613 300.952881 
L 748.563613 237.542703 
L 735.170155 237.542703 
z
" clip-path="url(#p81b4fef9e7)" style="fill: #4caf50"/>
   </g>
   <g id="patch_141">
    <path d="M 751.911977 399.590936 
L 765.305435 399.590936 
L 765.305435 251.633854 
L 751.911977 251.633854 
z
" clip-path="url(#p81b4fef9e7)" style="fill: #4caf50"/>
   </g>
   <g id="patch_142">
    <path d="M 768.653799 251.633854 
L 782.047257 251.633854 
L 782.047257 188.223676 
L 768.653799 188.223676 
z
" clip-path="url(#p81b4fef9e7)" style="fill: #4caf50"/>
   </g>
   <g id="patch_143">
    <path d="M 785.395621 251.633854 
L 798.789079 251.633854 
L 798.789079 230.497128 
L 785.395621 230.497128 
z
" clip-path="url(#p81b4fef9e7)" style="fill: #4caf50"/>
   </g>
   <g id="patch_144">
    <path d="M 802.137443 272.77058 
L 815.530901 272.77058 
L 815.530901 209.360402 
L 802.137443 209.360402 
z
" clip-path="url(#p81b4fef9e7)" style="fill: #4caf50"/>
   </g>
   <g id="patch_145">
    <path d="M 818.879265 336.180758 
L 832.272723 336.180758 
L 832.272723 315.044032 
L 818.879265 315.044032 
z
" clip-path="url(#p81b4fef9e7)" style="fill: #4caf50"/>
   </g>
   <g id="patch_146">
    <path d="M 835.621087 293.907306 
L 849.014545 293.907306 
L 849.014545 251.633854 
L 835.621087 251.633854 
z
" clip-path="url(#p81b4fef9e7)" style="fill: #4caf50"/>
   </g>
   <g id="matplotlib.axis_1">
    <g id="xtick_1">
     <g id="line2d_1">
      <defs>
       <path id="m8344b8c7dc" d="M 0 0 
L 0 3.5 
" style="stroke: #000000; stroke-width: 0.8"/>
      </defs>
      <g>
       <use xlink:href="#m8344b8c7dc" x="55.452184" y="455.955539" style="stroke: #000000; stroke-width: 0.8"/>
      </g>
     </g>
     <g id="text_1">
      <!-- 0 -->
      <g transform="translate(55.153874 472.827413) rotate(-45) scale(0.1 -0.1)">
       <defs>
        <path id="DejaVuSans-30" d="M 2034 4250 
Q 1547 4250 1301 3770 
Q 1056 3291 1056 2328 
Q 1056 1369 1301 889 
Q 1547 409 2034 409 
Q 2525 409 2770 889 
Q 3016 1369 3016 2328 
Q 3016 3291 2770 3770 
Q 2525 4250 2034 4250 
z
M 2034 4750 
Q 2819 4750 3233 4129 
Q 3647 3509 3647 2328 
Q 3647 1150 3233 529 
Q 2819 -91 2034 -91 
Q 1250 -91 836 529 
Q 422 1150 422 2328 
Q 422 3509 836 4129 
Q 1250 4750 2034 4750 
z
" transform="scale(0.015625)"/>
       </defs>
       <use xlink:href="#DejaVuSans-30"/>
      </g>
     </g>
    </g>
    <g id="xtick_2">
     <g id="line2d_2">
      <g>
       <use xlink:href="#m8344b8c7dc" x="72.194006" y="455.955539" style="stroke: #000000; stroke-width: 0.8"/>
      </g>
     </g>
    </g>
    <g id="xtick_3">
     <g id="line2d_3">
      <g>
       <use xlink:href="#m8344b8c7dc" x="88.935828" y="455.955539" style="stroke: #000000; stroke-width: 0.8"/>
      </g>
     </g>
    </g>
    <g id="xtick_4">
     <g id="line2d_4">
      <g>
       <use xlink:href="#m8344b8c7dc" x="105.67765" y="455.955539" style="stroke: #000000; stroke-width: 0.8"/>
      </g>
     </g>
    </g>
    <g id="xtick_5">
     <g id="line2d_5">
      <g>
       <use xlink:href="#m8344b8c7dc" x="122.419472" y="455.955539" style="stroke: #000000; stroke-width: 0.8"/>
      </g>
     </g>
    </g>
    <g id="xtick_6">
     <g id="line2d_6">
      <g>
       <use xlink:href="#m8344b8c7dc" x="139.161294" y="455.955539" style="stroke: #000000; stroke-width: 0.8"/>
      </g>
     </g>
     <g id="text_2">
      <!-- 5 -->
      <g transform="translate(138.862983 472.827413) rotate(-45) scale(0.1 -0.1)">
       <defs>
        <path id="DejaVuSans-35" d="M 691 4666 
L 3169 4666 
L 3169 4134 
L 1269 4134 
L 1269 2991 
Q 1406 3038 1543 3061 
Q 1681 3084 1819 3084 
Q 2600 3084 3056 2656 
Q 3513 2228 3513 1497 
Q 3513 744 3044 326 
Q 2575 -91 1722 -91 
Q 1428 -91 1123 -41 
Q 819 9 494 109 
L 494 744 
Q 775 591 1075 516 
Q 1375 441 1709 441 
Q 2250 441 2565 725 
Q 2881 1009 2881 1497 
Q 2881 1984 2565 2268 
Q 2250 2553 1709 2553 
Q 1456 2553 1204 2497 
Q 953 2441 691 2322 
L 691 4666 
z
" transform="scale(0.015625)"/>
       </defs>
       <use xlink:href="#DejaVuSans-35"/>
      </g>
     </g>
    </g>
    <g id="xtick_7">
     <g id="line2d_7">
      <g>
       <use xlink:href="#m8344b8c7dc" x="155.903116" y="455.955539" style="stroke: #000000; stroke-width: 0.8"/>
      </g>
     </g>
    </g>
    <g id="xtick_8">
     <g id="line2d_8">
      <g>
       <use xlink:href="#m8344b8c7dc" x="172.644938" y="455.955539" style="stroke: #000000; stroke-width: 0.8"/>
      </g>
     </g>
    </g>
    <g id="xtick_9">
     <g id="line2d_9">
      <g>
       <use xlink:href="#m8344b8c7dc" x="189.38676" y="455.955539" style="stroke: #000000; stroke-width: 0.8"/>
      </g>
     </g>
    </g>
    <g id="xtick_10">
     <g id="line2d_10">
      <g>
       <use xlink:href="#m8344b8c7dc" x="206.128582" y="455.955539" style="stroke: #000000; stroke-width: 0.8"/>
      </g>
     </g>
    </g>
    <g id="xtick_11">
     <g id="line2d_11">
      <g>
       <use xlink:href="#m8344b8c7dc" x="222.870404" y="455.955539" style="stroke: #000000; stroke-width: 0.8"/>
      </g>
     </g>
     <g id="text_3">
      <!-- 10 -->
      <g transform="translate(220.32261 477.326379) rotate(-45) scale(0.1 -0.1)">
       <defs>
        <path id="DejaVuSans-31" d="M 794 531 
L 1825 531 
L 1825 4091 
L 703 3866 
L 703 4441 
L 1819 4666 
L 2450 4666 
L 2450 531 
L 3481 531 
L 3481 0 
L 794 0 
L 794 531 
z
" transform="scale(0.015625)"/>
       </defs>
       <use xlink:href="#DejaVuSans-31"/>
       <use xlink:href="#DejaVuSans-30" transform="translate(63.623047 0)"/>
      </g>
     </g>
    </g>
    <g id="xtick_12">
     <g id="line2d_12">
      <g>
       <use xlink:href="#m8344b8c7dc" x="239.612226" y="455.955539" style="stroke: #000000; stroke-width: 0.8"/>
      </g>
     </g>
     <g id="text_4">
      <!-- 11 -->
      <g transform="translate(237.064432 477.326379) rotate(-45) scale(0.1 -0.1)">
       <use xlink:href="#DejaVuSans-31"/>
       <use xlink:href="#DejaVuSans-31" transform="translate(63.623047 0)"/>
      </g>
     </g>
    </g>
    <g id="xtick_13">
     <g id="line2d_13">
      <g>
       <use xlink:href="#m8344b8c7dc" x="256.354048" y="455.955539" style="stroke: #000000; stroke-width: 0.8"/>
      </g>
     </g>
    </g>
    <g id="xtick_14">
     <g id="line2d_14">
      <g>
       <use xlink:href="#m8344b8c7dc" x="273.09587" y="455.955539" style="stroke: #000000; stroke-width: 0.8"/>
      </g>
     </g>
    </g>
    <g id="xtick_15">
     <g id="line2d_15">
      <g>
       <use xlink:href="#m8344b8c7dc" x="289.837692" y="455.955539" style="stroke: #000000; stroke-width: 0.8"/>
      </g>
     </g>
    </g>
    <g id="xtick_16">
     <g id="line2d_16">
      <g>
       <use xlink:href="#m8344b8c7dc" x="306.579513" y="455.955539" style="stroke: #000000; stroke-width: 0.8"/>
      </g>
     </g>
     <g id="text_5">
      <!-- 15 -->
      <g transform="translate(304.031719 477.326379) rotate(-45) scale(0.1 -0.1)">
       <use xlink:href="#DejaVuSans-31"/>
       <use xlink:href="#DejaVuSans-35" transform="translate(63.623047 0)"/>
      </g>
     </g>
    </g>
    <g id="xtick_17">
     <g id="line2d_17">
      <g>
       <use xlink:href="#m8344b8c7dc" x="323.321335" y="455.955539" style="stroke: #000000; stroke-width: 0.8"/>
      </g>
     </g>
    </g>
    <g id="xtick_18">
     <g id="line2d_18">
      <g>
       <use xlink:href="#m8344b8c7dc" x="340.063157" y="455.955539" style="stroke: #000000; stroke-width: 0.8"/>
      </g>
     </g>
    </g>
    <g id="xtick_19">
     <g id="line2d_19">
      <g>
       <use xlink:href="#m8344b8c7dc" x="356.804979" y="455.955539" style="stroke: #000000; stroke-width: 0.8"/>
      </g>
     </g>
    </g>
    <g id="xtick_20">
     <g id="line2d_20">
      <g>
       <use xlink:href="#m8344b8c7dc" x="373.546801" y="455.955539" style="stroke: #000000; stroke-width: 0.8"/>
      </g>
     </g>
    </g>
    <g id="xtick_21">
     <g id="line2d_21">
      <g>
       <use xlink:href="#m8344b8c7dc" x="390.288623" y="455.955539" style="stroke: #000000; stroke-width: 0.8"/>
      </g>
     </g>
     <g id="text_6">
      <!-- 20 -->
      <g transform="translate(387.740829 477.326379) rotate(-45) scale(0.1 -0.1)">
       <defs>
        <path id="DejaVuSans-32" d="M 1228 531 
L 3431 531 
L 3431 0 
L 469 0 
L 469 531 
Q 828 903 1448 1529 
Q 2069 2156 2228 2338 
Q 2531 2678 2651 2914 
Q 2772 3150 2772 3378 
Q 2772 3750 2511 3984 
Q 2250 4219 1831 4219 
Q 1534 4219 1204 4116 
Q 875 4013 500 3803 
L 500 4441 
Q 881 4594 1212 4672 
Q 1544 4750 1819 4750 
Q 2544 4750 2975 4387 
Q 3406 4025 3406 3419 
Q 3406 3131 3298 2873 
Q 3191 2616 2906 2266 
Q 2828 2175 2409 1742 
Q 1991 1309 1228 531 
z
" transform="scale(0.015625)"/>
       </defs>
       <use xlink:href="#DejaVuSans-32"/>
       <use xlink:href="#DejaVuSans-30" transform="translate(63.623047 0)"/>
      </g>
     </g>
    </g>
    <g id="xtick_22">
     <g id="line2d_22">
      <g>
       <use xlink:href="#m8344b8c7dc" x="407.030445" y="455.955539" style="stroke: #000000; stroke-width: 0.8"/>
      </g>
     </g>
    </g>
    <g id="xtick_23">
     <g id="line2d_23">
      <g>
       <use xlink:href="#m8344b8c7dc" x="423.772267" y="455.955539" style="stroke: #000000; stroke-width: 0.8"/>
      </g>
     </g>
    </g>
    <g id="xtick_24">
     <g id="line2d_24">
      <g>
       <use xlink:href="#m8344b8c7dc" x="440.514089" y="455.955539" style="stroke: #000000; stroke-width: 0.8"/>
      </g>
     </g>
     <g id="text_7">
      <!-- 23 -->
      <g transform="translate(437.966295 477.326379) rotate(-45) scale(0.1 -0.1)">
       <defs>
        <path id="DejaVuSans-33" d="M 2597 2516 
Q 3050 2419 3304 2112 
Q 3559 1806 3559 1356 
Q 3559 666 3084 287 
Q 2609 -91 1734 -91 
Q 1441 -91 1130 -33 
Q 819 25 488 141 
L 488 750 
Q 750 597 1062 519 
Q 1375 441 1716 441 
Q 2309 441 2620 675 
Q 2931 909 2931 1356 
Q 2931 1769 2642 2001 
Q 2353 2234 1838 2234 
L 1294 2234 
L 1294 2753 
L 1863 2753 
Q 2328 2753 2575 2939 
Q 2822 3125 2822 3475 
Q 2822 3834 2567 4026 
Q 2313 4219 1838 4219 
Q 1578 4219 1281 4162 
Q 984 4106 628 3988 
L 628 4550 
Q 988 4650 1302 4700 
Q 1616 4750 1894 4750 
Q 2613 4750 3031 4423 
Q 3450 4097 3450 3541 
Q 3450 3153 3228 2886 
Q 3006 2619 2597 2516 
z
" transform="scale(0.015625)"/>
       </defs>
       <use xlink:href="#DejaVuSans-32"/>
       <use xlink:href="#DejaVuSans-33" transform="translate(63.623047 0)"/>
      </g>
     </g>
    </g>
    <g id="xtick_25">
     <g id="line2d_25">
      <g>
       <use xlink:href="#m8344b8c7dc" x="457.255911" y="455.955539" style="stroke: #000000; stroke-width: 0.8"/>
      </g>
     </g>
    </g>
    <g id="xtick_26">
     <g id="line2d_26">
      <g>
       <use xlink:href="#m8344b8c7dc" x="473.997733" y="455.955539" style="stroke: #000000; stroke-width: 0.8"/>
      </g>
     </g>
     <g id="text_8">
      <!-- 25 -->
      <g transform="translate(471.449939 477.326379) rotate(-45) scale(0.1 -0.1)">
       <use xlink:href="#DejaVuSans-32"/>
       <use xlink:href="#DejaVuSans-35" transform="translate(63.623047 0)"/>
      </g>
     </g>
    </g>
    <g id="xtick_27">
     <g id="line2d_27">
      <g>
       <use xlink:href="#m8344b8c7dc" x="490.739555" y="455.955539" style="stroke: #000000; stroke-width: 0.8"/>
      </g>
     </g>
    </g>
    <g id="xtick_28">
     <g id="line2d_28">
      <g>
       <use xlink:href="#m8344b8c7dc" x="507.481377" y="455.955539" style="stroke: #000000; stroke-width: 0.8"/>
      </g>
     </g>
    </g>
    <g id="xtick_29">
     <g id="line2d_29">
      <g>
       <use xlink:href="#m8344b8c7dc" x="524.223199" y="455.955539" style="stroke: #000000; stroke-width: 0.8"/>
      </g>
     </g>
    </g>
    <g id="xtick_30">
     <g id="line2d_30">
      <g>
       <use xlink:href="#m8344b8c7dc" x="540.965021" y="455.955539" style="stroke: #000000; stroke-width: 0.8"/>
      </g>
     </g>
    </g>
    <g id="xtick_31">
     <g id="line2d_31">
      <g>
       <use xlink:href="#m8344b8c7dc" x="557.706843" y="455.955539" style="stroke: #000000; stroke-width: 0.8"/>
      </g>
     </g>
     <g id="text_9">
      <!-- 30 -->
      <g transform="translate(555.159049 477.326379) rotate(-45) scale(0.1 -0.1)">
       <use xlink:href="#DejaVuSans-33"/>
       <use xlink:href="#DejaVuSans-30" transform="translate(63.623047 0)"/>
      </g>
     </g>
    </g>
    <g id="xtick_32">
     <g id="line2d_32">
      <g>
       <use xlink:href="#m8344b8c7dc" x="574.448665" y="455.955539" style="stroke: #000000; stroke-width: 0.8"/>
      </g>
     </g>
    </g>
    <g id="xtick_33">
     <g id="line2d_33">
      <g>
       <use xlink:href="#m8344b8c7dc" x="591.190487" y="455.955539" style="stroke: #000000; stroke-width: 0.8"/>
      </g>
     </g>
    </g>
    <g id="xtick_34">
     <g id="line2d_34">
      <g>
       <use xlink:href="#m8344b8c7dc" x="607.932308" y="455.955539" style="stroke: #000000; stroke-width: 0.8"/>
      </g>
     </g>
    </g>
    <g id="xtick_35">
     <g id="line2d_35">
      <g>
       <use xlink:href="#m8344b8c7dc" x="624.67413" y="455.955539" style="stroke: #000000; stroke-width: 0.8"/>
      </g>
     </g>
    </g>
    <g id="xtick_36">
     <g id="line2d_36">
      <g>
       <use xlink:href="#m8344b8c7dc" x="641.415952" y="455.955539" style="stroke: #000000; stroke-width: 0.8"/>
      </g>
     </g>
     <g id="text_10">
      <!-- 35 -->
      <g transform="translate(638.868158 477.326379) rotate(-45) scale(0.1 -0.1)">
       <use xlink:href="#DejaVuSans-33"/>
       <use xlink:href="#DejaVuSans-35" transform="translate(63.623047 0)"/>
      </g>
     </g>
    </g>
    <g id="xtick_37">
     <g id="line2d_37">
      <g>
       <use xlink:href="#m8344b8c7dc" x="658.157774" y="455.955539" style="stroke: #000000; stroke-width: 0.8"/>
      </g>
     </g>
    </g>
    <g id="xtick_38">
     <g id="line2d_38">
      <g>
       <use xlink:href="#m8344b8c7dc" x="674.899596" y="455.955539" style="stroke: #000000; stroke-width: 0.8"/>
      </g>
     </g>
    </g>
    <g id="xtick_39">
     <g id="line2d_39">
      <g>
       <use xlink:href="#m8344b8c7dc" x="691.641418" y="455.955539" style="stroke: #000000; stroke-width: 0.8"/>
      </g>
     </g>
    </g>
    <g id="xtick_40">
     <g id="line2d_40">
      <g>
       <use xlink:href="#m8344b8c7dc" x="708.38324" y="455.955539" style="stroke: #000000; stroke-width: 0.8"/>
      </g>
     </g>
    </g>
    <g id="xtick_41">
     <g id="line2d_41">
      <g>
       <use xlink:href="#m8344b8c7dc" x="725.125062" y="455.955539" style="stroke: #000000; stroke-width: 0.8"/>
      </g>
     </g>
     <g id="text_11">
      <!-- 40 -->
      <g transform="translate(722.577268 477.326379) rotate(-45) scale(0.1 -0.1)">
       <defs>
        <path id="DejaVuSans-34" d="M 2419 4116 
L 825 1625 
L 2419 1625 
L 2419 4116 
z
M 2253 4666 
L 3047 4666 
L 3047 1625 
L 3713 1625 
L 3713 1100 
L 3047 1100 
L 3047 0 
L 2419 0 
L 2419 1100 
L 313 1100 
L 313 1709 
L 2253 4666 
z
" transform="scale(0.015625)"/>
       </defs>
       <use xlink:href="#DejaVuSans-34"/>
       <use xlink:href="#DejaVuSans-30" transform="translate(63.623047 0)"/>
      </g>
     </g>
    </g>
    <g id="xtick_42">
     <g id="line2d_42">
      <g>
       <use xlink:href="#m8344b8c7dc" x="741.866884" y="455.955539" style="stroke: #000000; stroke-width: 0.8"/>
      </g>
     </g>
    </g>
    <g id="xtick_43">
     <g id="line2d_43">
      <g>
       <use xlink:href="#m8344b8c7dc" x="758.608706" y="455.955539" style="stroke: #000000; stroke-width: 0.8"/>
      </g>
     </g>
    </g>
    <g id="xtick_44">
     <g id="line2d_44">
      <g>
       <use xlink:href="#m8344b8c7dc" x="775.350528" y="455.955539" style="stroke: #000000; stroke-width: 0.8"/>
      </g>
     </g>
    </g>
    <g id="xtick_45">
     <g id="line2d_45">
      <g>
       <use xlink:href="#m8344b8c7dc" x="792.09235" y="455.955539" style="stroke: #000000; stroke-width: 0.8"/>
      </g>
     </g>
    </g>
    <g id="xtick_46">
     <g id="line2d_46">
      <g>
       <use xlink:href="#m8344b8c7dc" x="808.834172" y="455.955539" style="stroke: #000000; stroke-width: 0.8"/>
      </g>
     </g>
     <g id="text_12">
      <!-- 45 -->
      <g transform="translate(806.286378 477.326379) rotate(-45) scale(0.1 -0.1)">
       <use xlink:href="#DejaVuSans-34"/>
       <use xlink:href="#DejaVuSans-35" transform="translate(63.623047 0)"/>
      </g>
     </g>
    </g>
    <g id="xtick_47">
     <g id="line2d_47">
      <g>
       <use xlink:href="#m8344b8c7dc" x="825.575994" y="455.955539" style="stroke: #000000; stroke-width: 0.8"/>
      </g>
     </g>
    </g>
    <g id="xtick_48">
     <g id="line2d_48">
      <g>
       <use xlink:href="#m8344b8c7dc" x="842.317816" y="455.955539" style="stroke: #000000; stroke-width: 0.8"/>
      </g>
     </g>
     <g id="text_13">
      <!-- 47 -->
      <g transform="translate(839.770022 477.326379) rotate(-45) scale(0.1 -0.1)">
       <defs>
        <path id="DejaVuSans-37" d="M 525 4666 
L 3525 4666 
L 3525 4397 
L 1831 0 
L 1172 0 
L 2766 4134 
L 525 4134 
L 525 4666 
z
" transform="scale(0.015625)"/>
       </defs>
       <use xlink:href="#DejaVuSans-34"/>
       <use xlink:href="#DejaVuSans-37" transform="translate(63.623047 0)"/>
      </g>
     </g>
    </g>
    <g id="text_14">
     <!-- Game Minute -->
     <g transform="translate(415.333438 490.395378) scale(0.1 -0.1)">
      <defs>
       <path id="DejaVuSans-47" d="M 3809 666 
L 3809 1919 
L 2778 1919 
L 2778 2438 
L 4434 2438 
L 4434 434 
Q 4069 175 3628 42 
Q 3188 -91 2688 -91 
Q 1594 -91 976 548 
Q 359 1188 359 2328 
Q 359 3472 976 4111 
Q 1594 4750 2688 4750 
Q 3144 4750 3555 4637 
Q 3966 4525 4313 4306 
L 4313 3634 
Q 3963 3931 3569 4081 
Q 3175 4231 2741 4231 
Q 1884 4231 1454 3753 
Q 1025 3275 1025 2328 
Q 1025 1384 1454 906 
Q 1884 428 2741 428 
Q 3075 428 3337 486 
Q 3600 544 3809 666 
z
" transform="scale(0.015625)"/>
       <path id="DejaVuSans-61" d="M 2194 1759 
Q 1497 1759 1228 1600 
Q 959 1441 959 1056 
Q 959 750 1161 570 
Q 1363 391 1709 391 
Q 2188 391 2477 730 
Q 2766 1069 2766 1631 
L 2766 1759 
L 2194 1759 
z
M 3341 1997 
L 3341 0 
L 2766 0 
L 2766 531 
Q 2569 213 2275 61 
Q 1981 -91 1556 -91 
Q 1019 -91 701 211 
Q 384 513 384 1019 
Q 384 1609 779 1909 
Q 1175 2209 1959 2209 
L 2766 2209 
L 2766 2266 
Q 2766 2663 2505 2880 
Q 2244 3097 1772 3097 
Q 1472 3097 1187 3025 
Q 903 2953 641 2809 
L 641 3341 
Q 956 3463 1253 3523 
Q 1550 3584 1831 3584 
Q 2591 3584 2966 3190 
Q 3341 2797 3341 1997 
z
" transform="scale(0.015625)"/>
       <path id="DejaVuSans-6d" d="M 3328 2828 
Q 3544 3216 3844 3400 
Q 4144 3584 4550 3584 
Q 5097 3584 5394 3201 
Q 5691 2819 5691 2113 
L 5691 0 
L 5113 0 
L 5113 2094 
Q 5113 2597 4934 2840 
Q 4756 3084 4391 3084 
Q 3944 3084 3684 2787 
Q 3425 2491 3425 1978 
L 3425 0 
L 2847 0 
L 2847 2094 
Q 2847 2600 2669 2842 
Q 2491 3084 2119 3084 
Q 1678 3084 1418 2786 
Q 1159 2488 1159 1978 
L 1159 0 
L 581 0 
L 581 3500 
L 1159 3500 
L 1159 2956 
Q 1356 3278 1631 3431 
Q 1906 3584 2284 3584 
Q 2666 3584 2933 3390 
Q 3200 3197 3328 2828 
z
" transform="scale(0.015625)"/>
       <path id="DejaVuSans-65" d="M 3597 1894 
L 3597 1613 
L 953 1613 
Q 991 1019 1311 708 
Q 1631 397 2203 397 
Q 2534 397 2845 478 
Q 3156 559 3463 722 
L 3463 178 
Q 3153 47 2828 -22 
Q 2503 -91 2169 -91 
Q 1331 -91 842 396 
Q 353 884 353 1716 
Q 353 2575 817 3079 
Q 1281 3584 2069 3584 
Q 2775 3584 3186 3129 
Q 3597 2675 3597 1894 
z
M 3022 2063 
Q 3016 2534 2758 2815 
Q 2500 3097 2075 3097 
Q 1594 3097 1305 2825 
Q 1016 2553 972 2059 
L 3022 2063 
z
" transform="scale(0.015625)"/>
       <path id="DejaVuSans-20" transform="scale(0.015625)"/>
       <path id="DejaVuSans-4d" d="M 628 4666 
L 1569 4666 
L 2759 1491 
L 3956 4666 
L 4897 4666 
L 4897 0 
L 4281 0 
L 4281 4097 
L 3078 897 
L 2444 897 
L 1241 4097 
L 1241 0 
L 628 0 
L 628 4666 
z
" transform="scale(0.015625)"/>
       <path id="DejaVuSans-69" d="M 603 3500 
L 1178 3500 
L 1178 0 
L 603 0 
L 603 3500 
z
M 603 4863 
L 1178 4863 
L 1178 4134 
L 603 4134 
L 603 4863 
z
" transform="scale(0.015625)"/>
       <path id="DejaVuSans-6e" d="M 3513 2113 
L 3513 0 
L 2938 0 
L 2938 2094 
Q 2938 2591 2744 2837 
Q 2550 3084 2163 3084 
Q 1697 3084 1428 2787 
Q 1159 2491 1159 1978 
L 1159 0 
L 581 0 
L 581 3500 
L 1159 3500 
L 1159 2956 
Q 1366 3272 1645 3428 
Q 1925 3584 2291 3584 
Q 2894 3584 3203 3211 
Q 3513 2838 3513 2113 
z
" transform="scale(0.015625)"/>
       <path id="DejaVuSans-75" d="M 544 1381 
L 544 3500 
L 1119 3500 
L 1119 1403 
Q 1119 906 1312 657 
Q 1506 409 1894 409 
Q 2359 409 2629 706 
Q 2900 1003 2900 1516 
L 2900 3500 
L 3475 3500 
L 3475 0 
L 2900 0 
L 2900 538 
Q 2691 219 2414 64 
Q 2138 -91 1772 -91 
Q 1169 -91 856 284 
Q 544 659 544 1381 
z
M 1991 3584 
L 1991 3584 
z
" transform="scale(0.015625)"/>
       <path id="DejaVuSans-74" d="M 1172 4494 
L 1172 3500 
L 2356 3500 
L 2356 3053 
L 1172 3053 
L 1172 1153 
Q 1172 725 1289 603 
Q 1406 481 1766 481 
L 2356 481 
L 2356 0 
L 1766 0 
Q 1100 0 847 248 
Q 594 497 594 1153 
L 594 3053 
L 172 3053 
L 172 3500 
L 594 3500 
L 594 4494 
L 1172 4494 
z
" transform="scale(0.015625)"/>
      </defs>
      <use xlink:href="#DejaVuSans-47"/>
      <use xlink:href="#DejaVuSans-61" transform="translate(77.490234 0)"/>
      <use xlink:href="#DejaVuSans-6d" transform="translate(138.769531 0)"/>
      <use xlink:href="#DejaVuSans-65" transform="translate(236.181641 0)"/>
      <use xlink:href="#DejaVuSans-20" transform="translate(297.705078 0)"/>
      <use xlink:href="#DejaVuSans-4d" transform="translate(329.492188 0)"/>
      <use xlink:href="#DejaVuSans-69" transform="translate(415.771484 0)"/>
      <use xlink:href="#DejaVuSans-6e" transform="translate(443.554688 0)"/>
      <use xlink:href="#DejaVuSans-75" transform="translate(506.933594 0)"/>
      <use xlink:href="#DejaVuSans-74" transform="translate(570.3125 0)"/>
      <use xlink:href="#DejaVuSans-65" transform="translate(609.521484 0)"/>
     </g>
    </g>
   </g>
   <g id="matplotlib.axis_2">
    <g id="ytick_1">
     <g id="line2d_49">
      <path d="M 44.57 455.955539 
L 853.2 455.955539 
" clip-path="url(#p81b4fef9e7)" style="fill: none; stroke-dasharray: 2.96,1.28; stroke-dashoffset: 0; stroke: #b0b0b0; stroke-opacity: 0.6; stroke-width: 0.8"/>
     </g>
     <g id="line2d_50">
      <defs>
       <path id="mff0a3a9b9f" d="M 0 0 
L -3.5 0 
" style="stroke: #000000; stroke-width: 0.8"/>
      </defs>
      <g>
       <use xlink:href="#mff0a3a9b9f" x="44.57" y="455.955539" style="stroke: #000000; stroke-width: 0.8"/>
      </g>
     </g>
     <g id="text_15">
      <!-- 0 -->
      <g transform="translate(31.2075 459.754758) scale(0.1 -0.1)">
       <use xlink:href="#DejaVuSans-30"/>
      </g>
     </g>
    </g>
    <g id="ytick_2">
     <g id="line2d_51">
      <path d="M 44.57 385.499785 
L 853.2 385.499785 
" clip-path="url(#p81b4fef9e7)" style="fill: none; stroke-dasharray: 2.96,1.28; stroke-dashoffset: 0; stroke: #b0b0b0; stroke-opacity: 0.6; stroke-width: 0.8"/>
     </g>
     <g id="line2d_52">
      <g>
       <use xlink:href="#mff0a3a9b9f" x="44.57" y="385.499785" style="stroke: #000000; stroke-width: 0.8"/>
      </g>
     </g>
     <g id="text_16">
      <!-- 10 -->
      <g transform="translate(24.845 389.299004) scale(0.1 -0.1)">
       <use xlink:href="#DejaVuSans-31"/>
       <use xlink:href="#DejaVuSans-30" transform="translate(63.623047 0)"/>
      </g>
     </g>
    </g>
    <g id="ytick_3">
     <g id="line2d_53">
      <path d="M 44.57 315.044032 
L 853.2 315.044032 
" clip-path="url(#p81b4fef9e7)" style="fill: none; stroke-dasharray: 2.96,1.28; stroke-dashoffset: 0; stroke: #b0b0b0; stroke-opacity: 0.6; stroke-width: 0.8"/>
     </g>
     <g id="line2d_54">
      <g>
       <use xlink:href="#mff0a3a9b9f" x="44.57" y="315.044032" style="stroke: #000000; stroke-width: 0.8"/>
      </g>
     </g>
     <g id="text_17">
      <!-- 20 -->
      <g transform="translate(24.845 318.843251) scale(0.1 -0.1)">
       <use xlink:href="#DejaVuSans-32"/>
       <use xlink:href="#DejaVuSans-30" transform="translate(63.623047 0)"/>
      </g>
     </g>
    </g>
    <g id="ytick_4">
     <g id="line2d_55">
      <path d="M 44.57 244.588278 
L 853.2 244.588278 
" clip-path="url(#p81b4fef9e7)" style="fill: none; stroke-dasharray: 2.96,1.28; stroke-dashoffset: 0; stroke: #b0b0b0; stroke-opacity: 0.6; stroke-width: 0.8"/>
     </g>
     <g id="line2d_56">
      <g>
       <use xlink:href="#mff0a3a9b9f" x="44.57" y="244.588278" style="stroke: #000000; stroke-width: 0.8"/>
      </g>
     </g>
     <g id="text_18">
      <!-- 30 -->
      <g transform="translate(24.845 248.387497) scale(0.1 -0.1)">
       <use xlink:href="#DejaVuSans-33"/>
       <use xlink:href="#DejaVuSans-30" transform="translate(63.623047 0)"/>
      </g>
     </g>
    </g>
    <g id="ytick_5">
     <g id="line2d_57">
      <path d="M 44.57 174.132525 
L 853.2 174.132525 
" clip-path="url(#p81b4fef9e7)" style="fill: none; stroke-dasharray: 2.96,1.28; stroke-dashoffset: 0; stroke: #b0b0b0; stroke-opacity: 0.6; stroke-width: 0.8"/>
     </g>
     <g id="line2d_58">
      <g>
       <use xlink:href="#mff0a3a9b9f" x="44.57" y="174.132525" style="stroke: #000000; stroke-width: 0.8"/>
      </g>
     </g>
     <g id="text_19">
      <!-- 40 -->
      <g transform="translate(24.845 177.931744) scale(0.1 -0.1)">
       <use xlink:href="#DejaVuSans-34"/>
       <use xlink:href="#DejaVuSans-30" transform="translate(63.623047 0)"/>
      </g>
     </g>
    </g>
    <g id="ytick_6">
     <g id="line2d_59">
      <path d="M 44.57 103.676771 
L 853.2 103.676771 
" clip-path="url(#p81b4fef9e7)" style="fill: none; stroke-dasharray: 2.96,1.28; stroke-dashoffset: 0; stroke: #b0b0b0; stroke-opacity: 0.6; stroke-width: 0.8"/>
     </g>
     <g id="line2d_60">
      <g>
       <use xlink:href="#mff0a3a9b9f" x="44.57" y="103.676771" style="stroke: #000000; stroke-width: 0.8"/>
      </g>
     </g>
     <g id="text_20">
      <!-- 50 -->
      <g transform="translate(24.845 107.47599) scale(0.1 -0.1)">
       <use xlink:href="#DejaVuSans-35"/>
       <use xlink:href="#DejaVuSans-30" transform="translate(63.623047 0)"/>
      </g>
     </g>
    </g>
    <g id="ytick_7">
     <g id="line2d_61">
      <path d="M 44.57 33.221018 
L 853.2 33.221018 
" clip-path="url(#p81b4fef9e7)" style="fill: none; stroke-dasharray: 2.96,1.28; stroke-dashoffset: 0; stroke: #b0b0b0; stroke-opacity: 0.6; stroke-width: 0.8"/>
     </g>
     <g id="line2d_62">
      <g>
       <use xlink:href="#mff0a3a9b9f" x="44.57" y="33.221018" style="stroke: #000000; stroke-width: 0.8"/>
      </g>
     </g>
     <g id="text_21">
      <!-- 60 -->
      <g transform="translate(24.845 37.020237) scale(0.1 -0.1)">
       <defs>
        <path id="DejaVuSans-36" d="M 2113 2584 
Q 1688 2584 1439 2293 
Q 1191 2003 1191 1497 
Q 1191 994 1439 701 
Q 1688 409 2113 409 
Q 2538 409 2786 701 
Q 3034 994 3034 1497 
Q 3034 2003 2786 2293 
Q 2538 2584 2113 2584 
z
M 3366 4563 
L 3366 3988 
Q 3128 4100 2886 4159 
Q 2644 4219 2406 4219 
Q 1781 4219 1451 3797 
Q 1122 3375 1075 2522 
Q 1259 2794 1537 2939 
Q 1816 3084 2150 3084 
Q 2853 3084 3261 2657 
Q 3669 2231 3669 1497 
Q 3669 778 3244 343 
Q 2819 -91 2113 -91 
Q 1303 -91 875 529 
Q 447 1150 447 2328 
Q 447 3434 972 4092 
Q 1497 4750 2381 4750 
Q 2619 4750 2861 4703 
Q 3103 4656 3366 4563 
z
" transform="scale(0.015625)"/>
       </defs>
       <use xlink:href="#DejaVuSans-36"/>
       <use xlink:href="#DejaVuSans-30" transform="translate(63.623047 0)"/>
      </g>
     </g>
    </g>
    <g id="text_22">
     <!-- Points Scored -->
     <g transform="translate(18.765312 275.199019) rotate(-90) scale(0.1 -0.1)">
      <defs>
       <path id="DejaVuSans-50" d="M 1259 4147 
L 1259 2394 
L 2053 2394 
Q 2494 2394 2734 2622 
Q 2975 2850 2975 3272 
Q 2975 3691 2734 3919 
Q 2494 4147 2053 4147 
L 1259 4147 
z
M 628 4666 
L 2053 4666 
Q 2838 4666 3239 4311 
Q 3641 3956 3641 3272 
Q 3641 2581 3239 2228 
Q 2838 1875 2053 1875 
L 1259 1875 
L 1259 0 
L 628 0 
L 628 4666 
z
" transform="scale(0.015625)"/>
       <path id="DejaVuSans-6f" d="M 1959 3097 
Q 1497 3097 1228 2736 
Q 959 2375 959 1747 
Q 959 1119 1226 758 
Q 1494 397 1959 397 
Q 2419 397 2687 759 
Q 2956 1122 2956 1747 
Q 2956 2369 2687 2733 
Q 2419 3097 1959 3097 
z
M 1959 3584 
Q 2709 3584 3137 3096 
Q 3566 2609 3566 1747 
Q 3566 888 3137 398 
Q 2709 -91 1959 -91 
Q 1206 -91 779 398 
Q 353 888 353 1747 
Q 353 2609 779 3096 
Q 1206 3584 1959 3584 
z
" transform="scale(0.015625)"/>
       <path id="DejaVuSans-73" d="M 2834 3397 
L 2834 2853 
Q 2591 2978 2328 3040 
Q 2066 3103 1784 3103 
Q 1356 3103 1142 2972 
Q 928 2841 928 2578 
Q 928 2378 1081 2264 
Q 1234 2150 1697 2047 
L 1894 2003 
Q 2506 1872 2764 1633 
Q 3022 1394 3022 966 
Q 3022 478 2636 193 
Q 2250 -91 1575 -91 
Q 1294 -91 989 -36 
Q 684 19 347 128 
L 347 722 
Q 666 556 975 473 
Q 1284 391 1588 391 
Q 1994 391 2212 530 
Q 2431 669 2431 922 
Q 2431 1156 2273 1281 
Q 2116 1406 1581 1522 
L 1381 1569 
Q 847 1681 609 1914 
Q 372 2147 372 2553 
Q 372 3047 722 3315 
Q 1072 3584 1716 3584 
Q 2034 3584 2315 3537 
Q 2597 3491 2834 3397 
z
" transform="scale(0.015625)"/>
       <path id="DejaVuSans-53" d="M 3425 4513 
L 3425 3897 
Q 3066 4069 2747 4153 
Q 2428 4238 2131 4238 
Q 1616 4238 1336 4038 
Q 1056 3838 1056 3469 
Q 1056 3159 1242 3001 
Q 1428 2844 1947 2747 
L 2328 2669 
Q 3034 2534 3370 2195 
Q 3706 1856 3706 1288 
Q 3706 609 3251 259 
Q 2797 -91 1919 -91 
Q 1588 -91 1214 -16 
Q 841 59 441 206 
L 441 856 
Q 825 641 1194 531 
Q 1563 422 1919 422 
Q 2459 422 2753 634 
Q 3047 847 3047 1241 
Q 3047 1584 2836 1778 
Q 2625 1972 2144 2069 
L 1759 2144 
Q 1053 2284 737 2584 
Q 422 2884 422 3419 
Q 422 4038 858 4394 
Q 1294 4750 2059 4750 
Q 2388 4750 2728 4690 
Q 3069 4631 3425 4513 
z
" transform="scale(0.015625)"/>
       <path id="DejaVuSans-63" d="M 3122 3366 
L 3122 2828 
Q 2878 2963 2633 3030 
Q 2388 3097 2138 3097 
Q 1578 3097 1268 2742 
Q 959 2388 959 1747 
Q 959 1106 1268 751 
Q 1578 397 2138 397 
Q 2388 397 2633 464 
Q 2878 531 3122 666 
L 3122 134 
Q 2881 22 2623 -34 
Q 2366 -91 2075 -91 
Q 1284 -91 818 406 
Q 353 903 353 1747 
Q 353 2603 823 3093 
Q 1294 3584 2113 3584 
Q 2378 3584 2631 3529 
Q 2884 3475 3122 3366 
z
" transform="scale(0.015625)"/>
       <path id="DejaVuSans-72" d="M 2631 2963 
Q 2534 3019 2420 3045 
Q 2306 3072 2169 3072 
Q 1681 3072 1420 2755 
Q 1159 2438 1159 1844 
L 1159 0 
L 581 0 
L 581 3500 
L 1159 3500 
L 1159 2956 
Q 1341 3275 1631 3429 
Q 1922 3584 2338 3584 
Q 2397 3584 2469 3576 
Q 2541 3569 2628 3553 
L 2631 2963 
z
" transform="scale(0.015625)"/>
       <path id="DejaVuSans-64" d="M 2906 2969 
L 2906 4863 
L 3481 4863 
L 3481 0 
L 2906 0 
L 2906 525 
Q 2725 213 2448 61 
Q 2172 -91 1784 -91 
Q 1150 -91 751 415 
Q 353 922 353 1747 
Q 353 2572 751 3078 
Q 1150 3584 1784 3584 
Q 2172 3584 2448 3432 
Q 2725 3281 2906 2969 
z
M 947 1747 
Q 947 1113 1208 752 
Q 1469 391 1925 391 
Q 2381 391 2643 752 
Q 2906 1113 2906 1747 
Q 2906 2381 2643 2742 
Q 2381 3103 1925 3103 
Q 1469 3103 1208 2742 
Q 947 2381 947 1747 
z
" transform="scale(0.015625)"/>
      </defs>
      <use xlink:href="#DejaVuSans-50"/>
      <use xlink:href="#DejaVuSans-6f" transform="translate(56.677734 0)"/>
      <use xlink:href="#DejaVuSans-69" transform="translate(117.859375 0)"/>
      <use xlink:href="#DejaVuSans-6e" transform="translate(145.642578 0)"/>
      <use xlink:href="#DejaVuSans-74" transform="translate(209.021484 0)"/>
      <use xlink:href="#DejaVuSans-73" transform="translate(248.230469 0)"/>
      <use xlink:href="#DejaVuSans-20" transform="translate(300.330078 0)"/>
      <use xlink:href="#DejaVuSans-53" transform="translate(332.117188 0)"/>
      <use xlink:href="#DejaVuSans-63" transform="translate(395.59375 0)"/>
      <use xlink:href="#DejaVuSans-6f" transform="translate(450.574219 0)"/>
      <use xlink:href="#DejaVuSans-72" transform="translate(511.755859 0)"/>
      <use xlink:href="#DejaVuSans-65" transform="translate(550.619141 0)"/>
      <use xlink:href="#DejaVuSans-64" transform="translate(612.142578 0)"/>
     </g>
    </g>
   </g>
   <g id="patch_147">
    <path d="M 44.57 455.955539 
L 44.57 26.88 
" style="fill: none; stroke: #000000; stroke-width: 0.8; stroke-linejoin: miter; stroke-linecap: square"/>
   </g>
   <g id="patch_148">
    <path d="M 853.2 455.955539 
L 853.2 26.88 
" style="fill: none; stroke: #000000; stroke-width: 0.8; stroke-linejoin: miter; stroke-linecap: square"/>
   </g>
   <g id="patch_149">
    <path d="M 44.57 455.955539 
L 853.2 455.955539 
" style="fill: none; stroke: #000000; stroke-width: 0.8; stroke-linejoin: miter; stroke-linecap: square"/>
   </g>
   <g id="patch_150">
    <path d="M 44.57 26.88 
L 853.2 26.88 
" style="fill: none; stroke: #000000; stroke-width: 0.8; stroke-linejoin: miter; stroke-linecap: square"/>
   </g>
   <g id="text_23">
    <!-- Desmond Bane Scoring Timeline (2024-25) -->
    <g transform="translate(319.620625 20.88) scale(0.12 -0.12)">
     <defs>
      <path id="DejaVuSans-44" d="M 1259 4147 
L 1259 519 
L 2022 519 
Q 2988 519 3436 956 
Q 3884 1394 3884 2338 
Q 3884 3275 3436 3711 
Q 2988 4147 2022 4147 
L 1259 4147 
z
M 628 4666 
L 1925 4666 
Q 3281 4666 3915 4102 
Q 4550 3538 4550 2338 
Q 4550 1131 3912 565 
Q 3275 0 1925 0 
L 628 0 
L 628 4666 
z
" transform="scale(0.015625)"/>
      <path id="DejaVuSans-42" d="M 1259 2228 
L 1259 519 
L 2272 519 
Q 2781 519 3026 730 
Q 3272 941 3272 1375 
Q 3272 1813 3026 2020 
Q 2781 2228 2272 2228 
L 1259 2228 
z
M 1259 4147 
L 1259 2741 
L 2194 2741 
Q 2656 2741 2882 2914 
Q 3109 3088 3109 3444 
Q 3109 3797 2882 3972 
Q 2656 4147 2194 4147 
L 1259 4147 
z
M 628 4666 
L 2241 4666 
Q 2963 4666 3353 4366 
Q 3744 4066 3744 3513 
Q 3744 3084 3544 2831 
Q 3344 2578 2956 2516 
Q 3422 2416 3680 2098 
Q 3938 1781 3938 1306 
Q 3938 681 3513 340 
Q 3088 0 2303 0 
L 628 0 
L 628 4666 
z
" transform="scale(0.015625)"/>
      <path id="DejaVuSans-67" d="M 2906 1791 
Q 2906 2416 2648 2759 
Q 2391 3103 1925 3103 
Q 1463 3103 1205 2759 
Q 947 2416 947 1791 
Q 947 1169 1205 825 
Q 1463 481 1925 481 
Q 2391 481 2648 825 
Q 2906 1169 2906 1791 
z
M 3481 434 
Q 3481 -459 3084 -895 
Q 2688 -1331 1869 -1331 
Q 1566 -1331 1297 -1286 
Q 1028 -1241 775 -1147 
L 775 -588 
Q 1028 -725 1275 -790 
Q 1522 -856 1778 -856 
Q 2344 -856 2625 -561 
Q 2906 -266 2906 331 
L 2906 616 
Q 2728 306 2450 153 
Q 2172 0 1784 0 
Q 1141 0 747 490 
Q 353 981 353 1791 
Q 353 2603 747 3093 
Q 1141 3584 1784 3584 
Q 2172 3584 2450 3431 
Q 2728 3278 2906 2969 
L 2906 3500 
L 3481 3500 
L 3481 434 
z
" transform="scale(0.015625)"/>
      <path id="DejaVuSans-54" d="M -19 4666 
L 3928 4666 
L 3928 4134 
L 2272 4134 
L 2272 0 
L 1638 0 
L 1638 4134 
L -19 4134 
L -19 4666 
z
" transform="scale(0.015625)"/>
      <path id="DejaVuSans-6c" d="M 603 4863 
L 1178 4863 
L 1178 0 
L 603 0 
L 603 4863 
z
" transform="scale(0.015625)"/>
      <path id="DejaVuSans-28" d="M 1984 4856 
Q 1566 4138 1362 3434 
Q 1159 2731 1159 2009 
Q 1159 1288 1364 580 
Q 1569 -128 1984 -844 
L 1484 -844 
Q 1016 -109 783 600 
Q 550 1309 550 2009 
Q 550 2706 781 3412 
Q 1013 4119 1484 4856 
L 1984 4856 
z
" transform="scale(0.015625)"/>
      <path id="DejaVuSans-2d" d="M 313 2009 
L 1997 2009 
L 1997 1497 
L 313 1497 
L 313 2009 
z
" transform="scale(0.015625)"/>
      <path id="DejaVuSans-29" d="M 513 4856 
L 1013 4856 
Q 1481 4119 1714 3412 
Q 1947 2706 1947 2009 
Q 1947 1309 1714 600 
Q 1481 -109 1013 -844 
L 513 -844 
Q 928 -128 1133 580 
Q 1338 1288 1338 2009 
Q 1338 2731 1133 3434 
Q 928 4138 513 4856 
z
" transform="scale(0.015625)"/>
     </defs>
     <use xlink:href="#DejaVuSans-44"/>
     <use xlink:href="#DejaVuSans-65" transform="translate(77.001953 0)"/>
     <use xlink:href="#DejaVuSans-73" transform="translate(138.525391 0)"/>
     <use xlink:href="#DejaVuSans-6d" transform="translate(190.625 0)"/>
     <use xlink:href="#DejaVuSans-6f" transform="translate(288.037109 0)"/>
     <use xlink:href="#DejaVuSans-6e" transform="translate(349.21875 0)"/>
     <use xlink:href="#DejaVuSans-64" transform="translate(412.597656 0)"/>
     <use xlink:href="#DejaVuSans-20" transform="translate(476.074219 0)"/>
     <use xlink:href="#DejaVuSans-42" transform="translate(507.861328 0)"/>
     <use xlink:href="#DejaVuSans-61" transform="translate(576.464844 0)"/>
     <use xlink:href="#DejaVuSans-6e" transform="translate(637.744141 0)"/>
     <use xlink:href="#DejaVuSans-65" transform="translate(701.123047 0)"/>
     <use xlink:href="#DejaVuSans-20" transform="translate(762.646484 0)"/>
     <use xlink:href="#DejaVuSans-53" transform="translate(794.433594 0)"/>
     <use xlink:href="#DejaVuSans-63" transform="translate(857.910156 0)"/>
     <use xlink:href="#DejaVuSans-6f" transform="translate(912.890625 0)"/>
     <use xlink:href="#DejaVuSans-72" transform="translate(974.072266 0)"/>
     <use xlink:href="#DejaVuSans-69" transform="translate(1015.185547 0)"/>
     <use xlink:href="#DejaVuSans-6e" transform="translate(1042.96875 0)"/>
     <use xlink:href="#DejaVuSans-67" transform="translate(1106.347656 0)"/>
     <use xlink:href="#DejaVuSans-20" transform="translate(1169.824219 0)"/>
     <use xlink:href="#DejaVuSans-54" transform="translate(1201.611328 0)"/>
     <use xlink:href="#DejaVuSans-69" transform="translate(1259.570312 0)"/>
     <use xlink:href="#DejaVuSans-6d" transform="translate(1287.353516 0)"/>
     <use xlink:href="#DejaVuSans-65" transform="translate(1384.765625 0)"/>
     <use xlink:href="#DejaVuSans-6c" transform="translate(1446.289062 0)"/>
     <use xlink:href="#DejaVuSans-69" transform="translate(1474.072266 0)"/>
     <use xlink:href="#DejaVuSans-6e" transform="translate(1501.855469 0)"/>
     <use xlink:href="#DejaVuSans-65" transform="translate(1565.234375 0)"/>
     <use xlink:href="#DejaVuSans-20" transform="translate(1626.757812 0)"/>
     <use xlink:href="#DejaVuSans-28" transform="translate(1658.544922 0)"/>
     <use xlink:href="#DejaVuSans-32" transform="translate(1697.558594 0)"/>
     <use xlink:href="#DejaVuSans-30" transform="translate(1761.181641 0)"/>
     <use xlink:href="#DejaVuSans-32" transform="translate(1824.804688 0)"/>
     <use xlink:href="#DejaVuSans-34" transform="translate(1888.427734 0)"/>
     <use xlink:href="#DejaVuSans-2d" transform="translate(1952.050781 0)"/>
     <use xlink:href="#DejaVuSans-32" transform="translate(1988.134766 0)"/>
     <use xlink:href="#DejaVuSans-35" transform="translate(2051.757812 0)"/>
     <use xlink:href="#DejaVuSans-29" transform="translate(2115.380859 0)"/>
    </g>
   </g>
   <g id="legend_1">
    <g id="patch_151">
     <path d="M 793.33125 93.5925 
L 846.2 93.5925 
Q 848.2 93.5925 848.2 91.5925 
L 848.2 33.88 
Q 848.2 31.88 846.2 31.88 
L 793.33125 31.88 
Q 791.33125 31.88 791.33125 33.88 
L 791.33125 91.5925 
Q 791.33125 93.5925 793.33125 93.5925 
z
" style="fill: #ffffff; opacity: 0.8; stroke: #cccccc; stroke-linejoin: miter"/>
    </g>
    <g id="text_24">
     <!-- Shot Type -->
     <g transform="translate(795.33125 43.478437) scale(0.1 -0.1)">
      <defs>
       <path id="DejaVuSans-68" d="M 3513 2113 
L 3513 0 
L 2938 0 
L 2938 2094 
Q 2938 2591 2744 2837 
Q 2550 3084 2163 3084 
Q 1697 3084 1428 2787 
Q 1159 2491 1159 1978 
L 1159 0 
L 581 0 
L 581 4863 
L 1159 4863 
L 1159 2956 
Q 1366 3272 1645 3428 
Q 1925 3584 2291 3584 
Q 2894 3584 3203 3211 
Q 3513 2838 3513 2113 
z
" transform="scale(0.015625)"/>
       <path id="DejaVuSans-79" d="M 2059 -325 
Q 1816 -950 1584 -1140 
Q 1353 -1331 966 -1331 
L 506 -1331 
L 506 -850 
L 844 -850 
Q 1081 -850 1212 -737 
Q 1344 -625 1503 -206 
L 1606 56 
L 191 3500 
L 800 3500 
L 1894 763 
L 2988 3500 
L 3597 3500 
L 2059 -325 
z
" transform="scale(0.015625)"/>
       <path id="DejaVuSans-70" d="M 1159 525 
L 1159 -1331 
L 581 -1331 
L 581 3500 
L 1159 3500 
L 1159 2969 
Q 1341 3281 1617 3432 
Q 1894 3584 2278 3584 
Q 2916 3584 3314 3078 
Q 3713 2572 3713 1747 
Q 3713 922 3314 415 
Q 2916 -91 2278 -91 
Q 1894 -91 1617 61 
Q 1341 213 1159 525 
z
M 3116 1747 
Q 3116 2381 2855 2742 
Q 2594 3103 2138 3103 
Q 1681 3103 1420 2742 
Q 1159 2381 1159 1747 
Q 1159 1113 1420 752 
Q 1681 391 2138 391 
Q 2594 391 2855 752 
Q 3116 1113 3116 1747 
z
" transform="scale(0.015625)"/>
      </defs>
      <use xlink:href="#DejaVuSans-53"/>
      <use xlink:href="#DejaVuSans-68" transform="translate(63.476562 0)"/>
      <use xlink:href="#DejaVuSans-6f" transform="translate(126.855469 0)"/>
      <use xlink:href="#DejaVuSans-74" transform="translate(188.037109 0)"/>
      <use xlink:href="#DejaVuSans-20" transform="translate(227.246094 0)"/>
      <use xlink:href="#DejaVuSans-54" transform="translate(259.033203 0)"/>
      <use xlink:href="#DejaVuSans-79" transform="translate(304.492188 0)"/>
      <use xlink:href="#DejaVuSans-70" transform="translate(363.671875 0)"/>
      <use xlink:href="#DejaVuSans-65" transform="translate(427.148438 0)"/>
     </g>
    </g>
    <g id="patch_152">
     <path d="M 796.515625 58.156563 
L 816.515625 58.156563 
L 816.515625 51.156563 
L 796.515625 51.156563 
z
" style="fill: #ffc107"/>
    </g>
    <g id="text_25">
     <!-- FT -->
     <g transform="translate(824.515625 58.156563) scale(0.1 -0.1)">
      <defs>
       <path id="DejaVuSans-46" d="M 628 4666 
L 3309 4666 
L 3309 4134 
L 1259 4134 
L 1259 2759 
L 3109 2759 
L 3109 2228 
L 1259 2228 
L 1259 0 
L 628 0 
L 628 4666 
z
" transform="scale(0.015625)"/>
      </defs>
      <use xlink:href="#DejaVuSans-46"/>
      <use xlink:href="#DejaVuSans-54" transform="translate(55.769531 0)"/>
     </g>
    </g>
    <g id="patch_153">
     <path d="M 796.515625 72.834688 
L 816.515625 72.834688 
L 816.515625 65.834688 
L 796.515625 65.834688 
z
" style="fill: #2196f3"/>
    </g>
    <g id="text_26">
     <!-- 2PT -->
     <g transform="translate(824.515625 72.834688) scale(0.1 -0.1)">
      <use xlink:href="#DejaVuSans-32"/>
      <use xlink:href="#DejaVuSans-50" transform="translate(63.623047 0)"/>
      <use xlink:href="#DejaVuSans-54" transform="translate(123.925781 0)"/>
     </g>
    </g>
    <g id="patch_154">
     <path d="M 796.515625 87.512812 
L 816.515625 87.512812 
L 816.515625 80.512812 
L 796.515625 80.512812 
z
" style="fill: #4caf50"/>
    </g>
    <g id="text_27">
     <!-- 3PT -->
     <g transform="translate(824.515625 87.512812) scale(0.1 -0.1)">
      <use xlink:href="#DejaVuSans-33"/>
      <use xlink:href="#DejaVuSans-50" transform="translate(63.623047 0)"/>
      <use xlink:href="#DejaVuSans-54" transform="translate(123.925781 0)"/>
     </g>
    </g>
   </g>
  </g>
 </g>
 <defs>
  <clipPath id="p81b4fef9e7">
   <rect x="44.57" y="26.88" width="808.63" height="429.075539"/>
  </clipPath>
 </defs>
</svg>
