<?xml version="1.0" encoding="utf-8" standalone="no"?>
<!DOCTYPE svg PUBLIC "-//W3C//DTD SVG 1.1//EN"
  "http://www.w3.org/Graphics/SVG/1.1/DTD/svg11.dtd">
<svg xmlns:xlink="http://www.w3.org/1999/xlink" width="864pt" height="504pt" viewBox="0 0 864 504" xmlns="http://www.w3.org/2000/svg" version="1.1">
 <metadata>
  <rdf:RDF xmlns:dc="http://purl.org/dc/elements/1.1/" xmlns:cc="http://creativecommons.org/ns#" xmlns:rdf="http://www.w3.org/1999/02/22-rdf-syntax-ns#">
   <cc:Work>
    <dc:type rdf:resource="http://purl.org/dc/dcmitype/StillImage"/>
    <dc:date>2025-08-24T03:16:44.040522</dc:date>
    <dc:format>image/svg+xml</dc:format>
    <dc:creator>
     <cc:Agent>
      <dc:title>Matplotlib v3.10.5, https://matplotlib.org/</dc:title>
     </cc:Agent>
    </dc:creator>
   </cc:Work>
  </rdf:RDF>
 </metadata>
 <defs>
  <style type="text/css">*{stroke-linejoin: round; stroke-linecap: butt}</style>
 </defs>
 <g id="figure_1">
  <g id="patch_1">
   <path d="M 0 504 
L 864 504 
L 864 0 
L 0 0 
z
" style="fill: #ffffff"/>
  </g>
  <g id="axes_1">
   <g id="patch_2">
    <path d="M 44.57 455.955539 
L 853.2 455.955539 
L 853.2 26.88 
L 44.57 26.88 
z
" style="fill: #ffffff"/>
   </g>
   <g id="patch_3">
    <path d="M 48.362824 455.955539 
L 60.499859 455.955539 
L 60.499859 433.74666 
L 48.362824 433.74666 
z
" clip-path="url(#p8056f5eb1b)" style="fill: #ffc107"/>
   </g>
   <g id="patch_4">
    <path d="M 63.534118 455.955539 
L 75.671154 455.955539 
L 75.671154 407.096006 
L 63.534118 407.096006 
z
" clip-path="url(#p8056f5eb1b)" style="fill: #ffc107"/>
   </g>
   <g id="patch_5">
    <path d="M 78.705413 455.955539 
L 90.842448 455.955539 
L 90.842448 393.770678 
L 78.705413 393.770678 
z
" clip-path="url(#p8056f5eb1b)" style="fill: #ffc107"/>
   </g>
   <g id="patch_6">
    <path d="M 93.876707 455.955539 
L 106.013743 455.955539 
L 106.013743 420.421333 
L 93.876707 420.421333 
z
" clip-path="url(#p8056f5eb1b)" style="fill: #ffc107"/>
   </g>
   <g id="patch_7">
    <path d="M 109.048002 455.955539 
L 121.185038 455.955539 
L 121.185038 380.445351 
L 109.048002 380.445351 
z
" clip-path="url(#p8056f5eb1b)" style="fill: #ffc107"/>
   </g>
   <g id="patch_8">
    <path d="M 124.219296 455.955539 
L 136.356332 455.955539 
L 136.356332 433.74666 
L 124.219296 433.74666 
z
" clip-path="url(#p8056f5eb1b)" style="fill: #ffc107"/>
   </g>
   <g id="patch_9">
    <path d="M 139.390591 455.955539 
L 151.527627 455.955539 
L 151.527627 442.630212 
L 139.390591 442.630212 
z
" clip-path="url(#p8056f5eb1b)" style="fill: #ffc107"/>
   </g>
   <g id="patch_10">
    <path d="M 154.561886 455.955539 
L 166.698921 455.955539 
L 166.698921 451.513763 
L 154.561886 451.513763 
z
" clip-path="url(#p8056f5eb1b)" style="fill: #ffc107"/>
   </g>
   <g id="patch_11">
    <path d="M 169.73318 455.955539 
L 181.870216 455.955539 
L 181.870216 451.513763 
L 169.73318 451.513763 
z
" clip-path="url(#p8056f5eb1b)" style="fill: #ffc107"/>
   </g>
   <g id="patch_12">
    <path d="M 184.904475 455.955539 
L 197.04151 455.955539 
L 197.04151 447.071987 
L 184.904475 447.071987 
z
" clip-path="url(#p8056f5eb1b)" style="fill: #ffc107"/>
   </g>
   <g id="patch_13">
    <path d="M 200.075769 455.955539 
L 212.212805 455.955539 
L 212.212805 398.212454 
L 200.075769 398.212454 
z
" clip-path="url(#p8056f5eb1b)" style="fill: #ffc107"/>
   </g>
   <g id="patch_14">
    <path d="M 215.247064 455.955539 
L 227.384099 455.955539 
L 227.384099 349.352921 
L 215.247064 349.352921 
z
" clip-path="url(#p8056f5eb1b)" style="fill: #ffc107"/>
   </g>
   <g id="patch_15">
    <path d="M 230.418358 455.955539 
L 242.555394 455.955539 
L 242.555394 433.74666 
L 230.418358 433.74666 
z
" clip-path="url(#p8056f5eb1b)" style="fill: #ffc107"/>
   </g>
   <g id="patch_16">
    <path d="M 245.589653 455.955539 
L 257.726689 455.955539 
L 257.726689 411.537781 
L 245.589653 411.537781 
z
" clip-path="url(#p8056f5eb1b)" style="fill: #ffc107"/>
   </g>
   <g id="patch_17">
    <path d="M 260.760947 455.955539 
L 272.897983 455.955539 
L 272.897983 398.212454 
L 260.760947 398.212454 
z
" clip-path="url(#p8056f5eb1b)" style="fill: #ffc107"/>
   </g>
   <g id="patch_18">
    <path d="M 275.932242 455.955539 
L 288.069278 455.955539 
L 288.069278 407.096006 
L 275.932242 407.096006 
z
" clip-path="url(#p8056f5eb1b)" style="fill: #ffc107"/>
   </g>
   <g id="patch_19">
    <path d="M 291.103537 455.955539 
L 303.240572 455.955539 
L 303.240572 411.537781 
L 291.103537 411.537781 
z
" clip-path="url(#p8056f5eb1b)" style="fill: #ffc107"/>
   </g>
   <g id="patch_20">
    <path d="M 306.274831 455.955539 
L 318.411867 455.955539 
L 318.411867 411.537781 
L 306.274831 411.537781 
z
" clip-path="url(#p8056f5eb1b)" style="fill: #ffc107"/>
   </g>
   <g id="patch_21">
    <path d="M 321.446126 455.955539 
L 333.583161 455.955539 
L 333.583161 433.74666 
L 321.446126 433.74666 
z
" clip-path="url(#p8056f5eb1b)" style="fill: #ffc107"/>
   </g>
   <g id="patch_22">
    <path d="M 336.61742 455.955539 
L 348.754456 455.955539 
L 348.754456 420.421333 
L 336.61742 420.421333 
z
" clip-path="url(#p8056f5eb1b)" style="fill: #ffc107"/>
   </g>
   <g id="patch_23">
    <path d="M 351.788715 455.955539 
L 363.92575 455.955539 
L 363.92575 362.678248 
L 351.788715 362.678248 
z
" clip-path="url(#p8056f5eb1b)" style="fill: #ffc107"/>
   </g>
   <g id="patch_24">
    <path d="M 366.960009 455.955539 
L 379.097045 455.955539 
L 379.097045 384.887127 
L 366.960009 384.887127 
z
" clip-path="url(#p8056f5eb1b)" style="fill: #ffc107"/>
   </g>
   <g id="patch_25">
    <path d="M 382.131304 455.955539 
L 394.26834 455.955539 
L 394.26834 380.445351 
L 382.131304 380.445351 
z
" clip-path="url(#p8056f5eb1b)" style="fill: #ffc107"/>
   </g>
   <g id="patch_26">
    <path d="M 397.302598 455.955539 
L 409.439634 455.955539 
L 409.439634 367.120024 
L 397.302598 367.120024 
z
" clip-path="url(#p8056f5eb1b)" style="fill: #ffc107"/>
   </g>
   <g id="patch_27">
    <path d="M 412.473893 455.955539 
L 424.610929 455.955539 
L 424.610929 424.863109 
L 412.473893 424.863109 
z
" clip-path="url(#p8056f5eb1b)" style="fill: #ffc107"/>
   </g>
   <g id="patch_28">
    <path d="M 427.645188 455.955539 
L 439.782223 455.955539 
L 439.782223 438.188436 
L 427.645188 438.188436 
z
" clip-path="url(#p8056f5eb1b)" style="fill: #ffc107"/>
   </g>
   <g id="patch_29">
    <path d="M 442.816482 455.955539 
L 454.953518 455.955539 
L 454.953518 415.979557 
L 442.816482 415.979557 
z
" clip-path="url(#p8056f5eb1b)" style="fill: #ffc107"/>
   </g>
   <g id="patch_30">
    <path d="M 457.987777 455.955539 
L 470.124812 455.955539 
L 470.124812 438.188436 
L 457.987777 438.188436 
z
" clip-path="url(#p8056f5eb1b)" style="fill: #ffc107"/>
   </g>
   <g id="patch_31">
    <path d="M 473.159071 455.955539 
L 485.296107 455.955539 
L 485.296107 411.537781 
L 473.159071 411.537781 
z
" clip-path="url(#p8056f5eb1b)" style="fill: #ffc107"/>
   </g>
   <g id="patch_32">
    <path d="M 488.330366 455.955539 
L 500.467402 455.955539 
L 500.467402 433.74666 
L 488.330366 433.74666 
z
" clip-path="url(#p8056f5eb1b)" style="fill: #ffc107"/>
   </g>
   <g id="patch_33">
    <path d="M 503.50166 455.955539 
L 515.638696 455.955539 
L 515.638696 398.212454 
L 503.50166 398.212454 
z
" clip-path="url(#p8056f5eb1b)" style="fill: #ffc107"/>
   </g>
   <g id="patch_34">
    <path d="M 518.672955 455.955539 
L 530.809991 455.955539 
L 530.809991 420.421333 
L 518.672955 420.421333 
z
" clip-path="url(#p8056f5eb1b)" style="fill: #ffc107"/>
   </g>
   <g id="patch_35">
    <path d="M 533.84425 455.955539 
L 545.981285 455.955539 
L 545.981285 411.537781 
L 533.84425 411.537781 
z
" clip-path="url(#p8056f5eb1b)" style="fill: #ffc107"/>
   </g>
   <g id="patch_36">
    <path d="M 549.015544 455.955539 
L 561.15258 455.955539 
L 561.15258 398.212454 
L 549.015544 398.212454 
z
" clip-path="url(#p8056f5eb1b)" style="fill: #ffc107"/>
   </g>
   <g id="patch_37">
    <path d="M 564.186839 455.955539 
L 576.323874 455.955539 
L 576.323874 424.863109 
L 564.186839 424.863109 
z
" clip-path="url(#p8056f5eb1b)" style="fill: #ffc107"/>
   </g>
   <g id="patch_38">
    <path d="M 579.358133 455.955539 
L 591.495169 455.955539 
L 591.495169 415.979557 
L 579.358133 415.979557 
z
" clip-path="url(#p8056f5eb1b)" style="fill: #ffc107"/>
   </g>
   <g id="patch_39">
    <path d="M 594.529428 455.955539 
L 606.666463 455.955539 
L 606.666463 451.513763 
L 594.529428 451.513763 
z
" clip-path="url(#p8056f5eb1b)" style="fill: #ffc107"/>
   </g>
   <g id="patch_40">
    <path d="M 609.700722 455.955539 
L 621.837758 455.955539 
L 621.837758 433.74666 
L 609.700722 433.74666 
z
" clip-path="url(#p8056f5eb1b)" style="fill: #ffc107"/>
   </g>
   <g id="patch_41">
    <path d="M 624.872017 455.955539 
L 637.009053 455.955539 
L 637.009053 442.630212 
L 624.872017 442.630212 
z
" clip-path="url(#p8056f5eb1b)" style="fill: #ffc107"/>
   </g>
   <g id="patch_42">
    <path d="M 640.043311 455.955539 
L 652.180347 455.955539 
L 652.180347 442.630212 
L 640.043311 442.630212 
z
" clip-path="url(#p8056f5eb1b)" style="fill: #ffc107"/>
   </g>
   <g id="patch_43">
    <path d="M 655.214606 455.955539 
L 667.351642 455.955539 
L 667.351642 420.421333 
L 655.214606 420.421333 
z
" clip-path="url(#p8056f5eb1b)" style="fill: #ffc107"/>
   </g>
   <g id="patch_44">
    <path d="M 670.385901 455.955539 
L 682.522936 455.955539 
L 682.522936 371.561799 
L 670.385901 371.561799 
z
" clip-path="url(#p8056f5eb1b)" style="fill: #ffc107"/>
   </g>
   <g id="patch_45">
    <path d="M 685.557195 455.955539 
L 697.694231 455.955539 
L 697.694231 398.212454 
L 685.557195 398.212454 
z
" clip-path="url(#p8056f5eb1b)" style="fill: #ffc107"/>
   </g>
   <g id="patch_46">
    <path d="M 700.72849 455.955539 
L 712.865525 455.955539 
L 712.865525 393.770678 
L 700.72849 393.770678 
z
" clip-path="url(#p8056f5eb1b)" style="fill: #ffc107"/>
   </g>
   <g id="patch_47">
    <path d="M 715.899784 455.955539 
L 728.03682 455.955539 
L 728.03682 415.979557 
L 715.899784 415.979557 
z
" clip-path="url(#p8056f5eb1b)" style="fill: #ffc107"/>
   </g>
   <g id="patch_48">
    <path d="M 731.071079 455.955539 
L 743.208114 455.955539 
L 743.208114 367.120024 
L 731.071079 367.120024 
z
" clip-path="url(#p8056f5eb1b)" style="fill: #ffc107"/>
   </g>
   <g id="patch_49">
    <path d="M 746.242373 455.955539 
L 758.379409 455.955539 
L 758.379409 411.537781 
L 746.242373 411.537781 
z
" clip-path="url(#p8056f5eb1b)" style="fill: #ffc107"/>
   </g>
   <g id="patch_50">
    <path d="M 761.413668 455.955539 
L 773.550704 455.955539 
L 773.550704 327.144042 
L 761.413668 327.144042 
z
" clip-path="url(#p8056f5eb1b)" style="fill: #ffc107"/>
   </g>
   <g id="patch_51">
    <path d="M 776.584962 455.955539 
L 788.721998 455.955539 
L 788.721998 451.513763 
L 776.584962 451.513763 
z
" clip-path="url(#p8056f5eb1b)" style="fill: #ffc107"/>
   </g>
   <g id="patch_52">
    <path d="M 791.756257 455.955539 
L 803.893293 455.955539 
L 803.893293 442.630212 
L 791.756257 442.630212 
z
" clip-path="url(#p8056f5eb1b)" style="fill: #ffc107"/>
   </g>
   <g id="patch_53">
    <path d="M 806.927552 455.955539 
L 819.064587 455.955539 
L 819.064587 451.513763 
L 806.927552 451.513763 
z
" clip-path="url(#p8056f5eb1b)" style="fill: #ffc107"/>
   </g>
   <g id="patch_54">
    <path d="M 822.098846 455.955539 
L 834.235882 455.955539 
L 834.235882 438.188436 
L 822.098846 438.188436 
z
" clip-path="url(#p8056f5eb1b)" style="fill: #ffc107"/>
   </g>
   <g id="patch_55">
    <path d="M 837.270141 455.955539 
L 849.407176 455.955539 
L 849.407176 433.74666 
L 837.270141 433.74666 
z
" clip-path="url(#p8056f5eb1b)" style="fill: #ffc107"/>
   </g>
   <g id="patch_56">
    <path d="M 48.362824 433.74666 
L 60.499859 433.74666 
L 60.499859 336.027593 
L 48.362824 336.027593 
z
" clip-path="url(#p8056f5eb1b)" style="fill: #2196f3"/>
   </g>
   <g id="patch_57">
    <path d="M 63.534118 407.096006 
L 75.671154 407.096006 
L 75.671154 300.493387 
L 63.534118 300.493387 
z
" clip-path="url(#p8056f5eb1b)" style="fill: #2196f3"/>
   </g>
   <g id="patch_58">
    <path d="M 78.705413 393.770678 
L 90.842448 393.770678 
L 90.842448 313.818714 
L 78.705413 313.818714 
z
" clip-path="url(#p8056f5eb1b)" style="fill: #2196f3"/>
   </g>
   <g id="patch_59">
    <path d="M 93.876707 420.421333 
L 106.013743 420.421333 
L 106.013743 278.284508 
L 93.876707 278.284508 
z
" clip-path="url(#p8056f5eb1b)" style="fill: #2196f3"/>
   </g>
   <g id="patch_60">
    <path d="M 109.048002 380.445351 
L 121.185038 380.445351 
L 121.185038 247.192078 
L 109.048002 247.192078 
z
" clip-path="url(#p8056f5eb1b)" style="fill: #2196f3"/>
   </g>
   <g id="patch_61">
    <path d="M 124.219296 433.74666 
L 136.356332 433.74666 
L 136.356332 353.794696 
L 124.219296 353.794696 
z
" clip-path="url(#p8056f5eb1b)" style="fill: #2196f3"/>
   </g>
   <g id="patch_62">
    <path d="M 139.390591 442.630212 
L 151.527627 442.630212 
L 151.527627 424.863109 
L 139.390591 424.863109 
z
" clip-path="url(#p8056f5eb1b)" style="fill: #2196f3"/>
   </g>
   <g id="patch_63">
    <path d="M 154.561886 451.513763 
L 166.698921 451.513763 
L 166.698921 424.863109 
L 154.561886 424.863109 
z
" clip-path="url(#p8056f5eb1b)" style="fill: #2196f3"/>
   </g>
   <g id="patch_64">
    <path d="M 169.73318 451.513763 
L 181.870216 451.513763 
L 181.870216 407.096006 
L 169.73318 407.096006 
z
" clip-path="url(#p8056f5eb1b)" style="fill: #2196f3"/>
   </g>
   <g id="patch_65">
    <path d="M 184.904475 447.071987 
L 197.04151 447.071987 
L 197.04151 313.818714 
L 184.904475 313.818714 
z
" clip-path="url(#p8056f5eb1b)" style="fill: #2196f3"/>
   </g>
   <g id="patch_66">
    <path d="M 200.075769 398.212454 
L 212.212805 398.212454 
L 212.212805 300.493387 
L 200.075769 300.493387 
z
" clip-path="url(#p8056f5eb1b)" style="fill: #2196f3"/>
   </g>
   <g id="patch_67">
    <path d="M 215.247064 349.352921 
L 227.384099 349.352921 
L 227.384099 260.517405 
L 215.247064 260.517405 
z
" clip-path="url(#p8056f5eb1b)" style="fill: #2196f3"/>
   </g>
   <g id="patch_68">
    <path d="M 230.418358 433.74666 
L 242.555394 433.74666 
L 242.555394 353.794696 
L 230.418358 353.794696 
z
" clip-path="url(#p8056f5eb1b)" style="fill: #2196f3"/>
   </g>
   <g id="patch_69">
    <path d="M 245.589653 411.537781 
L 257.726689 411.537781 
L 257.726689 260.517405 
L 245.589653 260.517405 
z
" clip-path="url(#p8056f5eb1b)" style="fill: #2196f3"/>
   </g>
   <g id="patch_70">
    <path d="M 260.760947 398.212454 
L 272.897983 398.212454 
L 272.897983 291.609836 
L 260.760947 291.609836 
z
" clip-path="url(#p8056f5eb1b)" style="fill: #2196f3"/>
   </g>
   <g id="patch_71">
    <path d="M 275.932242 407.096006 
L 288.069278 407.096006 
L 288.069278 318.26049 
L 275.932242 318.26049 
z
" clip-path="url(#p8056f5eb1b)" style="fill: #2196f3"/>
   </g>
   <g id="patch_72">
    <path d="M 291.103537 411.537781 
L 303.240572 411.537781 
L 303.240572 322.702266 
L 291.103537 322.702266 
z
" clip-path="url(#p8056f5eb1b)" style="fill: #2196f3"/>
   </g>
   <g id="patch_73">
    <path d="M 306.274831 411.537781 
L 318.411867 411.537781 
L 318.411867 331.585818 
L 306.274831 331.585818 
z
" clip-path="url(#p8056f5eb1b)" style="fill: #2196f3"/>
   </g>
   <g id="patch_74">
    <path d="M 321.446126 433.74666 
L 333.583161 433.74666 
L 333.583161 336.027593 
L 321.446126 336.027593 
z
" clip-path="url(#p8056f5eb1b)" style="fill: #2196f3"/>
   </g>
   <g id="patch_75">
    <path d="M 336.61742 420.421333 
L 348.754456 420.421333 
L 348.754456 340.469369 
L 336.61742 340.469369 
z
" clip-path="url(#p8056f5eb1b)" style="fill: #2196f3"/>
   </g>
   <g id="patch_76">
    <path d="M 351.788715 362.678248 
L 363.92575 362.678248 
L 363.92575 300.493387 
L 351.788715 300.493387 
z
" clip-path="url(#p8056f5eb1b)" style="fill: #2196f3"/>
   </g>
   <g id="patch_77">
    <path d="M 366.960009 384.887127 
L 379.097045 384.887127 
L 379.097045 287.16806 
L 366.960009 287.16806 
z
" clip-path="url(#p8056f5eb1b)" style="fill: #2196f3"/>
   </g>
   <g id="patch_78">
    <path d="M 382.131304 380.445351 
L 394.26834 380.445351 
L 394.26834 229.424975 
L 382.131304 229.424975 
z
" clip-path="url(#p8056f5eb1b)" style="fill: #2196f3"/>
   </g>
   <g id="patch_79">
    <path d="M 397.302598 367.120024 
L 409.439634 367.120024 
L 409.439634 233.866751 
L 397.302598 233.866751 
z
" clip-path="url(#p8056f5eb1b)" style="fill: #2196f3"/>
   </g>
   <g id="patch_80">
    <path d="M 412.473893 424.863109 
L 424.610929 424.863109 
L 424.610929 362.678248 
L 412.473893 362.678248 
z
" clip-path="url(#p8056f5eb1b)" style="fill: #2196f3"/>
   </g>
   <g id="patch_81">
    <path d="M 427.645188 438.188436 
L 439.782223 438.188436 
L 439.782223 376.003575 
L 427.645188 376.003575 
z
" clip-path="url(#p8056f5eb1b)" style="fill: #2196f3"/>
   </g>
   <g id="patch_82">
    <path d="M 442.816482 415.979557 
L 454.953518 415.979557 
L 454.953518 371.561799 
L 442.816482 371.561799 
z
" clip-path="url(#p8056f5eb1b)" style="fill: #2196f3"/>
   </g>
   <g id="patch_83">
    <path d="M 457.987777 438.188436 
L 470.124812 438.188436 
L 470.124812 331.585818 
L 457.987777 331.585818 
z
" clip-path="url(#p8056f5eb1b)" style="fill: #2196f3"/>
   </g>
   <g id="patch_84">
    <path d="M 473.159071 411.537781 
L 485.296107 411.537781 
L 485.296107 349.352921 
L 473.159071 349.352921 
z
" clip-path="url(#p8056f5eb1b)" style="fill: #2196f3"/>
   </g>
   <g id="patch_85">
    <path d="M 488.330366 433.74666 
L 500.467402 433.74666 
L 500.467402 344.911145 
L 488.330366 344.911145 
z
" clip-path="url(#p8056f5eb1b)" style="fill: #2196f3"/>
   </g>
   <g id="patch_86">
    <path d="M 503.50166 398.212454 
L 515.638696 398.212454 
L 515.638696 327.144042 
L 503.50166 327.144042 
z
" clip-path="url(#p8056f5eb1b)" style="fill: #2196f3"/>
   </g>
   <g id="patch_87">
    <path d="M 518.672955 420.421333 
L 530.809991 420.421333 
L 530.809991 304.935163 
L 518.672955 304.935163 
z
" clip-path="url(#p8056f5eb1b)" style="fill: #2196f3"/>
   </g>
   <g id="patch_88">
    <path d="M 533.84425 411.537781 
L 545.981285 411.537781 
L 545.981285 367.120024 
L 533.84425 367.120024 
z
" clip-path="url(#p8056f5eb1b)" style="fill: #2196f3"/>
   </g>
   <g id="patch_89">
    <path d="M 549.015544 398.212454 
L 561.15258 398.212454 
L 561.15258 371.561799 
L 549.015544 371.561799 
z
" clip-path="url(#p8056f5eb1b)" style="fill: #2196f3"/>
   </g>
   <g id="patch_90">
    <path d="M 564.186839 424.863109 
L 576.323874 424.863109 
L 576.323874 309.376939 
L 564.186839 309.376939 
z
" clip-path="url(#p8056f5eb1b)" style="fill: #2196f3"/>
   </g>
   <g id="patch_91">
    <path d="M 579.358133 415.979557 
L 591.495169 415.979557 
L 591.495169 362.678248 
L 579.358133 362.678248 
z
" clip-path="url(#p8056f5eb1b)" style="fill: #2196f3"/>
   </g>
   <g id="patch_92">
    <path d="M 594.529428 451.513763 
L 606.666463 451.513763 
L 606.666463 407.096006 
L 594.529428 407.096006 
z
" clip-path="url(#p8056f5eb1b)" style="fill: #2196f3"/>
   </g>
   <g id="patch_93">
    <path d="M 609.700722 433.74666 
L 621.837758 433.74666 
L 621.837758 415.979557 
L 609.700722 415.979557 
z
" clip-path="url(#p8056f5eb1b)" style="fill: #2196f3"/>
   </g>
   <g id="patch_94">
    <path d="M 624.872017 442.630212 
L 637.009053 442.630212 
L 637.009053 389.328902 
L 624.872017 389.328902 
z
" clip-path="url(#p8056f5eb1b)" style="fill: #2196f3"/>
   </g>
   <g id="patch_95">
    <path d="M 640.043311 442.630212 
L 652.180347 442.630212 
L 652.180347 353.794696 
L 640.043311 353.794696 
z
" clip-path="url(#p8056f5eb1b)" style="fill: #2196f3"/>
   </g>
   <g id="patch_96">
    <path d="M 655.214606 420.421333 
L 667.351642 420.421333 
L 667.351642 376.003575 
L 655.214606 376.003575 
z
" clip-path="url(#p8056f5eb1b)" style="fill: #2196f3"/>
   </g>
   <g id="patch_97">
    <path d="M 670.385901 371.561799 
L 682.522936 371.561799 
L 682.522936 327.144042 
L 670.385901 327.144042 
z
" clip-path="url(#p8056f5eb1b)" style="fill: #2196f3"/>
   </g>
   <g id="patch_98">
    <path d="M 685.557195 398.212454 
L 697.694231 398.212454 
L 697.694231 291.609836 
L 685.557195 291.609836 
z
" clip-path="url(#p8056f5eb1b)" style="fill: #2196f3"/>
   </g>
   <g id="patch_99">
    <path d="M 700.72849 393.770678 
L 712.865525 393.770678 
L 712.865525 322.702266 
L 700.72849 322.702266 
z
" clip-path="url(#p8056f5eb1b)" style="fill: #2196f3"/>
   </g>
   <g id="patch_100">
    <path d="M 715.899784 415.979557 
L 728.03682 415.979557 
L 728.03682 336.027593 
L 715.899784 336.027593 
z
" clip-path="url(#p8056f5eb1b)" style="fill: #2196f3"/>
   </g>
   <g id="patch_101">
    <path d="M 731.071079 367.120024 
L 743.208114 367.120024 
L 743.208114 313.818714 
L 731.071079 313.818714 
z
" clip-path="url(#p8056f5eb1b)" style="fill: #2196f3"/>
   </g>
   <g id="patch_102">
    <path d="M 746.242373 411.537781 
L 758.379409 411.537781 
L 758.379409 304.935163 
L 746.242373 304.935163 
z
" clip-path="url(#p8056f5eb1b)" style="fill: #2196f3"/>
   </g>
   <g id="patch_103">
    <path d="M 761.413668 327.144042 
L 773.550704 327.144042 
L 773.550704 256.07563 
L 761.413668 256.07563 
z
" clip-path="url(#p8056f5eb1b)" style="fill: #2196f3"/>
   </g>
   <g id="patch_104">
    <path d="M 776.584962 451.513763 
L 788.721998 451.513763 
L 788.721998 442.630212 
L 776.584962 442.630212 
z
" clip-path="url(#p8056f5eb1b)" style="fill: #2196f3"/>
   </g>
   <g id="patch_105">
    <path d="M 791.756257 442.630212 
L 803.893293 442.630212 
L 803.893293 433.74666 
L 791.756257 433.74666 
z
" clip-path="url(#p8056f5eb1b)" style="fill: #2196f3"/>
   </g>
   <g id="patch_106">
    <path d="M 806.927552 455.955539 
L 819.064587 455.955539 
L 819.064587 455.955539 
L 806.927552 455.955539 
z
" clip-path="url(#p8056f5eb1b)" style="fill: #2196f3"/>
   </g>
   <g id="patch_107">
    <path d="M 822.098846 438.188436 
L 834.235882 438.188436 
L 834.235882 429.304884 
L 822.098846 429.304884 
z
" clip-path="url(#p8056f5eb1b)" style="fill: #2196f3"/>
   </g>
   <g id="patch_108">
    <path d="M 837.270141 433.74666 
L 849.407176 433.74666 
L 849.407176 424.863109 
L 837.270141 424.863109 
z
" clip-path="url(#p8056f5eb1b)" style="fill: #2196f3"/>
   </g>
   <g id="patch_109">
    <path d="M 48.362824 336.027593 
L 60.499859 336.027593 
L 60.499859 282.726284 
L 48.362824 282.726284 
z
" clip-path="url(#p8056f5eb1b)" style="fill: #4caf50"/>
   </g>
   <g id="patch_110">
    <path d="M 63.534118 300.493387 
L 75.671154 300.493387 
L 75.671154 273.842733 
L 63.534118 273.842733 
z
" clip-path="url(#p8056f5eb1b)" style="fill: #4caf50"/>
   </g>
   <g id="patch_111">
    <path d="M 78.705413 313.818714 
L 90.842448 313.818714 
L 90.842448 220.541423 
L 78.705413 220.541423 
z
" clip-path="url(#p8056f5eb1b)" style="fill: #4caf50"/>
   </g>
   <g id="patch_112">
    <path d="M 93.876707 278.284508 
L 106.013743 278.284508 
L 106.013743 224.983199 
L 93.876707 224.983199 
z
" clip-path="url(#p8056f5eb1b)" style="fill: #4caf50"/>
   </g>
   <g id="patch_113">
    <path d="M 109.048002 247.192078 
L 121.185038 247.192078 
L 121.185038 180.565441 
L 109.048002 180.565441 
z
" clip-path="url(#p8056f5eb1b)" style="fill: #4caf50"/>
   </g>
   <g id="patch_114">
    <path d="M 124.219296 353.794696 
L 136.356332 353.794696 
L 136.356332 300.493387 
L 124.219296 300.493387 
z
" clip-path="url(#p8056f5eb1b)" style="fill: #4caf50"/>
   </g>
   <g id="patch_115">
    <path d="M 139.390591 424.863109 
L 151.527627 424.863109 
L 151.527627 384.887127 
L 139.390591 384.887127 
z
" clip-path="url(#p8056f5eb1b)" style="fill: #4caf50"/>
   </g>
   <g id="patch_116">
    <path d="M 154.561886 424.863109 
L 166.698921 424.863109 
L 166.698921 384.887127 
L 154.561886 384.887127 
z
" clip-path="url(#p8056f5eb1b)" style="fill: #4caf50"/>
   </g>
   <g id="patch_117">
    <path d="M 169.73318 407.096006 
L 181.870216 407.096006 
L 181.870216 340.469369 
L 169.73318 340.469369 
z
" clip-path="url(#p8056f5eb1b)" style="fill: #4caf50"/>
   </g>
   <g id="patch_118">
    <path d="M 184.904475 313.818714 
L 197.04151 313.818714 
L 197.04151 300.493387 
L 184.904475 300.493387 
z
" clip-path="url(#p8056f5eb1b)" style="fill: #4caf50"/>
   </g>
   <g id="patch_119">
    <path d="M 200.075769 300.493387 
L 212.212805 300.493387 
L 212.212805 233.866751 
L 200.075769 233.866751 
z
" clip-path="url(#p8056f5eb1b)" style="fill: #4caf50"/>
   </g>
   <g id="patch_120">
    <path d="M 215.247064 260.517405 
L 227.384099 260.517405 
L 227.384099 47.312169 
L 215.247064 47.312169 
z
" clip-path="url(#p8056f5eb1b)" style="fill: #4caf50"/>
   </g>
   <g id="patch_121">
    <path d="M 230.418358 353.794696 
L 242.555394 353.794696 
L 242.555394 327.144042 
L 230.418358 327.144042 
z
" clip-path="url(#p8056f5eb1b)" style="fill: #4caf50"/>
   </g>
   <g id="patch_122">
    <path d="M 245.589653 260.517405 
L 257.726689 260.517405 
L 257.726689 220.541423 
L 245.589653 220.541423 
z
" clip-path="url(#p8056f5eb1b)" style="fill: #4caf50"/>
   </g>
   <g id="patch_123">
    <path d="M 260.760947 291.609836 
L 272.897983 291.609836 
L 272.897983 224.983199 
L 260.760947 224.983199 
z
" clip-path="url(#p8056f5eb1b)" style="fill: #4caf50"/>
   </g>
   <g id="patch_124">
    <path d="M 275.932242 318.26049 
L 288.069278 318.26049 
L 288.069278 224.983199 
L 275.932242 224.983199 
z
" clip-path="url(#p8056f5eb1b)" style="fill: #4caf50"/>
   </g>
   <g id="patch_125">
    <path d="M 291.103537 322.702266 
L 303.240572 322.702266 
L 303.240572 176.123666 
L 291.103537 176.123666 
z
" clip-path="url(#p8056f5eb1b)" style="fill: #4caf50"/>
   </g>
   <g id="patch_126">
    <path d="M 306.274831 331.585818 
L 318.411867 331.585818 
L 318.411867 264.959181 
L 306.274831 264.959181 
z
" clip-path="url(#p8056f5eb1b)" style="fill: #4caf50"/>
   </g>
   <g id="patch_127">
    <path d="M 321.446126 336.027593 
L 333.583161 336.027593 
L 333.583161 296.051611 
L 321.446126 296.051611 
z
" clip-path="url(#p8056f5eb1b)" style="fill: #4caf50"/>
   </g>
   <g id="patch_128">
    <path d="M 336.61742 340.469369 
L 348.754456 340.469369 
L 348.754456 220.541423 
L 336.61742 220.541423 
z
" clip-path="url(#p8056f5eb1b)" style="fill: #4caf50"/>
   </g>
   <g id="patch_129">
    <path d="M 351.788715 300.493387 
L 363.92575 300.493387 
L 363.92575 220.541423 
L 351.788715 220.541423 
z
" clip-path="url(#p8056f5eb1b)" style="fill: #4caf50"/>
   </g>
   <g id="patch_130">
    <path d="M 366.960009 287.16806 
L 379.097045 287.16806 
L 379.097045 233.866751 
L 366.960009 233.866751 
z
" clip-path="url(#p8056f5eb1b)" style="fill: #4caf50"/>
   </g>
   <g id="patch_131">
    <path d="M 382.131304 229.424975 
L 394.26834 229.424975 
L 394.26834 136.147684 
L 382.131304 136.147684 
z
" clip-path="url(#p8056f5eb1b)" style="fill: #4caf50"/>
   </g>
   <g id="patch_132">
    <path d="M 397.302598 233.866751 
L 409.439634 233.866751 
L 409.439634 73.962823 
L 397.302598 73.962823 
z
" clip-path="url(#p8056f5eb1b)" style="fill: #4caf50"/>
   </g>
   <g id="patch_133">
    <path d="M 412.473893 362.678248 
L 424.610929 362.678248 
L 424.610929 322.702266 
L 412.473893 322.702266 
z
" clip-path="url(#p8056f5eb1b)" style="fill: #4caf50"/>
   </g>
   <g id="patch_134">
    <path d="M 427.645188 376.003575 
L 439.782223 376.003575 
L 439.782223 322.702266 
L 427.645188 322.702266 
z
" clip-path="url(#p8056f5eb1b)" style="fill: #4caf50"/>
   </g>
   <g id="patch_135">
    <path d="M 442.816482 371.561799 
L 454.953518 371.561799 
L 454.953518 331.585818 
L 442.816482 331.585818 
z
" clip-path="url(#p8056f5eb1b)" style="fill: #4caf50"/>
   </g>
   <g id="patch_136">
    <path d="M 457.987777 331.585818 
L 470.124812 331.585818 
L 470.124812 251.633854 
L 457.987777 251.633854 
z
" clip-path="url(#p8056f5eb1b)" style="fill: #4caf50"/>
   </g>
   <g id="patch_137">
    <path d="M 473.159071 349.352921 
L 485.296107 349.352921 
L 485.296107 242.750302 
L 473.159071 242.750302 
z
" clip-path="url(#p8056f5eb1b)" style="fill: #4caf50"/>
   </g>
   <g id="patch_138">
    <path d="M 488.330366 344.911145 
L 500.467402 344.911145 
L 500.467402 291.609836 
L 488.330366 291.609836 
z
" clip-path="url(#p8056f5eb1b)" style="fill: #4caf50"/>
   </g>
   <g id="patch_139">
    <path d="M 503.50166 327.144042 
L 515.638696 327.144042 
L 515.638696 260.517405 
L 503.50166 260.517405 
z
" clip-path="url(#p8056f5eb1b)" style="fill: #4caf50"/>
   </g>
   <g id="patch_140">
    <path d="M 518.672955 304.935163 
L 530.809991 304.935163 
L 530.809991 198.332545 
L 518.672955 198.332545 
z
" clip-path="url(#p8056f5eb1b)" style="fill: #4caf50"/>
   </g>
   <g id="patch_141">
    <path d="M 533.84425 367.120024 
L 545.981285 367.120024 
L 545.981285 327.144042 
L 533.84425 327.144042 
z
" clip-path="url(#p8056f5eb1b)" style="fill: #4caf50"/>
   </g>
   <g id="patch_142">
    <path d="M 549.015544 371.561799 
L 561.15258 371.561799 
L 561.15258 318.26049 
L 549.015544 318.26049 
z
" clip-path="url(#p8056f5eb1b)" style="fill: #4caf50"/>
   </g>
   <g id="patch_143">
    <path d="M 564.186839 309.376939 
L 576.323874 309.376939 
L 576.323874 269.400957 
L 564.186839 269.400957 
z
" clip-path="url(#p8056f5eb1b)" style="fill: #4caf50"/>
   </g>
   <g id="patch_144">
    <path d="M 579.358133 362.678248 
L 591.495169 362.678248 
L 591.495169 256.07563 
L 579.358133 256.07563 
z
" clip-path="url(#p8056f5eb1b)" style="fill: #4caf50"/>
   </g>
   <g id="patch_145">
    <path d="M 594.529428 407.096006 
L 606.666463 407.096006 
L 606.666463 380.445351 
L 594.529428 380.445351 
z
" clip-path="url(#p8056f5eb1b)" style="fill: #4caf50"/>
   </g>
   <g id="patch_146">
    <path d="M 609.700722 415.979557 
L 621.837758 415.979557 
L 621.837758 362.678248 
L 609.700722 362.678248 
z
" clip-path="url(#p8056f5eb1b)" style="fill: #4caf50"/>
   </g>
   <g id="patch_147">
    <path d="M 624.872017 389.328902 
L 637.009053 389.328902 
L 637.009053 322.702266 
L 624.872017 322.702266 
z
" clip-path="url(#p8056f5eb1b)" style="fill: #4caf50"/>
   </g>
   <g id="patch_148">
    <path d="M 640.043311 353.794696 
L 652.180347 353.794696 
L 652.180347 327.144042 
L 640.043311 327.144042 
z
" clip-path="url(#p8056f5eb1b)" style="fill: #4caf50"/>
   </g>
   <g id="patch_149">
    <path d="M 655.214606 376.003575 
L 667.351642 376.003575 
L 667.351642 282.726284 
L 655.214606 282.726284 
z
" clip-path="url(#p8056f5eb1b)" style="fill: #4caf50"/>
   </g>
   <g id="patch_150">
    <path d="M 670.385901 327.144042 
L 682.522936 327.144042 
L 682.522936 300.493387 
L 670.385901 300.493387 
z
" clip-path="url(#p8056f5eb1b)" style="fill: #4caf50"/>
   </g>
   <g id="patch_151">
    <path d="M 685.557195 291.609836 
L 697.694231 291.609836 
L 697.694231 251.633854 
L 685.557195 251.633854 
z
" clip-path="url(#p8056f5eb1b)" style="fill: #4caf50"/>
   </g>
   <g id="patch_152">
    <path d="M 700.72849 322.702266 
L 712.865525 322.702266 
L 712.865525 269.400957 
L 700.72849 269.400957 
z
" clip-path="url(#p8056f5eb1b)" style="fill: #4caf50"/>
   </g>
   <g id="patch_153">
    <path d="M 715.899784 336.027593 
L 728.03682 336.027593 
L 728.03682 309.376939 
L 715.899784 309.376939 
z
" clip-path="url(#p8056f5eb1b)" style="fill: #4caf50"/>
   </g>
   <g id="patch_154">
    <path d="M 731.071079 455.955539 
L 743.208114 455.955539 
L 743.208114 455.955539 
L 731.071079 455.955539 
z
" clip-path="url(#p8056f5eb1b)" style="fill: #4caf50"/>
   </g>
   <g id="patch_155">
    <path d="M 746.242373 304.935163 
L 758.379409 304.935163 
L 758.379409 251.633854 
L 746.242373 251.633854 
z
" clip-path="url(#p8056f5eb1b)" style="fill: #4caf50"/>
   </g>
   <g id="patch_156">
    <path d="M 761.413668 455.955539 
L 773.550704 455.955539 
L 773.550704 455.955539 
L 761.413668 455.955539 
z
" clip-path="url(#p8056f5eb1b)" style="fill: #4caf50"/>
   </g>
   <g id="patch_157">
    <path d="M 776.584962 455.955539 
L 788.721998 455.955539 
L 788.721998 455.955539 
L 776.584962 455.955539 
z
" clip-path="url(#p8056f5eb1b)" style="fill: #4caf50"/>
   </g>
   <g id="patch_158">
    <path d="M 791.756257 455.955539 
L 803.893293 455.955539 
L 803.893293 455.955539 
L 791.756257 455.955539 
z
" clip-path="url(#p8056f5eb1b)" style="fill: #4caf50"/>
   </g>
   <g id="patch_159">
    <path d="M 806.927552 455.955539 
L 819.064587 455.955539 
L 819.064587 455.955539 
L 806.927552 455.955539 
z
" clip-path="url(#p8056f5eb1b)" style="fill: #4caf50"/>
   </g>
   <g id="patch_160">
    <path d="M 822.098846 455.955539 
L 834.235882 455.955539 
L 834.235882 455.955539 
L 822.098846 455.955539 
z
" clip-path="url(#p8056f5eb1b)" style="fill: #4caf50"/>
   </g>
   <g id="patch_161">
    <path d="M 837.270141 424.863109 
L 849.407176 424.863109 
L 849.407176 398.212454 
L 837.270141 398.212454 
z
" clip-path="url(#p8056f5eb1b)" style="fill: #4caf50"/>
   </g>
   <g id="matplotlib.axis_1">
    <g id="xtick_1">
     <g id="line2d_1">
      <defs>
       <path id="m47d4bf5285" d="M 0 0 
L 0 3.5 
" style="stroke: #000000; stroke-width: 0.8"/>
      </defs>
      <g>
       <use xlink:href="#m47d4bf5285" x="54.431341" y="455.955539" style="stroke: #000000; stroke-width: 0.8"/>
      </g>
     </g>
     <g id="text_1">
      <!-- 0 -->
      <g transform="translate(54.133031 472.827413) rotate(-45) scale(0.1 -0.1)">
       <defs>
        <path id="DejaVuSans-30" d="M 2034 4250 
Q 1547 4250 1301 3770 
Q 1056 3291 1056 2328 
Q 1056 1369 1301 889 
Q 1547 409 2034 409 
Q 2525 409 2770 889 
Q 3016 1369 3016 2328 
Q 3016 3291 2770 3770 
Q 2525 4250 2034 4250 
z
M 2034 4750 
Q 2819 4750 3233 4129 
Q 3647 3509 3647 2328 
Q 3647 1150 3233 529 
Q 2819 -91 2034 -91 
Q 1250 -91 836 529 
Q 422 1150 422 2328 
Q 422 3509 836 4129 
Q 1250 4750 2034 4750 
z
" transform="scale(0.015625)"/>
       </defs>
       <use xlink:href="#DejaVuSans-30"/>
      </g>
     </g>
    </g>
    <g id="xtick_2">
     <g id="line2d_2">
      <g>
       <use xlink:href="#m47d4bf5285" x="69.602636" y="455.955539" style="stroke: #000000; stroke-width: 0.8"/>
      </g>
     </g>
    </g>
    <g id="xtick_3">
     <g id="line2d_3">
      <g>
       <use xlink:href="#m47d4bf5285" x="84.773931" y="455.955539" style="stroke: #000000; stroke-width: 0.8"/>
      </g>
     </g>
    </g>
    <g id="xtick_4">
     <g id="line2d_4">
      <g>
       <use xlink:href="#m47d4bf5285" x="99.945225" y="455.955539" style="stroke: #000000; stroke-width: 0.8"/>
      </g>
     </g>
    </g>
    <g id="xtick_5">
     <g id="line2d_5">
      <g>
       <use xlink:href="#m47d4bf5285" x="115.11652" y="455.955539" style="stroke: #000000; stroke-width: 0.8"/>
      </g>
     </g>
    </g>
    <g id="xtick_6">
     <g id="line2d_6">
      <g>
       <use xlink:href="#m47d4bf5285" x="130.287814" y="455.955539" style="stroke: #000000; stroke-width: 0.8"/>
      </g>
     </g>
     <g id="text_2">
      <!-- 5 -->
      <g transform="translate(129.989504 472.827413) rotate(-45) scale(0.1 -0.1)">
       <defs>
        <path id="DejaVuSans-35" d="M 691 4666 
L 3169 4666 
L 3169 4134 
L 1269 4134 
L 1269 2991 
Q 1406 3038 1543 3061 
Q 1681 3084 1819 3084 
Q 2600 3084 3056 2656 
Q 3513 2228 3513 1497 
Q 3513 744 3044 326 
Q 2575 -91 1722 -91 
Q 1428 -91 1123 -41 
Q 819 9 494 109 
L 494 744 
Q 775 591 1075 516 
Q 1375 441 1709 441 
Q 2250 441 2565 725 
Q 2881 1009 2881 1497 
Q 2881 1984 2565 2268 
Q 2250 2553 1709 2553 
Q 1456 2553 1204 2497 
Q 953 2441 691 2322 
L 691 4666 
z
" transform="scale(0.015625)"/>
       </defs>
       <use xlink:href="#DejaVuSans-35"/>
      </g>
     </g>
    </g>
    <g id="xtick_7">
     <g id="line2d_7">
      <g>
       <use xlink:href="#m47d4bf5285" x="145.459109" y="455.955539" style="stroke: #000000; stroke-width: 0.8"/>
      </g>
     </g>
    </g>
    <g id="xtick_8">
     <g id="line2d_8">
      <g>
       <use xlink:href="#m47d4bf5285" x="160.630403" y="455.955539" style="stroke: #000000; stroke-width: 0.8"/>
      </g>
     </g>
    </g>
    <g id="xtick_9">
     <g id="line2d_9">
      <g>
       <use xlink:href="#m47d4bf5285" x="175.801698" y="455.955539" style="stroke: #000000; stroke-width: 0.8"/>
      </g>
     </g>
    </g>
    <g id="xtick_10">
     <g id="line2d_10">
      <g>
       <use xlink:href="#m47d4bf5285" x="190.972992" y="455.955539" style="stroke: #000000; stroke-width: 0.8"/>
      </g>
     </g>
    </g>
    <g id="xtick_11">
     <g id="line2d_11">
      <g>
       <use xlink:href="#m47d4bf5285" x="206.144287" y="455.955539" style="stroke: #000000; stroke-width: 0.8"/>
      </g>
     </g>
     <g id="text_3">
      <!-- 10 -->
      <g transform="translate(203.596493 477.326379) rotate(-45) scale(0.1 -0.1)">
       <defs>
        <path id="DejaVuSans-31" d="M 794 531 
L 1825 531 
L 1825 4091 
L 703 3866 
L 703 4441 
L 1819 4666 
L 2450 4666 
L 2450 531 
L 3481 531 
L 3481 0 
L 794 0 
L 794 531 
z
" transform="scale(0.015625)"/>
       </defs>
       <use xlink:href="#DejaVuSans-31"/>
       <use xlink:href="#DejaVuSans-30" transform="translate(63.623047 0)"/>
      </g>
     </g>
    </g>
    <g id="xtick_12">
     <g id="line2d_12">
      <g>
       <use xlink:href="#m47d4bf5285" x="221.315582" y="455.955539" style="stroke: #000000; stroke-width: 0.8"/>
      </g>
     </g>
     <g id="text_4">
      <!-- 11 -->
      <g transform="translate(218.767787 477.326379) rotate(-45) scale(0.1 -0.1)">
       <use xlink:href="#DejaVuSans-31"/>
       <use xlink:href="#DejaVuSans-31" transform="translate(63.623047 0)"/>
      </g>
     </g>
    </g>
    <g id="xtick_13">
     <g id="line2d_13">
      <g>
       <use xlink:href="#m47d4bf5285" x="236.486876" y="455.955539" style="stroke: #000000; stroke-width: 0.8"/>
      </g>
     </g>
    </g>
    <g id="xtick_14">
     <g id="line2d_14">
      <g>
       <use xlink:href="#m47d4bf5285" x="251.658171" y="455.955539" style="stroke: #000000; stroke-width: 0.8"/>
      </g>
     </g>
    </g>
    <g id="xtick_15">
     <g id="line2d_15">
      <g>
       <use xlink:href="#m47d4bf5285" x="266.829465" y="455.955539" style="stroke: #000000; stroke-width: 0.8"/>
      </g>
     </g>
    </g>
    <g id="xtick_16">
     <g id="line2d_16">
      <g>
       <use xlink:href="#m47d4bf5285" x="282.00076" y="455.955539" style="stroke: #000000; stroke-width: 0.8"/>
      </g>
     </g>
     <g id="text_5">
      <!-- 15 -->
      <g transform="translate(279.452966 477.326379) rotate(-45) scale(0.1 -0.1)">
       <use xlink:href="#DejaVuSans-31"/>
       <use xlink:href="#DejaVuSans-35" transform="translate(63.623047 0)"/>
      </g>
     </g>
    </g>
    <g id="xtick_17">
     <g id="line2d_17">
      <g>
       <use xlink:href="#m47d4bf5285" x="297.172054" y="455.955539" style="stroke: #000000; stroke-width: 0.8"/>
      </g>
     </g>
    </g>
    <g id="xtick_18">
     <g id="line2d_18">
      <g>
       <use xlink:href="#m47d4bf5285" x="312.343349" y="455.955539" style="stroke: #000000; stroke-width: 0.8"/>
      </g>
     </g>
    </g>
    <g id="xtick_19">
     <g id="line2d_19">
      <g>
       <use xlink:href="#m47d4bf5285" x="327.514644" y="455.955539" style="stroke: #000000; stroke-width: 0.8"/>
      </g>
     </g>
    </g>
    <g id="xtick_20">
     <g id="line2d_20">
      <g>
       <use xlink:href="#m47d4bf5285" x="342.685938" y="455.955539" style="stroke: #000000; stroke-width: 0.8"/>
      </g>
     </g>
    </g>
    <g id="xtick_21">
     <g id="line2d_21">
      <g>
       <use xlink:href="#m47d4bf5285" x="357.857233" y="455.955539" style="stroke: #000000; stroke-width: 0.8"/>
      </g>
     </g>
     <g id="text_6">
      <!-- 20 -->
      <g transform="translate(355.309439 477.326379) rotate(-45) scale(0.1 -0.1)">
       <defs>
        <path id="DejaVuSans-32" d="M 1228 531 
L 3431 531 
L 3431 0 
L 469 0 
L 469 531 
Q 828 903 1448 1529 
Q 2069 2156 2228 2338 
Q 2531 2678 2651 2914 
Q 2772 3150 2772 3378 
Q 2772 3750 2511 3984 
Q 2250 4219 1831 4219 
Q 1534 4219 1204 4116 
Q 875 4013 500 3803 
L 500 4441 
Q 881 4594 1212 4672 
Q 1544 4750 1819 4750 
Q 2544 4750 2975 4387 
Q 3406 4025 3406 3419 
Q 3406 3131 3298 2873 
Q 3191 2616 2906 2266 
Q 2828 2175 2409 1742 
Q 1991 1309 1228 531 
z
" transform="scale(0.015625)"/>
       </defs>
       <use xlink:href="#DejaVuSans-32"/>
       <use xlink:href="#DejaVuSans-30" transform="translate(63.623047 0)"/>
      </g>
     </g>
    </g>
    <g id="xtick_22">
     <g id="line2d_22">
      <g>
       <use xlink:href="#m47d4bf5285" x="373.028527" y="455.955539" style="stroke: #000000; stroke-width: 0.8"/>
      </g>
     </g>
    </g>
    <g id="xtick_23">
     <g id="line2d_23">
      <g>
       <use xlink:href="#m47d4bf5285" x="388.199822" y="455.955539" style="stroke: #000000; stroke-width: 0.8"/>
      </g>
     </g>
    </g>
    <g id="xtick_24">
     <g id="line2d_24">
      <g>
       <use xlink:href="#m47d4bf5285" x="403.371116" y="455.955539" style="stroke: #000000; stroke-width: 0.8"/>
      </g>
     </g>
     <g id="text_7">
      <!-- 23 -->
      <g transform="translate(400.823322 477.326379) rotate(-45) scale(0.1 -0.1)">
       <defs>
        <path id="DejaVuSans-33" d="M 2597 2516 
Q 3050 2419 3304 2112 
Q 3559 1806 3559 1356 
Q 3559 666 3084 287 
Q 2609 -91 1734 -91 
Q 1441 -91 1130 -33 
Q 819 25 488 141 
L 488 750 
Q 750 597 1062 519 
Q 1375 441 1716 441 
Q 2309 441 2620 675 
Q 2931 909 2931 1356 
Q 2931 1769 2642 2001 
Q 2353 2234 1838 2234 
L 1294 2234 
L 1294 2753 
L 1863 2753 
Q 2328 2753 2575 2939 
Q 2822 3125 2822 3475 
Q 2822 3834 2567 4026 
Q 2313 4219 1838 4219 
Q 1578 4219 1281 4162 
Q 984 4106 628 3988 
L 628 4550 
Q 988 4650 1302 4700 
Q 1616 4750 1894 4750 
Q 2613 4750 3031 4423 
Q 3450 4097 3450 3541 
Q 3450 3153 3228 2886 
Q 3006 2619 2597 2516 
z
" transform="scale(0.015625)"/>
       </defs>
       <use xlink:href="#DejaVuSans-32"/>
       <use xlink:href="#DejaVuSans-33" transform="translate(63.623047 0)"/>
      </g>
     </g>
    </g>
    <g id="xtick_25">
     <g id="line2d_25">
      <g>
       <use xlink:href="#m47d4bf5285" x="418.542411" y="455.955539" style="stroke: #000000; stroke-width: 0.8"/>
      </g>
     </g>
    </g>
    <g id="xtick_26">
     <g id="line2d_26">
      <g>
       <use xlink:href="#m47d4bf5285" x="433.713705" y="455.955539" style="stroke: #000000; stroke-width: 0.8"/>
      </g>
     </g>
     <g id="text_8">
      <!-- 25 -->
      <g transform="translate(431.165911 477.326379) rotate(-45) scale(0.1 -0.1)">
       <use xlink:href="#DejaVuSans-32"/>
       <use xlink:href="#DejaVuSans-35" transform="translate(63.623047 0)"/>
      </g>
     </g>
    </g>
    <g id="xtick_27">
     <g id="line2d_27">
      <g>
       <use xlink:href="#m47d4bf5285" x="448.885" y="455.955539" style="stroke: #000000; stroke-width: 0.8"/>
      </g>
     </g>
    </g>
    <g id="xtick_28">
     <g id="line2d_28">
      <g>
       <use xlink:href="#m47d4bf5285" x="464.056295" y="455.955539" style="stroke: #000000; stroke-width: 0.8"/>
      </g>
     </g>
    </g>
    <g id="xtick_29">
     <g id="line2d_29">
      <g>
       <use xlink:href="#m47d4bf5285" x="479.227589" y="455.955539" style="stroke: #000000; stroke-width: 0.8"/>
      </g>
     </g>
    </g>
    <g id="xtick_30">
     <g id="line2d_30">
      <g>
       <use xlink:href="#m47d4bf5285" x="494.398884" y="455.955539" style="stroke: #000000; stroke-width: 0.8"/>
      </g>
     </g>
    </g>
    <g id="xtick_31">
     <g id="line2d_31">
      <g>
       <use xlink:href="#m47d4bf5285" x="509.570178" y="455.955539" style="stroke: #000000; stroke-width: 0.8"/>
      </g>
     </g>
     <g id="text_9">
      <!-- 30 -->
      <g transform="translate(507.022384 477.326379) rotate(-45) scale(0.1 -0.1)">
       <use xlink:href="#DejaVuSans-33"/>
       <use xlink:href="#DejaVuSans-30" transform="translate(63.623047 0)"/>
      </g>
     </g>
    </g>
    <g id="xtick_32">
     <g id="line2d_32">
      <g>
       <use xlink:href="#m47d4bf5285" x="524.741473" y="455.955539" style="stroke: #000000; stroke-width: 0.8"/>
      </g>
     </g>
    </g>
    <g id="xtick_33">
     <g id="line2d_33">
      <g>
       <use xlink:href="#m47d4bf5285" x="539.912767" y="455.955539" style="stroke: #000000; stroke-width: 0.8"/>
      </g>
     </g>
    </g>
    <g id="xtick_34">
     <g id="line2d_34">
      <g>
       <use xlink:href="#m47d4bf5285" x="555.084062" y="455.955539" style="stroke: #000000; stroke-width: 0.8"/>
      </g>
     </g>
    </g>
    <g id="xtick_35">
     <g id="line2d_35">
      <g>
       <use xlink:href="#m47d4bf5285" x="570.255356" y="455.955539" style="stroke: #000000; stroke-width: 0.8"/>
      </g>
     </g>
    </g>
    <g id="xtick_36">
     <g id="line2d_36">
      <g>
       <use xlink:href="#m47d4bf5285" x="585.426651" y="455.955539" style="stroke: #000000; stroke-width: 0.8"/>
      </g>
     </g>
     <g id="text_10">
      <!-- 35 -->
      <g transform="translate(582.878857 477.326379) rotate(-45) scale(0.1 -0.1)">
       <use xlink:href="#DejaVuSans-33"/>
       <use xlink:href="#DejaVuSans-35" transform="translate(63.623047 0)"/>
      </g>
     </g>
    </g>
    <g id="xtick_37">
     <g id="line2d_37">
      <g>
       <use xlink:href="#m47d4bf5285" x="600.597946" y="455.955539" style="stroke: #000000; stroke-width: 0.8"/>
      </g>
     </g>
    </g>
    <g id="xtick_38">
     <g id="line2d_38">
      <g>
       <use xlink:href="#m47d4bf5285" x="615.76924" y="455.955539" style="stroke: #000000; stroke-width: 0.8"/>
      </g>
     </g>
    </g>
    <g id="xtick_39">
     <g id="line2d_39">
      <g>
       <use xlink:href="#m47d4bf5285" x="630.940535" y="455.955539" style="stroke: #000000; stroke-width: 0.8"/>
      </g>
     </g>
    </g>
    <g id="xtick_40">
     <g id="line2d_40">
      <g>
       <use xlink:href="#m47d4bf5285" x="646.111829" y="455.955539" style="stroke: #000000; stroke-width: 0.8"/>
      </g>
     </g>
    </g>
    <g id="xtick_41">
     <g id="line2d_41">
      <g>
       <use xlink:href="#m47d4bf5285" x="661.283124" y="455.955539" style="stroke: #000000; stroke-width: 0.8"/>
      </g>
     </g>
     <g id="text_11">
      <!-- 40 -->
      <g transform="translate(658.73533 477.326379) rotate(-45) scale(0.1 -0.1)">
       <defs>
        <path id="DejaVuSans-34" d="M 2419 4116 
L 825 1625 
L 2419 1625 
L 2419 4116 
z
M 2253 4666 
L 3047 4666 
L 3047 1625 
L 3713 1625 
L 3713 1100 
L 3047 1100 
L 3047 0 
L 2419 0 
L 2419 1100 
L 313 1100 
L 313 1709 
L 2253 4666 
z
" transform="scale(0.015625)"/>
       </defs>
       <use xlink:href="#DejaVuSans-34"/>
       <use xlink:href="#DejaVuSans-30" transform="translate(63.623047 0)"/>
      </g>
     </g>
    </g>
    <g id="xtick_42">
     <g id="line2d_42">
      <g>
       <use xlink:href="#m47d4bf5285" x="676.454418" y="455.955539" style="stroke: #000000; stroke-width: 0.8"/>
      </g>
     </g>
    </g>
    <g id="xtick_43">
     <g id="line2d_43">
      <g>
       <use xlink:href="#m47d4bf5285" x="691.625713" y="455.955539" style="stroke: #000000; stroke-width: 0.8"/>
      </g>
     </g>
    </g>
    <g id="xtick_44">
     <g id="line2d_44">
      <g>
       <use xlink:href="#m47d4bf5285" x="706.797008" y="455.955539" style="stroke: #000000; stroke-width: 0.8"/>
      </g>
     </g>
    </g>
    <g id="xtick_45">
     <g id="line2d_45">
      <g>
       <use xlink:href="#m47d4bf5285" x="721.968302" y="455.955539" style="stroke: #000000; stroke-width: 0.8"/>
      </g>
     </g>
    </g>
    <g id="xtick_46">
     <g id="line2d_46">
      <g>
       <use xlink:href="#m47d4bf5285" x="737.139597" y="455.955539" style="stroke: #000000; stroke-width: 0.8"/>
      </g>
     </g>
     <g id="text_12">
      <!-- 45 -->
      <g transform="translate(734.591803 477.326379) rotate(-45) scale(0.1 -0.1)">
       <use xlink:href="#DejaVuSans-34"/>
       <use xlink:href="#DejaVuSans-35" transform="translate(63.623047 0)"/>
      </g>
     </g>
    </g>
    <g id="xtick_47">
     <g id="line2d_47">
      <g>
       <use xlink:href="#m47d4bf5285" x="752.310891" y="455.955539" style="stroke: #000000; stroke-width: 0.8"/>
      </g>
     </g>
    </g>
    <g id="xtick_48">
     <g id="line2d_48">
      <g>
       <use xlink:href="#m47d4bf5285" x="767.482186" y="455.955539" style="stroke: #000000; stroke-width: 0.8"/>
      </g>
     </g>
     <g id="text_13">
      <!-- 47 -->
      <g transform="translate(764.934392 477.326379) rotate(-45) scale(0.1 -0.1)">
       <defs>
        <path id="DejaVuSans-37" d="M 525 4666 
L 3525 4666 
L 3525 4397 
L 1831 0 
L 1172 0 
L 2766 4134 
L 525 4134 
L 525 4666 
z
" transform="scale(0.015625)"/>
       </defs>
       <use xlink:href="#DejaVuSans-34"/>
       <use xlink:href="#DejaVuSans-37" transform="translate(63.623047 0)"/>
      </g>
     </g>
    </g>
    <g id="xtick_49">
     <g id="line2d_49">
      <g>
       <use xlink:href="#m47d4bf5285" x="782.65348" y="455.955539" style="stroke: #000000; stroke-width: 0.8"/>
      </g>
     </g>
    </g>
    <g id="xtick_50">
     <g id="line2d_50">
      <g>
       <use xlink:href="#m47d4bf5285" x="797.824775" y="455.955539" style="stroke: #000000; stroke-width: 0.8"/>
      </g>
     </g>
    </g>
    <g id="xtick_51">
     <g id="line2d_51">
      <g>
       <use xlink:href="#m47d4bf5285" x="812.996069" y="455.955539" style="stroke: #000000; stroke-width: 0.8"/>
      </g>
     </g>
     <g id="text_14">
      <!-- 50 -->
      <g transform="translate(810.448275 477.326379) rotate(-45) scale(0.1 -0.1)">
       <use xlink:href="#DejaVuSans-35"/>
       <use xlink:href="#DejaVuSans-30" transform="translate(63.623047 0)"/>
      </g>
     </g>
    </g>
    <g id="xtick_52">
     <g id="line2d_52">
      <g>
       <use xlink:href="#m47d4bf5285" x="828.167364" y="455.955539" style="stroke: #000000; stroke-width: 0.8"/>
      </g>
     </g>
    </g>
    <g id="xtick_53">
     <g id="line2d_53">
      <g>
       <use xlink:href="#m47d4bf5285" x="843.338659" y="455.955539" style="stroke: #000000; stroke-width: 0.8"/>
      </g>
     </g>
    </g>
    <g id="text_15">
     <!-- Game Minute -->
     <g transform="translate(415.333438 490.395378) scale(0.1 -0.1)">
      <defs>
       <path id="DejaVuSans-47" d="M 3809 666 
L 3809 1919 
L 2778 1919 
L 2778 2438 
L 4434 2438 
L 4434 434 
Q 4069 175 3628 42 
Q 3188 -91 2688 -91 
Q 1594 -91 976 548 
Q 359 1188 359 2328 
Q 359 3472 976 4111 
Q 1594 4750 2688 4750 
Q 3144 4750 3555 4637 
Q 3966 4525 4313 4306 
L 4313 3634 
Q 3963 3931 3569 4081 
Q 3175 4231 2741 4231 
Q 1884 4231 1454 3753 
Q 1025 3275 1025 2328 
Q 1025 1384 1454 906 
Q 1884 428 2741 428 
Q 3075 428 3337 486 
Q 3600 544 3809 666 
z
" transform="scale(0.015625)"/>
       <path id="DejaVuSans-61" d="M 2194 1759 
Q 1497 1759 1228 1600 
Q 959 1441 959 1056 
Q 959 750 1161 570 
Q 1363 391 1709 391 
Q 2188 391 2477 730 
Q 2766 1069 2766 1631 
L 2766 1759 
L 2194 1759 
z
M 3341 1997 
L 3341 0 
L 2766 0 
L 2766 531 
Q 2569 213 2275 61 
Q 1981 -91 1556 -91 
Q 1019 -91 701 211 
Q 384 513 384 1019 
Q 384 1609 779 1909 
Q 1175 2209 1959 2209 
L 2766 2209 
L 2766 2266 
Q 2766 2663 2505 2880 
Q 2244 3097 1772 3097 
Q 1472 3097 1187 3025 
Q 903 2953 641 2809 
L 641 3341 
Q 956 3463 1253 3523 
Q 1550 3584 1831 3584 
Q 2591 3584 2966 3190 
Q 3341 2797 3341 1997 
z
" transform="scale(0.015625)"/>
       <path id="DejaVuSans-6d" d="M 3328 2828 
Q 3544 3216 3844 3400 
Q 4144 3584 4550 3584 
Q 5097 3584 5394 3201 
Q 5691 2819 5691 2113 
L 5691 0 
L 5113 0 
L 5113 2094 
Q 5113 2597 4934 2840 
Q 4756 3084 4391 3084 
Q 3944 3084 3684 2787 
Q 3425 2491 3425 1978 
L 3425 0 
L 2847 0 
L 2847 2094 
Q 2847 2600 2669 2842 
Q 2491 3084 2119 3084 
Q 1678 3084 1418 2786 
Q 1159 2488 1159 1978 
L 1159 0 
L 581 0 
L 581 3500 
L 1159 3500 
L 1159 2956 
Q 1356 3278 1631 3431 
Q 1906 3584 2284 3584 
Q 2666 3584 2933 3390 
Q 3200 3197 3328 2828 
z
" transform="scale(0.015625)"/>
       <path id="DejaVuSans-65" d="M 3597 1894 
L 3597 1613 
L 953 1613 
Q 991 1019 1311 708 
Q 1631 397 2203 397 
Q 2534 397 2845 478 
Q 3156 559 3463 722 
L 3463 178 
Q 3153 47 2828 -22 
Q 2503 -91 2169 -91 
Q 1331 -91 842 396 
Q 353 884 353 1716 
Q 353 2575 817 3079 
Q 1281 3584 2069 3584 
Q 2775 3584 3186 3129 
Q 3597 2675 3597 1894 
z
M 3022 2063 
Q 3016 2534 2758 2815 
Q 2500 3097 2075 3097 
Q 1594 3097 1305 2825 
Q 1016 2553 972 2059 
L 3022 2063 
z
" transform="scale(0.015625)"/>
       <path id="DejaVuSans-20" transform="scale(0.015625)"/>
       <path id="DejaVuSans-4d" d="M 628 4666 
L 1569 4666 
L 2759 1491 
L 3956 4666 
L 4897 4666 
L 4897 0 
L 4281 0 
L 4281 4097 
L 3078 897 
L 2444 897 
L 1241 4097 
L 1241 0 
L 628 0 
L 628 4666 
z
" transform="scale(0.015625)"/>
       <path id="DejaVuSans-69" d="M 603 3500 
L 1178 3500 
L 1178 0 
L 603 0 
L 603 3500 
z
M 603 4863 
L 1178 4863 
L 1178 4134 
L 603 4134 
L 603 4863 
z
" transform="scale(0.015625)"/>
       <path id="DejaVuSans-6e" d="M 3513 2113 
L 3513 0 
L 2938 0 
L 2938 2094 
Q 2938 2591 2744 2837 
Q 2550 3084 2163 3084 
Q 1697 3084 1428 2787 
Q 1159 2491 1159 1978 
L 1159 0 
L 581 0 
L 581 3500 
L 1159 3500 
L 1159 2956 
Q 1366 3272 1645 3428 
Q 1925 3584 2291 3584 
Q 2894 3584 3203 3211 
Q 3513 2838 3513 2113 
z
" transform="scale(0.015625)"/>
       <path id="DejaVuSans-75" d="M 544 1381 
L 544 3500 
L 1119 3500 
L 1119 1403 
Q 1119 906 1312 657 
Q 1506 409 1894 409 
Q 2359 409 2629 706 
Q 2900 1003 2900 1516 
L 2900 3500 
L 3475 3500 
L 3475 0 
L 2900 0 
L 2900 538 
Q 2691 219 2414 64 
Q 2138 -91 1772 -91 
Q 1169 -91 856 284 
Q 544 659 544 1381 
z
M 1991 3584 
L 1991 3584 
z
" transform="scale(0.015625)"/>
       <path id="DejaVuSans-74" d="M 1172 4494 
L 1172 3500 
L 2356 3500 
L 2356 3053 
L 1172 3053 
L 1172 1153 
Q 1172 725 1289 603 
Q 1406 481 1766 481 
L 2356 481 
L 2356 0 
L 1766 0 
Q 1100 0 847 248 
Q 594 497 594 1153 
L 594 3053 
L 172 3053 
L 172 3500 
L 594 3500 
L 594 4494 
L 1172 4494 
z
" transform="scale(0.015625)"/>
      </defs>
      <use xlink:href="#DejaVuSans-47"/>
      <use xlink:href="#DejaVuSans-61" transform="translate(77.490234 0)"/>
      <use xlink:href="#DejaVuSans-6d" transform="translate(138.769531 0)"/>
      <use xlink:href="#DejaVuSans-65" transform="translate(236.181641 0)"/>
      <use xlink:href="#DejaVuSans-20" transform="translate(297.705078 0)"/>
      <use xlink:href="#DejaVuSans-4d" transform="translate(329.492188 0)"/>
      <use xlink:href="#DejaVuSans-69" transform="translate(415.771484 0)"/>
      <use xlink:href="#DejaVuSans-6e" transform="translate(443.554688 0)"/>
      <use xlink:href="#DejaVuSans-75" transform="translate(506.933594 0)"/>
      <use xlink:href="#DejaVuSans-74" transform="translate(570.3125 0)"/>
      <use xlink:href="#DejaVuSans-65" transform="translate(609.521484 0)"/>
     </g>
    </g>
   </g>
   <g id="matplotlib.axis_2">
    <g id="ytick_1">
     <g id="line2d_54">
      <path d="M 44.57 455.955539 
L 853.2 455.955539 
" clip-path="url(#p8056f5eb1b)" style="fill: none; stroke-dasharray: 2.96,1.28; stroke-dashoffset: 0; stroke: #b0b0b0; stroke-opacity: 0.6; stroke-width: 0.8"/>
     </g>
     <g id="line2d_55">
      <defs>
       <path id="mf842e7df01" d="M 0 0 
L -3.5 0 
" style="stroke: #000000; stroke-width: 0.8"/>
      </defs>
      <g>
       <use xlink:href="#mf842e7df01" x="44.57" y="455.955539" style="stroke: #000000; stroke-width: 0.8"/>
      </g>
     </g>
     <g id="text_16">
      <!-- 0 -->
      <g transform="translate(31.2075 459.754758) scale(0.1 -0.1)">
       <use xlink:href="#DejaVuSans-30"/>
      </g>
     </g>
    </g>
    <g id="ytick_2">
     <g id="line2d_56">
      <path d="M 44.57 367.120024 
L 853.2 367.120024 
" clip-path="url(#p8056f5eb1b)" style="fill: none; stroke-dasharray: 2.96,1.28; stroke-dashoffset: 0; stroke: #b0b0b0; stroke-opacity: 0.6; stroke-width: 0.8"/>
     </g>
     <g id="line2d_57">
      <g>
       <use xlink:href="#mf842e7df01" x="44.57" y="367.120024" style="stroke: #000000; stroke-width: 0.8"/>
      </g>
     </g>
     <g id="text_17">
      <!-- 20 -->
      <g transform="translate(24.845 370.919242) scale(0.1 -0.1)">
       <use xlink:href="#DejaVuSans-32"/>
       <use xlink:href="#DejaVuSans-30" transform="translate(63.623047 0)"/>
      </g>
     </g>
    </g>
    <g id="ytick_3">
     <g id="line2d_58">
      <path d="M 44.57 278.284508 
L 853.2 278.284508 
" clip-path="url(#p8056f5eb1b)" style="fill: none; stroke-dasharray: 2.96,1.28; stroke-dashoffset: 0; stroke: #b0b0b0; stroke-opacity: 0.6; stroke-width: 0.8"/>
     </g>
     <g id="line2d_59">
      <g>
       <use xlink:href="#mf842e7df01" x="44.57" y="278.284508" style="stroke: #000000; stroke-width: 0.8"/>
      </g>
     </g>
     <g id="text_18">
      <!-- 40 -->
      <g transform="translate(24.845 282.083727) scale(0.1 -0.1)">
       <use xlink:href="#DejaVuSans-34"/>
       <use xlink:href="#DejaVuSans-30" transform="translate(63.623047 0)"/>
      </g>
     </g>
    </g>
    <g id="ytick_4">
     <g id="line2d_60">
      <path d="M 44.57 189.448993 
L 853.2 189.448993 
" clip-path="url(#p8056f5eb1b)" style="fill: none; stroke-dasharray: 2.96,1.28; stroke-dashoffset: 0; stroke: #b0b0b0; stroke-opacity: 0.6; stroke-width: 0.8"/>
     </g>
     <g id="line2d_61">
      <g>
       <use xlink:href="#mf842e7df01" x="44.57" y="189.448993" style="stroke: #000000; stroke-width: 0.8"/>
      </g>
     </g>
     <g id="text_19">
      <!-- 60 -->
      <g transform="translate(24.845 193.248212) scale(0.1 -0.1)">
       <defs>
        <path id="DejaVuSans-36" d="M 2113 2584 
Q 1688 2584 1439 2293 
Q 1191 2003 1191 1497 
Q 1191 994 1439 701 
Q 1688 409 2113 409 
Q 2538 409 2786 701 
Q 3034 994 3034 1497 
Q 3034 2003 2786 2293 
Q 2538 2584 2113 2584 
z
M 3366 4563 
L 3366 3988 
Q 3128 4100 2886 4159 
Q 2644 4219 2406 4219 
Q 1781 4219 1451 3797 
Q 1122 3375 1075 2522 
Q 1259 2794 1537 2939 
Q 1816 3084 2150 3084 
Q 2853 3084 3261 2657 
Q 3669 2231 3669 1497 
Q 3669 778 3244 343 
Q 2819 -91 2113 -91 
Q 1303 -91 875 529 
Q 447 1150 447 2328 
Q 447 3434 972 4092 
Q 1497 4750 2381 4750 
Q 2619 4750 2861 4703 
Q 3103 4656 3366 4563 
z
" transform="scale(0.015625)"/>
       </defs>
       <use xlink:href="#DejaVuSans-36"/>
       <use xlink:href="#DejaVuSans-30" transform="translate(63.623047 0)"/>
      </g>
     </g>
    </g>
    <g id="ytick_5">
     <g id="line2d_62">
      <path d="M 44.57 100.613478 
L 853.2 100.613478 
" clip-path="url(#p8056f5eb1b)" style="fill: none; stroke-dasharray: 2.96,1.28; stroke-dashoffset: 0; stroke: #b0b0b0; stroke-opacity: 0.6; stroke-width: 0.8"/>
     </g>
     <g id="line2d_63">
      <g>
       <use xlink:href="#mf842e7df01" x="44.57" y="100.613478" style="stroke: #000000; stroke-width: 0.8"/>
      </g>
     </g>
     <g id="text_20">
      <!-- 80 -->
      <g transform="translate(24.845 104.412696) scale(0.1 -0.1)">
       <defs>
        <path id="DejaVuSans-38" d="M 2034 2216 
Q 1584 2216 1326 1975 
Q 1069 1734 1069 1313 
Q 1069 891 1326 650 
Q 1584 409 2034 409 
Q 2484 409 2743 651 
Q 3003 894 3003 1313 
Q 3003 1734 2745 1975 
Q 2488 2216 2034 2216 
z
M 1403 2484 
Q 997 2584 770 2862 
Q 544 3141 544 3541 
Q 544 4100 942 4425 
Q 1341 4750 2034 4750 
Q 2731 4750 3128 4425 
Q 3525 4100 3525 3541 
Q 3525 3141 3298 2862 
Q 3072 2584 2669 2484 
Q 3125 2378 3379 2068 
Q 3634 1759 3634 1313 
Q 3634 634 3220 271 
Q 2806 -91 2034 -91 
Q 1263 -91 848 271 
Q 434 634 434 1313 
Q 434 1759 690 2068 
Q 947 2378 1403 2484 
z
M 1172 3481 
Q 1172 3119 1398 2916 
Q 1625 2713 2034 2713 
Q 2441 2713 2670 2916 
Q 2900 3119 2900 3481 
Q 2900 3844 2670 4047 
Q 2441 4250 2034 4250 
Q 1625 4250 1398 4047 
Q 1172 3844 1172 3481 
z
" transform="scale(0.015625)"/>
       </defs>
       <use xlink:href="#DejaVuSans-38"/>
       <use xlink:href="#DejaVuSans-30" transform="translate(63.623047 0)"/>
      </g>
     </g>
    </g>
    <g id="text_21">
     <!-- Points Scored -->
     <g transform="translate(18.765312 275.199019) rotate(-90) scale(0.1 -0.1)">
      <defs>
       <path id="DejaVuSans-50" d="M 1259 4147 
L 1259 2394 
L 2053 2394 
Q 2494 2394 2734 2622 
Q 2975 2850 2975 3272 
Q 2975 3691 2734 3919 
Q 2494 4147 2053 4147 
L 1259 4147 
z
M 628 4666 
L 2053 4666 
Q 2838 4666 3239 4311 
Q 3641 3956 3641 3272 
Q 3641 2581 3239 2228 
Q 2838 1875 2053 1875 
L 1259 1875 
L 1259 0 
L 628 0 
L 628 4666 
z
" transform="scale(0.015625)"/>
       <path id="DejaVuSans-6f" d="M 1959 3097 
Q 1497 3097 1228 2736 
Q 959 2375 959 1747 
Q 959 1119 1226 758 
Q 1494 397 1959 397 
Q 2419 397 2687 759 
Q 2956 1122 2956 1747 
Q 2956 2369 2687 2733 
Q 2419 3097 1959 3097 
z
M 1959 3584 
Q 2709 3584 3137 3096 
Q 3566 2609 3566 1747 
Q 3566 888 3137 398 
Q 2709 -91 1959 -91 
Q 1206 -91 779 398 
Q 353 888 353 1747 
Q 353 2609 779 3096 
Q 1206 3584 1959 3584 
z
" transform="scale(0.015625)"/>
       <path id="DejaVuSans-73" d="M 2834 3397 
L 2834 2853 
Q 2591 2978 2328 3040 
Q 2066 3103 1784 3103 
Q 1356 3103 1142 2972 
Q 928 2841 928 2578 
Q 928 2378 1081 2264 
Q 1234 2150 1697 2047 
L 1894 2003 
Q 2506 1872 2764 1633 
Q 3022 1394 3022 966 
Q 3022 478 2636 193 
Q 2250 -91 1575 -91 
Q 1294 -91 989 -36 
Q 684 19 347 128 
L 347 722 
Q 666 556 975 473 
Q 1284 391 1588 391 
Q 1994 391 2212 530 
Q 2431 669 2431 922 
Q 2431 1156 2273 1281 
Q 2116 1406 1581 1522 
L 1381 1569 
Q 847 1681 609 1914 
Q 372 2147 372 2553 
Q 372 3047 722 3315 
Q 1072 3584 1716 3584 
Q 2034 3584 2315 3537 
Q 2597 3491 2834 3397 
z
" transform="scale(0.015625)"/>
       <path id="DejaVuSans-53" d="M 3425 4513 
L 3425 3897 
Q 3066 4069 2747 4153 
Q 2428 4238 2131 4238 
Q 1616 4238 1336 4038 
Q 1056 3838 1056 3469 
Q 1056 3159 1242 3001 
Q 1428 2844 1947 2747 
L 2328 2669 
Q 3034 2534 3370 2195 
Q 3706 1856 3706 1288 
Q 3706 609 3251 259 
Q 2797 -91 1919 -91 
Q 1588 -91 1214 -16 
Q 841 59 441 206 
L 441 856 
Q 825 641 1194 531 
Q 1563 422 1919 422 
Q 2459 422 2753 634 
Q 3047 847 3047 1241 
Q 3047 1584 2836 1778 
Q 2625 1972 2144 2069 
L 1759 2144 
Q 1053 2284 737 2584 
Q 422 2884 422 3419 
Q 422 4038 858 4394 
Q 1294 4750 2059 4750 
Q 2388 4750 2728 4690 
Q 3069 4631 3425 4513 
z
" transform="scale(0.015625)"/>
       <path id="DejaVuSans-63" d="M 3122 3366 
L 3122 2828 
Q 2878 2963 2633 3030 
Q 2388 3097 2138 3097 
Q 1578 3097 1268 2742 
Q 959 2388 959 1747 
Q 959 1106 1268 751 
Q 1578 397 2138 397 
Q 2388 397 2633 464 
Q 2878 531 3122 666 
L 3122 134 
Q 2881 22 2623 -34 
Q 2366 -91 2075 -91 
Q 1284 -91 818 406 
Q 353 903 353 1747 
Q 353 2603 823 3093 
Q 1294 3584 2113 3584 
Q 2378 3584 2631 3529 
Q 2884 3475 3122 3366 
z
" transform="scale(0.015625)"/>
       <path id="DejaVuSans-72" d="M 2631 2963 
Q 2534 3019 2420 3045 
Q 2306 3072 2169 3072 
Q 1681 3072 1420 2755 
Q 1159 2438 1159 1844 
L 1159 0 
L 581 0 
L 581 3500 
L 1159 3500 
L 1159 2956 
Q 1341 3275 1631 3429 
Q 1922 3584 2338 3584 
Q 2397 3584 2469 3576 
Q 2541 3569 2628 3553 
L 2631 2963 
z
" transform="scale(0.015625)"/>
       <path id="DejaVuSans-64" d="M 2906 2969 
L 2906 4863 
L 3481 4863 
L 3481 0 
L 2906 0 
L 2906 525 
Q 2725 213 2448 61 
Q 2172 -91 1784 -91 
Q 1150 -91 751 415 
Q 353 922 353 1747 
Q 353 2572 751 3078 
Q 1150 3584 1784 3584 
Q 2172 3584 2448 3432 
Q 2725 3281 2906 2969 
z
M 947 1747 
Q 947 1113 1208 752 
Q 1469 391 1925 391 
Q 2381 391 2643 752 
Q 2906 1113 2906 1747 
Q 2906 2381 2643 2742 
Q 2381 3103 1925 3103 
Q 1469 3103 1208 2742 
Q 947 2381 947 1747 
z
" transform="scale(0.015625)"/>
      </defs>
      <use xlink:href="#DejaVuSans-50"/>
      <use xlink:href="#DejaVuSans-6f" transform="translate(56.677734 0)"/>
      <use xlink:href="#DejaVuSans-69" transform="translate(117.859375 0)"/>
      <use xlink:href="#DejaVuSans-6e" transform="translate(145.642578 0)"/>
      <use xlink:href="#DejaVuSans-74" transform="translate(209.021484 0)"/>
      <use xlink:href="#DejaVuSans-73" transform="translate(248.230469 0)"/>
      <use xlink:href="#DejaVuSans-20" transform="translate(300.330078 0)"/>
      <use xlink:href="#DejaVuSans-53" transform="translate(332.117188 0)"/>
      <use xlink:href="#DejaVuSans-63" transform="translate(395.59375 0)"/>
      <use xlink:href="#DejaVuSans-6f" transform="translate(450.574219 0)"/>
      <use xlink:href="#DejaVuSans-72" transform="translate(511.755859 0)"/>
      <use xlink:href="#DejaVuSans-65" transform="translate(550.619141 0)"/>
      <use xlink:href="#DejaVuSans-64" transform="translate(612.142578 0)"/>
     </g>
    </g>
   </g>
   <g id="patch_162">
    <path d="M 44.57 455.955539 
L 44.57 26.88 
" style="fill: none; stroke: #000000; stroke-width: 0.8; stroke-linejoin: miter; stroke-linecap: square"/>
   </g>
   <g id="patch_163">
    <path d="M 853.2 455.955539 
L 853.2 26.88 
" style="fill: none; stroke: #000000; stroke-width: 0.8; stroke-linejoin: miter; stroke-linecap: square"/>
   </g>
   <g id="patch_164">
    <path d="M 44.57 455.955539 
L 853.2 455.955539 
" style="fill: none; stroke: #000000; stroke-width: 0.8; stroke-linejoin: miter; stroke-linecap: square"/>
   </g>
   <g id="patch_165">
    <path d="M 44.57 26.88 
L 853.2 26.88 
" style="fill: none; stroke: #000000; stroke-width: 0.8; stroke-linejoin: miter; stroke-linecap: square"/>
   </g>
   <g id="text_22">
    <!-- Jayson Tatum Scoring Timeline (2023-24) -->
    <g transform="translate(325.525 20.88) scale(0.12 -0.12)">
     <defs>
      <path id="DejaVuSans-4a" d="M 628 4666 
L 1259 4666 
L 1259 325 
Q 1259 -519 939 -900 
Q 619 -1281 -91 -1281 
L -331 -1281 
L -331 -750 
L -134 -750 
Q 284 -750 456 -515 
Q 628 -281 628 325 
L 628 4666 
z
" transform="scale(0.015625)"/>
      <path id="DejaVuSans-79" d="M 2059 -325 
Q 1816 -950 1584 -1140 
Q 1353 -1331 966 -1331 
L 506 -1331 
L 506 -850 
L 844 -850 
Q 1081 -850 1212 -737 
Q 1344 -625 1503 -206 
L 1606 56 
L 191 3500 
L 800 3500 
L 1894 763 
L 2988 3500 
L 3597 3500 
L 2059 -325 
z
" transform="scale(0.015625)"/>
      <path id="DejaVuSans-54" d="M -19 4666 
L 3928 4666 
L 3928 4134 
L 2272 4134 
L 2272 0 
L 1638 0 
L 1638 4134 
L -19 4134 
L -19 4666 
z
" transform="scale(0.015625)"/>
      <path id="DejaVuSans-67" d="M 2906 1791 
Q 2906 2416 2648 2759 
Q 2391 3103 1925 3103 
Q 1463 3103 1205 2759 
Q 947 2416 947 1791 
Q 947 1169 1205 825 
Q 1463 481 1925 481 
Q 2391 481 2648 825 
Q 2906 1169 2906 1791 
z
M 3481 434 
Q 3481 -459 3084 -895 
Q 2688 -1331 1869 -1331 
Q 1566 -1331 1297 -1286 
Q 1028 -1241 775 -1147 
L 775 -588 
Q 1028 -725 1275 -790 
Q 1522 -856 1778 -856 
Q 2344 -856 2625 -561 
Q 2906 -266 2906 331 
L 2906 616 
Q 2728 306 2450 153 
Q 2172 0 1784 0 
Q 1141 0 747 490 
Q 353 981 353 1791 
Q 353 2603 747 3093 
Q 1141 3584 1784 3584 
Q 2172 3584 2450 3431 
Q 2728 3278 2906 2969 
L 2906 3500 
L 3481 3500 
L 3481 434 
z
" transform="scale(0.015625)"/>
      <path id="DejaVuSans-6c" d="M 603 4863 
L 1178 4863 
L 1178 0 
L 603 0 
L 603 4863 
z
" transform="scale(0.015625)"/>
      <path id="DejaVuSans-28" d="M 1984 4856 
Q 1566 4138 1362 3434 
Q 1159 2731 1159 2009 
Q 1159 1288 1364 580 
Q 1569 -128 1984 -844 
L 1484 -844 
Q 1016 -109 783 600 
Q 550 1309 550 2009 
Q 550 2706 781 3412 
Q 1013 4119 1484 4856 
L 1984 4856 
z
" transform="scale(0.015625)"/>
      <path id="DejaVuSans-2d" d="M 313 2009 
L 1997 2009 
L 1997 1497 
L 313 1497 
L 313 2009 
z
" transform="scale(0.015625)"/>
      <path id="DejaVuSans-29" d="M 513 4856 
L 1013 4856 
Q 1481 4119 1714 3412 
Q 1947 2706 1947 2009 
Q 1947 1309 1714 600 
Q 1481 -109 1013 -844 
L 513 -844 
Q 928 -128 1133 580 
Q 1338 1288 1338 2009 
Q 1338 2731 1133 3434 
Q 928 4138 513 4856 
z
" transform="scale(0.015625)"/>
     </defs>
     <use xlink:href="#DejaVuSans-4a"/>
     <use xlink:href="#DejaVuSans-61" transform="translate(29.492188 0)"/>
     <use xlink:href="#DejaVuSans-79" transform="translate(90.771484 0)"/>
     <use xlink:href="#DejaVuSans-73" transform="translate(149.951172 0)"/>
     <use xlink:href="#DejaVuSans-6f" transform="translate(202.050781 0)"/>
     <use xlink:href="#DejaVuSans-6e" transform="translate(263.232422 0)"/>
     <use xlink:href="#DejaVuSans-20" transform="translate(326.611328 0)"/>
     <use xlink:href="#DejaVuSans-54" transform="translate(358.398438 0)"/>
     <use xlink:href="#DejaVuSans-61" transform="translate(402.982422 0)"/>
     <use xlink:href="#DejaVuSans-74" transform="translate(464.261719 0)"/>
     <use xlink:href="#DejaVuSans-75" transform="translate(503.470703 0)"/>
     <use xlink:href="#DejaVuSans-6d" transform="translate(566.849609 0)"/>
     <use xlink:href="#DejaVuSans-20" transform="translate(664.261719 0)"/>
     <use xlink:href="#DejaVuSans-53" transform="translate(696.048828 0)"/>
     <use xlink:href="#DejaVuSans-63" transform="translate(759.525391 0)"/>
     <use xlink:href="#DejaVuSans-6f" transform="translate(814.505859 0)"/>
     <use xlink:href="#DejaVuSans-72" transform="translate(875.6875 0)"/>
     <use xlink:href="#DejaVuSans-69" transform="translate(916.800781 0)"/>
     <use xlink:href="#DejaVuSans-6e" transform="translate(944.583984 0)"/>
     <use xlink:href="#DejaVuSans-67" transform="translate(1007.962891 0)"/>
     <use xlink:href="#DejaVuSans-20" transform="translate(1071.439453 0)"/>
     <use xlink:href="#DejaVuSans-54" transform="translate(1103.226562 0)"/>
     <use xlink:href="#DejaVuSans-69" transform="translate(1161.185547 0)"/>
     <use xlink:href="#DejaVuSans-6d" transform="translate(1188.96875 0)"/>
     <use xlink:href="#DejaVuSans-65" transform="translate(1286.380859 0)"/>
     <use xlink:href="#DejaVuSans-6c" transform="translate(1347.904297 0)"/>
     <use xlink:href="#DejaVuSans-69" transform="translate(1375.6875 0)"/>
     <use xlink:href="#DejaVuSans-6e" transform="translate(1403.470703 0)"/>
     <use xlink:href="#DejaVuSans-65" transform="translate(1466.849609 0)"/>
     <use xlink:href="#DejaVuSans-20" transform="translate(1528.373047 0)"/>
     <use xlink:href="#DejaVuSans-28" transform="translate(1560.160156 0)"/>
     <use xlink:href="#DejaVuSans-32" transform="translate(1599.173828 0)"/>
     <use xlink:href="#DejaVuSans-30" transform="translate(1662.796875 0)"/>
     <use xlink:href="#DejaVuSans-32" transform="translate(1726.419922 0)"/>
     <use xlink:href="#DejaVuSans-33" transform="translate(1790.042969 0)"/>
     <use xlink:href="#DejaVuSans-2d" transform="translate(1853.666016 0)"/>
     <use xlink:href="#DejaVuSans-32" transform="translate(1889.75 0)"/>
     <use xlink:href="#DejaVuSans-34" transform="translate(1953.373047 0)"/>
     <use xlink:href="#DejaVuSans-29" transform="translate(2016.996094 0)"/>
    </g>
   </g>
   <g id="legend_1">
    <g id="patch_166">
     <path d="M 793.33125 93.5925 
L 846.2 93.5925 
Q 848.2 93.5925 848.2 91.5925 
L 848.2 33.88 
Q 848.2 31.88 846.2 31.88 
L 793.33125 31.88 
Q 791.33125 31.88 791.33125 33.88 
L 791.33125 91.5925 
Q 791.33125 93.5925 793.33125 93.5925 
z
" style="fill: #ffffff; opacity: 0.8; stroke: #cccccc; stroke-linejoin: miter"/>
    </g>
    <g id="text_23">
     <!-- Shot Type -->
     <g transform="translate(795.33125 43.478437) scale(0.1 -0.1)">
      <defs>
       <path id="DejaVuSans-68" d="M 3513 2113 
L 3513 0 
L 2938 0 
L 2938 2094 
Q 2938 2591 2744 2837 
Q 2550 3084 2163 3084 
Q 1697 3084 1428 2787 
Q 1159 2491 1159 1978 
L 1159 0 
L 581 0 
L 581 4863 
L 1159 4863 
L 1159 2956 
Q 1366 3272 1645 3428 
Q 1925 3584 2291 3584 
Q 2894 3584 3203 3211 
Q 3513 2838 3513 2113 
z
" transform="scale(0.015625)"/>
       <path id="DejaVuSans-70" d="M 1159 525 
L 1159 -1331 
L 581 -1331 
L 581 3500 
L 1159 3500 
L 1159 2969 
Q 1341 3281 1617 3432 
Q 1894 3584 2278 3584 
Q 2916 3584 3314 3078 
Q 3713 2572 3713 1747 
Q 3713 922 3314 415 
Q 2916 -91 2278 -91 
Q 1894 -91 1617 61 
Q 1341 213 1159 525 
z
M 3116 1747 
Q 3116 2381 2855 2742 
Q 2594 3103 2138 3103 
Q 1681 3103 1420 2742 
Q 1159 2381 1159 1747 
Q 1159 1113 1420 752 
Q 1681 391 2138 391 
Q 2594 391 2855 752 
Q 3116 1113 3116 1747 
z
" transform="scale(0.015625)"/>
      </defs>
      <use xlink:href="#DejaVuSans-53"/>
      <use xlink:href="#DejaVuSans-68" transform="translate(63.476562 0)"/>
      <use xlink:href="#DejaVuSans-6f" transform="translate(126.855469 0)"/>
      <use xlink:href="#DejaVuSans-74" transform="translate(188.037109 0)"/>
      <use xlink:href="#DejaVuSans-20" transform="translate(227.246094 0)"/>
      <use xlink:href="#DejaVuSans-54" transform="translate(259.033203 0)"/>
      <use xlink:href="#DejaVuSans-79" transform="translate(304.492188 0)"/>
      <use xlink:href="#DejaVuSans-70" transform="translate(363.671875 0)"/>
      <use xlink:href="#DejaVuSans-65" transform="translate(427.148438 0)"/>
     </g>
    </g>
    <g id="patch_167">
     <path d="M 796.515625 58.156563 
L 816.515625 58.156563 
L 816.515625 51.156563 
L 796.515625 51.156563 
z
" style="fill: #ffc107"/>
    </g>
    <g id="text_24">
     <!-- FT -->
     <g transform="translate(824.515625 58.156563) scale(0.1 -0.1)">
      <defs>
       <path id="DejaVuSans-46" d="M 628 4666 
L 3309 4666 
L 3309 4134 
L 1259 4134 
L 1259 2759 
L 3109 2759 
L 3109 2228 
L 1259 2228 
L 1259 0 
L 628 0 
L 628 4666 
z
" transform="scale(0.015625)"/>
      </defs>
      <use xlink:href="#DejaVuSans-46"/>
      <use xlink:href="#DejaVuSans-54" transform="translate(55.769531 0)"/>
     </g>
    </g>
    <g id="patch_168">
     <path d="M 796.515625 72.834688 
L 816.515625 72.834688 
L 816.515625 65.834688 
L 796.515625 65.834688 
z
" style="fill: #2196f3"/>
    </g>
    <g id="text_25">
     <!-- 2PT -->
     <g transform="translate(824.515625 72.834688) scale(0.1 -0.1)">
      <use xlink:href="#DejaVuSans-32"/>
      <use xlink:href="#DejaVuSans-50" transform="translate(63.623047 0)"/>
      <use xlink:href="#DejaVuSans-54" transform="translate(123.925781 0)"/>
     </g>
    </g>
    <g id="patch_169">
     <path d="M 796.515625 87.512812 
L 816.515625 87.512812 
L 816.515625 80.512812 
L 796.515625 80.512812 
z
" style="fill: #4caf50"/>
    </g>
    <g id="text_26">
     <!-- 3PT -->
     <g transform="translate(824.515625 87.512812) scale(0.1 -0.1)">
      <use xlink:href="#DejaVuSans-33"/>
      <use xlink:href="#DejaVuSans-50" transform="translate(63.623047 0)"/>
      <use xlink:href="#DejaVuSans-54" transform="translate(123.925781 0)"/>
     </g>
    </g>
   </g>
  </g>
 </g>
 <defs>
  <clipPath id="p8056f5eb1b">
   <rect x="44.57" y="26.88" width="808.63" height="429.075539"/>
  </clipPath>
 </defs>
</svg>
