<?xml version="1.0" encoding="utf-8" standalone="no"?>
<!DOCTYPE svg PUBLIC "-//W3C//DTD SVG 1.1//EN"
  "http://www.w3.org/Graphics/SVG/1.1/DTD/svg11.dtd">
<svg xmlns:xlink="http://www.w3.org/1999/xlink" width="864pt" height="504pt" viewBox="0 0 864 504" xmlns="http://www.w3.org/2000/svg" version="1.1">
 <metadata>
  <rdf:RDF xmlns:dc="http://purl.org/dc/elements/1.1/" xmlns:cc="http://creativecommons.org/ns#" xmlns:rdf="http://www.w3.org/1999/02/22-rdf-syntax-ns#">
   <cc:Work>
    <dc:type rdf:resource="http://purl.org/dc/dcmitype/StillImage"/>
    <dc:date>2025-08-24T04:10:43.070609</dc:date>
    <dc:format>image/svg+xml</dc:format>
    <dc:creator>
     <cc:Agent>
      <dc:title>Matplotlib v3.10.5, https://matplotlib.org/</dc:title>
     </cc:Agent>
    </dc:creator>
   </cc:Work>
  </rdf:RDF>
 </metadata>
 <defs>
  <style type="text/css">*{stroke-linejoin: round; stroke-linecap: butt}</style>
 </defs>
 <g id="figure_1">
  <g id="patch_1">
   <path d="M 0 504 
L 864 504 
L 864 0 
L 0 0 
z
" style="fill: #ffffff"/>
  </g>
  <g id="axes_1">
   <g id="patch_2">
    <path d="M 44.57 455.955539 
L 853.2 455.955539 
L 853.2 26.88 
L 44.57 26.88 
z
" style="fill: #ffffff"/>
   </g>
   <g id="patch_3">
    <path d="M 48.362824 455.955539 
L 60.499859 455.955539 
L 60.499859 444.911124 
L 48.362824 444.911124 
z
" clip-path="url(#pe430f290ac)" style="fill: #ffc107"/>
   </g>
   <g id="patch_4">
    <path d="M 63.534118 455.955539 
L 75.671154 455.955539 
L 75.671154 422.822293 
L 63.534118 422.822293 
z
" clip-path="url(#pe430f290ac)" style="fill: #ffc107"/>
   </g>
   <g id="patch_5">
    <path d="M 78.705413 455.955539 
L 90.842448 455.955539 
L 90.842448 444.911124 
L 78.705413 444.911124 
z
" clip-path="url(#pe430f290ac)" style="fill: #ffc107"/>
   </g>
   <g id="patch_6">
    <path d="M 93.876707 455.955539 
L 106.013743 455.955539 
L 106.013743 455.955539 
L 93.876707 455.955539 
z
" clip-path="url(#pe430f290ac)" style="fill: #ffc107"/>
   </g>
   <g id="patch_7">
    <path d="M 109.048002 455.955539 
L 121.185038 455.955539 
L 121.185038 395.211254 
L 109.048002 395.211254 
z
" clip-path="url(#pe430f290ac)" style="fill: #ffc107"/>
   </g>
   <g id="patch_8">
    <path d="M 124.219296 455.955539 
L 136.356332 455.955539 
L 136.356332 417.300085 
L 124.219296 417.300085 
z
" clip-path="url(#pe430f290ac)" style="fill: #ffc107"/>
   </g>
   <g id="patch_9">
    <path d="M 139.390591 455.955539 
L 151.527627 455.955539 
L 151.527627 428.3445 
L 139.390591 428.3445 
z
" clip-path="url(#pe430f290ac)" style="fill: #ffc107"/>
   </g>
   <g id="patch_10">
    <path d="M 154.561886 455.955539 
L 166.698921 455.955539 
L 166.698921 406.25567 
L 154.561886 406.25567 
z
" clip-path="url(#pe430f290ac)" style="fill: #ffc107"/>
   </g>
   <g id="patch_11">
    <path d="M 169.73318 455.955539 
L 181.870216 455.955539 
L 181.870216 422.822293 
L 169.73318 422.822293 
z
" clip-path="url(#pe430f290ac)" style="fill: #ffc107"/>
   </g>
   <g id="patch_12">
    <path d="M 184.904475 455.955539 
L 197.04151 455.955539 
L 197.04151 433.866708 
L 184.904475 433.866708 
z
" clip-path="url(#pe430f290ac)" style="fill: #ffc107"/>
   </g>
   <g id="patch_13">
    <path d="M 200.075769 455.955539 
L 212.212805 455.955539 
L 212.212805 406.25567 
L 200.075769 406.25567 
z
" clip-path="url(#pe430f290ac)" style="fill: #ffc107"/>
   </g>
   <g id="patch_14">
    <path d="M 215.247064 455.955539 
L 227.384099 455.955539 
L 227.384099 373.122423 
L 215.247064 373.122423 
z
" clip-path="url(#pe430f290ac)" style="fill: #ffc107"/>
   </g>
   <g id="patch_15">
    <path d="M 230.418358 455.955539 
L 242.555394 455.955539 
L 242.555394 455.955539 
L 230.418358 455.955539 
z
" clip-path="url(#pe430f290ac)" style="fill: #ffc107"/>
   </g>
   <g id="patch_16">
    <path d="M 245.589653 455.955539 
L 257.726689 455.955539 
L 257.726689 439.388916 
L 245.589653 439.388916 
z
" clip-path="url(#pe430f290ac)" style="fill: #ffc107"/>
   </g>
   <g id="patch_17">
    <path d="M 260.760947 455.955539 
L 272.897983 455.955539 
L 272.897983 428.3445 
L 260.760947 428.3445 
z
" clip-path="url(#pe430f290ac)" style="fill: #ffc107"/>
   </g>
   <g id="patch_18">
    <path d="M 275.932242 455.955539 
L 288.069278 455.955539 
L 288.069278 450.433331 
L 275.932242 450.433331 
z
" clip-path="url(#pe430f290ac)" style="fill: #ffc107"/>
   </g>
   <g id="patch_19">
    <path d="M 291.103537 455.955539 
L 303.240572 455.955539 
L 303.240572 444.911124 
L 291.103537 444.911124 
z
" clip-path="url(#pe430f290ac)" style="fill: #ffc107"/>
   </g>
   <g id="patch_20">
    <path d="M 306.274831 455.955539 
L 318.411867 455.955539 
L 318.411867 406.25567 
L 306.274831 406.25567 
z
" clip-path="url(#pe430f290ac)" style="fill: #ffc107"/>
   </g>
   <g id="patch_21">
    <path d="M 321.446126 455.955539 
L 333.583161 455.955539 
L 333.583161 428.3445 
L 321.446126 428.3445 
z
" clip-path="url(#pe430f290ac)" style="fill: #ffc107"/>
   </g>
   <g id="patch_22">
    <path d="M 336.61742 455.955539 
L 348.754456 455.955539 
L 348.754456 422.822293 
L 336.61742 422.822293 
z
" clip-path="url(#pe430f290ac)" style="fill: #ffc107"/>
   </g>
   <g id="patch_23">
    <path d="M 351.788715 455.955539 
L 363.92575 455.955539 
L 363.92575 422.822293 
L 351.788715 422.822293 
z
" clip-path="url(#pe430f290ac)" style="fill: #ffc107"/>
   </g>
   <g id="patch_24">
    <path d="M 366.960009 455.955539 
L 379.097045 455.955539 
L 379.097045 428.3445 
L 366.960009 428.3445 
z
" clip-path="url(#pe430f290ac)" style="fill: #ffc107"/>
   </g>
   <g id="patch_25">
    <path d="M 382.131304 455.955539 
L 394.26834 455.955539 
L 394.26834 417.300085 
L 382.131304 417.300085 
z
" clip-path="url(#pe430f290ac)" style="fill: #ffc107"/>
   </g>
   <g id="patch_26">
    <path d="M 397.302598 455.955539 
L 409.439634 455.955539 
L 409.439634 433.866708 
L 397.302598 433.866708 
z
" clip-path="url(#pe430f290ac)" style="fill: #ffc107"/>
   </g>
   <g id="patch_27">
    <path d="M 412.473893 455.955539 
L 424.610929 455.955539 
L 424.610929 444.911124 
L 412.473893 444.911124 
z
" clip-path="url(#pe430f290ac)" style="fill: #ffc107"/>
   </g>
   <g id="patch_28">
    <path d="M 427.645188 455.955539 
L 439.782223 455.955539 
L 439.782223 400.733462 
L 427.645188 400.733462 
z
" clip-path="url(#pe430f290ac)" style="fill: #ffc107"/>
   </g>
   <g id="patch_29">
    <path d="M 442.816482 455.955539 
L 454.953518 455.955539 
L 454.953518 439.388916 
L 442.816482 439.388916 
z
" clip-path="url(#pe430f290ac)" style="fill: #ffc107"/>
   </g>
   <g id="patch_30">
    <path d="M 457.987777 455.955539 
L 470.124812 455.955539 
L 470.124812 422.822293 
L 457.987777 422.822293 
z
" clip-path="url(#pe430f290ac)" style="fill: #ffc107"/>
   </g>
   <g id="patch_31">
    <path d="M 473.159071 455.955539 
L 485.296107 455.955539 
L 485.296107 428.3445 
L 473.159071 428.3445 
z
" clip-path="url(#pe430f290ac)" style="fill: #ffc107"/>
   </g>
   <g id="patch_32">
    <path d="M 488.330366 455.955539 
L 500.467402 455.955539 
L 500.467402 411.777877 
L 488.330366 411.777877 
z
" clip-path="url(#pe430f290ac)" style="fill: #ffc107"/>
   </g>
   <g id="patch_33">
    <path d="M 503.50166 455.955539 
L 515.638696 455.955539 
L 515.638696 400.733462 
L 503.50166 400.733462 
z
" clip-path="url(#pe430f290ac)" style="fill: #ffc107"/>
   </g>
   <g id="patch_34">
    <path d="M 518.672955 455.955539 
L 530.809991 455.955539 
L 530.809991 411.777877 
L 518.672955 411.777877 
z
" clip-path="url(#pe430f290ac)" style="fill: #ffc107"/>
   </g>
   <g id="patch_35">
    <path d="M 533.84425 455.955539 
L 545.981285 455.955539 
L 545.981285 428.3445 
L 533.84425 428.3445 
z
" clip-path="url(#pe430f290ac)" style="fill: #ffc107"/>
   </g>
   <g id="patch_36">
    <path d="M 549.015544 455.955539 
L 561.15258 455.955539 
L 561.15258 422.822293 
L 549.015544 422.822293 
z
" clip-path="url(#pe430f290ac)" style="fill: #ffc107"/>
   </g>
   <g id="patch_37">
    <path d="M 564.186839 455.955539 
L 576.323874 455.955539 
L 576.323874 433.866708 
L 564.186839 433.866708 
z
" clip-path="url(#pe430f290ac)" style="fill: #ffc107"/>
   </g>
   <g id="patch_38">
    <path d="M 579.358133 455.955539 
L 591.495169 455.955539 
L 591.495169 411.777877 
L 579.358133 411.777877 
z
" clip-path="url(#pe430f290ac)" style="fill: #ffc107"/>
   </g>
   <g id="patch_39">
    <path d="M 594.529428 455.955539 
L 606.666463 455.955539 
L 606.666463 455.955539 
L 594.529428 455.955539 
z
" clip-path="url(#pe430f290ac)" style="fill: #ffc107"/>
   </g>
   <g id="patch_40">
    <path d="M 609.700722 455.955539 
L 621.837758 455.955539 
L 621.837758 433.866708 
L 609.700722 433.866708 
z
" clip-path="url(#pe430f290ac)" style="fill: #ffc107"/>
   </g>
   <g id="patch_41">
    <path d="M 624.872017 455.955539 
L 637.009053 455.955539 
L 637.009053 433.866708 
L 624.872017 433.866708 
z
" clip-path="url(#pe430f290ac)" style="fill: #ffc107"/>
   </g>
   <g id="patch_42">
    <path d="M 640.043311 455.955539 
L 652.180347 455.955539 
L 652.180347 367.600216 
L 640.043311 367.600216 
z
" clip-path="url(#pe430f290ac)" style="fill: #ffc107"/>
   </g>
   <g id="patch_43">
    <path d="M 655.214606 455.955539 
L 667.351642 455.955539 
L 667.351642 417.300085 
L 655.214606 417.300085 
z
" clip-path="url(#pe430f290ac)" style="fill: #ffc107"/>
   </g>
   <g id="patch_44">
    <path d="M 670.385901 455.955539 
L 682.522936 455.955539 
L 682.522936 378.644631 
L 670.385901 378.644631 
z
" clip-path="url(#pe430f290ac)" style="fill: #ffc107"/>
   </g>
   <g id="patch_45">
    <path d="M 685.557195 455.955539 
L 697.694231 455.955539 
L 697.694231 428.3445 
L 685.557195 428.3445 
z
" clip-path="url(#pe430f290ac)" style="fill: #ffc107"/>
   </g>
   <g id="patch_46">
    <path d="M 700.72849 455.955539 
L 712.865525 455.955539 
L 712.865525 417.300085 
L 700.72849 417.300085 
z
" clip-path="url(#pe430f290ac)" style="fill: #ffc107"/>
   </g>
   <g id="patch_47">
    <path d="M 715.899784 455.955539 
L 728.03682 455.955539 
L 728.03682 422.822293 
L 715.899784 422.822293 
z
" clip-path="url(#pe430f290ac)" style="fill: #ffc107"/>
   </g>
   <g id="patch_48">
    <path d="M 731.071079 455.955539 
L 743.208114 455.955539 
L 743.208114 411.777877 
L 731.071079 411.777877 
z
" clip-path="url(#pe430f290ac)" style="fill: #ffc107"/>
   </g>
   <g id="patch_49">
    <path d="M 746.242373 455.955539 
L 758.379409 455.955539 
L 758.379409 422.822293 
L 746.242373 422.822293 
z
" clip-path="url(#pe430f290ac)" style="fill: #ffc107"/>
   </g>
   <g id="patch_50">
    <path d="M 761.413668 455.955539 
L 773.550704 455.955539 
L 773.550704 273.722685 
L 761.413668 273.722685 
z
" clip-path="url(#pe430f290ac)" style="fill: #ffc107"/>
   </g>
   <g id="patch_51">
    <path d="M 776.584962 455.955539 
L 788.721998 455.955539 
L 788.721998 455.955539 
L 776.584962 455.955539 
z
" clip-path="url(#pe430f290ac)" style="fill: #ffc107"/>
   </g>
   <g id="patch_52">
    <path d="M 791.756257 455.955539 
L 803.893293 455.955539 
L 803.893293 450.433331 
L 791.756257 450.433331 
z
" clip-path="url(#pe430f290ac)" style="fill: #ffc107"/>
   </g>
   <g id="patch_53">
    <path d="M 806.927552 455.955539 
L 819.064587 455.955539 
L 819.064587 455.955539 
L 806.927552 455.955539 
z
" clip-path="url(#pe430f290ac)" style="fill: #ffc107"/>
   </g>
   <g id="patch_54">
    <path d="M 822.098846 455.955539 
L 834.235882 455.955539 
L 834.235882 455.955539 
L 822.098846 455.955539 
z
" clip-path="url(#pe430f290ac)" style="fill: #ffc107"/>
   </g>
   <g id="patch_55">
    <path d="M 837.270141 455.955539 
L 849.407176 455.955539 
L 849.407176 444.911124 
L 837.270141 444.911124 
z
" clip-path="url(#pe430f290ac)" style="fill: #ffc107"/>
   </g>
   <g id="patch_56">
    <path d="M 48.362824 444.911124 
L 60.499859 444.911124 
L 60.499859 378.644631 
L 48.362824 378.644631 
z
" clip-path="url(#pe430f290ac)" style="fill: #2196f3"/>
   </g>
   <g id="patch_57">
    <path d="M 63.534118 422.822293 
L 75.671154 422.822293 
L 75.671154 334.466969 
L 63.534118 334.466969 
z
" clip-path="url(#pe430f290ac)" style="fill: #2196f3"/>
   </g>
   <g id="patch_58">
    <path d="M 78.705413 444.911124 
L 90.842448 444.911124 
L 90.842448 301.333723 
L 78.705413 301.333723 
z
" clip-path="url(#pe430f290ac)" style="fill: #2196f3"/>
   </g>
   <g id="patch_59">
    <path d="M 93.876707 455.955539 
L 106.013743 455.955539 
L 106.013743 334.466969 
L 93.876707 334.466969 
z
" clip-path="url(#pe430f290ac)" style="fill: #2196f3"/>
   </g>
   <g id="patch_60">
    <path d="M 109.048002 395.211254 
L 121.185038 395.211254 
L 121.185038 295.811515 
L 109.048002 295.811515 
z
" clip-path="url(#pe430f290ac)" style="fill: #2196f3"/>
   </g>
   <g id="patch_61">
    <path d="M 124.219296 417.300085 
L 136.356332 417.300085 
L 136.356332 306.855931 
L 124.219296 306.855931 
z
" clip-path="url(#pe430f290ac)" style="fill: #2196f3"/>
   </g>
   <g id="patch_62">
    <path d="M 139.390591 428.3445 
L 151.527627 428.3445 
L 151.527627 251.633854 
L 139.390591 251.633854 
z
" clip-path="url(#pe430f290ac)" style="fill: #2196f3"/>
   </g>
   <g id="patch_63">
    <path d="M 154.561886 406.25567 
L 166.698921 406.25567 
L 166.698921 295.811515 
L 154.561886 295.811515 
z
" clip-path="url(#pe430f290ac)" style="fill: #2196f3"/>
   </g>
   <g id="patch_64">
    <path d="M 169.73318 422.822293 
L 181.870216 422.822293 
L 181.870216 367.600216 
L 169.73318 367.600216 
z
" clip-path="url(#pe430f290ac)" style="fill: #2196f3"/>
   </g>
   <g id="patch_65">
    <path d="M 184.904475 433.866708 
L 197.04151 433.866708 
L 197.04151 378.644631 
L 184.904475 378.644631 
z
" clip-path="url(#pe430f290ac)" style="fill: #2196f3"/>
   </g>
   <g id="patch_66">
    <path d="M 200.075769 406.25567 
L 212.212805 406.25567 
L 212.212805 384.166839 
L 200.075769 384.166839 
z
" clip-path="url(#pe430f290ac)" style="fill: #2196f3"/>
   </g>
   <g id="patch_67">
    <path d="M 215.247064 373.122423 
L 227.384099 373.122423 
L 227.384099 317.900346 
L 215.247064 317.900346 
z
" clip-path="url(#pe430f290ac)" style="fill: #2196f3"/>
   </g>
   <g id="patch_68">
    <path d="M 230.418358 455.955539 
L 242.555394 455.955539 
L 242.555394 422.822293 
L 230.418358 422.822293 
z
" clip-path="url(#pe430f290ac)" style="fill: #2196f3"/>
   </g>
   <g id="patch_69">
    <path d="M 245.589653 439.388916 
L 257.726689 439.388916 
L 257.726689 417.300085 
L 245.589653 417.300085 
z
" clip-path="url(#pe430f290ac)" style="fill: #2196f3"/>
   </g>
   <g id="patch_70">
    <path d="M 260.760947 428.3445 
L 272.897983 428.3445 
L 272.897983 395.211254 
L 260.760947 395.211254 
z
" clip-path="url(#pe430f290ac)" style="fill: #2196f3"/>
   </g>
   <g id="patch_71">
    <path d="M 275.932242 450.433331 
L 288.069278 450.433331 
L 288.069278 395.211254 
L 275.932242 395.211254 
z
" clip-path="url(#pe430f290ac)" style="fill: #2196f3"/>
   </g>
   <g id="patch_72">
    <path d="M 291.103537 444.911124 
L 303.240572 444.911124 
L 303.240572 378.644631 
L 291.103537 378.644631 
z
" clip-path="url(#pe430f290ac)" style="fill: #2196f3"/>
   </g>
   <g id="patch_73">
    <path d="M 306.274831 406.25567 
L 318.411867 406.25567 
L 318.411867 339.989177 
L 306.274831 339.989177 
z
" clip-path="url(#pe430f290ac)" style="fill: #2196f3"/>
   </g>
   <g id="patch_74">
    <path d="M 321.446126 428.3445 
L 333.583161 428.3445 
L 333.583161 362.078008 
L 321.446126 362.078008 
z
" clip-path="url(#pe430f290ac)" style="fill: #2196f3"/>
   </g>
   <g id="patch_75">
    <path d="M 336.61742 422.822293 
L 348.754456 422.822293 
L 348.754456 367.600216 
L 336.61742 367.600216 
z
" clip-path="url(#pe430f290ac)" style="fill: #2196f3"/>
   </g>
   <g id="patch_76">
    <path d="M 351.788715 422.822293 
L 363.92575 422.822293 
L 363.92575 290.289308 
L 351.788715 290.289308 
z
" clip-path="url(#pe430f290ac)" style="fill: #2196f3"/>
   </g>
   <g id="patch_77">
    <path d="M 366.960009 428.3445 
L 379.097045 428.3445 
L 379.097045 351.033593 
L 366.960009 351.033593 
z
" clip-path="url(#pe430f290ac)" style="fill: #2196f3"/>
   </g>
   <g id="patch_78">
    <path d="M 382.131304 417.300085 
L 394.26834 417.300085 
L 394.26834 373.122423 
L 382.131304 373.122423 
z
" clip-path="url(#pe430f290ac)" style="fill: #2196f3"/>
   </g>
   <g id="patch_79">
    <path d="M 397.302598 433.866708 
L 409.439634 433.866708 
L 409.439634 356.5558 
L 397.302598 356.5558 
z
" clip-path="url(#pe430f290ac)" style="fill: #2196f3"/>
   </g>
   <g id="patch_80">
    <path d="M 412.473893 444.911124 
L 424.610929 444.911124 
L 424.610929 312.378139 
L 412.473893 312.378139 
z
" clip-path="url(#pe430f290ac)" style="fill: #2196f3"/>
   </g>
   <g id="patch_81">
    <path d="M 427.645188 400.733462 
L 439.782223 400.733462 
L 439.782223 323.422554 
L 427.645188 323.422554 
z
" clip-path="url(#pe430f290ac)" style="fill: #2196f3"/>
   </g>
   <g id="patch_82">
    <path d="M 442.816482 439.388916 
L 454.953518 439.388916 
L 454.953518 351.033593 
L 442.816482 351.033593 
z
" clip-path="url(#pe430f290ac)" style="fill: #2196f3"/>
   </g>
   <g id="patch_83">
    <path d="M 457.987777 422.822293 
L 470.124812 422.822293 
L 470.124812 323.422554 
L 457.987777 323.422554 
z
" clip-path="url(#pe430f290ac)" style="fill: #2196f3"/>
   </g>
   <g id="patch_84">
    <path d="M 473.159071 428.3445 
L 485.296107 428.3445 
L 485.296107 295.811515 
L 473.159071 295.811515 
z
" clip-path="url(#pe430f290ac)" style="fill: #2196f3"/>
   </g>
   <g id="patch_85">
    <path d="M 488.330366 411.777877 
L 500.467402 411.777877 
L 500.467402 356.5558 
L 488.330366 356.5558 
z
" clip-path="url(#pe430f290ac)" style="fill: #2196f3"/>
   </g>
   <g id="patch_86">
    <path d="M 503.50166 400.733462 
L 515.638696 400.733462 
L 515.638696 257.156061 
L 503.50166 257.156061 
z
" clip-path="url(#pe430f290ac)" style="fill: #2196f3"/>
   </g>
   <g id="patch_87">
    <path d="M 518.672955 411.777877 
L 530.809991 411.777877 
L 530.809991 356.5558 
L 518.672955 356.5558 
z
" clip-path="url(#pe430f290ac)" style="fill: #2196f3"/>
   </g>
   <g id="patch_88">
    <path d="M 533.84425 428.3445 
L 545.981285 428.3445 
L 545.981285 351.033593 
L 533.84425 351.033593 
z
" clip-path="url(#pe430f290ac)" style="fill: #2196f3"/>
   </g>
   <g id="patch_89">
    <path d="M 549.015544 422.822293 
L 561.15258 422.822293 
L 561.15258 400.733462 
L 549.015544 400.733462 
z
" clip-path="url(#pe430f290ac)" style="fill: #2196f3"/>
   </g>
   <g id="patch_90">
    <path d="M 564.186839 433.866708 
L 576.323874 433.866708 
L 576.323874 400.733462 
L 564.186839 400.733462 
z
" clip-path="url(#pe430f290ac)" style="fill: #2196f3"/>
   </g>
   <g id="patch_91">
    <path d="M 579.358133 411.777877 
L 591.495169 411.777877 
L 591.495169 312.378139 
L 579.358133 312.378139 
z
" clip-path="url(#pe430f290ac)" style="fill: #2196f3"/>
   </g>
   <g id="patch_92">
    <path d="M 594.529428 455.955539 
L 606.666463 455.955539 
L 606.666463 433.866708 
L 594.529428 433.866708 
z
" clip-path="url(#pe430f290ac)" style="fill: #2196f3"/>
   </g>
   <g id="patch_93">
    <path d="M 609.700722 433.866708 
L 621.837758 433.866708 
L 621.837758 389.689046 
L 609.700722 389.689046 
z
" clip-path="url(#pe430f290ac)" style="fill: #2196f3"/>
   </g>
   <g id="patch_94">
    <path d="M 624.872017 455.955539 
L 637.009053 455.955539 
L 637.009053 455.955539 
L 624.872017 455.955539 
z
" clip-path="url(#pe430f290ac)" style="fill: #2196f3"/>
   </g>
   <g id="patch_95">
    <path d="M 640.043311 367.600216 
L 652.180347 367.600216 
L 652.180347 323.422554 
L 640.043311 323.422554 
z
" clip-path="url(#pe430f290ac)" style="fill: #2196f3"/>
   </g>
   <g id="patch_96">
    <path d="M 655.214606 417.300085 
L 667.351642 417.300085 
L 667.351642 295.811515 
L 655.214606 295.811515 
z
" clip-path="url(#pe430f290ac)" style="fill: #2196f3"/>
   </g>
   <g id="patch_97">
    <path d="M 670.385901 378.644631 
L 682.522936 378.644631 
L 682.522936 323.422554 
L 670.385901 323.422554 
z
" clip-path="url(#pe430f290ac)" style="fill: #2196f3"/>
   </g>
   <g id="patch_98">
    <path d="M 685.557195 428.3445 
L 697.694231 428.3445 
L 697.694231 351.033593 
L 685.557195 351.033593 
z
" clip-path="url(#pe430f290ac)" style="fill: #2196f3"/>
   </g>
   <g id="patch_99">
    <path d="M 700.72849 417.300085 
L 712.865525 417.300085 
L 712.865525 262.678269 
L 700.72849 262.678269 
z
" clip-path="url(#pe430f290ac)" style="fill: #2196f3"/>
   </g>
   <g id="patch_100">
    <path d="M 715.899784 422.822293 
L 728.03682 422.822293 
L 728.03682 334.466969 
L 715.899784 334.466969 
z
" clip-path="url(#pe430f290ac)" style="fill: #2196f3"/>
   </g>
   <g id="patch_101">
    <path d="M 731.071079 411.777877 
L 743.208114 411.777877 
L 743.208114 334.466969 
L 731.071079 334.466969 
z
" clip-path="url(#pe430f290ac)" style="fill: #2196f3"/>
   </g>
   <g id="patch_102">
    <path d="M 746.242373 422.822293 
L 758.379409 422.822293 
L 758.379409 334.466969 
L 746.242373 334.466969 
z
" clip-path="url(#pe430f290ac)" style="fill: #2196f3"/>
   </g>
   <g id="patch_103">
    <path d="M 761.413668 273.722685 
L 773.550704 273.722685 
L 773.550704 174.322946 
L 761.413668 174.322946 
z
" clip-path="url(#pe430f290ac)" style="fill: #2196f3"/>
   </g>
   <g id="patch_104">
    <path d="M 776.584962 455.955539 
L 788.721998 455.955539 
L 788.721998 444.911124 
L 776.584962 444.911124 
z
" clip-path="url(#pe430f290ac)" style="fill: #2196f3"/>
   </g>
   <g id="patch_105">
    <path d="M 791.756257 450.433331 
L 803.893293 450.433331 
L 803.893293 439.388916 
L 791.756257 439.388916 
z
" clip-path="url(#pe430f290ac)" style="fill: #2196f3"/>
   </g>
   <g id="patch_106">
    <path d="M 806.927552 455.955539 
L 819.064587 455.955539 
L 819.064587 444.911124 
L 806.927552 444.911124 
z
" clip-path="url(#pe430f290ac)" style="fill: #2196f3"/>
   </g>
   <g id="patch_107">
    <path d="M 822.098846 455.955539 
L 834.235882 455.955539 
L 834.235882 433.866708 
L 822.098846 433.866708 
z
" clip-path="url(#pe430f290ac)" style="fill: #2196f3"/>
   </g>
   <g id="patch_108">
    <path d="M 837.270141 444.911124 
L 849.407176 444.911124 
L 849.407176 422.822293 
L 837.270141 422.822293 
z
" clip-path="url(#pe430f290ac)" style="fill: #2196f3"/>
   </g>
   <g id="patch_109">
    <path d="M 48.362824 378.644631 
L 60.499859 378.644631 
L 60.499859 246.111646 
L 48.362824 246.111646 
z
" clip-path="url(#pe430f290ac)" style="fill: #4caf50"/>
   </g>
   <g id="patch_110">
    <path d="M 63.534118 334.466969 
L 75.671154 334.466969 
L 75.671154 235.067231 
L 63.534118 235.067231 
z
" clip-path="url(#pe430f290ac)" style="fill: #4caf50"/>
   </g>
   <g id="patch_111">
    <path d="M 78.705413 301.333723 
L 90.842448 301.333723 
L 90.842448 235.067231 
L 78.705413 235.067231 
z
" clip-path="url(#pe430f290ac)" style="fill: #4caf50"/>
   </g>
   <g id="patch_112">
    <path d="M 93.876707 334.466969 
L 106.013743 334.466969 
L 106.013743 201.933984 
L 93.876707 201.933984 
z
" clip-path="url(#pe430f290ac)" style="fill: #4caf50"/>
   </g>
   <g id="patch_113">
    <path d="M 109.048002 295.811515 
L 121.185038 295.811515 
L 121.185038 47.312169 
L 109.048002 47.312169 
z
" clip-path="url(#pe430f290ac)" style="fill: #4caf50"/>
   </g>
   <g id="patch_114">
    <path d="M 124.219296 306.855931 
L 136.356332 306.855931 
L 136.356332 240.589438 
L 124.219296 240.589438 
z
" clip-path="url(#pe430f290ac)" style="fill: #4caf50"/>
   </g>
   <g id="patch_115">
    <path d="M 139.390591 251.633854 
L 151.527627 251.633854 
L 151.527627 135.667492 
L 139.390591 135.667492 
z
" clip-path="url(#pe430f290ac)" style="fill: #4caf50"/>
   </g>
   <g id="patch_116">
    <path d="M 154.561886 295.811515 
L 166.698921 295.811515 
L 166.698921 229.545023 
L 154.561886 229.545023 
z
" clip-path="url(#pe430f290ac)" style="fill: #4caf50"/>
   </g>
   <g id="patch_117">
    <path d="M 169.73318 367.600216 
L 181.870216 367.600216 
L 181.870216 235.067231 
L 169.73318 235.067231 
z
" clip-path="url(#pe430f290ac)" style="fill: #4caf50"/>
   </g>
   <g id="patch_118">
    <path d="M 184.904475 378.644631 
L 197.04151 378.644631 
L 197.04151 295.811515 
L 184.904475 295.811515 
z
" clip-path="url(#pe430f290ac)" style="fill: #4caf50"/>
   </g>
   <g id="patch_119">
    <path d="M 200.075769 384.166839 
L 212.212805 384.166839 
L 212.212805 334.466969 
L 200.075769 334.466969 
z
" clip-path="url(#pe430f290ac)" style="fill: #4caf50"/>
   </g>
   <g id="patch_120">
    <path d="M 215.247064 317.900346 
L 227.384099 317.900346 
L 227.384099 268.200477 
L 215.247064 268.200477 
z
" clip-path="url(#pe430f290ac)" style="fill: #4caf50"/>
   </g>
   <g id="patch_121">
    <path d="M 230.418358 422.822293 
L 242.555394 422.822293 
L 242.555394 356.5558 
L 230.418358 356.5558 
z
" clip-path="url(#pe430f290ac)" style="fill: #4caf50"/>
   </g>
   <g id="patch_122">
    <path d="M 245.589653 417.300085 
L 257.726689 417.300085 
L 257.726689 400.733462 
L 245.589653 400.733462 
z
" clip-path="url(#pe430f290ac)" style="fill: #4caf50"/>
   </g>
   <g id="patch_123">
    <path d="M 260.760947 395.211254 
L 272.897983 395.211254 
L 272.897983 378.644631 
L 260.760947 378.644631 
z
" clip-path="url(#pe430f290ac)" style="fill: #4caf50"/>
   </g>
   <g id="patch_124">
    <path d="M 275.932242 395.211254 
L 288.069278 395.211254 
L 288.069278 378.644631 
L 275.932242 378.644631 
z
" clip-path="url(#pe430f290ac)" style="fill: #4caf50"/>
   </g>
   <g id="patch_125">
    <path d="M 291.103537 378.644631 
L 303.240572 378.644631 
L 303.240572 295.811515 
L 291.103537 295.811515 
z
" clip-path="url(#pe430f290ac)" style="fill: #4caf50"/>
   </g>
   <g id="patch_126">
    <path d="M 306.274831 339.989177 
L 318.411867 339.989177 
L 318.411867 224.022815 
L 306.274831 224.022815 
z
" clip-path="url(#pe430f290ac)" style="fill: #4caf50"/>
   </g>
   <g id="patch_127">
    <path d="M 321.446126 362.078008 
L 333.583161 362.078008 
L 333.583161 279.244892 
L 321.446126 279.244892 
z
" clip-path="url(#pe430f290ac)" style="fill: #4caf50"/>
   </g>
   <g id="patch_128">
    <path d="M 336.61742 367.600216 
L 348.754456 367.600216 
L 348.754456 284.7671 
L 336.61742 284.7671 
z
" clip-path="url(#pe430f290ac)" style="fill: #4caf50"/>
   </g>
   <g id="patch_129">
    <path d="M 351.788715 290.289308 
L 363.92575 290.289308 
L 363.92575 273.722685 
L 351.788715 273.722685 
z
" clip-path="url(#pe430f290ac)" style="fill: #4caf50"/>
   </g>
   <g id="patch_130">
    <path d="M 366.960009 351.033593 
L 379.097045 351.033593 
L 379.097045 317.900346 
L 366.960009 317.900346 
z
" clip-path="url(#pe430f290ac)" style="fill: #4caf50"/>
   </g>
   <g id="patch_131">
    <path d="M 382.131304 373.122423 
L 394.26834 373.122423 
L 394.26834 306.855931 
L 382.131304 306.855931 
z
" clip-path="url(#pe430f290ac)" style="fill: #4caf50"/>
   </g>
   <g id="patch_132">
    <path d="M 397.302598 356.5558 
L 409.439634 356.5558 
L 409.439634 273.722685 
L 397.302598 273.722685 
z
" clip-path="url(#pe430f290ac)" style="fill: #4caf50"/>
   </g>
   <g id="patch_133">
    <path d="M 412.473893 312.378139 
L 424.610929 312.378139 
L 424.610929 212.9784 
L 412.473893 212.9784 
z
" clip-path="url(#pe430f290ac)" style="fill: #4caf50"/>
   </g>
   <g id="patch_134">
    <path d="M 427.645188 323.422554 
L 439.782223 323.422554 
L 439.782223 257.156061 
L 427.645188 257.156061 
z
" clip-path="url(#pe430f290ac)" style="fill: #4caf50"/>
   </g>
   <g id="patch_135">
    <path d="M 442.816482 351.033593 
L 454.953518 351.033593 
L 454.953518 218.500607 
L 442.816482 218.500607 
z
" clip-path="url(#pe430f290ac)" style="fill: #4caf50"/>
   </g>
   <g id="patch_136">
    <path d="M 457.987777 323.422554 
L 470.124812 323.422554 
L 470.124812 174.322946 
L 457.987777 174.322946 
z
" clip-path="url(#pe430f290ac)" style="fill: #4caf50"/>
   </g>
   <g id="patch_137">
    <path d="M 473.159071 295.811515 
L 485.296107 295.811515 
L 485.296107 179.845154 
L 473.159071 179.845154 
z
" clip-path="url(#pe430f290ac)" style="fill: #4caf50"/>
   </g>
   <g id="patch_138">
    <path d="M 488.330366 356.5558 
L 500.467402 356.5558 
L 500.467402 290.289308 
L 488.330366 290.289308 
z
" clip-path="url(#pe430f290ac)" style="fill: #4caf50"/>
   </g>
   <g id="patch_139">
    <path d="M 503.50166 257.156061 
L 515.638696 257.156061 
L 515.638696 141.1897 
L 503.50166 141.1897 
z
" clip-path="url(#pe430f290ac)" style="fill: #4caf50"/>
   </g>
   <g id="patch_140">
    <path d="M 518.672955 356.5558 
L 530.809991 356.5558 
L 530.809991 273.722685 
L 518.672955 273.722685 
z
" clip-path="url(#pe430f290ac)" style="fill: #4caf50"/>
   </g>
   <g id="patch_141">
    <path d="M 533.84425 351.033593 
L 545.981285 351.033593 
L 545.981285 301.333723 
L 533.84425 301.333723 
z
" clip-path="url(#pe430f290ac)" style="fill: #4caf50"/>
   </g>
   <g id="patch_142">
    <path d="M 549.015544 400.733462 
L 561.15258 400.733462 
L 561.15258 351.033593 
L 549.015544 351.033593 
z
" clip-path="url(#pe430f290ac)" style="fill: #4caf50"/>
   </g>
   <g id="patch_143">
    <path d="M 564.186839 400.733462 
L 576.323874 400.733462 
L 576.323874 367.600216 
L 564.186839 367.600216 
z
" clip-path="url(#pe430f290ac)" style="fill: #4caf50"/>
   </g>
   <g id="patch_144">
    <path d="M 579.358133 312.378139 
L 591.495169 312.378139 
L 591.495169 295.811515 
L 579.358133 295.811515 
z
" clip-path="url(#pe430f290ac)" style="fill: #4caf50"/>
   </g>
   <g id="patch_145">
    <path d="M 594.529428 433.866708 
L 606.666463 433.866708 
L 606.666463 384.166839 
L 594.529428 384.166839 
z
" clip-path="url(#pe430f290ac)" style="fill: #4caf50"/>
   </g>
   <g id="patch_146">
    <path d="M 609.700722 389.689046 
L 621.837758 389.689046 
L 621.837758 339.989177 
L 609.700722 339.989177 
z
" clip-path="url(#pe430f290ac)" style="fill: #4caf50"/>
   </g>
   <g id="patch_147">
    <path d="M 624.872017 433.866708 
L 637.009053 433.866708 
L 637.009053 351.033593 
L 624.872017 351.033593 
z
" clip-path="url(#pe430f290ac)" style="fill: #4caf50"/>
   </g>
   <g id="patch_148">
    <path d="M 640.043311 323.422554 
L 652.180347 323.422554 
L 652.180347 257.156061 
L 640.043311 257.156061 
z
" clip-path="url(#pe430f290ac)" style="fill: #4caf50"/>
   </g>
   <g id="patch_149">
    <path d="M 655.214606 295.811515 
L 667.351642 295.811515 
L 667.351642 246.111646 
L 655.214606 246.111646 
z
" clip-path="url(#pe430f290ac)" style="fill: #4caf50"/>
   </g>
   <g id="patch_150">
    <path d="M 670.385901 323.422554 
L 682.522936 323.422554 
L 682.522936 273.722685 
L 670.385901 273.722685 
z
" clip-path="url(#pe430f290ac)" style="fill: #4caf50"/>
   </g>
   <g id="patch_151">
    <path d="M 685.557195 351.033593 
L 697.694231 351.033593 
L 697.694231 284.7671 
L 685.557195 284.7671 
z
" clip-path="url(#pe430f290ac)" style="fill: #4caf50"/>
   </g>
   <g id="patch_152">
    <path d="M 700.72849 262.678269 
L 712.865525 262.678269 
L 712.865525 196.411777 
L 700.72849 196.411777 
z
" clip-path="url(#pe430f290ac)" style="fill: #4caf50"/>
   </g>
   <g id="patch_153">
    <path d="M 715.899784 334.466969 
L 728.03682 334.466969 
L 728.03682 284.7671 
L 715.899784 284.7671 
z
" clip-path="url(#pe430f290ac)" style="fill: #4caf50"/>
   </g>
   <g id="patch_154">
    <path d="M 731.071079 334.466969 
L 743.208114 334.466969 
L 743.208114 251.633854 
L 731.071079 251.633854 
z
" clip-path="url(#pe430f290ac)" style="fill: #4caf50"/>
   </g>
   <g id="patch_155">
    <path d="M 746.242373 334.466969 
L 758.379409 334.466969 
L 758.379409 235.067231 
L 746.242373 235.067231 
z
" clip-path="url(#pe430f290ac)" style="fill: #4caf50"/>
   </g>
   <g id="patch_156">
    <path d="M 761.413668 455.955539 
L 773.550704 455.955539 
L 773.550704 455.955539 
L 761.413668 455.955539 
z
" clip-path="url(#pe430f290ac)" style="fill: #4caf50"/>
   </g>
   <g id="patch_157">
    <path d="M 776.584962 444.911124 
L 788.721998 444.911124 
L 788.721998 428.3445 
L 776.584962 428.3445 
z
" clip-path="url(#pe430f290ac)" style="fill: #4caf50"/>
   </g>
   <g id="patch_158">
    <path d="M 791.756257 455.955539 
L 803.893293 455.955539 
L 803.893293 455.955539 
L 791.756257 455.955539 
z
" clip-path="url(#pe430f290ac)" style="fill: #4caf50"/>
   </g>
   <g id="patch_159">
    <path d="M 806.927552 444.911124 
L 819.064587 444.911124 
L 819.064587 428.3445 
L 806.927552 428.3445 
z
" clip-path="url(#pe430f290ac)" style="fill: #4caf50"/>
   </g>
   <g id="patch_160">
    <path d="M 822.098846 455.955539 
L 834.235882 455.955539 
L 834.235882 455.955539 
L 822.098846 455.955539 
z
" clip-path="url(#pe430f290ac)" style="fill: #4caf50"/>
   </g>
   <g id="patch_161">
    <path d="M 837.270141 455.955539 
L 849.407176 455.955539 
L 849.407176 455.955539 
L 837.270141 455.955539 
z
" clip-path="url(#pe430f290ac)" style="fill: #4caf50"/>
   </g>
   <g id="matplotlib.axis_1">
    <g id="xtick_1">
     <g id="line2d_1">
      <defs>
       <path id="m3aca023715" d="M 0 0 
L 0 3.5 
" style="stroke: #000000; stroke-width: 0.8"/>
      </defs>
      <g>
       <use xlink:href="#m3aca023715" x="54.431341" y="455.955539" style="stroke: #000000; stroke-width: 0.8"/>
      </g>
     </g>
     <g id="text_1">
      <!-- 0 -->
      <g transform="translate(54.133031 472.827413) rotate(-45) scale(0.1 -0.1)">
       <defs>
        <path id="DejaVuSans-30" d="M 2034 4250 
Q 1547 4250 1301 3770 
Q 1056 3291 1056 2328 
Q 1056 1369 1301 889 
Q 1547 409 2034 409 
Q 2525 409 2770 889 
Q 3016 1369 3016 2328 
Q 3016 3291 2770 3770 
Q 2525 4250 2034 4250 
z
M 2034 4750 
Q 2819 4750 3233 4129 
Q 3647 3509 3647 2328 
Q 3647 1150 3233 529 
Q 2819 -91 2034 -91 
Q 1250 -91 836 529 
Q 422 1150 422 2328 
Q 422 3509 836 4129 
Q 1250 4750 2034 4750 
z
" transform="scale(0.015625)"/>
       </defs>
       <use xlink:href="#DejaVuSans-30"/>
      </g>
     </g>
    </g>
    <g id="xtick_2">
     <g id="line2d_2">
      <g>
       <use xlink:href="#m3aca023715" x="69.602636" y="455.955539" style="stroke: #000000; stroke-width: 0.8"/>
      </g>
     </g>
    </g>
    <g id="xtick_3">
     <g id="line2d_3">
      <g>
       <use xlink:href="#m3aca023715" x="84.773931" y="455.955539" style="stroke: #000000; stroke-width: 0.8"/>
      </g>
     </g>
    </g>
    <g id="xtick_4">
     <g id="line2d_4">
      <g>
       <use xlink:href="#m3aca023715" x="99.945225" y="455.955539" style="stroke: #000000; stroke-width: 0.8"/>
      </g>
     </g>
    </g>
    <g id="xtick_5">
     <g id="line2d_5">
      <g>
       <use xlink:href="#m3aca023715" x="115.11652" y="455.955539" style="stroke: #000000; stroke-width: 0.8"/>
      </g>
     </g>
    </g>
    <g id="xtick_6">
     <g id="line2d_6">
      <g>
       <use xlink:href="#m3aca023715" x="130.287814" y="455.955539" style="stroke: #000000; stroke-width: 0.8"/>
      </g>
     </g>
     <g id="text_2">
      <!-- 5 -->
      <g transform="translate(129.989504 472.827413) rotate(-45) scale(0.1 -0.1)">
       <defs>
        <path id="DejaVuSans-35" d="M 691 4666 
L 3169 4666 
L 3169 4134 
L 1269 4134 
L 1269 2991 
Q 1406 3038 1543 3061 
Q 1681 3084 1819 3084 
Q 2600 3084 3056 2656 
Q 3513 2228 3513 1497 
Q 3513 744 3044 326 
Q 2575 -91 1722 -91 
Q 1428 -91 1123 -41 
Q 819 9 494 109 
L 494 744 
Q 775 591 1075 516 
Q 1375 441 1709 441 
Q 2250 441 2565 725 
Q 2881 1009 2881 1497 
Q 2881 1984 2565 2268 
Q 2250 2553 1709 2553 
Q 1456 2553 1204 2497 
Q 953 2441 691 2322 
L 691 4666 
z
" transform="scale(0.015625)"/>
       </defs>
       <use xlink:href="#DejaVuSans-35"/>
      </g>
     </g>
    </g>
    <g id="xtick_7">
     <g id="line2d_7">
      <g>
       <use xlink:href="#m3aca023715" x="145.459109" y="455.955539" style="stroke: #000000; stroke-width: 0.8"/>
      </g>
     </g>
    </g>
    <g id="xtick_8">
     <g id="line2d_8">
      <g>
       <use xlink:href="#m3aca023715" x="160.630403" y="455.955539" style="stroke: #000000; stroke-width: 0.8"/>
      </g>
     </g>
    </g>
    <g id="xtick_9">
     <g id="line2d_9">
      <g>
       <use xlink:href="#m3aca023715" x="175.801698" y="455.955539" style="stroke: #000000; stroke-width: 0.8"/>
      </g>
     </g>
    </g>
    <g id="xtick_10">
     <g id="line2d_10">
      <g>
       <use xlink:href="#m3aca023715" x="190.972992" y="455.955539" style="stroke: #000000; stroke-width: 0.8"/>
      </g>
     </g>
    </g>
    <g id="xtick_11">
     <g id="line2d_11">
      <g>
       <use xlink:href="#m3aca023715" x="206.144287" y="455.955539" style="stroke: #000000; stroke-width: 0.8"/>
      </g>
     </g>
     <g id="text_3">
      <!-- 10 -->
      <g transform="translate(203.596493 477.326379) rotate(-45) scale(0.1 -0.1)">
       <defs>
        <path id="DejaVuSans-31" d="M 794 531 
L 1825 531 
L 1825 4091 
L 703 3866 
L 703 4441 
L 1819 4666 
L 2450 4666 
L 2450 531 
L 3481 531 
L 3481 0 
L 794 0 
L 794 531 
z
" transform="scale(0.015625)"/>
       </defs>
       <use xlink:href="#DejaVuSans-31"/>
       <use xlink:href="#DejaVuSans-30" transform="translate(63.623047 0)"/>
      </g>
     </g>
    </g>
    <g id="xtick_12">
     <g id="line2d_12">
      <g>
       <use xlink:href="#m3aca023715" x="221.315582" y="455.955539" style="stroke: #000000; stroke-width: 0.8"/>
      </g>
     </g>
     <g id="text_4">
      <!-- 11 -->
      <g transform="translate(218.767787 477.326379) rotate(-45) scale(0.1 -0.1)">
       <use xlink:href="#DejaVuSans-31"/>
       <use xlink:href="#DejaVuSans-31" transform="translate(63.623047 0)"/>
      </g>
     </g>
    </g>
    <g id="xtick_13">
     <g id="line2d_13">
      <g>
       <use xlink:href="#m3aca023715" x="236.486876" y="455.955539" style="stroke: #000000; stroke-width: 0.8"/>
      </g>
     </g>
    </g>
    <g id="xtick_14">
     <g id="line2d_14">
      <g>
       <use xlink:href="#m3aca023715" x="251.658171" y="455.955539" style="stroke: #000000; stroke-width: 0.8"/>
      </g>
     </g>
    </g>
    <g id="xtick_15">
     <g id="line2d_15">
      <g>
       <use xlink:href="#m3aca023715" x="266.829465" y="455.955539" style="stroke: #000000; stroke-width: 0.8"/>
      </g>
     </g>
    </g>
    <g id="xtick_16">
     <g id="line2d_16">
      <g>
       <use xlink:href="#m3aca023715" x="282.00076" y="455.955539" style="stroke: #000000; stroke-width: 0.8"/>
      </g>
     </g>
     <g id="text_5">
      <!-- 15 -->
      <g transform="translate(279.452966 477.326379) rotate(-45) scale(0.1 -0.1)">
       <use xlink:href="#DejaVuSans-31"/>
       <use xlink:href="#DejaVuSans-35" transform="translate(63.623047 0)"/>
      </g>
     </g>
    </g>
    <g id="xtick_17">
     <g id="line2d_17">
      <g>
       <use xlink:href="#m3aca023715" x="297.172054" y="455.955539" style="stroke: #000000; stroke-width: 0.8"/>
      </g>
     </g>
    </g>
    <g id="xtick_18">
     <g id="line2d_18">
      <g>
       <use xlink:href="#m3aca023715" x="312.343349" y="455.955539" style="stroke: #000000; stroke-width: 0.8"/>
      </g>
     </g>
    </g>
    <g id="xtick_19">
     <g id="line2d_19">
      <g>
       <use xlink:href="#m3aca023715" x="327.514644" y="455.955539" style="stroke: #000000; stroke-width: 0.8"/>
      </g>
     </g>
    </g>
    <g id="xtick_20">
     <g id="line2d_20">
      <g>
       <use xlink:href="#m3aca023715" x="342.685938" y="455.955539" style="stroke: #000000; stroke-width: 0.8"/>
      </g>
     </g>
    </g>
    <g id="xtick_21">
     <g id="line2d_21">
      <g>
       <use xlink:href="#m3aca023715" x="357.857233" y="455.955539" style="stroke: #000000; stroke-width: 0.8"/>
      </g>
     </g>
     <g id="text_6">
      <!-- 20 -->
      <g transform="translate(355.309439 477.326379) rotate(-45) scale(0.1 -0.1)">
       <defs>
        <path id="DejaVuSans-32" d="M 1228 531 
L 3431 531 
L 3431 0 
L 469 0 
L 469 531 
Q 828 903 1448 1529 
Q 2069 2156 2228 2338 
Q 2531 2678 2651 2914 
Q 2772 3150 2772 3378 
Q 2772 3750 2511 3984 
Q 2250 4219 1831 4219 
Q 1534 4219 1204 4116 
Q 875 4013 500 3803 
L 500 4441 
Q 881 4594 1212 4672 
Q 1544 4750 1819 4750 
Q 2544 4750 2975 4387 
Q 3406 4025 3406 3419 
Q 3406 3131 3298 2873 
Q 3191 2616 2906 2266 
Q 2828 2175 2409 1742 
Q 1991 1309 1228 531 
z
" transform="scale(0.015625)"/>
       </defs>
       <use xlink:href="#DejaVuSans-32"/>
       <use xlink:href="#DejaVuSans-30" transform="translate(63.623047 0)"/>
      </g>
     </g>
    </g>
    <g id="xtick_22">
     <g id="line2d_22">
      <g>
       <use xlink:href="#m3aca023715" x="373.028527" y="455.955539" style="stroke: #000000; stroke-width: 0.8"/>
      </g>
     </g>
    </g>
    <g id="xtick_23">
     <g id="line2d_23">
      <g>
       <use xlink:href="#m3aca023715" x="388.199822" y="455.955539" style="stroke: #000000; stroke-width: 0.8"/>
      </g>
     </g>
    </g>
    <g id="xtick_24">
     <g id="line2d_24">
      <g>
       <use xlink:href="#m3aca023715" x="403.371116" y="455.955539" style="stroke: #000000; stroke-width: 0.8"/>
      </g>
     </g>
     <g id="text_7">
      <!-- 23 -->
      <g transform="translate(400.823322 477.326379) rotate(-45) scale(0.1 -0.1)">
       <defs>
        <path id="DejaVuSans-33" d="M 2597 2516 
Q 3050 2419 3304 2112 
Q 3559 1806 3559 1356 
Q 3559 666 3084 287 
Q 2609 -91 1734 -91 
Q 1441 -91 1130 -33 
Q 819 25 488 141 
L 488 750 
Q 750 597 1062 519 
Q 1375 441 1716 441 
Q 2309 441 2620 675 
Q 2931 909 2931 1356 
Q 2931 1769 2642 2001 
Q 2353 2234 1838 2234 
L 1294 2234 
L 1294 2753 
L 1863 2753 
Q 2328 2753 2575 2939 
Q 2822 3125 2822 3475 
Q 2822 3834 2567 4026 
Q 2313 4219 1838 4219 
Q 1578 4219 1281 4162 
Q 984 4106 628 3988 
L 628 4550 
Q 988 4650 1302 4700 
Q 1616 4750 1894 4750 
Q 2613 4750 3031 4423 
Q 3450 4097 3450 3541 
Q 3450 3153 3228 2886 
Q 3006 2619 2597 2516 
z
" transform="scale(0.015625)"/>
       </defs>
       <use xlink:href="#DejaVuSans-32"/>
       <use xlink:href="#DejaVuSans-33" transform="translate(63.623047 0)"/>
      </g>
     </g>
    </g>
    <g id="xtick_25">
     <g id="line2d_25">
      <g>
       <use xlink:href="#m3aca023715" x="418.542411" y="455.955539" style="stroke: #000000; stroke-width: 0.8"/>
      </g>
     </g>
    </g>
    <g id="xtick_26">
     <g id="line2d_26">
      <g>
       <use xlink:href="#m3aca023715" x="433.713705" y="455.955539" style="stroke: #000000; stroke-width: 0.8"/>
      </g>
     </g>
     <g id="text_8">
      <!-- 25 -->
      <g transform="translate(431.165911 477.326379) rotate(-45) scale(0.1 -0.1)">
       <use xlink:href="#DejaVuSans-32"/>
       <use xlink:href="#DejaVuSans-35" transform="translate(63.623047 0)"/>
      </g>
     </g>
    </g>
    <g id="xtick_27">
     <g id="line2d_27">
      <g>
       <use xlink:href="#m3aca023715" x="448.885" y="455.955539" style="stroke: #000000; stroke-width: 0.8"/>
      </g>
     </g>
    </g>
    <g id="xtick_28">
     <g id="line2d_28">
      <g>
       <use xlink:href="#m3aca023715" x="464.056295" y="455.955539" style="stroke: #000000; stroke-width: 0.8"/>
      </g>
     </g>
    </g>
    <g id="xtick_29">
     <g id="line2d_29">
      <g>
       <use xlink:href="#m3aca023715" x="479.227589" y="455.955539" style="stroke: #000000; stroke-width: 0.8"/>
      </g>
     </g>
    </g>
    <g id="xtick_30">
     <g id="line2d_30">
      <g>
       <use xlink:href="#m3aca023715" x="494.398884" y="455.955539" style="stroke: #000000; stroke-width: 0.8"/>
      </g>
     </g>
    </g>
    <g id="xtick_31">
     <g id="line2d_31">
      <g>
       <use xlink:href="#m3aca023715" x="509.570178" y="455.955539" style="stroke: #000000; stroke-width: 0.8"/>
      </g>
     </g>
     <g id="text_9">
      <!-- 30 -->
      <g transform="translate(507.022384 477.326379) rotate(-45) scale(0.1 -0.1)">
       <use xlink:href="#DejaVuSans-33"/>
       <use xlink:href="#DejaVuSans-30" transform="translate(63.623047 0)"/>
      </g>
     </g>
    </g>
    <g id="xtick_32">
     <g id="line2d_32">
      <g>
       <use xlink:href="#m3aca023715" x="524.741473" y="455.955539" style="stroke: #000000; stroke-width: 0.8"/>
      </g>
     </g>
    </g>
    <g id="xtick_33">
     <g id="line2d_33">
      <g>
       <use xlink:href="#m3aca023715" x="539.912767" y="455.955539" style="stroke: #000000; stroke-width: 0.8"/>
      </g>
     </g>
    </g>
    <g id="xtick_34">
     <g id="line2d_34">
      <g>
       <use xlink:href="#m3aca023715" x="555.084062" y="455.955539" style="stroke: #000000; stroke-width: 0.8"/>
      </g>
     </g>
    </g>
    <g id="xtick_35">
     <g id="line2d_35">
      <g>
       <use xlink:href="#m3aca023715" x="570.255356" y="455.955539" style="stroke: #000000; stroke-width: 0.8"/>
      </g>
     </g>
    </g>
    <g id="xtick_36">
     <g id="line2d_36">
      <g>
       <use xlink:href="#m3aca023715" x="585.426651" y="455.955539" style="stroke: #000000; stroke-width: 0.8"/>
      </g>
     </g>
     <g id="text_10">
      <!-- 35 -->
      <g transform="translate(582.878857 477.326379) rotate(-45) scale(0.1 -0.1)">
       <use xlink:href="#DejaVuSans-33"/>
       <use xlink:href="#DejaVuSans-35" transform="translate(63.623047 0)"/>
      </g>
     </g>
    </g>
    <g id="xtick_37">
     <g id="line2d_37">
      <g>
       <use xlink:href="#m3aca023715" x="600.597946" y="455.955539" style="stroke: #000000; stroke-width: 0.8"/>
      </g>
     </g>
    </g>
    <g id="xtick_38">
     <g id="line2d_38">
      <g>
       <use xlink:href="#m3aca023715" x="615.76924" y="455.955539" style="stroke: #000000; stroke-width: 0.8"/>
      </g>
     </g>
    </g>
    <g id="xtick_39">
     <g id="line2d_39">
      <g>
       <use xlink:href="#m3aca023715" x="630.940535" y="455.955539" style="stroke: #000000; stroke-width: 0.8"/>
      </g>
     </g>
    </g>
    <g id="xtick_40">
     <g id="line2d_40">
      <g>
       <use xlink:href="#m3aca023715" x="646.111829" y="455.955539" style="stroke: #000000; stroke-width: 0.8"/>
      </g>
     </g>
    </g>
    <g id="xtick_41">
     <g id="line2d_41">
      <g>
       <use xlink:href="#m3aca023715" x="661.283124" y="455.955539" style="stroke: #000000; stroke-width: 0.8"/>
      </g>
     </g>
     <g id="text_11">
      <!-- 40 -->
      <g transform="translate(658.73533 477.326379) rotate(-45) scale(0.1 -0.1)">
       <defs>
        <path id="DejaVuSans-34" d="M 2419 4116 
L 825 1625 
L 2419 1625 
L 2419 4116 
z
M 2253 4666 
L 3047 4666 
L 3047 1625 
L 3713 1625 
L 3713 1100 
L 3047 1100 
L 3047 0 
L 2419 0 
L 2419 1100 
L 313 1100 
L 313 1709 
L 2253 4666 
z
" transform="scale(0.015625)"/>
       </defs>
       <use xlink:href="#DejaVuSans-34"/>
       <use xlink:href="#DejaVuSans-30" transform="translate(63.623047 0)"/>
      </g>
     </g>
    </g>
    <g id="xtick_42">
     <g id="line2d_42">
      <g>
       <use xlink:href="#m3aca023715" x="676.454418" y="455.955539" style="stroke: #000000; stroke-width: 0.8"/>
      </g>
     </g>
    </g>
    <g id="xtick_43">
     <g id="line2d_43">
      <g>
       <use xlink:href="#m3aca023715" x="691.625713" y="455.955539" style="stroke: #000000; stroke-width: 0.8"/>
      </g>
     </g>
    </g>
    <g id="xtick_44">
     <g id="line2d_44">
      <g>
       <use xlink:href="#m3aca023715" x="706.797008" y="455.955539" style="stroke: #000000; stroke-width: 0.8"/>
      </g>
     </g>
    </g>
    <g id="xtick_45">
     <g id="line2d_45">
      <g>
       <use xlink:href="#m3aca023715" x="721.968302" y="455.955539" style="stroke: #000000; stroke-width: 0.8"/>
      </g>
     </g>
    </g>
    <g id="xtick_46">
     <g id="line2d_46">
      <g>
       <use xlink:href="#m3aca023715" x="737.139597" y="455.955539" style="stroke: #000000; stroke-width: 0.8"/>
      </g>
     </g>
     <g id="text_12">
      <!-- 45 -->
      <g transform="translate(734.591803 477.326379) rotate(-45) scale(0.1 -0.1)">
       <use xlink:href="#DejaVuSans-34"/>
       <use xlink:href="#DejaVuSans-35" transform="translate(63.623047 0)"/>
      </g>
     </g>
    </g>
    <g id="xtick_47">
     <g id="line2d_47">
      <g>
       <use xlink:href="#m3aca023715" x="752.310891" y="455.955539" style="stroke: #000000; stroke-width: 0.8"/>
      </g>
     </g>
    </g>
    <g id="xtick_48">
     <g id="line2d_48">
      <g>
       <use xlink:href="#m3aca023715" x="767.482186" y="455.955539" style="stroke: #000000; stroke-width: 0.8"/>
      </g>
     </g>
     <g id="text_13">
      <!-- 47 -->
      <g transform="translate(764.934392 477.326379) rotate(-45) scale(0.1 -0.1)">
       <defs>
        <path id="DejaVuSans-37" d="M 525 4666 
L 3525 4666 
L 3525 4397 
L 1831 0 
L 1172 0 
L 2766 4134 
L 525 4134 
L 525 4666 
z
" transform="scale(0.015625)"/>
       </defs>
       <use xlink:href="#DejaVuSans-34"/>
       <use xlink:href="#DejaVuSans-37" transform="translate(63.623047 0)"/>
      </g>
     </g>
    </g>
    <g id="xtick_49">
     <g id="line2d_49">
      <g>
       <use xlink:href="#m3aca023715" x="782.65348" y="455.955539" style="stroke: #000000; stroke-width: 0.8"/>
      </g>
     </g>
    </g>
    <g id="xtick_50">
     <g id="line2d_50">
      <g>
       <use xlink:href="#m3aca023715" x="797.824775" y="455.955539" style="stroke: #000000; stroke-width: 0.8"/>
      </g>
     </g>
    </g>
    <g id="xtick_51">
     <g id="line2d_51">
      <g>
       <use xlink:href="#m3aca023715" x="812.996069" y="455.955539" style="stroke: #000000; stroke-width: 0.8"/>
      </g>
     </g>
     <g id="text_14">
      <!-- 50 -->
      <g transform="translate(810.448275 477.326379) rotate(-45) scale(0.1 -0.1)">
       <use xlink:href="#DejaVuSans-35"/>
       <use xlink:href="#DejaVuSans-30" transform="translate(63.623047 0)"/>
      </g>
     </g>
    </g>
    <g id="xtick_52">
     <g id="line2d_52">
      <g>
       <use xlink:href="#m3aca023715" x="828.167364" y="455.955539" style="stroke: #000000; stroke-width: 0.8"/>
      </g>
     </g>
    </g>
    <g id="xtick_53">
     <g id="line2d_53">
      <g>
       <use xlink:href="#m3aca023715" x="843.338659" y="455.955539" style="stroke: #000000; stroke-width: 0.8"/>
      </g>
     </g>
    </g>
    <g id="text_15">
     <!-- Game Minute -->
     <g transform="translate(415.333438 490.395378) scale(0.1 -0.1)">
      <defs>
       <path id="DejaVuSans-47" d="M 3809 666 
L 3809 1919 
L 2778 1919 
L 2778 2438 
L 4434 2438 
L 4434 434 
Q 4069 175 3628 42 
Q 3188 -91 2688 -91 
Q 1594 -91 976 548 
Q 359 1188 359 2328 
Q 359 3472 976 4111 
Q 1594 4750 2688 4750 
Q 3144 4750 3555 4637 
Q 3966 4525 4313 4306 
L 4313 3634 
Q 3963 3931 3569 4081 
Q 3175 4231 2741 4231 
Q 1884 4231 1454 3753 
Q 1025 3275 1025 2328 
Q 1025 1384 1454 906 
Q 1884 428 2741 428 
Q 3075 428 3337 486 
Q 3600 544 3809 666 
z
" transform="scale(0.015625)"/>
       <path id="DejaVuSans-61" d="M 2194 1759 
Q 1497 1759 1228 1600 
Q 959 1441 959 1056 
Q 959 750 1161 570 
Q 1363 391 1709 391 
Q 2188 391 2477 730 
Q 2766 1069 2766 1631 
L 2766 1759 
L 2194 1759 
z
M 3341 1997 
L 3341 0 
L 2766 0 
L 2766 531 
Q 2569 213 2275 61 
Q 1981 -91 1556 -91 
Q 1019 -91 701 211 
Q 384 513 384 1019 
Q 384 1609 779 1909 
Q 1175 2209 1959 2209 
L 2766 2209 
L 2766 2266 
Q 2766 2663 2505 2880 
Q 2244 3097 1772 3097 
Q 1472 3097 1187 3025 
Q 903 2953 641 2809 
L 641 3341 
Q 956 3463 1253 3523 
Q 1550 3584 1831 3584 
Q 2591 3584 2966 3190 
Q 3341 2797 3341 1997 
z
" transform="scale(0.015625)"/>
       <path id="DejaVuSans-6d" d="M 3328 2828 
Q 3544 3216 3844 3400 
Q 4144 3584 4550 3584 
Q 5097 3584 5394 3201 
Q 5691 2819 5691 2113 
L 5691 0 
L 5113 0 
L 5113 2094 
Q 5113 2597 4934 2840 
Q 4756 3084 4391 3084 
Q 3944 3084 3684 2787 
Q 3425 2491 3425 1978 
L 3425 0 
L 2847 0 
L 2847 2094 
Q 2847 2600 2669 2842 
Q 2491 3084 2119 3084 
Q 1678 3084 1418 2786 
Q 1159 2488 1159 1978 
L 1159 0 
L 581 0 
L 581 3500 
L 1159 3500 
L 1159 2956 
Q 1356 3278 1631 3431 
Q 1906 3584 2284 3584 
Q 2666 3584 2933 3390 
Q 3200 3197 3328 2828 
z
" transform="scale(0.015625)"/>
       <path id="DejaVuSans-65" d="M 3597 1894 
L 3597 1613 
L 953 1613 
Q 991 1019 1311 708 
Q 1631 397 2203 397 
Q 2534 397 2845 478 
Q 3156 559 3463 722 
L 3463 178 
Q 3153 47 2828 -22 
Q 2503 -91 2169 -91 
Q 1331 -91 842 396 
Q 353 884 353 1716 
Q 353 2575 817 3079 
Q 1281 3584 2069 3584 
Q 2775 3584 3186 3129 
Q 3597 2675 3597 1894 
z
M 3022 2063 
Q 3016 2534 2758 2815 
Q 2500 3097 2075 3097 
Q 1594 3097 1305 2825 
Q 1016 2553 972 2059 
L 3022 2063 
z
" transform="scale(0.015625)"/>
       <path id="DejaVuSans-20" transform="scale(0.015625)"/>
       <path id="DejaVuSans-4d" d="M 628 4666 
L 1569 4666 
L 2759 1491 
L 3956 4666 
L 4897 4666 
L 4897 0 
L 4281 0 
L 4281 4097 
L 3078 897 
L 2444 897 
L 1241 4097 
L 1241 0 
L 628 0 
L 628 4666 
z
" transform="scale(0.015625)"/>
       <path id="DejaVuSans-69" d="M 603 3500 
L 1178 3500 
L 1178 0 
L 603 0 
L 603 3500 
z
M 603 4863 
L 1178 4863 
L 1178 4134 
L 603 4134 
L 603 4863 
z
" transform="scale(0.015625)"/>
       <path id="DejaVuSans-6e" d="M 3513 2113 
L 3513 0 
L 2938 0 
L 2938 2094 
Q 2938 2591 2744 2837 
Q 2550 3084 2163 3084 
Q 1697 3084 1428 2787 
Q 1159 2491 1159 1978 
L 1159 0 
L 581 0 
L 581 3500 
L 1159 3500 
L 1159 2956 
Q 1366 3272 1645 3428 
Q 1925 3584 2291 3584 
Q 2894 3584 3203 3211 
Q 3513 2838 3513 2113 
z
" transform="scale(0.015625)"/>
       <path id="DejaVuSans-75" d="M 544 1381 
L 544 3500 
L 1119 3500 
L 1119 1403 
Q 1119 906 1312 657 
Q 1506 409 1894 409 
Q 2359 409 2629 706 
Q 2900 1003 2900 1516 
L 2900 3500 
L 3475 3500 
L 3475 0 
L 2900 0 
L 2900 538 
Q 2691 219 2414 64 
Q 2138 -91 1772 -91 
Q 1169 -91 856 284 
Q 544 659 544 1381 
z
M 1991 3584 
L 1991 3584 
z
" transform="scale(0.015625)"/>
       <path id="DejaVuSans-74" d="M 1172 4494 
L 1172 3500 
L 2356 3500 
L 2356 3053 
L 1172 3053 
L 1172 1153 
Q 1172 725 1289 603 
Q 1406 481 1766 481 
L 2356 481 
L 2356 0 
L 1766 0 
Q 1100 0 847 248 
Q 594 497 594 1153 
L 594 3053 
L 172 3053 
L 172 3500 
L 594 3500 
L 594 4494 
L 1172 4494 
z
" transform="scale(0.015625)"/>
      </defs>
      <use xlink:href="#DejaVuSans-47"/>
      <use xlink:href="#DejaVuSans-61" transform="translate(77.490234 0)"/>
      <use xlink:href="#DejaVuSans-6d" transform="translate(138.769531 0)"/>
      <use xlink:href="#DejaVuSans-65" transform="translate(236.181641 0)"/>
      <use xlink:href="#DejaVuSans-20" transform="translate(297.705078 0)"/>
      <use xlink:href="#DejaVuSans-4d" transform="translate(329.492188 0)"/>
      <use xlink:href="#DejaVuSans-69" transform="translate(415.771484 0)"/>
      <use xlink:href="#DejaVuSans-6e" transform="translate(443.554688 0)"/>
      <use xlink:href="#DejaVuSans-75" transform="translate(506.933594 0)"/>
      <use xlink:href="#DejaVuSans-74" transform="translate(570.3125 0)"/>
      <use xlink:href="#DejaVuSans-65" transform="translate(609.521484 0)"/>
     </g>
    </g>
   </g>
   <g id="matplotlib.axis_2">
    <g id="ytick_1">
     <g id="line2d_54">
      <path d="M 44.57 455.955539 
L 853.2 455.955539 
" clip-path="url(#pe430f290ac)" style="fill: none; stroke-dasharray: 2.96,1.28; stroke-dashoffset: 0; stroke: #b0b0b0; stroke-opacity: 0.6; stroke-width: 0.8"/>
     </g>
     <g id="line2d_55">
      <defs>
       <path id="m0714a6e848" d="M 0 0 
L -3.5 0 
" style="stroke: #000000; stroke-width: 0.8"/>
      </defs>
      <g>
       <use xlink:href="#m0714a6e848" x="44.57" y="455.955539" style="stroke: #000000; stroke-width: 0.8"/>
      </g>
     </g>
     <g id="text_16">
      <!-- 0 -->
      <g transform="translate(31.2075 459.754758) scale(0.1 -0.1)">
       <use xlink:href="#DejaVuSans-30"/>
      </g>
     </g>
    </g>
    <g id="ytick_2">
     <g id="line2d_56">
      <path d="M 44.57 400.733462 
L 853.2 400.733462 
" clip-path="url(#pe430f290ac)" style="fill: none; stroke-dasharray: 2.96,1.28; stroke-dashoffset: 0; stroke: #b0b0b0; stroke-opacity: 0.6; stroke-width: 0.8"/>
     </g>
     <g id="line2d_57">
      <g>
       <use xlink:href="#m0714a6e848" x="44.57" y="400.733462" style="stroke: #000000; stroke-width: 0.8"/>
      </g>
     </g>
     <g id="text_17">
      <!-- 10 -->
      <g transform="translate(24.845 404.532681) scale(0.1 -0.1)">
       <use xlink:href="#DejaVuSans-31"/>
       <use xlink:href="#DejaVuSans-30" transform="translate(63.623047 0)"/>
      </g>
     </g>
    </g>
    <g id="ytick_3">
     <g id="line2d_58">
      <path d="M 44.57 345.511385 
L 853.2 345.511385 
" clip-path="url(#pe430f290ac)" style="fill: none; stroke-dasharray: 2.96,1.28; stroke-dashoffset: 0; stroke: #b0b0b0; stroke-opacity: 0.6; stroke-width: 0.8"/>
     </g>
     <g id="line2d_59">
      <g>
       <use xlink:href="#m0714a6e848" x="44.57" y="345.511385" style="stroke: #000000; stroke-width: 0.8"/>
      </g>
     </g>
     <g id="text_18">
      <!-- 20 -->
      <g transform="translate(24.845 349.310604) scale(0.1 -0.1)">
       <use xlink:href="#DejaVuSans-32"/>
       <use xlink:href="#DejaVuSans-30" transform="translate(63.623047 0)"/>
      </g>
     </g>
    </g>
    <g id="ytick_4">
     <g id="line2d_60">
      <path d="M 44.57 290.289308 
L 853.2 290.289308 
" clip-path="url(#pe430f290ac)" style="fill: none; stroke-dasharray: 2.96,1.28; stroke-dashoffset: 0; stroke: #b0b0b0; stroke-opacity: 0.6; stroke-width: 0.8"/>
     </g>
     <g id="line2d_61">
      <g>
       <use xlink:href="#m0714a6e848" x="44.57" y="290.289308" style="stroke: #000000; stroke-width: 0.8"/>
      </g>
     </g>
     <g id="text_19">
      <!-- 30 -->
      <g transform="translate(24.845 294.088526) scale(0.1 -0.1)">
       <use xlink:href="#DejaVuSans-33"/>
       <use xlink:href="#DejaVuSans-30" transform="translate(63.623047 0)"/>
      </g>
     </g>
    </g>
    <g id="ytick_5">
     <g id="line2d_62">
      <path d="M 44.57 235.067231 
L 853.2 235.067231 
" clip-path="url(#pe430f290ac)" style="fill: none; stroke-dasharray: 2.96,1.28; stroke-dashoffset: 0; stroke: #b0b0b0; stroke-opacity: 0.6; stroke-width: 0.8"/>
     </g>
     <g id="line2d_63">
      <g>
       <use xlink:href="#m0714a6e848" x="44.57" y="235.067231" style="stroke: #000000; stroke-width: 0.8"/>
      </g>
     </g>
     <g id="text_20">
      <!-- 40 -->
      <g transform="translate(24.845 238.866449) scale(0.1 -0.1)">
       <use xlink:href="#DejaVuSans-34"/>
       <use xlink:href="#DejaVuSans-30" transform="translate(63.623047 0)"/>
      </g>
     </g>
    </g>
    <g id="ytick_6">
     <g id="line2d_64">
      <path d="M 44.57 179.845154 
L 853.2 179.845154 
" clip-path="url(#pe430f290ac)" style="fill: none; stroke-dasharray: 2.96,1.28; stroke-dashoffset: 0; stroke: #b0b0b0; stroke-opacity: 0.6; stroke-width: 0.8"/>
     </g>
     <g id="line2d_65">
      <g>
       <use xlink:href="#m0714a6e848" x="44.57" y="179.845154" style="stroke: #000000; stroke-width: 0.8"/>
      </g>
     </g>
     <g id="text_21">
      <!-- 50 -->
      <g transform="translate(24.845 183.644372) scale(0.1 -0.1)">
       <use xlink:href="#DejaVuSans-35"/>
       <use xlink:href="#DejaVuSans-30" transform="translate(63.623047 0)"/>
      </g>
     </g>
    </g>
    <g id="ytick_7">
     <g id="line2d_66">
      <path d="M 44.57 124.623076 
L 853.2 124.623076 
" clip-path="url(#pe430f290ac)" style="fill: none; stroke-dasharray: 2.96,1.28; stroke-dashoffset: 0; stroke: #b0b0b0; stroke-opacity: 0.6; stroke-width: 0.8"/>
     </g>
     <g id="line2d_67">
      <g>
       <use xlink:href="#m0714a6e848" x="44.57" y="124.623076" style="stroke: #000000; stroke-width: 0.8"/>
      </g>
     </g>
     <g id="text_22">
      <!-- 60 -->
      <g transform="translate(24.845 128.422295) scale(0.1 -0.1)">
       <defs>
        <path id="DejaVuSans-36" d="M 2113 2584 
Q 1688 2584 1439 2293 
Q 1191 2003 1191 1497 
Q 1191 994 1439 701 
Q 1688 409 2113 409 
Q 2538 409 2786 701 
Q 3034 994 3034 1497 
Q 3034 2003 2786 2293 
Q 2538 2584 2113 2584 
z
M 3366 4563 
L 3366 3988 
Q 3128 4100 2886 4159 
Q 2644 4219 2406 4219 
Q 1781 4219 1451 3797 
Q 1122 3375 1075 2522 
Q 1259 2794 1537 2939 
Q 1816 3084 2150 3084 
Q 2853 3084 3261 2657 
Q 3669 2231 3669 1497 
Q 3669 778 3244 343 
Q 2819 -91 2113 -91 
Q 1303 -91 875 529 
Q 447 1150 447 2328 
Q 447 3434 972 4092 
Q 1497 4750 2381 4750 
Q 2619 4750 2861 4703 
Q 3103 4656 3366 4563 
z
" transform="scale(0.015625)"/>
       </defs>
       <use xlink:href="#DejaVuSans-36"/>
       <use xlink:href="#DejaVuSans-30" transform="translate(63.623047 0)"/>
      </g>
     </g>
    </g>
    <g id="ytick_8">
     <g id="line2d_68">
      <path d="M 44.57 69.400999 
L 853.2 69.400999 
" clip-path="url(#pe430f290ac)" style="fill: none; stroke-dasharray: 2.96,1.28; stroke-dashoffset: 0; stroke: #b0b0b0; stroke-opacity: 0.6; stroke-width: 0.8"/>
     </g>
     <g id="line2d_69">
      <g>
       <use xlink:href="#m0714a6e848" x="44.57" y="69.400999" style="stroke: #000000; stroke-width: 0.8"/>
      </g>
     </g>
     <g id="text_23">
      <!-- 70 -->
      <g transform="translate(24.845 73.200218) scale(0.1 -0.1)">
       <use xlink:href="#DejaVuSans-37"/>
       <use xlink:href="#DejaVuSans-30" transform="translate(63.623047 0)"/>
      </g>
     </g>
    </g>
    <g id="text_24">
     <!-- Points Scored -->
     <g transform="translate(18.765312 275.199019) rotate(-90) scale(0.1 -0.1)">
      <defs>
       <path id="DejaVuSans-50" d="M 1259 4147 
L 1259 2394 
L 2053 2394 
Q 2494 2394 2734 2622 
Q 2975 2850 2975 3272 
Q 2975 3691 2734 3919 
Q 2494 4147 2053 4147 
L 1259 4147 
z
M 628 4666 
L 2053 4666 
Q 2838 4666 3239 4311 
Q 3641 3956 3641 3272 
Q 3641 2581 3239 2228 
Q 2838 1875 2053 1875 
L 1259 1875 
L 1259 0 
L 628 0 
L 628 4666 
z
" transform="scale(0.015625)"/>
       <path id="DejaVuSans-6f" d="M 1959 3097 
Q 1497 3097 1228 2736 
Q 959 2375 959 1747 
Q 959 1119 1226 758 
Q 1494 397 1959 397 
Q 2419 397 2687 759 
Q 2956 1122 2956 1747 
Q 2956 2369 2687 2733 
Q 2419 3097 1959 3097 
z
M 1959 3584 
Q 2709 3584 3137 3096 
Q 3566 2609 3566 1747 
Q 3566 888 3137 398 
Q 2709 -91 1959 -91 
Q 1206 -91 779 398 
Q 353 888 353 1747 
Q 353 2609 779 3096 
Q 1206 3584 1959 3584 
z
" transform="scale(0.015625)"/>
       <path id="DejaVuSans-73" d="M 2834 3397 
L 2834 2853 
Q 2591 2978 2328 3040 
Q 2066 3103 1784 3103 
Q 1356 3103 1142 2972 
Q 928 2841 928 2578 
Q 928 2378 1081 2264 
Q 1234 2150 1697 2047 
L 1894 2003 
Q 2506 1872 2764 1633 
Q 3022 1394 3022 966 
Q 3022 478 2636 193 
Q 2250 -91 1575 -91 
Q 1294 -91 989 -36 
Q 684 19 347 128 
L 347 722 
Q 666 556 975 473 
Q 1284 391 1588 391 
Q 1994 391 2212 530 
Q 2431 669 2431 922 
Q 2431 1156 2273 1281 
Q 2116 1406 1581 1522 
L 1381 1569 
Q 847 1681 609 1914 
Q 372 2147 372 2553 
Q 372 3047 722 3315 
Q 1072 3584 1716 3584 
Q 2034 3584 2315 3537 
Q 2597 3491 2834 3397 
z
" transform="scale(0.015625)"/>
       <path id="DejaVuSans-53" d="M 3425 4513 
L 3425 3897 
Q 3066 4069 2747 4153 
Q 2428 4238 2131 4238 
Q 1616 4238 1336 4038 
Q 1056 3838 1056 3469 
Q 1056 3159 1242 3001 
Q 1428 2844 1947 2747 
L 2328 2669 
Q 3034 2534 3370 2195 
Q 3706 1856 3706 1288 
Q 3706 609 3251 259 
Q 2797 -91 1919 -91 
Q 1588 -91 1214 -16 
Q 841 59 441 206 
L 441 856 
Q 825 641 1194 531 
Q 1563 422 1919 422 
Q 2459 422 2753 634 
Q 3047 847 3047 1241 
Q 3047 1584 2836 1778 
Q 2625 1972 2144 2069 
L 1759 2144 
Q 1053 2284 737 2584 
Q 422 2884 422 3419 
Q 422 4038 858 4394 
Q 1294 4750 2059 4750 
Q 2388 4750 2728 4690 
Q 3069 4631 3425 4513 
z
" transform="scale(0.015625)"/>
       <path id="DejaVuSans-63" d="M 3122 3366 
L 3122 2828 
Q 2878 2963 2633 3030 
Q 2388 3097 2138 3097 
Q 1578 3097 1268 2742 
Q 959 2388 959 1747 
Q 959 1106 1268 751 
Q 1578 397 2138 397 
Q 2388 397 2633 464 
Q 2878 531 3122 666 
L 3122 134 
Q 2881 22 2623 -34 
Q 2366 -91 2075 -91 
Q 1284 -91 818 406 
Q 353 903 353 1747 
Q 353 2603 823 3093 
Q 1294 3584 2113 3584 
Q 2378 3584 2631 3529 
Q 2884 3475 3122 3366 
z
" transform="scale(0.015625)"/>
       <path id="DejaVuSans-72" d="M 2631 2963 
Q 2534 3019 2420 3045 
Q 2306 3072 2169 3072 
Q 1681 3072 1420 2755 
Q 1159 2438 1159 1844 
L 1159 0 
L 581 0 
L 581 3500 
L 1159 3500 
L 1159 2956 
Q 1341 3275 1631 3429 
Q 1922 3584 2338 3584 
Q 2397 3584 2469 3576 
Q 2541 3569 2628 3553 
L 2631 2963 
z
" transform="scale(0.015625)"/>
       <path id="DejaVuSans-64" d="M 2906 2969 
L 2906 4863 
L 3481 4863 
L 3481 0 
L 2906 0 
L 2906 525 
Q 2725 213 2448 61 
Q 2172 -91 1784 -91 
Q 1150 -91 751 415 
Q 353 922 353 1747 
Q 353 2572 751 3078 
Q 1150 3584 1784 3584 
Q 2172 3584 2448 3432 
Q 2725 3281 2906 2969 
z
M 947 1747 
Q 947 1113 1208 752 
Q 1469 391 1925 391 
Q 2381 391 2643 752 
Q 2906 1113 2906 1747 
Q 2906 2381 2643 2742 
Q 2381 3103 1925 3103 
Q 1469 3103 1208 2742 
Q 947 2381 947 1747 
z
" transform="scale(0.015625)"/>
      </defs>
      <use xlink:href="#DejaVuSans-50"/>
      <use xlink:href="#DejaVuSans-6f" transform="translate(56.677734 0)"/>
      <use xlink:href="#DejaVuSans-69" transform="translate(117.859375 0)"/>
      <use xlink:href="#DejaVuSans-6e" transform="translate(145.642578 0)"/>
      <use xlink:href="#DejaVuSans-74" transform="translate(209.021484 0)"/>
      <use xlink:href="#DejaVuSans-73" transform="translate(248.230469 0)"/>
      <use xlink:href="#DejaVuSans-20" transform="translate(300.330078 0)"/>
      <use xlink:href="#DejaVuSans-53" transform="translate(332.117188 0)"/>
      <use xlink:href="#DejaVuSans-63" transform="translate(395.59375 0)"/>
      <use xlink:href="#DejaVuSans-6f" transform="translate(450.574219 0)"/>
      <use xlink:href="#DejaVuSans-72" transform="translate(511.755859 0)"/>
      <use xlink:href="#DejaVuSans-65" transform="translate(550.619141 0)"/>
      <use xlink:href="#DejaVuSans-64" transform="translate(612.142578 0)"/>
     </g>
    </g>
   </g>
   <g id="patch_162">
    <path d="M 44.57 455.955539 
L 44.57 26.88 
" style="fill: none; stroke: #000000; stroke-width: 0.8; stroke-linejoin: miter; stroke-linecap: square"/>
   </g>
   <g id="patch_163">
    <path d="M 853.2 455.955539 
L 853.2 26.88 
" style="fill: none; stroke: #000000; stroke-width: 0.8; stroke-linejoin: miter; stroke-linecap: square"/>
   </g>
   <g id="patch_164">
    <path d="M 44.57 455.955539 
L 853.2 455.955539 
" style="fill: none; stroke: #000000; stroke-width: 0.8; stroke-linejoin: miter; stroke-linecap: square"/>
   </g>
   <g id="patch_165">
    <path d="M 44.57 26.88 
L 853.2 26.88 
" style="fill: none; stroke: #000000; stroke-width: 0.8; stroke-linejoin: miter; stroke-linecap: square"/>
   </g>
   <g id="text_25">
    <!-- Mikal Bridges Scoring Timeline (2023-24) -->
    <g transform="translate(325.230625 20.88) scale(0.12 -0.12)">
     <defs>
      <path id="DejaVuSans-6b" d="M 581 4863 
L 1159 4863 
L 1159 1991 
L 2875 3500 
L 3609 3500 
L 1753 1863 
L 3688 0 
L 2938 0 
L 1159 1709 
L 1159 0 
L 581 0 
L 581 4863 
z
" transform="scale(0.015625)"/>
      <path id="DejaVuSans-6c" d="M 603 4863 
L 1178 4863 
L 1178 0 
L 603 0 
L 603 4863 
z
" transform="scale(0.015625)"/>
      <path id="DejaVuSans-42" d="M 1259 2228 
L 1259 519 
L 2272 519 
Q 2781 519 3026 730 
Q 3272 941 3272 1375 
Q 3272 1813 3026 2020 
Q 2781 2228 2272 2228 
L 1259 2228 
z
M 1259 4147 
L 1259 2741 
L 2194 2741 
Q 2656 2741 2882 2914 
Q 3109 3088 3109 3444 
Q 3109 3797 2882 3972 
Q 2656 4147 2194 4147 
L 1259 4147 
z
M 628 4666 
L 2241 4666 
Q 2963 4666 3353 4366 
Q 3744 4066 3744 3513 
Q 3744 3084 3544 2831 
Q 3344 2578 2956 2516 
Q 3422 2416 3680 2098 
Q 3938 1781 3938 1306 
Q 3938 681 3513 340 
Q 3088 0 2303 0 
L 628 0 
L 628 4666 
z
" transform="scale(0.015625)"/>
      <path id="DejaVuSans-67" d="M 2906 1791 
Q 2906 2416 2648 2759 
Q 2391 3103 1925 3103 
Q 1463 3103 1205 2759 
Q 947 2416 947 1791 
Q 947 1169 1205 825 
Q 1463 481 1925 481 
Q 2391 481 2648 825 
Q 2906 1169 2906 1791 
z
M 3481 434 
Q 3481 -459 3084 -895 
Q 2688 -1331 1869 -1331 
Q 1566 -1331 1297 -1286 
Q 1028 -1241 775 -1147 
L 775 -588 
Q 1028 -725 1275 -790 
Q 1522 -856 1778 -856 
Q 2344 -856 2625 -561 
Q 2906 -266 2906 331 
L 2906 616 
Q 2728 306 2450 153 
Q 2172 0 1784 0 
Q 1141 0 747 490 
Q 353 981 353 1791 
Q 353 2603 747 3093 
Q 1141 3584 1784 3584 
Q 2172 3584 2450 3431 
Q 2728 3278 2906 2969 
L 2906 3500 
L 3481 3500 
L 3481 434 
z
" transform="scale(0.015625)"/>
      <path id="DejaVuSans-54" d="M -19 4666 
L 3928 4666 
L 3928 4134 
L 2272 4134 
L 2272 0 
L 1638 0 
L 1638 4134 
L -19 4134 
L -19 4666 
z
" transform="scale(0.015625)"/>
      <path id="DejaVuSans-28" d="M 1984 4856 
Q 1566 4138 1362 3434 
Q 1159 2731 1159 2009 
Q 1159 1288 1364 580 
Q 1569 -128 1984 -844 
L 1484 -844 
Q 1016 -109 783 600 
Q 550 1309 550 2009 
Q 550 2706 781 3412 
Q 1013 4119 1484 4856 
L 1984 4856 
z
" transform="scale(0.015625)"/>
      <path id="DejaVuSans-2d" d="M 313 2009 
L 1997 2009 
L 1997 1497 
L 313 1497 
L 313 2009 
z
" transform="scale(0.015625)"/>
      <path id="DejaVuSans-29" d="M 513 4856 
L 1013 4856 
Q 1481 4119 1714 3412 
Q 1947 2706 1947 2009 
Q 1947 1309 1714 600 
Q 1481 -109 1013 -844 
L 513 -844 
Q 928 -128 1133 580 
Q 1338 1288 1338 2009 
Q 1338 2731 1133 3434 
Q 928 4138 513 4856 
z
" transform="scale(0.015625)"/>
     </defs>
     <use xlink:href="#DejaVuSans-4d"/>
     <use xlink:href="#DejaVuSans-69" transform="translate(86.279297 0)"/>
     <use xlink:href="#DejaVuSans-6b" transform="translate(114.0625 0)"/>
     <use xlink:href="#DejaVuSans-61" transform="translate(170.222656 0)"/>
     <use xlink:href="#DejaVuSans-6c" transform="translate(231.501953 0)"/>
     <use xlink:href="#DejaVuSans-20" transform="translate(259.285156 0)"/>
     <use xlink:href="#DejaVuSans-42" transform="translate(291.072266 0)"/>
     <use xlink:href="#DejaVuSans-72" transform="translate(359.675781 0)"/>
     <use xlink:href="#DejaVuSans-69" transform="translate(400.789062 0)"/>
     <use xlink:href="#DejaVuSans-64" transform="translate(428.572266 0)"/>
     <use xlink:href="#DejaVuSans-67" transform="translate(492.048828 0)"/>
     <use xlink:href="#DejaVuSans-65" transform="translate(555.525391 0)"/>
     <use xlink:href="#DejaVuSans-73" transform="translate(617.048828 0)"/>
     <use xlink:href="#DejaVuSans-20" transform="translate(669.148438 0)"/>
     <use xlink:href="#DejaVuSans-53" transform="translate(700.935547 0)"/>
     <use xlink:href="#DejaVuSans-63" transform="translate(764.412109 0)"/>
     <use xlink:href="#DejaVuSans-6f" transform="translate(819.392578 0)"/>
     <use xlink:href="#DejaVuSans-72" transform="translate(880.574219 0)"/>
     <use xlink:href="#DejaVuSans-69" transform="translate(921.6875 0)"/>
     <use xlink:href="#DejaVuSans-6e" transform="translate(949.470703 0)"/>
     <use xlink:href="#DejaVuSans-67" transform="translate(1012.849609 0)"/>
     <use xlink:href="#DejaVuSans-20" transform="translate(1076.326172 0)"/>
     <use xlink:href="#DejaVuSans-54" transform="translate(1108.113281 0)"/>
     <use xlink:href="#DejaVuSans-69" transform="translate(1166.072266 0)"/>
     <use xlink:href="#DejaVuSans-6d" transform="translate(1193.855469 0)"/>
     <use xlink:href="#DejaVuSans-65" transform="translate(1291.267578 0)"/>
     <use xlink:href="#DejaVuSans-6c" transform="translate(1352.791016 0)"/>
     <use xlink:href="#DejaVuSans-69" transform="translate(1380.574219 0)"/>
     <use xlink:href="#DejaVuSans-6e" transform="translate(1408.357422 0)"/>
     <use xlink:href="#DejaVuSans-65" transform="translate(1471.736328 0)"/>
     <use xlink:href="#DejaVuSans-20" transform="translate(1533.259766 0)"/>
     <use xlink:href="#DejaVuSans-28" transform="translate(1565.046875 0)"/>
     <use xlink:href="#DejaVuSans-32" transform="translate(1604.060547 0)"/>
     <use xlink:href="#DejaVuSans-30" transform="translate(1667.683594 0)"/>
     <use xlink:href="#DejaVuSans-32" transform="translate(1731.306641 0)"/>
     <use xlink:href="#DejaVuSans-33" transform="translate(1794.929688 0)"/>
     <use xlink:href="#DejaVuSans-2d" transform="translate(1858.552734 0)"/>
     <use xlink:href="#DejaVuSans-32" transform="translate(1894.636719 0)"/>
     <use xlink:href="#DejaVuSans-34" transform="translate(1958.259766 0)"/>
     <use xlink:href="#DejaVuSans-29" transform="translate(2021.882812 0)"/>
    </g>
   </g>
   <g id="legend_1">
    <g id="patch_166">
     <path d="M 793.33125 93.5925 
L 846.2 93.5925 
Q 848.2 93.5925 848.2 91.5925 
L 848.2 33.88 
Q 848.2 31.88 846.2 31.88 
L 793.33125 31.88 
Q 791.33125 31.88 791.33125 33.88 
L 791.33125 91.5925 
Q 791.33125 93.5925 793.33125 93.5925 
z
" style="fill: #ffffff; opacity: 0.8; stroke: #cccccc; stroke-linejoin: miter"/>
    </g>
    <g id="text_26">
     <!-- Shot Type -->
     <g transform="translate(795.33125 43.478437) scale(0.1 -0.1)">
      <defs>
       <path id="DejaVuSans-68" d="M 3513 2113 
L 3513 0 
L 2938 0 
L 2938 2094 
Q 2938 2591 2744 2837 
Q 2550 3084 2163 3084 
Q 1697 3084 1428 2787 
Q 1159 2491 1159 1978 
L 1159 0 
L 581 0 
L 581 4863 
L 1159 4863 
L 1159 2956 
Q 1366 3272 1645 3428 
Q 1925 3584 2291 3584 
Q 2894 3584 3203 3211 
Q 3513 2838 3513 2113 
z
" transform="scale(0.015625)"/>
       <path id="DejaVuSans-79" d="M 2059 -325 
Q 1816 -950 1584 -1140 
Q 1353 -1331 966 -1331 
L 506 -1331 
L 506 -850 
L 844 -850 
Q 1081 -850 1212 -737 
Q 1344 -625 1503 -206 
L 1606 56 
L 191 3500 
L 800 3500 
L 1894 763 
L 2988 3500 
L 3597 3500 
L 2059 -325 
z
" transform="scale(0.015625)"/>
       <path id="DejaVuSans-70" d="M 1159 525 
L 1159 -1331 
L 581 -1331 
L 581 3500 
L 1159 3500 
L 1159 2969 
Q 1341 3281 1617 3432 
Q 1894 3584 2278 3584 
Q 2916 3584 3314 3078 
Q 3713 2572 3713 1747 
Q 3713 922 3314 415 
Q 2916 -91 2278 -91 
Q 1894 -91 1617 61 
Q 1341 213 1159 525 
z
M 3116 1747 
Q 3116 2381 2855 2742 
Q 2594 3103 2138 3103 
Q 1681 3103 1420 2742 
Q 1159 2381 1159 1747 
Q 1159 1113 1420 752 
Q 1681 391 2138 391 
Q 2594 391 2855 752 
Q 3116 1113 3116 1747 
z
" transform="scale(0.015625)"/>
      </defs>
      <use xlink:href="#DejaVuSans-53"/>
      <use xlink:href="#DejaVuSans-68" transform="translate(63.476562 0)"/>
      <use xlink:href="#DejaVuSans-6f" transform="translate(126.855469 0)"/>
      <use xlink:href="#DejaVuSans-74" transform="translate(188.037109 0)"/>
      <use xlink:href="#DejaVuSans-20" transform="translate(227.246094 0)"/>
      <use xlink:href="#DejaVuSans-54" transform="translate(259.033203 0)"/>
      <use xlink:href="#DejaVuSans-79" transform="translate(304.492188 0)"/>
      <use xlink:href="#DejaVuSans-70" transform="translate(363.671875 0)"/>
      <use xlink:href="#DejaVuSans-65" transform="translate(427.148438 0)"/>
     </g>
    </g>
    <g id="patch_167">
     <path d="M 796.515625 58.156563 
L 816.515625 58.156563 
L 816.515625 51.156563 
L 796.515625 51.156563 
z
" style="fill: #ffc107"/>
    </g>
    <g id="text_27">
     <!-- FT -->
     <g transform="translate(824.515625 58.156563) scale(0.1 -0.1)">
      <defs>
       <path id="DejaVuSans-46" d="M 628 4666 
L 3309 4666 
L 3309 4134 
L 1259 4134 
L 1259 2759 
L 3109 2759 
L 3109 2228 
L 1259 2228 
L 1259 0 
L 628 0 
L 628 4666 
z
" transform="scale(0.015625)"/>
      </defs>
      <use xlink:href="#DejaVuSans-46"/>
      <use xlink:href="#DejaVuSans-54" transform="translate(55.769531 0)"/>
     </g>
    </g>
    <g id="patch_168">
     <path d="M 796.515625 72.834688 
L 816.515625 72.834688 
L 816.515625 65.834688 
L 796.515625 65.834688 
z
" style="fill: #2196f3"/>
    </g>
    <g id="text_28">
     <!-- 2PT -->
     <g transform="translate(824.515625 72.834688) scale(0.1 -0.1)">
      <use xlink:href="#DejaVuSans-32"/>
      <use xlink:href="#DejaVuSans-50" transform="translate(63.623047 0)"/>
      <use xlink:href="#DejaVuSans-54" transform="translate(123.925781 0)"/>
     </g>
    </g>
    <g id="patch_169">
     <path d="M 796.515625 87.512812 
L 816.515625 87.512812 
L 816.515625 80.512812 
L 796.515625 80.512812 
z
" style="fill: #4caf50"/>
    </g>
    <g id="text_29">
     <!-- 3PT -->
     <g transform="translate(824.515625 87.512812) scale(0.1 -0.1)">
      <use xlink:href="#DejaVuSans-33"/>
      <use xlink:href="#DejaVuSans-50" transform="translate(63.623047 0)"/>
      <use xlink:href="#DejaVuSans-54" transform="translate(123.925781 0)"/>
     </g>
    </g>
   </g>
  </g>
 </g>
 <defs>
  <clipPath id="pe430f290ac">
   <rect x="44.57" y="26.88" width="808.63" height="429.075539"/>
  </clipPath>
 </defs>
</svg>
