<?xml version="1.0" encoding="utf-8" standalone="no"?>
<!DOCTYPE svg PUBLIC "-//W3C//DTD SVG 1.1//EN"
  "http://www.w3.org/Graphics/SVG/1.1/DTD/svg11.dtd">
<svg xmlns:xlink="http://www.w3.org/1999/xlink" width="864pt" height="504pt" viewBox="0 0 864 504" xmlns="http://www.w3.org/2000/svg" version="1.1">
 <metadata>
  <rdf:RDF xmlns:dc="http://purl.org/dc/elements/1.1/" xmlns:cc="http://creativecommons.org/ns#" xmlns:rdf="http://www.w3.org/1999/02/22-rdf-syntax-ns#">
   <cc:Work>
    <dc:type rdf:resource="http://purl.org/dc/dcmitype/StillImage"/>
    <dc:date>2025-08-24T04:35:53.653268</dc:date>
    <dc:format>image/svg+xml</dc:format>
    <dc:creator>
     <cc:Agent>
      <dc:title>Matplotlib v3.10.5, https://matplotlib.org/</dc:title>
     </cc:Agent>
    </dc:creator>
   </cc:Work>
  </rdf:RDF>
 </metadata>
 <defs>
  <style type="text/css">*{stroke-linejoin: round; stroke-linecap: butt}</style>
 </defs>
 <g id="figure_1">
  <g id="patch_1">
   <path d="M 0 504 
L 864 504 
L 864 0 
L 0 0 
z
" style="fill: #ffffff"/>
  </g>
  <g id="axes_1">
   <g id="patch_2">
    <path d="M 62.39 455.955539 
L 853.2 455.955539 
L 853.2 26.88 
L 62.39 26.88 
z
" style="fill: #ffffff"/>
   </g>
   <g id="patch_3">
    <path d="M 66.483219 241.417769 
L 70.84932 241.417769 
L 70.84932 241.417769 
L 66.483219 241.417769 
z
" clip-path="url(#pdd988d48f1)" style="fill: #ffc107"/>
   </g>
   <g id="patch_4">
    <path d="M 82.856097 241.417769 
L 87.222198 241.417769 
L 87.222198 241.417769 
L 82.856097 241.417769 
z
" clip-path="url(#pdd988d48f1)" style="fill: #ffc107"/>
   </g>
   <g id="patch_5">
    <path d="M 99.228975 241.417769 
L 103.595076 241.417769 
L 103.595076 221.914336 
L 99.228975 221.914336 
z
" clip-path="url(#pdd988d48f1)" style="fill: #ffc107"/>
   </g>
   <g id="patch_6">
    <path d="M 115.601853 241.417769 
L 119.967954 241.417769 
L 119.967954 241.417769 
L 115.601853 241.417769 
z
" clip-path="url(#pdd988d48f1)" style="fill: #ffc107"/>
   </g>
   <g id="patch_7">
    <path d="M 131.974731 241.417769 
L 136.340832 241.417769 
L 136.340832 241.417769 
L 131.974731 241.417769 
z
" clip-path="url(#pdd988d48f1)" style="fill: #ffc107"/>
   </g>
   <g id="patch_8">
    <path d="M 148.347609 241.417769 
L 152.713709 241.417769 
L 152.713709 241.417769 
L 148.347609 241.417769 
z
" clip-path="url(#pdd988d48f1)" style="fill: #ffc107"/>
   </g>
   <g id="patch_9">
    <path d="M 164.720487 241.417769 
L 169.086587 241.417769 
L 169.086587 241.417769 
L 164.720487 241.417769 
z
" clip-path="url(#pdd988d48f1)" style="fill: #ffc107"/>
   </g>
   <g id="patch_10">
    <path d="M 181.093364 241.417769 
L 185.459465 241.417769 
L 185.459465 124.397168 
L 181.093364 124.397168 
z
" clip-path="url(#pdd988d48f1)" style="fill: #ffc107"/>
   </g>
   <g id="patch_11">
    <path d="M 197.466242 241.417769 
L 201.832343 241.417769 
L 201.832343 241.417769 
L 197.466242 241.417769 
z
" clip-path="url(#pdd988d48f1)" style="fill: #ffc107"/>
   </g>
   <g id="patch_12">
    <path d="M 213.83912 241.417769 
L 218.205221 241.417769 
L 218.205221 260.921203 
L 213.83912 260.921203 
z
" clip-path="url(#pdd988d48f1)" style="fill: #ffc107"/>
   </g>
   <g id="patch_13">
    <path d="M 230.211998 241.417769 
L 234.578099 241.417769 
L 234.578099 202.410902 
L 230.211998 202.410902 
z
" clip-path="url(#pdd988d48f1)" style="fill: #ffc107"/>
   </g>
   <g id="patch_14">
    <path d="M 246.584876 241.417769 
L 250.950977 241.417769 
L 250.950977 241.417769 
L 246.584876 241.417769 
z
" clip-path="url(#pdd988d48f1)" style="fill: #ffc107"/>
   </g>
   <g id="patch_15">
    <path d="M 262.957754 241.417769 
L 267.323854 241.417769 
L 267.323854 202.410902 
L 262.957754 202.410902 
z
" clip-path="url(#pdd988d48f1)" style="fill: #ffc107"/>
   </g>
   <g id="patch_16">
    <path d="M 279.330631 241.417769 
L 283.696732 241.417769 
L 283.696732 241.417769 
L 279.330631 241.417769 
z
" clip-path="url(#pdd988d48f1)" style="fill: #ffc107"/>
   </g>
   <g id="patch_17">
    <path d="M 295.703509 241.417769 
L 300.06961 241.417769 
L 300.06961 241.417769 
L 295.703509 241.417769 
z
" clip-path="url(#pdd988d48f1)" style="fill: #ffc107"/>
   </g>
   <g id="patch_18">
    <path d="M 312.076387 241.417769 
L 316.442488 241.417769 
L 316.442488 260.921203 
L 312.076387 260.921203 
z
" clip-path="url(#pdd988d48f1)" style="fill: #ffc107"/>
   </g>
   <g id="patch_19">
    <path d="M 328.449265 241.417769 
L 332.815366 241.417769 
L 332.815366 241.417769 
L 328.449265 241.417769 
z
" clip-path="url(#pdd988d48f1)" style="fill: #ffc107"/>
   </g>
   <g id="patch_20">
    <path d="M 344.822143 241.417769 
L 349.188244 241.417769 
L 349.188244 241.417769 
L 344.822143 241.417769 
z
" clip-path="url(#pdd988d48f1)" style="fill: #ffc107"/>
   </g>
   <g id="patch_21">
    <path d="M 361.195021 241.417769 
L 365.561121 241.417769 
L 365.561121 241.417769 
L 361.195021 241.417769 
z
" clip-path="url(#pdd988d48f1)" style="fill: #ffc107"/>
   </g>
   <g id="patch_22">
    <path d="M 377.567899 241.417769 
L 381.933999 241.417769 
L 381.933999 241.417769 
L 377.567899 241.417769 
z
" clip-path="url(#pdd988d48f1)" style="fill: #ffc107"/>
   </g>
   <g id="patch_23">
    <path d="M 393.940776 241.417769 
L 398.306877 241.417769 
L 398.306877 202.410902 
L 393.940776 202.410902 
z
" clip-path="url(#pdd988d48f1)" style="fill: #ffc107"/>
   </g>
   <g id="patch_24">
    <path d="M 410.313654 241.417769 
L 414.679755 241.417769 
L 414.679755 163.404035 
L 410.313654 163.404035 
z
" clip-path="url(#pdd988d48f1)" style="fill: #ffc107"/>
   </g>
   <g id="patch_25">
    <path d="M 426.686532 241.417769 
L 431.052633 241.417769 
L 431.052633 280.424637 
L 426.686532 280.424637 
z
" clip-path="url(#pdd988d48f1)" style="fill: #ffc107"/>
   </g>
   <g id="patch_26">
    <path d="M 443.05941 241.417769 
L 447.425511 241.417769 
L 447.425511 260.921203 
L 443.05941 260.921203 
z
" clip-path="url(#pdd988d48f1)" style="fill: #ffc107"/>
   </g>
   <g id="patch_27">
    <path d="M 459.432288 241.417769 
L 463.798389 241.417769 
L 463.798389 241.417769 
L 459.432288 241.417769 
z
" clip-path="url(#pdd988d48f1)" style="fill: #ffc107"/>
   </g>
   <g id="patch_28">
    <path d="M 475.805166 241.417769 
L 480.171266 241.417769 
L 480.171266 241.417769 
L 475.805166 241.417769 
z
" clip-path="url(#pdd988d48f1)" style="fill: #ffc107"/>
   </g>
   <g id="patch_29">
    <path d="M 492.178043 241.417769 
L 496.544144 241.417769 
L 496.544144 241.417769 
L 492.178043 241.417769 
z
" clip-path="url(#pdd988d48f1)" style="fill: #ffc107"/>
   </g>
   <g id="patch_30">
    <path d="M 508.550921 241.417769 
L 512.917022 241.417769 
L 512.917022 221.914336 
L 508.550921 221.914336 
z
" clip-path="url(#pdd988d48f1)" style="fill: #ffc107"/>
   </g>
   <g id="patch_31">
    <path d="M 524.923799 241.417769 
L 529.2899 241.417769 
L 529.2899 241.417769 
L 524.923799 241.417769 
z
" clip-path="url(#pdd988d48f1)" style="fill: #ffc107"/>
   </g>
   <g id="patch_32">
    <path d="M 541.296677 241.417769 
L 545.662778 241.417769 
L 545.662778 202.410902 
L 541.296677 202.410902 
z
" clip-path="url(#pdd988d48f1)" style="fill: #ffc107"/>
   </g>
   <g id="patch_33">
    <path d="M 557.669555 241.417769 
L 562.035656 241.417769 
L 562.035656 124.397168 
L 557.669555 124.397168 
z
" clip-path="url(#pdd988d48f1)" style="fill: #ffc107"/>
   </g>
   <g id="patch_34">
    <path d="M 574.042433 241.417769 
L 578.408533 241.417769 
L 578.408533 280.424637 
L 574.042433 280.424637 
z
" clip-path="url(#pdd988d48f1)" style="fill: #ffc107"/>
   </g>
   <g id="patch_35">
    <path d="M 590.415311 241.417769 
L 594.781411 241.417769 
L 594.781411 241.417769 
L 590.415311 241.417769 
z
" clip-path="url(#pdd988d48f1)" style="fill: #ffc107"/>
   </g>
   <g id="patch_36">
    <path d="M 606.788188 241.417769 
L 611.154289 241.417769 
L 611.154289 182.907469 
L 606.788188 182.907469 
z
" clip-path="url(#pdd988d48f1)" style="fill: #ffc107"/>
   </g>
   <g id="patch_37">
    <path d="M 623.161066 241.417769 
L 627.527167 241.417769 
L 627.527167 260.921203 
L 623.161066 260.921203 
z
" clip-path="url(#pdd988d48f1)" style="fill: #ffc107"/>
   </g>
   <g id="patch_38">
    <path d="M 639.533944 241.417769 
L 643.900045 241.417769 
L 643.900045 241.417769 
L 639.533944 241.417769 
z
" clip-path="url(#pdd988d48f1)" style="fill: #ffc107"/>
   </g>
   <g id="patch_39">
    <path d="M 655.906822 241.417769 
L 660.272923 241.417769 
L 660.272923 260.921203 
L 655.906822 260.921203 
z
" clip-path="url(#pdd988d48f1)" style="fill: #ffc107"/>
   </g>
   <g id="patch_40">
    <path d="M 672.2797 241.417769 
L 676.645801 241.417769 
L 676.645801 163.404035 
L 672.2797 163.404035 
z
" clip-path="url(#pdd988d48f1)" style="fill: #ffc107"/>
   </g>
   <g id="patch_41">
    <path d="M 688.652578 241.417769 
L 693.018678 241.417769 
L 693.018678 241.417769 
L 688.652578 241.417769 
z
" clip-path="url(#pdd988d48f1)" style="fill: #ffc107"/>
   </g>
   <g id="patch_42">
    <path d="M 705.025455 241.417769 
L 709.391556 241.417769 
L 709.391556 163.404035 
L 705.025455 163.404035 
z
" clip-path="url(#pdd988d48f1)" style="fill: #ffc107"/>
   </g>
   <g id="patch_43">
    <path d="M 721.398333 241.417769 
L 725.764434 241.417769 
L 725.764434 280.424637 
L 721.398333 280.424637 
z
" clip-path="url(#pdd988d48f1)" style="fill: #ffc107"/>
   </g>
   <g id="patch_44">
    <path d="M 737.771211 241.417769 
L 742.137312 241.417769 
L 742.137312 241.417769 
L 737.771211 241.417769 
z
" clip-path="url(#pdd988d48f1)" style="fill: #ffc107"/>
   </g>
   <g id="patch_45">
    <path d="M 754.144089 241.417769 
L 758.51019 241.417769 
L 758.51019 202.410902 
L 754.144089 202.410902 
z
" clip-path="url(#pdd988d48f1)" style="fill: #ffc107"/>
   </g>
   <g id="patch_46">
    <path d="M 770.516967 241.417769 
L 774.883068 241.417769 
L 774.883068 182.907469 
L 770.516967 182.907469 
z
" clip-path="url(#pdd988d48f1)" style="fill: #ffc107"/>
   </g>
   <g id="patch_47">
    <path d="M 786.889845 241.417769 
L 791.255945 241.417769 
L 791.255945 202.410902 
L 786.889845 202.410902 
z
" clip-path="url(#pdd988d48f1)" style="fill: #ffc107"/>
   </g>
   <g id="patch_48">
    <path d="M 803.262723 241.417769 
L 807.628823 241.417769 
L 807.628823 182.907469 
L 803.262723 182.907469 
z
" clip-path="url(#pdd988d48f1)" style="fill: #ffc107"/>
   </g>
   <g id="patch_49">
    <path d="M 819.6356 241.417769 
L 824.001701 241.417769 
L 824.001701 124.397168 
L 819.6356 124.397168 
z
" clip-path="url(#pdd988d48f1)" style="fill: #ffc107"/>
   </g>
   <g id="patch_50">
    <path d="M 836.008478 241.417769 
L 840.374579 241.417769 
L 840.374579 280.424637 
L 836.008478 280.424637 
z
" clip-path="url(#pdd988d48f1)" style="fill: #ffc107"/>
   </g>
   <g id="patch_51">
    <path d="M 70.84932 241.417769 
L 75.215421 241.417769 
L 75.215421 202.410902 
L 70.84932 202.410902 
z
" clip-path="url(#pdd988d48f1)" style="fill: #2196f3"/>
   </g>
   <g id="patch_52">
    <path d="M 87.222198 241.417769 
L 91.588299 241.417769 
L 91.588299 124.397168 
L 87.222198 124.397168 
z
" clip-path="url(#pdd988d48f1)" style="fill: #2196f3"/>
   </g>
   <g id="patch_53">
    <path d="M 103.595076 241.417769 
L 107.961177 241.417769 
L 107.961177 202.410902 
L 103.595076 202.410902 
z
" clip-path="url(#pdd988d48f1)" style="fill: #2196f3"/>
   </g>
   <g id="patch_54">
    <path d="M 119.967954 241.417769 
L 124.334055 241.417769 
L 124.334055 163.404035 
L 119.967954 163.404035 
z
" clip-path="url(#pdd988d48f1)" style="fill: #2196f3"/>
   </g>
   <g id="patch_55">
    <path d="M 136.340832 241.417769 
L 140.706932 241.417769 
L 140.706932 85.390301 
L 136.340832 85.390301 
z
" clip-path="url(#pdd988d48f1)" style="fill: #2196f3"/>
   </g>
   <g id="patch_56">
    <path d="M 152.713709 241.417769 
L 157.07981 241.417769 
L 157.07981 124.397168 
L 152.713709 124.397168 
z
" clip-path="url(#pdd988d48f1)" style="fill: #2196f3"/>
   </g>
   <g id="patch_57">
    <path d="M 169.086587 241.417769 
L 173.452688 241.417769 
L 173.452688 202.410902 
L 169.086587 202.410902 
z
" clip-path="url(#pdd988d48f1)" style="fill: #2196f3"/>
   </g>
   <g id="patch_58">
    <path d="M 185.459465 241.417769 
L 189.825566 241.417769 
L 189.825566 241.417769 
L 185.459465 241.417769 
z
" clip-path="url(#pdd988d48f1)" style="fill: #2196f3"/>
   </g>
   <g id="patch_59">
    <path d="M 201.832343 241.417769 
L 206.198444 241.417769 
L 206.198444 202.410902 
L 201.832343 202.410902 
z
" clip-path="url(#pdd988d48f1)" style="fill: #2196f3"/>
   </g>
   <g id="patch_60">
    <path d="M 218.205221 241.417769 
L 222.571322 241.417769 
L 222.571322 85.390301 
L 218.205221 85.390301 
z
" clip-path="url(#pdd988d48f1)" style="fill: #2196f3"/>
   </g>
   <g id="patch_61">
    <path d="M 234.578099 241.417769 
L 238.944199 241.417769 
L 238.944199 397.445238 
L 234.578099 397.445238 
z
" clip-path="url(#pdd988d48f1)" style="fill: #2196f3"/>
   </g>
   <g id="patch_62">
    <path d="M 250.950977 241.417769 
L 255.317077 241.417769 
L 255.317077 280.424637 
L 250.950977 280.424637 
z
" clip-path="url(#pdd988d48f1)" style="fill: #2196f3"/>
   </g>
   <g id="patch_63">
    <path d="M 267.323854 241.417769 
L 271.689955 241.417769 
L 271.689955 280.424637 
L 267.323854 280.424637 
z
" clip-path="url(#pdd988d48f1)" style="fill: #2196f3"/>
   </g>
   <g id="patch_64">
    <path d="M 283.696732 241.417769 
L 288.062833 241.417769 
L 288.062833 241.417769 
L 283.696732 241.417769 
z
" clip-path="url(#pdd988d48f1)" style="fill: #2196f3"/>
   </g>
   <g id="patch_65">
    <path d="M 300.06961 241.417769 
L 304.435711 241.417769 
L 304.435711 241.417769 
L 300.06961 241.417769 
z
" clip-path="url(#pdd988d48f1)" style="fill: #2196f3"/>
   </g>
   <g id="patch_66">
    <path d="M 316.442488 241.417769 
L 320.808589 241.417769 
L 320.808589 358.438371 
L 316.442488 358.438371 
z
" clip-path="url(#pdd988d48f1)" style="fill: #2196f3"/>
   </g>
   <g id="patch_67">
    <path d="M 332.815366 241.417769 
L 337.181467 241.417769 
L 337.181467 202.410902 
L 332.815366 202.410902 
z
" clip-path="url(#pdd988d48f1)" style="fill: #2196f3"/>
   </g>
   <g id="patch_68">
    <path d="M 349.188244 241.417769 
L 353.554344 241.417769 
L 353.554344 202.410902 
L 349.188244 202.410902 
z
" clip-path="url(#pdd988d48f1)" style="fill: #2196f3"/>
   </g>
   <g id="patch_69">
    <path d="M 365.561121 241.417769 
L 369.927222 241.417769 
L 369.927222 163.404035 
L 365.561121 163.404035 
z
" clip-path="url(#pdd988d48f1)" style="fill: #2196f3"/>
   </g>
   <g id="patch_70">
    <path d="M 381.933999 241.417769 
L 386.3001 241.417769 
L 386.3001 202.410902 
L 381.933999 202.410902 
z
" clip-path="url(#pdd988d48f1)" style="fill: #2196f3"/>
   </g>
   <g id="patch_71">
    <path d="M 398.306877 241.417769 
L 402.672978 241.417769 
L 402.672978 124.397168 
L 398.306877 124.397168 
z
" clip-path="url(#pdd988d48f1)" style="fill: #2196f3"/>
   </g>
   <g id="patch_72">
    <path d="M 414.679755 241.417769 
L 419.045856 241.417769 
L 419.045856 46.383434 
L 414.679755 46.383434 
z
" clip-path="url(#pdd988d48f1)" style="fill: #2196f3"/>
   </g>
   <g id="patch_73">
    <path d="M 431.052633 241.417769 
L 435.418734 241.417769 
L 435.418734 397.445238 
L 431.052633 397.445238 
z
" clip-path="url(#pdd988d48f1)" style="fill: #2196f3"/>
   </g>
   <g id="patch_74">
    <path d="M 447.425511 241.417769 
L 451.791611 241.417769 
L 451.791611 124.397168 
L 447.425511 124.397168 
z
" clip-path="url(#pdd988d48f1)" style="fill: #2196f3"/>
   </g>
   <g id="patch_75">
    <path d="M 463.798389 241.417769 
L 468.164489 241.417769 
L 468.164489 124.397168 
L 463.798389 124.397168 
z
" clip-path="url(#pdd988d48f1)" style="fill: #2196f3"/>
   </g>
   <g id="patch_76">
    <path d="M 480.171266 241.417769 
L 484.537367 241.417769 
L 484.537367 163.404035 
L 480.171266 163.404035 
z
" clip-path="url(#pdd988d48f1)" style="fill: #2196f3"/>
   </g>
   <g id="patch_77">
    <path d="M 496.544144 241.417769 
L 500.910245 241.417769 
L 500.910245 202.410902 
L 496.544144 202.410902 
z
" clip-path="url(#pdd988d48f1)" style="fill: #2196f3"/>
   </g>
   <g id="patch_78">
    <path d="M 512.917022 241.417769 
L 517.283123 241.417769 
L 517.283123 85.390301 
L 512.917022 85.390301 
z
" clip-path="url(#pdd988d48f1)" style="fill: #2196f3"/>
   </g>
   <g id="patch_79">
    <path d="M 529.2899 241.417769 
L 533.656001 241.417769 
L 533.656001 124.397168 
L 529.2899 124.397168 
z
" clip-path="url(#pdd988d48f1)" style="fill: #2196f3"/>
   </g>
   <g id="patch_80">
    <path d="M 545.662778 241.417769 
L 550.028879 241.417769 
L 550.028879 124.397168 
L 545.662778 124.397168 
z
" clip-path="url(#pdd988d48f1)" style="fill: #2196f3"/>
   </g>
   <g id="patch_81">
    <path d="M 562.035656 241.417769 
L 566.401756 241.417769 
L 566.401756 85.390301 
L 562.035656 85.390301 
z
" clip-path="url(#pdd988d48f1)" style="fill: #2196f3"/>
   </g>
   <g id="patch_82">
    <path d="M 578.408533 241.417769 
L 582.774634 241.417769 
L 582.774634 46.383434 
L 578.408533 46.383434 
z
" clip-path="url(#pdd988d48f1)" style="fill: #2196f3"/>
   </g>
   <g id="patch_83">
    <path d="M 594.781411 241.417769 
L 599.147512 241.417769 
L 599.147512 436.452105 
L 594.781411 436.452105 
z
" clip-path="url(#pdd988d48f1)" style="fill: #2196f3"/>
   </g>
   <g id="patch_84">
    <path d="M 611.154289 241.417769 
L 615.52039 241.417769 
L 615.52039 319.431504 
L 611.154289 319.431504 
z
" clip-path="url(#pdd988d48f1)" style="fill: #2196f3"/>
   </g>
   <g id="patch_85">
    <path d="M 627.527167 241.417769 
L 631.893268 241.417769 
L 631.893268 397.445238 
L 627.527167 397.445238 
z
" clip-path="url(#pdd988d48f1)" style="fill: #2196f3"/>
   </g>
   <g id="patch_86">
    <path d="M 643.900045 241.417769 
L 648.266146 241.417769 
L 648.266146 280.424637 
L 643.900045 280.424637 
z
" clip-path="url(#pdd988d48f1)" style="fill: #2196f3"/>
   </g>
   <g id="patch_87">
    <path d="M 660.272923 241.417769 
L 664.639023 241.417769 
L 664.639023 163.404035 
L 660.272923 163.404035 
z
" clip-path="url(#pdd988d48f1)" style="fill: #2196f3"/>
   </g>
   <g id="patch_88">
    <path d="M 676.645801 241.417769 
L 681.011901 241.417769 
L 681.011901 241.417769 
L 676.645801 241.417769 
z
" clip-path="url(#pdd988d48f1)" style="fill: #2196f3"/>
   </g>
   <g id="patch_89">
    <path d="M 693.018678 241.417769 
L 697.384779 241.417769 
L 697.384779 202.410902 
L 693.018678 202.410902 
z
" clip-path="url(#pdd988d48f1)" style="fill: #2196f3"/>
   </g>
   <g id="patch_90">
    <path d="M 709.391556 241.417769 
L 713.757657 241.417769 
L 713.757657 202.410902 
L 709.391556 202.410902 
z
" clip-path="url(#pdd988d48f1)" style="fill: #2196f3"/>
   </g>
   <g id="patch_91">
    <path d="M 725.764434 241.417769 
L 730.130535 241.417769 
L 730.130535 319.431504 
L 725.764434 319.431504 
z
" clip-path="url(#pdd988d48f1)" style="fill: #2196f3"/>
   </g>
   <g id="patch_92">
    <path d="M 742.137312 241.417769 
L 746.503413 241.417769 
L 746.503413 124.397168 
L 742.137312 124.397168 
z
" clip-path="url(#pdd988d48f1)" style="fill: #2196f3"/>
   </g>
   <g id="patch_93">
    <path d="M 758.51019 241.417769 
L 762.876291 241.417769 
L 762.876291 202.410902 
L 758.51019 202.410902 
z
" clip-path="url(#pdd988d48f1)" style="fill: #2196f3"/>
   </g>
   <g id="patch_94">
    <path d="M 774.883068 241.417769 
L 779.249168 241.417769 
L 779.249168 163.404035 
L 774.883068 163.404035 
z
" clip-path="url(#pdd988d48f1)" style="fill: #2196f3"/>
   </g>
   <g id="patch_95">
    <path d="M 791.255945 241.417769 
L 795.622046 241.417769 
L 795.622046 241.417769 
L 791.255945 241.417769 
z
" clip-path="url(#pdd988d48f1)" style="fill: #2196f3"/>
   </g>
   <g id="patch_96">
    <path d="M 807.628823 241.417769 
L 811.994924 241.417769 
L 811.994924 163.404035 
L 807.628823 163.404035 
z
" clip-path="url(#pdd988d48f1)" style="fill: #2196f3"/>
   </g>
   <g id="patch_97">
    <path d="M 824.001701 241.417769 
L 828.367802 241.417769 
L 828.367802 163.404035 
L 824.001701 163.404035 
z
" clip-path="url(#pdd988d48f1)" style="fill: #2196f3"/>
   </g>
   <g id="patch_98">
    <path d="M 840.374579 241.417769 
L 844.74068 241.417769 
L 844.74068 163.404035 
L 840.374579 163.404035 
z
" clip-path="url(#pdd988d48f1)" style="fill: #2196f3"/>
   </g>
   <g id="patch_99">
    <path d="M 75.215421 241.417769 
L 79.581522 241.417769 
L 79.581522 124.397168 
L 75.215421 124.397168 
z
" clip-path="url(#pdd988d48f1)" style="fill: #4caf50"/>
   </g>
   <g id="patch_100">
    <path d="M 91.588299 241.417769 
L 95.9544 241.417769 
L 95.9544 241.417769 
L 91.588299 241.417769 
z
" clip-path="url(#pdd988d48f1)" style="fill: #4caf50"/>
   </g>
   <g id="patch_101">
    <path d="M 107.961177 241.417769 
L 112.327277 241.417769 
L 112.327277 124.397168 
L 107.961177 124.397168 
z
" clip-path="url(#pdd988d48f1)" style="fill: #4caf50"/>
   </g>
   <g id="patch_102">
    <path d="M 124.334055 241.417769 
L 128.700155 241.417769 
L 128.700155 182.907469 
L 124.334055 182.907469 
z
" clip-path="url(#pdd988d48f1)" style="fill: #4caf50"/>
   </g>
   <g id="patch_103">
    <path d="M 140.706932 241.417769 
L 145.073033 241.417769 
L 145.073033 182.907469 
L 140.706932 182.907469 
z
" clip-path="url(#pdd988d48f1)" style="fill: #4caf50"/>
   </g>
   <g id="patch_104">
    <path d="M 157.07981 241.417769 
L 161.445911 241.417769 
L 161.445911 299.92807 
L 157.07981 299.92807 
z
" clip-path="url(#pdd988d48f1)" style="fill: #4caf50"/>
   </g>
   <g id="patch_105">
    <path d="M 173.452688 241.417769 
L 177.818789 241.417769 
L 177.818789 358.438371 
L 173.452688 358.438371 
z
" clip-path="url(#pdd988d48f1)" style="fill: #4caf50"/>
   </g>
   <g id="patch_106">
    <path d="M 189.825566 241.417769 
L 194.191667 241.417769 
L 194.191667 299.92807 
L 189.825566 299.92807 
z
" clip-path="url(#pdd988d48f1)" style="fill: #4caf50"/>
   </g>
   <g id="patch_107">
    <path d="M 206.198444 241.417769 
L 210.564545 241.417769 
L 210.564545 241.417769 
L 206.198444 241.417769 
z
" clip-path="url(#pdd988d48f1)" style="fill: #4caf50"/>
   </g>
   <g id="patch_108">
    <path d="M 222.571322 241.417769 
L 226.937422 241.417769 
L 226.937422 182.907469 
L 222.571322 182.907469 
z
" clip-path="url(#pdd988d48f1)" style="fill: #4caf50"/>
   </g>
   <g id="patch_109">
    <path d="M 238.944199 241.417769 
L 243.3103 241.417769 
L 243.3103 358.438371 
L 238.944199 358.438371 
z
" clip-path="url(#pdd988d48f1)" style="fill: #4caf50"/>
   </g>
   <g id="patch_110">
    <path d="M 255.317077 241.417769 
L 259.683178 241.417769 
L 259.683178 299.92807 
L 255.317077 299.92807 
z
" clip-path="url(#pdd988d48f1)" style="fill: #4caf50"/>
   </g>
   <g id="patch_111">
    <path d="M 271.689955 241.417769 
L 276.056056 241.417769 
L 276.056056 299.92807 
L 271.689955 299.92807 
z
" clip-path="url(#pdd988d48f1)" style="fill: #4caf50"/>
   </g>
   <g id="patch_112">
    <path d="M 288.062833 241.417769 
L 292.428934 241.417769 
L 292.428934 65.886867 
L 288.062833 65.886867 
z
" clip-path="url(#pdd988d48f1)" style="fill: #4caf50"/>
   </g>
   <g id="patch_113">
    <path d="M 304.435711 241.417769 
L 308.801812 241.417769 
L 308.801812 182.907469 
L 304.435711 182.907469 
z
" clip-path="url(#pdd988d48f1)" style="fill: #4caf50"/>
   </g>
   <g id="patch_114">
    <path d="M 320.808589 241.417769 
L 325.174689 241.417769 
L 325.174689 299.92807 
L 320.808589 299.92807 
z
" clip-path="url(#pdd988d48f1)" style="fill: #4caf50"/>
   </g>
   <g id="patch_115">
    <path d="M 337.181467 241.417769 
L 341.547567 241.417769 
L 341.547567 416.948672 
L 337.181467 416.948672 
z
" clip-path="url(#pdd988d48f1)" style="fill: #4caf50"/>
   </g>
   <g id="patch_116">
    <path d="M 353.554344 241.417769 
L 357.920445 241.417769 
L 357.920445 124.397168 
L 353.554344 124.397168 
z
" clip-path="url(#pdd988d48f1)" style="fill: #4caf50"/>
   </g>
   <g id="patch_117">
    <path d="M 369.927222 241.417769 
L 374.293323 241.417769 
L 374.293323 299.92807 
L 369.927222 299.92807 
z
" clip-path="url(#pdd988d48f1)" style="fill: #4caf50"/>
   </g>
   <g id="patch_118">
    <path d="M 386.3001 241.417769 
L 390.666201 241.417769 
L 390.666201 182.907469 
L 386.3001 182.907469 
z
" clip-path="url(#pdd988d48f1)" style="fill: #4caf50"/>
   </g>
   <g id="patch_119">
    <path d="M 402.672978 241.417769 
L 407.039079 241.417769 
L 407.039079 182.907469 
L 402.672978 182.907469 
z
" clip-path="url(#pdd988d48f1)" style="fill: #4caf50"/>
   </g>
   <g id="patch_120">
    <path d="M 419.045856 241.417769 
L 423.411957 241.417769 
L 423.411957 241.417769 
L 419.045856 241.417769 
z
" clip-path="url(#pdd988d48f1)" style="fill: #4caf50"/>
   </g>
   <g id="patch_121">
    <path d="M 435.418734 241.417769 
L 439.784834 241.417769 
L 439.784834 124.397168 
L 435.418734 124.397168 
z
" clip-path="url(#pdd988d48f1)" style="fill: #4caf50"/>
   </g>
   <g id="patch_122">
    <path d="M 451.791611 241.417769 
L 456.157712 241.417769 
L 456.157712 182.907469 
L 451.791611 182.907469 
z
" clip-path="url(#pdd988d48f1)" style="fill: #4caf50"/>
   </g>
   <g id="patch_123">
    <path d="M 468.164489 241.417769 
L 472.53059 241.417769 
L 472.53059 241.417769 
L 468.164489 241.417769 
z
" clip-path="url(#pdd988d48f1)" style="fill: #4caf50"/>
   </g>
   <g id="patch_124">
    <path d="M 484.537367 241.417769 
L 488.903468 241.417769 
L 488.903468 124.397168 
L 484.537367 124.397168 
z
" clip-path="url(#pdd988d48f1)" style="fill: #4caf50"/>
   </g>
   <g id="patch_125">
    <path d="M 500.910245 241.417769 
L 505.276346 241.417769 
L 505.276346 241.417769 
L 500.910245 241.417769 
z
" clip-path="url(#pdd988d48f1)" style="fill: #4caf50"/>
   </g>
   <g id="patch_126">
    <path d="M 517.283123 241.417769 
L 521.649224 241.417769 
L 521.649224 65.886867 
L 517.283123 65.886867 
z
" clip-path="url(#pdd988d48f1)" style="fill: #4caf50"/>
   </g>
   <g id="patch_127">
    <path d="M 533.656001 241.417769 
L 538.022101 241.417769 
L 538.022101 182.907469 
L 533.656001 182.907469 
z
" clip-path="url(#pdd988d48f1)" style="fill: #4caf50"/>
   </g>
   <g id="patch_128">
    <path d="M 550.028879 241.417769 
L 554.394979 241.417769 
L 554.394979 241.417769 
L 550.028879 241.417769 
z
" clip-path="url(#pdd988d48f1)" style="fill: #4caf50"/>
   </g>
   <g id="patch_129">
    <path d="M 566.401756 241.417769 
L 570.767857 241.417769 
L 570.767857 182.907469 
L 566.401756 182.907469 
z
" clip-path="url(#pdd988d48f1)" style="fill: #4caf50"/>
   </g>
   <g id="patch_130">
    <path d="M 582.774634 241.417769 
L 587.140735 241.417769 
L 587.140735 182.907469 
L 582.774634 182.907469 
z
" clip-path="url(#pdd988d48f1)" style="fill: #4caf50"/>
   </g>
   <g id="patch_131">
    <path d="M 599.147512 241.417769 
L 603.513613 241.417769 
L 603.513613 124.397168 
L 599.147512 124.397168 
z
" clip-path="url(#pdd988d48f1)" style="fill: #4caf50"/>
   </g>
   <g id="patch_132">
    <path d="M 615.52039 241.417769 
L 619.886491 241.417769 
L 619.886491 299.92807 
L 615.52039 299.92807 
z
" clip-path="url(#pdd988d48f1)" style="fill: #4caf50"/>
   </g>
   <g id="patch_133">
    <path d="M 631.893268 241.417769 
L 636.259369 241.417769 
L 636.259369 241.417769 
L 631.893268 241.417769 
z
" clip-path="url(#pdd988d48f1)" style="fill: #4caf50"/>
   </g>
   <g id="patch_134">
    <path d="M 648.266146 241.417769 
L 652.632246 241.417769 
L 652.632246 182.907469 
L 648.266146 182.907469 
z
" clip-path="url(#pdd988d48f1)" style="fill: #4caf50"/>
   </g>
   <g id="patch_135">
    <path d="M 664.639023 241.417769 
L 669.005124 241.417769 
L 669.005124 124.397168 
L 664.639023 124.397168 
z
" clip-path="url(#pdd988d48f1)" style="fill: #4caf50"/>
   </g>
   <g id="patch_136">
    <path d="M 681.011901 241.417769 
L 685.378002 241.417769 
L 685.378002 182.907469 
L 681.011901 182.907469 
z
" clip-path="url(#pdd988d48f1)" style="fill: #4caf50"/>
   </g>
   <g id="patch_137">
    <path d="M 697.384779 241.417769 
L 701.75088 241.417769 
L 701.75088 299.92807 
L 697.384779 299.92807 
z
" clip-path="url(#pdd988d48f1)" style="fill: #4caf50"/>
   </g>
   <g id="patch_138">
    <path d="M 713.757657 241.417769 
L 718.123758 241.417769 
L 718.123758 65.886867 
L 713.757657 65.886867 
z
" clip-path="url(#pdd988d48f1)" style="fill: #4caf50"/>
   </g>
   <g id="patch_139">
    <path d="M 730.130535 241.417769 
L 734.496636 241.417769 
L 734.496636 358.438371 
L 730.130535 358.438371 
z
" clip-path="url(#pdd988d48f1)" style="fill: #4caf50"/>
   </g>
   <g id="patch_140">
    <path d="M 746.503413 241.417769 
L 750.869513 241.417769 
L 750.869513 182.907469 
L 746.503413 182.907469 
z
" clip-path="url(#pdd988d48f1)" style="fill: #4caf50"/>
   </g>
   <g id="patch_141">
    <path d="M 762.876291 241.417769 
L 767.242391 241.417769 
L 767.242391 182.907469 
L 762.876291 182.907469 
z
" clip-path="url(#pdd988d48f1)" style="fill: #4caf50"/>
   </g>
   <g id="patch_142">
    <path d="M 779.249168 241.417769 
L 783.615269 241.417769 
L 783.615269 299.92807 
L 779.249168 299.92807 
z
" clip-path="url(#pdd988d48f1)" style="fill: #4caf50"/>
   </g>
   <g id="patch_143">
    <path d="M 795.622046 241.417769 
L 799.988147 241.417769 
L 799.988147 124.397168 
L 795.622046 124.397168 
z
" clip-path="url(#pdd988d48f1)" style="fill: #4caf50"/>
   </g>
   <g id="patch_144">
    <path d="M 811.994924 241.417769 
L 816.361025 241.417769 
L 816.361025 65.886867 
L 811.994924 65.886867 
z
" clip-path="url(#pdd988d48f1)" style="fill: #4caf50"/>
   </g>
   <g id="patch_145">
    <path d="M 828.367802 241.417769 
L 832.733903 241.417769 
L 832.733903 241.417769 
L 828.367802 241.417769 
z
" clip-path="url(#pdd988d48f1)" style="fill: #4caf50"/>
   </g>
   <g id="patch_146">
    <path d="M 844.74068 241.417769 
L 849.106781 241.417769 
L 849.106781 65.886867 
L 844.74068 65.886867 
z
" clip-path="url(#pdd988d48f1)" style="fill: #4caf50"/>
   </g>
   <g id="matplotlib.axis_1">
    <g id="xtick_1">
     <g id="line2d_1">
      <defs>
       <path id="m8bfa0a7da4" d="M 0 0 
L 0 3.5 
" style="stroke: #000000; stroke-width: 0.8"/>
      </defs>
      <g>
       <use xlink:href="#m8bfa0a7da4" x="73.032371" y="455.955539" style="stroke: #000000; stroke-width: 0.8"/>
      </g>
     </g>
     <g id="text_1">
      <!-- 0 -->
      <g transform="translate(72.73406 472.827413) rotate(-45) scale(0.1 -0.1)">
       <defs>
        <path id="DejaVuSans-30" d="M 2034 4250 
Q 1547 4250 1301 3770 
Q 1056 3291 1056 2328 
Q 1056 1369 1301 889 
Q 1547 409 2034 409 
Q 2525 409 2770 889 
Q 3016 1369 3016 2328 
Q 3016 3291 2770 3770 
Q 2525 4250 2034 4250 
z
M 2034 4750 
Q 2819 4750 3233 4129 
Q 3647 3509 3647 2328 
Q 3647 1150 3233 529 
Q 2819 -91 2034 -91 
Q 1250 -91 836 529 
Q 422 1150 422 2328 
Q 422 3509 836 4129 
Q 1250 4750 2034 4750 
z
" transform="scale(0.015625)"/>
       </defs>
       <use xlink:href="#DejaVuSans-30"/>
      </g>
     </g>
    </g>
    <g id="xtick_2">
     <g id="line2d_2">
      <g>
       <use xlink:href="#m8bfa0a7da4" x="89.405248" y="455.955539" style="stroke: #000000; stroke-width: 0.8"/>
      </g>
     </g>
    </g>
    <g id="xtick_3">
     <g id="line2d_3">
      <g>
       <use xlink:href="#m8bfa0a7da4" x="105.778126" y="455.955539" style="stroke: #000000; stroke-width: 0.8"/>
      </g>
     </g>
    </g>
    <g id="xtick_4">
     <g id="line2d_4">
      <g>
       <use xlink:href="#m8bfa0a7da4" x="122.151004" y="455.955539" style="stroke: #000000; stroke-width: 0.8"/>
      </g>
     </g>
    </g>
    <g id="xtick_5">
     <g id="line2d_5">
      <g>
       <use xlink:href="#m8bfa0a7da4" x="138.523882" y="455.955539" style="stroke: #000000; stroke-width: 0.8"/>
      </g>
     </g>
    </g>
    <g id="xtick_6">
     <g id="line2d_6">
      <g>
       <use xlink:href="#m8bfa0a7da4" x="154.89676" y="455.955539" style="stroke: #000000; stroke-width: 0.8"/>
      </g>
     </g>
     <g id="text_2">
      <!-- 5 -->
      <g transform="translate(154.598449 472.827413) rotate(-45) scale(0.1 -0.1)">
       <defs>
        <path id="DejaVuSans-35" d="M 691 4666 
L 3169 4666 
L 3169 4134 
L 1269 4134 
L 1269 2991 
Q 1406 3038 1543 3061 
Q 1681 3084 1819 3084 
Q 2600 3084 3056 2656 
Q 3513 2228 3513 1497 
Q 3513 744 3044 326 
Q 2575 -91 1722 -91 
Q 1428 -91 1123 -41 
Q 819 9 494 109 
L 494 744 
Q 775 591 1075 516 
Q 1375 441 1709 441 
Q 2250 441 2565 725 
Q 2881 1009 2881 1497 
Q 2881 1984 2565 2268 
Q 2250 2553 1709 2553 
Q 1456 2553 1204 2497 
Q 953 2441 691 2322 
L 691 4666 
z
" transform="scale(0.015625)"/>
       </defs>
       <use xlink:href="#DejaVuSans-35"/>
      </g>
     </g>
    </g>
    <g id="xtick_7">
     <g id="line2d_7">
      <g>
       <use xlink:href="#m8bfa0a7da4" x="171.269638" y="455.955539" style="stroke: #000000; stroke-width: 0.8"/>
      </g>
     </g>
    </g>
    <g id="xtick_8">
     <g id="line2d_8">
      <g>
       <use xlink:href="#m8bfa0a7da4" x="187.642516" y="455.955539" style="stroke: #000000; stroke-width: 0.8"/>
      </g>
     </g>
    </g>
    <g id="xtick_9">
     <g id="line2d_9">
      <g>
       <use xlink:href="#m8bfa0a7da4" x="204.015393" y="455.955539" style="stroke: #000000; stroke-width: 0.8"/>
      </g>
     </g>
    </g>
    <g id="xtick_10">
     <g id="line2d_10">
      <g>
       <use xlink:href="#m8bfa0a7da4" x="220.388271" y="455.955539" style="stroke: #000000; stroke-width: 0.8"/>
      </g>
     </g>
    </g>
    <g id="xtick_11">
     <g id="line2d_11">
      <g>
       <use xlink:href="#m8bfa0a7da4" x="236.761149" y="455.955539" style="stroke: #000000; stroke-width: 0.8"/>
      </g>
     </g>
     <g id="text_3">
      <!-- 10 -->
      <g transform="translate(234.213355 477.326379) rotate(-45) scale(0.1 -0.1)">
       <defs>
        <path id="DejaVuSans-31" d="M 794 531 
L 1825 531 
L 1825 4091 
L 703 3866 
L 703 4441 
L 1819 4666 
L 2450 4666 
L 2450 531 
L 3481 531 
L 3481 0 
L 794 0 
L 794 531 
z
" transform="scale(0.015625)"/>
       </defs>
       <use xlink:href="#DejaVuSans-31"/>
       <use xlink:href="#DejaVuSans-30" transform="translate(63.623047 0)"/>
      </g>
     </g>
    </g>
    <g id="xtick_12">
     <g id="line2d_12">
      <g>
       <use xlink:href="#m8bfa0a7da4" x="253.134027" y="455.955539" style="stroke: #000000; stroke-width: 0.8"/>
      </g>
     </g>
     <g id="text_4">
      <!-- 11 -->
      <g transform="translate(250.586233 477.326379) rotate(-45) scale(0.1 -0.1)">
       <use xlink:href="#DejaVuSans-31"/>
       <use xlink:href="#DejaVuSans-31" transform="translate(63.623047 0)"/>
      </g>
     </g>
    </g>
    <g id="xtick_13">
     <g id="line2d_13">
      <g>
       <use xlink:href="#m8bfa0a7da4" x="269.506905" y="455.955539" style="stroke: #000000; stroke-width: 0.8"/>
      </g>
     </g>
    </g>
    <g id="xtick_14">
     <g id="line2d_14">
      <g>
       <use xlink:href="#m8bfa0a7da4" x="285.879783" y="455.955539" style="stroke: #000000; stroke-width: 0.8"/>
      </g>
     </g>
    </g>
    <g id="xtick_15">
     <g id="line2d_15">
      <g>
       <use xlink:href="#m8bfa0a7da4" x="302.25266" y="455.955539" style="stroke: #000000; stroke-width: 0.8"/>
      </g>
     </g>
    </g>
    <g id="xtick_16">
     <g id="line2d_16">
      <g>
       <use xlink:href="#m8bfa0a7da4" x="318.625538" y="455.955539" style="stroke: #000000; stroke-width: 0.8"/>
      </g>
     </g>
     <g id="text_5">
      <!-- 15 -->
      <g transform="translate(316.077744 477.326379) rotate(-45) scale(0.1 -0.1)">
       <use xlink:href="#DejaVuSans-31"/>
       <use xlink:href="#DejaVuSans-35" transform="translate(63.623047 0)"/>
      </g>
     </g>
    </g>
    <g id="xtick_17">
     <g id="line2d_17">
      <g>
       <use xlink:href="#m8bfa0a7da4" x="334.998416" y="455.955539" style="stroke: #000000; stroke-width: 0.8"/>
      </g>
     </g>
    </g>
    <g id="xtick_18">
     <g id="line2d_18">
      <g>
       <use xlink:href="#m8bfa0a7da4" x="351.371294" y="455.955539" style="stroke: #000000; stroke-width: 0.8"/>
      </g>
     </g>
    </g>
    <g id="xtick_19">
     <g id="line2d_19">
      <g>
       <use xlink:href="#m8bfa0a7da4" x="367.744172" y="455.955539" style="stroke: #000000; stroke-width: 0.8"/>
      </g>
     </g>
    </g>
    <g id="xtick_20">
     <g id="line2d_20">
      <g>
       <use xlink:href="#m8bfa0a7da4" x="384.11705" y="455.955539" style="stroke: #000000; stroke-width: 0.8"/>
      </g>
     </g>
    </g>
    <g id="xtick_21">
     <g id="line2d_21">
      <g>
       <use xlink:href="#m8bfa0a7da4" x="400.489928" y="455.955539" style="stroke: #000000; stroke-width: 0.8"/>
      </g>
     </g>
     <g id="text_6">
      <!-- 20 -->
      <g transform="translate(397.942133 477.326379) rotate(-45) scale(0.1 -0.1)">
       <defs>
        <path id="DejaVuSans-32" d="M 1228 531 
L 3431 531 
L 3431 0 
L 469 0 
L 469 531 
Q 828 903 1448 1529 
Q 2069 2156 2228 2338 
Q 2531 2678 2651 2914 
Q 2772 3150 2772 3378 
Q 2772 3750 2511 3984 
Q 2250 4219 1831 4219 
Q 1534 4219 1204 4116 
Q 875 4013 500 3803 
L 500 4441 
Q 881 4594 1212 4672 
Q 1544 4750 1819 4750 
Q 2544 4750 2975 4387 
Q 3406 4025 3406 3419 
Q 3406 3131 3298 2873 
Q 3191 2616 2906 2266 
Q 2828 2175 2409 1742 
Q 1991 1309 1228 531 
z
" transform="scale(0.015625)"/>
       </defs>
       <use xlink:href="#DejaVuSans-32"/>
       <use xlink:href="#DejaVuSans-30" transform="translate(63.623047 0)"/>
      </g>
     </g>
    </g>
    <g id="xtick_22">
     <g id="line2d_22">
      <g>
       <use xlink:href="#m8bfa0a7da4" x="416.862805" y="455.955539" style="stroke: #000000; stroke-width: 0.8"/>
      </g>
     </g>
    </g>
    <g id="xtick_23">
     <g id="line2d_23">
      <g>
       <use xlink:href="#m8bfa0a7da4" x="433.235683" y="455.955539" style="stroke: #000000; stroke-width: 0.8"/>
      </g>
     </g>
    </g>
    <g id="xtick_24">
     <g id="line2d_24">
      <g>
       <use xlink:href="#m8bfa0a7da4" x="449.608561" y="455.955539" style="stroke: #000000; stroke-width: 0.8"/>
      </g>
     </g>
     <g id="text_7">
      <!-- 23 -->
      <g transform="translate(447.060767 477.326379) rotate(-45) scale(0.1 -0.1)">
       <defs>
        <path id="DejaVuSans-33" d="M 2597 2516 
Q 3050 2419 3304 2112 
Q 3559 1806 3559 1356 
Q 3559 666 3084 287 
Q 2609 -91 1734 -91 
Q 1441 -91 1130 -33 
Q 819 25 488 141 
L 488 750 
Q 750 597 1062 519 
Q 1375 441 1716 441 
Q 2309 441 2620 675 
Q 2931 909 2931 1356 
Q 2931 1769 2642 2001 
Q 2353 2234 1838 2234 
L 1294 2234 
L 1294 2753 
L 1863 2753 
Q 2328 2753 2575 2939 
Q 2822 3125 2822 3475 
Q 2822 3834 2567 4026 
Q 2313 4219 1838 4219 
Q 1578 4219 1281 4162 
Q 984 4106 628 3988 
L 628 4550 
Q 988 4650 1302 4700 
Q 1616 4750 1894 4750 
Q 2613 4750 3031 4423 
Q 3450 4097 3450 3541 
Q 3450 3153 3228 2886 
Q 3006 2619 2597 2516 
z
" transform="scale(0.015625)"/>
       </defs>
       <use xlink:href="#DejaVuSans-32"/>
       <use xlink:href="#DejaVuSans-33" transform="translate(63.623047 0)"/>
      </g>
     </g>
    </g>
    <g id="xtick_25">
     <g id="line2d_25">
      <g>
       <use xlink:href="#m8bfa0a7da4" x="465.981439" y="455.955539" style="stroke: #000000; stroke-width: 0.8"/>
      </g>
     </g>
    </g>
    <g id="xtick_26">
     <g id="line2d_26">
      <g>
       <use xlink:href="#m8bfa0a7da4" x="482.354317" y="455.955539" style="stroke: #000000; stroke-width: 0.8"/>
      </g>
     </g>
     <g id="text_8">
      <!-- 25 -->
      <g transform="translate(479.806523 477.326379) rotate(-45) scale(0.1 -0.1)">
       <use xlink:href="#DejaVuSans-32"/>
       <use xlink:href="#DejaVuSans-35" transform="translate(63.623047 0)"/>
      </g>
     </g>
    </g>
    <g id="xtick_27">
     <g id="line2d_27">
      <g>
       <use xlink:href="#m8bfa0a7da4" x="498.727195" y="455.955539" style="stroke: #000000; stroke-width: 0.8"/>
      </g>
     </g>
    </g>
    <g id="xtick_28">
     <g id="line2d_28">
      <g>
       <use xlink:href="#m8bfa0a7da4" x="515.100072" y="455.955539" style="stroke: #000000; stroke-width: 0.8"/>
      </g>
     </g>
    </g>
    <g id="xtick_29">
     <g id="line2d_29">
      <g>
       <use xlink:href="#m8bfa0a7da4" x="531.47295" y="455.955539" style="stroke: #000000; stroke-width: 0.8"/>
      </g>
     </g>
    </g>
    <g id="xtick_30">
     <g id="line2d_30">
      <g>
       <use xlink:href="#m8bfa0a7da4" x="547.845828" y="455.955539" style="stroke: #000000; stroke-width: 0.8"/>
      </g>
     </g>
    </g>
    <g id="xtick_31">
     <g id="line2d_31">
      <g>
       <use xlink:href="#m8bfa0a7da4" x="564.218706" y="455.955539" style="stroke: #000000; stroke-width: 0.8"/>
      </g>
     </g>
     <g id="text_9">
      <!-- 30 -->
      <g transform="translate(561.670912 477.326379) rotate(-45) scale(0.1 -0.1)">
       <use xlink:href="#DejaVuSans-33"/>
       <use xlink:href="#DejaVuSans-30" transform="translate(63.623047 0)"/>
      </g>
     </g>
    </g>
    <g id="xtick_32">
     <g id="line2d_32">
      <g>
       <use xlink:href="#m8bfa0a7da4" x="580.591584" y="455.955539" style="stroke: #000000; stroke-width: 0.8"/>
      </g>
     </g>
    </g>
    <g id="xtick_33">
     <g id="line2d_33">
      <g>
       <use xlink:href="#m8bfa0a7da4" x="596.964462" y="455.955539" style="stroke: #000000; stroke-width: 0.8"/>
      </g>
     </g>
    </g>
    <g id="xtick_34">
     <g id="line2d_34">
      <g>
       <use xlink:href="#m8bfa0a7da4" x="613.33734" y="455.955539" style="stroke: #000000; stroke-width: 0.8"/>
      </g>
     </g>
    </g>
    <g id="xtick_35">
     <g id="line2d_35">
      <g>
       <use xlink:href="#m8bfa0a7da4" x="629.710217" y="455.955539" style="stroke: #000000; stroke-width: 0.8"/>
      </g>
     </g>
    </g>
    <g id="xtick_36">
     <g id="line2d_36">
      <g>
       <use xlink:href="#m8bfa0a7da4" x="646.083095" y="455.955539" style="stroke: #000000; stroke-width: 0.8"/>
      </g>
     </g>
     <g id="text_10">
      <!-- 35 -->
      <g transform="translate(643.535301 477.326379) rotate(-45) scale(0.1 -0.1)">
       <use xlink:href="#DejaVuSans-33"/>
       <use xlink:href="#DejaVuSans-35" transform="translate(63.623047 0)"/>
      </g>
     </g>
    </g>
    <g id="xtick_37">
     <g id="line2d_37">
      <g>
       <use xlink:href="#m8bfa0a7da4" x="662.455973" y="455.955539" style="stroke: #000000; stroke-width: 0.8"/>
      </g>
     </g>
    </g>
    <g id="xtick_38">
     <g id="line2d_38">
      <g>
       <use xlink:href="#m8bfa0a7da4" x="678.828851" y="455.955539" style="stroke: #000000; stroke-width: 0.8"/>
      </g>
     </g>
    </g>
    <g id="xtick_39">
     <g id="line2d_39">
      <g>
       <use xlink:href="#m8bfa0a7da4" x="695.201729" y="455.955539" style="stroke: #000000; stroke-width: 0.8"/>
      </g>
     </g>
    </g>
    <g id="xtick_40">
     <g id="line2d_40">
      <g>
       <use xlink:href="#m8bfa0a7da4" x="711.574607" y="455.955539" style="stroke: #000000; stroke-width: 0.8"/>
      </g>
     </g>
    </g>
    <g id="xtick_41">
     <g id="line2d_41">
      <g>
       <use xlink:href="#m8bfa0a7da4" x="727.947484" y="455.955539" style="stroke: #000000; stroke-width: 0.8"/>
      </g>
     </g>
     <g id="text_11">
      <!-- 40 -->
      <g transform="translate(725.39969 477.326379) rotate(-45) scale(0.1 -0.1)">
       <defs>
        <path id="DejaVuSans-34" d="M 2419 4116 
L 825 1625 
L 2419 1625 
L 2419 4116 
z
M 2253 4666 
L 3047 4666 
L 3047 1625 
L 3713 1625 
L 3713 1100 
L 3047 1100 
L 3047 0 
L 2419 0 
L 2419 1100 
L 313 1100 
L 313 1709 
L 2253 4666 
z
" transform="scale(0.015625)"/>
       </defs>
       <use xlink:href="#DejaVuSans-34"/>
       <use xlink:href="#DejaVuSans-30" transform="translate(63.623047 0)"/>
      </g>
     </g>
    </g>
    <g id="xtick_42">
     <g id="line2d_42">
      <g>
       <use xlink:href="#m8bfa0a7da4" x="744.320362" y="455.955539" style="stroke: #000000; stroke-width: 0.8"/>
      </g>
     </g>
    </g>
    <g id="xtick_43">
     <g id="line2d_43">
      <g>
       <use xlink:href="#m8bfa0a7da4" x="760.69324" y="455.955539" style="stroke: #000000; stroke-width: 0.8"/>
      </g>
     </g>
    </g>
    <g id="xtick_44">
     <g id="line2d_44">
      <g>
       <use xlink:href="#m8bfa0a7da4" x="777.066118" y="455.955539" style="stroke: #000000; stroke-width: 0.8"/>
      </g>
     </g>
    </g>
    <g id="xtick_45">
     <g id="line2d_45">
      <g>
       <use xlink:href="#m8bfa0a7da4" x="793.438996" y="455.955539" style="stroke: #000000; stroke-width: 0.8"/>
      </g>
     </g>
    </g>
    <g id="xtick_46">
     <g id="line2d_46">
      <g>
       <use xlink:href="#m8bfa0a7da4" x="809.811874" y="455.955539" style="stroke: #000000; stroke-width: 0.8"/>
      </g>
     </g>
     <g id="text_12">
      <!-- 45 -->
      <g transform="translate(807.26408 477.326379) rotate(-45) scale(0.1 -0.1)">
       <use xlink:href="#DejaVuSans-34"/>
       <use xlink:href="#DejaVuSans-35" transform="translate(63.623047 0)"/>
      </g>
     </g>
    </g>
    <g id="xtick_47">
     <g id="line2d_47">
      <g>
       <use xlink:href="#m8bfa0a7da4" x="826.184752" y="455.955539" style="stroke: #000000; stroke-width: 0.8"/>
      </g>
     </g>
    </g>
    <g id="xtick_48">
     <g id="line2d_48">
      <g>
       <use xlink:href="#m8bfa0a7da4" x="842.557629" y="455.955539" style="stroke: #000000; stroke-width: 0.8"/>
      </g>
     </g>
     <g id="text_13">
      <!-- 47 -->
      <g transform="translate(840.009835 477.326379) rotate(-45) scale(0.1 -0.1)">
       <defs>
        <path id="DejaVuSans-37" d="M 525 4666 
L 3525 4666 
L 3525 4397 
L 1831 0 
L 1172 0 
L 2766 4134 
L 525 4134 
L 525 4666 
z
" transform="scale(0.015625)"/>
       </defs>
       <use xlink:href="#DejaVuSans-34"/>
       <use xlink:href="#DejaVuSans-37" transform="translate(63.623047 0)"/>
      </g>
     </g>
    </g>
    <g id="text_14">
     <!-- Game Minute -->
     <g transform="translate(424.243438 490.395378) scale(0.1 -0.1)">
      <defs>
       <path id="DejaVuSans-47" d="M 3809 666 
L 3809 1919 
L 2778 1919 
L 2778 2438 
L 4434 2438 
L 4434 434 
Q 4069 175 3628 42 
Q 3188 -91 2688 -91 
Q 1594 -91 976 548 
Q 359 1188 359 2328 
Q 359 3472 976 4111 
Q 1594 4750 2688 4750 
Q 3144 4750 3555 4637 
Q 3966 4525 4313 4306 
L 4313 3634 
Q 3963 3931 3569 4081 
Q 3175 4231 2741 4231 
Q 1884 4231 1454 3753 
Q 1025 3275 1025 2328 
Q 1025 1384 1454 906 
Q 1884 428 2741 428 
Q 3075 428 3337 486 
Q 3600 544 3809 666 
z
" transform="scale(0.015625)"/>
       <path id="DejaVuSans-61" d="M 2194 1759 
Q 1497 1759 1228 1600 
Q 959 1441 959 1056 
Q 959 750 1161 570 
Q 1363 391 1709 391 
Q 2188 391 2477 730 
Q 2766 1069 2766 1631 
L 2766 1759 
L 2194 1759 
z
M 3341 1997 
L 3341 0 
L 2766 0 
L 2766 531 
Q 2569 213 2275 61 
Q 1981 -91 1556 -91 
Q 1019 -91 701 211 
Q 384 513 384 1019 
Q 384 1609 779 1909 
Q 1175 2209 1959 2209 
L 2766 2209 
L 2766 2266 
Q 2766 2663 2505 2880 
Q 2244 3097 1772 3097 
Q 1472 3097 1187 3025 
Q 903 2953 641 2809 
L 641 3341 
Q 956 3463 1253 3523 
Q 1550 3584 1831 3584 
Q 2591 3584 2966 3190 
Q 3341 2797 3341 1997 
z
" transform="scale(0.015625)"/>
       <path id="DejaVuSans-6d" d="M 3328 2828 
Q 3544 3216 3844 3400 
Q 4144 3584 4550 3584 
Q 5097 3584 5394 3201 
Q 5691 2819 5691 2113 
L 5691 0 
L 5113 0 
L 5113 2094 
Q 5113 2597 4934 2840 
Q 4756 3084 4391 3084 
Q 3944 3084 3684 2787 
Q 3425 2491 3425 1978 
L 3425 0 
L 2847 0 
L 2847 2094 
Q 2847 2600 2669 2842 
Q 2491 3084 2119 3084 
Q 1678 3084 1418 2786 
Q 1159 2488 1159 1978 
L 1159 0 
L 581 0 
L 581 3500 
L 1159 3500 
L 1159 2956 
Q 1356 3278 1631 3431 
Q 1906 3584 2284 3584 
Q 2666 3584 2933 3390 
Q 3200 3197 3328 2828 
z
" transform="scale(0.015625)"/>
       <path id="DejaVuSans-65" d="M 3597 1894 
L 3597 1613 
L 953 1613 
Q 991 1019 1311 708 
Q 1631 397 2203 397 
Q 2534 397 2845 478 
Q 3156 559 3463 722 
L 3463 178 
Q 3153 47 2828 -22 
Q 2503 -91 2169 -91 
Q 1331 -91 842 396 
Q 353 884 353 1716 
Q 353 2575 817 3079 
Q 1281 3584 2069 3584 
Q 2775 3584 3186 3129 
Q 3597 2675 3597 1894 
z
M 3022 2063 
Q 3016 2534 2758 2815 
Q 2500 3097 2075 3097 
Q 1594 3097 1305 2825 
Q 1016 2553 972 2059 
L 3022 2063 
z
" transform="scale(0.015625)"/>
       <path id="DejaVuSans-20" transform="scale(0.015625)"/>
       <path id="DejaVuSans-4d" d="M 628 4666 
L 1569 4666 
L 2759 1491 
L 3956 4666 
L 4897 4666 
L 4897 0 
L 4281 0 
L 4281 4097 
L 3078 897 
L 2444 897 
L 1241 4097 
L 1241 0 
L 628 0 
L 628 4666 
z
" transform="scale(0.015625)"/>
       <path id="DejaVuSans-69" d="M 603 3500 
L 1178 3500 
L 1178 0 
L 603 0 
L 603 3500 
z
M 603 4863 
L 1178 4863 
L 1178 4134 
L 603 4134 
L 603 4863 
z
" transform="scale(0.015625)"/>
       <path id="DejaVuSans-6e" d="M 3513 2113 
L 3513 0 
L 2938 0 
L 2938 2094 
Q 2938 2591 2744 2837 
Q 2550 3084 2163 3084 
Q 1697 3084 1428 2787 
Q 1159 2491 1159 1978 
L 1159 0 
L 581 0 
L 581 3500 
L 1159 3500 
L 1159 2956 
Q 1366 3272 1645 3428 
Q 1925 3584 2291 3584 
Q 2894 3584 3203 3211 
Q 3513 2838 3513 2113 
z
" transform="scale(0.015625)"/>
       <path id="DejaVuSans-75" d="M 544 1381 
L 544 3500 
L 1119 3500 
L 1119 1403 
Q 1119 906 1312 657 
Q 1506 409 1894 409 
Q 2359 409 2629 706 
Q 2900 1003 2900 1516 
L 2900 3500 
L 3475 3500 
L 3475 0 
L 2900 0 
L 2900 538 
Q 2691 219 2414 64 
Q 2138 -91 1772 -91 
Q 1169 -91 856 284 
Q 544 659 544 1381 
z
M 1991 3584 
L 1991 3584 
z
" transform="scale(0.015625)"/>
       <path id="DejaVuSans-74" d="M 1172 4494 
L 1172 3500 
L 2356 3500 
L 2356 3053 
L 1172 3053 
L 1172 1153 
Q 1172 725 1289 603 
Q 1406 481 1766 481 
L 2356 481 
L 2356 0 
L 1766 0 
Q 1100 0 847 248 
Q 594 497 594 1153 
L 594 3053 
L 172 3053 
L 172 3500 
L 594 3500 
L 594 4494 
L 1172 4494 
z
" transform="scale(0.015625)"/>
      </defs>
      <use xlink:href="#DejaVuSans-47"/>
      <use xlink:href="#DejaVuSans-61" transform="translate(77.490234 0)"/>
      <use xlink:href="#DejaVuSans-6d" transform="translate(138.769531 0)"/>
      <use xlink:href="#DejaVuSans-65" transform="translate(236.181641 0)"/>
      <use xlink:href="#DejaVuSans-20" transform="translate(297.705078 0)"/>
      <use xlink:href="#DejaVuSans-4d" transform="translate(329.492188 0)"/>
      <use xlink:href="#DejaVuSans-69" transform="translate(415.771484 0)"/>
      <use xlink:href="#DejaVuSans-6e" transform="translate(443.554688 0)"/>
      <use xlink:href="#DejaVuSans-75" transform="translate(506.933594 0)"/>
      <use xlink:href="#DejaVuSans-74" transform="translate(570.3125 0)"/>
      <use xlink:href="#DejaVuSans-65" transform="translate(609.521484 0)"/>
     </g>
    </g>
   </g>
   <g id="matplotlib.axis_2">
    <g id="ytick_1">
     <g id="line2d_49">
      <defs>
       <path id="m188cafc74b" d="M 0 0 
L -3.5 0 
" style="stroke: #000000; stroke-width: 0.8"/>
      </defs>
      <g>
       <use xlink:href="#m188cafc74b" x="62.39" y="436.452105" style="stroke: #000000; stroke-width: 0.8"/>
      </g>
     </g>
     <g id="text_15">
      <!-- 10.0 -->
      <g transform="translate(24.744687 440.251324) scale(0.1 -0.1)">
       <defs>
        <path id="DejaVuSans-2212" d="M 678 2272 
L 4684 2272 
L 4684 1741 
L 678 1741 
L 678 2272 
z
" transform="scale(0.015625)"/>
        <path id="DejaVuSans-2e" d="M 684 794 
L 1344 794 
L 1344 0 
L 684 0 
L 684 794 
z
" transform="scale(0.015625)"/>
       </defs>
       <use xlink:href="#DejaVuSans-2212"/>
       <use xlink:href="#DejaVuSans-31" transform="translate(83.789062 0)"/>
       <use xlink:href="#DejaVuSans-30" transform="translate(147.412109 0)"/>
       <use xlink:href="#DejaVuSans-2e" transform="translate(211.035156 0)"/>
       <use xlink:href="#DejaVuSans-30" transform="translate(242.822266 0)"/>
      </g>
     </g>
    </g>
    <g id="ytick_2">
     <g id="line2d_50">
      <g>
       <use xlink:href="#m188cafc74b" x="62.39" y="387.693521" style="stroke: #000000; stroke-width: 0.8"/>
      </g>
     </g>
     <g id="text_16">
      <!-- 7.5 -->
      <g transform="translate(31.107187 391.49274) scale(0.1 -0.1)">
       <use xlink:href="#DejaVuSans-2212"/>
       <use xlink:href="#DejaVuSans-37" transform="translate(83.789062 0)"/>
       <use xlink:href="#DejaVuSans-2e" transform="translate(147.412109 0)"/>
       <use xlink:href="#DejaVuSans-35" transform="translate(179.199219 0)"/>
      </g>
     </g>
    </g>
    <g id="ytick_3">
     <g id="line2d_51">
      <g>
       <use xlink:href="#m188cafc74b" x="62.39" y="338.934937" style="stroke: #000000; stroke-width: 0.8"/>
      </g>
     </g>
     <g id="text_17">
      <!-- 5.0 -->
      <g transform="translate(31.107187 342.734156) scale(0.1 -0.1)">
       <use xlink:href="#DejaVuSans-2212"/>
       <use xlink:href="#DejaVuSans-35" transform="translate(83.789062 0)"/>
       <use xlink:href="#DejaVuSans-2e" transform="translate(147.412109 0)"/>
       <use xlink:href="#DejaVuSans-30" transform="translate(179.199219 0)"/>
      </g>
     </g>
    </g>
    <g id="ytick_4">
     <g id="line2d_52">
      <g>
       <use xlink:href="#m188cafc74b" x="62.39" y="290.176353" style="stroke: #000000; stroke-width: 0.8"/>
      </g>
     </g>
     <g id="text_18">
      <!-- 2.5 -->
      <g transform="translate(31.107187 293.975572) scale(0.1 -0.1)">
       <use xlink:href="#DejaVuSans-2212"/>
       <use xlink:href="#DejaVuSans-32" transform="translate(83.789062 0)"/>
       <use xlink:href="#DejaVuSans-2e" transform="translate(147.412109 0)"/>
       <use xlink:href="#DejaVuSans-35" transform="translate(179.199219 0)"/>
      </g>
     </g>
    </g>
    <g id="ytick_5">
     <g id="line2d_53">
      <g>
       <use xlink:href="#m188cafc74b" x="62.39" y="241.417769" style="stroke: #000000; stroke-width: 0.8"/>
      </g>
     </g>
     <g id="text_19">
      <!-- 0.0 -->
      <g transform="translate(39.486875 245.216988) scale(0.1 -0.1)">
       <use xlink:href="#DejaVuSans-30"/>
       <use xlink:href="#DejaVuSans-2e" transform="translate(63.623047 0)"/>
       <use xlink:href="#DejaVuSans-30" transform="translate(95.410156 0)"/>
      </g>
     </g>
    </g>
    <g id="ytick_6">
     <g id="line2d_54">
      <g>
       <use xlink:href="#m188cafc74b" x="62.39" y="192.659186" style="stroke: #000000; stroke-width: 0.8"/>
      </g>
     </g>
     <g id="text_20">
      <!-- 2.5 -->
      <g transform="translate(39.486875 196.458404) scale(0.1 -0.1)">
       <use xlink:href="#DejaVuSans-32"/>
       <use xlink:href="#DejaVuSans-2e" transform="translate(63.623047 0)"/>
       <use xlink:href="#DejaVuSans-35" transform="translate(95.410156 0)"/>
      </g>
     </g>
    </g>
    <g id="ytick_7">
     <g id="line2d_55">
      <g>
       <use xlink:href="#m188cafc74b" x="62.39" y="143.900602" style="stroke: #000000; stroke-width: 0.8"/>
      </g>
     </g>
     <g id="text_21">
      <!-- 5.0 -->
      <g transform="translate(39.486875 147.69982) scale(0.1 -0.1)">
       <use xlink:href="#DejaVuSans-35"/>
       <use xlink:href="#DejaVuSans-2e" transform="translate(63.623047 0)"/>
       <use xlink:href="#DejaVuSans-30" transform="translate(95.410156 0)"/>
      </g>
     </g>
    </g>
    <g id="ytick_8">
     <g id="line2d_56">
      <g>
       <use xlink:href="#m188cafc74b" x="62.39" y="95.142018" style="stroke: #000000; stroke-width: 0.8"/>
      </g>
     </g>
     <g id="text_22">
      <!-- 7.5 -->
      <g transform="translate(39.486875 98.941236) scale(0.1 -0.1)">
       <use xlink:href="#DejaVuSans-37"/>
       <use xlink:href="#DejaVuSans-2e" transform="translate(63.623047 0)"/>
       <use xlink:href="#DejaVuSans-35" transform="translate(95.410156 0)"/>
      </g>
     </g>
    </g>
    <g id="ytick_9">
     <g id="line2d_57">
      <g>
       <use xlink:href="#m188cafc74b" x="62.39" y="46.383434" style="stroke: #000000; stroke-width: 0.8"/>
      </g>
     </g>
     <g id="text_23">
      <!-- 10.0 -->
      <g transform="translate(33.124375 50.182652) scale(0.1 -0.1)">
       <use xlink:href="#DejaVuSans-31"/>
       <use xlink:href="#DejaVuSans-30" transform="translate(63.623047 0)"/>
       <use xlink:href="#DejaVuSans-2e" transform="translate(127.246094 0)"/>
       <use xlink:href="#DejaVuSans-30" transform="translate(159.033203 0)"/>
      </g>
     </g>
    </g>
    <g id="text_24">
     <!-- Point Difference -->
     <g transform="translate(18.665 281.267769) rotate(-90) scale(0.1 -0.1)">
      <defs>
       <path id="DejaVuSans-50" d="M 1259 4147 
L 1259 2394 
L 2053 2394 
Q 2494 2394 2734 2622 
Q 2975 2850 2975 3272 
Q 2975 3691 2734 3919 
Q 2494 4147 2053 4147 
L 1259 4147 
z
M 628 4666 
L 2053 4666 
Q 2838 4666 3239 4311 
Q 3641 3956 3641 3272 
Q 3641 2581 3239 2228 
Q 2838 1875 2053 1875 
L 1259 1875 
L 1259 0 
L 628 0 
L 628 4666 
z
" transform="scale(0.015625)"/>
       <path id="DejaVuSans-6f" d="M 1959 3097 
Q 1497 3097 1228 2736 
Q 959 2375 959 1747 
Q 959 1119 1226 758 
Q 1494 397 1959 397 
Q 2419 397 2687 759 
Q 2956 1122 2956 1747 
Q 2956 2369 2687 2733 
Q 2419 3097 1959 3097 
z
M 1959 3584 
Q 2709 3584 3137 3096 
Q 3566 2609 3566 1747 
Q 3566 888 3137 398 
Q 2709 -91 1959 -91 
Q 1206 -91 779 398 
Q 353 888 353 1747 
Q 353 2609 779 3096 
Q 1206 3584 1959 3584 
z
" transform="scale(0.015625)"/>
       <path id="DejaVuSans-44" d="M 1259 4147 
L 1259 519 
L 2022 519 
Q 2988 519 3436 956 
Q 3884 1394 3884 2338 
Q 3884 3275 3436 3711 
Q 2988 4147 2022 4147 
L 1259 4147 
z
M 628 4666 
L 1925 4666 
Q 3281 4666 3915 4102 
Q 4550 3538 4550 2338 
Q 4550 1131 3912 565 
Q 3275 0 1925 0 
L 628 0 
L 628 4666 
z
" transform="scale(0.015625)"/>
       <path id="DejaVuSans-66" d="M 2375 4863 
L 2375 4384 
L 1825 4384 
Q 1516 4384 1395 4259 
Q 1275 4134 1275 3809 
L 1275 3500 
L 2222 3500 
L 2222 3053 
L 1275 3053 
L 1275 0 
L 697 0 
L 697 3053 
L 147 3053 
L 147 3500 
L 697 3500 
L 697 3744 
Q 697 4328 969 4595 
Q 1241 4863 1831 4863 
L 2375 4863 
z
" transform="scale(0.015625)"/>
       <path id="DejaVuSans-72" d="M 2631 2963 
Q 2534 3019 2420 3045 
Q 2306 3072 2169 3072 
Q 1681 3072 1420 2755 
Q 1159 2438 1159 1844 
L 1159 0 
L 581 0 
L 581 3500 
L 1159 3500 
L 1159 2956 
Q 1341 3275 1631 3429 
Q 1922 3584 2338 3584 
Q 2397 3584 2469 3576 
Q 2541 3569 2628 3553 
L 2631 2963 
z
" transform="scale(0.015625)"/>
       <path id="DejaVuSans-63" d="M 3122 3366 
L 3122 2828 
Q 2878 2963 2633 3030 
Q 2388 3097 2138 3097 
Q 1578 3097 1268 2742 
Q 959 2388 959 1747 
Q 959 1106 1268 751 
Q 1578 397 2138 397 
Q 2388 397 2633 464 
Q 2878 531 3122 666 
L 3122 134 
Q 2881 22 2623 -34 
Q 2366 -91 2075 -91 
Q 1284 -91 818 406 
Q 353 903 353 1747 
Q 353 2603 823 3093 
Q 1294 3584 2113 3584 
Q 2378 3584 2631 3529 
Q 2884 3475 3122 3366 
z
" transform="scale(0.015625)"/>
      </defs>
      <use xlink:href="#DejaVuSans-50"/>
      <use xlink:href="#DejaVuSans-6f" transform="translate(56.677734 0)"/>
      <use xlink:href="#DejaVuSans-69" transform="translate(117.859375 0)"/>
      <use xlink:href="#DejaVuSans-6e" transform="translate(145.642578 0)"/>
      <use xlink:href="#DejaVuSans-74" transform="translate(209.021484 0)"/>
      <use xlink:href="#DejaVuSans-20" transform="translate(248.230469 0)"/>
      <use xlink:href="#DejaVuSans-44" transform="translate(280.017578 0)"/>
      <use xlink:href="#DejaVuSans-69" transform="translate(357.019531 0)"/>
      <use xlink:href="#DejaVuSans-66" transform="translate(384.802734 0)"/>
      <use xlink:href="#DejaVuSans-66" transform="translate(420.007812 0)"/>
      <use xlink:href="#DejaVuSans-65" transform="translate(455.212891 0)"/>
      <use xlink:href="#DejaVuSans-72" transform="translate(516.736328 0)"/>
      <use xlink:href="#DejaVuSans-65" transform="translate(555.599609 0)"/>
      <use xlink:href="#DejaVuSans-6e" transform="translate(617.123047 0)"/>
      <use xlink:href="#DejaVuSans-63" transform="translate(680.501953 0)"/>
      <use xlink:href="#DejaVuSans-65" transform="translate(735.482422 0)"/>
     </g>
    </g>
   </g>
   <g id="line2d_58">
    <path d="M 62.39 241.417769 
L 853.2 241.417769 
" clip-path="url(#pdd988d48f1)" style="fill: none; stroke: #808080; stroke-width: 0.8; stroke-linecap: square"/>
   </g>
   <g id="patch_147">
    <path d="M 62.39 455.955539 
L 62.39 26.88 
" style="fill: none; stroke: #000000; stroke-width: 0.8; stroke-linejoin: miter; stroke-linecap: square"/>
   </g>
   <g id="patch_148">
    <path d="M 853.2 455.955539 
L 853.2 26.88 
" style="fill: none; stroke: #000000; stroke-width: 0.8; stroke-linejoin: miter; stroke-linecap: square"/>
   </g>
   <g id="patch_149">
    <path d="M 62.39 455.955539 
L 853.2 455.955539 
" style="fill: none; stroke: #000000; stroke-width: 0.8; stroke-linejoin: miter; stroke-linecap: square"/>
   </g>
   <g id="patch_150">
    <path d="M 62.39 26.88 
L 853.2 26.88 
" style="fill: none; stroke: #000000; stroke-width: 0.8; stroke-linejoin: miter; stroke-linecap: square"/>
   </g>
   <g id="text_25">
    <!-- Davion Mitchell Point Difference (24-25 vs 23-24) -->
    <g transform="translate(309.900625 20.88) scale(0.12 -0.12)">
     <defs>
      <path id="DejaVuSans-76" d="M 191 3500 
L 800 3500 
L 1894 563 
L 2988 3500 
L 3597 3500 
L 2284 0 
L 1503 0 
L 191 3500 
z
" transform="scale(0.015625)"/>
      <path id="DejaVuSans-68" d="M 3513 2113 
L 3513 0 
L 2938 0 
L 2938 2094 
Q 2938 2591 2744 2837 
Q 2550 3084 2163 3084 
Q 1697 3084 1428 2787 
Q 1159 2491 1159 1978 
L 1159 0 
L 581 0 
L 581 4863 
L 1159 4863 
L 1159 2956 
Q 1366 3272 1645 3428 
Q 1925 3584 2291 3584 
Q 2894 3584 3203 3211 
Q 3513 2838 3513 2113 
z
" transform="scale(0.015625)"/>
      <path id="DejaVuSans-6c" d="M 603 4863 
L 1178 4863 
L 1178 0 
L 603 0 
L 603 4863 
z
" transform="scale(0.015625)"/>
      <path id="DejaVuSans-28" d="M 1984 4856 
Q 1566 4138 1362 3434 
Q 1159 2731 1159 2009 
Q 1159 1288 1364 580 
Q 1569 -128 1984 -844 
L 1484 -844 
Q 1016 -109 783 600 
Q 550 1309 550 2009 
Q 550 2706 781 3412 
Q 1013 4119 1484 4856 
L 1984 4856 
z
" transform="scale(0.015625)"/>
      <path id="DejaVuSans-2d" d="M 313 2009 
L 1997 2009 
L 1997 1497 
L 313 1497 
L 313 2009 
z
" transform="scale(0.015625)"/>
      <path id="DejaVuSans-73" d="M 2834 3397 
L 2834 2853 
Q 2591 2978 2328 3040 
Q 2066 3103 1784 3103 
Q 1356 3103 1142 2972 
Q 928 2841 928 2578 
Q 928 2378 1081 2264 
Q 1234 2150 1697 2047 
L 1894 2003 
Q 2506 1872 2764 1633 
Q 3022 1394 3022 966 
Q 3022 478 2636 193 
Q 2250 -91 1575 -91 
Q 1294 -91 989 -36 
Q 684 19 347 128 
L 347 722 
Q 666 556 975 473 
Q 1284 391 1588 391 
Q 1994 391 2212 530 
Q 2431 669 2431 922 
Q 2431 1156 2273 1281 
Q 2116 1406 1581 1522 
L 1381 1569 
Q 847 1681 609 1914 
Q 372 2147 372 2553 
Q 372 3047 722 3315 
Q 1072 3584 1716 3584 
Q 2034 3584 2315 3537 
Q 2597 3491 2834 3397 
z
" transform="scale(0.015625)"/>
      <path id="DejaVuSans-29" d="M 513 4856 
L 1013 4856 
Q 1481 4119 1714 3412 
Q 1947 2706 1947 2009 
Q 1947 1309 1714 600 
Q 1481 -109 1013 -844 
L 513 -844 
Q 928 -128 1133 580 
Q 1338 1288 1338 2009 
Q 1338 2731 1133 3434 
Q 928 4138 513 4856 
z
" transform="scale(0.015625)"/>
     </defs>
     <use xlink:href="#DejaVuSans-44"/>
     <use xlink:href="#DejaVuSans-61" transform="translate(77.001953 0)"/>
     <use xlink:href="#DejaVuSans-76" transform="translate(138.28125 0)"/>
     <use xlink:href="#DejaVuSans-69" transform="translate(197.460938 0)"/>
     <use xlink:href="#DejaVuSans-6f" transform="translate(225.244141 0)"/>
     <use xlink:href="#DejaVuSans-6e" transform="translate(286.425781 0)"/>
     <use xlink:href="#DejaVuSans-20" transform="translate(349.804688 0)"/>
     <use xlink:href="#DejaVuSans-4d" transform="translate(381.591797 0)"/>
     <use xlink:href="#DejaVuSans-69" transform="translate(467.871094 0)"/>
     <use xlink:href="#DejaVuSans-74" transform="translate(495.654297 0)"/>
     <use xlink:href="#DejaVuSans-63" transform="translate(534.863281 0)"/>
     <use xlink:href="#DejaVuSans-68" transform="translate(589.84375 0)"/>
     <use xlink:href="#DejaVuSans-65" transform="translate(653.222656 0)"/>
     <use xlink:href="#DejaVuSans-6c" transform="translate(714.746094 0)"/>
     <use xlink:href="#DejaVuSans-6c" transform="translate(742.529297 0)"/>
     <use xlink:href="#DejaVuSans-20" transform="translate(770.3125 0)"/>
     <use xlink:href="#DejaVuSans-50" transform="translate(802.099609 0)"/>
     <use xlink:href="#DejaVuSans-6f" transform="translate(858.777344 0)"/>
     <use xlink:href="#DejaVuSans-69" transform="translate(919.958984 0)"/>
     <use xlink:href="#DejaVuSans-6e" transform="translate(947.742188 0)"/>
     <use xlink:href="#DejaVuSans-74" transform="translate(1011.121094 0)"/>
     <use xlink:href="#DejaVuSans-20" transform="translate(1050.330078 0)"/>
     <use xlink:href="#DejaVuSans-44" transform="translate(1082.117188 0)"/>
     <use xlink:href="#DejaVuSans-69" transform="translate(1159.119141 0)"/>
     <use xlink:href="#DejaVuSans-66" transform="translate(1186.902344 0)"/>
     <use xlink:href="#DejaVuSans-66" transform="translate(1222.107422 0)"/>
     <use xlink:href="#DejaVuSans-65" transform="translate(1257.3125 0)"/>
     <use xlink:href="#DejaVuSans-72" transform="translate(1318.835938 0)"/>
     <use xlink:href="#DejaVuSans-65" transform="translate(1357.699219 0)"/>
     <use xlink:href="#DejaVuSans-6e" transform="translate(1419.222656 0)"/>
     <use xlink:href="#DejaVuSans-63" transform="translate(1482.601562 0)"/>
     <use xlink:href="#DejaVuSans-65" transform="translate(1537.582031 0)"/>
     <use xlink:href="#DejaVuSans-20" transform="translate(1599.105469 0)"/>
     <use xlink:href="#DejaVuSans-28" transform="translate(1630.892578 0)"/>
     <use xlink:href="#DejaVuSans-32" transform="translate(1669.90625 0)"/>
     <use xlink:href="#DejaVuSans-34" transform="translate(1733.529297 0)"/>
     <use xlink:href="#DejaVuSans-2d" transform="translate(1797.152344 0)"/>
     <use xlink:href="#DejaVuSans-32" transform="translate(1833.236328 0)"/>
     <use xlink:href="#DejaVuSans-35" transform="translate(1896.859375 0)"/>
     <use xlink:href="#DejaVuSans-20" transform="translate(1960.482422 0)"/>
     <use xlink:href="#DejaVuSans-76" transform="translate(1992.269531 0)"/>
     <use xlink:href="#DejaVuSans-73" transform="translate(2051.449219 0)"/>
     <use xlink:href="#DejaVuSans-20" transform="translate(2103.548828 0)"/>
     <use xlink:href="#DejaVuSans-32" transform="translate(2135.335938 0)"/>
     <use xlink:href="#DejaVuSans-33" transform="translate(2198.958984 0)"/>
     <use xlink:href="#DejaVuSans-2d" transform="translate(2262.582031 0)"/>
     <use xlink:href="#DejaVuSans-32" transform="translate(2298.666016 0)"/>
     <use xlink:href="#DejaVuSans-34" transform="translate(2362.289062 0)"/>
     <use xlink:href="#DejaVuSans-29" transform="translate(2425.912109 0)"/>
    </g>
   </g>
   <g id="legend_1">
    <g id="patch_151">
     <path d="M 69.39 93.5925 
L 122.25875 93.5925 
Q 124.25875 93.5925 124.25875 91.5925 
L 124.25875 33.88 
Q 124.25875 31.88 122.25875 31.88 
L 69.39 31.88 
Q 67.39 31.88 67.39 33.88 
L 67.39 91.5925 
Q 67.39 93.5925 69.39 93.5925 
z
" style="fill: #ffffff; opacity: 0.8; stroke: #cccccc; stroke-linejoin: miter"/>
    </g>
    <g id="text_26">
     <!-- Shot Type -->
     <g transform="translate(71.39 43.478437) scale(0.1 -0.1)">
      <defs>
       <path id="DejaVuSans-53" d="M 3425 4513 
L 3425 3897 
Q 3066 4069 2747 4153 
Q 2428 4238 2131 4238 
Q 1616 4238 1336 4038 
Q 1056 3838 1056 3469 
Q 1056 3159 1242 3001 
Q 1428 2844 1947 2747 
L 2328 2669 
Q 3034 2534 3370 2195 
Q 3706 1856 3706 1288 
Q 3706 609 3251 259 
Q 2797 -91 1919 -91 
Q 1588 -91 1214 -16 
Q 841 59 441 206 
L 441 856 
Q 825 641 1194 531 
Q 1563 422 1919 422 
Q 2459 422 2753 634 
Q 3047 847 3047 1241 
Q 3047 1584 2836 1778 
Q 2625 1972 2144 2069 
L 1759 2144 
Q 1053 2284 737 2584 
Q 422 2884 422 3419 
Q 422 4038 858 4394 
Q 1294 4750 2059 4750 
Q 2388 4750 2728 4690 
Q 3069 4631 3425 4513 
z
" transform="scale(0.015625)"/>
       <path id="DejaVuSans-54" d="M -19 4666 
L 3928 4666 
L 3928 4134 
L 2272 4134 
L 2272 0 
L 1638 0 
L 1638 4134 
L -19 4134 
L -19 4666 
z
" transform="scale(0.015625)"/>
       <path id="DejaVuSans-79" d="M 2059 -325 
Q 1816 -950 1584 -1140 
Q 1353 -1331 966 -1331 
L 506 -1331 
L 506 -850 
L 844 -850 
Q 1081 -850 1212 -737 
Q 1344 -625 1503 -206 
L 1606 56 
L 191 3500 
L 800 3500 
L 1894 763 
L 2988 3500 
L 3597 3500 
L 2059 -325 
z
" transform="scale(0.015625)"/>
       <path id="DejaVuSans-70" d="M 1159 525 
L 1159 -1331 
L 581 -1331 
L 581 3500 
L 1159 3500 
L 1159 2969 
Q 1341 3281 1617 3432 
Q 1894 3584 2278 3584 
Q 2916 3584 3314 3078 
Q 3713 2572 3713 1747 
Q 3713 922 3314 415 
Q 2916 -91 2278 -91 
Q 1894 -91 1617 61 
Q 1341 213 1159 525 
z
M 3116 1747 
Q 3116 2381 2855 2742 
Q 2594 3103 2138 3103 
Q 1681 3103 1420 2742 
Q 1159 2381 1159 1747 
Q 1159 1113 1420 752 
Q 1681 391 2138 391 
Q 2594 391 2855 752 
Q 3116 1113 3116 1747 
z
" transform="scale(0.015625)"/>
      </defs>
      <use xlink:href="#DejaVuSans-53"/>
      <use xlink:href="#DejaVuSans-68" transform="translate(63.476562 0)"/>
      <use xlink:href="#DejaVuSans-6f" transform="translate(126.855469 0)"/>
      <use xlink:href="#DejaVuSans-74" transform="translate(188.037109 0)"/>
      <use xlink:href="#DejaVuSans-20" transform="translate(227.246094 0)"/>
      <use xlink:href="#DejaVuSans-54" transform="translate(259.033203 0)"/>
      <use xlink:href="#DejaVuSans-79" transform="translate(304.492188 0)"/>
      <use xlink:href="#DejaVuSans-70" transform="translate(363.671875 0)"/>
      <use xlink:href="#DejaVuSans-65" transform="translate(427.148438 0)"/>
     </g>
    </g>
    <g id="patch_152">
     <path d="M 72.574375 58.156563 
L 92.574375 58.156563 
L 92.574375 51.156563 
L 72.574375 51.156563 
z
" style="fill: #ffc107"/>
    </g>
    <g id="text_27">
     <!-- FT -->
     <g transform="translate(100.574375 58.156563) scale(0.1 -0.1)">
      <defs>
       <path id="DejaVuSans-46" d="M 628 4666 
L 3309 4666 
L 3309 4134 
L 1259 4134 
L 1259 2759 
L 3109 2759 
L 3109 2228 
L 1259 2228 
L 1259 0 
L 628 0 
L 628 4666 
z
" transform="scale(0.015625)"/>
      </defs>
      <use xlink:href="#DejaVuSans-46"/>
      <use xlink:href="#DejaVuSans-54" transform="translate(55.769531 0)"/>
     </g>
    </g>
    <g id="patch_153">
     <path d="M 72.574375 72.834688 
L 92.574375 72.834688 
L 92.574375 65.834688 
L 72.574375 65.834688 
z
" style="fill: #2196f3"/>
    </g>
    <g id="text_28">
     <!-- 2PT -->
     <g transform="translate(100.574375 72.834688) scale(0.1 -0.1)">
      <use xlink:href="#DejaVuSans-32"/>
      <use xlink:href="#DejaVuSans-50" transform="translate(63.623047 0)"/>
      <use xlink:href="#DejaVuSans-54" transform="translate(123.925781 0)"/>
     </g>
    </g>
    <g id="patch_154">
     <path d="M 72.574375 87.512812 
L 92.574375 87.512812 
L 92.574375 80.512812 
L 72.574375 80.512812 
z
" style="fill: #4caf50"/>
    </g>
    <g id="text_29">
     <!-- 3PT -->
     <g transform="translate(100.574375 87.512812) scale(0.1 -0.1)">
      <use xlink:href="#DejaVuSans-33"/>
      <use xlink:href="#DejaVuSans-50" transform="translate(63.623047 0)"/>
      <use xlink:href="#DejaVuSans-54" transform="translate(123.925781 0)"/>
     </g>
    </g>
   </g>
  </g>
 </g>
 <defs>
  <clipPath id="pdd988d48f1">
   <rect x="62.39" y="26.88" width="790.81" height="429.075539"/>
  </clipPath>
 </defs>
</svg>
