<?xml version="1.0" encoding="utf-8" standalone="no"?>
<!DOCTYPE svg PUBLIC "-//W3C//DTD SVG 1.1//EN"
  "http://www.w3.org/Graphics/SVG/1.1/DTD/svg11.dtd">
<svg xmlns:xlink="http://www.w3.org/1999/xlink" width="864pt" height="504pt" viewBox="0 0 864 504" xmlns="http://www.w3.org/2000/svg" version="1.1">
 <metadata>
  <rdf:RDF xmlns:dc="http://purl.org/dc/elements/1.1/" xmlns:cc="http://creativecommons.org/ns#" xmlns:rdf="http://www.w3.org/1999/02/22-rdf-syntax-ns#">
   <cc:Work>
    <dc:type rdf:resource="http://purl.org/dc/dcmitype/StillImage"/>
    <dc:date>2025-08-24T03:41:57.207506</dc:date>
    <dc:format>image/svg+xml</dc:format>
    <dc:creator>
     <cc:Agent>
      <dc:title>Matplotlib v3.10.5, https://matplotlib.org/</dc:title>
     </cc:Agent>
    </dc:creator>
   </cc:Work>
  </rdf:RDF>
 </metadata>
 <defs>
  <style type="text/css">*{stroke-linejoin: round; stroke-linecap: butt}</style>
 </defs>
 <g id="figure_1">
  <g id="patch_1">
   <path d="M 0 504 
L 864 504 
L 864 0 
L 0 0 
z
" style="fill: #ffffff"/>
  </g>
  <g id="axes_1">
   <g id="patch_2">
    <path d="M 44.57 456.019179 
L 853.2 456.019179 
L 853.2 26.88 
L 44.57 26.88 
z
" style="fill: #ffffff"/>
   </g>
   <g id="patch_3">
    <path d="M 49.238764 456.019179 
L 64.178811 456.019179 
L 64.178811 456.019179 
L 49.238764 456.019179 
z
" clip-path="url(#p74472b4c03)" style="fill: #ffc107"/>
   </g>
   <g id="patch_4">
    <path d="M 67.913822 456.019179 
L 82.853868 456.019179 
L 82.853868 456.019179 
L 67.913822 456.019179 
z
" clip-path="url(#p74472b4c03)" style="fill: #ffc107"/>
   </g>
   <g id="patch_5">
    <path d="M 86.58888 456.019179 
L 101.528926 456.019179 
L 101.528926 456.019179 
L 86.58888 456.019179 
z
" clip-path="url(#p74472b4c03)" style="fill: #ffc107"/>
   </g>
   <g id="patch_6">
    <path d="M 105.263938 456.019179 
L 120.203984 456.019179 
L 120.203984 456.019179 
L 105.263938 456.019179 
z
" clip-path="url(#p74472b4c03)" style="fill: #ffc107"/>
   </g>
   <g id="patch_7">
    <path d="M 123.938995 456.019179 
L 138.879042 456.019179 
L 138.879042 441.422608 
L 123.938995 441.422608 
z
" clip-path="url(#p74472b4c03)" style="fill: #ffc107"/>
   </g>
   <g id="patch_8">
    <path d="M 142.614053 456.019179 
L 157.554099 456.019179 
L 157.554099 339.246613 
L 142.614053 339.246613 
z
" clip-path="url(#p74472b4c03)" style="fill: #ffc107"/>
   </g>
   <g id="patch_9">
    <path d="M 161.289111 456.019179 
L 176.229157 456.019179 
L 176.229157 426.826037 
L 161.289111 426.826037 
z
" clip-path="url(#p74472b4c03)" style="fill: #ffc107"/>
   </g>
   <g id="patch_10">
    <path d="M 179.964169 456.019179 
L 194.904215 456.019179 
L 194.904215 456.019179 
L 179.964169 456.019179 
z
" clip-path="url(#p74472b4c03)" style="fill: #ffc107"/>
   </g>
   <g id="patch_11">
    <path d="M 198.639226 456.019179 
L 213.579273 456.019179 
L 213.579273 456.019179 
L 198.639226 456.019179 
z
" clip-path="url(#p74472b4c03)" style="fill: #ffc107"/>
   </g>
   <g id="patch_12">
    <path d="M 217.314284 456.019179 
L 232.25433 456.019179 
L 232.25433 456.019179 
L 217.314284 456.019179 
z
" clip-path="url(#p74472b4c03)" style="fill: #ffc107"/>
   </g>
   <g id="patch_13">
    <path d="M 235.989342 456.019179 
L 250.929388 456.019179 
L 250.929388 456.019179 
L 235.989342 456.019179 
z
" clip-path="url(#p74472b4c03)" style="fill: #ffc107"/>
   </g>
   <g id="patch_14">
    <path d="M 254.6644 456.019179 
L 269.604446 456.019179 
L 269.604446 456.019179 
L 254.6644 456.019179 
z
" clip-path="url(#p74472b4c03)" style="fill: #ffc107"/>
   </g>
   <g id="patch_15">
    <path d="M 273.339457 456.019179 
L 288.279503 456.019179 
L 288.279503 456.019179 
L 273.339457 456.019179 
z
" clip-path="url(#p74472b4c03)" style="fill: #ffc107"/>
   </g>
   <g id="patch_16">
    <path d="M 292.014515 456.019179 
L 306.954561 456.019179 
L 306.954561 456.019179 
L 292.014515 456.019179 
z
" clip-path="url(#p74472b4c03)" style="fill: #ffc107"/>
   </g>
   <g id="patch_17">
    <path d="M 310.689573 456.019179 
L 325.629619 456.019179 
L 325.629619 441.422608 
L 310.689573 441.422608 
z
" clip-path="url(#p74472b4c03)" style="fill: #ffc107"/>
   </g>
   <g id="patch_18">
    <path d="M 329.36463 456.019179 
L 344.304677 456.019179 
L 344.304677 456.019179 
L 329.36463 456.019179 
z
" clip-path="url(#p74472b4c03)" style="fill: #ffc107"/>
   </g>
   <g id="patch_19">
    <path d="M 348.039688 456.019179 
L 362.979734 456.019179 
L 362.979734 426.826037 
L 348.039688 426.826037 
z
" clip-path="url(#p74472b4c03)" style="fill: #ffc107"/>
   </g>
   <g id="patch_20">
    <path d="M 366.714746 456.019179 
L 381.654792 456.019179 
L 381.654792 426.826037 
L 366.714746 426.826037 
z
" clip-path="url(#p74472b4c03)" style="fill: #ffc107"/>
   </g>
   <g id="patch_21">
    <path d="M 385.389804 456.019179 
L 400.32985 456.019179 
L 400.32985 426.826037 
L 385.389804 426.826037 
z
" clip-path="url(#p74472b4c03)" style="fill: #ffc107"/>
   </g>
   <g id="patch_22">
    <path d="M 404.064861 456.019179 
L 419.004908 456.019179 
L 419.004908 397.632896 
L 404.064861 397.632896 
z
" clip-path="url(#p74472b4c03)" style="fill: #ffc107"/>
   </g>
   <g id="patch_23">
    <path d="M 422.739919 456.019179 
L 437.679965 456.019179 
L 437.679965 456.019179 
L 422.739919 456.019179 
z
" clip-path="url(#p74472b4c03)" style="fill: #ffc107"/>
   </g>
   <g id="patch_24">
    <path d="M 441.414977 456.019179 
L 456.355023 456.019179 
L 456.355023 397.632896 
L 441.414977 397.632896 
z
" clip-path="url(#p74472b4c03)" style="fill: #ffc107"/>
   </g>
   <g id="patch_25">
    <path d="M 460.090035 456.019179 
L 475.030081 456.019179 
L 475.030081 456.019179 
L 460.090035 456.019179 
z
" clip-path="url(#p74472b4c03)" style="fill: #ffc107"/>
   </g>
   <g id="patch_26">
    <path d="M 478.765092 456.019179 
L 493.705139 456.019179 
L 493.705139 426.826037 
L 478.765092 426.826037 
z
" clip-path="url(#p74472b4c03)" style="fill: #ffc107"/>
   </g>
   <g id="patch_27">
    <path d="M 497.44015 456.019179 
L 512.380196 456.019179 
L 512.380196 383.036325 
L 497.44015 383.036325 
z
" clip-path="url(#p74472b4c03)" style="fill: #ffc107"/>
   </g>
   <g id="patch_28">
    <path d="M 516.115208 456.019179 
L 531.055254 456.019179 
L 531.055254 456.019179 
L 516.115208 456.019179 
z
" clip-path="url(#p74472b4c03)" style="fill: #ffc107"/>
   </g>
   <g id="patch_29">
    <path d="M 534.790266 456.019179 
L 549.730312 456.019179 
L 549.730312 353.843184 
L 534.790266 353.843184 
z
" clip-path="url(#p74472b4c03)" style="fill: #ffc107"/>
   </g>
   <g id="patch_30">
    <path d="M 553.465323 456.019179 
L 568.40537 456.019179 
L 568.40537 426.826037 
L 553.465323 426.826037 
z
" clip-path="url(#p74472b4c03)" style="fill: #ffc107"/>
   </g>
   <g id="patch_31">
    <path d="M 572.140381 456.019179 
L 587.080427 456.019179 
L 587.080427 397.632896 
L 572.140381 397.632896 
z
" clip-path="url(#p74472b4c03)" style="fill: #ffc107"/>
   </g>
   <g id="patch_32">
    <path d="M 590.815439 456.019179 
L 605.755485 456.019179 
L 605.755485 426.826037 
L 590.815439 426.826037 
z
" clip-path="url(#p74472b4c03)" style="fill: #ffc107"/>
   </g>
   <g id="patch_33">
    <path d="M 609.490497 456.019179 
L 624.430543 456.019179 
L 624.430543 426.826037 
L 609.490497 426.826037 
z
" clip-path="url(#p74472b4c03)" style="fill: #ffc107"/>
   </g>
   <g id="patch_34">
    <path d="M 628.165554 456.019179 
L 643.1056 456.019179 
L 643.1056 441.422608 
L 628.165554 441.422608 
z
" clip-path="url(#p74472b4c03)" style="fill: #ffc107"/>
   </g>
   <g id="patch_35">
    <path d="M 646.840612 456.019179 
L 661.780658 456.019179 
L 661.780658 456.019179 
L 646.840612 456.019179 
z
" clip-path="url(#p74472b4c03)" style="fill: #ffc107"/>
   </g>
   <g id="patch_36">
    <path d="M 665.51567 456.019179 
L 680.455716 456.019179 
L 680.455716 426.826037 
L 665.51567 426.826037 
z
" clip-path="url(#p74472b4c03)" style="fill: #ffc107"/>
   </g>
   <g id="patch_37">
    <path d="M 684.190727 456.019179 
L 699.130774 456.019179 
L 699.130774 456.019179 
L 684.190727 456.019179 
z
" clip-path="url(#p74472b4c03)" style="fill: #ffc107"/>
   </g>
   <g id="patch_38">
    <path d="M 702.865785 456.019179 
L 717.805831 456.019179 
L 717.805831 368.439754 
L 702.865785 368.439754 
z
" clip-path="url(#p74472b4c03)" style="fill: #ffc107"/>
   </g>
   <g id="patch_39">
    <path d="M 721.540843 456.019179 
L 736.480889 456.019179 
L 736.480889 368.439754 
L 721.540843 368.439754 
z
" clip-path="url(#p74472b4c03)" style="fill: #ffc107"/>
   </g>
   <g id="patch_40">
    <path d="M 740.215901 456.019179 
L 755.155947 456.019179 
L 755.155947 456.019179 
L 740.215901 456.019179 
z
" clip-path="url(#p74472b4c03)" style="fill: #ffc107"/>
   </g>
   <g id="patch_41">
    <path d="M 758.890958 456.019179 
L 773.831005 456.019179 
L 773.831005 412.229466 
L 758.890958 412.229466 
z
" clip-path="url(#p74472b4c03)" style="fill: #ffc107"/>
   </g>
   <g id="patch_42">
    <path d="M 777.566016 456.019179 
L 792.506062 456.019179 
L 792.506062 397.632896 
L 777.566016 397.632896 
z
" clip-path="url(#p74472b4c03)" style="fill: #ffc107"/>
   </g>
   <g id="patch_43">
    <path d="M 796.241074 456.019179 
L 811.18112 456.019179 
L 811.18112 456.019179 
L 796.241074 456.019179 
z
" clip-path="url(#p74472b4c03)" style="fill: #ffc107"/>
   </g>
   <g id="patch_44">
    <path d="M 814.916132 456.019179 
L 829.856178 456.019179 
L 829.856178 426.826037 
L 814.916132 426.826037 
z
" clip-path="url(#p74472b4c03)" style="fill: #ffc107"/>
   </g>
   <g id="patch_45">
    <path d="M 833.591189 456.019179 
L 848.531236 456.019179 
L 848.531236 456.019179 
L 833.591189 456.019179 
z
" clip-path="url(#p74472b4c03)" style="fill: #ffc107"/>
   </g>
   <g id="patch_46">
    <path d="M 49.238764 456.019179 
L 64.178811 456.019179 
L 64.178811 397.632896 
L 49.238764 397.632896 
z
" clip-path="url(#p74472b4c03)" style="fill: #2196f3"/>
   </g>
   <g id="patch_47">
    <path d="M 67.913822 456.019179 
L 82.853868 456.019179 
L 82.853868 310.053472 
L 67.913822 310.053472 
z
" clip-path="url(#p74472b4c03)" style="fill: #2196f3"/>
   </g>
   <g id="patch_48">
    <path d="M 86.58888 456.019179 
L 101.528926 456.019179 
L 101.528926 339.246613 
L 86.58888 339.246613 
z
" clip-path="url(#p74472b4c03)" style="fill: #2196f3"/>
   </g>
   <g id="patch_49">
    <path d="M 105.263938 456.019179 
L 120.203984 456.019179 
L 120.203984 368.439754 
L 105.263938 368.439754 
z
" clip-path="url(#p74472b4c03)" style="fill: #2196f3"/>
   </g>
   <g id="patch_50">
    <path d="M 123.938995 441.422608 
L 138.879042 441.422608 
L 138.879042 412.229466 
L 123.938995 412.229466 
z
" clip-path="url(#p74472b4c03)" style="fill: #2196f3"/>
   </g>
   <g id="patch_51">
    <path d="M 142.614053 339.246613 
L 157.554099 339.246613 
L 157.554099 280.86033 
L 142.614053 280.86033 
z
" clip-path="url(#p74472b4c03)" style="fill: #2196f3"/>
   </g>
   <g id="patch_52">
    <path d="M 161.289111 426.826037 
L 176.229157 426.826037 
L 176.229157 339.246613 
L 161.289111 339.246613 
z
" clip-path="url(#p74472b4c03)" style="fill: #2196f3"/>
   </g>
   <g id="patch_53">
    <path d="M 179.964169 456.019179 
L 194.904215 456.019179 
L 194.904215 339.246613 
L 179.964169 339.246613 
z
" clip-path="url(#p74472b4c03)" style="fill: #2196f3"/>
   </g>
   <g id="patch_54">
    <path d="M 198.639226 456.019179 
L 213.579273 456.019179 
L 213.579273 426.826037 
L 198.639226 426.826037 
z
" clip-path="url(#p74472b4c03)" style="fill: #2196f3"/>
   </g>
   <g id="patch_55">
    <path d="M 217.314284 456.019179 
L 232.25433 456.019179 
L 232.25433 426.826037 
L 217.314284 426.826037 
z
" clip-path="url(#p74472b4c03)" style="fill: #2196f3"/>
   </g>
   <g id="patch_56">
    <path d="M 235.989342 456.019179 
L 250.929388 456.019179 
L 250.929388 397.632896 
L 235.989342 397.632896 
z
" clip-path="url(#p74472b4c03)" style="fill: #2196f3"/>
   </g>
   <g id="patch_57">
    <path d="M 254.6644 456.019179 
L 269.604446 456.019179 
L 269.604446 456.019179 
L 254.6644 456.019179 
z
" clip-path="url(#p74472b4c03)" style="fill: #2196f3"/>
   </g>
   <g id="patch_58">
    <path d="M 273.339457 456.019179 
L 288.279503 456.019179 
L 288.279503 426.826037 
L 273.339457 426.826037 
z
" clip-path="url(#p74472b4c03)" style="fill: #2196f3"/>
   </g>
   <g id="patch_59">
    <path d="M 292.014515 456.019179 
L 306.954561 456.019179 
L 306.954561 368.439754 
L 292.014515 368.439754 
z
" clip-path="url(#p74472b4c03)" style="fill: #2196f3"/>
   </g>
   <g id="patch_60">
    <path d="M 310.689573 441.422608 
L 325.629619 441.422608 
L 325.629619 266.263759 
L 310.689573 266.263759 
z
" clip-path="url(#p74472b4c03)" style="fill: #2196f3"/>
   </g>
   <g id="patch_61">
    <path d="M 329.36463 456.019179 
L 344.304677 456.019179 
L 344.304677 426.826037 
L 329.36463 426.826037 
z
" clip-path="url(#p74472b4c03)" style="fill: #2196f3"/>
   </g>
   <g id="patch_62">
    <path d="M 348.039688 426.826037 
L 362.979734 426.826037 
L 362.979734 339.246613 
L 348.039688 339.246613 
z
" clip-path="url(#p74472b4c03)" style="fill: #2196f3"/>
   </g>
   <g id="patch_63">
    <path d="M 366.714746 426.826037 
L 381.654792 426.826037 
L 381.654792 397.632896 
L 366.714746 397.632896 
z
" clip-path="url(#p74472b4c03)" style="fill: #2196f3"/>
   </g>
   <g id="patch_64">
    <path d="M 385.389804 426.826037 
L 400.32985 426.826037 
L 400.32985 280.86033 
L 385.389804 280.86033 
z
" clip-path="url(#p74472b4c03)" style="fill: #2196f3"/>
   </g>
   <g id="patch_65">
    <path d="M 404.064861 397.632896 
L 419.004908 397.632896 
L 419.004908 310.053472 
L 404.064861 310.053472 
z
" clip-path="url(#p74472b4c03)" style="fill: #2196f3"/>
   </g>
   <g id="patch_66">
    <path d="M 422.739919 456.019179 
L 437.679965 456.019179 
L 437.679965 251.667189 
L 422.739919 251.667189 
z
" clip-path="url(#p74472b4c03)" style="fill: #2196f3"/>
   </g>
   <g id="patch_67">
    <path d="M 441.414977 397.632896 
L 456.355023 397.632896 
L 456.355023 222.474047 
L 441.414977 222.474047 
z
" clip-path="url(#p74472b4c03)" style="fill: #2196f3"/>
   </g>
   <g id="patch_68">
    <path d="M 460.090035 456.019179 
L 475.030081 456.019179 
L 475.030081 310.053472 
L 460.090035 310.053472 
z
" clip-path="url(#p74472b4c03)" style="fill: #2196f3"/>
   </g>
   <g id="patch_69">
    <path d="M 478.765092 426.826037 
L 493.705139 426.826037 
L 493.705139 251.667189 
L 478.765092 251.667189 
z
" clip-path="url(#p74472b4c03)" style="fill: #2196f3"/>
   </g>
   <g id="patch_70">
    <path d="M 497.44015 383.036325 
L 512.380196 383.036325 
L 512.380196 237.070618 
L 497.44015 237.070618 
z
" clip-path="url(#p74472b4c03)" style="fill: #2196f3"/>
   </g>
   <g id="patch_71">
    <path d="M 516.115208 456.019179 
L 531.055254 456.019179 
L 531.055254 310.053472 
L 516.115208 310.053472 
z
" clip-path="url(#p74472b4c03)" style="fill: #2196f3"/>
   </g>
   <g id="patch_72">
    <path d="M 534.790266 353.843184 
L 549.730312 353.843184 
L 549.730312 237.070618 
L 534.790266 237.070618 
z
" clip-path="url(#p74472b4c03)" style="fill: #2196f3"/>
   </g>
   <g id="patch_73">
    <path d="M 553.465323 426.826037 
L 568.40537 426.826037 
L 568.40537 280.86033 
L 553.465323 280.86033 
z
" clip-path="url(#p74472b4c03)" style="fill: #2196f3"/>
   </g>
   <g id="patch_74">
    <path d="M 572.140381 397.632896 
L 587.080427 397.632896 
L 587.080427 310.053472 
L 572.140381 310.053472 
z
" clip-path="url(#p74472b4c03)" style="fill: #2196f3"/>
   </g>
   <g id="patch_75">
    <path d="M 590.815439 456.019179 
L 605.755485 456.019179 
L 605.755485 456.019179 
L 590.815439 456.019179 
z
" clip-path="url(#p74472b4c03)" style="fill: #2196f3"/>
   </g>
   <g id="patch_76">
    <path d="M 609.490497 456.019179 
L 624.430543 456.019179 
L 624.430543 456.019179 
L 609.490497 456.019179 
z
" clip-path="url(#p74472b4c03)" style="fill: #2196f3"/>
   </g>
   <g id="patch_77">
    <path d="M 628.165554 441.422608 
L 643.1056 441.422608 
L 643.1056 353.843184 
L 628.165554 353.843184 
z
" clip-path="url(#p74472b4c03)" style="fill: #2196f3"/>
   </g>
   <g id="patch_78">
    <path d="M 646.840612 456.019179 
L 661.780658 456.019179 
L 661.780658 426.826037 
L 646.840612 426.826037 
z
" clip-path="url(#p74472b4c03)" style="fill: #2196f3"/>
   </g>
   <g id="patch_79">
    <path d="M 665.51567 426.826037 
L 680.455716 426.826037 
L 680.455716 339.246613 
L 665.51567 339.246613 
z
" clip-path="url(#p74472b4c03)" style="fill: #2196f3"/>
   </g>
   <g id="patch_80">
    <path d="M 684.190727 456.019179 
L 699.130774 456.019179 
L 699.130774 397.632896 
L 684.190727 397.632896 
z
" clip-path="url(#p74472b4c03)" style="fill: #2196f3"/>
   </g>
   <g id="patch_81">
    <path d="M 702.865785 368.439754 
L 717.805831 368.439754 
L 717.805831 222.474047 
L 702.865785 222.474047 
z
" clip-path="url(#p74472b4c03)" style="fill: #2196f3"/>
   </g>
   <g id="patch_82">
    <path d="M 721.540843 368.439754 
L 736.480889 368.439754 
L 736.480889 251.667189 
L 721.540843 251.667189 
z
" clip-path="url(#p74472b4c03)" style="fill: #2196f3"/>
   </g>
   <g id="patch_83">
    <path d="M 740.215901 456.019179 
L 755.155947 456.019179 
L 755.155947 251.667189 
L 740.215901 251.667189 
z
" clip-path="url(#p74472b4c03)" style="fill: #2196f3"/>
   </g>
   <g id="patch_84">
    <path d="M 758.890958 412.229466 
L 773.831005 412.229466 
L 773.831005 266.263759 
L 758.890958 266.263759 
z
" clip-path="url(#p74472b4c03)" style="fill: #2196f3"/>
   </g>
   <g id="patch_85">
    <path d="M 777.566016 397.632896 
L 792.506062 397.632896 
L 792.506062 310.053472 
L 777.566016 310.053472 
z
" clip-path="url(#p74472b4c03)" style="fill: #2196f3"/>
   </g>
   <g id="patch_86">
    <path d="M 796.241074 456.019179 
L 811.18112 456.019179 
L 811.18112 368.439754 
L 796.241074 368.439754 
z
" clip-path="url(#p74472b4c03)" style="fill: #2196f3"/>
   </g>
   <g id="patch_87">
    <path d="M 814.916132 456.019179 
L 829.856178 456.019179 
L 829.856178 456.019179 
L 814.916132 456.019179 
z
" clip-path="url(#p74472b4c03)" style="fill: #2196f3"/>
   </g>
   <g id="patch_88">
    <path d="M 833.591189 456.019179 
L 848.531236 456.019179 
L 848.531236 426.826037 
L 833.591189 426.826037 
z
" clip-path="url(#p74472b4c03)" style="fill: #2196f3"/>
   </g>
   <g id="patch_89">
    <path d="M 49.238764 397.632896 
L 64.178811 397.632896 
L 64.178811 91.104911 
L 49.238764 91.104911 
z
" clip-path="url(#p74472b4c03)" style="fill: #4caf50"/>
   </g>
   <g id="patch_90">
    <path d="M 67.913822 310.053472 
L 82.853868 310.053472 
L 82.853868 47.315199 
L 67.913822 47.315199 
z
" clip-path="url(#p74472b4c03)" style="fill: #4caf50"/>
   </g>
   <g id="patch_91">
    <path d="M 86.58888 339.246613 
L 101.528926 339.246613 
L 101.528926 251.667189 
L 86.58888 251.667189 
z
" clip-path="url(#p74472b4c03)" style="fill: #4caf50"/>
   </g>
   <g id="patch_92">
    <path d="M 105.263938 368.439754 
L 120.203984 368.439754 
L 120.203984 149.491194 
L 105.263938 149.491194 
z
" clip-path="url(#p74472b4c03)" style="fill: #4caf50"/>
   </g>
   <g id="patch_93">
    <path d="M 123.938995 412.229466 
L 138.879042 412.229466 
L 138.879042 193.280906 
L 123.938995 193.280906 
z
" clip-path="url(#p74472b4c03)" style="fill: #4caf50"/>
   </g>
   <g id="patch_94">
    <path d="M 142.614053 280.86033 
L 157.554099 280.86033 
L 157.554099 193.280906 
L 142.614053 193.280906 
z
" clip-path="url(#p74472b4c03)" style="fill: #4caf50"/>
   </g>
   <g id="patch_95">
    <path d="M 161.289111 339.246613 
L 176.229157 339.246613 
L 176.229157 251.667189 
L 161.289111 251.667189 
z
" clip-path="url(#p74472b4c03)" style="fill: #4caf50"/>
   </g>
   <g id="patch_96">
    <path d="M 179.964169 339.246613 
L 194.904215 339.246613 
L 194.904215 295.456901 
L 179.964169 295.456901 
z
" clip-path="url(#p74472b4c03)" style="fill: #4caf50"/>
   </g>
   <g id="patch_97">
    <path d="M 198.639226 426.826037 
L 213.579273 426.826037 
L 213.579273 383.036325 
L 198.639226 383.036325 
z
" clip-path="url(#p74472b4c03)" style="fill: #4caf50"/>
   </g>
   <g id="patch_98">
    <path d="M 217.314284 426.826037 
L 232.25433 426.826037 
L 232.25433 383.036325 
L 217.314284 383.036325 
z
" clip-path="url(#p74472b4c03)" style="fill: #4caf50"/>
   </g>
   <g id="patch_99">
    <path d="M 235.989342 456.019179 
L 250.929388 456.019179 
L 250.929388 456.019179 
L 235.989342 456.019179 
z
" clip-path="url(#p74472b4c03)" style="fill: #4caf50"/>
   </g>
   <g id="patch_100">
    <path d="M 254.6644 456.019179 
L 269.604446 456.019179 
L 269.604446 412.229466 
L 254.6644 412.229466 
z
" clip-path="url(#p74472b4c03)" style="fill: #4caf50"/>
   </g>
   <g id="patch_101">
    <path d="M 273.339457 456.019179 
L 288.279503 456.019179 
L 288.279503 456.019179 
L 273.339457 456.019179 
z
" clip-path="url(#p74472b4c03)" style="fill: #4caf50"/>
   </g>
   <g id="patch_102">
    <path d="M 292.014515 368.439754 
L 306.954561 368.439754 
L 306.954561 324.650042 
L 292.014515 324.650042 
z
" clip-path="url(#p74472b4c03)" style="fill: #4caf50"/>
   </g>
   <g id="patch_103">
    <path d="M 310.689573 266.263759 
L 325.629619 266.263759 
L 325.629619 222.474047 
L 310.689573 222.474047 
z
" clip-path="url(#p74472b4c03)" style="fill: #4caf50"/>
   </g>
   <g id="patch_104">
    <path d="M 329.36463 426.826037 
L 344.304677 426.826037 
L 344.304677 339.246613 
L 329.36463 339.246613 
z
" clip-path="url(#p74472b4c03)" style="fill: #4caf50"/>
   </g>
   <g id="patch_105">
    <path d="M 348.039688 339.246613 
L 362.979734 339.246613 
L 362.979734 207.877477 
L 348.039688 207.877477 
z
" clip-path="url(#p74472b4c03)" style="fill: #4caf50"/>
   </g>
   <g id="patch_106">
    <path d="M 366.714746 397.632896 
L 381.654792 397.632896 
L 381.654792 310.053472 
L 366.714746 310.053472 
z
" clip-path="url(#p74472b4c03)" style="fill: #4caf50"/>
   </g>
   <g id="patch_107">
    <path d="M 385.389804 456.019179 
L 400.32985 456.019179 
L 400.32985 456.019179 
L 385.389804 456.019179 
z
" clip-path="url(#p74472b4c03)" style="fill: #4caf50"/>
   </g>
   <g id="patch_108">
    <path d="M 404.064861 310.053472 
L 419.004908 310.053472 
L 419.004908 266.263759 
L 404.064861 266.263759 
z
" clip-path="url(#p74472b4c03)" style="fill: #4caf50"/>
   </g>
   <g id="patch_109">
    <path d="M 422.739919 456.019179 
L 437.679965 456.019179 
L 437.679965 456.019179 
L 422.739919 456.019179 
z
" clip-path="url(#p74472b4c03)" style="fill: #4caf50"/>
   </g>
   <g id="patch_110">
    <path d="M 441.414977 222.474047 
L 456.355023 222.474047 
L 456.355023 91.104911 
L 441.414977 91.104911 
z
" clip-path="url(#p74472b4c03)" style="fill: #4caf50"/>
   </g>
   <g id="patch_111">
    <path d="M 460.090035 456.019179 
L 475.030081 456.019179 
L 475.030081 456.019179 
L 460.090035 456.019179 
z
" clip-path="url(#p74472b4c03)" style="fill: #4caf50"/>
   </g>
   <g id="patch_112">
    <path d="M 478.765092 456.019179 
L 493.705139 456.019179 
L 493.705139 456.019179 
L 478.765092 456.019179 
z
" clip-path="url(#p74472b4c03)" style="fill: #4caf50"/>
   </g>
   <g id="patch_113">
    <path d="M 497.44015 237.070618 
L 512.380196 237.070618 
L 512.380196 193.280906 
L 497.44015 193.280906 
z
" clip-path="url(#p74472b4c03)" style="fill: #4caf50"/>
   </g>
   <g id="patch_114">
    <path d="M 516.115208 456.019179 
L 531.055254 456.019179 
L 531.055254 456.019179 
L 516.115208 456.019179 
z
" clip-path="url(#p74472b4c03)" style="fill: #4caf50"/>
   </g>
   <g id="patch_115">
    <path d="M 534.790266 237.070618 
L 549.730312 237.070618 
L 549.730312 193.280906 
L 534.790266 193.280906 
z
" clip-path="url(#p74472b4c03)" style="fill: #4caf50"/>
   </g>
   <g id="patch_116">
    <path d="M 553.465323 456.019179 
L 568.40537 456.019179 
L 568.40537 456.019179 
L 553.465323 456.019179 
z
" clip-path="url(#p74472b4c03)" style="fill: #4caf50"/>
   </g>
   <g id="patch_117">
    <path d="M 572.140381 456.019179 
L 587.080427 456.019179 
L 587.080427 456.019179 
L 572.140381 456.019179 
z
" clip-path="url(#p74472b4c03)" style="fill: #4caf50"/>
   </g>
   <g id="patch_118">
    <path d="M 590.815439 426.826037 
L 605.755485 426.826037 
L 605.755485 383.036325 
L 590.815439 383.036325 
z
" clip-path="url(#p74472b4c03)" style="fill: #4caf50"/>
   </g>
   <g id="patch_119">
    <path d="M 609.490497 456.019179 
L 624.430543 456.019179 
L 624.430543 456.019179 
L 609.490497 456.019179 
z
" clip-path="url(#p74472b4c03)" style="fill: #4caf50"/>
   </g>
   <g id="patch_120">
    <path d="M 628.165554 456.019179 
L 643.1056 456.019179 
L 643.1056 456.019179 
L 628.165554 456.019179 
z
" clip-path="url(#p74472b4c03)" style="fill: #4caf50"/>
   </g>
   <g id="patch_121">
    <path d="M 646.840612 456.019179 
L 661.780658 456.019179 
L 661.780658 456.019179 
L 646.840612 456.019179 
z
" clip-path="url(#p74472b4c03)" style="fill: #4caf50"/>
   </g>
   <g id="patch_122">
    <path d="M 665.51567 456.019179 
L 680.455716 456.019179 
L 680.455716 456.019179 
L 665.51567 456.019179 
z
" clip-path="url(#p74472b4c03)" style="fill: #4caf50"/>
   </g>
   <g id="patch_123">
    <path d="M 684.190727 456.019179 
L 699.130774 456.019179 
L 699.130774 456.019179 
L 684.190727 456.019179 
z
" clip-path="url(#p74472b4c03)" style="fill: #4caf50"/>
   </g>
   <g id="patch_124">
    <path d="M 702.865785 222.474047 
L 717.805831 222.474047 
L 717.805831 134.894623 
L 702.865785 134.894623 
z
" clip-path="url(#p74472b4c03)" style="fill: #4caf50"/>
   </g>
   <g id="patch_125">
    <path d="M 721.540843 456.019179 
L 736.480889 456.019179 
L 736.480889 456.019179 
L 721.540843 456.019179 
z
" clip-path="url(#p74472b4c03)" style="fill: #4caf50"/>
   </g>
   <g id="patch_126">
    <path d="M 740.215901 456.019179 
L 755.155947 456.019179 
L 755.155947 456.019179 
L 740.215901 456.019179 
z
" clip-path="url(#p74472b4c03)" style="fill: #4caf50"/>
   </g>
   <g id="patch_127">
    <path d="M 758.890958 456.019179 
L 773.831005 456.019179 
L 773.831005 456.019179 
L 758.890958 456.019179 
z
" clip-path="url(#p74472b4c03)" style="fill: #4caf50"/>
   </g>
   <g id="patch_128">
    <path d="M 777.566016 456.019179 
L 792.506062 456.019179 
L 792.506062 456.019179 
L 777.566016 456.019179 
z
" clip-path="url(#p74472b4c03)" style="fill: #4caf50"/>
   </g>
   <g id="patch_129">
    <path d="M 796.241074 456.019179 
L 811.18112 456.019179 
L 811.18112 456.019179 
L 796.241074 456.019179 
z
" clip-path="url(#p74472b4c03)" style="fill: #4caf50"/>
   </g>
   <g id="patch_130">
    <path d="M 814.916132 456.019179 
L 829.856178 456.019179 
L 829.856178 456.019179 
L 814.916132 456.019179 
z
" clip-path="url(#p74472b4c03)" style="fill: #4caf50"/>
   </g>
   <g id="patch_131">
    <path d="M 833.591189 456.019179 
L 848.531236 456.019179 
L 848.531236 456.019179 
L 833.591189 456.019179 
z
" clip-path="url(#p74472b4c03)" style="fill: #4caf50"/>
   </g>
   <g id="matplotlib.axis_1">
    <g id="xtick_1">
     <g id="line2d_1">
      <defs>
       <path id="mb8ee93e36b" d="M 0 0 
L 0 3.5 
" style="stroke: #000000; stroke-width: 0.8"/>
      </defs>
      <g>
       <use xlink:href="#mb8ee93e36b" x="56.708788" y="456.019179" style="stroke: #000000; stroke-width: 0.8"/>
      </g>
     </g>
     <g id="text_1">
      <!-- 0 -->
      <g transform="translate(56.410477 472.891052) rotate(-45) scale(0.1 -0.1)">
       <defs>
        <path id="DejaVuSans-30" d="M 2034 4250 
Q 1547 4250 1301 3770 
Q 1056 3291 1056 2328 
Q 1056 1369 1301 889 
Q 1547 409 2034 409 
Q 2525 409 2770 889 
Q 3016 1369 3016 2328 
Q 3016 3291 2770 3770 
Q 2525 4250 2034 4250 
z
M 2034 4750 
Q 2819 4750 3233 4129 
Q 3647 3509 3647 2328 
Q 3647 1150 3233 529 
Q 2819 -91 2034 -91 
Q 1250 -91 836 529 
Q 422 1150 422 2328 
Q 422 3509 836 4129 
Q 1250 4750 2034 4750 
z
" transform="scale(0.015625)"/>
       </defs>
       <use xlink:href="#DejaVuSans-30"/>
      </g>
     </g>
    </g>
    <g id="xtick_2">
     <g id="line2d_2">
      <g>
       <use xlink:href="#mb8ee93e36b" x="75.383845" y="456.019179" style="stroke: #000000; stroke-width: 0.8"/>
      </g>
     </g>
    </g>
    <g id="xtick_3">
     <g id="line2d_3">
      <g>
       <use xlink:href="#mb8ee93e36b" x="94.058903" y="456.019179" style="stroke: #000000; stroke-width: 0.8"/>
      </g>
     </g>
    </g>
    <g id="xtick_4">
     <g id="line2d_4">
      <g>
       <use xlink:href="#mb8ee93e36b" x="112.733961" y="456.019179" style="stroke: #000000; stroke-width: 0.8"/>
      </g>
     </g>
    </g>
    <g id="xtick_5">
     <g id="line2d_5">
      <g>
       <use xlink:href="#mb8ee93e36b" x="131.409018" y="456.019179" style="stroke: #000000; stroke-width: 0.8"/>
      </g>
     </g>
    </g>
    <g id="xtick_6">
     <g id="line2d_6">
      <g>
       <use xlink:href="#mb8ee93e36b" x="150.084076" y="456.019179" style="stroke: #000000; stroke-width: 0.8"/>
      </g>
     </g>
     <g id="text_2">
      <!-- 5 -->
      <g transform="translate(149.785766 472.891052) rotate(-45) scale(0.1 -0.1)">
       <defs>
        <path id="DejaVuSans-35" d="M 691 4666 
L 3169 4666 
L 3169 4134 
L 1269 4134 
L 1269 2991 
Q 1406 3038 1543 3061 
Q 1681 3084 1819 3084 
Q 2600 3084 3056 2656 
Q 3513 2228 3513 1497 
Q 3513 744 3044 326 
Q 2575 -91 1722 -91 
Q 1428 -91 1123 -41 
Q 819 9 494 109 
L 494 744 
Q 775 591 1075 516 
Q 1375 441 1709 441 
Q 2250 441 2565 725 
Q 2881 1009 2881 1497 
Q 2881 1984 2565 2268 
Q 2250 2553 1709 2553 
Q 1456 2553 1204 2497 
Q 953 2441 691 2322 
L 691 4666 
z
" transform="scale(0.015625)"/>
       </defs>
       <use xlink:href="#DejaVuSans-35"/>
      </g>
     </g>
    </g>
    <g id="xtick_7">
     <g id="line2d_7">
      <g>
       <use xlink:href="#mb8ee93e36b" x="168.759134" y="456.019179" style="stroke: #000000; stroke-width: 0.8"/>
      </g>
     </g>
    </g>
    <g id="xtick_8">
     <g id="line2d_8">
      <g>
       <use xlink:href="#mb8ee93e36b" x="187.434192" y="456.019179" style="stroke: #000000; stroke-width: 0.8"/>
      </g>
     </g>
    </g>
    <g id="xtick_9">
     <g id="line2d_9">
      <g>
       <use xlink:href="#mb8ee93e36b" x="206.109249" y="456.019179" style="stroke: #000000; stroke-width: 0.8"/>
      </g>
     </g>
    </g>
    <g id="xtick_10">
     <g id="line2d_10">
      <g>
       <use xlink:href="#mb8ee93e36b" x="224.784307" y="456.019179" style="stroke: #000000; stroke-width: 0.8"/>
      </g>
     </g>
    </g>
    <g id="xtick_11">
     <g id="line2d_11">
      <g>
       <use xlink:href="#mb8ee93e36b" x="243.459365" y="456.019179" style="stroke: #000000; stroke-width: 0.8"/>
      </g>
     </g>
     <g id="text_3">
      <!-- 10 -->
      <g transform="translate(240.911571 477.390019) rotate(-45) scale(0.1 -0.1)">
       <defs>
        <path id="DejaVuSans-31" d="M 794 531 
L 1825 531 
L 1825 4091 
L 703 3866 
L 703 4441 
L 1819 4666 
L 2450 4666 
L 2450 531 
L 3481 531 
L 3481 0 
L 794 0 
L 794 531 
z
" transform="scale(0.015625)"/>
       </defs>
       <use xlink:href="#DejaVuSans-31"/>
       <use xlink:href="#DejaVuSans-30" transform="translate(63.623047 0)"/>
      </g>
     </g>
    </g>
    <g id="xtick_12">
     <g id="line2d_12">
      <g>
       <use xlink:href="#mb8ee93e36b" x="262.134423" y="456.019179" style="stroke: #000000; stroke-width: 0.8"/>
      </g>
     </g>
    </g>
    <g id="xtick_13">
     <g id="line2d_13">
      <g>
       <use xlink:href="#mb8ee93e36b" x="280.80948" y="456.019179" style="stroke: #000000; stroke-width: 0.8"/>
      </g>
     </g>
    </g>
    <g id="xtick_14">
     <g id="line2d_14">
      <g>
       <use xlink:href="#mb8ee93e36b" x="299.484538" y="456.019179" style="stroke: #000000; stroke-width: 0.8"/>
      </g>
     </g>
     <g id="text_4">
      <!-- 15 -->
      <g transform="translate(296.936744 477.390019) rotate(-45) scale(0.1 -0.1)">
       <use xlink:href="#DejaVuSans-31"/>
       <use xlink:href="#DejaVuSans-35" transform="translate(63.623047 0)"/>
      </g>
     </g>
    </g>
    <g id="xtick_15">
     <g id="line2d_15">
      <g>
       <use xlink:href="#mb8ee93e36b" x="318.159596" y="456.019179" style="stroke: #000000; stroke-width: 0.8"/>
      </g>
     </g>
    </g>
    <g id="xtick_16">
     <g id="line2d_16">
      <g>
       <use xlink:href="#mb8ee93e36b" x="336.834654" y="456.019179" style="stroke: #000000; stroke-width: 0.8"/>
      </g>
     </g>
    </g>
    <g id="xtick_17">
     <g id="line2d_17">
      <g>
       <use xlink:href="#mb8ee93e36b" x="355.509711" y="456.019179" style="stroke: #000000; stroke-width: 0.8"/>
      </g>
     </g>
    </g>
    <g id="xtick_18">
     <g id="line2d_18">
      <g>
       <use xlink:href="#mb8ee93e36b" x="374.184769" y="456.019179" style="stroke: #000000; stroke-width: 0.8"/>
      </g>
     </g>
    </g>
    <g id="xtick_19">
     <g id="line2d_19">
      <g>
       <use xlink:href="#mb8ee93e36b" x="392.859827" y="456.019179" style="stroke: #000000; stroke-width: 0.8"/>
      </g>
     </g>
     <g id="text_5">
      <!-- 20 -->
      <g transform="translate(390.312033 477.390019) rotate(-45) scale(0.1 -0.1)">
       <defs>
        <path id="DejaVuSans-32" d="M 1228 531 
L 3431 531 
L 3431 0 
L 469 0 
L 469 531 
Q 828 903 1448 1529 
Q 2069 2156 2228 2338 
Q 2531 2678 2651 2914 
Q 2772 3150 2772 3378 
Q 2772 3750 2511 3984 
Q 2250 4219 1831 4219 
Q 1534 4219 1204 4116 
Q 875 4013 500 3803 
L 500 4441 
Q 881 4594 1212 4672 
Q 1544 4750 1819 4750 
Q 2544 4750 2975 4387 
Q 3406 4025 3406 3419 
Q 3406 3131 3298 2873 
Q 3191 2616 2906 2266 
Q 2828 2175 2409 1742 
Q 1991 1309 1228 531 
z
" transform="scale(0.015625)"/>
       </defs>
       <use xlink:href="#DejaVuSans-32"/>
       <use xlink:href="#DejaVuSans-30" transform="translate(63.623047 0)"/>
      </g>
     </g>
    </g>
    <g id="xtick_20">
     <g id="line2d_20">
      <g>
       <use xlink:href="#mb8ee93e36b" x="411.534885" y="456.019179" style="stroke: #000000; stroke-width: 0.8"/>
      </g>
     </g>
    </g>
    <g id="xtick_21">
     <g id="line2d_21">
      <g>
       <use xlink:href="#mb8ee93e36b" x="430.209942" y="456.019179" style="stroke: #000000; stroke-width: 0.8"/>
      </g>
     </g>
    </g>
    <g id="xtick_22">
     <g id="line2d_22">
      <g>
       <use xlink:href="#mb8ee93e36b" x="448.885" y="456.019179" style="stroke: #000000; stroke-width: 0.8"/>
      </g>
     </g>
     <g id="text_6">
      <!-- 23 -->
      <g transform="translate(446.337206 477.390019) rotate(-45) scale(0.1 -0.1)">
       <defs>
        <path id="DejaVuSans-33" d="M 2597 2516 
Q 3050 2419 3304 2112 
Q 3559 1806 3559 1356 
Q 3559 666 3084 287 
Q 2609 -91 1734 -91 
Q 1441 -91 1130 -33 
Q 819 25 488 141 
L 488 750 
Q 750 597 1062 519 
Q 1375 441 1716 441 
Q 2309 441 2620 675 
Q 2931 909 2931 1356 
Q 2931 1769 2642 2001 
Q 2353 2234 1838 2234 
L 1294 2234 
L 1294 2753 
L 1863 2753 
Q 2328 2753 2575 2939 
Q 2822 3125 2822 3475 
Q 2822 3834 2567 4026 
Q 2313 4219 1838 4219 
Q 1578 4219 1281 4162 
Q 984 4106 628 3988 
L 628 4550 
Q 988 4650 1302 4700 
Q 1616 4750 1894 4750 
Q 2613 4750 3031 4423 
Q 3450 4097 3450 3541 
Q 3450 3153 3228 2886 
Q 3006 2619 2597 2516 
z
" transform="scale(0.015625)"/>
       </defs>
       <use xlink:href="#DejaVuSans-32"/>
       <use xlink:href="#DejaVuSans-33" transform="translate(63.623047 0)"/>
      </g>
     </g>
    </g>
    <g id="xtick_23">
     <g id="line2d_23">
      <g>
       <use xlink:href="#mb8ee93e36b" x="467.560058" y="456.019179" style="stroke: #000000; stroke-width: 0.8"/>
      </g>
     </g>
    </g>
    <g id="xtick_24">
     <g id="line2d_24">
      <g>
       <use xlink:href="#mb8ee93e36b" x="486.235115" y="456.019179" style="stroke: #000000; stroke-width: 0.8"/>
      </g>
     </g>
     <g id="text_7">
      <!-- 25 -->
      <g transform="translate(483.687321 477.390019) rotate(-45) scale(0.1 -0.1)">
       <use xlink:href="#DejaVuSans-32"/>
       <use xlink:href="#DejaVuSans-35" transform="translate(63.623047 0)"/>
      </g>
     </g>
    </g>
    <g id="xtick_25">
     <g id="line2d_25">
      <g>
       <use xlink:href="#mb8ee93e36b" x="504.910173" y="456.019179" style="stroke: #000000; stroke-width: 0.8"/>
      </g>
     </g>
    </g>
    <g id="xtick_26">
     <g id="line2d_26">
      <g>
       <use xlink:href="#mb8ee93e36b" x="523.585231" y="456.019179" style="stroke: #000000; stroke-width: 0.8"/>
      </g>
     </g>
    </g>
    <g id="xtick_27">
     <g id="line2d_27">
      <g>
       <use xlink:href="#mb8ee93e36b" x="542.260289" y="456.019179" style="stroke: #000000; stroke-width: 0.8"/>
      </g>
     </g>
    </g>
    <g id="xtick_28">
     <g id="line2d_28">
      <g>
       <use xlink:href="#mb8ee93e36b" x="560.935346" y="456.019179" style="stroke: #000000; stroke-width: 0.8"/>
      </g>
     </g>
    </g>
    <g id="xtick_29">
     <g id="line2d_29">
      <g>
       <use xlink:href="#mb8ee93e36b" x="579.610404" y="456.019179" style="stroke: #000000; stroke-width: 0.8"/>
      </g>
     </g>
     <g id="text_8">
      <!-- 30 -->
      <g transform="translate(577.06261 477.390019) rotate(-45) scale(0.1 -0.1)">
       <use xlink:href="#DejaVuSans-33"/>
       <use xlink:href="#DejaVuSans-30" transform="translate(63.623047 0)"/>
      </g>
     </g>
    </g>
    <g id="xtick_30">
     <g id="line2d_30">
      <g>
       <use xlink:href="#mb8ee93e36b" x="598.285462" y="456.019179" style="stroke: #000000; stroke-width: 0.8"/>
      </g>
     </g>
    </g>
    <g id="xtick_31">
     <g id="line2d_31">
      <g>
       <use xlink:href="#mb8ee93e36b" x="616.96052" y="456.019179" style="stroke: #000000; stroke-width: 0.8"/>
      </g>
     </g>
    </g>
    <g id="xtick_32">
     <g id="line2d_32">
      <g>
       <use xlink:href="#mb8ee93e36b" x="635.635577" y="456.019179" style="stroke: #000000; stroke-width: 0.8"/>
      </g>
     </g>
    </g>
    <g id="xtick_33">
     <g id="line2d_33">
      <g>
       <use xlink:href="#mb8ee93e36b" x="654.310635" y="456.019179" style="stroke: #000000; stroke-width: 0.8"/>
      </g>
     </g>
    </g>
    <g id="xtick_34">
     <g id="line2d_34">
      <g>
       <use xlink:href="#mb8ee93e36b" x="672.985693" y="456.019179" style="stroke: #000000; stroke-width: 0.8"/>
      </g>
     </g>
    </g>
    <g id="xtick_35">
     <g id="line2d_35">
      <g>
       <use xlink:href="#mb8ee93e36b" x="691.660751" y="456.019179" style="stroke: #000000; stroke-width: 0.8"/>
      </g>
     </g>
     <g id="text_9">
      <!-- 40 -->
      <g transform="translate(689.112956 477.390019) rotate(-45) scale(0.1 -0.1)">
       <defs>
        <path id="DejaVuSans-34" d="M 2419 4116 
L 825 1625 
L 2419 1625 
L 2419 4116 
z
M 2253 4666 
L 3047 4666 
L 3047 1625 
L 3713 1625 
L 3713 1100 
L 3047 1100 
L 3047 0 
L 2419 0 
L 2419 1100 
L 313 1100 
L 313 1709 
L 2253 4666 
z
" transform="scale(0.015625)"/>
       </defs>
       <use xlink:href="#DejaVuSans-34"/>
       <use xlink:href="#DejaVuSans-30" transform="translate(63.623047 0)"/>
      </g>
     </g>
    </g>
    <g id="xtick_36">
     <g id="line2d_36">
      <g>
       <use xlink:href="#mb8ee93e36b" x="710.335808" y="456.019179" style="stroke: #000000; stroke-width: 0.8"/>
      </g>
     </g>
    </g>
    <g id="xtick_37">
     <g id="line2d_37">
      <g>
       <use xlink:href="#mb8ee93e36b" x="729.010866" y="456.019179" style="stroke: #000000; stroke-width: 0.8"/>
      </g>
     </g>
    </g>
    <g id="xtick_38">
     <g id="line2d_38">
      <g>
       <use xlink:href="#mb8ee93e36b" x="747.685924" y="456.019179" style="stroke: #000000; stroke-width: 0.8"/>
      </g>
     </g>
    </g>
    <g id="xtick_39">
     <g id="line2d_39">
      <g>
       <use xlink:href="#mb8ee93e36b" x="766.360982" y="456.019179" style="stroke: #000000; stroke-width: 0.8"/>
      </g>
     </g>
    </g>
    <g id="xtick_40">
     <g id="line2d_40">
      <g>
       <use xlink:href="#mb8ee93e36b" x="785.036039" y="456.019179" style="stroke: #000000; stroke-width: 0.8"/>
      </g>
     </g>
     <g id="text_10">
      <!-- 45 -->
      <g transform="translate(782.488245 477.390019) rotate(-45) scale(0.1 -0.1)">
       <use xlink:href="#DejaVuSans-34"/>
       <use xlink:href="#DejaVuSans-35" transform="translate(63.623047 0)"/>
      </g>
     </g>
    </g>
    <g id="xtick_41">
     <g id="line2d_41">
      <g>
       <use xlink:href="#mb8ee93e36b" x="803.711097" y="456.019179" style="stroke: #000000; stroke-width: 0.8"/>
      </g>
     </g>
    </g>
    <g id="xtick_42">
     <g id="line2d_42">
      <g>
       <use xlink:href="#mb8ee93e36b" x="822.386155" y="456.019179" style="stroke: #000000; stroke-width: 0.8"/>
      </g>
     </g>
     <g id="text_11">
      <!-- 47 -->
      <g transform="translate(819.838361 477.390019) rotate(-45) scale(0.1 -0.1)">
       <defs>
        <path id="DejaVuSans-37" d="M 525 4666 
L 3525 4666 
L 3525 4397 
L 1831 0 
L 1172 0 
L 2766 4134 
L 525 4134 
L 525 4666 
z
" transform="scale(0.015625)"/>
       </defs>
       <use xlink:href="#DejaVuSans-34"/>
       <use xlink:href="#DejaVuSans-37" transform="translate(63.623047 0)"/>
      </g>
     </g>
    </g>
    <g id="xtick_43">
     <g id="line2d_43">
      <g>
       <use xlink:href="#mb8ee93e36b" x="841.061212" y="456.019179" style="stroke: #000000; stroke-width: 0.8"/>
      </g>
     </g>
    </g>
    <g id="text_12">
     <!-- Game Minute -->
     <g transform="translate(415.333438 490.459018) scale(0.1 -0.1)">
      <defs>
       <path id="DejaVuSans-47" d="M 3809 666 
L 3809 1919 
L 2778 1919 
L 2778 2438 
L 4434 2438 
L 4434 434 
Q 4069 175 3628 42 
Q 3188 -91 2688 -91 
Q 1594 -91 976 548 
Q 359 1188 359 2328 
Q 359 3472 976 4111 
Q 1594 4750 2688 4750 
Q 3144 4750 3555 4637 
Q 3966 4525 4313 4306 
L 4313 3634 
Q 3963 3931 3569 4081 
Q 3175 4231 2741 4231 
Q 1884 4231 1454 3753 
Q 1025 3275 1025 2328 
Q 1025 1384 1454 906 
Q 1884 428 2741 428 
Q 3075 428 3337 486 
Q 3600 544 3809 666 
z
" transform="scale(0.015625)"/>
       <path id="DejaVuSans-61" d="M 2194 1759 
Q 1497 1759 1228 1600 
Q 959 1441 959 1056 
Q 959 750 1161 570 
Q 1363 391 1709 391 
Q 2188 391 2477 730 
Q 2766 1069 2766 1631 
L 2766 1759 
L 2194 1759 
z
M 3341 1997 
L 3341 0 
L 2766 0 
L 2766 531 
Q 2569 213 2275 61 
Q 1981 -91 1556 -91 
Q 1019 -91 701 211 
Q 384 513 384 1019 
Q 384 1609 779 1909 
Q 1175 2209 1959 2209 
L 2766 2209 
L 2766 2266 
Q 2766 2663 2505 2880 
Q 2244 3097 1772 3097 
Q 1472 3097 1187 3025 
Q 903 2953 641 2809 
L 641 3341 
Q 956 3463 1253 3523 
Q 1550 3584 1831 3584 
Q 2591 3584 2966 3190 
Q 3341 2797 3341 1997 
z
" transform="scale(0.015625)"/>
       <path id="DejaVuSans-6d" d="M 3328 2828 
Q 3544 3216 3844 3400 
Q 4144 3584 4550 3584 
Q 5097 3584 5394 3201 
Q 5691 2819 5691 2113 
L 5691 0 
L 5113 0 
L 5113 2094 
Q 5113 2597 4934 2840 
Q 4756 3084 4391 3084 
Q 3944 3084 3684 2787 
Q 3425 2491 3425 1978 
L 3425 0 
L 2847 0 
L 2847 2094 
Q 2847 2600 2669 2842 
Q 2491 3084 2119 3084 
Q 1678 3084 1418 2786 
Q 1159 2488 1159 1978 
L 1159 0 
L 581 0 
L 581 3500 
L 1159 3500 
L 1159 2956 
Q 1356 3278 1631 3431 
Q 1906 3584 2284 3584 
Q 2666 3584 2933 3390 
Q 3200 3197 3328 2828 
z
" transform="scale(0.015625)"/>
       <path id="DejaVuSans-65" d="M 3597 1894 
L 3597 1613 
L 953 1613 
Q 991 1019 1311 708 
Q 1631 397 2203 397 
Q 2534 397 2845 478 
Q 3156 559 3463 722 
L 3463 178 
Q 3153 47 2828 -22 
Q 2503 -91 2169 -91 
Q 1331 -91 842 396 
Q 353 884 353 1716 
Q 353 2575 817 3079 
Q 1281 3584 2069 3584 
Q 2775 3584 3186 3129 
Q 3597 2675 3597 1894 
z
M 3022 2063 
Q 3016 2534 2758 2815 
Q 2500 3097 2075 3097 
Q 1594 3097 1305 2825 
Q 1016 2553 972 2059 
L 3022 2063 
z
" transform="scale(0.015625)"/>
       <path id="DejaVuSans-20" transform="scale(0.015625)"/>
       <path id="DejaVuSans-4d" d="M 628 4666 
L 1569 4666 
L 2759 1491 
L 3956 4666 
L 4897 4666 
L 4897 0 
L 4281 0 
L 4281 4097 
L 3078 897 
L 2444 897 
L 1241 4097 
L 1241 0 
L 628 0 
L 628 4666 
z
" transform="scale(0.015625)"/>
       <path id="DejaVuSans-69" d="M 603 3500 
L 1178 3500 
L 1178 0 
L 603 0 
L 603 3500 
z
M 603 4863 
L 1178 4863 
L 1178 4134 
L 603 4134 
L 603 4863 
z
" transform="scale(0.015625)"/>
       <path id="DejaVuSans-6e" d="M 3513 2113 
L 3513 0 
L 2938 0 
L 2938 2094 
Q 2938 2591 2744 2837 
Q 2550 3084 2163 3084 
Q 1697 3084 1428 2787 
Q 1159 2491 1159 1978 
L 1159 0 
L 581 0 
L 581 3500 
L 1159 3500 
L 1159 2956 
Q 1366 3272 1645 3428 
Q 1925 3584 2291 3584 
Q 2894 3584 3203 3211 
Q 3513 2838 3513 2113 
z
" transform="scale(0.015625)"/>
       <path id="DejaVuSans-75" d="M 544 1381 
L 544 3500 
L 1119 3500 
L 1119 1403 
Q 1119 906 1312 657 
Q 1506 409 1894 409 
Q 2359 409 2629 706 
Q 2900 1003 2900 1516 
L 2900 3500 
L 3475 3500 
L 3475 0 
L 2900 0 
L 2900 538 
Q 2691 219 2414 64 
Q 2138 -91 1772 -91 
Q 1169 -91 856 284 
Q 544 659 544 1381 
z
M 1991 3584 
L 1991 3584 
z
" transform="scale(0.015625)"/>
       <path id="DejaVuSans-74" d="M 1172 4494 
L 1172 3500 
L 2356 3500 
L 2356 3053 
L 1172 3053 
L 1172 1153 
Q 1172 725 1289 603 
Q 1406 481 1766 481 
L 2356 481 
L 2356 0 
L 1766 0 
Q 1100 0 847 248 
Q 594 497 594 1153 
L 594 3053 
L 172 3053 
L 172 3500 
L 594 3500 
L 594 4494 
L 1172 4494 
z
" transform="scale(0.015625)"/>
      </defs>
      <use xlink:href="#DejaVuSans-47"/>
      <use xlink:href="#DejaVuSans-61" transform="translate(77.490234 0)"/>
      <use xlink:href="#DejaVuSans-6d" transform="translate(138.769531 0)"/>
      <use xlink:href="#DejaVuSans-65" transform="translate(236.181641 0)"/>
      <use xlink:href="#DejaVuSans-20" transform="translate(297.705078 0)"/>
      <use xlink:href="#DejaVuSans-4d" transform="translate(329.492188 0)"/>
      <use xlink:href="#DejaVuSans-69" transform="translate(415.771484 0)"/>
      <use xlink:href="#DejaVuSans-6e" transform="translate(443.554688 0)"/>
      <use xlink:href="#DejaVuSans-75" transform="translate(506.933594 0)"/>
      <use xlink:href="#DejaVuSans-74" transform="translate(570.3125 0)"/>
      <use xlink:href="#DejaVuSans-65" transform="translate(609.521484 0)"/>
     </g>
    </g>
   </g>
   <g id="matplotlib.axis_2">
    <g id="ytick_1">
     <g id="line2d_44">
      <path d="M 44.57 456.019179 
L 853.2 456.019179 
" clip-path="url(#p74472b4c03)" style="fill: none; stroke-dasharray: 2.96,1.28; stroke-dashoffset: 0; stroke: #b0b0b0; stroke-opacity: 0.6; stroke-width: 0.8"/>
     </g>
     <g id="line2d_45">
      <defs>
       <path id="m720a99268a" d="M 0 0 
L -3.5 0 
" style="stroke: #000000; stroke-width: 0.8"/>
      </defs>
      <g>
       <use xlink:href="#m720a99268a" x="44.57" y="456.019179" style="stroke: #000000; stroke-width: 0.8"/>
      </g>
     </g>
     <g id="text_13">
      <!-- 0 -->
      <g transform="translate(31.2075 459.818397) scale(0.1 -0.1)">
       <use xlink:href="#DejaVuSans-30"/>
      </g>
     </g>
    </g>
    <g id="ytick_2">
     <g id="line2d_46">
      <path d="M 44.57 383.036325 
L 853.2 383.036325 
" clip-path="url(#p74472b4c03)" style="fill: none; stroke-dasharray: 2.96,1.28; stroke-dashoffset: 0; stroke: #b0b0b0; stroke-opacity: 0.6; stroke-width: 0.8"/>
     </g>
     <g id="line2d_47">
      <g>
       <use xlink:href="#m720a99268a" x="44.57" y="383.036325" style="stroke: #000000; stroke-width: 0.8"/>
      </g>
     </g>
     <g id="text_14">
      <!-- 5 -->
      <g transform="translate(31.2075 386.835544) scale(0.1 -0.1)">
       <use xlink:href="#DejaVuSans-35"/>
      </g>
     </g>
    </g>
    <g id="ytick_3">
     <g id="line2d_48">
      <path d="M 44.57 310.053472 
L 853.2 310.053472 
" clip-path="url(#p74472b4c03)" style="fill: none; stroke-dasharray: 2.96,1.28; stroke-dashoffset: 0; stroke: #b0b0b0; stroke-opacity: 0.6; stroke-width: 0.8"/>
     </g>
     <g id="line2d_49">
      <g>
       <use xlink:href="#m720a99268a" x="44.57" y="310.053472" style="stroke: #000000; stroke-width: 0.8"/>
      </g>
     </g>
     <g id="text_15">
      <!-- 10 -->
      <g transform="translate(24.845 313.85269) scale(0.1 -0.1)">
       <use xlink:href="#DejaVuSans-31"/>
       <use xlink:href="#DejaVuSans-30" transform="translate(63.623047 0)"/>
      </g>
     </g>
    </g>
    <g id="ytick_4">
     <g id="line2d_50">
      <path d="M 44.57 237.070618 
L 853.2 237.070618 
" clip-path="url(#p74472b4c03)" style="fill: none; stroke-dasharray: 2.96,1.28; stroke-dashoffset: 0; stroke: #b0b0b0; stroke-opacity: 0.6; stroke-width: 0.8"/>
     </g>
     <g id="line2d_51">
      <g>
       <use xlink:href="#m720a99268a" x="44.57" y="237.070618" style="stroke: #000000; stroke-width: 0.8"/>
      </g>
     </g>
     <g id="text_16">
      <!-- 15 -->
      <g transform="translate(24.845 240.869837) scale(0.1 -0.1)">
       <use xlink:href="#DejaVuSans-31"/>
       <use xlink:href="#DejaVuSans-35" transform="translate(63.623047 0)"/>
      </g>
     </g>
    </g>
    <g id="ytick_5">
     <g id="line2d_52">
      <path d="M 44.57 164.087765 
L 853.2 164.087765 
" clip-path="url(#p74472b4c03)" style="fill: none; stroke-dasharray: 2.96,1.28; stroke-dashoffset: 0; stroke: #b0b0b0; stroke-opacity: 0.6; stroke-width: 0.8"/>
     </g>
     <g id="line2d_53">
      <g>
       <use xlink:href="#m720a99268a" x="44.57" y="164.087765" style="stroke: #000000; stroke-width: 0.8"/>
      </g>
     </g>
     <g id="text_17">
      <!-- 20 -->
      <g transform="translate(24.845 167.886983) scale(0.1 -0.1)">
       <use xlink:href="#DejaVuSans-32"/>
       <use xlink:href="#DejaVuSans-30" transform="translate(63.623047 0)"/>
      </g>
     </g>
    </g>
    <g id="ytick_6">
     <g id="line2d_54">
      <path d="M 44.57 91.104911 
L 853.2 91.104911 
" clip-path="url(#p74472b4c03)" style="fill: none; stroke-dasharray: 2.96,1.28; stroke-dashoffset: 0; stroke: #b0b0b0; stroke-opacity: 0.6; stroke-width: 0.8"/>
     </g>
     <g id="line2d_55">
      <g>
       <use xlink:href="#m720a99268a" x="44.57" y="91.104911" style="stroke: #000000; stroke-width: 0.8"/>
      </g>
     </g>
     <g id="text_18">
      <!-- 25 -->
      <g transform="translate(24.845 94.90413) scale(0.1 -0.1)">
       <use xlink:href="#DejaVuSans-32"/>
       <use xlink:href="#DejaVuSans-35" transform="translate(63.623047 0)"/>
      </g>
     </g>
    </g>
    <g id="text_19">
     <!-- Points Scored -->
     <g transform="translate(18.765312 275.230839) rotate(-90) scale(0.1 -0.1)">
      <defs>
       <path id="DejaVuSans-50" d="M 1259 4147 
L 1259 2394 
L 2053 2394 
Q 2494 2394 2734 2622 
Q 2975 2850 2975 3272 
Q 2975 3691 2734 3919 
Q 2494 4147 2053 4147 
L 1259 4147 
z
M 628 4666 
L 2053 4666 
Q 2838 4666 3239 4311 
Q 3641 3956 3641 3272 
Q 3641 2581 3239 2228 
Q 2838 1875 2053 1875 
L 1259 1875 
L 1259 0 
L 628 0 
L 628 4666 
z
" transform="scale(0.015625)"/>
       <path id="DejaVuSans-6f" d="M 1959 3097 
Q 1497 3097 1228 2736 
Q 959 2375 959 1747 
Q 959 1119 1226 758 
Q 1494 397 1959 397 
Q 2419 397 2687 759 
Q 2956 1122 2956 1747 
Q 2956 2369 2687 2733 
Q 2419 3097 1959 3097 
z
M 1959 3584 
Q 2709 3584 3137 3096 
Q 3566 2609 3566 1747 
Q 3566 888 3137 398 
Q 2709 -91 1959 -91 
Q 1206 -91 779 398 
Q 353 888 353 1747 
Q 353 2609 779 3096 
Q 1206 3584 1959 3584 
z
" transform="scale(0.015625)"/>
       <path id="DejaVuSans-73" d="M 2834 3397 
L 2834 2853 
Q 2591 2978 2328 3040 
Q 2066 3103 1784 3103 
Q 1356 3103 1142 2972 
Q 928 2841 928 2578 
Q 928 2378 1081 2264 
Q 1234 2150 1697 2047 
L 1894 2003 
Q 2506 1872 2764 1633 
Q 3022 1394 3022 966 
Q 3022 478 2636 193 
Q 2250 -91 1575 -91 
Q 1294 -91 989 -36 
Q 684 19 347 128 
L 347 722 
Q 666 556 975 473 
Q 1284 391 1588 391 
Q 1994 391 2212 530 
Q 2431 669 2431 922 
Q 2431 1156 2273 1281 
Q 2116 1406 1581 1522 
L 1381 1569 
Q 847 1681 609 1914 
Q 372 2147 372 2553 
Q 372 3047 722 3315 
Q 1072 3584 1716 3584 
Q 2034 3584 2315 3537 
Q 2597 3491 2834 3397 
z
" transform="scale(0.015625)"/>
       <path id="DejaVuSans-53" d="M 3425 4513 
L 3425 3897 
Q 3066 4069 2747 4153 
Q 2428 4238 2131 4238 
Q 1616 4238 1336 4038 
Q 1056 3838 1056 3469 
Q 1056 3159 1242 3001 
Q 1428 2844 1947 2747 
L 2328 2669 
Q 3034 2534 3370 2195 
Q 3706 1856 3706 1288 
Q 3706 609 3251 259 
Q 2797 -91 1919 -91 
Q 1588 -91 1214 -16 
Q 841 59 441 206 
L 441 856 
Q 825 641 1194 531 
Q 1563 422 1919 422 
Q 2459 422 2753 634 
Q 3047 847 3047 1241 
Q 3047 1584 2836 1778 
Q 2625 1972 2144 2069 
L 1759 2144 
Q 1053 2284 737 2584 
Q 422 2884 422 3419 
Q 422 4038 858 4394 
Q 1294 4750 2059 4750 
Q 2388 4750 2728 4690 
Q 3069 4631 3425 4513 
z
" transform="scale(0.015625)"/>
       <path id="DejaVuSans-63" d="M 3122 3366 
L 3122 2828 
Q 2878 2963 2633 3030 
Q 2388 3097 2138 3097 
Q 1578 3097 1268 2742 
Q 959 2388 959 1747 
Q 959 1106 1268 751 
Q 1578 397 2138 397 
Q 2388 397 2633 464 
Q 2878 531 3122 666 
L 3122 134 
Q 2881 22 2623 -34 
Q 2366 -91 2075 -91 
Q 1284 -91 818 406 
Q 353 903 353 1747 
Q 353 2603 823 3093 
Q 1294 3584 2113 3584 
Q 2378 3584 2631 3529 
Q 2884 3475 3122 3366 
z
" transform="scale(0.015625)"/>
       <path id="DejaVuSans-72" d="M 2631 2963 
Q 2534 3019 2420 3045 
Q 2306 3072 2169 3072 
Q 1681 3072 1420 2755 
Q 1159 2438 1159 1844 
L 1159 0 
L 581 0 
L 581 3500 
L 1159 3500 
L 1159 2956 
Q 1341 3275 1631 3429 
Q 1922 3584 2338 3584 
Q 2397 3584 2469 3576 
Q 2541 3569 2628 3553 
L 2631 2963 
z
" transform="scale(0.015625)"/>
       <path id="DejaVuSans-64" d="M 2906 2969 
L 2906 4863 
L 3481 4863 
L 3481 0 
L 2906 0 
L 2906 525 
Q 2725 213 2448 61 
Q 2172 -91 1784 -91 
Q 1150 -91 751 415 
Q 353 922 353 1747 
Q 353 2572 751 3078 
Q 1150 3584 1784 3584 
Q 2172 3584 2448 3432 
Q 2725 3281 2906 2969 
z
M 947 1747 
Q 947 1113 1208 752 
Q 1469 391 1925 391 
Q 2381 391 2643 752 
Q 2906 1113 2906 1747 
Q 2906 2381 2643 2742 
Q 2381 3103 1925 3103 
Q 1469 3103 1208 2742 
Q 947 2381 947 1747 
z
" transform="scale(0.015625)"/>
      </defs>
      <use xlink:href="#DejaVuSans-50"/>
      <use xlink:href="#DejaVuSans-6f" transform="translate(56.677734 0)"/>
      <use xlink:href="#DejaVuSans-69" transform="translate(117.859375 0)"/>
      <use xlink:href="#DejaVuSans-6e" transform="translate(145.642578 0)"/>
      <use xlink:href="#DejaVuSans-74" transform="translate(209.021484 0)"/>
      <use xlink:href="#DejaVuSans-73" transform="translate(248.230469 0)"/>
      <use xlink:href="#DejaVuSans-20" transform="translate(300.330078 0)"/>
      <use xlink:href="#DejaVuSans-53" transform="translate(332.117188 0)"/>
      <use xlink:href="#DejaVuSans-63" transform="translate(395.59375 0)"/>
      <use xlink:href="#DejaVuSans-6f" transform="translate(450.574219 0)"/>
      <use xlink:href="#DejaVuSans-72" transform="translate(511.755859 0)"/>
      <use xlink:href="#DejaVuSans-65" transform="translate(550.619141 0)"/>
      <use xlink:href="#DejaVuSans-64" transform="translate(612.142578 0)"/>
     </g>
    </g>
   </g>
   <g id="patch_132">
    <path d="M 44.57 456.019179 
L 44.57 26.88 
" style="fill: none; stroke: #000000; stroke-width: 0.8; stroke-linejoin: miter; stroke-linecap: square"/>
   </g>
   <g id="patch_133">
    <path d="M 853.2 456.019179 
L 853.2 26.88 
" style="fill: none; stroke: #000000; stroke-width: 0.8; stroke-linejoin: miter; stroke-linecap: square"/>
   </g>
   <g id="patch_134">
    <path d="M 44.57 456.019179 
L 853.2 456.019179 
" style="fill: none; stroke: #000000; stroke-width: 0.8; stroke-linejoin: miter; stroke-linecap: square"/>
   </g>
   <g id="patch_135">
    <path d="M 44.57 26.88 
L 853.2 26.88 
" style="fill: none; stroke: #000000; stroke-width: 0.8; stroke-linejoin: miter; stroke-linecap: square"/>
   </g>
   <g id="text_20">
    <!-- Draymond Green Scoring Timeline (2023-24) -->
    <g transform="translate(313.864375 20.88) scale(0.12 -0.12)">
     <defs>
      <path id="DejaVuSans-44" d="M 1259 4147 
L 1259 519 
L 2022 519 
Q 2988 519 3436 956 
Q 3884 1394 3884 2338 
Q 3884 3275 3436 3711 
Q 2988 4147 2022 4147 
L 1259 4147 
z
M 628 4666 
L 1925 4666 
Q 3281 4666 3915 4102 
Q 4550 3538 4550 2338 
Q 4550 1131 3912 565 
Q 3275 0 1925 0 
L 628 0 
L 628 4666 
z
" transform="scale(0.015625)"/>
      <path id="DejaVuSans-79" d="M 2059 -325 
Q 1816 -950 1584 -1140 
Q 1353 -1331 966 -1331 
L 506 -1331 
L 506 -850 
L 844 -850 
Q 1081 -850 1212 -737 
Q 1344 -625 1503 -206 
L 1606 56 
L 191 3500 
L 800 3500 
L 1894 763 
L 2988 3500 
L 3597 3500 
L 2059 -325 
z
" transform="scale(0.015625)"/>
      <path id="DejaVuSans-67" d="M 2906 1791 
Q 2906 2416 2648 2759 
Q 2391 3103 1925 3103 
Q 1463 3103 1205 2759 
Q 947 2416 947 1791 
Q 947 1169 1205 825 
Q 1463 481 1925 481 
Q 2391 481 2648 825 
Q 2906 1169 2906 1791 
z
M 3481 434 
Q 3481 -459 3084 -895 
Q 2688 -1331 1869 -1331 
Q 1566 -1331 1297 -1286 
Q 1028 -1241 775 -1147 
L 775 -588 
Q 1028 -725 1275 -790 
Q 1522 -856 1778 -856 
Q 2344 -856 2625 -561 
Q 2906 -266 2906 331 
L 2906 616 
Q 2728 306 2450 153 
Q 2172 0 1784 0 
Q 1141 0 747 490 
Q 353 981 353 1791 
Q 353 2603 747 3093 
Q 1141 3584 1784 3584 
Q 2172 3584 2450 3431 
Q 2728 3278 2906 2969 
L 2906 3500 
L 3481 3500 
L 3481 434 
z
" transform="scale(0.015625)"/>
      <path id="DejaVuSans-54" d="M -19 4666 
L 3928 4666 
L 3928 4134 
L 2272 4134 
L 2272 0 
L 1638 0 
L 1638 4134 
L -19 4134 
L -19 4666 
z
" transform="scale(0.015625)"/>
      <path id="DejaVuSans-6c" d="M 603 4863 
L 1178 4863 
L 1178 0 
L 603 0 
L 603 4863 
z
" transform="scale(0.015625)"/>
      <path id="DejaVuSans-28" d="M 1984 4856 
Q 1566 4138 1362 3434 
Q 1159 2731 1159 2009 
Q 1159 1288 1364 580 
Q 1569 -128 1984 -844 
L 1484 -844 
Q 1016 -109 783 600 
Q 550 1309 550 2009 
Q 550 2706 781 3412 
Q 1013 4119 1484 4856 
L 1984 4856 
z
" transform="scale(0.015625)"/>
      <path id="DejaVuSans-2d" d="M 313 2009 
L 1997 2009 
L 1997 1497 
L 313 1497 
L 313 2009 
z
" transform="scale(0.015625)"/>
      <path id="DejaVuSans-29" d="M 513 4856 
L 1013 4856 
Q 1481 4119 1714 3412 
Q 1947 2706 1947 2009 
Q 1947 1309 1714 600 
Q 1481 -109 1013 -844 
L 513 -844 
Q 928 -128 1133 580 
Q 1338 1288 1338 2009 
Q 1338 2731 1133 3434 
Q 928 4138 513 4856 
z
" transform="scale(0.015625)"/>
     </defs>
     <use xlink:href="#DejaVuSans-44"/>
     <use xlink:href="#DejaVuSans-72" transform="translate(77.001953 0)"/>
     <use xlink:href="#DejaVuSans-61" transform="translate(118.115234 0)"/>
     <use xlink:href="#DejaVuSans-79" transform="translate(179.394531 0)"/>
     <use xlink:href="#DejaVuSans-6d" transform="translate(238.574219 0)"/>
     <use xlink:href="#DejaVuSans-6f" transform="translate(335.986328 0)"/>
     <use xlink:href="#DejaVuSans-6e" transform="translate(397.167969 0)"/>
     <use xlink:href="#DejaVuSans-64" transform="translate(460.546875 0)"/>
     <use xlink:href="#DejaVuSans-20" transform="translate(524.023438 0)"/>
     <use xlink:href="#DejaVuSans-47" transform="translate(555.810547 0)"/>
     <use xlink:href="#DejaVuSans-72" transform="translate(633.300781 0)"/>
     <use xlink:href="#DejaVuSans-65" transform="translate(672.164062 0)"/>
     <use xlink:href="#DejaVuSans-65" transform="translate(733.6875 0)"/>
     <use xlink:href="#DejaVuSans-6e" transform="translate(795.210938 0)"/>
     <use xlink:href="#DejaVuSans-20" transform="translate(858.589844 0)"/>
     <use xlink:href="#DejaVuSans-53" transform="translate(890.376953 0)"/>
     <use xlink:href="#DejaVuSans-63" transform="translate(953.853516 0)"/>
     <use xlink:href="#DejaVuSans-6f" transform="translate(1008.833984 0)"/>
     <use xlink:href="#DejaVuSans-72" transform="translate(1070.015625 0)"/>
     <use xlink:href="#DejaVuSans-69" transform="translate(1111.128906 0)"/>
     <use xlink:href="#DejaVuSans-6e" transform="translate(1138.912109 0)"/>
     <use xlink:href="#DejaVuSans-67" transform="translate(1202.291016 0)"/>
     <use xlink:href="#DejaVuSans-20" transform="translate(1265.767578 0)"/>
     <use xlink:href="#DejaVuSans-54" transform="translate(1297.554688 0)"/>
     <use xlink:href="#DejaVuSans-69" transform="translate(1355.513672 0)"/>
     <use xlink:href="#DejaVuSans-6d" transform="translate(1383.296875 0)"/>
     <use xlink:href="#DejaVuSans-65" transform="translate(1480.708984 0)"/>
     <use xlink:href="#DejaVuSans-6c" transform="translate(1542.232422 0)"/>
     <use xlink:href="#DejaVuSans-69" transform="translate(1570.015625 0)"/>
     <use xlink:href="#DejaVuSans-6e" transform="translate(1597.798828 0)"/>
     <use xlink:href="#DejaVuSans-65" transform="translate(1661.177734 0)"/>
     <use xlink:href="#DejaVuSans-20" transform="translate(1722.701172 0)"/>
     <use xlink:href="#DejaVuSans-28" transform="translate(1754.488281 0)"/>
     <use xlink:href="#DejaVuSans-32" transform="translate(1793.501953 0)"/>
     <use xlink:href="#DejaVuSans-30" transform="translate(1857.125 0)"/>
     <use xlink:href="#DejaVuSans-32" transform="translate(1920.748047 0)"/>
     <use xlink:href="#DejaVuSans-33" transform="translate(1984.371094 0)"/>
     <use xlink:href="#DejaVuSans-2d" transform="translate(2047.994141 0)"/>
     <use xlink:href="#DejaVuSans-32" transform="translate(2084.078125 0)"/>
     <use xlink:href="#DejaVuSans-34" transform="translate(2147.701172 0)"/>
     <use xlink:href="#DejaVuSans-29" transform="translate(2211.324219 0)"/>
    </g>
   </g>
   <g id="legend_1">
    <g id="patch_136">
     <path d="M 793.33125 93.5925 
L 846.2 93.5925 
Q 848.2 93.5925 848.2 91.5925 
L 848.2 33.88 
Q 848.2 31.88 846.2 31.88 
L 793.33125 31.88 
Q 791.33125 31.88 791.33125 33.88 
L 791.33125 91.5925 
Q 791.33125 93.5925 793.33125 93.5925 
z
" style="fill: #ffffff; opacity: 0.8; stroke: #cccccc; stroke-linejoin: miter"/>
    </g>
    <g id="text_21">
     <!-- Shot Type -->
     <g transform="translate(795.33125 43.478437) scale(0.1 -0.1)">
      <defs>
       <path id="DejaVuSans-68" d="M 3513 2113 
L 3513 0 
L 2938 0 
L 2938 2094 
Q 2938 2591 2744 2837 
Q 2550 3084 2163 3084 
Q 1697 3084 1428 2787 
Q 1159 2491 1159 1978 
L 1159 0 
L 581 0 
L 581 4863 
L 1159 4863 
L 1159 2956 
Q 1366 3272 1645 3428 
Q 1925 3584 2291 3584 
Q 2894 3584 3203 3211 
Q 3513 2838 3513 2113 
z
" transform="scale(0.015625)"/>
       <path id="DejaVuSans-70" d="M 1159 525 
L 1159 -1331 
L 581 -1331 
L 581 3500 
L 1159 3500 
L 1159 2969 
Q 1341 3281 1617 3432 
Q 1894 3584 2278 3584 
Q 2916 3584 3314 3078 
Q 3713 2572 3713 1747 
Q 3713 922 3314 415 
Q 2916 -91 2278 -91 
Q 1894 -91 1617 61 
Q 1341 213 1159 525 
z
M 3116 1747 
Q 3116 2381 2855 2742 
Q 2594 3103 2138 3103 
Q 1681 3103 1420 2742 
Q 1159 2381 1159 1747 
Q 1159 1113 1420 752 
Q 1681 391 2138 391 
Q 2594 391 2855 752 
Q 3116 1113 3116 1747 
z
" transform="scale(0.015625)"/>
      </defs>
      <use xlink:href="#DejaVuSans-53"/>
      <use xlink:href="#DejaVuSans-68" transform="translate(63.476562 0)"/>
      <use xlink:href="#DejaVuSans-6f" transform="translate(126.855469 0)"/>
      <use xlink:href="#DejaVuSans-74" transform="translate(188.037109 0)"/>
      <use xlink:href="#DejaVuSans-20" transform="translate(227.246094 0)"/>
      <use xlink:href="#DejaVuSans-54" transform="translate(259.033203 0)"/>
      <use xlink:href="#DejaVuSans-79" transform="translate(304.492188 0)"/>
      <use xlink:href="#DejaVuSans-70" transform="translate(363.671875 0)"/>
      <use xlink:href="#DejaVuSans-65" transform="translate(427.148438 0)"/>
     </g>
    </g>
    <g id="patch_137">
     <path d="M 796.515625 58.156563 
L 816.515625 58.156563 
L 816.515625 51.156563 
L 796.515625 51.156563 
z
" style="fill: #ffc107"/>
    </g>
    <g id="text_22">
     <!-- FT -->
     <g transform="translate(824.515625 58.156563) scale(0.1 -0.1)">
      <defs>
       <path id="DejaVuSans-46" d="M 628 4666 
L 3309 4666 
L 3309 4134 
L 1259 4134 
L 1259 2759 
L 3109 2759 
L 3109 2228 
L 1259 2228 
L 1259 0 
L 628 0 
L 628 4666 
z
" transform="scale(0.015625)"/>
      </defs>
      <use xlink:href="#DejaVuSans-46"/>
      <use xlink:href="#DejaVuSans-54" transform="translate(55.769531 0)"/>
     </g>
    </g>
    <g id="patch_138">
     <path d="M 796.515625 72.834688 
L 816.515625 72.834688 
L 816.515625 65.834688 
L 796.515625 65.834688 
z
" style="fill: #2196f3"/>
    </g>
    <g id="text_23">
     <!-- 2PT -->
     <g transform="translate(824.515625 72.834688) scale(0.1 -0.1)">
      <use xlink:href="#DejaVuSans-32"/>
      <use xlink:href="#DejaVuSans-50" transform="translate(63.623047 0)"/>
      <use xlink:href="#DejaVuSans-54" transform="translate(123.925781 0)"/>
     </g>
    </g>
    <g id="patch_139">
     <path d="M 796.515625 87.512812 
L 816.515625 87.512812 
L 816.515625 80.512812 
L 796.515625 80.512812 
z
" style="fill: #4caf50"/>
    </g>
    <g id="text_24">
     <!-- 3PT -->
     <g transform="translate(824.515625 87.512812) scale(0.1 -0.1)">
      <use xlink:href="#DejaVuSans-33"/>
      <use xlink:href="#DejaVuSans-50" transform="translate(63.623047 0)"/>
      <use xlink:href="#DejaVuSans-54" transform="translate(123.925781 0)"/>
     </g>
    </g>
   </g>
  </g>
 </g>
 <defs>
  <clipPath id="p74472b4c03">
   <rect x="44.57" y="26.88" width="808.63" height="429.139179"/>
  </clipPath>
 </defs>
</svg>
