<?xml version="1.0" encoding="utf-8" standalone="no"?>
<!DOCTYPE svg PUBLIC "-//W3C//DTD SVG 1.1//EN"
  "http://www.w3.org/Graphics/SVG/1.1/DTD/svg11.dtd">
<svg xmlns:xlink="http://www.w3.org/1999/xlink" width="1080pt" height="504pt" viewBox="0 0 1080 504" xmlns="http://www.w3.org/2000/svg" version="1.1">
 <metadata>
  <rdf:RDF xmlns:dc="http://purl.org/dc/elements/1.1/" xmlns:cc="http://creativecommons.org/ns#" xmlns:rdf="http://www.w3.org/1999/02/22-rdf-syntax-ns#">
   <cc:Work>
    <dc:type rdf:resource="http://purl.org/dc/dcmitype/StillImage"/>
    <dc:date>2025-08-19T12:49:03.853586</dc:date>
    <dc:format>image/svg+xml</dc:format>
    <dc:creator>
     <cc:Agent>
      <dc:title>Matplotlib v3.10.5, https://matplotlib.org/</dc:title>
     </cc:Agent>
    </dc:creator>
   </cc:Work>
  </rdf:RDF>
 </metadata>
 <defs>
  <style type="text/css">*{stroke-linejoin: round; stroke-linecap: butt}</style>
 </defs>
 <g id="figure_1">
  <g id="patch_1">
   <path d="M 0 504 
L 1080 504 
L 1080 0 
L 0 0 
z
" style="fill: #ffffff"/>
  </g>
  <g id="axes_1">
   <g id="patch_2">
    <path d="M 135 448.56 
L 972 448.56 
L 972 60.48 
L 135 60.48 
z
" style="fill: #ffffff"/>
   </g>
   <g id="patch_3">
    <path d="M 173.045455 448.56 
L 185.780335 448.56 
L 185.780335 405.707826 
L 173.045455 405.707826 
z
" clip-path="url(#p9eba688315)" style="fill: #aec7e8"/>
   </g>
   <g id="patch_4">
    <path d="M 188.964055 448.56 
L 201.698935 448.56 
L 201.698935 362.855652 
L 188.964055 362.855652 
z
" clip-path="url(#p9eba688315)" style="fill: #aec7e8"/>
   </g>
   <g id="patch_5">
    <path d="M 204.882655 448.56 
L 217.617535 448.56 
L 217.617535 400.351304 
L 204.882655 400.351304 
z
" clip-path="url(#p9eba688315)" style="fill: #aec7e8"/>
   </g>
   <g id="patch_6">
    <path d="M 220.801255 448.56 
L 233.536135 448.56 
L 233.536135 394.994783 
L 220.801255 394.994783 
z
" clip-path="url(#p9eba688315)" style="fill: #aec7e8"/>
   </g>
   <g id="patch_7">
    <path d="M 236.719855 448.56 
L 249.454736 448.56 
L 249.454736 394.994783 
L 236.719855 394.994783 
z
" clip-path="url(#p9eba688315)" style="fill: #aec7e8"/>
   </g>
   <g id="patch_8">
    <path d="M 252.638456 448.56 
L 265.373336 448.56 
L 265.373336 400.351304 
L 252.638456 400.351304 
z
" clip-path="url(#p9eba688315)" style="fill: #aec7e8"/>
   </g>
   <g id="patch_9">
    <path d="M 268.557056 448.56 
L 281.291936 448.56 
L 281.291936 389.638261 
L 268.557056 389.638261 
z
" clip-path="url(#p9eba688315)" style="fill: #aec7e8"/>
   </g>
   <g id="patch_10">
    <path d="M 284.475656 448.56 
L 297.210536 448.56 
L 297.210536 384.281739 
L 284.475656 384.281739 
z
" clip-path="url(#p9eba688315)" style="fill: #aec7e8"/>
   </g>
   <g id="patch_11">
    <path d="M 300.394256 448.56 
L 313.129137 448.56 
L 313.129137 411.064348 
L 300.394256 411.064348 
z
" clip-path="url(#p9eba688315)" style="fill: #aec7e8"/>
   </g>
   <g id="patch_12">
    <path d="M 316.312857 448.56 
L 329.047737 448.56 
L 329.047737 448.56 
L 316.312857 448.56 
z
" clip-path="url(#p9eba688315)" style="fill: #aec7e8"/>
   </g>
   <g id="patch_13">
    <path d="M 332.231457 448.56 
L 344.966337 448.56 
L 344.966337 448.56 
L 332.231457 448.56 
z
" clip-path="url(#p9eba688315)" style="fill: #aec7e8"/>
   </g>
   <g id="patch_14">
    <path d="M 348.150057 448.56 
L 360.884937 448.56 
L 360.884937 443.203478 
L 348.150057 443.203478 
z
" clip-path="url(#p9eba688315)" style="fill: #aec7e8"/>
   </g>
   <g id="patch_15">
    <path d="M 364.068657 448.56 
L 376.803537 448.56 
L 376.803537 448.56 
L 364.068657 448.56 
z
" clip-path="url(#p9eba688315)" style="fill: #aec7e8"/>
   </g>
   <g id="patch_16">
    <path d="M 379.987258 448.56 
L 392.722138 448.56 
L 392.722138 448.56 
L 379.987258 448.56 
z
" clip-path="url(#p9eba688315)" style="fill: #aec7e8"/>
   </g>
   <g id="patch_17">
    <path d="M 395.905858 448.56 
L 408.640738 448.56 
L 408.640738 448.56 
L 395.905858 448.56 
z
" clip-path="url(#p9eba688315)" style="fill: #aec7e8"/>
   </g>
   <g id="patch_18">
    <path d="M 411.824458 448.56 
L 424.559338 448.56 
L 424.559338 432.490435 
L 411.824458 432.490435 
z
" clip-path="url(#p9eba688315)" style="fill: #aec7e8"/>
   </g>
   <g id="patch_19">
    <path d="M 427.743058 448.56 
L 440.477938 448.56 
L 440.477938 411.064348 
L 427.743058 411.064348 
z
" clip-path="url(#p9eba688315)" style="fill: #aec7e8"/>
   </g>
   <g id="patch_20">
    <path d="M 443.661658 448.56 
L 456.396539 448.56 
L 456.396539 416.42087 
L 443.661658 416.42087 
z
" clip-path="url(#p9eba688315)" style="fill: #aec7e8"/>
   </g>
   <g id="patch_21">
    <path d="M 459.580259 448.56 
L 472.315139 448.56 
L 472.315139 400.351304 
L 459.580259 400.351304 
z
" clip-path="url(#p9eba688315)" style="fill: #aec7e8"/>
   </g>
   <g id="patch_22">
    <path d="M 475.498859 448.56 
L 488.233739 448.56 
L 488.233739 384.281739 
L 475.498859 384.281739 
z
" clip-path="url(#p9eba688315)" style="fill: #aec7e8"/>
   </g>
   <g id="patch_23">
    <path d="M 491.417459 448.56 
L 504.152339 448.56 
L 504.152339 378.925217 
L 491.417459 378.925217 
z
" clip-path="url(#p9eba688315)" style="fill: #aec7e8"/>
   </g>
   <g id="patch_24">
    <path d="M 507.336059 448.56 
L 520.07094 448.56 
L 520.07094 421.777391 
L 507.336059 421.777391 
z
" clip-path="url(#p9eba688315)" style="fill: #aec7e8"/>
   </g>
   <g id="patch_25">
    <path d="M 523.25466 448.56 
L 535.98954 448.56 
L 535.98954 389.638261 
L 523.25466 389.638261 
z
" clip-path="url(#p9eba688315)" style="fill: #aec7e8"/>
   </g>
   <g id="patch_26">
    <path d="M 539.17326 448.56 
L 551.90814 448.56 
L 551.90814 357.49913 
L 539.17326 357.49913 
z
" clip-path="url(#p9eba688315)" style="fill: #aec7e8"/>
   </g>
   <g id="patch_27">
    <path d="M 555.09186 448.56 
L 567.82674 448.56 
L 567.82674 421.777391 
L 555.09186 421.777391 
z
" clip-path="url(#p9eba688315)" style="fill: #aec7e8"/>
   </g>
   <g id="patch_28">
    <path d="M 571.01046 448.56 
L 583.74534 448.56 
L 583.74534 421.777391 
L 571.01046 421.777391 
z
" clip-path="url(#p9eba688315)" style="fill: #aec7e8"/>
   </g>
   <g id="patch_29">
    <path d="M 586.92906 448.56 
L 599.663941 448.56 
L 599.663941 400.351304 
L 586.92906 400.351304 
z
" clip-path="url(#p9eba688315)" style="fill: #aec7e8"/>
   </g>
   <g id="patch_30">
    <path d="M 602.847661 448.56 
L 615.582541 448.56 
L 615.582541 394.994783 
L 602.847661 394.994783 
z
" clip-path="url(#p9eba688315)" style="fill: #aec7e8"/>
   </g>
   <g id="patch_31">
    <path d="M 618.766261 448.56 
L 631.501141 448.56 
L 631.501141 400.351304 
L 618.766261 400.351304 
z
" clip-path="url(#p9eba688315)" style="fill: #aec7e8"/>
   </g>
   <g id="patch_32">
    <path d="M 634.684861 448.56 
L 647.419741 448.56 
L 647.419741 416.42087 
L 634.684861 416.42087 
z
" clip-path="url(#p9eba688315)" style="fill: #aec7e8"/>
   </g>
   <g id="patch_33">
    <path d="M 650.603461 448.56 
L 663.338342 448.56 
L 663.338342 389.638261 
L 650.603461 389.638261 
z
" clip-path="url(#p9eba688315)" style="fill: #aec7e8"/>
   </g>
   <g id="patch_34">
    <path d="M 666.522062 448.56 
L 679.256942 448.56 
L 679.256942 405.707826 
L 666.522062 405.707826 
z
" clip-path="url(#p9eba688315)" style="fill: #aec7e8"/>
   </g>
   <g id="patch_35">
    <path d="M 682.440662 448.56 
L 695.175542 448.56 
L 695.175542 421.777391 
L 682.440662 421.777391 
z
" clip-path="url(#p9eba688315)" style="fill: #aec7e8"/>
   </g>
   <g id="patch_36">
    <path d="M 698.359262 448.56 
L 711.094142 448.56 
L 711.094142 437.846957 
L 698.359262 437.846957 
z
" clip-path="url(#p9eba688315)" style="fill: #aec7e8"/>
   </g>
   <g id="patch_37">
    <path d="M 714.277862 448.56 
L 727.012742 448.56 
L 727.012742 437.846957 
L 714.277862 437.846957 
z
" clip-path="url(#p9eba688315)" style="fill: #aec7e8"/>
   </g>
   <g id="patch_38">
    <path d="M 730.196463 448.56 
L 742.931343 448.56 
L 742.931343 437.846957 
L 730.196463 437.846957 
z
" clip-path="url(#p9eba688315)" style="fill: #aec7e8"/>
   </g>
   <g id="patch_39">
    <path d="M 746.115063 448.56 
L 758.849943 448.56 
L 758.849943 443.203478 
L 746.115063 443.203478 
z
" clip-path="url(#p9eba688315)" style="fill: #aec7e8"/>
   </g>
   <g id="patch_40">
    <path d="M 762.033663 448.56 
L 774.768543 448.56 
L 774.768543 448.56 
L 762.033663 448.56 
z
" clip-path="url(#p9eba688315)" style="fill: #aec7e8"/>
   </g>
   <g id="patch_41">
    <path d="M 777.952263 448.56 
L 790.687143 448.56 
L 790.687143 432.490435 
L 777.952263 432.490435 
z
" clip-path="url(#p9eba688315)" style="fill: #aec7e8"/>
   </g>
   <g id="patch_42">
    <path d="M 793.870863 448.56 
L 806.605744 448.56 
L 806.605744 443.203478 
L 793.870863 443.203478 
z
" clip-path="url(#p9eba688315)" style="fill: #aec7e8"/>
   </g>
   <g id="patch_43">
    <path d="M 809.789464 448.56 
L 822.524344 448.56 
L 822.524344 400.351304 
L 809.789464 400.351304 
z
" clip-path="url(#p9eba688315)" style="fill: #aec7e8"/>
   </g>
   <g id="patch_44">
    <path d="M 825.708064 448.56 
L 838.442944 448.56 
L 838.442944 427.133913 
L 825.708064 427.133913 
z
" clip-path="url(#p9eba688315)" style="fill: #aec7e8"/>
   </g>
   <g id="patch_45">
    <path d="M 841.626664 448.56 
L 854.361544 448.56 
L 854.361544 389.638261 
L 841.626664 389.638261 
z
" clip-path="url(#p9eba688315)" style="fill: #aec7e8"/>
   </g>
   <g id="patch_46">
    <path d="M 857.545264 448.56 
L 870.280145 448.56 
L 870.280145 416.42087 
L 857.545264 416.42087 
z
" clip-path="url(#p9eba688315)" style="fill: #aec7e8"/>
   </g>
   <g id="patch_47">
    <path d="M 873.463865 448.56 
L 886.198745 448.56 
L 886.198745 394.994783 
L 873.463865 394.994783 
z
" clip-path="url(#p9eba688315)" style="fill: #aec7e8"/>
   </g>
   <g id="patch_48">
    <path d="M 889.382465 448.56 
L 902.117345 448.56 
L 902.117345 400.351304 
L 889.382465 400.351304 
z
" clip-path="url(#p9eba688315)" style="fill: #aec7e8"/>
   </g>
   <g id="patch_49">
    <path d="M 905.301065 448.56 
L 918.035945 448.56 
L 918.035945 432.490435 
L 905.301065 432.490435 
z
" clip-path="url(#p9eba688315)" style="fill: #aec7e8"/>
   </g>
   <g id="patch_50">
    <path d="M 921.219665 448.56 
L 933.954545 448.56 
L 933.954545 411.064348 
L 921.219665 411.064348 
z
" clip-path="url(#p9eba688315)" style="fill: #aec7e8"/>
   </g>
   <g id="patch_51">
    <path d="M 173.045455 405.707826 
L 185.780335 405.707826 
L 185.780335 368.212174 
L 173.045455 368.212174 
z
" clip-path="url(#p9eba688315)" style="fill: #ffbb78"/>
   </g>
   <g id="patch_52">
    <path d="M 188.964055 362.855652 
L 201.698935 362.855652 
L 201.698935 293.22087 
L 188.964055 293.22087 
z
" clip-path="url(#p9eba688315)" style="fill: #ffbb78"/>
   </g>
   <g id="patch_53">
    <path d="M 204.882655 400.351304 
L 217.617535 400.351304 
L 217.617535 346.786087 
L 204.882655 346.786087 
z
" clip-path="url(#p9eba688315)" style="fill: #ffbb78"/>
   </g>
   <g id="patch_54">
    <path d="M 220.801255 394.994783 
L 233.536135 394.994783 
L 233.536135 346.786087 
L 220.801255 346.786087 
z
" clip-path="url(#p9eba688315)" style="fill: #ffbb78"/>
   </g>
   <g id="patch_55">
    <path d="M 236.719855 394.994783 
L 249.454736 394.994783 
L 249.454736 362.855652 
L 236.719855 362.855652 
z
" clip-path="url(#p9eba688315)" style="fill: #ffbb78"/>
   </g>
   <g id="patch_56">
    <path d="M 252.638456 400.351304 
L 265.373336 400.351304 
L 265.373336 357.49913 
L 252.638456 357.49913 
z
" clip-path="url(#p9eba688315)" style="fill: #ffbb78"/>
   </g>
   <g id="patch_57">
    <path d="M 268.557056 389.638261 
L 281.291936 389.638261 
L 281.291936 346.786087 
L 268.557056 346.786087 
z
" clip-path="url(#p9eba688315)" style="fill: #ffbb78"/>
   </g>
   <g id="patch_58">
    <path d="M 284.475656 384.281739 
L 297.210536 384.281739 
L 297.210536 336.073043 
L 284.475656 336.073043 
z
" clip-path="url(#p9eba688315)" style="fill: #ffbb78"/>
   </g>
   <g id="patch_59">
    <path d="M 300.394256 411.064348 
L 313.129137 411.064348 
L 313.129137 389.638261 
L 300.394256 389.638261 
z
" clip-path="url(#p9eba688315)" style="fill: #ffbb78"/>
   </g>
   <g id="patch_60">
    <path d="M 316.312857 448.56 
L 329.047737 448.56 
L 329.047737 443.203478 
L 316.312857 443.203478 
z
" clip-path="url(#p9eba688315)" style="fill: #ffbb78"/>
   </g>
   <g id="patch_61">
    <path d="M 332.231457 448.56 
L 344.966337 448.56 
L 344.966337 448.56 
L 332.231457 448.56 
z
" clip-path="url(#p9eba688315)" style="fill: #ffbb78"/>
   </g>
   <g id="patch_62">
    <path d="M 348.150057 443.203478 
L 360.884937 443.203478 
L 360.884937 443.203478 
L 348.150057 443.203478 
z
" clip-path="url(#p9eba688315)" style="fill: #ffbb78"/>
   </g>
   <g id="patch_63">
    <path d="M 364.068657 448.56 
L 376.803537 448.56 
L 376.803537 448.56 
L 364.068657 448.56 
z
" clip-path="url(#p9eba688315)" style="fill: #ffbb78"/>
   </g>
   <g id="patch_64">
    <path d="M 379.987258 448.56 
L 392.722138 448.56 
L 392.722138 443.203478 
L 379.987258 443.203478 
z
" clip-path="url(#p9eba688315)" style="fill: #ffbb78"/>
   </g>
   <g id="patch_65">
    <path d="M 395.905858 448.56 
L 408.640738 448.56 
L 408.640738 443.203478 
L 395.905858 443.203478 
z
" clip-path="url(#p9eba688315)" style="fill: #ffbb78"/>
   </g>
   <g id="patch_66">
    <path d="M 411.824458 432.490435 
L 424.559338 432.490435 
L 424.559338 427.133913 
L 411.824458 427.133913 
z
" clip-path="url(#p9eba688315)" style="fill: #ffbb78"/>
   </g>
   <g id="patch_67">
    <path d="M 427.743058 411.064348 
L 440.477938 411.064348 
L 440.477938 378.925217 
L 427.743058 378.925217 
z
" clip-path="url(#p9eba688315)" style="fill: #ffbb78"/>
   </g>
   <g id="patch_68">
    <path d="M 443.661658 416.42087 
L 456.396539 416.42087 
L 456.396539 346.786087 
L 443.661658 346.786087 
z
" clip-path="url(#p9eba688315)" style="fill: #ffbb78"/>
   </g>
   <g id="patch_69">
    <path d="M 459.580259 400.351304 
L 472.315139 400.351304 
L 472.315139 298.577391 
L 459.580259 298.577391 
z
" clip-path="url(#p9eba688315)" style="fill: #ffbb78"/>
   </g>
   <g id="patch_70">
    <path d="M 475.498859 384.281739 
L 488.233739 384.281739 
L 488.233739 314.646957 
L 475.498859 314.646957 
z
" clip-path="url(#p9eba688315)" style="fill: #ffbb78"/>
   </g>
   <g id="patch_71">
    <path d="M 491.417459 378.925217 
L 504.152339 378.925217 
L 504.152339 320.003478 
L 491.417459 320.003478 
z
" clip-path="url(#p9eba688315)" style="fill: #ffbb78"/>
   </g>
   <g id="patch_72">
    <path d="M 507.336059 421.777391 
L 520.07094 421.777391 
L 520.07094 368.212174 
L 507.336059 368.212174 
z
" clip-path="url(#p9eba688315)" style="fill: #ffbb78"/>
   </g>
   <g id="patch_73">
    <path d="M 523.25466 389.638261 
L 535.98954 389.638261 
L 535.98954 378.925217 
L 523.25466 378.925217 
z
" clip-path="url(#p9eba688315)" style="fill: #ffbb78"/>
   </g>
   <g id="patch_74">
    <path d="M 539.17326 357.49913 
L 551.90814 357.49913 
L 551.90814 314.646957 
L 539.17326 314.646957 
z
" clip-path="url(#p9eba688315)" style="fill: #ffbb78"/>
   </g>
   <g id="patch_75">
    <path d="M 555.09186 421.777391 
L 567.82674 421.777391 
L 567.82674 384.281739 
L 555.09186 384.281739 
z
" clip-path="url(#p9eba688315)" style="fill: #ffbb78"/>
   </g>
   <g id="patch_76">
    <path d="M 571.01046 421.777391 
L 583.74534 421.777391 
L 583.74534 389.638261 
L 571.01046 389.638261 
z
" clip-path="url(#p9eba688315)" style="fill: #ffbb78"/>
   </g>
   <g id="patch_77">
    <path d="M 586.92906 400.351304 
L 599.663941 400.351304 
L 599.663941 378.925217 
L 586.92906 378.925217 
z
" clip-path="url(#p9eba688315)" style="fill: #ffbb78"/>
   </g>
   <g id="patch_78">
    <path d="M 602.847661 394.994783 
L 615.582541 394.994783 
L 615.582541 341.429565 
L 602.847661 341.429565 
z
" clip-path="url(#p9eba688315)" style="fill: #ffbb78"/>
   </g>
   <g id="patch_79">
    <path d="M 618.766261 400.351304 
L 631.501141 400.351304 
L 631.501141 373.568696 
L 618.766261 373.568696 
z
" clip-path="url(#p9eba688315)" style="fill: #ffbb78"/>
   </g>
   <g id="patch_80">
    <path d="M 634.684861 416.42087 
L 647.419741 416.42087 
L 647.419741 352.142609 
L 634.684861 352.142609 
z
" clip-path="url(#p9eba688315)" style="fill: #ffbb78"/>
   </g>
   <g id="patch_81">
    <path d="M 650.603461 389.638261 
L 663.338342 389.638261 
L 663.338342 336.073043 
L 650.603461 336.073043 
z
" clip-path="url(#p9eba688315)" style="fill: #ffbb78"/>
   </g>
   <g id="patch_82">
    <path d="M 666.522062 405.707826 
L 679.256942 405.707826 
L 679.256942 336.073043 
L 666.522062 336.073043 
z
" clip-path="url(#p9eba688315)" style="fill: #ffbb78"/>
   </g>
   <g id="patch_83">
    <path d="M 682.440662 421.777391 
L 695.175542 421.777391 
L 695.175542 389.638261 
L 682.440662 389.638261 
z
" clip-path="url(#p9eba688315)" style="fill: #ffbb78"/>
   </g>
   <g id="patch_84">
    <path d="M 698.359262 437.846957 
L 711.094142 437.846957 
L 711.094142 421.777391 
L 698.359262 421.777391 
z
" clip-path="url(#p9eba688315)" style="fill: #ffbb78"/>
   </g>
   <g id="patch_85">
    <path d="M 714.277862 437.846957 
L 727.012742 437.846957 
L 727.012742 432.490435 
L 714.277862 432.490435 
z
" clip-path="url(#p9eba688315)" style="fill: #ffbb78"/>
   </g>
   <g id="patch_86">
    <path d="M 730.196463 437.846957 
L 742.931343 437.846957 
L 742.931343 432.490435 
L 730.196463 432.490435 
z
" clip-path="url(#p9eba688315)" style="fill: #ffbb78"/>
   </g>
   <g id="patch_87">
    <path d="M 746.115063 443.203478 
L 758.849943 443.203478 
L 758.849943 437.846957 
L 746.115063 437.846957 
z
" clip-path="url(#p9eba688315)" style="fill: #ffbb78"/>
   </g>
   <g id="patch_88">
    <path d="M 762.033663 448.56 
L 774.768543 448.56 
L 774.768543 443.203478 
L 762.033663 443.203478 
z
" clip-path="url(#p9eba688315)" style="fill: #ffbb78"/>
   </g>
   <g id="patch_89">
    <path d="M 777.952263 432.490435 
L 790.687143 432.490435 
L 790.687143 427.133913 
L 777.952263 427.133913 
z
" clip-path="url(#p9eba688315)" style="fill: #ffbb78"/>
   </g>
   <g id="patch_90">
    <path d="M 793.870863 443.203478 
L 806.605744 443.203478 
L 806.605744 421.777391 
L 793.870863 421.777391 
z
" clip-path="url(#p9eba688315)" style="fill: #ffbb78"/>
   </g>
   <g id="patch_91">
    <path d="M 809.789464 400.351304 
L 822.524344 400.351304 
L 822.524344 373.568696 
L 809.789464 373.568696 
z
" clip-path="url(#p9eba688315)" style="fill: #ffbb78"/>
   </g>
   <g id="patch_92">
    <path d="M 825.708064 427.133913 
L 838.442944 427.133913 
L 838.442944 346.786087 
L 825.708064 346.786087 
z
" clip-path="url(#p9eba688315)" style="fill: #ffbb78"/>
   </g>
   <g id="patch_93">
    <path d="M 841.626664 389.638261 
L 854.361544 389.638261 
L 854.361544 314.646957 
L 841.626664 314.646957 
z
" clip-path="url(#p9eba688315)" style="fill: #ffbb78"/>
   </g>
   <g id="patch_94">
    <path d="M 857.545264 416.42087 
L 870.280145 416.42087 
L 870.280145 373.568696 
L 857.545264 373.568696 
z
" clip-path="url(#p9eba688315)" style="fill: #ffbb78"/>
   </g>
   <g id="patch_95">
    <path d="M 873.463865 394.994783 
L 886.198745 394.994783 
L 886.198745 373.568696 
L 873.463865 373.568696 
z
" clip-path="url(#p9eba688315)" style="fill: #ffbb78"/>
   </g>
   <g id="patch_96">
    <path d="M 889.382465 400.351304 
L 902.117345 400.351304 
L 902.117345 362.855652 
L 889.382465 362.855652 
z
" clip-path="url(#p9eba688315)" style="fill: #ffbb78"/>
   </g>
   <g id="patch_97">
    <path d="M 905.301065 432.490435 
L 918.035945 432.490435 
L 918.035945 405.707826 
L 905.301065 405.707826 
z
" clip-path="url(#p9eba688315)" style="fill: #ffbb78"/>
   </g>
   <g id="patch_98">
    <path d="M 921.219665 411.064348 
L 933.954545 411.064348 
L 933.954545 400.351304 
L 921.219665 400.351304 
z
" clip-path="url(#p9eba688315)" style="fill: #ffbb78"/>
   </g>
   <g id="patch_99">
    <path d="M 173.045455 368.212174 
L 185.780335 368.212174 
L 185.780335 368.212174 
L 173.045455 368.212174 
z
" clip-path="url(#p9eba688315)" style="fill: #ff9896"/>
   </g>
   <g id="patch_100">
    <path d="M 188.964055 293.22087 
L 201.698935 293.22087 
L 201.698935 293.22087 
L 188.964055 293.22087 
z
" clip-path="url(#p9eba688315)" style="fill: #ff9896"/>
   </g>
   <g id="patch_101">
    <path d="M 204.882655 346.786087 
L 217.617535 346.786087 
L 217.617535 346.786087 
L 204.882655 346.786087 
z
" clip-path="url(#p9eba688315)" style="fill: #ff9896"/>
   </g>
   <g id="patch_102">
    <path d="M 220.801255 346.786087 
L 233.536135 346.786087 
L 233.536135 346.786087 
L 220.801255 346.786087 
z
" clip-path="url(#p9eba688315)" style="fill: #ff9896"/>
   </g>
   <g id="patch_103">
    <path d="M 236.719855 362.855652 
L 249.454736 362.855652 
L 249.454736 362.855652 
L 236.719855 362.855652 
z
" clip-path="url(#p9eba688315)" style="fill: #ff9896"/>
   </g>
   <g id="patch_104">
    <path d="M 252.638456 357.49913 
L 265.373336 357.49913 
L 265.373336 357.49913 
L 252.638456 357.49913 
z
" clip-path="url(#p9eba688315)" style="fill: #ff9896"/>
   </g>
   <g id="patch_105">
    <path d="M 268.557056 346.786087 
L 281.291936 346.786087 
L 281.291936 346.786087 
L 268.557056 346.786087 
z
" clip-path="url(#p9eba688315)" style="fill: #ff9896"/>
   </g>
   <g id="patch_106">
    <path d="M 284.475656 336.073043 
L 297.210536 336.073043 
L 297.210536 336.073043 
L 284.475656 336.073043 
z
" clip-path="url(#p9eba688315)" style="fill: #ff9896"/>
   </g>
   <g id="patch_107">
    <path d="M 300.394256 389.638261 
L 313.129137 389.638261 
L 313.129137 389.638261 
L 300.394256 389.638261 
z
" clip-path="url(#p9eba688315)" style="fill: #ff9896"/>
   </g>
   <g id="patch_108">
    <path d="M 316.312857 443.203478 
L 329.047737 443.203478 
L 329.047737 443.203478 
L 316.312857 443.203478 
z
" clip-path="url(#p9eba688315)" style="fill: #ff9896"/>
   </g>
   <g id="patch_109">
    <path d="M 332.231457 448.56 
L 344.966337 448.56 
L 344.966337 448.56 
L 332.231457 448.56 
z
" clip-path="url(#p9eba688315)" style="fill: #ff9896"/>
   </g>
   <g id="patch_110">
    <path d="M 348.150057 443.203478 
L 360.884937 443.203478 
L 360.884937 443.203478 
L 348.150057 443.203478 
z
" clip-path="url(#p9eba688315)" style="fill: #ff9896"/>
   </g>
   <g id="patch_111">
    <path d="M 364.068657 448.56 
L 376.803537 448.56 
L 376.803537 448.56 
L 364.068657 448.56 
z
" clip-path="url(#p9eba688315)" style="fill: #ff9896"/>
   </g>
   <g id="patch_112">
    <path d="M 379.987258 443.203478 
L 392.722138 443.203478 
L 392.722138 443.203478 
L 379.987258 443.203478 
z
" clip-path="url(#p9eba688315)" style="fill: #ff9896"/>
   </g>
   <g id="patch_113">
    <path d="M 395.905858 443.203478 
L 408.640738 443.203478 
L 408.640738 443.203478 
L 395.905858 443.203478 
z
" clip-path="url(#p9eba688315)" style="fill: #ff9896"/>
   </g>
   <g id="patch_114">
    <path d="M 411.824458 427.133913 
L 424.559338 427.133913 
L 424.559338 427.133913 
L 411.824458 427.133913 
z
" clip-path="url(#p9eba688315)" style="fill: #ff9896"/>
   </g>
   <g id="patch_115">
    <path d="M 427.743058 378.925217 
L 440.477938 378.925217 
L 440.477938 378.925217 
L 427.743058 378.925217 
z
" clip-path="url(#p9eba688315)" style="fill: #ff9896"/>
   </g>
   <g id="patch_116">
    <path d="M 443.661658 346.786087 
L 456.396539 346.786087 
L 456.396539 346.786087 
L 443.661658 346.786087 
z
" clip-path="url(#p9eba688315)" style="fill: #ff9896"/>
   </g>
   <g id="patch_117">
    <path d="M 459.580259 298.577391 
L 472.315139 298.577391 
L 472.315139 298.577391 
L 459.580259 298.577391 
z
" clip-path="url(#p9eba688315)" style="fill: #ff9896"/>
   </g>
   <g id="patch_118">
    <path d="M 475.498859 314.646957 
L 488.233739 314.646957 
L 488.233739 314.646957 
L 475.498859 314.646957 
z
" clip-path="url(#p9eba688315)" style="fill: #ff9896"/>
   </g>
   <g id="patch_119">
    <path d="M 491.417459 320.003478 
L 504.152339 320.003478 
L 504.152339 320.003478 
L 491.417459 320.003478 
z
" clip-path="url(#p9eba688315)" style="fill: #ff9896"/>
   </g>
   <g id="patch_120">
    <path d="M 507.336059 368.212174 
L 520.07094 368.212174 
L 520.07094 368.212174 
L 507.336059 368.212174 
z
" clip-path="url(#p9eba688315)" style="fill: #ff9896"/>
   </g>
   <g id="patch_121">
    <path d="M 523.25466 378.925217 
L 535.98954 378.925217 
L 535.98954 378.925217 
L 523.25466 378.925217 
z
" clip-path="url(#p9eba688315)" style="fill: #ff9896"/>
   </g>
   <g id="patch_122">
    <path d="M 539.17326 314.646957 
L 551.90814 314.646957 
L 551.90814 314.646957 
L 539.17326 314.646957 
z
" clip-path="url(#p9eba688315)" style="fill: #ff9896"/>
   </g>
   <g id="patch_123">
    <path d="M 555.09186 384.281739 
L 567.82674 384.281739 
L 567.82674 384.281739 
L 555.09186 384.281739 
z
" clip-path="url(#p9eba688315)" style="fill: #ff9896"/>
   </g>
   <g id="patch_124">
    <path d="M 571.01046 389.638261 
L 583.74534 389.638261 
L 583.74534 389.638261 
L 571.01046 389.638261 
z
" clip-path="url(#p9eba688315)" style="fill: #ff9896"/>
   </g>
   <g id="patch_125">
    <path d="M 586.92906 378.925217 
L 599.663941 378.925217 
L 599.663941 378.925217 
L 586.92906 378.925217 
z
" clip-path="url(#p9eba688315)" style="fill: #ff9896"/>
   </g>
   <g id="patch_126">
    <path d="M 602.847661 341.429565 
L 615.582541 341.429565 
L 615.582541 341.429565 
L 602.847661 341.429565 
z
" clip-path="url(#p9eba688315)" style="fill: #ff9896"/>
   </g>
   <g id="patch_127">
    <path d="M 618.766261 373.568696 
L 631.501141 373.568696 
L 631.501141 373.568696 
L 618.766261 373.568696 
z
" clip-path="url(#p9eba688315)" style="fill: #ff9896"/>
   </g>
   <g id="patch_128">
    <path d="M 634.684861 352.142609 
L 647.419741 352.142609 
L 647.419741 352.142609 
L 634.684861 352.142609 
z
" clip-path="url(#p9eba688315)" style="fill: #ff9896"/>
   </g>
   <g id="patch_129">
    <path d="M 650.603461 336.073043 
L 663.338342 336.073043 
L 663.338342 336.073043 
L 650.603461 336.073043 
z
" clip-path="url(#p9eba688315)" style="fill: #ff9896"/>
   </g>
   <g id="patch_130">
    <path d="M 666.522062 336.073043 
L 679.256942 336.073043 
L 679.256942 336.073043 
L 666.522062 336.073043 
z
" clip-path="url(#p9eba688315)" style="fill: #ff9896"/>
   </g>
   <g id="patch_131">
    <path d="M 682.440662 389.638261 
L 695.175542 389.638261 
L 695.175542 389.638261 
L 682.440662 389.638261 
z
" clip-path="url(#p9eba688315)" style="fill: #ff9896"/>
   </g>
   <g id="patch_132">
    <path d="M 698.359262 421.777391 
L 711.094142 421.777391 
L 711.094142 421.777391 
L 698.359262 421.777391 
z
" clip-path="url(#p9eba688315)" style="fill: #ff9896"/>
   </g>
   <g id="patch_133">
    <path d="M 714.277862 432.490435 
L 727.012742 432.490435 
L 727.012742 432.490435 
L 714.277862 432.490435 
z
" clip-path="url(#p9eba688315)" style="fill: #ff9896"/>
   </g>
   <g id="patch_134">
    <path d="M 730.196463 432.490435 
L 742.931343 432.490435 
L 742.931343 432.490435 
L 730.196463 432.490435 
z
" clip-path="url(#p9eba688315)" style="fill: #ff9896"/>
   </g>
   <g id="patch_135">
    <path d="M 746.115063 437.846957 
L 758.849943 437.846957 
L 758.849943 437.846957 
L 746.115063 437.846957 
z
" clip-path="url(#p9eba688315)" style="fill: #ff9896"/>
   </g>
   <g id="patch_136">
    <path d="M 762.033663 443.203478 
L 774.768543 443.203478 
L 774.768543 443.203478 
L 762.033663 443.203478 
z
" clip-path="url(#p9eba688315)" style="fill: #ff9896"/>
   </g>
   <g id="patch_137">
    <path d="M 777.952263 427.133913 
L 790.687143 427.133913 
L 790.687143 427.133913 
L 777.952263 427.133913 
z
" clip-path="url(#p9eba688315)" style="fill: #ff9896"/>
   </g>
   <g id="patch_138">
    <path d="M 793.870863 421.777391 
L 806.605744 421.777391 
L 806.605744 421.777391 
L 793.870863 421.777391 
z
" clip-path="url(#p9eba688315)" style="fill: #ff9896"/>
   </g>
   <g id="patch_139">
    <path d="M 809.789464 373.568696 
L 822.524344 373.568696 
L 822.524344 373.568696 
L 809.789464 373.568696 
z
" clip-path="url(#p9eba688315)" style="fill: #ff9896"/>
   </g>
   <g id="patch_140">
    <path d="M 825.708064 346.786087 
L 838.442944 346.786087 
L 838.442944 346.786087 
L 825.708064 346.786087 
z
" clip-path="url(#p9eba688315)" style="fill: #ff9896"/>
   </g>
   <g id="patch_141">
    <path d="M 841.626664 314.646957 
L 854.361544 314.646957 
L 854.361544 314.646957 
L 841.626664 314.646957 
z
" clip-path="url(#p9eba688315)" style="fill: #ff9896"/>
   </g>
   <g id="patch_142">
    <path d="M 857.545264 373.568696 
L 870.280145 373.568696 
L 870.280145 373.568696 
L 857.545264 373.568696 
z
" clip-path="url(#p9eba688315)" style="fill: #ff9896"/>
   </g>
   <g id="patch_143">
    <path d="M 873.463865 373.568696 
L 886.198745 373.568696 
L 886.198745 373.568696 
L 873.463865 373.568696 
z
" clip-path="url(#p9eba688315)" style="fill: #ff9896"/>
   </g>
   <g id="patch_144">
    <path d="M 889.382465 362.855652 
L 902.117345 362.855652 
L 902.117345 362.855652 
L 889.382465 362.855652 
z
" clip-path="url(#p9eba688315)" style="fill: #ff9896"/>
   </g>
   <g id="patch_145">
    <path d="M 905.301065 405.707826 
L 918.035945 405.707826 
L 918.035945 405.707826 
L 905.301065 405.707826 
z
" clip-path="url(#p9eba688315)" style="fill: #ff9896"/>
   </g>
   <g id="patch_146">
    <path d="M 921.219665 400.351304 
L 933.954545 400.351304 
L 933.954545 400.351304 
L 921.219665 400.351304 
z
" clip-path="url(#p9eba688315)" style="fill: #ff9896"/>
   </g>
   <g id="patch_147">
    <path d="M 173.045455 368.212174 
L 185.780335 368.212174 
L 185.780335 346.786087 
L 173.045455 346.786087 
z
" clip-path="url(#p9eba688315)" style="fill: #1f77b4"/>
   </g>
   <g id="patch_148">
    <path d="M 188.964055 293.22087 
L 201.698935 293.22087 
L 201.698935 261.081739 
L 188.964055 261.081739 
z
" clip-path="url(#p9eba688315)" style="fill: #1f77b4"/>
   </g>
   <g id="patch_149">
    <path d="M 204.882655 346.786087 
L 217.617535 346.786087 
L 217.617535 287.864348 
L 204.882655 287.864348 
z
" clip-path="url(#p9eba688315)" style="fill: #1f77b4"/>
   </g>
   <g id="patch_150">
    <path d="M 220.801255 346.786087 
L 233.536135 346.786087 
L 233.536135 293.22087 
L 220.801255 293.22087 
z
" clip-path="url(#p9eba688315)" style="fill: #1f77b4"/>
   </g>
   <g id="patch_151">
    <path d="M 236.719855 362.855652 
L 249.454736 362.855652 
L 249.454736 325.36 
L 236.719855 325.36 
z
" clip-path="url(#p9eba688315)" style="fill: #1f77b4"/>
   </g>
   <g id="patch_152">
    <path d="M 252.638456 357.49913 
L 265.373336 357.49913 
L 265.373336 336.073043 
L 252.638456 336.073043 
z
" clip-path="url(#p9eba688315)" style="fill: #1f77b4"/>
   </g>
   <g id="patch_153">
    <path d="M 268.557056 346.786087 
L 281.291936 346.786087 
L 281.291936 298.577391 
L 268.557056 298.577391 
z
" clip-path="url(#p9eba688315)" style="fill: #1f77b4"/>
   </g>
   <g id="patch_154">
    <path d="M 284.475656 336.073043 
L 297.210536 336.073043 
L 297.210536 309.290435 
L 284.475656 309.290435 
z
" clip-path="url(#p9eba688315)" style="fill: #1f77b4"/>
   </g>
   <g id="patch_155">
    <path d="M 300.394256 389.638261 
L 313.129137 389.638261 
L 313.129137 373.568696 
L 300.394256 373.568696 
z
" clip-path="url(#p9eba688315)" style="fill: #1f77b4"/>
   </g>
   <g id="patch_156">
    <path d="M 316.312857 443.203478 
L 329.047737 443.203478 
L 329.047737 437.846957 
L 316.312857 437.846957 
z
" clip-path="url(#p9eba688315)" style="fill: #1f77b4"/>
   </g>
   <g id="patch_157">
    <path d="M 332.231457 448.56 
L 344.966337 448.56 
L 344.966337 448.56 
L 332.231457 448.56 
z
" clip-path="url(#p9eba688315)" style="fill: #1f77b4"/>
   </g>
   <g id="patch_158">
    <path d="M 348.150057 443.203478 
L 360.884937 443.203478 
L 360.884937 437.846957 
L 348.150057 437.846957 
z
" clip-path="url(#p9eba688315)" style="fill: #1f77b4"/>
   </g>
   <g id="patch_159">
    <path d="M 364.068657 448.56 
L 376.803537 448.56 
L 376.803537 448.56 
L 364.068657 448.56 
z
" clip-path="url(#p9eba688315)" style="fill: #1f77b4"/>
   </g>
   <g id="patch_160">
    <path d="M 379.987258 443.203478 
L 392.722138 443.203478 
L 392.722138 443.203478 
L 379.987258 443.203478 
z
" clip-path="url(#p9eba688315)" style="fill: #1f77b4"/>
   </g>
   <g id="patch_161">
    <path d="M 395.905858 443.203478 
L 408.640738 443.203478 
L 408.640738 443.203478 
L 395.905858 443.203478 
z
" clip-path="url(#p9eba688315)" style="fill: #1f77b4"/>
   </g>
   <g id="patch_162">
    <path d="M 411.824458 427.133913 
L 424.559338 427.133913 
L 424.559338 427.133913 
L 411.824458 427.133913 
z
" clip-path="url(#p9eba688315)" style="fill: #1f77b4"/>
   </g>
   <g id="patch_163">
    <path d="M 427.743058 378.925217 
L 440.477938 378.925217 
L 440.477938 362.855652 
L 427.743058 362.855652 
z
" clip-path="url(#p9eba688315)" style="fill: #1f77b4"/>
   </g>
   <g id="patch_164">
    <path d="M 443.661658 346.786087 
L 456.396539 346.786087 
L 456.396539 314.646957 
L 443.661658 314.646957 
z
" clip-path="url(#p9eba688315)" style="fill: #1f77b4"/>
   </g>
   <g id="patch_165">
    <path d="M 459.580259 298.577391 
L 472.315139 298.577391 
L 472.315139 228.942609 
L 459.580259 228.942609 
z
" clip-path="url(#p9eba688315)" style="fill: #1f77b4"/>
   </g>
   <g id="patch_166">
    <path d="M 475.498859 314.646957 
L 488.233739 314.646957 
L 488.233739 287.864348 
L 475.498859 287.864348 
z
" clip-path="url(#p9eba688315)" style="fill: #1f77b4"/>
   </g>
   <g id="patch_167">
    <path d="M 491.417459 320.003478 
L 504.152339 320.003478 
L 504.152339 298.577391 
L 491.417459 298.577391 
z
" clip-path="url(#p9eba688315)" style="fill: #1f77b4"/>
   </g>
   <g id="patch_168">
    <path d="M 507.336059 368.212174 
L 520.07094 368.212174 
L 520.07094 314.646957 
L 507.336059 314.646957 
z
" clip-path="url(#p9eba688315)" style="fill: #1f77b4"/>
   </g>
   <g id="patch_169">
    <path d="M 523.25466 378.925217 
L 535.98954 378.925217 
L 535.98954 357.49913 
L 523.25466 357.49913 
z
" clip-path="url(#p9eba688315)" style="fill: #1f77b4"/>
   </g>
   <g id="patch_170">
    <path d="M 539.17326 314.646957 
L 551.90814 314.646957 
L 551.90814 271.794783 
L 539.17326 271.794783 
z
" clip-path="url(#p9eba688315)" style="fill: #1f77b4"/>
   </g>
   <g id="patch_171">
    <path d="M 555.09186 384.281739 
L 567.82674 384.281739 
L 567.82674 368.212174 
L 555.09186 368.212174 
z
" clip-path="url(#p9eba688315)" style="fill: #1f77b4"/>
   </g>
   <g id="patch_172">
    <path d="M 571.01046 389.638261 
L 583.74534 389.638261 
L 583.74534 368.212174 
L 571.01046 368.212174 
z
" clip-path="url(#p9eba688315)" style="fill: #1f77b4"/>
   </g>
   <g id="patch_173">
    <path d="M 586.92906 378.925217 
L 599.663941 378.925217 
L 599.663941 346.786087 
L 586.92906 346.786087 
z
" clip-path="url(#p9eba688315)" style="fill: #1f77b4"/>
   </g>
   <g id="patch_174">
    <path d="M 602.847661 341.429565 
L 615.582541 341.429565 
L 615.582541 325.36 
L 602.847661 325.36 
z
" clip-path="url(#p9eba688315)" style="fill: #1f77b4"/>
   </g>
   <g id="patch_175">
    <path d="M 618.766261 373.568696 
L 631.501141 373.568696 
L 631.501141 336.073043 
L 618.766261 336.073043 
z
" clip-path="url(#p9eba688315)" style="fill: #1f77b4"/>
   </g>
   <g id="patch_176">
    <path d="M 634.684861 352.142609 
L 647.419741 352.142609 
L 647.419741 309.290435 
L 634.684861 309.290435 
z
" clip-path="url(#p9eba688315)" style="fill: #1f77b4"/>
   </g>
   <g id="patch_177">
    <path d="M 650.603461 336.073043 
L 663.338342 336.073043 
L 663.338342 293.22087 
L 650.603461 293.22087 
z
" clip-path="url(#p9eba688315)" style="fill: #1f77b4"/>
   </g>
   <g id="patch_178">
    <path d="M 666.522062 336.073043 
L 679.256942 336.073043 
L 679.256942 277.151304 
L 666.522062 277.151304 
z
" clip-path="url(#p9eba688315)" style="fill: #1f77b4"/>
   </g>
   <g id="patch_179">
    <path d="M 682.440662 389.638261 
L 695.175542 389.638261 
L 695.175542 362.855652 
L 682.440662 362.855652 
z
" clip-path="url(#p9eba688315)" style="fill: #1f77b4"/>
   </g>
   <g id="patch_180">
    <path d="M 698.359262 421.777391 
L 711.094142 421.777391 
L 711.094142 416.42087 
L 698.359262 416.42087 
z
" clip-path="url(#p9eba688315)" style="fill: #1f77b4"/>
   </g>
   <g id="patch_181">
    <path d="M 714.277862 432.490435 
L 727.012742 432.490435 
L 727.012742 432.490435 
L 714.277862 432.490435 
z
" clip-path="url(#p9eba688315)" style="fill: #1f77b4"/>
   </g>
   <g id="patch_182">
    <path d="M 730.196463 432.490435 
L 742.931343 432.490435 
L 742.931343 427.133913 
L 730.196463 427.133913 
z
" clip-path="url(#p9eba688315)" style="fill: #1f77b4"/>
   </g>
   <g id="patch_183">
    <path d="M 746.115063 437.846957 
L 758.849943 437.846957 
L 758.849943 427.133913 
L 746.115063 427.133913 
z
" clip-path="url(#p9eba688315)" style="fill: #1f77b4"/>
   </g>
   <g id="patch_184">
    <path d="M 762.033663 443.203478 
L 774.768543 443.203478 
L 774.768543 437.846957 
L 762.033663 437.846957 
z
" clip-path="url(#p9eba688315)" style="fill: #1f77b4"/>
   </g>
   <g id="patch_185">
    <path d="M 777.952263 427.133913 
L 790.687143 427.133913 
L 790.687143 427.133913 
L 777.952263 427.133913 
z
" clip-path="url(#p9eba688315)" style="fill: #1f77b4"/>
   </g>
   <g id="patch_186">
    <path d="M 793.870863 421.777391 
L 806.605744 421.777391 
L 806.605744 416.42087 
L 793.870863 416.42087 
z
" clip-path="url(#p9eba688315)" style="fill: #1f77b4"/>
   </g>
   <g id="patch_187">
    <path d="M 809.789464 373.568696 
L 822.524344 373.568696 
L 822.524344 368.212174 
L 809.789464 368.212174 
z
" clip-path="url(#p9eba688315)" style="fill: #1f77b4"/>
   </g>
   <g id="patch_188">
    <path d="M 825.708064 346.786087 
L 838.442944 346.786087 
L 838.442944 325.36 
L 825.708064 325.36 
z
" clip-path="url(#p9eba688315)" style="fill: #1f77b4"/>
   </g>
   <g id="patch_189">
    <path d="M 841.626664 314.646957 
L 854.361544 314.646957 
L 854.361544 277.151304 
L 841.626664 277.151304 
z
" clip-path="url(#p9eba688315)" style="fill: #1f77b4"/>
   </g>
   <g id="patch_190">
    <path d="M 857.545264 373.568696 
L 870.280145 373.568696 
L 870.280145 336.073043 
L 857.545264 336.073043 
z
" clip-path="url(#p9eba688315)" style="fill: #1f77b4"/>
   </g>
   <g id="patch_191">
    <path d="M 873.463865 373.568696 
L 886.198745 373.568696 
L 886.198745 341.429565 
L 873.463865 341.429565 
z
" clip-path="url(#p9eba688315)" style="fill: #1f77b4"/>
   </g>
   <g id="patch_192">
    <path d="M 889.382465 362.855652 
L 902.117345 362.855652 
L 902.117345 352.142609 
L 889.382465 352.142609 
z
" clip-path="url(#p9eba688315)" style="fill: #1f77b4"/>
   </g>
   <g id="patch_193">
    <path d="M 905.301065 405.707826 
L 918.035945 405.707826 
L 918.035945 373.568696 
L 905.301065 373.568696 
z
" clip-path="url(#p9eba688315)" style="fill: #1f77b4"/>
   </g>
   <g id="patch_194">
    <path d="M 921.219665 400.351304 
L 933.954545 400.351304 
L 933.954545 378.925217 
L 921.219665 378.925217 
z
" clip-path="url(#p9eba688315)" style="fill: #1f77b4"/>
   </g>
   <g id="patch_195">
    <path d="M 173.045455 346.786087 
L 185.780335 346.786087 
L 185.780335 314.646957 
L 173.045455 314.646957 
z
" clip-path="url(#p9eba688315)" style="fill: #ff7f0e"/>
   </g>
   <g id="patch_196">
    <path d="M 188.964055 261.081739 
L 201.698935 261.081739 
L 201.698935 228.942609 
L 188.964055 228.942609 
z
" clip-path="url(#p9eba688315)" style="fill: #ff7f0e"/>
   </g>
   <g id="patch_197">
    <path d="M 204.882655 287.864348 
L 217.617535 287.864348 
L 217.617535 255.725217 
L 204.882655 255.725217 
z
" clip-path="url(#p9eba688315)" style="fill: #ff7f0e"/>
   </g>
   <g id="patch_198">
    <path d="M 220.801255 293.22087 
L 233.536135 293.22087 
L 233.536135 261.081739 
L 220.801255 261.081739 
z
" clip-path="url(#p9eba688315)" style="fill: #ff7f0e"/>
   </g>
   <g id="patch_199">
    <path d="M 236.719855 325.36 
L 249.454736 325.36 
L 249.454736 271.794783 
L 236.719855 271.794783 
z
" clip-path="url(#p9eba688315)" style="fill: #ff7f0e"/>
   </g>
   <g id="patch_200">
    <path d="M 252.638456 336.073043 
L 265.373336 336.073043 
L 265.373336 245.012174 
L 252.638456 245.012174 
z
" clip-path="url(#p9eba688315)" style="fill: #ff7f0e"/>
   </g>
   <g id="patch_201">
    <path d="M 268.557056 298.577391 
L 281.291936 298.577391 
L 281.291936 223.586087 
L 268.557056 223.586087 
z
" clip-path="url(#p9eba688315)" style="fill: #ff7f0e"/>
   </g>
   <g id="patch_202">
    <path d="M 284.475656 309.290435 
L 297.210536 309.290435 
L 297.210536 261.081739 
L 284.475656 261.081739 
z
" clip-path="url(#p9eba688315)" style="fill: #ff7f0e"/>
   </g>
   <g id="patch_203">
    <path d="M 300.394256 373.568696 
L 313.129137 373.568696 
L 313.129137 362.855652 
L 300.394256 362.855652 
z
" clip-path="url(#p9eba688315)" style="fill: #ff7f0e"/>
   </g>
   <g id="patch_204">
    <path d="M 316.312857 437.846957 
L 329.047737 437.846957 
L 329.047737 427.133913 
L 316.312857 427.133913 
z
" clip-path="url(#p9eba688315)" style="fill: #ff7f0e"/>
   </g>
   <g id="patch_205">
    <path d="M 332.231457 448.56 
L 344.966337 448.56 
L 344.966337 443.203478 
L 332.231457 443.203478 
z
" clip-path="url(#p9eba688315)" style="fill: #ff7f0e"/>
   </g>
   <g id="patch_206">
    <path d="M 348.150057 437.846957 
L 360.884937 437.846957 
L 360.884937 432.490435 
L 348.150057 432.490435 
z
" clip-path="url(#p9eba688315)" style="fill: #ff7f0e"/>
   </g>
   <g id="patch_207">
    <path d="M 364.068657 448.56 
L 376.803537 448.56 
L 376.803537 443.203478 
L 364.068657 443.203478 
z
" clip-path="url(#p9eba688315)" style="fill: #ff7f0e"/>
   </g>
   <g id="patch_208">
    <path d="M 379.987258 443.203478 
L 392.722138 443.203478 
L 392.722138 443.203478 
L 379.987258 443.203478 
z
" clip-path="url(#p9eba688315)" style="fill: #ff7f0e"/>
   </g>
   <g id="patch_209">
    <path d="M 395.905858 443.203478 
L 408.640738 443.203478 
L 408.640738 443.203478 
L 395.905858 443.203478 
z
" clip-path="url(#p9eba688315)" style="fill: #ff7f0e"/>
   </g>
   <g id="patch_210">
    <path d="M 411.824458 427.133913 
L 424.559338 427.133913 
L 424.559338 421.777391 
L 411.824458 421.777391 
z
" clip-path="url(#p9eba688315)" style="fill: #ff7f0e"/>
   </g>
   <g id="patch_211">
    <path d="M 427.743058 362.855652 
L 440.477938 362.855652 
L 440.477938 325.36 
L 427.743058 325.36 
z
" clip-path="url(#p9eba688315)" style="fill: #ff7f0e"/>
   </g>
   <g id="patch_212">
    <path d="M 443.661658 314.646957 
L 456.396539 314.646957 
L 456.396539 245.012174 
L 443.661658 245.012174 
z
" clip-path="url(#p9eba688315)" style="fill: #ff7f0e"/>
   </g>
   <g id="patch_213">
    <path d="M 459.580259 228.942609 
L 472.315139 228.942609 
L 472.315139 180.733913 
L 459.580259 180.733913 
z
" clip-path="url(#p9eba688315)" style="fill: #ff7f0e"/>
   </g>
   <g id="patch_214">
    <path d="M 475.498859 287.864348 
L 488.233739 287.864348 
L 488.233739 234.29913 
L 475.498859 234.29913 
z
" clip-path="url(#p9eba688315)" style="fill: #ff7f0e"/>
   </g>
   <g id="patch_215">
    <path d="M 491.417459 298.577391 
L 504.152339 298.577391 
L 504.152339 234.29913 
L 491.417459 234.29913 
z
" clip-path="url(#p9eba688315)" style="fill: #ff7f0e"/>
   </g>
   <g id="patch_216">
    <path d="M 507.336059 314.646957 
L 520.07094 314.646957 
L 520.07094 250.368696 
L 507.336059 250.368696 
z
" clip-path="url(#p9eba688315)" style="fill: #ff7f0e"/>
   </g>
   <g id="patch_217">
    <path d="M 523.25466 357.49913 
L 535.98954 357.49913 
L 535.98954 309.290435 
L 523.25466 309.290435 
z
" clip-path="url(#p9eba688315)" style="fill: #ff7f0e"/>
   </g>
   <g id="patch_218">
    <path d="M 539.17326 271.794783 
L 551.90814 271.794783 
L 551.90814 250.368696 
L 539.17326 250.368696 
z
" clip-path="url(#p9eba688315)" style="fill: #ff7f0e"/>
   </g>
   <g id="patch_219">
    <path d="M 555.09186 368.212174 
L 567.82674 368.212174 
L 567.82674 303.933913 
L 555.09186 303.933913 
z
" clip-path="url(#p9eba688315)" style="fill: #ff7f0e"/>
   </g>
   <g id="patch_220">
    <path d="M 571.01046 368.212174 
L 583.74534 368.212174 
L 583.74534 303.933913 
L 571.01046 303.933913 
z
" clip-path="url(#p9eba688315)" style="fill: #ff7f0e"/>
   </g>
   <g id="patch_221">
    <path d="M 586.92906 346.786087 
L 599.663941 346.786087 
L 599.663941 309.290435 
L 586.92906 309.290435 
z
" clip-path="url(#p9eba688315)" style="fill: #ff7f0e"/>
   </g>
   <g id="patch_222">
    <path d="M 602.847661 325.36 
L 615.582541 325.36 
L 615.582541 255.725217 
L 602.847661 255.725217 
z
" clip-path="url(#p9eba688315)" style="fill: #ff7f0e"/>
   </g>
   <g id="patch_223">
    <path d="M 618.766261 336.073043 
L 631.501141 336.073043 
L 631.501141 282.507826 
L 618.766261 282.507826 
z
" clip-path="url(#p9eba688315)" style="fill: #ff7f0e"/>
   </g>
   <g id="patch_224">
    <path d="M 634.684861 309.290435 
L 647.419741 309.290435 
L 647.419741 245.012174 
L 634.684861 245.012174 
z
" clip-path="url(#p9eba688315)" style="fill: #ff7f0e"/>
   </g>
   <g id="patch_225">
    <path d="M 650.603461 293.22087 
L 663.338342 293.22087 
L 663.338342 255.725217 
L 650.603461 255.725217 
z
" clip-path="url(#p9eba688315)" style="fill: #ff7f0e"/>
   </g>
   <g id="patch_226">
    <path d="M 666.522062 277.151304 
L 679.256942 277.151304 
L 679.256942 223.586087 
L 666.522062 223.586087 
z
" clip-path="url(#p9eba688315)" style="fill: #ff7f0e"/>
   </g>
   <g id="patch_227">
    <path d="M 682.440662 362.855652 
L 695.175542 362.855652 
L 695.175542 325.36 
L 682.440662 325.36 
z
" clip-path="url(#p9eba688315)" style="fill: #ff7f0e"/>
   </g>
   <g id="patch_228">
    <path d="M 698.359262 416.42087 
L 711.094142 416.42087 
L 711.094142 411.064348 
L 698.359262 411.064348 
z
" clip-path="url(#p9eba688315)" style="fill: #ff7f0e"/>
   </g>
   <g id="patch_229">
    <path d="M 714.277862 432.490435 
L 727.012742 432.490435 
L 727.012742 427.133913 
L 714.277862 427.133913 
z
" clip-path="url(#p9eba688315)" style="fill: #ff7f0e"/>
   </g>
   <g id="patch_230">
    <path d="M 730.196463 427.133913 
L 742.931343 427.133913 
L 742.931343 427.133913 
L 730.196463 427.133913 
z
" clip-path="url(#p9eba688315)" style="fill: #ff7f0e"/>
   </g>
   <g id="patch_231">
    <path d="M 746.115063 427.133913 
L 758.849943 427.133913 
L 758.849943 416.42087 
L 746.115063 416.42087 
z
" clip-path="url(#p9eba688315)" style="fill: #ff7f0e"/>
   </g>
   <g id="patch_232">
    <path d="M 762.033663 437.846957 
L 774.768543 437.846957 
L 774.768543 411.064348 
L 762.033663 411.064348 
z
" clip-path="url(#p9eba688315)" style="fill: #ff7f0e"/>
   </g>
   <g id="patch_233">
    <path d="M 777.952263 427.133913 
L 790.687143 427.133913 
L 790.687143 411.064348 
L 777.952263 411.064348 
z
" clip-path="url(#p9eba688315)" style="fill: #ff7f0e"/>
   </g>
   <g id="patch_234">
    <path d="M 793.870863 416.42087 
L 806.605744 416.42087 
L 806.605744 394.994783 
L 793.870863 394.994783 
z
" clip-path="url(#p9eba688315)" style="fill: #ff7f0e"/>
   </g>
   <g id="patch_235">
    <path d="M 809.789464 368.212174 
L 822.524344 368.212174 
L 822.524344 346.786087 
L 809.789464 346.786087 
z
" clip-path="url(#p9eba688315)" style="fill: #ff7f0e"/>
   </g>
   <g id="patch_236">
    <path d="M 825.708064 325.36 
L 838.442944 325.36 
L 838.442944 282.507826 
L 825.708064 282.507826 
z
" clip-path="url(#p9eba688315)" style="fill: #ff7f0e"/>
   </g>
   <g id="patch_237">
    <path d="M 841.626664 277.151304 
L 854.361544 277.151304 
L 854.361544 180.733913 
L 841.626664 180.733913 
z
" clip-path="url(#p9eba688315)" style="fill: #ff7f0e"/>
   </g>
   <g id="patch_238">
    <path d="M 857.545264 336.073043 
L 870.280145 336.073043 
L 870.280145 261.081739 
L 857.545264 261.081739 
z
" clip-path="url(#p9eba688315)" style="fill: #ff7f0e"/>
   </g>
   <g id="patch_239">
    <path d="M 873.463865 341.429565 
L 886.198745 341.429565 
L 886.198745 277.151304 
L 873.463865 277.151304 
z
" clip-path="url(#p9eba688315)" style="fill: #ff7f0e"/>
   </g>
   <g id="patch_240">
    <path d="M 889.382465 352.142609 
L 902.117345 352.142609 
L 902.117345 320.003478 
L 889.382465 320.003478 
z
" clip-path="url(#p9eba688315)" style="fill: #ff7f0e"/>
   </g>
   <g id="patch_241">
    <path d="M 905.301065 373.568696 
L 918.035945 373.568696 
L 918.035945 330.716522 
L 905.301065 330.716522 
z
" clip-path="url(#p9eba688315)" style="fill: #ff7f0e"/>
   </g>
   <g id="patch_242">
    <path d="M 921.219665 378.925217 
L 933.954545 378.925217 
L 933.954545 336.073043 
L 921.219665 336.073043 
z
" clip-path="url(#p9eba688315)" style="fill: #ff7f0e"/>
   </g>
   <g id="patch_243">
    <path d="M 173.045455 314.646957 
L 185.780335 314.646957 
L 185.780335 309.290435 
L 173.045455 309.290435 
z
" clip-path="url(#p9eba688315)" style="fill: #d62728"/>
   </g>
   <g id="patch_244">
    <path d="M 188.964055 228.942609 
L 201.698935 228.942609 
L 201.698935 223.586087 
L 188.964055 223.586087 
z
" clip-path="url(#p9eba688315)" style="fill: #d62728"/>
   </g>
   <g id="patch_245">
    <path d="M 204.882655 255.725217 
L 217.617535 255.725217 
L 217.617535 245.012174 
L 204.882655 245.012174 
z
" clip-path="url(#p9eba688315)" style="fill: #d62728"/>
   </g>
   <g id="patch_246">
    <path d="M 220.801255 261.081739 
L 233.536135 261.081739 
L 233.536135 228.942609 
L 220.801255 228.942609 
z
" clip-path="url(#p9eba688315)" style="fill: #d62728"/>
   </g>
   <g id="patch_247">
    <path d="M 236.719855 271.794783 
L 249.454736 271.794783 
L 249.454736 261.081739 
L 236.719855 261.081739 
z
" clip-path="url(#p9eba688315)" style="fill: #d62728"/>
   </g>
   <g id="patch_248">
    <path d="M 252.638456 245.012174 
L 265.373336 245.012174 
L 265.373336 223.586087 
L 252.638456 223.586087 
z
" clip-path="url(#p9eba688315)" style="fill: #d62728"/>
   </g>
   <g id="patch_249">
    <path d="M 268.557056 223.586087 
L 281.291936 223.586087 
L 281.291936 153.951304 
L 268.557056 153.951304 
z
" clip-path="url(#p9eba688315)" style="fill: #d62728"/>
   </g>
   <g id="patch_250">
    <path d="M 284.475656 261.081739 
L 297.210536 261.081739 
L 297.210536 250.368696 
L 284.475656 250.368696 
z
" clip-path="url(#p9eba688315)" style="fill: #d62728"/>
   </g>
   <g id="patch_251">
    <path d="M 300.394256 362.855652 
L 313.129137 362.855652 
L 313.129137 352.142609 
L 300.394256 352.142609 
z
" clip-path="url(#p9eba688315)" style="fill: #d62728"/>
   </g>
   <g id="patch_252">
    <path d="M 316.312857 427.133913 
L 329.047737 427.133913 
L 329.047737 416.42087 
L 316.312857 416.42087 
z
" clip-path="url(#p9eba688315)" style="fill: #d62728"/>
   </g>
   <g id="patch_253">
    <path d="M 332.231457 443.203478 
L 344.966337 443.203478 
L 344.966337 443.203478 
L 332.231457 443.203478 
z
" clip-path="url(#p9eba688315)" style="fill: #d62728"/>
   </g>
   <g id="patch_254">
    <path d="M 348.150057 432.490435 
L 360.884937 432.490435 
L 360.884937 421.777391 
L 348.150057 421.777391 
z
" clip-path="url(#p9eba688315)" style="fill: #d62728"/>
   </g>
   <g id="patch_255">
    <path d="M 364.068657 443.203478 
L 376.803537 443.203478 
L 376.803537 443.203478 
L 364.068657 443.203478 
z
" clip-path="url(#p9eba688315)" style="fill: #d62728"/>
   </g>
   <g id="patch_256">
    <path d="M 379.987258 443.203478 
L 392.722138 443.203478 
L 392.722138 443.203478 
L 379.987258 443.203478 
z
" clip-path="url(#p9eba688315)" style="fill: #d62728"/>
   </g>
   <g id="patch_257">
    <path d="M 395.905858 443.203478 
L 408.640738 443.203478 
L 408.640738 443.203478 
L 395.905858 443.203478 
z
" clip-path="url(#p9eba688315)" style="fill: #d62728"/>
   </g>
   <g id="patch_258">
    <path d="M 411.824458 421.777391 
L 424.559338 421.777391 
L 424.559338 421.777391 
L 411.824458 421.777391 
z
" clip-path="url(#p9eba688315)" style="fill: #d62728"/>
   </g>
   <g id="patch_259">
    <path d="M 427.743058 325.36 
L 440.477938 325.36 
L 440.477938 298.577391 
L 427.743058 298.577391 
z
" clip-path="url(#p9eba688315)" style="fill: #d62728"/>
   </g>
   <g id="patch_260">
    <path d="M 443.661658 245.012174 
L 456.396539 245.012174 
L 456.396539 180.733913 
L 443.661658 180.733913 
z
" clip-path="url(#p9eba688315)" style="fill: #d62728"/>
   </g>
   <g id="patch_261">
    <path d="M 459.580259 180.733913 
L 472.315139 180.733913 
L 472.315139 78.96 
L 459.580259 78.96 
z
" clip-path="url(#p9eba688315)" style="fill: #d62728"/>
   </g>
   <g id="patch_262">
    <path d="M 475.498859 234.29913 
L 488.233739 234.29913 
L 488.233739 207.516522 
L 475.498859 207.516522 
z
" clip-path="url(#p9eba688315)" style="fill: #d62728"/>
   </g>
   <g id="patch_263">
    <path d="M 491.417459 234.29913 
L 504.152339 234.29913 
L 504.152339 148.594783 
L 491.417459 148.594783 
z
" clip-path="url(#p9eba688315)" style="fill: #d62728"/>
   </g>
   <g id="patch_264">
    <path d="M 507.336059 250.368696 
L 520.07094 250.368696 
L 520.07094 234.29913 
L 507.336059 234.29913 
z
" clip-path="url(#p9eba688315)" style="fill: #d62728"/>
   </g>
   <g id="patch_265">
    <path d="M 523.25466 309.290435 
L 535.98954 309.290435 
L 535.98954 266.438261 
L 523.25466 266.438261 
z
" clip-path="url(#p9eba688315)" style="fill: #d62728"/>
   </g>
   <g id="patch_266">
    <path d="M 539.17326 250.368696 
L 551.90814 250.368696 
L 551.90814 196.803478 
L 539.17326 196.803478 
z
" clip-path="url(#p9eba688315)" style="fill: #d62728"/>
   </g>
   <g id="patch_267">
    <path d="M 555.09186 303.933913 
L 567.82674 303.933913 
L 567.82674 282.507826 
L 555.09186 282.507826 
z
" clip-path="url(#p9eba688315)" style="fill: #d62728"/>
   </g>
   <g id="patch_268">
    <path d="M 571.01046 303.933913 
L 583.74534 303.933913 
L 583.74534 261.081739 
L 571.01046 261.081739 
z
" clip-path="url(#p9eba688315)" style="fill: #d62728"/>
   </g>
   <g id="patch_269">
    <path d="M 586.92906 309.290435 
L 599.663941 309.290435 
L 599.663941 277.151304 
L 586.92906 277.151304 
z
" clip-path="url(#p9eba688315)" style="fill: #d62728"/>
   </g>
   <g id="patch_270">
    <path d="M 602.847661 255.725217 
L 615.582541 255.725217 
L 615.582541 239.655652 
L 602.847661 239.655652 
z
" clip-path="url(#p9eba688315)" style="fill: #d62728"/>
   </g>
   <g id="patch_271">
    <path d="M 618.766261 282.507826 
L 631.501141 282.507826 
L 631.501141 245.012174 
L 618.766261 245.012174 
z
" clip-path="url(#p9eba688315)" style="fill: #d62728"/>
   </g>
   <g id="patch_272">
    <path d="M 634.684861 245.012174 
L 647.419741 245.012174 
L 647.419741 212.873043 
L 634.684861 212.873043 
z
" clip-path="url(#p9eba688315)" style="fill: #d62728"/>
   </g>
   <g id="patch_273">
    <path d="M 650.603461 255.725217 
L 663.338342 255.725217 
L 663.338342 170.02087 
L 650.603461 170.02087 
z
" clip-path="url(#p9eba688315)" style="fill: #d62728"/>
   </g>
   <g id="patch_274">
    <path d="M 666.522062 223.586087 
L 679.256942 223.586087 
L 679.256942 196.803478 
L 666.522062 196.803478 
z
" clip-path="url(#p9eba688315)" style="fill: #d62728"/>
   </g>
   <g id="patch_275">
    <path d="M 682.440662 325.36 
L 695.175542 325.36 
L 695.175542 303.933913 
L 682.440662 303.933913 
z
" clip-path="url(#p9eba688315)" style="fill: #d62728"/>
   </g>
   <g id="patch_276">
    <path d="M 698.359262 411.064348 
L 711.094142 411.064348 
L 711.094142 400.351304 
L 698.359262 400.351304 
z
" clip-path="url(#p9eba688315)" style="fill: #d62728"/>
   </g>
   <g id="patch_277">
    <path d="M 714.277862 427.133913 
L 727.012742 427.133913 
L 727.012742 427.133913 
L 714.277862 427.133913 
z
" clip-path="url(#p9eba688315)" style="fill: #d62728"/>
   </g>
   <g id="patch_278">
    <path d="M 730.196463 427.133913 
L 742.931343 427.133913 
L 742.931343 427.133913 
L 730.196463 427.133913 
z
" clip-path="url(#p9eba688315)" style="fill: #d62728"/>
   </g>
   <g id="patch_279">
    <path d="M 746.115063 416.42087 
L 758.849943 416.42087 
L 758.849943 416.42087 
L 746.115063 416.42087 
z
" clip-path="url(#p9eba688315)" style="fill: #d62728"/>
   </g>
   <g id="patch_280">
    <path d="M 762.033663 411.064348 
L 774.768543 411.064348 
L 774.768543 405.707826 
L 762.033663 405.707826 
z
" clip-path="url(#p9eba688315)" style="fill: #d62728"/>
   </g>
   <g id="patch_281">
    <path d="M 777.952263 411.064348 
L 790.687143 411.064348 
L 790.687143 394.994783 
L 777.952263 394.994783 
z
" clip-path="url(#p9eba688315)" style="fill: #d62728"/>
   </g>
   <g id="patch_282">
    <path d="M 793.870863 394.994783 
L 806.605744 394.994783 
L 806.605744 389.638261 
L 793.870863 389.638261 
z
" clip-path="url(#p9eba688315)" style="fill: #d62728"/>
   </g>
   <g id="patch_283">
    <path d="M 809.789464 346.786087 
L 822.524344 346.786087 
L 822.524344 309.290435 
L 809.789464 309.290435 
z
" clip-path="url(#p9eba688315)" style="fill: #d62728"/>
   </g>
   <g id="patch_284">
    <path d="M 825.708064 282.507826 
L 838.442944 282.507826 
L 838.442944 250.368696 
L 825.708064 250.368696 
z
" clip-path="url(#p9eba688315)" style="fill: #d62728"/>
   </g>
   <g id="patch_285">
    <path d="M 841.626664 180.733913 
L 854.361544 180.733913 
L 854.361544 159.307826 
L 841.626664 159.307826 
z
" clip-path="url(#p9eba688315)" style="fill: #d62728"/>
   </g>
   <g id="patch_286">
    <path d="M 857.545264 261.081739 
L 870.280145 261.081739 
L 870.280145 239.655652 
L 857.545264 239.655652 
z
" clip-path="url(#p9eba688315)" style="fill: #d62728"/>
   </g>
   <g id="patch_287">
    <path d="M 873.463865 277.151304 
L 886.198745 277.151304 
L 886.198745 218.229565 
L 873.463865 218.229565 
z
" clip-path="url(#p9eba688315)" style="fill: #d62728"/>
   </g>
   <g id="patch_288">
    <path d="M 889.382465 320.003478 
L 902.117345 320.003478 
L 902.117345 298.577391 
L 889.382465 298.577391 
z
" clip-path="url(#p9eba688315)" style="fill: #d62728"/>
   </g>
   <g id="patch_289">
    <path d="M 905.301065 330.716522 
L 918.035945 330.716522 
L 918.035945 287.864348 
L 905.301065 287.864348 
z
" clip-path="url(#p9eba688315)" style="fill: #d62728"/>
   </g>
   <g id="patch_290">
    <path d="M 921.219665 336.073043 
L 933.954545 336.073043 
L 933.954545 175.377391 
L 921.219665 175.377391 
z
" clip-path="url(#p9eba688315)" style="fill: #d62728"/>
   </g>
   <g id="matplotlib.axis_1">
    <g id="xtick_1">
     <g id="line2d_1">
      <defs>
       <path id="m5b2c01a2eb" d="M 0 0 
L 0 3.5 
" style="stroke: #000000; stroke-width: 0.8"/>
      </defs>
      <g>
       <use xlink:href="#m5b2c01a2eb" x="179.412895" y="448.56" style="stroke: #000000; stroke-width: 0.8"/>
      </g>
     </g>
     <g id="text_1">
      <!-- 0 -->
      <g transform="translate(176.231645 463.158437) scale(0.1 -0.1)">
       <defs>
        <path id="DejaVuSans-30" d="M 2034 4250 
Q 1547 4250 1301 3770 
Q 1056 3291 1056 2328 
Q 1056 1369 1301 889 
Q 1547 409 2034 409 
Q 2525 409 2770 889 
Q 3016 1369 3016 2328 
Q 3016 3291 2770 3770 
Q 2525 4250 2034 4250 
z
M 2034 4750 
Q 2819 4750 3233 4129 
Q 3647 3509 3647 2328 
Q 3647 1150 3233 529 
Q 2819 -91 2034 -91 
Q 1250 -91 836 529 
Q 422 1150 422 2328 
Q 422 3509 836 4129 
Q 1250 4750 2034 4750 
z
" transform="scale(0.015625)"/>
       </defs>
       <use xlink:href="#DejaVuSans-30"/>
      </g>
     </g>
    </g>
    <g id="xtick_2">
     <g id="line2d_2">
      <g>
       <use xlink:href="#m5b2c01a2eb" x="370.436097" y="448.56" style="stroke: #000000; stroke-width: 0.8"/>
      </g>
     </g>
     <g id="text_2">
      <!-- 12 -->
      <g transform="translate(364.073597 463.158437) scale(0.1 -0.1)">
       <defs>
        <path id="DejaVuSans-31" d="M 794 531 
L 1825 531 
L 1825 4091 
L 703 3866 
L 703 4441 
L 1819 4666 
L 2450 4666 
L 2450 531 
L 3481 531 
L 3481 0 
L 794 0 
L 794 531 
z
" transform="scale(0.015625)"/>
        <path id="DejaVuSans-32" d="M 1228 531 
L 3431 531 
L 3431 0 
L 469 0 
L 469 531 
Q 828 903 1448 1529 
Q 2069 2156 2228 2338 
Q 2531 2678 2651 2914 
Q 2772 3150 2772 3378 
Q 2772 3750 2511 3984 
Q 2250 4219 1831 4219 
Q 1534 4219 1204 4116 
Q 875 4013 500 3803 
L 500 4441 
Q 881 4594 1212 4672 
Q 1544 4750 1819 4750 
Q 2544 4750 2975 4387 
Q 3406 4025 3406 3419 
Q 3406 3131 3298 2873 
Q 3191 2616 2906 2266 
Q 2828 2175 2409 1742 
Q 1991 1309 1228 531 
z
" transform="scale(0.015625)"/>
       </defs>
       <use xlink:href="#DejaVuSans-31"/>
       <use xlink:href="#DejaVuSans-32" transform="translate(63.623047 0)"/>
      </g>
     </g>
    </g>
    <g id="xtick_3">
     <g id="line2d_3">
      <g>
       <use xlink:href="#m5b2c01a2eb" x="561.4593" y="448.56" style="stroke: #000000; stroke-width: 0.8"/>
      </g>
     </g>
     <g id="text_3">
      <!-- 24 -->
      <g transform="translate(555.0968 463.158437) scale(0.1 -0.1)">
       <defs>
        <path id="DejaVuSans-34" d="M 2419 4116 
L 825 1625 
L 2419 1625 
L 2419 4116 
z
M 2253 4666 
L 3047 4666 
L 3047 1625 
L 3713 1625 
L 3713 1100 
L 3047 1100 
L 3047 0 
L 2419 0 
L 2419 1100 
L 313 1100 
L 313 1709 
L 2253 4666 
z
" transform="scale(0.015625)"/>
       </defs>
       <use xlink:href="#DejaVuSans-32"/>
       <use xlink:href="#DejaVuSans-34" transform="translate(63.623047 0)"/>
      </g>
     </g>
    </g>
    <g id="xtick_4">
     <g id="line2d_4">
      <g>
       <use xlink:href="#m5b2c01a2eb" x="752.482503" y="448.56" style="stroke: #000000; stroke-width: 0.8"/>
      </g>
     </g>
     <g id="text_4">
      <!-- 36 -->
      <g transform="translate(746.120003 463.158437) scale(0.1 -0.1)">
       <defs>
        <path id="DejaVuSans-33" d="M 2597 2516 
Q 3050 2419 3304 2112 
Q 3559 1806 3559 1356 
Q 3559 666 3084 287 
Q 2609 -91 1734 -91 
Q 1441 -91 1130 -33 
Q 819 25 488 141 
L 488 750 
Q 750 597 1062 519 
Q 1375 441 1716 441 
Q 2309 441 2620 675 
Q 2931 909 2931 1356 
Q 2931 1769 2642 2001 
Q 2353 2234 1838 2234 
L 1294 2234 
L 1294 2753 
L 1863 2753 
Q 2328 2753 2575 2939 
Q 2822 3125 2822 3475 
Q 2822 3834 2567 4026 
Q 2313 4219 1838 4219 
Q 1578 4219 1281 4162 
Q 984 4106 628 3988 
L 628 4550 
Q 988 4650 1302 4700 
Q 1616 4750 1894 4750 
Q 2613 4750 3031 4423 
Q 3450 4097 3450 3541 
Q 3450 3153 3228 2886 
Q 3006 2619 2597 2516 
z
" transform="scale(0.015625)"/>
        <path id="DejaVuSans-36" d="M 2113 2584 
Q 1688 2584 1439 2293 
Q 1191 2003 1191 1497 
Q 1191 994 1439 701 
Q 1688 409 2113 409 
Q 2538 409 2786 701 
Q 3034 994 3034 1497 
Q 3034 2003 2786 2293 
Q 2538 2584 2113 2584 
z
M 3366 4563 
L 3366 3988 
Q 3128 4100 2886 4159 
Q 2644 4219 2406 4219 
Q 1781 4219 1451 3797 
Q 1122 3375 1075 2522 
Q 1259 2794 1537 2939 
Q 1816 3084 2150 3084 
Q 2853 3084 3261 2657 
Q 3669 2231 3669 1497 
Q 3669 778 3244 343 
Q 2819 -91 2113 -91 
Q 1303 -91 875 529 
Q 447 1150 447 2328 
Q 447 3434 972 4092 
Q 1497 4750 2381 4750 
Q 2619 4750 2861 4703 
Q 3103 4656 3366 4563 
z
" transform="scale(0.015625)"/>
       </defs>
       <use xlink:href="#DejaVuSans-33"/>
       <use xlink:href="#DejaVuSans-36" transform="translate(63.623047 0)"/>
      </g>
     </g>
    </g>
    <g id="xtick_5">
     <g id="line2d_5">
      <g>
       <use xlink:href="#m5b2c01a2eb" x="927.587105" y="448.56" style="stroke: #000000; stroke-width: 0.8"/>
      </g>
     </g>
     <g id="text_5">
      <!-- 47 -->
      <g transform="translate(921.224605 463.158437) scale(0.1 -0.1)">
       <defs>
        <path id="DejaVuSans-37" d="M 525 4666 
L 3525 4666 
L 3525 4397 
L 1831 0 
L 1172 0 
L 2766 4134 
L 525 4134 
L 525 4666 
z
" transform="scale(0.015625)"/>
       </defs>
       <use xlink:href="#DejaVuSans-34"/>
       <use xlink:href="#DejaVuSans-37" transform="translate(63.623047 0)"/>
      </g>
     </g>
    </g>
    <g id="text_6">
     <!-- Game Minute -->
     <g transform="translate(519.948437 476.836563) scale(0.1 -0.1)">
      <defs>
       <path id="DejaVuSans-47" d="M 3809 666 
L 3809 1919 
L 2778 1919 
L 2778 2438 
L 4434 2438 
L 4434 434 
Q 4069 175 3628 42 
Q 3188 -91 2688 -91 
Q 1594 -91 976 548 
Q 359 1188 359 2328 
Q 359 3472 976 4111 
Q 1594 4750 2688 4750 
Q 3144 4750 3555 4637 
Q 3966 4525 4313 4306 
L 4313 3634 
Q 3963 3931 3569 4081 
Q 3175 4231 2741 4231 
Q 1884 4231 1454 3753 
Q 1025 3275 1025 2328 
Q 1025 1384 1454 906 
Q 1884 428 2741 428 
Q 3075 428 3337 486 
Q 3600 544 3809 666 
z
" transform="scale(0.015625)"/>
       <path id="DejaVuSans-61" d="M 2194 1759 
Q 1497 1759 1228 1600 
Q 959 1441 959 1056 
Q 959 750 1161 570 
Q 1363 391 1709 391 
Q 2188 391 2477 730 
Q 2766 1069 2766 1631 
L 2766 1759 
L 2194 1759 
z
M 3341 1997 
L 3341 0 
L 2766 0 
L 2766 531 
Q 2569 213 2275 61 
Q 1981 -91 1556 -91 
Q 1019 -91 701 211 
Q 384 513 384 1019 
Q 384 1609 779 1909 
Q 1175 2209 1959 2209 
L 2766 2209 
L 2766 2266 
Q 2766 2663 2505 2880 
Q 2244 3097 1772 3097 
Q 1472 3097 1187 3025 
Q 903 2953 641 2809 
L 641 3341 
Q 956 3463 1253 3523 
Q 1550 3584 1831 3584 
Q 2591 3584 2966 3190 
Q 3341 2797 3341 1997 
z
" transform="scale(0.015625)"/>
       <path id="DejaVuSans-6d" d="M 3328 2828 
Q 3544 3216 3844 3400 
Q 4144 3584 4550 3584 
Q 5097 3584 5394 3201 
Q 5691 2819 5691 2113 
L 5691 0 
L 5113 0 
L 5113 2094 
Q 5113 2597 4934 2840 
Q 4756 3084 4391 3084 
Q 3944 3084 3684 2787 
Q 3425 2491 3425 1978 
L 3425 0 
L 2847 0 
L 2847 2094 
Q 2847 2600 2669 2842 
Q 2491 3084 2119 3084 
Q 1678 3084 1418 2786 
Q 1159 2488 1159 1978 
L 1159 0 
L 581 0 
L 581 3500 
L 1159 3500 
L 1159 2956 
Q 1356 3278 1631 3431 
Q 1906 3584 2284 3584 
Q 2666 3584 2933 3390 
Q 3200 3197 3328 2828 
z
" transform="scale(0.015625)"/>
       <path id="DejaVuSans-65" d="M 3597 1894 
L 3597 1613 
L 953 1613 
Q 991 1019 1311 708 
Q 1631 397 2203 397 
Q 2534 397 2845 478 
Q 3156 559 3463 722 
L 3463 178 
Q 3153 47 2828 -22 
Q 2503 -91 2169 -91 
Q 1331 -91 842 396 
Q 353 884 353 1716 
Q 353 2575 817 3079 
Q 1281 3584 2069 3584 
Q 2775 3584 3186 3129 
Q 3597 2675 3597 1894 
z
M 3022 2063 
Q 3016 2534 2758 2815 
Q 2500 3097 2075 3097 
Q 1594 3097 1305 2825 
Q 1016 2553 972 2059 
L 3022 2063 
z
" transform="scale(0.015625)"/>
       <path id="DejaVuSans-20" transform="scale(0.015625)"/>
       <path id="DejaVuSans-4d" d="M 628 4666 
L 1569 4666 
L 2759 1491 
L 3956 4666 
L 4897 4666 
L 4897 0 
L 4281 0 
L 4281 4097 
L 3078 897 
L 2444 897 
L 1241 4097 
L 1241 0 
L 628 0 
L 628 4666 
z
" transform="scale(0.015625)"/>
       <path id="DejaVuSans-69" d="M 603 3500 
L 1178 3500 
L 1178 0 
L 603 0 
L 603 3500 
z
M 603 4863 
L 1178 4863 
L 1178 4134 
L 603 4134 
L 603 4863 
z
" transform="scale(0.015625)"/>
       <path id="DejaVuSans-6e" d="M 3513 2113 
L 3513 0 
L 2938 0 
L 2938 2094 
Q 2938 2591 2744 2837 
Q 2550 3084 2163 3084 
Q 1697 3084 1428 2787 
Q 1159 2491 1159 1978 
L 1159 0 
L 581 0 
L 581 3500 
L 1159 3500 
L 1159 2956 
Q 1366 3272 1645 3428 
Q 1925 3584 2291 3584 
Q 2894 3584 3203 3211 
Q 3513 2838 3513 2113 
z
" transform="scale(0.015625)"/>
       <path id="DejaVuSans-75" d="M 544 1381 
L 544 3500 
L 1119 3500 
L 1119 1403 
Q 1119 906 1312 657 
Q 1506 409 1894 409 
Q 2359 409 2629 706 
Q 2900 1003 2900 1516 
L 2900 3500 
L 3475 3500 
L 3475 0 
L 2900 0 
L 2900 538 
Q 2691 219 2414 64 
Q 2138 -91 1772 -91 
Q 1169 -91 856 284 
Q 544 659 544 1381 
z
M 1991 3584 
L 1991 3584 
z
" transform="scale(0.015625)"/>
       <path id="DejaVuSans-74" d="M 1172 4494 
L 1172 3500 
L 2356 3500 
L 2356 3053 
L 1172 3053 
L 1172 1153 
Q 1172 725 1289 603 
Q 1406 481 1766 481 
L 2356 481 
L 2356 0 
L 1766 0 
Q 1100 0 847 248 
Q 594 497 594 1153 
L 594 3053 
L 172 3053 
L 172 3500 
L 594 3500 
L 594 4494 
L 1172 4494 
z
" transform="scale(0.015625)"/>
      </defs>
      <use xlink:href="#DejaVuSans-47"/>
      <use xlink:href="#DejaVuSans-61" transform="translate(77.490234 0)"/>
      <use xlink:href="#DejaVuSans-6d" transform="translate(138.769531 0)"/>
      <use xlink:href="#DejaVuSans-65" transform="translate(236.181641 0)"/>
      <use xlink:href="#DejaVuSans-20" transform="translate(297.705078 0)"/>
      <use xlink:href="#DejaVuSans-4d" transform="translate(329.492188 0)"/>
      <use xlink:href="#DejaVuSans-69" transform="translate(415.771484 0)"/>
      <use xlink:href="#DejaVuSans-6e" transform="translate(443.554688 0)"/>
      <use xlink:href="#DejaVuSans-75" transform="translate(506.933594 0)"/>
      <use xlink:href="#DejaVuSans-74" transform="translate(570.3125 0)"/>
      <use xlink:href="#DejaVuSans-65" transform="translate(609.521484 0)"/>
     </g>
    </g>
   </g>
   <g id="matplotlib.axis_2">
    <g id="ytick_1">
     <g id="line2d_6">
      <path d="M 135 448.56 
L 972 448.56 
" clip-path="url(#p9eba688315)" style="fill: none; stroke-dasharray: 2.96,1.28; stroke-dashoffset: 0; stroke: #b0b0b0; stroke-opacity: 0.7; stroke-width: 0.8"/>
     </g>
     <g id="line2d_7">
      <defs>
       <path id="mce985fa3b0" d="M 0 0 
L -3.5 0 
" style="stroke: #000000; stroke-width: 0.8"/>
      </defs>
      <g>
       <use xlink:href="#mce985fa3b0" x="135" y="448.56" style="stroke: #000000; stroke-width: 0.8"/>
      </g>
     </g>
     <g id="text_7">
      <!-- 0 -->
      <g transform="translate(121.6375 452.359219) scale(0.1 -0.1)">
       <use xlink:href="#DejaVuSans-30"/>
      </g>
     </g>
    </g>
    <g id="ytick_2">
     <g id="line2d_8">
      <path d="M 135 394.994783 
L 972 394.994783 
" clip-path="url(#p9eba688315)" style="fill: none; stroke-dasharray: 2.96,1.28; stroke-dashoffset: 0; stroke: #b0b0b0; stroke-opacity: 0.7; stroke-width: 0.8"/>
     </g>
     <g id="line2d_9">
      <g>
       <use xlink:href="#mce985fa3b0" x="135" y="394.994783" style="stroke: #000000; stroke-width: 0.8"/>
      </g>
     </g>
     <g id="text_8">
      <!-- 10 -->
      <g transform="translate(115.275 398.794001) scale(0.1 -0.1)">
       <use xlink:href="#DejaVuSans-31"/>
       <use xlink:href="#DejaVuSans-30" transform="translate(63.623047 0)"/>
      </g>
     </g>
    </g>
    <g id="ytick_3">
     <g id="line2d_10">
      <path d="M 135 341.429565 
L 972 341.429565 
" clip-path="url(#p9eba688315)" style="fill: none; stroke-dasharray: 2.96,1.28; stroke-dashoffset: 0; stroke: #b0b0b0; stroke-opacity: 0.7; stroke-width: 0.8"/>
     </g>
     <g id="line2d_11">
      <g>
       <use xlink:href="#mce985fa3b0" x="135" y="341.429565" style="stroke: #000000; stroke-width: 0.8"/>
      </g>
     </g>
     <g id="text_9">
      <!-- 20 -->
      <g transform="translate(115.275 345.228784) scale(0.1 -0.1)">
       <use xlink:href="#DejaVuSans-32"/>
       <use xlink:href="#DejaVuSans-30" transform="translate(63.623047 0)"/>
      </g>
     </g>
    </g>
    <g id="ytick_4">
     <g id="line2d_12">
      <path d="M 135 287.864348 
L 972 287.864348 
" clip-path="url(#p9eba688315)" style="fill: none; stroke-dasharray: 2.96,1.28; stroke-dashoffset: 0; stroke: #b0b0b0; stroke-opacity: 0.7; stroke-width: 0.8"/>
     </g>
     <g id="line2d_13">
      <g>
       <use xlink:href="#mce985fa3b0" x="135" y="287.864348" style="stroke: #000000; stroke-width: 0.8"/>
      </g>
     </g>
     <g id="text_10">
      <!-- 30 -->
      <g transform="translate(115.275 291.663567) scale(0.1 -0.1)">
       <use xlink:href="#DejaVuSans-33"/>
       <use xlink:href="#DejaVuSans-30" transform="translate(63.623047 0)"/>
      </g>
     </g>
    </g>
    <g id="ytick_5">
     <g id="line2d_14">
      <path d="M 135 234.29913 
L 972 234.29913 
" clip-path="url(#p9eba688315)" style="fill: none; stroke-dasharray: 2.96,1.28; stroke-dashoffset: 0; stroke: #b0b0b0; stroke-opacity: 0.7; stroke-width: 0.8"/>
     </g>
     <g id="line2d_15">
      <g>
       <use xlink:href="#mce985fa3b0" x="135" y="234.29913" style="stroke: #000000; stroke-width: 0.8"/>
      </g>
     </g>
     <g id="text_11">
      <!-- 40 -->
      <g transform="translate(115.275 238.098349) scale(0.1 -0.1)">
       <use xlink:href="#DejaVuSans-34"/>
       <use xlink:href="#DejaVuSans-30" transform="translate(63.623047 0)"/>
      </g>
     </g>
    </g>
    <g id="ytick_6">
     <g id="line2d_16">
      <path d="M 135 180.733913 
L 972 180.733913 
" clip-path="url(#p9eba688315)" style="fill: none; stroke-dasharray: 2.96,1.28; stroke-dashoffset: 0; stroke: #b0b0b0; stroke-opacity: 0.7; stroke-width: 0.8"/>
     </g>
     <g id="line2d_17">
      <g>
       <use xlink:href="#mce985fa3b0" x="135" y="180.733913" style="stroke: #000000; stroke-width: 0.8"/>
      </g>
     </g>
     <g id="text_12">
      <!-- 50 -->
      <g transform="translate(115.275 184.533132) scale(0.1 -0.1)">
       <defs>
        <path id="DejaVuSans-35" d="M 691 4666 
L 3169 4666 
L 3169 4134 
L 1269 4134 
L 1269 2991 
Q 1406 3038 1543 3061 
Q 1681 3084 1819 3084 
Q 2600 3084 3056 2656 
Q 3513 2228 3513 1497 
Q 3513 744 3044 326 
Q 2575 -91 1722 -91 
Q 1428 -91 1123 -41 
Q 819 9 494 109 
L 494 744 
Q 775 591 1075 516 
Q 1375 441 1709 441 
Q 2250 441 2565 725 
Q 2881 1009 2881 1497 
Q 2881 1984 2565 2268 
Q 2250 2553 1709 2553 
Q 1456 2553 1204 2497 
Q 953 2441 691 2322 
L 691 4666 
z
" transform="scale(0.015625)"/>
       </defs>
       <use xlink:href="#DejaVuSans-35"/>
       <use xlink:href="#DejaVuSans-30" transform="translate(63.623047 0)"/>
      </g>
     </g>
    </g>
    <g id="ytick_7">
     <g id="line2d_18">
      <path d="M 135 127.168696 
L 972 127.168696 
" clip-path="url(#p9eba688315)" style="fill: none; stroke-dasharray: 2.96,1.28; stroke-dashoffset: 0; stroke: #b0b0b0; stroke-opacity: 0.7; stroke-width: 0.8"/>
     </g>
     <g id="line2d_19">
      <g>
       <use xlink:href="#mce985fa3b0" x="135" y="127.168696" style="stroke: #000000; stroke-width: 0.8"/>
      </g>
     </g>
     <g id="text_13">
      <!-- 60 -->
      <g transform="translate(115.275 130.967914) scale(0.1 -0.1)">
       <use xlink:href="#DejaVuSans-36"/>
       <use xlink:href="#DejaVuSans-30" transform="translate(63.623047 0)"/>
      </g>
     </g>
    </g>
    <g id="ytick_8">
     <g id="line2d_20">
      <path d="M 135 73.603478 
L 972 73.603478 
" clip-path="url(#p9eba688315)" style="fill: none; stroke-dasharray: 2.96,1.28; stroke-dashoffset: 0; stroke: #b0b0b0; stroke-opacity: 0.7; stroke-width: 0.8"/>
     </g>
     <g id="line2d_21">
      <g>
       <use xlink:href="#mce985fa3b0" x="135" y="73.603478" style="stroke: #000000; stroke-width: 0.8"/>
      </g>
     </g>
     <g id="text_14">
      <!-- 70 -->
      <g transform="translate(115.275 77.402697) scale(0.1 -0.1)">
       <use xlink:href="#DejaVuSans-37"/>
       <use xlink:href="#DejaVuSans-30" transform="translate(63.623047 0)"/>
      </g>
     </g>
    </g>
    <g id="text_15">
     <!-- Number of Attempts -->
     <g transform="translate(109.195312 305.542656) rotate(-90) scale(0.1 -0.1)">
      <defs>
       <path id="DejaVuSans-4e" d="M 628 4666 
L 1478 4666 
L 3547 763 
L 3547 4666 
L 4159 4666 
L 4159 0 
L 3309 0 
L 1241 3903 
L 1241 0 
L 628 0 
L 628 4666 
z
" transform="scale(0.015625)"/>
       <path id="DejaVuSans-62" d="M 3116 1747 
Q 3116 2381 2855 2742 
Q 2594 3103 2138 3103 
Q 1681 3103 1420 2742 
Q 1159 2381 1159 1747 
Q 1159 1113 1420 752 
Q 1681 391 2138 391 
Q 2594 391 2855 752 
Q 3116 1113 3116 1747 
z
M 1159 2969 
Q 1341 3281 1617 3432 
Q 1894 3584 2278 3584 
Q 2916 3584 3314 3078 
Q 3713 2572 3713 1747 
Q 3713 922 3314 415 
Q 2916 -91 2278 -91 
Q 1894 -91 1617 61 
Q 1341 213 1159 525 
L 1159 0 
L 581 0 
L 581 4863 
L 1159 4863 
L 1159 2969 
z
" transform="scale(0.015625)"/>
       <path id="DejaVuSans-72" d="M 2631 2963 
Q 2534 3019 2420 3045 
Q 2306 3072 2169 3072 
Q 1681 3072 1420 2755 
Q 1159 2438 1159 1844 
L 1159 0 
L 581 0 
L 581 3500 
L 1159 3500 
L 1159 2956 
Q 1341 3275 1631 3429 
Q 1922 3584 2338 3584 
Q 2397 3584 2469 3576 
Q 2541 3569 2628 3553 
L 2631 2963 
z
" transform="scale(0.015625)"/>
       <path id="DejaVuSans-6f" d="M 1959 3097 
Q 1497 3097 1228 2736 
Q 959 2375 959 1747 
Q 959 1119 1226 758 
Q 1494 397 1959 397 
Q 2419 397 2687 759 
Q 2956 1122 2956 1747 
Q 2956 2369 2687 2733 
Q 2419 3097 1959 3097 
z
M 1959 3584 
Q 2709 3584 3137 3096 
Q 3566 2609 3566 1747 
Q 3566 888 3137 398 
Q 2709 -91 1959 -91 
Q 1206 -91 779 398 
Q 353 888 353 1747 
Q 353 2609 779 3096 
Q 1206 3584 1959 3584 
z
" transform="scale(0.015625)"/>
       <path id="DejaVuSans-66" d="M 2375 4863 
L 2375 4384 
L 1825 4384 
Q 1516 4384 1395 4259 
Q 1275 4134 1275 3809 
L 1275 3500 
L 2222 3500 
L 2222 3053 
L 1275 3053 
L 1275 0 
L 697 0 
L 697 3053 
L 147 3053 
L 147 3500 
L 697 3500 
L 697 3744 
Q 697 4328 969 4595 
Q 1241 4863 1831 4863 
L 2375 4863 
z
" transform="scale(0.015625)"/>
       <path id="DejaVuSans-41" d="M 2188 4044 
L 1331 1722 
L 3047 1722 
L 2188 4044 
z
M 1831 4666 
L 2547 4666 
L 4325 0 
L 3669 0 
L 3244 1197 
L 1141 1197 
L 716 0 
L 50 0 
L 1831 4666 
z
" transform="scale(0.015625)"/>
       <path id="DejaVuSans-70" d="M 1159 525 
L 1159 -1331 
L 581 -1331 
L 581 3500 
L 1159 3500 
L 1159 2969 
Q 1341 3281 1617 3432 
Q 1894 3584 2278 3584 
Q 2916 3584 3314 3078 
Q 3713 2572 3713 1747 
Q 3713 922 3314 415 
Q 2916 -91 2278 -91 
Q 1894 -91 1617 61 
Q 1341 213 1159 525 
z
M 3116 1747 
Q 3116 2381 2855 2742 
Q 2594 3103 2138 3103 
Q 1681 3103 1420 2742 
Q 1159 2381 1159 1747 
Q 1159 1113 1420 752 
Q 1681 391 2138 391 
Q 2594 391 2855 752 
Q 3116 1113 3116 1747 
z
" transform="scale(0.015625)"/>
       <path id="DejaVuSans-73" d="M 2834 3397 
L 2834 2853 
Q 2591 2978 2328 3040 
Q 2066 3103 1784 3103 
Q 1356 3103 1142 2972 
Q 928 2841 928 2578 
Q 928 2378 1081 2264 
Q 1234 2150 1697 2047 
L 1894 2003 
Q 2506 1872 2764 1633 
Q 3022 1394 3022 966 
Q 3022 478 2636 193 
Q 2250 -91 1575 -91 
Q 1294 -91 989 -36 
Q 684 19 347 128 
L 347 722 
Q 666 556 975 473 
Q 1284 391 1588 391 
Q 1994 391 2212 530 
Q 2431 669 2431 922 
Q 2431 1156 2273 1281 
Q 2116 1406 1581 1522 
L 1381 1569 
Q 847 1681 609 1914 
Q 372 2147 372 2553 
Q 372 3047 722 3315 
Q 1072 3584 1716 3584 
Q 2034 3584 2315 3537 
Q 2597 3491 2834 3397 
z
" transform="scale(0.015625)"/>
      </defs>
      <use xlink:href="#DejaVuSans-4e"/>
      <use xlink:href="#DejaVuSans-75" transform="translate(74.804688 0)"/>
      <use xlink:href="#DejaVuSans-6d" transform="translate(138.183594 0)"/>
      <use xlink:href="#DejaVuSans-62" transform="translate(235.595703 0)"/>
      <use xlink:href="#DejaVuSans-65" transform="translate(299.072266 0)"/>
      <use xlink:href="#DejaVuSans-72" transform="translate(360.595703 0)"/>
      <use xlink:href="#DejaVuSans-20" transform="translate(401.708984 0)"/>
      <use xlink:href="#DejaVuSans-6f" transform="translate(433.496094 0)"/>
      <use xlink:href="#DejaVuSans-66" transform="translate(494.677734 0)"/>
      <use xlink:href="#DejaVuSans-20" transform="translate(529.882812 0)"/>
      <use xlink:href="#DejaVuSans-41" transform="translate(561.669922 0)"/>
      <use xlink:href="#DejaVuSans-74" transform="translate(628.328125 0)"/>
      <use xlink:href="#DejaVuSans-74" transform="translate(667.537109 0)"/>
      <use xlink:href="#DejaVuSans-65" transform="translate(706.746094 0)"/>
      <use xlink:href="#DejaVuSans-6d" transform="translate(768.269531 0)"/>
      <use xlink:href="#DejaVuSans-70" transform="translate(865.681641 0)"/>
      <use xlink:href="#DejaVuSans-74" transform="translate(929.158203 0)"/>
      <use xlink:href="#DejaVuSans-73" transform="translate(968.367188 0)"/>
     </g>
    </g>
   </g>
   <g id="patch_291">
    <path d="M 135 448.56 
L 135 60.48 
" style="fill: none; stroke: #000000; stroke-width: 0.8; stroke-linejoin: miter; stroke-linecap: square"/>
   </g>
   <g id="patch_292">
    <path d="M 972 448.56 
L 972 60.48 
" style="fill: none; stroke: #000000; stroke-width: 0.8; stroke-linejoin: miter; stroke-linecap: square"/>
   </g>
   <g id="patch_293">
    <path d="M 135 448.56 
L 972 448.56 
" style="fill: none; stroke: #000000; stroke-width: 0.8; stroke-linejoin: miter; stroke-linecap: square"/>
   </g>
   <g id="patch_294">
    <path d="M 135 60.48 
L 972 60.48 
" style="fill: none; stroke: #000000; stroke-width: 0.8; stroke-linejoin: miter; stroke-linecap: square"/>
   </g>
   <g id="text_16">
    <!-- Darius Garland - Shot Attempts (Made/Miss) Timeline (2024-25) -->
    <g transform="translate(362.30625 54.48) scale(0.12 -0.12)">
     <defs>
      <path id="DejaVuSans-44" d="M 1259 4147 
L 1259 519 
L 2022 519 
Q 2988 519 3436 956 
Q 3884 1394 3884 2338 
Q 3884 3275 3436 3711 
Q 2988 4147 2022 4147 
L 1259 4147 
z
M 628 4666 
L 1925 4666 
Q 3281 4666 3915 4102 
Q 4550 3538 4550 2338 
Q 4550 1131 3912 565 
Q 3275 0 1925 0 
L 628 0 
L 628 4666 
z
" transform="scale(0.015625)"/>
      <path id="DejaVuSans-6c" d="M 603 4863 
L 1178 4863 
L 1178 0 
L 603 0 
L 603 4863 
z
" transform="scale(0.015625)"/>
      <path id="DejaVuSans-64" d="M 2906 2969 
L 2906 4863 
L 3481 4863 
L 3481 0 
L 2906 0 
L 2906 525 
Q 2725 213 2448 61 
Q 2172 -91 1784 -91 
Q 1150 -91 751 415 
Q 353 922 353 1747 
Q 353 2572 751 3078 
Q 1150 3584 1784 3584 
Q 2172 3584 2448 3432 
Q 2725 3281 2906 2969 
z
M 947 1747 
Q 947 1113 1208 752 
Q 1469 391 1925 391 
Q 2381 391 2643 752 
Q 2906 1113 2906 1747 
Q 2906 2381 2643 2742 
Q 2381 3103 1925 3103 
Q 1469 3103 1208 2742 
Q 947 2381 947 1747 
z
" transform="scale(0.015625)"/>
      <path id="DejaVuSans-2d" d="M 313 2009 
L 1997 2009 
L 1997 1497 
L 313 1497 
L 313 2009 
z
" transform="scale(0.015625)"/>
      <path id="DejaVuSans-53" d="M 3425 4513 
L 3425 3897 
Q 3066 4069 2747 4153 
Q 2428 4238 2131 4238 
Q 1616 4238 1336 4038 
Q 1056 3838 1056 3469 
Q 1056 3159 1242 3001 
Q 1428 2844 1947 2747 
L 2328 2669 
Q 3034 2534 3370 2195 
Q 3706 1856 3706 1288 
Q 3706 609 3251 259 
Q 2797 -91 1919 -91 
Q 1588 -91 1214 -16 
Q 841 59 441 206 
L 441 856 
Q 825 641 1194 531 
Q 1563 422 1919 422 
Q 2459 422 2753 634 
Q 3047 847 3047 1241 
Q 3047 1584 2836 1778 
Q 2625 1972 2144 2069 
L 1759 2144 
Q 1053 2284 737 2584 
Q 422 2884 422 3419 
Q 422 4038 858 4394 
Q 1294 4750 2059 4750 
Q 2388 4750 2728 4690 
Q 3069 4631 3425 4513 
z
" transform="scale(0.015625)"/>
      <path id="DejaVuSans-68" d="M 3513 2113 
L 3513 0 
L 2938 0 
L 2938 2094 
Q 2938 2591 2744 2837 
Q 2550 3084 2163 3084 
Q 1697 3084 1428 2787 
Q 1159 2491 1159 1978 
L 1159 0 
L 581 0 
L 581 4863 
L 1159 4863 
L 1159 2956 
Q 1366 3272 1645 3428 
Q 1925 3584 2291 3584 
Q 2894 3584 3203 3211 
Q 3513 2838 3513 2113 
z
" transform="scale(0.015625)"/>
      <path id="DejaVuSans-28" d="M 1984 4856 
Q 1566 4138 1362 3434 
Q 1159 2731 1159 2009 
Q 1159 1288 1364 580 
Q 1569 -128 1984 -844 
L 1484 -844 
Q 1016 -109 783 600 
Q 550 1309 550 2009 
Q 550 2706 781 3412 
Q 1013 4119 1484 4856 
L 1984 4856 
z
" transform="scale(0.015625)"/>
      <path id="DejaVuSans-2f" d="M 1625 4666 
L 2156 4666 
L 531 -594 
L 0 -594 
L 1625 4666 
z
" transform="scale(0.015625)"/>
      <path id="DejaVuSans-29" d="M 513 4856 
L 1013 4856 
Q 1481 4119 1714 3412 
Q 1947 2706 1947 2009 
Q 1947 1309 1714 600 
Q 1481 -109 1013 -844 
L 513 -844 
Q 928 -128 1133 580 
Q 1338 1288 1338 2009 
Q 1338 2731 1133 3434 
Q 928 4138 513 4856 
z
" transform="scale(0.015625)"/>
      <path id="DejaVuSans-54" d="M -19 4666 
L 3928 4666 
L 3928 4134 
L 2272 4134 
L 2272 0 
L 1638 0 
L 1638 4134 
L -19 4134 
L -19 4666 
z
" transform="scale(0.015625)"/>
     </defs>
     <use xlink:href="#DejaVuSans-44"/>
     <use xlink:href="#DejaVuSans-61" transform="translate(77.001953 0)"/>
     <use xlink:href="#DejaVuSans-72" transform="translate(138.28125 0)"/>
     <use xlink:href="#DejaVuSans-69" transform="translate(179.394531 0)"/>
     <use xlink:href="#DejaVuSans-75" transform="translate(207.177734 0)"/>
     <use xlink:href="#DejaVuSans-73" transform="translate(270.556641 0)"/>
     <use xlink:href="#DejaVuSans-20" transform="translate(322.65625 0)"/>
     <use xlink:href="#DejaVuSans-47" transform="translate(354.443359 0)"/>
     <use xlink:href="#DejaVuSans-61" transform="translate(431.933594 0)"/>
     <use xlink:href="#DejaVuSans-72" transform="translate(493.212891 0)"/>
     <use xlink:href="#DejaVuSans-6c" transform="translate(534.326172 0)"/>
     <use xlink:href="#DejaVuSans-61" transform="translate(562.109375 0)"/>
     <use xlink:href="#DejaVuSans-6e" transform="translate(623.388672 0)"/>
     <use xlink:href="#DejaVuSans-64" transform="translate(686.767578 0)"/>
     <use xlink:href="#DejaVuSans-20" transform="translate(750.244141 0)"/>
     <use xlink:href="#DejaVuSans-2d" transform="translate(782.03125 0)"/>
     <use xlink:href="#DejaVuSans-20" transform="translate(818.115234 0)"/>
     <use xlink:href="#DejaVuSans-53" transform="translate(849.902344 0)"/>
     <use xlink:href="#DejaVuSans-68" transform="translate(913.378906 0)"/>
     <use xlink:href="#DejaVuSans-6f" transform="translate(976.757812 0)"/>
     <use xlink:href="#DejaVuSans-74" transform="translate(1037.939453 0)"/>
     <use xlink:href="#DejaVuSans-20" transform="translate(1077.148438 0)"/>
     <use xlink:href="#DejaVuSans-41" transform="translate(1108.935547 0)"/>
     <use xlink:href="#DejaVuSans-74" transform="translate(1175.59375 0)"/>
     <use xlink:href="#DejaVuSans-74" transform="translate(1214.802734 0)"/>
     <use xlink:href="#DejaVuSans-65" transform="translate(1254.011719 0)"/>
     <use xlink:href="#DejaVuSans-6d" transform="translate(1315.535156 0)"/>
     <use xlink:href="#DejaVuSans-70" transform="translate(1412.947266 0)"/>
     <use xlink:href="#DejaVuSans-74" transform="translate(1476.423828 0)"/>
     <use xlink:href="#DejaVuSans-73" transform="translate(1515.632812 0)"/>
     <use xlink:href="#DejaVuSans-20" transform="translate(1567.732422 0)"/>
     <use xlink:href="#DejaVuSans-28" transform="translate(1599.519531 0)"/>
     <use xlink:href="#DejaVuSans-4d" transform="translate(1638.533203 0)"/>
     <use xlink:href="#DejaVuSans-61" transform="translate(1724.8125 0)"/>
     <use xlink:href="#DejaVuSans-64" transform="translate(1786.091797 0)"/>
     <use xlink:href="#DejaVuSans-65" transform="translate(1849.568359 0)"/>
     <use xlink:href="#DejaVuSans-2f" transform="translate(1911.091797 0)"/>
     <use xlink:href="#DejaVuSans-4d" transform="translate(1944.783203 0)"/>
     <use xlink:href="#DejaVuSans-69" transform="translate(2031.0625 0)"/>
     <use xlink:href="#DejaVuSans-73" transform="translate(2058.845703 0)"/>
     <use xlink:href="#DejaVuSans-73" transform="translate(2110.945312 0)"/>
     <use xlink:href="#DejaVuSans-29" transform="translate(2163.044922 0)"/>
     <use xlink:href="#DejaVuSans-20" transform="translate(2202.058594 0)"/>
     <use xlink:href="#DejaVuSans-54" transform="translate(2233.845703 0)"/>
     <use xlink:href="#DejaVuSans-69" transform="translate(2291.804688 0)"/>
     <use xlink:href="#DejaVuSans-6d" transform="translate(2319.587891 0)"/>
     <use xlink:href="#DejaVuSans-65" transform="translate(2417 0)"/>
     <use xlink:href="#DejaVuSans-6c" transform="translate(2478.523438 0)"/>
     <use xlink:href="#DejaVuSans-69" transform="translate(2506.306641 0)"/>
     <use xlink:href="#DejaVuSans-6e" transform="translate(2534.089844 0)"/>
     <use xlink:href="#DejaVuSans-65" transform="translate(2597.46875 0)"/>
     <use xlink:href="#DejaVuSans-20" transform="translate(2658.992188 0)"/>
     <use xlink:href="#DejaVuSans-28" transform="translate(2690.779297 0)"/>
     <use xlink:href="#DejaVuSans-32" transform="translate(2729.792969 0)"/>
     <use xlink:href="#DejaVuSans-30" transform="translate(2793.416016 0)"/>
     <use xlink:href="#DejaVuSans-32" transform="translate(2857.039062 0)"/>
     <use xlink:href="#DejaVuSans-34" transform="translate(2920.662109 0)"/>
     <use xlink:href="#DejaVuSans-2d" transform="translate(2984.285156 0)"/>
     <use xlink:href="#DejaVuSans-32" transform="translate(3020.369141 0)"/>
     <use xlink:href="#DejaVuSans-35" transform="translate(3083.992188 0)"/>
     <use xlink:href="#DejaVuSans-29" transform="translate(3147.615234 0)"/>
    </g>
   </g>
   <g id="legend_1">
    <g id="patch_295">
     <path d="M 884.064062 156.54875 
L 965 156.54875 
Q 967 156.54875 967 154.54875 
L 967 67.48 
Q 967 65.48 965 65.48 
L 884.064062 65.48 
Q 882.064062 65.48 882.064062 67.48 
L 882.064062 154.54875 
Q 882.064062 156.54875 884.064062 156.54875 
z
" style="fill: #ffffff; opacity: 0.8; stroke: #cccccc; stroke-linejoin: miter"/>
    </g>
    <g id="patch_296">
     <path d="M 886.064062 77.078438 
L 906.064062 77.078438 
L 906.064062 70.078438 
L 886.064062 70.078438 
z
" style="fill: #aec7e8"/>
    </g>
    <g id="text_17">
     <!-- 3PT Miss -->
     <g transform="translate(914.064062 77.078438) scale(0.1 -0.1)">
      <defs>
       <path id="DejaVuSans-50" d="M 1259 4147 
L 1259 2394 
L 2053 2394 
Q 2494 2394 2734 2622 
Q 2975 2850 2975 3272 
Q 2975 3691 2734 3919 
Q 2494 4147 2053 4147 
L 1259 4147 
z
M 628 4666 
L 2053 4666 
Q 2838 4666 3239 4311 
Q 3641 3956 3641 3272 
Q 3641 2581 3239 2228 
Q 2838 1875 2053 1875 
L 1259 1875 
L 1259 0 
L 628 0 
L 628 4666 
z
" transform="scale(0.015625)"/>
      </defs>
      <use xlink:href="#DejaVuSans-33"/>
      <use xlink:href="#DejaVuSans-50" transform="translate(63.623047 0)"/>
      <use xlink:href="#DejaVuSans-54" transform="translate(123.925781 0)"/>
      <use xlink:href="#DejaVuSans-20" transform="translate(185.009766 0)"/>
      <use xlink:href="#DejaVuSans-4d" transform="translate(216.796875 0)"/>
      <use xlink:href="#DejaVuSans-69" transform="translate(303.076172 0)"/>
      <use xlink:href="#DejaVuSans-73" transform="translate(330.859375 0)"/>
      <use xlink:href="#DejaVuSans-73" transform="translate(382.958984 0)"/>
     </g>
    </g>
    <g id="patch_297">
     <path d="M 886.064062 91.756563 
L 906.064062 91.756563 
L 906.064062 84.756563 
L 886.064062 84.756563 
z
" style="fill: #ffbb78"/>
    </g>
    <g id="text_18">
     <!-- 2PT Miss -->
     <g transform="translate(914.064062 91.756563) scale(0.1 -0.1)">
      <use xlink:href="#DejaVuSans-32"/>
      <use xlink:href="#DejaVuSans-50" transform="translate(63.623047 0)"/>
      <use xlink:href="#DejaVuSans-54" transform="translate(123.925781 0)"/>
      <use xlink:href="#DejaVuSans-20" transform="translate(185.009766 0)"/>
      <use xlink:href="#DejaVuSans-4d" transform="translate(216.796875 0)"/>
      <use xlink:href="#DejaVuSans-69" transform="translate(303.076172 0)"/>
      <use xlink:href="#DejaVuSans-73" transform="translate(330.859375 0)"/>
      <use xlink:href="#DejaVuSans-73" transform="translate(382.958984 0)"/>
     </g>
    </g>
    <g id="patch_298">
     <path d="M 886.064062 106.434687 
L 906.064062 106.434687 
L 906.064062 99.434687 
L 886.064062 99.434687 
z
" style="fill: #ff9896"/>
    </g>
    <g id="text_19">
     <!-- FT Miss -->
     <g transform="translate(914.064062 106.434687) scale(0.1 -0.1)">
      <defs>
       <path id="DejaVuSans-46" d="M 628 4666 
L 3309 4666 
L 3309 4134 
L 1259 4134 
L 1259 2759 
L 3109 2759 
L 3109 2228 
L 1259 2228 
L 1259 0 
L 628 0 
L 628 4666 
z
" transform="scale(0.015625)"/>
      </defs>
      <use xlink:href="#DejaVuSans-46"/>
      <use xlink:href="#DejaVuSans-54" transform="translate(55.769531 0)"/>
      <use xlink:href="#DejaVuSans-20" transform="translate(116.853516 0)"/>
      <use xlink:href="#DejaVuSans-4d" transform="translate(148.640625 0)"/>
      <use xlink:href="#DejaVuSans-69" transform="translate(234.919922 0)"/>
      <use xlink:href="#DejaVuSans-73" transform="translate(262.703125 0)"/>
      <use xlink:href="#DejaVuSans-73" transform="translate(314.802734 0)"/>
     </g>
    </g>
    <g id="patch_299">
     <path d="M 886.064062 121.112813 
L 906.064062 121.112813 
L 906.064062 114.112813 
L 886.064062 114.112813 
z
" style="fill: #1f77b4"/>
    </g>
    <g id="text_20">
     <!-- 3PT Made -->
     <g transform="translate(914.064062 121.112813) scale(0.1 -0.1)">
      <use xlink:href="#DejaVuSans-33"/>
      <use xlink:href="#DejaVuSans-50" transform="translate(63.623047 0)"/>
      <use xlink:href="#DejaVuSans-54" transform="translate(123.925781 0)"/>
      <use xlink:href="#DejaVuSans-20" transform="translate(185.009766 0)"/>
      <use xlink:href="#DejaVuSans-4d" transform="translate(216.796875 0)"/>
      <use xlink:href="#DejaVuSans-61" transform="translate(303.076172 0)"/>
      <use xlink:href="#DejaVuSans-64" transform="translate(364.355469 0)"/>
      <use xlink:href="#DejaVuSans-65" transform="translate(427.832031 0)"/>
     </g>
    </g>
    <g id="patch_300">
     <path d="M 886.064062 135.790938 
L 906.064062 135.790938 
L 906.064062 128.790938 
L 886.064062 128.790938 
z
" style="fill: #ff7f0e"/>
    </g>
    <g id="text_21">
     <!-- 2PT Made -->
     <g transform="translate(914.064062 135.790938) scale(0.1 -0.1)">
      <use xlink:href="#DejaVuSans-32"/>
      <use xlink:href="#DejaVuSans-50" transform="translate(63.623047 0)"/>
      <use xlink:href="#DejaVuSans-54" transform="translate(123.925781 0)"/>
      <use xlink:href="#DejaVuSans-20" transform="translate(185.009766 0)"/>
      <use xlink:href="#DejaVuSans-4d" transform="translate(216.796875 0)"/>
      <use xlink:href="#DejaVuSans-61" transform="translate(303.076172 0)"/>
      <use xlink:href="#DejaVuSans-64" transform="translate(364.355469 0)"/>
      <use xlink:href="#DejaVuSans-65" transform="translate(427.832031 0)"/>
     </g>
    </g>
    <g id="patch_301">
     <path d="M 886.064062 150.469063 
L 906.064062 150.469063 
L 906.064062 143.469063 
L 886.064062 143.469063 
z
" style="fill: #d62728"/>
    </g>
    <g id="text_22">
     <!-- FT Made -->
     <g transform="translate(914.064062 150.469063) scale(0.1 -0.1)">
      <use xlink:href="#DejaVuSans-46"/>
      <use xlink:href="#DejaVuSans-54" transform="translate(55.769531 0)"/>
      <use xlink:href="#DejaVuSans-20" transform="translate(116.853516 0)"/>
      <use xlink:href="#DejaVuSans-4d" transform="translate(148.640625 0)"/>
      <use xlink:href="#DejaVuSans-61" transform="translate(234.919922 0)"/>
      <use xlink:href="#DejaVuSans-64" transform="translate(296.199219 0)"/>
      <use xlink:href="#DejaVuSans-65" transform="translate(359.675781 0)"/>
     </g>
    </g>
   </g>
  </g>
 </g>
 <defs>
  <clipPath id="p9eba688315">
   <rect x="135" y="60.48" width="837" height="388.08"/>
  </clipPath>
 </defs>
</svg>
