<?xml version="1.0" encoding="utf-8" standalone="no"?>
<!DOCTYPE svg PUBLIC "-//W3C//DTD SVG 1.1//EN"
  "http://www.w3.org/Graphics/SVG/1.1/DTD/svg11.dtd">
<svg xmlns:xlink="http://www.w3.org/1999/xlink" width="864pt" height="504pt" viewBox="0 0 864 504" xmlns="http://www.w3.org/2000/svg" version="1.1">
 <metadata>
  <rdf:RDF xmlns:dc="http://purl.org/dc/elements/1.1/" xmlns:cc="http://creativecommons.org/ns#" xmlns:rdf="http://www.w3.org/1999/02/22-rdf-syntax-ns#">
   <cc:Work>
    <dc:type rdf:resource="http://purl.org/dc/dcmitype/StillImage"/>
    <dc:date>2025-08-24T03:40:16.826523</dc:date>
    <dc:format>image/svg+xml</dc:format>
    <dc:creator>
     <cc:Agent>
      <dc:title>Matplotlib v3.10.5, https://matplotlib.org/</dc:title>
     </cc:Agent>
    </dc:creator>
   </cc:Work>
  </rdf:RDF>
 </metadata>
 <defs>
  <style type="text/css">*{stroke-linejoin: round; stroke-linecap: butt}</style>
 </defs>
 <g id="figure_1">
  <g id="patch_1">
   <path d="M 0 504 
L 864 504 
L 864 0 
L 0 0 
z
" style="fill: #ffffff"/>
  </g>
  <g id="axes_1">
   <g id="patch_2">
    <path d="M 57.17 455.955539 
L 853.2 455.955539 
L 853.2 26.88 
L 57.17 26.88 
z
" style="fill: #ffffff"/>
   </g>
   <g id="patch_3">
    <path d="M 61.290238 403.946383 
L 65.685159 403.946383 
L 65.685159 387.693521 
L 61.290238 387.693521 
z
" clip-path="url(#p5416a13ed8)" style="fill: #ffc107"/>
   </g>
   <g id="patch_4">
    <path d="M 77.77119 403.946383 
L 82.166111 403.946383 
L 82.166111 349.770178 
L 77.77119 349.770178 
z
" clip-path="url(#p5416a13ed8)" style="fill: #ffc107"/>
   </g>
   <g id="patch_5">
    <path d="M 94.252143 403.946383 
L 98.647063 403.946383 
L 98.647063 425.616865 
L 94.252143 425.616865 
z
" clip-path="url(#p5416a13ed8)" style="fill: #ffc107"/>
   </g>
   <g id="patch_6">
    <path d="M 110.733095 403.946383 
L 115.128016 403.946383 
L 115.128016 421.676777 
L 110.733095 421.676777 
z
" clip-path="url(#p5416a13ed8)" style="fill: #ffc107"/>
   </g>
   <g id="patch_7">
    <path d="M 127.214048 403.946383 
L 131.608968 403.946383 
L 131.608968 338.934937 
L 127.214048 338.934937 
z
" clip-path="url(#p5416a13ed8)" style="fill: #ffc107"/>
   </g>
   <g id="patch_8">
    <path d="M 143.695 403.946383 
L 148.089921 403.946383 
L 148.089921 382.275901 
L 143.695 382.275901 
z
" clip-path="url(#p5416a13ed8)" style="fill: #ffc107"/>
   </g>
   <g id="patch_9">
    <path d="M 160.175952 403.946383 
L 164.570873 403.946383 
L 164.570873 385.371684 
L 160.175952 385.371684 
z
" clip-path="url(#p5416a13ed8)" style="fill: #ffc107"/>
   </g>
   <g id="patch_10">
    <path d="M 176.656905 403.946383 
L 181.051825 403.946383 
L 181.051825 423.449816 
L 176.656905 423.449816 
z
" clip-path="url(#p5416a13ed8)" style="fill: #ffc107"/>
   </g>
   <g id="patch_11">
    <path d="M 193.137857 403.946383 
L 197.532778 403.946383 
L 197.532778 389.499395 
L 193.137857 389.499395 
z
" clip-path="url(#p5416a13ed8)" style="fill: #ffc107"/>
   </g>
   <g id="patch_12">
    <path d="M 209.61881 403.946383 
L 214.01373 403.946383 
L 214.01373 432.118009 
L 209.61881 432.118009 
z
" clip-path="url(#p5416a13ed8)" style="fill: #ffc107"/>
   </g>
   <g id="patch_13">
    <path d="M 226.099762 403.946383 
L 230.494683 403.946383 
L 230.494683 422.230852 
L 226.099762 422.230852 
z
" clip-path="url(#p5416a13ed8)" style="fill: #ffc107"/>
   </g>
   <g id="patch_14">
    <path d="M 242.580714 403.946383 
L 246.975635 403.946383 
L 246.975635 403.946383 
L 242.580714 403.946383 
z
" clip-path="url(#p5416a13ed8)" style="fill: #ffc107"/>
   </g>
   <g id="patch_15">
    <path d="M 259.061667 403.946383 
L 263.456587 403.946383 
L 263.456587 403.946383 
L 259.061667 403.946383 
z
" clip-path="url(#p5416a13ed8)" style="fill: #ffc107"/>
   </g>
   <g id="patch_16">
    <path d="M 275.542619 403.946383 
L 279.93754 403.946383 
L 279.93754 403.946383 
L 275.542619 403.946383 
z
" clip-path="url(#p5416a13ed8)" style="fill: #ffc107"/>
   </g>
   <g id="patch_17">
    <path d="M 292.023571 403.946383 
L 296.418492 403.946383 
L 296.418492 403.946383 
L 292.023571 403.946383 
z
" clip-path="url(#p5416a13ed8)" style="fill: #ffc107"/>
   </g>
   <g id="patch_18">
    <path d="M 308.504524 403.946383 
L 312.899444 403.946383 
L 312.899444 403.946383 
L 308.504524 403.946383 
z
" clip-path="url(#p5416a13ed8)" style="fill: #ffc107"/>
   </g>
   <g id="patch_19">
    <path d="M 324.985476 403.946383 
L 329.380397 403.946383 
L 329.380397 411.169877 
L 324.985476 411.169877 
z
" clip-path="url(#p5416a13ed8)" style="fill: #ffc107"/>
   </g>
   <g id="patch_20">
    <path d="M 341.466429 403.946383 
L 345.861349 403.946383 
L 345.861349 382.275901 
L 341.466429 382.275901 
z
" clip-path="url(#p5416a13ed8)" style="fill: #ffc107"/>
   </g>
   <g id="patch_21">
    <path d="M 357.947381 403.946383 
L 362.342302 403.946383 
L 362.342302 417.490434 
L 357.947381 417.490434 
z
" clip-path="url(#p5416a13ed8)" style="fill: #ffc107"/>
   </g>
   <g id="patch_22">
    <path d="M 374.428333 403.946383 
L 378.823254 403.946383 
L 378.823254 412.072813 
L 374.428333 412.072813 
z
" clip-path="url(#p5416a13ed8)" style="fill: #ffc107"/>
   </g>
   <g id="patch_23">
    <path d="M 390.909286 403.946383 
L 395.304206 403.946383 
L 395.304206 414.781624 
L 390.909286 414.781624 
z
" clip-path="url(#p5416a13ed8)" style="fill: #ffc107"/>
   </g>
   <g id="patch_24">
    <path d="M 407.390238 403.946383 
L 411.785159 403.946383 
L 411.785159 429.950961 
L 407.390238 429.950961 
z
" clip-path="url(#p5416a13ed8)" style="fill: #ffc107"/>
   </g>
   <g id="patch_25">
    <path d="M 423.87119 403.946383 
L 428.266111 403.946383 
L 428.266111 395.819952 
L 423.87119 395.819952 
z
" clip-path="url(#p5416a13ed8)" style="fill: #ffc107"/>
   </g>
   <g id="patch_26">
    <path d="M 440.352143 403.946383 
L 444.747063 403.946383 
L 444.747063 409.550818 
L 440.352143 409.550818 
z
" clip-path="url(#p5416a13ed8)" style="fill: #ffc107"/>
   </g>
   <g id="patch_27">
    <path d="M 456.833095 403.946383 
L 461.228016 403.946383 
L 461.228016 338.934937 
L 456.833095 338.934937 
z
" clip-path="url(#p5416a13ed8)" style="fill: #ffc107"/>
   </g>
   <g id="patch_28">
    <path d="M 473.314048 403.946383 
L 477.708968 403.946383 
L 477.708968 413.233732 
L 473.314048 413.233732 
z
" clip-path="url(#p5416a13ed8)" style="fill: #ffc107"/>
   </g>
   <g id="patch_29">
    <path d="M 489.795 403.946383 
L 494.189921 403.946383 
L 494.189921 415.766646 
L 489.795 415.766646 
z
" clip-path="url(#p5416a13ed8)" style="fill: #ffc107"/>
   </g>
   <g id="patch_30">
    <path d="M 506.275952 403.946383 
L 510.670873 403.946383 
L 510.670873 431.808431 
L 506.275952 431.808431 
z
" clip-path="url(#p5416a13ed8)" style="fill: #ffc107"/>
   </g>
   <g id="patch_31">
    <path d="M 522.756905 403.946383 
L 527.151825 403.946383 
L 527.151825 371.44066 
L 522.756905 371.44066 
z
" clip-path="url(#p5416a13ed8)" style="fill: #ffc107"/>
   </g>
   <g id="patch_32">
    <path d="M 539.237857 403.946383 
L 543.632778 403.946383 
L 543.632778 416.948672 
L 539.237857 416.948672 
z
" clip-path="url(#p5416a13ed8)" style="fill: #ffc107"/>
   </g>
   <g id="patch_33">
    <path d="M 555.71881 403.946383 
L 560.11373 403.946383 
L 560.11373 422.230852 
L 555.71881 422.230852 
z
" clip-path="url(#p5416a13ed8)" style="fill: #ffc107"/>
   </g>
   <g id="patch_34">
    <path d="M 572.199762 403.946383 
L 576.594683 403.946383 
L 576.594683 420.199244 
L 572.199762 420.199244 
z
" clip-path="url(#p5416a13ed8)" style="fill: #ffc107"/>
   </g>
   <g id="patch_35">
    <path d="M 588.680714 403.946383 
L 593.075635 403.946383 
L 593.075635 418.721711 
L 588.680714 418.721711 
z
" clip-path="url(#p5416a13ed8)" style="fill: #ffc107"/>
   </g>
   <g id="patch_36">
    <path d="M 605.161667 403.946383 
L 609.556587 403.946383 
L 609.556587 428.950785 
L 605.161667 428.950785 
z
" clip-path="url(#p5416a13ed8)" style="fill: #ffc107"/>
   </g>
   <g id="patch_37">
    <path d="M 621.642619 403.946383 
L 626.03754 403.946383 
L 626.03754 414.781624 
L 621.642619 414.781624 
z
" clip-path="url(#p5416a13ed8)" style="fill: #ffc107"/>
   </g>
   <g id="patch_38">
    <path d="M 638.123571 403.946383 
L 642.518492 403.946383 
L 642.518492 429.112104 
L 638.123571 429.112104 
z
" clip-path="url(#p5416a13ed8)" style="fill: #ffc107"/>
   </g>
   <g id="patch_39">
    <path d="M 654.604524 403.946383 
L 658.999444 403.946383 
L 658.999444 371.44066 
L 654.604524 371.44066 
z
" clip-path="url(#p5416a13ed8)" style="fill: #ffc107"/>
   </g>
   <g id="patch_40">
    <path d="M 671.085476 403.946383 
L 675.480397 403.946383 
L 675.480397 306.429215 
L 671.085476 306.429215 
z
" clip-path="url(#p5416a13ed8)" style="fill: #ffc107"/>
   </g>
   <g id="patch_41">
    <path d="M 687.566429 403.946383 
L 691.961349 403.946383 
L 691.961349 290.176353 
L 687.566429 290.176353 
z
" clip-path="url(#p5416a13ed8)" style="fill: #ffc107"/>
   </g>
   <g id="patch_42">
    <path d="M 704.047381 403.946383 
L 708.442302 403.946383 
L 708.442302 46.383434 
L 704.047381 46.383434 
z
" clip-path="url(#p5416a13ed8)" style="fill: #ffc107"/>
   </g>
   <g id="patch_43">
    <path d="M 720.528333 403.946383 
L 724.923254 403.946383 
L 724.923254 349.770178 
L 720.528333 349.770178 
z
" clip-path="url(#p5416a13ed8)" style="fill: #ffc107"/>
   </g>
   <g id="patch_44">
    <path d="M 737.009286 403.946383 
L 741.404206 403.946383 
L 741.404206 414.104421 
L 737.009286 414.104421 
z
" clip-path="url(#p5416a13ed8)" style="fill: #ffc107"/>
   </g>
   <g id="patch_45">
    <path d="M 753.490238 403.946383 
L 757.885159 403.946383 
L 757.885159 403.946383 
L 753.490238 403.946383 
z
" clip-path="url(#p5416a13ed8)" style="fill: #ffc107"/>
   </g>
   <g id="patch_46">
    <path d="M 769.97119 403.946383 
L 774.366111 403.946383 
L 774.366111 422.765485 
L 769.97119 422.765485 
z
" clip-path="url(#p5416a13ed8)" style="fill: #ffc107"/>
   </g>
   <g id="patch_47">
    <path d="M 786.452143 403.946383 
L 790.847063 403.946383 
L 790.847063 414.781624 
L 786.452143 414.781624 
z
" clip-path="url(#p5416a13ed8)" style="fill: #ffc107"/>
   </g>
   <g id="patch_48">
    <path d="M 802.933095 403.946383 
L 807.328016 403.946383 
L 807.328016 420.199244 
L 802.933095 420.199244 
z
" clip-path="url(#p5416a13ed8)" style="fill: #ffc107"/>
   </g>
   <g id="patch_49">
    <path d="M 819.414048 403.946383 
L 823.808968 403.946383 
L 823.808968 429.950961 
L 819.414048 429.950961 
z
" clip-path="url(#p5416a13ed8)" style="fill: #ffc107"/>
   </g>
   <g id="patch_50">
    <path d="M 835.895 403.946383 
L 840.289921 403.946383 
L 840.289921 410.447527 
L 835.895 410.447527 
z
" clip-path="url(#p5416a13ed8)" style="fill: #ffc107"/>
   </g>
   <g id="patch_51">
    <path d="M 65.685159 403.946383 
L 70.080079 403.946383 
L 70.080079 420.199244 
L 65.685159 420.199244 
z
" clip-path="url(#p5416a13ed8)" style="fill: #2196f3"/>
   </g>
   <g id="patch_52">
    <path d="M 82.166111 403.946383 
L 86.561032 403.946383 
L 86.561032 398.528762 
L 82.166111 398.528762 
z
" clip-path="url(#p5416a13ed8)" style="fill: #2196f3"/>
   </g>
   <g id="patch_53">
    <path d="M 98.647063 403.946383 
L 103.041984 403.946383 
L 103.041984 387.693521 
L 98.647063 387.693521 
z
" clip-path="url(#p5416a13ed8)" style="fill: #2196f3"/>
   </g>
   <g id="patch_54">
    <path d="M 115.128016 403.946383 
L 119.522937 403.946383 
L 119.522937 412.072813 
L 115.128016 412.072813 
z
" clip-path="url(#p5416a13ed8)" style="fill: #2196f3"/>
   </g>
   <g id="patch_55">
    <path d="M 131.608968 403.946383 
L 136.003889 403.946383 
L 136.003889 420.199244 
L 131.608968 420.199244 
z
" clip-path="url(#p5416a13ed8)" style="fill: #2196f3"/>
   </g>
   <g id="patch_56">
    <path d="M 148.089921 403.946383 
L 152.484841 403.946383 
L 152.484841 403.946383 
L 148.089921 403.946383 
z
" clip-path="url(#p5416a13ed8)" style="fill: #2196f3"/>
   </g>
   <g id="patch_57">
    <path d="M 164.570873 403.946383 
L 168.965794 403.946383 
L 168.965794 399.302708 
L 164.570873 399.302708 
z
" clip-path="url(#p5416a13ed8)" style="fill: #2196f3"/>
   </g>
   <g id="patch_58">
    <path d="M 181.051825 403.946383 
L 185.446746 403.946383 
L 185.446746 418.721711 
L 181.051825 418.721711 
z
" clip-path="url(#p5416a13ed8)" style="fill: #2196f3"/>
   </g>
   <g id="patch_59">
    <path d="M 197.532778 403.946383 
L 201.927698 403.946383 
L 201.927698 426.450345 
L 197.532778 426.450345 
z
" clip-path="url(#p5416a13ed8)" style="fill: #2196f3"/>
   </g>
   <g id="patch_60">
    <path d="M 214.01373 403.946383 
L 218.408651 403.946383 
L 218.408651 427.164756 
L 214.01373 427.164756 
z
" clip-path="url(#p5416a13ed8)" style="fill: #2196f3"/>
   </g>
   <g id="patch_61">
    <path d="M 230.494683 403.946383 
L 234.889603 403.946383 
L 234.889603 403.946383 
L 230.494683 403.946383 
z
" clip-path="url(#p5416a13ed8)" style="fill: #2196f3"/>
   </g>
   <g id="patch_62">
    <path d="M 246.975635 403.946383 
L 251.370556 403.946383 
L 251.370556 431.808431 
L 246.975635 431.808431 
z
" clip-path="url(#p5416a13ed8)" style="fill: #2196f3"/>
   </g>
   <g id="patch_63">
    <path d="M 263.456587 403.946383 
L 267.851508 403.946383 
L 267.851508 403.946383 
L 263.456587 403.946383 
z
" clip-path="url(#p5416a13ed8)" style="fill: #2196f3"/>
   </g>
   <g id="patch_64">
    <path d="M 279.93754 403.946383 
L 284.33246 403.946383 
L 284.33246 403.946383 
L 279.93754 403.946383 
z
" clip-path="url(#p5416a13ed8)" style="fill: #2196f3"/>
   </g>
   <g id="patch_65">
    <path d="M 296.418492 403.946383 
L 300.813413 403.946383 
L 300.813413 241.417769 
L 296.418492 241.417769 
z
" clip-path="url(#p5416a13ed8)" style="fill: #2196f3"/>
   </g>
   <g id="patch_66">
    <path d="M 312.899444 403.946383 
L 317.294365 403.946383 
L 317.294365 241.417769 
L 312.899444 241.417769 
z
" clip-path="url(#p5416a13ed8)" style="fill: #2196f3"/>
   </g>
   <g id="patch_67">
    <path d="M 329.380397 403.946383 
L 333.775317 403.946383 
L 333.775317 403.946383 
L 329.380397 403.946383 
z
" clip-path="url(#p5416a13ed8)" style="fill: #2196f3"/>
   </g>
   <g id="patch_68">
    <path d="M 345.861349 403.946383 
L 350.25627 403.946383 
L 350.25627 360.605419 
L 345.861349 360.605419 
z
" clip-path="url(#p5416a13ed8)" style="fill: #2196f3"/>
   </g>
   <g id="patch_69">
    <path d="M 362.342302 403.946383 
L 366.737222 403.946383 
L 366.737222 409.364003 
L 362.342302 409.364003 
z
" clip-path="url(#p5416a13ed8)" style="fill: #2196f3"/>
   </g>
   <g id="patch_70">
    <path d="M 378.823254 403.946383 
L 383.218175 403.946383 
L 383.218175 427.164756 
L 378.823254 427.164756 
z
" clip-path="url(#p5416a13ed8)" style="fill: #2196f3"/>
   </g>
   <g id="patch_71">
    <path d="M 395.304206 403.946383 
L 399.699127 403.946383 
L 399.699127 431.808431 
L 395.304206 431.808431 
z
" clip-path="url(#p5416a13ed8)" style="fill: #2196f3"/>
   </g>
   <g id="patch_72">
    <path d="M 411.785159 403.946383 
L 416.180079 403.946383 
L 416.180079 390.015359 
L 411.785159 390.015359 
z
" clip-path="url(#p5416a13ed8)" style="fill: #2196f3"/>
   </g>
   <g id="patch_73">
    <path d="M 428.266111 403.946383 
L 432.661032 403.946383 
L 432.661032 418.721711 
L 428.266111 418.721711 
z
" clip-path="url(#p5416a13ed8)" style="fill: #2196f3"/>
   </g>
   <g id="patch_74">
    <path d="M 444.747063 403.946383 
L 449.141984 403.946383 
L 449.141984 364.939516 
L 444.747063 364.939516 
z
" clip-path="url(#p5416a13ed8)" style="fill: #2196f3"/>
   </g>
   <g id="patch_75">
    <path d="M 461.228016 403.946383 
L 465.622937 403.946383 
L 465.622937 387.693521 
L 461.228016 387.693521 
z
" clip-path="url(#p5416a13ed8)" style="fill: #2196f3"/>
   </g>
   <g id="patch_76">
    <path d="M 477.708968 403.946383 
L 482.103889 403.946383 
L 482.103889 403.946383 
L 477.708968 403.946383 
z
" clip-path="url(#p5416a13ed8)" style="fill: #2196f3"/>
   </g>
   <g id="patch_77">
    <path d="M 494.189921 403.946383 
L 498.584841 403.946383 
L 498.584841 427.586908 
L 494.189921 427.586908 
z
" clip-path="url(#p5416a13ed8)" style="fill: #2196f3"/>
   </g>
   <g id="patch_78">
    <path d="M 510.670873 403.946383 
L 515.065794 403.946383 
L 515.065794 377.941805 
L 510.670873 377.941805 
z
" clip-path="url(#p5416a13ed8)" style="fill: #2196f3"/>
   </g>
   <g id="patch_79">
    <path d="M 527.151825 403.946383 
L 531.546746 403.946383 
L 531.546746 413.233732 
L 527.151825 413.233732 
z
" clip-path="url(#p5416a13ed8)" style="fill: #2196f3"/>
   </g>
   <g id="patch_80">
    <path d="M 543.632778 403.946383 
L 548.027698 403.946383 
L 548.027698 403.946383 
L 543.632778 403.946383 
z
" clip-path="url(#p5416a13ed8)" style="fill: #2196f3"/>
   </g>
   <g id="patch_81">
    <path d="M 560.11373 403.946383 
L 564.508651 403.946383 
L 564.508651 398.528762 
L 560.11373 398.528762 
z
" clip-path="url(#p5416a13ed8)" style="fill: #2196f3"/>
   </g>
   <g id="patch_82">
    <path d="M 576.594683 403.946383 
L 580.989603 403.946383 
L 580.989603 420.199244 
L 576.594683 420.199244 
z
" clip-path="url(#p5416a13ed8)" style="fill: #2196f3"/>
   </g>
   <g id="patch_83">
    <path d="M 593.075635 403.946383 
L 597.470556 403.946383 
L 597.470556 425.616865 
L 593.075635 425.616865 
z
" clip-path="url(#p5416a13ed8)" style="fill: #2196f3"/>
   </g>
   <g id="patch_84">
    <path d="M 609.556587 403.946383 
L 613.951508 403.946383 
L 613.951508 425.616865 
L 609.556587 425.616865 
z
" clip-path="url(#p5416a13ed8)" style="fill: #2196f3"/>
   </g>
   <g id="patch_85">
    <path d="M 626.03754 403.946383 
L 630.43246 403.946383 
L 630.43246 413.233732 
L 626.03754 413.233732 
z
" clip-path="url(#p5416a13ed8)" style="fill: #2196f3"/>
   </g>
   <g id="patch_86">
    <path d="M 642.518492 403.946383 
L 646.913413 403.946383 
L 646.913413 431.034485 
L 642.518492 431.034485 
z
" clip-path="url(#p5416a13ed8)" style="fill: #2196f3"/>
   </g>
   <g id="patch_87">
    <path d="M 658.999444 403.946383 
L 663.394365 403.946383 
L 663.394365 360.605419 
L 658.999444 360.605419 
z
" clip-path="url(#p5416a13ed8)" style="fill: #2196f3"/>
   </g>
   <g id="patch_88">
    <path d="M 675.480397 403.946383 
L 679.875317 403.946383 
L 679.875317 403.946383 
L 675.480397 403.946383 
z
" clip-path="url(#p5416a13ed8)" style="fill: #2196f3"/>
   </g>
   <g id="patch_89">
    <path d="M 691.961349 403.946383 
L 696.35627 403.946383 
L 696.35627 241.417769 
L 691.961349 241.417769 
z
" clip-path="url(#p5416a13ed8)" style="fill: #2196f3"/>
   </g>
   <g id="patch_90">
    <path d="M 708.442302 403.946383 
L 712.837222 403.946383 
L 712.837222 408.009598 
L 708.442302 408.009598 
z
" clip-path="url(#p5416a13ed8)" style="fill: #2196f3"/>
   </g>
   <g id="patch_91">
    <path d="M 724.923254 403.946383 
L 729.318175 403.946383 
L 729.318175 397.445238 
L 724.923254 397.445238 
z
" clip-path="url(#p5416a13ed8)" style="fill: #2196f3"/>
   </g>
   <g id="patch_92">
    <path d="M 741.404206 403.946383 
L 745.799127 403.946383 
L 745.799127 418.393371 
L 741.404206 418.393371 
z
" clip-path="url(#p5416a13ed8)" style="fill: #2196f3"/>
   </g>
   <g id="patch_93">
    <path d="M 757.885159 403.946383 
L 762.280079 403.946383 
L 762.280079 427.164756 
L 757.885159 427.164756 
z
" clip-path="url(#p5416a13ed8)" style="fill: #2196f3"/>
   </g>
   <g id="patch_94">
    <path d="M 774.366111 403.946383 
L 778.761032 403.946383 
L 778.761032 403.946383 
L 774.366111 403.946383 
z
" clip-path="url(#p5416a13ed8)" style="fill: #2196f3"/>
   </g>
   <g id="patch_95">
    <path d="M 790.847063 403.946383 
L 795.241984 403.946383 
L 795.241984 420.199244 
L 790.847063 420.199244 
z
" clip-path="url(#p5416a13ed8)" style="fill: #2196f3"/>
   </g>
   <g id="patch_96">
    <path d="M 807.328016 403.946383 
L 811.722937 403.946383 
L 811.722937 425.616865 
L 807.328016 425.616865 
z
" clip-path="url(#p5416a13ed8)" style="fill: #2196f3"/>
   </g>
   <g id="patch_97">
    <path d="M 823.808968 403.946383 
L 828.203889 403.946383 
L 828.203889 422.005118 
L 823.808968 422.005118 
z
" clip-path="url(#p5416a13ed8)" style="fill: #2196f3"/>
   </g>
   <g id="patch_98">
    <path d="M 840.289921 403.946383 
L 844.684841 403.946383 
L 844.684841 390.944094 
L 840.289921 390.944094 
z
" clip-path="url(#p5416a13ed8)" style="fill: #2196f3"/>
   </g>
   <g id="patch_99">
    <path d="M 70.080079 403.946383 
L 74.475 403.946383 
L 74.475 426.700389 
L 70.080079 426.700389 
z
" clip-path="url(#p5416a13ed8)" style="fill: #4caf50"/>
   </g>
   <g id="patch_100">
    <path d="M 86.561032 403.946383 
L 90.955952 403.946383 
L 90.955952 398.528762 
L 86.561032 398.528762 
z
" clip-path="url(#p5416a13ed8)" style="fill: #4caf50"/>
   </g>
   <g id="patch_101">
    <path d="M 103.041984 403.946383 
L 107.436905 403.946383 
L 107.436905 290.176353 
L 103.041984 290.176353 
z
" clip-path="url(#p5416a13ed8)" style="fill: #4caf50"/>
   </g>
   <g id="patch_102">
    <path d="M 119.522937 403.946383 
L 123.917857 403.946383 
L 123.917857 377.941805 
L 119.522937 377.941805 
z
" clip-path="url(#p5416a13ed8)" style="fill: #4caf50"/>
   </g>
   <g id="patch_103">
    <path d="M 136.003889 403.946383 
L 140.39881 403.946383 
L 140.39881 393.111142 
L 136.003889 393.111142 
z
" clip-path="url(#p5416a13ed8)" style="fill: #4caf50"/>
   </g>
   <g id="patch_104">
    <path d="M 152.484841 403.946383 
L 156.879762 403.946383 
L 156.879762 421.676777 
L 152.484841 421.676777 
z
" clip-path="url(#p5416a13ed8)" style="fill: #4caf50"/>
   </g>
   <g id="patch_105">
    <path d="M 168.965794 403.946383 
L 173.360714 403.946383 
L 173.360714 431.808431 
L 168.965794 431.808431 
z
" clip-path="url(#p5416a13ed8)" style="fill: #4caf50"/>
   </g>
   <g id="patch_106">
    <path d="M 185.446746 403.946383 
L 189.841667 403.946383 
L 189.841667 403.946383 
L 185.446746 403.946383 
z
" clip-path="url(#p5416a13ed8)" style="fill: #4caf50"/>
   </g>
   <g id="patch_107">
    <path d="M 201.927698 403.946383 
L 206.322619 403.946383 
L 206.322619 410.447527 
L 201.927698 410.447527 
z
" clip-path="url(#p5416a13ed8)" style="fill: #4caf50"/>
   </g>
   <g id="patch_108">
    <path d="M 218.408651 403.946383 
L 222.803571 403.946383 
L 222.803571 420.199244 
L 218.408651 420.199244 
z
" clip-path="url(#p5416a13ed8)" style="fill: #4caf50"/>
   </g>
   <g id="patch_109">
    <path d="M 234.889603 403.946383 
L 239.284524 403.946383 
L 239.284524 429.950961 
L 234.889603 429.950961 
z
" clip-path="url(#p5416a13ed8)" style="fill: #4caf50"/>
   </g>
   <g id="patch_110">
    <path d="M 251.370556 403.946383 
L 255.765476 403.946383 
L 255.765476 414.781624 
L 251.370556 414.781624 
z
" clip-path="url(#p5416a13ed8)" style="fill: #4caf50"/>
   </g>
   <g id="patch_111">
    <path d="M 267.851508 403.946383 
L 272.246429 403.946383 
L 272.246429 403.946383 
L 267.851508 403.946383 
z
" clip-path="url(#p5416a13ed8)" style="fill: #4caf50"/>
   </g>
   <g id="patch_112">
    <path d="M 284.33246 403.946383 
L 288.727381 403.946383 
L 288.727381 403.946383 
L 284.33246 403.946383 
z
" clip-path="url(#p5416a13ed8)" style="fill: #4caf50"/>
   </g>
   <g id="patch_113">
    <path d="M 300.813413 403.946383 
L 305.208333 403.946383 
L 305.208333 403.946383 
L 300.813413 403.946383 
z
" clip-path="url(#p5416a13ed8)" style="fill: #4caf50"/>
   </g>
   <g id="patch_114">
    <path d="M 317.294365 403.946383 
L 321.689286 403.946383 
L 321.689286 403.946383 
L 317.294365 403.946383 
z
" clip-path="url(#p5416a13ed8)" style="fill: #4caf50"/>
   </g>
   <g id="patch_115">
    <path d="M 333.775317 403.946383 
L 338.170238 403.946383 
L 338.170238 403.946383 
L 333.775317 403.946383 
z
" clip-path="url(#p5416a13ed8)" style="fill: #4caf50"/>
   </g>
   <g id="patch_116">
    <path d="M 350.25627 403.946383 
L 354.65119 403.946383 
L 354.65119 322.682076 
L 350.25627 322.682076 
z
" clip-path="url(#p5416a13ed8)" style="fill: #4caf50"/>
   </g>
   <g id="patch_117">
    <path d="M 366.737222 403.946383 
L 371.132143 403.946383 
L 371.132143 410.447527 
L 366.737222 410.447527 
z
" clip-path="url(#p5416a13ed8)" style="fill: #4caf50"/>
   </g>
   <g id="patch_118">
    <path d="M 383.218175 403.946383 
L 387.613095 403.946383 
L 387.613095 413.233732 
L 383.218175 413.233732 
z
" clip-path="url(#p5416a13ed8)" style="fill: #4caf50"/>
   </g>
   <g id="patch_119">
    <path d="M 399.699127 403.946383 
L 404.094048 403.946383 
L 404.094048 412.072813 
L 399.699127 412.072813 
z
" clip-path="url(#p5416a13ed8)" style="fill: #4caf50"/>
   </g>
   <g id="patch_120">
    <path d="M 416.180079 403.946383 
L 420.575 403.946383 
L 420.575 418.393371 
L 416.180079 418.393371 
z
" clip-path="url(#p5416a13ed8)" style="fill: #4caf50"/>
   </g>
   <g id="patch_121">
    <path d="M 432.661032 403.946383 
L 437.055952 403.946383 
L 437.055952 403.946383 
L 432.661032 403.946383 
z
" clip-path="url(#p5416a13ed8)" style="fill: #4caf50"/>
   </g>
   <g id="patch_122">
    <path d="M 449.141984 403.946383 
L 453.536905 403.946383 
L 453.536905 428.325675 
L 449.141984 428.325675 
z
" clip-path="url(#p5416a13ed8)" style="fill: #4caf50"/>
   </g>
   <g id="patch_123">
    <path d="M 465.622937 403.946383 
L 470.017857 403.946383 
L 470.017857 413.233732 
L 465.622937 413.233732 
z
" clip-path="url(#p5416a13ed8)" style="fill: #4caf50"/>
   </g>
   <g id="patch_124">
    <path d="M 482.103889 403.946383 
L 486.49881 403.946383 
L 486.49881 403.946383 
L 482.103889 403.946383 
z
" clip-path="url(#p5416a13ed8)" style="fill: #4caf50"/>
   </g>
   <g id="patch_125">
    <path d="M 498.584841 403.946383 
L 502.979762 403.946383 
L 502.979762 423.449816 
L 498.584841 423.449816 
z
" clip-path="url(#p5416a13ed8)" style="fill: #4caf50"/>
   </g>
   <g id="patch_126">
    <path d="M 515.065794 403.946383 
L 519.460714 403.946383 
L 519.460714 393.111142 
L 515.065794 393.111142 
z
" clip-path="url(#p5416a13ed8)" style="fill: #4caf50"/>
   </g>
   <g id="patch_127">
    <path d="M 531.546746 403.946383 
L 535.941667 403.946383 
L 535.941667 360.605419 
L 531.546746 360.605419 
z
" clip-path="url(#p5416a13ed8)" style="fill: #4caf50"/>
   </g>
   <g id="patch_128">
    <path d="M 548.027698 403.946383 
L 552.422619 403.946383 
L 552.422619 379.567091 
L 548.027698 379.567091 
z
" clip-path="url(#p5416a13ed8)" style="fill: #4caf50"/>
   </g>
   <g id="patch_129">
    <path d="M 564.508651 403.946383 
L 568.903571 403.946383 
L 568.903571 387.693521 
L 564.508651 387.693521 
z
" clip-path="url(#p5416a13ed8)" style="fill: #4caf50"/>
   </g>
   <g id="patch_130">
    <path d="M 580.989603 403.946383 
L 585.384524 403.946383 
L 585.384524 414.781624 
L 580.989603 414.781624 
z
" clip-path="url(#p5416a13ed8)" style="fill: #4caf50"/>
   </g>
   <g id="patch_131">
    <path d="M 597.470556 403.946383 
L 601.865476 403.946383 
L 601.865476 412.072813 
L 597.470556 412.072813 
z
" clip-path="url(#p5416a13ed8)" style="fill: #4caf50"/>
   </g>
   <g id="patch_132">
    <path d="M 613.951508 403.946383 
L 618.346429 403.946383 
L 618.346429 273.923492 
L 613.951508 273.923492 
z
" clip-path="url(#p5416a13ed8)" style="fill: #4caf50"/>
   </g>
   <g id="patch_133">
    <path d="M 630.43246 403.946383 
L 634.827381 403.946383 
L 634.827381 425.616865 
L 630.43246 425.616865 
z
" clip-path="url(#p5416a13ed8)" style="fill: #4caf50"/>
   </g>
   <g id="patch_134">
    <path d="M 646.913413 403.946383 
L 651.308333 403.946383 
L 651.308333 429.950961 
L 646.913413 429.950961 
z
" clip-path="url(#p5416a13ed8)" style="fill: #4caf50"/>
   </g>
   <g id="patch_135">
    <path d="M 663.394365 403.946383 
L 667.789286 403.946383 
L 667.789286 403.946383 
L 663.394365 403.946383 
z
" clip-path="url(#p5416a13ed8)" style="fill: #4caf50"/>
   </g>
   <g id="patch_136">
    <path d="M 679.875317 403.946383 
L 684.270238 403.946383 
L 684.270238 338.934937 
L 679.875317 338.934937 
z
" clip-path="url(#p5416a13ed8)" style="fill: #4caf50"/>
   </g>
   <g id="patch_137">
    <path d="M 696.35627 403.946383 
L 700.75119 403.946383 
L 700.75119 436.452105 
L 696.35627 436.452105 
z
" clip-path="url(#p5416a13ed8)" style="fill: #4caf50"/>
   </g>
   <g id="patch_138">
    <path d="M 712.837222 403.946383 
L 717.232143 403.946383 
L 717.232143 387.693521 
L 712.837222 387.693521 
z
" clip-path="url(#p5416a13ed8)" style="fill: #4caf50"/>
   </g>
   <g id="patch_139">
    <path d="M 729.318175 403.946383 
L 733.713095 403.946383 
L 733.713095 420.199244 
L 729.318175 420.199244 
z
" clip-path="url(#p5416a13ed8)" style="fill: #4caf50"/>
   </g>
   <g id="patch_140">
    <path d="M 745.799127 403.946383 
L 750.194048 403.946383 
L 750.194048 403.946383 
L 745.799127 403.946383 
z
" clip-path="url(#p5416a13ed8)" style="fill: #4caf50"/>
   </g>
   <g id="patch_141">
    <path d="M 762.280079 403.946383 
L 766.675 403.946383 
L 766.675 371.44066 
L 762.280079 371.44066 
z
" clip-path="url(#p5416a13ed8)" style="fill: #4caf50"/>
   </g>
   <g id="patch_142">
    <path d="M 778.761032 403.946383 
L 783.155952 403.946383 
L 783.155952 403.946383 
L 778.761032 403.946383 
z
" clip-path="url(#p5416a13ed8)" style="fill: #4caf50"/>
   </g>
   <g id="patch_143">
    <path d="M 795.241984 403.946383 
L 799.636905 403.946383 
L 799.636905 430.541974 
L 795.241984 430.541974 
z
" clip-path="url(#p5416a13ed8)" style="fill: #4caf50"/>
   </g>
   <g id="patch_144">
    <path d="M 811.722937 403.946383 
L 816.117857 403.946383 
L 816.117857 425.616865 
L 811.722937 425.616865 
z
" clip-path="url(#p5416a13ed8)" style="fill: #4caf50"/>
   </g>
   <g id="patch_145">
    <path d="M 828.203889 403.946383 
L 832.59881 403.946383 
L 832.59881 397.445238 
L 828.203889 397.445238 
z
" clip-path="url(#p5416a13ed8)" style="fill: #4caf50"/>
   </g>
   <g id="patch_146">
    <path d="M 844.684841 403.946383 
L 849.079762 403.946383 
L 849.079762 420.199244 
L 844.684841 420.199244 
z
" clip-path="url(#p5416a13ed8)" style="fill: #4caf50"/>
   </g>
   <g id="matplotlib.axis_1">
    <g id="xtick_1">
     <g id="line2d_1">
      <defs>
       <path id="mdc7d5ffc7e" d="M 0 0 
L 0 3.5 
" style="stroke: #000000; stroke-width: 0.8"/>
      </defs>
      <g>
       <use xlink:href="#mdc7d5ffc7e" x="67.882619" y="455.955539" style="stroke: #000000; stroke-width: 0.8"/>
      </g>
     </g>
     <g id="text_1">
      <!-- 0 -->
      <g transform="translate(67.584308 472.827413) rotate(-45) scale(0.1 -0.1)">
       <defs>
        <path id="DejaVuSans-30" d="M 2034 4250 
Q 1547 4250 1301 3770 
Q 1056 3291 1056 2328 
Q 1056 1369 1301 889 
Q 1547 409 2034 409 
Q 2525 409 2770 889 
Q 3016 1369 3016 2328 
Q 3016 3291 2770 3770 
Q 2525 4250 2034 4250 
z
M 2034 4750 
Q 2819 4750 3233 4129 
Q 3647 3509 3647 2328 
Q 3647 1150 3233 529 
Q 2819 -91 2034 -91 
Q 1250 -91 836 529 
Q 422 1150 422 2328 
Q 422 3509 836 4129 
Q 1250 4750 2034 4750 
z
" transform="scale(0.015625)"/>
       </defs>
       <use xlink:href="#DejaVuSans-30"/>
      </g>
     </g>
    </g>
    <g id="xtick_2">
     <g id="line2d_2">
      <g>
       <use xlink:href="#mdc7d5ffc7e" x="84.363571" y="455.955539" style="stroke: #000000; stroke-width: 0.8"/>
      </g>
     </g>
    </g>
    <g id="xtick_3">
     <g id="line2d_3">
      <g>
       <use xlink:href="#mdc7d5ffc7e" x="100.844524" y="455.955539" style="stroke: #000000; stroke-width: 0.8"/>
      </g>
     </g>
    </g>
    <g id="xtick_4">
     <g id="line2d_4">
      <g>
       <use xlink:href="#mdc7d5ffc7e" x="117.325476" y="455.955539" style="stroke: #000000; stroke-width: 0.8"/>
      </g>
     </g>
    </g>
    <g id="xtick_5">
     <g id="line2d_5">
      <g>
       <use xlink:href="#mdc7d5ffc7e" x="133.806429" y="455.955539" style="stroke: #000000; stroke-width: 0.8"/>
      </g>
     </g>
    </g>
    <g id="xtick_6">
     <g id="line2d_6">
      <g>
       <use xlink:href="#mdc7d5ffc7e" x="150.287381" y="455.955539" style="stroke: #000000; stroke-width: 0.8"/>
      </g>
     </g>
     <g id="text_2">
      <!-- 5 -->
      <g transform="translate(149.98907 472.827413) rotate(-45) scale(0.1 -0.1)">
       <defs>
        <path id="DejaVuSans-35" d="M 691 4666 
L 3169 4666 
L 3169 4134 
L 1269 4134 
L 1269 2991 
Q 1406 3038 1543 3061 
Q 1681 3084 1819 3084 
Q 2600 3084 3056 2656 
Q 3513 2228 3513 1497 
Q 3513 744 3044 326 
Q 2575 -91 1722 -91 
Q 1428 -91 1123 -41 
Q 819 9 494 109 
L 494 744 
Q 775 591 1075 516 
Q 1375 441 1709 441 
Q 2250 441 2565 725 
Q 2881 1009 2881 1497 
Q 2881 1984 2565 2268 
Q 2250 2553 1709 2553 
Q 1456 2553 1204 2497 
Q 953 2441 691 2322 
L 691 4666 
z
" transform="scale(0.015625)"/>
       </defs>
       <use xlink:href="#DejaVuSans-35"/>
      </g>
     </g>
    </g>
    <g id="xtick_7">
     <g id="line2d_7">
      <g>
       <use xlink:href="#mdc7d5ffc7e" x="166.768333" y="455.955539" style="stroke: #000000; stroke-width: 0.8"/>
      </g>
     </g>
    </g>
    <g id="xtick_8">
     <g id="line2d_8">
      <g>
       <use xlink:href="#mdc7d5ffc7e" x="183.249286" y="455.955539" style="stroke: #000000; stroke-width: 0.8"/>
      </g>
     </g>
    </g>
    <g id="xtick_9">
     <g id="line2d_9">
      <g>
       <use xlink:href="#mdc7d5ffc7e" x="199.730238" y="455.955539" style="stroke: #000000; stroke-width: 0.8"/>
      </g>
     </g>
    </g>
    <g id="xtick_10">
     <g id="line2d_10">
      <g>
       <use xlink:href="#mdc7d5ffc7e" x="216.21119" y="455.955539" style="stroke: #000000; stroke-width: 0.8"/>
      </g>
     </g>
    </g>
    <g id="xtick_11">
     <g id="line2d_11">
      <g>
       <use xlink:href="#mdc7d5ffc7e" x="232.692143" y="455.955539" style="stroke: #000000; stroke-width: 0.8"/>
      </g>
     </g>
     <g id="text_3">
      <!-- 10 -->
      <g transform="translate(230.144349 477.326379) rotate(-45) scale(0.1 -0.1)">
       <defs>
        <path id="DejaVuSans-31" d="M 794 531 
L 1825 531 
L 1825 4091 
L 703 3866 
L 703 4441 
L 1819 4666 
L 2450 4666 
L 2450 531 
L 3481 531 
L 3481 0 
L 794 0 
L 794 531 
z
" transform="scale(0.015625)"/>
       </defs>
       <use xlink:href="#DejaVuSans-31"/>
       <use xlink:href="#DejaVuSans-30" transform="translate(63.623047 0)"/>
      </g>
     </g>
    </g>
    <g id="xtick_12">
     <g id="line2d_12">
      <g>
       <use xlink:href="#mdc7d5ffc7e" x="249.173095" y="455.955539" style="stroke: #000000; stroke-width: 0.8"/>
      </g>
     </g>
     <g id="text_4">
      <!-- 11 -->
      <g transform="translate(246.625301 477.326379) rotate(-45) scale(0.1 -0.1)">
       <use xlink:href="#DejaVuSans-31"/>
       <use xlink:href="#DejaVuSans-31" transform="translate(63.623047 0)"/>
      </g>
     </g>
    </g>
    <g id="xtick_13">
     <g id="line2d_13">
      <g>
       <use xlink:href="#mdc7d5ffc7e" x="265.654048" y="455.955539" style="stroke: #000000; stroke-width: 0.8"/>
      </g>
     </g>
    </g>
    <g id="xtick_14">
     <g id="line2d_14">
      <g>
       <use xlink:href="#mdc7d5ffc7e" x="282.135" y="455.955539" style="stroke: #000000; stroke-width: 0.8"/>
      </g>
     </g>
    </g>
    <g id="xtick_15">
     <g id="line2d_15">
      <g>
       <use xlink:href="#mdc7d5ffc7e" x="298.615952" y="455.955539" style="stroke: #000000; stroke-width: 0.8"/>
      </g>
     </g>
    </g>
    <g id="xtick_16">
     <g id="line2d_16">
      <g>
       <use xlink:href="#mdc7d5ffc7e" x="315.096905" y="455.955539" style="stroke: #000000; stroke-width: 0.8"/>
      </g>
     </g>
     <g id="text_5">
      <!-- 15 -->
      <g transform="translate(312.549111 477.326379) rotate(-45) scale(0.1 -0.1)">
       <use xlink:href="#DejaVuSans-31"/>
       <use xlink:href="#DejaVuSans-35" transform="translate(63.623047 0)"/>
      </g>
     </g>
    </g>
    <g id="xtick_17">
     <g id="line2d_17">
      <g>
       <use xlink:href="#mdc7d5ffc7e" x="331.577857" y="455.955539" style="stroke: #000000; stroke-width: 0.8"/>
      </g>
     </g>
    </g>
    <g id="xtick_18">
     <g id="line2d_18">
      <g>
       <use xlink:href="#mdc7d5ffc7e" x="348.05881" y="455.955539" style="stroke: #000000; stroke-width: 0.8"/>
      </g>
     </g>
    </g>
    <g id="xtick_19">
     <g id="line2d_19">
      <g>
       <use xlink:href="#mdc7d5ffc7e" x="364.539762" y="455.955539" style="stroke: #000000; stroke-width: 0.8"/>
      </g>
     </g>
    </g>
    <g id="xtick_20">
     <g id="line2d_20">
      <g>
       <use xlink:href="#mdc7d5ffc7e" x="381.020714" y="455.955539" style="stroke: #000000; stroke-width: 0.8"/>
      </g>
     </g>
    </g>
    <g id="xtick_21">
     <g id="line2d_21">
      <g>
       <use xlink:href="#mdc7d5ffc7e" x="397.501667" y="455.955539" style="stroke: #000000; stroke-width: 0.8"/>
      </g>
     </g>
     <g id="text_6">
      <!-- 20 -->
      <g transform="translate(394.953873 477.326379) rotate(-45) scale(0.1 -0.1)">
       <defs>
        <path id="DejaVuSans-32" d="M 1228 531 
L 3431 531 
L 3431 0 
L 469 0 
L 469 531 
Q 828 903 1448 1529 
Q 2069 2156 2228 2338 
Q 2531 2678 2651 2914 
Q 2772 3150 2772 3378 
Q 2772 3750 2511 3984 
Q 2250 4219 1831 4219 
Q 1534 4219 1204 4116 
Q 875 4013 500 3803 
L 500 4441 
Q 881 4594 1212 4672 
Q 1544 4750 1819 4750 
Q 2544 4750 2975 4387 
Q 3406 4025 3406 3419 
Q 3406 3131 3298 2873 
Q 3191 2616 2906 2266 
Q 2828 2175 2409 1742 
Q 1991 1309 1228 531 
z
" transform="scale(0.015625)"/>
       </defs>
       <use xlink:href="#DejaVuSans-32"/>
       <use xlink:href="#DejaVuSans-30" transform="translate(63.623047 0)"/>
      </g>
     </g>
    </g>
    <g id="xtick_22">
     <g id="line2d_22">
      <g>
       <use xlink:href="#mdc7d5ffc7e" x="413.982619" y="455.955539" style="stroke: #000000; stroke-width: 0.8"/>
      </g>
     </g>
    </g>
    <g id="xtick_23">
     <g id="line2d_23">
      <g>
       <use xlink:href="#mdc7d5ffc7e" x="430.463571" y="455.955539" style="stroke: #000000; stroke-width: 0.8"/>
      </g>
     </g>
    </g>
    <g id="xtick_24">
     <g id="line2d_24">
      <g>
       <use xlink:href="#mdc7d5ffc7e" x="446.944524" y="455.955539" style="stroke: #000000; stroke-width: 0.8"/>
      </g>
     </g>
     <g id="text_7">
      <!-- 23 -->
      <g transform="translate(444.39673 477.326379) rotate(-45) scale(0.1 -0.1)">
       <defs>
        <path id="DejaVuSans-33" d="M 2597 2516 
Q 3050 2419 3304 2112 
Q 3559 1806 3559 1356 
Q 3559 666 3084 287 
Q 2609 -91 1734 -91 
Q 1441 -91 1130 -33 
Q 819 25 488 141 
L 488 750 
Q 750 597 1062 519 
Q 1375 441 1716 441 
Q 2309 441 2620 675 
Q 2931 909 2931 1356 
Q 2931 1769 2642 2001 
Q 2353 2234 1838 2234 
L 1294 2234 
L 1294 2753 
L 1863 2753 
Q 2328 2753 2575 2939 
Q 2822 3125 2822 3475 
Q 2822 3834 2567 4026 
Q 2313 4219 1838 4219 
Q 1578 4219 1281 4162 
Q 984 4106 628 3988 
L 628 4550 
Q 988 4650 1302 4700 
Q 1616 4750 1894 4750 
Q 2613 4750 3031 4423 
Q 3450 4097 3450 3541 
Q 3450 3153 3228 2886 
Q 3006 2619 2597 2516 
z
" transform="scale(0.015625)"/>
       </defs>
       <use xlink:href="#DejaVuSans-32"/>
       <use xlink:href="#DejaVuSans-33" transform="translate(63.623047 0)"/>
      </g>
     </g>
    </g>
    <g id="xtick_25">
     <g id="line2d_25">
      <g>
       <use xlink:href="#mdc7d5ffc7e" x="463.425476" y="455.955539" style="stroke: #000000; stroke-width: 0.8"/>
      </g>
     </g>
    </g>
    <g id="xtick_26">
     <g id="line2d_26">
      <g>
       <use xlink:href="#mdc7d5ffc7e" x="479.906429" y="455.955539" style="stroke: #000000; stroke-width: 0.8"/>
      </g>
     </g>
     <g id="text_8">
      <!-- 25 -->
      <g transform="translate(477.358634 477.326379) rotate(-45) scale(0.1 -0.1)">
       <use xlink:href="#DejaVuSans-32"/>
       <use xlink:href="#DejaVuSans-35" transform="translate(63.623047 0)"/>
      </g>
     </g>
    </g>
    <g id="xtick_27">
     <g id="line2d_27">
      <g>
       <use xlink:href="#mdc7d5ffc7e" x="496.387381" y="455.955539" style="stroke: #000000; stroke-width: 0.8"/>
      </g>
     </g>
    </g>
    <g id="xtick_28">
     <g id="line2d_28">
      <g>
       <use xlink:href="#mdc7d5ffc7e" x="512.868333" y="455.955539" style="stroke: #000000; stroke-width: 0.8"/>
      </g>
     </g>
    </g>
    <g id="xtick_29">
     <g id="line2d_29">
      <g>
       <use xlink:href="#mdc7d5ffc7e" x="529.349286" y="455.955539" style="stroke: #000000; stroke-width: 0.8"/>
      </g>
     </g>
    </g>
    <g id="xtick_30">
     <g id="line2d_30">
      <g>
       <use xlink:href="#mdc7d5ffc7e" x="545.830238" y="455.955539" style="stroke: #000000; stroke-width: 0.8"/>
      </g>
     </g>
    </g>
    <g id="xtick_31">
     <g id="line2d_31">
      <g>
       <use xlink:href="#mdc7d5ffc7e" x="562.31119" y="455.955539" style="stroke: #000000; stroke-width: 0.8"/>
      </g>
     </g>
     <g id="text_9">
      <!-- 30 -->
      <g transform="translate(559.763396 477.326379) rotate(-45) scale(0.1 -0.1)">
       <use xlink:href="#DejaVuSans-33"/>
       <use xlink:href="#DejaVuSans-30" transform="translate(63.623047 0)"/>
      </g>
     </g>
    </g>
    <g id="xtick_32">
     <g id="line2d_32">
      <g>
       <use xlink:href="#mdc7d5ffc7e" x="578.792143" y="455.955539" style="stroke: #000000; stroke-width: 0.8"/>
      </g>
     </g>
    </g>
    <g id="xtick_33">
     <g id="line2d_33">
      <g>
       <use xlink:href="#mdc7d5ffc7e" x="595.273095" y="455.955539" style="stroke: #000000; stroke-width: 0.8"/>
      </g>
     </g>
    </g>
    <g id="xtick_34">
     <g id="line2d_34">
      <g>
       <use xlink:href="#mdc7d5ffc7e" x="611.754048" y="455.955539" style="stroke: #000000; stroke-width: 0.8"/>
      </g>
     </g>
    </g>
    <g id="xtick_35">
     <g id="line2d_35">
      <g>
       <use xlink:href="#mdc7d5ffc7e" x="628.235" y="455.955539" style="stroke: #000000; stroke-width: 0.8"/>
      </g>
     </g>
    </g>
    <g id="xtick_36">
     <g id="line2d_36">
      <g>
       <use xlink:href="#mdc7d5ffc7e" x="644.715952" y="455.955539" style="stroke: #000000; stroke-width: 0.8"/>
      </g>
     </g>
     <g id="text_10">
      <!-- 35 -->
      <g transform="translate(642.168158 477.326379) rotate(-45) scale(0.1 -0.1)">
       <use xlink:href="#DejaVuSans-33"/>
       <use xlink:href="#DejaVuSans-35" transform="translate(63.623047 0)"/>
      </g>
     </g>
    </g>
    <g id="xtick_37">
     <g id="line2d_37">
      <g>
       <use xlink:href="#mdc7d5ffc7e" x="661.196905" y="455.955539" style="stroke: #000000; stroke-width: 0.8"/>
      </g>
     </g>
    </g>
    <g id="xtick_38">
     <g id="line2d_38">
      <g>
       <use xlink:href="#mdc7d5ffc7e" x="677.677857" y="455.955539" style="stroke: #000000; stroke-width: 0.8"/>
      </g>
     </g>
    </g>
    <g id="xtick_39">
     <g id="line2d_39">
      <g>
       <use xlink:href="#mdc7d5ffc7e" x="694.15881" y="455.955539" style="stroke: #000000; stroke-width: 0.8"/>
      </g>
     </g>
    </g>
    <g id="xtick_40">
     <g id="line2d_40">
      <g>
       <use xlink:href="#mdc7d5ffc7e" x="710.639762" y="455.955539" style="stroke: #000000; stroke-width: 0.8"/>
      </g>
     </g>
    </g>
    <g id="xtick_41">
     <g id="line2d_41">
      <g>
       <use xlink:href="#mdc7d5ffc7e" x="727.120714" y="455.955539" style="stroke: #000000; stroke-width: 0.8"/>
      </g>
     </g>
     <g id="text_11">
      <!-- 40 -->
      <g transform="translate(724.57292 477.326379) rotate(-45) scale(0.1 -0.1)">
       <defs>
        <path id="DejaVuSans-34" d="M 2419 4116 
L 825 1625 
L 2419 1625 
L 2419 4116 
z
M 2253 4666 
L 3047 4666 
L 3047 1625 
L 3713 1625 
L 3713 1100 
L 3047 1100 
L 3047 0 
L 2419 0 
L 2419 1100 
L 313 1100 
L 313 1709 
L 2253 4666 
z
" transform="scale(0.015625)"/>
       </defs>
       <use xlink:href="#DejaVuSans-34"/>
       <use xlink:href="#DejaVuSans-30" transform="translate(63.623047 0)"/>
      </g>
     </g>
    </g>
    <g id="xtick_42">
     <g id="line2d_42">
      <g>
       <use xlink:href="#mdc7d5ffc7e" x="743.601667" y="455.955539" style="stroke: #000000; stroke-width: 0.8"/>
      </g>
     </g>
    </g>
    <g id="xtick_43">
     <g id="line2d_43">
      <g>
       <use xlink:href="#mdc7d5ffc7e" x="760.082619" y="455.955539" style="stroke: #000000; stroke-width: 0.8"/>
      </g>
     </g>
    </g>
    <g id="xtick_44">
     <g id="line2d_44">
      <g>
       <use xlink:href="#mdc7d5ffc7e" x="776.563571" y="455.955539" style="stroke: #000000; stroke-width: 0.8"/>
      </g>
     </g>
    </g>
    <g id="xtick_45">
     <g id="line2d_45">
      <g>
       <use xlink:href="#mdc7d5ffc7e" x="793.044524" y="455.955539" style="stroke: #000000; stroke-width: 0.8"/>
      </g>
     </g>
    </g>
    <g id="xtick_46">
     <g id="line2d_46">
      <g>
       <use xlink:href="#mdc7d5ffc7e" x="809.525476" y="455.955539" style="stroke: #000000; stroke-width: 0.8"/>
      </g>
     </g>
     <g id="text_12">
      <!-- 45 -->
      <g transform="translate(806.977682 477.326379) rotate(-45) scale(0.1 -0.1)">
       <use xlink:href="#DejaVuSans-34"/>
       <use xlink:href="#DejaVuSans-35" transform="translate(63.623047 0)"/>
      </g>
     </g>
    </g>
    <g id="xtick_47">
     <g id="line2d_47">
      <g>
       <use xlink:href="#mdc7d5ffc7e" x="826.006429" y="455.955539" style="stroke: #000000; stroke-width: 0.8"/>
      </g>
     </g>
    </g>
    <g id="xtick_48">
     <g id="line2d_48">
      <g>
       <use xlink:href="#mdc7d5ffc7e" x="842.487381" y="455.955539" style="stroke: #000000; stroke-width: 0.8"/>
      </g>
     </g>
     <g id="text_13">
      <!-- 47 -->
      <g transform="translate(839.939587 477.326379) rotate(-45) scale(0.1 -0.1)">
       <defs>
        <path id="DejaVuSans-37" d="M 525 4666 
L 3525 4666 
L 3525 4397 
L 1831 0 
L 1172 0 
L 2766 4134 
L 525 4134 
L 525 4666 
z
" transform="scale(0.015625)"/>
       </defs>
       <use xlink:href="#DejaVuSans-34"/>
       <use xlink:href="#DejaVuSans-37" transform="translate(63.623047 0)"/>
      </g>
     </g>
    </g>
    <g id="text_14">
     <!-- Game Minute -->
     <g transform="translate(421.633438 490.395378) scale(0.1 -0.1)">
      <defs>
       <path id="DejaVuSans-47" d="M 3809 666 
L 3809 1919 
L 2778 1919 
L 2778 2438 
L 4434 2438 
L 4434 434 
Q 4069 175 3628 42 
Q 3188 -91 2688 -91 
Q 1594 -91 976 548 
Q 359 1188 359 2328 
Q 359 3472 976 4111 
Q 1594 4750 2688 4750 
Q 3144 4750 3555 4637 
Q 3966 4525 4313 4306 
L 4313 3634 
Q 3963 3931 3569 4081 
Q 3175 4231 2741 4231 
Q 1884 4231 1454 3753 
Q 1025 3275 1025 2328 
Q 1025 1384 1454 906 
Q 1884 428 2741 428 
Q 3075 428 3337 486 
Q 3600 544 3809 666 
z
" transform="scale(0.015625)"/>
       <path id="DejaVuSans-61" d="M 2194 1759 
Q 1497 1759 1228 1600 
Q 959 1441 959 1056 
Q 959 750 1161 570 
Q 1363 391 1709 391 
Q 2188 391 2477 730 
Q 2766 1069 2766 1631 
L 2766 1759 
L 2194 1759 
z
M 3341 1997 
L 3341 0 
L 2766 0 
L 2766 531 
Q 2569 213 2275 61 
Q 1981 -91 1556 -91 
Q 1019 -91 701 211 
Q 384 513 384 1019 
Q 384 1609 779 1909 
Q 1175 2209 1959 2209 
L 2766 2209 
L 2766 2266 
Q 2766 2663 2505 2880 
Q 2244 3097 1772 3097 
Q 1472 3097 1187 3025 
Q 903 2953 641 2809 
L 641 3341 
Q 956 3463 1253 3523 
Q 1550 3584 1831 3584 
Q 2591 3584 2966 3190 
Q 3341 2797 3341 1997 
z
" transform="scale(0.015625)"/>
       <path id="DejaVuSans-6d" d="M 3328 2828 
Q 3544 3216 3844 3400 
Q 4144 3584 4550 3584 
Q 5097 3584 5394 3201 
Q 5691 2819 5691 2113 
L 5691 0 
L 5113 0 
L 5113 2094 
Q 5113 2597 4934 2840 
Q 4756 3084 4391 3084 
Q 3944 3084 3684 2787 
Q 3425 2491 3425 1978 
L 3425 0 
L 2847 0 
L 2847 2094 
Q 2847 2600 2669 2842 
Q 2491 3084 2119 3084 
Q 1678 3084 1418 2786 
Q 1159 2488 1159 1978 
L 1159 0 
L 581 0 
L 581 3500 
L 1159 3500 
L 1159 2956 
Q 1356 3278 1631 3431 
Q 1906 3584 2284 3584 
Q 2666 3584 2933 3390 
Q 3200 3197 3328 2828 
z
" transform="scale(0.015625)"/>
       <path id="DejaVuSans-65" d="M 3597 1894 
L 3597 1613 
L 953 1613 
Q 991 1019 1311 708 
Q 1631 397 2203 397 
Q 2534 397 2845 478 
Q 3156 559 3463 722 
L 3463 178 
Q 3153 47 2828 -22 
Q 2503 -91 2169 -91 
Q 1331 -91 842 396 
Q 353 884 353 1716 
Q 353 2575 817 3079 
Q 1281 3584 2069 3584 
Q 2775 3584 3186 3129 
Q 3597 2675 3597 1894 
z
M 3022 2063 
Q 3016 2534 2758 2815 
Q 2500 3097 2075 3097 
Q 1594 3097 1305 2825 
Q 1016 2553 972 2059 
L 3022 2063 
z
" transform="scale(0.015625)"/>
       <path id="DejaVuSans-20" transform="scale(0.015625)"/>
       <path id="DejaVuSans-4d" d="M 628 4666 
L 1569 4666 
L 2759 1491 
L 3956 4666 
L 4897 4666 
L 4897 0 
L 4281 0 
L 4281 4097 
L 3078 897 
L 2444 897 
L 1241 4097 
L 1241 0 
L 628 0 
L 628 4666 
z
" transform="scale(0.015625)"/>
       <path id="DejaVuSans-69" d="M 603 3500 
L 1178 3500 
L 1178 0 
L 603 0 
L 603 3500 
z
M 603 4863 
L 1178 4863 
L 1178 4134 
L 603 4134 
L 603 4863 
z
" transform="scale(0.015625)"/>
       <path id="DejaVuSans-6e" d="M 3513 2113 
L 3513 0 
L 2938 0 
L 2938 2094 
Q 2938 2591 2744 2837 
Q 2550 3084 2163 3084 
Q 1697 3084 1428 2787 
Q 1159 2491 1159 1978 
L 1159 0 
L 581 0 
L 581 3500 
L 1159 3500 
L 1159 2956 
Q 1366 3272 1645 3428 
Q 1925 3584 2291 3584 
Q 2894 3584 3203 3211 
Q 3513 2838 3513 2113 
z
" transform="scale(0.015625)"/>
       <path id="DejaVuSans-75" d="M 544 1381 
L 544 3500 
L 1119 3500 
L 1119 1403 
Q 1119 906 1312 657 
Q 1506 409 1894 409 
Q 2359 409 2629 706 
Q 2900 1003 2900 1516 
L 2900 3500 
L 3475 3500 
L 3475 0 
L 2900 0 
L 2900 538 
Q 2691 219 2414 64 
Q 2138 -91 1772 -91 
Q 1169 -91 856 284 
Q 544 659 544 1381 
z
M 1991 3584 
L 1991 3584 
z
" transform="scale(0.015625)"/>
       <path id="DejaVuSans-74" d="M 1172 4494 
L 1172 3500 
L 2356 3500 
L 2356 3053 
L 1172 3053 
L 1172 1153 
Q 1172 725 1289 603 
Q 1406 481 1766 481 
L 2356 481 
L 2356 0 
L 1766 0 
Q 1100 0 847 248 
Q 594 497 594 1153 
L 594 3053 
L 172 3053 
L 172 3500 
L 594 3500 
L 594 4494 
L 1172 4494 
z
" transform="scale(0.015625)"/>
      </defs>
      <use xlink:href="#DejaVuSans-47"/>
      <use xlink:href="#DejaVuSans-61" transform="translate(77.490234 0)"/>
      <use xlink:href="#DejaVuSans-6d" transform="translate(138.769531 0)"/>
      <use xlink:href="#DejaVuSans-65" transform="translate(236.181641 0)"/>
      <use xlink:href="#DejaVuSans-20" transform="translate(297.705078 0)"/>
      <use xlink:href="#DejaVuSans-4d" transform="translate(329.492188 0)"/>
      <use xlink:href="#DejaVuSans-69" transform="translate(415.771484 0)"/>
      <use xlink:href="#DejaVuSans-6e" transform="translate(443.554688 0)"/>
      <use xlink:href="#DejaVuSans-75" transform="translate(506.933594 0)"/>
      <use xlink:href="#DejaVuSans-74" transform="translate(570.3125 0)"/>
      <use xlink:href="#DejaVuSans-65" transform="translate(609.521484 0)"/>
     </g>
    </g>
   </g>
   <g id="matplotlib.axis_2">
    <g id="ytick_1">
     <g id="line2d_49">
      <defs>
       <path id="m7fbd698ac3" d="M 0 0 
L -3.5 0 
" style="stroke: #000000; stroke-width: 0.8"/>
      </defs>
      <g>
       <use xlink:href="#m7fbd698ac3" x="57.17" y="403.946383" style="stroke: #000000; stroke-width: 0.8"/>
      </g>
     </g>
     <g id="text_15">
      <!-- 0 -->
      <g transform="translate(43.8075 407.745601) scale(0.1 -0.1)">
       <use xlink:href="#DejaVuSans-30"/>
      </g>
     </g>
    </g>
    <g id="ytick_2">
     <g id="line2d_50">
      <g>
       <use xlink:href="#m7fbd698ac3" x="57.17" y="338.934937" style="stroke: #000000; stroke-width: 0.8"/>
      </g>
     </g>
     <g id="text_16">
      <!-- 200 -->
      <g transform="translate(31.0825 342.734156) scale(0.1 -0.1)">
       <use xlink:href="#DejaVuSans-32"/>
       <use xlink:href="#DejaVuSans-30" transform="translate(63.623047 0)"/>
       <use xlink:href="#DejaVuSans-30" transform="translate(127.246094 0)"/>
      </g>
     </g>
    </g>
    <g id="ytick_3">
     <g id="line2d_51">
      <g>
       <use xlink:href="#m7fbd698ac3" x="57.17" y="273.923492" style="stroke: #000000; stroke-width: 0.8"/>
      </g>
     </g>
     <g id="text_17">
      <!-- 400 -->
      <g transform="translate(31.0825 277.722711) scale(0.1 -0.1)">
       <use xlink:href="#DejaVuSans-34"/>
       <use xlink:href="#DejaVuSans-30" transform="translate(63.623047 0)"/>
       <use xlink:href="#DejaVuSans-30" transform="translate(127.246094 0)"/>
      </g>
     </g>
    </g>
    <g id="ytick_4">
     <g id="line2d_52">
      <g>
       <use xlink:href="#m7fbd698ac3" x="57.17" y="208.912047" style="stroke: #000000; stroke-width: 0.8"/>
      </g>
     </g>
     <g id="text_18">
      <!-- 600 -->
      <g transform="translate(31.0825 212.711266) scale(0.1 -0.1)">
       <defs>
        <path id="DejaVuSans-36" d="M 2113 2584 
Q 1688 2584 1439 2293 
Q 1191 2003 1191 1497 
Q 1191 994 1439 701 
Q 1688 409 2113 409 
Q 2538 409 2786 701 
Q 3034 994 3034 1497 
Q 3034 2003 2786 2293 
Q 2538 2584 2113 2584 
z
M 3366 4563 
L 3366 3988 
Q 3128 4100 2886 4159 
Q 2644 4219 2406 4219 
Q 1781 4219 1451 3797 
Q 1122 3375 1075 2522 
Q 1259 2794 1537 2939 
Q 1816 3084 2150 3084 
Q 2853 3084 3261 2657 
Q 3669 2231 3669 1497 
Q 3669 778 3244 343 
Q 2819 -91 2113 -91 
Q 1303 -91 875 529 
Q 447 1150 447 2328 
Q 447 3434 972 4092 
Q 1497 4750 2381 4750 
Q 2619 4750 2861 4703 
Q 3103 4656 3366 4563 
z
" transform="scale(0.015625)"/>
       </defs>
       <use xlink:href="#DejaVuSans-36"/>
       <use xlink:href="#DejaVuSans-30" transform="translate(63.623047 0)"/>
       <use xlink:href="#DejaVuSans-30" transform="translate(127.246094 0)"/>
      </g>
     </g>
    </g>
    <g id="ytick_5">
     <g id="line2d_53">
      <g>
       <use xlink:href="#m7fbd698ac3" x="57.17" y="143.900602" style="stroke: #000000; stroke-width: 0.8"/>
      </g>
     </g>
     <g id="text_19">
      <!-- 800 -->
      <g transform="translate(31.0825 147.69982) scale(0.1 -0.1)">
       <defs>
        <path id="DejaVuSans-38" d="M 2034 2216 
Q 1584 2216 1326 1975 
Q 1069 1734 1069 1313 
Q 1069 891 1326 650 
Q 1584 409 2034 409 
Q 2484 409 2743 651 
Q 3003 894 3003 1313 
Q 3003 1734 2745 1975 
Q 2488 2216 2034 2216 
z
M 1403 2484 
Q 997 2584 770 2862 
Q 544 3141 544 3541 
Q 544 4100 942 4425 
Q 1341 4750 2034 4750 
Q 2731 4750 3128 4425 
Q 3525 4100 3525 3541 
Q 3525 3141 3298 2862 
Q 3072 2584 2669 2484 
Q 3125 2378 3379 2068 
Q 3634 1759 3634 1313 
Q 3634 634 3220 271 
Q 2806 -91 2034 -91 
Q 1263 -91 848 271 
Q 434 634 434 1313 
Q 434 1759 690 2068 
Q 947 2378 1403 2484 
z
M 1172 3481 
Q 1172 3119 1398 2916 
Q 1625 2713 2034 2713 
Q 2441 2713 2670 2916 
Q 2900 3119 2900 3481 
Q 2900 3844 2670 4047 
Q 2441 4250 2034 4250 
Q 1625 4250 1398 4047 
Q 1172 3844 1172 3481 
z
" transform="scale(0.015625)"/>
       </defs>
       <use xlink:href="#DejaVuSans-38"/>
       <use xlink:href="#DejaVuSans-30" transform="translate(63.623047 0)"/>
       <use xlink:href="#DejaVuSans-30" transform="translate(127.246094 0)"/>
      </g>
     </g>
    </g>
    <g id="ytick_6">
     <g id="line2d_54">
      <g>
       <use xlink:href="#m7fbd698ac3" x="57.17" y="78.889156" style="stroke: #000000; stroke-width: 0.8"/>
      </g>
     </g>
     <g id="text_20">
      <!-- 1000 -->
      <g transform="translate(24.72 82.688375) scale(0.1 -0.1)">
       <use xlink:href="#DejaVuSans-31"/>
       <use xlink:href="#DejaVuSans-30" transform="translate(63.623047 0)"/>
       <use xlink:href="#DejaVuSans-30" transform="translate(127.246094 0)"/>
       <use xlink:href="#DejaVuSans-30" transform="translate(190.869141 0)"/>
      </g>
     </g>
    </g>
    <g id="text_21">
     <!-- Percentage Change (%) -->
     <g transform="translate(18.640312 300.514644) rotate(-90) scale(0.1 -0.1)">
      <defs>
       <path id="DejaVuSans-50" d="M 1259 4147 
L 1259 2394 
L 2053 2394 
Q 2494 2394 2734 2622 
Q 2975 2850 2975 3272 
Q 2975 3691 2734 3919 
Q 2494 4147 2053 4147 
L 1259 4147 
z
M 628 4666 
L 2053 4666 
Q 2838 4666 3239 4311 
Q 3641 3956 3641 3272 
Q 3641 2581 3239 2228 
Q 2838 1875 2053 1875 
L 1259 1875 
L 1259 0 
L 628 0 
L 628 4666 
z
" transform="scale(0.015625)"/>
       <path id="DejaVuSans-72" d="M 2631 2963 
Q 2534 3019 2420 3045 
Q 2306 3072 2169 3072 
Q 1681 3072 1420 2755 
Q 1159 2438 1159 1844 
L 1159 0 
L 581 0 
L 581 3500 
L 1159 3500 
L 1159 2956 
Q 1341 3275 1631 3429 
Q 1922 3584 2338 3584 
Q 2397 3584 2469 3576 
Q 2541 3569 2628 3553 
L 2631 2963 
z
" transform="scale(0.015625)"/>
       <path id="DejaVuSans-63" d="M 3122 3366 
L 3122 2828 
Q 2878 2963 2633 3030 
Q 2388 3097 2138 3097 
Q 1578 3097 1268 2742 
Q 959 2388 959 1747 
Q 959 1106 1268 751 
Q 1578 397 2138 397 
Q 2388 397 2633 464 
Q 2878 531 3122 666 
L 3122 134 
Q 2881 22 2623 -34 
Q 2366 -91 2075 -91 
Q 1284 -91 818 406 
Q 353 903 353 1747 
Q 353 2603 823 3093 
Q 1294 3584 2113 3584 
Q 2378 3584 2631 3529 
Q 2884 3475 3122 3366 
z
" transform="scale(0.015625)"/>
       <path id="DejaVuSans-67" d="M 2906 1791 
Q 2906 2416 2648 2759 
Q 2391 3103 1925 3103 
Q 1463 3103 1205 2759 
Q 947 2416 947 1791 
Q 947 1169 1205 825 
Q 1463 481 1925 481 
Q 2391 481 2648 825 
Q 2906 1169 2906 1791 
z
M 3481 434 
Q 3481 -459 3084 -895 
Q 2688 -1331 1869 -1331 
Q 1566 -1331 1297 -1286 
Q 1028 -1241 775 -1147 
L 775 -588 
Q 1028 -725 1275 -790 
Q 1522 -856 1778 -856 
Q 2344 -856 2625 -561 
Q 2906 -266 2906 331 
L 2906 616 
Q 2728 306 2450 153 
Q 2172 0 1784 0 
Q 1141 0 747 490 
Q 353 981 353 1791 
Q 353 2603 747 3093 
Q 1141 3584 1784 3584 
Q 2172 3584 2450 3431 
Q 2728 3278 2906 2969 
L 2906 3500 
L 3481 3500 
L 3481 434 
z
" transform="scale(0.015625)"/>
       <path id="DejaVuSans-43" d="M 4122 4306 
L 4122 3641 
Q 3803 3938 3442 4084 
Q 3081 4231 2675 4231 
Q 1875 4231 1450 3742 
Q 1025 3253 1025 2328 
Q 1025 1406 1450 917 
Q 1875 428 2675 428 
Q 3081 428 3442 575 
Q 3803 722 4122 1019 
L 4122 359 
Q 3791 134 3420 21 
Q 3050 -91 2638 -91 
Q 1578 -91 968 557 
Q 359 1206 359 2328 
Q 359 3453 968 4101 
Q 1578 4750 2638 4750 
Q 3056 4750 3426 4639 
Q 3797 4528 4122 4306 
z
" transform="scale(0.015625)"/>
       <path id="DejaVuSans-68" d="M 3513 2113 
L 3513 0 
L 2938 0 
L 2938 2094 
Q 2938 2591 2744 2837 
Q 2550 3084 2163 3084 
Q 1697 3084 1428 2787 
Q 1159 2491 1159 1978 
L 1159 0 
L 581 0 
L 581 4863 
L 1159 4863 
L 1159 2956 
Q 1366 3272 1645 3428 
Q 1925 3584 2291 3584 
Q 2894 3584 3203 3211 
Q 3513 2838 3513 2113 
z
" transform="scale(0.015625)"/>
       <path id="DejaVuSans-28" d="M 1984 4856 
Q 1566 4138 1362 3434 
Q 1159 2731 1159 2009 
Q 1159 1288 1364 580 
Q 1569 -128 1984 -844 
L 1484 -844 
Q 1016 -109 783 600 
Q 550 1309 550 2009 
Q 550 2706 781 3412 
Q 1013 4119 1484 4856 
L 1984 4856 
z
" transform="scale(0.015625)"/>
       <path id="DejaVuSans-25" d="M 4653 2053 
Q 4381 2053 4226 1822 
Q 4072 1591 4072 1178 
Q 4072 772 4226 539 
Q 4381 306 4653 306 
Q 4919 306 5073 539 
Q 5228 772 5228 1178 
Q 5228 1588 5073 1820 
Q 4919 2053 4653 2053 
z
M 4653 2450 
Q 5147 2450 5437 2106 
Q 5728 1763 5728 1178 
Q 5728 594 5436 251 
Q 5144 -91 4653 -91 
Q 4153 -91 3862 251 
Q 3572 594 3572 1178 
Q 3572 1766 3864 2108 
Q 4156 2450 4653 2450 
z
M 1428 4353 
Q 1159 4353 1004 4120 
Q 850 3888 850 3481 
Q 850 3069 1003 2837 
Q 1156 2606 1428 2606 
Q 1700 2606 1854 2837 
Q 2009 3069 2009 3481 
Q 2009 3884 1853 4118 
Q 1697 4353 1428 4353 
z
M 4250 4750 
L 4750 4750 
L 1831 -91 
L 1331 -91 
L 4250 4750 
z
M 1428 4750 
Q 1922 4750 2215 4408 
Q 2509 4066 2509 3481 
Q 2509 2891 2217 2550 
Q 1925 2209 1428 2209 
Q 931 2209 642 2551 
Q 353 2894 353 3481 
Q 353 4063 643 4406 
Q 934 4750 1428 4750 
z
" transform="scale(0.015625)"/>
       <path id="DejaVuSans-29" d="M 513 4856 
L 1013 4856 
Q 1481 4119 1714 3412 
Q 1947 2706 1947 2009 
Q 1947 1309 1714 600 
Q 1481 -109 1013 -844 
L 513 -844 
Q 928 -128 1133 580 
Q 1338 1288 1338 2009 
Q 1338 2731 1133 3434 
Q 928 4138 513 4856 
z
" transform="scale(0.015625)"/>
      </defs>
      <use xlink:href="#DejaVuSans-50"/>
      <use xlink:href="#DejaVuSans-65" transform="translate(56.677734 0)"/>
      <use xlink:href="#DejaVuSans-72" transform="translate(118.201172 0)"/>
      <use xlink:href="#DejaVuSans-63" transform="translate(157.064453 0)"/>
      <use xlink:href="#DejaVuSans-65" transform="translate(212.044922 0)"/>
      <use xlink:href="#DejaVuSans-6e" transform="translate(273.568359 0)"/>
      <use xlink:href="#DejaVuSans-74" transform="translate(336.947266 0)"/>
      <use xlink:href="#DejaVuSans-61" transform="translate(376.15625 0)"/>
      <use xlink:href="#DejaVuSans-67" transform="translate(437.435547 0)"/>
      <use xlink:href="#DejaVuSans-65" transform="translate(500.912109 0)"/>
      <use xlink:href="#DejaVuSans-20" transform="translate(562.435547 0)"/>
      <use xlink:href="#DejaVuSans-43" transform="translate(594.222656 0)"/>
      <use xlink:href="#DejaVuSans-68" transform="translate(664.046875 0)"/>
      <use xlink:href="#DejaVuSans-61" transform="translate(727.425781 0)"/>
      <use xlink:href="#DejaVuSans-6e" transform="translate(788.705078 0)"/>
      <use xlink:href="#DejaVuSans-67" transform="translate(852.083984 0)"/>
      <use xlink:href="#DejaVuSans-65" transform="translate(915.560547 0)"/>
      <use xlink:href="#DejaVuSans-20" transform="translate(977.083984 0)"/>
      <use xlink:href="#DejaVuSans-28" transform="translate(1008.871094 0)"/>
      <use xlink:href="#DejaVuSans-25" transform="translate(1047.884766 0)"/>
      <use xlink:href="#DejaVuSans-29" transform="translate(1142.904297 0)"/>
     </g>
    </g>
   </g>
   <g id="line2d_55">
    <path d="M 57.17 403.946383 
L 853.2 403.946383 
" clip-path="url(#p5416a13ed8)" style="fill: none; stroke: #808080; stroke-width: 0.8; stroke-linecap: square"/>
   </g>
   <g id="patch_147">
    <path d="M 57.17 455.955539 
L 57.17 26.88 
" style="fill: none; stroke: #000000; stroke-width: 0.8; stroke-linejoin: miter; stroke-linecap: square"/>
   </g>
   <g id="patch_148">
    <path d="M 853.2 455.955539 
L 853.2 26.88 
" style="fill: none; stroke: #000000; stroke-width: 0.8; stroke-linejoin: miter; stroke-linecap: square"/>
   </g>
   <g id="patch_149">
    <path d="M 57.17 455.955539 
L 853.2 455.955539 
" style="fill: none; stroke: #000000; stroke-width: 0.8; stroke-linejoin: miter; stroke-linecap: square"/>
   </g>
   <g id="patch_150">
    <path d="M 57.17 26.88 
L 853.2 26.88 
" style="fill: none; stroke: #000000; stroke-width: 0.8; stroke-linejoin: miter; stroke-linecap: square"/>
   </g>
   <g id="text_22">
    <!-- Damian Lillard  (24-25 vs 23-24) -->
    <g transform="translate(339.939063 20.88) scale(0.12 -0.12)">
     <defs>
      <path id="DejaVuSans-44" d="M 1259 4147 
L 1259 519 
L 2022 519 
Q 2988 519 3436 956 
Q 3884 1394 3884 2338 
Q 3884 3275 3436 3711 
Q 2988 4147 2022 4147 
L 1259 4147 
z
M 628 4666 
L 1925 4666 
Q 3281 4666 3915 4102 
Q 4550 3538 4550 2338 
Q 4550 1131 3912 565 
Q 3275 0 1925 0 
L 628 0 
L 628 4666 
z
" transform="scale(0.015625)"/>
      <path id="DejaVuSans-4c" d="M 628 4666 
L 1259 4666 
L 1259 531 
L 3531 531 
L 3531 0 
L 628 0 
L 628 4666 
z
" transform="scale(0.015625)"/>
      <path id="DejaVuSans-6c" d="M 603 4863 
L 1178 4863 
L 1178 0 
L 603 0 
L 603 4863 
z
" transform="scale(0.015625)"/>
      <path id="DejaVuSans-64" d="M 2906 2969 
L 2906 4863 
L 3481 4863 
L 3481 0 
L 2906 0 
L 2906 525 
Q 2725 213 2448 61 
Q 2172 -91 1784 -91 
Q 1150 -91 751 415 
Q 353 922 353 1747 
Q 353 2572 751 3078 
Q 1150 3584 1784 3584 
Q 2172 3584 2448 3432 
Q 2725 3281 2906 2969 
z
M 947 1747 
Q 947 1113 1208 752 
Q 1469 391 1925 391 
Q 2381 391 2643 752 
Q 2906 1113 2906 1747 
Q 2906 2381 2643 2742 
Q 2381 3103 1925 3103 
Q 1469 3103 1208 2742 
Q 947 2381 947 1747 
z
" transform="scale(0.015625)"/>
      <path id="DejaVuSans-5f97" d="M 319 -1131 
L 319 4513 
L 3519 4513 
L 3519 -1131 
L 319 -1131 
z
M 678 -775 
L 3163 -775 
L 3163 4153 
L 678 4153 
L 678 -775 
z
" transform="scale(0.015625)"/>
      <path id="DejaVuSans-70b9" d="M 319 -1131 
L 319 4513 
L 3519 4513 
L 3519 -1131 
L 319 -1131 
z
M 678 -775 
L 3163 -775 
L 3163 4153 
L 678 4153 
L 678 -775 
z
" transform="scale(0.015625)"/>
      <path id="DejaVuSans-5897" d="M 319 -1131 
L 319 4513 
L 3519 4513 
L 3519 -1131 
L 319 -1131 
z
M 678 -775 
L 3163 -775 
L 3163 4153 
L 678 4153 
L 678 -775 
z
" transform="scale(0.015625)"/>
      <path id="DejaVuSans-6e1b" d="M 319 -1131 
L 319 4513 
L 3519 4513 
L 3519 -1131 
L 319 -1131 
z
M 678 -775 
L 3163 -775 
L 3163 4153 
L 678 4153 
L 678 -775 
z
" transform="scale(0.015625)"/>
      <path id="DejaVuSans-7387" d="M 319 -1131 
L 319 4513 
L 3519 4513 
L 3519 -1131 
L 319 -1131 
z
M 678 -775 
L 3163 -775 
L 3163 4153 
L 678 4153 
L 678 -775 
z
" transform="scale(0.015625)"/>
      <path id="DejaVuSans-2d" d="M 313 2009 
L 1997 2009 
L 1997 1497 
L 313 1497 
L 313 2009 
z
" transform="scale(0.015625)"/>
      <path id="DejaVuSans-76" d="M 191 3500 
L 800 3500 
L 1894 563 
L 2988 3500 
L 3597 3500 
L 2284 0 
L 1503 0 
L 191 3500 
z
" transform="scale(0.015625)"/>
      <path id="DejaVuSans-73" d="M 2834 3397 
L 2834 2853 
Q 2591 2978 2328 3040 
Q 2066 3103 1784 3103 
Q 1356 3103 1142 2972 
Q 928 2841 928 2578 
Q 928 2378 1081 2264 
Q 1234 2150 1697 2047 
L 1894 2003 
Q 2506 1872 2764 1633 
Q 3022 1394 3022 966 
Q 3022 478 2636 193 
Q 2250 -91 1575 -91 
Q 1294 -91 989 -36 
Q 684 19 347 128 
L 347 722 
Q 666 556 975 473 
Q 1284 391 1588 391 
Q 1994 391 2212 530 
Q 2431 669 2431 922 
Q 2431 1156 2273 1281 
Q 2116 1406 1581 1522 
L 1381 1569 
Q 847 1681 609 1914 
Q 372 2147 372 2553 
Q 372 3047 722 3315 
Q 1072 3584 1716 3584 
Q 2034 3584 2315 3537 
Q 2597 3491 2834 3397 
z
" transform="scale(0.015625)"/>
     </defs>
     <use xlink:href="#DejaVuSans-44"/>
     <use xlink:href="#DejaVuSans-61" transform="translate(77.001953 0)"/>
     <use xlink:href="#DejaVuSans-6d" transform="translate(138.28125 0)"/>
     <use xlink:href="#DejaVuSans-69" transform="translate(235.693359 0)"/>
     <use xlink:href="#DejaVuSans-61" transform="translate(263.476562 0)"/>
     <use xlink:href="#DejaVuSans-6e" transform="translate(324.755859 0)"/>
     <use xlink:href="#DejaVuSans-20" transform="translate(388.134766 0)"/>
     <use xlink:href="#DejaVuSans-4c" transform="translate(419.921875 0)"/>
     <use xlink:href="#DejaVuSans-69" transform="translate(475.634766 0)"/>
     <use xlink:href="#DejaVuSans-6c" transform="translate(503.417969 0)"/>
     <use xlink:href="#DejaVuSans-6c" transform="translate(531.201172 0)"/>
     <use xlink:href="#DejaVuSans-61" transform="translate(558.984375 0)"/>
     <use xlink:href="#DejaVuSans-72" transform="translate(620.263672 0)"/>
     <use xlink:href="#DejaVuSans-64" transform="translate(659.626953 0)"/>
     <use xlink:href="#DejaVuSans-20" transform="translate(723.103516 0)"/>
     <use xlink:href="#DejaVuSans-5f97" transform="translate(754.890625 0)"/>
     <use xlink:href="#DejaVuSans-70b9" transform="translate(814.900391 0)"/>
     <use xlink:href="#DejaVuSans-5897" transform="translate(874.910156 0)"/>
     <use xlink:href="#DejaVuSans-6e1b" transform="translate(934.919922 0)"/>
     <use xlink:href="#DejaVuSans-7387" transform="translate(994.929688 0)"/>
     <use xlink:href="#DejaVuSans-20" transform="translate(1054.939453 0)"/>
     <use xlink:href="#DejaVuSans-28" transform="translate(1086.726562 0)"/>
     <use xlink:href="#DejaVuSans-32" transform="translate(1125.740234 0)"/>
     <use xlink:href="#DejaVuSans-34" transform="translate(1189.363281 0)"/>
     <use xlink:href="#DejaVuSans-2d" transform="translate(1252.986328 0)"/>
     <use xlink:href="#DejaVuSans-32" transform="translate(1289.070312 0)"/>
     <use xlink:href="#DejaVuSans-35" transform="translate(1352.693359 0)"/>
     <use xlink:href="#DejaVuSans-20" transform="translate(1416.316406 0)"/>
     <use xlink:href="#DejaVuSans-76" transform="translate(1448.103516 0)"/>
     <use xlink:href="#DejaVuSans-73" transform="translate(1507.283203 0)"/>
     <use xlink:href="#DejaVuSans-20" transform="translate(1559.382812 0)"/>
     <use xlink:href="#DejaVuSans-32" transform="translate(1591.169922 0)"/>
     <use xlink:href="#DejaVuSans-33" transform="translate(1654.792969 0)"/>
     <use xlink:href="#DejaVuSans-2d" transform="translate(1718.416016 0)"/>
     <use xlink:href="#DejaVuSans-32" transform="translate(1754.5 0)"/>
     <use xlink:href="#DejaVuSans-34" transform="translate(1818.123047 0)"/>
     <use xlink:href="#DejaVuSans-29" transform="translate(1881.746094 0)"/>
    </g>
   </g>
   <g id="legend_1">
    <g id="patch_151">
     <path d="M 793.33125 93.5925 
L 846.2 93.5925 
Q 848.2 93.5925 848.2 91.5925 
L 848.2 33.88 
Q 848.2 31.88 846.2 31.88 
L 793.33125 31.88 
Q 791.33125 31.88 791.33125 33.88 
L 791.33125 91.5925 
Q 791.33125 93.5925 793.33125 93.5925 
z
" style="fill: #ffffff; opacity: 0.8; stroke: #cccccc; stroke-linejoin: miter"/>
    </g>
    <g id="text_23">
     <!-- Shot Type -->
     <g transform="translate(795.33125 43.478437) scale(0.1 -0.1)">
      <defs>
       <path id="DejaVuSans-53" d="M 3425 4513 
L 3425 3897 
Q 3066 4069 2747 4153 
Q 2428 4238 2131 4238 
Q 1616 4238 1336 4038 
Q 1056 3838 1056 3469 
Q 1056 3159 1242 3001 
Q 1428 2844 1947 2747 
L 2328 2669 
Q 3034 2534 3370 2195 
Q 3706 1856 3706 1288 
Q 3706 609 3251 259 
Q 2797 -91 1919 -91 
Q 1588 -91 1214 -16 
Q 841 59 441 206 
L 441 856 
Q 825 641 1194 531 
Q 1563 422 1919 422 
Q 2459 422 2753 634 
Q 3047 847 3047 1241 
Q 3047 1584 2836 1778 
Q 2625 1972 2144 2069 
L 1759 2144 
Q 1053 2284 737 2584 
Q 422 2884 422 3419 
Q 422 4038 858 4394 
Q 1294 4750 2059 4750 
Q 2388 4750 2728 4690 
Q 3069 4631 3425 4513 
z
" transform="scale(0.015625)"/>
       <path id="DejaVuSans-6f" d="M 1959 3097 
Q 1497 3097 1228 2736 
Q 959 2375 959 1747 
Q 959 1119 1226 758 
Q 1494 397 1959 397 
Q 2419 397 2687 759 
Q 2956 1122 2956 1747 
Q 2956 2369 2687 2733 
Q 2419 3097 1959 3097 
z
M 1959 3584 
Q 2709 3584 3137 3096 
Q 3566 2609 3566 1747 
Q 3566 888 3137 398 
Q 2709 -91 1959 -91 
Q 1206 -91 779 398 
Q 353 888 353 1747 
Q 353 2609 779 3096 
Q 1206 3584 1959 3584 
z
" transform="scale(0.015625)"/>
       <path id="DejaVuSans-54" d="M -19 4666 
L 3928 4666 
L 3928 4134 
L 2272 4134 
L 2272 0 
L 1638 0 
L 1638 4134 
L -19 4134 
L -19 4666 
z
" transform="scale(0.015625)"/>
       <path id="DejaVuSans-79" d="M 2059 -325 
Q 1816 -950 1584 -1140 
Q 1353 -1331 966 -1331 
L 506 -1331 
L 506 -850 
L 844 -850 
Q 1081 -850 1212 -737 
Q 1344 -625 1503 -206 
L 1606 56 
L 191 3500 
L 800 3500 
L 1894 763 
L 2988 3500 
L 3597 3500 
L 2059 -325 
z
" transform="scale(0.015625)"/>
       <path id="DejaVuSans-70" d="M 1159 525 
L 1159 -1331 
L 581 -1331 
L 581 3500 
L 1159 3500 
L 1159 2969 
Q 1341 3281 1617 3432 
Q 1894 3584 2278 3584 
Q 2916 3584 3314 3078 
Q 3713 2572 3713 1747 
Q 3713 922 3314 415 
Q 2916 -91 2278 -91 
Q 1894 -91 1617 61 
Q 1341 213 1159 525 
z
M 3116 1747 
Q 3116 2381 2855 2742 
Q 2594 3103 2138 3103 
Q 1681 3103 1420 2742 
Q 1159 2381 1159 1747 
Q 1159 1113 1420 752 
Q 1681 391 2138 391 
Q 2594 391 2855 752 
Q 3116 1113 3116 1747 
z
" transform="scale(0.015625)"/>
      </defs>
      <use xlink:href="#DejaVuSans-53"/>
      <use xlink:href="#DejaVuSans-68" transform="translate(63.476562 0)"/>
      <use xlink:href="#DejaVuSans-6f" transform="translate(126.855469 0)"/>
      <use xlink:href="#DejaVuSans-74" transform="translate(188.037109 0)"/>
      <use xlink:href="#DejaVuSans-20" transform="translate(227.246094 0)"/>
      <use xlink:href="#DejaVuSans-54" transform="translate(259.033203 0)"/>
      <use xlink:href="#DejaVuSans-79" transform="translate(304.492188 0)"/>
      <use xlink:href="#DejaVuSans-70" transform="translate(363.671875 0)"/>
      <use xlink:href="#DejaVuSans-65" transform="translate(427.148438 0)"/>
     </g>
    </g>
    <g id="patch_152">
     <path d="M 796.515625 58.156563 
L 816.515625 58.156563 
L 816.515625 51.156563 
L 796.515625 51.156563 
z
" style="fill: #ffc107"/>
    </g>
    <g id="text_24">
     <!-- FT -->
     <g transform="translate(824.515625 58.156563) scale(0.1 -0.1)">
      <defs>
       <path id="DejaVuSans-46" d="M 628 4666 
L 3309 4666 
L 3309 4134 
L 1259 4134 
L 1259 2759 
L 3109 2759 
L 3109 2228 
L 1259 2228 
L 1259 0 
L 628 0 
L 628 4666 
z
" transform="scale(0.015625)"/>
      </defs>
      <use xlink:href="#DejaVuSans-46"/>
      <use xlink:href="#DejaVuSans-54" transform="translate(55.769531 0)"/>
     </g>
    </g>
    <g id="patch_153">
     <path d="M 796.515625 72.834688 
L 816.515625 72.834688 
L 816.515625 65.834688 
L 796.515625 65.834688 
z
" style="fill: #2196f3"/>
    </g>
    <g id="text_25">
     <!-- 2PT -->
     <g transform="translate(824.515625 72.834688) scale(0.1 -0.1)">
      <use xlink:href="#DejaVuSans-32"/>
      <use xlink:href="#DejaVuSans-50" transform="translate(63.623047 0)"/>
      <use xlink:href="#DejaVuSans-54" transform="translate(123.925781 0)"/>
     </g>
    </g>
    <g id="patch_154">
     <path d="M 796.515625 87.512812 
L 816.515625 87.512812 
L 816.515625 80.512812 
L 796.515625 80.512812 
z
" style="fill: #4caf50"/>
    </g>
    <g id="text_26">
     <!-- 3PT -->
     <g transform="translate(824.515625 87.512812) scale(0.1 -0.1)">
      <use xlink:href="#DejaVuSans-33"/>
      <use xlink:href="#DejaVuSans-50" transform="translate(63.623047 0)"/>
      <use xlink:href="#DejaVuSans-54" transform="translate(123.925781 0)"/>
     </g>
    </g>
   </g>
  </g>
 </g>
 <defs>
  <clipPath id="p5416a13ed8">
   <rect x="57.17" y="26.88" width="796.03" height="429.075539"/>
  </clipPath>
 </defs>
</svg>
