<?xml version="1.0" encoding="utf-8" standalone="no"?>
<!DOCTYPE svg PUBLIC "-//W3C//DTD SVG 1.1//EN"
  "http://www.w3.org/Graphics/SVG/1.1/DTD/svg11.dtd">
<svg xmlns:xlink="http://www.w3.org/1999/xlink" width="864pt" height="432pt" viewBox="0 0 864 432" xmlns="http://www.w3.org/2000/svg" version="1.1">
 <metadata>
  <rdf:RDF xmlns:dc="http://purl.org/dc/elements/1.1/" xmlns:cc="http://creativecommons.org/ns#" xmlns:rdf="http://www.w3.org/1999/02/22-rdf-syntax-ns#">
   <cc:Work>
    <dc:type rdf:resource="http://purl.org/dc/dcmitype/StillImage"/>
    <dc:date>2025-08-24T10:46:32.896885</dc:date>
    <dc:format>image/svg+xml</dc:format>
    <dc:creator>
     <cc:Agent>
      <dc:title>Matplotlib v3.10.5, https://matplotlib.org/</dc:title>
     </cc:Agent>
    </dc:creator>
   </cc:Work>
  </rdf:RDF>
 </metadata>
 <defs>
  <style type="text/css">*{stroke-linejoin: round; stroke-linecap: butt}</style>
 </defs>
 <g id="figure_1">
  <g id="patch_1">
   <path d="M 0 432 
L 864 432 
L 864 0 
L 0 0 
z
" style="fill: #ffffff"/>
  </g>
  <g id="axes_1">
   <g id="patch_2">
    <path d="M 53.75 387.16 
L 853.2 387.16 
L 853.2 28.32 
L 53.75 28.32 
z
" style="fill: #ffffff"/>
   </g>
   <g id="patch_3">
    <path d="M 53.75 387.16 
L 70.065306 387.16 
L 70.065306 322.064308 
L 53.75 322.064308 
z
" clip-path="url(#pa84bcd32e4)" style="fill: #ef4444"/>
   </g>
   <g id="patch_4">
    <path d="M 70.065306 387.16 
L 86.380612 387.16 
L 86.380612 322.064308 
L 70.065306 322.064308 
z
" clip-path="url(#pa84bcd32e4)" style="fill: #ef4444"/>
   </g>
   <g id="patch_5">
    <path d="M 86.380612 387.16 
L 102.695918 387.16 
L 102.695918 354.612154 
L 86.380612 354.612154 
z
" clip-path="url(#pa84bcd32e4)" style="fill: #ef4444"/>
   </g>
   <g id="patch_6">
    <path d="M 102.695918 387.16 
L 119.011224 387.16 
L 119.011224 273.24254 
L 102.695918 273.24254 
z
" clip-path="url(#pa84bcd32e4)" style="fill: #ef4444"/>
   </g>
   <g id="patch_7">
    <path d="M 119.011224 387.16 
L 135.326531 387.16 
L 135.326531 338.338231 
L 119.011224 338.338231 
z
" clip-path="url(#pa84bcd32e4)" style="fill: #ef4444"/>
   </g>
   <g id="patch_8">
    <path d="M 135.326531 387.16 
L 151.641837 387.16 
L 151.641837 240.694694 
L 135.326531 240.694694 
z
" clip-path="url(#pa84bcd32e4)" style="fill: #ef4444"/>
   </g>
   <g id="patch_9">
    <path d="M 151.641837 387.16 
L 167.957143 387.16 
L 167.957143 322.064308 
L 151.641837 322.064308 
z
" clip-path="url(#pa84bcd32e4)" style="fill: #ef4444"/>
   </g>
   <g id="patch_10">
    <path d="M 167.957143 387.16 
L 184.272449 387.16 
L 184.272449 338.338231 
L 167.957143 338.338231 
z
" clip-path="url(#pa84bcd32e4)" style="fill: #ef4444"/>
   </g>
   <g id="patch_11">
    <path d="M 184.272449 387.16 
L 200.587755 387.16 
L 200.587755 354.612154 
L 184.272449 354.612154 
z
" clip-path="url(#pa84bcd32e4)" style="fill: #ef4444"/>
   </g>
   <g id="patch_12">
    <path d="M 200.587755 387.16 
L 216.903061 387.16 
L 216.903061 354.612154 
L 200.587755 354.612154 
z
" clip-path="url(#pa84bcd32e4)" style="fill: #ef4444"/>
   </g>
   <g id="patch_13">
    <path d="M 216.903061 387.16 
L 233.218367 387.16 
L 233.218367 387.16 
L 216.903061 387.16 
z
" clip-path="url(#pa84bcd32e4)" style="fill: #ef4444"/>
   </g>
   <g id="patch_14">
    <path d="M 233.218367 387.16 
L 249.533673 387.16 
L 249.533673 387.16 
L 233.218367 387.16 
z
" clip-path="url(#pa84bcd32e4)" style="fill: #ef4444"/>
   </g>
   <g id="patch_15">
    <path d="M 249.533673 387.16 
L 265.84898 387.16 
L 265.84898 387.16 
L 249.533673 387.16 
z
" clip-path="url(#pa84bcd32e4)" style="fill: #ef4444"/>
   </g>
   <g id="patch_16">
    <path d="M 265.84898 387.16 
L 282.164286 387.16 
L 282.164286 387.16 
L 265.84898 387.16 
z
" clip-path="url(#pa84bcd32e4)" style="fill: #ef4444"/>
   </g>
   <g id="patch_17">
    <path d="M 282.164286 387.16 
L 298.479592 387.16 
L 298.479592 387.16 
L 282.164286 387.16 
z
" clip-path="url(#pa84bcd32e4)" style="fill: #ef4444"/>
   </g>
   <g id="patch_18">
    <path d="M 298.479592 387.16 
L 314.794898 387.16 
L 314.794898 387.16 
L 298.479592 387.16 
z
" clip-path="url(#pa84bcd32e4)" style="fill: #ef4444"/>
   </g>
   <g id="patch_19">
    <path d="M 314.794898 387.16 
L 331.110204 387.16 
L 331.110204 354.612154 
L 314.794898 354.612154 
z
" clip-path="url(#pa84bcd32e4)" style="fill: #ef4444"/>
   </g>
   <g id="patch_20">
    <path d="M 331.110204 387.16 
L 347.42551 387.16 
L 347.42551 338.338231 
L 331.110204 338.338231 
z
" clip-path="url(#pa84bcd32e4)" style="fill: #ef4444"/>
   </g>
   <g id="patch_21">
    <path d="M 347.42551 387.16 
L 363.740816 387.16 
L 363.740816 322.064308 
L 347.42551 322.064308 
z
" clip-path="url(#pa84bcd32e4)" style="fill: #ef4444"/>
   </g>
   <g id="patch_22">
    <path d="M 363.740816 387.16 
L 380.056122 387.16 
L 380.056122 370.886077 
L 363.740816 370.886077 
z
" clip-path="url(#pa84bcd32e4)" style="fill: #ef4444"/>
   </g>
   <g id="patch_23">
    <path d="M 380.056122 387.16 
L 396.371429 387.16 
L 396.371429 305.790385 
L 380.056122 305.790385 
z
" clip-path="url(#pa84bcd32e4)" style="fill: #ef4444"/>
   </g>
   <g id="patch_24">
    <path d="M 396.371429 387.16 
L 412.686735 387.16 
L 412.686735 354.612154 
L 396.371429 354.612154 
z
" clip-path="url(#pa84bcd32e4)" style="fill: #ef4444"/>
   </g>
   <g id="patch_25">
    <path d="M 412.686735 387.16 
L 429.002041 387.16 
L 429.002041 273.24254 
L 412.686735 273.24254 
z
" clip-path="url(#pa84bcd32e4)" style="fill: #ef4444"/>
   </g>
   <g id="patch_26">
    <path d="M 429.002041 387.16 
L 445.317347 387.16 
L 445.317347 322.064308 
L 429.002041 322.064308 
z
" clip-path="url(#pa84bcd32e4)" style="fill: #ef4444"/>
   </g>
   <g id="patch_27">
    <path d="M 445.317347 387.16 
L 461.632653 387.16 
L 461.632653 322.064308 
L 445.317347 322.064308 
z
" clip-path="url(#pa84bcd32e4)" style="fill: #ef4444"/>
   </g>
   <g id="patch_28">
    <path d="M 461.632653 387.16 
L 477.947959 387.16 
L 477.947959 273.24254 
L 461.632653 273.24254 
z
" clip-path="url(#pa84bcd32e4)" style="fill: #ef4444"/>
   </g>
   <g id="patch_29">
    <path d="M 477.947959 387.16 
L 494.263265 387.16 
L 494.263265 289.516463 
L 477.947959 289.516463 
z
" clip-path="url(#pa84bcd32e4)" style="fill: #ef4444"/>
   </g>
   <g id="patch_30">
    <path d="M 494.263265 387.16 
L 510.578571 387.16 
L 510.578571 338.338231 
L 494.263265 338.338231 
z
" clip-path="url(#pa84bcd32e4)" style="fill: #ef4444"/>
   </g>
   <g id="patch_31">
    <path d="M 510.578571 387.16 
L 526.893878 387.16 
L 526.893878 322.064308 
L 510.578571 322.064308 
z
" clip-path="url(#pa84bcd32e4)" style="fill: #ef4444"/>
   </g>
   <g id="patch_32">
    <path d="M 526.893878 387.16 
L 543.209184 387.16 
L 543.209184 289.516463 
L 526.893878 289.516463 
z
" clip-path="url(#pa84bcd32e4)" style="fill: #ef4444"/>
   </g>
   <g id="patch_33">
    <path d="M 543.209184 387.16 
L 559.52449 387.16 
L 559.52449 338.338231 
L 543.209184 338.338231 
z
" clip-path="url(#pa84bcd32e4)" style="fill: #ef4444"/>
   </g>
   <g id="patch_34">
    <path d="M 559.52449 387.16 
L 575.839796 387.16 
L 575.839796 354.612154 
L 559.52449 354.612154 
z
" clip-path="url(#pa84bcd32e4)" style="fill: #ef4444"/>
   </g>
   <g id="patch_35">
    <path d="M 575.839796 387.16 
L 592.155102 387.16 
L 592.155102 338.338231 
L 575.839796 338.338231 
z
" clip-path="url(#pa84bcd32e4)" style="fill: #ef4444"/>
   </g>
   <g id="patch_36">
    <path d="M 592.155102 387.16 
L 608.470408 387.16 
L 608.470408 387.16 
L 592.155102 387.16 
z
" clip-path="url(#pa84bcd32e4)" style="fill: #ef4444"/>
   </g>
   <g id="patch_37">
    <path d="M 608.470408 387.16 
L 624.785714 387.16 
L 624.785714 387.16 
L 608.470408 387.16 
z
" clip-path="url(#pa84bcd32e4)" style="fill: #ef4444"/>
   </g>
   <g id="patch_38">
    <path d="M 624.785714 387.16 
L 641.10102 387.16 
L 641.10102 387.16 
L 624.785714 387.16 
z
" clip-path="url(#pa84bcd32e4)" style="fill: #ef4444"/>
   </g>
   <g id="patch_39">
    <path d="M 641.10102 387.16 
L 657.416327 387.16 
L 657.416327 370.886077 
L 641.10102 370.886077 
z
" clip-path="url(#pa84bcd32e4)" style="fill: #ef4444"/>
   </g>
   <g id="patch_40">
    <path d="M 657.416327 387.16 
L 673.731633 387.16 
L 673.731633 387.16 
L 657.416327 387.16 
z
" clip-path="url(#pa84bcd32e4)" style="fill: #ef4444"/>
   </g>
   <g id="patch_41">
    <path d="M 673.731633 387.16 
L 690.046939 387.16 
L 690.046939 387.16 
L 673.731633 387.16 
z
" clip-path="url(#pa84bcd32e4)" style="fill: #ef4444"/>
   </g>
   <g id="patch_42">
    <path d="M 690.046939 387.16 
L 706.362245 387.16 
L 706.362245 370.886077 
L 690.046939 370.886077 
z
" clip-path="url(#pa84bcd32e4)" style="fill: #ef4444"/>
   </g>
   <g id="patch_43">
    <path d="M 706.362245 387.16 
L 722.677551 387.16 
L 722.677551 370.886077 
L 706.362245 370.886077 
z
" clip-path="url(#pa84bcd32e4)" style="fill: #ef4444"/>
   </g>
   <g id="patch_44">
    <path d="M 722.677551 387.16 
L 738.992857 387.16 
L 738.992857 354.612154 
L 722.677551 354.612154 
z
" clip-path="url(#pa84bcd32e4)" style="fill: #ef4444"/>
   </g>
   <g id="patch_45">
    <path d="M 738.992857 387.16 
L 755.308163 387.16 
L 755.308163 322.064308 
L 738.992857 322.064308 
z
" clip-path="url(#pa84bcd32e4)" style="fill: #ef4444"/>
   </g>
   <g id="patch_46">
    <path d="M 755.308163 387.16 
L 771.623469 387.16 
L 771.623469 322.064308 
L 755.308163 322.064308 
z
" clip-path="url(#pa84bcd32e4)" style="fill: #ef4444"/>
   </g>
   <g id="patch_47">
    <path d="M 771.623469 387.16 
L 787.938776 387.16 
L 787.938776 338.338231 
L 771.623469 338.338231 
z
" clip-path="url(#pa84bcd32e4)" style="fill: #ef4444"/>
   </g>
   <g id="patch_48">
    <path d="M 787.938776 387.16 
L 804.254082 387.16 
L 804.254082 370.886077 
L 787.938776 370.886077 
z
" clip-path="url(#pa84bcd32e4)" style="fill: #ef4444"/>
   </g>
   <g id="patch_49">
    <path d="M 804.254082 387.16 
L 820.569388 387.16 
L 820.569388 354.612154 
L 804.254082 354.612154 
z
" clip-path="url(#pa84bcd32e4)" style="fill: #ef4444"/>
   </g>
   <g id="patch_50">
    <path d="M 820.569388 387.16 
L 836.884694 387.16 
L 836.884694 338.338231 
L 820.569388 338.338231 
z
" clip-path="url(#pa84bcd32e4)" style="fill: #ef4444"/>
   </g>
   <g id="patch_51">
    <path d="M 53.75 322.064308 
L 70.065306 322.064308 
L 70.065306 213.571489 
L 53.75 213.571489 
z
" clip-path="url(#pa84bcd32e4)" style="fill: #3b82f6"/>
   </g>
   <g id="patch_52">
    <path d="M 70.065306 322.064308 
L 86.380612 322.064308 
L 86.380612 181.023643 
L 70.065306 181.023643 
z
" clip-path="url(#pa84bcd32e4)" style="fill: #3b82f6"/>
   </g>
   <g id="patch_53">
    <path d="M 86.380612 354.612154 
L 102.695918 354.612154 
L 102.695918 50.83226 
L 86.380612 50.83226 
z
" clip-path="url(#pa84bcd32e4)" style="fill: #3b82f6"/>
   </g>
   <g id="patch_54">
    <path d="M 102.695918 273.24254 
L 119.011224 273.24254 
L 119.011224 143.051156 
L 102.695918 143.051156 
z
" clip-path="url(#pa84bcd32e4)" style="fill: #3b82f6"/>
   </g>
   <g id="patch_55">
    <path d="M 119.011224 338.338231 
L 135.326531 338.338231 
L 135.326531 164.74972 
L 119.011224 164.74972 
z
" clip-path="url(#pa84bcd32e4)" style="fill: #3b82f6"/>
   </g>
   <g id="patch_56">
    <path d="M 135.326531 240.694694 
L 151.641837 240.694694 
L 151.641837 110.503311 
L 135.326531 110.503311 
z
" clip-path="url(#pa84bcd32e4)" style="fill: #3b82f6"/>
   </g>
   <g id="patch_57">
    <path d="M 151.641837 322.064308 
L 167.957143 322.064308 
L 167.957143 191.872925 
L 151.641837 191.872925 
z
" clip-path="url(#pa84bcd32e4)" style="fill: #3b82f6"/>
   </g>
   <g id="patch_58">
    <path d="M 167.957143 338.338231 
L 184.272449 338.338231 
L 184.272449 110.503311 
L 167.957143 110.503311 
z
" clip-path="url(#pa84bcd32e4)" style="fill: #3b82f6"/>
   </g>
   <g id="patch_59">
    <path d="M 184.272449 354.612154 
L 200.587755 354.612154 
L 200.587755 235.270053 
L 184.272449 235.270053 
z
" clip-path="url(#pa84bcd32e4)" style="fill: #3b82f6"/>
   </g>
   <g id="patch_60">
    <path d="M 200.587755 354.612154 
L 216.903061 354.612154 
L 216.903061 343.762872 
L 200.587755 343.762872 
z
" clip-path="url(#pa84bcd32e4)" style="fill: #3b82f6"/>
   </g>
   <g id="patch_61">
    <path d="M 216.903061 387.16 
L 233.218367 387.16 
L 233.218367 376.310718 
L 216.903061 376.310718 
z
" clip-path="url(#pa84bcd32e4)" style="fill: #3b82f6"/>
   </g>
   <g id="patch_62">
    <path d="M 233.218367 387.16 
L 249.533673 387.16 
L 249.533673 376.310718 
L 233.218367 376.310718 
z
" clip-path="url(#pa84bcd32e4)" style="fill: #3b82f6"/>
   </g>
   <g id="patch_63">
    <path d="M 249.533673 387.16 
L 265.84898 387.16 
L 265.84898 387.16 
L 249.533673 387.16 
z
" clip-path="url(#pa84bcd32e4)" style="fill: #3b82f6"/>
   </g>
   <g id="patch_64">
    <path d="M 265.84898 387.16 
L 282.164286 387.16 
L 282.164286 387.16 
L 265.84898 387.16 
z
" clip-path="url(#pa84bcd32e4)" style="fill: #3b82f6"/>
   </g>
   <g id="patch_65">
    <path d="M 282.164286 387.16 
L 298.479592 387.16 
L 298.479592 376.310718 
L 282.164286 376.310718 
z
" clip-path="url(#pa84bcd32e4)" style="fill: #3b82f6"/>
   </g>
   <g id="patch_66">
    <path d="M 298.479592 387.16 
L 314.794898 387.16 
L 314.794898 376.310718 
L 298.479592 376.310718 
z
" clip-path="url(#pa84bcd32e4)" style="fill: #3b82f6"/>
   </g>
   <g id="patch_67">
    <path d="M 314.794898 354.612154 
L 331.110204 354.612154 
L 331.110204 311.215026 
L 314.794898 311.215026 
z
" clip-path="url(#pa84bcd32e4)" style="fill: #3b82f6"/>
   </g>
   <g id="patch_68">
    <path d="M 331.110204 338.338231 
L 347.42551 338.338231 
L 347.42551 262.393258 
L 331.110204 262.393258 
z
" clip-path="url(#pa84bcd32e4)" style="fill: #3b82f6"/>
   </g>
   <g id="patch_69">
    <path d="M 347.42551 322.064308 
L 363.740816 322.064308 
L 363.740816 137.626515 
L 347.42551 137.626515 
z
" clip-path="url(#pa84bcd32e4)" style="fill: #3b82f6"/>
   </g>
   <g id="patch_70">
    <path d="M 363.740816 370.886077 
L 380.056122 370.886077 
L 380.056122 229.845412 
L 363.740816 229.845412 
z
" clip-path="url(#pa84bcd32e4)" style="fill: #3b82f6"/>
   </g>
   <g id="patch_71">
    <path d="M 380.056122 305.790385 
L 396.371429 305.790385 
L 396.371429 88.804747 
L 380.056122 88.804747 
z
" clip-path="url(#pa84bcd32e4)" style="fill: #3b82f6"/>
   </g>
   <g id="patch_72">
    <path d="M 396.371429 354.612154 
L 412.686735 354.612154 
L 412.686735 224.420771 
L 396.371429 224.420771 
z
" clip-path="url(#pa84bcd32e4)" style="fill: #3b82f6"/>
   </g>
   <g id="patch_73">
    <path d="M 412.686735 273.24254 
L 429.002041 273.24254 
L 429.002041 132.201875 
L 412.686735 132.201875 
z
" clip-path="url(#pa84bcd32e4)" style="fill: #3b82f6"/>
   </g>
   <g id="patch_74">
    <path d="M 429.002041 322.064308 
L 445.317347 322.064308 
L 445.317347 159.325079 
L 429.002041 159.325079 
z
" clip-path="url(#pa84bcd32e4)" style="fill: #3b82f6"/>
   </g>
   <g id="patch_75">
    <path d="M 445.317347 322.064308 
L 461.632653 322.064308 
L 461.632653 148.475797 
L 445.317347 148.475797 
z
" clip-path="url(#pa84bcd32e4)" style="fill: #3b82f6"/>
   </g>
   <g id="patch_76">
    <path d="M 461.632653 273.24254 
L 477.947959 273.24254 
L 477.947959 132.201875 
L 461.632653 132.201875 
z
" clip-path="url(#pa84bcd32e4)" style="fill: #3b82f6"/>
   </g>
   <g id="patch_77">
    <path d="M 477.947959 289.516463 
L 494.263265 289.516463 
L 494.263265 148.475797 
L 477.947959 148.475797 
z
" clip-path="url(#pa84bcd32e4)" style="fill: #3b82f6"/>
   </g>
   <g id="patch_78">
    <path d="M 494.263265 338.338231 
L 510.578571 338.338231 
L 510.578571 218.99613 
L 494.263265 218.99613 
z
" clip-path="url(#pa84bcd32e4)" style="fill: #3b82f6"/>
   </g>
   <g id="patch_79">
    <path d="M 510.578571 322.064308 
L 526.893878 322.064308 
L 526.893878 256.968617 
L 510.578571 256.968617 
z
" clip-path="url(#pa84bcd32e4)" style="fill: #3b82f6"/>
   </g>
   <g id="patch_80">
    <path d="M 526.893878 289.516463 
L 543.209184 289.516463 
L 543.209184 170.174361 
L 526.893878 170.174361 
z
" clip-path="url(#pa84bcd32e4)" style="fill: #3b82f6"/>
   </g>
   <g id="patch_81">
    <path d="M 543.209184 338.338231 
L 559.52449 338.338231 
L 559.52449 164.74972 
L 543.209184 164.74972 
z
" clip-path="url(#pa84bcd32e4)" style="fill: #3b82f6"/>
   </g>
   <g id="patch_82">
    <path d="M 559.52449 354.612154 
L 575.839796 354.612154 
L 575.839796 181.023643 
L 559.52449 181.023643 
z
" clip-path="url(#pa84bcd32e4)" style="fill: #3b82f6"/>
   </g>
   <g id="patch_83">
    <path d="M 575.839796 338.338231 
L 592.155102 338.338231 
L 592.155102 273.24254 
L 575.839796 273.24254 
z
" clip-path="url(#pa84bcd32e4)" style="fill: #3b82f6"/>
   </g>
   <g id="patch_84">
    <path d="M 592.155102 387.16 
L 608.470408 387.16 
L 608.470408 376.310718 
L 592.155102 376.310718 
z
" clip-path="url(#pa84bcd32e4)" style="fill: #3b82f6"/>
   </g>
   <g id="patch_85">
    <path d="M 608.470408 387.16 
L 624.785714 387.16 
L 624.785714 365.461436 
L 608.470408 365.461436 
z
" clip-path="url(#pa84bcd32e4)" style="fill: #3b82f6"/>
   </g>
   <g id="patch_86">
    <path d="M 624.785714 387.16 
L 641.10102 387.16 
L 641.10102 387.16 
L 624.785714 387.16 
z
" clip-path="url(#pa84bcd32e4)" style="fill: #3b82f6"/>
   </g>
   <g id="patch_87">
    <path d="M 641.10102 370.886077 
L 657.416327 370.886077 
L 657.416327 370.886077 
L 641.10102 370.886077 
z
" clip-path="url(#pa84bcd32e4)" style="fill: #3b82f6"/>
   </g>
   <g id="patch_88">
    <path d="M 657.416327 387.16 
L 673.731633 387.16 
L 673.731633 376.310718 
L 657.416327 376.310718 
z
" clip-path="url(#pa84bcd32e4)" style="fill: #3b82f6"/>
   </g>
   <g id="patch_89">
    <path d="M 673.731633 387.16 
L 690.046939 387.16 
L 690.046939 376.310718 
L 673.731633 376.310718 
z
" clip-path="url(#pa84bcd32e4)" style="fill: #3b82f6"/>
   </g>
   <g id="patch_90">
    <path d="M 690.046939 370.886077 
L 706.362245 370.886077 
L 706.362245 338.338231 
L 690.046939 338.338231 
z
" clip-path="url(#pa84bcd32e4)" style="fill: #3b82f6"/>
   </g>
   <g id="patch_91">
    <path d="M 706.362245 370.886077 
L 722.677551 370.886077 
L 722.677551 294.941104 
L 706.362245 294.941104 
z
" clip-path="url(#pa84bcd32e4)" style="fill: #3b82f6"/>
   </g>
   <g id="patch_92">
    <path d="M 722.677551 354.612154 
L 738.992857 354.612154 
L 738.992857 246.119335 
L 722.677551 246.119335 
z
" clip-path="url(#pa84bcd32e4)" style="fill: #3b82f6"/>
   </g>
   <g id="patch_93">
    <path d="M 738.992857 322.064308 
L 755.308163 322.064308 
L 755.308163 224.420771 
L 738.992857 224.420771 
z
" clip-path="url(#pa84bcd32e4)" style="fill: #3b82f6"/>
   </g>
   <g id="patch_94">
    <path d="M 755.308163 322.064308 
L 771.623469 322.064308 
L 771.623469 191.872925 
L 755.308163 191.872925 
z
" clip-path="url(#pa84bcd32e4)" style="fill: #3b82f6"/>
   </g>
   <g id="patch_95">
    <path d="M 771.623469 338.338231 
L 787.938776 338.338231 
L 787.938776 218.99613 
L 771.623469 218.99613 
z
" clip-path="url(#pa84bcd32e4)" style="fill: #3b82f6"/>
   </g>
   <g id="patch_96">
    <path d="M 787.938776 370.886077 
L 804.254082 370.886077 
L 804.254082 349.187513 
L 787.938776 349.187513 
z
" clip-path="url(#pa84bcd32e4)" style="fill: #3b82f6"/>
   </g>
   <g id="patch_97">
    <path d="M 804.254082 354.612154 
L 820.569388 354.612154 
L 820.569388 256.968617 
L 804.254082 256.968617 
z
" clip-path="url(#pa84bcd32e4)" style="fill: #3b82f6"/>
   </g>
   <g id="patch_98">
    <path d="M 820.569388 338.338231 
L 836.884694 338.338231 
L 836.884694 294.941104 
L 820.569388 294.941104 
z
" clip-path="url(#pa84bcd32e4)" style="fill: #3b82f6"/>
   </g>
   <g id="patch_99">
    <path d="M 53.75 213.571489 
L 70.065306 213.571489 
L 70.065306 213.571489 
L 53.75 213.571489 
z
" clip-path="url(#pa84bcd32e4)" style="fill: #22c55e"/>
   </g>
   <g id="patch_100">
    <path d="M 70.065306 181.023643 
L 86.380612 181.023643 
L 86.380612 170.174361 
L 70.065306 170.174361 
z
" clip-path="url(#pa84bcd32e4)" style="fill: #22c55e"/>
   </g>
   <g id="patch_101">
    <path d="M 86.380612 50.83226 
L 102.695918 50.83226 
L 102.695918 50.83226 
L 86.380612 50.83226 
z
" clip-path="url(#pa84bcd32e4)" style="fill: #22c55e"/>
   </g>
   <g id="patch_102">
    <path d="M 102.695918 143.051156 
L 119.011224 143.051156 
L 119.011224 121.352593 
L 102.695918 121.352593 
z
" clip-path="url(#pa84bcd32e4)" style="fill: #22c55e"/>
   </g>
   <g id="patch_103">
    <path d="M 119.011224 164.74972 
L 135.326531 164.74972 
L 135.326531 164.74972 
L 119.011224 164.74972 
z
" clip-path="url(#pa84bcd32e4)" style="fill: #22c55e"/>
   </g>
   <g id="patch_104">
    <path d="M 135.326531 110.503311 
L 151.641837 110.503311 
L 151.641837 88.804747 
L 135.326531 88.804747 
z
" clip-path="url(#pa84bcd32e4)" style="fill: #22c55e"/>
   </g>
   <g id="patch_105">
    <path d="M 151.641837 191.872925 
L 167.957143 191.872925 
L 167.957143 170.174361 
L 151.641837 170.174361 
z
" clip-path="url(#pa84bcd32e4)" style="fill: #22c55e"/>
   </g>
   <g id="patch_106">
    <path d="M 167.957143 110.503311 
L 184.272449 110.503311 
L 184.272449 105.07867 
L 167.957143 105.07867 
z
" clip-path="url(#pa84bcd32e4)" style="fill: #22c55e"/>
   </g>
   <g id="patch_107">
    <path d="M 184.272449 235.270053 
L 200.587755 235.270053 
L 200.587755 224.420771 
L 184.272449 224.420771 
z
" clip-path="url(#pa84bcd32e4)" style="fill: #22c55e"/>
   </g>
   <g id="patch_108">
    <path d="M 200.587755 343.762872 
L 216.903061 343.762872 
L 216.903061 343.762872 
L 200.587755 343.762872 
z
" clip-path="url(#pa84bcd32e4)" style="fill: #22c55e"/>
   </g>
   <g id="patch_109">
    <path d="M 216.903061 376.310718 
L 233.218367 376.310718 
L 233.218367 376.310718 
L 216.903061 376.310718 
z
" clip-path="url(#pa84bcd32e4)" style="fill: #22c55e"/>
   </g>
   <g id="patch_110">
    <path d="M 233.218367 376.310718 
L 249.533673 376.310718 
L 249.533673 376.310718 
L 233.218367 376.310718 
z
" clip-path="url(#pa84bcd32e4)" style="fill: #22c55e"/>
   </g>
   <g id="patch_111">
    <path d="M 249.533673 387.16 
L 265.84898 387.16 
L 265.84898 387.16 
L 249.533673 387.16 
z
" clip-path="url(#pa84bcd32e4)" style="fill: #22c55e"/>
   </g>
   <g id="patch_112">
    <path d="M 265.84898 387.16 
L 282.164286 387.16 
L 282.164286 387.16 
L 265.84898 387.16 
z
" clip-path="url(#pa84bcd32e4)" style="fill: #22c55e"/>
   </g>
   <g id="patch_113">
    <path d="M 282.164286 376.310718 
L 298.479592 376.310718 
L 298.479592 376.310718 
L 282.164286 376.310718 
z
" clip-path="url(#pa84bcd32e4)" style="fill: #22c55e"/>
   </g>
   <g id="patch_114">
    <path d="M 298.479592 376.310718 
L 314.794898 376.310718 
L 314.794898 376.310718 
L 298.479592 376.310718 
z
" clip-path="url(#pa84bcd32e4)" style="fill: #22c55e"/>
   </g>
   <g id="patch_115">
    <path d="M 314.794898 311.215026 
L 331.110204 311.215026 
L 331.110204 300.365745 
L 314.794898 300.365745 
z
" clip-path="url(#pa84bcd32e4)" style="fill: #22c55e"/>
   </g>
   <g id="patch_116">
    <path d="M 331.110204 262.393258 
L 347.42551 262.393258 
L 347.42551 240.694694 
L 331.110204 240.694694 
z
" clip-path="url(#pa84bcd32e4)" style="fill: #22c55e"/>
   </g>
   <g id="patch_117">
    <path d="M 347.42551 137.626515 
L 363.740816 137.626515 
L 363.740816 132.201875 
L 347.42551 132.201875 
z
" clip-path="url(#pa84bcd32e4)" style="fill: #22c55e"/>
   </g>
   <g id="patch_118">
    <path d="M 363.740816 229.845412 
L 380.056122 229.845412 
L 380.056122 218.99613 
L 363.740816 218.99613 
z
" clip-path="url(#pa84bcd32e4)" style="fill: #22c55e"/>
   </g>
   <g id="patch_119">
    <path d="M 380.056122 88.804747 
L 396.371429 88.804747 
L 396.371429 45.407619 
L 380.056122 45.407619 
z
" clip-path="url(#pa84bcd32e4)" style="fill: #22c55e"/>
   </g>
   <g id="patch_120">
    <path d="M 396.371429 224.420771 
L 412.686735 224.420771 
L 412.686735 202.722207 
L 396.371429 202.722207 
z
" clip-path="url(#pa84bcd32e4)" style="fill: #22c55e"/>
   </g>
   <g id="patch_121">
    <path d="M 412.686735 132.201875 
L 429.002041 132.201875 
L 429.002041 94.229388 
L 412.686735 94.229388 
z
" clip-path="url(#pa84bcd32e4)" style="fill: #22c55e"/>
   </g>
   <g id="patch_122">
    <path d="M 429.002041 159.325079 
L 445.317347 159.325079 
L 445.317347 143.051156 
L 429.002041 143.051156 
z
" clip-path="url(#pa84bcd32e4)" style="fill: #22c55e"/>
   </g>
   <g id="patch_123">
    <path d="M 445.317347 148.475797 
L 461.632653 148.475797 
L 461.632653 132.201875 
L 445.317347 132.201875 
z
" clip-path="url(#pa84bcd32e4)" style="fill: #22c55e"/>
   </g>
   <g id="patch_124">
    <path d="M 461.632653 132.201875 
L 477.947959 132.201875 
L 477.947959 105.07867 
L 461.632653 105.07867 
z
" clip-path="url(#pa84bcd32e4)" style="fill: #22c55e"/>
   </g>
   <g id="patch_125">
    <path d="M 477.947959 148.475797 
L 494.263265 148.475797 
L 494.263265 137.626515 
L 477.947959 137.626515 
z
" clip-path="url(#pa84bcd32e4)" style="fill: #22c55e"/>
   </g>
   <g id="patch_126">
    <path d="M 494.263265 218.99613 
L 510.578571 218.99613 
L 510.578571 197.297566 
L 494.263265 197.297566 
z
" clip-path="url(#pa84bcd32e4)" style="fill: #22c55e"/>
   </g>
   <g id="patch_127">
    <path d="M 510.578571 256.968617 
L 526.893878 256.968617 
L 526.893878 235.270053 
L 510.578571 235.270053 
z
" clip-path="url(#pa84bcd32e4)" style="fill: #22c55e"/>
   </g>
   <g id="patch_128">
    <path d="M 526.893878 170.174361 
L 543.209184 170.174361 
L 543.209184 143.051156 
L 526.893878 143.051156 
z
" clip-path="url(#pa84bcd32e4)" style="fill: #22c55e"/>
   </g>
   <g id="patch_129">
    <path d="M 543.209184 164.74972 
L 559.52449 164.74972 
L 559.52449 99.654029 
L 543.209184 99.654029 
z
" clip-path="url(#pa84bcd32e4)" style="fill: #22c55e"/>
   </g>
   <g id="patch_130">
    <path d="M 559.52449 181.023643 
L 575.839796 181.023643 
L 575.839796 175.599002 
L 559.52449 175.599002 
z
" clip-path="url(#pa84bcd32e4)" style="fill: #22c55e"/>
   </g>
   <g id="patch_131">
    <path d="M 575.839796 273.24254 
L 592.155102 273.24254 
L 592.155102 240.694694 
L 575.839796 240.694694 
z
" clip-path="url(#pa84bcd32e4)" style="fill: #22c55e"/>
   </g>
   <g id="patch_132">
    <path d="M 592.155102 376.310718 
L 608.470408 376.310718 
L 608.470408 354.612154 
L 592.155102 354.612154 
z
" clip-path="url(#pa84bcd32e4)" style="fill: #22c55e"/>
   </g>
   <g id="patch_133">
    <path d="M 608.470408 365.461436 
L 624.785714 365.461436 
L 624.785714 365.461436 
L 608.470408 365.461436 
z
" clip-path="url(#pa84bcd32e4)" style="fill: #22c55e"/>
   </g>
   <g id="patch_134">
    <path d="M 624.785714 387.16 
L 641.10102 387.16 
L 641.10102 365.461436 
L 624.785714 365.461436 
z
" clip-path="url(#pa84bcd32e4)" style="fill: #22c55e"/>
   </g>
   <g id="patch_135">
    <path d="M 641.10102 370.886077 
L 657.416327 370.886077 
L 657.416327 370.886077 
L 641.10102 370.886077 
z
" clip-path="url(#pa84bcd32e4)" style="fill: #22c55e"/>
   </g>
   <g id="patch_136">
    <path d="M 657.416327 376.310718 
L 673.731633 376.310718 
L 673.731633 376.310718 
L 657.416327 376.310718 
z
" clip-path="url(#pa84bcd32e4)" style="fill: #22c55e"/>
   </g>
   <g id="patch_137">
    <path d="M 673.731633 376.310718 
L 690.046939 376.310718 
L 690.046939 365.461436 
L 673.731633 365.461436 
z
" clip-path="url(#pa84bcd32e4)" style="fill: #22c55e"/>
   </g>
   <g id="patch_138">
    <path d="M 690.046939 338.338231 
L 706.362245 338.338231 
L 706.362245 327.488949 
L 690.046939 327.488949 
z
" clip-path="url(#pa84bcd32e4)" style="fill: #22c55e"/>
   </g>
   <g id="patch_139">
    <path d="M 706.362245 294.941104 
L 722.677551 294.941104 
L 722.677551 289.516463 
L 706.362245 289.516463 
z
" clip-path="url(#pa84bcd32e4)" style="fill: #22c55e"/>
   </g>
   <g id="patch_140">
    <path d="M 722.677551 246.119335 
L 738.992857 246.119335 
L 738.992857 246.119335 
L 722.677551 246.119335 
z
" clip-path="url(#pa84bcd32e4)" style="fill: #22c55e"/>
   </g>
   <g id="patch_141">
    <path d="M 738.992857 224.420771 
L 755.308163 224.420771 
L 755.308163 175.599002 
L 738.992857 175.599002 
z
" clip-path="url(#pa84bcd32e4)" style="fill: #22c55e"/>
   </g>
   <g id="patch_142">
    <path d="M 755.308163 191.872925 
L 771.623469 191.872925 
L 771.623469 159.325079 
L 755.308163 159.325079 
z
" clip-path="url(#pa84bcd32e4)" style="fill: #22c55e"/>
   </g>
   <g id="patch_143">
    <path d="M 771.623469 218.99613 
L 787.938776 218.99613 
L 787.938776 186.448284 
L 771.623469 186.448284 
z
" clip-path="url(#pa84bcd32e4)" style="fill: #22c55e"/>
   </g>
   <g id="patch_144">
    <path d="M 787.938776 349.187513 
L 804.254082 349.187513 
L 804.254082 305.790385 
L 787.938776 305.790385 
z
" clip-path="url(#pa84bcd32e4)" style="fill: #22c55e"/>
   </g>
   <g id="patch_145">
    <path d="M 804.254082 256.968617 
L 820.569388 256.968617 
L 820.569388 218.99613 
L 804.254082 218.99613 
z
" clip-path="url(#pa84bcd32e4)" style="fill: #22c55e"/>
   </g>
   <g id="patch_146">
    <path d="M 820.569388 294.941104 
L 836.884694 294.941104 
L 836.884694 240.694694 
L 820.569388 240.694694 
z
" clip-path="url(#pa84bcd32e4)" style="fill: #22c55e"/>
   </g>
   <g id="matplotlib.axis_1">
    <g id="xtick_1">
     <g id="line2d_1">
      <defs>
       <path id="m0689e63980" d="M 0 0 
L 0 3.5 
" style="stroke: #000000; stroke-width: 0.8"/>
      </defs>
      <g>
       <use xlink:href="#m0689e63980" x="61.907653" y="387.16" style="stroke: #000000; stroke-width: 0.8"/>
      </g>
     </g>
     <g id="text_1">
      <!-- 0 -->
      <g transform="translate(58.726403 401.758438) scale(0.1 -0.1)">
       <defs>
        <path id="DejaVuSans-30" d="M 2034 4250 
Q 1547 4250 1301 3770 
Q 1056 3291 1056 2328 
Q 1056 1369 1301 889 
Q 1547 409 2034 409 
Q 2525 409 2770 889 
Q 3016 1369 3016 2328 
Q 3016 3291 2770 3770 
Q 2525 4250 2034 4250 
z
M 2034 4750 
Q 2819 4750 3233 4129 
Q 3647 3509 3647 2328 
Q 3647 1150 3233 529 
Q 2819 -91 2034 -91 
Q 1250 -91 836 529 
Q 422 1150 422 2328 
Q 422 3509 836 4129 
Q 1250 4750 2034 4750 
z
" transform="scale(0.015625)"/>
       </defs>
       <use xlink:href="#DejaVuSans-30"/>
      </g>
     </g>
    </g>
    <g id="xtick_2">
     <g id="line2d_2">
      <g>
       <use xlink:href="#m0689e63980" x="159.79949" y="387.16" style="stroke: #000000; stroke-width: 0.8"/>
      </g>
     </g>
     <g id="text_2">
      <!-- 6 -->
      <g transform="translate(156.61824 401.758438) scale(0.1 -0.1)">
       <defs>
        <path id="DejaVuSans-36" d="M 2113 2584 
Q 1688 2584 1439 2293 
Q 1191 2003 1191 1497 
Q 1191 994 1439 701 
Q 1688 409 2113 409 
Q 2538 409 2786 701 
Q 3034 994 3034 1497 
Q 3034 2003 2786 2293 
Q 2538 2584 2113 2584 
z
M 3366 4563 
L 3366 3988 
Q 3128 4100 2886 4159 
Q 2644 4219 2406 4219 
Q 1781 4219 1451 3797 
Q 1122 3375 1075 2522 
Q 1259 2794 1537 2939 
Q 1816 3084 2150 3084 
Q 2853 3084 3261 2657 
Q 3669 2231 3669 1497 
Q 3669 778 3244 343 
Q 2819 -91 2113 -91 
Q 1303 -91 875 529 
Q 447 1150 447 2328 
Q 447 3434 972 4092 
Q 1497 4750 2381 4750 
Q 2619 4750 2861 4703 
Q 3103 4656 3366 4563 
z
" transform="scale(0.015625)"/>
       </defs>
       <use xlink:href="#DejaVuSans-36"/>
      </g>
     </g>
    </g>
    <g id="xtick_3">
     <g id="line2d_3">
      <g>
       <use xlink:href="#m0689e63980" x="257.691327" y="387.16" style="stroke: #000000; stroke-width: 0.8"/>
      </g>
     </g>
     <g id="text_3">
      <!-- 12 -->
      <g transform="translate(251.328827 401.758438) scale(0.1 -0.1)">
       <defs>
        <path id="DejaVuSans-31" d="M 794 531 
L 1825 531 
L 1825 4091 
L 703 3866 
L 703 4441 
L 1819 4666 
L 2450 4666 
L 2450 531 
L 3481 531 
L 3481 0 
L 794 0 
L 794 531 
z
" transform="scale(0.015625)"/>
        <path id="DejaVuSans-32" d="M 1228 531 
L 3431 531 
L 3431 0 
L 469 0 
L 469 531 
Q 828 903 1448 1529 
Q 2069 2156 2228 2338 
Q 2531 2678 2651 2914 
Q 2772 3150 2772 3378 
Q 2772 3750 2511 3984 
Q 2250 4219 1831 4219 
Q 1534 4219 1204 4116 
Q 875 4013 500 3803 
L 500 4441 
Q 881 4594 1212 4672 
Q 1544 4750 1819 4750 
Q 2544 4750 2975 4387 
Q 3406 4025 3406 3419 
Q 3406 3131 3298 2873 
Q 3191 2616 2906 2266 
Q 2828 2175 2409 1742 
Q 1991 1309 1228 531 
z
" transform="scale(0.015625)"/>
       </defs>
       <use xlink:href="#DejaVuSans-31"/>
       <use xlink:href="#DejaVuSans-32" transform="translate(63.623047 0)"/>
      </g>
     </g>
    </g>
    <g id="xtick_4">
     <g id="line2d_4">
      <g>
       <use xlink:href="#m0689e63980" x="355.583163" y="387.16" style="stroke: #000000; stroke-width: 0.8"/>
      </g>
     </g>
     <g id="text_4">
      <!-- 18 -->
      <g transform="translate(349.220663 401.758438) scale(0.1 -0.1)">
       <defs>
        <path id="DejaVuSans-38" d="M 2034 2216 
Q 1584 2216 1326 1975 
Q 1069 1734 1069 1313 
Q 1069 891 1326 650 
Q 1584 409 2034 409 
Q 2484 409 2743 651 
Q 3003 894 3003 1313 
Q 3003 1734 2745 1975 
Q 2488 2216 2034 2216 
z
M 1403 2484 
Q 997 2584 770 2862 
Q 544 3141 544 3541 
Q 544 4100 942 4425 
Q 1341 4750 2034 4750 
Q 2731 4750 3128 4425 
Q 3525 4100 3525 3541 
Q 3525 3141 3298 2862 
Q 3072 2584 2669 2484 
Q 3125 2378 3379 2068 
Q 3634 1759 3634 1313 
Q 3634 634 3220 271 
Q 2806 -91 2034 -91 
Q 1263 -91 848 271 
Q 434 634 434 1313 
Q 434 1759 690 2068 
Q 947 2378 1403 2484 
z
M 1172 3481 
Q 1172 3119 1398 2916 
Q 1625 2713 2034 2713 
Q 2441 2713 2670 2916 
Q 2900 3119 2900 3481 
Q 2900 3844 2670 4047 
Q 2441 4250 2034 4250 
Q 1625 4250 1398 4047 
Q 1172 3844 1172 3481 
z
" transform="scale(0.015625)"/>
       </defs>
       <use xlink:href="#DejaVuSans-31"/>
       <use xlink:href="#DejaVuSans-38" transform="translate(63.623047 0)"/>
      </g>
     </g>
    </g>
    <g id="xtick_5">
     <g id="line2d_5">
      <g>
       <use xlink:href="#m0689e63980" x="453.475" y="387.16" style="stroke: #000000; stroke-width: 0.8"/>
      </g>
     </g>
     <g id="text_5">
      <!-- 24 -->
      <g transform="translate(447.1125 401.758438) scale(0.1 -0.1)">
       <defs>
        <path id="DejaVuSans-34" d="M 2419 4116 
L 825 1625 
L 2419 1625 
L 2419 4116 
z
M 2253 4666 
L 3047 4666 
L 3047 1625 
L 3713 1625 
L 3713 1100 
L 3047 1100 
L 3047 0 
L 2419 0 
L 2419 1100 
L 313 1100 
L 313 1709 
L 2253 4666 
z
" transform="scale(0.015625)"/>
       </defs>
       <use xlink:href="#DejaVuSans-32"/>
       <use xlink:href="#DejaVuSans-34" transform="translate(63.623047 0)"/>
      </g>
     </g>
    </g>
    <g id="xtick_6">
     <g id="line2d_6">
      <g>
       <use xlink:href="#m0689e63980" x="551.366837" y="387.16" style="stroke: #000000; stroke-width: 0.8"/>
      </g>
     </g>
     <g id="text_6">
      <!-- 30 -->
      <g transform="translate(545.004337 401.758438) scale(0.1 -0.1)">
       <defs>
        <path id="DejaVuSans-33" d="M 2597 2516 
Q 3050 2419 3304 2112 
Q 3559 1806 3559 1356 
Q 3559 666 3084 287 
Q 2609 -91 1734 -91 
Q 1441 -91 1130 -33 
Q 819 25 488 141 
L 488 750 
Q 750 597 1062 519 
Q 1375 441 1716 441 
Q 2309 441 2620 675 
Q 2931 909 2931 1356 
Q 2931 1769 2642 2001 
Q 2353 2234 1838 2234 
L 1294 2234 
L 1294 2753 
L 1863 2753 
Q 2328 2753 2575 2939 
Q 2822 3125 2822 3475 
Q 2822 3834 2567 4026 
Q 2313 4219 1838 4219 
Q 1578 4219 1281 4162 
Q 984 4106 628 3988 
L 628 4550 
Q 988 4650 1302 4700 
Q 1616 4750 1894 4750 
Q 2613 4750 3031 4423 
Q 3450 4097 3450 3541 
Q 3450 3153 3228 2886 
Q 3006 2619 2597 2516 
z
" transform="scale(0.015625)"/>
       </defs>
       <use xlink:href="#DejaVuSans-33"/>
       <use xlink:href="#DejaVuSans-30" transform="translate(63.623047 0)"/>
      </g>
     </g>
    </g>
    <g id="xtick_7">
     <g id="line2d_7">
      <g>
       <use xlink:href="#m0689e63980" x="649.258673" y="387.16" style="stroke: #000000; stroke-width: 0.8"/>
      </g>
     </g>
     <g id="text_7">
      <!-- 36 -->
      <g transform="translate(642.896173 401.758438) scale(0.1 -0.1)">
       <use xlink:href="#DejaVuSans-33"/>
       <use xlink:href="#DejaVuSans-36" transform="translate(63.623047 0)"/>
      </g>
     </g>
    </g>
    <g id="xtick_8">
     <g id="line2d_8">
      <g>
       <use xlink:href="#m0689e63980" x="747.15051" y="387.16" style="stroke: #000000; stroke-width: 0.8"/>
      </g>
     </g>
     <g id="text_8">
      <!-- 42 -->
      <g transform="translate(740.78801 401.758438) scale(0.1 -0.1)">
       <use xlink:href="#DejaVuSans-34"/>
       <use xlink:href="#DejaVuSans-32" transform="translate(63.623047 0)"/>
      </g>
     </g>
    </g>
    <g id="xtick_9">
     <g id="line2d_9">
      <g>
       <use xlink:href="#m0689e63980" x="845.042347" y="387.16" style="stroke: #000000; stroke-width: 0.8"/>
      </g>
     </g>
     <g id="text_9">
      <!-- 48 -->
      <g transform="translate(838.679847 401.758438) scale(0.1 -0.1)">
       <use xlink:href="#DejaVuSans-34"/>
       <use xlink:href="#DejaVuSans-38" transform="translate(63.623047 0)"/>
      </g>
     </g>
    </g>
    <g id="text_10">
     <!-- Game Minute -->
     <g transform="translate(413.213125 416.95625) scale(0.12 -0.12)">
      <defs>
       <path id="DejaVuSans-47" d="M 3809 666 
L 3809 1919 
L 2778 1919 
L 2778 2438 
L 4434 2438 
L 4434 434 
Q 4069 175 3628 42 
Q 3188 -91 2688 -91 
Q 1594 -91 976 548 
Q 359 1188 359 2328 
Q 359 3472 976 4111 
Q 1594 4750 2688 4750 
Q 3144 4750 3555 4637 
Q 3966 4525 4313 4306 
L 4313 3634 
Q 3963 3931 3569 4081 
Q 3175 4231 2741 4231 
Q 1884 4231 1454 3753 
Q 1025 3275 1025 2328 
Q 1025 1384 1454 906 
Q 1884 428 2741 428 
Q 3075 428 3337 486 
Q 3600 544 3809 666 
z
" transform="scale(0.015625)"/>
       <path id="DejaVuSans-61" d="M 2194 1759 
Q 1497 1759 1228 1600 
Q 959 1441 959 1056 
Q 959 750 1161 570 
Q 1363 391 1709 391 
Q 2188 391 2477 730 
Q 2766 1069 2766 1631 
L 2766 1759 
L 2194 1759 
z
M 3341 1997 
L 3341 0 
L 2766 0 
L 2766 531 
Q 2569 213 2275 61 
Q 1981 -91 1556 -91 
Q 1019 -91 701 211 
Q 384 513 384 1019 
Q 384 1609 779 1909 
Q 1175 2209 1959 2209 
L 2766 2209 
L 2766 2266 
Q 2766 2663 2505 2880 
Q 2244 3097 1772 3097 
Q 1472 3097 1187 3025 
Q 903 2953 641 2809 
L 641 3341 
Q 956 3463 1253 3523 
Q 1550 3584 1831 3584 
Q 2591 3584 2966 3190 
Q 3341 2797 3341 1997 
z
" transform="scale(0.015625)"/>
       <path id="DejaVuSans-6d" d="M 3328 2828 
Q 3544 3216 3844 3400 
Q 4144 3584 4550 3584 
Q 5097 3584 5394 3201 
Q 5691 2819 5691 2113 
L 5691 0 
L 5113 0 
L 5113 2094 
Q 5113 2597 4934 2840 
Q 4756 3084 4391 3084 
Q 3944 3084 3684 2787 
Q 3425 2491 3425 1978 
L 3425 0 
L 2847 0 
L 2847 2094 
Q 2847 2600 2669 2842 
Q 2491 3084 2119 3084 
Q 1678 3084 1418 2786 
Q 1159 2488 1159 1978 
L 1159 0 
L 581 0 
L 581 3500 
L 1159 3500 
L 1159 2956 
Q 1356 3278 1631 3431 
Q 1906 3584 2284 3584 
Q 2666 3584 2933 3390 
Q 3200 3197 3328 2828 
z
" transform="scale(0.015625)"/>
       <path id="DejaVuSans-65" d="M 3597 1894 
L 3597 1613 
L 953 1613 
Q 991 1019 1311 708 
Q 1631 397 2203 397 
Q 2534 397 2845 478 
Q 3156 559 3463 722 
L 3463 178 
Q 3153 47 2828 -22 
Q 2503 -91 2169 -91 
Q 1331 -91 842 396 
Q 353 884 353 1716 
Q 353 2575 817 3079 
Q 1281 3584 2069 3584 
Q 2775 3584 3186 3129 
Q 3597 2675 3597 1894 
z
M 3022 2063 
Q 3016 2534 2758 2815 
Q 2500 3097 2075 3097 
Q 1594 3097 1305 2825 
Q 1016 2553 972 2059 
L 3022 2063 
z
" transform="scale(0.015625)"/>
       <path id="DejaVuSans-20" transform="scale(0.015625)"/>
       <path id="DejaVuSans-4d" d="M 628 4666 
L 1569 4666 
L 2759 1491 
L 3956 4666 
L 4897 4666 
L 4897 0 
L 4281 0 
L 4281 4097 
L 3078 897 
L 2444 897 
L 1241 4097 
L 1241 0 
L 628 0 
L 628 4666 
z
" transform="scale(0.015625)"/>
       <path id="DejaVuSans-69" d="M 603 3500 
L 1178 3500 
L 1178 0 
L 603 0 
L 603 3500 
z
M 603 4863 
L 1178 4863 
L 1178 4134 
L 603 4134 
L 603 4863 
z
" transform="scale(0.015625)"/>
       <path id="DejaVuSans-6e" d="M 3513 2113 
L 3513 0 
L 2938 0 
L 2938 2094 
Q 2938 2591 2744 2837 
Q 2550 3084 2163 3084 
Q 1697 3084 1428 2787 
Q 1159 2491 1159 1978 
L 1159 0 
L 581 0 
L 581 3500 
L 1159 3500 
L 1159 2956 
Q 1366 3272 1645 3428 
Q 1925 3584 2291 3584 
Q 2894 3584 3203 3211 
Q 3513 2838 3513 2113 
z
" transform="scale(0.015625)"/>
       <path id="DejaVuSans-75" d="M 544 1381 
L 544 3500 
L 1119 3500 
L 1119 1403 
Q 1119 906 1312 657 
Q 1506 409 1894 409 
Q 2359 409 2629 706 
Q 2900 1003 2900 1516 
L 2900 3500 
L 3475 3500 
L 3475 0 
L 2900 0 
L 2900 538 
Q 2691 219 2414 64 
Q 2138 -91 1772 -91 
Q 1169 -91 856 284 
Q 544 659 544 1381 
z
M 1991 3584 
L 1991 3584 
z
" transform="scale(0.015625)"/>
       <path id="DejaVuSans-74" d="M 1172 4494 
L 1172 3500 
L 2356 3500 
L 2356 3053 
L 1172 3053 
L 1172 1153 
Q 1172 725 1289 603 
Q 1406 481 1766 481 
L 2356 481 
L 2356 0 
L 1766 0 
Q 1100 0 847 248 
Q 594 497 594 1153 
L 594 3053 
L 172 3053 
L 172 3500 
L 594 3500 
L 594 4494 
L 1172 4494 
z
" transform="scale(0.015625)"/>
      </defs>
      <use xlink:href="#DejaVuSans-47"/>
      <use xlink:href="#DejaVuSans-61" transform="translate(77.490234 0)"/>
      <use xlink:href="#DejaVuSans-6d" transform="translate(138.769531 0)"/>
      <use xlink:href="#DejaVuSans-65" transform="translate(236.181641 0)"/>
      <use xlink:href="#DejaVuSans-20" transform="translate(297.705078 0)"/>
      <use xlink:href="#DejaVuSans-4d" transform="translate(329.492188 0)"/>
      <use xlink:href="#DejaVuSans-69" transform="translate(415.771484 0)"/>
      <use xlink:href="#DejaVuSans-6e" transform="translate(443.554688 0)"/>
      <use xlink:href="#DejaVuSans-75" transform="translate(506.933594 0)"/>
      <use xlink:href="#DejaVuSans-74" transform="translate(570.3125 0)"/>
      <use xlink:href="#DejaVuSans-65" transform="translate(609.521484 0)"/>
     </g>
    </g>
   </g>
   <g id="matplotlib.axis_2">
    <g id="ytick_1">
     <g id="line2d_10">
      <path d="M 53.75 387.16 
L 853.2 387.16 
" clip-path="url(#pa84bcd32e4)" style="fill: none; stroke-dasharray: 2.96,1.28; stroke-dashoffset: 0; stroke: #b0b0b0; stroke-opacity: 0.7; stroke-width: 0.8"/>
     </g>
     <g id="line2d_11">
      <defs>
       <path id="mc4fbf742e1" d="M 0 0 
L -3.5 0 
" style="stroke: #000000; stroke-width: 0.8"/>
      </defs>
      <g>
       <use xlink:href="#mc4fbf742e1" x="53.75" y="387.16" style="stroke: #000000; stroke-width: 0.8"/>
      </g>
     </g>
     <g id="text_11">
      <!-- 0 -->
      <g transform="translate(40.3875 390.959219) scale(0.1 -0.1)">
       <use xlink:href="#DejaVuSans-30"/>
      </g>
     </g>
    </g>
    <g id="ytick_2">
     <g id="line2d_12">
      <path d="M 53.75 332.91359 
L 853.2 332.91359 
" clip-path="url(#pa84bcd32e4)" style="fill: none; stroke-dasharray: 2.96,1.28; stroke-dashoffset: 0; stroke: #b0b0b0; stroke-opacity: 0.7; stroke-width: 0.8"/>
     </g>
     <g id="line2d_13">
      <g>
       <use xlink:href="#mc4fbf742e1" x="53.75" y="332.91359" style="stroke: #000000; stroke-width: 0.8"/>
      </g>
     </g>
     <g id="text_12">
      <!-- 20 -->
      <g transform="translate(34.025 336.712809) scale(0.1 -0.1)">
       <use xlink:href="#DejaVuSans-32"/>
       <use xlink:href="#DejaVuSans-30" transform="translate(63.623047 0)"/>
      </g>
     </g>
    </g>
    <g id="ytick_3">
     <g id="line2d_14">
      <path d="M 53.75 278.667181 
L 853.2 278.667181 
" clip-path="url(#pa84bcd32e4)" style="fill: none; stroke-dasharray: 2.96,1.28; stroke-dashoffset: 0; stroke: #b0b0b0; stroke-opacity: 0.7; stroke-width: 0.8"/>
     </g>
     <g id="line2d_15">
      <g>
       <use xlink:href="#mc4fbf742e1" x="53.75" y="278.667181" style="stroke: #000000; stroke-width: 0.8"/>
      </g>
     </g>
     <g id="text_13">
      <!-- 40 -->
      <g transform="translate(34.025 282.466399) scale(0.1 -0.1)">
       <use xlink:href="#DejaVuSans-34"/>
       <use xlink:href="#DejaVuSans-30" transform="translate(63.623047 0)"/>
      </g>
     </g>
    </g>
    <g id="ytick_4">
     <g id="line2d_16">
      <path d="M 53.75 224.420771 
L 853.2 224.420771 
" clip-path="url(#pa84bcd32e4)" style="fill: none; stroke-dasharray: 2.96,1.28; stroke-dashoffset: 0; stroke: #b0b0b0; stroke-opacity: 0.7; stroke-width: 0.8"/>
     </g>
     <g id="line2d_17">
      <g>
       <use xlink:href="#mc4fbf742e1" x="53.75" y="224.420771" style="stroke: #000000; stroke-width: 0.8"/>
      </g>
     </g>
     <g id="text_14">
      <!-- 60 -->
      <g transform="translate(34.025 228.21999) scale(0.1 -0.1)">
       <use xlink:href="#DejaVuSans-36"/>
       <use xlink:href="#DejaVuSans-30" transform="translate(63.623047 0)"/>
      </g>
     </g>
    </g>
    <g id="ytick_5">
     <g id="line2d_18">
      <path d="M 53.75 170.174361 
L 853.2 170.174361 
" clip-path="url(#pa84bcd32e4)" style="fill: none; stroke-dasharray: 2.96,1.28; stroke-dashoffset: 0; stroke: #b0b0b0; stroke-opacity: 0.7; stroke-width: 0.8"/>
     </g>
     <g id="line2d_19">
      <g>
       <use xlink:href="#mc4fbf742e1" x="53.75" y="170.174361" style="stroke: #000000; stroke-width: 0.8"/>
      </g>
     </g>
     <g id="text_15">
      <!-- 80 -->
      <g transform="translate(34.025 173.97358) scale(0.1 -0.1)">
       <use xlink:href="#DejaVuSans-38"/>
       <use xlink:href="#DejaVuSans-30" transform="translate(63.623047 0)"/>
      </g>
     </g>
    </g>
    <g id="ytick_6">
     <g id="line2d_20">
      <path d="M 53.75 115.927952 
L 853.2 115.927952 
" clip-path="url(#pa84bcd32e4)" style="fill: none; stroke-dasharray: 2.96,1.28; stroke-dashoffset: 0; stroke: #b0b0b0; stroke-opacity: 0.7; stroke-width: 0.8"/>
     </g>
     <g id="line2d_21">
      <g>
       <use xlink:href="#mc4fbf742e1" x="53.75" y="115.927952" style="stroke: #000000; stroke-width: 0.8"/>
      </g>
     </g>
     <g id="text_16">
      <!-- 100 -->
      <g transform="translate(27.6625 119.72717) scale(0.1 -0.1)">
       <use xlink:href="#DejaVuSans-31"/>
       <use xlink:href="#DejaVuSans-30" transform="translate(63.623047 0)"/>
       <use xlink:href="#DejaVuSans-30" transform="translate(127.246094 0)"/>
      </g>
     </g>
    </g>
    <g id="ytick_7">
     <g id="line2d_22">
      <path d="M 53.75 61.681542 
L 853.2 61.681542 
" clip-path="url(#pa84bcd32e4)" style="fill: none; stroke-dasharray: 2.96,1.28; stroke-dashoffset: 0; stroke: #b0b0b0; stroke-opacity: 0.7; stroke-width: 0.8"/>
     </g>
     <g id="line2d_23">
      <g>
       <use xlink:href="#mc4fbf742e1" x="53.75" y="61.681542" style="stroke: #000000; stroke-width: 0.8"/>
      </g>
     </g>
     <g id="text_17">
      <!-- 120 -->
      <g transform="translate(27.6625 65.480761) scale(0.1 -0.1)">
       <use xlink:href="#DejaVuSans-31"/>
       <use xlink:href="#DejaVuSans-32" transform="translate(63.623047 0)"/>
       <use xlink:href="#DejaVuSans-30" transform="translate(127.246094 0)"/>
      </g>
     </g>
    </g>
    <g id="text_18">
     <!-- Points Scored -->
     <g transform="translate(21.166875 248.2775) rotate(-90) scale(0.12 -0.12)">
      <defs>
       <path id="DejaVuSans-50" d="M 1259 4147 
L 1259 2394 
L 2053 2394 
Q 2494 2394 2734 2622 
Q 2975 2850 2975 3272 
Q 2975 3691 2734 3919 
Q 2494 4147 2053 4147 
L 1259 4147 
z
M 628 4666 
L 2053 4666 
Q 2838 4666 3239 4311 
Q 3641 3956 3641 3272 
Q 3641 2581 3239 2228 
Q 2838 1875 2053 1875 
L 1259 1875 
L 1259 0 
L 628 0 
L 628 4666 
z
" transform="scale(0.015625)"/>
       <path id="DejaVuSans-6f" d="M 1959 3097 
Q 1497 3097 1228 2736 
Q 959 2375 959 1747 
Q 959 1119 1226 758 
Q 1494 397 1959 397 
Q 2419 397 2687 759 
Q 2956 1122 2956 1747 
Q 2956 2369 2687 2733 
Q 2419 3097 1959 3097 
z
M 1959 3584 
Q 2709 3584 3137 3096 
Q 3566 2609 3566 1747 
Q 3566 888 3137 398 
Q 2709 -91 1959 -91 
Q 1206 -91 779 398 
Q 353 888 353 1747 
Q 353 2609 779 3096 
Q 1206 3584 1959 3584 
z
" transform="scale(0.015625)"/>
       <path id="DejaVuSans-73" d="M 2834 3397 
L 2834 2853 
Q 2591 2978 2328 3040 
Q 2066 3103 1784 3103 
Q 1356 3103 1142 2972 
Q 928 2841 928 2578 
Q 928 2378 1081 2264 
Q 1234 2150 1697 2047 
L 1894 2003 
Q 2506 1872 2764 1633 
Q 3022 1394 3022 966 
Q 3022 478 2636 193 
Q 2250 -91 1575 -91 
Q 1294 -91 989 -36 
Q 684 19 347 128 
L 347 722 
Q 666 556 975 473 
Q 1284 391 1588 391 
Q 1994 391 2212 530 
Q 2431 669 2431 922 
Q 2431 1156 2273 1281 
Q 2116 1406 1581 1522 
L 1381 1569 
Q 847 1681 609 1914 
Q 372 2147 372 2553 
Q 372 3047 722 3315 
Q 1072 3584 1716 3584 
Q 2034 3584 2315 3537 
Q 2597 3491 2834 3397 
z
" transform="scale(0.015625)"/>
       <path id="DejaVuSans-53" d="M 3425 4513 
L 3425 3897 
Q 3066 4069 2747 4153 
Q 2428 4238 2131 4238 
Q 1616 4238 1336 4038 
Q 1056 3838 1056 3469 
Q 1056 3159 1242 3001 
Q 1428 2844 1947 2747 
L 2328 2669 
Q 3034 2534 3370 2195 
Q 3706 1856 3706 1288 
Q 3706 609 3251 259 
Q 2797 -91 1919 -91 
Q 1588 -91 1214 -16 
Q 841 59 441 206 
L 441 856 
Q 825 641 1194 531 
Q 1563 422 1919 422 
Q 2459 422 2753 634 
Q 3047 847 3047 1241 
Q 3047 1584 2836 1778 
Q 2625 1972 2144 2069 
L 1759 2144 
Q 1053 2284 737 2584 
Q 422 2884 422 3419 
Q 422 4038 858 4394 
Q 1294 4750 2059 4750 
Q 2388 4750 2728 4690 
Q 3069 4631 3425 4513 
z
" transform="scale(0.015625)"/>
       <path id="DejaVuSans-63" d="M 3122 3366 
L 3122 2828 
Q 2878 2963 2633 3030 
Q 2388 3097 2138 3097 
Q 1578 3097 1268 2742 
Q 959 2388 959 1747 
Q 959 1106 1268 751 
Q 1578 397 2138 397 
Q 2388 397 2633 464 
Q 2878 531 3122 666 
L 3122 134 
Q 2881 22 2623 -34 
Q 2366 -91 2075 -91 
Q 1284 -91 818 406 
Q 353 903 353 1747 
Q 353 2603 823 3093 
Q 1294 3584 2113 3584 
Q 2378 3584 2631 3529 
Q 2884 3475 3122 3366 
z
" transform="scale(0.015625)"/>
       <path id="DejaVuSans-72" d="M 2631 2963 
Q 2534 3019 2420 3045 
Q 2306 3072 2169 3072 
Q 1681 3072 1420 2755 
Q 1159 2438 1159 1844 
L 1159 0 
L 581 0 
L 581 3500 
L 1159 3500 
L 1159 2956 
Q 1341 3275 1631 3429 
Q 1922 3584 2338 3584 
Q 2397 3584 2469 3576 
Q 2541 3569 2628 3553 
L 2631 2963 
z
" transform="scale(0.015625)"/>
       <path id="DejaVuSans-64" d="M 2906 2969 
L 2906 4863 
L 3481 4863 
L 3481 0 
L 2906 0 
L 2906 525 
Q 2725 213 2448 61 
Q 2172 -91 1784 -91 
Q 1150 -91 751 415 
Q 353 922 353 1747 
Q 353 2572 751 3078 
Q 1150 3584 1784 3584 
Q 2172 3584 2448 3432 
Q 2725 3281 2906 2969 
z
M 947 1747 
Q 947 1113 1208 752 
Q 1469 391 1925 391 
Q 2381 391 2643 752 
Q 2906 1113 2906 1747 
Q 2906 2381 2643 2742 
Q 2381 3103 1925 3103 
Q 1469 3103 1208 2742 
Q 947 2381 947 1747 
z
" transform="scale(0.015625)"/>
      </defs>
      <use xlink:href="#DejaVuSans-50"/>
      <use xlink:href="#DejaVuSans-6f" transform="translate(56.677734 0)"/>
      <use xlink:href="#DejaVuSans-69" transform="translate(117.859375 0)"/>
      <use xlink:href="#DejaVuSans-6e" transform="translate(145.642578 0)"/>
      <use xlink:href="#DejaVuSans-74" transform="translate(209.021484 0)"/>
      <use xlink:href="#DejaVuSans-73" transform="translate(248.230469 0)"/>
      <use xlink:href="#DejaVuSans-20" transform="translate(300.330078 0)"/>
      <use xlink:href="#DejaVuSans-53" transform="translate(332.117188 0)"/>
      <use xlink:href="#DejaVuSans-63" transform="translate(395.59375 0)"/>
      <use xlink:href="#DejaVuSans-6f" transform="translate(450.574219 0)"/>
      <use xlink:href="#DejaVuSans-72" transform="translate(511.755859 0)"/>
      <use xlink:href="#DejaVuSans-65" transform="translate(550.619141 0)"/>
      <use xlink:href="#DejaVuSans-64" transform="translate(612.142578 0)"/>
     </g>
    </g>
   </g>
   <g id="patch_147">
    <path d="M 53.75 387.16 
L 53.75 28.32 
" style="fill: none; stroke: #000000; stroke-width: 0.8; stroke-linejoin: miter; stroke-linecap: square"/>
   </g>
   <g id="patch_148">
    <path d="M 853.2 387.16 
L 853.2 28.32 
" style="fill: none; stroke: #000000; stroke-width: 0.8; stroke-linejoin: miter; stroke-linecap: square"/>
   </g>
   <g id="patch_149">
    <path d="M 53.75 387.16 
L 853.2 387.16 
" style="fill: none; stroke: #000000; stroke-width: 0.8; stroke-linejoin: miter; stroke-linecap: square"/>
   </g>
   <g id="patch_150">
    <path d="M 53.75 28.32 
L 853.2 28.32 
" style="fill: none; stroke: #000000; stroke-width: 0.8; stroke-linejoin: miter; stroke-linecap: square"/>
   </g>
   <g id="text_19">
    <!-- Scoring Timeline: Nikola Vucevic (2024-25) -->
    <g transform="translate(281.6475 22.32) scale(0.16 -0.16)">
     <defs>
      <path id="DejaVuSans-67" d="M 2906 1791 
Q 2906 2416 2648 2759 
Q 2391 3103 1925 3103 
Q 1463 3103 1205 2759 
Q 947 2416 947 1791 
Q 947 1169 1205 825 
Q 1463 481 1925 481 
Q 2391 481 2648 825 
Q 2906 1169 2906 1791 
z
M 3481 434 
Q 3481 -459 3084 -895 
Q 2688 -1331 1869 -1331 
Q 1566 -1331 1297 -1286 
Q 1028 -1241 775 -1147 
L 775 -588 
Q 1028 -725 1275 -790 
Q 1522 -856 1778 -856 
Q 2344 -856 2625 -561 
Q 2906 -266 2906 331 
L 2906 616 
Q 2728 306 2450 153 
Q 2172 0 1784 0 
Q 1141 0 747 490 
Q 353 981 353 1791 
Q 353 2603 747 3093 
Q 1141 3584 1784 3584 
Q 2172 3584 2450 3431 
Q 2728 3278 2906 2969 
L 2906 3500 
L 3481 3500 
L 3481 434 
z
" transform="scale(0.015625)"/>
      <path id="DejaVuSans-54" d="M -19 4666 
L 3928 4666 
L 3928 4134 
L 2272 4134 
L 2272 0 
L 1638 0 
L 1638 4134 
L -19 4134 
L -19 4666 
z
" transform="scale(0.015625)"/>
      <path id="DejaVuSans-6c" d="M 603 4863 
L 1178 4863 
L 1178 0 
L 603 0 
L 603 4863 
z
" transform="scale(0.015625)"/>
      <path id="DejaVuSans-3a" d="M 750 794 
L 1409 794 
L 1409 0 
L 750 0 
L 750 794 
z
M 750 3309 
L 1409 3309 
L 1409 2516 
L 750 2516 
L 750 3309 
z
" transform="scale(0.015625)"/>
      <path id="DejaVuSans-4e" d="M 628 4666 
L 1478 4666 
L 3547 763 
L 3547 4666 
L 4159 4666 
L 4159 0 
L 3309 0 
L 1241 3903 
L 1241 0 
L 628 0 
L 628 4666 
z
" transform="scale(0.015625)"/>
      <path id="DejaVuSans-6b" d="M 581 4863 
L 1159 4863 
L 1159 1991 
L 2875 3500 
L 3609 3500 
L 1753 1863 
L 3688 0 
L 2938 0 
L 1159 1709 
L 1159 0 
L 581 0 
L 581 4863 
z
" transform="scale(0.015625)"/>
      <path id="DejaVuSans-56" d="M 1831 0 
L 50 4666 
L 709 4666 
L 2188 738 
L 3669 4666 
L 4325 4666 
L 2547 0 
L 1831 0 
z
" transform="scale(0.015625)"/>
      <path id="DejaVuSans-76" d="M 191 3500 
L 800 3500 
L 1894 563 
L 2988 3500 
L 3597 3500 
L 2284 0 
L 1503 0 
L 191 3500 
z
" transform="scale(0.015625)"/>
      <path id="DejaVuSans-28" d="M 1984 4856 
Q 1566 4138 1362 3434 
Q 1159 2731 1159 2009 
Q 1159 1288 1364 580 
Q 1569 -128 1984 -844 
L 1484 -844 
Q 1016 -109 783 600 
Q 550 1309 550 2009 
Q 550 2706 781 3412 
Q 1013 4119 1484 4856 
L 1984 4856 
z
" transform="scale(0.015625)"/>
      <path id="DejaVuSans-2d" d="M 313 2009 
L 1997 2009 
L 1997 1497 
L 313 1497 
L 313 2009 
z
" transform="scale(0.015625)"/>
      <path id="DejaVuSans-35" d="M 691 4666 
L 3169 4666 
L 3169 4134 
L 1269 4134 
L 1269 2991 
Q 1406 3038 1543 3061 
Q 1681 3084 1819 3084 
Q 2600 3084 3056 2656 
Q 3513 2228 3513 1497 
Q 3513 744 3044 326 
Q 2575 -91 1722 -91 
Q 1428 -91 1123 -41 
Q 819 9 494 109 
L 494 744 
Q 775 591 1075 516 
Q 1375 441 1709 441 
Q 2250 441 2565 725 
Q 2881 1009 2881 1497 
Q 2881 1984 2565 2268 
Q 2250 2553 1709 2553 
Q 1456 2553 1204 2497 
Q 953 2441 691 2322 
L 691 4666 
z
" transform="scale(0.015625)"/>
      <path id="DejaVuSans-29" d="M 513 4856 
L 1013 4856 
Q 1481 4119 1714 3412 
Q 1947 2706 1947 2009 
Q 1947 1309 1714 600 
Q 1481 -109 1013 -844 
L 513 -844 
Q 928 -128 1133 580 
Q 1338 1288 1338 2009 
Q 1338 2731 1133 3434 
Q 928 4138 513 4856 
z
" transform="scale(0.015625)"/>
     </defs>
     <use xlink:href="#DejaVuSans-53"/>
     <use xlink:href="#DejaVuSans-63" transform="translate(63.476562 0)"/>
     <use xlink:href="#DejaVuSans-6f" transform="translate(118.457031 0)"/>
     <use xlink:href="#DejaVuSans-72" transform="translate(179.638672 0)"/>
     <use xlink:href="#DejaVuSans-69" transform="translate(220.751953 0)"/>
     <use xlink:href="#DejaVuSans-6e" transform="translate(248.535156 0)"/>
     <use xlink:href="#DejaVuSans-67" transform="translate(311.914062 0)"/>
     <use xlink:href="#DejaVuSans-20" transform="translate(375.390625 0)"/>
     <use xlink:href="#DejaVuSans-54" transform="translate(407.177734 0)"/>
     <use xlink:href="#DejaVuSans-69" transform="translate(465.136719 0)"/>
     <use xlink:href="#DejaVuSans-6d" transform="translate(492.919922 0)"/>
     <use xlink:href="#DejaVuSans-65" transform="translate(590.332031 0)"/>
     <use xlink:href="#DejaVuSans-6c" transform="translate(651.855469 0)"/>
     <use xlink:href="#DejaVuSans-69" transform="translate(679.638672 0)"/>
     <use xlink:href="#DejaVuSans-6e" transform="translate(707.421875 0)"/>
     <use xlink:href="#DejaVuSans-65" transform="translate(770.800781 0)"/>
     <use xlink:href="#DejaVuSans-3a" transform="translate(832.324219 0)"/>
     <use xlink:href="#DejaVuSans-20" transform="translate(866.015625 0)"/>
     <use xlink:href="#DejaVuSans-4e" transform="translate(897.802734 0)"/>
     <use xlink:href="#DejaVuSans-69" transform="translate(972.607422 0)"/>
     <use xlink:href="#DejaVuSans-6b" transform="translate(1000.390625 0)"/>
     <use xlink:href="#DejaVuSans-6f" transform="translate(1054.675781 0)"/>
     <use xlink:href="#DejaVuSans-6c" transform="translate(1115.857422 0)"/>
     <use xlink:href="#DejaVuSans-61" transform="translate(1143.640625 0)"/>
     <use xlink:href="#DejaVuSans-20" transform="translate(1204.919922 0)"/>
     <use xlink:href="#DejaVuSans-56" transform="translate(1236.707031 0)"/>
     <use xlink:href="#DejaVuSans-75" transform="translate(1298.365234 0)"/>
     <use xlink:href="#DejaVuSans-63" transform="translate(1361.744141 0)"/>
     <use xlink:href="#DejaVuSans-65" transform="translate(1416.724609 0)"/>
     <use xlink:href="#DejaVuSans-76" transform="translate(1478.248047 0)"/>
     <use xlink:href="#DejaVuSans-69" transform="translate(1537.427734 0)"/>
     <use xlink:href="#DejaVuSans-63" transform="translate(1565.210938 0)"/>
     <use xlink:href="#DejaVuSans-20" transform="translate(1620.191406 0)"/>
     <use xlink:href="#DejaVuSans-28" transform="translate(1651.978516 0)"/>
     <use xlink:href="#DejaVuSans-32" transform="translate(1690.992188 0)"/>
     <use xlink:href="#DejaVuSans-30" transform="translate(1754.615234 0)"/>
     <use xlink:href="#DejaVuSans-32" transform="translate(1818.238281 0)"/>
     <use xlink:href="#DejaVuSans-34" transform="translate(1881.861328 0)"/>
     <use xlink:href="#DejaVuSans-2d" transform="translate(1945.484375 0)"/>
     <use xlink:href="#DejaVuSans-32" transform="translate(1981.568359 0)"/>
     <use xlink:href="#DejaVuSans-35" transform="translate(2045.191406 0)"/>
     <use xlink:href="#DejaVuSans-29" transform="translate(2108.814453 0)"/>
    </g>
   </g>
   <g id="legend_1">
    <g id="patch_151">
     <path d="M 795.7 80.354375 
L 846.2 80.354375 
Q 848.2 80.354375 848.2 78.354375 
L 848.2 35.32 
Q 848.2 33.32 846.2 33.32 
L 795.7 33.32 
Q 793.7 33.32 793.7 35.32 
L 793.7 78.354375 
Q 793.7 80.354375 795.7 80.354375 
z
" style="fill: #ffffff; opacity: 0.8; stroke: #cccccc; stroke-linejoin: miter"/>
    </g>
    <g id="patch_152">
     <path d="M 797.7 44.918437 
L 817.7 44.918437 
L 817.7 37.918437 
L 797.7 37.918437 
z
" style="fill: #ef4444"/>
    </g>
    <g id="text_20">
     <!-- 3PT -->
     <g transform="translate(825.7 44.918437) scale(0.1 -0.1)">
      <use xlink:href="#DejaVuSans-33"/>
      <use xlink:href="#DejaVuSans-50" transform="translate(63.623047 0)"/>
      <use xlink:href="#DejaVuSans-54" transform="translate(123.925781 0)"/>
     </g>
    </g>
    <g id="patch_153">
     <path d="M 797.7 59.596563 
L 817.7 59.596563 
L 817.7 52.596563 
L 797.7 52.596563 
z
" style="fill: #3b82f6"/>
    </g>
    <g id="text_21">
     <!-- 2PT -->
     <g transform="translate(825.7 59.596563) scale(0.1 -0.1)">
      <use xlink:href="#DejaVuSans-32"/>
      <use xlink:href="#DejaVuSans-50" transform="translate(63.623047 0)"/>
      <use xlink:href="#DejaVuSans-54" transform="translate(123.925781 0)"/>
     </g>
    </g>
    <g id="patch_154">
     <path d="M 797.7 74.274687 
L 817.7 74.274687 
L 817.7 67.274687 
L 797.7 67.274687 
z
" style="fill: #22c55e"/>
    </g>
    <g id="text_22">
     <!-- FT -->
     <g transform="translate(825.7 74.274687) scale(0.1 -0.1)">
      <defs>
       <path id="DejaVuSans-46" d="M 628 4666 
L 3309 4666 
L 3309 4134 
L 1259 4134 
L 1259 2759 
L 3109 2759 
L 3109 2228 
L 1259 2228 
L 1259 0 
L 628 0 
L 628 4666 
z
" transform="scale(0.015625)"/>
      </defs>
      <use xlink:href="#DejaVuSans-46"/>
      <use xlink:href="#DejaVuSans-54" transform="translate(55.769531 0)"/>
     </g>
    </g>
   </g>
  </g>
 </g>
 <defs>
  <clipPath id="pa84bcd32e4">
   <rect x="53.75" y="28.32" width="799.45" height="358.84"/>
  </clipPath>
 </defs>
</svg>
