<?xml version="1.0" encoding="utf-8" standalone="no"?>
<!DOCTYPE svg PUBLIC "-//W3C//DTD SVG 1.1//EN"
  "http://www.w3.org/Graphics/SVG/1.1/DTD/svg11.dtd">
<svg xmlns:xlink="http://www.w3.org/1999/xlink" width="864pt" height="504pt" viewBox="0 0 864 504" xmlns="http://www.w3.org/2000/svg" version="1.1">
 <metadata>
  <rdf:RDF xmlns:dc="http://purl.org/dc/elements/1.1/" xmlns:cc="http://creativecommons.org/ns#" xmlns:rdf="http://www.w3.org/1999/02/22-rdf-syntax-ns#">
   <cc:Work>
    <dc:type rdf:resource="http://purl.org/dc/dcmitype/StillImage"/>
    <dc:date>2025-08-24T04:40:55.642585</dc:date>
    <dc:format>image/svg+xml</dc:format>
    <dc:creator>
     <cc:Agent>
      <dc:title>Matplotlib v3.10.5, https://matplotlib.org/</dc:title>
     </cc:Agent>
    </dc:creator>
   </cc:Work>
  </rdf:RDF>
 </metadata>
 <defs>
  <style type="text/css">*{stroke-linejoin: round; stroke-linecap: butt}</style>
 </defs>
 <g id="figure_1">
  <g id="patch_1">
   <path d="M 0 504 
L 864 504 
L 864 0 
L 0 0 
z
" style="fill: #ffffff"/>
  </g>
  <g id="axes_1">
   <g id="patch_2">
    <path d="M 44.57 455.955539 
L 853.2 455.955539 
L 853.2 26.88 
L 44.57 26.88 
z
" style="fill: #ffffff"/>
   </g>
   <g id="patch_3">
    <path d="M 49.032638 455.955539 
L 63.313079 455.955539 
L 63.313079 455.955539 
L 49.032638 455.955539 
z
" clip-path="url(#p87f74f608a)" style="fill: #ffc107"/>
   </g>
   <g id="patch_4">
    <path d="M 66.88319 455.955539 
L 81.163631 455.955539 
L 81.163631 455.955539 
L 66.88319 455.955539 
z
" clip-path="url(#p87f74f608a)" style="fill: #ffc107"/>
   </g>
   <g id="patch_5">
    <path d="M 84.733742 455.955539 
L 99.014183 455.955539 
L 99.014183 455.955539 
L 84.733742 455.955539 
z
" clip-path="url(#p87f74f608a)" style="fill: #ffc107"/>
   </g>
   <g id="patch_6">
    <path d="M 102.584294 455.955539 
L 116.864735 455.955539 
L 116.864735 455.955539 
L 102.584294 455.955539 
z
" clip-path="url(#p87f74f608a)" style="fill: #ffc107"/>
   </g>
   <g id="patch_7">
    <path d="M 120.434845 455.955539 
L 134.715287 455.955539 
L 134.715287 455.955539 
L 120.434845 455.955539 
z
" clip-path="url(#p87f74f608a)" style="fill: #ffc107"/>
   </g>
   <g id="patch_8">
    <path d="M 138.285397 455.955539 
L 152.565839 455.955539 
L 152.565839 455.955539 
L 138.285397 455.955539 
z
" clip-path="url(#p87f74f608a)" style="fill: #ffc107"/>
   </g>
   <g id="patch_9">
    <path d="M 156.135949 455.955539 
L 170.416391 455.955539 
L 170.416391 455.955539 
L 156.135949 455.955539 
z
" clip-path="url(#p87f74f608a)" style="fill: #ffc107"/>
   </g>
   <g id="patch_10">
    <path d="M 173.986501 455.955539 
L 188.266943 455.955539 
L 188.266943 401.469756 
L 173.986501 401.469756 
z
" clip-path="url(#p87f74f608a)" style="fill: #ffc107"/>
   </g>
   <g id="patch_11">
    <path d="M 191.837053 455.955539 
L 206.117494 455.955539 
L 206.117494 401.469756 
L 191.837053 401.469756 
z
" clip-path="url(#p87f74f608a)" style="fill: #ffc107"/>
   </g>
   <g id="patch_12">
    <path d="M 209.687605 455.955539 
L 223.968046 455.955539 
L 223.968046 401.469756 
L 209.687605 401.469756 
z
" clip-path="url(#p87f74f608a)" style="fill: #ffc107"/>
   </g>
   <g id="patch_13">
    <path d="M 227.538157 455.955539 
L 241.818598 455.955539 
L 241.818598 401.469756 
L 227.538157 401.469756 
z
" clip-path="url(#p87f74f608a)" style="fill: #ffc107"/>
   </g>
   <g id="patch_14">
    <path d="M 245.388709 455.955539 
L 259.66915 455.955539 
L 259.66915 455.955539 
L 245.388709 455.955539 
z
" clip-path="url(#p87f74f608a)" style="fill: #ffc107"/>
   </g>
   <g id="patch_15">
    <path d="M 263.23926 455.955539 
L 277.519702 455.955539 
L 277.519702 401.469756 
L 263.23926 401.469756 
z
" clip-path="url(#p87f74f608a)" style="fill: #ffc107"/>
   </g>
   <g id="patch_16">
    <path d="M 281.089812 455.955539 
L 295.370254 455.955539 
L 295.370254 374.226865 
L 281.089812 374.226865 
z
" clip-path="url(#p87f74f608a)" style="fill: #ffc107"/>
   </g>
   <g id="patch_17">
    <path d="M 298.940364 455.955539 
L 313.220806 455.955539 
L 313.220806 455.955539 
L 298.940364 455.955539 
z
" clip-path="url(#p87f74f608a)" style="fill: #ffc107"/>
   </g>
   <g id="patch_18">
    <path d="M 316.790916 455.955539 
L 331.071358 455.955539 
L 331.071358 319.741082 
L 316.790916 319.741082 
z
" clip-path="url(#p87f74f608a)" style="fill: #ffc107"/>
   </g>
   <g id="patch_19">
    <path d="M 334.641468 455.955539 
L 348.921909 455.955539 
L 348.921909 455.955539 
L 334.641468 455.955539 
z
" clip-path="url(#p87f74f608a)" style="fill: #ffc107"/>
   </g>
   <g id="patch_20">
    <path d="M 352.49202 455.955539 
L 366.772461 455.955539 
L 366.772461 455.955539 
L 352.49202 455.955539 
z
" clip-path="url(#p87f74f608a)" style="fill: #ffc107"/>
   </g>
   <g id="patch_21">
    <path d="M 370.342572 455.955539 
L 384.623013 455.955539 
L 384.623013 346.983974 
L 370.342572 346.983974 
z
" clip-path="url(#p87f74f608a)" style="fill: #ffc107"/>
   </g>
   <g id="patch_22">
    <path d="M 388.193124 455.955539 
L 402.473565 455.955539 
L 402.473565 346.983974 
L 388.193124 346.983974 
z
" clip-path="url(#p87f74f608a)" style="fill: #ffc107"/>
   </g>
   <g id="patch_23">
    <path d="M 406.043675 455.955539 
L 420.324117 455.955539 
L 420.324117 455.955539 
L 406.043675 455.955539 
z
" clip-path="url(#p87f74f608a)" style="fill: #ffc107"/>
   </g>
   <g id="patch_24">
    <path d="M 423.894227 455.955539 
L 438.174669 455.955539 
L 438.174669 455.955539 
L 423.894227 455.955539 
z
" clip-path="url(#p87f74f608a)" style="fill: #ffc107"/>
   </g>
   <g id="patch_25">
    <path d="M 441.744779 455.955539 
L 456.025221 455.955539 
L 456.025221 401.469756 
L 441.744779 401.469756 
z
" clip-path="url(#p87f74f608a)" style="fill: #ffc107"/>
   </g>
   <g id="patch_26">
    <path d="M 459.595331 455.955539 
L 473.875773 455.955539 
L 473.875773 455.955539 
L 459.595331 455.955539 
z
" clip-path="url(#p87f74f608a)" style="fill: #ffc107"/>
   </g>
   <g id="patch_27">
    <path d="M 477.445883 455.955539 
L 491.726325 455.955539 
L 491.726325 374.226865 
L 477.445883 374.226865 
z
" clip-path="url(#p87f74f608a)" style="fill: #ffc107"/>
   </g>
   <g id="patch_28">
    <path d="M 495.296435 455.955539 
L 509.576876 455.955539 
L 509.576876 346.983974 
L 495.296435 346.983974 
z
" clip-path="url(#p87f74f608a)" style="fill: #ffc107"/>
   </g>
   <g id="patch_29">
    <path d="M 513.146987 455.955539 
L 527.427428 455.955539 
L 527.427428 455.955539 
L 513.146987 455.955539 
z
" clip-path="url(#p87f74f608a)" style="fill: #ffc107"/>
   </g>
   <g id="patch_30">
    <path d="M 530.997539 455.955539 
L 545.27798 455.955539 
L 545.27798 455.955539 
L 530.997539 455.955539 
z
" clip-path="url(#p87f74f608a)" style="fill: #ffc107"/>
   </g>
   <g id="patch_31">
    <path d="M 548.848091 455.955539 
L 563.128532 455.955539 
L 563.128532 401.469756 
L 548.848091 401.469756 
z
" clip-path="url(#p87f74f608a)" style="fill: #ffc107"/>
   </g>
   <g id="patch_32">
    <path d="M 566.698642 455.955539 
L 580.979084 455.955539 
L 580.979084 455.955539 
L 566.698642 455.955539 
z
" clip-path="url(#p87f74f608a)" style="fill: #ffc107"/>
   </g>
   <g id="patch_33">
    <path d="M 584.549194 455.955539 
L 598.829636 455.955539 
L 598.829636 455.955539 
L 584.549194 455.955539 
z
" clip-path="url(#p87f74f608a)" style="fill: #ffc107"/>
   </g>
   <g id="patch_34">
    <path d="M 602.399746 455.955539 
L 616.680188 455.955539 
L 616.680188 401.469756 
L 602.399746 401.469756 
z
" clip-path="url(#p87f74f608a)" style="fill: #ffc107"/>
   </g>
   <g id="patch_35">
    <path d="M 620.250298 455.955539 
L 634.53074 455.955539 
L 634.53074 401.469756 
L 620.250298 401.469756 
z
" clip-path="url(#p87f74f608a)" style="fill: #ffc107"/>
   </g>
   <g id="patch_36">
    <path d="M 638.10085 455.955539 
L 652.381291 455.955539 
L 652.381291 455.955539 
L 638.10085 455.955539 
z
" clip-path="url(#p87f74f608a)" style="fill: #ffc107"/>
   </g>
   <g id="patch_37">
    <path d="M 655.951402 455.955539 
L 670.231843 455.955539 
L 670.231843 346.983974 
L 655.951402 346.983974 
z
" clip-path="url(#p87f74f608a)" style="fill: #ffc107"/>
   </g>
   <g id="patch_38">
    <path d="M 673.801954 455.955539 
L 688.082395 455.955539 
L 688.082395 455.955539 
L 673.801954 455.955539 
z
" clip-path="url(#p87f74f608a)" style="fill: #ffc107"/>
   </g>
   <g id="patch_39">
    <path d="M 691.652506 455.955539 
L 705.932947 455.955539 
L 705.932947 455.955539 
L 691.652506 455.955539 
z
" clip-path="url(#p87f74f608a)" style="fill: #ffc107"/>
   </g>
   <g id="patch_40">
    <path d="M 709.503057 455.955539 
L 723.783499 455.955539 
L 723.783499 455.955539 
L 709.503057 455.955539 
z
" clip-path="url(#p87f74f608a)" style="fill: #ffc107"/>
   </g>
   <g id="patch_41">
    <path d="M 727.353609 455.955539 
L 741.634051 455.955539 
L 741.634051 455.955539 
L 727.353609 455.955539 
z
" clip-path="url(#p87f74f608a)" style="fill: #ffc107"/>
   </g>
   <g id="patch_42">
    <path d="M 745.204161 455.955539 
L 759.484603 455.955539 
L 759.484603 455.955539 
L 745.204161 455.955539 
z
" clip-path="url(#p87f74f608a)" style="fill: #ffc107"/>
   </g>
   <g id="patch_43">
    <path d="M 763.054713 455.955539 
L 777.335155 455.955539 
L 777.335155 455.955539 
L 763.054713 455.955539 
z
" clip-path="url(#p87f74f608a)" style="fill: #ffc107"/>
   </g>
   <g id="patch_44">
    <path d="M 780.905265 455.955539 
L 795.185706 455.955539 
L 795.185706 428.712648 
L 780.905265 428.712648 
z
" clip-path="url(#p87f74f608a)" style="fill: #ffc107"/>
   </g>
   <g id="patch_45">
    <path d="M 798.755817 455.955539 
L 813.036258 455.955539 
L 813.036258 455.955539 
L 798.755817 455.955539 
z
" clip-path="url(#p87f74f608a)" style="fill: #ffc107"/>
   </g>
   <g id="patch_46">
    <path d="M 816.606369 455.955539 
L 830.88681 455.955539 
L 830.88681 319.741082 
L 816.606369 319.741082 
z
" clip-path="url(#p87f74f608a)" style="fill: #ffc107"/>
   </g>
   <g id="patch_47">
    <path d="M 834.456921 455.955539 
L 848.737362 455.955539 
L 848.737362 346.983974 
L 834.456921 346.983974 
z
" clip-path="url(#p87f74f608a)" style="fill: #ffc107"/>
   </g>
   <g id="patch_48">
    <path d="M 49.032638 455.955539 
L 63.313079 455.955539 
L 63.313079 455.955539 
L 49.032638 455.955539 
z
" clip-path="url(#p87f74f608a)" style="fill: #2196f3"/>
   </g>
   <g id="patch_49">
    <path d="M 66.88319 455.955539 
L 81.163631 455.955539 
L 81.163631 129.040843 
L 66.88319 129.040843 
z
" clip-path="url(#p87f74f608a)" style="fill: #2196f3"/>
   </g>
   <g id="patch_50">
    <path d="M 84.733742 455.955539 
L 99.014183 455.955539 
L 99.014183 455.955539 
L 84.733742 455.955539 
z
" clip-path="url(#p87f74f608a)" style="fill: #2196f3"/>
   </g>
   <g id="patch_51">
    <path d="M 102.584294 455.955539 
L 116.864735 455.955539 
L 116.864735 455.955539 
L 102.584294 455.955539 
z
" clip-path="url(#p87f74f608a)" style="fill: #2196f3"/>
   </g>
   <g id="patch_52">
    <path d="M 120.434845 455.955539 
L 134.715287 455.955539 
L 134.715287 346.983974 
L 120.434845 346.983974 
z
" clip-path="url(#p87f74f608a)" style="fill: #2196f3"/>
   </g>
   <g id="patch_53">
    <path d="M 138.285397 455.955539 
L 152.565839 455.955539 
L 152.565839 238.012408 
L 138.285397 238.012408 
z
" clip-path="url(#p87f74f608a)" style="fill: #2196f3"/>
   </g>
   <g id="patch_54">
    <path d="M 156.135949 455.955539 
L 170.416391 455.955539 
L 170.416391 401.469756 
L 156.135949 401.469756 
z
" clip-path="url(#p87f74f608a)" style="fill: #2196f3"/>
   </g>
   <g id="patch_55">
    <path d="M 173.986501 401.469756 
L 188.266943 401.469756 
L 188.266943 346.983974 
L 173.986501 346.983974 
z
" clip-path="url(#p87f74f608a)" style="fill: #2196f3"/>
   </g>
   <g id="patch_56">
    <path d="M 191.837053 455.955539 
L 206.117494 455.955539 
L 206.117494 455.955539 
L 191.837053 455.955539 
z
" clip-path="url(#p87f74f608a)" style="fill: #2196f3"/>
   </g>
   <g id="patch_57">
    <path d="M 209.687605 401.469756 
L 223.968046 401.469756 
L 223.968046 346.983974 
L 209.687605 346.983974 
z
" clip-path="url(#p87f74f608a)" style="fill: #2196f3"/>
   </g>
   <g id="patch_58">
    <path d="M 227.538157 401.469756 
L 241.818598 401.469756 
L 241.818598 346.983974 
L 227.538157 346.983974 
z
" clip-path="url(#p87f74f608a)" style="fill: #2196f3"/>
   </g>
   <g id="patch_59">
    <path d="M 245.388709 455.955539 
L 259.66915 455.955539 
L 259.66915 401.469756 
L 245.388709 401.469756 
z
" clip-path="url(#p87f74f608a)" style="fill: #2196f3"/>
   </g>
   <g id="patch_60">
    <path d="M 263.23926 401.469756 
L 277.519702 401.469756 
L 277.519702 292.498191 
L 263.23926 292.498191 
z
" clip-path="url(#p87f74f608a)" style="fill: #2196f3"/>
   </g>
   <g id="patch_61">
    <path d="M 281.089812 374.226865 
L 295.370254 374.226865 
L 295.370254 265.255299 
L 281.089812 265.255299 
z
" clip-path="url(#p87f74f608a)" style="fill: #2196f3"/>
   </g>
   <g id="patch_62">
    <path d="M 298.940364 455.955539 
L 313.220806 455.955539 
L 313.220806 346.983974 
L 298.940364 346.983974 
z
" clip-path="url(#p87f74f608a)" style="fill: #2196f3"/>
   </g>
   <g id="patch_63">
    <path d="M 316.790916 319.741082 
L 331.071358 319.741082 
L 331.071358 265.255299 
L 316.790916 265.255299 
z
" clip-path="url(#p87f74f608a)" style="fill: #2196f3"/>
   </g>
   <g id="patch_64">
    <path d="M 334.641468 455.955539 
L 348.921909 455.955539 
L 348.921909 401.469756 
L 334.641468 401.469756 
z
" clip-path="url(#p87f74f608a)" style="fill: #2196f3"/>
   </g>
   <g id="patch_65">
    <path d="M 352.49202 455.955539 
L 366.772461 455.955539 
L 366.772461 346.983974 
L 352.49202 346.983974 
z
" clip-path="url(#p87f74f608a)" style="fill: #2196f3"/>
   </g>
   <g id="patch_66">
    <path d="M 370.342572 455.955539 
L 384.623013 455.955539 
L 384.623013 455.955539 
L 370.342572 455.955539 
z
" clip-path="url(#p87f74f608a)" style="fill: #2196f3"/>
   </g>
   <g id="patch_67">
    <path d="M 388.193124 455.955539 
L 402.473565 455.955539 
L 402.473565 455.955539 
L 388.193124 455.955539 
z
" clip-path="url(#p87f74f608a)" style="fill: #2196f3"/>
   </g>
   <g id="patch_68">
    <path d="M 406.043675 455.955539 
L 420.324117 455.955539 
L 420.324117 346.983974 
L 406.043675 346.983974 
z
" clip-path="url(#p87f74f608a)" style="fill: #2196f3"/>
   </g>
   <g id="patch_69">
    <path d="M 423.894227 455.955539 
L 438.174669 455.955539 
L 438.174669 401.469756 
L 423.894227 401.469756 
z
" clip-path="url(#p87f74f608a)" style="fill: #2196f3"/>
   </g>
   <g id="patch_70">
    <path d="M 441.744779 455.955539 
L 456.025221 455.955539 
L 456.025221 455.955539 
L 441.744779 455.955539 
z
" clip-path="url(#p87f74f608a)" style="fill: #2196f3"/>
   </g>
   <g id="patch_71">
    <path d="M 459.595331 455.955539 
L 473.875773 455.955539 
L 473.875773 346.983974 
L 459.595331 346.983974 
z
" clip-path="url(#p87f74f608a)" style="fill: #2196f3"/>
   </g>
   <g id="patch_72">
    <path d="M 477.445883 374.226865 
L 491.726325 374.226865 
L 491.726325 319.741082 
L 477.445883 319.741082 
z
" clip-path="url(#p87f74f608a)" style="fill: #2196f3"/>
   </g>
   <g id="patch_73">
    <path d="M 495.296435 346.983974 
L 509.576876 346.983974 
L 509.576876 292.498191 
L 495.296435 292.498191 
z
" clip-path="url(#p87f74f608a)" style="fill: #2196f3"/>
   </g>
   <g id="patch_74">
    <path d="M 513.146987 455.955539 
L 527.427428 455.955539 
L 527.427428 401.469756 
L 513.146987 401.469756 
z
" clip-path="url(#p87f74f608a)" style="fill: #2196f3"/>
   </g>
   <g id="patch_75">
    <path d="M 530.997539 455.955539 
L 545.27798 455.955539 
L 545.27798 238.012408 
L 530.997539 238.012408 
z
" clip-path="url(#p87f74f608a)" style="fill: #2196f3"/>
   </g>
   <g id="patch_76">
    <path d="M 548.848091 455.955539 
L 563.128532 455.955539 
L 563.128532 455.955539 
L 548.848091 455.955539 
z
" clip-path="url(#p87f74f608a)" style="fill: #2196f3"/>
   </g>
   <g id="patch_77">
    <path d="M 566.698642 455.955539 
L 580.979084 455.955539 
L 580.979084 455.955539 
L 566.698642 455.955539 
z
" clip-path="url(#p87f74f608a)" style="fill: #2196f3"/>
   </g>
   <g id="patch_78">
    <path d="M 584.549194 455.955539 
L 598.829636 455.955539 
L 598.829636 346.983974 
L 584.549194 346.983974 
z
" clip-path="url(#p87f74f608a)" style="fill: #2196f3"/>
   </g>
   <g id="patch_79">
    <path d="M 602.399746 455.955539 
L 616.680188 455.955539 
L 616.680188 455.955539 
L 602.399746 455.955539 
z
" clip-path="url(#p87f74f608a)" style="fill: #2196f3"/>
   </g>
   <g id="patch_80">
    <path d="M 620.250298 455.955539 
L 634.53074 455.955539 
L 634.53074 455.955539 
L 620.250298 455.955539 
z
" clip-path="url(#p87f74f608a)" style="fill: #2196f3"/>
   </g>
   <g id="patch_81">
    <path d="M 638.10085 455.955539 
L 652.381291 455.955539 
L 652.381291 346.983974 
L 638.10085 346.983974 
z
" clip-path="url(#p87f74f608a)" style="fill: #2196f3"/>
   </g>
   <g id="patch_82">
    <path d="M 655.951402 346.983974 
L 670.231843 346.983974 
L 670.231843 238.012408 
L 655.951402 238.012408 
z
" clip-path="url(#p87f74f608a)" style="fill: #2196f3"/>
   </g>
   <g id="patch_83">
    <path d="M 673.801954 455.955539 
L 688.082395 455.955539 
L 688.082395 238.012408 
L 673.801954 238.012408 
z
" clip-path="url(#p87f74f608a)" style="fill: #2196f3"/>
   </g>
   <g id="patch_84">
    <path d="M 691.652506 455.955539 
L 705.932947 455.955539 
L 705.932947 401.469756 
L 691.652506 401.469756 
z
" clip-path="url(#p87f74f608a)" style="fill: #2196f3"/>
   </g>
   <g id="patch_85">
    <path d="M 709.503057 455.955539 
L 723.783499 455.955539 
L 723.783499 129.040843 
L 709.503057 129.040843 
z
" clip-path="url(#p87f74f608a)" style="fill: #2196f3"/>
   </g>
   <g id="patch_86">
    <path d="M 727.353609 455.955539 
L 741.634051 455.955539 
L 741.634051 401.469756 
L 727.353609 401.469756 
z
" clip-path="url(#p87f74f608a)" style="fill: #2196f3"/>
   </g>
   <g id="patch_87">
    <path d="M 745.204161 455.955539 
L 759.484603 455.955539 
L 759.484603 401.469756 
L 745.204161 401.469756 
z
" clip-path="url(#p87f74f608a)" style="fill: #2196f3"/>
   </g>
   <g id="patch_88">
    <path d="M 763.054713 455.955539 
L 777.335155 455.955539 
L 777.335155 401.469756 
L 763.054713 401.469756 
z
" clip-path="url(#p87f74f608a)" style="fill: #2196f3"/>
   </g>
   <g id="patch_89">
    <path d="M 780.905265 428.712648 
L 795.185706 428.712648 
L 795.185706 319.741082 
L 780.905265 319.741082 
z
" clip-path="url(#p87f74f608a)" style="fill: #2196f3"/>
   </g>
   <g id="patch_90">
    <path d="M 798.755817 455.955539 
L 813.036258 455.955539 
L 813.036258 401.469756 
L 798.755817 401.469756 
z
" clip-path="url(#p87f74f608a)" style="fill: #2196f3"/>
   </g>
   <g id="patch_91">
    <path d="M 816.606369 319.741082 
L 830.88681 319.741082 
L 830.88681 47.312169 
L 816.606369 47.312169 
z
" clip-path="url(#p87f74f608a)" style="fill: #2196f3"/>
   </g>
   <g id="patch_92">
    <path d="M 834.456921 346.983974 
L 848.737362 346.983974 
L 848.737362 183.526625 
L 834.456921 183.526625 
z
" clip-path="url(#p87f74f608a)" style="fill: #2196f3"/>
   </g>
   <g id="patch_93">
    <path d="M 49.032638 455.955539 
L 63.313079 455.955539 
L 63.313079 374.226865 
L 49.032638 374.226865 
z
" clip-path="url(#p87f74f608a)" style="fill: #4caf50"/>
   </g>
   <g id="patch_94">
    <path d="M 66.88319 455.955539 
L 81.163631 455.955539 
L 81.163631 455.955539 
L 66.88319 455.955539 
z
" clip-path="url(#p87f74f608a)" style="fill: #4caf50"/>
   </g>
   <g id="patch_95">
    <path d="M 84.733742 455.955539 
L 99.014183 455.955539 
L 99.014183 374.226865 
L 84.733742 374.226865 
z
" clip-path="url(#p87f74f608a)" style="fill: #4caf50"/>
   </g>
   <g id="patch_96">
    <path d="M 102.584294 455.955539 
L 116.864735 455.955539 
L 116.864735 374.226865 
L 102.584294 374.226865 
z
" clip-path="url(#p87f74f608a)" style="fill: #4caf50"/>
   </g>
   <g id="patch_97">
    <path d="M 120.434845 346.983974 
L 134.715287 346.983974 
L 134.715287 265.255299 
L 120.434845 265.255299 
z
" clip-path="url(#p87f74f608a)" style="fill: #4caf50"/>
   </g>
   <g id="patch_98">
    <path d="M 138.285397 455.955539 
L 152.565839 455.955539 
L 152.565839 455.955539 
L 138.285397 455.955539 
z
" clip-path="url(#p87f74f608a)" style="fill: #4caf50"/>
   </g>
   <g id="patch_99">
    <path d="M 156.135949 401.469756 
L 170.416391 401.469756 
L 170.416391 319.741082 
L 156.135949 319.741082 
z
" clip-path="url(#p87f74f608a)" style="fill: #4caf50"/>
   </g>
   <g id="patch_100">
    <path d="M 173.986501 455.955539 
L 188.266943 455.955539 
L 188.266943 455.955539 
L 173.986501 455.955539 
z
" clip-path="url(#p87f74f608a)" style="fill: #4caf50"/>
   </g>
   <g id="patch_101">
    <path d="M 191.837053 455.955539 
L 206.117494 455.955539 
L 206.117494 455.955539 
L 191.837053 455.955539 
z
" clip-path="url(#p87f74f608a)" style="fill: #4caf50"/>
   </g>
   <g id="patch_102">
    <path d="M 209.687605 455.955539 
L 223.968046 455.955539 
L 223.968046 455.955539 
L 209.687605 455.955539 
z
" clip-path="url(#p87f74f608a)" style="fill: #4caf50"/>
   </g>
   <g id="patch_103">
    <path d="M 227.538157 346.983974 
L 241.818598 346.983974 
L 241.818598 265.255299 
L 227.538157 265.255299 
z
" clip-path="url(#p87f74f608a)" style="fill: #4caf50"/>
   </g>
   <g id="patch_104">
    <path d="M 245.388709 455.955539 
L 259.66915 455.955539 
L 259.66915 455.955539 
L 245.388709 455.955539 
z
" clip-path="url(#p87f74f608a)" style="fill: #4caf50"/>
   </g>
   <g id="patch_105">
    <path d="M 263.23926 292.498191 
L 277.519702 292.498191 
L 277.519702 210.769517 
L 263.23926 210.769517 
z
" clip-path="url(#p87f74f608a)" style="fill: #4caf50"/>
   </g>
   <g id="patch_106">
    <path d="M 281.089812 265.255299 
L 295.370254 265.255299 
L 295.370254 183.526625 
L 281.089812 183.526625 
z
" clip-path="url(#p87f74f608a)" style="fill: #4caf50"/>
   </g>
   <g id="patch_107">
    <path d="M 298.940364 455.955539 
L 313.220806 455.955539 
L 313.220806 455.955539 
L 298.940364 455.955539 
z
" clip-path="url(#p87f74f608a)" style="fill: #4caf50"/>
   </g>
   <g id="patch_108">
    <path d="M 316.790916 265.255299 
L 331.071358 265.255299 
L 331.071358 101.797951 
L 316.790916 101.797951 
z
" clip-path="url(#p87f74f608a)" style="fill: #4caf50"/>
   </g>
   <g id="patch_109">
    <path d="M 334.641468 401.469756 
L 348.921909 401.469756 
L 348.921909 238.012408 
L 334.641468 238.012408 
z
" clip-path="url(#p87f74f608a)" style="fill: #4caf50"/>
   </g>
   <g id="patch_110">
    <path d="M 352.49202 346.983974 
L 366.772461 346.983974 
L 366.772461 183.526625 
L 352.49202 183.526625 
z
" clip-path="url(#p87f74f608a)" style="fill: #4caf50"/>
   </g>
   <g id="patch_111">
    <path d="M 370.342572 455.955539 
L 384.623013 455.955539 
L 384.623013 455.955539 
L 370.342572 455.955539 
z
" clip-path="url(#p87f74f608a)" style="fill: #4caf50"/>
   </g>
   <g id="patch_112">
    <path d="M 388.193124 346.983974 
L 402.473565 346.983974 
L 402.473565 265.255299 
L 388.193124 265.255299 
z
" clip-path="url(#p87f74f608a)" style="fill: #4caf50"/>
   </g>
   <g id="patch_113">
    <path d="M 406.043675 455.955539 
L 420.324117 455.955539 
L 420.324117 455.955539 
L 406.043675 455.955539 
z
" clip-path="url(#p87f74f608a)" style="fill: #4caf50"/>
   </g>
   <g id="patch_114">
    <path d="M 423.894227 401.469756 
L 438.174669 401.469756 
L 438.174669 319.741082 
L 423.894227 319.741082 
z
" clip-path="url(#p87f74f608a)" style="fill: #4caf50"/>
   </g>
   <g id="patch_115">
    <path d="M 441.744779 401.469756 
L 456.025221 401.469756 
L 456.025221 238.012408 
L 441.744779 238.012408 
z
" clip-path="url(#p87f74f608a)" style="fill: #4caf50"/>
   </g>
   <g id="patch_116">
    <path d="M 459.595331 346.983974 
L 473.875773 346.983974 
L 473.875773 101.797951 
L 459.595331 101.797951 
z
" clip-path="url(#p87f74f608a)" style="fill: #4caf50"/>
   </g>
   <g id="patch_117">
    <path d="M 477.445883 319.741082 
L 491.726325 319.741082 
L 491.726325 74.55506 
L 477.445883 74.55506 
z
" clip-path="url(#p87f74f608a)" style="fill: #4caf50"/>
   </g>
   <g id="patch_118">
    <path d="M 495.296435 455.955539 
L 509.576876 455.955539 
L 509.576876 455.955539 
L 495.296435 455.955539 
z
" clip-path="url(#p87f74f608a)" style="fill: #4caf50"/>
   </g>
   <g id="patch_119">
    <path d="M 513.146987 401.469756 
L 527.427428 401.469756 
L 527.427428 319.741082 
L 513.146987 319.741082 
z
" clip-path="url(#p87f74f608a)" style="fill: #4caf50"/>
   </g>
   <g id="patch_120">
    <path d="M 530.997539 238.012408 
L 545.27798 238.012408 
L 545.27798 156.283734 
L 530.997539 156.283734 
z
" clip-path="url(#p87f74f608a)" style="fill: #4caf50"/>
   </g>
   <g id="patch_121">
    <path d="M 548.848091 455.955539 
L 563.128532 455.955539 
L 563.128532 455.955539 
L 548.848091 455.955539 
z
" clip-path="url(#p87f74f608a)" style="fill: #4caf50"/>
   </g>
   <g id="patch_122">
    <path d="M 566.698642 455.955539 
L 580.979084 455.955539 
L 580.979084 292.498191 
L 566.698642 292.498191 
z
" clip-path="url(#p87f74f608a)" style="fill: #4caf50"/>
   </g>
   <g id="patch_123">
    <path d="M 584.549194 455.955539 
L 598.829636 455.955539 
L 598.829636 455.955539 
L 584.549194 455.955539 
z
" clip-path="url(#p87f74f608a)" style="fill: #4caf50"/>
   </g>
   <g id="patch_124">
    <path d="M 602.399746 455.955539 
L 616.680188 455.955539 
L 616.680188 455.955539 
L 602.399746 455.955539 
z
" clip-path="url(#p87f74f608a)" style="fill: #4caf50"/>
   </g>
   <g id="patch_125">
    <path d="M 620.250298 401.469756 
L 634.53074 401.469756 
L 634.53074 319.741082 
L 620.250298 319.741082 
z
" clip-path="url(#p87f74f608a)" style="fill: #4caf50"/>
   </g>
   <g id="patch_126">
    <path d="M 638.10085 455.955539 
L 652.381291 455.955539 
L 652.381291 455.955539 
L 638.10085 455.955539 
z
" clip-path="url(#p87f74f608a)" style="fill: #4caf50"/>
   </g>
   <g id="patch_127">
    <path d="M 655.951402 455.955539 
L 670.231843 455.955539 
L 670.231843 455.955539 
L 655.951402 455.955539 
z
" clip-path="url(#p87f74f608a)" style="fill: #4caf50"/>
   </g>
   <g id="patch_128">
    <path d="M 673.801954 455.955539 
L 688.082395 455.955539 
L 688.082395 455.955539 
L 673.801954 455.955539 
z
" clip-path="url(#p87f74f608a)" style="fill: #4caf50"/>
   </g>
   <g id="patch_129">
    <path d="M 691.652506 455.955539 
L 705.932947 455.955539 
L 705.932947 455.955539 
L 691.652506 455.955539 
z
" clip-path="url(#p87f74f608a)" style="fill: #4caf50"/>
   </g>
   <g id="patch_130">
    <path d="M 709.503057 455.955539 
L 723.783499 455.955539 
L 723.783499 455.955539 
L 709.503057 455.955539 
z
" clip-path="url(#p87f74f608a)" style="fill: #4caf50"/>
   </g>
   <g id="patch_131">
    <path d="M 727.353609 455.955539 
L 741.634051 455.955539 
L 741.634051 455.955539 
L 727.353609 455.955539 
z
" clip-path="url(#p87f74f608a)" style="fill: #4caf50"/>
   </g>
   <g id="patch_132">
    <path d="M 745.204161 455.955539 
L 759.484603 455.955539 
L 759.484603 455.955539 
L 745.204161 455.955539 
z
" clip-path="url(#p87f74f608a)" style="fill: #4caf50"/>
   </g>
   <g id="patch_133">
    <path d="M 763.054713 401.469756 
L 777.335155 401.469756 
L 777.335155 319.741082 
L 763.054713 319.741082 
z
" clip-path="url(#p87f74f608a)" style="fill: #4caf50"/>
   </g>
   <g id="patch_134">
    <path d="M 780.905265 455.955539 
L 795.185706 455.955539 
L 795.185706 455.955539 
L 780.905265 455.955539 
z
" clip-path="url(#p87f74f608a)" style="fill: #4caf50"/>
   </g>
   <g id="patch_135">
    <path d="M 798.755817 455.955539 
L 813.036258 455.955539 
L 813.036258 455.955539 
L 798.755817 455.955539 
z
" clip-path="url(#p87f74f608a)" style="fill: #4caf50"/>
   </g>
   <g id="patch_136">
    <path d="M 816.606369 455.955539 
L 830.88681 455.955539 
L 830.88681 455.955539 
L 816.606369 455.955539 
z
" clip-path="url(#p87f74f608a)" style="fill: #4caf50"/>
   </g>
   <g id="patch_137">
    <path d="M 834.456921 455.955539 
L 848.737362 455.955539 
L 848.737362 455.955539 
L 834.456921 455.955539 
z
" clip-path="url(#p87f74f608a)" style="fill: #4caf50"/>
   </g>
   <g id="matplotlib.axis_1">
    <g id="xtick_1">
     <g id="line2d_1">
      <defs>
       <path id="m77be132281" d="M 0 0 
L 0 3.5 
" style="stroke: #000000; stroke-width: 0.8"/>
      </defs>
      <g>
       <use xlink:href="#m77be132281" x="56.172859" y="455.955539" style="stroke: #000000; stroke-width: 0.8"/>
      </g>
     </g>
     <g id="text_1">
      <!-- 0 -->
      <g transform="translate(55.874548 472.827413) rotate(-45) scale(0.1 -0.1)">
       <defs>
        <path id="DejaVuSans-30" d="M 2034 4250 
Q 1547 4250 1301 3770 
Q 1056 3291 1056 2328 
Q 1056 1369 1301 889 
Q 1547 409 2034 409 
Q 2525 409 2770 889 
Q 3016 1369 3016 2328 
Q 3016 3291 2770 3770 
Q 2525 4250 2034 4250 
z
M 2034 4750 
Q 2819 4750 3233 4129 
Q 3647 3509 3647 2328 
Q 3647 1150 3233 529 
Q 2819 -91 2034 -91 
Q 1250 -91 836 529 
Q 422 1150 422 2328 
Q 422 3509 836 4129 
Q 1250 4750 2034 4750 
z
" transform="scale(0.015625)"/>
       </defs>
       <use xlink:href="#DejaVuSans-30"/>
      </g>
     </g>
    </g>
    <g id="xtick_2">
     <g id="line2d_2">
      <g>
       <use xlink:href="#m77be132281" x="74.023411" y="455.955539" style="stroke: #000000; stroke-width: 0.8"/>
      </g>
     </g>
    </g>
    <g id="xtick_3">
     <g id="line2d_3">
      <g>
       <use xlink:href="#m77be132281" x="91.873962" y="455.955539" style="stroke: #000000; stroke-width: 0.8"/>
      </g>
     </g>
    </g>
    <g id="xtick_4">
     <g id="line2d_4">
      <g>
       <use xlink:href="#m77be132281" x="109.724514" y="455.955539" style="stroke: #000000; stroke-width: 0.8"/>
      </g>
     </g>
    </g>
    <g id="xtick_5">
     <g id="line2d_5">
      <g>
       <use xlink:href="#m77be132281" x="127.575066" y="455.955539" style="stroke: #000000; stroke-width: 0.8"/>
      </g>
     </g>
    </g>
    <g id="xtick_6">
     <g id="line2d_6">
      <g>
       <use xlink:href="#m77be132281" x="145.425618" y="455.955539" style="stroke: #000000; stroke-width: 0.8"/>
      </g>
     </g>
    </g>
    <g id="xtick_7">
     <g id="line2d_7">
      <g>
       <use xlink:href="#m77be132281" x="163.27617" y="455.955539" style="stroke: #000000; stroke-width: 0.8"/>
      </g>
     </g>
    </g>
    <g id="xtick_8">
     <g id="line2d_8">
      <g>
       <use xlink:href="#m77be132281" x="181.126722" y="455.955539" style="stroke: #000000; stroke-width: 0.8"/>
      </g>
     </g>
    </g>
    <g id="xtick_9">
     <g id="line2d_9">
      <g>
       <use xlink:href="#m77be132281" x="198.977274" y="455.955539" style="stroke: #000000; stroke-width: 0.8"/>
      </g>
     </g>
     <g id="text_2">
      <!-- 10 -->
      <g transform="translate(196.42948 477.326379) rotate(-45) scale(0.1 -0.1)">
       <defs>
        <path id="DejaVuSans-31" d="M 794 531 
L 1825 531 
L 1825 4091 
L 703 3866 
L 703 4441 
L 1819 4666 
L 2450 4666 
L 2450 531 
L 3481 531 
L 3481 0 
L 794 0 
L 794 531 
z
" transform="scale(0.015625)"/>
       </defs>
       <use xlink:href="#DejaVuSans-31"/>
       <use xlink:href="#DejaVuSans-30" transform="translate(63.623047 0)"/>
      </g>
     </g>
    </g>
    <g id="xtick_10">
     <g id="line2d_10">
      <g>
       <use xlink:href="#m77be132281" x="216.827826" y="455.955539" style="stroke: #000000; stroke-width: 0.8"/>
      </g>
     </g>
     <g id="text_3">
      <!-- 11 -->
      <g transform="translate(214.280031 477.326379) rotate(-45) scale(0.1 -0.1)">
       <use xlink:href="#DejaVuSans-31"/>
       <use xlink:href="#DejaVuSans-31" transform="translate(63.623047 0)"/>
      </g>
     </g>
    </g>
    <g id="xtick_11">
     <g id="line2d_11">
      <g>
       <use xlink:href="#m77be132281" x="234.678377" y="455.955539" style="stroke: #000000; stroke-width: 0.8"/>
      </g>
     </g>
    </g>
    <g id="xtick_12">
     <g id="line2d_12">
      <g>
       <use xlink:href="#m77be132281" x="252.528929" y="455.955539" style="stroke: #000000; stroke-width: 0.8"/>
      </g>
     </g>
    </g>
    <g id="xtick_13">
     <g id="line2d_13">
      <g>
       <use xlink:href="#m77be132281" x="270.379481" y="455.955539" style="stroke: #000000; stroke-width: 0.8"/>
      </g>
     </g>
    </g>
    <g id="xtick_14">
     <g id="line2d_14">
      <g>
       <use xlink:href="#m77be132281" x="288.230033" y="455.955539" style="stroke: #000000; stroke-width: 0.8"/>
      </g>
     </g>
     <g id="text_4">
      <!-- 15 -->
      <g transform="translate(285.682239 477.326379) rotate(-45) scale(0.1 -0.1)">
       <defs>
        <path id="DejaVuSans-35" d="M 691 4666 
L 3169 4666 
L 3169 4134 
L 1269 4134 
L 1269 2991 
Q 1406 3038 1543 3061 
Q 1681 3084 1819 3084 
Q 2600 3084 3056 2656 
Q 3513 2228 3513 1497 
Q 3513 744 3044 326 
Q 2575 -91 1722 -91 
Q 1428 -91 1123 -41 
Q 819 9 494 109 
L 494 744 
Q 775 591 1075 516 
Q 1375 441 1709 441 
Q 2250 441 2565 725 
Q 2881 1009 2881 1497 
Q 2881 1984 2565 2268 
Q 2250 2553 1709 2553 
Q 1456 2553 1204 2497 
Q 953 2441 691 2322 
L 691 4666 
z
" transform="scale(0.015625)"/>
       </defs>
       <use xlink:href="#DejaVuSans-31"/>
       <use xlink:href="#DejaVuSans-35" transform="translate(63.623047 0)"/>
      </g>
     </g>
    </g>
    <g id="xtick_15">
     <g id="line2d_15">
      <g>
       <use xlink:href="#m77be132281" x="306.080585" y="455.955539" style="stroke: #000000; stroke-width: 0.8"/>
      </g>
     </g>
    </g>
    <g id="xtick_16">
     <g id="line2d_16">
      <g>
       <use xlink:href="#m77be132281" x="323.931137" y="455.955539" style="stroke: #000000; stroke-width: 0.8"/>
      </g>
     </g>
    </g>
    <g id="xtick_17">
     <g id="line2d_17">
      <g>
       <use xlink:href="#m77be132281" x="341.781689" y="455.955539" style="stroke: #000000; stroke-width: 0.8"/>
      </g>
     </g>
    </g>
    <g id="xtick_18">
     <g id="line2d_18">
      <g>
       <use xlink:href="#m77be132281" x="359.632241" y="455.955539" style="stroke: #000000; stroke-width: 0.8"/>
      </g>
     </g>
    </g>
    <g id="xtick_19">
     <g id="line2d_19">
      <g>
       <use xlink:href="#m77be132281" x="377.482792" y="455.955539" style="stroke: #000000; stroke-width: 0.8"/>
      </g>
     </g>
    </g>
    <g id="xtick_20">
     <g id="line2d_20">
      <g>
       <use xlink:href="#m77be132281" x="395.333344" y="455.955539" style="stroke: #000000; stroke-width: 0.8"/>
      </g>
     </g>
    </g>
    <g id="xtick_21">
     <g id="line2d_21">
      <g>
       <use xlink:href="#m77be132281" x="413.183896" y="455.955539" style="stroke: #000000; stroke-width: 0.8"/>
      </g>
     </g>
     <g id="text_5">
      <!-- 23 -->
      <g transform="translate(410.636102 477.326379) rotate(-45) scale(0.1 -0.1)">
       <defs>
        <path id="DejaVuSans-32" d="M 1228 531 
L 3431 531 
L 3431 0 
L 469 0 
L 469 531 
Q 828 903 1448 1529 
Q 2069 2156 2228 2338 
Q 2531 2678 2651 2914 
Q 2772 3150 2772 3378 
Q 2772 3750 2511 3984 
Q 2250 4219 1831 4219 
Q 1534 4219 1204 4116 
Q 875 4013 500 3803 
L 500 4441 
Q 881 4594 1212 4672 
Q 1544 4750 1819 4750 
Q 2544 4750 2975 4387 
Q 3406 4025 3406 3419 
Q 3406 3131 3298 2873 
Q 3191 2616 2906 2266 
Q 2828 2175 2409 1742 
Q 1991 1309 1228 531 
z
" transform="scale(0.015625)"/>
        <path id="DejaVuSans-33" d="M 2597 2516 
Q 3050 2419 3304 2112 
Q 3559 1806 3559 1356 
Q 3559 666 3084 287 
Q 2609 -91 1734 -91 
Q 1441 -91 1130 -33 
Q 819 25 488 141 
L 488 750 
Q 750 597 1062 519 
Q 1375 441 1716 441 
Q 2309 441 2620 675 
Q 2931 909 2931 1356 
Q 2931 1769 2642 2001 
Q 2353 2234 1838 2234 
L 1294 2234 
L 1294 2753 
L 1863 2753 
Q 2328 2753 2575 2939 
Q 2822 3125 2822 3475 
Q 2822 3834 2567 4026 
Q 2313 4219 1838 4219 
Q 1578 4219 1281 4162 
Q 984 4106 628 3988 
L 628 4550 
Q 988 4650 1302 4700 
Q 1616 4750 1894 4750 
Q 2613 4750 3031 4423 
Q 3450 4097 3450 3541 
Q 3450 3153 3228 2886 
Q 3006 2619 2597 2516 
z
" transform="scale(0.015625)"/>
       </defs>
       <use xlink:href="#DejaVuSans-32"/>
       <use xlink:href="#DejaVuSans-33" transform="translate(63.623047 0)"/>
      </g>
     </g>
    </g>
    <g id="xtick_22">
     <g id="line2d_22">
      <g>
       <use xlink:href="#m77be132281" x="431.034448" y="455.955539" style="stroke: #000000; stroke-width: 0.8"/>
      </g>
     </g>
    </g>
    <g id="xtick_23">
     <g id="line2d_23">
      <g>
       <use xlink:href="#m77be132281" x="448.885" y="455.955539" style="stroke: #000000; stroke-width: 0.8"/>
      </g>
     </g>
     <g id="text_6">
      <!-- 25 -->
      <g transform="translate(446.337206 477.326379) rotate(-45) scale(0.1 -0.1)">
       <use xlink:href="#DejaVuSans-32"/>
       <use xlink:href="#DejaVuSans-35" transform="translate(63.623047 0)"/>
      </g>
     </g>
    </g>
    <g id="xtick_24">
     <g id="line2d_24">
      <g>
       <use xlink:href="#m77be132281" x="466.735552" y="455.955539" style="stroke: #000000; stroke-width: 0.8"/>
      </g>
     </g>
    </g>
    <g id="xtick_25">
     <g id="line2d_25">
      <g>
       <use xlink:href="#m77be132281" x="484.586104" y="455.955539" style="stroke: #000000; stroke-width: 0.8"/>
      </g>
     </g>
    </g>
    <g id="xtick_26">
     <g id="line2d_26">
      <g>
       <use xlink:href="#m77be132281" x="502.436656" y="455.955539" style="stroke: #000000; stroke-width: 0.8"/>
      </g>
     </g>
    </g>
    <g id="xtick_27">
     <g id="line2d_27">
      <g>
       <use xlink:href="#m77be132281" x="520.287208" y="455.955539" style="stroke: #000000; stroke-width: 0.8"/>
      </g>
     </g>
    </g>
    <g id="xtick_28">
     <g id="line2d_28">
      <g>
       <use xlink:href="#m77be132281" x="538.137759" y="455.955539" style="stroke: #000000; stroke-width: 0.8"/>
      </g>
     </g>
     <g id="text_7">
      <!-- 30 -->
      <g transform="translate(535.589965 477.326379) rotate(-45) scale(0.1 -0.1)">
       <use xlink:href="#DejaVuSans-33"/>
       <use xlink:href="#DejaVuSans-30" transform="translate(63.623047 0)"/>
      </g>
     </g>
    </g>
    <g id="xtick_29">
     <g id="line2d_29">
      <g>
       <use xlink:href="#m77be132281" x="555.988311" y="455.955539" style="stroke: #000000; stroke-width: 0.8"/>
      </g>
     </g>
    </g>
    <g id="xtick_30">
     <g id="line2d_30">
      <g>
       <use xlink:href="#m77be132281" x="573.838863" y="455.955539" style="stroke: #000000; stroke-width: 0.8"/>
      </g>
     </g>
    </g>
    <g id="xtick_31">
     <g id="line2d_31">
      <g>
       <use xlink:href="#m77be132281" x="591.689415" y="455.955539" style="stroke: #000000; stroke-width: 0.8"/>
      </g>
     </g>
    </g>
    <g id="xtick_32">
     <g id="line2d_32">
      <g>
       <use xlink:href="#m77be132281" x="609.539967" y="455.955539" style="stroke: #000000; stroke-width: 0.8"/>
      </g>
     </g>
    </g>
    <g id="xtick_33">
     <g id="line2d_33">
      <g>
       <use xlink:href="#m77be132281" x="627.390519" y="455.955539" style="stroke: #000000; stroke-width: 0.8"/>
      </g>
     </g>
     <g id="text_8">
      <!-- 35 -->
      <g transform="translate(624.842725 477.326379) rotate(-45) scale(0.1 -0.1)">
       <use xlink:href="#DejaVuSans-33"/>
       <use xlink:href="#DejaVuSans-35" transform="translate(63.623047 0)"/>
      </g>
     </g>
    </g>
    <g id="xtick_34">
     <g id="line2d_34">
      <g>
       <use xlink:href="#m77be132281" x="645.241071" y="455.955539" style="stroke: #000000; stroke-width: 0.8"/>
      </g>
     </g>
    </g>
    <g id="xtick_35">
     <g id="line2d_35">
      <g>
       <use xlink:href="#m77be132281" x="663.091623" y="455.955539" style="stroke: #000000; stroke-width: 0.8"/>
      </g>
     </g>
    </g>
    <g id="xtick_36">
     <g id="line2d_36">
      <g>
       <use xlink:href="#m77be132281" x="680.942174" y="455.955539" style="stroke: #000000; stroke-width: 0.8"/>
      </g>
     </g>
    </g>
    <g id="xtick_37">
     <g id="line2d_37">
      <g>
       <use xlink:href="#m77be132281" x="698.792726" y="455.955539" style="stroke: #000000; stroke-width: 0.8"/>
      </g>
     </g>
    </g>
    <g id="xtick_38">
     <g id="line2d_38">
      <g>
       <use xlink:href="#m77be132281" x="716.643278" y="455.955539" style="stroke: #000000; stroke-width: 0.8"/>
      </g>
     </g>
     <g id="text_9">
      <!-- 40 -->
      <g transform="translate(714.095484 477.326379) rotate(-45) scale(0.1 -0.1)">
       <defs>
        <path id="DejaVuSans-34" d="M 2419 4116 
L 825 1625 
L 2419 1625 
L 2419 4116 
z
M 2253 4666 
L 3047 4666 
L 3047 1625 
L 3713 1625 
L 3713 1100 
L 3047 1100 
L 3047 0 
L 2419 0 
L 2419 1100 
L 313 1100 
L 313 1709 
L 2253 4666 
z
" transform="scale(0.015625)"/>
       </defs>
       <use xlink:href="#DejaVuSans-34"/>
       <use xlink:href="#DejaVuSans-30" transform="translate(63.623047 0)"/>
      </g>
     </g>
    </g>
    <g id="xtick_39">
     <g id="line2d_39">
      <g>
       <use xlink:href="#m77be132281" x="734.49383" y="455.955539" style="stroke: #000000; stroke-width: 0.8"/>
      </g>
     </g>
    </g>
    <g id="xtick_40">
     <g id="line2d_40">
      <g>
       <use xlink:href="#m77be132281" x="752.344382" y="455.955539" style="stroke: #000000; stroke-width: 0.8"/>
      </g>
     </g>
    </g>
    <g id="xtick_41">
     <g id="line2d_41">
      <g>
       <use xlink:href="#m77be132281" x="770.194934" y="455.955539" style="stroke: #000000; stroke-width: 0.8"/>
      </g>
     </g>
    </g>
    <g id="xtick_42">
     <g id="line2d_42">
      <g>
       <use xlink:href="#m77be132281" x="788.045486" y="455.955539" style="stroke: #000000; stroke-width: 0.8"/>
      </g>
     </g>
    </g>
    <g id="xtick_43">
     <g id="line2d_43">
      <g>
       <use xlink:href="#m77be132281" x="805.896038" y="455.955539" style="stroke: #000000; stroke-width: 0.8"/>
      </g>
     </g>
     <g id="text_10">
      <!-- 45 -->
      <g transform="translate(803.348243 477.326379) rotate(-45) scale(0.1 -0.1)">
       <use xlink:href="#DejaVuSans-34"/>
       <use xlink:href="#DejaVuSans-35" transform="translate(63.623047 0)"/>
      </g>
     </g>
    </g>
    <g id="xtick_44">
     <g id="line2d_44">
      <g>
       <use xlink:href="#m77be132281" x="823.746589" y="455.955539" style="stroke: #000000; stroke-width: 0.8"/>
      </g>
     </g>
    </g>
    <g id="xtick_45">
     <g id="line2d_45">
      <g>
       <use xlink:href="#m77be132281" x="841.597141" y="455.955539" style="stroke: #000000; stroke-width: 0.8"/>
      </g>
     </g>
     <g id="text_11">
      <!-- 47 -->
      <g transform="translate(839.049347 477.326379) rotate(-45) scale(0.1 -0.1)">
       <defs>
        <path id="DejaVuSans-37" d="M 525 4666 
L 3525 4666 
L 3525 4397 
L 1831 0 
L 1172 0 
L 2766 4134 
L 525 4134 
L 525 4666 
z
" transform="scale(0.015625)"/>
       </defs>
       <use xlink:href="#DejaVuSans-34"/>
       <use xlink:href="#DejaVuSans-37" transform="translate(63.623047 0)"/>
      </g>
     </g>
    </g>
    <g id="text_12">
     <!-- Game Minute -->
     <g transform="translate(415.333438 490.395378) scale(0.1 -0.1)">
      <defs>
       <path id="DejaVuSans-47" d="M 3809 666 
L 3809 1919 
L 2778 1919 
L 2778 2438 
L 4434 2438 
L 4434 434 
Q 4069 175 3628 42 
Q 3188 -91 2688 -91 
Q 1594 -91 976 548 
Q 359 1188 359 2328 
Q 359 3472 976 4111 
Q 1594 4750 2688 4750 
Q 3144 4750 3555 4637 
Q 3966 4525 4313 4306 
L 4313 3634 
Q 3963 3931 3569 4081 
Q 3175 4231 2741 4231 
Q 1884 4231 1454 3753 
Q 1025 3275 1025 2328 
Q 1025 1384 1454 906 
Q 1884 428 2741 428 
Q 3075 428 3337 486 
Q 3600 544 3809 666 
z
" transform="scale(0.015625)"/>
       <path id="DejaVuSans-61" d="M 2194 1759 
Q 1497 1759 1228 1600 
Q 959 1441 959 1056 
Q 959 750 1161 570 
Q 1363 391 1709 391 
Q 2188 391 2477 730 
Q 2766 1069 2766 1631 
L 2766 1759 
L 2194 1759 
z
M 3341 1997 
L 3341 0 
L 2766 0 
L 2766 531 
Q 2569 213 2275 61 
Q 1981 -91 1556 -91 
Q 1019 -91 701 211 
Q 384 513 384 1019 
Q 384 1609 779 1909 
Q 1175 2209 1959 2209 
L 2766 2209 
L 2766 2266 
Q 2766 2663 2505 2880 
Q 2244 3097 1772 3097 
Q 1472 3097 1187 3025 
Q 903 2953 641 2809 
L 641 3341 
Q 956 3463 1253 3523 
Q 1550 3584 1831 3584 
Q 2591 3584 2966 3190 
Q 3341 2797 3341 1997 
z
" transform="scale(0.015625)"/>
       <path id="DejaVuSans-6d" d="M 3328 2828 
Q 3544 3216 3844 3400 
Q 4144 3584 4550 3584 
Q 5097 3584 5394 3201 
Q 5691 2819 5691 2113 
L 5691 0 
L 5113 0 
L 5113 2094 
Q 5113 2597 4934 2840 
Q 4756 3084 4391 3084 
Q 3944 3084 3684 2787 
Q 3425 2491 3425 1978 
L 3425 0 
L 2847 0 
L 2847 2094 
Q 2847 2600 2669 2842 
Q 2491 3084 2119 3084 
Q 1678 3084 1418 2786 
Q 1159 2488 1159 1978 
L 1159 0 
L 581 0 
L 581 3500 
L 1159 3500 
L 1159 2956 
Q 1356 3278 1631 3431 
Q 1906 3584 2284 3584 
Q 2666 3584 2933 3390 
Q 3200 3197 3328 2828 
z
" transform="scale(0.015625)"/>
       <path id="DejaVuSans-65" d="M 3597 1894 
L 3597 1613 
L 953 1613 
Q 991 1019 1311 708 
Q 1631 397 2203 397 
Q 2534 397 2845 478 
Q 3156 559 3463 722 
L 3463 178 
Q 3153 47 2828 -22 
Q 2503 -91 2169 -91 
Q 1331 -91 842 396 
Q 353 884 353 1716 
Q 353 2575 817 3079 
Q 1281 3584 2069 3584 
Q 2775 3584 3186 3129 
Q 3597 2675 3597 1894 
z
M 3022 2063 
Q 3016 2534 2758 2815 
Q 2500 3097 2075 3097 
Q 1594 3097 1305 2825 
Q 1016 2553 972 2059 
L 3022 2063 
z
" transform="scale(0.015625)"/>
       <path id="DejaVuSans-20" transform="scale(0.015625)"/>
       <path id="DejaVuSans-4d" d="M 628 4666 
L 1569 4666 
L 2759 1491 
L 3956 4666 
L 4897 4666 
L 4897 0 
L 4281 0 
L 4281 4097 
L 3078 897 
L 2444 897 
L 1241 4097 
L 1241 0 
L 628 0 
L 628 4666 
z
" transform="scale(0.015625)"/>
       <path id="DejaVuSans-69" d="M 603 3500 
L 1178 3500 
L 1178 0 
L 603 0 
L 603 3500 
z
M 603 4863 
L 1178 4863 
L 1178 4134 
L 603 4134 
L 603 4863 
z
" transform="scale(0.015625)"/>
       <path id="DejaVuSans-6e" d="M 3513 2113 
L 3513 0 
L 2938 0 
L 2938 2094 
Q 2938 2591 2744 2837 
Q 2550 3084 2163 3084 
Q 1697 3084 1428 2787 
Q 1159 2491 1159 1978 
L 1159 0 
L 581 0 
L 581 3500 
L 1159 3500 
L 1159 2956 
Q 1366 3272 1645 3428 
Q 1925 3584 2291 3584 
Q 2894 3584 3203 3211 
Q 3513 2838 3513 2113 
z
" transform="scale(0.015625)"/>
       <path id="DejaVuSans-75" d="M 544 1381 
L 544 3500 
L 1119 3500 
L 1119 1403 
Q 1119 906 1312 657 
Q 1506 409 1894 409 
Q 2359 409 2629 706 
Q 2900 1003 2900 1516 
L 2900 3500 
L 3475 3500 
L 3475 0 
L 2900 0 
L 2900 538 
Q 2691 219 2414 64 
Q 2138 -91 1772 -91 
Q 1169 -91 856 284 
Q 544 659 544 1381 
z
M 1991 3584 
L 1991 3584 
z
" transform="scale(0.015625)"/>
       <path id="DejaVuSans-74" d="M 1172 4494 
L 1172 3500 
L 2356 3500 
L 2356 3053 
L 1172 3053 
L 1172 1153 
Q 1172 725 1289 603 
Q 1406 481 1766 481 
L 2356 481 
L 2356 0 
L 1766 0 
Q 1100 0 847 248 
Q 594 497 594 1153 
L 594 3053 
L 172 3053 
L 172 3500 
L 594 3500 
L 594 4494 
L 1172 4494 
z
" transform="scale(0.015625)"/>
      </defs>
      <use xlink:href="#DejaVuSans-47"/>
      <use xlink:href="#DejaVuSans-61" transform="translate(77.490234 0)"/>
      <use xlink:href="#DejaVuSans-6d" transform="translate(138.769531 0)"/>
      <use xlink:href="#DejaVuSans-65" transform="translate(236.181641 0)"/>
      <use xlink:href="#DejaVuSans-20" transform="translate(297.705078 0)"/>
      <use xlink:href="#DejaVuSans-4d" transform="translate(329.492188 0)"/>
      <use xlink:href="#DejaVuSans-69" transform="translate(415.771484 0)"/>
      <use xlink:href="#DejaVuSans-6e" transform="translate(443.554688 0)"/>
      <use xlink:href="#DejaVuSans-75" transform="translate(506.933594 0)"/>
      <use xlink:href="#DejaVuSans-74" transform="translate(570.3125 0)"/>
      <use xlink:href="#DejaVuSans-65" transform="translate(609.521484 0)"/>
     </g>
    </g>
   </g>
   <g id="matplotlib.axis_2">
    <g id="ytick_1">
     <g id="line2d_46">
      <path d="M 44.57 455.955539 
L 853.2 455.955539 
" clip-path="url(#p87f74f608a)" style="fill: none; stroke-dasharray: 2.96,1.28; stroke-dashoffset: 0; stroke: #b0b0b0; stroke-opacity: 0.6; stroke-width: 0.8"/>
     </g>
     <g id="line2d_47">
      <defs>
       <path id="m5ea9312725" d="M 0 0 
L -3.5 0 
" style="stroke: #000000; stroke-width: 0.8"/>
      </defs>
      <g>
       <use xlink:href="#m5ea9312725" x="44.57" y="455.955539" style="stroke: #000000; stroke-width: 0.8"/>
      </g>
     </g>
     <g id="text_13">
      <!-- 0 -->
      <g transform="translate(31.2075 459.754758) scale(0.1 -0.1)">
       <use xlink:href="#DejaVuSans-30"/>
      </g>
     </g>
    </g>
    <g id="ytick_2">
     <g id="line2d_48">
      <path d="M 44.57 387.848311 
L 853.2 387.848311 
" clip-path="url(#p87f74f608a)" style="fill: none; stroke-dasharray: 2.96,1.28; stroke-dashoffset: 0; stroke: #b0b0b0; stroke-opacity: 0.6; stroke-width: 0.8"/>
     </g>
     <g id="line2d_49">
      <g>
       <use xlink:href="#m5ea9312725" x="44.57" y="387.848311" style="stroke: #000000; stroke-width: 0.8"/>
      </g>
     </g>
     <g id="text_14">
      <!-- 5 -->
      <g transform="translate(31.2075 391.647529) scale(0.1 -0.1)">
       <use xlink:href="#DejaVuSans-35"/>
      </g>
     </g>
    </g>
    <g id="ytick_3">
     <g id="line2d_50">
      <path d="M 44.57 319.741082 
L 853.2 319.741082 
" clip-path="url(#p87f74f608a)" style="fill: none; stroke-dasharray: 2.96,1.28; stroke-dashoffset: 0; stroke: #b0b0b0; stroke-opacity: 0.6; stroke-width: 0.8"/>
     </g>
     <g id="line2d_51">
      <g>
       <use xlink:href="#m5ea9312725" x="44.57" y="319.741082" style="stroke: #000000; stroke-width: 0.8"/>
      </g>
     </g>
     <g id="text_15">
      <!-- 10 -->
      <g transform="translate(24.845 323.540301) scale(0.1 -0.1)">
       <use xlink:href="#DejaVuSans-31"/>
       <use xlink:href="#DejaVuSans-30" transform="translate(63.623047 0)"/>
      </g>
     </g>
    </g>
    <g id="ytick_4">
     <g id="line2d_52">
      <path d="M 44.57 251.633854 
L 853.2 251.633854 
" clip-path="url(#p87f74f608a)" style="fill: none; stroke-dasharray: 2.96,1.28; stroke-dashoffset: 0; stroke: #b0b0b0; stroke-opacity: 0.6; stroke-width: 0.8"/>
     </g>
     <g id="line2d_53">
      <g>
       <use xlink:href="#m5ea9312725" x="44.57" y="251.633854" style="stroke: #000000; stroke-width: 0.8"/>
      </g>
     </g>
     <g id="text_16">
      <!-- 15 -->
      <g transform="translate(24.845 255.433073) scale(0.1 -0.1)">
       <use xlink:href="#DejaVuSans-31"/>
       <use xlink:href="#DejaVuSans-35" transform="translate(63.623047 0)"/>
      </g>
     </g>
    </g>
    <g id="ytick_5">
     <g id="line2d_54">
      <path d="M 44.57 183.526625 
L 853.2 183.526625 
" clip-path="url(#p87f74f608a)" style="fill: none; stroke-dasharray: 2.96,1.28; stroke-dashoffset: 0; stroke: #b0b0b0; stroke-opacity: 0.6; stroke-width: 0.8"/>
     </g>
     <g id="line2d_55">
      <g>
       <use xlink:href="#m5ea9312725" x="44.57" y="183.526625" style="stroke: #000000; stroke-width: 0.8"/>
      </g>
     </g>
     <g id="text_17">
      <!-- 20 -->
      <g transform="translate(24.845 187.325844) scale(0.1 -0.1)">
       <use xlink:href="#DejaVuSans-32"/>
       <use xlink:href="#DejaVuSans-30" transform="translate(63.623047 0)"/>
      </g>
     </g>
    </g>
    <g id="ytick_6">
     <g id="line2d_56">
      <path d="M 44.57 115.419397 
L 853.2 115.419397 
" clip-path="url(#p87f74f608a)" style="fill: none; stroke-dasharray: 2.96,1.28; stroke-dashoffset: 0; stroke: #b0b0b0; stroke-opacity: 0.6; stroke-width: 0.8"/>
     </g>
     <g id="line2d_57">
      <g>
       <use xlink:href="#m5ea9312725" x="44.57" y="115.419397" style="stroke: #000000; stroke-width: 0.8"/>
      </g>
     </g>
     <g id="text_18">
      <!-- 25 -->
      <g transform="translate(24.845 119.218616) scale(0.1 -0.1)">
       <use xlink:href="#DejaVuSans-32"/>
       <use xlink:href="#DejaVuSans-35" transform="translate(63.623047 0)"/>
      </g>
     </g>
    </g>
    <g id="ytick_7">
     <g id="line2d_58">
      <path d="M 44.57 47.312169 
L 853.2 47.312169 
" clip-path="url(#p87f74f608a)" style="fill: none; stroke-dasharray: 2.96,1.28; stroke-dashoffset: 0; stroke: #b0b0b0; stroke-opacity: 0.6; stroke-width: 0.8"/>
     </g>
     <g id="line2d_59">
      <g>
       <use xlink:href="#m5ea9312725" x="44.57" y="47.312169" style="stroke: #000000; stroke-width: 0.8"/>
      </g>
     </g>
     <g id="text_19">
      <!-- 30 -->
      <g transform="translate(24.845 51.111387) scale(0.1 -0.1)">
       <use xlink:href="#DejaVuSans-33"/>
       <use xlink:href="#DejaVuSans-30" transform="translate(63.623047 0)"/>
      </g>
     </g>
    </g>
    <g id="text_20">
     <!-- Points Scored -->
     <g transform="translate(18.765312 275.199019) rotate(-90) scale(0.1 -0.1)">
      <defs>
       <path id="DejaVuSans-50" d="M 1259 4147 
L 1259 2394 
L 2053 2394 
Q 2494 2394 2734 2622 
Q 2975 2850 2975 3272 
Q 2975 3691 2734 3919 
Q 2494 4147 2053 4147 
L 1259 4147 
z
M 628 4666 
L 2053 4666 
Q 2838 4666 3239 4311 
Q 3641 3956 3641 3272 
Q 3641 2581 3239 2228 
Q 2838 1875 2053 1875 
L 1259 1875 
L 1259 0 
L 628 0 
L 628 4666 
z
" transform="scale(0.015625)"/>
       <path id="DejaVuSans-6f" d="M 1959 3097 
Q 1497 3097 1228 2736 
Q 959 2375 959 1747 
Q 959 1119 1226 758 
Q 1494 397 1959 397 
Q 2419 397 2687 759 
Q 2956 1122 2956 1747 
Q 2956 2369 2687 2733 
Q 2419 3097 1959 3097 
z
M 1959 3584 
Q 2709 3584 3137 3096 
Q 3566 2609 3566 1747 
Q 3566 888 3137 398 
Q 2709 -91 1959 -91 
Q 1206 -91 779 398 
Q 353 888 353 1747 
Q 353 2609 779 3096 
Q 1206 3584 1959 3584 
z
" transform="scale(0.015625)"/>
       <path id="DejaVuSans-73" d="M 2834 3397 
L 2834 2853 
Q 2591 2978 2328 3040 
Q 2066 3103 1784 3103 
Q 1356 3103 1142 2972 
Q 928 2841 928 2578 
Q 928 2378 1081 2264 
Q 1234 2150 1697 2047 
L 1894 2003 
Q 2506 1872 2764 1633 
Q 3022 1394 3022 966 
Q 3022 478 2636 193 
Q 2250 -91 1575 -91 
Q 1294 -91 989 -36 
Q 684 19 347 128 
L 347 722 
Q 666 556 975 473 
Q 1284 391 1588 391 
Q 1994 391 2212 530 
Q 2431 669 2431 922 
Q 2431 1156 2273 1281 
Q 2116 1406 1581 1522 
L 1381 1569 
Q 847 1681 609 1914 
Q 372 2147 372 2553 
Q 372 3047 722 3315 
Q 1072 3584 1716 3584 
Q 2034 3584 2315 3537 
Q 2597 3491 2834 3397 
z
" transform="scale(0.015625)"/>
       <path id="DejaVuSans-53" d="M 3425 4513 
L 3425 3897 
Q 3066 4069 2747 4153 
Q 2428 4238 2131 4238 
Q 1616 4238 1336 4038 
Q 1056 3838 1056 3469 
Q 1056 3159 1242 3001 
Q 1428 2844 1947 2747 
L 2328 2669 
Q 3034 2534 3370 2195 
Q 3706 1856 3706 1288 
Q 3706 609 3251 259 
Q 2797 -91 1919 -91 
Q 1588 -91 1214 -16 
Q 841 59 441 206 
L 441 856 
Q 825 641 1194 531 
Q 1563 422 1919 422 
Q 2459 422 2753 634 
Q 3047 847 3047 1241 
Q 3047 1584 2836 1778 
Q 2625 1972 2144 2069 
L 1759 2144 
Q 1053 2284 737 2584 
Q 422 2884 422 3419 
Q 422 4038 858 4394 
Q 1294 4750 2059 4750 
Q 2388 4750 2728 4690 
Q 3069 4631 3425 4513 
z
" transform="scale(0.015625)"/>
       <path id="DejaVuSans-63" d="M 3122 3366 
L 3122 2828 
Q 2878 2963 2633 3030 
Q 2388 3097 2138 3097 
Q 1578 3097 1268 2742 
Q 959 2388 959 1747 
Q 959 1106 1268 751 
Q 1578 397 2138 397 
Q 2388 397 2633 464 
Q 2878 531 3122 666 
L 3122 134 
Q 2881 22 2623 -34 
Q 2366 -91 2075 -91 
Q 1284 -91 818 406 
Q 353 903 353 1747 
Q 353 2603 823 3093 
Q 1294 3584 2113 3584 
Q 2378 3584 2631 3529 
Q 2884 3475 3122 3366 
z
" transform="scale(0.015625)"/>
       <path id="DejaVuSans-72" d="M 2631 2963 
Q 2534 3019 2420 3045 
Q 2306 3072 2169 3072 
Q 1681 3072 1420 2755 
Q 1159 2438 1159 1844 
L 1159 0 
L 581 0 
L 581 3500 
L 1159 3500 
L 1159 2956 
Q 1341 3275 1631 3429 
Q 1922 3584 2338 3584 
Q 2397 3584 2469 3576 
Q 2541 3569 2628 3553 
L 2631 2963 
z
" transform="scale(0.015625)"/>
       <path id="DejaVuSans-64" d="M 2906 2969 
L 2906 4863 
L 3481 4863 
L 3481 0 
L 2906 0 
L 2906 525 
Q 2725 213 2448 61 
Q 2172 -91 1784 -91 
Q 1150 -91 751 415 
Q 353 922 353 1747 
Q 353 2572 751 3078 
Q 1150 3584 1784 3584 
Q 2172 3584 2448 3432 
Q 2725 3281 2906 2969 
z
M 947 1747 
Q 947 1113 1208 752 
Q 1469 391 1925 391 
Q 2381 391 2643 752 
Q 2906 1113 2906 1747 
Q 2906 2381 2643 2742 
Q 2381 3103 1925 3103 
Q 1469 3103 1208 2742 
Q 947 2381 947 1747 
z
" transform="scale(0.015625)"/>
      </defs>
      <use xlink:href="#DejaVuSans-50"/>
      <use xlink:href="#DejaVuSans-6f" transform="translate(56.677734 0)"/>
      <use xlink:href="#DejaVuSans-69" transform="translate(117.859375 0)"/>
      <use xlink:href="#DejaVuSans-6e" transform="translate(145.642578 0)"/>
      <use xlink:href="#DejaVuSans-74" transform="translate(209.021484 0)"/>
      <use xlink:href="#DejaVuSans-73" transform="translate(248.230469 0)"/>
      <use xlink:href="#DejaVuSans-20" transform="translate(300.330078 0)"/>
      <use xlink:href="#DejaVuSans-53" transform="translate(332.117188 0)"/>
      <use xlink:href="#DejaVuSans-63" transform="translate(395.59375 0)"/>
      <use xlink:href="#DejaVuSans-6f" transform="translate(450.574219 0)"/>
      <use xlink:href="#DejaVuSans-72" transform="translate(511.755859 0)"/>
      <use xlink:href="#DejaVuSans-65" transform="translate(550.619141 0)"/>
      <use xlink:href="#DejaVuSans-64" transform="translate(612.142578 0)"/>
     </g>
    </g>
   </g>
   <g id="patch_138">
    <path d="M 44.57 455.955539 
L 44.57 26.88 
" style="fill: none; stroke: #000000; stroke-width: 0.8; stroke-linejoin: miter; stroke-linecap: square"/>
   </g>
   <g id="patch_139">
    <path d="M 853.2 455.955539 
L 853.2 26.88 
" style="fill: none; stroke: #000000; stroke-width: 0.8; stroke-linejoin: miter; stroke-linecap: square"/>
   </g>
   <g id="patch_140">
    <path d="M 44.57 455.955539 
L 853.2 455.955539 
" style="fill: none; stroke: #000000; stroke-width: 0.8; stroke-linejoin: miter; stroke-linecap: square"/>
   </g>
   <g id="patch_141">
    <path d="M 44.57 26.88 
L 853.2 26.88 
" style="fill: none; stroke: #000000; stroke-width: 0.8; stroke-linejoin: miter; stroke-linecap: square"/>
   </g>
   <g id="text_21">
    <!-- Scotty Pippen Scoring Timeline (2023-24) -->
    <g transform="translate(324.175937 20.88) scale(0.12 -0.12)">
     <defs>
      <path id="DejaVuSans-79" d="M 2059 -325 
Q 1816 -950 1584 -1140 
Q 1353 -1331 966 -1331 
L 506 -1331 
L 506 -850 
L 844 -850 
Q 1081 -850 1212 -737 
Q 1344 -625 1503 -206 
L 1606 56 
L 191 3500 
L 800 3500 
L 1894 763 
L 2988 3500 
L 3597 3500 
L 2059 -325 
z
" transform="scale(0.015625)"/>
      <path id="DejaVuSans-70" d="M 1159 525 
L 1159 -1331 
L 581 -1331 
L 581 3500 
L 1159 3500 
L 1159 2969 
Q 1341 3281 1617 3432 
Q 1894 3584 2278 3584 
Q 2916 3584 3314 3078 
Q 3713 2572 3713 1747 
Q 3713 922 3314 415 
Q 2916 -91 2278 -91 
Q 1894 -91 1617 61 
Q 1341 213 1159 525 
z
M 3116 1747 
Q 3116 2381 2855 2742 
Q 2594 3103 2138 3103 
Q 1681 3103 1420 2742 
Q 1159 2381 1159 1747 
Q 1159 1113 1420 752 
Q 1681 391 2138 391 
Q 2594 391 2855 752 
Q 3116 1113 3116 1747 
z
" transform="scale(0.015625)"/>
      <path id="DejaVuSans-67" d="M 2906 1791 
Q 2906 2416 2648 2759 
Q 2391 3103 1925 3103 
Q 1463 3103 1205 2759 
Q 947 2416 947 1791 
Q 947 1169 1205 825 
Q 1463 481 1925 481 
Q 2391 481 2648 825 
Q 2906 1169 2906 1791 
z
M 3481 434 
Q 3481 -459 3084 -895 
Q 2688 -1331 1869 -1331 
Q 1566 -1331 1297 -1286 
Q 1028 -1241 775 -1147 
L 775 -588 
Q 1028 -725 1275 -790 
Q 1522 -856 1778 -856 
Q 2344 -856 2625 -561 
Q 2906 -266 2906 331 
L 2906 616 
Q 2728 306 2450 153 
Q 2172 0 1784 0 
Q 1141 0 747 490 
Q 353 981 353 1791 
Q 353 2603 747 3093 
Q 1141 3584 1784 3584 
Q 2172 3584 2450 3431 
Q 2728 3278 2906 2969 
L 2906 3500 
L 3481 3500 
L 3481 434 
z
" transform="scale(0.015625)"/>
      <path id="DejaVuSans-54" d="M -19 4666 
L 3928 4666 
L 3928 4134 
L 2272 4134 
L 2272 0 
L 1638 0 
L 1638 4134 
L -19 4134 
L -19 4666 
z
" transform="scale(0.015625)"/>
      <path id="DejaVuSans-6c" d="M 603 4863 
L 1178 4863 
L 1178 0 
L 603 0 
L 603 4863 
z
" transform="scale(0.015625)"/>
      <path id="DejaVuSans-28" d="M 1984 4856 
Q 1566 4138 1362 3434 
Q 1159 2731 1159 2009 
Q 1159 1288 1364 580 
Q 1569 -128 1984 -844 
L 1484 -844 
Q 1016 -109 783 600 
Q 550 1309 550 2009 
Q 550 2706 781 3412 
Q 1013 4119 1484 4856 
L 1984 4856 
z
" transform="scale(0.015625)"/>
      <path id="DejaVuSans-2d" d="M 313 2009 
L 1997 2009 
L 1997 1497 
L 313 1497 
L 313 2009 
z
" transform="scale(0.015625)"/>
      <path id="DejaVuSans-29" d="M 513 4856 
L 1013 4856 
Q 1481 4119 1714 3412 
Q 1947 2706 1947 2009 
Q 1947 1309 1714 600 
Q 1481 -109 1013 -844 
L 513 -844 
Q 928 -128 1133 580 
Q 1338 1288 1338 2009 
Q 1338 2731 1133 3434 
Q 928 4138 513 4856 
z
" transform="scale(0.015625)"/>
     </defs>
     <use xlink:href="#DejaVuSans-53"/>
     <use xlink:href="#DejaVuSans-63" transform="translate(63.476562 0)"/>
     <use xlink:href="#DejaVuSans-6f" transform="translate(118.457031 0)"/>
     <use xlink:href="#DejaVuSans-74" transform="translate(179.638672 0)"/>
     <use xlink:href="#DejaVuSans-74" transform="translate(218.847656 0)"/>
     <use xlink:href="#DejaVuSans-79" transform="translate(258.056641 0)"/>
     <use xlink:href="#DejaVuSans-20" transform="translate(317.236328 0)"/>
     <use xlink:href="#DejaVuSans-50" transform="translate(349.023438 0)"/>
     <use xlink:href="#DejaVuSans-69" transform="translate(407.076172 0)"/>
     <use xlink:href="#DejaVuSans-70" transform="translate(434.859375 0)"/>
     <use xlink:href="#DejaVuSans-70" transform="translate(498.335938 0)"/>
     <use xlink:href="#DejaVuSans-65" transform="translate(561.8125 0)"/>
     <use xlink:href="#DejaVuSans-6e" transform="translate(623.335938 0)"/>
     <use xlink:href="#DejaVuSans-20" transform="translate(686.714844 0)"/>
     <use xlink:href="#DejaVuSans-53" transform="translate(718.501953 0)"/>
     <use xlink:href="#DejaVuSans-63" transform="translate(781.978516 0)"/>
     <use xlink:href="#DejaVuSans-6f" transform="translate(836.958984 0)"/>
     <use xlink:href="#DejaVuSans-72" transform="translate(898.140625 0)"/>
     <use xlink:href="#DejaVuSans-69" transform="translate(939.253906 0)"/>
     <use xlink:href="#DejaVuSans-6e" transform="translate(967.037109 0)"/>
     <use xlink:href="#DejaVuSans-67" transform="translate(1030.416016 0)"/>
     <use xlink:href="#DejaVuSans-20" transform="translate(1093.892578 0)"/>
     <use xlink:href="#DejaVuSans-54" transform="translate(1125.679688 0)"/>
     <use xlink:href="#DejaVuSans-69" transform="translate(1183.638672 0)"/>
     <use xlink:href="#DejaVuSans-6d" transform="translate(1211.421875 0)"/>
     <use xlink:href="#DejaVuSans-65" transform="translate(1308.833984 0)"/>
     <use xlink:href="#DejaVuSans-6c" transform="translate(1370.357422 0)"/>
     <use xlink:href="#DejaVuSans-69" transform="translate(1398.140625 0)"/>
     <use xlink:href="#DejaVuSans-6e" transform="translate(1425.923828 0)"/>
     <use xlink:href="#DejaVuSans-65" transform="translate(1489.302734 0)"/>
     <use xlink:href="#DejaVuSans-20" transform="translate(1550.826172 0)"/>
     <use xlink:href="#DejaVuSans-28" transform="translate(1582.613281 0)"/>
     <use xlink:href="#DejaVuSans-32" transform="translate(1621.626953 0)"/>
     <use xlink:href="#DejaVuSans-30" transform="translate(1685.25 0)"/>
     <use xlink:href="#DejaVuSans-32" transform="translate(1748.873047 0)"/>
     <use xlink:href="#DejaVuSans-33" transform="translate(1812.496094 0)"/>
     <use xlink:href="#DejaVuSans-2d" transform="translate(1876.119141 0)"/>
     <use xlink:href="#DejaVuSans-32" transform="translate(1912.203125 0)"/>
     <use xlink:href="#DejaVuSans-34" transform="translate(1975.826172 0)"/>
     <use xlink:href="#DejaVuSans-29" transform="translate(2039.449219 0)"/>
    </g>
   </g>
   <g id="legend_1">
    <g id="patch_142">
     <path d="M 51.57 93.5925 
L 104.43875 93.5925 
Q 106.43875 93.5925 106.43875 91.5925 
L 106.43875 33.88 
Q 106.43875 31.88 104.43875 31.88 
L 51.57 31.88 
Q 49.57 31.88 49.57 33.88 
L 49.57 91.5925 
Q 49.57 93.5925 51.57 93.5925 
z
" style="fill: #ffffff; opacity: 0.8; stroke: #cccccc; stroke-linejoin: miter"/>
    </g>
    <g id="text_22">
     <!-- Shot Type -->
     <g transform="translate(53.57 43.478437) scale(0.1 -0.1)">
      <defs>
       <path id="DejaVuSans-68" d="M 3513 2113 
L 3513 0 
L 2938 0 
L 2938 2094 
Q 2938 2591 2744 2837 
Q 2550 3084 2163 3084 
Q 1697 3084 1428 2787 
Q 1159 2491 1159 1978 
L 1159 0 
L 581 0 
L 581 4863 
L 1159 4863 
L 1159 2956 
Q 1366 3272 1645 3428 
Q 1925 3584 2291 3584 
Q 2894 3584 3203 3211 
Q 3513 2838 3513 2113 
z
" transform="scale(0.015625)"/>
      </defs>
      <use xlink:href="#DejaVuSans-53"/>
      <use xlink:href="#DejaVuSans-68" transform="translate(63.476562 0)"/>
      <use xlink:href="#DejaVuSans-6f" transform="translate(126.855469 0)"/>
      <use xlink:href="#DejaVuSans-74" transform="translate(188.037109 0)"/>
      <use xlink:href="#DejaVuSans-20" transform="translate(227.246094 0)"/>
      <use xlink:href="#DejaVuSans-54" transform="translate(259.033203 0)"/>
      <use xlink:href="#DejaVuSans-79" transform="translate(304.492188 0)"/>
      <use xlink:href="#DejaVuSans-70" transform="translate(363.671875 0)"/>
      <use xlink:href="#DejaVuSans-65" transform="translate(427.148438 0)"/>
     </g>
    </g>
    <g id="patch_143">
     <path d="M 54.754375 58.156563 
L 74.754375 58.156563 
L 74.754375 51.156563 
L 54.754375 51.156563 
z
" style="fill: #ffc107"/>
    </g>
    <g id="text_23">
     <!-- FT -->
     <g transform="translate(82.754375 58.156563) scale(0.1 -0.1)">
      <defs>
       <path id="DejaVuSans-46" d="M 628 4666 
L 3309 4666 
L 3309 4134 
L 1259 4134 
L 1259 2759 
L 3109 2759 
L 3109 2228 
L 1259 2228 
L 1259 0 
L 628 0 
L 628 4666 
z
" transform="scale(0.015625)"/>
      </defs>
      <use xlink:href="#DejaVuSans-46"/>
      <use xlink:href="#DejaVuSans-54" transform="translate(55.769531 0)"/>
     </g>
    </g>
    <g id="patch_144">
     <path d="M 54.754375 72.834688 
L 74.754375 72.834688 
L 74.754375 65.834688 
L 54.754375 65.834688 
z
" style="fill: #2196f3"/>
    </g>
    <g id="text_24">
     <!-- 2PT -->
     <g transform="translate(82.754375 72.834688) scale(0.1 -0.1)">
      <use xlink:href="#DejaVuSans-32"/>
      <use xlink:href="#DejaVuSans-50" transform="translate(63.623047 0)"/>
      <use xlink:href="#DejaVuSans-54" transform="translate(123.925781 0)"/>
     </g>
    </g>
    <g id="patch_145">
     <path d="M 54.754375 87.512812 
L 74.754375 87.512812 
L 74.754375 80.512812 
L 54.754375 80.512812 
z
" style="fill: #4caf50"/>
    </g>
    <g id="text_25">
     <!-- 3PT -->
     <g transform="translate(82.754375 87.512812) scale(0.1 -0.1)">
      <use xlink:href="#DejaVuSans-33"/>
      <use xlink:href="#DejaVuSans-50" transform="translate(63.623047 0)"/>
      <use xlink:href="#DejaVuSans-54" transform="translate(123.925781 0)"/>
     </g>
    </g>
   </g>
  </g>
 </g>
 <defs>
  <clipPath id="p87f74f608a">
   <rect x="44.57" y="26.88" width="808.63" height="429.075539"/>
  </clipPath>
 </defs>
</svg>
