<?xml version="1.0" encoding="utf-8" standalone="no"?>
<!DOCTYPE svg PUBLIC "-//W3C//DTD SVG 1.1//EN"
  "http://www.w3.org/Graphics/SVG/1.1/DTD/svg11.dtd">
<svg xmlns:xlink="http://www.w3.org/1999/xlink" width="864pt" height="504pt" viewBox="0 0 864 504" xmlns="http://www.w3.org/2000/svg" version="1.1">
 <metadata>
  <rdf:RDF xmlns:dc="http://purl.org/dc/elements/1.1/" xmlns:cc="http://creativecommons.org/ns#" xmlns:rdf="http://www.w3.org/1999/02/22-rdf-syntax-ns#">
   <cc:Work>
    <dc:type rdf:resource="http://purl.org/dc/dcmitype/StillImage"/>
    <dc:date>2025-08-24T04:12:21.518964</dc:date>
    <dc:format>image/svg+xml</dc:format>
    <dc:creator>
     <cc:Agent>
      <dc:title>Matplotlib v3.10.5, https://matplotlib.org/</dc:title>
     </cc:Agent>
    </dc:creator>
   </cc:Work>
  </rdf:RDF>
 </metadata>
 <defs>
  <style type="text/css">*{stroke-linejoin: round; stroke-linecap: butt}</style>
 </defs>
 <g id="figure_1">
  <g id="patch_1">
   <path d="M 0 504 
L 864 504 
L 864 0 
L 0 0 
z
" style="fill: #ffffff"/>
  </g>
  <g id="axes_1">
   <g id="patch_2">
    <path d="M 54.02 455.955539 
L 853.2 455.955539 
L 853.2 26.88 
L 54.02 26.88 
z
" style="fill: #ffffff"/>
   </g>
   <g id="patch_3">
    <path d="M 60.613894 455.955539 
L 81.714356 455.955539 
L 81.714356 455.955539 
L 60.613894 455.955539 
z
" clip-path="url(#p0d2095881c)" style="fill: #ffc107"/>
   </g>
   <g id="patch_4">
    <path d="M 86.989472 455.955539 
L 108.089934 455.955539 
L 108.089934 455.955539 
L 86.989472 455.955539 
z
" clip-path="url(#p0d2095881c)" style="fill: #ffc107"/>
   </g>
   <g id="patch_5">
    <path d="M 113.36505 455.955539 
L 134.465512 455.955539 
L 134.465512 455.955539 
L 113.36505 455.955539 
z
" clip-path="url(#p0d2095881c)" style="fill: #ffc107"/>
   </g>
   <g id="patch_6">
    <path d="M 139.740627 455.955539 
L 160.841089 455.955539 
L 160.841089 433.25313 
L 139.740627 433.25313 
z
" clip-path="url(#p0d2095881c)" style="fill: #ffc107"/>
   </g>
   <g id="patch_7">
    <path d="M 166.116205 455.955539 
L 187.216667 455.955539 
L 187.216667 433.25313 
L 166.116205 433.25313 
z
" clip-path="url(#p0d2095881c)" style="fill: #ffc107"/>
   </g>
   <g id="patch_8">
    <path d="M 192.491782 455.955539 
L 213.592244 455.955539 
L 213.592244 410.55072 
L 192.491782 410.55072 
z
" clip-path="url(#p0d2095881c)" style="fill: #ffc107"/>
   </g>
   <g id="patch_9">
    <path d="M 218.86736 455.955539 
L 239.967822 455.955539 
L 239.967822 455.955539 
L 218.86736 455.955539 
z
" clip-path="url(#p0d2095881c)" style="fill: #ffc107"/>
   </g>
   <g id="patch_10">
    <path d="M 245.242937 455.955539 
L 266.343399 455.955539 
L 266.343399 455.955539 
L 245.242937 455.955539 
z
" clip-path="url(#p0d2095881c)" style="fill: #ffc107"/>
   </g>
   <g id="patch_11">
    <path d="M 271.618515 455.955539 
L 292.718977 455.955539 
L 292.718977 455.955539 
L 271.618515 455.955539 
z
" clip-path="url(#p0d2095881c)" style="fill: #ffc107"/>
   </g>
   <g id="patch_12">
    <path d="M 297.994092 455.955539 
L 319.094554 455.955539 
L 319.094554 410.55072 
L 297.994092 410.55072 
z
" clip-path="url(#p0d2095881c)" style="fill: #ffc107"/>
   </g>
   <g id="patch_13">
    <path d="M 324.36967 455.955539 
L 345.470132 455.955539 
L 345.470132 455.955539 
L 324.36967 455.955539 
z
" clip-path="url(#p0d2095881c)" style="fill: #ffc107"/>
   </g>
   <g id="patch_14">
    <path d="M 350.745248 455.955539 
L 371.84571 455.955539 
L 371.84571 455.955539 
L 350.745248 455.955539 
z
" clip-path="url(#p0d2095881c)" style="fill: #ffc107"/>
   </g>
   <g id="patch_15">
    <path d="M 377.120825 455.955539 
L 398.221287 455.955539 
L 398.221287 455.955539 
L 377.120825 455.955539 
z
" clip-path="url(#p0d2095881c)" style="fill: #ffc107"/>
   </g>
   <g id="patch_16">
    <path d="M 403.496403 455.955539 
L 424.596865 455.955539 
L 424.596865 455.955539 
L 403.496403 455.955539 
z
" clip-path="url(#p0d2095881c)" style="fill: #ffc107"/>
   </g>
   <g id="patch_17">
    <path d="M 429.87198 455.955539 
L 450.972442 455.955539 
L 450.972442 455.955539 
L 429.87198 455.955539 
z
" clip-path="url(#p0d2095881c)" style="fill: #ffc107"/>
   </g>
   <g id="patch_18">
    <path d="M 456.247558 455.955539 
L 477.34802 455.955539 
L 477.34802 455.955539 
L 456.247558 455.955539 
z
" clip-path="url(#p0d2095881c)" style="fill: #ffc107"/>
   </g>
   <g id="patch_19">
    <path d="M 482.623135 455.955539 
L 503.723597 455.955539 
L 503.723597 455.955539 
L 482.623135 455.955539 
z
" clip-path="url(#p0d2095881c)" style="fill: #ffc107"/>
   </g>
   <g id="patch_20">
    <path d="M 508.998713 455.955539 
L 530.099175 455.955539 
L 530.099175 455.955539 
L 508.998713 455.955539 
z
" clip-path="url(#p0d2095881c)" style="fill: #ffc107"/>
   </g>
   <g id="patch_21">
    <path d="M 535.37429 455.955539 
L 556.474752 455.955539 
L 556.474752 455.955539 
L 535.37429 455.955539 
z
" clip-path="url(#p0d2095881c)" style="fill: #ffc107"/>
   </g>
   <g id="patch_22">
    <path d="M 561.749868 455.955539 
L 582.85033 455.955539 
L 582.85033 410.55072 
L 561.749868 410.55072 
z
" clip-path="url(#p0d2095881c)" style="fill: #ffc107"/>
   </g>
   <g id="patch_23">
    <path d="M 588.125446 455.955539 
L 609.225908 455.955539 
L 609.225908 455.955539 
L 588.125446 455.955539 
z
" clip-path="url(#p0d2095881c)" style="fill: #ffc107"/>
   </g>
   <g id="patch_24">
    <path d="M 614.501023 455.955539 
L 635.601485 455.955539 
L 635.601485 387.848311 
L 614.501023 387.848311 
z
" clip-path="url(#p0d2095881c)" style="fill: #ffc107"/>
   </g>
   <g id="patch_25">
    <path d="M 640.876601 455.955539 
L 661.977063 455.955539 
L 661.977063 455.955539 
L 640.876601 455.955539 
z
" clip-path="url(#p0d2095881c)" style="fill: #ffc107"/>
   </g>
   <g id="patch_26">
    <path d="M 667.252178 455.955539 
L 688.35264 455.955539 
L 688.35264 365.145901 
L 667.252178 365.145901 
z
" clip-path="url(#p0d2095881c)" style="fill: #ffc107"/>
   </g>
   <g id="patch_27">
    <path d="M 693.627756 455.955539 
L 714.728218 455.955539 
L 714.728218 455.955539 
L 693.627756 455.955539 
z
" clip-path="url(#p0d2095881c)" style="fill: #ffc107"/>
   </g>
   <g id="patch_28">
    <path d="M 720.003333 455.955539 
L 741.103795 455.955539 
L 741.103795 455.955539 
L 720.003333 455.955539 
z
" clip-path="url(#p0d2095881c)" style="fill: #ffc107"/>
   </g>
   <g id="patch_29">
    <path d="M 746.378911 455.955539 
L 767.479373 455.955539 
L 767.479373 433.25313 
L 746.378911 433.25313 
z
" clip-path="url(#p0d2095881c)" style="fill: #ffc107"/>
   </g>
   <g id="patch_30">
    <path d="M 772.754488 455.955539 
L 793.85495 455.955539 
L 793.85495 365.145901 
L 772.754488 365.145901 
z
" clip-path="url(#p0d2095881c)" style="fill: #ffc107"/>
   </g>
   <g id="patch_31">
    <path d="M 799.130066 455.955539 
L 820.230528 455.955539 
L 820.230528 455.955539 
L 799.130066 455.955539 
z
" clip-path="url(#p0d2095881c)" style="fill: #ffc107"/>
   </g>
   <g id="patch_32">
    <path d="M 825.505644 455.955539 
L 846.606106 455.955539 
L 846.606106 410.55072 
L 825.505644 410.55072 
z
" clip-path="url(#p0d2095881c)" style="fill: #ffc107"/>
   </g>
   <g id="patch_33">
    <path d="M 60.613894 455.955539 
L 81.714356 455.955539 
L 81.714356 365.145901 
L 60.613894 365.145901 
z
" clip-path="url(#p0d2095881c)" style="fill: #2196f3"/>
   </g>
   <g id="patch_34">
    <path d="M 86.989472 455.955539 
L 108.089934 455.955539 
L 108.089934 410.55072 
L 86.989472 410.55072 
z
" clip-path="url(#p0d2095881c)" style="fill: #2196f3"/>
   </g>
   <g id="patch_35">
    <path d="M 113.36505 455.955539 
L 134.465512 455.955539 
L 134.465512 410.55072 
L 113.36505 410.55072 
z
" clip-path="url(#p0d2095881c)" style="fill: #2196f3"/>
   </g>
   <g id="patch_36">
    <path d="M 139.740627 433.25313 
L 160.841089 433.25313 
L 160.841089 387.848311 
L 139.740627 387.848311 
z
" clip-path="url(#p0d2095881c)" style="fill: #2196f3"/>
   </g>
   <g id="patch_37">
    <path d="M 166.116205 433.25313 
L 187.216667 433.25313 
L 187.216667 297.038673 
L 166.116205 297.038673 
z
" clip-path="url(#p0d2095881c)" style="fill: #2196f3"/>
   </g>
   <g id="patch_38">
    <path d="M 192.491782 410.55072 
L 213.592244 410.55072 
L 213.592244 365.145901 
L 192.491782 365.145901 
z
" clip-path="url(#p0d2095881c)" style="fill: #2196f3"/>
   </g>
   <g id="patch_39">
    <path d="M 218.86736 455.955539 
L 239.967822 455.955539 
L 239.967822 410.55072 
L 218.86736 410.55072 
z
" clip-path="url(#p0d2095881c)" style="fill: #2196f3"/>
   </g>
   <g id="patch_40">
    <path d="M 245.242937 455.955539 
L 266.343399 455.955539 
L 266.343399 365.145901 
L 245.242937 365.145901 
z
" clip-path="url(#p0d2095881c)" style="fill: #2196f3"/>
   </g>
   <g id="patch_41">
    <path d="M 271.618515 455.955539 
L 292.718977 455.955539 
L 292.718977 410.55072 
L 271.618515 410.55072 
z
" clip-path="url(#p0d2095881c)" style="fill: #2196f3"/>
   </g>
   <g id="patch_42">
    <path d="M 297.994092 455.955539 
L 319.094554 455.955539 
L 319.094554 455.955539 
L 297.994092 455.955539 
z
" clip-path="url(#p0d2095881c)" style="fill: #2196f3"/>
   </g>
   <g id="patch_43">
    <path d="M 324.36967 455.955539 
L 345.470132 455.955539 
L 345.470132 410.55072 
L 324.36967 410.55072 
z
" clip-path="url(#p0d2095881c)" style="fill: #2196f3"/>
   </g>
   <g id="patch_44">
    <path d="M 350.745248 455.955539 
L 371.84571 455.955539 
L 371.84571 410.55072 
L 350.745248 410.55072 
z
" clip-path="url(#p0d2095881c)" style="fill: #2196f3"/>
   </g>
   <g id="patch_45">
    <path d="M 377.120825 455.955539 
L 398.221287 455.955539 
L 398.221287 410.55072 
L 377.120825 410.55072 
z
" clip-path="url(#p0d2095881c)" style="fill: #2196f3"/>
   </g>
   <g id="patch_46">
    <path d="M 403.496403 455.955539 
L 424.596865 455.955539 
L 424.596865 410.55072 
L 403.496403 410.55072 
z
" clip-path="url(#p0d2095881c)" style="fill: #2196f3"/>
   </g>
   <g id="patch_47">
    <path d="M 429.87198 455.955539 
L 450.972442 455.955539 
L 450.972442 410.55072 
L 429.87198 410.55072 
z
" clip-path="url(#p0d2095881c)" style="fill: #2196f3"/>
   </g>
   <g id="patch_48">
    <path d="M 456.247558 455.955539 
L 477.34802 455.955539 
L 477.34802 319.741082 
L 456.247558 319.741082 
z
" clip-path="url(#p0d2095881c)" style="fill: #2196f3"/>
   </g>
   <g id="patch_49">
    <path d="M 482.623135 455.955539 
L 503.723597 455.955539 
L 503.723597 274.336263 
L 482.623135 274.336263 
z
" clip-path="url(#p0d2095881c)" style="fill: #2196f3"/>
   </g>
   <g id="patch_50">
    <path d="M 508.998713 455.955539 
L 530.099175 455.955539 
L 530.099175 410.55072 
L 508.998713 410.55072 
z
" clip-path="url(#p0d2095881c)" style="fill: #2196f3"/>
   </g>
   <g id="patch_51">
    <path d="M 535.37429 455.955539 
L 556.474752 455.955539 
L 556.474752 410.55072 
L 535.37429 410.55072 
z
" clip-path="url(#p0d2095881c)" style="fill: #2196f3"/>
   </g>
   <g id="patch_52">
    <path d="M 561.749868 410.55072 
L 582.85033 410.55072 
L 582.85033 365.145901 
L 561.749868 365.145901 
z
" clip-path="url(#p0d2095881c)" style="fill: #2196f3"/>
   </g>
   <g id="patch_53">
    <path d="M 588.125446 455.955539 
L 609.225908 455.955539 
L 609.225908 319.741082 
L 588.125446 319.741082 
z
" clip-path="url(#p0d2095881c)" style="fill: #2196f3"/>
   </g>
   <g id="patch_54">
    <path d="M 614.501023 387.848311 
L 635.601485 387.848311 
L 635.601485 342.443492 
L 614.501023 342.443492 
z
" clip-path="url(#p0d2095881c)" style="fill: #2196f3"/>
   </g>
   <g id="patch_55">
    <path d="M 640.876601 455.955539 
L 661.977063 455.955539 
L 661.977063 274.336263 
L 640.876601 274.336263 
z
" clip-path="url(#p0d2095881c)" style="fill: #2196f3"/>
   </g>
   <g id="patch_56">
    <path d="M 667.252178 455.955539 
L 688.35264 455.955539 
L 688.35264 455.955539 
L 667.252178 455.955539 
z
" clip-path="url(#p0d2095881c)" style="fill: #2196f3"/>
   </g>
   <g id="patch_57">
    <path d="M 693.627756 455.955539 
L 714.728218 455.955539 
L 714.728218 410.55072 
L 693.627756 410.55072 
z
" clip-path="url(#p0d2095881c)" style="fill: #2196f3"/>
   </g>
   <g id="patch_58">
    <path d="M 720.003333 455.955539 
L 741.103795 455.955539 
L 741.103795 319.741082 
L 720.003333 319.741082 
z
" clip-path="url(#p0d2095881c)" style="fill: #2196f3"/>
   </g>
   <g id="patch_59">
    <path d="M 746.378911 433.25313 
L 767.479373 433.25313 
L 767.479373 251.633854 
L 746.378911 251.633854 
z
" clip-path="url(#p0d2095881c)" style="fill: #2196f3"/>
   </g>
   <g id="patch_60">
    <path d="M 772.754488 455.955539 
L 793.85495 455.955539 
L 793.85495 455.955539 
L 772.754488 455.955539 
z
" clip-path="url(#p0d2095881c)" style="fill: #2196f3"/>
   </g>
   <g id="patch_61">
    <path d="M 799.130066 455.955539 
L 820.230528 455.955539 
L 820.230528 410.55072 
L 799.130066 410.55072 
z
" clip-path="url(#p0d2095881c)" style="fill: #2196f3"/>
   </g>
   <g id="patch_62">
    <path d="M 825.505644 455.955539 
L 846.606106 455.955539 
L 846.606106 455.955539 
L 825.505644 455.955539 
z
" clip-path="url(#p0d2095881c)" style="fill: #2196f3"/>
   </g>
   <g id="patch_63">
    <path d="M 60.613894 365.145901 
L 81.714356 365.145901 
L 81.714356 297.038673 
L 60.613894 297.038673 
z
" clip-path="url(#p0d2095881c)" style="fill: #4caf50"/>
   </g>
   <g id="patch_64">
    <path d="M 86.989472 455.955539 
L 108.089934 455.955539 
L 108.089934 455.955539 
L 86.989472 455.955539 
z
" clip-path="url(#p0d2095881c)" style="fill: #4caf50"/>
   </g>
   <g id="patch_65">
    <path d="M 113.36505 455.955539 
L 134.465512 455.955539 
L 134.465512 455.955539 
L 113.36505 455.955539 
z
" clip-path="url(#p0d2095881c)" style="fill: #4caf50"/>
   </g>
   <g id="patch_66">
    <path d="M 139.740627 387.848311 
L 160.841089 387.848311 
L 160.841089 319.741082 
L 139.740627 319.741082 
z
" clip-path="url(#p0d2095881c)" style="fill: #4caf50"/>
   </g>
   <g id="patch_67">
    <path d="M 166.116205 455.955539 
L 187.216667 455.955539 
L 187.216667 455.955539 
L 166.116205 455.955539 
z
" clip-path="url(#p0d2095881c)" style="fill: #4caf50"/>
   </g>
   <g id="patch_68">
    <path d="M 192.491782 455.955539 
L 213.592244 455.955539 
L 213.592244 455.955539 
L 192.491782 455.955539 
z
" clip-path="url(#p0d2095881c)" style="fill: #4caf50"/>
   </g>
   <g id="patch_69">
    <path d="M 218.86736 410.55072 
L 239.967822 410.55072 
L 239.967822 342.443492 
L 218.86736 342.443492 
z
" clip-path="url(#p0d2095881c)" style="fill: #4caf50"/>
   </g>
   <g id="patch_70">
    <path d="M 245.242937 455.955539 
L 266.343399 455.955539 
L 266.343399 455.955539 
L 245.242937 455.955539 
z
" clip-path="url(#p0d2095881c)" style="fill: #4caf50"/>
   </g>
   <g id="patch_71">
    <path d="M 271.618515 455.955539 
L 292.718977 455.955539 
L 292.718977 455.955539 
L 271.618515 455.955539 
z
" clip-path="url(#p0d2095881c)" style="fill: #4caf50"/>
   </g>
   <g id="patch_72">
    <path d="M 297.994092 410.55072 
L 319.094554 410.55072 
L 319.094554 342.443492 
L 297.994092 342.443492 
z
" clip-path="url(#p0d2095881c)" style="fill: #4caf50"/>
   </g>
   <g id="patch_73">
    <path d="M 324.36967 455.955539 
L 345.470132 455.955539 
L 345.470132 455.955539 
L 324.36967 455.955539 
z
" clip-path="url(#p0d2095881c)" style="fill: #4caf50"/>
   </g>
   <g id="patch_74">
    <path d="M 350.745248 410.55072 
L 371.84571 410.55072 
L 371.84571 342.443492 
L 350.745248 342.443492 
z
" clip-path="url(#p0d2095881c)" style="fill: #4caf50"/>
   </g>
   <g id="patch_75">
    <path d="M 377.120825 455.955539 
L 398.221287 455.955539 
L 398.221287 455.955539 
L 377.120825 455.955539 
z
" clip-path="url(#p0d2095881c)" style="fill: #4caf50"/>
   </g>
   <g id="patch_76">
    <path d="M 403.496403 455.955539 
L 424.596865 455.955539 
L 424.596865 455.955539 
L 403.496403 455.955539 
z
" clip-path="url(#p0d2095881c)" style="fill: #4caf50"/>
   </g>
   <g id="patch_77">
    <path d="M 429.87198 410.55072 
L 450.972442 410.55072 
L 450.972442 342.443492 
L 429.87198 342.443492 
z
" clip-path="url(#p0d2095881c)" style="fill: #4caf50"/>
   </g>
   <g id="patch_78">
    <path d="M 456.247558 319.741082 
L 477.34802 319.741082 
L 477.34802 251.633854 
L 456.247558 251.633854 
z
" clip-path="url(#p0d2095881c)" style="fill: #4caf50"/>
   </g>
   <g id="patch_79">
    <path d="M 482.623135 274.336263 
L 503.723597 274.336263 
L 503.723597 138.121806 
L 482.623135 138.121806 
z
" clip-path="url(#p0d2095881c)" style="fill: #4caf50"/>
   </g>
   <g id="patch_80">
    <path d="M 508.998713 455.955539 
L 530.099175 455.955539 
L 530.099175 455.955539 
L 508.998713 455.955539 
z
" clip-path="url(#p0d2095881c)" style="fill: #4caf50"/>
   </g>
   <g id="patch_81">
    <path d="M 535.37429 455.955539 
L 556.474752 455.955539 
L 556.474752 455.955539 
L 535.37429 455.955539 
z
" clip-path="url(#p0d2095881c)" style="fill: #4caf50"/>
   </g>
   <g id="patch_82">
    <path d="M 561.749868 455.955539 
L 582.85033 455.955539 
L 582.85033 455.955539 
L 561.749868 455.955539 
z
" clip-path="url(#p0d2095881c)" style="fill: #4caf50"/>
   </g>
   <g id="patch_83">
    <path d="M 588.125446 455.955539 
L 609.225908 455.955539 
L 609.225908 455.955539 
L 588.125446 455.955539 
z
" clip-path="url(#p0d2095881c)" style="fill: #4caf50"/>
   </g>
   <g id="patch_84">
    <path d="M 614.501023 342.443492 
L 635.601485 342.443492 
L 635.601485 274.336263 
L 614.501023 274.336263 
z
" clip-path="url(#p0d2095881c)" style="fill: #4caf50"/>
   </g>
   <g id="patch_85">
    <path d="M 640.876601 455.955539 
L 661.977063 455.955539 
L 661.977063 455.955539 
L 640.876601 455.955539 
z
" clip-path="url(#p0d2095881c)" style="fill: #4caf50"/>
   </g>
   <g id="patch_86">
    <path d="M 667.252178 365.145901 
L 688.35264 365.145901 
L 688.35264 297.038673 
L 667.252178 297.038673 
z
" clip-path="url(#p0d2095881c)" style="fill: #4caf50"/>
   </g>
   <g id="patch_87">
    <path d="M 693.627756 455.955539 
L 714.728218 455.955539 
L 714.728218 455.955539 
L 693.627756 455.955539 
z
" clip-path="url(#p0d2095881c)" style="fill: #4caf50"/>
   </g>
   <g id="patch_88">
    <path d="M 720.003333 455.955539 
L 741.103795 455.955539 
L 741.103795 455.955539 
L 720.003333 455.955539 
z
" clip-path="url(#p0d2095881c)" style="fill: #4caf50"/>
   </g>
   <g id="patch_89">
    <path d="M 746.378911 251.633854 
L 767.479373 251.633854 
L 767.479373 47.312169 
L 746.378911 47.312169 
z
" clip-path="url(#p0d2095881c)" style="fill: #4caf50"/>
   </g>
   <g id="patch_90">
    <path d="M 772.754488 455.955539 
L 793.85495 455.955539 
L 793.85495 455.955539 
L 772.754488 455.955539 
z
" clip-path="url(#p0d2095881c)" style="fill: #4caf50"/>
   </g>
   <g id="patch_91">
    <path d="M 799.130066 455.955539 
L 820.230528 455.955539 
L 820.230528 455.955539 
L 799.130066 455.955539 
z
" clip-path="url(#p0d2095881c)" style="fill: #4caf50"/>
   </g>
   <g id="patch_92">
    <path d="M 825.505644 455.955539 
L 846.606106 455.955539 
L 846.606106 455.955539 
L 825.505644 455.955539 
z
" clip-path="url(#p0d2095881c)" style="fill: #4caf50"/>
   </g>
   <g id="matplotlib.axis_1">
    <g id="xtick_1">
     <g id="line2d_1">
      <defs>
       <path id="m627a3a443e" d="M 0 0 
L 0 3.5 
" style="stroke: #000000; stroke-width: 0.8"/>
      </defs>
      <g>
       <use xlink:href="#m627a3a443e" x="71.164125" y="455.955539" style="stroke: #000000; stroke-width: 0.8"/>
      </g>
     </g>
    </g>
    <g id="xtick_2">
     <g id="line2d_2">
      <g>
       <use xlink:href="#m627a3a443e" x="97.539703" y="455.955539" style="stroke: #000000; stroke-width: 0.8"/>
      </g>
     </g>
    </g>
    <g id="xtick_3">
     <g id="line2d_3">
      <g>
       <use xlink:href="#m627a3a443e" x="123.915281" y="455.955539" style="stroke: #000000; stroke-width: 0.8"/>
      </g>
     </g>
    </g>
    <g id="xtick_4">
     <g id="line2d_4">
      <g>
       <use xlink:href="#m627a3a443e" x="150.290858" y="455.955539" style="stroke: #000000; stroke-width: 0.8"/>
      </g>
     </g>
     <g id="text_1">
      <!-- 10 -->
      <g transform="translate(147.743064 477.326379) rotate(-45) scale(0.1 -0.1)">
       <defs>
        <path id="DejaVuSans-31" d="M 794 531 
L 1825 531 
L 1825 4091 
L 703 3866 
L 703 4441 
L 1819 4666 
L 2450 4666 
L 2450 531 
L 3481 531 
L 3481 0 
L 794 0 
L 794 531 
z
" transform="scale(0.015625)"/>
        <path id="DejaVuSans-30" d="M 2034 4250 
Q 1547 4250 1301 3770 
Q 1056 3291 1056 2328 
Q 1056 1369 1301 889 
Q 1547 409 2034 409 
Q 2525 409 2770 889 
Q 3016 1369 3016 2328 
Q 3016 3291 2770 3770 
Q 2525 4250 2034 4250 
z
M 2034 4750 
Q 2819 4750 3233 4129 
Q 3647 3509 3647 2328 
Q 3647 1150 3233 529 
Q 2819 -91 2034 -91 
Q 1250 -91 836 529 
Q 422 1150 422 2328 
Q 422 3509 836 4129 
Q 1250 4750 2034 4750 
z
" transform="scale(0.015625)"/>
       </defs>
       <use xlink:href="#DejaVuSans-31"/>
       <use xlink:href="#DejaVuSans-30" transform="translate(63.623047 0)"/>
      </g>
     </g>
    </g>
    <g id="xtick_5">
     <g id="line2d_5">
      <g>
       <use xlink:href="#m627a3a443e" x="176.666436" y="455.955539" style="stroke: #000000; stroke-width: 0.8"/>
      </g>
     </g>
     <g id="text_2">
      <!-- 11 -->
      <g transform="translate(174.118642 477.326379) rotate(-45) scale(0.1 -0.1)">
       <use xlink:href="#DejaVuSans-31"/>
       <use xlink:href="#DejaVuSans-31" transform="translate(63.623047 0)"/>
      </g>
     </g>
    </g>
    <g id="xtick_6">
     <g id="line2d_6">
      <g>
       <use xlink:href="#m627a3a443e" x="203.042013" y="455.955539" style="stroke: #000000; stroke-width: 0.8"/>
      </g>
     </g>
    </g>
    <g id="xtick_7">
     <g id="line2d_7">
      <g>
       <use xlink:href="#m627a3a443e" x="229.417591" y="455.955539" style="stroke: #000000; stroke-width: 0.8"/>
      </g>
     </g>
    </g>
    <g id="xtick_8">
     <g id="line2d_8">
      <g>
       <use xlink:href="#m627a3a443e" x="255.793168" y="455.955539" style="stroke: #000000; stroke-width: 0.8"/>
      </g>
     </g>
    </g>
    <g id="xtick_9">
     <g id="line2d_9">
      <g>
       <use xlink:href="#m627a3a443e" x="282.168746" y="455.955539" style="stroke: #000000; stroke-width: 0.8"/>
      </g>
     </g>
     <g id="text_3">
      <!-- 15 -->
      <g transform="translate(279.620952 477.326379) rotate(-45) scale(0.1 -0.1)">
       <defs>
        <path id="DejaVuSans-35" d="M 691 4666 
L 3169 4666 
L 3169 4134 
L 1269 4134 
L 1269 2991 
Q 1406 3038 1543 3061 
Q 1681 3084 1819 3084 
Q 2600 3084 3056 2656 
Q 3513 2228 3513 1497 
Q 3513 744 3044 326 
Q 2575 -91 1722 -91 
Q 1428 -91 1123 -41 
Q 819 9 494 109 
L 494 744 
Q 775 591 1075 516 
Q 1375 441 1709 441 
Q 2250 441 2565 725 
Q 2881 1009 2881 1497 
Q 2881 1984 2565 2268 
Q 2250 2553 1709 2553 
Q 1456 2553 1204 2497 
Q 953 2441 691 2322 
L 691 4666 
z
" transform="scale(0.015625)"/>
       </defs>
       <use xlink:href="#DejaVuSans-31"/>
       <use xlink:href="#DejaVuSans-35" transform="translate(63.623047 0)"/>
      </g>
     </g>
    </g>
    <g id="xtick_10">
     <g id="line2d_10">
      <g>
       <use xlink:href="#m627a3a443e" x="308.544323" y="455.955539" style="stroke: #000000; stroke-width: 0.8"/>
      </g>
     </g>
    </g>
    <g id="xtick_11">
     <g id="line2d_11">
      <g>
       <use xlink:href="#m627a3a443e" x="334.919901" y="455.955539" style="stroke: #000000; stroke-width: 0.8"/>
      </g>
     </g>
    </g>
    <g id="xtick_12">
     <g id="line2d_12">
      <g>
       <use xlink:href="#m627a3a443e" x="361.295479" y="455.955539" style="stroke: #000000; stroke-width: 0.8"/>
      </g>
     </g>
    </g>
    <g id="xtick_13">
     <g id="line2d_13">
      <g>
       <use xlink:href="#m627a3a443e" x="387.671056" y="455.955539" style="stroke: #000000; stroke-width: 0.8"/>
      </g>
     </g>
     <g id="text_4">
      <!-- 23 -->
      <g transform="translate(385.123262 477.326379) rotate(-45) scale(0.1 -0.1)">
       <defs>
        <path id="DejaVuSans-32" d="M 1228 531 
L 3431 531 
L 3431 0 
L 469 0 
L 469 531 
Q 828 903 1448 1529 
Q 2069 2156 2228 2338 
Q 2531 2678 2651 2914 
Q 2772 3150 2772 3378 
Q 2772 3750 2511 3984 
Q 2250 4219 1831 4219 
Q 1534 4219 1204 4116 
Q 875 4013 500 3803 
L 500 4441 
Q 881 4594 1212 4672 
Q 1544 4750 1819 4750 
Q 2544 4750 2975 4387 
Q 3406 4025 3406 3419 
Q 3406 3131 3298 2873 
Q 3191 2616 2906 2266 
Q 2828 2175 2409 1742 
Q 1991 1309 1228 531 
z
" transform="scale(0.015625)"/>
        <path id="DejaVuSans-33" d="M 2597 2516 
Q 3050 2419 3304 2112 
Q 3559 1806 3559 1356 
Q 3559 666 3084 287 
Q 2609 -91 1734 -91 
Q 1441 -91 1130 -33 
Q 819 25 488 141 
L 488 750 
Q 750 597 1062 519 
Q 1375 441 1716 441 
Q 2309 441 2620 675 
Q 2931 909 2931 1356 
Q 2931 1769 2642 2001 
Q 2353 2234 1838 2234 
L 1294 2234 
L 1294 2753 
L 1863 2753 
Q 2328 2753 2575 2939 
Q 2822 3125 2822 3475 
Q 2822 3834 2567 4026 
Q 2313 4219 1838 4219 
Q 1578 4219 1281 4162 
Q 984 4106 628 3988 
L 628 4550 
Q 988 4650 1302 4700 
Q 1616 4750 1894 4750 
Q 2613 4750 3031 4423 
Q 3450 4097 3450 3541 
Q 3450 3153 3228 2886 
Q 3006 2619 2597 2516 
z
" transform="scale(0.015625)"/>
       </defs>
       <use xlink:href="#DejaVuSans-32"/>
       <use xlink:href="#DejaVuSans-33" transform="translate(63.623047 0)"/>
      </g>
     </g>
    </g>
    <g id="xtick_14">
     <g id="line2d_14">
      <g>
       <use xlink:href="#m627a3a443e" x="414.046634" y="455.955539" style="stroke: #000000; stroke-width: 0.8"/>
      </g>
     </g>
     <g id="text_5">
      <!-- 30 -->
      <g transform="translate(411.49884 477.326379) rotate(-45) scale(0.1 -0.1)">
       <use xlink:href="#DejaVuSans-33"/>
       <use xlink:href="#DejaVuSans-30" transform="translate(63.623047 0)"/>
      </g>
     </g>
    </g>
    <g id="xtick_15">
     <g id="line2d_15">
      <g>
       <use xlink:href="#m627a3a443e" x="440.422211" y="455.955539" style="stroke: #000000; stroke-width: 0.8"/>
      </g>
     </g>
    </g>
    <g id="xtick_16">
     <g id="line2d_16">
      <g>
       <use xlink:href="#m627a3a443e" x="466.797789" y="455.955539" style="stroke: #000000; stroke-width: 0.8"/>
      </g>
     </g>
    </g>
    <g id="xtick_17">
     <g id="line2d_17">
      <g>
       <use xlink:href="#m627a3a443e" x="493.173366" y="455.955539" style="stroke: #000000; stroke-width: 0.8"/>
      </g>
     </g>
    </g>
    <g id="xtick_18">
     <g id="line2d_18">
      <g>
       <use xlink:href="#m627a3a443e" x="519.548944" y="455.955539" style="stroke: #000000; stroke-width: 0.8"/>
      </g>
     </g>
    </g>
    <g id="xtick_19">
     <g id="line2d_19">
      <g>
       <use xlink:href="#m627a3a443e" x="545.924521" y="455.955539" style="stroke: #000000; stroke-width: 0.8"/>
      </g>
     </g>
     <g id="text_6">
      <!-- 35 -->
      <g transform="translate(543.376727 477.326379) rotate(-45) scale(0.1 -0.1)">
       <use xlink:href="#DejaVuSans-33"/>
       <use xlink:href="#DejaVuSans-35" transform="translate(63.623047 0)"/>
      </g>
     </g>
    </g>
    <g id="xtick_20">
     <g id="line2d_20">
      <g>
       <use xlink:href="#m627a3a443e" x="572.300099" y="455.955539" style="stroke: #000000; stroke-width: 0.8"/>
      </g>
     </g>
    </g>
    <g id="xtick_21">
     <g id="line2d_21">
      <g>
       <use xlink:href="#m627a3a443e" x="598.675677" y="455.955539" style="stroke: #000000; stroke-width: 0.8"/>
      </g>
     </g>
    </g>
    <g id="xtick_22">
     <g id="line2d_22">
      <g>
       <use xlink:href="#m627a3a443e" x="625.051254" y="455.955539" style="stroke: #000000; stroke-width: 0.8"/>
      </g>
     </g>
    </g>
    <g id="xtick_23">
     <g id="line2d_23">
      <g>
       <use xlink:href="#m627a3a443e" x="651.426832" y="455.955539" style="stroke: #000000; stroke-width: 0.8"/>
      </g>
     </g>
    </g>
    <g id="xtick_24">
     <g id="line2d_24">
      <g>
       <use xlink:href="#m627a3a443e" x="677.802409" y="455.955539" style="stroke: #000000; stroke-width: 0.8"/>
      </g>
     </g>
     <g id="text_7">
      <!-- 40 -->
      <g transform="translate(675.254615 477.326379) rotate(-45) scale(0.1 -0.1)">
       <defs>
        <path id="DejaVuSans-34" d="M 2419 4116 
L 825 1625 
L 2419 1625 
L 2419 4116 
z
M 2253 4666 
L 3047 4666 
L 3047 1625 
L 3713 1625 
L 3713 1100 
L 3047 1100 
L 3047 0 
L 2419 0 
L 2419 1100 
L 313 1100 
L 313 1709 
L 2253 4666 
z
" transform="scale(0.015625)"/>
       </defs>
       <use xlink:href="#DejaVuSans-34"/>
       <use xlink:href="#DejaVuSans-30" transform="translate(63.623047 0)"/>
      </g>
     </g>
    </g>
    <g id="xtick_25">
     <g id="line2d_25">
      <g>
       <use xlink:href="#m627a3a443e" x="704.177987" y="455.955539" style="stroke: #000000; stroke-width: 0.8"/>
      </g>
     </g>
    </g>
    <g id="xtick_26">
     <g id="line2d_26">
      <g>
       <use xlink:href="#m627a3a443e" x="730.553564" y="455.955539" style="stroke: #000000; stroke-width: 0.8"/>
      </g>
     </g>
    </g>
    <g id="xtick_27">
     <g id="line2d_27">
      <g>
       <use xlink:href="#m627a3a443e" x="756.929142" y="455.955539" style="stroke: #000000; stroke-width: 0.8"/>
      </g>
     </g>
    </g>
    <g id="xtick_28">
     <g id="line2d_28">
      <g>
       <use xlink:href="#m627a3a443e" x="783.304719" y="455.955539" style="stroke: #000000; stroke-width: 0.8"/>
      </g>
     </g>
     <g id="text_8">
      <!-- 45 -->
      <g transform="translate(780.756925 477.326379) rotate(-45) scale(0.1 -0.1)">
       <use xlink:href="#DejaVuSans-34"/>
       <use xlink:href="#DejaVuSans-35" transform="translate(63.623047 0)"/>
      </g>
     </g>
    </g>
    <g id="xtick_29">
     <g id="line2d_29">
      <g>
       <use xlink:href="#m627a3a443e" x="809.680297" y="455.955539" style="stroke: #000000; stroke-width: 0.8"/>
      </g>
     </g>
    </g>
    <g id="xtick_30">
     <g id="line2d_30">
      <g>
       <use xlink:href="#m627a3a443e" x="836.055875" y="455.955539" style="stroke: #000000; stroke-width: 0.8"/>
      </g>
     </g>
     <g id="text_9">
      <!-- 47 -->
      <g transform="translate(833.50808 477.326379) rotate(-45) scale(0.1 -0.1)">
       <defs>
        <path id="DejaVuSans-37" d="M 525 4666 
L 3525 4666 
L 3525 4397 
L 1831 0 
L 1172 0 
L 2766 4134 
L 525 4134 
L 525 4666 
z
" transform="scale(0.015625)"/>
       </defs>
       <use xlink:href="#DejaVuSans-34"/>
       <use xlink:href="#DejaVuSans-37" transform="translate(63.623047 0)"/>
      </g>
     </g>
    </g>
    <g id="text_10">
     <!-- Game Minute -->
     <g transform="translate(420.058438 490.395378) scale(0.1 -0.1)">
      <defs>
       <path id="DejaVuSans-47" d="M 3809 666 
L 3809 1919 
L 2778 1919 
L 2778 2438 
L 4434 2438 
L 4434 434 
Q 4069 175 3628 42 
Q 3188 -91 2688 -91 
Q 1594 -91 976 548 
Q 359 1188 359 2328 
Q 359 3472 976 4111 
Q 1594 4750 2688 4750 
Q 3144 4750 3555 4637 
Q 3966 4525 4313 4306 
L 4313 3634 
Q 3963 3931 3569 4081 
Q 3175 4231 2741 4231 
Q 1884 4231 1454 3753 
Q 1025 3275 1025 2328 
Q 1025 1384 1454 906 
Q 1884 428 2741 428 
Q 3075 428 3337 486 
Q 3600 544 3809 666 
z
" transform="scale(0.015625)"/>
       <path id="DejaVuSans-61" d="M 2194 1759 
Q 1497 1759 1228 1600 
Q 959 1441 959 1056 
Q 959 750 1161 570 
Q 1363 391 1709 391 
Q 2188 391 2477 730 
Q 2766 1069 2766 1631 
L 2766 1759 
L 2194 1759 
z
M 3341 1997 
L 3341 0 
L 2766 0 
L 2766 531 
Q 2569 213 2275 61 
Q 1981 -91 1556 -91 
Q 1019 -91 701 211 
Q 384 513 384 1019 
Q 384 1609 779 1909 
Q 1175 2209 1959 2209 
L 2766 2209 
L 2766 2266 
Q 2766 2663 2505 2880 
Q 2244 3097 1772 3097 
Q 1472 3097 1187 3025 
Q 903 2953 641 2809 
L 641 3341 
Q 956 3463 1253 3523 
Q 1550 3584 1831 3584 
Q 2591 3584 2966 3190 
Q 3341 2797 3341 1997 
z
" transform="scale(0.015625)"/>
       <path id="DejaVuSans-6d" d="M 3328 2828 
Q 3544 3216 3844 3400 
Q 4144 3584 4550 3584 
Q 5097 3584 5394 3201 
Q 5691 2819 5691 2113 
L 5691 0 
L 5113 0 
L 5113 2094 
Q 5113 2597 4934 2840 
Q 4756 3084 4391 3084 
Q 3944 3084 3684 2787 
Q 3425 2491 3425 1978 
L 3425 0 
L 2847 0 
L 2847 2094 
Q 2847 2600 2669 2842 
Q 2491 3084 2119 3084 
Q 1678 3084 1418 2786 
Q 1159 2488 1159 1978 
L 1159 0 
L 581 0 
L 581 3500 
L 1159 3500 
L 1159 2956 
Q 1356 3278 1631 3431 
Q 1906 3584 2284 3584 
Q 2666 3584 2933 3390 
Q 3200 3197 3328 2828 
z
" transform="scale(0.015625)"/>
       <path id="DejaVuSans-65" d="M 3597 1894 
L 3597 1613 
L 953 1613 
Q 991 1019 1311 708 
Q 1631 397 2203 397 
Q 2534 397 2845 478 
Q 3156 559 3463 722 
L 3463 178 
Q 3153 47 2828 -22 
Q 2503 -91 2169 -91 
Q 1331 -91 842 396 
Q 353 884 353 1716 
Q 353 2575 817 3079 
Q 1281 3584 2069 3584 
Q 2775 3584 3186 3129 
Q 3597 2675 3597 1894 
z
M 3022 2063 
Q 3016 2534 2758 2815 
Q 2500 3097 2075 3097 
Q 1594 3097 1305 2825 
Q 1016 2553 972 2059 
L 3022 2063 
z
" transform="scale(0.015625)"/>
       <path id="DejaVuSans-20" transform="scale(0.015625)"/>
       <path id="DejaVuSans-4d" d="M 628 4666 
L 1569 4666 
L 2759 1491 
L 3956 4666 
L 4897 4666 
L 4897 0 
L 4281 0 
L 4281 4097 
L 3078 897 
L 2444 897 
L 1241 4097 
L 1241 0 
L 628 0 
L 628 4666 
z
" transform="scale(0.015625)"/>
       <path id="DejaVuSans-69" d="M 603 3500 
L 1178 3500 
L 1178 0 
L 603 0 
L 603 3500 
z
M 603 4863 
L 1178 4863 
L 1178 4134 
L 603 4134 
L 603 4863 
z
" transform="scale(0.015625)"/>
       <path id="DejaVuSans-6e" d="M 3513 2113 
L 3513 0 
L 2938 0 
L 2938 2094 
Q 2938 2591 2744 2837 
Q 2550 3084 2163 3084 
Q 1697 3084 1428 2787 
Q 1159 2491 1159 1978 
L 1159 0 
L 581 0 
L 581 3500 
L 1159 3500 
L 1159 2956 
Q 1366 3272 1645 3428 
Q 1925 3584 2291 3584 
Q 2894 3584 3203 3211 
Q 3513 2838 3513 2113 
z
" transform="scale(0.015625)"/>
       <path id="DejaVuSans-75" d="M 544 1381 
L 544 3500 
L 1119 3500 
L 1119 1403 
Q 1119 906 1312 657 
Q 1506 409 1894 409 
Q 2359 409 2629 706 
Q 2900 1003 2900 1516 
L 2900 3500 
L 3475 3500 
L 3475 0 
L 2900 0 
L 2900 538 
Q 2691 219 2414 64 
Q 2138 -91 1772 -91 
Q 1169 -91 856 284 
Q 544 659 544 1381 
z
M 1991 3584 
L 1991 3584 
z
" transform="scale(0.015625)"/>
       <path id="DejaVuSans-74" d="M 1172 4494 
L 1172 3500 
L 2356 3500 
L 2356 3053 
L 1172 3053 
L 1172 1153 
Q 1172 725 1289 603 
Q 1406 481 1766 481 
L 2356 481 
L 2356 0 
L 1766 0 
Q 1100 0 847 248 
Q 594 497 594 1153 
L 594 3053 
L 172 3053 
L 172 3500 
L 594 3500 
L 594 4494 
L 1172 4494 
z
" transform="scale(0.015625)"/>
      </defs>
      <use xlink:href="#DejaVuSans-47"/>
      <use xlink:href="#DejaVuSans-61" transform="translate(77.490234 0)"/>
      <use xlink:href="#DejaVuSans-6d" transform="translate(138.769531 0)"/>
      <use xlink:href="#DejaVuSans-65" transform="translate(236.181641 0)"/>
      <use xlink:href="#DejaVuSans-20" transform="translate(297.705078 0)"/>
      <use xlink:href="#DejaVuSans-4d" transform="translate(329.492188 0)"/>
      <use xlink:href="#DejaVuSans-69" transform="translate(415.771484 0)"/>
      <use xlink:href="#DejaVuSans-6e" transform="translate(443.554688 0)"/>
      <use xlink:href="#DejaVuSans-75" transform="translate(506.933594 0)"/>
      <use xlink:href="#DejaVuSans-74" transform="translate(570.3125 0)"/>
      <use xlink:href="#DejaVuSans-65" transform="translate(609.521484 0)"/>
     </g>
    </g>
   </g>
   <g id="matplotlib.axis_2">
    <g id="ytick_1">
     <g id="line2d_31">
      <path d="M 54.02 455.955539 
L 853.2 455.955539 
" clip-path="url(#p0d2095881c)" style="fill: none; stroke-dasharray: 2.96,1.28; stroke-dashoffset: 0; stroke: #b0b0b0; stroke-opacity: 0.6; stroke-width: 0.8"/>
     </g>
     <g id="line2d_32">
      <defs>
       <path id="m21fb63495a" d="M 0 0 
L -3.5 0 
" style="stroke: #000000; stroke-width: 0.8"/>
      </defs>
      <g>
       <use xlink:href="#m21fb63495a" x="54.02" y="455.955539" style="stroke: #000000; stroke-width: 0.8"/>
      </g>
     </g>
     <g id="text_11">
      <!-- 0.0 -->
      <g transform="translate(31.116875 459.754758) scale(0.1 -0.1)">
       <defs>
        <path id="DejaVuSans-2e" d="M 684 794 
L 1344 794 
L 1344 0 
L 684 0 
L 684 794 
z
" transform="scale(0.015625)"/>
       </defs>
       <use xlink:href="#DejaVuSans-30"/>
       <use xlink:href="#DejaVuSans-2e" transform="translate(63.623047 0)"/>
       <use xlink:href="#DejaVuSans-30" transform="translate(95.410156 0)"/>
      </g>
     </g>
    </g>
    <g id="ytick_2">
     <g id="line2d_33">
      <path d="M 54.02 399.199515 
L 853.2 399.199515 
" clip-path="url(#p0d2095881c)" style="fill: none; stroke-dasharray: 2.96,1.28; stroke-dashoffset: 0; stroke: #b0b0b0; stroke-opacity: 0.6; stroke-width: 0.8"/>
     </g>
     <g id="line2d_34">
      <g>
       <use xlink:href="#m21fb63495a" x="54.02" y="399.199515" style="stroke: #000000; stroke-width: 0.8"/>
      </g>
     </g>
     <g id="text_12">
      <!-- 2.5 -->
      <g transform="translate(31.116875 402.998734) scale(0.1 -0.1)">
       <use xlink:href="#DejaVuSans-32"/>
       <use xlink:href="#DejaVuSans-2e" transform="translate(63.623047 0)"/>
       <use xlink:href="#DejaVuSans-35" transform="translate(95.410156 0)"/>
      </g>
     </g>
    </g>
    <g id="ytick_3">
     <g id="line2d_35">
      <path d="M 54.02 342.443492 
L 853.2 342.443492 
" clip-path="url(#p0d2095881c)" style="fill: none; stroke-dasharray: 2.96,1.28; stroke-dashoffset: 0; stroke: #b0b0b0; stroke-opacity: 0.6; stroke-width: 0.8"/>
     </g>
     <g id="line2d_36">
      <g>
       <use xlink:href="#m21fb63495a" x="54.02" y="342.443492" style="stroke: #000000; stroke-width: 0.8"/>
      </g>
     </g>
     <g id="text_13">
      <!-- 5.0 -->
      <g transform="translate(31.116875 346.24271) scale(0.1 -0.1)">
       <use xlink:href="#DejaVuSans-35"/>
       <use xlink:href="#DejaVuSans-2e" transform="translate(63.623047 0)"/>
       <use xlink:href="#DejaVuSans-30" transform="translate(95.410156 0)"/>
      </g>
     </g>
    </g>
    <g id="ytick_4">
     <g id="line2d_37">
      <path d="M 54.02 285.687468 
L 853.2 285.687468 
" clip-path="url(#p0d2095881c)" style="fill: none; stroke-dasharray: 2.96,1.28; stroke-dashoffset: 0; stroke: #b0b0b0; stroke-opacity: 0.6; stroke-width: 0.8"/>
     </g>
     <g id="line2d_38">
      <g>
       <use xlink:href="#m21fb63495a" x="54.02" y="285.687468" style="stroke: #000000; stroke-width: 0.8"/>
      </g>
     </g>
     <g id="text_14">
      <!-- 7.5 -->
      <g transform="translate(31.116875 289.486687) scale(0.1 -0.1)">
       <use xlink:href="#DejaVuSans-37"/>
       <use xlink:href="#DejaVuSans-2e" transform="translate(63.623047 0)"/>
       <use xlink:href="#DejaVuSans-35" transform="translate(95.410156 0)"/>
      </g>
     </g>
    </g>
    <g id="ytick_5">
     <g id="line2d_39">
      <path d="M 54.02 228.931444 
L 853.2 228.931444 
" clip-path="url(#p0d2095881c)" style="fill: none; stroke-dasharray: 2.96,1.28; stroke-dashoffset: 0; stroke: #b0b0b0; stroke-opacity: 0.6; stroke-width: 0.8"/>
     </g>
     <g id="line2d_40">
      <g>
       <use xlink:href="#m21fb63495a" x="54.02" y="228.931444" style="stroke: #000000; stroke-width: 0.8"/>
      </g>
     </g>
     <g id="text_15">
      <!-- 10.0 -->
      <g transform="translate(24.754375 232.730663) scale(0.1 -0.1)">
       <use xlink:href="#DejaVuSans-31"/>
       <use xlink:href="#DejaVuSans-30" transform="translate(63.623047 0)"/>
       <use xlink:href="#DejaVuSans-2e" transform="translate(127.246094 0)"/>
       <use xlink:href="#DejaVuSans-30" transform="translate(159.033203 0)"/>
      </g>
     </g>
    </g>
    <g id="ytick_6">
     <g id="line2d_41">
      <path d="M 54.02 172.175421 
L 853.2 172.175421 
" clip-path="url(#p0d2095881c)" style="fill: none; stroke-dasharray: 2.96,1.28; stroke-dashoffset: 0; stroke: #b0b0b0; stroke-opacity: 0.6; stroke-width: 0.8"/>
     </g>
     <g id="line2d_42">
      <g>
       <use xlink:href="#m21fb63495a" x="54.02" y="172.175421" style="stroke: #000000; stroke-width: 0.8"/>
      </g>
     </g>
     <g id="text_16">
      <!-- 12.5 -->
      <g transform="translate(24.754375 175.974639) scale(0.1 -0.1)">
       <use xlink:href="#DejaVuSans-31"/>
       <use xlink:href="#DejaVuSans-32" transform="translate(63.623047 0)"/>
       <use xlink:href="#DejaVuSans-2e" transform="translate(127.246094 0)"/>
       <use xlink:href="#DejaVuSans-35" transform="translate(159.033203 0)"/>
      </g>
     </g>
    </g>
    <g id="ytick_7">
     <g id="line2d_43">
      <path d="M 54.02 115.419397 
L 853.2 115.419397 
" clip-path="url(#p0d2095881c)" style="fill: none; stroke-dasharray: 2.96,1.28; stroke-dashoffset: 0; stroke: #b0b0b0; stroke-opacity: 0.6; stroke-width: 0.8"/>
     </g>
     <g id="line2d_44">
      <g>
       <use xlink:href="#m21fb63495a" x="54.02" y="115.419397" style="stroke: #000000; stroke-width: 0.8"/>
      </g>
     </g>
     <g id="text_17">
      <!-- 15.0 -->
      <g transform="translate(24.754375 119.218616) scale(0.1 -0.1)">
       <use xlink:href="#DejaVuSans-31"/>
       <use xlink:href="#DejaVuSans-35" transform="translate(63.623047 0)"/>
       <use xlink:href="#DejaVuSans-2e" transform="translate(127.246094 0)"/>
       <use xlink:href="#DejaVuSans-30" transform="translate(159.033203 0)"/>
      </g>
     </g>
    </g>
    <g id="ytick_8">
     <g id="line2d_45">
      <path d="M 54.02 58.663373 
L 853.2 58.663373 
" clip-path="url(#p0d2095881c)" style="fill: none; stroke-dasharray: 2.96,1.28; stroke-dashoffset: 0; stroke: #b0b0b0; stroke-opacity: 0.6; stroke-width: 0.8"/>
     </g>
     <g id="line2d_46">
      <g>
       <use xlink:href="#m21fb63495a" x="54.02" y="58.663373" style="stroke: #000000; stroke-width: 0.8"/>
      </g>
     </g>
     <g id="text_18">
      <!-- 17.5 -->
      <g transform="translate(24.754375 62.462592) scale(0.1 -0.1)">
       <use xlink:href="#DejaVuSans-31"/>
       <use xlink:href="#DejaVuSans-37" transform="translate(63.623047 0)"/>
       <use xlink:href="#DejaVuSans-2e" transform="translate(127.246094 0)"/>
       <use xlink:href="#DejaVuSans-35" transform="translate(159.033203 0)"/>
      </g>
     </g>
    </g>
    <g id="text_19">
     <!-- Points Scored -->
     <g transform="translate(18.674687 275.199019) rotate(-90) scale(0.1 -0.1)">
      <defs>
       <path id="DejaVuSans-50" d="M 1259 4147 
L 1259 2394 
L 2053 2394 
Q 2494 2394 2734 2622 
Q 2975 2850 2975 3272 
Q 2975 3691 2734 3919 
Q 2494 4147 2053 4147 
L 1259 4147 
z
M 628 4666 
L 2053 4666 
Q 2838 4666 3239 4311 
Q 3641 3956 3641 3272 
Q 3641 2581 3239 2228 
Q 2838 1875 2053 1875 
L 1259 1875 
L 1259 0 
L 628 0 
L 628 4666 
z
" transform="scale(0.015625)"/>
       <path id="DejaVuSans-6f" d="M 1959 3097 
Q 1497 3097 1228 2736 
Q 959 2375 959 1747 
Q 959 1119 1226 758 
Q 1494 397 1959 397 
Q 2419 397 2687 759 
Q 2956 1122 2956 1747 
Q 2956 2369 2687 2733 
Q 2419 3097 1959 3097 
z
M 1959 3584 
Q 2709 3584 3137 3096 
Q 3566 2609 3566 1747 
Q 3566 888 3137 398 
Q 2709 -91 1959 -91 
Q 1206 -91 779 398 
Q 353 888 353 1747 
Q 353 2609 779 3096 
Q 1206 3584 1959 3584 
z
" transform="scale(0.015625)"/>
       <path id="DejaVuSans-73" d="M 2834 3397 
L 2834 2853 
Q 2591 2978 2328 3040 
Q 2066 3103 1784 3103 
Q 1356 3103 1142 2972 
Q 928 2841 928 2578 
Q 928 2378 1081 2264 
Q 1234 2150 1697 2047 
L 1894 2003 
Q 2506 1872 2764 1633 
Q 3022 1394 3022 966 
Q 3022 478 2636 193 
Q 2250 -91 1575 -91 
Q 1294 -91 989 -36 
Q 684 19 347 128 
L 347 722 
Q 666 556 975 473 
Q 1284 391 1588 391 
Q 1994 391 2212 530 
Q 2431 669 2431 922 
Q 2431 1156 2273 1281 
Q 2116 1406 1581 1522 
L 1381 1569 
Q 847 1681 609 1914 
Q 372 2147 372 2553 
Q 372 3047 722 3315 
Q 1072 3584 1716 3584 
Q 2034 3584 2315 3537 
Q 2597 3491 2834 3397 
z
" transform="scale(0.015625)"/>
       <path id="DejaVuSans-53" d="M 3425 4513 
L 3425 3897 
Q 3066 4069 2747 4153 
Q 2428 4238 2131 4238 
Q 1616 4238 1336 4038 
Q 1056 3838 1056 3469 
Q 1056 3159 1242 3001 
Q 1428 2844 1947 2747 
L 2328 2669 
Q 3034 2534 3370 2195 
Q 3706 1856 3706 1288 
Q 3706 609 3251 259 
Q 2797 -91 1919 -91 
Q 1588 -91 1214 -16 
Q 841 59 441 206 
L 441 856 
Q 825 641 1194 531 
Q 1563 422 1919 422 
Q 2459 422 2753 634 
Q 3047 847 3047 1241 
Q 3047 1584 2836 1778 
Q 2625 1972 2144 2069 
L 1759 2144 
Q 1053 2284 737 2584 
Q 422 2884 422 3419 
Q 422 4038 858 4394 
Q 1294 4750 2059 4750 
Q 2388 4750 2728 4690 
Q 3069 4631 3425 4513 
z
" transform="scale(0.015625)"/>
       <path id="DejaVuSans-63" d="M 3122 3366 
L 3122 2828 
Q 2878 2963 2633 3030 
Q 2388 3097 2138 3097 
Q 1578 3097 1268 2742 
Q 959 2388 959 1747 
Q 959 1106 1268 751 
Q 1578 397 2138 397 
Q 2388 397 2633 464 
Q 2878 531 3122 666 
L 3122 134 
Q 2881 22 2623 -34 
Q 2366 -91 2075 -91 
Q 1284 -91 818 406 
Q 353 903 353 1747 
Q 353 2603 823 3093 
Q 1294 3584 2113 3584 
Q 2378 3584 2631 3529 
Q 2884 3475 3122 3366 
z
" transform="scale(0.015625)"/>
       <path id="DejaVuSans-72" d="M 2631 2963 
Q 2534 3019 2420 3045 
Q 2306 3072 2169 3072 
Q 1681 3072 1420 2755 
Q 1159 2438 1159 1844 
L 1159 0 
L 581 0 
L 581 3500 
L 1159 3500 
L 1159 2956 
Q 1341 3275 1631 3429 
Q 1922 3584 2338 3584 
Q 2397 3584 2469 3576 
Q 2541 3569 2628 3553 
L 2631 2963 
z
" transform="scale(0.015625)"/>
       <path id="DejaVuSans-64" d="M 2906 2969 
L 2906 4863 
L 3481 4863 
L 3481 0 
L 2906 0 
L 2906 525 
Q 2725 213 2448 61 
Q 2172 -91 1784 -91 
Q 1150 -91 751 415 
Q 353 922 353 1747 
Q 353 2572 751 3078 
Q 1150 3584 1784 3584 
Q 2172 3584 2448 3432 
Q 2725 3281 2906 2969 
z
M 947 1747 
Q 947 1113 1208 752 
Q 1469 391 1925 391 
Q 2381 391 2643 752 
Q 2906 1113 2906 1747 
Q 2906 2381 2643 2742 
Q 2381 3103 1925 3103 
Q 1469 3103 1208 2742 
Q 947 2381 947 1747 
z
" transform="scale(0.015625)"/>
      </defs>
      <use xlink:href="#DejaVuSans-50"/>
      <use xlink:href="#DejaVuSans-6f" transform="translate(56.677734 0)"/>
      <use xlink:href="#DejaVuSans-69" transform="translate(117.859375 0)"/>
      <use xlink:href="#DejaVuSans-6e" transform="translate(145.642578 0)"/>
      <use xlink:href="#DejaVuSans-74" transform="translate(209.021484 0)"/>
      <use xlink:href="#DejaVuSans-73" transform="translate(248.230469 0)"/>
      <use xlink:href="#DejaVuSans-20" transform="translate(300.330078 0)"/>
      <use xlink:href="#DejaVuSans-53" transform="translate(332.117188 0)"/>
      <use xlink:href="#DejaVuSans-63" transform="translate(395.59375 0)"/>
      <use xlink:href="#DejaVuSans-6f" transform="translate(450.574219 0)"/>
      <use xlink:href="#DejaVuSans-72" transform="translate(511.755859 0)"/>
      <use xlink:href="#DejaVuSans-65" transform="translate(550.619141 0)"/>
      <use xlink:href="#DejaVuSans-64" transform="translate(612.142578 0)"/>
     </g>
    </g>
   </g>
   <g id="patch_93">
    <path d="M 54.02 455.955539 
L 54.02 26.88 
" style="fill: none; stroke: #000000; stroke-width: 0.8; stroke-linejoin: miter; stroke-linecap: square"/>
   </g>
   <g id="patch_94">
    <path d="M 853.2 455.955539 
L 853.2 26.88 
" style="fill: none; stroke: #000000; stroke-width: 0.8; stroke-linejoin: miter; stroke-linecap: square"/>
   </g>
   <g id="patch_95">
    <path d="M 54.02 455.955539 
L 853.2 455.955539 
" style="fill: none; stroke: #000000; stroke-width: 0.8; stroke-linejoin: miter; stroke-linecap: square"/>
   </g>
   <g id="patch_96">
    <path d="M 54.02 26.88 
L 853.2 26.88 
" style="fill: none; stroke: #000000; stroke-width: 0.8; stroke-linejoin: miter; stroke-linecap: square"/>
   </g>
   <g id="text_20">
    <!-- Wendell Moore Scoring Timeline (2024-25) -->
    <g transform="translate(325.74625 20.88) scale(0.12 -0.12)">
     <defs>
      <path id="DejaVuSans-57" d="M 213 4666 
L 850 4666 
L 1831 722 
L 2809 4666 
L 3519 4666 
L 4500 722 
L 5478 4666 
L 6119 4666 
L 4947 0 
L 4153 0 
L 3169 4050 
L 2175 0 
L 1381 0 
L 213 4666 
z
" transform="scale(0.015625)"/>
      <path id="DejaVuSans-6c" d="M 603 4863 
L 1178 4863 
L 1178 0 
L 603 0 
L 603 4863 
z
" transform="scale(0.015625)"/>
      <path id="DejaVuSans-67" d="M 2906 1791 
Q 2906 2416 2648 2759 
Q 2391 3103 1925 3103 
Q 1463 3103 1205 2759 
Q 947 2416 947 1791 
Q 947 1169 1205 825 
Q 1463 481 1925 481 
Q 2391 481 2648 825 
Q 2906 1169 2906 1791 
z
M 3481 434 
Q 3481 -459 3084 -895 
Q 2688 -1331 1869 -1331 
Q 1566 -1331 1297 -1286 
Q 1028 -1241 775 -1147 
L 775 -588 
Q 1028 -725 1275 -790 
Q 1522 -856 1778 -856 
Q 2344 -856 2625 -561 
Q 2906 -266 2906 331 
L 2906 616 
Q 2728 306 2450 153 
Q 2172 0 1784 0 
Q 1141 0 747 490 
Q 353 981 353 1791 
Q 353 2603 747 3093 
Q 1141 3584 1784 3584 
Q 2172 3584 2450 3431 
Q 2728 3278 2906 2969 
L 2906 3500 
L 3481 3500 
L 3481 434 
z
" transform="scale(0.015625)"/>
      <path id="DejaVuSans-54" d="M -19 4666 
L 3928 4666 
L 3928 4134 
L 2272 4134 
L 2272 0 
L 1638 0 
L 1638 4134 
L -19 4134 
L -19 4666 
z
" transform="scale(0.015625)"/>
      <path id="DejaVuSans-28" d="M 1984 4856 
Q 1566 4138 1362 3434 
Q 1159 2731 1159 2009 
Q 1159 1288 1364 580 
Q 1569 -128 1984 -844 
L 1484 -844 
Q 1016 -109 783 600 
Q 550 1309 550 2009 
Q 550 2706 781 3412 
Q 1013 4119 1484 4856 
L 1984 4856 
z
" transform="scale(0.015625)"/>
      <path id="DejaVuSans-2d" d="M 313 2009 
L 1997 2009 
L 1997 1497 
L 313 1497 
L 313 2009 
z
" transform="scale(0.015625)"/>
      <path id="DejaVuSans-29" d="M 513 4856 
L 1013 4856 
Q 1481 4119 1714 3412 
Q 1947 2706 1947 2009 
Q 1947 1309 1714 600 
Q 1481 -109 1013 -844 
L 513 -844 
Q 928 -128 1133 580 
Q 1338 1288 1338 2009 
Q 1338 2731 1133 3434 
Q 928 4138 513 4856 
z
" transform="scale(0.015625)"/>
     </defs>
     <use xlink:href="#DejaVuSans-57"/>
     <use xlink:href="#DejaVuSans-65" transform="translate(93.001953 0)"/>
     <use xlink:href="#DejaVuSans-6e" transform="translate(154.525391 0)"/>
     <use xlink:href="#DejaVuSans-64" transform="translate(217.904297 0)"/>
     <use xlink:href="#DejaVuSans-65" transform="translate(281.380859 0)"/>
     <use xlink:href="#DejaVuSans-6c" transform="translate(342.904297 0)"/>
     <use xlink:href="#DejaVuSans-6c" transform="translate(370.6875 0)"/>
     <use xlink:href="#DejaVuSans-20" transform="translate(398.470703 0)"/>
     <use xlink:href="#DejaVuSans-4d" transform="translate(430.257812 0)"/>
     <use xlink:href="#DejaVuSans-6f" transform="translate(516.537109 0)"/>
     <use xlink:href="#DejaVuSans-6f" transform="translate(577.71875 0)"/>
     <use xlink:href="#DejaVuSans-72" transform="translate(638.900391 0)"/>
     <use xlink:href="#DejaVuSans-65" transform="translate(677.763672 0)"/>
     <use xlink:href="#DejaVuSans-20" transform="translate(739.287109 0)"/>
     <use xlink:href="#DejaVuSans-53" transform="translate(771.074219 0)"/>
     <use xlink:href="#DejaVuSans-63" transform="translate(834.550781 0)"/>
     <use xlink:href="#DejaVuSans-6f" transform="translate(889.53125 0)"/>
     <use xlink:href="#DejaVuSans-72" transform="translate(950.712891 0)"/>
     <use xlink:href="#DejaVuSans-69" transform="translate(991.826172 0)"/>
     <use xlink:href="#DejaVuSans-6e" transform="translate(1019.609375 0)"/>
     <use xlink:href="#DejaVuSans-67" transform="translate(1082.988281 0)"/>
     <use xlink:href="#DejaVuSans-20" transform="translate(1146.464844 0)"/>
     <use xlink:href="#DejaVuSans-54" transform="translate(1178.251953 0)"/>
     <use xlink:href="#DejaVuSans-69" transform="translate(1236.210938 0)"/>
     <use xlink:href="#DejaVuSans-6d" transform="translate(1263.994141 0)"/>
     <use xlink:href="#DejaVuSans-65" transform="translate(1361.40625 0)"/>
     <use xlink:href="#DejaVuSans-6c" transform="translate(1422.929688 0)"/>
     <use xlink:href="#DejaVuSans-69" transform="translate(1450.712891 0)"/>
     <use xlink:href="#DejaVuSans-6e" transform="translate(1478.496094 0)"/>
     <use xlink:href="#DejaVuSans-65" transform="translate(1541.875 0)"/>
     <use xlink:href="#DejaVuSans-20" transform="translate(1603.398438 0)"/>
     <use xlink:href="#DejaVuSans-28" transform="translate(1635.185547 0)"/>
     <use xlink:href="#DejaVuSans-32" transform="translate(1674.199219 0)"/>
     <use xlink:href="#DejaVuSans-30" transform="translate(1737.822266 0)"/>
     <use xlink:href="#DejaVuSans-32" transform="translate(1801.445312 0)"/>
     <use xlink:href="#DejaVuSans-34" transform="translate(1865.068359 0)"/>
     <use xlink:href="#DejaVuSans-2d" transform="translate(1928.691406 0)"/>
     <use xlink:href="#DejaVuSans-32" transform="translate(1964.775391 0)"/>
     <use xlink:href="#DejaVuSans-35" transform="translate(2028.398438 0)"/>
     <use xlink:href="#DejaVuSans-29" transform="translate(2092.021484 0)"/>
    </g>
   </g>
   <g id="legend_1">
    <g id="patch_97">
     <path d="M 793.33125 93.5925 
L 846.2 93.5925 
Q 848.2 93.5925 848.2 91.5925 
L 848.2 33.88 
Q 848.2 31.88 846.2 31.88 
L 793.33125 31.88 
Q 791.33125 31.88 791.33125 33.88 
L 791.33125 91.5925 
Q 791.33125 93.5925 793.33125 93.5925 
z
" style="fill: #ffffff; opacity: 0.8; stroke: #cccccc; stroke-linejoin: miter"/>
    </g>
    <g id="text_21">
     <!-- Shot Type -->
     <g transform="translate(795.33125 43.478437) scale(0.1 -0.1)">
      <defs>
       <path id="DejaVuSans-68" d="M 3513 2113 
L 3513 0 
L 2938 0 
L 2938 2094 
Q 2938 2591 2744 2837 
Q 2550 3084 2163 3084 
Q 1697 3084 1428 2787 
Q 1159 2491 1159 1978 
L 1159 0 
L 581 0 
L 581 4863 
L 1159 4863 
L 1159 2956 
Q 1366 3272 1645 3428 
Q 1925 3584 2291 3584 
Q 2894 3584 3203 3211 
Q 3513 2838 3513 2113 
z
" transform="scale(0.015625)"/>
       <path id="DejaVuSans-79" d="M 2059 -325 
Q 1816 -950 1584 -1140 
Q 1353 -1331 966 -1331 
L 506 -1331 
L 506 -850 
L 844 -850 
Q 1081 -850 1212 -737 
Q 1344 -625 1503 -206 
L 1606 56 
L 191 3500 
L 800 3500 
L 1894 763 
L 2988 3500 
L 3597 3500 
L 2059 -325 
z
" transform="scale(0.015625)"/>
       <path id="DejaVuSans-70" d="M 1159 525 
L 1159 -1331 
L 581 -1331 
L 581 3500 
L 1159 3500 
L 1159 2969 
Q 1341 3281 1617 3432 
Q 1894 3584 2278 3584 
Q 2916 3584 3314 3078 
Q 3713 2572 3713 1747 
Q 3713 922 3314 415 
Q 2916 -91 2278 -91 
Q 1894 -91 1617 61 
Q 1341 213 1159 525 
z
M 3116 1747 
Q 3116 2381 2855 2742 
Q 2594 3103 2138 3103 
Q 1681 3103 1420 2742 
Q 1159 2381 1159 1747 
Q 1159 1113 1420 752 
Q 1681 391 2138 391 
Q 2594 391 2855 752 
Q 3116 1113 3116 1747 
z
" transform="scale(0.015625)"/>
      </defs>
      <use xlink:href="#DejaVuSans-53"/>
      <use xlink:href="#DejaVuSans-68" transform="translate(63.476562 0)"/>
      <use xlink:href="#DejaVuSans-6f" transform="translate(126.855469 0)"/>
      <use xlink:href="#DejaVuSans-74" transform="translate(188.037109 0)"/>
      <use xlink:href="#DejaVuSans-20" transform="translate(227.246094 0)"/>
      <use xlink:href="#DejaVuSans-54" transform="translate(259.033203 0)"/>
      <use xlink:href="#DejaVuSans-79" transform="translate(304.492188 0)"/>
      <use xlink:href="#DejaVuSans-70" transform="translate(363.671875 0)"/>
      <use xlink:href="#DejaVuSans-65" transform="translate(427.148438 0)"/>
     </g>
    </g>
    <g id="patch_98">
     <path d="M 796.515625 58.156563 
L 816.515625 58.156563 
L 816.515625 51.156563 
L 796.515625 51.156563 
z
" style="fill: #ffc107"/>
    </g>
    <g id="text_22">
     <!-- FT -->
     <g transform="translate(824.515625 58.156563) scale(0.1 -0.1)">
      <defs>
       <path id="DejaVuSans-46" d="M 628 4666 
L 3309 4666 
L 3309 4134 
L 1259 4134 
L 1259 2759 
L 3109 2759 
L 3109 2228 
L 1259 2228 
L 1259 0 
L 628 0 
L 628 4666 
z
" transform="scale(0.015625)"/>
      </defs>
      <use xlink:href="#DejaVuSans-46"/>
      <use xlink:href="#DejaVuSans-54" transform="translate(55.769531 0)"/>
     </g>
    </g>
    <g id="patch_99">
     <path d="M 796.515625 72.834688 
L 816.515625 72.834688 
L 816.515625 65.834688 
L 796.515625 65.834688 
z
" style="fill: #2196f3"/>
    </g>
    <g id="text_23">
     <!-- 2PT -->
     <g transform="translate(824.515625 72.834688) scale(0.1 -0.1)">
      <use xlink:href="#DejaVuSans-32"/>
      <use xlink:href="#DejaVuSans-50" transform="translate(63.623047 0)"/>
      <use xlink:href="#DejaVuSans-54" transform="translate(123.925781 0)"/>
     </g>
    </g>
    <g id="patch_100">
     <path d="M 796.515625 87.512812 
L 816.515625 87.512812 
L 816.515625 80.512812 
L 796.515625 80.512812 
z
" style="fill: #4caf50"/>
    </g>
    <g id="text_24">
     <!-- 3PT -->
     <g transform="translate(824.515625 87.512812) scale(0.1 -0.1)">
      <use xlink:href="#DejaVuSans-33"/>
      <use xlink:href="#DejaVuSans-50" transform="translate(63.623047 0)"/>
      <use xlink:href="#DejaVuSans-54" transform="translate(123.925781 0)"/>
     </g>
    </g>
   </g>
  </g>
 </g>
 <defs>
  <clipPath id="p0d2095881c">
   <rect x="54.02" y="26.88" width="799.18" height="429.075539"/>
  </clipPath>
 </defs>
</svg>
