<?xml version="1.0" encoding="utf-8" standalone="no"?>
<!DOCTYPE svg PUBLIC "-//W3C//DTD SVG 1.1//EN"
  "http://www.w3.org/Graphics/SVG/1.1/DTD/svg11.dtd">
<svg xmlns:xlink="http://www.w3.org/1999/xlink" width="864pt" height="504pt" viewBox="0 0 864 504" xmlns="http://www.w3.org/2000/svg" version="1.1">
 <metadata>
  <rdf:RDF xmlns:dc="http://purl.org/dc/elements/1.1/" xmlns:cc="http://creativecommons.org/ns#" xmlns:rdf="http://www.w3.org/1999/02/22-rdf-syntax-ns#">
   <cc:Work>
    <dc:type rdf:resource="http://purl.org/dc/dcmitype/StillImage"/>
    <dc:date>2025-08-24T04:10:42.709333</dc:date>
    <dc:format>image/svg+xml</dc:format>
    <dc:creator>
     <cc:Agent>
      <dc:title>Matplotlib v3.10.5, https://matplotlib.org/</dc:title>
     </cc:Agent>
    </dc:creator>
   </cc:Work>
  </rdf:RDF>
 </metadata>
 <defs>
  <style type="text/css">*{stroke-linejoin: round; stroke-linecap: butt}</style>
 </defs>
 <g id="figure_1">
  <g id="patch_1">
   <path d="M 0 504 
L 864 504 
L 864 0 
L 0 0 
z
" style="fill: #ffffff"/>
  </g>
  <g id="axes_1">
   <g id="patch_2">
    <path d="M 44.57 455.955539 
L 853.2 455.955539 
L 853.2 26.88 
L 44.57 26.88 
z
" style="fill: #ffffff"/>
   </g>
   <g id="patch_3">
    <path d="M 48.435344 455.955539 
L 60.804446 455.955539 
L 60.804446 455.955539 
L 48.435344 455.955539 
z
" clip-path="url(#pa86021e279)" style="fill: #ffc107"/>
   </g>
   <g id="patch_4">
    <path d="M 63.896721 455.955539 
L 76.265822 455.955539 
L 76.265822 455.955539 
L 63.896721 455.955539 
z
" clip-path="url(#pa86021e279)" style="fill: #ffc107"/>
   </g>
   <g id="patch_5">
    <path d="M 79.358098 455.955539 
L 91.727199 455.955539 
L 91.727199 442.982734 
L 79.358098 442.982734 
z
" clip-path="url(#pa86021e279)" style="fill: #ffc107"/>
   </g>
   <g id="patch_6">
    <path d="M 94.819474 455.955539 
L 107.188576 455.955539 
L 107.188576 455.955539 
L 94.819474 455.955539 
z
" clip-path="url(#pa86021e279)" style="fill: #ffc107"/>
   </g>
   <g id="patch_7">
    <path d="M 110.280851 455.955539 
L 122.649952 455.955539 
L 122.649952 442.982734 
L 110.280851 442.982734 
z
" clip-path="url(#pa86021e279)" style="fill: #ffc107"/>
   </g>
   <g id="patch_8">
    <path d="M 125.742228 455.955539 
L 138.111329 455.955539 
L 138.111329 417.037123 
L 125.742228 417.037123 
z
" clip-path="url(#pa86021e279)" style="fill: #ffc107"/>
   </g>
   <g id="patch_9">
    <path d="M 141.203604 455.955539 
L 153.572706 455.955539 
L 153.572706 455.955539 
L 141.203604 455.955539 
z
" clip-path="url(#pa86021e279)" style="fill: #ffc107"/>
   </g>
   <g id="patch_10">
    <path d="M 156.664981 455.955539 
L 169.034082 455.955539 
L 169.034082 436.496331 
L 156.664981 436.496331 
z
" clip-path="url(#pa86021e279)" style="fill: #ffc107"/>
   </g>
   <g id="patch_11">
    <path d="M 172.126358 455.955539 
L 184.495459 455.955539 
L 184.495459 455.955539 
L 172.126358 455.955539 
z
" clip-path="url(#pa86021e279)" style="fill: #ffc107"/>
   </g>
   <g id="patch_12">
    <path d="M 187.587734 455.955539 
L 199.956836 455.955539 
L 199.956836 442.982734 
L 187.587734 442.982734 
z
" clip-path="url(#pa86021e279)" style="fill: #ffc107"/>
   </g>
   <g id="patch_13">
    <path d="M 203.049111 455.955539 
L 215.418212 455.955539 
L 215.418212 442.982734 
L 203.049111 442.982734 
z
" clip-path="url(#pa86021e279)" style="fill: #ffc107"/>
   </g>
   <g id="patch_14">
    <path d="M 218.510488 455.955539 
L 230.879589 455.955539 
L 230.879589 404.064317 
L 218.510488 404.064317 
z
" clip-path="url(#pa86021e279)" style="fill: #ffc107"/>
   </g>
   <g id="patch_15">
    <path d="M 233.971864 455.955539 
L 246.340966 455.955539 
L 246.340966 410.55072 
L 233.971864 410.55072 
z
" clip-path="url(#pa86021e279)" style="fill: #ffc107"/>
   </g>
   <g id="patch_16">
    <path d="M 249.433241 455.955539 
L 261.802342 455.955539 
L 261.802342 449.469136 
L 249.433241 449.469136 
z
" clip-path="url(#pa86021e279)" style="fill: #ffc107"/>
   </g>
   <g id="patch_17">
    <path d="M 264.894618 455.955539 
L 277.263719 455.955539 
L 277.263719 442.982734 
L 264.894618 442.982734 
z
" clip-path="url(#pa86021e279)" style="fill: #ffc107"/>
   </g>
   <g id="patch_18">
    <path d="M 280.355994 455.955539 
L 292.725096 455.955539 
L 292.725096 436.496331 
L 280.355994 436.496331 
z
" clip-path="url(#pa86021e279)" style="fill: #ffc107"/>
   </g>
   <g id="patch_19">
    <path d="M 295.817371 455.955539 
L 308.186472 455.955539 
L 308.186472 442.982734 
L 295.817371 442.982734 
z
" clip-path="url(#pa86021e279)" style="fill: #ffc107"/>
   </g>
   <g id="patch_20">
    <path d="M 311.278748 455.955539 
L 323.647849 455.955539 
L 323.647849 442.982734 
L 311.278748 442.982734 
z
" clip-path="url(#pa86021e279)" style="fill: #ffc107"/>
   </g>
   <g id="patch_21">
    <path d="M 326.740124 455.955539 
L 339.109226 455.955539 
L 339.109226 442.982734 
L 326.740124 442.982734 
z
" clip-path="url(#pa86021e279)" style="fill: #ffc107"/>
   </g>
   <g id="patch_22">
    <path d="M 342.201501 455.955539 
L 354.570602 455.955539 
L 354.570602 455.955539 
L 342.201501 455.955539 
z
" clip-path="url(#pa86021e279)" style="fill: #ffc107"/>
   </g>
   <g id="patch_23">
    <path d="M 357.662878 455.955539 
L 370.031979 455.955539 
L 370.031979 449.469136 
L 357.662878 449.469136 
z
" clip-path="url(#pa86021e279)" style="fill: #ffc107"/>
   </g>
   <g id="patch_24">
    <path d="M 373.124254 455.955539 
L 385.493356 455.955539 
L 385.493356 404.064317 
L 373.124254 404.064317 
z
" clip-path="url(#pa86021e279)" style="fill: #ffc107"/>
   </g>
   <g id="patch_25">
    <path d="M 388.585631 455.955539 
L 400.954732 455.955539 
L 400.954732 455.955539 
L 388.585631 455.955539 
z
" clip-path="url(#pa86021e279)" style="fill: #ffc107"/>
   </g>
   <g id="patch_26">
    <path d="M 404.047008 455.955539 
L 416.416109 455.955539 
L 416.416109 442.982734 
L 404.047008 442.982734 
z
" clip-path="url(#pa86021e279)" style="fill: #ffc107"/>
   </g>
   <g id="patch_27">
    <path d="M 419.508384 455.955539 
L 431.877486 455.955539 
L 431.877486 442.982734 
L 419.508384 442.982734 
z
" clip-path="url(#pa86021e279)" style="fill: #ffc107"/>
   </g>
   <g id="patch_28">
    <path d="M 434.969761 455.955539 
L 447.338862 455.955539 
L 447.338862 442.982734 
L 434.969761 442.982734 
z
" clip-path="url(#pa86021e279)" style="fill: #ffc107"/>
   </g>
   <g id="patch_29">
    <path d="M 450.431138 455.955539 
L 462.800239 455.955539 
L 462.800239 442.982734 
L 450.431138 442.982734 
z
" clip-path="url(#pa86021e279)" style="fill: #ffc107"/>
   </g>
   <g id="patch_30">
    <path d="M 465.892514 455.955539 
L 478.261616 455.955539 
L 478.261616 417.037123 
L 465.892514 417.037123 
z
" clip-path="url(#pa86021e279)" style="fill: #ffc107"/>
   </g>
   <g id="patch_31">
    <path d="M 481.353891 455.955539 
L 493.722992 455.955539 
L 493.722992 410.55072 
L 481.353891 410.55072 
z
" clip-path="url(#pa86021e279)" style="fill: #ffc107"/>
   </g>
   <g id="patch_32">
    <path d="M 496.815268 455.955539 
L 509.184369 455.955539 
L 509.184369 436.496331 
L 496.815268 436.496331 
z
" clip-path="url(#pa86021e279)" style="fill: #ffc107"/>
   </g>
   <g id="patch_33">
    <path d="M 512.276644 455.955539 
L 524.645746 455.955539 
L 524.645746 423.523525 
L 512.276644 423.523525 
z
" clip-path="url(#pa86021e279)" style="fill: #ffc107"/>
   </g>
   <g id="patch_34">
    <path d="M 527.738021 455.955539 
L 540.107122 455.955539 
L 540.107122 397.577915 
L 527.738021 397.577915 
z
" clip-path="url(#pa86021e279)" style="fill: #ffc107"/>
   </g>
   <g id="patch_35">
    <path d="M 543.199398 455.955539 
L 555.568499 455.955539 
L 555.568499 455.955539 
L 543.199398 455.955539 
z
" clip-path="url(#pa86021e279)" style="fill: #ffc107"/>
   </g>
   <g id="patch_36">
    <path d="M 558.660774 455.955539 
L 571.029876 455.955539 
L 571.029876 455.955539 
L 558.660774 455.955539 
z
" clip-path="url(#pa86021e279)" style="fill: #ffc107"/>
   </g>
   <g id="patch_37">
    <path d="M 574.122151 455.955539 
L 586.491252 455.955539 
L 586.491252 423.523525 
L 574.122151 423.523525 
z
" clip-path="url(#pa86021e279)" style="fill: #ffc107"/>
   </g>
   <g id="patch_38">
    <path d="M 589.583528 455.955539 
L 601.952629 455.955539 
L 601.952629 430.009928 
L 589.583528 430.009928 
z
" clip-path="url(#pa86021e279)" style="fill: #ffc107"/>
   </g>
   <g id="patch_39">
    <path d="M 605.044904 455.955539 
L 617.414006 455.955539 
L 617.414006 442.982734 
L 605.044904 442.982734 
z
" clip-path="url(#pa86021e279)" style="fill: #ffc107"/>
   </g>
   <g id="patch_40">
    <path d="M 620.506281 455.955539 
L 632.875382 455.955539 
L 632.875382 442.982734 
L 620.506281 442.982734 
z
" clip-path="url(#pa86021e279)" style="fill: #ffc107"/>
   </g>
   <g id="patch_41">
    <path d="M 635.967658 455.955539 
L 648.336759 455.955539 
L 648.336759 455.955539 
L 635.967658 455.955539 
z
" clip-path="url(#pa86021e279)" style="fill: #ffc107"/>
   </g>
   <g id="patch_42">
    <path d="M 651.429034 455.955539 
L 663.798136 455.955539 
L 663.798136 436.496331 
L 651.429034 436.496331 
z
" clip-path="url(#pa86021e279)" style="fill: #ffc107"/>
   </g>
   <g id="patch_43">
    <path d="M 666.890411 455.955539 
L 679.259512 455.955539 
L 679.259512 436.496331 
L 666.890411 436.496331 
z
" clip-path="url(#pa86021e279)" style="fill: #ffc107"/>
   </g>
   <g id="patch_44">
    <path d="M 682.351788 455.955539 
L 694.720889 455.955539 
L 694.720889 455.955539 
L 682.351788 455.955539 
z
" clip-path="url(#pa86021e279)" style="fill: #ffc107"/>
   </g>
   <g id="patch_45">
    <path d="M 697.813164 455.955539 
L 710.182266 455.955539 
L 710.182266 455.955539 
L 697.813164 455.955539 
z
" clip-path="url(#pa86021e279)" style="fill: #ffc107"/>
   </g>
   <g id="patch_46">
    <path d="M 713.274541 455.955539 
L 725.643642 455.955539 
L 725.643642 430.009928 
L 713.274541 430.009928 
z
" clip-path="url(#pa86021e279)" style="fill: #ffc107"/>
   </g>
   <g id="patch_47">
    <path d="M 728.735918 455.955539 
L 741.105019 455.955539 
L 741.105019 442.982734 
L 728.735918 442.982734 
z
" clip-path="url(#pa86021e279)" style="fill: #ffc107"/>
   </g>
   <g id="patch_48">
    <path d="M 744.197294 455.955539 
L 756.566396 455.955539 
L 756.566396 442.982734 
L 744.197294 442.982734 
z
" clip-path="url(#pa86021e279)" style="fill: #ffc107"/>
   </g>
   <g id="patch_49">
    <path d="M 759.658671 455.955539 
L 772.027772 455.955539 
L 772.027772 455.955539 
L 759.658671 455.955539 
z
" clip-path="url(#pa86021e279)" style="fill: #ffc107"/>
   </g>
   <g id="patch_50">
    <path d="M 775.120048 455.955539 
L 787.489149 455.955539 
L 787.489149 455.955539 
L 775.120048 455.955539 
z
" clip-path="url(#pa86021e279)" style="fill: #ffc107"/>
   </g>
   <g id="patch_51">
    <path d="M 790.581424 455.955539 
L 802.950526 455.955539 
L 802.950526 455.955539 
L 790.581424 455.955539 
z
" clip-path="url(#pa86021e279)" style="fill: #ffc107"/>
   </g>
   <g id="patch_52">
    <path d="M 806.042801 455.955539 
L 818.411902 455.955539 
L 818.411902 455.955539 
L 806.042801 455.955539 
z
" clip-path="url(#pa86021e279)" style="fill: #ffc107"/>
   </g>
   <g id="patch_53">
    <path d="M 821.504178 455.955539 
L 833.873279 455.955539 
L 833.873279 455.955539 
L 821.504178 455.955539 
z
" clip-path="url(#pa86021e279)" style="fill: #ffc107"/>
   </g>
   <g id="patch_54">
    <path d="M 836.965554 455.955539 
L 849.334656 455.955539 
L 849.334656 455.955539 
L 836.965554 455.955539 
z
" clip-path="url(#pa86021e279)" style="fill: #ffc107"/>
   </g>
   <g id="patch_55">
    <path d="M 48.435344 455.955539 
L 60.804446 455.955539 
L 60.804446 365.145901 
L 48.435344 365.145901 
z
" clip-path="url(#pa86021e279)" style="fill: #2196f3"/>
   </g>
   <g id="patch_56">
    <path d="M 63.896721 455.955539 
L 76.265822 455.955539 
L 76.265822 300.281874 
L 63.896721 300.281874 
z
" clip-path="url(#pa86021e279)" style="fill: #2196f3"/>
   </g>
   <g id="patch_57">
    <path d="M 79.358098 442.982734 
L 91.727199 442.982734 
L 91.727199 274.336263 
L 79.358098 274.336263 
z
" clip-path="url(#pa86021e279)" style="fill: #2196f3"/>
   </g>
   <g id="patch_58">
    <path d="M 94.819474 455.955539 
L 107.188576 455.955539 
L 107.188576 287.309069 
L 94.819474 287.309069 
z
" clip-path="url(#pa86021e279)" style="fill: #2196f3"/>
   </g>
   <g id="patch_59">
    <path d="M 110.280851 442.982734 
L 122.649952 442.982734 
L 122.649952 274.336263 
L 110.280851 274.336263 
z
" clip-path="url(#pa86021e279)" style="fill: #2196f3"/>
   </g>
   <g id="patch_60">
    <path d="M 125.742228 417.037123 
L 138.111329 417.037123 
L 138.111329 274.336263 
L 125.742228 274.336263 
z
" clip-path="url(#pa86021e279)" style="fill: #2196f3"/>
   </g>
   <g id="patch_61">
    <path d="M 141.203604 455.955539 
L 153.572706 455.955539 
L 153.572706 287.309069 
L 141.203604 287.309069 
z
" clip-path="url(#pa86021e279)" style="fill: #2196f3"/>
   </g>
   <g id="patch_62">
    <path d="M 156.664981 436.496331 
L 169.034082 436.496331 
L 169.034082 319.741082 
L 156.664981 319.741082 
z
" clip-path="url(#pa86021e279)" style="fill: #2196f3"/>
   </g>
   <g id="patch_63">
    <path d="M 172.126358 455.955539 
L 184.495459 455.955539 
L 184.495459 352.173096 
L 172.126358 352.173096 
z
" clip-path="url(#pa86021e279)" style="fill: #2196f3"/>
   </g>
   <g id="patch_64">
    <path d="M 187.587734 442.982734 
L 199.956836 442.982734 
L 199.956836 352.173096 
L 187.587734 352.173096 
z
" clip-path="url(#pa86021e279)" style="fill: #2196f3"/>
   </g>
   <g id="patch_65">
    <path d="M 203.049111 442.982734 
L 215.418212 442.982734 
L 215.418212 326.227485 
L 203.049111 326.227485 
z
" clip-path="url(#pa86021e279)" style="fill: #2196f3"/>
   </g>
   <g id="patch_66">
    <path d="M 218.510488 404.064317 
L 230.879589 404.064317 
L 230.879589 313.254679 
L 218.510488 313.254679 
z
" clip-path="url(#pa86021e279)" style="fill: #2196f3"/>
   </g>
   <g id="patch_67">
    <path d="M 233.971864 410.55072 
L 246.340966 410.55072 
L 246.340966 306.768277 
L 233.971864 306.768277 
z
" clip-path="url(#pa86021e279)" style="fill: #2196f3"/>
   </g>
   <g id="patch_68">
    <path d="M 249.433241 449.469136 
L 261.802342 449.469136 
L 261.802342 332.713888 
L 249.433241 332.713888 
z
" clip-path="url(#pa86021e279)" style="fill: #2196f3"/>
   </g>
   <g id="patch_69">
    <path d="M 264.894618 442.982734 
L 277.263719 442.982734 
L 277.263719 339.20029 
L 264.894618 339.20029 
z
" clip-path="url(#pa86021e279)" style="fill: #2196f3"/>
   </g>
   <g id="patch_70">
    <path d="M 280.355994 436.496331 
L 292.725096 436.496331 
L 292.725096 319.741082 
L 280.355994 319.741082 
z
" clip-path="url(#pa86021e279)" style="fill: #2196f3"/>
   </g>
   <g id="patch_71">
    <path d="M 295.817371 442.982734 
L 308.186472 442.982734 
L 308.186472 391.091512 
L 295.817371 391.091512 
z
" clip-path="url(#pa86021e279)" style="fill: #2196f3"/>
   </g>
   <g id="patch_72">
    <path d="M 311.278748 442.982734 
L 323.647849 442.982734 
L 323.647849 378.118707 
L 311.278748 378.118707 
z
" clip-path="url(#pa86021e279)" style="fill: #2196f3"/>
   </g>
   <g id="patch_73">
    <path d="M 326.740124 442.982734 
L 339.109226 442.982734 
L 339.109226 352.173096 
L 326.740124 352.173096 
z
" clip-path="url(#pa86021e279)" style="fill: #2196f3"/>
   </g>
   <g id="patch_74">
    <path d="M 342.201501 455.955539 
L 354.570602 455.955539 
L 354.570602 313.254679 
L 342.201501 313.254679 
z
" clip-path="url(#pa86021e279)" style="fill: #2196f3"/>
   </g>
   <g id="patch_75">
    <path d="M 357.662878 449.469136 
L 370.031979 449.469136 
L 370.031979 332.713888 
L 357.662878 332.713888 
z
" clip-path="url(#pa86021e279)" style="fill: #2196f3"/>
   </g>
   <g id="patch_76">
    <path d="M 373.124254 404.064317 
L 385.493356 404.064317 
L 385.493356 287.309069 
L 373.124254 287.309069 
z
" clip-path="url(#pa86021e279)" style="fill: #2196f3"/>
   </g>
   <g id="patch_77">
    <path d="M 388.585631 455.955539 
L 400.954732 455.955539 
L 400.954732 274.336263 
L 388.585631 274.336263 
z
" clip-path="url(#pa86021e279)" style="fill: #2196f3"/>
   </g>
   <g id="patch_78">
    <path d="M 404.047008 442.982734 
L 416.416109 442.982734 
L 416.416109 326.227485 
L 404.047008 326.227485 
z
" clip-path="url(#pa86021e279)" style="fill: #2196f3"/>
   </g>
   <g id="patch_79">
    <path d="M 419.508384 442.982734 
L 431.877486 442.982734 
L 431.877486 326.227485 
L 419.508384 326.227485 
z
" clip-path="url(#pa86021e279)" style="fill: #2196f3"/>
   </g>
   <g id="patch_80">
    <path d="M 434.969761 442.982734 
L 447.338862 442.982734 
L 447.338862 287.309069 
L 434.969761 287.309069 
z
" clip-path="url(#pa86021e279)" style="fill: #2196f3"/>
   </g>
   <g id="patch_81">
    <path d="M 450.431138 442.982734 
L 462.800239 442.982734 
L 462.800239 209.472236 
L 450.431138 209.472236 
z
" clip-path="url(#pa86021e279)" style="fill: #2196f3"/>
   </g>
   <g id="patch_82">
    <path d="M 465.892514 417.037123 
L 478.261616 417.037123 
L 478.261616 300.281874 
L 465.892514 300.281874 
z
" clip-path="url(#pa86021e279)" style="fill: #2196f3"/>
   </g>
   <g id="patch_83">
    <path d="M 481.353891 410.55072 
L 493.722992 410.55072 
L 493.722992 164.067417 
L 481.353891 164.067417 
z
" clip-path="url(#pa86021e279)" style="fill: #2196f3"/>
   </g>
   <g id="patch_84">
    <path d="M 496.815268 436.496331 
L 509.184369 436.496331 
L 509.184369 345.686693 
L 496.815268 345.686693 
z
" clip-path="url(#pa86021e279)" style="fill: #2196f3"/>
   </g>
   <g id="patch_85">
    <path d="M 512.276644 423.523525 
L 524.645746 423.523525 
L 524.645746 241.90425 
L 512.276644 241.90425 
z
" clip-path="url(#pa86021e279)" style="fill: #2196f3"/>
   </g>
   <g id="patch_86">
    <path d="M 527.738021 397.577915 
L 540.107122 397.577915 
L 540.107122 332.713888 
L 527.738021 332.713888 
z
" clip-path="url(#pa86021e279)" style="fill: #2196f3"/>
   </g>
   <g id="patch_87">
    <path d="M 543.199398 455.955539 
L 555.568499 455.955539 
L 555.568499 352.173096 
L 543.199398 352.173096 
z
" clip-path="url(#pa86021e279)" style="fill: #2196f3"/>
   </g>
   <g id="patch_88">
    <path d="M 558.660774 455.955539 
L 571.029876 455.955539 
L 571.029876 391.091512 
L 558.660774 391.091512 
z
" clip-path="url(#pa86021e279)" style="fill: #2196f3"/>
   </g>
   <g id="patch_89">
    <path d="M 574.122151 423.523525 
L 586.491252 423.523525 
L 586.491252 306.768277 
L 574.122151 306.768277 
z
" clip-path="url(#pa86021e279)" style="fill: #2196f3"/>
   </g>
   <g id="patch_90">
    <path d="M 589.583528 430.009928 
L 601.952629 430.009928 
L 601.952629 365.145901 
L 589.583528 365.145901 
z
" clip-path="url(#pa86021e279)" style="fill: #2196f3"/>
   </g>
   <g id="patch_91">
    <path d="M 605.044904 442.982734 
L 617.414006 442.982734 
L 617.414006 352.173096 
L 605.044904 352.173096 
z
" clip-path="url(#pa86021e279)" style="fill: #2196f3"/>
   </g>
   <g id="patch_92">
    <path d="M 620.506281 442.982734 
L 632.875382 442.982734 
L 632.875382 300.281874 
L 620.506281 300.281874 
z
" clip-path="url(#pa86021e279)" style="fill: #2196f3"/>
   </g>
   <g id="patch_93">
    <path d="M 635.967658 455.955539 
L 648.336759 455.955539 
L 648.336759 365.145901 
L 635.967658 365.145901 
z
" clip-path="url(#pa86021e279)" style="fill: #2196f3"/>
   </g>
   <g id="patch_94">
    <path d="M 651.429034 436.496331 
L 663.798136 436.496331 
L 663.798136 371.632304 
L 651.429034 371.632304 
z
" clip-path="url(#pa86021e279)" style="fill: #2196f3"/>
   </g>
   <g id="patch_95">
    <path d="M 666.890411 436.496331 
L 679.259512 436.496331 
L 679.259512 371.632304 
L 666.890411 371.632304 
z
" clip-path="url(#pa86021e279)" style="fill: #2196f3"/>
   </g>
   <g id="patch_96">
    <path d="M 682.351788 455.955539 
L 694.720889 455.955539 
L 694.720889 365.145901 
L 682.351788 365.145901 
z
" clip-path="url(#pa86021e279)" style="fill: #2196f3"/>
   </g>
   <g id="patch_97">
    <path d="M 697.813164 455.955539 
L 710.182266 455.955539 
L 710.182266 404.064317 
L 697.813164 404.064317 
z
" clip-path="url(#pa86021e279)" style="fill: #2196f3"/>
   </g>
   <g id="patch_98">
    <path d="M 713.274541 430.009928 
L 725.643642 430.009928 
L 725.643642 365.145901 
L 713.274541 365.145901 
z
" clip-path="url(#pa86021e279)" style="fill: #2196f3"/>
   </g>
   <g id="patch_99">
    <path d="M 728.735918 442.982734 
L 741.105019 442.982734 
L 741.105019 287.309069 
L 728.735918 287.309069 
z
" clip-path="url(#pa86021e279)" style="fill: #2196f3"/>
   </g>
   <g id="patch_100">
    <path d="M 744.197294 442.982734 
L 756.566396 442.982734 
L 756.566396 404.064317 
L 744.197294 404.064317 
z
" clip-path="url(#pa86021e279)" style="fill: #2196f3"/>
   </g>
   <g id="patch_101">
    <path d="M 759.658671 455.955539 
L 772.027772 455.955539 
L 772.027772 339.20029 
L 759.658671 339.20029 
z
" clip-path="url(#pa86021e279)" style="fill: #2196f3"/>
   </g>
   <g id="patch_102">
    <path d="M 775.120048 455.955539 
L 787.489149 455.955539 
L 787.489149 378.118707 
L 775.120048 378.118707 
z
" clip-path="url(#pa86021e279)" style="fill: #2196f3"/>
   </g>
   <g id="patch_103">
    <path d="M 790.581424 455.955539 
L 802.950526 455.955539 
L 802.950526 442.982734 
L 790.581424 442.982734 
z
" clip-path="url(#pa86021e279)" style="fill: #2196f3"/>
   </g>
   <g id="patch_104">
    <path d="M 806.042801 455.955539 
L 818.411902 455.955539 
L 818.411902 442.982734 
L 806.042801 442.982734 
z
" clip-path="url(#pa86021e279)" style="fill: #2196f3"/>
   </g>
   <g id="patch_105">
    <path d="M 821.504178 455.955539 
L 833.873279 455.955539 
L 833.873279 442.982734 
L 821.504178 442.982734 
z
" clip-path="url(#pa86021e279)" style="fill: #2196f3"/>
   </g>
   <g id="patch_106">
    <path d="M 836.965554 455.955539 
L 849.334656 455.955539 
L 849.334656 455.955539 
L 836.965554 455.955539 
z
" clip-path="url(#pa86021e279)" style="fill: #2196f3"/>
   </g>
   <g id="patch_107">
    <path d="M 48.435344 365.145901 
L 60.804446 365.145901 
L 60.804446 306.768277 
L 48.435344 306.768277 
z
" clip-path="url(#pa86021e279)" style="fill: #4caf50"/>
   </g>
   <g id="patch_108">
    <path d="M 63.896721 300.281874 
L 76.265822 300.281874 
L 76.265822 222.445042 
L 63.896721 222.445042 
z
" clip-path="url(#pa86021e279)" style="fill: #4caf50"/>
   </g>
   <g id="patch_109">
    <path d="M 79.358098 274.336263 
L 91.727199 274.336263 
L 91.727199 157.581015 
L 79.358098 157.581015 
z
" clip-path="url(#pa86021e279)" style="fill: #4caf50"/>
   </g>
   <g id="patch_110">
    <path d="M 94.819474 287.309069 
L 107.188576 287.309069 
L 107.188576 131.635404 
L 94.819474 131.635404 
z
" clip-path="url(#pa86021e279)" style="fill: #4caf50"/>
   </g>
   <g id="patch_111">
    <path d="M 110.280851 274.336263 
L 122.649952 274.336263 
L 122.649952 235.417847 
L 110.280851 235.417847 
z
" clip-path="url(#pa86021e279)" style="fill: #4caf50"/>
   </g>
   <g id="patch_112">
    <path d="M 125.742228 274.336263 
L 138.111329 274.336263 
L 138.111329 235.417847 
L 125.742228 235.417847 
z
" clip-path="url(#pa86021e279)" style="fill: #4caf50"/>
   </g>
   <g id="patch_113">
    <path d="M 141.203604 287.309069 
L 153.572706 287.309069 
L 153.572706 248.390652 
L 141.203604 248.390652 
z
" clip-path="url(#pa86021e279)" style="fill: #4caf50"/>
   </g>
   <g id="patch_114">
    <path d="M 156.664981 455.955539 
L 169.034082 455.955539 
L 169.034082 455.955539 
L 156.664981 455.955539 
z
" clip-path="url(#pa86021e279)" style="fill: #4caf50"/>
   </g>
   <g id="patch_115">
    <path d="M 172.126358 352.173096 
L 184.495459 352.173096 
L 184.495459 274.336263 
L 172.126358 274.336263 
z
" clip-path="url(#pa86021e279)" style="fill: #4caf50"/>
   </g>
   <g id="patch_116">
    <path d="M 187.587734 352.173096 
L 199.956836 352.173096 
L 199.956836 332.713888 
L 187.587734 332.713888 
z
" clip-path="url(#pa86021e279)" style="fill: #4caf50"/>
   </g>
   <g id="patch_117">
    <path d="M 203.049111 326.227485 
L 215.418212 326.227485 
L 215.418212 287.309069 
L 203.049111 287.309069 
z
" clip-path="url(#pa86021e279)" style="fill: #4caf50"/>
   </g>
   <g id="patch_118">
    <path d="M 218.510488 313.254679 
L 230.879589 313.254679 
L 230.879589 235.417847 
L 218.510488 235.417847 
z
" clip-path="url(#pa86021e279)" style="fill: #4caf50"/>
   </g>
   <g id="patch_119">
    <path d="M 233.971864 306.768277 
L 246.340966 306.768277 
L 246.340966 267.849861 
L 233.971864 267.849861 
z
" clip-path="url(#pa86021e279)" style="fill: #4caf50"/>
   </g>
   <g id="patch_120">
    <path d="M 249.433241 332.713888 
L 261.802342 332.713888 
L 261.802342 293.795471 
L 249.433241 293.795471 
z
" clip-path="url(#pa86021e279)" style="fill: #4caf50"/>
   </g>
   <g id="patch_121">
    <path d="M 264.894618 339.20029 
L 277.263719 339.20029 
L 277.263719 300.281874 
L 264.894618 300.281874 
z
" clip-path="url(#pa86021e279)" style="fill: #4caf50"/>
   </g>
   <g id="patch_122">
    <path d="M 280.355994 319.741082 
L 292.725096 319.741082 
L 292.725096 241.90425 
L 280.355994 241.90425 
z
" clip-path="url(#pa86021e279)" style="fill: #4caf50"/>
   </g>
   <g id="patch_123">
    <path d="M 295.817371 391.091512 
L 308.186472 391.091512 
L 308.186472 293.795471 
L 295.817371 293.795471 
z
" clip-path="url(#pa86021e279)" style="fill: #4caf50"/>
   </g>
   <g id="patch_124">
    <path d="M 311.278748 378.118707 
L 323.647849 378.118707 
L 323.647849 319.741082 
L 311.278748 319.741082 
z
" clip-path="url(#pa86021e279)" style="fill: #4caf50"/>
   </g>
   <g id="patch_125">
    <path d="M 326.740124 352.173096 
L 339.109226 352.173096 
L 339.109226 332.713888 
L 326.740124 332.713888 
z
" clip-path="url(#pa86021e279)" style="fill: #4caf50"/>
   </g>
   <g id="patch_126">
    <path d="M 342.201501 313.254679 
L 354.570602 313.254679 
L 354.570602 196.499431 
L 342.201501 196.499431 
z
" clip-path="url(#pa86021e279)" style="fill: #4caf50"/>
   </g>
   <g id="patch_127">
    <path d="M 357.662878 332.713888 
L 370.031979 332.713888 
L 370.031979 196.499431 
L 357.662878 196.499431 
z
" clip-path="url(#pa86021e279)" style="fill: #4caf50"/>
   </g>
   <g id="patch_128">
    <path d="M 373.124254 287.309069 
L 385.493356 287.309069 
L 385.493356 267.849861 
L 373.124254 267.849861 
z
" clip-path="url(#pa86021e279)" style="fill: #4caf50"/>
   </g>
   <g id="patch_129">
    <path d="M 388.585631 274.336263 
L 400.954732 274.336263 
L 400.954732 254.877055 
L 388.585631 254.877055 
z
" clip-path="url(#pa86021e279)" style="fill: #4caf50"/>
   </g>
   <g id="patch_130">
    <path d="M 404.047008 326.227485 
L 416.416109 326.227485 
L 416.416109 267.849861 
L 404.047008 267.849861 
z
" clip-path="url(#pa86021e279)" style="fill: #4caf50"/>
   </g>
   <g id="patch_131">
    <path d="M 419.508384 326.227485 
L 431.877486 326.227485 
L 431.877486 306.768277 
L 419.508384 306.768277 
z
" clip-path="url(#pa86021e279)" style="fill: #4caf50"/>
   </g>
   <g id="patch_132">
    <path d="M 434.969761 287.309069 
L 447.338862 287.309069 
L 447.338862 267.849861 
L 434.969761 267.849861 
z
" clip-path="url(#pa86021e279)" style="fill: #4caf50"/>
   </g>
   <g id="patch_133">
    <path d="M 450.431138 209.472236 
L 462.800239 209.472236 
L 462.800239 131.635404 
L 450.431138 131.635404 
z
" clip-path="url(#pa86021e279)" style="fill: #4caf50"/>
   </g>
   <g id="patch_134">
    <path d="M 465.892514 300.281874 
L 478.261616 300.281874 
L 478.261616 222.445042 
L 465.892514 222.445042 
z
" clip-path="url(#pa86021e279)" style="fill: #4caf50"/>
   </g>
   <g id="patch_135">
    <path d="M 481.353891 164.067417 
L 493.722992 164.067417 
L 493.722992 47.312169 
L 481.353891 47.312169 
z
" clip-path="url(#pa86021e279)" style="fill: #4caf50"/>
   </g>
   <g id="patch_136">
    <path d="M 496.815268 345.686693 
L 509.184369 345.686693 
L 509.184369 267.849861 
L 496.815268 267.849861 
z
" clip-path="url(#pa86021e279)" style="fill: #4caf50"/>
   </g>
   <g id="patch_137">
    <path d="M 512.276644 241.90425 
L 524.645746 241.90425 
L 524.645746 164.067417 
L 512.276644 164.067417 
z
" clip-path="url(#pa86021e279)" style="fill: #4caf50"/>
   </g>
   <g id="patch_138">
    <path d="M 527.738021 332.713888 
L 540.107122 332.713888 
L 540.107122 254.877055 
L 527.738021 254.877055 
z
" clip-path="url(#pa86021e279)" style="fill: #4caf50"/>
   </g>
   <g id="patch_139">
    <path d="M 543.199398 352.173096 
L 555.568499 352.173096 
L 555.568499 274.336263 
L 543.199398 274.336263 
z
" clip-path="url(#pa86021e279)" style="fill: #4caf50"/>
   </g>
   <g id="patch_140">
    <path d="M 558.660774 391.091512 
L 571.029876 391.091512 
L 571.029876 215.958639 
L 558.660774 215.958639 
z
" clip-path="url(#pa86021e279)" style="fill: #4caf50"/>
   </g>
   <g id="patch_141">
    <path d="M 574.122151 306.768277 
L 586.491252 306.768277 
L 586.491252 190.013028 
L 574.122151 190.013028 
z
" clip-path="url(#pa86021e279)" style="fill: #4caf50"/>
   </g>
   <g id="patch_142">
    <path d="M 589.583528 365.145901 
L 601.952629 365.145901 
L 601.952629 306.768277 
L 589.583528 306.768277 
z
" clip-path="url(#pa86021e279)" style="fill: #4caf50"/>
   </g>
   <g id="patch_143">
    <path d="M 605.044904 352.173096 
L 617.414006 352.173096 
L 617.414006 313.254679 
L 605.044904 313.254679 
z
" clip-path="url(#pa86021e279)" style="fill: #4caf50"/>
   </g>
   <g id="patch_144">
    <path d="M 620.506281 300.281874 
L 632.875382 300.281874 
L 632.875382 222.445042 
L 620.506281 222.445042 
z
" clip-path="url(#pa86021e279)" style="fill: #4caf50"/>
   </g>
   <g id="patch_145">
    <path d="M 635.967658 365.145901 
L 648.336759 365.145901 
L 648.336759 287.309069 
L 635.967658 287.309069 
z
" clip-path="url(#pa86021e279)" style="fill: #4caf50"/>
   </g>
   <g id="patch_146">
    <path d="M 651.429034 371.632304 
L 663.798136 371.632304 
L 663.798136 332.713888 
L 651.429034 332.713888 
z
" clip-path="url(#pa86021e279)" style="fill: #4caf50"/>
   </g>
   <g id="patch_147">
    <path d="M 666.890411 371.632304 
L 679.259512 371.632304 
L 679.259512 235.417847 
L 666.890411 235.417847 
z
" clip-path="url(#pa86021e279)" style="fill: #4caf50"/>
   </g>
   <g id="patch_148">
    <path d="M 682.351788 365.145901 
L 694.720889 365.145901 
L 694.720889 306.768277 
L 682.351788 306.768277 
z
" clip-path="url(#pa86021e279)" style="fill: #4caf50"/>
   </g>
   <g id="patch_149">
    <path d="M 697.813164 404.064317 
L 710.182266 404.064317 
L 710.182266 384.605109 
L 697.813164 384.605109 
z
" clip-path="url(#pa86021e279)" style="fill: #4caf50"/>
   </g>
   <g id="patch_150">
    <path d="M 713.274541 365.145901 
L 725.643642 365.145901 
L 725.643642 345.686693 
L 713.274541 345.686693 
z
" clip-path="url(#pa86021e279)" style="fill: #4caf50"/>
   </g>
   <g id="patch_151">
    <path d="M 728.735918 287.309069 
L 741.105019 287.309069 
L 741.105019 228.931444 
L 728.735918 228.931444 
z
" clip-path="url(#pa86021e279)" style="fill: #4caf50"/>
   </g>
   <g id="patch_152">
    <path d="M 744.197294 404.064317 
L 756.566396 404.064317 
L 756.566396 345.686693 
L 744.197294 345.686693 
z
" clip-path="url(#pa86021e279)" style="fill: #4caf50"/>
   </g>
   <g id="patch_153">
    <path d="M 759.658671 339.20029 
L 772.027772 339.20029 
L 772.027772 222.445042 
L 759.658671 222.445042 
z
" clip-path="url(#pa86021e279)" style="fill: #4caf50"/>
   </g>
   <g id="patch_154">
    <path d="M 775.120048 378.118707 
L 787.489149 378.118707 
L 787.489149 339.20029 
L 775.120048 339.20029 
z
" clip-path="url(#pa86021e279)" style="fill: #4caf50"/>
   </g>
   <g id="patch_155">
    <path d="M 790.581424 455.955539 
L 802.950526 455.955539 
L 802.950526 455.955539 
L 790.581424 455.955539 
z
" clip-path="url(#pa86021e279)" style="fill: #4caf50"/>
   </g>
   <g id="patch_156">
    <path d="M 806.042801 455.955539 
L 818.411902 455.955539 
L 818.411902 455.955539 
L 806.042801 455.955539 
z
" clip-path="url(#pa86021e279)" style="fill: #4caf50"/>
   </g>
   <g id="patch_157">
    <path d="M 821.504178 455.955539 
L 833.873279 455.955539 
L 833.873279 455.955539 
L 821.504178 455.955539 
z
" clip-path="url(#pa86021e279)" style="fill: #4caf50"/>
   </g>
   <g id="patch_158">
    <path d="M 836.965554 455.955539 
L 849.334656 455.955539 
L 849.334656 436.496331 
L 836.965554 436.496331 
z
" clip-path="url(#pa86021e279)" style="fill: #4caf50"/>
   </g>
   <g id="matplotlib.axis_1">
    <g id="xtick_1">
     <g id="line2d_1">
      <defs>
       <path id="m0882c7689c" d="M 0 0 
L 0 3.5 
" style="stroke: #000000; stroke-width: 0.8"/>
      </defs>
      <g>
       <use xlink:href="#m0882c7689c" x="54.619895" y="455.955539" style="stroke: #000000; stroke-width: 0.8"/>
      </g>
     </g>
     <g id="text_1">
      <!-- 0 -->
      <g transform="translate(54.321584 472.827413) rotate(-45) scale(0.1 -0.1)">
       <defs>
        <path id="DejaVuSans-30" d="M 2034 4250 
Q 1547 4250 1301 3770 
Q 1056 3291 1056 2328 
Q 1056 1369 1301 889 
Q 1547 409 2034 409 
Q 2525 409 2770 889 
Q 3016 1369 3016 2328 
Q 3016 3291 2770 3770 
Q 2525 4250 2034 4250 
z
M 2034 4750 
Q 2819 4750 3233 4129 
Q 3647 3509 3647 2328 
Q 3647 1150 3233 529 
Q 2819 -91 2034 -91 
Q 1250 -91 836 529 
Q 422 1150 422 2328 
Q 422 3509 836 4129 
Q 1250 4750 2034 4750 
z
" transform="scale(0.015625)"/>
       </defs>
       <use xlink:href="#DejaVuSans-30"/>
      </g>
     </g>
    </g>
    <g id="xtick_2">
     <g id="line2d_2">
      <g>
       <use xlink:href="#m0882c7689c" x="70.081272" y="455.955539" style="stroke: #000000; stroke-width: 0.8"/>
      </g>
     </g>
    </g>
    <g id="xtick_3">
     <g id="line2d_3">
      <g>
       <use xlink:href="#m0882c7689c" x="85.542648" y="455.955539" style="stroke: #000000; stroke-width: 0.8"/>
      </g>
     </g>
    </g>
    <g id="xtick_4">
     <g id="line2d_4">
      <g>
       <use xlink:href="#m0882c7689c" x="101.004025" y="455.955539" style="stroke: #000000; stroke-width: 0.8"/>
      </g>
     </g>
    </g>
    <g id="xtick_5">
     <g id="line2d_5">
      <g>
       <use xlink:href="#m0882c7689c" x="116.465402" y="455.955539" style="stroke: #000000; stroke-width: 0.8"/>
      </g>
     </g>
    </g>
    <g id="xtick_6">
     <g id="line2d_6">
      <g>
       <use xlink:href="#m0882c7689c" x="131.926778" y="455.955539" style="stroke: #000000; stroke-width: 0.8"/>
      </g>
     </g>
     <g id="text_2">
      <!-- 5 -->
      <g transform="translate(131.628468 472.827413) rotate(-45) scale(0.1 -0.1)">
       <defs>
        <path id="DejaVuSans-35" d="M 691 4666 
L 3169 4666 
L 3169 4134 
L 1269 4134 
L 1269 2991 
Q 1406 3038 1543 3061 
Q 1681 3084 1819 3084 
Q 2600 3084 3056 2656 
Q 3513 2228 3513 1497 
Q 3513 744 3044 326 
Q 2575 -91 1722 -91 
Q 1428 -91 1123 -41 
Q 819 9 494 109 
L 494 744 
Q 775 591 1075 516 
Q 1375 441 1709 441 
Q 2250 441 2565 725 
Q 2881 1009 2881 1497 
Q 2881 1984 2565 2268 
Q 2250 2553 1709 2553 
Q 1456 2553 1204 2497 
Q 953 2441 691 2322 
L 691 4666 
z
" transform="scale(0.015625)"/>
       </defs>
       <use xlink:href="#DejaVuSans-35"/>
      </g>
     </g>
    </g>
    <g id="xtick_7">
     <g id="line2d_7">
      <g>
       <use xlink:href="#m0882c7689c" x="147.388155" y="455.955539" style="stroke: #000000; stroke-width: 0.8"/>
      </g>
     </g>
    </g>
    <g id="xtick_8">
     <g id="line2d_8">
      <g>
       <use xlink:href="#m0882c7689c" x="162.849532" y="455.955539" style="stroke: #000000; stroke-width: 0.8"/>
      </g>
     </g>
    </g>
    <g id="xtick_9">
     <g id="line2d_9">
      <g>
       <use xlink:href="#m0882c7689c" x="178.310908" y="455.955539" style="stroke: #000000; stroke-width: 0.8"/>
      </g>
     </g>
    </g>
    <g id="xtick_10">
     <g id="line2d_10">
      <g>
       <use xlink:href="#m0882c7689c" x="193.772285" y="455.955539" style="stroke: #000000; stroke-width: 0.8"/>
      </g>
     </g>
    </g>
    <g id="xtick_11">
     <g id="line2d_11">
      <g>
       <use xlink:href="#m0882c7689c" x="209.233662" y="455.955539" style="stroke: #000000; stroke-width: 0.8"/>
      </g>
     </g>
     <g id="text_3">
      <!-- 10 -->
      <g transform="translate(206.685867 477.326379) rotate(-45) scale(0.1 -0.1)">
       <defs>
        <path id="DejaVuSans-31" d="M 794 531 
L 1825 531 
L 1825 4091 
L 703 3866 
L 703 4441 
L 1819 4666 
L 2450 4666 
L 2450 531 
L 3481 531 
L 3481 0 
L 794 0 
L 794 531 
z
" transform="scale(0.015625)"/>
       </defs>
       <use xlink:href="#DejaVuSans-31"/>
       <use xlink:href="#DejaVuSans-30" transform="translate(63.623047 0)"/>
      </g>
     </g>
    </g>
    <g id="xtick_12">
     <g id="line2d_12">
      <g>
       <use xlink:href="#m0882c7689c" x="224.695038" y="455.955539" style="stroke: #000000; stroke-width: 0.8"/>
      </g>
     </g>
     <g id="text_4">
      <!-- 11 -->
      <g transform="translate(222.147244 477.326379) rotate(-45) scale(0.1 -0.1)">
       <use xlink:href="#DejaVuSans-31"/>
       <use xlink:href="#DejaVuSans-31" transform="translate(63.623047 0)"/>
      </g>
     </g>
    </g>
    <g id="xtick_13">
     <g id="line2d_13">
      <g>
       <use xlink:href="#m0882c7689c" x="240.156415" y="455.955539" style="stroke: #000000; stroke-width: 0.8"/>
      </g>
     </g>
    </g>
    <g id="xtick_14">
     <g id="line2d_14">
      <g>
       <use xlink:href="#m0882c7689c" x="255.617792" y="455.955539" style="stroke: #000000; stroke-width: 0.8"/>
      </g>
     </g>
    </g>
    <g id="xtick_15">
     <g id="line2d_15">
      <g>
       <use xlink:href="#m0882c7689c" x="271.079168" y="455.955539" style="stroke: #000000; stroke-width: 0.8"/>
      </g>
     </g>
    </g>
    <g id="xtick_16">
     <g id="line2d_16">
      <g>
       <use xlink:href="#m0882c7689c" x="286.540545" y="455.955539" style="stroke: #000000; stroke-width: 0.8"/>
      </g>
     </g>
     <g id="text_5">
      <!-- 15 -->
      <g transform="translate(283.992751 477.326379) rotate(-45) scale(0.1 -0.1)">
       <use xlink:href="#DejaVuSans-31"/>
       <use xlink:href="#DejaVuSans-35" transform="translate(63.623047 0)"/>
      </g>
     </g>
    </g>
    <g id="xtick_17">
     <g id="line2d_17">
      <g>
       <use xlink:href="#m0882c7689c" x="302.001922" y="455.955539" style="stroke: #000000; stroke-width: 0.8"/>
      </g>
     </g>
    </g>
    <g id="xtick_18">
     <g id="line2d_18">
      <g>
       <use xlink:href="#m0882c7689c" x="317.463298" y="455.955539" style="stroke: #000000; stroke-width: 0.8"/>
      </g>
     </g>
    </g>
    <g id="xtick_19">
     <g id="line2d_19">
      <g>
       <use xlink:href="#m0882c7689c" x="332.924675" y="455.955539" style="stroke: #000000; stroke-width: 0.8"/>
      </g>
     </g>
    </g>
    <g id="xtick_20">
     <g id="line2d_20">
      <g>
       <use xlink:href="#m0882c7689c" x="348.386052" y="455.955539" style="stroke: #000000; stroke-width: 0.8"/>
      </g>
     </g>
    </g>
    <g id="xtick_21">
     <g id="line2d_21">
      <g>
       <use xlink:href="#m0882c7689c" x="363.847428" y="455.955539" style="stroke: #000000; stroke-width: 0.8"/>
      </g>
     </g>
     <g id="text_6">
      <!-- 20 -->
      <g transform="translate(361.299634 477.326379) rotate(-45) scale(0.1 -0.1)">
       <defs>
        <path id="DejaVuSans-32" d="M 1228 531 
L 3431 531 
L 3431 0 
L 469 0 
L 469 531 
Q 828 903 1448 1529 
Q 2069 2156 2228 2338 
Q 2531 2678 2651 2914 
Q 2772 3150 2772 3378 
Q 2772 3750 2511 3984 
Q 2250 4219 1831 4219 
Q 1534 4219 1204 4116 
Q 875 4013 500 3803 
L 500 4441 
Q 881 4594 1212 4672 
Q 1544 4750 1819 4750 
Q 2544 4750 2975 4387 
Q 3406 4025 3406 3419 
Q 3406 3131 3298 2873 
Q 3191 2616 2906 2266 
Q 2828 2175 2409 1742 
Q 1991 1309 1228 531 
z
" transform="scale(0.015625)"/>
       </defs>
       <use xlink:href="#DejaVuSans-32"/>
       <use xlink:href="#DejaVuSans-30" transform="translate(63.623047 0)"/>
      </g>
     </g>
    </g>
    <g id="xtick_22">
     <g id="line2d_22">
      <g>
       <use xlink:href="#m0882c7689c" x="379.308805" y="455.955539" style="stroke: #000000; stroke-width: 0.8"/>
      </g>
     </g>
    </g>
    <g id="xtick_23">
     <g id="line2d_23">
      <g>
       <use xlink:href="#m0882c7689c" x="394.770182" y="455.955539" style="stroke: #000000; stroke-width: 0.8"/>
      </g>
     </g>
    </g>
    <g id="xtick_24">
     <g id="line2d_24">
      <g>
       <use xlink:href="#m0882c7689c" x="410.231558" y="455.955539" style="stroke: #000000; stroke-width: 0.8"/>
      </g>
     </g>
     <g id="text_7">
      <!-- 23 -->
      <g transform="translate(407.683764 477.326379) rotate(-45) scale(0.1 -0.1)">
       <defs>
        <path id="DejaVuSans-33" d="M 2597 2516 
Q 3050 2419 3304 2112 
Q 3559 1806 3559 1356 
Q 3559 666 3084 287 
Q 2609 -91 1734 -91 
Q 1441 -91 1130 -33 
Q 819 25 488 141 
L 488 750 
Q 750 597 1062 519 
Q 1375 441 1716 441 
Q 2309 441 2620 675 
Q 2931 909 2931 1356 
Q 2931 1769 2642 2001 
Q 2353 2234 1838 2234 
L 1294 2234 
L 1294 2753 
L 1863 2753 
Q 2328 2753 2575 2939 
Q 2822 3125 2822 3475 
Q 2822 3834 2567 4026 
Q 2313 4219 1838 4219 
Q 1578 4219 1281 4162 
Q 984 4106 628 3988 
L 628 4550 
Q 988 4650 1302 4700 
Q 1616 4750 1894 4750 
Q 2613 4750 3031 4423 
Q 3450 4097 3450 3541 
Q 3450 3153 3228 2886 
Q 3006 2619 2597 2516 
z
" transform="scale(0.015625)"/>
       </defs>
       <use xlink:href="#DejaVuSans-32"/>
       <use xlink:href="#DejaVuSans-33" transform="translate(63.623047 0)"/>
      </g>
     </g>
    </g>
    <g id="xtick_25">
     <g id="line2d_25">
      <g>
       <use xlink:href="#m0882c7689c" x="425.692935" y="455.955539" style="stroke: #000000; stroke-width: 0.8"/>
      </g>
     </g>
    </g>
    <g id="xtick_26">
     <g id="line2d_26">
      <g>
       <use xlink:href="#m0882c7689c" x="441.154312" y="455.955539" style="stroke: #000000; stroke-width: 0.8"/>
      </g>
     </g>
     <g id="text_8">
      <!-- 25 -->
      <g transform="translate(438.606518 477.326379) rotate(-45) scale(0.1 -0.1)">
       <use xlink:href="#DejaVuSans-32"/>
       <use xlink:href="#DejaVuSans-35" transform="translate(63.623047 0)"/>
      </g>
     </g>
    </g>
    <g id="xtick_27">
     <g id="line2d_27">
      <g>
       <use xlink:href="#m0882c7689c" x="456.615688" y="455.955539" style="stroke: #000000; stroke-width: 0.8"/>
      </g>
     </g>
    </g>
    <g id="xtick_28">
     <g id="line2d_28">
      <g>
       <use xlink:href="#m0882c7689c" x="472.077065" y="455.955539" style="stroke: #000000; stroke-width: 0.8"/>
      </g>
     </g>
    </g>
    <g id="xtick_29">
     <g id="line2d_29">
      <g>
       <use xlink:href="#m0882c7689c" x="487.538442" y="455.955539" style="stroke: #000000; stroke-width: 0.8"/>
      </g>
     </g>
    </g>
    <g id="xtick_30">
     <g id="line2d_30">
      <g>
       <use xlink:href="#m0882c7689c" x="502.999818" y="455.955539" style="stroke: #000000; stroke-width: 0.8"/>
      </g>
     </g>
    </g>
    <g id="xtick_31">
     <g id="line2d_31">
      <g>
       <use xlink:href="#m0882c7689c" x="518.461195" y="455.955539" style="stroke: #000000; stroke-width: 0.8"/>
      </g>
     </g>
     <g id="text_9">
      <!-- 30 -->
      <g transform="translate(515.913401 477.326379) rotate(-45) scale(0.1 -0.1)">
       <use xlink:href="#DejaVuSans-33"/>
       <use xlink:href="#DejaVuSans-30" transform="translate(63.623047 0)"/>
      </g>
     </g>
    </g>
    <g id="xtick_32">
     <g id="line2d_32">
      <g>
       <use xlink:href="#m0882c7689c" x="533.922572" y="455.955539" style="stroke: #000000; stroke-width: 0.8"/>
      </g>
     </g>
    </g>
    <g id="xtick_33">
     <g id="line2d_33">
      <g>
       <use xlink:href="#m0882c7689c" x="549.383948" y="455.955539" style="stroke: #000000; stroke-width: 0.8"/>
      </g>
     </g>
    </g>
    <g id="xtick_34">
     <g id="line2d_34">
      <g>
       <use xlink:href="#m0882c7689c" x="564.845325" y="455.955539" style="stroke: #000000; stroke-width: 0.8"/>
      </g>
     </g>
    </g>
    <g id="xtick_35">
     <g id="line2d_35">
      <g>
       <use xlink:href="#m0882c7689c" x="580.306702" y="455.955539" style="stroke: #000000; stroke-width: 0.8"/>
      </g>
     </g>
    </g>
    <g id="xtick_36">
     <g id="line2d_36">
      <g>
       <use xlink:href="#m0882c7689c" x="595.768078" y="455.955539" style="stroke: #000000; stroke-width: 0.8"/>
      </g>
     </g>
     <g id="text_10">
      <!-- 35 -->
      <g transform="translate(593.220284 477.326379) rotate(-45) scale(0.1 -0.1)">
       <use xlink:href="#DejaVuSans-33"/>
       <use xlink:href="#DejaVuSans-35" transform="translate(63.623047 0)"/>
      </g>
     </g>
    </g>
    <g id="xtick_37">
     <g id="line2d_37">
      <g>
       <use xlink:href="#m0882c7689c" x="611.229455" y="455.955539" style="stroke: #000000; stroke-width: 0.8"/>
      </g>
     </g>
    </g>
    <g id="xtick_38">
     <g id="line2d_38">
      <g>
       <use xlink:href="#m0882c7689c" x="626.690832" y="455.955539" style="stroke: #000000; stroke-width: 0.8"/>
      </g>
     </g>
    </g>
    <g id="xtick_39">
     <g id="line2d_39">
      <g>
       <use xlink:href="#m0882c7689c" x="642.152208" y="455.955539" style="stroke: #000000; stroke-width: 0.8"/>
      </g>
     </g>
    </g>
    <g id="xtick_40">
     <g id="line2d_40">
      <g>
       <use xlink:href="#m0882c7689c" x="657.613585" y="455.955539" style="stroke: #000000; stroke-width: 0.8"/>
      </g>
     </g>
    </g>
    <g id="xtick_41">
     <g id="line2d_41">
      <g>
       <use xlink:href="#m0882c7689c" x="673.074962" y="455.955539" style="stroke: #000000; stroke-width: 0.8"/>
      </g>
     </g>
     <g id="text_11">
      <!-- 40 -->
      <g transform="translate(670.527168 477.326379) rotate(-45) scale(0.1 -0.1)">
       <defs>
        <path id="DejaVuSans-34" d="M 2419 4116 
L 825 1625 
L 2419 1625 
L 2419 4116 
z
M 2253 4666 
L 3047 4666 
L 3047 1625 
L 3713 1625 
L 3713 1100 
L 3047 1100 
L 3047 0 
L 2419 0 
L 2419 1100 
L 313 1100 
L 313 1709 
L 2253 4666 
z
" transform="scale(0.015625)"/>
       </defs>
       <use xlink:href="#DejaVuSans-34"/>
       <use xlink:href="#DejaVuSans-30" transform="translate(63.623047 0)"/>
      </g>
     </g>
    </g>
    <g id="xtick_42">
     <g id="line2d_42">
      <g>
       <use xlink:href="#m0882c7689c" x="688.536338" y="455.955539" style="stroke: #000000; stroke-width: 0.8"/>
      </g>
     </g>
    </g>
    <g id="xtick_43">
     <g id="line2d_43">
      <g>
       <use xlink:href="#m0882c7689c" x="703.997715" y="455.955539" style="stroke: #000000; stroke-width: 0.8"/>
      </g>
     </g>
    </g>
    <g id="xtick_44">
     <g id="line2d_44">
      <g>
       <use xlink:href="#m0882c7689c" x="719.459092" y="455.955539" style="stroke: #000000; stroke-width: 0.8"/>
      </g>
     </g>
    </g>
    <g id="xtick_45">
     <g id="line2d_45">
      <g>
       <use xlink:href="#m0882c7689c" x="734.920468" y="455.955539" style="stroke: #000000; stroke-width: 0.8"/>
      </g>
     </g>
    </g>
    <g id="xtick_46">
     <g id="line2d_46">
      <g>
       <use xlink:href="#m0882c7689c" x="750.381845" y="455.955539" style="stroke: #000000; stroke-width: 0.8"/>
      </g>
     </g>
     <g id="text_12">
      <!-- 45 -->
      <g transform="translate(747.834051 477.326379) rotate(-45) scale(0.1 -0.1)">
       <use xlink:href="#DejaVuSans-34"/>
       <use xlink:href="#DejaVuSans-35" transform="translate(63.623047 0)"/>
      </g>
     </g>
    </g>
    <g id="xtick_47">
     <g id="line2d_47">
      <g>
       <use xlink:href="#m0882c7689c" x="765.843222" y="455.955539" style="stroke: #000000; stroke-width: 0.8"/>
      </g>
     </g>
    </g>
    <g id="xtick_48">
     <g id="line2d_48">
      <g>
       <use xlink:href="#m0882c7689c" x="781.304598" y="455.955539" style="stroke: #000000; stroke-width: 0.8"/>
      </g>
     </g>
     <g id="text_13">
      <!-- 47 -->
      <g transform="translate(778.756804 477.326379) rotate(-45) scale(0.1 -0.1)">
       <defs>
        <path id="DejaVuSans-37" d="M 525 4666 
L 3525 4666 
L 3525 4397 
L 1831 0 
L 1172 0 
L 2766 4134 
L 525 4134 
L 525 4666 
z
" transform="scale(0.015625)"/>
       </defs>
       <use xlink:href="#DejaVuSans-34"/>
       <use xlink:href="#DejaVuSans-37" transform="translate(63.623047 0)"/>
      </g>
     </g>
    </g>
    <g id="xtick_49">
     <g id="line2d_49">
      <g>
       <use xlink:href="#m0882c7689c" x="796.765975" y="455.955539" style="stroke: #000000; stroke-width: 0.8"/>
      </g>
     </g>
    </g>
    <g id="xtick_50">
     <g id="line2d_50">
      <g>
       <use xlink:href="#m0882c7689c" x="812.227352" y="455.955539" style="stroke: #000000; stroke-width: 0.8"/>
      </g>
     </g>
     <g id="text_14">
      <!-- 50 -->
      <g transform="translate(809.679558 477.326379) rotate(-45) scale(0.1 -0.1)">
       <use xlink:href="#DejaVuSans-35"/>
       <use xlink:href="#DejaVuSans-30" transform="translate(63.623047 0)"/>
      </g>
     </g>
    </g>
    <g id="xtick_51">
     <g id="line2d_51">
      <g>
       <use xlink:href="#m0882c7689c" x="827.688728" y="455.955539" style="stroke: #000000; stroke-width: 0.8"/>
      </g>
     </g>
    </g>
    <g id="xtick_52">
     <g id="line2d_52">
      <g>
       <use xlink:href="#m0882c7689c" x="843.150105" y="455.955539" style="stroke: #000000; stroke-width: 0.8"/>
      </g>
     </g>
    </g>
    <g id="text_15">
     <!-- Game Minute -->
     <g transform="translate(415.333438 490.395378) scale(0.1 -0.1)">
      <defs>
       <path id="DejaVuSans-47" d="M 3809 666 
L 3809 1919 
L 2778 1919 
L 2778 2438 
L 4434 2438 
L 4434 434 
Q 4069 175 3628 42 
Q 3188 -91 2688 -91 
Q 1594 -91 976 548 
Q 359 1188 359 2328 
Q 359 3472 976 4111 
Q 1594 4750 2688 4750 
Q 3144 4750 3555 4637 
Q 3966 4525 4313 4306 
L 4313 3634 
Q 3963 3931 3569 4081 
Q 3175 4231 2741 4231 
Q 1884 4231 1454 3753 
Q 1025 3275 1025 2328 
Q 1025 1384 1454 906 
Q 1884 428 2741 428 
Q 3075 428 3337 486 
Q 3600 544 3809 666 
z
" transform="scale(0.015625)"/>
       <path id="DejaVuSans-61" d="M 2194 1759 
Q 1497 1759 1228 1600 
Q 959 1441 959 1056 
Q 959 750 1161 570 
Q 1363 391 1709 391 
Q 2188 391 2477 730 
Q 2766 1069 2766 1631 
L 2766 1759 
L 2194 1759 
z
M 3341 1997 
L 3341 0 
L 2766 0 
L 2766 531 
Q 2569 213 2275 61 
Q 1981 -91 1556 -91 
Q 1019 -91 701 211 
Q 384 513 384 1019 
Q 384 1609 779 1909 
Q 1175 2209 1959 2209 
L 2766 2209 
L 2766 2266 
Q 2766 2663 2505 2880 
Q 2244 3097 1772 3097 
Q 1472 3097 1187 3025 
Q 903 2953 641 2809 
L 641 3341 
Q 956 3463 1253 3523 
Q 1550 3584 1831 3584 
Q 2591 3584 2966 3190 
Q 3341 2797 3341 1997 
z
" transform="scale(0.015625)"/>
       <path id="DejaVuSans-6d" d="M 3328 2828 
Q 3544 3216 3844 3400 
Q 4144 3584 4550 3584 
Q 5097 3584 5394 3201 
Q 5691 2819 5691 2113 
L 5691 0 
L 5113 0 
L 5113 2094 
Q 5113 2597 4934 2840 
Q 4756 3084 4391 3084 
Q 3944 3084 3684 2787 
Q 3425 2491 3425 1978 
L 3425 0 
L 2847 0 
L 2847 2094 
Q 2847 2600 2669 2842 
Q 2491 3084 2119 3084 
Q 1678 3084 1418 2786 
Q 1159 2488 1159 1978 
L 1159 0 
L 581 0 
L 581 3500 
L 1159 3500 
L 1159 2956 
Q 1356 3278 1631 3431 
Q 1906 3584 2284 3584 
Q 2666 3584 2933 3390 
Q 3200 3197 3328 2828 
z
" transform="scale(0.015625)"/>
       <path id="DejaVuSans-65" d="M 3597 1894 
L 3597 1613 
L 953 1613 
Q 991 1019 1311 708 
Q 1631 397 2203 397 
Q 2534 397 2845 478 
Q 3156 559 3463 722 
L 3463 178 
Q 3153 47 2828 -22 
Q 2503 -91 2169 -91 
Q 1331 -91 842 396 
Q 353 884 353 1716 
Q 353 2575 817 3079 
Q 1281 3584 2069 3584 
Q 2775 3584 3186 3129 
Q 3597 2675 3597 1894 
z
M 3022 2063 
Q 3016 2534 2758 2815 
Q 2500 3097 2075 3097 
Q 1594 3097 1305 2825 
Q 1016 2553 972 2059 
L 3022 2063 
z
" transform="scale(0.015625)"/>
       <path id="DejaVuSans-20" transform="scale(0.015625)"/>
       <path id="DejaVuSans-4d" d="M 628 4666 
L 1569 4666 
L 2759 1491 
L 3956 4666 
L 4897 4666 
L 4897 0 
L 4281 0 
L 4281 4097 
L 3078 897 
L 2444 897 
L 1241 4097 
L 1241 0 
L 628 0 
L 628 4666 
z
" transform="scale(0.015625)"/>
       <path id="DejaVuSans-69" d="M 603 3500 
L 1178 3500 
L 1178 0 
L 603 0 
L 603 3500 
z
M 603 4863 
L 1178 4863 
L 1178 4134 
L 603 4134 
L 603 4863 
z
" transform="scale(0.015625)"/>
       <path id="DejaVuSans-6e" d="M 3513 2113 
L 3513 0 
L 2938 0 
L 2938 2094 
Q 2938 2591 2744 2837 
Q 2550 3084 2163 3084 
Q 1697 3084 1428 2787 
Q 1159 2491 1159 1978 
L 1159 0 
L 581 0 
L 581 3500 
L 1159 3500 
L 1159 2956 
Q 1366 3272 1645 3428 
Q 1925 3584 2291 3584 
Q 2894 3584 3203 3211 
Q 3513 2838 3513 2113 
z
" transform="scale(0.015625)"/>
       <path id="DejaVuSans-75" d="M 544 1381 
L 544 3500 
L 1119 3500 
L 1119 1403 
Q 1119 906 1312 657 
Q 1506 409 1894 409 
Q 2359 409 2629 706 
Q 2900 1003 2900 1516 
L 2900 3500 
L 3475 3500 
L 3475 0 
L 2900 0 
L 2900 538 
Q 2691 219 2414 64 
Q 2138 -91 1772 -91 
Q 1169 -91 856 284 
Q 544 659 544 1381 
z
M 1991 3584 
L 1991 3584 
z
" transform="scale(0.015625)"/>
       <path id="DejaVuSans-74" d="M 1172 4494 
L 1172 3500 
L 2356 3500 
L 2356 3053 
L 1172 3053 
L 1172 1153 
Q 1172 725 1289 603 
Q 1406 481 1766 481 
L 2356 481 
L 2356 0 
L 1766 0 
Q 1100 0 847 248 
Q 594 497 594 1153 
L 594 3053 
L 172 3053 
L 172 3500 
L 594 3500 
L 594 4494 
L 1172 4494 
z
" transform="scale(0.015625)"/>
      </defs>
      <use xlink:href="#DejaVuSans-47"/>
      <use xlink:href="#DejaVuSans-61" transform="translate(77.490234 0)"/>
      <use xlink:href="#DejaVuSans-6d" transform="translate(138.769531 0)"/>
      <use xlink:href="#DejaVuSans-65" transform="translate(236.181641 0)"/>
      <use xlink:href="#DejaVuSans-20" transform="translate(297.705078 0)"/>
      <use xlink:href="#DejaVuSans-4d" transform="translate(329.492188 0)"/>
      <use xlink:href="#DejaVuSans-69" transform="translate(415.771484 0)"/>
      <use xlink:href="#DejaVuSans-6e" transform="translate(443.554688 0)"/>
      <use xlink:href="#DejaVuSans-75" transform="translate(506.933594 0)"/>
      <use xlink:href="#DejaVuSans-74" transform="translate(570.3125 0)"/>
      <use xlink:href="#DejaVuSans-65" transform="translate(609.521484 0)"/>
     </g>
    </g>
   </g>
   <g id="matplotlib.axis_2">
    <g id="ytick_1">
     <g id="line2d_53">
      <path d="M 44.57 455.955539 
L 853.2 455.955539 
" clip-path="url(#pa86021e279)" style="fill: none; stroke-dasharray: 2.96,1.28; stroke-dashoffset: 0; stroke: #b0b0b0; stroke-opacity: 0.6; stroke-width: 0.8"/>
     </g>
     <g id="line2d_54">
      <defs>
       <path id="m8ce19cc768" d="M 0 0 
L -3.5 0 
" style="stroke: #000000; stroke-width: 0.8"/>
      </defs>
      <g>
       <use xlink:href="#m8ce19cc768" x="44.57" y="455.955539" style="stroke: #000000; stroke-width: 0.8"/>
      </g>
     </g>
     <g id="text_16">
      <!-- 0 -->
      <g transform="translate(31.2075 459.754758) scale(0.1 -0.1)">
       <use xlink:href="#DejaVuSans-30"/>
      </g>
     </g>
    </g>
    <g id="ytick_2">
     <g id="line2d_55">
      <path d="M 44.57 391.091512 
L 853.2 391.091512 
" clip-path="url(#pa86021e279)" style="fill: none; stroke-dasharray: 2.96,1.28; stroke-dashoffset: 0; stroke: #b0b0b0; stroke-opacity: 0.6; stroke-width: 0.8"/>
     </g>
     <g id="line2d_56">
      <g>
       <use xlink:href="#m8ce19cc768" x="44.57" y="391.091512" style="stroke: #000000; stroke-width: 0.8"/>
      </g>
     </g>
     <g id="text_17">
      <!-- 10 -->
      <g transform="translate(24.845 394.890731) scale(0.1 -0.1)">
       <use xlink:href="#DejaVuSans-31"/>
       <use xlink:href="#DejaVuSans-30" transform="translate(63.623047 0)"/>
      </g>
     </g>
    </g>
    <g id="ytick_3">
     <g id="line2d_57">
      <path d="M 44.57 326.227485 
L 853.2 326.227485 
" clip-path="url(#pa86021e279)" style="fill: none; stroke-dasharray: 2.96,1.28; stroke-dashoffset: 0; stroke: #b0b0b0; stroke-opacity: 0.6; stroke-width: 0.8"/>
     </g>
     <g id="line2d_58">
      <g>
       <use xlink:href="#m8ce19cc768" x="44.57" y="326.227485" style="stroke: #000000; stroke-width: 0.8"/>
      </g>
     </g>
     <g id="text_18">
      <!-- 20 -->
      <g transform="translate(24.845 330.026704) scale(0.1 -0.1)">
       <use xlink:href="#DejaVuSans-32"/>
       <use xlink:href="#DejaVuSans-30" transform="translate(63.623047 0)"/>
      </g>
     </g>
    </g>
    <g id="ytick_4">
     <g id="line2d_59">
      <path d="M 44.57 261.363458 
L 853.2 261.363458 
" clip-path="url(#pa86021e279)" style="fill: none; stroke-dasharray: 2.96,1.28; stroke-dashoffset: 0; stroke: #b0b0b0; stroke-opacity: 0.6; stroke-width: 0.8"/>
     </g>
     <g id="line2d_60">
      <g>
       <use xlink:href="#m8ce19cc768" x="44.57" y="261.363458" style="stroke: #000000; stroke-width: 0.8"/>
      </g>
     </g>
     <g id="text_19">
      <!-- 30 -->
      <g transform="translate(24.845 265.162677) scale(0.1 -0.1)">
       <use xlink:href="#DejaVuSans-33"/>
       <use xlink:href="#DejaVuSans-30" transform="translate(63.623047 0)"/>
      </g>
     </g>
    </g>
    <g id="ytick_5">
     <g id="line2d_61">
      <path d="M 44.57 196.499431 
L 853.2 196.499431 
" clip-path="url(#pa86021e279)" style="fill: none; stroke-dasharray: 2.96,1.28; stroke-dashoffset: 0; stroke: #b0b0b0; stroke-opacity: 0.6; stroke-width: 0.8"/>
     </g>
     <g id="line2d_62">
      <g>
       <use xlink:href="#m8ce19cc768" x="44.57" y="196.499431" style="stroke: #000000; stroke-width: 0.8"/>
      </g>
     </g>
     <g id="text_20">
      <!-- 40 -->
      <g transform="translate(24.845 200.29865) scale(0.1 -0.1)">
       <use xlink:href="#DejaVuSans-34"/>
       <use xlink:href="#DejaVuSans-30" transform="translate(63.623047 0)"/>
      </g>
     </g>
    </g>
    <g id="ytick_6">
     <g id="line2d_63">
      <path d="M 44.57 131.635404 
L 853.2 131.635404 
" clip-path="url(#pa86021e279)" style="fill: none; stroke-dasharray: 2.96,1.28; stroke-dashoffset: 0; stroke: #b0b0b0; stroke-opacity: 0.6; stroke-width: 0.8"/>
     </g>
     <g id="line2d_64">
      <g>
       <use xlink:href="#m8ce19cc768" x="44.57" y="131.635404" style="stroke: #000000; stroke-width: 0.8"/>
      </g>
     </g>
     <g id="text_21">
      <!-- 50 -->
      <g transform="translate(24.845 135.434622) scale(0.1 -0.1)">
       <use xlink:href="#DejaVuSans-35"/>
       <use xlink:href="#DejaVuSans-30" transform="translate(63.623047 0)"/>
      </g>
     </g>
    </g>
    <g id="ytick_7">
     <g id="line2d_65">
      <path d="M 44.57 66.771377 
L 853.2 66.771377 
" clip-path="url(#pa86021e279)" style="fill: none; stroke-dasharray: 2.96,1.28; stroke-dashoffset: 0; stroke: #b0b0b0; stroke-opacity: 0.6; stroke-width: 0.8"/>
     </g>
     <g id="line2d_66">
      <g>
       <use xlink:href="#m8ce19cc768" x="44.57" y="66.771377" style="stroke: #000000; stroke-width: 0.8"/>
      </g>
     </g>
     <g id="text_22">
      <!-- 60 -->
      <g transform="translate(24.845 70.570595) scale(0.1 -0.1)">
       <defs>
        <path id="DejaVuSans-36" d="M 2113 2584 
Q 1688 2584 1439 2293 
Q 1191 2003 1191 1497 
Q 1191 994 1439 701 
Q 1688 409 2113 409 
Q 2538 409 2786 701 
Q 3034 994 3034 1497 
Q 3034 2003 2786 2293 
Q 2538 2584 2113 2584 
z
M 3366 4563 
L 3366 3988 
Q 3128 4100 2886 4159 
Q 2644 4219 2406 4219 
Q 1781 4219 1451 3797 
Q 1122 3375 1075 2522 
Q 1259 2794 1537 2939 
Q 1816 3084 2150 3084 
Q 2853 3084 3261 2657 
Q 3669 2231 3669 1497 
Q 3669 778 3244 343 
Q 2819 -91 2113 -91 
Q 1303 -91 875 529 
Q 447 1150 447 2328 
Q 447 3434 972 4092 
Q 1497 4750 2381 4750 
Q 2619 4750 2861 4703 
Q 3103 4656 3366 4563 
z
" transform="scale(0.015625)"/>
       </defs>
       <use xlink:href="#DejaVuSans-36"/>
       <use xlink:href="#DejaVuSans-30" transform="translate(63.623047 0)"/>
      </g>
     </g>
    </g>
    <g id="text_23">
     <!-- Points Scored -->
     <g transform="translate(18.765312 275.199019) rotate(-90) scale(0.1 -0.1)">
      <defs>
       <path id="DejaVuSans-50" d="M 1259 4147 
L 1259 2394 
L 2053 2394 
Q 2494 2394 2734 2622 
Q 2975 2850 2975 3272 
Q 2975 3691 2734 3919 
Q 2494 4147 2053 4147 
L 1259 4147 
z
M 628 4666 
L 2053 4666 
Q 2838 4666 3239 4311 
Q 3641 3956 3641 3272 
Q 3641 2581 3239 2228 
Q 2838 1875 2053 1875 
L 1259 1875 
L 1259 0 
L 628 0 
L 628 4666 
z
" transform="scale(0.015625)"/>
       <path id="DejaVuSans-6f" d="M 1959 3097 
Q 1497 3097 1228 2736 
Q 959 2375 959 1747 
Q 959 1119 1226 758 
Q 1494 397 1959 397 
Q 2419 397 2687 759 
Q 2956 1122 2956 1747 
Q 2956 2369 2687 2733 
Q 2419 3097 1959 3097 
z
M 1959 3584 
Q 2709 3584 3137 3096 
Q 3566 2609 3566 1747 
Q 3566 888 3137 398 
Q 2709 -91 1959 -91 
Q 1206 -91 779 398 
Q 353 888 353 1747 
Q 353 2609 779 3096 
Q 1206 3584 1959 3584 
z
" transform="scale(0.015625)"/>
       <path id="DejaVuSans-73" d="M 2834 3397 
L 2834 2853 
Q 2591 2978 2328 3040 
Q 2066 3103 1784 3103 
Q 1356 3103 1142 2972 
Q 928 2841 928 2578 
Q 928 2378 1081 2264 
Q 1234 2150 1697 2047 
L 1894 2003 
Q 2506 1872 2764 1633 
Q 3022 1394 3022 966 
Q 3022 478 2636 193 
Q 2250 -91 1575 -91 
Q 1294 -91 989 -36 
Q 684 19 347 128 
L 347 722 
Q 666 556 975 473 
Q 1284 391 1588 391 
Q 1994 391 2212 530 
Q 2431 669 2431 922 
Q 2431 1156 2273 1281 
Q 2116 1406 1581 1522 
L 1381 1569 
Q 847 1681 609 1914 
Q 372 2147 372 2553 
Q 372 3047 722 3315 
Q 1072 3584 1716 3584 
Q 2034 3584 2315 3537 
Q 2597 3491 2834 3397 
z
" transform="scale(0.015625)"/>
       <path id="DejaVuSans-53" d="M 3425 4513 
L 3425 3897 
Q 3066 4069 2747 4153 
Q 2428 4238 2131 4238 
Q 1616 4238 1336 4038 
Q 1056 3838 1056 3469 
Q 1056 3159 1242 3001 
Q 1428 2844 1947 2747 
L 2328 2669 
Q 3034 2534 3370 2195 
Q 3706 1856 3706 1288 
Q 3706 609 3251 259 
Q 2797 -91 1919 -91 
Q 1588 -91 1214 -16 
Q 841 59 441 206 
L 441 856 
Q 825 641 1194 531 
Q 1563 422 1919 422 
Q 2459 422 2753 634 
Q 3047 847 3047 1241 
Q 3047 1584 2836 1778 
Q 2625 1972 2144 2069 
L 1759 2144 
Q 1053 2284 737 2584 
Q 422 2884 422 3419 
Q 422 4038 858 4394 
Q 1294 4750 2059 4750 
Q 2388 4750 2728 4690 
Q 3069 4631 3425 4513 
z
" transform="scale(0.015625)"/>
       <path id="DejaVuSans-63" d="M 3122 3366 
L 3122 2828 
Q 2878 2963 2633 3030 
Q 2388 3097 2138 3097 
Q 1578 3097 1268 2742 
Q 959 2388 959 1747 
Q 959 1106 1268 751 
Q 1578 397 2138 397 
Q 2388 397 2633 464 
Q 2878 531 3122 666 
L 3122 134 
Q 2881 22 2623 -34 
Q 2366 -91 2075 -91 
Q 1284 -91 818 406 
Q 353 903 353 1747 
Q 353 2603 823 3093 
Q 1294 3584 2113 3584 
Q 2378 3584 2631 3529 
Q 2884 3475 3122 3366 
z
" transform="scale(0.015625)"/>
       <path id="DejaVuSans-72" d="M 2631 2963 
Q 2534 3019 2420 3045 
Q 2306 3072 2169 3072 
Q 1681 3072 1420 2755 
Q 1159 2438 1159 1844 
L 1159 0 
L 581 0 
L 581 3500 
L 1159 3500 
L 1159 2956 
Q 1341 3275 1631 3429 
Q 1922 3584 2338 3584 
Q 2397 3584 2469 3576 
Q 2541 3569 2628 3553 
L 2631 2963 
z
" transform="scale(0.015625)"/>
       <path id="DejaVuSans-64" d="M 2906 2969 
L 2906 4863 
L 3481 4863 
L 3481 0 
L 2906 0 
L 2906 525 
Q 2725 213 2448 61 
Q 2172 -91 1784 -91 
Q 1150 -91 751 415 
Q 353 922 353 1747 
Q 353 2572 751 3078 
Q 1150 3584 1784 3584 
Q 2172 3584 2448 3432 
Q 2725 3281 2906 2969 
z
M 947 1747 
Q 947 1113 1208 752 
Q 1469 391 1925 391 
Q 2381 391 2643 752 
Q 2906 1113 2906 1747 
Q 2906 2381 2643 2742 
Q 2381 3103 1925 3103 
Q 1469 3103 1208 2742 
Q 947 2381 947 1747 
z
" transform="scale(0.015625)"/>
      </defs>
      <use xlink:href="#DejaVuSans-50"/>
      <use xlink:href="#DejaVuSans-6f" transform="translate(56.677734 0)"/>
      <use xlink:href="#DejaVuSans-69" transform="translate(117.859375 0)"/>
      <use xlink:href="#DejaVuSans-6e" transform="translate(145.642578 0)"/>
      <use xlink:href="#DejaVuSans-74" transform="translate(209.021484 0)"/>
      <use xlink:href="#DejaVuSans-73" transform="translate(248.230469 0)"/>
      <use xlink:href="#DejaVuSans-20" transform="translate(300.330078 0)"/>
      <use xlink:href="#DejaVuSans-53" transform="translate(332.117188 0)"/>
      <use xlink:href="#DejaVuSans-63" transform="translate(395.59375 0)"/>
      <use xlink:href="#DejaVuSans-6f" transform="translate(450.574219 0)"/>
      <use xlink:href="#DejaVuSans-72" transform="translate(511.755859 0)"/>
      <use xlink:href="#DejaVuSans-65" transform="translate(550.619141 0)"/>
      <use xlink:href="#DejaVuSans-64" transform="translate(612.142578 0)"/>
     </g>
    </g>
   </g>
   <g id="patch_159">
    <path d="M 44.57 455.955539 
L 44.57 26.88 
" style="fill: none; stroke: #000000; stroke-width: 0.8; stroke-linejoin: miter; stroke-linecap: square"/>
   </g>
   <g id="patch_160">
    <path d="M 853.2 455.955539 
L 853.2 26.88 
" style="fill: none; stroke: #000000; stroke-width: 0.8; stroke-linejoin: miter; stroke-linecap: square"/>
   </g>
   <g id="patch_161">
    <path d="M 44.57 455.955539 
L 853.2 455.955539 
" style="fill: none; stroke: #000000; stroke-width: 0.8; stroke-linejoin: miter; stroke-linecap: square"/>
   </g>
   <g id="patch_162">
    <path d="M 44.57 26.88 
L 853.2 26.88 
" style="fill: none; stroke: #000000; stroke-width: 0.8; stroke-linejoin: miter; stroke-linecap: square"/>
   </g>
   <g id="text_24">
    <!-- Mikal Bridges Scoring Timeline (2024-25) -->
    <g transform="translate(325.230625 20.88) scale(0.12 -0.12)">
     <defs>
      <path id="DejaVuSans-6b" d="M 581 4863 
L 1159 4863 
L 1159 1991 
L 2875 3500 
L 3609 3500 
L 1753 1863 
L 3688 0 
L 2938 0 
L 1159 1709 
L 1159 0 
L 581 0 
L 581 4863 
z
" transform="scale(0.015625)"/>
      <path id="DejaVuSans-6c" d="M 603 4863 
L 1178 4863 
L 1178 0 
L 603 0 
L 603 4863 
z
" transform="scale(0.015625)"/>
      <path id="DejaVuSans-42" d="M 1259 2228 
L 1259 519 
L 2272 519 
Q 2781 519 3026 730 
Q 3272 941 3272 1375 
Q 3272 1813 3026 2020 
Q 2781 2228 2272 2228 
L 1259 2228 
z
M 1259 4147 
L 1259 2741 
L 2194 2741 
Q 2656 2741 2882 2914 
Q 3109 3088 3109 3444 
Q 3109 3797 2882 3972 
Q 2656 4147 2194 4147 
L 1259 4147 
z
M 628 4666 
L 2241 4666 
Q 2963 4666 3353 4366 
Q 3744 4066 3744 3513 
Q 3744 3084 3544 2831 
Q 3344 2578 2956 2516 
Q 3422 2416 3680 2098 
Q 3938 1781 3938 1306 
Q 3938 681 3513 340 
Q 3088 0 2303 0 
L 628 0 
L 628 4666 
z
" transform="scale(0.015625)"/>
      <path id="DejaVuSans-67" d="M 2906 1791 
Q 2906 2416 2648 2759 
Q 2391 3103 1925 3103 
Q 1463 3103 1205 2759 
Q 947 2416 947 1791 
Q 947 1169 1205 825 
Q 1463 481 1925 481 
Q 2391 481 2648 825 
Q 2906 1169 2906 1791 
z
M 3481 434 
Q 3481 -459 3084 -895 
Q 2688 -1331 1869 -1331 
Q 1566 -1331 1297 -1286 
Q 1028 -1241 775 -1147 
L 775 -588 
Q 1028 -725 1275 -790 
Q 1522 -856 1778 -856 
Q 2344 -856 2625 -561 
Q 2906 -266 2906 331 
L 2906 616 
Q 2728 306 2450 153 
Q 2172 0 1784 0 
Q 1141 0 747 490 
Q 353 981 353 1791 
Q 353 2603 747 3093 
Q 1141 3584 1784 3584 
Q 2172 3584 2450 3431 
Q 2728 3278 2906 2969 
L 2906 3500 
L 3481 3500 
L 3481 434 
z
" transform="scale(0.015625)"/>
      <path id="DejaVuSans-54" d="M -19 4666 
L 3928 4666 
L 3928 4134 
L 2272 4134 
L 2272 0 
L 1638 0 
L 1638 4134 
L -19 4134 
L -19 4666 
z
" transform="scale(0.015625)"/>
      <path id="DejaVuSans-28" d="M 1984 4856 
Q 1566 4138 1362 3434 
Q 1159 2731 1159 2009 
Q 1159 1288 1364 580 
Q 1569 -128 1984 -844 
L 1484 -844 
Q 1016 -109 783 600 
Q 550 1309 550 2009 
Q 550 2706 781 3412 
Q 1013 4119 1484 4856 
L 1984 4856 
z
" transform="scale(0.015625)"/>
      <path id="DejaVuSans-2d" d="M 313 2009 
L 1997 2009 
L 1997 1497 
L 313 1497 
L 313 2009 
z
" transform="scale(0.015625)"/>
      <path id="DejaVuSans-29" d="M 513 4856 
L 1013 4856 
Q 1481 4119 1714 3412 
Q 1947 2706 1947 2009 
Q 1947 1309 1714 600 
Q 1481 -109 1013 -844 
L 513 -844 
Q 928 -128 1133 580 
Q 1338 1288 1338 2009 
Q 1338 2731 1133 3434 
Q 928 4138 513 4856 
z
" transform="scale(0.015625)"/>
     </defs>
     <use xlink:href="#DejaVuSans-4d"/>
     <use xlink:href="#DejaVuSans-69" transform="translate(86.279297 0)"/>
     <use xlink:href="#DejaVuSans-6b" transform="translate(114.0625 0)"/>
     <use xlink:href="#DejaVuSans-61" transform="translate(170.222656 0)"/>
     <use xlink:href="#DejaVuSans-6c" transform="translate(231.501953 0)"/>
     <use xlink:href="#DejaVuSans-20" transform="translate(259.285156 0)"/>
     <use xlink:href="#DejaVuSans-42" transform="translate(291.072266 0)"/>
     <use xlink:href="#DejaVuSans-72" transform="translate(359.675781 0)"/>
     <use xlink:href="#DejaVuSans-69" transform="translate(400.789062 0)"/>
     <use xlink:href="#DejaVuSans-64" transform="translate(428.572266 0)"/>
     <use xlink:href="#DejaVuSans-67" transform="translate(492.048828 0)"/>
     <use xlink:href="#DejaVuSans-65" transform="translate(555.525391 0)"/>
     <use xlink:href="#DejaVuSans-73" transform="translate(617.048828 0)"/>
     <use xlink:href="#DejaVuSans-20" transform="translate(669.148438 0)"/>
     <use xlink:href="#DejaVuSans-53" transform="translate(700.935547 0)"/>
     <use xlink:href="#DejaVuSans-63" transform="translate(764.412109 0)"/>
     <use xlink:href="#DejaVuSans-6f" transform="translate(819.392578 0)"/>
     <use xlink:href="#DejaVuSans-72" transform="translate(880.574219 0)"/>
     <use xlink:href="#DejaVuSans-69" transform="translate(921.6875 0)"/>
     <use xlink:href="#DejaVuSans-6e" transform="translate(949.470703 0)"/>
     <use xlink:href="#DejaVuSans-67" transform="translate(1012.849609 0)"/>
     <use xlink:href="#DejaVuSans-20" transform="translate(1076.326172 0)"/>
     <use xlink:href="#DejaVuSans-54" transform="translate(1108.113281 0)"/>
     <use xlink:href="#DejaVuSans-69" transform="translate(1166.072266 0)"/>
     <use xlink:href="#DejaVuSans-6d" transform="translate(1193.855469 0)"/>
     <use xlink:href="#DejaVuSans-65" transform="translate(1291.267578 0)"/>
     <use xlink:href="#DejaVuSans-6c" transform="translate(1352.791016 0)"/>
     <use xlink:href="#DejaVuSans-69" transform="translate(1380.574219 0)"/>
     <use xlink:href="#DejaVuSans-6e" transform="translate(1408.357422 0)"/>
     <use xlink:href="#DejaVuSans-65" transform="translate(1471.736328 0)"/>
     <use xlink:href="#DejaVuSans-20" transform="translate(1533.259766 0)"/>
     <use xlink:href="#DejaVuSans-28" transform="translate(1565.046875 0)"/>
     <use xlink:href="#DejaVuSans-32" transform="translate(1604.060547 0)"/>
     <use xlink:href="#DejaVuSans-30" transform="translate(1667.683594 0)"/>
     <use xlink:href="#DejaVuSans-32" transform="translate(1731.306641 0)"/>
     <use xlink:href="#DejaVuSans-34" transform="translate(1794.929688 0)"/>
     <use xlink:href="#DejaVuSans-2d" transform="translate(1858.552734 0)"/>
     <use xlink:href="#DejaVuSans-32" transform="translate(1894.636719 0)"/>
     <use xlink:href="#DejaVuSans-35" transform="translate(1958.259766 0)"/>
     <use xlink:href="#DejaVuSans-29" transform="translate(2021.882812 0)"/>
    </g>
   </g>
   <g id="legend_1">
    <g id="patch_163">
     <path d="M 793.33125 93.5925 
L 846.2 93.5925 
Q 848.2 93.5925 848.2 91.5925 
L 848.2 33.88 
Q 848.2 31.88 846.2 31.88 
L 793.33125 31.88 
Q 791.33125 31.88 791.33125 33.88 
L 791.33125 91.5925 
Q 791.33125 93.5925 793.33125 93.5925 
z
" style="fill: #ffffff; opacity: 0.8; stroke: #cccccc; stroke-linejoin: miter"/>
    </g>
    <g id="text_25">
     <!-- Shot Type -->
     <g transform="translate(795.33125 43.478437) scale(0.1 -0.1)">
      <defs>
       <path id="DejaVuSans-68" d="M 3513 2113 
L 3513 0 
L 2938 0 
L 2938 2094 
Q 2938 2591 2744 2837 
Q 2550 3084 2163 3084 
Q 1697 3084 1428 2787 
Q 1159 2491 1159 1978 
L 1159 0 
L 581 0 
L 581 4863 
L 1159 4863 
L 1159 2956 
Q 1366 3272 1645 3428 
Q 1925 3584 2291 3584 
Q 2894 3584 3203 3211 
Q 3513 2838 3513 2113 
z
" transform="scale(0.015625)"/>
       <path id="DejaVuSans-79" d="M 2059 -325 
Q 1816 -950 1584 -1140 
Q 1353 -1331 966 -1331 
L 506 -1331 
L 506 -850 
L 844 -850 
Q 1081 -850 1212 -737 
Q 1344 -625 1503 -206 
L 1606 56 
L 191 3500 
L 800 3500 
L 1894 763 
L 2988 3500 
L 3597 3500 
L 2059 -325 
z
" transform="scale(0.015625)"/>
       <path id="DejaVuSans-70" d="M 1159 525 
L 1159 -1331 
L 581 -1331 
L 581 3500 
L 1159 3500 
L 1159 2969 
Q 1341 3281 1617 3432 
Q 1894 3584 2278 3584 
Q 2916 3584 3314 3078 
Q 3713 2572 3713 1747 
Q 3713 922 3314 415 
Q 2916 -91 2278 -91 
Q 1894 -91 1617 61 
Q 1341 213 1159 525 
z
M 3116 1747 
Q 3116 2381 2855 2742 
Q 2594 3103 2138 3103 
Q 1681 3103 1420 2742 
Q 1159 2381 1159 1747 
Q 1159 1113 1420 752 
Q 1681 391 2138 391 
Q 2594 391 2855 752 
Q 3116 1113 3116 1747 
z
" transform="scale(0.015625)"/>
      </defs>
      <use xlink:href="#DejaVuSans-53"/>
      <use xlink:href="#DejaVuSans-68" transform="translate(63.476562 0)"/>
      <use xlink:href="#DejaVuSans-6f" transform="translate(126.855469 0)"/>
      <use xlink:href="#DejaVuSans-74" transform="translate(188.037109 0)"/>
      <use xlink:href="#DejaVuSans-20" transform="translate(227.246094 0)"/>
      <use xlink:href="#DejaVuSans-54" transform="translate(259.033203 0)"/>
      <use xlink:href="#DejaVuSans-79" transform="translate(304.492188 0)"/>
      <use xlink:href="#DejaVuSans-70" transform="translate(363.671875 0)"/>
      <use xlink:href="#DejaVuSans-65" transform="translate(427.148438 0)"/>
     </g>
    </g>
    <g id="patch_164">
     <path d="M 796.515625 58.156563 
L 816.515625 58.156563 
L 816.515625 51.156563 
L 796.515625 51.156563 
z
" style="fill: #ffc107"/>
    </g>
    <g id="text_26">
     <!-- FT -->
     <g transform="translate(824.515625 58.156563) scale(0.1 -0.1)">
      <defs>
       <path id="DejaVuSans-46" d="M 628 4666 
L 3309 4666 
L 3309 4134 
L 1259 4134 
L 1259 2759 
L 3109 2759 
L 3109 2228 
L 1259 2228 
L 1259 0 
L 628 0 
L 628 4666 
z
" transform="scale(0.015625)"/>
      </defs>
      <use xlink:href="#DejaVuSans-46"/>
      <use xlink:href="#DejaVuSans-54" transform="translate(55.769531 0)"/>
     </g>
    </g>
    <g id="patch_165">
     <path d="M 796.515625 72.834688 
L 816.515625 72.834688 
L 816.515625 65.834688 
L 796.515625 65.834688 
z
" style="fill: #2196f3"/>
    </g>
    <g id="text_27">
     <!-- 2PT -->
     <g transform="translate(824.515625 72.834688) scale(0.1 -0.1)">
      <use xlink:href="#DejaVuSans-32"/>
      <use xlink:href="#DejaVuSans-50" transform="translate(63.623047 0)"/>
      <use xlink:href="#DejaVuSans-54" transform="translate(123.925781 0)"/>
     </g>
    </g>
    <g id="patch_166">
     <path d="M 796.515625 87.512812 
L 816.515625 87.512812 
L 816.515625 80.512812 
L 796.515625 80.512812 
z
" style="fill: #4caf50"/>
    </g>
    <g id="text_28">
     <!-- 3PT -->
     <g transform="translate(824.515625 87.512812) scale(0.1 -0.1)">
      <use xlink:href="#DejaVuSans-33"/>
      <use xlink:href="#DejaVuSans-50" transform="translate(63.623047 0)"/>
      <use xlink:href="#DejaVuSans-54" transform="translate(123.925781 0)"/>
     </g>
    </g>
   </g>
  </g>
 </g>
 <defs>
  <clipPath id="pa86021e279">
   <rect x="44.57" y="26.88" width="808.63" height="429.075539"/>
  </clipPath>
 </defs>
</svg>
