<?xml version="1.0" encoding="utf-8" standalone="no"?>
<!DOCTYPE svg PUBLIC "-//W3C//DTD SVG 1.1//EN"
  "http://www.w3.org/Graphics/SVG/1.1/DTD/svg11.dtd">
<svg xmlns:xlink="http://www.w3.org/1999/xlink" width="1080pt" height="504pt" viewBox="0 0 1080 504" xmlns="http://www.w3.org/2000/svg" version="1.1">
 <metadata>
  <rdf:RDF xmlns:dc="http://purl.org/dc/elements/1.1/" xmlns:cc="http://creativecommons.org/ns#" xmlns:rdf="http://www.w3.org/1999/02/22-rdf-syntax-ns#">
   <cc:Work>
    <dc:type rdf:resource="http://purl.org/dc/dcmitype/StillImage"/>
    <dc:date>2025-08-22T19:37:08.907471</dc:date>
    <dc:format>image/svg+xml</dc:format>
    <dc:creator>
     <cc:Agent>
      <dc:title>Matplotlib v3.10.5, https://matplotlib.org/</dc:title>
     </cc:Agent>
    </dc:creator>
   </cc:Work>
  </rdf:RDF>
 </metadata>
 <defs>
  <style type="text/css">*{stroke-linejoin: round; stroke-linecap: butt}</style>
 </defs>
 <g id="figure_1">
  <g id="patch_1">
   <path d="M 0 504 
L 1080 504 
L 1080 0 
L 0 0 
z
" style="fill: #ffffff"/>
  </g>
  <g id="axes_1">
   <g id="patch_2">
    <path d="M 135 448.56 
L 972 448.56 
L 972 60.48 
L 135 60.48 
z
" style="fill: #ffffff"/>
   </g>
   <g id="patch_3">
    <path d="M 173.045455 448.56 
L 185.780335 448.56 
L 185.780335 397.929863 
L 173.045455 397.929863 
z
" clip-path="url(#p5ef09f1423)" style="fill: #aec7e8"/>
   </g>
   <g id="patch_4">
    <path d="M 188.964055 448.56 
L 201.698935 448.56 
L 201.698935 332.110685 
L 188.964055 332.110685 
z
" clip-path="url(#p5ef09f1423)" style="fill: #aec7e8"/>
   </g>
   <g id="patch_5">
    <path d="M 204.882655 448.56 
L 217.617535 448.56 
L 217.617535 382.740822 
L 204.882655 382.740822 
z
" clip-path="url(#p5ef09f1423)" style="fill: #aec7e8"/>
   </g>
   <g id="patch_6">
    <path d="M 220.801255 448.56 
L 233.536135 448.56 
L 233.536135 397.929863 
L 220.801255 397.929863 
z
" clip-path="url(#p5ef09f1423)" style="fill: #aec7e8"/>
   </g>
   <g id="patch_7">
    <path d="M 236.719855 448.56 
L 249.454736 448.56 
L 249.454736 362.488767 
L 236.719855 362.488767 
z
" clip-path="url(#p5ef09f1423)" style="fill: #aec7e8"/>
   </g>
   <g id="patch_8">
    <path d="M 252.638456 448.56 
L 265.373336 448.56 
L 265.373336 387.803836 
L 252.638456 387.803836 
z
" clip-path="url(#p5ef09f1423)" style="fill: #aec7e8"/>
   </g>
   <g id="patch_9">
    <path d="M 268.557056 448.56 
L 281.291936 448.56 
L 281.291936 382.740822 
L 268.557056 382.740822 
z
" clip-path="url(#p5ef09f1423)" style="fill: #aec7e8"/>
   </g>
   <g id="patch_10">
    <path d="M 284.475656 448.56 
L 297.210536 448.56 
L 297.210536 397.929863 
L 284.475656 397.929863 
z
" clip-path="url(#p5ef09f1423)" style="fill: #aec7e8"/>
   </g>
   <g id="patch_11">
    <path d="M 300.394256 448.56 
L 313.129137 448.56 
L 313.129137 367.551781 
L 300.394256 367.551781 
z
" clip-path="url(#p5ef09f1423)" style="fill: #aec7e8"/>
   </g>
   <g id="patch_12">
    <path d="M 316.312857 448.56 
L 329.047737 448.56 
L 329.047737 408.05589 
L 316.312857 408.05589 
z
" clip-path="url(#p5ef09f1423)" style="fill: #aec7e8"/>
   </g>
   <g id="patch_13">
    <path d="M 332.231457 448.56 
L 344.966337 448.56 
L 344.966337 418.181918 
L 332.231457 418.181918 
z
" clip-path="url(#p5ef09f1423)" style="fill: #aec7e8"/>
   </g>
   <g id="patch_14">
    <path d="M 348.150057 448.56 
L 360.884937 448.56 
L 360.884937 402.992877 
L 348.150057 402.992877 
z
" clip-path="url(#p5ef09f1423)" style="fill: #aec7e8"/>
   </g>
   <g id="patch_15">
    <path d="M 364.068657 448.56 
L 376.803537 448.56 
L 376.803537 448.56 
L 364.068657 448.56 
z
" clip-path="url(#p5ef09f1423)" style="fill: #aec7e8"/>
   </g>
   <g id="patch_16">
    <path d="M 379.987258 448.56 
L 392.722138 448.56 
L 392.722138 443.496986 
L 379.987258 443.496986 
z
" clip-path="url(#p5ef09f1423)" style="fill: #aec7e8"/>
   </g>
   <g id="patch_17">
    <path d="M 395.905858 448.56 
L 408.640738 448.56 
L 408.640738 438.433973 
L 395.905858 438.433973 
z
" clip-path="url(#p5ef09f1423)" style="fill: #aec7e8"/>
   </g>
   <g id="patch_18">
    <path d="M 411.824458 448.56 
L 424.559338 448.56 
L 424.559338 438.433973 
L 411.824458 438.433973 
z
" clip-path="url(#p5ef09f1423)" style="fill: #aec7e8"/>
   </g>
   <g id="patch_19">
    <path d="M 427.743058 448.56 
L 440.477938 448.56 
L 440.477938 413.118904 
L 427.743058 413.118904 
z
" clip-path="url(#p5ef09f1423)" style="fill: #aec7e8"/>
   </g>
   <g id="patch_20">
    <path d="M 443.661658 448.56 
L 456.396539 448.56 
L 456.396539 397.929863 
L 443.661658 397.929863 
z
" clip-path="url(#p5ef09f1423)" style="fill: #aec7e8"/>
   </g>
   <g id="patch_21">
    <path d="M 459.580259 448.56 
L 472.315139 448.56 
L 472.315139 423.244932 
L 459.580259 423.244932 
z
" clip-path="url(#p5ef09f1423)" style="fill: #aec7e8"/>
   </g>
   <g id="patch_22">
    <path d="M 475.498859 448.56 
L 488.233739 448.56 
L 488.233739 413.118904 
L 475.498859 413.118904 
z
" clip-path="url(#p5ef09f1423)" style="fill: #aec7e8"/>
   </g>
   <g id="patch_23">
    <path d="M 491.417459 448.56 
L 504.152339 448.56 
L 504.152339 408.05589 
L 491.417459 408.05589 
z
" clip-path="url(#p5ef09f1423)" style="fill: #aec7e8"/>
   </g>
   <g id="patch_24">
    <path d="M 507.336059 448.56 
L 520.07094 448.56 
L 520.07094 372.614795 
L 507.336059 372.614795 
z
" clip-path="url(#p5ef09f1423)" style="fill: #aec7e8"/>
   </g>
   <g id="patch_25">
    <path d="M 523.25466 448.56 
L 535.98954 448.56 
L 535.98954 387.803836 
L 523.25466 387.803836 
z
" clip-path="url(#p5ef09f1423)" style="fill: #aec7e8"/>
   </g>
   <g id="patch_26">
    <path d="M 539.17326 448.56 
L 551.90814 448.56 
L 551.90814 321.984658 
L 539.17326 321.984658 
z
" clip-path="url(#p5ef09f1423)" style="fill: #aec7e8"/>
   </g>
   <g id="patch_27">
    <path d="M 555.09186 448.56 
L 567.82674 448.56 
L 567.82674 413.118904 
L 555.09186 413.118904 
z
" clip-path="url(#p5ef09f1423)" style="fill: #aec7e8"/>
   </g>
   <g id="patch_28">
    <path d="M 571.01046 448.56 
L 583.74534 448.56 
L 583.74534 408.05589 
L 571.01046 408.05589 
z
" clip-path="url(#p5ef09f1423)" style="fill: #aec7e8"/>
   </g>
   <g id="patch_29">
    <path d="M 586.92906 448.56 
L 599.663941 448.56 
L 599.663941 418.181918 
L 586.92906 418.181918 
z
" clip-path="url(#p5ef09f1423)" style="fill: #aec7e8"/>
   </g>
   <g id="patch_30">
    <path d="M 602.847661 448.56 
L 615.582541 448.56 
L 615.582541 413.118904 
L 602.847661 413.118904 
z
" clip-path="url(#p5ef09f1423)" style="fill: #aec7e8"/>
   </g>
   <g id="patch_31">
    <path d="M 618.766261 448.56 
L 631.501141 448.56 
L 631.501141 397.929863 
L 618.766261 397.929863 
z
" clip-path="url(#p5ef09f1423)" style="fill: #aec7e8"/>
   </g>
   <g id="patch_32">
    <path d="M 634.684861 448.56 
L 647.419741 448.56 
L 647.419741 372.614795 
L 634.684861 372.614795 
z
" clip-path="url(#p5ef09f1423)" style="fill: #aec7e8"/>
   </g>
   <g id="patch_33">
    <path d="M 650.603461 448.56 
L 663.338342 448.56 
L 663.338342 387.803836 
L 650.603461 387.803836 
z
" clip-path="url(#p5ef09f1423)" style="fill: #aec7e8"/>
   </g>
   <g id="patch_34">
    <path d="M 666.522062 448.56 
L 679.256942 448.56 
L 679.256942 382.740822 
L 666.522062 382.740822 
z
" clip-path="url(#p5ef09f1423)" style="fill: #aec7e8"/>
   </g>
   <g id="patch_35">
    <path d="M 682.440662 448.56 
L 695.175542 448.56 
L 695.175542 387.803836 
L 682.440662 387.803836 
z
" clip-path="url(#p5ef09f1423)" style="fill: #aec7e8"/>
   </g>
   <g id="patch_36">
    <path d="M 698.359262 448.56 
L 711.094142 448.56 
L 711.094142 413.118904 
L 698.359262 413.118904 
z
" clip-path="url(#p5ef09f1423)" style="fill: #aec7e8"/>
   </g>
   <g id="patch_37">
    <path d="M 714.277862 448.56 
L 727.012742 448.56 
L 727.012742 367.551781 
L 714.277862 367.551781 
z
" clip-path="url(#p5ef09f1423)" style="fill: #aec7e8"/>
   </g>
   <g id="patch_38">
    <path d="M 730.196463 448.56 
L 742.931343 448.56 
L 742.931343 352.36274 
L 730.196463 352.36274 
z
" clip-path="url(#p5ef09f1423)" style="fill: #aec7e8"/>
   </g>
   <g id="patch_39">
    <path d="M 746.115063 448.56 
L 758.849943 448.56 
L 758.849943 443.496986 
L 746.115063 443.496986 
z
" clip-path="url(#p5ef09f1423)" style="fill: #aec7e8"/>
   </g>
   <g id="patch_40">
    <path d="M 762.033663 448.56 
L 774.768543 448.56 
L 774.768543 428.307945 
L 762.033663 428.307945 
z
" clip-path="url(#p5ef09f1423)" style="fill: #aec7e8"/>
   </g>
   <g id="patch_41">
    <path d="M 777.952263 448.56 
L 790.687143 448.56 
L 790.687143 443.496986 
L 777.952263 443.496986 
z
" clip-path="url(#p5ef09f1423)" style="fill: #aec7e8"/>
   </g>
   <g id="patch_42">
    <path d="M 793.870863 448.56 
L 806.605744 448.56 
L 806.605744 438.433973 
L 793.870863 438.433973 
z
" clip-path="url(#p5ef09f1423)" style="fill: #aec7e8"/>
   </g>
   <g id="patch_43">
    <path d="M 809.789464 448.56 
L 822.524344 448.56 
L 822.524344 413.118904 
L 809.789464 413.118904 
z
" clip-path="url(#p5ef09f1423)" style="fill: #aec7e8"/>
   </g>
   <g id="patch_44">
    <path d="M 825.708064 448.56 
L 838.442944 448.56 
L 838.442944 387.803836 
L 825.708064 387.803836 
z
" clip-path="url(#p5ef09f1423)" style="fill: #aec7e8"/>
   </g>
   <g id="patch_45">
    <path d="M 841.626664 448.56 
L 854.361544 448.56 
L 854.361544 362.488767 
L 841.626664 362.488767 
z
" clip-path="url(#p5ef09f1423)" style="fill: #aec7e8"/>
   </g>
   <g id="patch_46">
    <path d="M 857.545264 448.56 
L 870.280145 448.56 
L 870.280145 367.551781 
L 857.545264 367.551781 
z
" clip-path="url(#p5ef09f1423)" style="fill: #aec7e8"/>
   </g>
   <g id="patch_47">
    <path d="M 873.463865 448.56 
L 886.198745 448.56 
L 886.198745 413.118904 
L 873.463865 413.118904 
z
" clip-path="url(#p5ef09f1423)" style="fill: #aec7e8"/>
   </g>
   <g id="patch_48">
    <path d="M 889.382465 448.56 
L 902.117345 448.56 
L 902.117345 372.614795 
L 889.382465 372.614795 
z
" clip-path="url(#p5ef09f1423)" style="fill: #aec7e8"/>
   </g>
   <g id="patch_49">
    <path d="M 905.301065 448.56 
L 918.035945 448.56 
L 918.035945 387.803836 
L 905.301065 387.803836 
z
" clip-path="url(#p5ef09f1423)" style="fill: #aec7e8"/>
   </g>
   <g id="patch_50">
    <path d="M 921.219665 448.56 
L 933.954545 448.56 
L 933.954545 367.551781 
L 921.219665 367.551781 
z
" clip-path="url(#p5ef09f1423)" style="fill: #aec7e8"/>
   </g>
   <g id="patch_51">
    <path d="M 173.045455 397.929863 
L 185.780335 397.929863 
L 185.780335 352.36274 
L 173.045455 352.36274 
z
" clip-path="url(#p5ef09f1423)" style="fill: #ffbb78"/>
   </g>
   <g id="patch_52">
    <path d="M 188.964055 332.110685 
L 201.698935 332.110685 
L 201.698935 266.291507 
L 188.964055 266.291507 
z
" clip-path="url(#p5ef09f1423)" style="fill: #ffbb78"/>
   </g>
   <g id="patch_53">
    <path d="M 204.882655 382.740822 
L 217.617535 382.740822 
L 217.617535 342.236712 
L 204.882655 342.236712 
z
" clip-path="url(#p5ef09f1423)" style="fill: #ffbb78"/>
   </g>
   <g id="patch_54">
    <path d="M 220.801255 397.929863 
L 233.536135 397.929863 
L 233.536135 342.236712 
L 220.801255 342.236712 
z
" clip-path="url(#p5ef09f1423)" style="fill: #ffbb78"/>
   </g>
   <g id="patch_55">
    <path d="M 236.719855 362.488767 
L 249.454736 362.488767 
L 249.454736 332.110685 
L 236.719855 332.110685 
z
" clip-path="url(#p5ef09f1423)" style="fill: #ffbb78"/>
   </g>
   <g id="patch_56">
    <path d="M 252.638456 387.803836 
L 265.373336 387.803836 
L 265.373336 316.921644 
L 252.638456 316.921644 
z
" clip-path="url(#p5ef09f1423)" style="fill: #ffbb78"/>
   </g>
   <g id="patch_57">
    <path d="M 268.557056 382.740822 
L 281.291936 382.740822 
L 281.291936 332.110685 
L 268.557056 332.110685 
z
" clip-path="url(#p5ef09f1423)" style="fill: #ffbb78"/>
   </g>
   <g id="patch_58">
    <path d="M 284.475656 397.929863 
L 297.210536 397.929863 
L 297.210536 327.047671 
L 284.475656 327.047671 
z
" clip-path="url(#p5ef09f1423)" style="fill: #ffbb78"/>
   </g>
   <g id="patch_59">
    <path d="M 300.394256 367.551781 
L 313.129137 367.551781 
L 313.129137 316.921644 
L 300.394256 316.921644 
z
" clip-path="url(#p5ef09f1423)" style="fill: #ffbb78"/>
   </g>
   <g id="patch_60">
    <path d="M 316.312857 408.05589 
L 329.047737 408.05589 
L 329.047737 377.677808 
L 316.312857 377.677808 
z
" clip-path="url(#p5ef09f1423)" style="fill: #ffbb78"/>
   </g>
   <g id="patch_61">
    <path d="M 332.231457 418.181918 
L 344.966337 418.181918 
L 344.966337 392.866849 
L 332.231457 392.866849 
z
" clip-path="url(#p5ef09f1423)" style="fill: #ffbb78"/>
   </g>
   <g id="patch_62">
    <path d="M 348.150057 402.992877 
L 360.884937 402.992877 
L 360.884937 377.677808 
L 348.150057 377.677808 
z
" clip-path="url(#p5ef09f1423)" style="fill: #ffbb78"/>
   </g>
   <g id="patch_63">
    <path d="M 364.068657 448.56 
L 376.803537 448.56 
L 376.803537 448.56 
L 364.068657 448.56 
z
" clip-path="url(#p5ef09f1423)" style="fill: #ffbb78"/>
   </g>
   <g id="patch_64">
    <path d="M 379.987258 443.496986 
L 392.722138 443.496986 
L 392.722138 443.496986 
L 379.987258 443.496986 
z
" clip-path="url(#p5ef09f1423)" style="fill: #ffbb78"/>
   </g>
   <g id="patch_65">
    <path d="M 395.905858 438.433973 
L 408.640738 438.433973 
L 408.640738 428.307945 
L 395.905858 428.307945 
z
" clip-path="url(#p5ef09f1423)" style="fill: #ffbb78"/>
   </g>
   <g id="patch_66">
    <path d="M 411.824458 438.433973 
L 424.559338 438.433973 
L 424.559338 423.244932 
L 411.824458 423.244932 
z
" clip-path="url(#p5ef09f1423)" style="fill: #ffbb78"/>
   </g>
   <g id="patch_67">
    <path d="M 427.743058 413.118904 
L 440.477938 413.118904 
L 440.477938 387.803836 
L 427.743058 387.803836 
z
" clip-path="url(#p5ef09f1423)" style="fill: #ffbb78"/>
   </g>
   <g id="patch_68">
    <path d="M 443.661658 397.929863 
L 456.396539 397.929863 
L 456.396539 377.677808 
L 443.661658 377.677808 
z
" clip-path="url(#p5ef09f1423)" style="fill: #ffbb78"/>
   </g>
   <g id="patch_69">
    <path d="M 459.580259 423.244932 
L 472.315139 423.244932 
L 472.315139 377.677808 
L 459.580259 377.677808 
z
" clip-path="url(#p5ef09f1423)" style="fill: #ffbb78"/>
   </g>
   <g id="patch_70">
    <path d="M 475.498859 413.118904 
L 488.233739 413.118904 
L 488.233739 352.36274 
L 475.498859 352.36274 
z
" clip-path="url(#p5ef09f1423)" style="fill: #ffbb78"/>
   </g>
   <g id="patch_71">
    <path d="M 491.417459 408.05589 
L 504.152339 408.05589 
L 504.152339 352.36274 
L 491.417459 352.36274 
z
" clip-path="url(#p5ef09f1423)" style="fill: #ffbb78"/>
   </g>
   <g id="patch_72">
    <path d="M 507.336059 372.614795 
L 520.07094 372.614795 
L 520.07094 311.85863 
L 507.336059 311.85863 
z
" clip-path="url(#p5ef09f1423)" style="fill: #ffbb78"/>
   </g>
   <g id="patch_73">
    <path d="M 523.25466 387.803836 
L 535.98954 387.803836 
L 535.98954 321.984658 
L 523.25466 321.984658 
z
" clip-path="url(#p5ef09f1423)" style="fill: #ffbb78"/>
   </g>
   <g id="patch_74">
    <path d="M 539.17326 321.984658 
L 551.90814 321.984658 
L 551.90814 266.291507 
L 539.17326 266.291507 
z
" clip-path="url(#p5ef09f1423)" style="fill: #ffbb78"/>
   </g>
   <g id="patch_75">
    <path d="M 555.09186 413.118904 
L 567.82674 413.118904 
L 567.82674 362.488767 
L 555.09186 362.488767 
z
" clip-path="url(#p5ef09f1423)" style="fill: #ffbb78"/>
   </g>
   <g id="patch_76">
    <path d="M 571.01046 408.05589 
L 583.74534 408.05589 
L 583.74534 372.614795 
L 571.01046 372.614795 
z
" clip-path="url(#p5ef09f1423)" style="fill: #ffbb78"/>
   </g>
   <g id="patch_77">
    <path d="M 586.92906 418.181918 
L 599.663941 418.181918 
L 599.663941 372.614795 
L 586.92906 372.614795 
z
" clip-path="url(#p5ef09f1423)" style="fill: #ffbb78"/>
   </g>
   <g id="patch_78">
    <path d="M 602.847661 413.118904 
L 615.582541 413.118904 
L 615.582541 382.740822 
L 602.847661 382.740822 
z
" clip-path="url(#p5ef09f1423)" style="fill: #ffbb78"/>
   </g>
   <g id="patch_79">
    <path d="M 618.766261 397.929863 
L 631.501141 397.929863 
L 631.501141 306.795616 
L 618.766261 306.795616 
z
" clip-path="url(#p5ef09f1423)" style="fill: #ffbb78"/>
   </g>
   <g id="patch_80">
    <path d="M 634.684861 372.614795 
L 647.419741 372.614795 
L 647.419741 327.047671 
L 634.684861 327.047671 
z
" clip-path="url(#p5ef09f1423)" style="fill: #ffbb78"/>
   </g>
   <g id="patch_81">
    <path d="M 650.603461 387.803836 
L 663.338342 387.803836 
L 663.338342 342.236712 
L 650.603461 342.236712 
z
" clip-path="url(#p5ef09f1423)" style="fill: #ffbb78"/>
   </g>
   <g id="patch_82">
    <path d="M 666.522062 382.740822 
L 679.256942 382.740822 
L 679.256942 311.85863 
L 666.522062 311.85863 
z
" clip-path="url(#p5ef09f1423)" style="fill: #ffbb78"/>
   </g>
   <g id="patch_83">
    <path d="M 682.440662 387.803836 
L 695.175542 387.803836 
L 695.175542 311.85863 
L 682.440662 311.85863 
z
" clip-path="url(#p5ef09f1423)" style="fill: #ffbb78"/>
   </g>
   <g id="patch_84">
    <path d="M 698.359262 413.118904 
L 711.094142 413.118904 
L 711.094142 362.488767 
L 698.359262 362.488767 
z
" clip-path="url(#p5ef09f1423)" style="fill: #ffbb78"/>
   </g>
   <g id="patch_85">
    <path d="M 714.277862 367.551781 
L 727.012742 367.551781 
L 727.012742 342.236712 
L 714.277862 342.236712 
z
" clip-path="url(#p5ef09f1423)" style="fill: #ffbb78"/>
   </g>
   <g id="patch_86">
    <path d="M 730.196463 352.36274 
L 742.931343 352.36274 
L 742.931343 311.85863 
L 730.196463 311.85863 
z
" clip-path="url(#p5ef09f1423)" style="fill: #ffbb78"/>
   </g>
   <g id="patch_87">
    <path d="M 746.115063 443.496986 
L 758.849943 443.496986 
L 758.849943 433.370959 
L 746.115063 433.370959 
z
" clip-path="url(#p5ef09f1423)" style="fill: #ffbb78"/>
   </g>
   <g id="patch_88">
    <path d="M 762.033663 428.307945 
L 774.768543 428.307945 
L 774.768543 397.929863 
L 762.033663 397.929863 
z
" clip-path="url(#p5ef09f1423)" style="fill: #ffbb78"/>
   </g>
   <g id="patch_89">
    <path d="M 777.952263 443.496986 
L 790.687143 443.496986 
L 790.687143 443.496986 
L 777.952263 443.496986 
z
" clip-path="url(#p5ef09f1423)" style="fill: #ffbb78"/>
   </g>
   <g id="patch_90">
    <path d="M 793.870863 438.433973 
L 806.605744 438.433973 
L 806.605744 428.307945 
L 793.870863 428.307945 
z
" clip-path="url(#p5ef09f1423)" style="fill: #ffbb78"/>
   </g>
   <g id="patch_91">
    <path d="M 809.789464 413.118904 
L 822.524344 413.118904 
L 822.524344 382.740822 
L 809.789464 382.740822 
z
" clip-path="url(#p5ef09f1423)" style="fill: #ffbb78"/>
   </g>
   <g id="patch_92">
    <path d="M 825.708064 387.803836 
L 838.442944 387.803836 
L 838.442944 337.173699 
L 825.708064 337.173699 
z
" clip-path="url(#p5ef09f1423)" style="fill: #ffbb78"/>
   </g>
   <g id="patch_93">
    <path d="M 841.626664 362.488767 
L 854.361544 362.488767 
L 854.361544 321.984658 
L 841.626664 321.984658 
z
" clip-path="url(#p5ef09f1423)" style="fill: #ffbb78"/>
   </g>
   <g id="patch_94">
    <path d="M 857.545264 367.551781 
L 870.280145 367.551781 
L 870.280145 311.85863 
L 857.545264 311.85863 
z
" clip-path="url(#p5ef09f1423)" style="fill: #ffbb78"/>
   </g>
   <g id="patch_95">
    <path d="M 873.463865 413.118904 
L 886.198745 413.118904 
L 886.198745 332.110685 
L 873.463865 332.110685 
z
" clip-path="url(#p5ef09f1423)" style="fill: #ffbb78"/>
   </g>
   <g id="patch_96">
    <path d="M 889.382465 372.614795 
L 902.117345 372.614795 
L 902.117345 337.173699 
L 889.382465 337.173699 
z
" clip-path="url(#p5ef09f1423)" style="fill: #ffbb78"/>
   </g>
   <g id="patch_97">
    <path d="M 905.301065 387.803836 
L 918.035945 387.803836 
L 918.035945 332.110685 
L 905.301065 332.110685 
z
" clip-path="url(#p5ef09f1423)" style="fill: #ffbb78"/>
   </g>
   <g id="patch_98">
    <path d="M 921.219665 367.551781 
L 933.954545 367.551781 
L 933.954545 321.984658 
L 921.219665 321.984658 
z
" clip-path="url(#p5ef09f1423)" style="fill: #ffbb78"/>
   </g>
   <g id="patch_99">
    <path d="M 173.045455 352.36274 
L 185.780335 352.36274 
L 185.780335 352.36274 
L 173.045455 352.36274 
z
" clip-path="url(#p5ef09f1423)" style="fill: #ff9896"/>
   </g>
   <g id="patch_100">
    <path d="M 188.964055 266.291507 
L 201.698935 266.291507 
L 201.698935 266.291507 
L 188.964055 266.291507 
z
" clip-path="url(#p5ef09f1423)" style="fill: #ff9896"/>
   </g>
   <g id="patch_101">
    <path d="M 204.882655 342.236712 
L 217.617535 342.236712 
L 217.617535 342.236712 
L 204.882655 342.236712 
z
" clip-path="url(#p5ef09f1423)" style="fill: #ff9896"/>
   </g>
   <g id="patch_102">
    <path d="M 220.801255 342.236712 
L 233.536135 342.236712 
L 233.536135 342.236712 
L 220.801255 342.236712 
z
" clip-path="url(#p5ef09f1423)" style="fill: #ff9896"/>
   </g>
   <g id="patch_103">
    <path d="M 236.719855 332.110685 
L 249.454736 332.110685 
L 249.454736 332.110685 
L 236.719855 332.110685 
z
" clip-path="url(#p5ef09f1423)" style="fill: #ff9896"/>
   </g>
   <g id="patch_104">
    <path d="M 252.638456 316.921644 
L 265.373336 316.921644 
L 265.373336 316.921644 
L 252.638456 316.921644 
z
" clip-path="url(#p5ef09f1423)" style="fill: #ff9896"/>
   </g>
   <g id="patch_105">
    <path d="M 268.557056 332.110685 
L 281.291936 332.110685 
L 281.291936 332.110685 
L 268.557056 332.110685 
z
" clip-path="url(#p5ef09f1423)" style="fill: #ff9896"/>
   </g>
   <g id="patch_106">
    <path d="M 284.475656 327.047671 
L 297.210536 327.047671 
L 297.210536 327.047671 
L 284.475656 327.047671 
z
" clip-path="url(#p5ef09f1423)" style="fill: #ff9896"/>
   </g>
   <g id="patch_107">
    <path d="M 300.394256 316.921644 
L 313.129137 316.921644 
L 313.129137 316.921644 
L 300.394256 316.921644 
z
" clip-path="url(#p5ef09f1423)" style="fill: #ff9896"/>
   </g>
   <g id="patch_108">
    <path d="M 316.312857 377.677808 
L 329.047737 377.677808 
L 329.047737 377.677808 
L 316.312857 377.677808 
z
" clip-path="url(#p5ef09f1423)" style="fill: #ff9896"/>
   </g>
   <g id="patch_109">
    <path d="M 332.231457 392.866849 
L 344.966337 392.866849 
L 344.966337 392.866849 
L 332.231457 392.866849 
z
" clip-path="url(#p5ef09f1423)" style="fill: #ff9896"/>
   </g>
   <g id="patch_110">
    <path d="M 348.150057 377.677808 
L 360.884937 377.677808 
L 360.884937 377.677808 
L 348.150057 377.677808 
z
" clip-path="url(#p5ef09f1423)" style="fill: #ff9896"/>
   </g>
   <g id="patch_111">
    <path d="M 364.068657 448.56 
L 376.803537 448.56 
L 376.803537 448.56 
L 364.068657 448.56 
z
" clip-path="url(#p5ef09f1423)" style="fill: #ff9896"/>
   </g>
   <g id="patch_112">
    <path d="M 379.987258 443.496986 
L 392.722138 443.496986 
L 392.722138 443.496986 
L 379.987258 443.496986 
z
" clip-path="url(#p5ef09f1423)" style="fill: #ff9896"/>
   </g>
   <g id="patch_113">
    <path d="M 395.905858 428.307945 
L 408.640738 428.307945 
L 408.640738 428.307945 
L 395.905858 428.307945 
z
" clip-path="url(#p5ef09f1423)" style="fill: #ff9896"/>
   </g>
   <g id="patch_114">
    <path d="M 411.824458 423.244932 
L 424.559338 423.244932 
L 424.559338 423.244932 
L 411.824458 423.244932 
z
" clip-path="url(#p5ef09f1423)" style="fill: #ff9896"/>
   </g>
   <g id="patch_115">
    <path d="M 427.743058 387.803836 
L 440.477938 387.803836 
L 440.477938 387.803836 
L 427.743058 387.803836 
z
" clip-path="url(#p5ef09f1423)" style="fill: #ff9896"/>
   </g>
   <g id="patch_116">
    <path d="M 443.661658 377.677808 
L 456.396539 377.677808 
L 456.396539 377.677808 
L 443.661658 377.677808 
z
" clip-path="url(#p5ef09f1423)" style="fill: #ff9896"/>
   </g>
   <g id="patch_117">
    <path d="M 459.580259 377.677808 
L 472.315139 377.677808 
L 472.315139 377.677808 
L 459.580259 377.677808 
z
" clip-path="url(#p5ef09f1423)" style="fill: #ff9896"/>
   </g>
   <g id="patch_118">
    <path d="M 475.498859 352.36274 
L 488.233739 352.36274 
L 488.233739 352.36274 
L 475.498859 352.36274 
z
" clip-path="url(#p5ef09f1423)" style="fill: #ff9896"/>
   </g>
   <g id="patch_119">
    <path d="M 491.417459 352.36274 
L 504.152339 352.36274 
L 504.152339 352.36274 
L 491.417459 352.36274 
z
" clip-path="url(#p5ef09f1423)" style="fill: #ff9896"/>
   </g>
   <g id="patch_120">
    <path d="M 507.336059 311.85863 
L 520.07094 311.85863 
L 520.07094 311.85863 
L 507.336059 311.85863 
z
" clip-path="url(#p5ef09f1423)" style="fill: #ff9896"/>
   </g>
   <g id="patch_121">
    <path d="M 523.25466 321.984658 
L 535.98954 321.984658 
L 535.98954 321.984658 
L 523.25466 321.984658 
z
" clip-path="url(#p5ef09f1423)" style="fill: #ff9896"/>
   </g>
   <g id="patch_122">
    <path d="M 539.17326 266.291507 
L 551.90814 266.291507 
L 551.90814 266.291507 
L 539.17326 266.291507 
z
" clip-path="url(#p5ef09f1423)" style="fill: #ff9896"/>
   </g>
   <g id="patch_123">
    <path d="M 555.09186 362.488767 
L 567.82674 362.488767 
L 567.82674 362.488767 
L 555.09186 362.488767 
z
" clip-path="url(#p5ef09f1423)" style="fill: #ff9896"/>
   </g>
   <g id="patch_124">
    <path d="M 571.01046 372.614795 
L 583.74534 372.614795 
L 583.74534 372.614795 
L 571.01046 372.614795 
z
" clip-path="url(#p5ef09f1423)" style="fill: #ff9896"/>
   </g>
   <g id="patch_125">
    <path d="M 586.92906 372.614795 
L 599.663941 372.614795 
L 599.663941 372.614795 
L 586.92906 372.614795 
z
" clip-path="url(#p5ef09f1423)" style="fill: #ff9896"/>
   </g>
   <g id="patch_126">
    <path d="M 602.847661 382.740822 
L 615.582541 382.740822 
L 615.582541 382.740822 
L 602.847661 382.740822 
z
" clip-path="url(#p5ef09f1423)" style="fill: #ff9896"/>
   </g>
   <g id="patch_127">
    <path d="M 618.766261 306.795616 
L 631.501141 306.795616 
L 631.501141 306.795616 
L 618.766261 306.795616 
z
" clip-path="url(#p5ef09f1423)" style="fill: #ff9896"/>
   </g>
   <g id="patch_128">
    <path d="M 634.684861 327.047671 
L 647.419741 327.047671 
L 647.419741 327.047671 
L 634.684861 327.047671 
z
" clip-path="url(#p5ef09f1423)" style="fill: #ff9896"/>
   </g>
   <g id="patch_129">
    <path d="M 650.603461 342.236712 
L 663.338342 342.236712 
L 663.338342 342.236712 
L 650.603461 342.236712 
z
" clip-path="url(#p5ef09f1423)" style="fill: #ff9896"/>
   </g>
   <g id="patch_130">
    <path d="M 666.522062 311.85863 
L 679.256942 311.85863 
L 679.256942 311.85863 
L 666.522062 311.85863 
z
" clip-path="url(#p5ef09f1423)" style="fill: #ff9896"/>
   </g>
   <g id="patch_131">
    <path d="M 682.440662 311.85863 
L 695.175542 311.85863 
L 695.175542 311.85863 
L 682.440662 311.85863 
z
" clip-path="url(#p5ef09f1423)" style="fill: #ff9896"/>
   </g>
   <g id="patch_132">
    <path d="M 698.359262 362.488767 
L 711.094142 362.488767 
L 711.094142 362.488767 
L 698.359262 362.488767 
z
" clip-path="url(#p5ef09f1423)" style="fill: #ff9896"/>
   </g>
   <g id="patch_133">
    <path d="M 714.277862 342.236712 
L 727.012742 342.236712 
L 727.012742 342.236712 
L 714.277862 342.236712 
z
" clip-path="url(#p5ef09f1423)" style="fill: #ff9896"/>
   </g>
   <g id="patch_134">
    <path d="M 730.196463 311.85863 
L 742.931343 311.85863 
L 742.931343 311.85863 
L 730.196463 311.85863 
z
" clip-path="url(#p5ef09f1423)" style="fill: #ff9896"/>
   </g>
   <g id="patch_135">
    <path d="M 746.115063 433.370959 
L 758.849943 433.370959 
L 758.849943 433.370959 
L 746.115063 433.370959 
z
" clip-path="url(#p5ef09f1423)" style="fill: #ff9896"/>
   </g>
   <g id="patch_136">
    <path d="M 762.033663 397.929863 
L 774.768543 397.929863 
L 774.768543 397.929863 
L 762.033663 397.929863 
z
" clip-path="url(#p5ef09f1423)" style="fill: #ff9896"/>
   </g>
   <g id="patch_137">
    <path d="M 777.952263 443.496986 
L 790.687143 443.496986 
L 790.687143 443.496986 
L 777.952263 443.496986 
z
" clip-path="url(#p5ef09f1423)" style="fill: #ff9896"/>
   </g>
   <g id="patch_138">
    <path d="M 793.870863 428.307945 
L 806.605744 428.307945 
L 806.605744 428.307945 
L 793.870863 428.307945 
z
" clip-path="url(#p5ef09f1423)" style="fill: #ff9896"/>
   </g>
   <g id="patch_139">
    <path d="M 809.789464 382.740822 
L 822.524344 382.740822 
L 822.524344 382.740822 
L 809.789464 382.740822 
z
" clip-path="url(#p5ef09f1423)" style="fill: #ff9896"/>
   </g>
   <g id="patch_140">
    <path d="M 825.708064 337.173699 
L 838.442944 337.173699 
L 838.442944 337.173699 
L 825.708064 337.173699 
z
" clip-path="url(#p5ef09f1423)" style="fill: #ff9896"/>
   </g>
   <g id="patch_141">
    <path d="M 841.626664 321.984658 
L 854.361544 321.984658 
L 854.361544 321.984658 
L 841.626664 321.984658 
z
" clip-path="url(#p5ef09f1423)" style="fill: #ff9896"/>
   </g>
   <g id="patch_142">
    <path d="M 857.545264 311.85863 
L 870.280145 311.85863 
L 870.280145 311.85863 
L 857.545264 311.85863 
z
" clip-path="url(#p5ef09f1423)" style="fill: #ff9896"/>
   </g>
   <g id="patch_143">
    <path d="M 873.463865 332.110685 
L 886.198745 332.110685 
L 886.198745 332.110685 
L 873.463865 332.110685 
z
" clip-path="url(#p5ef09f1423)" style="fill: #ff9896"/>
   </g>
   <g id="patch_144">
    <path d="M 889.382465 337.173699 
L 902.117345 337.173699 
L 902.117345 337.173699 
L 889.382465 337.173699 
z
" clip-path="url(#p5ef09f1423)" style="fill: #ff9896"/>
   </g>
   <g id="patch_145">
    <path d="M 905.301065 332.110685 
L 918.035945 332.110685 
L 918.035945 332.110685 
L 905.301065 332.110685 
z
" clip-path="url(#p5ef09f1423)" style="fill: #ff9896"/>
   </g>
   <g id="patch_146">
    <path d="M 921.219665 321.984658 
L 933.954545 321.984658 
L 933.954545 321.984658 
L 921.219665 321.984658 
z
" clip-path="url(#p5ef09f1423)" style="fill: #ff9896"/>
   </g>
   <g id="patch_147">
    <path d="M 173.045455 352.36274 
L 185.780335 352.36274 
L 185.780335 306.795616 
L 173.045455 306.795616 
z
" clip-path="url(#p5ef09f1423)" style="fill: #1f77b4"/>
   </g>
   <g id="patch_148">
    <path d="M 188.964055 266.291507 
L 201.698935 266.291507 
L 201.698935 251.102466 
L 188.964055 251.102466 
z
" clip-path="url(#p5ef09f1423)" style="fill: #1f77b4"/>
   </g>
   <g id="patch_149">
    <path d="M 204.882655 342.236712 
L 217.617535 342.236712 
L 217.617535 276.417534 
L 204.882655 276.417534 
z
" clip-path="url(#p5ef09f1423)" style="fill: #1f77b4"/>
   </g>
   <g id="patch_150">
    <path d="M 220.801255 342.236712 
L 233.536135 342.236712 
L 233.536135 296.669589 
L 220.801255 296.669589 
z
" clip-path="url(#p5ef09f1423)" style="fill: #1f77b4"/>
   </g>
   <g id="patch_151">
    <path d="M 236.719855 332.110685 
L 249.454736 332.110685 
L 249.454736 276.417534 
L 236.719855 276.417534 
z
" clip-path="url(#p5ef09f1423)" style="fill: #1f77b4"/>
   </g>
   <g id="patch_152">
    <path d="M 252.638456 316.921644 
L 265.373336 316.921644 
L 265.373336 276.417534 
L 252.638456 276.417534 
z
" clip-path="url(#p5ef09f1423)" style="fill: #1f77b4"/>
   </g>
   <g id="patch_153">
    <path d="M 268.557056 332.110685 
L 281.291936 332.110685 
L 281.291936 301.732603 
L 268.557056 301.732603 
z
" clip-path="url(#p5ef09f1423)" style="fill: #1f77b4"/>
   </g>
   <g id="patch_154">
    <path d="M 284.475656 327.047671 
L 297.210536 327.047671 
L 297.210536 291.606575 
L 284.475656 291.606575 
z
" clip-path="url(#p5ef09f1423)" style="fill: #1f77b4"/>
   </g>
   <g id="patch_155">
    <path d="M 300.394256 316.921644 
L 313.129137 316.921644 
L 313.129137 261.228493 
L 300.394256 261.228493 
z
" clip-path="url(#p5ef09f1423)" style="fill: #1f77b4"/>
   </g>
   <g id="patch_156">
    <path d="M 316.312857 377.677808 
L 329.047737 377.677808 
L 329.047737 342.236712 
L 316.312857 342.236712 
z
" clip-path="url(#p5ef09f1423)" style="fill: #1f77b4"/>
   </g>
   <g id="patch_157">
    <path d="M 332.231457 392.866849 
L 344.966337 392.866849 
L 344.966337 387.803836 
L 332.231457 387.803836 
z
" clip-path="url(#p5ef09f1423)" style="fill: #1f77b4"/>
   </g>
   <g id="patch_158">
    <path d="M 348.150057 377.677808 
L 360.884937 377.677808 
L 360.884937 352.36274 
L 348.150057 352.36274 
z
" clip-path="url(#p5ef09f1423)" style="fill: #1f77b4"/>
   </g>
   <g id="patch_159">
    <path d="M 364.068657 448.56 
L 376.803537 448.56 
L 376.803537 433.370959 
L 364.068657 433.370959 
z
" clip-path="url(#p5ef09f1423)" style="fill: #1f77b4"/>
   </g>
   <g id="patch_160">
    <path d="M 379.987258 443.496986 
L 392.722138 443.496986 
L 392.722138 443.496986 
L 379.987258 443.496986 
z
" clip-path="url(#p5ef09f1423)" style="fill: #1f77b4"/>
   </g>
   <g id="patch_161">
    <path d="M 395.905858 428.307945 
L 408.640738 428.307945 
L 408.640738 428.307945 
L 395.905858 428.307945 
z
" clip-path="url(#p5ef09f1423)" style="fill: #1f77b4"/>
   </g>
   <g id="patch_162">
    <path d="M 411.824458 423.244932 
L 424.559338 423.244932 
L 424.559338 413.118904 
L 411.824458 413.118904 
z
" clip-path="url(#p5ef09f1423)" style="fill: #1f77b4"/>
   </g>
   <g id="patch_163">
    <path d="M 427.743058 387.803836 
L 440.477938 387.803836 
L 440.477938 377.677808 
L 427.743058 377.677808 
z
" clip-path="url(#p5ef09f1423)" style="fill: #1f77b4"/>
   </g>
   <g id="patch_164">
    <path d="M 443.661658 377.677808 
L 456.396539 377.677808 
L 456.396539 347.299726 
L 443.661658 347.299726 
z
" clip-path="url(#p5ef09f1423)" style="fill: #1f77b4"/>
   </g>
   <g id="patch_165">
    <path d="M 459.580259 377.677808 
L 472.315139 377.677808 
L 472.315139 332.110685 
L 459.580259 332.110685 
z
" clip-path="url(#p5ef09f1423)" style="fill: #1f77b4"/>
   </g>
   <g id="patch_166">
    <path d="M 475.498859 352.36274 
L 488.233739 352.36274 
L 488.233739 296.669589 
L 475.498859 296.669589 
z
" clip-path="url(#p5ef09f1423)" style="fill: #1f77b4"/>
   </g>
   <g id="patch_167">
    <path d="M 491.417459 352.36274 
L 504.152339 352.36274 
L 504.152339 311.85863 
L 491.417459 311.85863 
z
" clip-path="url(#p5ef09f1423)" style="fill: #1f77b4"/>
   </g>
   <g id="patch_168">
    <path d="M 507.336059 311.85863 
L 520.07094 311.85863 
L 520.07094 281.480548 
L 507.336059 281.480548 
z
" clip-path="url(#p5ef09f1423)" style="fill: #1f77b4"/>
   </g>
   <g id="patch_169">
    <path d="M 523.25466 321.984658 
L 535.98954 321.984658 
L 535.98954 276.417534 
L 523.25466 276.417534 
z
" clip-path="url(#p5ef09f1423)" style="fill: #1f77b4"/>
   </g>
   <g id="patch_170">
    <path d="M 539.17326 266.291507 
L 551.90814 266.291507 
L 551.90814 220.724384 
L 539.17326 220.724384 
z
" clip-path="url(#p5ef09f1423)" style="fill: #1f77b4"/>
   </g>
   <g id="patch_171">
    <path d="M 555.09186 362.488767 
L 567.82674 362.488767 
L 567.82674 347.299726 
L 555.09186 347.299726 
z
" clip-path="url(#p5ef09f1423)" style="fill: #1f77b4"/>
   </g>
   <g id="patch_172">
    <path d="M 571.01046 372.614795 
L 583.74534 372.614795 
L 583.74534 321.984658 
L 571.01046 321.984658 
z
" clip-path="url(#p5ef09f1423)" style="fill: #1f77b4"/>
   </g>
   <g id="patch_173">
    <path d="M 586.92906 372.614795 
L 599.663941 372.614795 
L 599.663941 337.173699 
L 586.92906 337.173699 
z
" clip-path="url(#p5ef09f1423)" style="fill: #1f77b4"/>
   </g>
   <g id="patch_174">
    <path d="M 602.847661 382.740822 
L 615.582541 382.740822 
L 615.582541 327.047671 
L 602.847661 327.047671 
z
" clip-path="url(#p5ef09f1423)" style="fill: #1f77b4"/>
   </g>
   <g id="patch_175">
    <path d="M 618.766261 306.795616 
L 631.501141 306.795616 
L 631.501141 276.417534 
L 618.766261 276.417534 
z
" clip-path="url(#p5ef09f1423)" style="fill: #1f77b4"/>
   </g>
   <g id="patch_176">
    <path d="M 634.684861 327.047671 
L 647.419741 327.047671 
L 647.419741 276.417534 
L 634.684861 276.417534 
z
" clip-path="url(#p5ef09f1423)" style="fill: #1f77b4"/>
   </g>
   <g id="patch_177">
    <path d="M 650.603461 342.236712 
L 663.338342 342.236712 
L 663.338342 281.480548 
L 650.603461 281.480548 
z
" clip-path="url(#p5ef09f1423)" style="fill: #1f77b4"/>
   </g>
   <g id="patch_178">
    <path d="M 666.522062 311.85863 
L 679.256942 311.85863 
L 679.256942 286.543562 
L 666.522062 286.543562 
z
" clip-path="url(#p5ef09f1423)" style="fill: #1f77b4"/>
   </g>
   <g id="patch_179">
    <path d="M 682.440662 311.85863 
L 695.175542 311.85863 
L 695.175542 281.480548 
L 682.440662 281.480548 
z
" clip-path="url(#p5ef09f1423)" style="fill: #1f77b4"/>
   </g>
   <g id="patch_180">
    <path d="M 698.359262 362.488767 
L 711.094142 362.488767 
L 711.094142 306.795616 
L 698.359262 306.795616 
z
" clip-path="url(#p5ef09f1423)" style="fill: #1f77b4"/>
   </g>
   <g id="patch_181">
    <path d="M 714.277862 342.236712 
L 727.012742 342.236712 
L 727.012742 316.921644 
L 714.277862 316.921644 
z
" clip-path="url(#p5ef09f1423)" style="fill: #1f77b4"/>
   </g>
   <g id="patch_182">
    <path d="M 730.196463 311.85863 
L 742.931343 311.85863 
L 742.931343 286.543562 
L 730.196463 286.543562 
z
" clip-path="url(#p5ef09f1423)" style="fill: #1f77b4"/>
   </g>
   <g id="patch_183">
    <path d="M 746.115063 433.370959 
L 758.849943 433.370959 
L 758.849943 428.307945 
L 746.115063 428.307945 
z
" clip-path="url(#p5ef09f1423)" style="fill: #1f77b4"/>
   </g>
   <g id="patch_184">
    <path d="M 762.033663 397.929863 
L 774.768543 397.929863 
L 774.768543 392.866849 
L 762.033663 392.866849 
z
" clip-path="url(#p5ef09f1423)" style="fill: #1f77b4"/>
   </g>
   <g id="patch_185">
    <path d="M 777.952263 443.496986 
L 790.687143 443.496986 
L 790.687143 423.244932 
L 777.952263 423.244932 
z
" clip-path="url(#p5ef09f1423)" style="fill: #1f77b4"/>
   </g>
   <g id="patch_186">
    <path d="M 793.870863 428.307945 
L 806.605744 428.307945 
L 806.605744 392.866849 
L 793.870863 392.866849 
z
" clip-path="url(#p5ef09f1423)" style="fill: #1f77b4"/>
   </g>
   <g id="patch_187">
    <path d="M 809.789464 382.740822 
L 822.524344 382.740822 
L 822.524344 372.614795 
L 809.789464 372.614795 
z
" clip-path="url(#p5ef09f1423)" style="fill: #1f77b4"/>
   </g>
   <g id="patch_188">
    <path d="M 825.708064 337.173699 
L 838.442944 337.173699 
L 838.442944 286.543562 
L 825.708064 286.543562 
z
" clip-path="url(#p5ef09f1423)" style="fill: #1f77b4"/>
   </g>
   <g id="patch_189">
    <path d="M 841.626664 321.984658 
L 854.361544 321.984658 
L 854.361544 266.291507 
L 841.626664 266.291507 
z
" clip-path="url(#p5ef09f1423)" style="fill: #1f77b4"/>
   </g>
   <g id="patch_190">
    <path d="M 857.545264 311.85863 
L 870.280145 311.85863 
L 870.280145 286.543562 
L 857.545264 286.543562 
z
" clip-path="url(#p5ef09f1423)" style="fill: #1f77b4"/>
   </g>
   <g id="patch_191">
    <path d="M 873.463865 332.110685 
L 886.198745 332.110685 
L 886.198745 286.543562 
L 873.463865 286.543562 
z
" clip-path="url(#p5ef09f1423)" style="fill: #1f77b4"/>
   </g>
   <g id="patch_192">
    <path d="M 889.382465 337.173699 
L 902.117345 337.173699 
L 902.117345 301.732603 
L 889.382465 301.732603 
z
" clip-path="url(#p5ef09f1423)" style="fill: #1f77b4"/>
   </g>
   <g id="patch_193">
    <path d="M 905.301065 332.110685 
L 918.035945 332.110685 
L 918.035945 291.606575 
L 905.301065 291.606575 
z
" clip-path="url(#p5ef09f1423)" style="fill: #1f77b4"/>
   </g>
   <g id="patch_194">
    <path d="M 921.219665 321.984658 
L 933.954545 321.984658 
L 933.954545 286.543562 
L 921.219665 286.543562 
z
" clip-path="url(#p5ef09f1423)" style="fill: #1f77b4"/>
   </g>
   <g id="patch_195">
    <path d="M 173.045455 306.795616 
L 185.780335 306.795616 
L 185.780335 281.480548 
L 173.045455 281.480548 
z
" clip-path="url(#p5ef09f1423)" style="fill: #ff7f0e"/>
   </g>
   <g id="patch_196">
    <path d="M 188.964055 251.102466 
L 201.698935 251.102466 
L 201.698935 230.850411 
L 188.964055 230.850411 
z
" clip-path="url(#p5ef09f1423)" style="fill: #ff7f0e"/>
   </g>
   <g id="patch_197">
    <path d="M 204.882655 276.417534 
L 217.617535 276.417534 
L 217.617535 235.913425 
L 204.882655 235.913425 
z
" clip-path="url(#p5ef09f1423)" style="fill: #ff7f0e"/>
   </g>
   <g id="patch_198">
    <path d="M 220.801255 296.669589 
L 233.536135 296.669589 
L 233.536135 210.598356 
L 220.801255 210.598356 
z
" clip-path="url(#p5ef09f1423)" style="fill: #ff7f0e"/>
   </g>
   <g id="patch_199">
    <path d="M 236.719855 276.417534 
L 249.454736 276.417534 
L 249.454736 220.724384 
L 236.719855 220.724384 
z
" clip-path="url(#p5ef09f1423)" style="fill: #ff7f0e"/>
   </g>
   <g id="patch_200">
    <path d="M 252.638456 276.417534 
L 265.373336 276.417534 
L 265.373336 225.787397 
L 252.638456 225.787397 
z
" clip-path="url(#p5ef09f1423)" style="fill: #ff7f0e"/>
   </g>
   <g id="patch_201">
    <path d="M 268.557056 301.732603 
L 281.291936 301.732603 
L 281.291936 240.976438 
L 268.557056 240.976438 
z
" clip-path="url(#p5ef09f1423)" style="fill: #ff7f0e"/>
   </g>
   <g id="patch_202">
    <path d="M 284.475656 291.606575 
L 297.210536 291.606575 
L 297.210536 230.850411 
L 284.475656 230.850411 
z
" clip-path="url(#p5ef09f1423)" style="fill: #ff7f0e"/>
   </g>
   <g id="patch_203">
    <path d="M 300.394256 261.228493 
L 313.129137 261.228493 
L 313.129137 215.66137 
L 300.394256 215.66137 
z
" clip-path="url(#p5ef09f1423)" style="fill: #ff7f0e"/>
   </g>
   <g id="patch_204">
    <path d="M 316.312857 342.236712 
L 329.047737 342.236712 
L 329.047737 271.354521 
L 316.312857 271.354521 
z
" clip-path="url(#p5ef09f1423)" style="fill: #ff7f0e"/>
   </g>
   <g id="patch_205">
    <path d="M 332.231457 387.803836 
L 344.966337 387.803836 
L 344.966337 357.425753 
L 332.231457 357.425753 
z
" clip-path="url(#p5ef09f1423)" style="fill: #ff7f0e"/>
   </g>
   <g id="patch_206">
    <path d="M 348.150057 352.36274 
L 360.884937 352.36274 
L 360.884937 327.047671 
L 348.150057 327.047671 
z
" clip-path="url(#p5ef09f1423)" style="fill: #ff7f0e"/>
   </g>
   <g id="patch_207">
    <path d="M 364.068657 433.370959 
L 376.803537 433.370959 
L 376.803537 433.370959 
L 364.068657 433.370959 
z
" clip-path="url(#p5ef09f1423)" style="fill: #ff7f0e"/>
   </g>
   <g id="patch_208">
    <path d="M 379.987258 443.496986 
L 392.722138 443.496986 
L 392.722138 443.496986 
L 379.987258 443.496986 
z
" clip-path="url(#p5ef09f1423)" style="fill: #ff7f0e"/>
   </g>
   <g id="patch_209">
    <path d="M 395.905858 428.307945 
L 408.640738 428.307945 
L 408.640738 428.307945 
L 395.905858 428.307945 
z
" clip-path="url(#p5ef09f1423)" style="fill: #ff7f0e"/>
   </g>
   <g id="patch_210">
    <path d="M 411.824458 413.118904 
L 424.559338 413.118904 
L 424.559338 402.992877 
L 411.824458 402.992877 
z
" clip-path="url(#p5ef09f1423)" style="fill: #ff7f0e"/>
   </g>
   <g id="patch_211">
    <path d="M 427.743058 377.677808 
L 440.477938 377.677808 
L 440.477938 357.425753 
L 427.743058 357.425753 
z
" clip-path="url(#p5ef09f1423)" style="fill: #ff7f0e"/>
   </g>
   <g id="patch_212">
    <path d="M 443.661658 347.299726 
L 456.396539 347.299726 
L 456.396539 332.110685 
L 443.661658 332.110685 
z
" clip-path="url(#p5ef09f1423)" style="fill: #ff7f0e"/>
   </g>
   <g id="patch_213">
    <path d="M 459.580259 332.110685 
L 472.315139 332.110685 
L 472.315139 301.732603 
L 459.580259 301.732603 
z
" clip-path="url(#p5ef09f1423)" style="fill: #ff7f0e"/>
   </g>
   <g id="patch_214">
    <path d="M 475.498859 296.669589 
L 488.233739 296.669589 
L 488.233739 235.913425 
L 475.498859 235.913425 
z
" clip-path="url(#p5ef09f1423)" style="fill: #ff7f0e"/>
   </g>
   <g id="patch_215">
    <path d="M 491.417459 311.85863 
L 504.152339 311.85863 
L 504.152339 261.228493 
L 491.417459 261.228493 
z
" clip-path="url(#p5ef09f1423)" style="fill: #ff7f0e"/>
   </g>
   <g id="patch_216">
    <path d="M 507.336059 281.480548 
L 520.07094 281.480548 
L 520.07094 230.850411 
L 507.336059 230.850411 
z
" clip-path="url(#p5ef09f1423)" style="fill: #ff7f0e"/>
   </g>
   <g id="patch_217">
    <path d="M 523.25466 276.417534 
L 535.98954 276.417534 
L 535.98954 220.724384 
L 523.25466 220.724384 
z
" clip-path="url(#p5ef09f1423)" style="fill: #ff7f0e"/>
   </g>
   <g id="patch_218">
    <path d="M 539.17326 220.724384 
L 551.90814 220.724384 
L 551.90814 154.905205 
L 539.17326 154.905205 
z
" clip-path="url(#p5ef09f1423)" style="fill: #ff7f0e"/>
   </g>
   <g id="patch_219">
    <path d="M 555.09186 347.299726 
L 567.82674 347.299726 
L 567.82674 296.669589 
L 555.09186 296.669589 
z
" clip-path="url(#p5ef09f1423)" style="fill: #ff7f0e"/>
   </g>
   <g id="patch_220">
    <path d="M 571.01046 321.984658 
L 583.74534 321.984658 
L 583.74534 251.102466 
L 571.01046 251.102466 
z
" clip-path="url(#p5ef09f1423)" style="fill: #ff7f0e"/>
   </g>
   <g id="patch_221">
    <path d="M 586.92906 337.173699 
L 599.663941 337.173699 
L 599.663941 261.228493 
L 586.92906 261.228493 
z
" clip-path="url(#p5ef09f1423)" style="fill: #ff7f0e"/>
   </g>
   <g id="patch_222">
    <path d="M 602.847661 327.047671 
L 615.582541 327.047671 
L 615.582541 306.795616 
L 602.847661 306.795616 
z
" clip-path="url(#p5ef09f1423)" style="fill: #ff7f0e"/>
   </g>
   <g id="patch_223">
    <path d="M 618.766261 276.417534 
L 631.501141 276.417534 
L 631.501141 205.535342 
L 618.766261 205.535342 
z
" clip-path="url(#p5ef09f1423)" style="fill: #ff7f0e"/>
   </g>
   <g id="patch_224">
    <path d="M 634.684861 276.417534 
L 647.419741 276.417534 
L 647.419741 195.409315 
L 634.684861 195.409315 
z
" clip-path="url(#p5ef09f1423)" style="fill: #ff7f0e"/>
   </g>
   <g id="patch_225">
    <path d="M 650.603461 281.480548 
L 663.338342 281.480548 
L 663.338342 185.283288 
L 650.603461 185.283288 
z
" clip-path="url(#p5ef09f1423)" style="fill: #ff7f0e"/>
   </g>
   <g id="patch_226">
    <path d="M 666.522062 286.543562 
L 679.256942 286.543562 
L 679.256942 215.66137 
L 666.522062 215.66137 
z
" clip-path="url(#p5ef09f1423)" style="fill: #ff7f0e"/>
   </g>
   <g id="patch_227">
    <path d="M 682.440662 281.480548 
L 695.175542 281.480548 
L 695.175542 210.598356 
L 682.440662 210.598356 
z
" clip-path="url(#p5ef09f1423)" style="fill: #ff7f0e"/>
   </g>
   <g id="patch_228">
    <path d="M 698.359262 306.795616 
L 711.094142 306.795616 
L 711.094142 251.102466 
L 698.359262 251.102466 
z
" clip-path="url(#p5ef09f1423)" style="fill: #ff7f0e"/>
   </g>
   <g id="patch_229">
    <path d="M 714.277862 316.921644 
L 727.012742 316.921644 
L 727.012742 281.480548 
L 714.277862 281.480548 
z
" clip-path="url(#p5ef09f1423)" style="fill: #ff7f0e"/>
   </g>
   <g id="patch_230">
    <path d="M 730.196463 286.543562 
L 742.931343 286.543562 
L 742.931343 246.039452 
L 730.196463 246.039452 
z
" clip-path="url(#p5ef09f1423)" style="fill: #ff7f0e"/>
   </g>
   <g id="patch_231">
    <path d="M 746.115063 428.307945 
L 758.849943 428.307945 
L 758.849943 418.181918 
L 746.115063 418.181918 
z
" clip-path="url(#p5ef09f1423)" style="fill: #ff7f0e"/>
   </g>
   <g id="patch_232">
    <path d="M 762.033663 392.866849 
L 774.768543 392.866849 
L 774.768543 392.866849 
L 762.033663 392.866849 
z
" clip-path="url(#p5ef09f1423)" style="fill: #ff7f0e"/>
   </g>
   <g id="patch_233">
    <path d="M 777.952263 423.244932 
L 790.687143 423.244932 
L 790.687143 413.118904 
L 777.952263 413.118904 
z
" clip-path="url(#p5ef09f1423)" style="fill: #ff7f0e"/>
   </g>
   <g id="patch_234">
    <path d="M 793.870863 392.866849 
L 806.605744 392.866849 
L 806.605744 382.740822 
L 793.870863 382.740822 
z
" clip-path="url(#p5ef09f1423)" style="fill: #ff7f0e"/>
   </g>
   <g id="patch_235">
    <path d="M 809.789464 372.614795 
L 822.524344 372.614795 
L 822.524344 327.047671 
L 809.789464 327.047671 
z
" clip-path="url(#p5ef09f1423)" style="fill: #ff7f0e"/>
   </g>
   <g id="patch_236">
    <path d="M 825.708064 286.543562 
L 838.442944 286.543562 
L 838.442944 256.165479 
L 825.708064 256.165479 
z
" clip-path="url(#p5ef09f1423)" style="fill: #ff7f0e"/>
   </g>
   <g id="patch_237">
    <path d="M 841.626664 266.291507 
L 854.361544 266.291507 
L 854.361544 230.850411 
L 841.626664 230.850411 
z
" clip-path="url(#p5ef09f1423)" style="fill: #ff7f0e"/>
   </g>
   <g id="patch_238">
    <path d="M 857.545264 286.543562 
L 870.280145 286.543562 
L 870.280145 246.039452 
L 857.545264 246.039452 
z
" clip-path="url(#p5ef09f1423)" style="fill: #ff7f0e"/>
   </g>
   <g id="patch_239">
    <path d="M 873.463865 286.543562 
L 886.198745 286.543562 
L 886.198745 251.102466 
L 873.463865 251.102466 
z
" clip-path="url(#p5ef09f1423)" style="fill: #ff7f0e"/>
   </g>
   <g id="patch_240">
    <path d="M 889.382465 301.732603 
L 902.117345 301.732603 
L 902.117345 271.354521 
L 889.382465 271.354521 
z
" clip-path="url(#p5ef09f1423)" style="fill: #ff7f0e"/>
   </g>
   <g id="patch_241">
    <path d="M 905.301065 291.606575 
L 918.035945 291.606575 
L 918.035945 256.165479 
L 905.301065 256.165479 
z
" clip-path="url(#p5ef09f1423)" style="fill: #ff7f0e"/>
   </g>
   <g id="patch_242">
    <path d="M 921.219665 286.543562 
L 933.954545 286.543562 
L 933.954545 246.039452 
L 921.219665 246.039452 
z
" clip-path="url(#p5ef09f1423)" style="fill: #ff7f0e"/>
   </g>
   <g id="patch_243">
    <path d="M 173.045455 281.480548 
L 185.780335 281.480548 
L 185.780335 251.102466 
L 173.045455 251.102466 
z
" clip-path="url(#p5ef09f1423)" style="fill: #d62728"/>
   </g>
   <g id="patch_244">
    <path d="M 188.964055 230.850411 
L 201.698935 230.850411 
L 201.698935 190.346301 
L 188.964055 190.346301 
z
" clip-path="url(#p5ef09f1423)" style="fill: #d62728"/>
   </g>
   <g id="patch_245">
    <path d="M 204.882655 235.913425 
L 217.617535 235.913425 
L 217.617535 220.724384 
L 204.882655 220.724384 
z
" clip-path="url(#p5ef09f1423)" style="fill: #d62728"/>
   </g>
   <g id="patch_246">
    <path d="M 220.801255 210.598356 
L 233.536135 210.598356 
L 233.536135 159.968219 
L 220.801255 159.968219 
z
" clip-path="url(#p5ef09f1423)" style="fill: #d62728"/>
   </g>
   <g id="patch_247">
    <path d="M 236.719855 220.724384 
L 249.454736 220.724384 
L 249.454736 170.094247 
L 236.719855 170.094247 
z
" clip-path="url(#p5ef09f1423)" style="fill: #d62728"/>
   </g>
   <g id="patch_248">
    <path d="M 252.638456 225.787397 
L 265.373336 225.787397 
L 265.373336 149.842192 
L 252.638456 149.842192 
z
" clip-path="url(#p5ef09f1423)" style="fill: #d62728"/>
   </g>
   <g id="patch_249">
    <path d="M 268.557056 240.976438 
L 281.291936 240.976438 
L 281.291936 165.031233 
L 268.557056 165.031233 
z
" clip-path="url(#p5ef09f1423)" style="fill: #d62728"/>
   </g>
   <g id="patch_250">
    <path d="M 284.475656 230.850411 
L 297.210536 230.850411 
L 297.210536 200.472329 
L 284.475656 200.472329 
z
" clip-path="url(#p5ef09f1423)" style="fill: #d62728"/>
   </g>
   <g id="patch_251">
    <path d="M 300.394256 215.66137 
L 313.129137 215.66137 
L 313.129137 180.220274 
L 300.394256 180.220274 
z
" clip-path="url(#p5ef09f1423)" style="fill: #d62728"/>
   </g>
   <g id="patch_252">
    <path d="M 316.312857 271.354521 
L 329.047737 271.354521 
L 329.047737 230.850411 
L 316.312857 230.850411 
z
" clip-path="url(#p5ef09f1423)" style="fill: #d62728"/>
   </g>
   <g id="patch_253">
    <path d="M 332.231457 357.425753 
L 344.966337 357.425753 
L 344.966337 281.480548 
L 332.231457 281.480548 
z
" clip-path="url(#p5ef09f1423)" style="fill: #d62728"/>
   </g>
   <g id="patch_254">
    <path d="M 348.150057 327.047671 
L 360.884937 327.047671 
L 360.884937 316.921644 
L 348.150057 316.921644 
z
" clip-path="url(#p5ef09f1423)" style="fill: #d62728"/>
   </g>
   <g id="patch_255">
    <path d="M 364.068657 433.370959 
L 376.803537 433.370959 
L 376.803537 423.244932 
L 364.068657 423.244932 
z
" clip-path="url(#p5ef09f1423)" style="fill: #d62728"/>
   </g>
   <g id="patch_256">
    <path d="M 379.987258 443.496986 
L 392.722138 443.496986 
L 392.722138 443.496986 
L 379.987258 443.496986 
z
" clip-path="url(#p5ef09f1423)" style="fill: #d62728"/>
   </g>
   <g id="patch_257">
    <path d="M 395.905858 428.307945 
L 408.640738 428.307945 
L 408.640738 428.307945 
L 395.905858 428.307945 
z
" clip-path="url(#p5ef09f1423)" style="fill: #d62728"/>
   </g>
   <g id="patch_258">
    <path d="M 411.824458 402.992877 
L 424.559338 402.992877 
L 424.559338 387.803836 
L 411.824458 387.803836 
z
" clip-path="url(#p5ef09f1423)" style="fill: #d62728"/>
   </g>
   <g id="patch_259">
    <path d="M 427.743058 357.425753 
L 440.477938 357.425753 
L 440.477938 347.299726 
L 427.743058 347.299726 
z
" clip-path="url(#p5ef09f1423)" style="fill: #d62728"/>
   </g>
   <g id="patch_260">
    <path d="M 443.661658 332.110685 
L 456.396539 332.110685 
L 456.396539 332.110685 
L 443.661658 332.110685 
z
" clip-path="url(#p5ef09f1423)" style="fill: #d62728"/>
   </g>
   <g id="patch_261">
    <path d="M 459.580259 301.732603 
L 472.315139 301.732603 
L 472.315139 256.165479 
L 459.580259 256.165479 
z
" clip-path="url(#p5ef09f1423)" style="fill: #d62728"/>
   </g>
   <g id="patch_262">
    <path d="M 475.498859 235.913425 
L 488.233739 235.913425 
L 488.233739 175.15726 
L 475.498859 175.15726 
z
" clip-path="url(#p5ef09f1423)" style="fill: #d62728"/>
   </g>
   <g id="patch_263">
    <path d="M 491.417459 261.228493 
L 504.152339 261.228493 
L 504.152339 154.905205 
L 491.417459 154.905205 
z
" clip-path="url(#p5ef09f1423)" style="fill: #d62728"/>
   </g>
   <g id="patch_264">
    <path d="M 507.336059 230.850411 
L 520.07094 230.850411 
L 520.07094 104.275068 
L 507.336059 104.275068 
z
" clip-path="url(#p5ef09f1423)" style="fill: #d62728"/>
   </g>
   <g id="patch_265">
    <path d="M 523.25466 220.724384 
L 535.98954 220.724384 
L 535.98954 154.905205 
L 523.25466 154.905205 
z
" clip-path="url(#p5ef09f1423)" style="fill: #d62728"/>
   </g>
   <g id="patch_266">
    <path d="M 539.17326 154.905205 
L 551.90814 154.905205 
L 551.90814 78.96 
L 539.17326 78.96 
z
" clip-path="url(#p5ef09f1423)" style="fill: #d62728"/>
   </g>
   <g id="patch_267">
    <path d="M 555.09186 296.669589 
L 567.82674 296.669589 
L 567.82674 251.102466 
L 555.09186 251.102466 
z
" clip-path="url(#p5ef09f1423)" style="fill: #d62728"/>
   </g>
   <g id="patch_268">
    <path d="M 571.01046 251.102466 
L 583.74534 251.102466 
L 583.74534 200.472329 
L 571.01046 200.472329 
z
" clip-path="url(#p5ef09f1423)" style="fill: #d62728"/>
   </g>
   <g id="patch_269">
    <path d="M 586.92906 261.228493 
L 599.663941 261.228493 
L 599.663941 225.787397 
L 586.92906 225.787397 
z
" clip-path="url(#p5ef09f1423)" style="fill: #d62728"/>
   </g>
   <g id="patch_270">
    <path d="M 602.847661 306.795616 
L 615.582541 306.795616 
L 615.582541 266.291507 
L 602.847661 266.291507 
z
" clip-path="url(#p5ef09f1423)" style="fill: #d62728"/>
   </g>
   <g id="patch_271">
    <path d="M 618.766261 205.535342 
L 631.501141 205.535342 
L 631.501141 154.905205 
L 618.766261 154.905205 
z
" clip-path="url(#p5ef09f1423)" style="fill: #d62728"/>
   </g>
   <g id="patch_272">
    <path d="M 634.684861 195.409315 
L 647.419741 195.409315 
L 647.419741 84.023014 
L 634.684861 84.023014 
z
" clip-path="url(#p5ef09f1423)" style="fill: #d62728"/>
   </g>
   <g id="patch_273">
    <path d="M 650.603461 185.283288 
L 663.338342 185.283288 
L 663.338342 109.338082 
L 650.603461 109.338082 
z
" clip-path="url(#p5ef09f1423)" style="fill: #d62728"/>
   </g>
   <g id="patch_274">
    <path d="M 666.522062 215.66137 
L 679.256942 215.66137 
L 679.256942 139.716164 
L 666.522062 139.716164 
z
" clip-path="url(#p5ef09f1423)" style="fill: #d62728"/>
   </g>
   <g id="patch_275">
    <path d="M 682.440662 210.598356 
L 695.175542 210.598356 
L 695.175542 154.905205 
L 682.440662 154.905205 
z
" clip-path="url(#p5ef09f1423)" style="fill: #d62728"/>
   </g>
   <g id="patch_276">
    <path d="M 698.359262 251.102466 
L 711.094142 251.102466 
L 711.094142 170.094247 
L 698.359262 170.094247 
z
" clip-path="url(#p5ef09f1423)" style="fill: #d62728"/>
   </g>
   <g id="patch_277">
    <path d="M 714.277862 281.480548 
L 727.012742 281.480548 
L 727.012742 251.102466 
L 714.277862 251.102466 
z
" clip-path="url(#p5ef09f1423)" style="fill: #d62728"/>
   </g>
   <g id="patch_278">
    <path d="M 730.196463 246.039452 
L 742.931343 246.039452 
L 742.931343 139.716164 
L 730.196463 139.716164 
z
" clip-path="url(#p5ef09f1423)" style="fill: #d62728"/>
   </g>
   <g id="patch_279">
    <path d="M 746.115063 418.181918 
L 758.849943 418.181918 
L 758.849943 418.181918 
L 746.115063 418.181918 
z
" clip-path="url(#p5ef09f1423)" style="fill: #d62728"/>
   </g>
   <g id="patch_280">
    <path d="M 762.033663 392.866849 
L 774.768543 392.866849 
L 774.768543 382.740822 
L 762.033663 382.740822 
z
" clip-path="url(#p5ef09f1423)" style="fill: #d62728"/>
   </g>
   <g id="patch_281">
    <path d="M 777.952263 413.118904 
L 790.687143 413.118904 
L 790.687143 362.488767 
L 777.952263 362.488767 
z
" clip-path="url(#p5ef09f1423)" style="fill: #d62728"/>
   </g>
   <g id="patch_282">
    <path d="M 793.870863 382.740822 
L 806.605744 382.740822 
L 806.605744 367.551781 
L 793.870863 367.551781 
z
" clip-path="url(#p5ef09f1423)" style="fill: #d62728"/>
   </g>
   <g id="patch_283">
    <path d="M 809.789464 327.047671 
L 822.524344 327.047671 
L 822.524344 306.795616 
L 809.789464 306.795616 
z
" clip-path="url(#p5ef09f1423)" style="fill: #d62728"/>
   </g>
   <g id="patch_284">
    <path d="M 825.708064 256.165479 
L 838.442944 256.165479 
L 838.442944 210.598356 
L 825.708064 210.598356 
z
" clip-path="url(#p5ef09f1423)" style="fill: #d62728"/>
   </g>
   <g id="patch_285">
    <path d="M 841.626664 230.850411 
L 854.361544 230.850411 
L 854.361544 175.15726 
L 841.626664 175.15726 
z
" clip-path="url(#p5ef09f1423)" style="fill: #d62728"/>
   </g>
   <g id="patch_286">
    <path d="M 857.545264 246.039452 
L 870.280145 246.039452 
L 870.280145 159.968219 
L 857.545264 159.968219 
z
" clip-path="url(#p5ef09f1423)" style="fill: #d62728"/>
   </g>
   <g id="patch_287">
    <path d="M 873.463865 251.102466 
L 886.198745 251.102466 
L 886.198745 149.842192 
L 873.463865 149.842192 
z
" clip-path="url(#p5ef09f1423)" style="fill: #d62728"/>
   </g>
   <g id="patch_288">
    <path d="M 889.382465 271.354521 
L 902.117345 271.354521 
L 902.117345 220.724384 
L 889.382465 220.724384 
z
" clip-path="url(#p5ef09f1423)" style="fill: #d62728"/>
   </g>
   <g id="patch_289">
    <path d="M 905.301065 256.165479 
L 918.035945 256.165479 
L 918.035945 154.905205 
L 905.301065 154.905205 
z
" clip-path="url(#p5ef09f1423)" style="fill: #d62728"/>
   </g>
   <g id="patch_290">
    <path d="M 921.219665 246.039452 
L 933.954545 246.039452 
L 933.954545 119.46411 
L 921.219665 119.46411 
z
" clip-path="url(#p5ef09f1423)" style="fill: #d62728"/>
   </g>
   <g id="matplotlib.axis_1">
    <g id="xtick_1">
     <g id="line2d_1">
      <defs>
       <path id="m3a66f0c5bb" d="M 0 0 
L 0 3.5 
" style="stroke: #000000; stroke-width: 0.8"/>
      </defs>
      <g>
       <use xlink:href="#m3a66f0c5bb" x="179.412895" y="448.56" style="stroke: #000000; stroke-width: 0.8"/>
      </g>
     </g>
     <g id="text_1">
      <!-- 0 -->
      <g transform="translate(176.231645 463.158437) scale(0.1 -0.1)">
       <defs>
        <path id="DejaVuSans-30" d="M 2034 4250 
Q 1547 4250 1301 3770 
Q 1056 3291 1056 2328 
Q 1056 1369 1301 889 
Q 1547 409 2034 409 
Q 2525 409 2770 889 
Q 3016 1369 3016 2328 
Q 3016 3291 2770 3770 
Q 2525 4250 2034 4250 
z
M 2034 4750 
Q 2819 4750 3233 4129 
Q 3647 3509 3647 2328 
Q 3647 1150 3233 529 
Q 2819 -91 2034 -91 
Q 1250 -91 836 529 
Q 422 1150 422 2328 
Q 422 3509 836 4129 
Q 1250 4750 2034 4750 
z
" transform="scale(0.015625)"/>
       </defs>
       <use xlink:href="#DejaVuSans-30"/>
      </g>
     </g>
    </g>
    <g id="xtick_2">
     <g id="line2d_2">
      <g>
       <use xlink:href="#m3a66f0c5bb" x="370.436097" y="448.56" style="stroke: #000000; stroke-width: 0.8"/>
      </g>
     </g>
     <g id="text_2">
      <!-- 12 -->
      <g transform="translate(364.073597 463.158437) scale(0.1 -0.1)">
       <defs>
        <path id="DejaVuSans-31" d="M 794 531 
L 1825 531 
L 1825 4091 
L 703 3866 
L 703 4441 
L 1819 4666 
L 2450 4666 
L 2450 531 
L 3481 531 
L 3481 0 
L 794 0 
L 794 531 
z
" transform="scale(0.015625)"/>
        <path id="DejaVuSans-32" d="M 1228 531 
L 3431 531 
L 3431 0 
L 469 0 
L 469 531 
Q 828 903 1448 1529 
Q 2069 2156 2228 2338 
Q 2531 2678 2651 2914 
Q 2772 3150 2772 3378 
Q 2772 3750 2511 3984 
Q 2250 4219 1831 4219 
Q 1534 4219 1204 4116 
Q 875 4013 500 3803 
L 500 4441 
Q 881 4594 1212 4672 
Q 1544 4750 1819 4750 
Q 2544 4750 2975 4387 
Q 3406 4025 3406 3419 
Q 3406 3131 3298 2873 
Q 3191 2616 2906 2266 
Q 2828 2175 2409 1742 
Q 1991 1309 1228 531 
z
" transform="scale(0.015625)"/>
       </defs>
       <use xlink:href="#DejaVuSans-31"/>
       <use xlink:href="#DejaVuSans-32" transform="translate(63.623047 0)"/>
      </g>
     </g>
    </g>
    <g id="xtick_3">
     <g id="line2d_3">
      <g>
       <use xlink:href="#m3a66f0c5bb" x="561.4593" y="448.56" style="stroke: #000000; stroke-width: 0.8"/>
      </g>
     </g>
     <g id="text_3">
      <!-- 24 -->
      <g transform="translate(555.0968 463.158437) scale(0.1 -0.1)">
       <defs>
        <path id="DejaVuSans-34" d="M 2419 4116 
L 825 1625 
L 2419 1625 
L 2419 4116 
z
M 2253 4666 
L 3047 4666 
L 3047 1625 
L 3713 1625 
L 3713 1100 
L 3047 1100 
L 3047 0 
L 2419 0 
L 2419 1100 
L 313 1100 
L 313 1709 
L 2253 4666 
z
" transform="scale(0.015625)"/>
       </defs>
       <use xlink:href="#DejaVuSans-32"/>
       <use xlink:href="#DejaVuSans-34" transform="translate(63.623047 0)"/>
      </g>
     </g>
    </g>
    <g id="xtick_4">
     <g id="line2d_4">
      <g>
       <use xlink:href="#m3a66f0c5bb" x="752.482503" y="448.56" style="stroke: #000000; stroke-width: 0.8"/>
      </g>
     </g>
     <g id="text_4">
      <!-- 36 -->
      <g transform="translate(746.120003 463.158437) scale(0.1 -0.1)">
       <defs>
        <path id="DejaVuSans-33" d="M 2597 2516 
Q 3050 2419 3304 2112 
Q 3559 1806 3559 1356 
Q 3559 666 3084 287 
Q 2609 -91 1734 -91 
Q 1441 -91 1130 -33 
Q 819 25 488 141 
L 488 750 
Q 750 597 1062 519 
Q 1375 441 1716 441 
Q 2309 441 2620 675 
Q 2931 909 2931 1356 
Q 2931 1769 2642 2001 
Q 2353 2234 1838 2234 
L 1294 2234 
L 1294 2753 
L 1863 2753 
Q 2328 2753 2575 2939 
Q 2822 3125 2822 3475 
Q 2822 3834 2567 4026 
Q 2313 4219 1838 4219 
Q 1578 4219 1281 4162 
Q 984 4106 628 3988 
L 628 4550 
Q 988 4650 1302 4700 
Q 1616 4750 1894 4750 
Q 2613 4750 3031 4423 
Q 3450 4097 3450 3541 
Q 3450 3153 3228 2886 
Q 3006 2619 2597 2516 
z
" transform="scale(0.015625)"/>
        <path id="DejaVuSans-36" d="M 2113 2584 
Q 1688 2584 1439 2293 
Q 1191 2003 1191 1497 
Q 1191 994 1439 701 
Q 1688 409 2113 409 
Q 2538 409 2786 701 
Q 3034 994 3034 1497 
Q 3034 2003 2786 2293 
Q 2538 2584 2113 2584 
z
M 3366 4563 
L 3366 3988 
Q 3128 4100 2886 4159 
Q 2644 4219 2406 4219 
Q 1781 4219 1451 3797 
Q 1122 3375 1075 2522 
Q 1259 2794 1537 2939 
Q 1816 3084 2150 3084 
Q 2853 3084 3261 2657 
Q 3669 2231 3669 1497 
Q 3669 778 3244 343 
Q 2819 -91 2113 -91 
Q 1303 -91 875 529 
Q 447 1150 447 2328 
Q 447 3434 972 4092 
Q 1497 4750 2381 4750 
Q 2619 4750 2861 4703 
Q 3103 4656 3366 4563 
z
" transform="scale(0.015625)"/>
       </defs>
       <use xlink:href="#DejaVuSans-33"/>
       <use xlink:href="#DejaVuSans-36" transform="translate(63.623047 0)"/>
      </g>
     </g>
    </g>
    <g id="xtick_5">
     <g id="line2d_5">
      <g>
       <use xlink:href="#m3a66f0c5bb" x="927.587105" y="448.56" style="stroke: #000000; stroke-width: 0.8"/>
      </g>
     </g>
     <g id="text_5">
      <!-- 47 -->
      <g transform="translate(921.224605 463.158437) scale(0.1 -0.1)">
       <defs>
        <path id="DejaVuSans-37" d="M 525 4666 
L 3525 4666 
L 3525 4397 
L 1831 0 
L 1172 0 
L 2766 4134 
L 525 4134 
L 525 4666 
z
" transform="scale(0.015625)"/>
       </defs>
       <use xlink:href="#DejaVuSans-34"/>
       <use xlink:href="#DejaVuSans-37" transform="translate(63.623047 0)"/>
      </g>
     </g>
    </g>
    <g id="text_6">
     <!-- Game Minute -->
     <g transform="translate(519.948437 476.836563) scale(0.1 -0.1)">
      <defs>
       <path id="DejaVuSans-47" d="M 3809 666 
L 3809 1919 
L 2778 1919 
L 2778 2438 
L 4434 2438 
L 4434 434 
Q 4069 175 3628 42 
Q 3188 -91 2688 -91 
Q 1594 -91 976 548 
Q 359 1188 359 2328 
Q 359 3472 976 4111 
Q 1594 4750 2688 4750 
Q 3144 4750 3555 4637 
Q 3966 4525 4313 4306 
L 4313 3634 
Q 3963 3931 3569 4081 
Q 3175 4231 2741 4231 
Q 1884 4231 1454 3753 
Q 1025 3275 1025 2328 
Q 1025 1384 1454 906 
Q 1884 428 2741 428 
Q 3075 428 3337 486 
Q 3600 544 3809 666 
z
" transform="scale(0.015625)"/>
       <path id="DejaVuSans-61" d="M 2194 1759 
Q 1497 1759 1228 1600 
Q 959 1441 959 1056 
Q 959 750 1161 570 
Q 1363 391 1709 391 
Q 2188 391 2477 730 
Q 2766 1069 2766 1631 
L 2766 1759 
L 2194 1759 
z
M 3341 1997 
L 3341 0 
L 2766 0 
L 2766 531 
Q 2569 213 2275 61 
Q 1981 -91 1556 -91 
Q 1019 -91 701 211 
Q 384 513 384 1019 
Q 384 1609 779 1909 
Q 1175 2209 1959 2209 
L 2766 2209 
L 2766 2266 
Q 2766 2663 2505 2880 
Q 2244 3097 1772 3097 
Q 1472 3097 1187 3025 
Q 903 2953 641 2809 
L 641 3341 
Q 956 3463 1253 3523 
Q 1550 3584 1831 3584 
Q 2591 3584 2966 3190 
Q 3341 2797 3341 1997 
z
" transform="scale(0.015625)"/>
       <path id="DejaVuSans-6d" d="M 3328 2828 
Q 3544 3216 3844 3400 
Q 4144 3584 4550 3584 
Q 5097 3584 5394 3201 
Q 5691 2819 5691 2113 
L 5691 0 
L 5113 0 
L 5113 2094 
Q 5113 2597 4934 2840 
Q 4756 3084 4391 3084 
Q 3944 3084 3684 2787 
Q 3425 2491 3425 1978 
L 3425 0 
L 2847 0 
L 2847 2094 
Q 2847 2600 2669 2842 
Q 2491 3084 2119 3084 
Q 1678 3084 1418 2786 
Q 1159 2488 1159 1978 
L 1159 0 
L 581 0 
L 581 3500 
L 1159 3500 
L 1159 2956 
Q 1356 3278 1631 3431 
Q 1906 3584 2284 3584 
Q 2666 3584 2933 3390 
Q 3200 3197 3328 2828 
z
" transform="scale(0.015625)"/>
       <path id="DejaVuSans-65" d="M 3597 1894 
L 3597 1613 
L 953 1613 
Q 991 1019 1311 708 
Q 1631 397 2203 397 
Q 2534 397 2845 478 
Q 3156 559 3463 722 
L 3463 178 
Q 3153 47 2828 -22 
Q 2503 -91 2169 -91 
Q 1331 -91 842 396 
Q 353 884 353 1716 
Q 353 2575 817 3079 
Q 1281 3584 2069 3584 
Q 2775 3584 3186 3129 
Q 3597 2675 3597 1894 
z
M 3022 2063 
Q 3016 2534 2758 2815 
Q 2500 3097 2075 3097 
Q 1594 3097 1305 2825 
Q 1016 2553 972 2059 
L 3022 2063 
z
" transform="scale(0.015625)"/>
       <path id="DejaVuSans-20" transform="scale(0.015625)"/>
       <path id="DejaVuSans-4d" d="M 628 4666 
L 1569 4666 
L 2759 1491 
L 3956 4666 
L 4897 4666 
L 4897 0 
L 4281 0 
L 4281 4097 
L 3078 897 
L 2444 897 
L 1241 4097 
L 1241 0 
L 628 0 
L 628 4666 
z
" transform="scale(0.015625)"/>
       <path id="DejaVuSans-69" d="M 603 3500 
L 1178 3500 
L 1178 0 
L 603 0 
L 603 3500 
z
M 603 4863 
L 1178 4863 
L 1178 4134 
L 603 4134 
L 603 4863 
z
" transform="scale(0.015625)"/>
       <path id="DejaVuSans-6e" d="M 3513 2113 
L 3513 0 
L 2938 0 
L 2938 2094 
Q 2938 2591 2744 2837 
Q 2550 3084 2163 3084 
Q 1697 3084 1428 2787 
Q 1159 2491 1159 1978 
L 1159 0 
L 581 0 
L 581 3500 
L 1159 3500 
L 1159 2956 
Q 1366 3272 1645 3428 
Q 1925 3584 2291 3584 
Q 2894 3584 3203 3211 
Q 3513 2838 3513 2113 
z
" transform="scale(0.015625)"/>
       <path id="DejaVuSans-75" d="M 544 1381 
L 544 3500 
L 1119 3500 
L 1119 1403 
Q 1119 906 1312 657 
Q 1506 409 1894 409 
Q 2359 409 2629 706 
Q 2900 1003 2900 1516 
L 2900 3500 
L 3475 3500 
L 3475 0 
L 2900 0 
L 2900 538 
Q 2691 219 2414 64 
Q 2138 -91 1772 -91 
Q 1169 -91 856 284 
Q 544 659 544 1381 
z
M 1991 3584 
L 1991 3584 
z
" transform="scale(0.015625)"/>
       <path id="DejaVuSans-74" d="M 1172 4494 
L 1172 3500 
L 2356 3500 
L 2356 3053 
L 1172 3053 
L 1172 1153 
Q 1172 725 1289 603 
Q 1406 481 1766 481 
L 2356 481 
L 2356 0 
L 1766 0 
Q 1100 0 847 248 
Q 594 497 594 1153 
L 594 3053 
L 172 3053 
L 172 3500 
L 594 3500 
L 594 4494 
L 1172 4494 
z
" transform="scale(0.015625)"/>
      </defs>
      <use xlink:href="#DejaVuSans-47"/>
      <use xlink:href="#DejaVuSans-61" transform="translate(77.490234 0)"/>
      <use xlink:href="#DejaVuSans-6d" transform="translate(138.769531 0)"/>
      <use xlink:href="#DejaVuSans-65" transform="translate(236.181641 0)"/>
      <use xlink:href="#DejaVuSans-20" transform="translate(297.705078 0)"/>
      <use xlink:href="#DejaVuSans-4d" transform="translate(329.492188 0)"/>
      <use xlink:href="#DejaVuSans-69" transform="translate(415.771484 0)"/>
      <use xlink:href="#DejaVuSans-6e" transform="translate(443.554688 0)"/>
      <use xlink:href="#DejaVuSans-75" transform="translate(506.933594 0)"/>
      <use xlink:href="#DejaVuSans-74" transform="translate(570.3125 0)"/>
      <use xlink:href="#DejaVuSans-65" transform="translate(609.521484 0)"/>
     </g>
    </g>
   </g>
   <g id="matplotlib.axis_2">
    <g id="ytick_1">
     <g id="line2d_6">
      <path d="M 135 448.56 
L 972 448.56 
" clip-path="url(#p5ef09f1423)" style="fill: none; stroke-dasharray: 2.96,1.28; stroke-dashoffset: 0; stroke: #b0b0b0; stroke-opacity: 0.7; stroke-width: 0.8"/>
     </g>
     <g id="line2d_7">
      <defs>
       <path id="m331a82b133" d="M 0 0 
L -3.5 0 
" style="stroke: #000000; stroke-width: 0.8"/>
      </defs>
      <g>
       <use xlink:href="#m331a82b133" x="135" y="448.56" style="stroke: #000000; stroke-width: 0.8"/>
      </g>
     </g>
     <g id="text_7">
      <!-- 0 -->
      <g transform="translate(121.6375 452.359219) scale(0.1 -0.1)">
       <use xlink:href="#DejaVuSans-30"/>
      </g>
     </g>
    </g>
    <g id="ytick_2">
     <g id="line2d_8">
      <path d="M 135 397.929863 
L 972 397.929863 
" clip-path="url(#p5ef09f1423)" style="fill: none; stroke-dasharray: 2.96,1.28; stroke-dashoffset: 0; stroke: #b0b0b0; stroke-opacity: 0.7; stroke-width: 0.8"/>
     </g>
     <g id="line2d_9">
      <g>
       <use xlink:href="#m331a82b133" x="135" y="397.929863" style="stroke: #000000; stroke-width: 0.8"/>
      </g>
     </g>
     <g id="text_8">
      <!-- 10 -->
      <g transform="translate(115.275 401.729082) scale(0.1 -0.1)">
       <use xlink:href="#DejaVuSans-31"/>
       <use xlink:href="#DejaVuSans-30" transform="translate(63.623047 0)"/>
      </g>
     </g>
    </g>
    <g id="ytick_3">
     <g id="line2d_10">
      <path d="M 135 347.299726 
L 972 347.299726 
" clip-path="url(#p5ef09f1423)" style="fill: none; stroke-dasharray: 2.96,1.28; stroke-dashoffset: 0; stroke: #b0b0b0; stroke-opacity: 0.7; stroke-width: 0.8"/>
     </g>
     <g id="line2d_11">
      <g>
       <use xlink:href="#m331a82b133" x="135" y="347.299726" style="stroke: #000000; stroke-width: 0.8"/>
      </g>
     </g>
     <g id="text_9">
      <!-- 20 -->
      <g transform="translate(115.275 351.098945) scale(0.1 -0.1)">
       <use xlink:href="#DejaVuSans-32"/>
       <use xlink:href="#DejaVuSans-30" transform="translate(63.623047 0)"/>
      </g>
     </g>
    </g>
    <g id="ytick_4">
     <g id="line2d_12">
      <path d="M 135 296.669589 
L 972 296.669589 
" clip-path="url(#p5ef09f1423)" style="fill: none; stroke-dasharray: 2.96,1.28; stroke-dashoffset: 0; stroke: #b0b0b0; stroke-opacity: 0.7; stroke-width: 0.8"/>
     </g>
     <g id="line2d_13">
      <g>
       <use xlink:href="#m331a82b133" x="135" y="296.669589" style="stroke: #000000; stroke-width: 0.8"/>
      </g>
     </g>
     <g id="text_10">
      <!-- 30 -->
      <g transform="translate(115.275 300.468808) scale(0.1 -0.1)">
       <use xlink:href="#DejaVuSans-33"/>
       <use xlink:href="#DejaVuSans-30" transform="translate(63.623047 0)"/>
      </g>
     </g>
    </g>
    <g id="ytick_5">
     <g id="line2d_14">
      <path d="M 135 246.039452 
L 972 246.039452 
" clip-path="url(#p5ef09f1423)" style="fill: none; stroke-dasharray: 2.96,1.28; stroke-dashoffset: 0; stroke: #b0b0b0; stroke-opacity: 0.7; stroke-width: 0.8"/>
     </g>
     <g id="line2d_15">
      <g>
       <use xlink:href="#m331a82b133" x="135" y="246.039452" style="stroke: #000000; stroke-width: 0.8"/>
      </g>
     </g>
     <g id="text_11">
      <!-- 40 -->
      <g transform="translate(115.275 249.838671) scale(0.1 -0.1)">
       <use xlink:href="#DejaVuSans-34"/>
       <use xlink:href="#DejaVuSans-30" transform="translate(63.623047 0)"/>
      </g>
     </g>
    </g>
    <g id="ytick_6">
     <g id="line2d_16">
      <path d="M 135 195.409315 
L 972 195.409315 
" clip-path="url(#p5ef09f1423)" style="fill: none; stroke-dasharray: 2.96,1.28; stroke-dashoffset: 0; stroke: #b0b0b0; stroke-opacity: 0.7; stroke-width: 0.8"/>
     </g>
     <g id="line2d_17">
      <g>
       <use xlink:href="#m331a82b133" x="135" y="195.409315" style="stroke: #000000; stroke-width: 0.8"/>
      </g>
     </g>
     <g id="text_12">
      <!-- 50 -->
      <g transform="translate(115.275 199.208534) scale(0.1 -0.1)">
       <defs>
        <path id="DejaVuSans-35" d="M 691 4666 
L 3169 4666 
L 3169 4134 
L 1269 4134 
L 1269 2991 
Q 1406 3038 1543 3061 
Q 1681 3084 1819 3084 
Q 2600 3084 3056 2656 
Q 3513 2228 3513 1497 
Q 3513 744 3044 326 
Q 2575 -91 1722 -91 
Q 1428 -91 1123 -41 
Q 819 9 494 109 
L 494 744 
Q 775 591 1075 516 
Q 1375 441 1709 441 
Q 2250 441 2565 725 
Q 2881 1009 2881 1497 
Q 2881 1984 2565 2268 
Q 2250 2553 1709 2553 
Q 1456 2553 1204 2497 
Q 953 2441 691 2322 
L 691 4666 
z
" transform="scale(0.015625)"/>
       </defs>
       <use xlink:href="#DejaVuSans-35"/>
       <use xlink:href="#DejaVuSans-30" transform="translate(63.623047 0)"/>
      </g>
     </g>
    </g>
    <g id="ytick_7">
     <g id="line2d_18">
      <path d="M 135 144.779178 
L 972 144.779178 
" clip-path="url(#p5ef09f1423)" style="fill: none; stroke-dasharray: 2.96,1.28; stroke-dashoffset: 0; stroke: #b0b0b0; stroke-opacity: 0.7; stroke-width: 0.8"/>
     </g>
     <g id="line2d_19">
      <g>
       <use xlink:href="#m331a82b133" x="135" y="144.779178" style="stroke: #000000; stroke-width: 0.8"/>
      </g>
     </g>
     <g id="text_13">
      <!-- 60 -->
      <g transform="translate(115.275 148.578397) scale(0.1 -0.1)">
       <use xlink:href="#DejaVuSans-36"/>
       <use xlink:href="#DejaVuSans-30" transform="translate(63.623047 0)"/>
      </g>
     </g>
    </g>
    <g id="ytick_8">
     <g id="line2d_20">
      <path d="M 135 94.149041 
L 972 94.149041 
" clip-path="url(#p5ef09f1423)" style="fill: none; stroke-dasharray: 2.96,1.28; stroke-dashoffset: 0; stroke: #b0b0b0; stroke-opacity: 0.7; stroke-width: 0.8"/>
     </g>
     <g id="line2d_21">
      <g>
       <use xlink:href="#m331a82b133" x="135" y="94.149041" style="stroke: #000000; stroke-width: 0.8"/>
      </g>
     </g>
     <g id="text_14">
      <!-- 70 -->
      <g transform="translate(115.275 97.94826) scale(0.1 -0.1)">
       <use xlink:href="#DejaVuSans-37"/>
       <use xlink:href="#DejaVuSans-30" transform="translate(63.623047 0)"/>
      </g>
     </g>
    </g>
    <g id="text_15">
     <!-- Number of Attempts -->
     <g transform="translate(109.195312 305.542656) rotate(-90) scale(0.1 -0.1)">
      <defs>
       <path id="DejaVuSans-4e" d="M 628 4666 
L 1478 4666 
L 3547 763 
L 3547 4666 
L 4159 4666 
L 4159 0 
L 3309 0 
L 1241 3903 
L 1241 0 
L 628 0 
L 628 4666 
z
" transform="scale(0.015625)"/>
       <path id="DejaVuSans-62" d="M 3116 1747 
Q 3116 2381 2855 2742 
Q 2594 3103 2138 3103 
Q 1681 3103 1420 2742 
Q 1159 2381 1159 1747 
Q 1159 1113 1420 752 
Q 1681 391 2138 391 
Q 2594 391 2855 752 
Q 3116 1113 3116 1747 
z
M 1159 2969 
Q 1341 3281 1617 3432 
Q 1894 3584 2278 3584 
Q 2916 3584 3314 3078 
Q 3713 2572 3713 1747 
Q 3713 922 3314 415 
Q 2916 -91 2278 -91 
Q 1894 -91 1617 61 
Q 1341 213 1159 525 
L 1159 0 
L 581 0 
L 581 4863 
L 1159 4863 
L 1159 2969 
z
" transform="scale(0.015625)"/>
       <path id="DejaVuSans-72" d="M 2631 2963 
Q 2534 3019 2420 3045 
Q 2306 3072 2169 3072 
Q 1681 3072 1420 2755 
Q 1159 2438 1159 1844 
L 1159 0 
L 581 0 
L 581 3500 
L 1159 3500 
L 1159 2956 
Q 1341 3275 1631 3429 
Q 1922 3584 2338 3584 
Q 2397 3584 2469 3576 
Q 2541 3569 2628 3553 
L 2631 2963 
z
" transform="scale(0.015625)"/>
       <path id="DejaVuSans-6f" d="M 1959 3097 
Q 1497 3097 1228 2736 
Q 959 2375 959 1747 
Q 959 1119 1226 758 
Q 1494 397 1959 397 
Q 2419 397 2687 759 
Q 2956 1122 2956 1747 
Q 2956 2369 2687 2733 
Q 2419 3097 1959 3097 
z
M 1959 3584 
Q 2709 3584 3137 3096 
Q 3566 2609 3566 1747 
Q 3566 888 3137 398 
Q 2709 -91 1959 -91 
Q 1206 -91 779 398 
Q 353 888 353 1747 
Q 353 2609 779 3096 
Q 1206 3584 1959 3584 
z
" transform="scale(0.015625)"/>
       <path id="DejaVuSans-66" d="M 2375 4863 
L 2375 4384 
L 1825 4384 
Q 1516 4384 1395 4259 
Q 1275 4134 1275 3809 
L 1275 3500 
L 2222 3500 
L 2222 3053 
L 1275 3053 
L 1275 0 
L 697 0 
L 697 3053 
L 147 3053 
L 147 3500 
L 697 3500 
L 697 3744 
Q 697 4328 969 4595 
Q 1241 4863 1831 4863 
L 2375 4863 
z
" transform="scale(0.015625)"/>
       <path id="DejaVuSans-41" d="M 2188 4044 
L 1331 1722 
L 3047 1722 
L 2188 4044 
z
M 1831 4666 
L 2547 4666 
L 4325 0 
L 3669 0 
L 3244 1197 
L 1141 1197 
L 716 0 
L 50 0 
L 1831 4666 
z
" transform="scale(0.015625)"/>
       <path id="DejaVuSans-70" d="M 1159 525 
L 1159 -1331 
L 581 -1331 
L 581 3500 
L 1159 3500 
L 1159 2969 
Q 1341 3281 1617 3432 
Q 1894 3584 2278 3584 
Q 2916 3584 3314 3078 
Q 3713 2572 3713 1747 
Q 3713 922 3314 415 
Q 2916 -91 2278 -91 
Q 1894 -91 1617 61 
Q 1341 213 1159 525 
z
M 3116 1747 
Q 3116 2381 2855 2742 
Q 2594 3103 2138 3103 
Q 1681 3103 1420 2742 
Q 1159 2381 1159 1747 
Q 1159 1113 1420 752 
Q 1681 391 2138 391 
Q 2594 391 2855 752 
Q 3116 1113 3116 1747 
z
" transform="scale(0.015625)"/>
       <path id="DejaVuSans-73" d="M 2834 3397 
L 2834 2853 
Q 2591 2978 2328 3040 
Q 2066 3103 1784 3103 
Q 1356 3103 1142 2972 
Q 928 2841 928 2578 
Q 928 2378 1081 2264 
Q 1234 2150 1697 2047 
L 1894 2003 
Q 2506 1872 2764 1633 
Q 3022 1394 3022 966 
Q 3022 478 2636 193 
Q 2250 -91 1575 -91 
Q 1294 -91 989 -36 
Q 684 19 347 128 
L 347 722 
Q 666 556 975 473 
Q 1284 391 1588 391 
Q 1994 391 2212 530 
Q 2431 669 2431 922 
Q 2431 1156 2273 1281 
Q 2116 1406 1581 1522 
L 1381 1569 
Q 847 1681 609 1914 
Q 372 2147 372 2553 
Q 372 3047 722 3315 
Q 1072 3584 1716 3584 
Q 2034 3584 2315 3537 
Q 2597 3491 2834 3397 
z
" transform="scale(0.015625)"/>
      </defs>
      <use xlink:href="#DejaVuSans-4e"/>
      <use xlink:href="#DejaVuSans-75" transform="translate(74.804688 0)"/>
      <use xlink:href="#DejaVuSans-6d" transform="translate(138.183594 0)"/>
      <use xlink:href="#DejaVuSans-62" transform="translate(235.595703 0)"/>
      <use xlink:href="#DejaVuSans-65" transform="translate(299.072266 0)"/>
      <use xlink:href="#DejaVuSans-72" transform="translate(360.595703 0)"/>
      <use xlink:href="#DejaVuSans-20" transform="translate(401.708984 0)"/>
      <use xlink:href="#DejaVuSans-6f" transform="translate(433.496094 0)"/>
      <use xlink:href="#DejaVuSans-66" transform="translate(494.677734 0)"/>
      <use xlink:href="#DejaVuSans-20" transform="translate(529.882812 0)"/>
      <use xlink:href="#DejaVuSans-41" transform="translate(561.669922 0)"/>
      <use xlink:href="#DejaVuSans-74" transform="translate(628.328125 0)"/>
      <use xlink:href="#DejaVuSans-74" transform="translate(667.537109 0)"/>
      <use xlink:href="#DejaVuSans-65" transform="translate(706.746094 0)"/>
      <use xlink:href="#DejaVuSans-6d" transform="translate(768.269531 0)"/>
      <use xlink:href="#DejaVuSans-70" transform="translate(865.681641 0)"/>
      <use xlink:href="#DejaVuSans-74" transform="translate(929.158203 0)"/>
      <use xlink:href="#DejaVuSans-73" transform="translate(968.367188 0)"/>
     </g>
    </g>
   </g>
   <g id="patch_291">
    <path d="M 135 448.56 
L 135 60.48 
" style="fill: none; stroke: #000000; stroke-width: 0.8; stroke-linejoin: miter; stroke-linecap: square"/>
   </g>
   <g id="patch_292">
    <path d="M 972 448.56 
L 972 60.48 
" style="fill: none; stroke: #000000; stroke-width: 0.8; stroke-linejoin: miter; stroke-linecap: square"/>
   </g>
   <g id="patch_293">
    <path d="M 135 448.56 
L 972 448.56 
" style="fill: none; stroke: #000000; stroke-width: 0.8; stroke-linejoin: miter; stroke-linecap: square"/>
   </g>
   <g id="patch_294">
    <path d="M 135 60.48 
L 972 60.48 
" style="fill: none; stroke: #000000; stroke-width: 0.8; stroke-linejoin: miter; stroke-linecap: square"/>
   </g>
   <g id="text_16">
    <!-- Anthony Edwards - Shot Attempts (Made/Miss) Timeline (2024-25) -->
    <g transform="translate(354.845625 54.48) scale(0.12 -0.12)">
     <defs>
      <path id="DejaVuSans-68" d="M 3513 2113 
L 3513 0 
L 2938 0 
L 2938 2094 
Q 2938 2591 2744 2837 
Q 2550 3084 2163 3084 
Q 1697 3084 1428 2787 
Q 1159 2491 1159 1978 
L 1159 0 
L 581 0 
L 581 4863 
L 1159 4863 
L 1159 2956 
Q 1366 3272 1645 3428 
Q 1925 3584 2291 3584 
Q 2894 3584 3203 3211 
Q 3513 2838 3513 2113 
z
" transform="scale(0.015625)"/>
      <path id="DejaVuSans-79" d="M 2059 -325 
Q 1816 -950 1584 -1140 
Q 1353 -1331 966 -1331 
L 506 -1331 
L 506 -850 
L 844 -850 
Q 1081 -850 1212 -737 
Q 1344 -625 1503 -206 
L 1606 56 
L 191 3500 
L 800 3500 
L 1894 763 
L 2988 3500 
L 3597 3500 
L 2059 -325 
z
" transform="scale(0.015625)"/>
      <path id="DejaVuSans-45" d="M 628 4666 
L 3578 4666 
L 3578 4134 
L 1259 4134 
L 1259 2753 
L 3481 2753 
L 3481 2222 
L 1259 2222 
L 1259 531 
L 3634 531 
L 3634 0 
L 628 0 
L 628 4666 
z
" transform="scale(0.015625)"/>
      <path id="DejaVuSans-64" d="M 2906 2969 
L 2906 4863 
L 3481 4863 
L 3481 0 
L 2906 0 
L 2906 525 
Q 2725 213 2448 61 
Q 2172 -91 1784 -91 
Q 1150 -91 751 415 
Q 353 922 353 1747 
Q 353 2572 751 3078 
Q 1150 3584 1784 3584 
Q 2172 3584 2448 3432 
Q 2725 3281 2906 2969 
z
M 947 1747 
Q 947 1113 1208 752 
Q 1469 391 1925 391 
Q 2381 391 2643 752 
Q 2906 1113 2906 1747 
Q 2906 2381 2643 2742 
Q 2381 3103 1925 3103 
Q 1469 3103 1208 2742 
Q 947 2381 947 1747 
z
" transform="scale(0.015625)"/>
      <path id="DejaVuSans-77" d="M 269 3500 
L 844 3500 
L 1563 769 
L 2278 3500 
L 2956 3500 
L 3675 769 
L 4391 3500 
L 4966 3500 
L 4050 0 
L 3372 0 
L 2619 2869 
L 1863 0 
L 1184 0 
L 269 3500 
z
" transform="scale(0.015625)"/>
      <path id="DejaVuSans-2d" d="M 313 2009 
L 1997 2009 
L 1997 1497 
L 313 1497 
L 313 2009 
z
" transform="scale(0.015625)"/>
      <path id="DejaVuSans-53" d="M 3425 4513 
L 3425 3897 
Q 3066 4069 2747 4153 
Q 2428 4238 2131 4238 
Q 1616 4238 1336 4038 
Q 1056 3838 1056 3469 
Q 1056 3159 1242 3001 
Q 1428 2844 1947 2747 
L 2328 2669 
Q 3034 2534 3370 2195 
Q 3706 1856 3706 1288 
Q 3706 609 3251 259 
Q 2797 -91 1919 -91 
Q 1588 -91 1214 -16 
Q 841 59 441 206 
L 441 856 
Q 825 641 1194 531 
Q 1563 422 1919 422 
Q 2459 422 2753 634 
Q 3047 847 3047 1241 
Q 3047 1584 2836 1778 
Q 2625 1972 2144 2069 
L 1759 2144 
Q 1053 2284 737 2584 
Q 422 2884 422 3419 
Q 422 4038 858 4394 
Q 1294 4750 2059 4750 
Q 2388 4750 2728 4690 
Q 3069 4631 3425 4513 
z
" transform="scale(0.015625)"/>
      <path id="DejaVuSans-28" d="M 1984 4856 
Q 1566 4138 1362 3434 
Q 1159 2731 1159 2009 
Q 1159 1288 1364 580 
Q 1569 -128 1984 -844 
L 1484 -844 
Q 1016 -109 783 600 
Q 550 1309 550 2009 
Q 550 2706 781 3412 
Q 1013 4119 1484 4856 
L 1984 4856 
z
" transform="scale(0.015625)"/>
      <path id="DejaVuSans-2f" d="M 1625 4666 
L 2156 4666 
L 531 -594 
L 0 -594 
L 1625 4666 
z
" transform="scale(0.015625)"/>
      <path id="DejaVuSans-29" d="M 513 4856 
L 1013 4856 
Q 1481 4119 1714 3412 
Q 1947 2706 1947 2009 
Q 1947 1309 1714 600 
Q 1481 -109 1013 -844 
L 513 -844 
Q 928 -128 1133 580 
Q 1338 1288 1338 2009 
Q 1338 2731 1133 3434 
Q 928 4138 513 4856 
z
" transform="scale(0.015625)"/>
      <path id="DejaVuSans-54" d="M -19 4666 
L 3928 4666 
L 3928 4134 
L 2272 4134 
L 2272 0 
L 1638 0 
L 1638 4134 
L -19 4134 
L -19 4666 
z
" transform="scale(0.015625)"/>
      <path id="DejaVuSans-6c" d="M 603 4863 
L 1178 4863 
L 1178 0 
L 603 0 
L 603 4863 
z
" transform="scale(0.015625)"/>
     </defs>
     <use xlink:href="#DejaVuSans-41"/>
     <use xlink:href="#DejaVuSans-6e" transform="translate(68.408203 0)"/>
     <use xlink:href="#DejaVuSans-74" transform="translate(131.787109 0)"/>
     <use xlink:href="#DejaVuSans-68" transform="translate(170.996094 0)"/>
     <use xlink:href="#DejaVuSans-6f" transform="translate(234.375 0)"/>
     <use xlink:href="#DejaVuSans-6e" transform="translate(295.556641 0)"/>
     <use xlink:href="#DejaVuSans-79" transform="translate(358.935547 0)"/>
     <use xlink:href="#DejaVuSans-20" transform="translate(418.115234 0)"/>
     <use xlink:href="#DejaVuSans-45" transform="translate(449.902344 0)"/>
     <use xlink:href="#DejaVuSans-64" transform="translate(513.085938 0)"/>
     <use xlink:href="#DejaVuSans-77" transform="translate(576.5625 0)"/>
     <use xlink:href="#DejaVuSans-61" transform="translate(658.349609 0)"/>
     <use xlink:href="#DejaVuSans-72" transform="translate(719.628906 0)"/>
     <use xlink:href="#DejaVuSans-64" transform="translate(758.992188 0)"/>
     <use xlink:href="#DejaVuSans-73" transform="translate(822.46875 0)"/>
     <use xlink:href="#DejaVuSans-20" transform="translate(874.568359 0)"/>
     <use xlink:href="#DejaVuSans-2d" transform="translate(906.355469 0)"/>
     <use xlink:href="#DejaVuSans-20" transform="translate(942.439453 0)"/>
     <use xlink:href="#DejaVuSans-53" transform="translate(974.226562 0)"/>
     <use xlink:href="#DejaVuSans-68" transform="translate(1037.703125 0)"/>
     <use xlink:href="#DejaVuSans-6f" transform="translate(1101.082031 0)"/>
     <use xlink:href="#DejaVuSans-74" transform="translate(1162.263672 0)"/>
     <use xlink:href="#DejaVuSans-20" transform="translate(1201.472656 0)"/>
     <use xlink:href="#DejaVuSans-41" transform="translate(1233.259766 0)"/>
     <use xlink:href="#DejaVuSans-74" transform="translate(1299.917969 0)"/>
     <use xlink:href="#DejaVuSans-74" transform="translate(1339.126953 0)"/>
     <use xlink:href="#DejaVuSans-65" transform="translate(1378.335938 0)"/>
     <use xlink:href="#DejaVuSans-6d" transform="translate(1439.859375 0)"/>
     <use xlink:href="#DejaVuSans-70" transform="translate(1537.271484 0)"/>
     <use xlink:href="#DejaVuSans-74" transform="translate(1600.748047 0)"/>
     <use xlink:href="#DejaVuSans-73" transform="translate(1639.957031 0)"/>
     <use xlink:href="#DejaVuSans-20" transform="translate(1692.056641 0)"/>
     <use xlink:href="#DejaVuSans-28" transform="translate(1723.84375 0)"/>
     <use xlink:href="#DejaVuSans-4d" transform="translate(1762.857422 0)"/>
     <use xlink:href="#DejaVuSans-61" transform="translate(1849.136719 0)"/>
     <use xlink:href="#DejaVuSans-64" transform="translate(1910.416016 0)"/>
     <use xlink:href="#DejaVuSans-65" transform="translate(1973.892578 0)"/>
     <use xlink:href="#DejaVuSans-2f" transform="translate(2035.416016 0)"/>
     <use xlink:href="#DejaVuSans-4d" transform="translate(2069.107422 0)"/>
     <use xlink:href="#DejaVuSans-69" transform="translate(2155.386719 0)"/>
     <use xlink:href="#DejaVuSans-73" transform="translate(2183.169922 0)"/>
     <use xlink:href="#DejaVuSans-73" transform="translate(2235.269531 0)"/>
     <use xlink:href="#DejaVuSans-29" transform="translate(2287.369141 0)"/>
     <use xlink:href="#DejaVuSans-20" transform="translate(2326.382812 0)"/>
     <use xlink:href="#DejaVuSans-54" transform="translate(2358.169922 0)"/>
     <use xlink:href="#DejaVuSans-69" transform="translate(2416.128906 0)"/>
     <use xlink:href="#DejaVuSans-6d" transform="translate(2443.912109 0)"/>
     <use xlink:href="#DejaVuSans-65" transform="translate(2541.324219 0)"/>
     <use xlink:href="#DejaVuSans-6c" transform="translate(2602.847656 0)"/>
     <use xlink:href="#DejaVuSans-69" transform="translate(2630.630859 0)"/>
     <use xlink:href="#DejaVuSans-6e" transform="translate(2658.414062 0)"/>
     <use xlink:href="#DejaVuSans-65" transform="translate(2721.792969 0)"/>
     <use xlink:href="#DejaVuSans-20" transform="translate(2783.316406 0)"/>
     <use xlink:href="#DejaVuSans-28" transform="translate(2815.103516 0)"/>
     <use xlink:href="#DejaVuSans-32" transform="translate(2854.117188 0)"/>
     <use xlink:href="#DejaVuSans-30" transform="translate(2917.740234 0)"/>
     <use xlink:href="#DejaVuSans-32" transform="translate(2981.363281 0)"/>
     <use xlink:href="#DejaVuSans-34" transform="translate(3044.986328 0)"/>
     <use xlink:href="#DejaVuSans-2d" transform="translate(3108.609375 0)"/>
     <use xlink:href="#DejaVuSans-32" transform="translate(3144.693359 0)"/>
     <use xlink:href="#DejaVuSans-35" transform="translate(3208.316406 0)"/>
     <use xlink:href="#DejaVuSans-29" transform="translate(3271.939453 0)"/>
    </g>
   </g>
   <g id="legend_1">
    <g id="patch_295">
     <path d="M 142 156.54875 
L 222.935937 156.54875 
Q 224.935937 156.54875 224.935937 154.54875 
L 224.935937 67.48 
Q 224.935937 65.48 222.935937 65.48 
L 142 65.48 
Q 140 65.48 140 67.48 
L 140 154.54875 
Q 140 156.54875 142 156.54875 
z
" style="fill: #ffffff; opacity: 0.8; stroke: #cccccc; stroke-linejoin: miter"/>
    </g>
    <g id="patch_296">
     <path d="M 144 77.078438 
L 164 77.078438 
L 164 70.078438 
L 144 70.078438 
z
" style="fill: #aec7e8"/>
    </g>
    <g id="text_17">
     <!-- 3PT Miss -->
     <g transform="translate(172 77.078438) scale(0.1 -0.1)">
      <defs>
       <path id="DejaVuSans-50" d="M 1259 4147 
L 1259 2394 
L 2053 2394 
Q 2494 2394 2734 2622 
Q 2975 2850 2975 3272 
Q 2975 3691 2734 3919 
Q 2494 4147 2053 4147 
L 1259 4147 
z
M 628 4666 
L 2053 4666 
Q 2838 4666 3239 4311 
Q 3641 3956 3641 3272 
Q 3641 2581 3239 2228 
Q 2838 1875 2053 1875 
L 1259 1875 
L 1259 0 
L 628 0 
L 628 4666 
z
" transform="scale(0.015625)"/>
      </defs>
      <use xlink:href="#DejaVuSans-33"/>
      <use xlink:href="#DejaVuSans-50" transform="translate(63.623047 0)"/>
      <use xlink:href="#DejaVuSans-54" transform="translate(123.925781 0)"/>
      <use xlink:href="#DejaVuSans-20" transform="translate(185.009766 0)"/>
      <use xlink:href="#DejaVuSans-4d" transform="translate(216.796875 0)"/>
      <use xlink:href="#DejaVuSans-69" transform="translate(303.076172 0)"/>
      <use xlink:href="#DejaVuSans-73" transform="translate(330.859375 0)"/>
      <use xlink:href="#DejaVuSans-73" transform="translate(382.958984 0)"/>
     </g>
    </g>
    <g id="patch_297">
     <path d="M 144 91.756563 
L 164 91.756563 
L 164 84.756563 
L 144 84.756563 
z
" style="fill: #ffbb78"/>
    </g>
    <g id="text_18">
     <!-- 2PT Miss -->
     <g transform="translate(172 91.756563) scale(0.1 -0.1)">
      <use xlink:href="#DejaVuSans-32"/>
      <use xlink:href="#DejaVuSans-50" transform="translate(63.623047 0)"/>
      <use xlink:href="#DejaVuSans-54" transform="translate(123.925781 0)"/>
      <use xlink:href="#DejaVuSans-20" transform="translate(185.009766 0)"/>
      <use xlink:href="#DejaVuSans-4d" transform="translate(216.796875 0)"/>
      <use xlink:href="#DejaVuSans-69" transform="translate(303.076172 0)"/>
      <use xlink:href="#DejaVuSans-73" transform="translate(330.859375 0)"/>
      <use xlink:href="#DejaVuSans-73" transform="translate(382.958984 0)"/>
     </g>
    </g>
    <g id="patch_298">
     <path d="M 144 106.434687 
L 164 106.434687 
L 164 99.434687 
L 144 99.434687 
z
" style="fill: #ff9896"/>
    </g>
    <g id="text_19">
     <!-- FT Miss -->
     <g transform="translate(172 106.434687) scale(0.1 -0.1)">
      <defs>
       <path id="DejaVuSans-46" d="M 628 4666 
L 3309 4666 
L 3309 4134 
L 1259 4134 
L 1259 2759 
L 3109 2759 
L 3109 2228 
L 1259 2228 
L 1259 0 
L 628 0 
L 628 4666 
z
" transform="scale(0.015625)"/>
      </defs>
      <use xlink:href="#DejaVuSans-46"/>
      <use xlink:href="#DejaVuSans-54" transform="translate(55.769531 0)"/>
      <use xlink:href="#DejaVuSans-20" transform="translate(116.853516 0)"/>
      <use xlink:href="#DejaVuSans-4d" transform="translate(148.640625 0)"/>
      <use xlink:href="#DejaVuSans-69" transform="translate(234.919922 0)"/>
      <use xlink:href="#DejaVuSans-73" transform="translate(262.703125 0)"/>
      <use xlink:href="#DejaVuSans-73" transform="translate(314.802734 0)"/>
     </g>
    </g>
    <g id="patch_299">
     <path d="M 144 121.112813 
L 164 121.112813 
L 164 114.112813 
L 144 114.112813 
z
" style="fill: #1f77b4"/>
    </g>
    <g id="text_20">
     <!-- 3PT Made -->
     <g transform="translate(172 121.112813) scale(0.1 -0.1)">
      <use xlink:href="#DejaVuSans-33"/>
      <use xlink:href="#DejaVuSans-50" transform="translate(63.623047 0)"/>
      <use xlink:href="#DejaVuSans-54" transform="translate(123.925781 0)"/>
      <use xlink:href="#DejaVuSans-20" transform="translate(185.009766 0)"/>
      <use xlink:href="#DejaVuSans-4d" transform="translate(216.796875 0)"/>
      <use xlink:href="#DejaVuSans-61" transform="translate(303.076172 0)"/>
      <use xlink:href="#DejaVuSans-64" transform="translate(364.355469 0)"/>
      <use xlink:href="#DejaVuSans-65" transform="translate(427.832031 0)"/>
     </g>
    </g>
    <g id="patch_300">
     <path d="M 144 135.790938 
L 164 135.790938 
L 164 128.790938 
L 144 128.790938 
z
" style="fill: #ff7f0e"/>
    </g>
    <g id="text_21">
     <!-- 2PT Made -->
     <g transform="translate(172 135.790938) scale(0.1 -0.1)">
      <use xlink:href="#DejaVuSans-32"/>
      <use xlink:href="#DejaVuSans-50" transform="translate(63.623047 0)"/>
      <use xlink:href="#DejaVuSans-54" transform="translate(123.925781 0)"/>
      <use xlink:href="#DejaVuSans-20" transform="translate(185.009766 0)"/>
      <use xlink:href="#DejaVuSans-4d" transform="translate(216.796875 0)"/>
      <use xlink:href="#DejaVuSans-61" transform="translate(303.076172 0)"/>
      <use xlink:href="#DejaVuSans-64" transform="translate(364.355469 0)"/>
      <use xlink:href="#DejaVuSans-65" transform="translate(427.832031 0)"/>
     </g>
    </g>
    <g id="patch_301">
     <path d="M 144 150.469063 
L 164 150.469063 
L 164 143.469063 
L 144 143.469063 
z
" style="fill: #d62728"/>
    </g>
    <g id="text_22">
     <!-- FT Made -->
     <g transform="translate(172 150.469063) scale(0.1 -0.1)">
      <use xlink:href="#DejaVuSans-46"/>
      <use xlink:href="#DejaVuSans-54" transform="translate(55.769531 0)"/>
      <use xlink:href="#DejaVuSans-20" transform="translate(116.853516 0)"/>
      <use xlink:href="#DejaVuSans-4d" transform="translate(148.640625 0)"/>
      <use xlink:href="#DejaVuSans-61" transform="translate(234.919922 0)"/>
      <use xlink:href="#DejaVuSans-64" transform="translate(296.199219 0)"/>
      <use xlink:href="#DejaVuSans-65" transform="translate(359.675781 0)"/>
     </g>
    </g>
   </g>
  </g>
 </g>
 <defs>
  <clipPath id="p5ef09f1423">
   <rect x="135" y="60.48" width="837" height="388.08"/>
  </clipPath>
 </defs>
</svg>
