<?xml version="1.0" encoding="utf-8" standalone="no"?>
<!DOCTYPE svg PUBLIC "-//W3C//DTD SVG 1.1//EN"
  "http://www.w3.org/Graphics/SVG/1.1/DTD/svg11.dtd">
<svg xmlns:xlink="http://www.w3.org/1999/xlink" width="1080pt" height="504pt" viewBox="0 0 1080 504" xmlns="http://www.w3.org/2000/svg" version="1.1">
 <metadata>
  <rdf:RDF xmlns:dc="http://purl.org/dc/elements/1.1/" xmlns:cc="http://creativecommons.org/ns#" xmlns:rdf="http://www.w3.org/1999/02/22-rdf-syntax-ns#">
   <cc:Work>
    <dc:type rdf:resource="http://purl.org/dc/dcmitype/StillImage"/>
    <dc:date>2025-08-19T23:18:03.036925</dc:date>
    <dc:format>image/svg+xml</dc:format>
    <dc:creator>
     <cc:Agent>
      <dc:title>Matplotlib v3.10.5, https://matplotlib.org/</dc:title>
     </cc:Agent>
    </dc:creator>
   </cc:Work>
  </rdf:RDF>
 </metadata>
 <defs>
  <style type="text/css">*{stroke-linejoin: round; stroke-linecap: butt}</style>
 </defs>
 <g id="figure_1">
  <g id="patch_1">
   <path d="M 0 504 
L 1080 504 
L 1080 0 
L 0 0 
z
" style="fill: #ffffff"/>
  </g>
  <g id="axes_1">
   <g id="patch_2">
    <path d="M 135 448.56 
L 972 448.56 
L 972 60.48 
L 135 60.48 
z
" style="fill: #ffffff"/>
   </g>
   <g id="patch_3">
    <path d="M 173.045455 448.56 
L 185.780335 448.56 
L 185.780335 408.135 
L 173.045455 408.135 
z
" clip-path="url(#p74c46a3412)" style="fill: #aec7e8"/>
   </g>
   <g id="patch_4">
    <path d="M 188.964055 448.56 
L 201.698935 448.56 
L 201.698935 402.36 
L 188.964055 402.36 
z
" clip-path="url(#p74c46a3412)" style="fill: #aec7e8"/>
   </g>
   <g id="patch_5">
    <path d="M 204.882655 448.56 
L 217.617535 448.56 
L 217.617535 413.91 
L 204.882655 413.91 
z
" clip-path="url(#p74c46a3412)" style="fill: #aec7e8"/>
   </g>
   <g id="patch_6">
    <path d="M 220.801255 448.56 
L 233.536135 448.56 
L 233.536135 390.81 
L 220.801255 390.81 
z
" clip-path="url(#p74c46a3412)" style="fill: #aec7e8"/>
   </g>
   <g id="patch_7">
    <path d="M 236.719855 448.56 
L 249.454736 448.56 
L 249.454736 390.81 
L 236.719855 390.81 
z
" clip-path="url(#p74c46a3412)" style="fill: #aec7e8"/>
   </g>
   <g id="patch_8">
    <path d="M 252.638456 448.56 
L 265.373336 448.56 
L 265.373336 425.46 
L 252.638456 425.46 
z
" clip-path="url(#p74c46a3412)" style="fill: #aec7e8"/>
   </g>
   <g id="patch_9">
    <path d="M 268.557056 448.56 
L 281.291936 448.56 
L 281.291936 425.46 
L 268.557056 425.46 
z
" clip-path="url(#p74c46a3412)" style="fill: #aec7e8"/>
   </g>
   <g id="patch_10">
    <path d="M 284.475656 448.56 
L 297.210536 448.56 
L 297.210536 442.785 
L 284.475656 442.785 
z
" clip-path="url(#p74c46a3412)" style="fill: #aec7e8"/>
   </g>
   <g id="patch_11">
    <path d="M 300.394256 448.56 
L 313.129137 448.56 
L 313.129137 442.785 
L 300.394256 442.785 
z
" clip-path="url(#p74c46a3412)" style="fill: #aec7e8"/>
   </g>
   <g id="patch_12">
    <path d="M 316.312857 448.56 
L 329.047737 448.56 
L 329.047737 431.235 
L 316.312857 431.235 
z
" clip-path="url(#p74c46a3412)" style="fill: #aec7e8"/>
   </g>
   <g id="patch_13">
    <path d="M 332.231457 448.56 
L 344.966337 448.56 
L 344.966337 419.685 
L 332.231457 419.685 
z
" clip-path="url(#p74c46a3412)" style="fill: #aec7e8"/>
   </g>
   <g id="patch_14">
    <path d="M 348.150057 448.56 
L 360.884937 448.56 
L 360.884937 402.36 
L 348.150057 402.36 
z
" clip-path="url(#p74c46a3412)" style="fill: #aec7e8"/>
   </g>
   <g id="patch_15">
    <path d="M 364.068657 448.56 
L 376.803537 448.56 
L 376.803537 413.91 
L 364.068657 413.91 
z
" clip-path="url(#p74c46a3412)" style="fill: #aec7e8"/>
   </g>
   <g id="patch_16">
    <path d="M 379.987258 448.56 
L 392.722138 448.56 
L 392.722138 419.685 
L 379.987258 419.685 
z
" clip-path="url(#p74c46a3412)" style="fill: #aec7e8"/>
   </g>
   <g id="patch_17">
    <path d="M 395.905858 448.56 
L 408.640738 448.56 
L 408.640738 413.91 
L 395.905858 413.91 
z
" clip-path="url(#p74c46a3412)" style="fill: #aec7e8"/>
   </g>
   <g id="patch_18">
    <path d="M 411.824458 448.56 
L 424.559338 448.56 
L 424.559338 425.46 
L 411.824458 425.46 
z
" clip-path="url(#p74c46a3412)" style="fill: #aec7e8"/>
   </g>
   <g id="patch_19">
    <path d="M 427.743058 448.56 
L 440.477938 448.56 
L 440.477938 442.785 
L 427.743058 442.785 
z
" clip-path="url(#p74c46a3412)" style="fill: #aec7e8"/>
   </g>
   <g id="patch_20">
    <path d="M 443.661658 448.56 
L 456.396539 448.56 
L 456.396539 437.01 
L 443.661658 437.01 
z
" clip-path="url(#p74c46a3412)" style="fill: #aec7e8"/>
   </g>
   <g id="patch_21">
    <path d="M 459.580259 448.56 
L 472.315139 448.56 
L 472.315139 437.01 
L 459.580259 437.01 
z
" clip-path="url(#p74c46a3412)" style="fill: #aec7e8"/>
   </g>
   <g id="patch_22">
    <path d="M 475.498859 448.56 
L 488.233739 448.56 
L 488.233739 413.91 
L 475.498859 413.91 
z
" clip-path="url(#p74c46a3412)" style="fill: #aec7e8"/>
   </g>
   <g id="patch_23">
    <path d="M 491.417459 448.56 
L 504.152339 448.56 
L 504.152339 419.685 
L 491.417459 419.685 
z
" clip-path="url(#p74c46a3412)" style="fill: #aec7e8"/>
   </g>
   <g id="patch_24">
    <path d="M 507.336059 448.56 
L 520.07094 448.56 
L 520.07094 419.685 
L 507.336059 419.685 
z
" clip-path="url(#p74c46a3412)" style="fill: #aec7e8"/>
   </g>
   <g id="patch_25">
    <path d="M 523.25466 448.56 
L 535.98954 448.56 
L 535.98954 396.585 
L 523.25466 396.585 
z
" clip-path="url(#p74c46a3412)" style="fill: #aec7e8"/>
   </g>
   <g id="patch_26">
    <path d="M 539.17326 448.56 
L 551.90814 448.56 
L 551.90814 396.585 
L 539.17326 396.585 
z
" clip-path="url(#p74c46a3412)" style="fill: #aec7e8"/>
   </g>
   <g id="patch_27">
    <path d="M 555.09186 448.56 
L 567.82674 448.56 
L 567.82674 419.685 
L 555.09186 419.685 
z
" clip-path="url(#p74c46a3412)" style="fill: #aec7e8"/>
   </g>
   <g id="patch_28">
    <path d="M 571.01046 448.56 
L 583.74534 448.56 
L 583.74534 402.36 
L 571.01046 402.36 
z
" clip-path="url(#p74c46a3412)" style="fill: #aec7e8"/>
   </g>
   <g id="patch_29">
    <path d="M 586.92906 448.56 
L 599.663941 448.56 
L 599.663941 385.035 
L 586.92906 385.035 
z
" clip-path="url(#p74c46a3412)" style="fill: #aec7e8"/>
   </g>
   <g id="patch_30">
    <path d="M 602.847661 448.56 
L 615.582541 448.56 
L 615.582541 396.585 
L 602.847661 396.585 
z
" clip-path="url(#p74c46a3412)" style="fill: #aec7e8"/>
   </g>
   <g id="patch_31">
    <path d="M 618.766261 448.56 
L 631.501141 448.56 
L 631.501141 402.36 
L 618.766261 402.36 
z
" clip-path="url(#p74c46a3412)" style="fill: #aec7e8"/>
   </g>
   <g id="patch_32">
    <path d="M 634.684861 448.56 
L 647.419741 448.56 
L 647.419741 402.36 
L 634.684861 402.36 
z
" clip-path="url(#p74c46a3412)" style="fill: #aec7e8"/>
   </g>
   <g id="patch_33">
    <path d="M 650.603461 448.56 
L 663.338342 448.56 
L 663.338342 431.235 
L 650.603461 431.235 
z
" clip-path="url(#p74c46a3412)" style="fill: #aec7e8"/>
   </g>
   <g id="patch_34">
    <path d="M 666.522062 448.56 
L 679.256942 448.56 
L 679.256942 442.785 
L 666.522062 442.785 
z
" clip-path="url(#p74c46a3412)" style="fill: #aec7e8"/>
   </g>
   <g id="patch_35">
    <path d="M 682.440662 448.56 
L 695.175542 448.56 
L 695.175542 413.91 
L 682.440662 413.91 
z
" clip-path="url(#p74c46a3412)" style="fill: #aec7e8"/>
   </g>
   <g id="patch_36">
    <path d="M 698.359262 448.56 
L 711.094142 448.56 
L 711.094142 413.91 
L 698.359262 413.91 
z
" clip-path="url(#p74c46a3412)" style="fill: #aec7e8"/>
   </g>
   <g id="patch_37">
    <path d="M 714.277862 448.56 
L 727.012742 448.56 
L 727.012742 425.46 
L 714.277862 425.46 
z
" clip-path="url(#p74c46a3412)" style="fill: #aec7e8"/>
   </g>
   <g id="patch_38">
    <path d="M 730.196463 448.56 
L 742.931343 448.56 
L 742.931343 413.91 
L 730.196463 413.91 
z
" clip-path="url(#p74c46a3412)" style="fill: #aec7e8"/>
   </g>
   <g id="patch_39">
    <path d="M 746.115063 448.56 
L 758.849943 448.56 
L 758.849943 413.91 
L 746.115063 413.91 
z
" clip-path="url(#p74c46a3412)" style="fill: #aec7e8"/>
   </g>
   <g id="patch_40">
    <path d="M 762.033663 448.56 
L 774.768543 448.56 
L 774.768543 425.46 
L 762.033663 425.46 
z
" clip-path="url(#p74c46a3412)" style="fill: #aec7e8"/>
   </g>
   <g id="patch_41">
    <path d="M 777.952263 448.56 
L 790.687143 448.56 
L 790.687143 413.91 
L 777.952263 413.91 
z
" clip-path="url(#p74c46a3412)" style="fill: #aec7e8"/>
   </g>
   <g id="patch_42">
    <path d="M 793.870863 448.56 
L 806.605744 448.56 
L 806.605744 431.235 
L 793.870863 431.235 
z
" clip-path="url(#p74c46a3412)" style="fill: #aec7e8"/>
   </g>
   <g id="patch_43">
    <path d="M 809.789464 448.56 
L 822.524344 448.56 
L 822.524344 425.46 
L 809.789464 425.46 
z
" clip-path="url(#p74c46a3412)" style="fill: #aec7e8"/>
   </g>
   <g id="patch_44">
    <path d="M 825.708064 448.56 
L 838.442944 448.56 
L 838.442944 419.685 
L 825.708064 419.685 
z
" clip-path="url(#p74c46a3412)" style="fill: #aec7e8"/>
   </g>
   <g id="patch_45">
    <path d="M 841.626664 448.56 
L 854.361544 448.56 
L 854.361544 437.01 
L 841.626664 437.01 
z
" clip-path="url(#p74c46a3412)" style="fill: #aec7e8"/>
   </g>
   <g id="patch_46">
    <path d="M 857.545264 448.56 
L 870.280145 448.56 
L 870.280145 431.235 
L 857.545264 431.235 
z
" clip-path="url(#p74c46a3412)" style="fill: #aec7e8"/>
   </g>
   <g id="patch_47">
    <path d="M 873.463865 448.56 
L 886.198745 448.56 
L 886.198745 408.135 
L 873.463865 408.135 
z
" clip-path="url(#p74c46a3412)" style="fill: #aec7e8"/>
   </g>
   <g id="patch_48">
    <path d="M 889.382465 448.56 
L 902.117345 448.56 
L 902.117345 437.01 
L 889.382465 437.01 
z
" clip-path="url(#p74c46a3412)" style="fill: #aec7e8"/>
   </g>
   <g id="patch_49">
    <path d="M 905.301065 448.56 
L 918.035945 448.56 
L 918.035945 419.685 
L 905.301065 419.685 
z
" clip-path="url(#p74c46a3412)" style="fill: #aec7e8"/>
   </g>
   <g id="patch_50">
    <path d="M 921.219665 448.56 
L 933.954545 448.56 
L 933.954545 396.585 
L 921.219665 396.585 
z
" clip-path="url(#p74c46a3412)" style="fill: #aec7e8"/>
   </g>
   <g id="patch_51">
    <path d="M 173.045455 408.135 
L 185.780335 408.135 
L 185.780335 379.26 
L 173.045455 379.26 
z
" clip-path="url(#p74c46a3412)" style="fill: #ffbb78"/>
   </g>
   <g id="patch_52">
    <path d="M 188.964055 402.36 
L 201.698935 402.36 
L 201.698935 373.485 
L 188.964055 373.485 
z
" clip-path="url(#p74c46a3412)" style="fill: #ffbb78"/>
   </g>
   <g id="patch_53">
    <path d="M 204.882655 413.91 
L 217.617535 413.91 
L 217.617535 373.485 
L 204.882655 373.485 
z
" clip-path="url(#p74c46a3412)" style="fill: #ffbb78"/>
   </g>
   <g id="patch_54">
    <path d="M 220.801255 390.81 
L 233.536135 390.81 
L 233.536135 356.16 
L 220.801255 356.16 
z
" clip-path="url(#p74c46a3412)" style="fill: #ffbb78"/>
   </g>
   <g id="patch_55">
    <path d="M 236.719855 390.81 
L 249.454736 390.81 
L 249.454736 344.61 
L 236.719855 344.61 
z
" clip-path="url(#p74c46a3412)" style="fill: #ffbb78"/>
   </g>
   <g id="patch_56">
    <path d="M 252.638456 425.46 
L 265.373336 425.46 
L 265.373336 385.035 
L 252.638456 385.035 
z
" clip-path="url(#p74c46a3412)" style="fill: #ffbb78"/>
   </g>
   <g id="patch_57">
    <path d="M 268.557056 425.46 
L 281.291936 425.46 
L 281.291936 413.91 
L 268.557056 413.91 
z
" clip-path="url(#p74c46a3412)" style="fill: #ffbb78"/>
   </g>
   <g id="patch_58">
    <path d="M 284.475656 442.785 
L 297.210536 442.785 
L 297.210536 419.685 
L 284.475656 419.685 
z
" clip-path="url(#p74c46a3412)" style="fill: #ffbb78"/>
   </g>
   <g id="patch_59">
    <path d="M 300.394256 442.785 
L 313.129137 442.785 
L 313.129137 431.235 
L 300.394256 431.235 
z
" clip-path="url(#p74c46a3412)" style="fill: #ffbb78"/>
   </g>
   <g id="patch_60">
    <path d="M 316.312857 431.235 
L 329.047737 431.235 
L 329.047737 402.36 
L 316.312857 402.36 
z
" clip-path="url(#p74c46a3412)" style="fill: #ffbb78"/>
   </g>
   <g id="patch_61">
    <path d="M 332.231457 419.685 
L 344.966337 419.685 
L 344.966337 373.485 
L 332.231457 373.485 
z
" clip-path="url(#p74c46a3412)" style="fill: #ffbb78"/>
   </g>
   <g id="patch_62">
    <path d="M 348.150057 402.36 
L 360.884937 402.36 
L 360.884937 333.06 
L 348.150057 333.06 
z
" clip-path="url(#p74c46a3412)" style="fill: #ffbb78"/>
   </g>
   <g id="patch_63">
    <path d="M 364.068657 413.91 
L 376.803537 413.91 
L 376.803537 396.585 
L 364.068657 396.585 
z
" clip-path="url(#p74c46a3412)" style="fill: #ffbb78"/>
   </g>
   <g id="patch_64">
    <path d="M 379.987258 419.685 
L 392.722138 419.685 
L 392.722138 333.06 
L 379.987258 333.06 
z
" clip-path="url(#p74c46a3412)" style="fill: #ffbb78"/>
   </g>
   <g id="patch_65">
    <path d="M 395.905858 413.91 
L 408.640738 413.91 
L 408.640738 350.385 
L 395.905858 350.385 
z
" clip-path="url(#p74c46a3412)" style="fill: #ffbb78"/>
   </g>
   <g id="patch_66">
    <path d="M 411.824458 425.46 
L 424.559338 425.46 
L 424.559338 408.135 
L 411.824458 408.135 
z
" clip-path="url(#p74c46a3412)" style="fill: #ffbb78"/>
   </g>
   <g id="patch_67">
    <path d="M 427.743058 442.785 
L 440.477938 442.785 
L 440.477938 431.235 
L 427.743058 431.235 
z
" clip-path="url(#p74c46a3412)" style="fill: #ffbb78"/>
   </g>
   <g id="patch_68">
    <path d="M 443.661658 437.01 
L 456.396539 437.01 
L 456.396539 425.46 
L 443.661658 425.46 
z
" clip-path="url(#p74c46a3412)" style="fill: #ffbb78"/>
   </g>
   <g id="patch_69">
    <path d="M 459.580259 437.01 
L 472.315139 437.01 
L 472.315139 419.685 
L 459.580259 419.685 
z
" clip-path="url(#p74c46a3412)" style="fill: #ffbb78"/>
   </g>
   <g id="patch_70">
    <path d="M 475.498859 413.91 
L 488.233739 413.91 
L 488.233739 390.81 
L 475.498859 390.81 
z
" clip-path="url(#p74c46a3412)" style="fill: #ffbb78"/>
   </g>
   <g id="patch_71">
    <path d="M 491.417459 419.685 
L 504.152339 419.685 
L 504.152339 379.26 
L 491.417459 379.26 
z
" clip-path="url(#p74c46a3412)" style="fill: #ffbb78"/>
   </g>
   <g id="patch_72">
    <path d="M 507.336059 419.685 
L 520.07094 419.685 
L 520.07094 385.035 
L 507.336059 385.035 
z
" clip-path="url(#p74c46a3412)" style="fill: #ffbb78"/>
   </g>
   <g id="patch_73">
    <path d="M 523.25466 396.585 
L 535.98954 396.585 
L 535.98954 315.735 
L 523.25466 315.735 
z
" clip-path="url(#p74c46a3412)" style="fill: #ffbb78"/>
   </g>
   <g id="patch_74">
    <path d="M 539.17326 396.585 
L 551.90814 396.585 
L 551.90814 292.635 
L 539.17326 292.635 
z
" clip-path="url(#p74c46a3412)" style="fill: #ffbb78"/>
   </g>
   <g id="patch_75">
    <path d="M 555.09186 419.685 
L 567.82674 419.685 
L 567.82674 396.585 
L 555.09186 396.585 
z
" clip-path="url(#p74c46a3412)" style="fill: #ffbb78"/>
   </g>
   <g id="patch_76">
    <path d="M 571.01046 402.36 
L 583.74534 402.36 
L 583.74534 367.71 
L 571.01046 367.71 
z
" clip-path="url(#p74c46a3412)" style="fill: #ffbb78"/>
   </g>
   <g id="patch_77">
    <path d="M 586.92906 385.035 
L 599.663941 385.035 
L 599.663941 304.185 
L 586.92906 304.185 
z
" clip-path="url(#p74c46a3412)" style="fill: #ffbb78"/>
   </g>
   <g id="patch_78">
    <path d="M 602.847661 396.585 
L 615.582541 396.585 
L 615.582541 350.385 
L 602.847661 350.385 
z
" clip-path="url(#p74c46a3412)" style="fill: #ffbb78"/>
   </g>
   <g id="patch_79">
    <path d="M 618.766261 402.36 
L 631.501141 402.36 
L 631.501141 333.06 
L 618.766261 333.06 
z
" clip-path="url(#p74c46a3412)" style="fill: #ffbb78"/>
   </g>
   <g id="patch_80">
    <path d="M 634.684861 402.36 
L 647.419741 402.36 
L 647.419741 373.485 
L 634.684861 373.485 
z
" clip-path="url(#p74c46a3412)" style="fill: #ffbb78"/>
   </g>
   <g id="patch_81">
    <path d="M 650.603461 431.235 
L 663.338342 431.235 
L 663.338342 396.585 
L 650.603461 396.585 
z
" clip-path="url(#p74c46a3412)" style="fill: #ffbb78"/>
   </g>
   <g id="patch_82">
    <path d="M 666.522062 442.785 
L 679.256942 442.785 
L 679.256942 437.01 
L 666.522062 437.01 
z
" clip-path="url(#p74c46a3412)" style="fill: #ffbb78"/>
   </g>
   <g id="patch_83">
    <path d="M 682.440662 413.91 
L 695.175542 413.91 
L 695.175542 396.585 
L 682.440662 396.585 
z
" clip-path="url(#p74c46a3412)" style="fill: #ffbb78"/>
   </g>
   <g id="patch_84">
    <path d="M 698.359262 413.91 
L 711.094142 413.91 
L 711.094142 367.71 
L 698.359262 367.71 
z
" clip-path="url(#p74c46a3412)" style="fill: #ffbb78"/>
   </g>
   <g id="patch_85">
    <path d="M 714.277862 425.46 
L 727.012742 425.46 
L 727.012742 367.71 
L 714.277862 367.71 
z
" clip-path="url(#p74c46a3412)" style="fill: #ffbb78"/>
   </g>
   <g id="patch_86">
    <path d="M 730.196463 413.91 
L 742.931343 413.91 
L 742.931343 286.86 
L 730.196463 286.86 
z
" clip-path="url(#p74c46a3412)" style="fill: #ffbb78"/>
   </g>
   <g id="patch_87">
    <path d="M 746.115063 413.91 
L 758.849943 413.91 
L 758.849943 361.935 
L 746.115063 361.935 
z
" clip-path="url(#p74c46a3412)" style="fill: #ffbb78"/>
   </g>
   <g id="patch_88">
    <path d="M 762.033663 425.46 
L 774.768543 425.46 
L 774.768543 315.735 
L 762.033663 315.735 
z
" clip-path="url(#p74c46a3412)" style="fill: #ffbb78"/>
   </g>
   <g id="patch_89">
    <path d="M 777.952263 413.91 
L 790.687143 413.91 
L 790.687143 333.06 
L 777.952263 333.06 
z
" clip-path="url(#p74c46a3412)" style="fill: #ffbb78"/>
   </g>
   <g id="patch_90">
    <path d="M 793.870863 431.235 
L 806.605744 431.235 
L 806.605744 396.585 
L 793.870863 396.585 
z
" clip-path="url(#p74c46a3412)" style="fill: #ffbb78"/>
   </g>
   <g id="patch_91">
    <path d="M 809.789464 425.46 
L 822.524344 425.46 
L 822.524344 396.585 
L 809.789464 396.585 
z
" clip-path="url(#p74c46a3412)" style="fill: #ffbb78"/>
   </g>
   <g id="patch_92">
    <path d="M 825.708064 419.685 
L 838.442944 419.685 
L 838.442944 408.135 
L 825.708064 408.135 
z
" clip-path="url(#p74c46a3412)" style="fill: #ffbb78"/>
   </g>
   <g id="patch_93">
    <path d="M 841.626664 437.01 
L 854.361544 437.01 
L 854.361544 385.035 
L 841.626664 385.035 
z
" clip-path="url(#p74c46a3412)" style="fill: #ffbb78"/>
   </g>
   <g id="patch_94">
    <path d="M 857.545264 431.235 
L 870.280145 431.235 
L 870.280145 390.81 
L 857.545264 390.81 
z
" clip-path="url(#p74c46a3412)" style="fill: #ffbb78"/>
   </g>
   <g id="patch_95">
    <path d="M 873.463865 408.135 
L 886.198745 408.135 
L 886.198745 373.485 
L 873.463865 373.485 
z
" clip-path="url(#p74c46a3412)" style="fill: #ffbb78"/>
   </g>
   <g id="patch_96">
    <path d="M 889.382465 437.01 
L 902.117345 437.01 
L 902.117345 367.71 
L 889.382465 367.71 
z
" clip-path="url(#p74c46a3412)" style="fill: #ffbb78"/>
   </g>
   <g id="patch_97">
    <path d="M 905.301065 419.685 
L 918.035945 419.685 
L 918.035945 373.485 
L 905.301065 373.485 
z
" clip-path="url(#p74c46a3412)" style="fill: #ffbb78"/>
   </g>
   <g id="patch_98">
    <path d="M 921.219665 396.585 
L 933.954545 396.585 
L 933.954545 361.935 
L 921.219665 361.935 
z
" clip-path="url(#p74c46a3412)" style="fill: #ffbb78"/>
   </g>
   <g id="patch_99">
    <path d="M 173.045455 379.26 
L 185.780335 379.26 
L 185.780335 379.26 
L 173.045455 379.26 
z
" clip-path="url(#p74c46a3412)" style="fill: #ff9896"/>
   </g>
   <g id="patch_100">
    <path d="M 188.964055 373.485 
L 201.698935 373.485 
L 201.698935 373.485 
L 188.964055 373.485 
z
" clip-path="url(#p74c46a3412)" style="fill: #ff9896"/>
   </g>
   <g id="patch_101">
    <path d="M 204.882655 373.485 
L 217.617535 373.485 
L 217.617535 373.485 
L 204.882655 373.485 
z
" clip-path="url(#p74c46a3412)" style="fill: #ff9896"/>
   </g>
   <g id="patch_102">
    <path d="M 220.801255 356.16 
L 233.536135 356.16 
L 233.536135 356.16 
L 220.801255 356.16 
z
" clip-path="url(#p74c46a3412)" style="fill: #ff9896"/>
   </g>
   <g id="patch_103">
    <path d="M 236.719855 344.61 
L 249.454736 344.61 
L 249.454736 344.61 
L 236.719855 344.61 
z
" clip-path="url(#p74c46a3412)" style="fill: #ff9896"/>
   </g>
   <g id="patch_104">
    <path d="M 252.638456 385.035 
L 265.373336 385.035 
L 265.373336 385.035 
L 252.638456 385.035 
z
" clip-path="url(#p74c46a3412)" style="fill: #ff9896"/>
   </g>
   <g id="patch_105">
    <path d="M 268.557056 413.91 
L 281.291936 413.91 
L 281.291936 413.91 
L 268.557056 413.91 
z
" clip-path="url(#p74c46a3412)" style="fill: #ff9896"/>
   </g>
   <g id="patch_106">
    <path d="M 284.475656 419.685 
L 297.210536 419.685 
L 297.210536 419.685 
L 284.475656 419.685 
z
" clip-path="url(#p74c46a3412)" style="fill: #ff9896"/>
   </g>
   <g id="patch_107">
    <path d="M 300.394256 431.235 
L 313.129137 431.235 
L 313.129137 431.235 
L 300.394256 431.235 
z
" clip-path="url(#p74c46a3412)" style="fill: #ff9896"/>
   </g>
   <g id="patch_108">
    <path d="M 316.312857 402.36 
L 329.047737 402.36 
L 329.047737 402.36 
L 316.312857 402.36 
z
" clip-path="url(#p74c46a3412)" style="fill: #ff9896"/>
   </g>
   <g id="patch_109">
    <path d="M 332.231457 373.485 
L 344.966337 373.485 
L 344.966337 373.485 
L 332.231457 373.485 
z
" clip-path="url(#p74c46a3412)" style="fill: #ff9896"/>
   </g>
   <g id="patch_110">
    <path d="M 348.150057 333.06 
L 360.884937 333.06 
L 360.884937 333.06 
L 348.150057 333.06 
z
" clip-path="url(#p74c46a3412)" style="fill: #ff9896"/>
   </g>
   <g id="patch_111">
    <path d="M 364.068657 396.585 
L 376.803537 396.585 
L 376.803537 396.585 
L 364.068657 396.585 
z
" clip-path="url(#p74c46a3412)" style="fill: #ff9896"/>
   </g>
   <g id="patch_112">
    <path d="M 379.987258 333.06 
L 392.722138 333.06 
L 392.722138 333.06 
L 379.987258 333.06 
z
" clip-path="url(#p74c46a3412)" style="fill: #ff9896"/>
   </g>
   <g id="patch_113">
    <path d="M 395.905858 350.385 
L 408.640738 350.385 
L 408.640738 350.385 
L 395.905858 350.385 
z
" clip-path="url(#p74c46a3412)" style="fill: #ff9896"/>
   </g>
   <g id="patch_114">
    <path d="M 411.824458 408.135 
L 424.559338 408.135 
L 424.559338 408.135 
L 411.824458 408.135 
z
" clip-path="url(#p74c46a3412)" style="fill: #ff9896"/>
   </g>
   <g id="patch_115">
    <path d="M 427.743058 431.235 
L 440.477938 431.235 
L 440.477938 431.235 
L 427.743058 431.235 
z
" clip-path="url(#p74c46a3412)" style="fill: #ff9896"/>
   </g>
   <g id="patch_116">
    <path d="M 443.661658 425.46 
L 456.396539 425.46 
L 456.396539 425.46 
L 443.661658 425.46 
z
" clip-path="url(#p74c46a3412)" style="fill: #ff9896"/>
   </g>
   <g id="patch_117">
    <path d="M 459.580259 419.685 
L 472.315139 419.685 
L 472.315139 419.685 
L 459.580259 419.685 
z
" clip-path="url(#p74c46a3412)" style="fill: #ff9896"/>
   </g>
   <g id="patch_118">
    <path d="M 475.498859 390.81 
L 488.233739 390.81 
L 488.233739 390.81 
L 475.498859 390.81 
z
" clip-path="url(#p74c46a3412)" style="fill: #ff9896"/>
   </g>
   <g id="patch_119">
    <path d="M 491.417459 379.26 
L 504.152339 379.26 
L 504.152339 379.26 
L 491.417459 379.26 
z
" clip-path="url(#p74c46a3412)" style="fill: #ff9896"/>
   </g>
   <g id="patch_120">
    <path d="M 507.336059 385.035 
L 520.07094 385.035 
L 520.07094 385.035 
L 507.336059 385.035 
z
" clip-path="url(#p74c46a3412)" style="fill: #ff9896"/>
   </g>
   <g id="patch_121">
    <path d="M 523.25466 315.735 
L 535.98954 315.735 
L 535.98954 315.735 
L 523.25466 315.735 
z
" clip-path="url(#p74c46a3412)" style="fill: #ff9896"/>
   </g>
   <g id="patch_122">
    <path d="M 539.17326 292.635 
L 551.90814 292.635 
L 551.90814 292.635 
L 539.17326 292.635 
z
" clip-path="url(#p74c46a3412)" style="fill: #ff9896"/>
   </g>
   <g id="patch_123">
    <path d="M 555.09186 396.585 
L 567.82674 396.585 
L 567.82674 396.585 
L 555.09186 396.585 
z
" clip-path="url(#p74c46a3412)" style="fill: #ff9896"/>
   </g>
   <g id="patch_124">
    <path d="M 571.01046 367.71 
L 583.74534 367.71 
L 583.74534 367.71 
L 571.01046 367.71 
z
" clip-path="url(#p74c46a3412)" style="fill: #ff9896"/>
   </g>
   <g id="patch_125">
    <path d="M 586.92906 304.185 
L 599.663941 304.185 
L 599.663941 304.185 
L 586.92906 304.185 
z
" clip-path="url(#p74c46a3412)" style="fill: #ff9896"/>
   </g>
   <g id="patch_126">
    <path d="M 602.847661 350.385 
L 615.582541 350.385 
L 615.582541 350.385 
L 602.847661 350.385 
z
" clip-path="url(#p74c46a3412)" style="fill: #ff9896"/>
   </g>
   <g id="patch_127">
    <path d="M 618.766261 333.06 
L 631.501141 333.06 
L 631.501141 333.06 
L 618.766261 333.06 
z
" clip-path="url(#p74c46a3412)" style="fill: #ff9896"/>
   </g>
   <g id="patch_128">
    <path d="M 634.684861 373.485 
L 647.419741 373.485 
L 647.419741 373.485 
L 634.684861 373.485 
z
" clip-path="url(#p74c46a3412)" style="fill: #ff9896"/>
   </g>
   <g id="patch_129">
    <path d="M 650.603461 396.585 
L 663.338342 396.585 
L 663.338342 396.585 
L 650.603461 396.585 
z
" clip-path="url(#p74c46a3412)" style="fill: #ff9896"/>
   </g>
   <g id="patch_130">
    <path d="M 666.522062 437.01 
L 679.256942 437.01 
L 679.256942 437.01 
L 666.522062 437.01 
z
" clip-path="url(#p74c46a3412)" style="fill: #ff9896"/>
   </g>
   <g id="patch_131">
    <path d="M 682.440662 396.585 
L 695.175542 396.585 
L 695.175542 396.585 
L 682.440662 396.585 
z
" clip-path="url(#p74c46a3412)" style="fill: #ff9896"/>
   </g>
   <g id="patch_132">
    <path d="M 698.359262 367.71 
L 711.094142 367.71 
L 711.094142 367.71 
L 698.359262 367.71 
z
" clip-path="url(#p74c46a3412)" style="fill: #ff9896"/>
   </g>
   <g id="patch_133">
    <path d="M 714.277862 367.71 
L 727.012742 367.71 
L 727.012742 367.71 
L 714.277862 367.71 
z
" clip-path="url(#p74c46a3412)" style="fill: #ff9896"/>
   </g>
   <g id="patch_134">
    <path d="M 730.196463 286.86 
L 742.931343 286.86 
L 742.931343 286.86 
L 730.196463 286.86 
z
" clip-path="url(#p74c46a3412)" style="fill: #ff9896"/>
   </g>
   <g id="patch_135">
    <path d="M 746.115063 361.935 
L 758.849943 361.935 
L 758.849943 361.935 
L 746.115063 361.935 
z
" clip-path="url(#p74c46a3412)" style="fill: #ff9896"/>
   </g>
   <g id="patch_136">
    <path d="M 762.033663 315.735 
L 774.768543 315.735 
L 774.768543 315.735 
L 762.033663 315.735 
z
" clip-path="url(#p74c46a3412)" style="fill: #ff9896"/>
   </g>
   <g id="patch_137">
    <path d="M 777.952263 333.06 
L 790.687143 333.06 
L 790.687143 333.06 
L 777.952263 333.06 
z
" clip-path="url(#p74c46a3412)" style="fill: #ff9896"/>
   </g>
   <g id="patch_138">
    <path d="M 793.870863 396.585 
L 806.605744 396.585 
L 806.605744 396.585 
L 793.870863 396.585 
z
" clip-path="url(#p74c46a3412)" style="fill: #ff9896"/>
   </g>
   <g id="patch_139">
    <path d="M 809.789464 396.585 
L 822.524344 396.585 
L 822.524344 396.585 
L 809.789464 396.585 
z
" clip-path="url(#p74c46a3412)" style="fill: #ff9896"/>
   </g>
   <g id="patch_140">
    <path d="M 825.708064 408.135 
L 838.442944 408.135 
L 838.442944 408.135 
L 825.708064 408.135 
z
" clip-path="url(#p74c46a3412)" style="fill: #ff9896"/>
   </g>
   <g id="patch_141">
    <path d="M 841.626664 385.035 
L 854.361544 385.035 
L 854.361544 385.035 
L 841.626664 385.035 
z
" clip-path="url(#p74c46a3412)" style="fill: #ff9896"/>
   </g>
   <g id="patch_142">
    <path d="M 857.545264 390.81 
L 870.280145 390.81 
L 870.280145 390.81 
L 857.545264 390.81 
z
" clip-path="url(#p74c46a3412)" style="fill: #ff9896"/>
   </g>
   <g id="patch_143">
    <path d="M 873.463865 373.485 
L 886.198745 373.485 
L 886.198745 373.485 
L 873.463865 373.485 
z
" clip-path="url(#p74c46a3412)" style="fill: #ff9896"/>
   </g>
   <g id="patch_144">
    <path d="M 889.382465 367.71 
L 902.117345 367.71 
L 902.117345 367.71 
L 889.382465 367.71 
z
" clip-path="url(#p74c46a3412)" style="fill: #ff9896"/>
   </g>
   <g id="patch_145">
    <path d="M 905.301065 373.485 
L 918.035945 373.485 
L 918.035945 373.485 
L 905.301065 373.485 
z
" clip-path="url(#p74c46a3412)" style="fill: #ff9896"/>
   </g>
   <g id="patch_146">
    <path d="M 921.219665 361.935 
L 933.954545 361.935 
L 933.954545 361.935 
L 921.219665 361.935 
z
" clip-path="url(#p74c46a3412)" style="fill: #ff9896"/>
   </g>
   <g id="patch_147">
    <path d="M 173.045455 379.26 
L 185.780335 379.26 
L 185.780335 367.71 
L 173.045455 367.71 
z
" clip-path="url(#p74c46a3412)" style="fill: #1f77b4"/>
   </g>
   <g id="patch_148">
    <path d="M 188.964055 373.485 
L 201.698935 373.485 
L 201.698935 361.935 
L 188.964055 361.935 
z
" clip-path="url(#p74c46a3412)" style="fill: #1f77b4"/>
   </g>
   <g id="patch_149">
    <path d="M 204.882655 373.485 
L 217.617535 373.485 
L 217.617535 344.61 
L 204.882655 344.61 
z
" clip-path="url(#p74c46a3412)" style="fill: #1f77b4"/>
   </g>
   <g id="patch_150">
    <path d="M 220.801255 356.16 
L 233.536135 356.16 
L 233.536135 304.185 
L 220.801255 304.185 
z
" clip-path="url(#p74c46a3412)" style="fill: #1f77b4"/>
   </g>
   <g id="patch_151">
    <path d="M 236.719855 344.61 
L 249.454736 344.61 
L 249.454736 321.51 
L 236.719855 321.51 
z
" clip-path="url(#p74c46a3412)" style="fill: #1f77b4"/>
   </g>
   <g id="patch_152">
    <path d="M 252.638456 385.035 
L 265.373336 385.035 
L 265.373336 356.16 
L 252.638456 356.16 
z
" clip-path="url(#p74c46a3412)" style="fill: #1f77b4"/>
   </g>
   <g id="patch_153">
    <path d="M 268.557056 413.91 
L 281.291936 413.91 
L 281.291936 413.91 
L 268.557056 413.91 
z
" clip-path="url(#p74c46a3412)" style="fill: #1f77b4"/>
   </g>
   <g id="patch_154">
    <path d="M 284.475656 419.685 
L 297.210536 419.685 
L 297.210536 419.685 
L 284.475656 419.685 
z
" clip-path="url(#p74c46a3412)" style="fill: #1f77b4"/>
   </g>
   <g id="patch_155">
    <path d="M 300.394256 431.235 
L 313.129137 431.235 
L 313.129137 431.235 
L 300.394256 431.235 
z
" clip-path="url(#p74c46a3412)" style="fill: #1f77b4"/>
   </g>
   <g id="patch_156">
    <path d="M 316.312857 402.36 
L 329.047737 402.36 
L 329.047737 385.035 
L 316.312857 385.035 
z
" clip-path="url(#p74c46a3412)" style="fill: #1f77b4"/>
   </g>
   <g id="patch_157">
    <path d="M 332.231457 373.485 
L 344.966337 373.485 
L 344.966337 350.385 
L 332.231457 350.385 
z
" clip-path="url(#p74c46a3412)" style="fill: #1f77b4"/>
   </g>
   <g id="patch_158">
    <path d="M 348.150057 333.06 
L 360.884937 333.06 
L 360.884937 327.285 
L 348.150057 327.285 
z
" clip-path="url(#p74c46a3412)" style="fill: #1f77b4"/>
   </g>
   <g id="patch_159">
    <path d="M 364.068657 396.585 
L 376.803537 396.585 
L 376.803537 396.585 
L 364.068657 396.585 
z
" clip-path="url(#p74c46a3412)" style="fill: #1f77b4"/>
   </g>
   <g id="patch_160">
    <path d="M 379.987258 333.06 
L 392.722138 333.06 
L 392.722138 309.96 
L 379.987258 309.96 
z
" clip-path="url(#p74c46a3412)" style="fill: #1f77b4"/>
   </g>
   <g id="patch_161">
    <path d="M 395.905858 350.385 
L 408.640738 350.385 
L 408.640738 338.835 
L 395.905858 338.835 
z
" clip-path="url(#p74c46a3412)" style="fill: #1f77b4"/>
   </g>
   <g id="patch_162">
    <path d="M 411.824458 408.135 
L 424.559338 408.135 
L 424.559338 396.585 
L 411.824458 396.585 
z
" clip-path="url(#p74c46a3412)" style="fill: #1f77b4"/>
   </g>
   <g id="patch_163">
    <path d="M 427.743058 431.235 
L 440.477938 431.235 
L 440.477938 413.91 
L 427.743058 413.91 
z
" clip-path="url(#p74c46a3412)" style="fill: #1f77b4"/>
   </g>
   <g id="patch_164">
    <path d="M 443.661658 425.46 
L 456.396539 425.46 
L 456.396539 425.46 
L 443.661658 425.46 
z
" clip-path="url(#p74c46a3412)" style="fill: #1f77b4"/>
   </g>
   <g id="patch_165">
    <path d="M 459.580259 419.685 
L 472.315139 419.685 
L 472.315139 408.135 
L 459.580259 408.135 
z
" clip-path="url(#p74c46a3412)" style="fill: #1f77b4"/>
   </g>
   <g id="patch_166">
    <path d="M 475.498859 390.81 
L 488.233739 390.81 
L 488.233739 390.81 
L 475.498859 390.81 
z
" clip-path="url(#p74c46a3412)" style="fill: #1f77b4"/>
   </g>
   <g id="patch_167">
    <path d="M 491.417459 379.26 
L 504.152339 379.26 
L 504.152339 373.485 
L 491.417459 373.485 
z
" clip-path="url(#p74c46a3412)" style="fill: #1f77b4"/>
   </g>
   <g id="patch_168">
    <path d="M 507.336059 385.035 
L 520.07094 385.035 
L 520.07094 367.71 
L 507.336059 367.71 
z
" clip-path="url(#p74c46a3412)" style="fill: #1f77b4"/>
   </g>
   <g id="patch_169">
    <path d="M 523.25466 315.735 
L 535.98954 315.735 
L 535.98954 292.635 
L 523.25466 292.635 
z
" clip-path="url(#p74c46a3412)" style="fill: #1f77b4"/>
   </g>
   <g id="patch_170">
    <path d="M 539.17326 292.635 
L 551.90814 292.635 
L 551.90814 263.76 
L 539.17326 263.76 
z
" clip-path="url(#p74c46a3412)" style="fill: #1f77b4"/>
   </g>
   <g id="patch_171">
    <path d="M 555.09186 396.585 
L 567.82674 396.585 
L 567.82674 379.26 
L 555.09186 379.26 
z
" clip-path="url(#p74c46a3412)" style="fill: #1f77b4"/>
   </g>
   <g id="patch_172">
    <path d="M 571.01046 367.71 
L 583.74534 367.71 
L 583.74534 350.385 
L 571.01046 350.385 
z
" clip-path="url(#p74c46a3412)" style="fill: #1f77b4"/>
   </g>
   <g id="patch_173">
    <path d="M 586.92906 304.185 
L 599.663941 304.185 
L 599.663941 292.635 
L 586.92906 292.635 
z
" clip-path="url(#p74c46a3412)" style="fill: #1f77b4"/>
   </g>
   <g id="patch_174">
    <path d="M 602.847661 350.385 
L 615.582541 350.385 
L 615.582541 344.61 
L 602.847661 344.61 
z
" clip-path="url(#p74c46a3412)" style="fill: #1f77b4"/>
   </g>
   <g id="patch_175">
    <path d="M 618.766261 333.06 
L 631.501141 333.06 
L 631.501141 309.96 
L 618.766261 309.96 
z
" clip-path="url(#p74c46a3412)" style="fill: #1f77b4"/>
   </g>
   <g id="patch_176">
    <path d="M 634.684861 373.485 
L 647.419741 373.485 
L 647.419741 367.71 
L 634.684861 367.71 
z
" clip-path="url(#p74c46a3412)" style="fill: #1f77b4"/>
   </g>
   <g id="patch_177">
    <path d="M 650.603461 396.585 
L 663.338342 396.585 
L 663.338342 390.81 
L 650.603461 390.81 
z
" clip-path="url(#p74c46a3412)" style="fill: #1f77b4"/>
   </g>
   <g id="patch_178">
    <path d="M 666.522062 437.01 
L 679.256942 437.01 
L 679.256942 431.235 
L 666.522062 431.235 
z
" clip-path="url(#p74c46a3412)" style="fill: #1f77b4"/>
   </g>
   <g id="patch_179">
    <path d="M 682.440662 396.585 
L 695.175542 396.585 
L 695.175542 390.81 
L 682.440662 390.81 
z
" clip-path="url(#p74c46a3412)" style="fill: #1f77b4"/>
   </g>
   <g id="patch_180">
    <path d="M 698.359262 367.71 
L 711.094142 367.71 
L 711.094142 356.16 
L 698.359262 356.16 
z
" clip-path="url(#p74c46a3412)" style="fill: #1f77b4"/>
   </g>
   <g id="patch_181">
    <path d="M 714.277862 367.71 
L 727.012742 367.71 
L 727.012742 361.935 
L 714.277862 361.935 
z
" clip-path="url(#p74c46a3412)" style="fill: #1f77b4"/>
   </g>
   <g id="patch_182">
    <path d="M 730.196463 286.86 
L 742.931343 286.86 
L 742.931343 246.435 
L 730.196463 246.435 
z
" clip-path="url(#p74c46a3412)" style="fill: #1f77b4"/>
   </g>
   <g id="patch_183">
    <path d="M 746.115063 361.935 
L 758.849943 361.935 
L 758.849943 356.16 
L 746.115063 356.16 
z
" clip-path="url(#p74c46a3412)" style="fill: #1f77b4"/>
   </g>
   <g id="patch_184">
    <path d="M 762.033663 315.735 
L 774.768543 315.735 
L 774.768543 304.185 
L 762.033663 304.185 
z
" clip-path="url(#p74c46a3412)" style="fill: #1f77b4"/>
   </g>
   <g id="patch_185">
    <path d="M 777.952263 333.06 
L 790.687143 333.06 
L 790.687143 321.51 
L 777.952263 321.51 
z
" clip-path="url(#p74c46a3412)" style="fill: #1f77b4"/>
   </g>
   <g id="patch_186">
    <path d="M 793.870863 396.585 
L 806.605744 396.585 
L 806.605744 390.81 
L 793.870863 390.81 
z
" clip-path="url(#p74c46a3412)" style="fill: #1f77b4"/>
   </g>
   <g id="patch_187">
    <path d="M 809.789464 396.585 
L 822.524344 396.585 
L 822.524344 367.71 
L 809.789464 367.71 
z
" clip-path="url(#p74c46a3412)" style="fill: #1f77b4"/>
   </g>
   <g id="patch_188">
    <path d="M 825.708064 408.135 
L 838.442944 408.135 
L 838.442944 402.36 
L 825.708064 402.36 
z
" clip-path="url(#p74c46a3412)" style="fill: #1f77b4"/>
   </g>
   <g id="patch_189">
    <path d="M 841.626664 385.035 
L 854.361544 385.035 
L 854.361544 367.71 
L 841.626664 367.71 
z
" clip-path="url(#p74c46a3412)" style="fill: #1f77b4"/>
   </g>
   <g id="patch_190">
    <path d="M 857.545264 390.81 
L 870.280145 390.81 
L 870.280145 379.26 
L 857.545264 379.26 
z
" clip-path="url(#p74c46a3412)" style="fill: #1f77b4"/>
   </g>
   <g id="patch_191">
    <path d="M 873.463865 373.485 
L 886.198745 373.485 
L 886.198745 338.835 
L 873.463865 338.835 
z
" clip-path="url(#p74c46a3412)" style="fill: #1f77b4"/>
   </g>
   <g id="patch_192">
    <path d="M 889.382465 367.71 
L 902.117345 367.71 
L 902.117345 356.16 
L 889.382465 356.16 
z
" clip-path="url(#p74c46a3412)" style="fill: #1f77b4"/>
   </g>
   <g id="patch_193">
    <path d="M 905.301065 373.485 
L 918.035945 373.485 
L 918.035945 367.71 
L 905.301065 367.71 
z
" clip-path="url(#p74c46a3412)" style="fill: #1f77b4"/>
   </g>
   <g id="patch_194">
    <path d="M 921.219665 361.935 
L 933.954545 361.935 
L 933.954545 350.385 
L 921.219665 350.385 
z
" clip-path="url(#p74c46a3412)" style="fill: #1f77b4"/>
   </g>
   <g id="patch_195">
    <path d="M 173.045455 367.71 
L 185.780335 367.71 
L 185.780335 333.06 
L 173.045455 333.06 
z
" clip-path="url(#p74c46a3412)" style="fill: #ff7f0e"/>
   </g>
   <g id="patch_196">
    <path d="M 188.964055 361.935 
L 201.698935 361.935 
L 201.698935 321.51 
L 188.964055 321.51 
z
" clip-path="url(#p74c46a3412)" style="fill: #ff7f0e"/>
   </g>
   <g id="patch_197">
    <path d="M 204.882655 344.61 
L 217.617535 344.61 
L 217.617535 292.635 
L 204.882655 292.635 
z
" clip-path="url(#p74c46a3412)" style="fill: #ff7f0e"/>
   </g>
   <g id="patch_198">
    <path d="M 220.801255 304.185 
L 233.536135 304.185 
L 233.536135 257.985 
L 220.801255 257.985 
z
" clip-path="url(#p74c46a3412)" style="fill: #ff7f0e"/>
   </g>
   <g id="patch_199">
    <path d="M 236.719855 321.51 
L 249.454736 321.51 
L 249.454736 229.11 
L 236.719855 229.11 
z
" clip-path="url(#p74c46a3412)" style="fill: #ff7f0e"/>
   </g>
   <g id="patch_200">
    <path d="M 252.638456 356.16 
L 265.373336 356.16 
L 265.373336 315.735 
L 252.638456 315.735 
z
" clip-path="url(#p74c46a3412)" style="fill: #ff7f0e"/>
   </g>
   <g id="patch_201">
    <path d="M 268.557056 413.91 
L 281.291936 413.91 
L 281.291936 390.81 
L 268.557056 390.81 
z
" clip-path="url(#p74c46a3412)" style="fill: #ff7f0e"/>
   </g>
   <g id="patch_202">
    <path d="M 284.475656 419.685 
L 297.210536 419.685 
L 297.210536 408.135 
L 284.475656 408.135 
z
" clip-path="url(#p74c46a3412)" style="fill: #ff7f0e"/>
   </g>
   <g id="patch_203">
    <path d="M 300.394256 431.235 
L 313.129137 431.235 
L 313.129137 408.135 
L 300.394256 408.135 
z
" clip-path="url(#p74c46a3412)" style="fill: #ff7f0e"/>
   </g>
   <g id="patch_204">
    <path d="M 316.312857 385.035 
L 329.047737 385.035 
L 329.047737 350.385 
L 316.312857 350.385 
z
" clip-path="url(#p74c46a3412)" style="fill: #ff7f0e"/>
   </g>
   <g id="patch_205">
    <path d="M 332.231457 350.385 
L 344.966337 350.385 
L 344.966337 315.735 
L 332.231457 315.735 
z
" clip-path="url(#p74c46a3412)" style="fill: #ff7f0e"/>
   </g>
   <g id="patch_206">
    <path d="M 348.150057 327.285 
L 360.884937 327.285 
L 360.884937 240.66 
L 348.150057 240.66 
z
" clip-path="url(#p74c46a3412)" style="fill: #ff7f0e"/>
   </g>
   <g id="patch_207">
    <path d="M 364.068657 396.585 
L 376.803537 396.585 
L 376.803537 350.385 
L 364.068657 350.385 
z
" clip-path="url(#p74c46a3412)" style="fill: #ff7f0e"/>
   </g>
   <g id="patch_208">
    <path d="M 379.987258 309.96 
L 392.722138 309.96 
L 392.722138 257.985 
L 379.987258 257.985 
z
" clip-path="url(#p74c46a3412)" style="fill: #ff7f0e"/>
   </g>
   <g id="patch_209">
    <path d="M 395.905858 338.835 
L 408.640738 338.835 
L 408.640738 304.185 
L 395.905858 304.185 
z
" clip-path="url(#p74c46a3412)" style="fill: #ff7f0e"/>
   </g>
   <g id="patch_210">
    <path d="M 411.824458 396.585 
L 424.559338 396.585 
L 424.559338 367.71 
L 411.824458 367.71 
z
" clip-path="url(#p74c46a3412)" style="fill: #ff7f0e"/>
   </g>
   <g id="patch_211">
    <path d="M 427.743058 413.91 
L 440.477938 413.91 
L 440.477938 390.81 
L 427.743058 390.81 
z
" clip-path="url(#p74c46a3412)" style="fill: #ff7f0e"/>
   </g>
   <g id="patch_212">
    <path d="M 443.661658 425.46 
L 456.396539 425.46 
L 456.396539 408.135 
L 443.661658 408.135 
z
" clip-path="url(#p74c46a3412)" style="fill: #ff7f0e"/>
   </g>
   <g id="patch_213">
    <path d="M 459.580259 408.135 
L 472.315139 408.135 
L 472.315139 379.26 
L 459.580259 379.26 
z
" clip-path="url(#p74c46a3412)" style="fill: #ff7f0e"/>
   </g>
   <g id="patch_214">
    <path d="M 475.498859 390.81 
L 488.233739 390.81 
L 488.233739 367.71 
L 475.498859 367.71 
z
" clip-path="url(#p74c46a3412)" style="fill: #ff7f0e"/>
   </g>
   <g id="patch_215">
    <path d="M 491.417459 373.485 
L 504.152339 373.485 
L 504.152339 333.06 
L 491.417459 333.06 
z
" clip-path="url(#p74c46a3412)" style="fill: #ff7f0e"/>
   </g>
   <g id="patch_216">
    <path d="M 507.336059 367.71 
L 520.07094 367.71 
L 520.07094 269.535 
L 507.336059 269.535 
z
" clip-path="url(#p74c46a3412)" style="fill: #ff7f0e"/>
   </g>
   <g id="patch_217">
    <path d="M 523.25466 292.635 
L 535.98954 292.635 
L 535.98954 217.56 
L 523.25466 217.56 
z
" clip-path="url(#p74c46a3412)" style="fill: #ff7f0e"/>
   </g>
   <g id="patch_218">
    <path d="M 539.17326 263.76 
L 551.90814 263.76 
L 551.90814 182.91 
L 539.17326 182.91 
z
" clip-path="url(#p74c46a3412)" style="fill: #ff7f0e"/>
   </g>
   <g id="patch_219">
    <path d="M 555.09186 379.26 
L 567.82674 379.26 
L 567.82674 309.96 
L 555.09186 309.96 
z
" clip-path="url(#p74c46a3412)" style="fill: #ff7f0e"/>
   </g>
   <g id="patch_220">
    <path d="M 571.01046 350.385 
L 583.74534 350.385 
L 583.74534 286.86 
L 571.01046 286.86 
z
" clip-path="url(#p74c46a3412)" style="fill: #ff7f0e"/>
   </g>
   <g id="patch_221">
    <path d="M 586.92906 292.635 
L 599.663941 292.635 
L 599.663941 246.435 
L 586.92906 246.435 
z
" clip-path="url(#p74c46a3412)" style="fill: #ff7f0e"/>
   </g>
   <g id="patch_222">
    <path d="M 602.847661 344.61 
L 615.582541 344.61 
L 615.582541 246.435 
L 602.847661 246.435 
z
" clip-path="url(#p74c46a3412)" style="fill: #ff7f0e"/>
   </g>
   <g id="patch_223">
    <path d="M 618.766261 309.96 
L 631.501141 309.96 
L 631.501141 217.56 
L 618.766261 217.56 
z
" clip-path="url(#p74c46a3412)" style="fill: #ff7f0e"/>
   </g>
   <g id="patch_224">
    <path d="M 634.684861 367.71 
L 647.419741 367.71 
L 647.419741 309.96 
L 634.684861 309.96 
z
" clip-path="url(#p74c46a3412)" style="fill: #ff7f0e"/>
   </g>
   <g id="patch_225">
    <path d="M 650.603461 390.81 
L 663.338342 390.81 
L 663.338342 344.61 
L 650.603461 344.61 
z
" clip-path="url(#p74c46a3412)" style="fill: #ff7f0e"/>
   </g>
   <g id="patch_226">
    <path d="M 666.522062 431.235 
L 679.256942 431.235 
L 679.256942 431.235 
L 666.522062 431.235 
z
" clip-path="url(#p74c46a3412)" style="fill: #ff7f0e"/>
   </g>
   <g id="patch_227">
    <path d="M 682.440662 390.81 
L 695.175542 390.81 
L 695.175542 361.935 
L 682.440662 361.935 
z
" clip-path="url(#p74c46a3412)" style="fill: #ff7f0e"/>
   </g>
   <g id="patch_228">
    <path d="M 698.359262 356.16 
L 711.094142 356.16 
L 711.094142 292.635 
L 698.359262 292.635 
z
" clip-path="url(#p74c46a3412)" style="fill: #ff7f0e"/>
   </g>
   <g id="patch_229">
    <path d="M 714.277862 361.935 
L 727.012742 361.935 
L 727.012742 315.735 
L 714.277862 315.735 
z
" clip-path="url(#p74c46a3412)" style="fill: #ff7f0e"/>
   </g>
   <g id="patch_230">
    <path d="M 730.196463 246.435 
L 742.931343 246.435 
L 742.931343 136.71 
L 730.196463 136.71 
z
" clip-path="url(#p74c46a3412)" style="fill: #ff7f0e"/>
   </g>
   <g id="patch_231">
    <path d="M 746.115063 356.16 
L 758.849943 356.16 
L 758.849943 321.51 
L 746.115063 321.51 
z
" clip-path="url(#p74c46a3412)" style="fill: #ff7f0e"/>
   </g>
   <g id="patch_232">
    <path d="M 762.033663 304.185 
L 774.768543 304.185 
L 774.768543 252.21 
L 762.033663 252.21 
z
" clip-path="url(#p74c46a3412)" style="fill: #ff7f0e"/>
   </g>
   <g id="patch_233">
    <path d="M 777.952263 321.51 
L 790.687143 321.51 
L 790.687143 252.21 
L 777.952263 252.21 
z
" clip-path="url(#p74c46a3412)" style="fill: #ff7f0e"/>
   </g>
   <g id="patch_234">
    <path d="M 793.870863 390.81 
L 806.605744 390.81 
L 806.605744 356.16 
L 793.870863 356.16 
z
" clip-path="url(#p74c46a3412)" style="fill: #ff7f0e"/>
   </g>
   <g id="patch_235">
    <path d="M 809.789464 367.71 
L 822.524344 367.71 
L 822.524344 321.51 
L 809.789464 321.51 
z
" clip-path="url(#p74c46a3412)" style="fill: #ff7f0e"/>
   </g>
   <g id="patch_236">
    <path d="M 825.708064 402.36 
L 838.442944 402.36 
L 838.442944 356.16 
L 825.708064 356.16 
z
" clip-path="url(#p74c46a3412)" style="fill: #ff7f0e"/>
   </g>
   <g id="patch_237">
    <path d="M 841.626664 367.71 
L 854.361544 367.71 
L 854.361544 327.285 
L 841.626664 327.285 
z
" clip-path="url(#p74c46a3412)" style="fill: #ff7f0e"/>
   </g>
   <g id="patch_238">
    <path d="M 857.545264 379.26 
L 870.280145 379.26 
L 870.280145 315.735 
L 857.545264 315.735 
z
" clip-path="url(#p74c46a3412)" style="fill: #ff7f0e"/>
   </g>
   <g id="patch_239">
    <path d="M 873.463865 338.835 
L 886.198745 338.835 
L 886.198745 269.535 
L 873.463865 269.535 
z
" clip-path="url(#p74c46a3412)" style="fill: #ff7f0e"/>
   </g>
   <g id="patch_240">
    <path d="M 889.382465 356.16 
L 902.117345 356.16 
L 902.117345 304.185 
L 889.382465 304.185 
z
" clip-path="url(#p74c46a3412)" style="fill: #ff7f0e"/>
   </g>
   <g id="patch_241">
    <path d="M 905.301065 367.71 
L 918.035945 367.71 
L 918.035945 292.635 
L 905.301065 292.635 
z
" clip-path="url(#p74c46a3412)" style="fill: #ff7f0e"/>
   </g>
   <g id="patch_242">
    <path d="M 921.219665 350.385 
L 933.954545 350.385 
L 933.954545 315.735 
L 921.219665 315.735 
z
" clip-path="url(#p74c46a3412)" style="fill: #ff7f0e"/>
   </g>
   <g id="patch_243">
    <path d="M 173.045455 333.06 
L 185.780335 333.06 
L 185.780335 321.51 
L 173.045455 321.51 
z
" clip-path="url(#p74c46a3412)" style="fill: #d62728"/>
   </g>
   <g id="patch_244">
    <path d="M 188.964055 321.51 
L 201.698935 321.51 
L 201.698935 263.76 
L 188.964055 263.76 
z
" clip-path="url(#p74c46a3412)" style="fill: #d62728"/>
   </g>
   <g id="patch_245">
    <path d="M 204.882655 292.635 
L 217.617535 292.635 
L 217.617535 257.985 
L 204.882655 257.985 
z
" clip-path="url(#p74c46a3412)" style="fill: #d62728"/>
   </g>
   <g id="patch_246">
    <path d="M 220.801255 257.985 
L 233.536135 257.985 
L 233.536135 211.785 
L 220.801255 211.785 
z
" clip-path="url(#p74c46a3412)" style="fill: #d62728"/>
   </g>
   <g id="patch_247">
    <path d="M 236.719855 229.11 
L 249.454736 229.11 
L 249.454736 217.56 
L 236.719855 217.56 
z
" clip-path="url(#p74c46a3412)" style="fill: #d62728"/>
   </g>
   <g id="patch_248">
    <path d="M 252.638456 315.735 
L 265.373336 315.735 
L 265.373336 304.185 
L 252.638456 304.185 
z
" clip-path="url(#p74c46a3412)" style="fill: #d62728"/>
   </g>
   <g id="patch_249">
    <path d="M 268.557056 390.81 
L 281.291936 390.81 
L 281.291936 361.935 
L 268.557056 361.935 
z
" clip-path="url(#p74c46a3412)" style="fill: #d62728"/>
   </g>
   <g id="patch_250">
    <path d="M 284.475656 408.135 
L 297.210536 408.135 
L 297.210536 408.135 
L 284.475656 408.135 
z
" clip-path="url(#p74c46a3412)" style="fill: #d62728"/>
   </g>
   <g id="patch_251">
    <path d="M 300.394256 408.135 
L 313.129137 408.135 
L 313.129137 408.135 
L 300.394256 408.135 
z
" clip-path="url(#p74c46a3412)" style="fill: #d62728"/>
   </g>
   <g id="patch_252">
    <path d="M 316.312857 350.385 
L 329.047737 350.385 
L 329.047737 275.31 
L 316.312857 275.31 
z
" clip-path="url(#p74c46a3412)" style="fill: #d62728"/>
   </g>
   <g id="patch_253">
    <path d="M 332.231457 315.735 
L 344.966337 315.735 
L 344.966337 281.085 
L 332.231457 281.085 
z
" clip-path="url(#p74c46a3412)" style="fill: #d62728"/>
   </g>
   <g id="patch_254">
    <path d="M 348.150057 240.66 
L 360.884937 240.66 
L 360.884937 171.36 
L 348.150057 171.36 
z
" clip-path="url(#p74c46a3412)" style="fill: #d62728"/>
   </g>
   <g id="patch_255">
    <path d="M 364.068657 350.385 
L 376.803537 350.385 
L 376.803537 327.285 
L 364.068657 327.285 
z
" clip-path="url(#p74c46a3412)" style="fill: #d62728"/>
   </g>
   <g id="patch_256">
    <path d="M 379.987258 257.985 
L 392.722138 257.985 
L 392.722138 223.335 
L 379.987258 223.335 
z
" clip-path="url(#p74c46a3412)" style="fill: #d62728"/>
   </g>
   <g id="patch_257">
    <path d="M 395.905858 304.185 
L 408.640738 304.185 
L 408.640738 240.66 
L 395.905858 240.66 
z
" clip-path="url(#p74c46a3412)" style="fill: #d62728"/>
   </g>
   <g id="patch_258">
    <path d="M 411.824458 367.71 
L 424.559338 367.71 
L 424.559338 321.51 
L 411.824458 321.51 
z
" clip-path="url(#p74c46a3412)" style="fill: #d62728"/>
   </g>
   <g id="patch_259">
    <path d="M 427.743058 390.81 
L 440.477938 390.81 
L 440.477938 390.81 
L 427.743058 390.81 
z
" clip-path="url(#p74c46a3412)" style="fill: #d62728"/>
   </g>
   <g id="patch_260">
    <path d="M 443.661658 408.135 
L 456.396539 408.135 
L 456.396539 408.135 
L 443.661658 408.135 
z
" clip-path="url(#p74c46a3412)" style="fill: #d62728"/>
   </g>
   <g id="patch_261">
    <path d="M 459.580259 379.26 
L 472.315139 379.26 
L 472.315139 367.71 
L 459.580259 367.71 
z
" clip-path="url(#p74c46a3412)" style="fill: #d62728"/>
   </g>
   <g id="patch_262">
    <path d="M 475.498859 367.71 
L 488.233739 367.71 
L 488.233739 321.51 
L 475.498859 321.51 
z
" clip-path="url(#p74c46a3412)" style="fill: #d62728"/>
   </g>
   <g id="patch_263">
    <path d="M 491.417459 333.06 
L 504.152339 333.06 
L 504.152339 304.185 
L 491.417459 304.185 
z
" clip-path="url(#p74c46a3412)" style="fill: #d62728"/>
   </g>
   <g id="patch_264">
    <path d="M 507.336059 269.535 
L 520.07094 269.535 
L 520.07094 206.01 
L 507.336059 206.01 
z
" clip-path="url(#p74c46a3412)" style="fill: #d62728"/>
   </g>
   <g id="patch_265">
    <path d="M 523.25466 217.56 
L 535.98954 217.56 
L 535.98954 200.235 
L 523.25466 200.235 
z
" clip-path="url(#p74c46a3412)" style="fill: #d62728"/>
   </g>
   <g id="patch_266">
    <path d="M 539.17326 182.91 
L 551.90814 182.91 
L 551.90814 96.285 
L 539.17326 96.285 
z
" clip-path="url(#p74c46a3412)" style="fill: #d62728"/>
   </g>
   <g id="patch_267">
    <path d="M 555.09186 309.96 
L 567.82674 309.96 
L 567.82674 246.435 
L 555.09186 246.435 
z
" clip-path="url(#p74c46a3412)" style="fill: #d62728"/>
   </g>
   <g id="patch_268">
    <path d="M 571.01046 286.86 
L 583.74534 286.86 
L 583.74534 223.335 
L 571.01046 223.335 
z
" clip-path="url(#p74c46a3412)" style="fill: #d62728"/>
   </g>
   <g id="patch_269">
    <path d="M 586.92906 246.435 
L 599.663941 246.435 
L 599.663941 223.335 
L 586.92906 223.335 
z
" clip-path="url(#p74c46a3412)" style="fill: #d62728"/>
   </g>
   <g id="patch_270">
    <path d="M 602.847661 246.435 
L 615.582541 246.435 
L 615.582541 229.11 
L 602.847661 229.11 
z
" clip-path="url(#p74c46a3412)" style="fill: #d62728"/>
   </g>
   <g id="patch_271">
    <path d="M 618.766261 217.56 
L 631.501141 217.56 
L 631.501141 177.135 
L 618.766261 177.135 
z
" clip-path="url(#p74c46a3412)" style="fill: #d62728"/>
   </g>
   <g id="patch_272">
    <path d="M 634.684861 309.96 
L 647.419741 309.96 
L 647.419741 286.86 
L 634.684861 286.86 
z
" clip-path="url(#p74c46a3412)" style="fill: #d62728"/>
   </g>
   <g id="patch_273">
    <path d="M 650.603461 344.61 
L 663.338342 344.61 
L 663.338342 309.96 
L 650.603461 309.96 
z
" clip-path="url(#p74c46a3412)" style="fill: #d62728"/>
   </g>
   <g id="patch_274">
    <path d="M 666.522062 431.235 
L 679.256942 431.235 
L 679.256942 431.235 
L 666.522062 431.235 
z
" clip-path="url(#p74c46a3412)" style="fill: #d62728"/>
   </g>
   <g id="patch_275">
    <path d="M 682.440662 361.935 
L 695.175542 361.935 
L 695.175542 327.285 
L 682.440662 327.285 
z
" clip-path="url(#p74c46a3412)" style="fill: #d62728"/>
   </g>
   <g id="patch_276">
    <path d="M 698.359262 292.635 
L 711.094142 292.635 
L 711.094142 269.535 
L 698.359262 269.535 
z
" clip-path="url(#p74c46a3412)" style="fill: #d62728"/>
   </g>
   <g id="patch_277">
    <path d="M 714.277862 315.735 
L 727.012742 315.735 
L 727.012742 246.435 
L 714.277862 246.435 
z
" clip-path="url(#p74c46a3412)" style="fill: #d62728"/>
   </g>
   <g id="patch_278">
    <path d="M 730.196463 136.71 
L 742.931343 136.71 
L 742.931343 78.96 
L 730.196463 78.96 
z
" clip-path="url(#p74c46a3412)" style="fill: #d62728"/>
   </g>
   <g id="patch_279">
    <path d="M 746.115063 321.51 
L 758.849943 321.51 
L 758.849943 286.86 
L 746.115063 286.86 
z
" clip-path="url(#p74c46a3412)" style="fill: #d62728"/>
   </g>
   <g id="patch_280">
    <path d="M 762.033663 252.21 
L 774.768543 252.21 
L 774.768543 240.66 
L 762.033663 240.66 
z
" clip-path="url(#p74c46a3412)" style="fill: #d62728"/>
   </g>
   <g id="patch_281">
    <path d="M 777.952263 252.21 
L 790.687143 252.21 
L 790.687143 188.685 
L 777.952263 188.685 
z
" clip-path="url(#p74c46a3412)" style="fill: #d62728"/>
   </g>
   <g id="patch_282">
    <path d="M 793.870863 356.16 
L 806.605744 356.16 
L 806.605744 321.51 
L 793.870863 321.51 
z
" clip-path="url(#p74c46a3412)" style="fill: #d62728"/>
   </g>
   <g id="patch_283">
    <path d="M 809.789464 321.51 
L 822.524344 321.51 
L 822.524344 321.51 
L 809.789464 321.51 
z
" clip-path="url(#p74c46a3412)" style="fill: #d62728"/>
   </g>
   <g id="patch_284">
    <path d="M 825.708064 356.16 
L 838.442944 356.16 
L 838.442944 321.51 
L 825.708064 321.51 
z
" clip-path="url(#p74c46a3412)" style="fill: #d62728"/>
   </g>
   <g id="patch_285">
    <path d="M 841.626664 327.285 
L 854.361544 327.285 
L 854.361544 298.41 
L 841.626664 298.41 
z
" clip-path="url(#p74c46a3412)" style="fill: #d62728"/>
   </g>
   <g id="patch_286">
    <path d="M 857.545264 315.735 
L 870.280145 315.735 
L 870.280145 292.635 
L 857.545264 292.635 
z
" clip-path="url(#p74c46a3412)" style="fill: #d62728"/>
   </g>
   <g id="patch_287">
    <path d="M 873.463865 269.535 
L 886.198745 269.535 
L 886.198745 182.91 
L 873.463865 182.91 
z
" clip-path="url(#p74c46a3412)" style="fill: #d62728"/>
   </g>
   <g id="patch_288">
    <path d="M 889.382465 304.185 
L 902.117345 304.185 
L 902.117345 246.435 
L 889.382465 246.435 
z
" clip-path="url(#p74c46a3412)" style="fill: #d62728"/>
   </g>
   <g id="patch_289">
    <path d="M 905.301065 292.635 
L 918.035945 292.635 
L 918.035945 211.785 
L 905.301065 211.785 
z
" clip-path="url(#p74c46a3412)" style="fill: #d62728"/>
   </g>
   <g id="patch_290">
    <path d="M 921.219665 315.735 
L 933.954545 315.735 
L 933.954545 188.685 
L 921.219665 188.685 
z
" clip-path="url(#p74c46a3412)" style="fill: #d62728"/>
   </g>
   <g id="matplotlib.axis_1">
    <g id="xtick_1">
     <g id="line2d_1">
      <defs>
       <path id="m7be0131252" d="M 0 0 
L 0 3.5 
" style="stroke: #000000; stroke-width: 0.8"/>
      </defs>
      <g>
       <use xlink:href="#m7be0131252" x="179.412895" y="448.56" style="stroke: #000000; stroke-width: 0.8"/>
      </g>
     </g>
     <g id="text_1">
      <!-- 0 -->
      <g transform="translate(176.231645 463.158437) scale(0.1 -0.1)">
       <defs>
        <path id="DejaVuSans-30" d="M 2034 4250 
Q 1547 4250 1301 3770 
Q 1056 3291 1056 2328 
Q 1056 1369 1301 889 
Q 1547 409 2034 409 
Q 2525 409 2770 889 
Q 3016 1369 3016 2328 
Q 3016 3291 2770 3770 
Q 2525 4250 2034 4250 
z
M 2034 4750 
Q 2819 4750 3233 4129 
Q 3647 3509 3647 2328 
Q 3647 1150 3233 529 
Q 2819 -91 2034 -91 
Q 1250 -91 836 529 
Q 422 1150 422 2328 
Q 422 3509 836 4129 
Q 1250 4750 2034 4750 
z
" transform="scale(0.015625)"/>
       </defs>
       <use xlink:href="#DejaVuSans-30"/>
      </g>
     </g>
    </g>
    <g id="xtick_2">
     <g id="line2d_2">
      <g>
       <use xlink:href="#m7be0131252" x="370.436097" y="448.56" style="stroke: #000000; stroke-width: 0.8"/>
      </g>
     </g>
     <g id="text_2">
      <!-- 12 -->
      <g transform="translate(364.073597 463.158437) scale(0.1 -0.1)">
       <defs>
        <path id="DejaVuSans-31" d="M 794 531 
L 1825 531 
L 1825 4091 
L 703 3866 
L 703 4441 
L 1819 4666 
L 2450 4666 
L 2450 531 
L 3481 531 
L 3481 0 
L 794 0 
L 794 531 
z
" transform="scale(0.015625)"/>
        <path id="DejaVuSans-32" d="M 1228 531 
L 3431 531 
L 3431 0 
L 469 0 
L 469 531 
Q 828 903 1448 1529 
Q 2069 2156 2228 2338 
Q 2531 2678 2651 2914 
Q 2772 3150 2772 3378 
Q 2772 3750 2511 3984 
Q 2250 4219 1831 4219 
Q 1534 4219 1204 4116 
Q 875 4013 500 3803 
L 500 4441 
Q 881 4594 1212 4672 
Q 1544 4750 1819 4750 
Q 2544 4750 2975 4387 
Q 3406 4025 3406 3419 
Q 3406 3131 3298 2873 
Q 3191 2616 2906 2266 
Q 2828 2175 2409 1742 
Q 1991 1309 1228 531 
z
" transform="scale(0.015625)"/>
       </defs>
       <use xlink:href="#DejaVuSans-31"/>
       <use xlink:href="#DejaVuSans-32" transform="translate(63.623047 0)"/>
      </g>
     </g>
    </g>
    <g id="xtick_3">
     <g id="line2d_3">
      <g>
       <use xlink:href="#m7be0131252" x="561.4593" y="448.56" style="stroke: #000000; stroke-width: 0.8"/>
      </g>
     </g>
     <g id="text_3">
      <!-- 24 -->
      <g transform="translate(555.0968 463.158437) scale(0.1 -0.1)">
       <defs>
        <path id="DejaVuSans-34" d="M 2419 4116 
L 825 1625 
L 2419 1625 
L 2419 4116 
z
M 2253 4666 
L 3047 4666 
L 3047 1625 
L 3713 1625 
L 3713 1100 
L 3047 1100 
L 3047 0 
L 2419 0 
L 2419 1100 
L 313 1100 
L 313 1709 
L 2253 4666 
z
" transform="scale(0.015625)"/>
       </defs>
       <use xlink:href="#DejaVuSans-32"/>
       <use xlink:href="#DejaVuSans-34" transform="translate(63.623047 0)"/>
      </g>
     </g>
    </g>
    <g id="xtick_4">
     <g id="line2d_4">
      <g>
       <use xlink:href="#m7be0131252" x="752.482503" y="448.56" style="stroke: #000000; stroke-width: 0.8"/>
      </g>
     </g>
     <g id="text_4">
      <!-- 36 -->
      <g transform="translate(746.120003 463.158437) scale(0.1 -0.1)">
       <defs>
        <path id="DejaVuSans-33" d="M 2597 2516 
Q 3050 2419 3304 2112 
Q 3559 1806 3559 1356 
Q 3559 666 3084 287 
Q 2609 -91 1734 -91 
Q 1441 -91 1130 -33 
Q 819 25 488 141 
L 488 750 
Q 750 597 1062 519 
Q 1375 441 1716 441 
Q 2309 441 2620 675 
Q 2931 909 2931 1356 
Q 2931 1769 2642 2001 
Q 2353 2234 1838 2234 
L 1294 2234 
L 1294 2753 
L 1863 2753 
Q 2328 2753 2575 2939 
Q 2822 3125 2822 3475 
Q 2822 3834 2567 4026 
Q 2313 4219 1838 4219 
Q 1578 4219 1281 4162 
Q 984 4106 628 3988 
L 628 4550 
Q 988 4650 1302 4700 
Q 1616 4750 1894 4750 
Q 2613 4750 3031 4423 
Q 3450 4097 3450 3541 
Q 3450 3153 3228 2886 
Q 3006 2619 2597 2516 
z
" transform="scale(0.015625)"/>
        <path id="DejaVuSans-36" d="M 2113 2584 
Q 1688 2584 1439 2293 
Q 1191 2003 1191 1497 
Q 1191 994 1439 701 
Q 1688 409 2113 409 
Q 2538 409 2786 701 
Q 3034 994 3034 1497 
Q 3034 2003 2786 2293 
Q 2538 2584 2113 2584 
z
M 3366 4563 
L 3366 3988 
Q 3128 4100 2886 4159 
Q 2644 4219 2406 4219 
Q 1781 4219 1451 3797 
Q 1122 3375 1075 2522 
Q 1259 2794 1537 2939 
Q 1816 3084 2150 3084 
Q 2853 3084 3261 2657 
Q 3669 2231 3669 1497 
Q 3669 778 3244 343 
Q 2819 -91 2113 -91 
Q 1303 -91 875 529 
Q 447 1150 447 2328 
Q 447 3434 972 4092 
Q 1497 4750 2381 4750 
Q 2619 4750 2861 4703 
Q 3103 4656 3366 4563 
z
" transform="scale(0.015625)"/>
       </defs>
       <use xlink:href="#DejaVuSans-33"/>
       <use xlink:href="#DejaVuSans-36" transform="translate(63.623047 0)"/>
      </g>
     </g>
    </g>
    <g id="xtick_5">
     <g id="line2d_5">
      <g>
       <use xlink:href="#m7be0131252" x="927.587105" y="448.56" style="stroke: #000000; stroke-width: 0.8"/>
      </g>
     </g>
     <g id="text_5">
      <!-- 47 -->
      <g transform="translate(921.224605 463.158437) scale(0.1 -0.1)">
       <defs>
        <path id="DejaVuSans-37" d="M 525 4666 
L 3525 4666 
L 3525 4397 
L 1831 0 
L 1172 0 
L 2766 4134 
L 525 4134 
L 525 4666 
z
" transform="scale(0.015625)"/>
       </defs>
       <use xlink:href="#DejaVuSans-34"/>
       <use xlink:href="#DejaVuSans-37" transform="translate(63.623047 0)"/>
      </g>
     </g>
    </g>
    <g id="text_6">
     <!-- Game Minute -->
     <g transform="translate(519.948437 476.836563) scale(0.1 -0.1)">
      <defs>
       <path id="DejaVuSans-47" d="M 3809 666 
L 3809 1919 
L 2778 1919 
L 2778 2438 
L 4434 2438 
L 4434 434 
Q 4069 175 3628 42 
Q 3188 -91 2688 -91 
Q 1594 -91 976 548 
Q 359 1188 359 2328 
Q 359 3472 976 4111 
Q 1594 4750 2688 4750 
Q 3144 4750 3555 4637 
Q 3966 4525 4313 4306 
L 4313 3634 
Q 3963 3931 3569 4081 
Q 3175 4231 2741 4231 
Q 1884 4231 1454 3753 
Q 1025 3275 1025 2328 
Q 1025 1384 1454 906 
Q 1884 428 2741 428 
Q 3075 428 3337 486 
Q 3600 544 3809 666 
z
" transform="scale(0.015625)"/>
       <path id="DejaVuSans-61" d="M 2194 1759 
Q 1497 1759 1228 1600 
Q 959 1441 959 1056 
Q 959 750 1161 570 
Q 1363 391 1709 391 
Q 2188 391 2477 730 
Q 2766 1069 2766 1631 
L 2766 1759 
L 2194 1759 
z
M 3341 1997 
L 3341 0 
L 2766 0 
L 2766 531 
Q 2569 213 2275 61 
Q 1981 -91 1556 -91 
Q 1019 -91 701 211 
Q 384 513 384 1019 
Q 384 1609 779 1909 
Q 1175 2209 1959 2209 
L 2766 2209 
L 2766 2266 
Q 2766 2663 2505 2880 
Q 2244 3097 1772 3097 
Q 1472 3097 1187 3025 
Q 903 2953 641 2809 
L 641 3341 
Q 956 3463 1253 3523 
Q 1550 3584 1831 3584 
Q 2591 3584 2966 3190 
Q 3341 2797 3341 1997 
z
" transform="scale(0.015625)"/>
       <path id="DejaVuSans-6d" d="M 3328 2828 
Q 3544 3216 3844 3400 
Q 4144 3584 4550 3584 
Q 5097 3584 5394 3201 
Q 5691 2819 5691 2113 
L 5691 0 
L 5113 0 
L 5113 2094 
Q 5113 2597 4934 2840 
Q 4756 3084 4391 3084 
Q 3944 3084 3684 2787 
Q 3425 2491 3425 1978 
L 3425 0 
L 2847 0 
L 2847 2094 
Q 2847 2600 2669 2842 
Q 2491 3084 2119 3084 
Q 1678 3084 1418 2786 
Q 1159 2488 1159 1978 
L 1159 0 
L 581 0 
L 581 3500 
L 1159 3500 
L 1159 2956 
Q 1356 3278 1631 3431 
Q 1906 3584 2284 3584 
Q 2666 3584 2933 3390 
Q 3200 3197 3328 2828 
z
" transform="scale(0.015625)"/>
       <path id="DejaVuSans-65" d="M 3597 1894 
L 3597 1613 
L 953 1613 
Q 991 1019 1311 708 
Q 1631 397 2203 397 
Q 2534 397 2845 478 
Q 3156 559 3463 722 
L 3463 178 
Q 3153 47 2828 -22 
Q 2503 -91 2169 -91 
Q 1331 -91 842 396 
Q 353 884 353 1716 
Q 353 2575 817 3079 
Q 1281 3584 2069 3584 
Q 2775 3584 3186 3129 
Q 3597 2675 3597 1894 
z
M 3022 2063 
Q 3016 2534 2758 2815 
Q 2500 3097 2075 3097 
Q 1594 3097 1305 2825 
Q 1016 2553 972 2059 
L 3022 2063 
z
" transform="scale(0.015625)"/>
       <path id="DejaVuSans-20" transform="scale(0.015625)"/>
       <path id="DejaVuSans-4d" d="M 628 4666 
L 1569 4666 
L 2759 1491 
L 3956 4666 
L 4897 4666 
L 4897 0 
L 4281 0 
L 4281 4097 
L 3078 897 
L 2444 897 
L 1241 4097 
L 1241 0 
L 628 0 
L 628 4666 
z
" transform="scale(0.015625)"/>
       <path id="DejaVuSans-69" d="M 603 3500 
L 1178 3500 
L 1178 0 
L 603 0 
L 603 3500 
z
M 603 4863 
L 1178 4863 
L 1178 4134 
L 603 4134 
L 603 4863 
z
" transform="scale(0.015625)"/>
       <path id="DejaVuSans-6e" d="M 3513 2113 
L 3513 0 
L 2938 0 
L 2938 2094 
Q 2938 2591 2744 2837 
Q 2550 3084 2163 3084 
Q 1697 3084 1428 2787 
Q 1159 2491 1159 1978 
L 1159 0 
L 581 0 
L 581 3500 
L 1159 3500 
L 1159 2956 
Q 1366 3272 1645 3428 
Q 1925 3584 2291 3584 
Q 2894 3584 3203 3211 
Q 3513 2838 3513 2113 
z
" transform="scale(0.015625)"/>
       <path id="DejaVuSans-75" d="M 544 1381 
L 544 3500 
L 1119 3500 
L 1119 1403 
Q 1119 906 1312 657 
Q 1506 409 1894 409 
Q 2359 409 2629 706 
Q 2900 1003 2900 1516 
L 2900 3500 
L 3475 3500 
L 3475 0 
L 2900 0 
L 2900 538 
Q 2691 219 2414 64 
Q 2138 -91 1772 -91 
Q 1169 -91 856 284 
Q 544 659 544 1381 
z
M 1991 3584 
L 1991 3584 
z
" transform="scale(0.015625)"/>
       <path id="DejaVuSans-74" d="M 1172 4494 
L 1172 3500 
L 2356 3500 
L 2356 3053 
L 1172 3053 
L 1172 1153 
Q 1172 725 1289 603 
Q 1406 481 1766 481 
L 2356 481 
L 2356 0 
L 1766 0 
Q 1100 0 847 248 
Q 594 497 594 1153 
L 594 3053 
L 172 3053 
L 172 3500 
L 594 3500 
L 594 4494 
L 1172 4494 
z
" transform="scale(0.015625)"/>
      </defs>
      <use xlink:href="#DejaVuSans-47"/>
      <use xlink:href="#DejaVuSans-61" transform="translate(77.490234 0)"/>
      <use xlink:href="#DejaVuSans-6d" transform="translate(138.769531 0)"/>
      <use xlink:href="#DejaVuSans-65" transform="translate(236.181641 0)"/>
      <use xlink:href="#DejaVuSans-20" transform="translate(297.705078 0)"/>
      <use xlink:href="#DejaVuSans-4d" transform="translate(329.492188 0)"/>
      <use xlink:href="#DejaVuSans-69" transform="translate(415.771484 0)"/>
      <use xlink:href="#DejaVuSans-6e" transform="translate(443.554688 0)"/>
      <use xlink:href="#DejaVuSans-75" transform="translate(506.933594 0)"/>
      <use xlink:href="#DejaVuSans-74" transform="translate(570.3125 0)"/>
      <use xlink:href="#DejaVuSans-65" transform="translate(609.521484 0)"/>
     </g>
    </g>
   </g>
   <g id="matplotlib.axis_2">
    <g id="ytick_1">
     <g id="line2d_6">
      <path d="M 135 448.56 
L 972 448.56 
" clip-path="url(#p74c46a3412)" style="fill: none; stroke-dasharray: 2.96,1.28; stroke-dashoffset: 0; stroke: #b0b0b0; stroke-opacity: 0.7; stroke-width: 0.8"/>
     </g>
     <g id="line2d_7">
      <defs>
       <path id="m10a7d15e08" d="M 0 0 
L -3.5 0 
" style="stroke: #000000; stroke-width: 0.8"/>
      </defs>
      <g>
       <use xlink:href="#m10a7d15e08" x="135" y="448.56" style="stroke: #000000; stroke-width: 0.8"/>
      </g>
     </g>
     <g id="text_7">
      <!-- 0 -->
      <g transform="translate(121.6375 452.359219) scale(0.1 -0.1)">
       <use xlink:href="#DejaVuSans-30"/>
      </g>
     </g>
    </g>
    <g id="ytick_2">
     <g id="line2d_8">
      <path d="M 135 390.81 
L 972 390.81 
" clip-path="url(#p74c46a3412)" style="fill: none; stroke-dasharray: 2.96,1.28; stroke-dashoffset: 0; stroke: #b0b0b0; stroke-opacity: 0.7; stroke-width: 0.8"/>
     </g>
     <g id="line2d_9">
      <g>
       <use xlink:href="#m10a7d15e08" x="135" y="390.81" style="stroke: #000000; stroke-width: 0.8"/>
      </g>
     </g>
     <g id="text_8">
      <!-- 10 -->
      <g transform="translate(115.275 394.609219) scale(0.1 -0.1)">
       <use xlink:href="#DejaVuSans-31"/>
       <use xlink:href="#DejaVuSans-30" transform="translate(63.623047 0)"/>
      </g>
     </g>
    </g>
    <g id="ytick_3">
     <g id="line2d_10">
      <path d="M 135 333.06 
L 972 333.06 
" clip-path="url(#p74c46a3412)" style="fill: none; stroke-dasharray: 2.96,1.28; stroke-dashoffset: 0; stroke: #b0b0b0; stroke-opacity: 0.7; stroke-width: 0.8"/>
     </g>
     <g id="line2d_11">
      <g>
       <use xlink:href="#m10a7d15e08" x="135" y="333.06" style="stroke: #000000; stroke-width: 0.8"/>
      </g>
     </g>
     <g id="text_9">
      <!-- 20 -->
      <g transform="translate(115.275 336.859219) scale(0.1 -0.1)">
       <use xlink:href="#DejaVuSans-32"/>
       <use xlink:href="#DejaVuSans-30" transform="translate(63.623047 0)"/>
      </g>
     </g>
    </g>
    <g id="ytick_4">
     <g id="line2d_12">
      <path d="M 135 275.31 
L 972 275.31 
" clip-path="url(#p74c46a3412)" style="fill: none; stroke-dasharray: 2.96,1.28; stroke-dashoffset: 0; stroke: #b0b0b0; stroke-opacity: 0.7; stroke-width: 0.8"/>
     </g>
     <g id="line2d_13">
      <g>
       <use xlink:href="#m10a7d15e08" x="135" y="275.31" style="stroke: #000000; stroke-width: 0.8"/>
      </g>
     </g>
     <g id="text_10">
      <!-- 30 -->
      <g transform="translate(115.275 279.109219) scale(0.1 -0.1)">
       <use xlink:href="#DejaVuSans-33"/>
       <use xlink:href="#DejaVuSans-30" transform="translate(63.623047 0)"/>
      </g>
     </g>
    </g>
    <g id="ytick_5">
     <g id="line2d_14">
      <path d="M 135 217.56 
L 972 217.56 
" clip-path="url(#p74c46a3412)" style="fill: none; stroke-dasharray: 2.96,1.28; stroke-dashoffset: 0; stroke: #b0b0b0; stroke-opacity: 0.7; stroke-width: 0.8"/>
     </g>
     <g id="line2d_15">
      <g>
       <use xlink:href="#m10a7d15e08" x="135" y="217.56" style="stroke: #000000; stroke-width: 0.8"/>
      </g>
     </g>
     <g id="text_11">
      <!-- 40 -->
      <g transform="translate(115.275 221.359219) scale(0.1 -0.1)">
       <use xlink:href="#DejaVuSans-34"/>
       <use xlink:href="#DejaVuSans-30" transform="translate(63.623047 0)"/>
      </g>
     </g>
    </g>
    <g id="ytick_6">
     <g id="line2d_16">
      <path d="M 135 159.81 
L 972 159.81 
" clip-path="url(#p74c46a3412)" style="fill: none; stroke-dasharray: 2.96,1.28; stroke-dashoffset: 0; stroke: #b0b0b0; stroke-opacity: 0.7; stroke-width: 0.8"/>
     </g>
     <g id="line2d_17">
      <g>
       <use xlink:href="#m10a7d15e08" x="135" y="159.81" style="stroke: #000000; stroke-width: 0.8"/>
      </g>
     </g>
     <g id="text_12">
      <!-- 50 -->
      <g transform="translate(115.275 163.609219) scale(0.1 -0.1)">
       <defs>
        <path id="DejaVuSans-35" d="M 691 4666 
L 3169 4666 
L 3169 4134 
L 1269 4134 
L 1269 2991 
Q 1406 3038 1543 3061 
Q 1681 3084 1819 3084 
Q 2600 3084 3056 2656 
Q 3513 2228 3513 1497 
Q 3513 744 3044 326 
Q 2575 -91 1722 -91 
Q 1428 -91 1123 -41 
Q 819 9 494 109 
L 494 744 
Q 775 591 1075 516 
Q 1375 441 1709 441 
Q 2250 441 2565 725 
Q 2881 1009 2881 1497 
Q 2881 1984 2565 2268 
Q 2250 2553 1709 2553 
Q 1456 2553 1204 2497 
Q 953 2441 691 2322 
L 691 4666 
z
" transform="scale(0.015625)"/>
       </defs>
       <use xlink:href="#DejaVuSans-35"/>
       <use xlink:href="#DejaVuSans-30" transform="translate(63.623047 0)"/>
      </g>
     </g>
    </g>
    <g id="ytick_7">
     <g id="line2d_18">
      <path d="M 135 102.06 
L 972 102.06 
" clip-path="url(#p74c46a3412)" style="fill: none; stroke-dasharray: 2.96,1.28; stroke-dashoffset: 0; stroke: #b0b0b0; stroke-opacity: 0.7; stroke-width: 0.8"/>
     </g>
     <g id="line2d_19">
      <g>
       <use xlink:href="#m10a7d15e08" x="135" y="102.06" style="stroke: #000000; stroke-width: 0.8"/>
      </g>
     </g>
     <g id="text_13">
      <!-- 60 -->
      <g transform="translate(115.275 105.859219) scale(0.1 -0.1)">
       <use xlink:href="#DejaVuSans-36"/>
       <use xlink:href="#DejaVuSans-30" transform="translate(63.623047 0)"/>
      </g>
     </g>
    </g>
    <g id="text_14">
     <!-- Number of Attempts -->
     <g transform="translate(109.195312 305.542656) rotate(-90) scale(0.1 -0.1)">
      <defs>
       <path id="DejaVuSans-4e" d="M 628 4666 
L 1478 4666 
L 3547 763 
L 3547 4666 
L 4159 4666 
L 4159 0 
L 3309 0 
L 1241 3903 
L 1241 0 
L 628 0 
L 628 4666 
z
" transform="scale(0.015625)"/>
       <path id="DejaVuSans-62" d="M 3116 1747 
Q 3116 2381 2855 2742 
Q 2594 3103 2138 3103 
Q 1681 3103 1420 2742 
Q 1159 2381 1159 1747 
Q 1159 1113 1420 752 
Q 1681 391 2138 391 
Q 2594 391 2855 752 
Q 3116 1113 3116 1747 
z
M 1159 2969 
Q 1341 3281 1617 3432 
Q 1894 3584 2278 3584 
Q 2916 3584 3314 3078 
Q 3713 2572 3713 1747 
Q 3713 922 3314 415 
Q 2916 -91 2278 -91 
Q 1894 -91 1617 61 
Q 1341 213 1159 525 
L 1159 0 
L 581 0 
L 581 4863 
L 1159 4863 
L 1159 2969 
z
" transform="scale(0.015625)"/>
       <path id="DejaVuSans-72" d="M 2631 2963 
Q 2534 3019 2420 3045 
Q 2306 3072 2169 3072 
Q 1681 3072 1420 2755 
Q 1159 2438 1159 1844 
L 1159 0 
L 581 0 
L 581 3500 
L 1159 3500 
L 1159 2956 
Q 1341 3275 1631 3429 
Q 1922 3584 2338 3584 
Q 2397 3584 2469 3576 
Q 2541 3569 2628 3553 
L 2631 2963 
z
" transform="scale(0.015625)"/>
       <path id="DejaVuSans-6f" d="M 1959 3097 
Q 1497 3097 1228 2736 
Q 959 2375 959 1747 
Q 959 1119 1226 758 
Q 1494 397 1959 397 
Q 2419 397 2687 759 
Q 2956 1122 2956 1747 
Q 2956 2369 2687 2733 
Q 2419 3097 1959 3097 
z
M 1959 3584 
Q 2709 3584 3137 3096 
Q 3566 2609 3566 1747 
Q 3566 888 3137 398 
Q 2709 -91 1959 -91 
Q 1206 -91 779 398 
Q 353 888 353 1747 
Q 353 2609 779 3096 
Q 1206 3584 1959 3584 
z
" transform="scale(0.015625)"/>
       <path id="DejaVuSans-66" d="M 2375 4863 
L 2375 4384 
L 1825 4384 
Q 1516 4384 1395 4259 
Q 1275 4134 1275 3809 
L 1275 3500 
L 2222 3500 
L 2222 3053 
L 1275 3053 
L 1275 0 
L 697 0 
L 697 3053 
L 147 3053 
L 147 3500 
L 697 3500 
L 697 3744 
Q 697 4328 969 4595 
Q 1241 4863 1831 4863 
L 2375 4863 
z
" transform="scale(0.015625)"/>
       <path id="DejaVuSans-41" d="M 2188 4044 
L 1331 1722 
L 3047 1722 
L 2188 4044 
z
M 1831 4666 
L 2547 4666 
L 4325 0 
L 3669 0 
L 3244 1197 
L 1141 1197 
L 716 0 
L 50 0 
L 1831 4666 
z
" transform="scale(0.015625)"/>
       <path id="DejaVuSans-70" d="M 1159 525 
L 1159 -1331 
L 581 -1331 
L 581 3500 
L 1159 3500 
L 1159 2969 
Q 1341 3281 1617 3432 
Q 1894 3584 2278 3584 
Q 2916 3584 3314 3078 
Q 3713 2572 3713 1747 
Q 3713 922 3314 415 
Q 2916 -91 2278 -91 
Q 1894 -91 1617 61 
Q 1341 213 1159 525 
z
M 3116 1747 
Q 3116 2381 2855 2742 
Q 2594 3103 2138 3103 
Q 1681 3103 1420 2742 
Q 1159 2381 1159 1747 
Q 1159 1113 1420 752 
Q 1681 391 2138 391 
Q 2594 391 2855 752 
Q 3116 1113 3116 1747 
z
" transform="scale(0.015625)"/>
       <path id="DejaVuSans-73" d="M 2834 3397 
L 2834 2853 
Q 2591 2978 2328 3040 
Q 2066 3103 1784 3103 
Q 1356 3103 1142 2972 
Q 928 2841 928 2578 
Q 928 2378 1081 2264 
Q 1234 2150 1697 2047 
L 1894 2003 
Q 2506 1872 2764 1633 
Q 3022 1394 3022 966 
Q 3022 478 2636 193 
Q 2250 -91 1575 -91 
Q 1294 -91 989 -36 
Q 684 19 347 128 
L 347 722 
Q 666 556 975 473 
Q 1284 391 1588 391 
Q 1994 391 2212 530 
Q 2431 669 2431 922 
Q 2431 1156 2273 1281 
Q 2116 1406 1581 1522 
L 1381 1569 
Q 847 1681 609 1914 
Q 372 2147 372 2553 
Q 372 3047 722 3315 
Q 1072 3584 1716 3584 
Q 2034 3584 2315 3537 
Q 2597 3491 2834 3397 
z
" transform="scale(0.015625)"/>
      </defs>
      <use xlink:href="#DejaVuSans-4e"/>
      <use xlink:href="#DejaVuSans-75" transform="translate(74.804688 0)"/>
      <use xlink:href="#DejaVuSans-6d" transform="translate(138.183594 0)"/>
      <use xlink:href="#DejaVuSans-62" transform="translate(235.595703 0)"/>
      <use xlink:href="#DejaVuSans-65" transform="translate(299.072266 0)"/>
      <use xlink:href="#DejaVuSans-72" transform="translate(360.595703 0)"/>
      <use xlink:href="#DejaVuSans-20" transform="translate(401.708984 0)"/>
      <use xlink:href="#DejaVuSans-6f" transform="translate(433.496094 0)"/>
      <use xlink:href="#DejaVuSans-66" transform="translate(494.677734 0)"/>
      <use xlink:href="#DejaVuSans-20" transform="translate(529.882812 0)"/>
      <use xlink:href="#DejaVuSans-41" transform="translate(561.669922 0)"/>
      <use xlink:href="#DejaVuSans-74" transform="translate(628.328125 0)"/>
      <use xlink:href="#DejaVuSans-74" transform="translate(667.537109 0)"/>
      <use xlink:href="#DejaVuSans-65" transform="translate(706.746094 0)"/>
      <use xlink:href="#DejaVuSans-6d" transform="translate(768.269531 0)"/>
      <use xlink:href="#DejaVuSans-70" transform="translate(865.681641 0)"/>
      <use xlink:href="#DejaVuSans-74" transform="translate(929.158203 0)"/>
      <use xlink:href="#DejaVuSans-73" transform="translate(968.367188 0)"/>
     </g>
    </g>
   </g>
   <g id="patch_291">
    <path d="M 135 448.56 
L 135 60.48 
" style="fill: none; stroke: #000000; stroke-width: 0.8; stroke-linejoin: miter; stroke-linecap: square"/>
   </g>
   <g id="patch_292">
    <path d="M 972 448.56 
L 972 60.48 
" style="fill: none; stroke: #000000; stroke-width: 0.8; stroke-linejoin: miter; stroke-linecap: square"/>
   </g>
   <g id="patch_293">
    <path d="M 135 448.56 
L 972 448.56 
" style="fill: none; stroke: #000000; stroke-width: 0.8; stroke-linejoin: miter; stroke-linecap: square"/>
   </g>
   <g id="patch_294">
    <path d="M 135 60.48 
L 972 60.48 
" style="fill: none; stroke: #000000; stroke-width: 0.8; stroke-linejoin: miter; stroke-linecap: square"/>
   </g>
   <g id="text_15">
    <!-- De'Aaron Fox - Shot Attempts (Made/Miss) Timeline (2024-25) -->
    <g transform="translate(367.596563 54.48) scale(0.12 -0.12)">
     <defs>
      <path id="DejaVuSans-44" d="M 1259 4147 
L 1259 519 
L 2022 519 
Q 2988 519 3436 956 
Q 3884 1394 3884 2338 
Q 3884 3275 3436 3711 
Q 2988 4147 2022 4147 
L 1259 4147 
z
M 628 4666 
L 1925 4666 
Q 3281 4666 3915 4102 
Q 4550 3538 4550 2338 
Q 4550 1131 3912 565 
Q 3275 0 1925 0 
L 628 0 
L 628 4666 
z
" transform="scale(0.015625)"/>
      <path id="DejaVuSans-27" d="M 1147 4666 
L 1147 2931 
L 616 2931 
L 616 4666 
L 1147 4666 
z
" transform="scale(0.015625)"/>
      <path id="DejaVuSans-46" d="M 628 4666 
L 3309 4666 
L 3309 4134 
L 1259 4134 
L 1259 2759 
L 3109 2759 
L 3109 2228 
L 1259 2228 
L 1259 0 
L 628 0 
L 628 4666 
z
" transform="scale(0.015625)"/>
      <path id="DejaVuSans-78" d="M 3513 3500 
L 2247 1797 
L 3578 0 
L 2900 0 
L 1881 1375 
L 863 0 
L 184 0 
L 1544 1831 
L 300 3500 
L 978 3500 
L 1906 2253 
L 2834 3500 
L 3513 3500 
z
" transform="scale(0.015625)"/>
      <path id="DejaVuSans-2d" d="M 313 2009 
L 1997 2009 
L 1997 1497 
L 313 1497 
L 313 2009 
z
" transform="scale(0.015625)"/>
      <path id="DejaVuSans-53" d="M 3425 4513 
L 3425 3897 
Q 3066 4069 2747 4153 
Q 2428 4238 2131 4238 
Q 1616 4238 1336 4038 
Q 1056 3838 1056 3469 
Q 1056 3159 1242 3001 
Q 1428 2844 1947 2747 
L 2328 2669 
Q 3034 2534 3370 2195 
Q 3706 1856 3706 1288 
Q 3706 609 3251 259 
Q 2797 -91 1919 -91 
Q 1588 -91 1214 -16 
Q 841 59 441 206 
L 441 856 
Q 825 641 1194 531 
Q 1563 422 1919 422 
Q 2459 422 2753 634 
Q 3047 847 3047 1241 
Q 3047 1584 2836 1778 
Q 2625 1972 2144 2069 
L 1759 2144 
Q 1053 2284 737 2584 
Q 422 2884 422 3419 
Q 422 4038 858 4394 
Q 1294 4750 2059 4750 
Q 2388 4750 2728 4690 
Q 3069 4631 3425 4513 
z
" transform="scale(0.015625)"/>
      <path id="DejaVuSans-68" d="M 3513 2113 
L 3513 0 
L 2938 0 
L 2938 2094 
Q 2938 2591 2744 2837 
Q 2550 3084 2163 3084 
Q 1697 3084 1428 2787 
Q 1159 2491 1159 1978 
L 1159 0 
L 581 0 
L 581 4863 
L 1159 4863 
L 1159 2956 
Q 1366 3272 1645 3428 
Q 1925 3584 2291 3584 
Q 2894 3584 3203 3211 
Q 3513 2838 3513 2113 
z
" transform="scale(0.015625)"/>
      <path id="DejaVuSans-28" d="M 1984 4856 
Q 1566 4138 1362 3434 
Q 1159 2731 1159 2009 
Q 1159 1288 1364 580 
Q 1569 -128 1984 -844 
L 1484 -844 
Q 1016 -109 783 600 
Q 550 1309 550 2009 
Q 550 2706 781 3412 
Q 1013 4119 1484 4856 
L 1984 4856 
z
" transform="scale(0.015625)"/>
      <path id="DejaVuSans-64" d="M 2906 2969 
L 2906 4863 
L 3481 4863 
L 3481 0 
L 2906 0 
L 2906 525 
Q 2725 213 2448 61 
Q 2172 -91 1784 -91 
Q 1150 -91 751 415 
Q 353 922 353 1747 
Q 353 2572 751 3078 
Q 1150 3584 1784 3584 
Q 2172 3584 2448 3432 
Q 2725 3281 2906 2969 
z
M 947 1747 
Q 947 1113 1208 752 
Q 1469 391 1925 391 
Q 2381 391 2643 752 
Q 2906 1113 2906 1747 
Q 2906 2381 2643 2742 
Q 2381 3103 1925 3103 
Q 1469 3103 1208 2742 
Q 947 2381 947 1747 
z
" transform="scale(0.015625)"/>
      <path id="DejaVuSans-2f" d="M 1625 4666 
L 2156 4666 
L 531 -594 
L 0 -594 
L 1625 4666 
z
" transform="scale(0.015625)"/>
      <path id="DejaVuSans-29" d="M 513 4856 
L 1013 4856 
Q 1481 4119 1714 3412 
Q 1947 2706 1947 2009 
Q 1947 1309 1714 600 
Q 1481 -109 1013 -844 
L 513 -844 
Q 928 -128 1133 580 
Q 1338 1288 1338 2009 
Q 1338 2731 1133 3434 
Q 928 4138 513 4856 
z
" transform="scale(0.015625)"/>
      <path id="DejaVuSans-54" d="M -19 4666 
L 3928 4666 
L 3928 4134 
L 2272 4134 
L 2272 0 
L 1638 0 
L 1638 4134 
L -19 4134 
L -19 4666 
z
" transform="scale(0.015625)"/>
      <path id="DejaVuSans-6c" d="M 603 4863 
L 1178 4863 
L 1178 0 
L 603 0 
L 603 4863 
z
" transform="scale(0.015625)"/>
     </defs>
     <use xlink:href="#DejaVuSans-44"/>
     <use xlink:href="#DejaVuSans-65" transform="translate(77.001953 0)"/>
     <use xlink:href="#DejaVuSans-27" transform="translate(138.525391 0)"/>
     <use xlink:href="#DejaVuSans-41" transform="translate(166.015625 0)"/>
     <use xlink:href="#DejaVuSans-61" transform="translate(234.423828 0)"/>
     <use xlink:href="#DejaVuSans-72" transform="translate(295.703125 0)"/>
     <use xlink:href="#DejaVuSans-6f" transform="translate(334.566406 0)"/>
     <use xlink:href="#DejaVuSans-6e" transform="translate(395.748047 0)"/>
     <use xlink:href="#DejaVuSans-20" transform="translate(459.126953 0)"/>
     <use xlink:href="#DejaVuSans-46" transform="translate(490.914062 0)"/>
     <use xlink:href="#DejaVuSans-6f" transform="translate(544.808594 0)"/>
     <use xlink:href="#DejaVuSans-78" transform="translate(602.865234 0)"/>
     <use xlink:href="#DejaVuSans-20" transform="translate(662.044922 0)"/>
     <use xlink:href="#DejaVuSans-2d" transform="translate(693.832031 0)"/>
     <use xlink:href="#DejaVuSans-20" transform="translate(729.916016 0)"/>
     <use xlink:href="#DejaVuSans-53" transform="translate(761.703125 0)"/>
     <use xlink:href="#DejaVuSans-68" transform="translate(825.179688 0)"/>
     <use xlink:href="#DejaVuSans-6f" transform="translate(888.558594 0)"/>
     <use xlink:href="#DejaVuSans-74" transform="translate(949.740234 0)"/>
     <use xlink:href="#DejaVuSans-20" transform="translate(988.949219 0)"/>
     <use xlink:href="#DejaVuSans-41" transform="translate(1020.736328 0)"/>
     <use xlink:href="#DejaVuSans-74" transform="translate(1087.394531 0)"/>
     <use xlink:href="#DejaVuSans-74" transform="translate(1126.603516 0)"/>
     <use xlink:href="#DejaVuSans-65" transform="translate(1165.8125 0)"/>
     <use xlink:href="#DejaVuSans-6d" transform="translate(1227.335938 0)"/>
     <use xlink:href="#DejaVuSans-70" transform="translate(1324.748047 0)"/>
     <use xlink:href="#DejaVuSans-74" transform="translate(1388.224609 0)"/>
     <use xlink:href="#DejaVuSans-73" transform="translate(1427.433594 0)"/>
     <use xlink:href="#DejaVuSans-20" transform="translate(1479.533203 0)"/>
     <use xlink:href="#DejaVuSans-28" transform="translate(1511.320312 0)"/>
     <use xlink:href="#DejaVuSans-4d" transform="translate(1550.333984 0)"/>
     <use xlink:href="#DejaVuSans-61" transform="translate(1636.613281 0)"/>
     <use xlink:href="#DejaVuSans-64" transform="translate(1697.892578 0)"/>
     <use xlink:href="#DejaVuSans-65" transform="translate(1761.369141 0)"/>
     <use xlink:href="#DejaVuSans-2f" transform="translate(1822.892578 0)"/>
     <use xlink:href="#DejaVuSans-4d" transform="translate(1856.583984 0)"/>
     <use xlink:href="#DejaVuSans-69" transform="translate(1942.863281 0)"/>
     <use xlink:href="#DejaVuSans-73" transform="translate(1970.646484 0)"/>
     <use xlink:href="#DejaVuSans-73" transform="translate(2022.746094 0)"/>
     <use xlink:href="#DejaVuSans-29" transform="translate(2074.845703 0)"/>
     <use xlink:href="#DejaVuSans-20" transform="translate(2113.859375 0)"/>
     <use xlink:href="#DejaVuSans-54" transform="translate(2145.646484 0)"/>
     <use xlink:href="#DejaVuSans-69" transform="translate(2203.605469 0)"/>
     <use xlink:href="#DejaVuSans-6d" transform="translate(2231.388672 0)"/>
     <use xlink:href="#DejaVuSans-65" transform="translate(2328.800781 0)"/>
     <use xlink:href="#DejaVuSans-6c" transform="translate(2390.324219 0)"/>
     <use xlink:href="#DejaVuSans-69" transform="translate(2418.107422 0)"/>
     <use xlink:href="#DejaVuSans-6e" transform="translate(2445.890625 0)"/>
     <use xlink:href="#DejaVuSans-65" transform="translate(2509.269531 0)"/>
     <use xlink:href="#DejaVuSans-20" transform="translate(2570.792969 0)"/>
     <use xlink:href="#DejaVuSans-28" transform="translate(2602.580078 0)"/>
     <use xlink:href="#DejaVuSans-32" transform="translate(2641.59375 0)"/>
     <use xlink:href="#DejaVuSans-30" transform="translate(2705.216797 0)"/>
     <use xlink:href="#DejaVuSans-32" transform="translate(2768.839844 0)"/>
     <use xlink:href="#DejaVuSans-34" transform="translate(2832.462891 0)"/>
     <use xlink:href="#DejaVuSans-2d" transform="translate(2896.085938 0)"/>
     <use xlink:href="#DejaVuSans-32" transform="translate(2932.169922 0)"/>
     <use xlink:href="#DejaVuSans-35" transform="translate(2995.792969 0)"/>
     <use xlink:href="#DejaVuSans-29" transform="translate(3059.416016 0)"/>
    </g>
   </g>
   <g id="legend_1">
    <g id="patch_295">
     <path d="M 884.064062 156.54875 
L 965 156.54875 
Q 967 156.54875 967 154.54875 
L 967 67.48 
Q 967 65.48 965 65.48 
L 884.064062 65.48 
Q 882.064062 65.48 882.064062 67.48 
L 882.064062 154.54875 
Q 882.064062 156.54875 884.064062 156.54875 
z
" style="fill: #ffffff; opacity: 0.8; stroke: #cccccc; stroke-linejoin: miter"/>
    </g>
    <g id="patch_296">
     <path d="M 886.064062 77.078438 
L 906.064062 77.078438 
L 906.064062 70.078438 
L 886.064062 70.078438 
z
" style="fill: #aec7e8"/>
    </g>
    <g id="text_16">
     <!-- 3PT Miss -->
     <g transform="translate(914.064062 77.078438) scale(0.1 -0.1)">
      <defs>
       <path id="DejaVuSans-50" d="M 1259 4147 
L 1259 2394 
L 2053 2394 
Q 2494 2394 2734 2622 
Q 2975 2850 2975 3272 
Q 2975 3691 2734 3919 
Q 2494 4147 2053 4147 
L 1259 4147 
z
M 628 4666 
L 2053 4666 
Q 2838 4666 3239 4311 
Q 3641 3956 3641 3272 
Q 3641 2581 3239 2228 
Q 2838 1875 2053 1875 
L 1259 1875 
L 1259 0 
L 628 0 
L 628 4666 
z
" transform="scale(0.015625)"/>
      </defs>
      <use xlink:href="#DejaVuSans-33"/>
      <use xlink:href="#DejaVuSans-50" transform="translate(63.623047 0)"/>
      <use xlink:href="#DejaVuSans-54" transform="translate(123.925781 0)"/>
      <use xlink:href="#DejaVuSans-20" transform="translate(185.009766 0)"/>
      <use xlink:href="#DejaVuSans-4d" transform="translate(216.796875 0)"/>
      <use xlink:href="#DejaVuSans-69" transform="translate(303.076172 0)"/>
      <use xlink:href="#DejaVuSans-73" transform="translate(330.859375 0)"/>
      <use xlink:href="#DejaVuSans-73" transform="translate(382.958984 0)"/>
     </g>
    </g>
    <g id="patch_297">
     <path d="M 886.064062 91.756563 
L 906.064062 91.756563 
L 906.064062 84.756563 
L 886.064062 84.756563 
z
" style="fill: #ffbb78"/>
    </g>
    <g id="text_17">
     <!-- 2PT Miss -->
     <g transform="translate(914.064062 91.756563) scale(0.1 -0.1)">
      <use xlink:href="#DejaVuSans-32"/>
      <use xlink:href="#DejaVuSans-50" transform="translate(63.623047 0)"/>
      <use xlink:href="#DejaVuSans-54" transform="translate(123.925781 0)"/>
      <use xlink:href="#DejaVuSans-20" transform="translate(185.009766 0)"/>
      <use xlink:href="#DejaVuSans-4d" transform="translate(216.796875 0)"/>
      <use xlink:href="#DejaVuSans-69" transform="translate(303.076172 0)"/>
      <use xlink:href="#DejaVuSans-73" transform="translate(330.859375 0)"/>
      <use xlink:href="#DejaVuSans-73" transform="translate(382.958984 0)"/>
     </g>
    </g>
    <g id="patch_298">
     <path d="M 886.064062 106.434687 
L 906.064062 106.434687 
L 906.064062 99.434687 
L 886.064062 99.434687 
z
" style="fill: #ff9896"/>
    </g>
    <g id="text_18">
     <!-- FT Miss -->
     <g transform="translate(914.064062 106.434687) scale(0.1 -0.1)">
      <use xlink:href="#DejaVuSans-46"/>
      <use xlink:href="#DejaVuSans-54" transform="translate(55.769531 0)"/>
      <use xlink:href="#DejaVuSans-20" transform="translate(116.853516 0)"/>
      <use xlink:href="#DejaVuSans-4d" transform="translate(148.640625 0)"/>
      <use xlink:href="#DejaVuSans-69" transform="translate(234.919922 0)"/>
      <use xlink:href="#DejaVuSans-73" transform="translate(262.703125 0)"/>
      <use xlink:href="#DejaVuSans-73" transform="translate(314.802734 0)"/>
     </g>
    </g>
    <g id="patch_299">
     <path d="M 886.064062 121.112813 
L 906.064062 121.112813 
L 906.064062 114.112813 
L 886.064062 114.112813 
z
" style="fill: #1f77b4"/>
    </g>
    <g id="text_19">
     <!-- 3PT Made -->
     <g transform="translate(914.064062 121.112813) scale(0.1 -0.1)">
      <use xlink:href="#DejaVuSans-33"/>
      <use xlink:href="#DejaVuSans-50" transform="translate(63.623047 0)"/>
      <use xlink:href="#DejaVuSans-54" transform="translate(123.925781 0)"/>
      <use xlink:href="#DejaVuSans-20" transform="translate(185.009766 0)"/>
      <use xlink:href="#DejaVuSans-4d" transform="translate(216.796875 0)"/>
      <use xlink:href="#DejaVuSans-61" transform="translate(303.076172 0)"/>
      <use xlink:href="#DejaVuSans-64" transform="translate(364.355469 0)"/>
      <use xlink:href="#DejaVuSans-65" transform="translate(427.832031 0)"/>
     </g>
    </g>
    <g id="patch_300">
     <path d="M 886.064062 135.790938 
L 906.064062 135.790938 
L 906.064062 128.790938 
L 886.064062 128.790938 
z
" style="fill: #ff7f0e"/>
    </g>
    <g id="text_20">
     <!-- 2PT Made -->
     <g transform="translate(914.064062 135.790938) scale(0.1 -0.1)">
      <use xlink:href="#DejaVuSans-32"/>
      <use xlink:href="#DejaVuSans-50" transform="translate(63.623047 0)"/>
      <use xlink:href="#DejaVuSans-54" transform="translate(123.925781 0)"/>
      <use xlink:href="#DejaVuSans-20" transform="translate(185.009766 0)"/>
      <use xlink:href="#DejaVuSans-4d" transform="translate(216.796875 0)"/>
      <use xlink:href="#DejaVuSans-61" transform="translate(303.076172 0)"/>
      <use xlink:href="#DejaVuSans-64" transform="translate(364.355469 0)"/>
      <use xlink:href="#DejaVuSans-65" transform="translate(427.832031 0)"/>
     </g>
    </g>
    <g id="patch_301">
     <path d="M 886.064062 150.469063 
L 906.064062 150.469063 
L 906.064062 143.469063 
L 886.064062 143.469063 
z
" style="fill: #d62728"/>
    </g>
    <g id="text_21">
     <!-- FT Made -->
     <g transform="translate(914.064062 150.469063) scale(0.1 -0.1)">
      <use xlink:href="#DejaVuSans-46"/>
      <use xlink:href="#DejaVuSans-54" transform="translate(55.769531 0)"/>
      <use xlink:href="#DejaVuSans-20" transform="translate(116.853516 0)"/>
      <use xlink:href="#DejaVuSans-4d" transform="translate(148.640625 0)"/>
      <use xlink:href="#DejaVuSans-61" transform="translate(234.919922 0)"/>
      <use xlink:href="#DejaVuSans-64" transform="translate(296.199219 0)"/>
      <use xlink:href="#DejaVuSans-65" transform="translate(359.675781 0)"/>
     </g>
    </g>
   </g>
  </g>
 </g>
 <defs>
  <clipPath id="p74c46a3412">
   <rect x="135" y="60.48" width="837" height="388.08"/>
  </clipPath>
 </defs>
</svg>
