<?xml version="1.0" encoding="utf-8" standalone="no"?>
<!DOCTYPE svg PUBLIC "-//W3C//DTD SVG 1.1//EN"
  "http://www.w3.org/Graphics/SVG/1.1/DTD/svg11.dtd">
<svg xmlns:xlink="http://www.w3.org/1999/xlink" width="864pt" height="504pt" viewBox="0 0 864 504" xmlns="http://www.w3.org/2000/svg" version="1.1">
 <metadata>
  <rdf:RDF xmlns:dc="http://purl.org/dc/elements/1.1/" xmlns:cc="http://creativecommons.org/ns#" xmlns:rdf="http://www.w3.org/1999/02/22-rdf-syntax-ns#">
   <cc:Work>
    <dc:type rdf:resource="http://purl.org/dc/dcmitype/StillImage"/>
    <dc:date>2025-08-24T04:35:47.677695</dc:date>
    <dc:format>image/svg+xml</dc:format>
    <dc:creator>
     <cc:Agent>
      <dc:title>Matplotlib v3.10.5, https://matplotlib.org/</dc:title>
     </cc:Agent>
    </dc:creator>
   </cc:Work>
  </rdf:RDF>
 </metadata>
 <defs>
  <style type="text/css">*{stroke-linejoin: round; stroke-linecap: butt}</style>
 </defs>
 <g id="figure_1">
  <g id="patch_1">
   <path d="M 0 504 
L 864 504 
L 864 0 
L 0 0 
z
" style="fill: #ffffff"/>
  </g>
  <g id="axes_1">
   <g id="patch_2">
    <path d="M 52.94 455.955539 
L 853.2 455.955539 
L 853.2 26.88 
L 52.94 26.88 
z
" style="fill: #ffffff"/>
   </g>
   <g id="patch_3">
    <path d="M 57.082133 259.148164 
L 61.500407 259.148164 
L 61.500407 259.148164 
L 57.082133 259.148164 
z
" clip-path="url(#p4f36774be6)" style="fill: #ffc107"/>
   </g>
   <g id="patch_4">
    <path d="M 73.650663 259.148164 
L 78.068937 259.148164 
L 78.068937 282.788689 
L 73.650663 282.788689 
z
" clip-path="url(#p4f36774be6)" style="fill: #ffc107"/>
   </g>
   <g id="patch_5">
    <path d="M 90.219193 259.148164 
L 94.637467 259.148164 
L 94.637467 235.507638 
L 90.219193 235.507638 
z
" clip-path="url(#p4f36774be6)" style="fill: #ffc107"/>
   </g>
   <g id="patch_6">
    <path d="M 106.787723 259.148164 
L 111.205997 259.148164 
L 111.205997 247.327901 
L 106.787723 247.327901 
z
" clip-path="url(#p4f36774be6)" style="fill: #ffc107"/>
   </g>
   <g id="patch_7">
    <path d="M 123.356253 259.148164 
L 127.774527 259.148164 
L 127.774527 318.249478 
L 123.356253 318.249478 
z
" clip-path="url(#p4f36774be6)" style="fill: #ffc107"/>
   </g>
   <g id="patch_8">
    <path d="M 139.924783 259.148164 
L 144.343057 259.148164 
L 144.343057 235.507638 
L 139.924783 235.507638 
z
" clip-path="url(#p4f36774be6)" style="fill: #ffc107"/>
   </g>
   <g id="patch_9">
    <path d="M 156.493313 259.148164 
L 160.911587 259.148164 
L 160.911587 270.968426 
L 156.493313 270.968426 
z
" clip-path="url(#p4f36774be6)" style="fill: #ffc107"/>
   </g>
   <g id="patch_10">
    <path d="M 173.061843 259.148164 
L 177.480117 259.148164 
L 177.480117 270.968426 
L 173.061843 270.968426 
z
" clip-path="url(#p4f36774be6)" style="fill: #ffc107"/>
   </g>
   <g id="patch_11">
    <path d="M 189.630373 259.148164 
L 194.048647 259.148164 
L 194.048647 306.429215 
L 189.630373 306.429215 
z
" clip-path="url(#p4f36774be6)" style="fill: #ffc107"/>
   </g>
   <g id="patch_12">
    <path d="M 206.198903 259.148164 
L 210.617177 259.148164 
L 210.617177 259.148164 
L 206.198903 259.148164 
z
" clip-path="url(#p4f36774be6)" style="fill: #ffc107"/>
   </g>
   <g id="patch_13">
    <path d="M 222.767433 259.148164 
L 227.185707 259.148164 
L 227.185707 282.788689 
L 222.767433 282.788689 
z
" clip-path="url(#p4f36774be6)" style="fill: #ffc107"/>
   </g>
   <g id="patch_14">
    <path d="M 239.335963 259.148164 
L 243.754237 259.148164 
L 243.754237 270.968426 
L 239.335963 270.968426 
z
" clip-path="url(#p4f36774be6)" style="fill: #ffc107"/>
   </g>
   <g id="patch_15">
    <path d="M 255.904493 259.148164 
L 260.322767 259.148164 
L 260.322767 259.148164 
L 255.904493 259.148164 
z
" clip-path="url(#p4f36774be6)" style="fill: #ffc107"/>
   </g>
   <g id="patch_16">
    <path d="M 272.473023 259.148164 
L 276.891297 259.148164 
L 276.891297 259.148164 
L 272.473023 259.148164 
z
" clip-path="url(#p4f36774be6)" style="fill: #ffc107"/>
   </g>
   <g id="patch_17">
    <path d="M 289.041553 259.148164 
L 293.459827 259.148164 
L 293.459827 247.327901 
L 289.041553 247.327901 
z
" clip-path="url(#p4f36774be6)" style="fill: #ffc107"/>
   </g>
   <g id="patch_18">
    <path d="M 305.610083 259.148164 
L 310.028357 259.148164 
L 310.028357 259.148164 
L 305.610083 259.148164 
z
" clip-path="url(#p4f36774be6)" style="fill: #ffc107"/>
   </g>
   <g id="patch_19">
    <path d="M 322.178613 259.148164 
L 326.596888 259.148164 
L 326.596888 211.867113 
L 322.178613 211.867113 
z
" clip-path="url(#p4f36774be6)" style="fill: #ffc107"/>
   </g>
   <g id="patch_20">
    <path d="M 338.747143 259.148164 
L 343.165418 259.148164 
L 343.165418 294.608952 
L 338.747143 294.608952 
z
" clip-path="url(#p4f36774be6)" style="fill: #ffc107"/>
   </g>
   <g id="patch_21">
    <path d="M 355.315673 259.148164 
L 359.733948 259.148164 
L 359.733948 259.148164 
L 355.315673 259.148164 
z
" clip-path="url(#p4f36774be6)" style="fill: #ffc107"/>
   </g>
   <g id="patch_22">
    <path d="M 371.884203 259.148164 
L 376.302478 259.148164 
L 376.302478 235.507638 
L 371.884203 235.507638 
z
" clip-path="url(#p4f36774be6)" style="fill: #ffc107"/>
   </g>
   <g id="patch_23">
    <path d="M 388.452733 259.148164 
L 392.871008 259.148164 
L 392.871008 235.507638 
L 388.452733 235.507638 
z
" clip-path="url(#p4f36774be6)" style="fill: #ffc107"/>
   </g>
   <g id="patch_24">
    <path d="M 405.021263 259.148164 
L 409.439538 259.148164 
L 409.439538 235.507638 
L 405.021263 235.507638 
z
" clip-path="url(#p4f36774be6)" style="fill: #ffc107"/>
   </g>
   <g id="patch_25">
    <path d="M 421.589793 259.148164 
L 426.008068 259.148164 
L 426.008068 282.788689 
L 421.589793 282.788689 
z
" clip-path="url(#p4f36774be6)" style="fill: #ffc107"/>
   </g>
   <g id="patch_26">
    <path d="M 438.158323 259.148164 
L 442.576598 259.148164 
L 442.576598 247.327901 
L 438.158323 247.327901 
z
" clip-path="url(#p4f36774be6)" style="fill: #ffc107"/>
   </g>
   <g id="patch_27">
    <path d="M 454.726853 259.148164 
L 459.145128 259.148164 
L 459.145128 235.507638 
L 454.726853 235.507638 
z
" clip-path="url(#p4f36774be6)" style="fill: #ffc107"/>
   </g>
   <g id="patch_28">
    <path d="M 471.295383 259.148164 
L 475.713658 259.148164 
L 475.713658 282.788689 
L 471.295383 282.788689 
z
" clip-path="url(#p4f36774be6)" style="fill: #ffc107"/>
   </g>
   <g id="patch_29">
    <path d="M 487.863913 259.148164 
L 492.282188 259.148164 
L 492.282188 306.429215 
L 487.863913 306.429215 
z
" clip-path="url(#p4f36774be6)" style="fill: #ffc107"/>
   </g>
   <g id="patch_30">
    <path d="M 504.432443 259.148164 
L 508.850718 259.148164 
L 508.850718 294.608952 
L 504.432443 294.608952 
z
" clip-path="url(#p4f36774be6)" style="fill: #ffc107"/>
   </g>
   <g id="patch_31">
    <path d="M 521.000973 259.148164 
L 525.419248 259.148164 
L 525.419248 211.867113 
L 521.000973 211.867113 
z
" clip-path="url(#p4f36774be6)" style="fill: #ffc107"/>
   </g>
   <g id="patch_32">
    <path d="M 537.569503 259.148164 
L 541.987778 259.148164 
L 541.987778 223.687375 
L 537.569503 223.687375 
z
" clip-path="url(#p4f36774be6)" style="fill: #ffc107"/>
   </g>
   <g id="patch_33">
    <path d="M 554.138033 259.148164 
L 558.556308 259.148164 
L 558.556308 259.148164 
L 554.138033 259.148164 
z
" clip-path="url(#p4f36774be6)" style="fill: #ffc107"/>
   </g>
   <g id="patch_34">
    <path d="M 570.706563 259.148164 
L 575.124838 259.148164 
L 575.124838 259.148164 
L 570.706563 259.148164 
z
" clip-path="url(#p4f36774be6)" style="fill: #ffc107"/>
   </g>
   <g id="patch_35">
    <path d="M 587.275093 259.148164 
L 591.693368 259.148164 
L 591.693368 235.507638 
L 587.275093 235.507638 
z
" clip-path="url(#p4f36774be6)" style="fill: #ffc107"/>
   </g>
   <g id="patch_36">
    <path d="M 603.843623 259.148164 
L 608.261898 259.148164 
L 608.261898 259.148164 
L 603.843623 259.148164 
z
" clip-path="url(#p4f36774be6)" style="fill: #ffc107"/>
   </g>
   <g id="patch_37">
    <path d="M 620.412153 259.148164 
L 624.830428 259.148164 
L 624.830428 247.327901 
L 620.412153 247.327901 
z
" clip-path="url(#p4f36774be6)" style="fill: #ffc107"/>
   </g>
   <g id="patch_38">
    <path d="M 636.980683 259.148164 
L 641.398958 259.148164 
L 641.398958 318.249478 
L 636.980683 318.249478 
z
" clip-path="url(#p4f36774be6)" style="fill: #ffc107"/>
   </g>
   <g id="patch_39">
    <path d="M 653.549213 259.148164 
L 657.967488 259.148164 
L 657.967488 259.148164 
L 653.549213 259.148164 
z
" clip-path="url(#p4f36774be6)" style="fill: #ffc107"/>
   </g>
   <g id="patch_40">
    <path d="M 670.117743 259.148164 
L 674.536018 259.148164 
L 674.536018 282.788689 
L 670.117743 282.788689 
z
" clip-path="url(#p4f36774be6)" style="fill: #ffc107"/>
   </g>
   <g id="patch_41">
    <path d="M 686.686273 259.148164 
L 691.104548 259.148164 
L 691.104548 259.148164 
L 686.686273 259.148164 
z
" clip-path="url(#p4f36774be6)" style="fill: #ffc107"/>
   </g>
   <g id="patch_42">
    <path d="M 703.254803 259.148164 
L 707.673078 259.148164 
L 707.673078 282.788689 
L 703.254803 282.788689 
z
" clip-path="url(#p4f36774be6)" style="fill: #ffc107"/>
   </g>
   <g id="patch_43">
    <path d="M 719.823333 259.148164 
L 724.241608 259.148164 
L 724.241608 259.148164 
L 719.823333 259.148164 
z
" clip-path="url(#p4f36774be6)" style="fill: #ffc107"/>
   </g>
   <g id="patch_44">
    <path d="M 736.391863 259.148164 
L 740.810138 259.148164 
L 740.810138 270.968426 
L 736.391863 270.968426 
z
" clip-path="url(#p4f36774be6)" style="fill: #ffc107"/>
   </g>
   <g id="patch_45">
    <path d="M 752.960393 259.148164 
L 757.378668 259.148164 
L 757.378668 235.507638 
L 752.960393 235.507638 
z
" clip-path="url(#p4f36774be6)" style="fill: #ffc107"/>
   </g>
   <g id="patch_46">
    <path d="M 769.528923 259.148164 
L 773.947198 259.148164 
L 773.947198 294.608952 
L 769.528923 294.608952 
z
" clip-path="url(#p4f36774be6)" style="fill: #ffc107"/>
   </g>
   <g id="patch_47">
    <path d="M 786.097453 259.148164 
L 790.515728 259.148164 
L 790.515728 247.327901 
L 786.097453 247.327901 
z
" clip-path="url(#p4f36774be6)" style="fill: #ffc107"/>
   </g>
   <g id="patch_48">
    <path d="M 802.665983 259.148164 
L 807.084258 259.148164 
L 807.084258 259.148164 
L 802.665983 259.148164 
z
" clip-path="url(#p4f36774be6)" style="fill: #ffc107"/>
   </g>
   <g id="patch_49">
    <path d="M 819.234513 259.148164 
L 823.652788 259.148164 
L 823.652788 294.608952 
L 819.234513 294.608952 
z
" clip-path="url(#p4f36774be6)" style="fill: #ffc107"/>
   </g>
   <g id="patch_50">
    <path d="M 835.803043 259.148164 
L 840.221318 259.148164 
L 840.221318 306.429215 
L 835.803043 306.429215 
z
" clip-path="url(#p4f36774be6)" style="fill: #ffc107"/>
   </g>
   <g id="patch_51">
    <path d="M 61.500407 259.148164 
L 65.918682 259.148164 
L 65.918682 46.383434 
L 61.500407 46.383434 
z
" clip-path="url(#p4f36774be6)" style="fill: #2196f3"/>
   </g>
   <g id="patch_52">
    <path d="M 78.068937 259.148164 
L 82.487212 259.148164 
L 82.487212 353.710266 
L 78.068937 353.710266 
z
" clip-path="url(#p4f36774be6)" style="fill: #2196f3"/>
   </g>
   <g id="patch_53">
    <path d="M 94.637467 259.148164 
L 99.055742 259.148164 
L 99.055742 188.226587 
L 94.637467 188.226587 
z
" clip-path="url(#p4f36774be6)" style="fill: #2196f3"/>
   </g>
   <g id="patch_54">
    <path d="M 111.205997 259.148164 
L 115.624272 259.148164 
L 115.624272 211.867113 
L 111.205997 211.867113 
z
" clip-path="url(#p4f36774be6)" style="fill: #2196f3"/>
   </g>
   <g id="patch_55">
    <path d="M 127.774527 259.148164 
L 132.192802 259.148164 
L 132.192802 211.867113 
L 127.774527 211.867113 
z
" clip-path="url(#p4f36774be6)" style="fill: #2196f3"/>
   </g>
   <g id="patch_56">
    <path d="M 144.343057 259.148164 
L 148.761332 259.148164 
L 148.761332 235.507638 
L 144.343057 235.507638 
z
" clip-path="url(#p4f36774be6)" style="fill: #2196f3"/>
   </g>
   <g id="patch_57">
    <path d="M 160.911587 259.148164 
L 165.329862 259.148164 
L 165.329862 330.06974 
L 160.911587 330.06974 
z
" clip-path="url(#p4f36774be6)" style="fill: #2196f3"/>
   </g>
   <g id="patch_58">
    <path d="M 177.480117 259.148164 
L 181.898392 259.148164 
L 181.898392 282.788689 
L 177.480117 282.788689 
z
" clip-path="url(#p4f36774be6)" style="fill: #2196f3"/>
   </g>
   <g id="patch_59">
    <path d="M 194.048647 259.148164 
L 198.466922 259.148164 
L 198.466922 377.350791 
L 194.048647 377.350791 
z
" clip-path="url(#p4f36774be6)" style="fill: #2196f3"/>
   </g>
   <g id="patch_60">
    <path d="M 210.617177 259.148164 
L 215.035452 259.148164 
L 215.035452 282.788689 
L 210.617177 282.788689 
z
" clip-path="url(#p4f36774be6)" style="fill: #2196f3"/>
   </g>
   <g id="patch_61">
    <path d="M 227.185707 259.148164 
L 231.603982 259.148164 
L 231.603982 282.788689 
L 227.185707 282.788689 
z
" clip-path="url(#p4f36774be6)" style="fill: #2196f3"/>
   </g>
   <g id="patch_62">
    <path d="M 243.754237 259.148164 
L 248.172512 259.148164 
L 248.172512 306.429215 
L 243.754237 306.429215 
z
" clip-path="url(#p4f36774be6)" style="fill: #2196f3"/>
   </g>
   <g id="patch_63">
    <path d="M 260.322767 259.148164 
L 264.741042 259.148164 
L 264.741042 235.507638 
L 260.322767 235.507638 
z
" clip-path="url(#p4f36774be6)" style="fill: #2196f3"/>
   </g>
   <g id="patch_64">
    <path d="M 276.891297 259.148164 
L 281.309572 259.148164 
L 281.309572 259.148164 
L 276.891297 259.148164 
z
" clip-path="url(#p4f36774be6)" style="fill: #2196f3"/>
   </g>
   <g id="patch_65">
    <path d="M 293.459827 259.148164 
L 297.878102 259.148164 
L 297.878102 259.148164 
L 293.459827 259.148164 
z
" clip-path="url(#p4f36774be6)" style="fill: #2196f3"/>
   </g>
   <g id="patch_66">
    <path d="M 310.028357 259.148164 
L 314.446632 259.148164 
L 314.446632 282.788689 
L 310.028357 282.788689 
z
" clip-path="url(#p4f36774be6)" style="fill: #2196f3"/>
   </g>
   <g id="patch_67">
    <path d="M 326.596888 259.148164 
L 331.015162 259.148164 
L 331.015162 188.226587 
L 326.596888 188.226587 
z
" clip-path="url(#p4f36774be6)" style="fill: #2196f3"/>
   </g>
   <g id="patch_68">
    <path d="M 343.165418 259.148164 
L 347.583692 259.148164 
L 347.583692 306.429215 
L 343.165418 306.429215 
z
" clip-path="url(#p4f36774be6)" style="fill: #2196f3"/>
   </g>
   <g id="patch_69">
    <path d="M 359.733948 259.148164 
L 364.152222 259.148164 
L 364.152222 306.429215 
L 359.733948 306.429215 
z
" clip-path="url(#p4f36774be6)" style="fill: #2196f3"/>
   </g>
   <g id="patch_70">
    <path d="M 376.302478 259.148164 
L 380.720752 259.148164 
L 380.720752 282.788689 
L 376.302478 282.788689 
z
" clip-path="url(#p4f36774be6)" style="fill: #2196f3"/>
   </g>
   <g id="patch_71">
    <path d="M 392.871008 259.148164 
L 397.289282 259.148164 
L 397.289282 377.350791 
L 392.871008 377.350791 
z
" clip-path="url(#p4f36774be6)" style="fill: #2196f3"/>
   </g>
   <g id="patch_72">
    <path d="M 409.439538 259.148164 
L 413.857812 259.148164 
L 413.857812 330.06974 
L 409.439538 330.06974 
z
" clip-path="url(#p4f36774be6)" style="fill: #2196f3"/>
   </g>
   <g id="patch_73">
    <path d="M 426.008068 259.148164 
L 430.426342 259.148164 
L 430.426342 259.148164 
L 426.008068 259.148164 
z
" clip-path="url(#p4f36774be6)" style="fill: #2196f3"/>
   </g>
   <g id="patch_74">
    <path d="M 442.576598 259.148164 
L 446.994872 259.148164 
L 446.994872 235.507638 
L 442.576598 235.507638 
z
" clip-path="url(#p4f36774be6)" style="fill: #2196f3"/>
   </g>
   <g id="patch_75">
    <path d="M 459.145128 259.148164 
L 463.563402 259.148164 
L 463.563402 282.788689 
L 459.145128 282.788689 
z
" clip-path="url(#p4f36774be6)" style="fill: #2196f3"/>
   </g>
   <g id="patch_76">
    <path d="M 475.713658 259.148164 
L 480.131932 259.148164 
L 480.131932 188.226587 
L 475.713658 188.226587 
z
" clip-path="url(#p4f36774be6)" style="fill: #2196f3"/>
   </g>
   <g id="patch_77">
    <path d="M 492.282188 259.148164 
L 496.700462 259.148164 
L 496.700462 306.429215 
L 492.282188 306.429215 
z
" clip-path="url(#p4f36774be6)" style="fill: #2196f3"/>
   </g>
   <g id="patch_78">
    <path d="M 508.850718 259.148164 
L 513.268992 259.148164 
L 513.268992 306.429215 
L 508.850718 306.429215 
z
" clip-path="url(#p4f36774be6)" style="fill: #2196f3"/>
   </g>
   <g id="patch_79">
    <path d="M 525.419248 259.148164 
L 529.837522 259.148164 
L 529.837522 377.350791 
L 525.419248 377.350791 
z
" clip-path="url(#p4f36774be6)" style="fill: #2196f3"/>
   </g>
   <g id="patch_80">
    <path d="M 541.987778 259.148164 
L 546.406052 259.148164 
L 546.406052 211.867113 
L 541.987778 211.867113 
z
" clip-path="url(#p4f36774be6)" style="fill: #2196f3"/>
   </g>
   <g id="patch_81">
    <path d="M 558.556308 259.148164 
L 562.974582 259.148164 
L 562.974582 188.226587 
L 558.556308 188.226587 
z
" clip-path="url(#p4f36774be6)" style="fill: #2196f3"/>
   </g>
   <g id="patch_82">
    <path d="M 575.124838 259.148164 
L 579.543112 259.148164 
L 579.543112 235.507638 
L 575.124838 235.507638 
z
" clip-path="url(#p4f36774be6)" style="fill: #2196f3"/>
   </g>
   <g id="patch_83">
    <path d="M 591.693368 259.148164 
L 596.111643 259.148164 
L 596.111643 282.788689 
L 591.693368 282.788689 
z
" clip-path="url(#p4f36774be6)" style="fill: #2196f3"/>
   </g>
   <g id="patch_84">
    <path d="M 608.261898 259.148164 
L 612.680173 259.148164 
L 612.680173 306.429215 
L 608.261898 306.429215 
z
" clip-path="url(#p4f36774be6)" style="fill: #2196f3"/>
   </g>
   <g id="patch_85">
    <path d="M 624.830428 259.148164 
L 629.248703 259.148164 
L 629.248703 282.788689 
L 624.830428 282.788689 
z
" clip-path="url(#p4f36774be6)" style="fill: #2196f3"/>
   </g>
   <g id="patch_86">
    <path d="M 641.398958 259.148164 
L 645.817233 259.148164 
L 645.817233 282.788689 
L 641.398958 282.788689 
z
" clip-path="url(#p4f36774be6)" style="fill: #2196f3"/>
   </g>
   <g id="patch_87">
    <path d="M 657.967488 259.148164 
L 662.385763 259.148164 
L 662.385763 259.148164 
L 657.967488 259.148164 
z
" clip-path="url(#p4f36774be6)" style="fill: #2196f3"/>
   </g>
   <g id="patch_88">
    <path d="M 674.536018 259.148164 
L 678.954293 259.148164 
L 678.954293 235.507638 
L 674.536018 235.507638 
z
" clip-path="url(#p4f36774be6)" style="fill: #2196f3"/>
   </g>
   <g id="patch_89">
    <path d="M 691.104548 259.148164 
L 695.522823 259.148164 
L 695.522823 282.788689 
L 691.104548 282.788689 
z
" clip-path="url(#p4f36774be6)" style="fill: #2196f3"/>
   </g>
   <g id="patch_90">
    <path d="M 707.673078 259.148164 
L 712.091353 259.148164 
L 712.091353 211.867113 
L 707.673078 211.867113 
z
" clip-path="url(#p4f36774be6)" style="fill: #2196f3"/>
   </g>
   <g id="patch_91">
    <path d="M 724.241608 259.148164 
L 728.659883 259.148164 
L 728.659883 282.788689 
L 724.241608 282.788689 
z
" clip-path="url(#p4f36774be6)" style="fill: #2196f3"/>
   </g>
   <g id="patch_92">
    <path d="M 740.810138 259.148164 
L 745.228413 259.148164 
L 745.228413 259.148164 
L 740.810138 259.148164 
z
" clip-path="url(#p4f36774be6)" style="fill: #2196f3"/>
   </g>
   <g id="patch_93">
    <path d="M 757.378668 259.148164 
L 761.796943 259.148164 
L 761.796943 330.06974 
L 757.378668 330.06974 
z
" clip-path="url(#p4f36774be6)" style="fill: #2196f3"/>
   </g>
   <g id="patch_94">
    <path d="M 773.947198 259.148164 
L 778.365473 259.148164 
L 778.365473 259.148164 
L 773.947198 259.148164 
z
" clip-path="url(#p4f36774be6)" style="fill: #2196f3"/>
   </g>
   <g id="patch_95">
    <path d="M 790.515728 259.148164 
L 794.934003 259.148164 
L 794.934003 282.788689 
L 790.515728 282.788689 
z
" clip-path="url(#p4f36774be6)" style="fill: #2196f3"/>
   </g>
   <g id="patch_96">
    <path d="M 807.084258 259.148164 
L 811.502533 259.148164 
L 811.502533 235.507638 
L 807.084258 235.507638 
z
" clip-path="url(#p4f36774be6)" style="fill: #2196f3"/>
   </g>
   <g id="patch_97">
    <path d="M 823.652788 259.148164 
L 828.071063 259.148164 
L 828.071063 259.148164 
L 823.652788 259.148164 
z
" clip-path="url(#p4f36774be6)" style="fill: #2196f3"/>
   </g>
   <g id="patch_98">
    <path d="M 840.221318 259.148164 
L 844.639593 259.148164 
L 844.639593 306.429215 
L 840.221318 306.429215 
z
" clip-path="url(#p4f36774be6)" style="fill: #2196f3"/>
   </g>
   <g id="patch_99">
    <path d="M 65.918682 259.148164 
L 70.336957 259.148164 
L 70.336957 152.765799 
L 65.918682 152.765799 
z
" clip-path="url(#p4f36774be6)" style="fill: #4caf50"/>
   </g>
   <g id="patch_100">
    <path d="M 82.487212 259.148164 
L 86.905487 259.148164 
L 86.905487 152.765799 
L 82.487212 152.765799 
z
" clip-path="url(#p4f36774be6)" style="fill: #4caf50"/>
   </g>
   <g id="patch_101">
    <path d="M 99.055742 259.148164 
L 103.474017 259.148164 
L 103.474017 188.226587 
L 99.055742 188.226587 
z
" clip-path="url(#p4f36774be6)" style="fill: #4caf50"/>
   </g>
   <g id="patch_102">
    <path d="M 115.624272 259.148164 
L 120.042547 259.148164 
L 120.042547 294.608952 
L 115.624272 294.608952 
z
" clip-path="url(#p4f36774be6)" style="fill: #4caf50"/>
   </g>
   <g id="patch_103">
    <path d="M 132.192802 259.148164 
L 136.611077 259.148164 
L 136.611077 330.06974 
L 132.192802 330.06974 
z
" clip-path="url(#p4f36774be6)" style="fill: #4caf50"/>
   </g>
   <g id="patch_104">
    <path d="M 148.761332 259.148164 
L 153.179607 259.148164 
L 153.179607 152.765799 
L 148.761332 152.765799 
z
" clip-path="url(#p4f36774be6)" style="fill: #4caf50"/>
   </g>
   <g id="patch_105">
    <path d="M 165.329862 259.148164 
L 169.748137 259.148164 
L 169.748137 223.687375 
L 165.329862 223.687375 
z
" clip-path="url(#p4f36774be6)" style="fill: #4caf50"/>
   </g>
   <g id="patch_106">
    <path d="M 181.898392 259.148164 
L 186.316667 259.148164 
L 186.316667 365.530529 
L 181.898392 365.530529 
z
" clip-path="url(#p4f36774be6)" style="fill: #4caf50"/>
   </g>
   <g id="patch_107">
    <path d="M 198.466922 259.148164 
L 202.885197 259.148164 
L 202.885197 436.452105 
L 198.466922 436.452105 
z
" clip-path="url(#p4f36774be6)" style="fill: #4caf50"/>
   </g>
   <g id="patch_108">
    <path d="M 215.035452 259.148164 
L 219.453727 259.148164 
L 219.453727 294.608952 
L 215.035452 294.608952 
z
" clip-path="url(#p4f36774be6)" style="fill: #4caf50"/>
   </g>
   <g id="patch_109">
    <path d="M 231.603982 259.148164 
L 236.022257 259.148164 
L 236.022257 223.687375 
L 231.603982 223.687375 
z
" clip-path="url(#p4f36774be6)" style="fill: #4caf50"/>
   </g>
   <g id="patch_110">
    <path d="M 248.172512 259.148164 
L 252.590787 259.148164 
L 252.590787 259.148164 
L 248.172512 259.148164 
z
" clip-path="url(#p4f36774be6)" style="fill: #4caf50"/>
   </g>
   <g id="patch_111">
    <path d="M 264.741042 259.148164 
L 269.159317 259.148164 
L 269.159317 259.148164 
L 264.741042 259.148164 
z
" clip-path="url(#p4f36774be6)" style="fill: #4caf50"/>
   </g>
   <g id="patch_112">
    <path d="M 281.309572 259.148164 
L 285.727847 259.148164 
L 285.727847 188.226587 
L 281.309572 188.226587 
z
" clip-path="url(#p4f36774be6)" style="fill: #4caf50"/>
   </g>
   <g id="patch_113">
    <path d="M 297.878102 259.148164 
L 302.296377 259.148164 
L 302.296377 259.148164 
L 297.878102 259.148164 
z
" clip-path="url(#p4f36774be6)" style="fill: #4caf50"/>
   </g>
   <g id="patch_114">
    <path d="M 314.446632 259.148164 
L 318.864907 259.148164 
L 318.864907 223.687375 
L 314.446632 223.687375 
z
" clip-path="url(#p4f36774be6)" style="fill: #4caf50"/>
   </g>
   <g id="patch_115">
    <path d="M 331.015162 259.148164 
L 335.433437 259.148164 
L 335.433437 294.608952 
L 331.015162 294.608952 
z
" clip-path="url(#p4f36774be6)" style="fill: #4caf50"/>
   </g>
   <g id="patch_116">
    <path d="M 347.583692 259.148164 
L 352.001967 259.148164 
L 352.001967 365.530529 
L 347.583692 365.530529 
z
" clip-path="url(#p4f36774be6)" style="fill: #4caf50"/>
   </g>
   <g id="patch_117">
    <path d="M 364.152222 259.148164 
L 368.570497 259.148164 
L 368.570497 117.30501 
L 364.152222 117.30501 
z
" clip-path="url(#p4f36774be6)" style="fill: #4caf50"/>
   </g>
   <g id="patch_118">
    <path d="M 380.720752 259.148164 
L 385.139027 259.148164 
L 385.139027 259.148164 
L 380.720752 259.148164 
z
" clip-path="url(#p4f36774be6)" style="fill: #4caf50"/>
   </g>
   <g id="patch_119">
    <path d="M 397.289282 259.148164 
L 401.707557 259.148164 
L 401.707557 259.148164 
L 397.289282 259.148164 
z
" clip-path="url(#p4f36774be6)" style="fill: #4caf50"/>
   </g>
   <g id="patch_120">
    <path d="M 413.857812 259.148164 
L 418.276087 259.148164 
L 418.276087 188.226587 
L 413.857812 188.226587 
z
" clip-path="url(#p4f36774be6)" style="fill: #4caf50"/>
   </g>
   <g id="patch_121">
    <path d="M 430.426342 259.148164 
L 434.844617 259.148164 
L 434.844617 81.844222 
L 430.426342 81.844222 
z
" clip-path="url(#p4f36774be6)" style="fill: #4caf50"/>
   </g>
   <g id="patch_122">
    <path d="M 446.994872 259.148164 
L 451.413147 259.148164 
L 451.413147 152.765799 
L 446.994872 152.765799 
z
" clip-path="url(#p4f36774be6)" style="fill: #4caf50"/>
   </g>
   <g id="patch_123">
    <path d="M 463.563402 259.148164 
L 467.981677 259.148164 
L 467.981677 259.148164 
L 463.563402 259.148164 
z
" clip-path="url(#p4f36774be6)" style="fill: #4caf50"/>
   </g>
   <g id="patch_124">
    <path d="M 480.131932 259.148164 
L 484.550207 259.148164 
L 484.550207 330.06974 
L 480.131932 330.06974 
z
" clip-path="url(#p4f36774be6)" style="fill: #4caf50"/>
   </g>
   <g id="patch_125">
    <path d="M 496.700462 259.148164 
L 501.118737 259.148164 
L 501.118737 188.226587 
L 496.700462 188.226587 
z
" clip-path="url(#p4f36774be6)" style="fill: #4caf50"/>
   </g>
   <g id="patch_126">
    <path d="M 513.268992 259.148164 
L 517.687267 259.148164 
L 517.687267 117.30501 
L 513.268992 117.30501 
z
" clip-path="url(#p4f36774be6)" style="fill: #4caf50"/>
   </g>
   <g id="patch_127">
    <path d="M 529.837522 259.148164 
L 534.255797 259.148164 
L 534.255797 330.06974 
L 529.837522 330.06974 
z
" clip-path="url(#p4f36774be6)" style="fill: #4caf50"/>
   </g>
   <g id="patch_128">
    <path d="M 546.406052 259.148164 
L 550.824327 259.148164 
L 550.824327 330.06974 
L 546.406052 330.06974 
z
" clip-path="url(#p4f36774be6)" style="fill: #4caf50"/>
   </g>
   <g id="patch_129">
    <path d="M 562.974582 259.148164 
L 567.392857 259.148164 
L 567.392857 365.530529 
L 562.974582 365.530529 
z
" clip-path="url(#p4f36774be6)" style="fill: #4caf50"/>
   </g>
   <g id="patch_130">
    <path d="M 579.543112 259.148164 
L 583.961387 259.148164 
L 583.961387 294.608952 
L 579.543112 294.608952 
z
" clip-path="url(#p4f36774be6)" style="fill: #4caf50"/>
   </g>
   <g id="patch_131">
    <path d="M 596.111643 259.148164 
L 600.529917 259.148164 
L 600.529917 330.06974 
L 596.111643 330.06974 
z
" clip-path="url(#p4f36774be6)" style="fill: #4caf50"/>
   </g>
   <g id="patch_132">
    <path d="M 612.680173 259.148164 
L 617.098447 259.148164 
L 617.098447 365.530529 
L 612.680173 365.530529 
z
" clip-path="url(#p4f36774be6)" style="fill: #4caf50"/>
   </g>
   <g id="patch_133">
    <path d="M 629.248703 259.148164 
L 633.666977 259.148164 
L 633.666977 436.452105 
L 629.248703 436.452105 
z
" clip-path="url(#p4f36774be6)" style="fill: #4caf50"/>
   </g>
   <g id="patch_134">
    <path d="M 645.817233 259.148164 
L 650.235507 259.148164 
L 650.235507 330.06974 
L 645.817233 330.06974 
z
" clip-path="url(#p4f36774be6)" style="fill: #4caf50"/>
   </g>
   <g id="patch_135">
    <path d="M 662.385763 259.148164 
L 666.804037 259.148164 
L 666.804037 259.148164 
L 662.385763 259.148164 
z
" clip-path="url(#p4f36774be6)" style="fill: #4caf50"/>
   </g>
   <g id="patch_136">
    <path d="M 678.954293 259.148164 
L 683.372567 259.148164 
L 683.372567 223.687375 
L 678.954293 223.687375 
z
" clip-path="url(#p4f36774be6)" style="fill: #4caf50"/>
   </g>
   <g id="patch_137">
    <path d="M 695.522823 259.148164 
L 699.941097 259.148164 
L 699.941097 223.687375 
L 695.522823 223.687375 
z
" clip-path="url(#p4f36774be6)" style="fill: #4caf50"/>
   </g>
   <g id="patch_138">
    <path d="M 712.091353 259.148164 
L 716.509627 259.148164 
L 716.509627 330.06974 
L 712.091353 330.06974 
z
" clip-path="url(#p4f36774be6)" style="fill: #4caf50"/>
   </g>
   <g id="patch_139">
    <path d="M 728.659883 259.148164 
L 733.078157 259.148164 
L 733.078157 259.148164 
L 728.659883 259.148164 
z
" clip-path="url(#p4f36774be6)" style="fill: #4caf50"/>
   </g>
   <g id="patch_140">
    <path d="M 745.228413 259.148164 
L 749.646687 259.148164 
L 749.646687 223.687375 
L 745.228413 223.687375 
z
" clip-path="url(#p4f36774be6)" style="fill: #4caf50"/>
   </g>
   <g id="patch_141">
    <path d="M 761.796943 259.148164 
L 766.215217 259.148164 
L 766.215217 259.148164 
L 761.796943 259.148164 
z
" clip-path="url(#p4f36774be6)" style="fill: #4caf50"/>
   </g>
   <g id="patch_142">
    <path d="M 778.365473 259.148164 
L 782.783747 259.148164 
L 782.783747 365.530529 
L 778.365473 365.530529 
z
" clip-path="url(#p4f36774be6)" style="fill: #4caf50"/>
   </g>
   <g id="patch_143">
    <path d="M 794.934003 259.148164 
L 799.352277 259.148164 
L 799.352277 400.991317 
L 794.934003 400.991317 
z
" clip-path="url(#p4f36774be6)" style="fill: #4caf50"/>
   </g>
   <g id="patch_144">
    <path d="M 811.502533 259.148164 
L 815.920807 259.148164 
L 815.920807 436.452105 
L 811.502533 436.452105 
z
" clip-path="url(#p4f36774be6)" style="fill: #4caf50"/>
   </g>
   <g id="patch_145">
    <path d="M 828.071063 259.148164 
L 832.489337 259.148164 
L 832.489337 330.06974 
L 828.071063 330.06974 
z
" clip-path="url(#p4f36774be6)" style="fill: #4caf50"/>
   </g>
   <g id="patch_146">
    <path d="M 844.639593 259.148164 
L 849.057867 259.148164 
L 849.057867 152.765799 
L 844.639593 152.765799 
z
" clip-path="url(#p4f36774be6)" style="fill: #4caf50"/>
   </g>
   <g id="matplotlib.axis_1">
    <g id="xtick_1">
     <g id="line2d_1">
      <defs>
       <path id="maaaf5e34c9" d="M 0 0 
L 0 3.5 
" style="stroke: #000000; stroke-width: 0.8"/>
      </defs>
      <g>
       <use xlink:href="#maaaf5e34c9" x="63.709545" y="455.955539" style="stroke: #000000; stroke-width: 0.8"/>
      </g>
     </g>
     <g id="text_1">
      <!-- 0 -->
      <g transform="translate(63.411234 472.827413) rotate(-45) scale(0.1 -0.1)">
       <defs>
        <path id="DejaVuSans-30" d="M 2034 4250 
Q 1547 4250 1301 3770 
Q 1056 3291 1056 2328 
Q 1056 1369 1301 889 
Q 1547 409 2034 409 
Q 2525 409 2770 889 
Q 3016 1369 3016 2328 
Q 3016 3291 2770 3770 
Q 2525 4250 2034 4250 
z
M 2034 4750 
Q 2819 4750 3233 4129 
Q 3647 3509 3647 2328 
Q 3647 1150 3233 529 
Q 2819 -91 2034 -91 
Q 1250 -91 836 529 
Q 422 1150 422 2328 
Q 422 3509 836 4129 
Q 1250 4750 2034 4750 
z
" transform="scale(0.015625)"/>
       </defs>
       <use xlink:href="#DejaVuSans-30"/>
      </g>
     </g>
    </g>
    <g id="xtick_2">
     <g id="line2d_2">
      <g>
       <use xlink:href="#maaaf5e34c9" x="80.278075" y="455.955539" style="stroke: #000000; stroke-width: 0.8"/>
      </g>
     </g>
    </g>
    <g id="xtick_3">
     <g id="line2d_3">
      <g>
       <use xlink:href="#maaaf5e34c9" x="96.846605" y="455.955539" style="stroke: #000000; stroke-width: 0.8"/>
      </g>
     </g>
    </g>
    <g id="xtick_4">
     <g id="line2d_4">
      <g>
       <use xlink:href="#maaaf5e34c9" x="113.415135" y="455.955539" style="stroke: #000000; stroke-width: 0.8"/>
      </g>
     </g>
    </g>
    <g id="xtick_5">
     <g id="line2d_5">
      <g>
       <use xlink:href="#maaaf5e34c9" x="129.983665" y="455.955539" style="stroke: #000000; stroke-width: 0.8"/>
      </g>
     </g>
    </g>
    <g id="xtick_6">
     <g id="line2d_6">
      <g>
       <use xlink:href="#maaaf5e34c9" x="146.552195" y="455.955539" style="stroke: #000000; stroke-width: 0.8"/>
      </g>
     </g>
     <g id="text_2">
      <!-- 5 -->
      <g transform="translate(146.253884 472.827413) rotate(-45) scale(0.1 -0.1)">
       <defs>
        <path id="DejaVuSans-35" d="M 691 4666 
L 3169 4666 
L 3169 4134 
L 1269 4134 
L 1269 2991 
Q 1406 3038 1543 3061 
Q 1681 3084 1819 3084 
Q 2600 3084 3056 2656 
Q 3513 2228 3513 1497 
Q 3513 744 3044 326 
Q 2575 -91 1722 -91 
Q 1428 -91 1123 -41 
Q 819 9 494 109 
L 494 744 
Q 775 591 1075 516 
Q 1375 441 1709 441 
Q 2250 441 2565 725 
Q 2881 1009 2881 1497 
Q 2881 1984 2565 2268 
Q 2250 2553 1709 2553 
Q 1456 2553 1204 2497 
Q 953 2441 691 2322 
L 691 4666 
z
" transform="scale(0.015625)"/>
       </defs>
       <use xlink:href="#DejaVuSans-35"/>
      </g>
     </g>
    </g>
    <g id="xtick_7">
     <g id="line2d_7">
      <g>
       <use xlink:href="#maaaf5e34c9" x="163.120725" y="455.955539" style="stroke: #000000; stroke-width: 0.8"/>
      </g>
     </g>
    </g>
    <g id="xtick_8">
     <g id="line2d_8">
      <g>
       <use xlink:href="#maaaf5e34c9" x="179.689255" y="455.955539" style="stroke: #000000; stroke-width: 0.8"/>
      </g>
     </g>
    </g>
    <g id="xtick_9">
     <g id="line2d_9">
      <g>
       <use xlink:href="#maaaf5e34c9" x="196.257785" y="455.955539" style="stroke: #000000; stroke-width: 0.8"/>
      </g>
     </g>
    </g>
    <g id="xtick_10">
     <g id="line2d_10">
      <g>
       <use xlink:href="#maaaf5e34c9" x="212.826315" y="455.955539" style="stroke: #000000; stroke-width: 0.8"/>
      </g>
     </g>
    </g>
    <g id="xtick_11">
     <g id="line2d_11">
      <g>
       <use xlink:href="#maaaf5e34c9" x="229.394845" y="455.955539" style="stroke: #000000; stroke-width: 0.8"/>
      </g>
     </g>
     <g id="text_3">
      <!-- 10 -->
      <g transform="translate(226.847051 477.326379) rotate(-45) scale(0.1 -0.1)">
       <defs>
        <path id="DejaVuSans-31" d="M 794 531 
L 1825 531 
L 1825 4091 
L 703 3866 
L 703 4441 
L 1819 4666 
L 2450 4666 
L 2450 531 
L 3481 531 
L 3481 0 
L 794 0 
L 794 531 
z
" transform="scale(0.015625)"/>
       </defs>
       <use xlink:href="#DejaVuSans-31"/>
       <use xlink:href="#DejaVuSans-30" transform="translate(63.623047 0)"/>
      </g>
     </g>
    </g>
    <g id="xtick_12">
     <g id="line2d_12">
      <g>
       <use xlink:href="#maaaf5e34c9" x="245.963375" y="455.955539" style="stroke: #000000; stroke-width: 0.8"/>
      </g>
     </g>
     <g id="text_4">
      <!-- 11 -->
      <g transform="translate(243.415581 477.326379) rotate(-45) scale(0.1 -0.1)">
       <use xlink:href="#DejaVuSans-31"/>
       <use xlink:href="#DejaVuSans-31" transform="translate(63.623047 0)"/>
      </g>
     </g>
    </g>
    <g id="xtick_13">
     <g id="line2d_13">
      <g>
       <use xlink:href="#maaaf5e34c9" x="262.531905" y="455.955539" style="stroke: #000000; stroke-width: 0.8"/>
      </g>
     </g>
    </g>
    <g id="xtick_14">
     <g id="line2d_14">
      <g>
       <use xlink:href="#maaaf5e34c9" x="279.100435" y="455.955539" style="stroke: #000000; stroke-width: 0.8"/>
      </g>
     </g>
    </g>
    <g id="xtick_15">
     <g id="line2d_15">
      <g>
       <use xlink:href="#maaaf5e34c9" x="295.668965" y="455.955539" style="stroke: #000000; stroke-width: 0.8"/>
      </g>
     </g>
    </g>
    <g id="xtick_16">
     <g id="line2d_16">
      <g>
       <use xlink:href="#maaaf5e34c9" x="312.237495" y="455.955539" style="stroke: #000000; stroke-width: 0.8"/>
      </g>
     </g>
     <g id="text_5">
      <!-- 15 -->
      <g transform="translate(309.689701 477.326379) rotate(-45) scale(0.1 -0.1)">
       <use xlink:href="#DejaVuSans-31"/>
       <use xlink:href="#DejaVuSans-35" transform="translate(63.623047 0)"/>
      </g>
     </g>
    </g>
    <g id="xtick_17">
     <g id="line2d_17">
      <g>
       <use xlink:href="#maaaf5e34c9" x="328.806025" y="455.955539" style="stroke: #000000; stroke-width: 0.8"/>
      </g>
     </g>
    </g>
    <g id="xtick_18">
     <g id="line2d_18">
      <g>
       <use xlink:href="#maaaf5e34c9" x="345.374555" y="455.955539" style="stroke: #000000; stroke-width: 0.8"/>
      </g>
     </g>
    </g>
    <g id="xtick_19">
     <g id="line2d_19">
      <g>
       <use xlink:href="#maaaf5e34c9" x="361.943085" y="455.955539" style="stroke: #000000; stroke-width: 0.8"/>
      </g>
     </g>
    </g>
    <g id="xtick_20">
     <g id="line2d_20">
      <g>
       <use xlink:href="#maaaf5e34c9" x="378.511615" y="455.955539" style="stroke: #000000; stroke-width: 0.8"/>
      </g>
     </g>
    </g>
    <g id="xtick_21">
     <g id="line2d_21">
      <g>
       <use xlink:href="#maaaf5e34c9" x="395.080145" y="455.955539" style="stroke: #000000; stroke-width: 0.8"/>
      </g>
     </g>
     <g id="text_6">
      <!-- 20 -->
      <g transform="translate(392.532351 477.326379) rotate(-45) scale(0.1 -0.1)">
       <defs>
        <path id="DejaVuSans-32" d="M 1228 531 
L 3431 531 
L 3431 0 
L 469 0 
L 469 531 
Q 828 903 1448 1529 
Q 2069 2156 2228 2338 
Q 2531 2678 2651 2914 
Q 2772 3150 2772 3378 
Q 2772 3750 2511 3984 
Q 2250 4219 1831 4219 
Q 1534 4219 1204 4116 
Q 875 4013 500 3803 
L 500 4441 
Q 881 4594 1212 4672 
Q 1544 4750 1819 4750 
Q 2544 4750 2975 4387 
Q 3406 4025 3406 3419 
Q 3406 3131 3298 2873 
Q 3191 2616 2906 2266 
Q 2828 2175 2409 1742 
Q 1991 1309 1228 531 
z
" transform="scale(0.015625)"/>
       </defs>
       <use xlink:href="#DejaVuSans-32"/>
       <use xlink:href="#DejaVuSans-30" transform="translate(63.623047 0)"/>
      </g>
     </g>
    </g>
    <g id="xtick_22">
     <g id="line2d_22">
      <g>
       <use xlink:href="#maaaf5e34c9" x="411.648675" y="455.955539" style="stroke: #000000; stroke-width: 0.8"/>
      </g>
     </g>
    </g>
    <g id="xtick_23">
     <g id="line2d_23">
      <g>
       <use xlink:href="#maaaf5e34c9" x="428.217205" y="455.955539" style="stroke: #000000; stroke-width: 0.8"/>
      </g>
     </g>
    </g>
    <g id="xtick_24">
     <g id="line2d_24">
      <g>
       <use xlink:href="#maaaf5e34c9" x="444.785735" y="455.955539" style="stroke: #000000; stroke-width: 0.8"/>
      </g>
     </g>
     <g id="text_7">
      <!-- 23 -->
      <g transform="translate(442.237941 477.326379) rotate(-45) scale(0.1 -0.1)">
       <defs>
        <path id="DejaVuSans-33" d="M 2597 2516 
Q 3050 2419 3304 2112 
Q 3559 1806 3559 1356 
Q 3559 666 3084 287 
Q 2609 -91 1734 -91 
Q 1441 -91 1130 -33 
Q 819 25 488 141 
L 488 750 
Q 750 597 1062 519 
Q 1375 441 1716 441 
Q 2309 441 2620 675 
Q 2931 909 2931 1356 
Q 2931 1769 2642 2001 
Q 2353 2234 1838 2234 
L 1294 2234 
L 1294 2753 
L 1863 2753 
Q 2328 2753 2575 2939 
Q 2822 3125 2822 3475 
Q 2822 3834 2567 4026 
Q 2313 4219 1838 4219 
Q 1578 4219 1281 4162 
Q 984 4106 628 3988 
L 628 4550 
Q 988 4650 1302 4700 
Q 1616 4750 1894 4750 
Q 2613 4750 3031 4423 
Q 3450 4097 3450 3541 
Q 3450 3153 3228 2886 
Q 3006 2619 2597 2516 
z
" transform="scale(0.015625)"/>
       </defs>
       <use xlink:href="#DejaVuSans-32"/>
       <use xlink:href="#DejaVuSans-33" transform="translate(63.623047 0)"/>
      </g>
     </g>
    </g>
    <g id="xtick_25">
     <g id="line2d_25">
      <g>
       <use xlink:href="#maaaf5e34c9" x="461.354265" y="455.955539" style="stroke: #000000; stroke-width: 0.8"/>
      </g>
     </g>
    </g>
    <g id="xtick_26">
     <g id="line2d_26">
      <g>
       <use xlink:href="#maaaf5e34c9" x="477.922795" y="455.955539" style="stroke: #000000; stroke-width: 0.8"/>
      </g>
     </g>
     <g id="text_8">
      <!-- 25 -->
      <g transform="translate(475.375001 477.326379) rotate(-45) scale(0.1 -0.1)">
       <use xlink:href="#DejaVuSans-32"/>
       <use xlink:href="#DejaVuSans-35" transform="translate(63.623047 0)"/>
      </g>
     </g>
    </g>
    <g id="xtick_27">
     <g id="line2d_27">
      <g>
       <use xlink:href="#maaaf5e34c9" x="494.491325" y="455.955539" style="stroke: #000000; stroke-width: 0.8"/>
      </g>
     </g>
    </g>
    <g id="xtick_28">
     <g id="line2d_28">
      <g>
       <use xlink:href="#maaaf5e34c9" x="511.059855" y="455.955539" style="stroke: #000000; stroke-width: 0.8"/>
      </g>
     </g>
    </g>
    <g id="xtick_29">
     <g id="line2d_29">
      <g>
       <use xlink:href="#maaaf5e34c9" x="527.628385" y="455.955539" style="stroke: #000000; stroke-width: 0.8"/>
      </g>
     </g>
    </g>
    <g id="xtick_30">
     <g id="line2d_30">
      <g>
       <use xlink:href="#maaaf5e34c9" x="544.196915" y="455.955539" style="stroke: #000000; stroke-width: 0.8"/>
      </g>
     </g>
    </g>
    <g id="xtick_31">
     <g id="line2d_31">
      <g>
       <use xlink:href="#maaaf5e34c9" x="560.765445" y="455.955539" style="stroke: #000000; stroke-width: 0.8"/>
      </g>
     </g>
     <g id="text_9">
      <!-- 30 -->
      <g transform="translate(558.217651 477.326379) rotate(-45) scale(0.1 -0.1)">
       <use xlink:href="#DejaVuSans-33"/>
       <use xlink:href="#DejaVuSans-30" transform="translate(63.623047 0)"/>
      </g>
     </g>
    </g>
    <g id="xtick_32">
     <g id="line2d_32">
      <g>
       <use xlink:href="#maaaf5e34c9" x="577.333975" y="455.955539" style="stroke: #000000; stroke-width: 0.8"/>
      </g>
     </g>
    </g>
    <g id="xtick_33">
     <g id="line2d_33">
      <g>
       <use xlink:href="#maaaf5e34c9" x="593.902505" y="455.955539" style="stroke: #000000; stroke-width: 0.8"/>
      </g>
     </g>
    </g>
    <g id="xtick_34">
     <g id="line2d_34">
      <g>
       <use xlink:href="#maaaf5e34c9" x="610.471035" y="455.955539" style="stroke: #000000; stroke-width: 0.8"/>
      </g>
     </g>
    </g>
    <g id="xtick_35">
     <g id="line2d_35">
      <g>
       <use xlink:href="#maaaf5e34c9" x="627.039565" y="455.955539" style="stroke: #000000; stroke-width: 0.8"/>
      </g>
     </g>
    </g>
    <g id="xtick_36">
     <g id="line2d_36">
      <g>
       <use xlink:href="#maaaf5e34c9" x="643.608095" y="455.955539" style="stroke: #000000; stroke-width: 0.8"/>
      </g>
     </g>
     <g id="text_10">
      <!-- 35 -->
      <g transform="translate(641.060301 477.326379) rotate(-45) scale(0.1 -0.1)">
       <use xlink:href="#DejaVuSans-33"/>
       <use xlink:href="#DejaVuSans-35" transform="translate(63.623047 0)"/>
      </g>
     </g>
    </g>
    <g id="xtick_37">
     <g id="line2d_37">
      <g>
       <use xlink:href="#maaaf5e34c9" x="660.176625" y="455.955539" style="stroke: #000000; stroke-width: 0.8"/>
      </g>
     </g>
    </g>
    <g id="xtick_38">
     <g id="line2d_38">
      <g>
       <use xlink:href="#maaaf5e34c9" x="676.745155" y="455.955539" style="stroke: #000000; stroke-width: 0.8"/>
      </g>
     </g>
    </g>
    <g id="xtick_39">
     <g id="line2d_39">
      <g>
       <use xlink:href="#maaaf5e34c9" x="693.313685" y="455.955539" style="stroke: #000000; stroke-width: 0.8"/>
      </g>
     </g>
    </g>
    <g id="xtick_40">
     <g id="line2d_40">
      <g>
       <use xlink:href="#maaaf5e34c9" x="709.882215" y="455.955539" style="stroke: #000000; stroke-width: 0.8"/>
      </g>
     </g>
    </g>
    <g id="xtick_41">
     <g id="line2d_41">
      <g>
       <use xlink:href="#maaaf5e34c9" x="726.450745" y="455.955539" style="stroke: #000000; stroke-width: 0.8"/>
      </g>
     </g>
     <g id="text_11">
      <!-- 40 -->
      <g transform="translate(723.902951 477.326379) rotate(-45) scale(0.1 -0.1)">
       <defs>
        <path id="DejaVuSans-34" d="M 2419 4116 
L 825 1625 
L 2419 1625 
L 2419 4116 
z
M 2253 4666 
L 3047 4666 
L 3047 1625 
L 3713 1625 
L 3713 1100 
L 3047 1100 
L 3047 0 
L 2419 0 
L 2419 1100 
L 313 1100 
L 313 1709 
L 2253 4666 
z
" transform="scale(0.015625)"/>
       </defs>
       <use xlink:href="#DejaVuSans-34"/>
       <use xlink:href="#DejaVuSans-30" transform="translate(63.623047 0)"/>
      </g>
     </g>
    </g>
    <g id="xtick_42">
     <g id="line2d_42">
      <g>
       <use xlink:href="#maaaf5e34c9" x="743.019275" y="455.955539" style="stroke: #000000; stroke-width: 0.8"/>
      </g>
     </g>
    </g>
    <g id="xtick_43">
     <g id="line2d_43">
      <g>
       <use xlink:href="#maaaf5e34c9" x="759.587805" y="455.955539" style="stroke: #000000; stroke-width: 0.8"/>
      </g>
     </g>
    </g>
    <g id="xtick_44">
     <g id="line2d_44">
      <g>
       <use xlink:href="#maaaf5e34c9" x="776.156335" y="455.955539" style="stroke: #000000; stroke-width: 0.8"/>
      </g>
     </g>
    </g>
    <g id="xtick_45">
     <g id="line2d_45">
      <g>
       <use xlink:href="#maaaf5e34c9" x="792.724865" y="455.955539" style="stroke: #000000; stroke-width: 0.8"/>
      </g>
     </g>
    </g>
    <g id="xtick_46">
     <g id="line2d_46">
      <g>
       <use xlink:href="#maaaf5e34c9" x="809.293395" y="455.955539" style="stroke: #000000; stroke-width: 0.8"/>
      </g>
     </g>
     <g id="text_12">
      <!-- 45 -->
      <g transform="translate(806.745601 477.326379) rotate(-45) scale(0.1 -0.1)">
       <use xlink:href="#DejaVuSans-34"/>
       <use xlink:href="#DejaVuSans-35" transform="translate(63.623047 0)"/>
      </g>
     </g>
    </g>
    <g id="xtick_47">
     <g id="line2d_47">
      <g>
       <use xlink:href="#maaaf5e34c9" x="825.861925" y="455.955539" style="stroke: #000000; stroke-width: 0.8"/>
      </g>
     </g>
    </g>
    <g id="xtick_48">
     <g id="line2d_48">
      <g>
       <use xlink:href="#maaaf5e34c9" x="842.430455" y="455.955539" style="stroke: #000000; stroke-width: 0.8"/>
      </g>
     </g>
     <g id="text_13">
      <!-- 47 -->
      <g transform="translate(839.882661 477.326379) rotate(-45) scale(0.1 -0.1)">
       <defs>
        <path id="DejaVuSans-37" d="M 525 4666 
L 3525 4666 
L 3525 4397 
L 1831 0 
L 1172 0 
L 2766 4134 
L 525 4134 
L 525 4666 
z
" transform="scale(0.015625)"/>
       </defs>
       <use xlink:href="#DejaVuSans-34"/>
       <use xlink:href="#DejaVuSans-37" transform="translate(63.623047 0)"/>
      </g>
     </g>
    </g>
    <g id="text_14">
     <!-- Game Minute -->
     <g transform="translate(419.518438 490.395378) scale(0.1 -0.1)">
      <defs>
       <path id="DejaVuSans-47" d="M 3809 666 
L 3809 1919 
L 2778 1919 
L 2778 2438 
L 4434 2438 
L 4434 434 
Q 4069 175 3628 42 
Q 3188 -91 2688 -91 
Q 1594 -91 976 548 
Q 359 1188 359 2328 
Q 359 3472 976 4111 
Q 1594 4750 2688 4750 
Q 3144 4750 3555 4637 
Q 3966 4525 4313 4306 
L 4313 3634 
Q 3963 3931 3569 4081 
Q 3175 4231 2741 4231 
Q 1884 4231 1454 3753 
Q 1025 3275 1025 2328 
Q 1025 1384 1454 906 
Q 1884 428 2741 428 
Q 3075 428 3337 486 
Q 3600 544 3809 666 
z
" transform="scale(0.015625)"/>
       <path id="DejaVuSans-61" d="M 2194 1759 
Q 1497 1759 1228 1600 
Q 959 1441 959 1056 
Q 959 750 1161 570 
Q 1363 391 1709 391 
Q 2188 391 2477 730 
Q 2766 1069 2766 1631 
L 2766 1759 
L 2194 1759 
z
M 3341 1997 
L 3341 0 
L 2766 0 
L 2766 531 
Q 2569 213 2275 61 
Q 1981 -91 1556 -91 
Q 1019 -91 701 211 
Q 384 513 384 1019 
Q 384 1609 779 1909 
Q 1175 2209 1959 2209 
L 2766 2209 
L 2766 2266 
Q 2766 2663 2505 2880 
Q 2244 3097 1772 3097 
Q 1472 3097 1187 3025 
Q 903 2953 641 2809 
L 641 3341 
Q 956 3463 1253 3523 
Q 1550 3584 1831 3584 
Q 2591 3584 2966 3190 
Q 3341 2797 3341 1997 
z
" transform="scale(0.015625)"/>
       <path id="DejaVuSans-6d" d="M 3328 2828 
Q 3544 3216 3844 3400 
Q 4144 3584 4550 3584 
Q 5097 3584 5394 3201 
Q 5691 2819 5691 2113 
L 5691 0 
L 5113 0 
L 5113 2094 
Q 5113 2597 4934 2840 
Q 4756 3084 4391 3084 
Q 3944 3084 3684 2787 
Q 3425 2491 3425 1978 
L 3425 0 
L 2847 0 
L 2847 2094 
Q 2847 2600 2669 2842 
Q 2491 3084 2119 3084 
Q 1678 3084 1418 2786 
Q 1159 2488 1159 1978 
L 1159 0 
L 581 0 
L 581 3500 
L 1159 3500 
L 1159 2956 
Q 1356 3278 1631 3431 
Q 1906 3584 2284 3584 
Q 2666 3584 2933 3390 
Q 3200 3197 3328 2828 
z
" transform="scale(0.015625)"/>
       <path id="DejaVuSans-65" d="M 3597 1894 
L 3597 1613 
L 953 1613 
Q 991 1019 1311 708 
Q 1631 397 2203 397 
Q 2534 397 2845 478 
Q 3156 559 3463 722 
L 3463 178 
Q 3153 47 2828 -22 
Q 2503 -91 2169 -91 
Q 1331 -91 842 396 
Q 353 884 353 1716 
Q 353 2575 817 3079 
Q 1281 3584 2069 3584 
Q 2775 3584 3186 3129 
Q 3597 2675 3597 1894 
z
M 3022 2063 
Q 3016 2534 2758 2815 
Q 2500 3097 2075 3097 
Q 1594 3097 1305 2825 
Q 1016 2553 972 2059 
L 3022 2063 
z
" transform="scale(0.015625)"/>
       <path id="DejaVuSans-20" transform="scale(0.015625)"/>
       <path id="DejaVuSans-4d" d="M 628 4666 
L 1569 4666 
L 2759 1491 
L 3956 4666 
L 4897 4666 
L 4897 0 
L 4281 0 
L 4281 4097 
L 3078 897 
L 2444 897 
L 1241 4097 
L 1241 0 
L 628 0 
L 628 4666 
z
" transform="scale(0.015625)"/>
       <path id="DejaVuSans-69" d="M 603 3500 
L 1178 3500 
L 1178 0 
L 603 0 
L 603 3500 
z
M 603 4863 
L 1178 4863 
L 1178 4134 
L 603 4134 
L 603 4863 
z
" transform="scale(0.015625)"/>
       <path id="DejaVuSans-6e" d="M 3513 2113 
L 3513 0 
L 2938 0 
L 2938 2094 
Q 2938 2591 2744 2837 
Q 2550 3084 2163 3084 
Q 1697 3084 1428 2787 
Q 1159 2491 1159 1978 
L 1159 0 
L 581 0 
L 581 3500 
L 1159 3500 
L 1159 2956 
Q 1366 3272 1645 3428 
Q 1925 3584 2291 3584 
Q 2894 3584 3203 3211 
Q 3513 2838 3513 2113 
z
" transform="scale(0.015625)"/>
       <path id="DejaVuSans-75" d="M 544 1381 
L 544 3500 
L 1119 3500 
L 1119 1403 
Q 1119 906 1312 657 
Q 1506 409 1894 409 
Q 2359 409 2629 706 
Q 2900 1003 2900 1516 
L 2900 3500 
L 3475 3500 
L 3475 0 
L 2900 0 
L 2900 538 
Q 2691 219 2414 64 
Q 2138 -91 1772 -91 
Q 1169 -91 856 284 
Q 544 659 544 1381 
z
M 1991 3584 
L 1991 3584 
z
" transform="scale(0.015625)"/>
       <path id="DejaVuSans-74" d="M 1172 4494 
L 1172 3500 
L 2356 3500 
L 2356 3053 
L 1172 3053 
L 1172 1153 
Q 1172 725 1289 603 
Q 1406 481 1766 481 
L 2356 481 
L 2356 0 
L 1766 0 
Q 1100 0 847 248 
Q 594 497 594 1153 
L 594 3053 
L 172 3053 
L 172 3500 
L 594 3500 
L 594 4494 
L 1172 4494 
z
" transform="scale(0.015625)"/>
      </defs>
      <use xlink:href="#DejaVuSans-47"/>
      <use xlink:href="#DejaVuSans-61" transform="translate(77.490234 0)"/>
      <use xlink:href="#DejaVuSans-6d" transform="translate(138.769531 0)"/>
      <use xlink:href="#DejaVuSans-65" transform="translate(236.181641 0)"/>
      <use xlink:href="#DejaVuSans-20" transform="translate(297.705078 0)"/>
      <use xlink:href="#DejaVuSans-4d" transform="translate(329.492188 0)"/>
      <use xlink:href="#DejaVuSans-69" transform="translate(415.771484 0)"/>
      <use xlink:href="#DejaVuSans-6e" transform="translate(443.554688 0)"/>
      <use xlink:href="#DejaVuSans-75" transform="translate(506.933594 0)"/>
      <use xlink:href="#DejaVuSans-74" transform="translate(570.3125 0)"/>
      <use xlink:href="#DejaVuSans-65" transform="translate(609.521484 0)"/>
     </g>
    </g>
   </g>
   <g id="matplotlib.axis_2">
    <g id="ytick_1">
     <g id="line2d_49">
      <defs>
       <path id="m2d5952cb78" d="M 0 0 
L -3.5 0 
" style="stroke: #000000; stroke-width: 0.8"/>
      </defs>
      <g>
       <use xlink:href="#m2d5952cb78" x="52.94" y="436.452105" style="stroke: #000000; stroke-width: 0.8"/>
      </g>
     </g>
     <g id="text_15">
      <!-- 15 -->
      <g transform="translate(24.835313 440.251324) scale(0.1 -0.1)">
       <defs>
        <path id="DejaVuSans-2212" d="M 678 2272 
L 4684 2272 
L 4684 1741 
L 678 1741 
L 678 2272 
z
" transform="scale(0.015625)"/>
       </defs>
       <use xlink:href="#DejaVuSans-2212"/>
       <use xlink:href="#DejaVuSans-31" transform="translate(83.789062 0)"/>
       <use xlink:href="#DejaVuSans-35" transform="translate(147.412109 0)"/>
      </g>
     </g>
    </g>
    <g id="ytick_2">
     <g id="line2d_50">
      <g>
       <use xlink:href="#m2d5952cb78" x="52.94" y="377.350791" style="stroke: #000000; stroke-width: 0.8"/>
      </g>
     </g>
     <g id="text_16">
      <!-- 10 -->
      <g transform="translate(24.835313 381.15001) scale(0.1 -0.1)">
       <use xlink:href="#DejaVuSans-2212"/>
       <use xlink:href="#DejaVuSans-31" transform="translate(83.789062 0)"/>
       <use xlink:href="#DejaVuSans-30" transform="translate(147.412109 0)"/>
      </g>
     </g>
    </g>
    <g id="ytick_3">
     <g id="line2d_51">
      <g>
       <use xlink:href="#m2d5952cb78" x="52.94" y="318.249478" style="stroke: #000000; stroke-width: 0.8"/>
      </g>
     </g>
     <g id="text_17">
      <!-- 5 -->
      <g transform="translate(31.197813 322.048696) scale(0.1 -0.1)">
       <use xlink:href="#DejaVuSans-2212"/>
       <use xlink:href="#DejaVuSans-35" transform="translate(83.789062 0)"/>
      </g>
     </g>
    </g>
    <g id="ytick_4">
     <g id="line2d_52">
      <g>
       <use xlink:href="#m2d5952cb78" x="52.94" y="259.148164" style="stroke: #000000; stroke-width: 0.8"/>
      </g>
     </g>
     <g id="text_18">
      <!-- 0 -->
      <g transform="translate(39.5775 262.947382) scale(0.1 -0.1)">
       <use xlink:href="#DejaVuSans-30"/>
      </g>
     </g>
    </g>
    <g id="ytick_5">
     <g id="line2d_53">
      <g>
       <use xlink:href="#m2d5952cb78" x="52.94" y="200.04685" style="stroke: #000000; stroke-width: 0.8"/>
      </g>
     </g>
     <g id="text_19">
      <!-- 5 -->
      <g transform="translate(39.5775 203.846069) scale(0.1 -0.1)">
       <use xlink:href="#DejaVuSans-35"/>
      </g>
     </g>
    </g>
    <g id="ytick_6">
     <g id="line2d_54">
      <g>
       <use xlink:href="#m2d5952cb78" x="52.94" y="140.945536" style="stroke: #000000; stroke-width: 0.8"/>
      </g>
     </g>
     <g id="text_20">
      <!-- 10 -->
      <g transform="translate(33.215 144.744755) scale(0.1 -0.1)">
       <use xlink:href="#DejaVuSans-31"/>
       <use xlink:href="#DejaVuSans-30" transform="translate(63.623047 0)"/>
      </g>
     </g>
    </g>
    <g id="ytick_7">
     <g id="line2d_55">
      <g>
       <use xlink:href="#m2d5952cb78" x="52.94" y="81.844222" style="stroke: #000000; stroke-width: 0.8"/>
      </g>
     </g>
     <g id="text_21">
      <!-- 15 -->
      <g transform="translate(33.215 85.643441) scale(0.1 -0.1)">
       <use xlink:href="#DejaVuSans-31"/>
       <use xlink:href="#DejaVuSans-35" transform="translate(63.623047 0)"/>
      </g>
     </g>
    </g>
    <g id="text_22">
     <!-- Point Difference -->
     <g transform="translate(18.755625 281.267769) rotate(-90) scale(0.1 -0.1)">
      <defs>
       <path id="DejaVuSans-50" d="M 1259 4147 
L 1259 2394 
L 2053 2394 
Q 2494 2394 2734 2622 
Q 2975 2850 2975 3272 
Q 2975 3691 2734 3919 
Q 2494 4147 2053 4147 
L 1259 4147 
z
M 628 4666 
L 2053 4666 
Q 2838 4666 3239 4311 
Q 3641 3956 3641 3272 
Q 3641 2581 3239 2228 
Q 2838 1875 2053 1875 
L 1259 1875 
L 1259 0 
L 628 0 
L 628 4666 
z
" transform="scale(0.015625)"/>
       <path id="DejaVuSans-6f" d="M 1959 3097 
Q 1497 3097 1228 2736 
Q 959 2375 959 1747 
Q 959 1119 1226 758 
Q 1494 397 1959 397 
Q 2419 397 2687 759 
Q 2956 1122 2956 1747 
Q 2956 2369 2687 2733 
Q 2419 3097 1959 3097 
z
M 1959 3584 
Q 2709 3584 3137 3096 
Q 3566 2609 3566 1747 
Q 3566 888 3137 398 
Q 2709 -91 1959 -91 
Q 1206 -91 779 398 
Q 353 888 353 1747 
Q 353 2609 779 3096 
Q 1206 3584 1959 3584 
z
" transform="scale(0.015625)"/>
       <path id="DejaVuSans-44" d="M 1259 4147 
L 1259 519 
L 2022 519 
Q 2988 519 3436 956 
Q 3884 1394 3884 2338 
Q 3884 3275 3436 3711 
Q 2988 4147 2022 4147 
L 1259 4147 
z
M 628 4666 
L 1925 4666 
Q 3281 4666 3915 4102 
Q 4550 3538 4550 2338 
Q 4550 1131 3912 565 
Q 3275 0 1925 0 
L 628 0 
L 628 4666 
z
" transform="scale(0.015625)"/>
       <path id="DejaVuSans-66" d="M 2375 4863 
L 2375 4384 
L 1825 4384 
Q 1516 4384 1395 4259 
Q 1275 4134 1275 3809 
L 1275 3500 
L 2222 3500 
L 2222 3053 
L 1275 3053 
L 1275 0 
L 697 0 
L 697 3053 
L 147 3053 
L 147 3500 
L 697 3500 
L 697 3744 
Q 697 4328 969 4595 
Q 1241 4863 1831 4863 
L 2375 4863 
z
" transform="scale(0.015625)"/>
       <path id="DejaVuSans-72" d="M 2631 2963 
Q 2534 3019 2420 3045 
Q 2306 3072 2169 3072 
Q 1681 3072 1420 2755 
Q 1159 2438 1159 1844 
L 1159 0 
L 581 0 
L 581 3500 
L 1159 3500 
L 1159 2956 
Q 1341 3275 1631 3429 
Q 1922 3584 2338 3584 
Q 2397 3584 2469 3576 
Q 2541 3569 2628 3553 
L 2631 2963 
z
" transform="scale(0.015625)"/>
       <path id="DejaVuSans-63" d="M 3122 3366 
L 3122 2828 
Q 2878 2963 2633 3030 
Q 2388 3097 2138 3097 
Q 1578 3097 1268 2742 
Q 959 2388 959 1747 
Q 959 1106 1268 751 
Q 1578 397 2138 397 
Q 2388 397 2633 464 
Q 2878 531 3122 666 
L 3122 134 
Q 2881 22 2623 -34 
Q 2366 -91 2075 -91 
Q 1284 -91 818 406 
Q 353 903 353 1747 
Q 353 2603 823 3093 
Q 1294 3584 2113 3584 
Q 2378 3584 2631 3529 
Q 2884 3475 3122 3366 
z
" transform="scale(0.015625)"/>
      </defs>
      <use xlink:href="#DejaVuSans-50"/>
      <use xlink:href="#DejaVuSans-6f" transform="translate(56.677734 0)"/>
      <use xlink:href="#DejaVuSans-69" transform="translate(117.859375 0)"/>
      <use xlink:href="#DejaVuSans-6e" transform="translate(145.642578 0)"/>
      <use xlink:href="#DejaVuSans-74" transform="translate(209.021484 0)"/>
      <use xlink:href="#DejaVuSans-20" transform="translate(248.230469 0)"/>
      <use xlink:href="#DejaVuSans-44" transform="translate(280.017578 0)"/>
      <use xlink:href="#DejaVuSans-69" transform="translate(357.019531 0)"/>
      <use xlink:href="#DejaVuSans-66" transform="translate(384.802734 0)"/>
      <use xlink:href="#DejaVuSans-66" transform="translate(420.007812 0)"/>
      <use xlink:href="#DejaVuSans-65" transform="translate(455.212891 0)"/>
      <use xlink:href="#DejaVuSans-72" transform="translate(516.736328 0)"/>
      <use xlink:href="#DejaVuSans-65" transform="translate(555.599609 0)"/>
      <use xlink:href="#DejaVuSans-6e" transform="translate(617.123047 0)"/>
      <use xlink:href="#DejaVuSans-63" transform="translate(680.501953 0)"/>
      <use xlink:href="#DejaVuSans-65" transform="translate(735.482422 0)"/>
     </g>
    </g>
   </g>
   <g id="line2d_56">
    <path d="M 52.94 259.148164 
L 853.2 259.148164 
" clip-path="url(#p4f36774be6)" style="fill: none; stroke: #808080; stroke-width: 0.8; stroke-linecap: square"/>
   </g>
   <g id="patch_147">
    <path d="M 52.94 455.955539 
L 52.94 26.88 
" style="fill: none; stroke: #000000; stroke-width: 0.8; stroke-linejoin: miter; stroke-linecap: square"/>
   </g>
   <g id="patch_148">
    <path d="M 853.2 455.955539 
L 853.2 26.88 
" style="fill: none; stroke: #000000; stroke-width: 0.8; stroke-linejoin: miter; stroke-linecap: square"/>
   </g>
   <g id="patch_149">
    <path d="M 52.94 455.955539 
L 853.2 455.955539 
" style="fill: none; stroke: #000000; stroke-width: 0.8; stroke-linejoin: miter; stroke-linecap: square"/>
   </g>
   <g id="patch_150">
    <path d="M 52.94 26.88 
L 853.2 26.88 
" style="fill: none; stroke: #000000; stroke-width: 0.8; stroke-linejoin: miter; stroke-linecap: square"/>
   </g>
   <g id="text_23">
    <!-- Kentavious Caldwell-Pope Point Difference (24-25 vs 23-24) -->
    <g transform="translate(274.499687 20.88) scale(0.12 -0.12)">
     <defs>
      <path id="DejaVuSans-4b" d="M 628 4666 
L 1259 4666 
L 1259 2694 
L 3353 4666 
L 4166 4666 
L 1850 2491 
L 4331 0 
L 3500 0 
L 1259 2247 
L 1259 0 
L 628 0 
L 628 4666 
z
" transform="scale(0.015625)"/>
      <path id="DejaVuSans-76" d="M 191 3500 
L 800 3500 
L 1894 563 
L 2988 3500 
L 3597 3500 
L 2284 0 
L 1503 0 
L 191 3500 
z
" transform="scale(0.015625)"/>
      <path id="DejaVuSans-73" d="M 2834 3397 
L 2834 2853 
Q 2591 2978 2328 3040 
Q 2066 3103 1784 3103 
Q 1356 3103 1142 2972 
Q 928 2841 928 2578 
Q 928 2378 1081 2264 
Q 1234 2150 1697 2047 
L 1894 2003 
Q 2506 1872 2764 1633 
Q 3022 1394 3022 966 
Q 3022 478 2636 193 
Q 2250 -91 1575 -91 
Q 1294 -91 989 -36 
Q 684 19 347 128 
L 347 722 
Q 666 556 975 473 
Q 1284 391 1588 391 
Q 1994 391 2212 530 
Q 2431 669 2431 922 
Q 2431 1156 2273 1281 
Q 2116 1406 1581 1522 
L 1381 1569 
Q 847 1681 609 1914 
Q 372 2147 372 2553 
Q 372 3047 722 3315 
Q 1072 3584 1716 3584 
Q 2034 3584 2315 3537 
Q 2597 3491 2834 3397 
z
" transform="scale(0.015625)"/>
      <path id="DejaVuSans-43" d="M 4122 4306 
L 4122 3641 
Q 3803 3938 3442 4084 
Q 3081 4231 2675 4231 
Q 1875 4231 1450 3742 
Q 1025 3253 1025 2328 
Q 1025 1406 1450 917 
Q 1875 428 2675 428 
Q 3081 428 3442 575 
Q 3803 722 4122 1019 
L 4122 359 
Q 3791 134 3420 21 
Q 3050 -91 2638 -91 
Q 1578 -91 968 557 
Q 359 1206 359 2328 
Q 359 3453 968 4101 
Q 1578 4750 2638 4750 
Q 3056 4750 3426 4639 
Q 3797 4528 4122 4306 
z
" transform="scale(0.015625)"/>
      <path id="DejaVuSans-6c" d="M 603 4863 
L 1178 4863 
L 1178 0 
L 603 0 
L 603 4863 
z
" transform="scale(0.015625)"/>
      <path id="DejaVuSans-64" d="M 2906 2969 
L 2906 4863 
L 3481 4863 
L 3481 0 
L 2906 0 
L 2906 525 
Q 2725 213 2448 61 
Q 2172 -91 1784 -91 
Q 1150 -91 751 415 
Q 353 922 353 1747 
Q 353 2572 751 3078 
Q 1150 3584 1784 3584 
Q 2172 3584 2448 3432 
Q 2725 3281 2906 2969 
z
M 947 1747 
Q 947 1113 1208 752 
Q 1469 391 1925 391 
Q 2381 391 2643 752 
Q 2906 1113 2906 1747 
Q 2906 2381 2643 2742 
Q 2381 3103 1925 3103 
Q 1469 3103 1208 2742 
Q 947 2381 947 1747 
z
" transform="scale(0.015625)"/>
      <path id="DejaVuSans-77" d="M 269 3500 
L 844 3500 
L 1563 769 
L 2278 3500 
L 2956 3500 
L 3675 769 
L 4391 3500 
L 4966 3500 
L 4050 0 
L 3372 0 
L 2619 2869 
L 1863 0 
L 1184 0 
L 269 3500 
z
" transform="scale(0.015625)"/>
      <path id="DejaVuSans-2d" d="M 313 2009 
L 1997 2009 
L 1997 1497 
L 313 1497 
L 313 2009 
z
" transform="scale(0.015625)"/>
      <path id="DejaVuSans-70" d="M 1159 525 
L 1159 -1331 
L 581 -1331 
L 581 3500 
L 1159 3500 
L 1159 2969 
Q 1341 3281 1617 3432 
Q 1894 3584 2278 3584 
Q 2916 3584 3314 3078 
Q 3713 2572 3713 1747 
Q 3713 922 3314 415 
Q 2916 -91 2278 -91 
Q 1894 -91 1617 61 
Q 1341 213 1159 525 
z
M 3116 1747 
Q 3116 2381 2855 2742 
Q 2594 3103 2138 3103 
Q 1681 3103 1420 2742 
Q 1159 2381 1159 1747 
Q 1159 1113 1420 752 
Q 1681 391 2138 391 
Q 2594 391 2855 752 
Q 3116 1113 3116 1747 
z
" transform="scale(0.015625)"/>
      <path id="DejaVuSans-28" d="M 1984 4856 
Q 1566 4138 1362 3434 
Q 1159 2731 1159 2009 
Q 1159 1288 1364 580 
Q 1569 -128 1984 -844 
L 1484 -844 
Q 1016 -109 783 600 
Q 550 1309 550 2009 
Q 550 2706 781 3412 
Q 1013 4119 1484 4856 
L 1984 4856 
z
" transform="scale(0.015625)"/>
      <path id="DejaVuSans-29" d="M 513 4856 
L 1013 4856 
Q 1481 4119 1714 3412 
Q 1947 2706 1947 2009 
Q 1947 1309 1714 600 
Q 1481 -109 1013 -844 
L 513 -844 
Q 928 -128 1133 580 
Q 1338 1288 1338 2009 
Q 1338 2731 1133 3434 
Q 928 4138 513 4856 
z
" transform="scale(0.015625)"/>
     </defs>
     <use xlink:href="#DejaVuSans-4b"/>
     <use xlink:href="#DejaVuSans-65" transform="translate(60.576172 0)"/>
     <use xlink:href="#DejaVuSans-6e" transform="translate(122.099609 0)"/>
     <use xlink:href="#DejaVuSans-74" transform="translate(185.478516 0)"/>
     <use xlink:href="#DejaVuSans-61" transform="translate(224.6875 0)"/>
     <use xlink:href="#DejaVuSans-76" transform="translate(285.966797 0)"/>
     <use xlink:href="#DejaVuSans-69" transform="translate(345.146484 0)"/>
     <use xlink:href="#DejaVuSans-6f" transform="translate(372.929688 0)"/>
     <use xlink:href="#DejaVuSans-75" transform="translate(434.111328 0)"/>
     <use xlink:href="#DejaVuSans-73" transform="translate(497.490234 0)"/>
     <use xlink:href="#DejaVuSans-20" transform="translate(549.589844 0)"/>
     <use xlink:href="#DejaVuSans-43" transform="translate(581.376953 0)"/>
     <use xlink:href="#DejaVuSans-61" transform="translate(651.201172 0)"/>
     <use xlink:href="#DejaVuSans-6c" transform="translate(712.480469 0)"/>
     <use xlink:href="#DejaVuSans-64" transform="translate(740.263672 0)"/>
     <use xlink:href="#DejaVuSans-77" transform="translate(803.740234 0)"/>
     <use xlink:href="#DejaVuSans-65" transform="translate(885.527344 0)"/>
     <use xlink:href="#DejaVuSans-6c" transform="translate(947.050781 0)"/>
     <use xlink:href="#DejaVuSans-6c" transform="translate(974.833984 0)"/>
     <use xlink:href="#DejaVuSans-2d" transform="translate(1002.617188 0)"/>
     <use xlink:href="#DejaVuSans-50" transform="translate(1038.701172 0)"/>
     <use xlink:href="#DejaVuSans-6f" transform="translate(1095.378906 0)"/>
     <use xlink:href="#DejaVuSans-70" transform="translate(1156.560547 0)"/>
     <use xlink:href="#DejaVuSans-65" transform="translate(1220.037109 0)"/>
     <use xlink:href="#DejaVuSans-20" transform="translate(1281.560547 0)"/>
     <use xlink:href="#DejaVuSans-50" transform="translate(1313.347656 0)"/>
     <use xlink:href="#DejaVuSans-6f" transform="translate(1370.025391 0)"/>
     <use xlink:href="#DejaVuSans-69" transform="translate(1431.207031 0)"/>
     <use xlink:href="#DejaVuSans-6e" transform="translate(1458.990234 0)"/>
     <use xlink:href="#DejaVuSans-74" transform="translate(1522.369141 0)"/>
     <use xlink:href="#DejaVuSans-20" transform="translate(1561.578125 0)"/>
     <use xlink:href="#DejaVuSans-44" transform="translate(1593.365234 0)"/>
     <use xlink:href="#DejaVuSans-69" transform="translate(1670.367188 0)"/>
     <use xlink:href="#DejaVuSans-66" transform="translate(1698.150391 0)"/>
     <use xlink:href="#DejaVuSans-66" transform="translate(1733.355469 0)"/>
     <use xlink:href="#DejaVuSans-65" transform="translate(1768.560547 0)"/>
     <use xlink:href="#DejaVuSans-72" transform="translate(1830.083984 0)"/>
     <use xlink:href="#DejaVuSans-65" transform="translate(1868.947266 0)"/>
     <use xlink:href="#DejaVuSans-6e" transform="translate(1930.470703 0)"/>
     <use xlink:href="#DejaVuSans-63" transform="translate(1993.849609 0)"/>
     <use xlink:href="#DejaVuSans-65" transform="translate(2048.830078 0)"/>
     <use xlink:href="#DejaVuSans-20" transform="translate(2110.353516 0)"/>
     <use xlink:href="#DejaVuSans-28" transform="translate(2142.140625 0)"/>
     <use xlink:href="#DejaVuSans-32" transform="translate(2181.154297 0)"/>
     <use xlink:href="#DejaVuSans-34" transform="translate(2244.777344 0)"/>
     <use xlink:href="#DejaVuSans-2d" transform="translate(2308.400391 0)"/>
     <use xlink:href="#DejaVuSans-32" transform="translate(2344.484375 0)"/>
     <use xlink:href="#DejaVuSans-35" transform="translate(2408.107422 0)"/>
     <use xlink:href="#DejaVuSans-20" transform="translate(2471.730469 0)"/>
     <use xlink:href="#DejaVuSans-76" transform="translate(2503.517578 0)"/>
     <use xlink:href="#DejaVuSans-73" transform="translate(2562.697266 0)"/>
     <use xlink:href="#DejaVuSans-20" transform="translate(2614.796875 0)"/>
     <use xlink:href="#DejaVuSans-32" transform="translate(2646.583984 0)"/>
     <use xlink:href="#DejaVuSans-33" transform="translate(2710.207031 0)"/>
     <use xlink:href="#DejaVuSans-2d" transform="translate(2773.830078 0)"/>
     <use xlink:href="#DejaVuSans-32" transform="translate(2809.914062 0)"/>
     <use xlink:href="#DejaVuSans-34" transform="translate(2873.537109 0)"/>
     <use xlink:href="#DejaVuSans-29" transform="translate(2937.160156 0)"/>
    </g>
   </g>
   <g id="legend_1">
    <g id="patch_151">
     <path d="M 793.33125 93.5925 
L 846.2 93.5925 
Q 848.2 93.5925 848.2 91.5925 
L 848.2 33.88 
Q 848.2 31.88 846.2 31.88 
L 793.33125 31.88 
Q 791.33125 31.88 791.33125 33.88 
L 791.33125 91.5925 
Q 791.33125 93.5925 793.33125 93.5925 
z
" style="fill: #ffffff; opacity: 0.8; stroke: #cccccc; stroke-linejoin: miter"/>
    </g>
    <g id="text_24">
     <!-- Shot Type -->
     <g transform="translate(795.33125 43.478437) scale(0.1 -0.1)">
      <defs>
       <path id="DejaVuSans-53" d="M 3425 4513 
L 3425 3897 
Q 3066 4069 2747 4153 
Q 2428 4238 2131 4238 
Q 1616 4238 1336 4038 
Q 1056 3838 1056 3469 
Q 1056 3159 1242 3001 
Q 1428 2844 1947 2747 
L 2328 2669 
Q 3034 2534 3370 2195 
Q 3706 1856 3706 1288 
Q 3706 609 3251 259 
Q 2797 -91 1919 -91 
Q 1588 -91 1214 -16 
Q 841 59 441 206 
L 441 856 
Q 825 641 1194 531 
Q 1563 422 1919 422 
Q 2459 422 2753 634 
Q 3047 847 3047 1241 
Q 3047 1584 2836 1778 
Q 2625 1972 2144 2069 
L 1759 2144 
Q 1053 2284 737 2584 
Q 422 2884 422 3419 
Q 422 4038 858 4394 
Q 1294 4750 2059 4750 
Q 2388 4750 2728 4690 
Q 3069 4631 3425 4513 
z
" transform="scale(0.015625)"/>
       <path id="DejaVuSans-68" d="M 3513 2113 
L 3513 0 
L 2938 0 
L 2938 2094 
Q 2938 2591 2744 2837 
Q 2550 3084 2163 3084 
Q 1697 3084 1428 2787 
Q 1159 2491 1159 1978 
L 1159 0 
L 581 0 
L 581 4863 
L 1159 4863 
L 1159 2956 
Q 1366 3272 1645 3428 
Q 1925 3584 2291 3584 
Q 2894 3584 3203 3211 
Q 3513 2838 3513 2113 
z
" transform="scale(0.015625)"/>
       <path id="DejaVuSans-54" d="M -19 4666 
L 3928 4666 
L 3928 4134 
L 2272 4134 
L 2272 0 
L 1638 0 
L 1638 4134 
L -19 4134 
L -19 4666 
z
" transform="scale(0.015625)"/>
       <path id="DejaVuSans-79" d="M 2059 -325 
Q 1816 -950 1584 -1140 
Q 1353 -1331 966 -1331 
L 506 -1331 
L 506 -850 
L 844 -850 
Q 1081 -850 1212 -737 
Q 1344 -625 1503 -206 
L 1606 56 
L 191 3500 
L 800 3500 
L 1894 763 
L 2988 3500 
L 3597 3500 
L 2059 -325 
z
" transform="scale(0.015625)"/>
      </defs>
      <use xlink:href="#DejaVuSans-53"/>
      <use xlink:href="#DejaVuSans-68" transform="translate(63.476562 0)"/>
      <use xlink:href="#DejaVuSans-6f" transform="translate(126.855469 0)"/>
      <use xlink:href="#DejaVuSans-74" transform="translate(188.037109 0)"/>
      <use xlink:href="#DejaVuSans-20" transform="translate(227.246094 0)"/>
      <use xlink:href="#DejaVuSans-54" transform="translate(259.033203 0)"/>
      <use xlink:href="#DejaVuSans-79" transform="translate(304.492188 0)"/>
      <use xlink:href="#DejaVuSans-70" transform="translate(363.671875 0)"/>
      <use xlink:href="#DejaVuSans-65" transform="translate(427.148438 0)"/>
     </g>
    </g>
    <g id="patch_152">
     <path d="M 796.515625 58.156563 
L 816.515625 58.156563 
L 816.515625 51.156563 
L 796.515625 51.156563 
z
" style="fill: #ffc107"/>
    </g>
    <g id="text_25">
     <!-- FT -->
     <g transform="translate(824.515625 58.156563) scale(0.1 -0.1)">
      <defs>
       <path id="DejaVuSans-46" d="M 628 4666 
L 3309 4666 
L 3309 4134 
L 1259 4134 
L 1259 2759 
L 3109 2759 
L 3109 2228 
L 1259 2228 
L 1259 0 
L 628 0 
L 628 4666 
z
" transform="scale(0.015625)"/>
      </defs>
      <use xlink:href="#DejaVuSans-46"/>
      <use xlink:href="#DejaVuSans-54" transform="translate(55.769531 0)"/>
     </g>
    </g>
    <g id="patch_153">
     <path d="M 796.515625 72.834688 
L 816.515625 72.834688 
L 816.515625 65.834688 
L 796.515625 65.834688 
z
" style="fill: #2196f3"/>
    </g>
    <g id="text_26">
     <!-- 2PT -->
     <g transform="translate(824.515625 72.834688) scale(0.1 -0.1)">
      <use xlink:href="#DejaVuSans-32"/>
      <use xlink:href="#DejaVuSans-50" transform="translate(63.623047 0)"/>
      <use xlink:href="#DejaVuSans-54" transform="translate(123.925781 0)"/>
     </g>
    </g>
    <g id="patch_154">
     <path d="M 796.515625 87.512812 
L 816.515625 87.512812 
L 816.515625 80.512812 
L 796.515625 80.512812 
z
" style="fill: #4caf50"/>
    </g>
    <g id="text_27">
     <!-- 3PT -->
     <g transform="translate(824.515625 87.512812) scale(0.1 -0.1)">
      <use xlink:href="#DejaVuSans-33"/>
      <use xlink:href="#DejaVuSans-50" transform="translate(63.623047 0)"/>
      <use xlink:href="#DejaVuSans-54" transform="translate(123.925781 0)"/>
     </g>
    </g>
   </g>
  </g>
 </g>
 <defs>
  <clipPath id="p4f36774be6">
   <rect x="52.94" y="26.88" width="800.26" height="429.075539"/>
  </clipPath>
 </defs>
</svg>
