<?xml version="1.0" encoding="utf-8" standalone="no"?>
<!DOCTYPE svg PUBLIC "-//W3C//DTD SVG 1.1//EN"
  "http://www.w3.org/Graphics/SVG/1.1/DTD/svg11.dtd">
<svg xmlns:xlink="http://www.w3.org/1999/xlink" width="864pt" height="504pt" viewBox="0 0 864 504" xmlns="http://www.w3.org/2000/svg" version="1.1">
 <metadata>
  <rdf:RDF xmlns:dc="http://purl.org/dc/elements/1.1/" xmlns:cc="http://creativecommons.org/ns#" xmlns:rdf="http://www.w3.org/1999/02/22-rdf-syntax-ns#">
   <cc:Work>
    <dc:type rdf:resource="http://purl.org/dc/dcmitype/StillImage"/>
    <dc:date>2025-08-24T04:36:27.887215</dc:date>
    <dc:format>image/svg+xml</dc:format>
    <dc:creator>
     <cc:Agent>
      <dc:title>Matplotlib v3.10.5, https://matplotlib.org/</dc:title>
     </cc:Agent>
    </dc:creator>
   </cc:Work>
  </rdf:RDF>
 </metadata>
 <defs>
  <style type="text/css">*{stroke-linejoin: round; stroke-linecap: butt}</style>
 </defs>
 <g id="figure_1">
  <g id="patch_1">
   <path d="M 0 504 
L 864 504 
L 864 0 
L 0 0 
z
" style="fill: #ffffff"/>
  </g>
  <g id="axes_1">
   <g id="patch_2">
    <path d="M 56 455.955539 
L 853.2 455.955539 
L 853.2 26.88 
L 56 26.88 
z
" style="fill: #ffffff"/>
   </g>
   <g id="patch_3">
    <path d="M 60.126294 319.431504 
L 64.527674 319.431504 
L 64.527674 319.431504 
L 60.126294 319.431504 
z
" clip-path="url(#p12bdc6cae3)" style="fill: #ffc107"/>
   </g>
   <g id="patch_4">
    <path d="M 76.63147 319.431504 
L 81.03285 319.431504 
L 81.03285 319.431504 
L 76.63147 319.431504 
z
" clip-path="url(#p12bdc6cae3)" style="fill: #ffc107"/>
   </g>
   <g id="patch_5">
    <path d="M 93.136646 319.431504 
L 97.538026 319.431504 
L 97.538026 280.424637 
L 93.136646 280.424637 
z
" clip-path="url(#p12bdc6cae3)" style="fill: #ffc107"/>
   </g>
   <g id="patch_6">
    <path d="M 109.641822 319.431504 
L 114.043202 319.431504 
L 114.043202 319.431504 
L 109.641822 319.431504 
z
" clip-path="url(#p12bdc6cae3)" style="fill: #ffc107"/>
   </g>
   <g id="patch_7">
    <path d="M 126.146998 319.431504 
L 130.548378 319.431504 
L 130.548378 319.431504 
L 126.146998 319.431504 
z
" clip-path="url(#p12bdc6cae3)" style="fill: #ffc107"/>
   </g>
   <g id="patch_8">
    <path d="M 142.652174 319.431504 
L 147.053554 319.431504 
L 147.053554 319.431504 
L 142.652174 319.431504 
z
" clip-path="url(#p12bdc6cae3)" style="fill: #ffc107"/>
   </g>
   <g id="patch_9">
    <path d="M 159.15735 319.431504 
L 163.55873 319.431504 
L 163.55873 319.431504 
L 159.15735 319.431504 
z
" clip-path="url(#p12bdc6cae3)" style="fill: #ffc107"/>
   </g>
   <g id="patch_10">
    <path d="M 175.662526 319.431504 
L 180.063906 319.431504 
L 180.063906 319.431504 
L 175.662526 319.431504 
z
" clip-path="url(#p12bdc6cae3)" style="fill: #ffc107"/>
   </g>
   <g id="patch_11">
    <path d="M 192.167702 319.431504 
L 196.569082 319.431504 
L 196.569082 280.424637 
L 192.167702 280.424637 
z
" clip-path="url(#p12bdc6cae3)" style="fill: #ffc107"/>
   </g>
   <g id="patch_12">
    <path d="M 208.672878 319.431504 
L 213.074258 319.431504 
L 213.074258 319.431504 
L 208.672878 319.431504 
z
" clip-path="url(#p12bdc6cae3)" style="fill: #ffc107"/>
   </g>
   <g id="patch_13">
    <path d="M 225.178054 319.431504 
L 229.579434 319.431504 
L 229.579434 280.424637 
L 225.178054 280.424637 
z
" clip-path="url(#p12bdc6cae3)" style="fill: #ffc107"/>
   </g>
   <g id="patch_14">
    <path d="M 241.68323 319.431504 
L 246.08461 319.431504 
L 246.08461 260.921203 
L 241.68323 260.921203 
z
" clip-path="url(#p12bdc6cae3)" style="fill: #ffc107"/>
   </g>
   <g id="patch_15">
    <path d="M 258.188406 319.431504 
L 262.589786 319.431504 
L 262.589786 260.921203 
L 258.188406 260.921203 
z
" clip-path="url(#p12bdc6cae3)" style="fill: #ffc107"/>
   </g>
   <g id="patch_16">
    <path d="M 274.693582 319.431504 
L 279.094962 319.431504 
L 279.094962 319.431504 
L 274.693582 319.431504 
z
" clip-path="url(#p12bdc6cae3)" style="fill: #ffc107"/>
   </g>
   <g id="patch_17">
    <path d="M 291.198758 319.431504 
L 295.600138 319.431504 
L 295.600138 241.417769 
L 291.198758 241.417769 
z
" clip-path="url(#p12bdc6cae3)" style="fill: #ffc107"/>
   </g>
   <g id="patch_18">
    <path d="M 307.703934 319.431504 
L 312.105314 319.431504 
L 312.105314 280.424637 
L 307.703934 280.424637 
z
" clip-path="url(#p12bdc6cae3)" style="fill: #ffc107"/>
   </g>
   <g id="patch_19">
    <path d="M 324.20911 319.431504 
L 328.61049 319.431504 
L 328.61049 319.431504 
L 324.20911 319.431504 
z
" clip-path="url(#p12bdc6cae3)" style="fill: #ffc107"/>
   </g>
   <g id="patch_20">
    <path d="M 340.714286 319.431504 
L 345.115666 319.431504 
L 345.115666 319.431504 
L 340.714286 319.431504 
z
" clip-path="url(#p12bdc6cae3)" style="fill: #ffc107"/>
   </g>
   <g id="patch_21">
    <path d="M 357.219462 319.431504 
L 361.620842 319.431504 
L 361.620842 280.424637 
L 357.219462 280.424637 
z
" clip-path="url(#p12bdc6cae3)" style="fill: #ffc107"/>
   </g>
   <g id="patch_22">
    <path d="M 373.724638 319.431504 
L 378.126018 319.431504 
L 378.126018 299.92807 
L 373.724638 299.92807 
z
" clip-path="url(#p12bdc6cae3)" style="fill: #ffc107"/>
   </g>
   <g id="patch_23">
    <path d="M 390.229814 319.431504 
L 394.631194 319.431504 
L 394.631194 319.431504 
L 390.229814 319.431504 
z
" clip-path="url(#p12bdc6cae3)" style="fill: #ffc107"/>
   </g>
   <g id="patch_24">
    <path d="M 406.73499 319.431504 
L 411.13637 319.431504 
L 411.13637 319.431504 
L 406.73499 319.431504 
z
" clip-path="url(#p12bdc6cae3)" style="fill: #ffc107"/>
   </g>
   <g id="patch_25">
    <path d="M 423.240166 319.431504 
L 427.641546 319.431504 
L 427.641546 319.431504 
L 423.240166 319.431504 
z
" clip-path="url(#p12bdc6cae3)" style="fill: #ffc107"/>
   </g>
   <g id="patch_26">
    <path d="M 439.745342 319.431504 
L 444.146722 319.431504 
L 444.146722 280.424637 
L 439.745342 280.424637 
z
" clip-path="url(#p12bdc6cae3)" style="fill: #ffc107"/>
   </g>
   <g id="patch_27">
    <path d="M 456.250518 319.431504 
L 460.651898 319.431504 
L 460.651898 319.431504 
L 456.250518 319.431504 
z
" clip-path="url(#p12bdc6cae3)" style="fill: #ffc107"/>
   </g>
   <g id="patch_28">
    <path d="M 472.755694 319.431504 
L 477.157074 319.431504 
L 477.157074 319.431504 
L 472.755694 319.431504 
z
" clip-path="url(#p12bdc6cae3)" style="fill: #ffc107"/>
   </g>
   <g id="patch_29">
    <path d="M 489.26087 319.431504 
L 493.66225 319.431504 
L 493.66225 319.431504 
L 489.26087 319.431504 
z
" clip-path="url(#p12bdc6cae3)" style="fill: #ffc107"/>
   </g>
   <g id="patch_30">
    <path d="M 505.766046 319.431504 
L 510.167426 319.431504 
L 510.167426 319.431504 
L 505.766046 319.431504 
z
" clip-path="url(#p12bdc6cae3)" style="fill: #ffc107"/>
   </g>
   <g id="patch_31">
    <path d="M 522.271222 319.431504 
L 526.672602 319.431504 
L 526.672602 319.431504 
L 522.271222 319.431504 
z
" clip-path="url(#p12bdc6cae3)" style="fill: #ffc107"/>
   </g>
   <g id="patch_32">
    <path d="M 538.776398 319.431504 
L 543.177778 319.431504 
L 543.177778 280.424637 
L 538.776398 280.424637 
z
" clip-path="url(#p12bdc6cae3)" style="fill: #ffc107"/>
   </g>
   <g id="patch_33">
    <path d="M 555.281573 319.431504 
L 559.682954 319.431504 
L 559.682954 319.431504 
L 555.281573 319.431504 
z
" clip-path="url(#p12bdc6cae3)" style="fill: #ffc107"/>
   </g>
   <g id="patch_34">
    <path d="M 571.786749 319.431504 
L 576.18813 319.431504 
L 576.18813 319.431504 
L 571.786749 319.431504 
z
" clip-path="url(#p12bdc6cae3)" style="fill: #ffc107"/>
   </g>
   <g id="patch_35">
    <path d="M 588.291925 319.431504 
L 592.693306 319.431504 
L 592.693306 338.934937 
L 588.291925 338.934937 
z
" clip-path="url(#p12bdc6cae3)" style="fill: #ffc107"/>
   </g>
   <g id="patch_36">
    <path d="M 604.797101 319.431504 
L 609.198482 319.431504 
L 609.198482 319.431504 
L 604.797101 319.431504 
z
" clip-path="url(#p12bdc6cae3)" style="fill: #ffc107"/>
   </g>
   <g id="patch_37">
    <path d="M 621.302277 319.431504 
L 625.703658 319.431504 
L 625.703658 319.431504 
L 621.302277 319.431504 
z
" clip-path="url(#p12bdc6cae3)" style="fill: #ffc107"/>
   </g>
   <g id="patch_38">
    <path d="M 637.807453 319.431504 
L 642.208834 319.431504 
L 642.208834 319.431504 
L 637.807453 319.431504 
z
" clip-path="url(#p12bdc6cae3)" style="fill: #ffc107"/>
   </g>
   <g id="patch_39">
    <path d="M 654.312629 319.431504 
L 658.71401 319.431504 
L 658.71401 299.92807 
L 654.312629 299.92807 
z
" clip-path="url(#p12bdc6cae3)" style="fill: #ffc107"/>
   </g>
   <g id="patch_40">
    <path d="M 670.817805 319.431504 
L 675.219186 319.431504 
L 675.219186 319.431504 
L 670.817805 319.431504 
z
" clip-path="url(#p12bdc6cae3)" style="fill: #ffc107"/>
   </g>
   <g id="patch_41">
    <path d="M 687.322981 319.431504 
L 691.724362 319.431504 
L 691.724362 319.431504 
L 687.322981 319.431504 
z
" clip-path="url(#p12bdc6cae3)" style="fill: #ffc107"/>
   </g>
   <g id="patch_42">
    <path d="M 703.828157 319.431504 
L 708.229538 319.431504 
L 708.229538 280.424637 
L 703.828157 280.424637 
z
" clip-path="url(#p12bdc6cae3)" style="fill: #ffc107"/>
   </g>
   <g id="patch_43">
    <path d="M 720.333333 319.431504 
L 724.734714 319.431504 
L 724.734714 319.431504 
L 720.333333 319.431504 
z
" clip-path="url(#p12bdc6cae3)" style="fill: #ffc107"/>
   </g>
   <g id="patch_44">
    <path d="M 736.838509 319.431504 
L 741.23989 319.431504 
L 741.23989 319.431504 
L 736.838509 319.431504 
z
" clip-path="url(#p12bdc6cae3)" style="fill: #ffc107"/>
   </g>
   <g id="patch_45">
    <path d="M 753.343685 319.431504 
L 757.745066 319.431504 
L 757.745066 260.921203 
L 753.343685 260.921203 
z
" clip-path="url(#p12bdc6cae3)" style="fill: #ffc107"/>
   </g>
   <g id="patch_46">
    <path d="M 769.848861 319.431504 
L 774.250242 319.431504 
L 774.250242 338.934937 
L 769.848861 338.934937 
z
" clip-path="url(#p12bdc6cae3)" style="fill: #ffc107"/>
   </g>
   <g id="patch_47">
    <path d="M 786.354037 319.431504 
L 790.755418 319.431504 
L 790.755418 299.92807 
L 786.354037 299.92807 
z
" clip-path="url(#p12bdc6cae3)" style="fill: #ffc107"/>
   </g>
   <g id="patch_48">
    <path d="M 802.859213 319.431504 
L 807.260594 319.431504 
L 807.260594 241.417769 
L 802.859213 241.417769 
z
" clip-path="url(#p12bdc6cae3)" style="fill: #ffc107"/>
   </g>
   <g id="patch_49">
    <path d="M 819.364389 319.431504 
L 823.765769 319.431504 
L 823.765769 221.914336 
L 819.364389 221.914336 
z
" clip-path="url(#p12bdc6cae3)" style="fill: #ffc107"/>
   </g>
   <g id="patch_50">
    <path d="M 835.869565 319.431504 
L 840.270945 319.431504 
L 840.270945 280.424637 
L 835.869565 280.424637 
z
" clip-path="url(#p12bdc6cae3)" style="fill: #ffc107"/>
   </g>
   <g id="patch_51">
    <path d="M 64.527674 319.431504 
L 68.929055 319.431504 
L 68.929055 280.424637 
L 64.527674 280.424637 
z
" clip-path="url(#p12bdc6cae3)" style="fill: #2196f3"/>
   </g>
   <g id="patch_52">
    <path d="M 81.03285 319.431504 
L 85.434231 319.431504 
L 85.434231 319.431504 
L 81.03285 319.431504 
z
" clip-path="url(#p12bdc6cae3)" style="fill: #2196f3"/>
   </g>
   <g id="patch_53">
    <path d="M 97.538026 319.431504 
L 101.939406 319.431504 
L 101.939406 280.424637 
L 97.538026 280.424637 
z
" clip-path="url(#p12bdc6cae3)" style="fill: #2196f3"/>
   </g>
   <g id="patch_54">
    <path d="M 114.043202 319.431504 
L 118.444582 319.431504 
L 118.444582 319.431504 
L 114.043202 319.431504 
z
" clip-path="url(#p12bdc6cae3)" style="fill: #2196f3"/>
   </g>
   <g id="patch_55">
    <path d="M 130.548378 319.431504 
L 134.949758 319.431504 
L 134.949758 319.431504 
L 130.548378 319.431504 
z
" clip-path="url(#p12bdc6cae3)" style="fill: #2196f3"/>
   </g>
   <g id="patch_56">
    <path d="M 147.053554 319.431504 
L 151.454934 319.431504 
L 151.454934 319.431504 
L 147.053554 319.431504 
z
" clip-path="url(#p12bdc6cae3)" style="fill: #2196f3"/>
   </g>
   <g id="patch_57">
    <path d="M 163.55873 319.431504 
L 167.96011 319.431504 
L 167.96011 280.424637 
L 163.55873 280.424637 
z
" clip-path="url(#p12bdc6cae3)" style="fill: #2196f3"/>
   </g>
   <g id="patch_58">
    <path d="M 180.063906 319.431504 
L 184.465286 319.431504 
L 184.465286 202.410902 
L 180.063906 202.410902 
z
" clip-path="url(#p12bdc6cae3)" style="fill: #2196f3"/>
   </g>
   <g id="patch_59">
    <path d="M 196.569082 319.431504 
L 200.970462 319.431504 
L 200.970462 319.431504 
L 196.569082 319.431504 
z
" clip-path="url(#p12bdc6cae3)" style="fill: #2196f3"/>
   </g>
   <g id="patch_60">
    <path d="M 213.074258 319.431504 
L 217.475638 319.431504 
L 217.475638 280.424637 
L 213.074258 280.424637 
z
" clip-path="url(#p12bdc6cae3)" style="fill: #2196f3"/>
   </g>
   <g id="patch_61">
    <path d="M 229.579434 319.431504 
L 233.980814 319.431504 
L 233.980814 163.404035 
L 229.579434 163.404035 
z
" clip-path="url(#p12bdc6cae3)" style="fill: #2196f3"/>
   </g>
   <g id="patch_62">
    <path d="M 246.08461 319.431504 
L 250.48599 319.431504 
L 250.48599 241.417769 
L 246.08461 241.417769 
z
" clip-path="url(#p12bdc6cae3)" style="fill: #2196f3"/>
   </g>
   <g id="patch_63">
    <path d="M 262.589786 319.431504 
L 266.991166 319.431504 
L 266.991166 241.417769 
L 262.589786 241.417769 
z
" clip-path="url(#p12bdc6cae3)" style="fill: #2196f3"/>
   </g>
   <g id="patch_64">
    <path d="M 279.094962 319.431504 
L 283.496342 319.431504 
L 283.496342 241.417769 
L 279.094962 241.417769 
z
" clip-path="url(#p12bdc6cae3)" style="fill: #2196f3"/>
   </g>
   <g id="patch_65">
    <path d="M 295.600138 319.431504 
L 300.001518 319.431504 
L 300.001518 124.397168 
L 295.600138 124.397168 
z
" clip-path="url(#p12bdc6cae3)" style="fill: #2196f3"/>
   </g>
   <g id="patch_66">
    <path d="M 312.105314 319.431504 
L 316.506694 319.431504 
L 316.506694 319.431504 
L 312.105314 319.431504 
z
" clip-path="url(#p12bdc6cae3)" style="fill: #2196f3"/>
   </g>
   <g id="patch_67">
    <path d="M 328.61049 319.431504 
L 333.01187 319.431504 
L 333.01187 280.424637 
L 328.61049 280.424637 
z
" clip-path="url(#p12bdc6cae3)" style="fill: #2196f3"/>
   </g>
   <g id="patch_68">
    <path d="M 345.115666 319.431504 
L 349.517046 319.431504 
L 349.517046 280.424637 
L 345.115666 280.424637 
z
" clip-path="url(#p12bdc6cae3)" style="fill: #2196f3"/>
   </g>
   <g id="patch_69">
    <path d="M 361.620842 319.431504 
L 366.022222 319.431504 
L 366.022222 280.424637 
L 361.620842 280.424637 
z
" clip-path="url(#p12bdc6cae3)" style="fill: #2196f3"/>
   </g>
   <g id="patch_70">
    <path d="M 378.126018 319.431504 
L 382.527398 319.431504 
L 382.527398 202.410902 
L 378.126018 202.410902 
z
" clip-path="url(#p12bdc6cae3)" style="fill: #2196f3"/>
   </g>
   <g id="patch_71">
    <path d="M 394.631194 319.431504 
L 399.032574 319.431504 
L 399.032574 319.431504 
L 394.631194 319.431504 
z
" clip-path="url(#p12bdc6cae3)" style="fill: #2196f3"/>
   </g>
   <g id="patch_72">
    <path d="M 411.13637 319.431504 
L 415.53775 319.431504 
L 415.53775 319.431504 
L 411.13637 319.431504 
z
" clip-path="url(#p12bdc6cae3)" style="fill: #2196f3"/>
   </g>
   <g id="patch_73">
    <path d="M 427.641546 319.431504 
L 432.042926 319.431504 
L 432.042926 319.431504 
L 427.641546 319.431504 
z
" clip-path="url(#p12bdc6cae3)" style="fill: #2196f3"/>
   </g>
   <g id="patch_74">
    <path d="M 444.146722 319.431504 
L 448.548102 319.431504 
L 448.548102 241.417769 
L 444.146722 241.417769 
z
" clip-path="url(#p12bdc6cae3)" style="fill: #2196f3"/>
   </g>
   <g id="patch_75">
    <path d="M 460.651898 319.431504 
L 465.053278 319.431504 
L 465.053278 280.424637 
L 460.651898 280.424637 
z
" clip-path="url(#p12bdc6cae3)" style="fill: #2196f3"/>
   </g>
   <g id="patch_76">
    <path d="M 477.157074 319.431504 
L 481.558454 319.431504 
L 481.558454 280.424637 
L 477.157074 280.424637 
z
" clip-path="url(#p12bdc6cae3)" style="fill: #2196f3"/>
   </g>
   <g id="patch_77">
    <path d="M 493.66225 319.431504 
L 498.06363 319.431504 
L 498.06363 319.431504 
L 493.66225 319.431504 
z
" clip-path="url(#p12bdc6cae3)" style="fill: #2196f3"/>
   </g>
   <g id="patch_78">
    <path d="M 510.167426 319.431504 
L 514.568806 319.431504 
L 514.568806 319.431504 
L 510.167426 319.431504 
z
" clip-path="url(#p12bdc6cae3)" style="fill: #2196f3"/>
   </g>
   <g id="patch_79">
    <path d="M 526.672602 319.431504 
L 531.073982 319.431504 
L 531.073982 280.424637 
L 526.672602 280.424637 
z
" clip-path="url(#p12bdc6cae3)" style="fill: #2196f3"/>
   </g>
   <g id="patch_80">
    <path d="M 543.177778 319.431504 
L 547.579158 319.431504 
L 547.579158 280.424637 
L 543.177778 280.424637 
z
" clip-path="url(#p12bdc6cae3)" style="fill: #2196f3"/>
   </g>
   <g id="patch_81">
    <path d="M 559.682954 319.431504 
L 564.084334 319.431504 
L 564.084334 319.431504 
L 559.682954 319.431504 
z
" clip-path="url(#p12bdc6cae3)" style="fill: #2196f3"/>
   </g>
   <g id="patch_82">
    <path d="M 576.18813 319.431504 
L 580.58951 319.431504 
L 580.58951 319.431504 
L 576.18813 319.431504 
z
" clip-path="url(#p12bdc6cae3)" style="fill: #2196f3"/>
   </g>
   <g id="patch_83">
    <path d="M 592.693306 319.431504 
L 597.094686 319.431504 
L 597.094686 280.424637 
L 592.693306 280.424637 
z
" clip-path="url(#p12bdc6cae3)" style="fill: #2196f3"/>
   </g>
   <g id="patch_84">
    <path d="M 609.198482 319.431504 
L 613.599862 319.431504 
L 613.599862 280.424637 
L 609.198482 280.424637 
z
" clip-path="url(#p12bdc6cae3)" style="fill: #2196f3"/>
   </g>
   <g id="patch_85">
    <path d="M 625.703658 319.431504 
L 630.105038 319.431504 
L 630.105038 202.410902 
L 625.703658 202.410902 
z
" clip-path="url(#p12bdc6cae3)" style="fill: #2196f3"/>
   </g>
   <g id="patch_86">
    <path d="M 642.208834 319.431504 
L 646.610214 319.431504 
L 646.610214 202.410902 
L 642.208834 202.410902 
z
" clip-path="url(#p12bdc6cae3)" style="fill: #2196f3"/>
   </g>
   <g id="patch_87">
    <path d="M 658.71401 319.431504 
L 663.11539 319.431504 
L 663.11539 241.417769 
L 658.71401 241.417769 
z
" clip-path="url(#p12bdc6cae3)" style="fill: #2196f3"/>
   </g>
   <g id="patch_88">
    <path d="M 675.219186 319.431504 
L 679.620566 319.431504 
L 679.620566 241.417769 
L 675.219186 241.417769 
z
" clip-path="url(#p12bdc6cae3)" style="fill: #2196f3"/>
   </g>
   <g id="patch_89">
    <path d="M 691.724362 319.431504 
L 696.125742 319.431504 
L 696.125742 202.410902 
L 691.724362 202.410902 
z
" clip-path="url(#p12bdc6cae3)" style="fill: #2196f3"/>
   </g>
   <g id="patch_90">
    <path d="M 708.229538 319.431504 
L 712.630918 319.431504 
L 712.630918 202.410902 
L 708.229538 202.410902 
z
" clip-path="url(#p12bdc6cae3)" style="fill: #2196f3"/>
   </g>
   <g id="patch_91">
    <path d="M 724.734714 319.431504 
L 729.136094 319.431504 
L 729.136094 280.424637 
L 724.734714 280.424637 
z
" clip-path="url(#p12bdc6cae3)" style="fill: #2196f3"/>
   </g>
   <g id="patch_92">
    <path d="M 741.23989 319.431504 
L 745.64127 319.431504 
L 745.64127 280.424637 
L 741.23989 280.424637 
z
" clip-path="url(#p12bdc6cae3)" style="fill: #2196f3"/>
   </g>
   <g id="patch_93">
    <path d="M 757.745066 319.431504 
L 762.146446 319.431504 
L 762.146446 46.383434 
L 757.745066 46.383434 
z
" clip-path="url(#p12bdc6cae3)" style="fill: #2196f3"/>
   </g>
   <g id="patch_94">
    <path d="M 774.250242 319.431504 
L 778.651622 319.431504 
L 778.651622 319.431504 
L 774.250242 319.431504 
z
" clip-path="url(#p12bdc6cae3)" style="fill: #2196f3"/>
   </g>
   <g id="patch_95">
    <path d="M 790.755418 319.431504 
L 795.156798 319.431504 
L 795.156798 202.410902 
L 790.755418 202.410902 
z
" clip-path="url(#p12bdc6cae3)" style="fill: #2196f3"/>
   </g>
   <g id="patch_96">
    <path d="M 807.260594 319.431504 
L 811.661974 319.431504 
L 811.661974 241.417769 
L 807.260594 241.417769 
z
" clip-path="url(#p12bdc6cae3)" style="fill: #2196f3"/>
   </g>
   <g id="patch_97">
    <path d="M 823.765769 319.431504 
L 828.16715 319.431504 
L 828.16715 163.404035 
L 823.765769 163.404035 
z
" clip-path="url(#p12bdc6cae3)" style="fill: #2196f3"/>
   </g>
   <g id="patch_98">
    <path d="M 840.270945 319.431504 
L 844.672326 319.431504 
L 844.672326 202.410902 
L 840.270945 202.410902 
z
" clip-path="url(#p12bdc6cae3)" style="fill: #2196f3"/>
   </g>
   <g id="patch_99">
    <path d="M 68.929055 319.431504 
L 73.330435 319.431504 
L 73.330435 319.431504 
L 68.929055 319.431504 
z
" clip-path="url(#p12bdc6cae3)" style="fill: #4caf50"/>
   </g>
   <g id="patch_100">
    <path d="M 85.434231 319.431504 
L 89.835611 319.431504 
L 89.835611 319.431504 
L 85.434231 319.431504 
z
" clip-path="url(#p12bdc6cae3)" style="fill: #4caf50"/>
   </g>
   <g id="patch_101">
    <path d="M 101.939406 319.431504 
L 106.340787 319.431504 
L 106.340787 319.431504 
L 101.939406 319.431504 
z
" clip-path="url(#p12bdc6cae3)" style="fill: #4caf50"/>
   </g>
   <g id="patch_102">
    <path d="M 118.444582 319.431504 
L 122.845963 319.431504 
L 122.845963 319.431504 
L 118.444582 319.431504 
z
" clip-path="url(#p12bdc6cae3)" style="fill: #4caf50"/>
   </g>
   <g id="patch_103">
    <path d="M 134.949758 319.431504 
L 139.351139 319.431504 
L 139.351139 319.431504 
L 134.949758 319.431504 
z
" clip-path="url(#p12bdc6cae3)" style="fill: #4caf50"/>
   </g>
   <g id="patch_104">
    <path d="M 151.454934 319.431504 
L 155.856315 319.431504 
L 155.856315 319.431504 
L 151.454934 319.431504 
z
" clip-path="url(#p12bdc6cae3)" style="fill: #4caf50"/>
   </g>
   <g id="patch_105">
    <path d="M 167.96011 319.431504 
L 172.361491 319.431504 
L 172.361491 319.431504 
L 167.96011 319.431504 
z
" clip-path="url(#p12bdc6cae3)" style="fill: #4caf50"/>
   </g>
   <g id="patch_106">
    <path d="M 184.465286 319.431504 
L 188.866667 319.431504 
L 188.866667 319.431504 
L 184.465286 319.431504 
z
" clip-path="url(#p12bdc6cae3)" style="fill: #4caf50"/>
   </g>
   <g id="patch_107">
    <path d="M 200.970462 319.431504 
L 205.371843 319.431504 
L 205.371843 260.921203 
L 200.970462 260.921203 
z
" clip-path="url(#p12bdc6cae3)" style="fill: #4caf50"/>
   </g>
   <g id="patch_108">
    <path d="M 217.475638 319.431504 
L 221.877019 319.431504 
L 221.877019 260.921203 
L 217.475638 260.921203 
z
" clip-path="url(#p12bdc6cae3)" style="fill: #4caf50"/>
   </g>
   <g id="patch_109">
    <path d="M 233.980814 319.431504 
L 238.382195 319.431504 
L 238.382195 260.921203 
L 233.980814 260.921203 
z
" clip-path="url(#p12bdc6cae3)" style="fill: #4caf50"/>
   </g>
   <g id="patch_110">
    <path d="M 250.48599 319.431504 
L 254.887371 319.431504 
L 254.887371 260.921203 
L 250.48599 260.921203 
z
" clip-path="url(#p12bdc6cae3)" style="fill: #4caf50"/>
   </g>
   <g id="patch_111">
    <path d="M 266.991166 319.431504 
L 271.392547 319.431504 
L 271.392547 260.921203 
L 266.991166 260.921203 
z
" clip-path="url(#p12bdc6cae3)" style="fill: #4caf50"/>
   </g>
   <g id="patch_112">
    <path d="M 283.496342 319.431504 
L 287.897723 319.431504 
L 287.897723 260.921203 
L 283.496342 260.921203 
z
" clip-path="url(#p12bdc6cae3)" style="fill: #4caf50"/>
   </g>
   <g id="patch_113">
    <path d="M 300.001518 319.431504 
L 304.402899 319.431504 
L 304.402899 319.431504 
L 300.001518 319.431504 
z
" clip-path="url(#p12bdc6cae3)" style="fill: #4caf50"/>
   </g>
   <g id="patch_114">
    <path d="M 316.506694 319.431504 
L 320.908075 319.431504 
L 320.908075 319.431504 
L 316.506694 319.431504 
z
" clip-path="url(#p12bdc6cae3)" style="fill: #4caf50"/>
   </g>
   <g id="patch_115">
    <path d="M 333.01187 319.431504 
L 337.413251 319.431504 
L 337.413251 202.410902 
L 333.01187 202.410902 
z
" clip-path="url(#p12bdc6cae3)" style="fill: #4caf50"/>
   </g>
   <g id="patch_116">
    <path d="M 349.517046 319.431504 
L 353.918427 319.431504 
L 353.918427 202.410902 
L 349.517046 202.410902 
z
" clip-path="url(#p12bdc6cae3)" style="fill: #4caf50"/>
   </g>
   <g id="patch_117">
    <path d="M 366.022222 319.431504 
L 370.423602 319.431504 
L 370.423602 319.431504 
L 366.022222 319.431504 
z
" clip-path="url(#p12bdc6cae3)" style="fill: #4caf50"/>
   </g>
   <g id="patch_118">
    <path d="M 382.527398 319.431504 
L 386.928778 319.431504 
L 386.928778 377.941805 
L 382.527398 377.941805 
z
" clip-path="url(#p12bdc6cae3)" style="fill: #4caf50"/>
   </g>
   <g id="patch_119">
    <path d="M 399.032574 319.431504 
L 403.433954 319.431504 
L 403.433954 319.431504 
L 399.032574 319.431504 
z
" clip-path="url(#p12bdc6cae3)" style="fill: #4caf50"/>
   </g>
   <g id="patch_120">
    <path d="M 415.53775 319.431504 
L 419.93913 319.431504 
L 419.93913 319.431504 
L 415.53775 319.431504 
z
" clip-path="url(#p12bdc6cae3)" style="fill: #4caf50"/>
   </g>
   <g id="patch_121">
    <path d="M 432.042926 319.431504 
L 436.444306 319.431504 
L 436.444306 260.921203 
L 432.042926 260.921203 
z
" clip-path="url(#p12bdc6cae3)" style="fill: #4caf50"/>
   </g>
   <g id="patch_122">
    <path d="M 448.548102 319.431504 
L 452.949482 319.431504 
L 452.949482 319.431504 
L 448.548102 319.431504 
z
" clip-path="url(#p12bdc6cae3)" style="fill: #4caf50"/>
   </g>
   <g id="patch_123">
    <path d="M 465.053278 319.431504 
L 469.454658 319.431504 
L 469.454658 319.431504 
L 465.053278 319.431504 
z
" clip-path="url(#p12bdc6cae3)" style="fill: #4caf50"/>
   </g>
   <g id="patch_124">
    <path d="M 481.558454 319.431504 
L 485.959834 319.431504 
L 485.959834 319.431504 
L 481.558454 319.431504 
z
" clip-path="url(#p12bdc6cae3)" style="fill: #4caf50"/>
   </g>
   <g id="patch_125">
    <path d="M 498.06363 319.431504 
L 502.46501 319.431504 
L 502.46501 260.921203 
L 498.06363 260.921203 
z
" clip-path="url(#p12bdc6cae3)" style="fill: #4caf50"/>
   </g>
   <g id="patch_126">
    <path d="M 514.568806 319.431504 
L 518.970186 319.431504 
L 518.970186 319.431504 
L 514.568806 319.431504 
z
" clip-path="url(#p12bdc6cae3)" style="fill: #4caf50"/>
   </g>
   <g id="patch_127">
    <path d="M 531.073982 319.431504 
L 535.475362 319.431504 
L 535.475362 319.431504 
L 531.073982 319.431504 
z
" clip-path="url(#p12bdc6cae3)" style="fill: #4caf50"/>
   </g>
   <g id="patch_128">
    <path d="M 547.579158 319.431504 
L 551.980538 319.431504 
L 551.980538 143.900602 
L 547.579158 143.900602 
z
" clip-path="url(#p12bdc6cae3)" style="fill: #4caf50"/>
   </g>
   <g id="patch_129">
    <path d="M 564.084334 319.431504 
L 568.485714 319.431504 
L 568.485714 319.431504 
L 564.084334 319.431504 
z
" clip-path="url(#p12bdc6cae3)" style="fill: #4caf50"/>
   </g>
   <g id="patch_130">
    <path d="M 580.58951 319.431504 
L 584.99089 319.431504 
L 584.99089 319.431504 
L 580.58951 319.431504 
z
" clip-path="url(#p12bdc6cae3)" style="fill: #4caf50"/>
   </g>
   <g id="patch_131">
    <path d="M 597.094686 319.431504 
L 601.496066 319.431504 
L 601.496066 260.921203 
L 597.094686 260.921203 
z
" clip-path="url(#p12bdc6cae3)" style="fill: #4caf50"/>
   </g>
   <g id="patch_132">
    <path d="M 613.599862 319.431504 
L 618.001242 319.431504 
L 618.001242 202.410902 
L 613.599862 202.410902 
z
" clip-path="url(#p12bdc6cae3)" style="fill: #4caf50"/>
   </g>
   <g id="patch_133">
    <path d="M 630.105038 319.431504 
L 634.506418 319.431504 
L 634.506418 143.900602 
L 630.105038 143.900602 
z
" clip-path="url(#p12bdc6cae3)" style="fill: #4caf50"/>
   </g>
   <g id="patch_134">
    <path d="M 646.610214 319.431504 
L 651.011594 319.431504 
L 651.011594 260.921203 
L 646.610214 260.921203 
z
" clip-path="url(#p12bdc6cae3)" style="fill: #4caf50"/>
   </g>
   <g id="patch_135">
    <path d="M 663.11539 319.431504 
L 667.51677 319.431504 
L 667.51677 319.431504 
L 663.11539 319.431504 
z
" clip-path="url(#p12bdc6cae3)" style="fill: #4caf50"/>
   </g>
   <g id="patch_136">
    <path d="M 679.620566 319.431504 
L 684.021946 319.431504 
L 684.021946 319.431504 
L 679.620566 319.431504 
z
" clip-path="url(#p12bdc6cae3)" style="fill: #4caf50"/>
   </g>
   <g id="patch_137">
    <path d="M 696.125742 319.431504 
L 700.527122 319.431504 
L 700.527122 202.410902 
L 696.125742 202.410902 
z
" clip-path="url(#p12bdc6cae3)" style="fill: #4caf50"/>
   </g>
   <g id="patch_138">
    <path d="M 712.630918 319.431504 
L 717.032298 319.431504 
L 717.032298 436.452105 
L 712.630918 436.452105 
z
" clip-path="url(#p12bdc6cae3)" style="fill: #4caf50"/>
   </g>
   <g id="patch_139">
    <path d="M 729.136094 319.431504 
L 733.537474 319.431504 
L 733.537474 377.941805 
L 729.136094 377.941805 
z
" clip-path="url(#p12bdc6cae3)" style="fill: #4caf50"/>
   </g>
   <g id="patch_140">
    <path d="M 745.64127 319.431504 
L 750.04265 319.431504 
L 750.04265 377.941805 
L 745.64127 377.941805 
z
" clip-path="url(#p12bdc6cae3)" style="fill: #4caf50"/>
   </g>
   <g id="patch_141">
    <path d="M 762.146446 319.431504 
L 766.547826 319.431504 
L 766.547826 377.941805 
L 762.146446 377.941805 
z
" clip-path="url(#p12bdc6cae3)" style="fill: #4caf50"/>
   </g>
   <g id="patch_142">
    <path d="M 778.651622 319.431504 
L 783.053002 319.431504 
L 783.053002 260.921203 
L 778.651622 260.921203 
z
" clip-path="url(#p12bdc6cae3)" style="fill: #4caf50"/>
   </g>
   <g id="patch_143">
    <path d="M 795.156798 319.431504 
L 799.558178 319.431504 
L 799.558178 319.431504 
L 795.156798 319.431504 
z
" clip-path="url(#p12bdc6cae3)" style="fill: #4caf50"/>
   </g>
   <g id="patch_144">
    <path d="M 811.661974 319.431504 
L 816.063354 319.431504 
L 816.063354 319.431504 
L 811.661974 319.431504 
z
" clip-path="url(#p12bdc6cae3)" style="fill: #4caf50"/>
   </g>
   <g id="patch_145">
    <path d="M 828.16715 319.431504 
L 832.56853 319.431504 
L 832.56853 319.431504 
L 828.16715 319.431504 
z
" clip-path="url(#p12bdc6cae3)" style="fill: #4caf50"/>
   </g>
   <g id="patch_146">
    <path d="M 844.672326 319.431504 
L 849.073706 319.431504 
L 849.073706 319.431504 
L 844.672326 319.431504 
z
" clip-path="url(#p12bdc6cae3)" style="fill: #4caf50"/>
   </g>
   <g id="matplotlib.axis_1">
    <g id="xtick_1">
     <g id="line2d_1">
      <defs>
       <path id="m7f7a189a65" d="M 0 0 
L 0 3.5 
" style="stroke: #000000; stroke-width: 0.8"/>
      </defs>
      <g>
       <use xlink:href="#m7f7a189a65" x="66.728364" y="455.955539" style="stroke: #000000; stroke-width: 0.8"/>
      </g>
     </g>
     <g id="text_1">
      <!-- 0 -->
      <g transform="translate(66.430054 472.827413) rotate(-45) scale(0.1 -0.1)">
       <defs>
        <path id="DejaVuSans-30" d="M 2034 4250 
Q 1547 4250 1301 3770 
Q 1056 3291 1056 2328 
Q 1056 1369 1301 889 
Q 1547 409 2034 409 
Q 2525 409 2770 889 
Q 3016 1369 3016 2328 
Q 3016 3291 2770 3770 
Q 2525 4250 2034 4250 
z
M 2034 4750 
Q 2819 4750 3233 4129 
Q 3647 3509 3647 2328 
Q 3647 1150 3233 529 
Q 2819 -91 2034 -91 
Q 1250 -91 836 529 
Q 422 1150 422 2328 
Q 422 3509 836 4129 
Q 1250 4750 2034 4750 
z
" transform="scale(0.015625)"/>
       </defs>
       <use xlink:href="#DejaVuSans-30"/>
      </g>
     </g>
    </g>
    <g id="xtick_2">
     <g id="line2d_2">
      <g>
       <use xlink:href="#m7f7a189a65" x="83.23354" y="455.955539" style="stroke: #000000; stroke-width: 0.8"/>
      </g>
     </g>
    </g>
    <g id="xtick_3">
     <g id="line2d_3">
      <g>
       <use xlink:href="#m7f7a189a65" x="99.738716" y="455.955539" style="stroke: #000000; stroke-width: 0.8"/>
      </g>
     </g>
    </g>
    <g id="xtick_4">
     <g id="line2d_4">
      <g>
       <use xlink:href="#m7f7a189a65" x="116.243892" y="455.955539" style="stroke: #000000; stroke-width: 0.8"/>
      </g>
     </g>
    </g>
    <g id="xtick_5">
     <g id="line2d_5">
      <g>
       <use xlink:href="#m7f7a189a65" x="132.749068" y="455.955539" style="stroke: #000000; stroke-width: 0.8"/>
      </g>
     </g>
    </g>
    <g id="xtick_6">
     <g id="line2d_6">
      <g>
       <use xlink:href="#m7f7a189a65" x="149.254244" y="455.955539" style="stroke: #000000; stroke-width: 0.8"/>
      </g>
     </g>
     <g id="text_2">
      <!-- 5 -->
      <g transform="translate(148.955934 472.827413) rotate(-45) scale(0.1 -0.1)">
       <defs>
        <path id="DejaVuSans-35" d="M 691 4666 
L 3169 4666 
L 3169 4134 
L 1269 4134 
L 1269 2991 
Q 1406 3038 1543 3061 
Q 1681 3084 1819 3084 
Q 2600 3084 3056 2656 
Q 3513 2228 3513 1497 
Q 3513 744 3044 326 
Q 2575 -91 1722 -91 
Q 1428 -91 1123 -41 
Q 819 9 494 109 
L 494 744 
Q 775 591 1075 516 
Q 1375 441 1709 441 
Q 2250 441 2565 725 
Q 2881 1009 2881 1497 
Q 2881 1984 2565 2268 
Q 2250 2553 1709 2553 
Q 1456 2553 1204 2497 
Q 953 2441 691 2322 
L 691 4666 
z
" transform="scale(0.015625)"/>
       </defs>
       <use xlink:href="#DejaVuSans-35"/>
      </g>
     </g>
    </g>
    <g id="xtick_7">
     <g id="line2d_7">
      <g>
       <use xlink:href="#m7f7a189a65" x="165.75942" y="455.955539" style="stroke: #000000; stroke-width: 0.8"/>
      </g>
     </g>
    </g>
    <g id="xtick_8">
     <g id="line2d_8">
      <g>
       <use xlink:href="#m7f7a189a65" x="182.264596" y="455.955539" style="stroke: #000000; stroke-width: 0.8"/>
      </g>
     </g>
    </g>
    <g id="xtick_9">
     <g id="line2d_9">
      <g>
       <use xlink:href="#m7f7a189a65" x="198.769772" y="455.955539" style="stroke: #000000; stroke-width: 0.8"/>
      </g>
     </g>
    </g>
    <g id="xtick_10">
     <g id="line2d_10">
      <g>
       <use xlink:href="#m7f7a189a65" x="215.274948" y="455.955539" style="stroke: #000000; stroke-width: 0.8"/>
      </g>
     </g>
    </g>
    <g id="xtick_11">
     <g id="line2d_11">
      <g>
       <use xlink:href="#m7f7a189a65" x="231.780124" y="455.955539" style="stroke: #000000; stroke-width: 0.8"/>
      </g>
     </g>
     <g id="text_3">
      <!-- 10 -->
      <g transform="translate(229.23233 477.326379) rotate(-45) scale(0.1 -0.1)">
       <defs>
        <path id="DejaVuSans-31" d="M 794 531 
L 1825 531 
L 1825 4091 
L 703 3866 
L 703 4441 
L 1819 4666 
L 2450 4666 
L 2450 531 
L 3481 531 
L 3481 0 
L 794 0 
L 794 531 
z
" transform="scale(0.015625)"/>
       </defs>
       <use xlink:href="#DejaVuSans-31"/>
       <use xlink:href="#DejaVuSans-30" transform="translate(63.623047 0)"/>
      </g>
     </g>
    </g>
    <g id="xtick_12">
     <g id="line2d_12">
      <g>
       <use xlink:href="#m7f7a189a65" x="248.2853" y="455.955539" style="stroke: #000000; stroke-width: 0.8"/>
      </g>
     </g>
     <g id="text_4">
      <!-- 11 -->
      <g transform="translate(245.737506 477.326379) rotate(-45) scale(0.1 -0.1)">
       <use xlink:href="#DejaVuSans-31"/>
       <use xlink:href="#DejaVuSans-31" transform="translate(63.623047 0)"/>
      </g>
     </g>
    </g>
    <g id="xtick_13">
     <g id="line2d_13">
      <g>
       <use xlink:href="#m7f7a189a65" x="264.790476" y="455.955539" style="stroke: #000000; stroke-width: 0.8"/>
      </g>
     </g>
    </g>
    <g id="xtick_14">
     <g id="line2d_14">
      <g>
       <use xlink:href="#m7f7a189a65" x="281.295652" y="455.955539" style="stroke: #000000; stroke-width: 0.8"/>
      </g>
     </g>
    </g>
    <g id="xtick_15">
     <g id="line2d_15">
      <g>
       <use xlink:href="#m7f7a189a65" x="297.800828" y="455.955539" style="stroke: #000000; stroke-width: 0.8"/>
      </g>
     </g>
    </g>
    <g id="xtick_16">
     <g id="line2d_16">
      <g>
       <use xlink:href="#m7f7a189a65" x="314.306004" y="455.955539" style="stroke: #000000; stroke-width: 0.8"/>
      </g>
     </g>
     <g id="text_5">
      <!-- 15 -->
      <g transform="translate(311.75821 477.326379) rotate(-45) scale(0.1 -0.1)">
       <use xlink:href="#DejaVuSans-31"/>
       <use xlink:href="#DejaVuSans-35" transform="translate(63.623047 0)"/>
      </g>
     </g>
    </g>
    <g id="xtick_17">
     <g id="line2d_17">
      <g>
       <use xlink:href="#m7f7a189a65" x="330.81118" y="455.955539" style="stroke: #000000; stroke-width: 0.8"/>
      </g>
     </g>
    </g>
    <g id="xtick_18">
     <g id="line2d_18">
      <g>
       <use xlink:href="#m7f7a189a65" x="347.316356" y="455.955539" style="stroke: #000000; stroke-width: 0.8"/>
      </g>
     </g>
    </g>
    <g id="xtick_19">
     <g id="line2d_19">
      <g>
       <use xlink:href="#m7f7a189a65" x="363.821532" y="455.955539" style="stroke: #000000; stroke-width: 0.8"/>
      </g>
     </g>
    </g>
    <g id="xtick_20">
     <g id="line2d_20">
      <g>
       <use xlink:href="#m7f7a189a65" x="380.326708" y="455.955539" style="stroke: #000000; stroke-width: 0.8"/>
      </g>
     </g>
    </g>
    <g id="xtick_21">
     <g id="line2d_21">
      <g>
       <use xlink:href="#m7f7a189a65" x="396.831884" y="455.955539" style="stroke: #000000; stroke-width: 0.8"/>
      </g>
     </g>
     <g id="text_6">
      <!-- 20 -->
      <g transform="translate(394.28409 477.326379) rotate(-45) scale(0.1 -0.1)">
       <defs>
        <path id="DejaVuSans-32" d="M 1228 531 
L 3431 531 
L 3431 0 
L 469 0 
L 469 531 
Q 828 903 1448 1529 
Q 2069 2156 2228 2338 
Q 2531 2678 2651 2914 
Q 2772 3150 2772 3378 
Q 2772 3750 2511 3984 
Q 2250 4219 1831 4219 
Q 1534 4219 1204 4116 
Q 875 4013 500 3803 
L 500 4441 
Q 881 4594 1212 4672 
Q 1544 4750 1819 4750 
Q 2544 4750 2975 4387 
Q 3406 4025 3406 3419 
Q 3406 3131 3298 2873 
Q 3191 2616 2906 2266 
Q 2828 2175 2409 1742 
Q 1991 1309 1228 531 
z
" transform="scale(0.015625)"/>
       </defs>
       <use xlink:href="#DejaVuSans-32"/>
       <use xlink:href="#DejaVuSans-30" transform="translate(63.623047 0)"/>
      </g>
     </g>
    </g>
    <g id="xtick_22">
     <g id="line2d_22">
      <g>
       <use xlink:href="#m7f7a189a65" x="413.33706" y="455.955539" style="stroke: #000000; stroke-width: 0.8"/>
      </g>
     </g>
    </g>
    <g id="xtick_23">
     <g id="line2d_23">
      <g>
       <use xlink:href="#m7f7a189a65" x="429.842236" y="455.955539" style="stroke: #000000; stroke-width: 0.8"/>
      </g>
     </g>
    </g>
    <g id="xtick_24">
     <g id="line2d_24">
      <g>
       <use xlink:href="#m7f7a189a65" x="446.347412" y="455.955539" style="stroke: #000000; stroke-width: 0.8"/>
      </g>
     </g>
     <g id="text_7">
      <!-- 23 -->
      <g transform="translate(443.799618 477.326379) rotate(-45) scale(0.1 -0.1)">
       <defs>
        <path id="DejaVuSans-33" d="M 2597 2516 
Q 3050 2419 3304 2112 
Q 3559 1806 3559 1356 
Q 3559 666 3084 287 
Q 2609 -91 1734 -91 
Q 1441 -91 1130 -33 
Q 819 25 488 141 
L 488 750 
Q 750 597 1062 519 
Q 1375 441 1716 441 
Q 2309 441 2620 675 
Q 2931 909 2931 1356 
Q 2931 1769 2642 2001 
Q 2353 2234 1838 2234 
L 1294 2234 
L 1294 2753 
L 1863 2753 
Q 2328 2753 2575 2939 
Q 2822 3125 2822 3475 
Q 2822 3834 2567 4026 
Q 2313 4219 1838 4219 
Q 1578 4219 1281 4162 
Q 984 4106 628 3988 
L 628 4550 
Q 988 4650 1302 4700 
Q 1616 4750 1894 4750 
Q 2613 4750 3031 4423 
Q 3450 4097 3450 3541 
Q 3450 3153 3228 2886 
Q 3006 2619 2597 2516 
z
" transform="scale(0.015625)"/>
       </defs>
       <use xlink:href="#DejaVuSans-32"/>
       <use xlink:href="#DejaVuSans-33" transform="translate(63.623047 0)"/>
      </g>
     </g>
    </g>
    <g id="xtick_25">
     <g id="line2d_25">
      <g>
       <use xlink:href="#m7f7a189a65" x="462.852588" y="455.955539" style="stroke: #000000; stroke-width: 0.8"/>
      </g>
     </g>
    </g>
    <g id="xtick_26">
     <g id="line2d_26">
      <g>
       <use xlink:href="#m7f7a189a65" x="479.357764" y="455.955539" style="stroke: #000000; stroke-width: 0.8"/>
      </g>
     </g>
     <g id="text_8">
      <!-- 25 -->
      <g transform="translate(476.80997 477.326379) rotate(-45) scale(0.1 -0.1)">
       <use xlink:href="#DejaVuSans-32"/>
       <use xlink:href="#DejaVuSans-35" transform="translate(63.623047 0)"/>
      </g>
     </g>
    </g>
    <g id="xtick_27">
     <g id="line2d_27">
      <g>
       <use xlink:href="#m7f7a189a65" x="495.86294" y="455.955539" style="stroke: #000000; stroke-width: 0.8"/>
      </g>
     </g>
    </g>
    <g id="xtick_28">
     <g id="line2d_28">
      <g>
       <use xlink:href="#m7f7a189a65" x="512.368116" y="455.955539" style="stroke: #000000; stroke-width: 0.8"/>
      </g>
     </g>
    </g>
    <g id="xtick_29">
     <g id="line2d_29">
      <g>
       <use xlink:href="#m7f7a189a65" x="528.873292" y="455.955539" style="stroke: #000000; stroke-width: 0.8"/>
      </g>
     </g>
    </g>
    <g id="xtick_30">
     <g id="line2d_30">
      <g>
       <use xlink:href="#m7f7a189a65" x="545.378468" y="455.955539" style="stroke: #000000; stroke-width: 0.8"/>
      </g>
     </g>
    </g>
    <g id="xtick_31">
     <g id="line2d_31">
      <g>
       <use xlink:href="#m7f7a189a65" x="561.883644" y="455.955539" style="stroke: #000000; stroke-width: 0.8"/>
      </g>
     </g>
     <g id="text_9">
      <!-- 30 -->
      <g transform="translate(559.33585 477.326379) rotate(-45) scale(0.1 -0.1)">
       <use xlink:href="#DejaVuSans-33"/>
       <use xlink:href="#DejaVuSans-30" transform="translate(63.623047 0)"/>
      </g>
     </g>
    </g>
    <g id="xtick_32">
     <g id="line2d_32">
      <g>
       <use xlink:href="#m7f7a189a65" x="578.38882" y="455.955539" style="stroke: #000000; stroke-width: 0.8"/>
      </g>
     </g>
    </g>
    <g id="xtick_33">
     <g id="line2d_33">
      <g>
       <use xlink:href="#m7f7a189a65" x="594.893996" y="455.955539" style="stroke: #000000; stroke-width: 0.8"/>
      </g>
     </g>
    </g>
    <g id="xtick_34">
     <g id="line2d_34">
      <g>
       <use xlink:href="#m7f7a189a65" x="611.399172" y="455.955539" style="stroke: #000000; stroke-width: 0.8"/>
      </g>
     </g>
    </g>
    <g id="xtick_35">
     <g id="line2d_35">
      <g>
       <use xlink:href="#m7f7a189a65" x="627.904348" y="455.955539" style="stroke: #000000; stroke-width: 0.8"/>
      </g>
     </g>
    </g>
    <g id="xtick_36">
     <g id="line2d_36">
      <g>
       <use xlink:href="#m7f7a189a65" x="644.409524" y="455.955539" style="stroke: #000000; stroke-width: 0.8"/>
      </g>
     </g>
     <g id="text_10">
      <!-- 35 -->
      <g transform="translate(641.86173 477.326379) rotate(-45) scale(0.1 -0.1)">
       <use xlink:href="#DejaVuSans-33"/>
       <use xlink:href="#DejaVuSans-35" transform="translate(63.623047 0)"/>
      </g>
     </g>
    </g>
    <g id="xtick_37">
     <g id="line2d_37">
      <g>
       <use xlink:href="#m7f7a189a65" x="660.9147" y="455.955539" style="stroke: #000000; stroke-width: 0.8"/>
      </g>
     </g>
    </g>
    <g id="xtick_38">
     <g id="line2d_38">
      <g>
       <use xlink:href="#m7f7a189a65" x="677.419876" y="455.955539" style="stroke: #000000; stroke-width: 0.8"/>
      </g>
     </g>
    </g>
    <g id="xtick_39">
     <g id="line2d_39">
      <g>
       <use xlink:href="#m7f7a189a65" x="693.925052" y="455.955539" style="stroke: #000000; stroke-width: 0.8"/>
      </g>
     </g>
    </g>
    <g id="xtick_40">
     <g id="line2d_40">
      <g>
       <use xlink:href="#m7f7a189a65" x="710.430228" y="455.955539" style="stroke: #000000; stroke-width: 0.8"/>
      </g>
     </g>
    </g>
    <g id="xtick_41">
     <g id="line2d_41">
      <g>
       <use xlink:href="#m7f7a189a65" x="726.935404" y="455.955539" style="stroke: #000000; stroke-width: 0.8"/>
      </g>
     </g>
     <g id="text_11">
      <!-- 40 -->
      <g transform="translate(724.38761 477.326379) rotate(-45) scale(0.1 -0.1)">
       <defs>
        <path id="DejaVuSans-34" d="M 2419 4116 
L 825 1625 
L 2419 1625 
L 2419 4116 
z
M 2253 4666 
L 3047 4666 
L 3047 1625 
L 3713 1625 
L 3713 1100 
L 3047 1100 
L 3047 0 
L 2419 0 
L 2419 1100 
L 313 1100 
L 313 1709 
L 2253 4666 
z
" transform="scale(0.015625)"/>
       </defs>
       <use xlink:href="#DejaVuSans-34"/>
       <use xlink:href="#DejaVuSans-30" transform="translate(63.623047 0)"/>
      </g>
     </g>
    </g>
    <g id="xtick_42">
     <g id="line2d_42">
      <g>
       <use xlink:href="#m7f7a189a65" x="743.44058" y="455.955539" style="stroke: #000000; stroke-width: 0.8"/>
      </g>
     </g>
    </g>
    <g id="xtick_43">
     <g id="line2d_43">
      <g>
       <use xlink:href="#m7f7a189a65" x="759.945756" y="455.955539" style="stroke: #000000; stroke-width: 0.8"/>
      </g>
     </g>
    </g>
    <g id="xtick_44">
     <g id="line2d_44">
      <g>
       <use xlink:href="#m7f7a189a65" x="776.450932" y="455.955539" style="stroke: #000000; stroke-width: 0.8"/>
      </g>
     </g>
    </g>
    <g id="xtick_45">
     <g id="line2d_45">
      <g>
       <use xlink:href="#m7f7a189a65" x="792.956108" y="455.955539" style="stroke: #000000; stroke-width: 0.8"/>
      </g>
     </g>
    </g>
    <g id="xtick_46">
     <g id="line2d_46">
      <g>
       <use xlink:href="#m7f7a189a65" x="809.461284" y="455.955539" style="stroke: #000000; stroke-width: 0.8"/>
      </g>
     </g>
     <g id="text_12">
      <!-- 45 -->
      <g transform="translate(806.91349 477.326379) rotate(-45) scale(0.1 -0.1)">
       <use xlink:href="#DejaVuSans-34"/>
       <use xlink:href="#DejaVuSans-35" transform="translate(63.623047 0)"/>
      </g>
     </g>
    </g>
    <g id="xtick_47">
     <g id="line2d_47">
      <g>
       <use xlink:href="#m7f7a189a65" x="825.96646" y="455.955539" style="stroke: #000000; stroke-width: 0.8"/>
      </g>
     </g>
    </g>
    <g id="xtick_48">
     <g id="line2d_48">
      <g>
       <use xlink:href="#m7f7a189a65" x="842.471636" y="455.955539" style="stroke: #000000; stroke-width: 0.8"/>
      </g>
     </g>
     <g id="text_13">
      <!-- 47 -->
      <g transform="translate(839.923841 477.326379) rotate(-45) scale(0.1 -0.1)">
       <defs>
        <path id="DejaVuSans-37" d="M 525 4666 
L 3525 4666 
L 3525 4397 
L 1831 0 
L 1172 0 
L 2766 4134 
L 525 4134 
L 525 4666 
z
" transform="scale(0.015625)"/>
       </defs>
       <use xlink:href="#DejaVuSans-34"/>
       <use xlink:href="#DejaVuSans-37" transform="translate(63.623047 0)"/>
      </g>
     </g>
    </g>
    <g id="text_14">
     <!-- Game Minute -->
     <g transform="translate(421.048438 490.395378) scale(0.1 -0.1)">
      <defs>
       <path id="DejaVuSans-47" d="M 3809 666 
L 3809 1919 
L 2778 1919 
L 2778 2438 
L 4434 2438 
L 4434 434 
Q 4069 175 3628 42 
Q 3188 -91 2688 -91 
Q 1594 -91 976 548 
Q 359 1188 359 2328 
Q 359 3472 976 4111 
Q 1594 4750 2688 4750 
Q 3144 4750 3555 4637 
Q 3966 4525 4313 4306 
L 4313 3634 
Q 3963 3931 3569 4081 
Q 3175 4231 2741 4231 
Q 1884 4231 1454 3753 
Q 1025 3275 1025 2328 
Q 1025 1384 1454 906 
Q 1884 428 2741 428 
Q 3075 428 3337 486 
Q 3600 544 3809 666 
z
" transform="scale(0.015625)"/>
       <path id="DejaVuSans-61" d="M 2194 1759 
Q 1497 1759 1228 1600 
Q 959 1441 959 1056 
Q 959 750 1161 570 
Q 1363 391 1709 391 
Q 2188 391 2477 730 
Q 2766 1069 2766 1631 
L 2766 1759 
L 2194 1759 
z
M 3341 1997 
L 3341 0 
L 2766 0 
L 2766 531 
Q 2569 213 2275 61 
Q 1981 -91 1556 -91 
Q 1019 -91 701 211 
Q 384 513 384 1019 
Q 384 1609 779 1909 
Q 1175 2209 1959 2209 
L 2766 2209 
L 2766 2266 
Q 2766 2663 2505 2880 
Q 2244 3097 1772 3097 
Q 1472 3097 1187 3025 
Q 903 2953 641 2809 
L 641 3341 
Q 956 3463 1253 3523 
Q 1550 3584 1831 3584 
Q 2591 3584 2966 3190 
Q 3341 2797 3341 1997 
z
" transform="scale(0.015625)"/>
       <path id="DejaVuSans-6d" d="M 3328 2828 
Q 3544 3216 3844 3400 
Q 4144 3584 4550 3584 
Q 5097 3584 5394 3201 
Q 5691 2819 5691 2113 
L 5691 0 
L 5113 0 
L 5113 2094 
Q 5113 2597 4934 2840 
Q 4756 3084 4391 3084 
Q 3944 3084 3684 2787 
Q 3425 2491 3425 1978 
L 3425 0 
L 2847 0 
L 2847 2094 
Q 2847 2600 2669 2842 
Q 2491 3084 2119 3084 
Q 1678 3084 1418 2786 
Q 1159 2488 1159 1978 
L 1159 0 
L 581 0 
L 581 3500 
L 1159 3500 
L 1159 2956 
Q 1356 3278 1631 3431 
Q 1906 3584 2284 3584 
Q 2666 3584 2933 3390 
Q 3200 3197 3328 2828 
z
" transform="scale(0.015625)"/>
       <path id="DejaVuSans-65" d="M 3597 1894 
L 3597 1613 
L 953 1613 
Q 991 1019 1311 708 
Q 1631 397 2203 397 
Q 2534 397 2845 478 
Q 3156 559 3463 722 
L 3463 178 
Q 3153 47 2828 -22 
Q 2503 -91 2169 -91 
Q 1331 -91 842 396 
Q 353 884 353 1716 
Q 353 2575 817 3079 
Q 1281 3584 2069 3584 
Q 2775 3584 3186 3129 
Q 3597 2675 3597 1894 
z
M 3022 2063 
Q 3016 2534 2758 2815 
Q 2500 3097 2075 3097 
Q 1594 3097 1305 2825 
Q 1016 2553 972 2059 
L 3022 2063 
z
" transform="scale(0.015625)"/>
       <path id="DejaVuSans-20" transform="scale(0.015625)"/>
       <path id="DejaVuSans-4d" d="M 628 4666 
L 1569 4666 
L 2759 1491 
L 3956 4666 
L 4897 4666 
L 4897 0 
L 4281 0 
L 4281 4097 
L 3078 897 
L 2444 897 
L 1241 4097 
L 1241 0 
L 628 0 
L 628 4666 
z
" transform="scale(0.015625)"/>
       <path id="DejaVuSans-69" d="M 603 3500 
L 1178 3500 
L 1178 0 
L 603 0 
L 603 3500 
z
M 603 4863 
L 1178 4863 
L 1178 4134 
L 603 4134 
L 603 4863 
z
" transform="scale(0.015625)"/>
       <path id="DejaVuSans-6e" d="M 3513 2113 
L 3513 0 
L 2938 0 
L 2938 2094 
Q 2938 2591 2744 2837 
Q 2550 3084 2163 3084 
Q 1697 3084 1428 2787 
Q 1159 2491 1159 1978 
L 1159 0 
L 581 0 
L 581 3500 
L 1159 3500 
L 1159 2956 
Q 1366 3272 1645 3428 
Q 1925 3584 2291 3584 
Q 2894 3584 3203 3211 
Q 3513 2838 3513 2113 
z
" transform="scale(0.015625)"/>
       <path id="DejaVuSans-75" d="M 544 1381 
L 544 3500 
L 1119 3500 
L 1119 1403 
Q 1119 906 1312 657 
Q 1506 409 1894 409 
Q 2359 409 2629 706 
Q 2900 1003 2900 1516 
L 2900 3500 
L 3475 3500 
L 3475 0 
L 2900 0 
L 2900 538 
Q 2691 219 2414 64 
Q 2138 -91 1772 -91 
Q 1169 -91 856 284 
Q 544 659 544 1381 
z
M 1991 3584 
L 1991 3584 
z
" transform="scale(0.015625)"/>
       <path id="DejaVuSans-74" d="M 1172 4494 
L 1172 3500 
L 2356 3500 
L 2356 3053 
L 1172 3053 
L 1172 1153 
Q 1172 725 1289 603 
Q 1406 481 1766 481 
L 2356 481 
L 2356 0 
L 1766 0 
Q 1100 0 847 248 
Q 594 497 594 1153 
L 594 3053 
L 172 3053 
L 172 3500 
L 594 3500 
L 594 4494 
L 1172 4494 
z
" transform="scale(0.015625)"/>
      </defs>
      <use xlink:href="#DejaVuSans-47"/>
      <use xlink:href="#DejaVuSans-61" transform="translate(77.490234 0)"/>
      <use xlink:href="#DejaVuSans-6d" transform="translate(138.769531 0)"/>
      <use xlink:href="#DejaVuSans-65" transform="translate(236.181641 0)"/>
      <use xlink:href="#DejaVuSans-20" transform="translate(297.705078 0)"/>
      <use xlink:href="#DejaVuSans-4d" transform="translate(329.492188 0)"/>
      <use xlink:href="#DejaVuSans-69" transform="translate(415.771484 0)"/>
      <use xlink:href="#DejaVuSans-6e" transform="translate(443.554688 0)"/>
      <use xlink:href="#DejaVuSans-75" transform="translate(506.933594 0)"/>
      <use xlink:href="#DejaVuSans-74" transform="translate(570.3125 0)"/>
      <use xlink:href="#DejaVuSans-65" transform="translate(609.521484 0)"/>
     </g>
    </g>
   </g>
   <g id="matplotlib.axis_2">
    <g id="ytick_1">
     <g id="line2d_49">
      <defs>
       <path id="mde69051ba3" d="M 0 0 
L -3.5 0 
" style="stroke: #000000; stroke-width: 0.8"/>
      </defs>
      <g>
       <use xlink:href="#mde69051ba3" x="56" y="416.948672" style="stroke: #000000; stroke-width: 0.8"/>
      </g>
     </g>
     <g id="text_15">
      <!-- 5.0 -->
      <g transform="translate(24.717187 420.747891) scale(0.1 -0.1)">
       <defs>
        <path id="DejaVuSans-2212" d="M 678 2272 
L 4684 2272 
L 4684 1741 
L 678 1741 
L 678 2272 
z
" transform="scale(0.015625)"/>
        <path id="DejaVuSans-2e" d="M 684 794 
L 1344 794 
L 1344 0 
L 684 0 
L 684 794 
z
" transform="scale(0.015625)"/>
       </defs>
       <use xlink:href="#DejaVuSans-2212"/>
       <use xlink:href="#DejaVuSans-35" transform="translate(83.789062 0)"/>
       <use xlink:href="#DejaVuSans-2e" transform="translate(147.412109 0)"/>
       <use xlink:href="#DejaVuSans-30" transform="translate(179.199219 0)"/>
      </g>
     </g>
    </g>
    <g id="ytick_2">
     <g id="line2d_50">
      <g>
       <use xlink:href="#mde69051ba3" x="56" y="368.190088" style="stroke: #000000; stroke-width: 0.8"/>
      </g>
     </g>
     <g id="text_16">
      <!-- 2.5 -->
      <g transform="translate(24.717187 371.989307) scale(0.1 -0.1)">
       <use xlink:href="#DejaVuSans-2212"/>
       <use xlink:href="#DejaVuSans-32" transform="translate(83.789062 0)"/>
       <use xlink:href="#DejaVuSans-2e" transform="translate(147.412109 0)"/>
       <use xlink:href="#DejaVuSans-35" transform="translate(179.199219 0)"/>
      </g>
     </g>
    </g>
    <g id="ytick_3">
     <g id="line2d_51">
      <g>
       <use xlink:href="#mde69051ba3" x="56" y="319.431504" style="stroke: #000000; stroke-width: 0.8"/>
      </g>
     </g>
     <g id="text_17">
      <!-- 0.0 -->
      <g transform="translate(33.096875 323.230723) scale(0.1 -0.1)">
       <use xlink:href="#DejaVuSans-30"/>
       <use xlink:href="#DejaVuSans-2e" transform="translate(63.623047 0)"/>
       <use xlink:href="#DejaVuSans-30" transform="translate(95.410156 0)"/>
      </g>
     </g>
    </g>
    <g id="ytick_4">
     <g id="line2d_52">
      <g>
       <use xlink:href="#mde69051ba3" x="56" y="270.67292" style="stroke: #000000; stroke-width: 0.8"/>
      </g>
     </g>
     <g id="text_18">
      <!-- 2.5 -->
      <g transform="translate(33.096875 274.472139) scale(0.1 -0.1)">
       <use xlink:href="#DejaVuSans-32"/>
       <use xlink:href="#DejaVuSans-2e" transform="translate(63.623047 0)"/>
       <use xlink:href="#DejaVuSans-35" transform="translate(95.410156 0)"/>
      </g>
     </g>
    </g>
    <g id="ytick_5">
     <g id="line2d_53">
      <g>
       <use xlink:href="#mde69051ba3" x="56" y="221.914336" style="stroke: #000000; stroke-width: 0.8"/>
      </g>
     </g>
     <g id="text_19">
      <!-- 5.0 -->
      <g transform="translate(33.096875 225.713555) scale(0.1 -0.1)">
       <use xlink:href="#DejaVuSans-35"/>
       <use xlink:href="#DejaVuSans-2e" transform="translate(63.623047 0)"/>
       <use xlink:href="#DejaVuSans-30" transform="translate(95.410156 0)"/>
      </g>
     </g>
    </g>
    <g id="ytick_6">
     <g id="line2d_54">
      <g>
       <use xlink:href="#mde69051ba3" x="56" y="173.155752" style="stroke: #000000; stroke-width: 0.8"/>
      </g>
     </g>
     <g id="text_20">
      <!-- 7.5 -->
      <g transform="translate(33.096875 176.954971) scale(0.1 -0.1)">
       <use xlink:href="#DejaVuSans-37"/>
       <use xlink:href="#DejaVuSans-2e" transform="translate(63.623047 0)"/>
       <use xlink:href="#DejaVuSans-35" transform="translate(95.410156 0)"/>
      </g>
     </g>
    </g>
    <g id="ytick_7">
     <g id="line2d_55">
      <g>
       <use xlink:href="#mde69051ba3" x="56" y="124.397168" style="stroke: #000000; stroke-width: 0.8"/>
      </g>
     </g>
     <g id="text_21">
      <!-- 10.0 -->
      <g transform="translate(26.734375 128.196387) scale(0.1 -0.1)">
       <use xlink:href="#DejaVuSans-31"/>
       <use xlink:href="#DejaVuSans-30" transform="translate(63.623047 0)"/>
       <use xlink:href="#DejaVuSans-2e" transform="translate(127.246094 0)"/>
       <use xlink:href="#DejaVuSans-30" transform="translate(159.033203 0)"/>
      </g>
     </g>
    </g>
    <g id="ytick_8">
     <g id="line2d_56">
      <g>
       <use xlink:href="#mde69051ba3" x="56" y="75.638584" style="stroke: #000000; stroke-width: 0.8"/>
      </g>
     </g>
     <g id="text_22">
      <!-- 12.5 -->
      <g transform="translate(26.734375 79.437803) scale(0.1 -0.1)">
       <use xlink:href="#DejaVuSans-31"/>
       <use xlink:href="#DejaVuSans-32" transform="translate(63.623047 0)"/>
       <use xlink:href="#DejaVuSans-2e" transform="translate(127.246094 0)"/>
       <use xlink:href="#DejaVuSans-35" transform="translate(159.033203 0)"/>
      </g>
     </g>
    </g>
    <g id="ytick_9">
     <g id="line2d_57">
      <g>
       <use xlink:href="#mde69051ba3" x="56" y="26.88" style="stroke: #000000; stroke-width: 0.8"/>
      </g>
     </g>
     <g id="text_23">
      <!-- 15.0 -->
      <g transform="translate(26.734375 30.679219) scale(0.1 -0.1)">
       <use xlink:href="#DejaVuSans-31"/>
       <use xlink:href="#DejaVuSans-35" transform="translate(63.623047 0)"/>
       <use xlink:href="#DejaVuSans-2e" transform="translate(127.246094 0)"/>
       <use xlink:href="#DejaVuSans-30" transform="translate(159.033203 0)"/>
      </g>
     </g>
    </g>
    <g id="text_24">
     <!-- Point Difference -->
     <g transform="translate(18.6375 281.267769) rotate(-90) scale(0.1 -0.1)">
      <defs>
       <path id="DejaVuSans-50" d="M 1259 4147 
L 1259 2394 
L 2053 2394 
Q 2494 2394 2734 2622 
Q 2975 2850 2975 3272 
Q 2975 3691 2734 3919 
Q 2494 4147 2053 4147 
L 1259 4147 
z
M 628 4666 
L 2053 4666 
Q 2838 4666 3239 4311 
Q 3641 3956 3641 3272 
Q 3641 2581 3239 2228 
Q 2838 1875 2053 1875 
L 1259 1875 
L 1259 0 
L 628 0 
L 628 4666 
z
" transform="scale(0.015625)"/>
       <path id="DejaVuSans-6f" d="M 1959 3097 
Q 1497 3097 1228 2736 
Q 959 2375 959 1747 
Q 959 1119 1226 758 
Q 1494 397 1959 397 
Q 2419 397 2687 759 
Q 2956 1122 2956 1747 
Q 2956 2369 2687 2733 
Q 2419 3097 1959 3097 
z
M 1959 3584 
Q 2709 3584 3137 3096 
Q 3566 2609 3566 1747 
Q 3566 888 3137 398 
Q 2709 -91 1959 -91 
Q 1206 -91 779 398 
Q 353 888 353 1747 
Q 353 2609 779 3096 
Q 1206 3584 1959 3584 
z
" transform="scale(0.015625)"/>
       <path id="DejaVuSans-44" d="M 1259 4147 
L 1259 519 
L 2022 519 
Q 2988 519 3436 956 
Q 3884 1394 3884 2338 
Q 3884 3275 3436 3711 
Q 2988 4147 2022 4147 
L 1259 4147 
z
M 628 4666 
L 1925 4666 
Q 3281 4666 3915 4102 
Q 4550 3538 4550 2338 
Q 4550 1131 3912 565 
Q 3275 0 1925 0 
L 628 0 
L 628 4666 
z
" transform="scale(0.015625)"/>
       <path id="DejaVuSans-66" d="M 2375 4863 
L 2375 4384 
L 1825 4384 
Q 1516 4384 1395 4259 
Q 1275 4134 1275 3809 
L 1275 3500 
L 2222 3500 
L 2222 3053 
L 1275 3053 
L 1275 0 
L 697 0 
L 697 3053 
L 147 3053 
L 147 3500 
L 697 3500 
L 697 3744 
Q 697 4328 969 4595 
Q 1241 4863 1831 4863 
L 2375 4863 
z
" transform="scale(0.015625)"/>
       <path id="DejaVuSans-72" d="M 2631 2963 
Q 2534 3019 2420 3045 
Q 2306 3072 2169 3072 
Q 1681 3072 1420 2755 
Q 1159 2438 1159 1844 
L 1159 0 
L 581 0 
L 581 3500 
L 1159 3500 
L 1159 2956 
Q 1341 3275 1631 3429 
Q 1922 3584 2338 3584 
Q 2397 3584 2469 3576 
Q 2541 3569 2628 3553 
L 2631 2963 
z
" transform="scale(0.015625)"/>
       <path id="DejaVuSans-63" d="M 3122 3366 
L 3122 2828 
Q 2878 2963 2633 3030 
Q 2388 3097 2138 3097 
Q 1578 3097 1268 2742 
Q 959 2388 959 1747 
Q 959 1106 1268 751 
Q 1578 397 2138 397 
Q 2388 397 2633 464 
Q 2878 531 3122 666 
L 3122 134 
Q 2881 22 2623 -34 
Q 2366 -91 2075 -91 
Q 1284 -91 818 406 
Q 353 903 353 1747 
Q 353 2603 823 3093 
Q 1294 3584 2113 3584 
Q 2378 3584 2631 3529 
Q 2884 3475 3122 3366 
z
" transform="scale(0.015625)"/>
      </defs>
      <use xlink:href="#DejaVuSans-50"/>
      <use xlink:href="#DejaVuSans-6f" transform="translate(56.677734 0)"/>
      <use xlink:href="#DejaVuSans-69" transform="translate(117.859375 0)"/>
      <use xlink:href="#DejaVuSans-6e" transform="translate(145.642578 0)"/>
      <use xlink:href="#DejaVuSans-74" transform="translate(209.021484 0)"/>
      <use xlink:href="#DejaVuSans-20" transform="translate(248.230469 0)"/>
      <use xlink:href="#DejaVuSans-44" transform="translate(280.017578 0)"/>
      <use xlink:href="#DejaVuSans-69" transform="translate(357.019531 0)"/>
      <use xlink:href="#DejaVuSans-66" transform="translate(384.802734 0)"/>
      <use xlink:href="#DejaVuSans-66" transform="translate(420.007812 0)"/>
      <use xlink:href="#DejaVuSans-65" transform="translate(455.212891 0)"/>
      <use xlink:href="#DejaVuSans-72" transform="translate(516.736328 0)"/>
      <use xlink:href="#DejaVuSans-65" transform="translate(555.599609 0)"/>
      <use xlink:href="#DejaVuSans-6e" transform="translate(617.123047 0)"/>
      <use xlink:href="#DejaVuSans-63" transform="translate(680.501953 0)"/>
      <use xlink:href="#DejaVuSans-65" transform="translate(735.482422 0)"/>
     </g>
    </g>
   </g>
   <g id="line2d_58">
    <path d="M 56 319.431504 
L 853.2 319.431504 
" clip-path="url(#p12bdc6cae3)" style="fill: none; stroke: #808080; stroke-width: 0.8; stroke-linecap: square"/>
   </g>
   <g id="patch_147">
    <path d="M 56 455.955539 
L 56 26.88 
" style="fill: none; stroke: #000000; stroke-width: 0.8; stroke-linejoin: miter; stroke-linecap: square"/>
   </g>
   <g id="patch_148">
    <path d="M 853.2 455.955539 
L 853.2 26.88 
" style="fill: none; stroke: #000000; stroke-width: 0.8; stroke-linejoin: miter; stroke-linecap: square"/>
   </g>
   <g id="patch_149">
    <path d="M 56 455.955539 
L 853.2 455.955539 
" style="fill: none; stroke: #000000; stroke-width: 0.8; stroke-linejoin: miter; stroke-linecap: square"/>
   </g>
   <g id="patch_150">
    <path d="M 56 26.88 
L 853.2 26.88 
" style="fill: none; stroke: #000000; stroke-width: 0.8; stroke-linejoin: miter; stroke-linecap: square"/>
   </g>
   <g id="text_25">
    <!-- Jeff Dowtin Point Difference (24-25 vs 23-24) -->
    <g transform="translate(320.311563 20.88) scale(0.12 -0.12)">
     <defs>
      <path id="DejaVuSans-4a" d="M 628 4666 
L 1259 4666 
L 1259 325 
Q 1259 -519 939 -900 
Q 619 -1281 -91 -1281 
L -331 -1281 
L -331 -750 
L -134 -750 
Q 284 -750 456 -515 
Q 628 -281 628 325 
L 628 4666 
z
" transform="scale(0.015625)"/>
      <path id="DejaVuSans-77" d="M 269 3500 
L 844 3500 
L 1563 769 
L 2278 3500 
L 2956 3500 
L 3675 769 
L 4391 3500 
L 4966 3500 
L 4050 0 
L 3372 0 
L 2619 2869 
L 1863 0 
L 1184 0 
L 269 3500 
z
" transform="scale(0.015625)"/>
      <path id="DejaVuSans-28" d="M 1984 4856 
Q 1566 4138 1362 3434 
Q 1159 2731 1159 2009 
Q 1159 1288 1364 580 
Q 1569 -128 1984 -844 
L 1484 -844 
Q 1016 -109 783 600 
Q 550 1309 550 2009 
Q 550 2706 781 3412 
Q 1013 4119 1484 4856 
L 1984 4856 
z
" transform="scale(0.015625)"/>
      <path id="DejaVuSans-2d" d="M 313 2009 
L 1997 2009 
L 1997 1497 
L 313 1497 
L 313 2009 
z
" transform="scale(0.015625)"/>
      <path id="DejaVuSans-76" d="M 191 3500 
L 800 3500 
L 1894 563 
L 2988 3500 
L 3597 3500 
L 2284 0 
L 1503 0 
L 191 3500 
z
" transform="scale(0.015625)"/>
      <path id="DejaVuSans-73" d="M 2834 3397 
L 2834 2853 
Q 2591 2978 2328 3040 
Q 2066 3103 1784 3103 
Q 1356 3103 1142 2972 
Q 928 2841 928 2578 
Q 928 2378 1081 2264 
Q 1234 2150 1697 2047 
L 1894 2003 
Q 2506 1872 2764 1633 
Q 3022 1394 3022 966 
Q 3022 478 2636 193 
Q 2250 -91 1575 -91 
Q 1294 -91 989 -36 
Q 684 19 347 128 
L 347 722 
Q 666 556 975 473 
Q 1284 391 1588 391 
Q 1994 391 2212 530 
Q 2431 669 2431 922 
Q 2431 1156 2273 1281 
Q 2116 1406 1581 1522 
L 1381 1569 
Q 847 1681 609 1914 
Q 372 2147 372 2553 
Q 372 3047 722 3315 
Q 1072 3584 1716 3584 
Q 2034 3584 2315 3537 
Q 2597 3491 2834 3397 
z
" transform="scale(0.015625)"/>
      <path id="DejaVuSans-29" d="M 513 4856 
L 1013 4856 
Q 1481 4119 1714 3412 
Q 1947 2706 1947 2009 
Q 1947 1309 1714 600 
Q 1481 -109 1013 -844 
L 513 -844 
Q 928 -128 1133 580 
Q 1338 1288 1338 2009 
Q 1338 2731 1133 3434 
Q 928 4138 513 4856 
z
" transform="scale(0.015625)"/>
     </defs>
     <use xlink:href="#DejaVuSans-4a"/>
     <use xlink:href="#DejaVuSans-65" transform="translate(29.492188 0)"/>
     <use xlink:href="#DejaVuSans-66" transform="translate(91.015625 0)"/>
     <use xlink:href="#DejaVuSans-66" transform="translate(126.220703 0)"/>
     <use xlink:href="#DejaVuSans-20" transform="translate(161.425781 0)"/>
     <use xlink:href="#DejaVuSans-44" transform="translate(193.212891 0)"/>
     <use xlink:href="#DejaVuSans-6f" transform="translate(270.214844 0)"/>
     <use xlink:href="#DejaVuSans-77" transform="translate(331.396484 0)"/>
     <use xlink:href="#DejaVuSans-74" transform="translate(413.183594 0)"/>
     <use xlink:href="#DejaVuSans-69" transform="translate(452.392578 0)"/>
     <use xlink:href="#DejaVuSans-6e" transform="translate(480.175781 0)"/>
     <use xlink:href="#DejaVuSans-20" transform="translate(543.554688 0)"/>
     <use xlink:href="#DejaVuSans-50" transform="translate(575.341797 0)"/>
     <use xlink:href="#DejaVuSans-6f" transform="translate(632.019531 0)"/>
     <use xlink:href="#DejaVuSans-69" transform="translate(693.201172 0)"/>
     <use xlink:href="#DejaVuSans-6e" transform="translate(720.984375 0)"/>
     <use xlink:href="#DejaVuSans-74" transform="translate(784.363281 0)"/>
     <use xlink:href="#DejaVuSans-20" transform="translate(823.572266 0)"/>
     <use xlink:href="#DejaVuSans-44" transform="translate(855.359375 0)"/>
     <use xlink:href="#DejaVuSans-69" transform="translate(932.361328 0)"/>
     <use xlink:href="#DejaVuSans-66" transform="translate(960.144531 0)"/>
     <use xlink:href="#DejaVuSans-66" transform="translate(995.349609 0)"/>
     <use xlink:href="#DejaVuSans-65" transform="translate(1030.554688 0)"/>
     <use xlink:href="#DejaVuSans-72" transform="translate(1092.078125 0)"/>
     <use xlink:href="#DejaVuSans-65" transform="translate(1130.941406 0)"/>
     <use xlink:href="#DejaVuSans-6e" transform="translate(1192.464844 0)"/>
     <use xlink:href="#DejaVuSans-63" transform="translate(1255.84375 0)"/>
     <use xlink:href="#DejaVuSans-65" transform="translate(1310.824219 0)"/>
     <use xlink:href="#DejaVuSans-20" transform="translate(1372.347656 0)"/>
     <use xlink:href="#DejaVuSans-28" transform="translate(1404.134766 0)"/>
     <use xlink:href="#DejaVuSans-32" transform="translate(1443.148438 0)"/>
     <use xlink:href="#DejaVuSans-34" transform="translate(1506.771484 0)"/>
     <use xlink:href="#DejaVuSans-2d" transform="translate(1570.394531 0)"/>
     <use xlink:href="#DejaVuSans-32" transform="translate(1606.478516 0)"/>
     <use xlink:href="#DejaVuSans-35" transform="translate(1670.101562 0)"/>
     <use xlink:href="#DejaVuSans-20" transform="translate(1733.724609 0)"/>
     <use xlink:href="#DejaVuSans-76" transform="translate(1765.511719 0)"/>
     <use xlink:href="#DejaVuSans-73" transform="translate(1824.691406 0)"/>
     <use xlink:href="#DejaVuSans-20" transform="translate(1876.791016 0)"/>
     <use xlink:href="#DejaVuSans-32" transform="translate(1908.578125 0)"/>
     <use xlink:href="#DejaVuSans-33" transform="translate(1972.201172 0)"/>
     <use xlink:href="#DejaVuSans-2d" transform="translate(2035.824219 0)"/>
     <use xlink:href="#DejaVuSans-32" transform="translate(2071.908203 0)"/>
     <use xlink:href="#DejaVuSans-34" transform="translate(2135.53125 0)"/>
     <use xlink:href="#DejaVuSans-29" transform="translate(2199.154297 0)"/>
    </g>
   </g>
   <g id="legend_1">
    <g id="patch_151">
     <path d="M 793.33125 93.5925 
L 846.2 93.5925 
Q 848.2 93.5925 848.2 91.5925 
L 848.2 33.88 
Q 848.2 31.88 846.2 31.88 
L 793.33125 31.88 
Q 791.33125 31.88 791.33125 33.88 
L 791.33125 91.5925 
Q 791.33125 93.5925 793.33125 93.5925 
z
" style="fill: #ffffff; opacity: 0.8; stroke: #cccccc; stroke-linejoin: miter"/>
    </g>
    <g id="text_26">
     <!-- Shot Type -->
     <g transform="translate(795.33125 43.478437) scale(0.1 -0.1)">
      <defs>
       <path id="DejaVuSans-53" d="M 3425 4513 
L 3425 3897 
Q 3066 4069 2747 4153 
Q 2428 4238 2131 4238 
Q 1616 4238 1336 4038 
Q 1056 3838 1056 3469 
Q 1056 3159 1242 3001 
Q 1428 2844 1947 2747 
L 2328 2669 
Q 3034 2534 3370 2195 
Q 3706 1856 3706 1288 
Q 3706 609 3251 259 
Q 2797 -91 1919 -91 
Q 1588 -91 1214 -16 
Q 841 59 441 206 
L 441 856 
Q 825 641 1194 531 
Q 1563 422 1919 422 
Q 2459 422 2753 634 
Q 3047 847 3047 1241 
Q 3047 1584 2836 1778 
Q 2625 1972 2144 2069 
L 1759 2144 
Q 1053 2284 737 2584 
Q 422 2884 422 3419 
Q 422 4038 858 4394 
Q 1294 4750 2059 4750 
Q 2388 4750 2728 4690 
Q 3069 4631 3425 4513 
z
" transform="scale(0.015625)"/>
       <path id="DejaVuSans-68" d="M 3513 2113 
L 3513 0 
L 2938 0 
L 2938 2094 
Q 2938 2591 2744 2837 
Q 2550 3084 2163 3084 
Q 1697 3084 1428 2787 
Q 1159 2491 1159 1978 
L 1159 0 
L 581 0 
L 581 4863 
L 1159 4863 
L 1159 2956 
Q 1366 3272 1645 3428 
Q 1925 3584 2291 3584 
Q 2894 3584 3203 3211 
Q 3513 2838 3513 2113 
z
" transform="scale(0.015625)"/>
       <path id="DejaVuSans-54" d="M -19 4666 
L 3928 4666 
L 3928 4134 
L 2272 4134 
L 2272 0 
L 1638 0 
L 1638 4134 
L -19 4134 
L -19 4666 
z
" transform="scale(0.015625)"/>
       <path id="DejaVuSans-79" d="M 2059 -325 
Q 1816 -950 1584 -1140 
Q 1353 -1331 966 -1331 
L 506 -1331 
L 506 -850 
L 844 -850 
Q 1081 -850 1212 -737 
Q 1344 -625 1503 -206 
L 1606 56 
L 191 3500 
L 800 3500 
L 1894 763 
L 2988 3500 
L 3597 3500 
L 2059 -325 
z
" transform="scale(0.015625)"/>
       <path id="DejaVuSans-70" d="M 1159 525 
L 1159 -1331 
L 581 -1331 
L 581 3500 
L 1159 3500 
L 1159 2969 
Q 1341 3281 1617 3432 
Q 1894 3584 2278 3584 
Q 2916 3584 3314 3078 
Q 3713 2572 3713 1747 
Q 3713 922 3314 415 
Q 2916 -91 2278 -91 
Q 1894 -91 1617 61 
Q 1341 213 1159 525 
z
M 3116 1747 
Q 3116 2381 2855 2742 
Q 2594 3103 2138 3103 
Q 1681 3103 1420 2742 
Q 1159 2381 1159 1747 
Q 1159 1113 1420 752 
Q 1681 391 2138 391 
Q 2594 391 2855 752 
Q 3116 1113 3116 1747 
z
" transform="scale(0.015625)"/>
      </defs>
      <use xlink:href="#DejaVuSans-53"/>
      <use xlink:href="#DejaVuSans-68" transform="translate(63.476562 0)"/>
      <use xlink:href="#DejaVuSans-6f" transform="translate(126.855469 0)"/>
      <use xlink:href="#DejaVuSans-74" transform="translate(188.037109 0)"/>
      <use xlink:href="#DejaVuSans-20" transform="translate(227.246094 0)"/>
      <use xlink:href="#DejaVuSans-54" transform="translate(259.033203 0)"/>
      <use xlink:href="#DejaVuSans-79" transform="translate(304.492188 0)"/>
      <use xlink:href="#DejaVuSans-70" transform="translate(363.671875 0)"/>
      <use xlink:href="#DejaVuSans-65" transform="translate(427.148438 0)"/>
     </g>
    </g>
    <g id="patch_152">
     <path d="M 796.515625 58.156563 
L 816.515625 58.156563 
L 816.515625 51.156563 
L 796.515625 51.156563 
z
" style="fill: #ffc107"/>
    </g>
    <g id="text_27">
     <!-- FT -->
     <g transform="translate(824.515625 58.156563) scale(0.1 -0.1)">
      <defs>
       <path id="DejaVuSans-46" d="M 628 4666 
L 3309 4666 
L 3309 4134 
L 1259 4134 
L 1259 2759 
L 3109 2759 
L 3109 2228 
L 1259 2228 
L 1259 0 
L 628 0 
L 628 4666 
z
" transform="scale(0.015625)"/>
      </defs>
      <use xlink:href="#DejaVuSans-46"/>
      <use xlink:href="#DejaVuSans-54" transform="translate(55.769531 0)"/>
     </g>
    </g>
    <g id="patch_153">
     <path d="M 796.515625 72.834688 
L 816.515625 72.834688 
L 816.515625 65.834688 
L 796.515625 65.834688 
z
" style="fill: #2196f3"/>
    </g>
    <g id="text_28">
     <!-- 2PT -->
     <g transform="translate(824.515625 72.834688) scale(0.1 -0.1)">
      <use xlink:href="#DejaVuSans-32"/>
      <use xlink:href="#DejaVuSans-50" transform="translate(63.623047 0)"/>
      <use xlink:href="#DejaVuSans-54" transform="translate(123.925781 0)"/>
     </g>
    </g>
    <g id="patch_154">
     <path d="M 796.515625 87.512812 
L 816.515625 87.512812 
L 816.515625 80.512812 
L 796.515625 80.512812 
z
" style="fill: #4caf50"/>
    </g>
    <g id="text_29">
     <!-- 3PT -->
     <g transform="translate(824.515625 87.512812) scale(0.1 -0.1)">
      <use xlink:href="#DejaVuSans-33"/>
      <use xlink:href="#DejaVuSans-50" transform="translate(63.623047 0)"/>
      <use xlink:href="#DejaVuSans-54" transform="translate(123.925781 0)"/>
     </g>
    </g>
   </g>
  </g>
 </g>
 <defs>
  <clipPath id="p12bdc6cae3">
   <rect x="56" y="26.88" width="797.2" height="429.075539"/>
  </clipPath>
 </defs>
</svg>
