<?xml version="1.0" encoding="utf-8" standalone="no"?>
<!DOCTYPE svg PUBLIC "-//W3C//DTD SVG 1.1//EN"
  "http://www.w3.org/Graphics/SVG/1.1/DTD/svg11.dtd">
<svg xmlns:xlink="http://www.w3.org/1999/xlink" width="864pt" height="504pt" viewBox="0 0 864 504" xmlns="http://www.w3.org/2000/svg" version="1.1">
 <metadata>
  <rdf:RDF xmlns:dc="http://purl.org/dc/elements/1.1/" xmlns:cc="http://creativecommons.org/ns#" xmlns:rdf="http://www.w3.org/1999/02/22-rdf-syntax-ns#">
   <cc:Work>
    <dc:type rdf:resource="http://purl.org/dc/dcmitype/StillImage"/>
    <dc:date>2025-08-24T04:40:09.885943</dc:date>
    <dc:format>image/svg+xml</dc:format>
    <dc:creator>
     <cc:Agent>
      <dc:title>Matplotlib v3.10.5, https://matplotlib.org/</dc:title>
     </cc:Agent>
    </dc:creator>
   </cc:Work>
  </rdf:RDF>
 </metadata>
 <defs>
  <style type="text/css">*{stroke-linejoin: round; stroke-linecap: butt}</style>
 </defs>
 <g id="figure_1">
  <g id="patch_1">
   <path d="M 0 504 
L 864 504 
L 864 0 
L 0 0 
z
" style="fill: #ffffff"/>
  </g>
  <g id="axes_1">
   <g id="patch_2">
    <path d="M 59.24 455.955539 
L 853.2 455.955539 
L 853.2 26.88 
L 59.24 26.88 
z
" style="fill: #ffffff"/>
   </g>
   <g id="patch_3">
    <path d="M 63.349524 387.693521 
L 67.733016 387.693521 
L 67.733016 143.900602 
L 63.349524 143.900602 
z
" clip-path="url(#pb291ba9a12)" style="fill: #ffc107"/>
   </g>
   <g id="patch_4">
    <path d="M 79.787619 387.693521 
L 84.171111 387.693521 
L 84.171111 338.934937 
L 79.787619 338.934937 
z
" clip-path="url(#pb291ba9a12)" style="fill: #ffc107"/>
   </g>
   <g id="patch_5">
    <path d="M 96.225714 387.693521 
L 100.609206 387.693521 
L 100.609206 412.072813 
L 96.225714 412.072813 
z
" clip-path="url(#pb291ba9a12)" style="fill: #ffc107"/>
   </g>
   <g id="patch_6">
    <path d="M 112.66381 387.693521 
L 117.047302 387.693521 
L 117.047302 314.555645 
L 112.66381 314.555645 
z
" clip-path="url(#pb291ba9a12)" style="fill: #ffc107"/>
   </g>
   <g id="patch_7">
    <path d="M 129.101905 387.693521 
L 133.485397 387.693521 
L 133.485397 412.072813 
L 129.101905 412.072813 
z
" clip-path="url(#pb291ba9a12)" style="fill: #ffc107"/>
   </g>
   <g id="patch_8">
    <path d="M 145.54 387.693521 
L 149.923492 387.693521 
L 149.923492 387.693521 
L 145.54 387.693521 
z
" clip-path="url(#pb291ba9a12)" style="fill: #ffc107"/>
   </g>
   <g id="patch_9">
    <path d="M 161.978095 387.693521 
L 166.361587 387.693521 
L 166.361587 338.934937 
L 161.978095 338.934937 
z
" clip-path="url(#pb291ba9a12)" style="fill: #ffc107"/>
   </g>
   <g id="patch_10">
    <path d="M 178.41619 387.693521 
L 182.799683 387.693521 
L 182.799683 436.452105 
L 178.41619 436.452105 
z
" clip-path="url(#pb291ba9a12)" style="fill: #ffc107"/>
   </g>
   <g id="patch_11">
    <path d="M 194.854286 387.693521 
L 199.237778 387.693521 
L 199.237778 377.941805 
L 194.854286 377.941805 
z
" clip-path="url(#pb291ba9a12)" style="fill: #ffc107"/>
   </g>
   <g id="patch_12">
    <path d="M 211.292381 387.693521 
L 215.675873 387.693521 
L 215.675873 257.670631 
L 211.292381 257.670631 
z
" clip-path="url(#pb291ba9a12)" style="fill: #ffc107"/>
   </g>
   <g id="patch_13">
    <path d="M 227.730476 387.693521 
L 232.113968 387.693521 
L 232.113968 387.693521 
L 227.730476 387.693521 
z
" clip-path="url(#pb291ba9a12)" style="fill: #ffc107"/>
   </g>
   <g id="patch_14">
    <path d="M 244.168571 387.693521 
L 248.552063 387.693521 
L 248.552063 412.072813 
L 244.168571 412.072813 
z
" clip-path="url(#pb291ba9a12)" style="fill: #ffc107"/>
   </g>
   <g id="patch_15">
    <path d="M 260.606667 387.693521 
L 264.990159 387.693521 
L 264.990159 314.555645 
L 260.606667 314.555645 
z
" clip-path="url(#pb291ba9a12)" style="fill: #ffc107"/>
   </g>
   <g id="patch_16">
    <path d="M 277.044762 387.693521 
L 281.428254 387.693521 
L 281.428254 46.383434 
L 277.044762 46.383434 
z
" clip-path="url(#pb291ba9a12)" style="fill: #ffc107"/>
   </g>
   <g id="patch_17">
    <path d="M 293.482857 387.693521 
L 297.866349 387.693521 
L 297.866349 306.429215 
L 293.482857 306.429215 
z
" clip-path="url(#pb291ba9a12)" style="fill: #ffc107"/>
   </g>
   <g id="patch_18">
    <path d="M 309.920952 387.693521 
L 314.304444 387.693521 
L 314.304444 46.383434 
L 309.920952 46.383434 
z
" clip-path="url(#pb291ba9a12)" style="fill: #ffc107"/>
   </g>
   <g id="patch_19">
    <path d="M 326.359048 387.693521 
L 330.74254 387.693521 
L 330.74254 338.934937 
L 326.359048 338.934937 
z
" clip-path="url(#pb291ba9a12)" style="fill: #ffc107"/>
   </g>
   <g id="patch_20">
    <path d="M 342.797143 387.693521 
L 347.180635 387.693521 
L 347.180635 436.452105 
L 342.797143 436.452105 
z
" clip-path="url(#pb291ba9a12)" style="fill: #ffc107"/>
   </g>
   <g id="patch_21">
    <path d="M 359.235238 387.693521 
L 363.61873 387.693521 
L 363.61873 387.693521 
L 359.235238 387.693521 
z
" clip-path="url(#pb291ba9a12)" style="fill: #ffc107"/>
   </g>
   <g id="patch_22">
    <path d="M 375.673333 387.693521 
L 380.056825 387.693521 
L 380.056825 387.693521 
L 375.673333 387.693521 
z
" clip-path="url(#pb291ba9a12)" style="fill: #ffc107"/>
   </g>
   <g id="patch_23">
    <path d="M 392.111429 387.693521 
L 396.494921 387.693521 
L 396.494921 416.948672 
L 392.111429 416.948672 
z
" clip-path="url(#pb291ba9a12)" style="fill: #ffc107"/>
   </g>
   <g id="patch_24">
    <path d="M 408.549524 387.693521 
L 412.933016 387.693521 
L 412.933016 387.693521 
L 408.549524 387.693521 
z
" clip-path="url(#pb291ba9a12)" style="fill: #ffc107"/>
   </g>
   <g id="patch_25">
    <path d="M 424.987619 387.693521 
L 429.371111 387.693521 
L 429.371111 330.808507 
L 424.987619 330.808507 
z
" clip-path="url(#pb291ba9a12)" style="fill: #ffc107"/>
   </g>
   <g id="patch_26">
    <path d="M 441.425714 387.693521 
L 445.809206 387.693521 
L 445.809206 314.555645 
L 441.425714 314.555645 
z
" clip-path="url(#pb291ba9a12)" style="fill: #ffc107"/>
   </g>
   <g id="patch_27">
    <path d="M 457.86381 387.693521 
L 462.247302 387.693521 
L 462.247302 398.528762 
L 457.86381 398.528762 
z
" clip-path="url(#pb291ba9a12)" style="fill: #ffc107"/>
   </g>
   <g id="patch_28">
    <path d="M 474.301905 387.693521 
L 478.685397 387.693521 
L 478.685397 322.682076 
L 474.301905 322.682076 
z
" clip-path="url(#pb291ba9a12)" style="fill: #ffc107"/>
   </g>
   <g id="patch_29">
    <path d="M 490.74 387.693521 
L 495.123492 387.693521 
L 495.123492 387.693521 
L 490.74 387.693521 
z
" clip-path="url(#pb291ba9a12)" style="fill: #ffc107"/>
   </g>
   <g id="patch_30">
    <path d="M 507.178095 387.693521 
L 511.561587 387.693521 
L 511.561587 355.187799 
L 507.178095 355.187799 
z
" clip-path="url(#pb291ba9a12)" style="fill: #ffc107"/>
   </g>
   <g id="patch_31">
    <path d="M 523.61619 387.693521 
L 527.999683 387.693521 
L 527.999683 425.616865 
L 523.61619 425.616865 
z
" clip-path="url(#pb291ba9a12)" style="fill: #ffc107"/>
   </g>
   <g id="patch_32">
    <path d="M 540.054286 387.693521 
L 544.437778 387.693521 
L 544.437778 387.693521 
L 540.054286 387.693521 
z
" clip-path="url(#pb291ba9a12)" style="fill: #ffc107"/>
   </g>
   <g id="patch_33">
    <path d="M 556.492381 387.693521 
L 560.875873 387.693521 
L 560.875873 436.452105 
L 556.492381 436.452105 
z
" clip-path="url(#pb291ba9a12)" style="fill: #ffc107"/>
   </g>
   <g id="patch_34">
    <path d="M 572.930476 387.693521 
L 577.313968 387.693521 
L 577.313968 387.693521 
L 572.930476 387.693521 
z
" clip-path="url(#pb291ba9a12)" style="fill: #ffc107"/>
   </g>
   <g id="patch_35">
    <path d="M 589.368571 387.693521 
L 593.752063 387.693521 
L 593.752063 217.038478 
L 589.368571 217.038478 
z
" clip-path="url(#pb291ba9a12)" style="fill: #ffc107"/>
   </g>
   <g id="patch_36">
    <path d="M 605.806667 387.693521 
L 610.190159 387.693521 
L 610.190159 363.314229 
L 605.806667 363.314229 
z
" clip-path="url(#pb291ba9a12)" style="fill: #ffc107"/>
   </g>
   <g id="patch_37">
    <path d="M 622.244762 387.693521 
L 626.628254 387.693521 
L 626.628254 298.302784 
L 622.244762 298.302784 
z
" clip-path="url(#pb291ba9a12)" style="fill: #ffc107"/>
   </g>
   <g id="patch_38">
    <path d="M 638.682857 387.693521 
L 643.066349 387.693521 
L 643.066349 358.438371 
L 638.682857 358.438371 
z
" clip-path="url(#pb291ba9a12)" style="fill: #ffc107"/>
   </g>
   <g id="patch_39">
    <path d="M 655.120952 387.693521 
L 659.504444 387.693521 
L 659.504444 208.912047 
L 655.120952 208.912047 
z
" clip-path="url(#pb291ba9a12)" style="fill: #ffc107"/>
   </g>
   <g id="patch_40">
    <path d="M 671.559048 387.693521 
L 675.94254 387.693521 
L 675.94254 351.124583 
L 671.559048 351.124583 
z
" clip-path="url(#pb291ba9a12)" style="fill: #ffc107"/>
   </g>
   <g id="patch_41">
    <path d="M 687.997143 387.693521 
L 692.380635 387.693521 
L 692.380635 322.682076 
L 687.997143 322.682076 
z
" clip-path="url(#pb291ba9a12)" style="fill: #ffc107"/>
   </g>
   <g id="patch_42">
    <path d="M 704.435238 387.693521 
L 708.81873 387.693521 
L 708.81873 387.693521 
L 704.435238 387.693521 
z
" clip-path="url(#pb291ba9a12)" style="fill: #ffc107"/>
   </g>
   <g id="patch_43">
    <path d="M 720.873333 387.693521 
L 725.256825 387.693521 
L 725.256825 412.072813 
L 720.873333 412.072813 
z
" clip-path="url(#pb291ba9a12)" style="fill: #ffc107"/>
   </g>
   <g id="patch_44">
    <path d="M 737.311429 387.693521 
L 741.694921 387.693521 
L 741.694921 290.176353 
L 737.311429 290.176353 
z
" clip-path="url(#pb291ba9a12)" style="fill: #ffc107"/>
   </g>
   <g id="patch_45">
    <path d="M 753.749524 387.693521 
L 758.133016 387.693521 
L 758.133016 355.187799 
L 753.749524 355.187799 
z
" clip-path="url(#pb291ba9a12)" style="fill: #ffc107"/>
   </g>
   <g id="patch_46">
    <path d="M 770.187619 387.693521 
L 774.571111 387.693521 
L 774.571111 403.946383 
L 770.187619 403.946383 
z
" clip-path="url(#pb291ba9a12)" style="fill: #ffc107"/>
   </g>
   <g id="patch_47">
    <path d="M 786.625714 387.693521 
L 791.009206 387.693521 
L 791.009206 403.946383 
L 786.625714 403.946383 
z
" clip-path="url(#pb291ba9a12)" style="fill: #ffc107"/>
   </g>
   <g id="patch_48">
    <path d="M 803.06381 387.693521 
L 807.447302 387.693521 
L 807.447302 338.934937 
L 803.06381 338.934937 
z
" clip-path="url(#pb291ba9a12)" style="fill: #ffc107"/>
   </g>
   <g id="patch_49">
    <path d="M 819.501905 387.693521 
L 823.885397 387.693521 
L 823.885397 407.196955 
L 819.501905 407.196955 
z
" clip-path="url(#pb291ba9a12)" style="fill: #ffc107"/>
   </g>
   <g id="patch_50">
    <path d="M 835.94 387.693521 
L 840.323492 387.693521 
L 840.323492 412.072813 
L 835.94 412.072813 
z
" clip-path="url(#pb291ba9a12)" style="fill: #ffc107"/>
   </g>
   <g id="patch_51">
    <path d="M 67.733016 387.693521 
L 72.116508 387.693521 
L 72.116508 357.219406 
L 67.733016 357.219406 
z
" clip-path="url(#pb291ba9a12)" style="fill: #2196f3"/>
   </g>
   <g id="patch_52">
    <path d="M 84.171111 387.693521 
L 88.554603 387.693521 
L 88.554603 387.693521 
L 84.171111 387.693521 
z
" clip-path="url(#pb291ba9a12)" style="fill: #2196f3"/>
   </g>
   <g id="patch_53">
    <path d="M 100.609206 387.693521 
L 104.992698 387.693521 
L 104.992698 353.562513 
L 100.609206 353.562513 
z
" clip-path="url(#pb291ba9a12)" style="fill: #2196f3"/>
   </g>
   <g id="patch_54">
    <path d="M 117.047302 387.693521 
L 121.430794 387.693521 
L 121.430794 406.446823 
L 117.047302 406.446823 
z
" clip-path="url(#pb291ba9a12)" style="fill: #2196f3"/>
   </g>
   <g id="patch_55">
    <path d="M 133.485397 387.693521 
L 137.868889 387.693521 
L 137.868889 363.314229 
L 133.485397 363.314229 
z
" clip-path="url(#pb291ba9a12)" style="fill: #2196f3"/>
   </g>
   <g id="patch_56">
    <path d="M 149.923492 387.693521 
L 154.306984 387.693521 
L 154.306984 428.325675 
L 149.923492 428.325675 
z
" clip-path="url(#pb291ba9a12)" style="fill: #2196f3"/>
   </g>
   <g id="patch_57">
    <path d="M 166.361587 387.693521 
L 170.745079 387.693521 
L 170.745079 426.700389 
L 166.361587 426.700389 
z
" clip-path="url(#pb291ba9a12)" style="fill: #2196f3"/>
   </g>
   <g id="patch_58">
    <path d="M 182.799683 387.693521 
L 187.183175 387.693521 
L 187.183175 436.452105 
L 182.799683 436.452105 
z
" clip-path="url(#pb291ba9a12)" style="fill: #2196f3"/>
   </g>
   <g id="patch_59">
    <path d="M 199.237778 387.693521 
L 203.62127 387.693521 
L 203.62127 241.417769 
L 199.237778 241.417769 
z
" clip-path="url(#pb291ba9a12)" style="fill: #2196f3"/>
   </g>
   <g id="patch_60">
    <path d="M 215.675873 387.693521 
L 220.059365 387.693521 
L 220.059365 338.934937 
L 215.675873 338.934937 
z
" clip-path="url(#pb291ba9a12)" style="fill: #2196f3"/>
   </g>
   <g id="patch_61">
    <path d="M 232.113968 387.693521 
L 236.49746 387.693521 
L 236.49746 176.406324 
L 232.113968 176.406324 
z
" clip-path="url(#pb291ba9a12)" style="fill: #2196f3"/>
   </g>
   <g id="patch_62">
    <path d="M 248.552063 387.693521 
L 252.935556 387.693521 
L 252.935556 371.44066 
L 248.552063 371.44066 
z
" clip-path="url(#pb291ba9a12)" style="fill: #2196f3"/>
   </g>
   <g id="patch_63">
    <path d="M 264.990159 387.693521 
L 269.373651 387.693521 
L 269.373651 143.900602 
L 264.990159 143.900602 
z
" clip-path="url(#pb291ba9a12)" style="fill: #2196f3"/>
   </g>
   <g id="patch_64">
    <path d="M 281.428254 387.693521 
L 285.811746 387.693521 
L 285.811746 349.770178 
L 281.428254 349.770178 
z
" clip-path="url(#pb291ba9a12)" style="fill: #2196f3"/>
   </g>
   <g id="patch_65">
    <path d="M 297.866349 387.693521 
L 302.249841 387.693521 
L 302.249841 371.44066 
L 297.866349 371.44066 
z
" clip-path="url(#pb291ba9a12)" style="fill: #2196f3"/>
   </g>
   <g id="patch_66">
    <path d="M 314.304444 387.693521 
L 318.687937 387.693521 
L 318.687937 359.831473 
L 314.304444 359.831473 
z
" clip-path="url(#pb291ba9a12)" style="fill: #2196f3"/>
   </g>
   <g id="patch_67">
    <path d="M 330.74254 387.693521 
L 335.126032 387.693521 
L 335.126032 314.555645 
L 330.74254 314.555645 
z
" clip-path="url(#pb291ba9a12)" style="fill: #2196f3"/>
   </g>
   <g id="patch_68">
    <path d="M 347.180635 387.693521 
L 351.564127 387.693521 
L 351.564127 416.948672 
L 347.180635 416.948672 
z
" clip-path="url(#pb291ba9a12)" style="fill: #2196f3"/>
   </g>
   <g id="patch_69">
    <path d="M 363.61873 387.693521 
L 368.002222 387.693521 
L 368.002222 387.693521 
L 363.61873 387.693521 
z
" clip-path="url(#pb291ba9a12)" style="fill: #2196f3"/>
   </g>
   <g id="patch_70">
    <path d="M 380.056825 387.693521 
L 384.440317 387.693521 
L 384.440317 420.199244 
L 380.056825 420.199244 
z
" clip-path="url(#pb291ba9a12)" style="fill: #2196f3"/>
   </g>
   <g id="patch_71">
    <path d="M 396.494921 387.693521 
L 400.878413 387.693521 
L 400.878413 395.819952 
L 396.494921 395.819952 
z
" clip-path="url(#pb291ba9a12)" style="fill: #2196f3"/>
   </g>
   <g id="patch_72">
    <path d="M 412.933016 387.693521 
L 417.316508 387.693521 
L 417.316508 290.176353 
L 412.933016 290.176353 
z
" clip-path="url(#pb291ba9a12)" style="fill: #2196f3"/>
   </g>
   <g id="patch_73">
    <path d="M 429.371111 387.693521 
L 433.754603 387.693521 
L 433.754603 241.417769 
L 429.371111 241.417769 
z
" clip-path="url(#pb291ba9a12)" style="fill: #2196f3"/>
   </g>
   <g id="patch_74">
    <path d="M 445.809206 387.693521 
L 450.192698 387.693521 
L 450.192698 394.659033 
L 445.809206 394.659033 
z
" clip-path="url(#pb291ba9a12)" style="fill: #2196f3"/>
   </g>
   <g id="patch_75">
    <path d="M 462.247302 387.693521 
L 466.630794 387.693521 
L 466.630794 347.061368 
L 462.247302 347.061368 
z
" clip-path="url(#pb291ba9a12)" style="fill: #2196f3"/>
   </g>
   <g id="patch_76">
    <path d="M 478.685397 387.693521 
L 483.068889 387.693521 
L 483.068889 373.065946 
L 478.685397 373.065946 
z
" clip-path="url(#pb291ba9a12)" style="fill: #2196f3"/>
   </g>
   <g id="patch_77">
    <path d="M 495.123492 387.693521 
L 499.506984 387.693521 
L 499.506984 394.659033 
L 495.123492 394.659033 
z
" clip-path="url(#pb291ba9a12)" style="fill: #2196f3"/>
   </g>
   <g id="patch_78">
    <path d="M 511.561587 387.693521 
L 515.945079 387.693521 
L 515.945079 375.503875 
L 511.561587 375.503875 
z
" clip-path="url(#pb291ba9a12)" style="fill: #2196f3"/>
   </g>
   <g id="patch_79">
    <path d="M 527.999683 387.693521 
L 532.383175 387.693521 
L 532.383175 393.111142 
L 527.999683 393.111142 
z
" clip-path="url(#pb291ba9a12)" style="fill: #2196f3"/>
   </g>
   <g id="patch_80">
    <path d="M 544.437778 387.693521 
L 548.82127 387.693521 
L 548.82127 338.934937 
L 544.437778 338.934937 
z
" clip-path="url(#pb291ba9a12)" style="fill: #2196f3"/>
   </g>
   <g id="patch_81">
    <path d="M 560.875873 387.693521 
L 565.259365 387.693521 
L 565.259365 426.700389 
L 560.875873 426.700389 
z
" clip-path="url(#pb291ba9a12)" style="fill: #2196f3"/>
   </g>
   <g id="patch_82">
    <path d="M 577.313968 387.693521 
L 581.69746 387.693521 
L 581.69746 338.934937 
L 577.313968 338.934937 
z
" clip-path="url(#pb291ba9a12)" style="fill: #2196f3"/>
   </g>
   <g id="patch_83">
    <path d="M 593.752063 387.693521 
L 598.135556 387.693521 
L 598.135556 363.314229 
L 593.752063 363.314229 
z
" clip-path="url(#pb291ba9a12)" style="fill: #2196f3"/>
   </g>
   <g id="patch_84">
    <path d="M 610.190159 387.693521 
L 614.573651 387.693521 
L 614.573651 322.682076 
L 610.190159 322.682076 
z
" clip-path="url(#pb291ba9a12)" style="fill: #2196f3"/>
   </g>
   <g id="patch_85">
    <path d="M 626.628254 387.693521 
L 631.011746 387.693521 
L 631.011746 338.934937 
L 626.628254 338.934937 
z
" clip-path="url(#pb291ba9a12)" style="fill: #2196f3"/>
   </g>
   <g id="patch_86">
    <path d="M 643.066349 387.693521 
L 647.449841 387.693521 
L 647.449841 329.183221 
L 643.066349 329.183221 
z
" clip-path="url(#pb291ba9a12)" style="fill: #2196f3"/>
   </g>
   <g id="patch_87">
    <path d="M 659.504444 387.693521 
L 663.887937 387.693521 
L 663.887937 380.728009 
L 659.504444 380.728009 
z
" clip-path="url(#pb291ba9a12)" style="fill: #2196f3"/>
   </g>
   <g id="patch_88">
    <path d="M 675.94254 387.693521 
L 680.326032 387.693521 
L 680.326032 290.176353 
L 675.94254 290.176353 
z
" clip-path="url(#pb291ba9a12)" style="fill: #2196f3"/>
   </g>
   <g id="patch_89">
    <path d="M 692.380635 387.693521 
L 696.764127 387.693521 
L 696.764127 357.219406 
L 692.380635 357.219406 
z
" clip-path="url(#pb291ba9a12)" style="fill: #2196f3"/>
   </g>
   <g id="patch_90">
    <path d="M 708.81873 387.693521 
L 713.202222 387.693521 
L 713.202222 326.745291 
L 708.81873 326.745291 
z
" clip-path="url(#pb291ba9a12)" style="fill: #2196f3"/>
   </g>
   <g id="patch_91">
    <path d="M 725.256825 387.693521 
L 729.640317 387.693521 
L 729.640317 399.883167 
L 725.256825 399.883167 
z
" clip-path="url(#pb291ba9a12)" style="fill: #2196f3"/>
   </g>
   <g id="patch_92">
    <path d="M 741.694921 387.693521 
L 746.078413 387.693521 
L 746.078413 265.797061 
L 741.694921 265.797061 
z
" clip-path="url(#pb291ba9a12)" style="fill: #2196f3"/>
   </g>
   <g id="patch_93">
    <path d="M 758.133016 387.693521 
L 762.516508 387.693521 
L 762.516508 387.693521 
L 758.133016 387.693521 
z
" clip-path="url(#pb291ba9a12)" style="fill: #2196f3"/>
   </g>
   <g id="patch_94">
    <path d="M 774.571111 387.693521 
L 778.954603 387.693521 
L 778.954603 415.555569 
L 774.571111 415.555569 
z
" clip-path="url(#pb291ba9a12)" style="fill: #2196f3"/>
   </g>
   <g id="patch_95">
    <path d="M 791.009206 387.693521 
L 795.392698 387.693521 
L 795.392698 363.314229 
L 791.009206 363.314229 
z
" clip-path="url(#pb291ba9a12)" style="fill: #2196f3"/>
   </g>
   <g id="patch_96">
    <path d="M 807.447302 387.693521 
L 811.830794 387.693521 
L 811.830794 368.190088 
L 807.447302 368.190088 
z
" clip-path="url(#pb291ba9a12)" style="fill: #2196f3"/>
   </g>
   <g id="patch_97">
    <path d="M 823.885397 387.693521 
L 828.268889 387.693521 
L 828.268889 403.946383 
L 823.885397 403.946383 
z
" clip-path="url(#pb291ba9a12)" style="fill: #2196f3"/>
   </g>
   <g id="patch_98">
    <path d="M 840.323492 387.693521 
L 844.706984 387.693521 
L 844.706984 412.072813 
L 840.323492 412.072813 
z
" clip-path="url(#pb291ba9a12)" style="fill: #2196f3"/>
   </g>
   <g id="patch_99">
    <path d="M 72.116508 387.693521 
L 76.5 387.693521 
L 76.5 363.314229 
L 72.116508 363.314229 
z
" clip-path="url(#pb291ba9a12)" style="fill: #4caf50"/>
   </g>
   <g id="patch_100">
    <path d="M 88.554603 387.693521 
L 92.938095 387.693521 
L 92.938095 290.176353 
L 88.554603 290.176353 
z
" clip-path="url(#pb291ba9a12)" style="fill: #4caf50"/>
   </g>
   <g id="patch_101">
    <path d="M 104.992698 387.693521 
L 109.37619 387.693521 
L 109.37619 338.934937 
L 104.992698 338.934937 
z
" clip-path="url(#pb291ba9a12)" style="fill: #4caf50"/>
   </g>
   <g id="patch_102">
    <path d="M 121.430794 387.693521 
L 125.814286 387.693521 
L 125.814286 192.659186 
L 121.430794 192.659186 
z
" clip-path="url(#pb291ba9a12)" style="fill: #4caf50"/>
   </g>
   <g id="patch_103">
    <path d="M 137.868889 387.693521 
L 142.252381 387.693521 
L 142.252381 338.934937 
L 137.868889 338.934937 
z
" clip-path="url(#pb291ba9a12)" style="fill: #4caf50"/>
   </g>
   <g id="patch_104">
    <path d="M 154.306984 387.693521 
L 158.690476 387.693521 
L 158.690476 387.693521 
L 154.306984 387.693521 
z
" clip-path="url(#pb291ba9a12)" style="fill: #4caf50"/>
   </g>
   <g id="patch_105">
    <path d="M 170.745079 387.693521 
L 175.128571 387.693521 
L 175.128571 338.934937 
L 170.745079 338.934937 
z
" clip-path="url(#pb291ba9a12)" style="fill: #4caf50"/>
   </g>
   <g id="patch_106">
    <path d="M 187.183175 387.693521 
L 191.566667 387.693521 
L 191.566667 387.693521 
L 187.183175 387.693521 
z
" clip-path="url(#pb291ba9a12)" style="fill: #4caf50"/>
   </g>
   <g id="patch_107">
    <path d="M 203.62127 387.693521 
L 208.004762 387.693521 
L 208.004762 387.693521 
L 203.62127 387.693521 
z
" clip-path="url(#pb291ba9a12)" style="fill: #4caf50"/>
   </g>
   <g id="patch_108">
    <path d="M 220.059365 387.693521 
L 224.442857 387.693521 
L 224.442857 387.693521 
L 220.059365 387.693521 
z
" clip-path="url(#pb291ba9a12)" style="fill: #4caf50"/>
   </g>
   <g id="patch_109">
    <path d="M 236.49746 387.693521 
L 240.880952 387.693521 
L 240.880952 387.693521 
L 236.49746 387.693521 
z
" clip-path="url(#pb291ba9a12)" style="fill: #4caf50"/>
   </g>
   <g id="patch_110">
    <path d="M 252.935556 387.693521 
L 257.319048 387.693521 
L 257.319048 387.693521 
L 252.935556 387.693521 
z
" clip-path="url(#pb291ba9a12)" style="fill: #4caf50"/>
   </g>
   <g id="patch_111">
    <path d="M 269.373651 387.693521 
L 273.757143 387.693521 
L 273.757143 387.693521 
L 269.373651 387.693521 
z
" clip-path="url(#pb291ba9a12)" style="fill: #4caf50"/>
   </g>
   <g id="patch_112">
    <path d="M 285.811746 387.693521 
L 290.195238 387.693521 
L 290.195238 387.693521 
L 285.811746 387.693521 
z
" clip-path="url(#pb291ba9a12)" style="fill: #4caf50"/>
   </g>
   <g id="patch_113">
    <path d="M 302.249841 387.693521 
L 306.633333 387.693521 
L 306.633333 241.417769 
L 302.249841 241.417769 
z
" clip-path="url(#pb291ba9a12)" style="fill: #4caf50"/>
   </g>
   <g id="patch_114">
    <path d="M 318.687937 387.693521 
L 323.071429 387.693521 
L 323.071429 290.176353 
L 318.687937 290.176353 
z
" clip-path="url(#pb291ba9a12)" style="fill: #4caf50"/>
   </g>
   <g id="patch_115">
    <path d="M 335.126032 387.693521 
L 339.509524 387.693521 
L 339.509524 436.452105 
L 335.126032 436.452105 
z
" clip-path="url(#pb291ba9a12)" style="fill: #4caf50"/>
   </g>
   <g id="patch_116">
    <path d="M 351.564127 387.693521 
L 355.947619 387.693521 
L 355.947619 387.693521 
L 351.564127 387.693521 
z
" clip-path="url(#pb291ba9a12)" style="fill: #4caf50"/>
   </g>
   <g id="patch_117">
    <path d="M 368.002222 387.693521 
L 372.385714 387.693521 
L 372.385714 387.693521 
L 368.002222 387.693521 
z
" clip-path="url(#pb291ba9a12)" style="fill: #4caf50"/>
   </g>
   <g id="patch_118">
    <path d="M 384.440317 387.693521 
L 388.82381 387.693521 
L 388.82381 387.693521 
L 384.440317 387.693521 
z
" clip-path="url(#pb291ba9a12)" style="fill: #4caf50"/>
   </g>
   <g id="patch_119">
    <path d="M 400.878413 387.693521 
L 405.261905 387.693521 
L 405.261905 387.693521 
L 400.878413 387.693521 
z
" clip-path="url(#pb291ba9a12)" style="fill: #4caf50"/>
   </g>
   <g id="patch_120">
    <path d="M 417.316508 387.693521 
L 421.7 387.693521 
L 421.7 387.693521 
L 417.316508 387.693521 
z
" clip-path="url(#pb291ba9a12)" style="fill: #4caf50"/>
   </g>
   <g id="patch_121">
    <path d="M 433.754603 387.693521 
L 438.138095 387.693521 
L 438.138095 387.693521 
L 433.754603 387.693521 
z
" clip-path="url(#pb291ba9a12)" style="fill: #4caf50"/>
   </g>
   <g id="patch_122">
    <path d="M 450.192698 387.693521 
L 454.57619 387.693521 
L 454.57619 387.693521 
L 450.192698 387.693521 
z
" clip-path="url(#pb291ba9a12)" style="fill: #4caf50"/>
   </g>
   <g id="patch_123">
    <path d="M 466.630794 387.693521 
L 471.014286 387.693521 
L 471.014286 387.693521 
L 466.630794 387.693521 
z
" clip-path="url(#pb291ba9a12)" style="fill: #4caf50"/>
   </g>
   <g id="patch_124">
    <path d="M 483.068889 387.693521 
L 487.452381 387.693521 
L 487.452381 436.452105 
L 483.068889 436.452105 
z
" clip-path="url(#pb291ba9a12)" style="fill: #4caf50"/>
   </g>
   <g id="patch_125">
    <path d="M 499.506984 387.693521 
L 503.890476 387.693521 
L 503.890476 387.693521 
L 499.506984 387.693521 
z
" clip-path="url(#pb291ba9a12)" style="fill: #4caf50"/>
   </g>
   <g id="patch_126">
    <path d="M 515.945079 387.693521 
L 520.328571 387.693521 
L 520.328571 387.693521 
L 515.945079 387.693521 
z
" clip-path="url(#pb291ba9a12)" style="fill: #4caf50"/>
   </g>
   <g id="patch_127">
    <path d="M 532.383175 387.693521 
L 536.766667 387.693521 
L 536.766667 387.693521 
L 532.383175 387.693521 
z
" clip-path="url(#pb291ba9a12)" style="fill: #4caf50"/>
   </g>
   <g id="patch_128">
    <path d="M 548.82127 387.693521 
L 553.204762 387.693521 
L 553.204762 387.693521 
L 548.82127 387.693521 
z
" clip-path="url(#pb291ba9a12)" style="fill: #4caf50"/>
   </g>
   <g id="patch_129">
    <path d="M 565.259365 387.693521 
L 569.642857 387.693521 
L 569.642857 387.693521 
L 565.259365 387.693521 
z
" clip-path="url(#pb291ba9a12)" style="fill: #4caf50"/>
   </g>
   <g id="patch_130">
    <path d="M 581.69746 387.693521 
L 586.080952 387.693521 
L 586.080952 387.693521 
L 581.69746 387.693521 
z
" clip-path="url(#pb291ba9a12)" style="fill: #4caf50"/>
   </g>
   <g id="patch_131">
    <path d="M 598.135556 387.693521 
L 602.519048 387.693521 
L 602.519048 387.693521 
L 598.135556 387.693521 
z
" clip-path="url(#pb291ba9a12)" style="fill: #4caf50"/>
   </g>
   <g id="patch_132">
    <path d="M 614.573651 387.693521 
L 618.957143 387.693521 
L 618.957143 387.693521 
L 614.573651 387.693521 
z
" clip-path="url(#pb291ba9a12)" style="fill: #4caf50"/>
   </g>
   <g id="patch_133">
    <path d="M 631.011746 387.693521 
L 635.395238 387.693521 
L 635.395238 387.693521 
L 631.011746 387.693521 
z
" clip-path="url(#pb291ba9a12)" style="fill: #4caf50"/>
   </g>
   <g id="patch_134">
    <path d="M 647.449841 387.693521 
L 651.833333 387.693521 
L 651.833333 387.693521 
L 647.449841 387.693521 
z
" clip-path="url(#pb291ba9a12)" style="fill: #4caf50"/>
   </g>
   <g id="patch_135">
    <path d="M 663.887937 387.693521 
L 668.271429 387.693521 
L 668.271429 314.555645 
L 663.887937 314.555645 
z
" clip-path="url(#pb291ba9a12)" style="fill: #4caf50"/>
   </g>
   <g id="patch_136">
    <path d="M 680.326032 387.693521 
L 684.709524 387.693521 
L 684.709524 387.693521 
L 680.326032 387.693521 
z
" clip-path="url(#pb291ba9a12)" style="fill: #4caf50"/>
   </g>
   <g id="patch_137">
    <path d="M 696.764127 387.693521 
L 701.147619 387.693521 
L 701.147619 387.693521 
L 696.764127 387.693521 
z
" clip-path="url(#pb291ba9a12)" style="fill: #4caf50"/>
   </g>
   <g id="patch_138">
    <path d="M 713.202222 387.693521 
L 717.585714 387.693521 
L 717.585714 387.693521 
L 713.202222 387.693521 
z
" clip-path="url(#pb291ba9a12)" style="fill: #4caf50"/>
   </g>
   <g id="patch_139">
    <path d="M 729.640317 387.693521 
L 734.02381 387.693521 
L 734.02381 387.693521 
L 729.640317 387.693521 
z
" clip-path="url(#pb291ba9a12)" style="fill: #4caf50"/>
   </g>
   <g id="patch_140">
    <path d="M 746.078413 387.693521 
L 750.461905 387.693521 
L 750.461905 387.693521 
L 746.078413 387.693521 
z
" clip-path="url(#pb291ba9a12)" style="fill: #4caf50"/>
   </g>
   <g id="patch_141">
    <path d="M 762.516508 387.693521 
L 766.9 387.693521 
L 766.9 387.693521 
L 762.516508 387.693521 
z
" clip-path="url(#pb291ba9a12)" style="fill: #4caf50"/>
   </g>
   <g id="patch_142">
    <path d="M 778.954603 387.693521 
L 783.338095 387.693521 
L 783.338095 387.693521 
L 778.954603 387.693521 
z
" clip-path="url(#pb291ba9a12)" style="fill: #4caf50"/>
   </g>
   <g id="patch_143">
    <path d="M 795.392698 387.693521 
L 799.77619 387.693521 
L 799.77619 387.693521 
L 795.392698 387.693521 
z
" clip-path="url(#pb291ba9a12)" style="fill: #4caf50"/>
   </g>
   <g id="patch_144">
    <path d="M 811.830794 387.693521 
L 816.214286 387.693521 
L 816.214286 387.693521 
L 811.830794 387.693521 
z
" clip-path="url(#pb291ba9a12)" style="fill: #4caf50"/>
   </g>
   <g id="patch_145">
    <path d="M 828.268889 387.693521 
L 832.652381 387.693521 
L 832.652381 387.693521 
L 828.268889 387.693521 
z
" clip-path="url(#pb291ba9a12)" style="fill: #4caf50"/>
   </g>
   <g id="patch_146">
    <path d="M 844.706984 387.693521 
L 849.090476 387.693521 
L 849.090476 436.452105 
L 844.706984 436.452105 
z
" clip-path="url(#pb291ba9a12)" style="fill: #4caf50"/>
   </g>
   <g id="matplotlib.axis_1">
    <g id="xtick_1">
     <g id="line2d_1">
      <defs>
       <path id="m4d247b7b38" d="M 0 0 
L 0 3.5 
" style="stroke: #000000; stroke-width: 0.8"/>
      </defs>
      <g>
       <use xlink:href="#m4d247b7b38" x="69.924762" y="455.955539" style="stroke: #000000; stroke-width: 0.8"/>
      </g>
     </g>
     <g id="text_1">
      <!-- 0 -->
      <g transform="translate(69.626451 472.827413) rotate(-45) scale(0.1 -0.1)">
       <defs>
        <path id="DejaVuSans-30" d="M 2034 4250 
Q 1547 4250 1301 3770 
Q 1056 3291 1056 2328 
Q 1056 1369 1301 889 
Q 1547 409 2034 409 
Q 2525 409 2770 889 
Q 3016 1369 3016 2328 
Q 3016 3291 2770 3770 
Q 2525 4250 2034 4250 
z
M 2034 4750 
Q 2819 4750 3233 4129 
Q 3647 3509 3647 2328 
Q 3647 1150 3233 529 
Q 2819 -91 2034 -91 
Q 1250 -91 836 529 
Q 422 1150 422 2328 
Q 422 3509 836 4129 
Q 1250 4750 2034 4750 
z
" transform="scale(0.015625)"/>
       </defs>
       <use xlink:href="#DejaVuSans-30"/>
      </g>
     </g>
    </g>
    <g id="xtick_2">
     <g id="line2d_2">
      <g>
       <use xlink:href="#m4d247b7b38" x="86.362857" y="455.955539" style="stroke: #000000; stroke-width: 0.8"/>
      </g>
     </g>
    </g>
    <g id="xtick_3">
     <g id="line2d_3">
      <g>
       <use xlink:href="#m4d247b7b38" x="102.800952" y="455.955539" style="stroke: #000000; stroke-width: 0.8"/>
      </g>
     </g>
    </g>
    <g id="xtick_4">
     <g id="line2d_4">
      <g>
       <use xlink:href="#m4d247b7b38" x="119.239048" y="455.955539" style="stroke: #000000; stroke-width: 0.8"/>
      </g>
     </g>
    </g>
    <g id="xtick_5">
     <g id="line2d_5">
      <g>
       <use xlink:href="#m4d247b7b38" x="135.677143" y="455.955539" style="stroke: #000000; stroke-width: 0.8"/>
      </g>
     </g>
    </g>
    <g id="xtick_6">
     <g id="line2d_6">
      <g>
       <use xlink:href="#m4d247b7b38" x="152.115238" y="455.955539" style="stroke: #000000; stroke-width: 0.8"/>
      </g>
     </g>
     <g id="text_2">
      <!-- 5 -->
      <g transform="translate(151.816927 472.827413) rotate(-45) scale(0.1 -0.1)">
       <defs>
        <path id="DejaVuSans-35" d="M 691 4666 
L 3169 4666 
L 3169 4134 
L 1269 4134 
L 1269 2991 
Q 1406 3038 1543 3061 
Q 1681 3084 1819 3084 
Q 2600 3084 3056 2656 
Q 3513 2228 3513 1497 
Q 3513 744 3044 326 
Q 2575 -91 1722 -91 
Q 1428 -91 1123 -41 
Q 819 9 494 109 
L 494 744 
Q 775 591 1075 516 
Q 1375 441 1709 441 
Q 2250 441 2565 725 
Q 2881 1009 2881 1497 
Q 2881 1984 2565 2268 
Q 2250 2553 1709 2553 
Q 1456 2553 1204 2497 
Q 953 2441 691 2322 
L 691 4666 
z
" transform="scale(0.015625)"/>
       </defs>
       <use xlink:href="#DejaVuSans-35"/>
      </g>
     </g>
    </g>
    <g id="xtick_7">
     <g id="line2d_7">
      <g>
       <use xlink:href="#m4d247b7b38" x="168.553333" y="455.955539" style="stroke: #000000; stroke-width: 0.8"/>
      </g>
     </g>
    </g>
    <g id="xtick_8">
     <g id="line2d_8">
      <g>
       <use xlink:href="#m4d247b7b38" x="184.991429" y="455.955539" style="stroke: #000000; stroke-width: 0.8"/>
      </g>
     </g>
    </g>
    <g id="xtick_9">
     <g id="line2d_9">
      <g>
       <use xlink:href="#m4d247b7b38" x="201.429524" y="455.955539" style="stroke: #000000; stroke-width: 0.8"/>
      </g>
     </g>
    </g>
    <g id="xtick_10">
     <g id="line2d_10">
      <g>
       <use xlink:href="#m4d247b7b38" x="217.867619" y="455.955539" style="stroke: #000000; stroke-width: 0.8"/>
      </g>
     </g>
    </g>
    <g id="xtick_11">
     <g id="line2d_11">
      <g>
       <use xlink:href="#m4d247b7b38" x="234.305714" y="455.955539" style="stroke: #000000; stroke-width: 0.8"/>
      </g>
     </g>
     <g id="text_3">
      <!-- 10 -->
      <g transform="translate(231.75792 477.326379) rotate(-45) scale(0.1 -0.1)">
       <defs>
        <path id="DejaVuSans-31" d="M 794 531 
L 1825 531 
L 1825 4091 
L 703 3866 
L 703 4441 
L 1819 4666 
L 2450 4666 
L 2450 531 
L 3481 531 
L 3481 0 
L 794 0 
L 794 531 
z
" transform="scale(0.015625)"/>
       </defs>
       <use xlink:href="#DejaVuSans-31"/>
       <use xlink:href="#DejaVuSans-30" transform="translate(63.623047 0)"/>
      </g>
     </g>
    </g>
    <g id="xtick_12">
     <g id="line2d_12">
      <g>
       <use xlink:href="#m4d247b7b38" x="250.74381" y="455.955539" style="stroke: #000000; stroke-width: 0.8"/>
      </g>
     </g>
     <g id="text_4">
      <!-- 11 -->
      <g transform="translate(248.196015 477.326379) rotate(-45) scale(0.1 -0.1)">
       <use xlink:href="#DejaVuSans-31"/>
       <use xlink:href="#DejaVuSans-31" transform="translate(63.623047 0)"/>
      </g>
     </g>
    </g>
    <g id="xtick_13">
     <g id="line2d_13">
      <g>
       <use xlink:href="#m4d247b7b38" x="267.181905" y="455.955539" style="stroke: #000000; stroke-width: 0.8"/>
      </g>
     </g>
    </g>
    <g id="xtick_14">
     <g id="line2d_14">
      <g>
       <use xlink:href="#m4d247b7b38" x="283.62" y="455.955539" style="stroke: #000000; stroke-width: 0.8"/>
      </g>
     </g>
    </g>
    <g id="xtick_15">
     <g id="line2d_15">
      <g>
       <use xlink:href="#m4d247b7b38" x="300.058095" y="455.955539" style="stroke: #000000; stroke-width: 0.8"/>
      </g>
     </g>
    </g>
    <g id="xtick_16">
     <g id="line2d_16">
      <g>
       <use xlink:href="#m4d247b7b38" x="316.49619" y="455.955539" style="stroke: #000000; stroke-width: 0.8"/>
      </g>
     </g>
     <g id="text_5">
      <!-- 15 -->
      <g transform="translate(313.948396 477.326379) rotate(-45) scale(0.1 -0.1)">
       <use xlink:href="#DejaVuSans-31"/>
       <use xlink:href="#DejaVuSans-35" transform="translate(63.623047 0)"/>
      </g>
     </g>
    </g>
    <g id="xtick_17">
     <g id="line2d_17">
      <g>
       <use xlink:href="#m4d247b7b38" x="332.934286" y="455.955539" style="stroke: #000000; stroke-width: 0.8"/>
      </g>
     </g>
    </g>
    <g id="xtick_18">
     <g id="line2d_18">
      <g>
       <use xlink:href="#m4d247b7b38" x="349.372381" y="455.955539" style="stroke: #000000; stroke-width: 0.8"/>
      </g>
     </g>
    </g>
    <g id="xtick_19">
     <g id="line2d_19">
      <g>
       <use xlink:href="#m4d247b7b38" x="365.810476" y="455.955539" style="stroke: #000000; stroke-width: 0.8"/>
      </g>
     </g>
    </g>
    <g id="xtick_20">
     <g id="line2d_20">
      <g>
       <use xlink:href="#m4d247b7b38" x="382.248571" y="455.955539" style="stroke: #000000; stroke-width: 0.8"/>
      </g>
     </g>
    </g>
    <g id="xtick_21">
     <g id="line2d_21">
      <g>
       <use xlink:href="#m4d247b7b38" x="398.686667" y="455.955539" style="stroke: #000000; stroke-width: 0.8"/>
      </g>
     </g>
     <g id="text_6">
      <!-- 20 -->
      <g transform="translate(396.138873 477.326379) rotate(-45) scale(0.1 -0.1)">
       <defs>
        <path id="DejaVuSans-32" d="M 1228 531 
L 3431 531 
L 3431 0 
L 469 0 
L 469 531 
Q 828 903 1448 1529 
Q 2069 2156 2228 2338 
Q 2531 2678 2651 2914 
Q 2772 3150 2772 3378 
Q 2772 3750 2511 3984 
Q 2250 4219 1831 4219 
Q 1534 4219 1204 4116 
Q 875 4013 500 3803 
L 500 4441 
Q 881 4594 1212 4672 
Q 1544 4750 1819 4750 
Q 2544 4750 2975 4387 
Q 3406 4025 3406 3419 
Q 3406 3131 3298 2873 
Q 3191 2616 2906 2266 
Q 2828 2175 2409 1742 
Q 1991 1309 1228 531 
z
" transform="scale(0.015625)"/>
       </defs>
       <use xlink:href="#DejaVuSans-32"/>
       <use xlink:href="#DejaVuSans-30" transform="translate(63.623047 0)"/>
      </g>
     </g>
    </g>
    <g id="xtick_22">
     <g id="line2d_22">
      <g>
       <use xlink:href="#m4d247b7b38" x="415.124762" y="455.955539" style="stroke: #000000; stroke-width: 0.8"/>
      </g>
     </g>
    </g>
    <g id="xtick_23">
     <g id="line2d_23">
      <g>
       <use xlink:href="#m4d247b7b38" x="431.562857" y="455.955539" style="stroke: #000000; stroke-width: 0.8"/>
      </g>
     </g>
    </g>
    <g id="xtick_24">
     <g id="line2d_24">
      <g>
       <use xlink:href="#m4d247b7b38" x="448.000952" y="455.955539" style="stroke: #000000; stroke-width: 0.8"/>
      </g>
     </g>
     <g id="text_7">
      <!-- 23 -->
      <g transform="translate(445.453158 477.326379) rotate(-45) scale(0.1 -0.1)">
       <defs>
        <path id="DejaVuSans-33" d="M 2597 2516 
Q 3050 2419 3304 2112 
Q 3559 1806 3559 1356 
Q 3559 666 3084 287 
Q 2609 -91 1734 -91 
Q 1441 -91 1130 -33 
Q 819 25 488 141 
L 488 750 
Q 750 597 1062 519 
Q 1375 441 1716 441 
Q 2309 441 2620 675 
Q 2931 909 2931 1356 
Q 2931 1769 2642 2001 
Q 2353 2234 1838 2234 
L 1294 2234 
L 1294 2753 
L 1863 2753 
Q 2328 2753 2575 2939 
Q 2822 3125 2822 3475 
Q 2822 3834 2567 4026 
Q 2313 4219 1838 4219 
Q 1578 4219 1281 4162 
Q 984 4106 628 3988 
L 628 4550 
Q 988 4650 1302 4700 
Q 1616 4750 1894 4750 
Q 2613 4750 3031 4423 
Q 3450 4097 3450 3541 
Q 3450 3153 3228 2886 
Q 3006 2619 2597 2516 
z
" transform="scale(0.015625)"/>
       </defs>
       <use xlink:href="#DejaVuSans-32"/>
       <use xlink:href="#DejaVuSans-33" transform="translate(63.623047 0)"/>
      </g>
     </g>
    </g>
    <g id="xtick_25">
     <g id="line2d_25">
      <g>
       <use xlink:href="#m4d247b7b38" x="464.439048" y="455.955539" style="stroke: #000000; stroke-width: 0.8"/>
      </g>
     </g>
    </g>
    <g id="xtick_26">
     <g id="line2d_26">
      <g>
       <use xlink:href="#m4d247b7b38" x="480.877143" y="455.955539" style="stroke: #000000; stroke-width: 0.8"/>
      </g>
     </g>
     <g id="text_8">
      <!-- 25 -->
      <g transform="translate(478.329349 477.326379) rotate(-45) scale(0.1 -0.1)">
       <use xlink:href="#DejaVuSans-32"/>
       <use xlink:href="#DejaVuSans-35" transform="translate(63.623047 0)"/>
      </g>
     </g>
    </g>
    <g id="xtick_27">
     <g id="line2d_27">
      <g>
       <use xlink:href="#m4d247b7b38" x="497.315238" y="455.955539" style="stroke: #000000; stroke-width: 0.8"/>
      </g>
     </g>
    </g>
    <g id="xtick_28">
     <g id="line2d_28">
      <g>
       <use xlink:href="#m4d247b7b38" x="513.753333" y="455.955539" style="stroke: #000000; stroke-width: 0.8"/>
      </g>
     </g>
    </g>
    <g id="xtick_29">
     <g id="line2d_29">
      <g>
       <use xlink:href="#m4d247b7b38" x="530.191429" y="455.955539" style="stroke: #000000; stroke-width: 0.8"/>
      </g>
     </g>
    </g>
    <g id="xtick_30">
     <g id="line2d_30">
      <g>
       <use xlink:href="#m4d247b7b38" x="546.629524" y="455.955539" style="stroke: #000000; stroke-width: 0.8"/>
      </g>
     </g>
    </g>
    <g id="xtick_31">
     <g id="line2d_31">
      <g>
       <use xlink:href="#m4d247b7b38" x="563.067619" y="455.955539" style="stroke: #000000; stroke-width: 0.8"/>
      </g>
     </g>
     <g id="text_9">
      <!-- 30 -->
      <g transform="translate(560.519825 477.326379) rotate(-45) scale(0.1 -0.1)">
       <use xlink:href="#DejaVuSans-33"/>
       <use xlink:href="#DejaVuSans-30" transform="translate(63.623047 0)"/>
      </g>
     </g>
    </g>
    <g id="xtick_32">
     <g id="line2d_32">
      <g>
       <use xlink:href="#m4d247b7b38" x="579.505714" y="455.955539" style="stroke: #000000; stroke-width: 0.8"/>
      </g>
     </g>
    </g>
    <g id="xtick_33">
     <g id="line2d_33">
      <g>
       <use xlink:href="#m4d247b7b38" x="595.94381" y="455.955539" style="stroke: #000000; stroke-width: 0.8"/>
      </g>
     </g>
    </g>
    <g id="xtick_34">
     <g id="line2d_34">
      <g>
       <use xlink:href="#m4d247b7b38" x="612.381905" y="455.955539" style="stroke: #000000; stroke-width: 0.8"/>
      </g>
     </g>
    </g>
    <g id="xtick_35">
     <g id="line2d_35">
      <g>
       <use xlink:href="#m4d247b7b38" x="628.82" y="455.955539" style="stroke: #000000; stroke-width: 0.8"/>
      </g>
     </g>
    </g>
    <g id="xtick_36">
     <g id="line2d_36">
      <g>
       <use xlink:href="#m4d247b7b38" x="645.258095" y="455.955539" style="stroke: #000000; stroke-width: 0.8"/>
      </g>
     </g>
     <g id="text_10">
      <!-- 35 -->
      <g transform="translate(642.710301 477.326379) rotate(-45) scale(0.1 -0.1)">
       <use xlink:href="#DejaVuSans-33"/>
       <use xlink:href="#DejaVuSans-35" transform="translate(63.623047 0)"/>
      </g>
     </g>
    </g>
    <g id="xtick_37">
     <g id="line2d_37">
      <g>
       <use xlink:href="#m4d247b7b38" x="661.69619" y="455.955539" style="stroke: #000000; stroke-width: 0.8"/>
      </g>
     </g>
    </g>
    <g id="xtick_38">
     <g id="line2d_38">
      <g>
       <use xlink:href="#m4d247b7b38" x="678.134286" y="455.955539" style="stroke: #000000; stroke-width: 0.8"/>
      </g>
     </g>
    </g>
    <g id="xtick_39">
     <g id="line2d_39">
      <g>
       <use xlink:href="#m4d247b7b38" x="694.572381" y="455.955539" style="stroke: #000000; stroke-width: 0.8"/>
      </g>
     </g>
    </g>
    <g id="xtick_40">
     <g id="line2d_40">
      <g>
       <use xlink:href="#m4d247b7b38" x="711.010476" y="455.955539" style="stroke: #000000; stroke-width: 0.8"/>
      </g>
     </g>
    </g>
    <g id="xtick_41">
     <g id="line2d_41">
      <g>
       <use xlink:href="#m4d247b7b38" x="727.448571" y="455.955539" style="stroke: #000000; stroke-width: 0.8"/>
      </g>
     </g>
     <g id="text_11">
      <!-- 40 -->
      <g transform="translate(724.900777 477.326379) rotate(-45) scale(0.1 -0.1)">
       <defs>
        <path id="DejaVuSans-34" d="M 2419 4116 
L 825 1625 
L 2419 1625 
L 2419 4116 
z
M 2253 4666 
L 3047 4666 
L 3047 1625 
L 3713 1625 
L 3713 1100 
L 3047 1100 
L 3047 0 
L 2419 0 
L 2419 1100 
L 313 1100 
L 313 1709 
L 2253 4666 
z
" transform="scale(0.015625)"/>
       </defs>
       <use xlink:href="#DejaVuSans-34"/>
       <use xlink:href="#DejaVuSans-30" transform="translate(63.623047 0)"/>
      </g>
     </g>
    </g>
    <g id="xtick_42">
     <g id="line2d_42">
      <g>
       <use xlink:href="#m4d247b7b38" x="743.886667" y="455.955539" style="stroke: #000000; stroke-width: 0.8"/>
      </g>
     </g>
    </g>
    <g id="xtick_43">
     <g id="line2d_43">
      <g>
       <use xlink:href="#m4d247b7b38" x="760.324762" y="455.955539" style="stroke: #000000; stroke-width: 0.8"/>
      </g>
     </g>
    </g>
    <g id="xtick_44">
     <g id="line2d_44">
      <g>
       <use xlink:href="#m4d247b7b38" x="776.762857" y="455.955539" style="stroke: #000000; stroke-width: 0.8"/>
      </g>
     </g>
    </g>
    <g id="xtick_45">
     <g id="line2d_45">
      <g>
       <use xlink:href="#m4d247b7b38" x="793.200952" y="455.955539" style="stroke: #000000; stroke-width: 0.8"/>
      </g>
     </g>
    </g>
    <g id="xtick_46">
     <g id="line2d_46">
      <g>
       <use xlink:href="#m4d247b7b38" x="809.639048" y="455.955539" style="stroke: #000000; stroke-width: 0.8"/>
      </g>
     </g>
     <g id="text_12">
      <!-- 45 -->
      <g transform="translate(807.091253 477.326379) rotate(-45) scale(0.1 -0.1)">
       <use xlink:href="#DejaVuSans-34"/>
       <use xlink:href="#DejaVuSans-35" transform="translate(63.623047 0)"/>
      </g>
     </g>
    </g>
    <g id="xtick_47">
     <g id="line2d_47">
      <g>
       <use xlink:href="#m4d247b7b38" x="826.077143" y="455.955539" style="stroke: #000000; stroke-width: 0.8"/>
      </g>
     </g>
    </g>
    <g id="xtick_48">
     <g id="line2d_48">
      <g>
       <use xlink:href="#m4d247b7b38" x="842.515238" y="455.955539" style="stroke: #000000; stroke-width: 0.8"/>
      </g>
     </g>
     <g id="text_13">
      <!-- 47 -->
      <g transform="translate(839.967444 477.326379) rotate(-45) scale(0.1 -0.1)">
       <defs>
        <path id="DejaVuSans-37" d="M 525 4666 
L 3525 4666 
L 3525 4397 
L 1831 0 
L 1172 0 
L 2766 4134 
L 525 4134 
L 525 4666 
z
" transform="scale(0.015625)"/>
       </defs>
       <use xlink:href="#DejaVuSans-34"/>
       <use xlink:href="#DejaVuSans-37" transform="translate(63.623047 0)"/>
      </g>
     </g>
    </g>
    <g id="text_14">
     <!-- Game Minute -->
     <g transform="translate(422.668438 490.395378) scale(0.1 -0.1)">
      <defs>
       <path id="DejaVuSans-47" d="M 3809 666 
L 3809 1919 
L 2778 1919 
L 2778 2438 
L 4434 2438 
L 4434 434 
Q 4069 175 3628 42 
Q 3188 -91 2688 -91 
Q 1594 -91 976 548 
Q 359 1188 359 2328 
Q 359 3472 976 4111 
Q 1594 4750 2688 4750 
Q 3144 4750 3555 4637 
Q 3966 4525 4313 4306 
L 4313 3634 
Q 3963 3931 3569 4081 
Q 3175 4231 2741 4231 
Q 1884 4231 1454 3753 
Q 1025 3275 1025 2328 
Q 1025 1384 1454 906 
Q 1884 428 2741 428 
Q 3075 428 3337 486 
Q 3600 544 3809 666 
z
" transform="scale(0.015625)"/>
       <path id="DejaVuSans-61" d="M 2194 1759 
Q 1497 1759 1228 1600 
Q 959 1441 959 1056 
Q 959 750 1161 570 
Q 1363 391 1709 391 
Q 2188 391 2477 730 
Q 2766 1069 2766 1631 
L 2766 1759 
L 2194 1759 
z
M 3341 1997 
L 3341 0 
L 2766 0 
L 2766 531 
Q 2569 213 2275 61 
Q 1981 -91 1556 -91 
Q 1019 -91 701 211 
Q 384 513 384 1019 
Q 384 1609 779 1909 
Q 1175 2209 1959 2209 
L 2766 2209 
L 2766 2266 
Q 2766 2663 2505 2880 
Q 2244 3097 1772 3097 
Q 1472 3097 1187 3025 
Q 903 2953 641 2809 
L 641 3341 
Q 956 3463 1253 3523 
Q 1550 3584 1831 3584 
Q 2591 3584 2966 3190 
Q 3341 2797 3341 1997 
z
" transform="scale(0.015625)"/>
       <path id="DejaVuSans-6d" d="M 3328 2828 
Q 3544 3216 3844 3400 
Q 4144 3584 4550 3584 
Q 5097 3584 5394 3201 
Q 5691 2819 5691 2113 
L 5691 0 
L 5113 0 
L 5113 2094 
Q 5113 2597 4934 2840 
Q 4756 3084 4391 3084 
Q 3944 3084 3684 2787 
Q 3425 2491 3425 1978 
L 3425 0 
L 2847 0 
L 2847 2094 
Q 2847 2600 2669 2842 
Q 2491 3084 2119 3084 
Q 1678 3084 1418 2786 
Q 1159 2488 1159 1978 
L 1159 0 
L 581 0 
L 581 3500 
L 1159 3500 
L 1159 2956 
Q 1356 3278 1631 3431 
Q 1906 3584 2284 3584 
Q 2666 3584 2933 3390 
Q 3200 3197 3328 2828 
z
" transform="scale(0.015625)"/>
       <path id="DejaVuSans-65" d="M 3597 1894 
L 3597 1613 
L 953 1613 
Q 991 1019 1311 708 
Q 1631 397 2203 397 
Q 2534 397 2845 478 
Q 3156 559 3463 722 
L 3463 178 
Q 3153 47 2828 -22 
Q 2503 -91 2169 -91 
Q 1331 -91 842 396 
Q 353 884 353 1716 
Q 353 2575 817 3079 
Q 1281 3584 2069 3584 
Q 2775 3584 3186 3129 
Q 3597 2675 3597 1894 
z
M 3022 2063 
Q 3016 2534 2758 2815 
Q 2500 3097 2075 3097 
Q 1594 3097 1305 2825 
Q 1016 2553 972 2059 
L 3022 2063 
z
" transform="scale(0.015625)"/>
       <path id="DejaVuSans-20" transform="scale(0.015625)"/>
       <path id="DejaVuSans-4d" d="M 628 4666 
L 1569 4666 
L 2759 1491 
L 3956 4666 
L 4897 4666 
L 4897 0 
L 4281 0 
L 4281 4097 
L 3078 897 
L 2444 897 
L 1241 4097 
L 1241 0 
L 628 0 
L 628 4666 
z
" transform="scale(0.015625)"/>
       <path id="DejaVuSans-69" d="M 603 3500 
L 1178 3500 
L 1178 0 
L 603 0 
L 603 3500 
z
M 603 4863 
L 1178 4863 
L 1178 4134 
L 603 4134 
L 603 4863 
z
" transform="scale(0.015625)"/>
       <path id="DejaVuSans-6e" d="M 3513 2113 
L 3513 0 
L 2938 0 
L 2938 2094 
Q 2938 2591 2744 2837 
Q 2550 3084 2163 3084 
Q 1697 3084 1428 2787 
Q 1159 2491 1159 1978 
L 1159 0 
L 581 0 
L 581 3500 
L 1159 3500 
L 1159 2956 
Q 1366 3272 1645 3428 
Q 1925 3584 2291 3584 
Q 2894 3584 3203 3211 
Q 3513 2838 3513 2113 
z
" transform="scale(0.015625)"/>
       <path id="DejaVuSans-75" d="M 544 1381 
L 544 3500 
L 1119 3500 
L 1119 1403 
Q 1119 906 1312 657 
Q 1506 409 1894 409 
Q 2359 409 2629 706 
Q 2900 1003 2900 1516 
L 2900 3500 
L 3475 3500 
L 3475 0 
L 2900 0 
L 2900 538 
Q 2691 219 2414 64 
Q 2138 -91 1772 -91 
Q 1169 -91 856 284 
Q 544 659 544 1381 
z
M 1991 3584 
L 1991 3584 
z
" transform="scale(0.015625)"/>
       <path id="DejaVuSans-74" d="M 1172 4494 
L 1172 3500 
L 2356 3500 
L 2356 3053 
L 1172 3053 
L 1172 1153 
Q 1172 725 1289 603 
Q 1406 481 1766 481 
L 2356 481 
L 2356 0 
L 1766 0 
Q 1100 0 847 248 
Q 594 497 594 1153 
L 594 3053 
L 172 3053 
L 172 3500 
L 594 3500 
L 594 4494 
L 1172 4494 
z
" transform="scale(0.015625)"/>
      </defs>
      <use xlink:href="#DejaVuSans-47"/>
      <use xlink:href="#DejaVuSans-61" transform="translate(77.490234 0)"/>
      <use xlink:href="#DejaVuSans-6d" transform="translate(138.769531 0)"/>
      <use xlink:href="#DejaVuSans-65" transform="translate(236.181641 0)"/>
      <use xlink:href="#DejaVuSans-20" transform="translate(297.705078 0)"/>
      <use xlink:href="#DejaVuSans-4d" transform="translate(329.492188 0)"/>
      <use xlink:href="#DejaVuSans-69" transform="translate(415.771484 0)"/>
      <use xlink:href="#DejaVuSans-6e" transform="translate(443.554688 0)"/>
      <use xlink:href="#DejaVuSans-75" transform="translate(506.933594 0)"/>
      <use xlink:href="#DejaVuSans-74" transform="translate(570.3125 0)"/>
      <use xlink:href="#DejaVuSans-65" transform="translate(609.521484 0)"/>
     </g>
    </g>
   </g>
   <g id="matplotlib.axis_2">
    <g id="ytick_1">
     <g id="line2d_49">
      <defs>
       <path id="m8988cd0621" d="M 0 0 
L -3.5 0 
" style="stroke: #000000; stroke-width: 0.8"/>
      </defs>
      <g>
       <use xlink:href="#m8988cd0621" x="59.24" y="436.452105" style="stroke: #000000; stroke-width: 0.8"/>
      </g>
     </g>
     <g id="text_15">
      <!-- 100 -->
      <g transform="translate(24.772813 440.251324) scale(0.1 -0.1)">
       <defs>
        <path id="DejaVuSans-2212" d="M 678 2272 
L 4684 2272 
L 4684 1741 
L 678 1741 
L 678 2272 
z
" transform="scale(0.015625)"/>
       </defs>
       <use xlink:href="#DejaVuSans-2212"/>
       <use xlink:href="#DejaVuSans-31" transform="translate(83.789062 0)"/>
       <use xlink:href="#DejaVuSans-30" transform="translate(147.412109 0)"/>
       <use xlink:href="#DejaVuSans-30" transform="translate(211.035156 0)"/>
      </g>
     </g>
    </g>
    <g id="ytick_2">
     <g id="line2d_50">
      <g>
       <use xlink:href="#m8988cd0621" x="59.24" y="387.693521" style="stroke: #000000; stroke-width: 0.8"/>
      </g>
     </g>
     <g id="text_16">
      <!-- 0 -->
      <g transform="translate(45.8775 391.49274) scale(0.1 -0.1)">
       <use xlink:href="#DejaVuSans-30"/>
      </g>
     </g>
    </g>
    <g id="ytick_3">
     <g id="line2d_51">
      <g>
       <use xlink:href="#m8988cd0621" x="59.24" y="338.934937" style="stroke: #000000; stroke-width: 0.8"/>
      </g>
     </g>
     <g id="text_17">
      <!-- 100 -->
      <g transform="translate(33.1525 342.734156) scale(0.1 -0.1)">
       <use xlink:href="#DejaVuSans-31"/>
       <use xlink:href="#DejaVuSans-30" transform="translate(63.623047 0)"/>
       <use xlink:href="#DejaVuSans-30" transform="translate(127.246094 0)"/>
      </g>
     </g>
    </g>
    <g id="ytick_4">
     <g id="line2d_52">
      <g>
       <use xlink:href="#m8988cd0621" x="59.24" y="290.176353" style="stroke: #000000; stroke-width: 0.8"/>
      </g>
     </g>
     <g id="text_18">
      <!-- 200 -->
      <g transform="translate(33.1525 293.975572) scale(0.1 -0.1)">
       <use xlink:href="#DejaVuSans-32"/>
       <use xlink:href="#DejaVuSans-30" transform="translate(63.623047 0)"/>
       <use xlink:href="#DejaVuSans-30" transform="translate(127.246094 0)"/>
      </g>
     </g>
    </g>
    <g id="ytick_5">
     <g id="line2d_53">
      <g>
       <use xlink:href="#m8988cd0621" x="59.24" y="241.417769" style="stroke: #000000; stroke-width: 0.8"/>
      </g>
     </g>
     <g id="text_19">
      <!-- 300 -->
      <g transform="translate(33.1525 245.216988) scale(0.1 -0.1)">
       <use xlink:href="#DejaVuSans-33"/>
       <use xlink:href="#DejaVuSans-30" transform="translate(63.623047 0)"/>
       <use xlink:href="#DejaVuSans-30" transform="translate(127.246094 0)"/>
      </g>
     </g>
    </g>
    <g id="ytick_6">
     <g id="line2d_54">
      <g>
       <use xlink:href="#m8988cd0621" x="59.24" y="192.659186" style="stroke: #000000; stroke-width: 0.8"/>
      </g>
     </g>
     <g id="text_20">
      <!-- 400 -->
      <g transform="translate(33.1525 196.458404) scale(0.1 -0.1)">
       <use xlink:href="#DejaVuSans-34"/>
       <use xlink:href="#DejaVuSans-30" transform="translate(63.623047 0)"/>
       <use xlink:href="#DejaVuSans-30" transform="translate(127.246094 0)"/>
      </g>
     </g>
    </g>
    <g id="ytick_7">
     <g id="line2d_55">
      <g>
       <use xlink:href="#m8988cd0621" x="59.24" y="143.900602" style="stroke: #000000; stroke-width: 0.8"/>
      </g>
     </g>
     <g id="text_21">
      <!-- 500 -->
      <g transform="translate(33.1525 147.69982) scale(0.1 -0.1)">
       <use xlink:href="#DejaVuSans-35"/>
       <use xlink:href="#DejaVuSans-30" transform="translate(63.623047 0)"/>
       <use xlink:href="#DejaVuSans-30" transform="translate(127.246094 0)"/>
      </g>
     </g>
    </g>
    <g id="ytick_8">
     <g id="line2d_56">
      <g>
       <use xlink:href="#m8988cd0621" x="59.24" y="95.142018" style="stroke: #000000; stroke-width: 0.8"/>
      </g>
     </g>
     <g id="text_22">
      <!-- 600 -->
      <g transform="translate(33.1525 98.941236) scale(0.1 -0.1)">
       <defs>
        <path id="DejaVuSans-36" d="M 2113 2584 
Q 1688 2584 1439 2293 
Q 1191 2003 1191 1497 
Q 1191 994 1439 701 
Q 1688 409 2113 409 
Q 2538 409 2786 701 
Q 3034 994 3034 1497 
Q 3034 2003 2786 2293 
Q 2538 2584 2113 2584 
z
M 3366 4563 
L 3366 3988 
Q 3128 4100 2886 4159 
Q 2644 4219 2406 4219 
Q 1781 4219 1451 3797 
Q 1122 3375 1075 2522 
Q 1259 2794 1537 2939 
Q 1816 3084 2150 3084 
Q 2853 3084 3261 2657 
Q 3669 2231 3669 1497 
Q 3669 778 3244 343 
Q 2819 -91 2113 -91 
Q 1303 -91 875 529 
Q 447 1150 447 2328 
Q 447 3434 972 4092 
Q 1497 4750 2381 4750 
Q 2619 4750 2861 4703 
Q 3103 4656 3366 4563 
z
" transform="scale(0.015625)"/>
       </defs>
       <use xlink:href="#DejaVuSans-36"/>
       <use xlink:href="#DejaVuSans-30" transform="translate(63.623047 0)"/>
       <use xlink:href="#DejaVuSans-30" transform="translate(127.246094 0)"/>
      </g>
     </g>
    </g>
    <g id="ytick_9">
     <g id="line2d_57">
      <g>
       <use xlink:href="#m8988cd0621" x="59.24" y="46.383434" style="stroke: #000000; stroke-width: 0.8"/>
      </g>
     </g>
     <g id="text_23">
      <!-- 700 -->
      <g transform="translate(33.1525 50.182652) scale(0.1 -0.1)">
       <use xlink:href="#DejaVuSans-37"/>
       <use xlink:href="#DejaVuSans-30" transform="translate(63.623047 0)"/>
       <use xlink:href="#DejaVuSans-30" transform="translate(127.246094 0)"/>
      </g>
     </g>
    </g>
    <g id="text_24">
     <!-- Percentage Change (%) -->
     <g transform="translate(18.693125 300.514644) rotate(-90) scale(0.1 -0.1)">
      <defs>
       <path id="DejaVuSans-50" d="M 1259 4147 
L 1259 2394 
L 2053 2394 
Q 2494 2394 2734 2622 
Q 2975 2850 2975 3272 
Q 2975 3691 2734 3919 
Q 2494 4147 2053 4147 
L 1259 4147 
z
M 628 4666 
L 2053 4666 
Q 2838 4666 3239 4311 
Q 3641 3956 3641 3272 
Q 3641 2581 3239 2228 
Q 2838 1875 2053 1875 
L 1259 1875 
L 1259 0 
L 628 0 
L 628 4666 
z
" transform="scale(0.015625)"/>
       <path id="DejaVuSans-72" d="M 2631 2963 
Q 2534 3019 2420 3045 
Q 2306 3072 2169 3072 
Q 1681 3072 1420 2755 
Q 1159 2438 1159 1844 
L 1159 0 
L 581 0 
L 581 3500 
L 1159 3500 
L 1159 2956 
Q 1341 3275 1631 3429 
Q 1922 3584 2338 3584 
Q 2397 3584 2469 3576 
Q 2541 3569 2628 3553 
L 2631 2963 
z
" transform="scale(0.015625)"/>
       <path id="DejaVuSans-63" d="M 3122 3366 
L 3122 2828 
Q 2878 2963 2633 3030 
Q 2388 3097 2138 3097 
Q 1578 3097 1268 2742 
Q 959 2388 959 1747 
Q 959 1106 1268 751 
Q 1578 397 2138 397 
Q 2388 397 2633 464 
Q 2878 531 3122 666 
L 3122 134 
Q 2881 22 2623 -34 
Q 2366 -91 2075 -91 
Q 1284 -91 818 406 
Q 353 903 353 1747 
Q 353 2603 823 3093 
Q 1294 3584 2113 3584 
Q 2378 3584 2631 3529 
Q 2884 3475 3122 3366 
z
" transform="scale(0.015625)"/>
       <path id="DejaVuSans-67" d="M 2906 1791 
Q 2906 2416 2648 2759 
Q 2391 3103 1925 3103 
Q 1463 3103 1205 2759 
Q 947 2416 947 1791 
Q 947 1169 1205 825 
Q 1463 481 1925 481 
Q 2391 481 2648 825 
Q 2906 1169 2906 1791 
z
M 3481 434 
Q 3481 -459 3084 -895 
Q 2688 -1331 1869 -1331 
Q 1566 -1331 1297 -1286 
Q 1028 -1241 775 -1147 
L 775 -588 
Q 1028 -725 1275 -790 
Q 1522 -856 1778 -856 
Q 2344 -856 2625 -561 
Q 2906 -266 2906 331 
L 2906 616 
Q 2728 306 2450 153 
Q 2172 0 1784 0 
Q 1141 0 747 490 
Q 353 981 353 1791 
Q 353 2603 747 3093 
Q 1141 3584 1784 3584 
Q 2172 3584 2450 3431 
Q 2728 3278 2906 2969 
L 2906 3500 
L 3481 3500 
L 3481 434 
z
" transform="scale(0.015625)"/>
       <path id="DejaVuSans-43" d="M 4122 4306 
L 4122 3641 
Q 3803 3938 3442 4084 
Q 3081 4231 2675 4231 
Q 1875 4231 1450 3742 
Q 1025 3253 1025 2328 
Q 1025 1406 1450 917 
Q 1875 428 2675 428 
Q 3081 428 3442 575 
Q 3803 722 4122 1019 
L 4122 359 
Q 3791 134 3420 21 
Q 3050 -91 2638 -91 
Q 1578 -91 968 557 
Q 359 1206 359 2328 
Q 359 3453 968 4101 
Q 1578 4750 2638 4750 
Q 3056 4750 3426 4639 
Q 3797 4528 4122 4306 
z
" transform="scale(0.015625)"/>
       <path id="DejaVuSans-68" d="M 3513 2113 
L 3513 0 
L 2938 0 
L 2938 2094 
Q 2938 2591 2744 2837 
Q 2550 3084 2163 3084 
Q 1697 3084 1428 2787 
Q 1159 2491 1159 1978 
L 1159 0 
L 581 0 
L 581 4863 
L 1159 4863 
L 1159 2956 
Q 1366 3272 1645 3428 
Q 1925 3584 2291 3584 
Q 2894 3584 3203 3211 
Q 3513 2838 3513 2113 
z
" transform="scale(0.015625)"/>
       <path id="DejaVuSans-28" d="M 1984 4856 
Q 1566 4138 1362 3434 
Q 1159 2731 1159 2009 
Q 1159 1288 1364 580 
Q 1569 -128 1984 -844 
L 1484 -844 
Q 1016 -109 783 600 
Q 550 1309 550 2009 
Q 550 2706 781 3412 
Q 1013 4119 1484 4856 
L 1984 4856 
z
" transform="scale(0.015625)"/>
       <path id="DejaVuSans-25" d="M 4653 2053 
Q 4381 2053 4226 1822 
Q 4072 1591 4072 1178 
Q 4072 772 4226 539 
Q 4381 306 4653 306 
Q 4919 306 5073 539 
Q 5228 772 5228 1178 
Q 5228 1588 5073 1820 
Q 4919 2053 4653 2053 
z
M 4653 2450 
Q 5147 2450 5437 2106 
Q 5728 1763 5728 1178 
Q 5728 594 5436 251 
Q 5144 -91 4653 -91 
Q 4153 -91 3862 251 
Q 3572 594 3572 1178 
Q 3572 1766 3864 2108 
Q 4156 2450 4653 2450 
z
M 1428 4353 
Q 1159 4353 1004 4120 
Q 850 3888 850 3481 
Q 850 3069 1003 2837 
Q 1156 2606 1428 2606 
Q 1700 2606 1854 2837 
Q 2009 3069 2009 3481 
Q 2009 3884 1853 4118 
Q 1697 4353 1428 4353 
z
M 4250 4750 
L 4750 4750 
L 1831 -91 
L 1331 -91 
L 4250 4750 
z
M 1428 4750 
Q 1922 4750 2215 4408 
Q 2509 4066 2509 3481 
Q 2509 2891 2217 2550 
Q 1925 2209 1428 2209 
Q 931 2209 642 2551 
Q 353 2894 353 3481 
Q 353 4063 643 4406 
Q 934 4750 1428 4750 
z
" transform="scale(0.015625)"/>
       <path id="DejaVuSans-29" d="M 513 4856 
L 1013 4856 
Q 1481 4119 1714 3412 
Q 1947 2706 1947 2009 
Q 1947 1309 1714 600 
Q 1481 -109 1013 -844 
L 513 -844 
Q 928 -128 1133 580 
Q 1338 1288 1338 2009 
Q 1338 2731 1133 3434 
Q 928 4138 513 4856 
z
" transform="scale(0.015625)"/>
      </defs>
      <use xlink:href="#DejaVuSans-50"/>
      <use xlink:href="#DejaVuSans-65" transform="translate(56.677734 0)"/>
      <use xlink:href="#DejaVuSans-72" transform="translate(118.201172 0)"/>
      <use xlink:href="#DejaVuSans-63" transform="translate(157.064453 0)"/>
      <use xlink:href="#DejaVuSans-65" transform="translate(212.044922 0)"/>
      <use xlink:href="#DejaVuSans-6e" transform="translate(273.568359 0)"/>
      <use xlink:href="#DejaVuSans-74" transform="translate(336.947266 0)"/>
      <use xlink:href="#DejaVuSans-61" transform="translate(376.15625 0)"/>
      <use xlink:href="#DejaVuSans-67" transform="translate(437.435547 0)"/>
      <use xlink:href="#DejaVuSans-65" transform="translate(500.912109 0)"/>
      <use xlink:href="#DejaVuSans-20" transform="translate(562.435547 0)"/>
      <use xlink:href="#DejaVuSans-43" transform="translate(594.222656 0)"/>
      <use xlink:href="#DejaVuSans-68" transform="translate(664.046875 0)"/>
      <use xlink:href="#DejaVuSans-61" transform="translate(727.425781 0)"/>
      <use xlink:href="#DejaVuSans-6e" transform="translate(788.705078 0)"/>
      <use xlink:href="#DejaVuSans-67" transform="translate(852.083984 0)"/>
      <use xlink:href="#DejaVuSans-65" transform="translate(915.560547 0)"/>
      <use xlink:href="#DejaVuSans-20" transform="translate(977.083984 0)"/>
      <use xlink:href="#DejaVuSans-28" transform="translate(1008.871094 0)"/>
      <use xlink:href="#DejaVuSans-25" transform="translate(1047.884766 0)"/>
      <use xlink:href="#DejaVuSans-29" transform="translate(1142.904297 0)"/>
     </g>
    </g>
   </g>
   <g id="line2d_58">
    <path d="M 59.24 387.693521 
L 853.2 387.693521 
" clip-path="url(#pb291ba9a12)" style="fill: none; stroke: #808080; stroke-width: 0.8; stroke-linecap: square"/>
   </g>
   <g id="patch_147">
    <path d="M 59.24 455.955539 
L 59.24 26.88 
" style="fill: none; stroke: #000000; stroke-width: 0.8; stroke-linejoin: miter; stroke-linecap: square"/>
   </g>
   <g id="patch_148">
    <path d="M 853.2 455.955539 
L 853.2 26.88 
" style="fill: none; stroke: #000000; stroke-width: 0.8; stroke-linejoin: miter; stroke-linecap: square"/>
   </g>
   <g id="patch_149">
    <path d="M 59.24 455.955539 
L 853.2 455.955539 
" style="fill: none; stroke: #000000; stroke-width: 0.8; stroke-linejoin: miter; stroke-linecap: square"/>
   </g>
   <g id="patch_150">
    <path d="M 59.24 26.88 
L 853.2 26.88 
" style="fill: none; stroke: #000000; stroke-width: 0.8; stroke-linejoin: miter; stroke-linecap: square"/>
   </g>
   <g id="text_25">
    <!-- Evan Mobley Percentage Change (24-25 vs 23-24) -->
    <g transform="translate(305.441875 20.88) scale(0.12 -0.12)">
     <defs>
      <path id="DejaVuSans-45" d="M 628 4666 
L 3578 4666 
L 3578 4134 
L 1259 4134 
L 1259 2753 
L 3481 2753 
L 3481 2222 
L 1259 2222 
L 1259 531 
L 3634 531 
L 3634 0 
L 628 0 
L 628 4666 
z
" transform="scale(0.015625)"/>
      <path id="DejaVuSans-76" d="M 191 3500 
L 800 3500 
L 1894 563 
L 2988 3500 
L 3597 3500 
L 2284 0 
L 1503 0 
L 191 3500 
z
" transform="scale(0.015625)"/>
      <path id="DejaVuSans-6f" d="M 1959 3097 
Q 1497 3097 1228 2736 
Q 959 2375 959 1747 
Q 959 1119 1226 758 
Q 1494 397 1959 397 
Q 2419 397 2687 759 
Q 2956 1122 2956 1747 
Q 2956 2369 2687 2733 
Q 2419 3097 1959 3097 
z
M 1959 3584 
Q 2709 3584 3137 3096 
Q 3566 2609 3566 1747 
Q 3566 888 3137 398 
Q 2709 -91 1959 -91 
Q 1206 -91 779 398 
Q 353 888 353 1747 
Q 353 2609 779 3096 
Q 1206 3584 1959 3584 
z
" transform="scale(0.015625)"/>
      <path id="DejaVuSans-62" d="M 3116 1747 
Q 3116 2381 2855 2742 
Q 2594 3103 2138 3103 
Q 1681 3103 1420 2742 
Q 1159 2381 1159 1747 
Q 1159 1113 1420 752 
Q 1681 391 2138 391 
Q 2594 391 2855 752 
Q 3116 1113 3116 1747 
z
M 1159 2969 
Q 1341 3281 1617 3432 
Q 1894 3584 2278 3584 
Q 2916 3584 3314 3078 
Q 3713 2572 3713 1747 
Q 3713 922 3314 415 
Q 2916 -91 2278 -91 
Q 1894 -91 1617 61 
Q 1341 213 1159 525 
L 1159 0 
L 581 0 
L 581 4863 
L 1159 4863 
L 1159 2969 
z
" transform="scale(0.015625)"/>
      <path id="DejaVuSans-6c" d="M 603 4863 
L 1178 4863 
L 1178 0 
L 603 0 
L 603 4863 
z
" transform="scale(0.015625)"/>
      <path id="DejaVuSans-79" d="M 2059 -325 
Q 1816 -950 1584 -1140 
Q 1353 -1331 966 -1331 
L 506 -1331 
L 506 -850 
L 844 -850 
Q 1081 -850 1212 -737 
Q 1344 -625 1503 -206 
L 1606 56 
L 191 3500 
L 800 3500 
L 1894 763 
L 2988 3500 
L 3597 3500 
L 2059 -325 
z
" transform="scale(0.015625)"/>
      <path id="DejaVuSans-2d" d="M 313 2009 
L 1997 2009 
L 1997 1497 
L 313 1497 
L 313 2009 
z
" transform="scale(0.015625)"/>
      <path id="DejaVuSans-73" d="M 2834 3397 
L 2834 2853 
Q 2591 2978 2328 3040 
Q 2066 3103 1784 3103 
Q 1356 3103 1142 2972 
Q 928 2841 928 2578 
Q 928 2378 1081 2264 
Q 1234 2150 1697 2047 
L 1894 2003 
Q 2506 1872 2764 1633 
Q 3022 1394 3022 966 
Q 3022 478 2636 193 
Q 2250 -91 1575 -91 
Q 1294 -91 989 -36 
Q 684 19 347 128 
L 347 722 
Q 666 556 975 473 
Q 1284 391 1588 391 
Q 1994 391 2212 530 
Q 2431 669 2431 922 
Q 2431 1156 2273 1281 
Q 2116 1406 1581 1522 
L 1381 1569 
Q 847 1681 609 1914 
Q 372 2147 372 2553 
Q 372 3047 722 3315 
Q 1072 3584 1716 3584 
Q 2034 3584 2315 3537 
Q 2597 3491 2834 3397 
z
" transform="scale(0.015625)"/>
     </defs>
     <use xlink:href="#DejaVuSans-45"/>
     <use xlink:href="#DejaVuSans-76" transform="translate(63.183594 0)"/>
     <use xlink:href="#DejaVuSans-61" transform="translate(122.363281 0)"/>
     <use xlink:href="#DejaVuSans-6e" transform="translate(183.642578 0)"/>
     <use xlink:href="#DejaVuSans-20" transform="translate(247.021484 0)"/>
     <use xlink:href="#DejaVuSans-4d" transform="translate(278.808594 0)"/>
     <use xlink:href="#DejaVuSans-6f" transform="translate(365.087891 0)"/>
     <use xlink:href="#DejaVuSans-62" transform="translate(426.269531 0)"/>
     <use xlink:href="#DejaVuSans-6c" transform="translate(489.746094 0)"/>
     <use xlink:href="#DejaVuSans-65" transform="translate(517.529297 0)"/>
     <use xlink:href="#DejaVuSans-79" transform="translate(579.052734 0)"/>
     <use xlink:href="#DejaVuSans-20" transform="translate(638.232422 0)"/>
     <use xlink:href="#DejaVuSans-50" transform="translate(670.019531 0)"/>
     <use xlink:href="#DejaVuSans-65" transform="translate(726.697266 0)"/>
     <use xlink:href="#DejaVuSans-72" transform="translate(788.220703 0)"/>
     <use xlink:href="#DejaVuSans-63" transform="translate(827.083984 0)"/>
     <use xlink:href="#DejaVuSans-65" transform="translate(882.064453 0)"/>
     <use xlink:href="#DejaVuSans-6e" transform="translate(943.587891 0)"/>
     <use xlink:href="#DejaVuSans-74" transform="translate(1006.966797 0)"/>
     <use xlink:href="#DejaVuSans-61" transform="translate(1046.175781 0)"/>
     <use xlink:href="#DejaVuSans-67" transform="translate(1107.455078 0)"/>
     <use xlink:href="#DejaVuSans-65" transform="translate(1170.931641 0)"/>
     <use xlink:href="#DejaVuSans-20" transform="translate(1232.455078 0)"/>
     <use xlink:href="#DejaVuSans-43" transform="translate(1264.242188 0)"/>
     <use xlink:href="#DejaVuSans-68" transform="translate(1334.066406 0)"/>
     <use xlink:href="#DejaVuSans-61" transform="translate(1397.445312 0)"/>
     <use xlink:href="#DejaVuSans-6e" transform="translate(1458.724609 0)"/>
     <use xlink:href="#DejaVuSans-67" transform="translate(1522.103516 0)"/>
     <use xlink:href="#DejaVuSans-65" transform="translate(1585.580078 0)"/>
     <use xlink:href="#DejaVuSans-20" transform="translate(1647.103516 0)"/>
     <use xlink:href="#DejaVuSans-28" transform="translate(1678.890625 0)"/>
     <use xlink:href="#DejaVuSans-32" transform="translate(1717.904297 0)"/>
     <use xlink:href="#DejaVuSans-34" transform="translate(1781.527344 0)"/>
     <use xlink:href="#DejaVuSans-2d" transform="translate(1845.150391 0)"/>
     <use xlink:href="#DejaVuSans-32" transform="translate(1881.234375 0)"/>
     <use xlink:href="#DejaVuSans-35" transform="translate(1944.857422 0)"/>
     <use xlink:href="#DejaVuSans-20" transform="translate(2008.480469 0)"/>
     <use xlink:href="#DejaVuSans-76" transform="translate(2040.267578 0)"/>
     <use xlink:href="#DejaVuSans-73" transform="translate(2099.447266 0)"/>
     <use xlink:href="#DejaVuSans-20" transform="translate(2151.546875 0)"/>
     <use xlink:href="#DejaVuSans-32" transform="translate(2183.333984 0)"/>
     <use xlink:href="#DejaVuSans-33" transform="translate(2246.957031 0)"/>
     <use xlink:href="#DejaVuSans-2d" transform="translate(2310.580078 0)"/>
     <use xlink:href="#DejaVuSans-32" transform="translate(2346.664062 0)"/>
     <use xlink:href="#DejaVuSans-34" transform="translate(2410.287109 0)"/>
     <use xlink:href="#DejaVuSans-29" transform="translate(2473.910156 0)"/>
    </g>
   </g>
   <g id="legend_1">
    <g id="patch_151">
     <path d="M 793.33125 93.5925 
L 846.2 93.5925 
Q 848.2 93.5925 848.2 91.5925 
L 848.2 33.88 
Q 848.2 31.88 846.2 31.88 
L 793.33125 31.88 
Q 791.33125 31.88 791.33125 33.88 
L 791.33125 91.5925 
Q 791.33125 93.5925 793.33125 93.5925 
z
" style="fill: #ffffff; opacity: 0.8; stroke: #cccccc; stroke-linejoin: miter"/>
    </g>
    <g id="text_26">
     <!-- Shot Type -->
     <g transform="translate(795.33125 43.478437) scale(0.1 -0.1)">
      <defs>
       <path id="DejaVuSans-53" d="M 3425 4513 
L 3425 3897 
Q 3066 4069 2747 4153 
Q 2428 4238 2131 4238 
Q 1616 4238 1336 4038 
Q 1056 3838 1056 3469 
Q 1056 3159 1242 3001 
Q 1428 2844 1947 2747 
L 2328 2669 
Q 3034 2534 3370 2195 
Q 3706 1856 3706 1288 
Q 3706 609 3251 259 
Q 2797 -91 1919 -91 
Q 1588 -91 1214 -16 
Q 841 59 441 206 
L 441 856 
Q 825 641 1194 531 
Q 1563 422 1919 422 
Q 2459 422 2753 634 
Q 3047 847 3047 1241 
Q 3047 1584 2836 1778 
Q 2625 1972 2144 2069 
L 1759 2144 
Q 1053 2284 737 2584 
Q 422 2884 422 3419 
Q 422 4038 858 4394 
Q 1294 4750 2059 4750 
Q 2388 4750 2728 4690 
Q 3069 4631 3425 4513 
z
" transform="scale(0.015625)"/>
       <path id="DejaVuSans-54" d="M -19 4666 
L 3928 4666 
L 3928 4134 
L 2272 4134 
L 2272 0 
L 1638 0 
L 1638 4134 
L -19 4134 
L -19 4666 
z
" transform="scale(0.015625)"/>
       <path id="DejaVuSans-70" d="M 1159 525 
L 1159 -1331 
L 581 -1331 
L 581 3500 
L 1159 3500 
L 1159 2969 
Q 1341 3281 1617 3432 
Q 1894 3584 2278 3584 
Q 2916 3584 3314 3078 
Q 3713 2572 3713 1747 
Q 3713 922 3314 415 
Q 2916 -91 2278 -91 
Q 1894 -91 1617 61 
Q 1341 213 1159 525 
z
M 3116 1747 
Q 3116 2381 2855 2742 
Q 2594 3103 2138 3103 
Q 1681 3103 1420 2742 
Q 1159 2381 1159 1747 
Q 1159 1113 1420 752 
Q 1681 391 2138 391 
Q 2594 391 2855 752 
Q 3116 1113 3116 1747 
z
" transform="scale(0.015625)"/>
      </defs>
      <use xlink:href="#DejaVuSans-53"/>
      <use xlink:href="#DejaVuSans-68" transform="translate(63.476562 0)"/>
      <use xlink:href="#DejaVuSans-6f" transform="translate(126.855469 0)"/>
      <use xlink:href="#DejaVuSans-74" transform="translate(188.037109 0)"/>
      <use xlink:href="#DejaVuSans-20" transform="translate(227.246094 0)"/>
      <use xlink:href="#DejaVuSans-54" transform="translate(259.033203 0)"/>
      <use xlink:href="#DejaVuSans-79" transform="translate(304.492188 0)"/>
      <use xlink:href="#DejaVuSans-70" transform="translate(363.671875 0)"/>
      <use xlink:href="#DejaVuSans-65" transform="translate(427.148438 0)"/>
     </g>
    </g>
    <g id="patch_152">
     <path d="M 796.515625 58.156563 
L 816.515625 58.156563 
L 816.515625 51.156563 
L 796.515625 51.156563 
z
" style="fill: #ffc107"/>
    </g>
    <g id="text_27">
     <!-- FT -->
     <g transform="translate(824.515625 58.156563) scale(0.1 -0.1)">
      <defs>
       <path id="DejaVuSans-46" d="M 628 4666 
L 3309 4666 
L 3309 4134 
L 1259 4134 
L 1259 2759 
L 3109 2759 
L 3109 2228 
L 1259 2228 
L 1259 0 
L 628 0 
L 628 4666 
z
" transform="scale(0.015625)"/>
      </defs>
      <use xlink:href="#DejaVuSans-46"/>
      <use xlink:href="#DejaVuSans-54" transform="translate(55.769531 0)"/>
     </g>
    </g>
    <g id="patch_153">
     <path d="M 796.515625 72.834688 
L 816.515625 72.834688 
L 816.515625 65.834688 
L 796.515625 65.834688 
z
" style="fill: #2196f3"/>
    </g>
    <g id="text_28">
     <!-- 2PT -->
     <g transform="translate(824.515625 72.834688) scale(0.1 -0.1)">
      <use xlink:href="#DejaVuSans-32"/>
      <use xlink:href="#DejaVuSans-50" transform="translate(63.623047 0)"/>
      <use xlink:href="#DejaVuSans-54" transform="translate(123.925781 0)"/>
     </g>
    </g>
    <g id="patch_154">
     <path d="M 796.515625 87.512812 
L 816.515625 87.512812 
L 816.515625 80.512812 
L 796.515625 80.512812 
z
" style="fill: #4caf50"/>
    </g>
    <g id="text_29">
     <!-- 3PT -->
     <g transform="translate(824.515625 87.512812) scale(0.1 -0.1)">
      <use xlink:href="#DejaVuSans-33"/>
      <use xlink:href="#DejaVuSans-50" transform="translate(63.623047 0)"/>
      <use xlink:href="#DejaVuSans-54" transform="translate(123.925781 0)"/>
     </g>
    </g>
   </g>
  </g>
 </g>
 <defs>
  <clipPath id="pb291ba9a12">
   <rect x="59.24" y="26.88" width="793.96" height="429.075539"/>
  </clipPath>
 </defs>
</svg>
