<?xml version="1.0" encoding="utf-8" standalone="no"?>
<!DOCTYPE svg PUBLIC "-//W3C//DTD SVG 1.1//EN"
  "http://www.w3.org/Graphics/SVG/1.1/DTD/svg11.dtd">
<svg xmlns:xlink="http://www.w3.org/1999/xlink" width="864pt" height="432pt" viewBox="0 0 864 432" xmlns="http://www.w3.org/2000/svg" version="1.1">
 <metadata>
  <rdf:RDF xmlns:dc="http://purl.org/dc/elements/1.1/" xmlns:cc="http://creativecommons.org/ns#" xmlns:rdf="http://www.w3.org/1999/02/22-rdf-syntax-ns#">
   <cc:Work>
    <dc:type rdf:resource="http://purl.org/dc/dcmitype/StillImage"/>
    <dc:date>2025-08-24T12:19:33.788040</dc:date>
    <dc:format>image/svg+xml</dc:format>
    <dc:creator>
     <cc:Agent>
      <dc:title>Matplotlib v3.10.5, https://matplotlib.org/</dc:title>
     </cc:Agent>
    </dc:creator>
   </cc:Work>
  </rdf:RDF>
 </metadata>
 <defs>
  <style type="text/css">*{stroke-linejoin: round; stroke-linecap: butt}</style>
 </defs>
 <g id="figure_1">
  <g id="patch_1">
   <path d="M 0 432 
L 864 432 
L 864 0 
L 0 0 
z
" style="fill: #ffffff"/>
  </g>
  <g id="axes_1">
   <g id="patch_2">
    <path d="M 53.75 387.16 
L 853.2 387.16 
L 853.2 28.32 
L 53.75 28.32 
z
" style="fill: #ffffff"/>
   </g>
   <g id="patch_3">
    <path d="M 53.75 345.755385 
L 70.065306 345.755385 
L 70.065306 362.032383 
L 53.75 362.032383 
z
" clip-path="url(#p3e09e3829c)" style="fill: #ef4444"/>
   </g>
   <g id="patch_4">
    <path d="M 70.065306 345.755385 
L 86.380612 345.755385 
L 86.380612 360.484299 
L 70.065306 360.484299 
z
" clip-path="url(#p3e09e3829c)" style="fill: #ef4444"/>
   </g>
   <g id="patch_5">
    <path d="M 86.380612 345.755385 
L 102.695918 345.755385 
L 102.695918 351.263759 
L 86.380612 351.263759 
z
" clip-path="url(#p3e09e3829c)" style="fill: #ef4444"/>
   </g>
   <g id="patch_6">
    <path d="M 102.695918 345.755385 
L 119.011224 345.755385 
L 119.011224 349.717549 
L 102.695918 349.717549 
z
" clip-path="url(#p3e09e3829c)" style="fill: #ef4444"/>
   </g>
   <g id="patch_7">
    <path d="M 119.011224 345.755385 
L 135.326531 345.755385 
L 135.326531 341.5731 
L 119.011224 341.5731 
z
" clip-path="url(#p3e09e3829c)" style="fill: #22c55e"/>
   </g>
   <g id="patch_8">
    <path d="M 135.326531 345.755385 
L 151.641837 345.755385 
L 151.641837 359.938784 
L 135.326531 359.938784 
z
" clip-path="url(#p3e09e3829c)" style="fill: #ef4444"/>
   </g>
   <g id="patch_9">
    <path d="M 151.641837 345.755385 
L 167.957143 345.755385 
L 167.957143 335.404231 
L 151.641837 335.404231 
z
" clip-path="url(#p3e09e3829c)" style="fill: #22c55e"/>
   </g>
   <g id="patch_10">
    <path d="M 167.957143 345.755385 
L 184.272449 345.755385 
L 184.272449 359.870594 
L 167.957143 359.870594 
z
" clip-path="url(#p3e09e3829c)" style="fill: #ef4444"/>
   </g>
   <g id="patch_11">
    <path d="M 184.272449 345.755385 
L 200.587755 345.755385 
L 200.587755 337.492823 
L 184.272449 337.492823 
z
" clip-path="url(#p3e09e3829c)" style="fill: #22c55e"/>
   </g>
   <g id="patch_12">
    <path d="M 200.587755 345.755385 
L 216.903061 345.755385 
L 216.903061 339.112933 
L 200.587755 339.112933 
z
" clip-path="url(#p3e09e3829c)" style="fill: #22c55e"/>
   </g>
   <g id="patch_13">
    <path d="M 216.903061 345.755385 
L 233.218367 345.755385 
L 233.218367 157.552587 
L 216.903061 157.552587 
z
" clip-path="url(#p3e09e3829c)" style="fill: #22c55e"/>
   </g>
   <g id="patch_14">
    <path d="M 233.218367 345.755385 
L 249.533673 345.755385 
L 249.533673 300.586713 
L 233.218367 300.586713 
z
" clip-path="url(#p3e09e3829c)" style="fill: #22c55e"/>
   </g>
   <g id="patch_15">
    <path d="M 249.533673 345.755385 
L 265.84898 345.755385 
L 265.84898 270.474266 
L 249.533673 270.474266 
z
" clip-path="url(#p3e09e3829c)" style="fill: #22c55e"/>
   </g>
   <g id="patch_16">
    <path d="M 265.84898 345.755385 
L 282.164286 345.755385 
L 282.164286 270.474266 
L 265.84898 270.474266 
z
" clip-path="url(#p3e09e3829c)" style="fill: #22c55e"/>
   </g>
   <g id="patch_17">
    <path d="M 282.164286 345.755385 
L 298.479592 345.755385 
L 298.479592 270.474266 
L 282.164286 270.474266 
z
" clip-path="url(#p3e09e3829c)" style="fill: #22c55e"/>
   </g>
   <g id="patch_18">
    <path d="M 298.479592 345.755385 
L 314.794898 345.755385 
L 314.794898 101.091748 
L 298.479592 101.091748 
z
" clip-path="url(#p3e09e3829c)" style="fill: #22c55e"/>
   </g>
   <g id="patch_19">
    <path d="M 314.794898 345.755385 
L 331.110204 345.755385 
L 331.110204 370.849091 
L 314.794898 370.849091 
z
" clip-path="url(#p3e09e3829c)" style="fill: #ef4444"/>
   </g>
   <g id="patch_20">
    <path d="M 331.110204 345.755385 
L 347.42551 345.755385 
L 347.42551 367.771561 
L 331.110204 367.771561 
z
" clip-path="url(#p3e09e3829c)" style="fill: #ef4444"/>
   </g>
   <g id="patch_21">
    <path d="M 347.42551 345.755385 
L 363.740816 345.755385 
L 363.740816 362.009263 
L 347.42551 362.009263 
z
" clip-path="url(#p3e09e3829c)" style="fill: #ef4444"/>
   </g>
   <g id="patch_22">
    <path d="M 363.740816 345.755385 
L 380.056122 345.755385 
L 380.056122 355.889381 
L 363.740816 355.889381 
z
" clip-path="url(#p3e09e3829c)" style="fill: #ef4444"/>
   </g>
   <g id="patch_23">
    <path d="M 380.056122 345.755385 
L 396.371429 345.755385 
L 396.371429 358.478954 
L 380.056122 358.478954 
z
" clip-path="url(#p3e09e3829c)" style="fill: #ef4444"/>
   </g>
   <g id="patch_24">
    <path d="M 396.371429 345.755385 
L 412.686735 345.755385 
L 412.686735 361.197665 
L 396.371429 361.197665 
z
" clip-path="url(#p3e09e3829c)" style="fill: #ef4444"/>
   </g>
   <g id="patch_25">
    <path d="M 412.686735 345.755385 
L 429.002041 345.755385 
L 429.002041 339.375629 
L 412.686735 339.375629 
z
" clip-path="url(#p3e09e3829c)" style="fill: #22c55e"/>
   </g>
   <g id="patch_26">
    <path d="M 429.002041 345.755385 
L 445.317347 345.755385 
L 445.317347 342.226582 
L 429.002041 342.226582 
z
" clip-path="url(#p3e09e3829c)" style="fill: #22c55e"/>
   </g>
   <g id="patch_27">
    <path d="M 445.317347 345.755385 
L 461.632653 345.755385 
L 461.632653 340.929672 
L 445.317347 340.929672 
z
" clip-path="url(#p3e09e3829c)" style="fill: #22c55e"/>
   </g>
   <g id="patch_28">
    <path d="M 461.632653 345.755385 
L 477.947959 345.755385 
L 477.947959 349.028477 
L 461.632653 349.028477 
z
" clip-path="url(#p3e09e3829c)" style="fill: #ef4444"/>
   </g>
   <g id="patch_29">
    <path d="M 477.947959 345.755385 
L 494.263265 345.755385 
L 494.263265 347.736467 
L 477.947959 347.736467 
z
" clip-path="url(#p3e09e3829c)" style="fill: #ef4444"/>
   </g>
   <g id="patch_30">
    <path d="M 494.263265 345.755385 
L 510.578571 345.755385 
L 510.578571 352.125325 
L 494.263265 352.125325 
z
" clip-path="url(#p3e09e3829c)" style="fill: #ef4444"/>
   </g>
   <g id="patch_31">
    <path d="M 510.578571 345.755385 
L 526.893878 345.755385 
L 526.893878 357.487507 
L 510.578571 357.487507 
z
" clip-path="url(#p3e09e3829c)" style="fill: #ef4444"/>
   </g>
   <g id="patch_32">
    <path d="M 526.893878 345.755385 
L 543.209184 345.755385 
L 543.209184 359.870594 
L 526.893878 359.870594 
z
" clip-path="url(#p3e09e3829c)" style="fill: #ef4444"/>
   </g>
   <g id="patch_33">
    <path d="M 543.209184 345.755385 
L 559.52449 345.755385 
L 559.52449 347.031336 
L 543.209184 347.031336 
z
" clip-path="url(#p3e09e3829c)" style="fill: #ef4444"/>
   </g>
   <g id="patch_34">
    <path d="M 559.52449 345.755385 
L 575.839796 345.755385 
L 575.839796 353.074382 
L 559.52449 353.074382 
z
" clip-path="url(#p3e09e3829c)" style="fill: #ef4444"/>
   </g>
   <g id="patch_35">
    <path d="M 575.839796 345.755385 
L 592.155102 345.755385 
L 592.155102 301.05722 
L 575.839796 301.05722 
z
" clip-path="url(#p3e09e3829c)" style="fill: #22c55e"/>
   </g>
   <g id="patch_36">
    <path d="M 592.155102 345.755385 
L 608.470408 345.755385 
L 608.470408 110.501888 
L 592.155102 110.501888 
z
" clip-path="url(#p3e09e3829c)" style="fill: #22c55e"/>
   </g>
   <g id="patch_37">
    <path d="M 608.470408 345.755385 
L 624.785714 345.755385 
L 624.785714 261.064126 
L 608.470408 261.064126 
z
" clip-path="url(#p3e09e3829c)" style="fill: #22c55e"/>
   </g>
   <g id="patch_38">
    <path d="M 624.785714 345.755385 
L 641.10102 345.755385 
L 641.10102 270.474266 
L 624.785714 270.474266 
z
" clip-path="url(#p3e09e3829c)" style="fill: #22c55e"/>
   </g>
   <g id="patch_39">
    <path d="M 641.10102 345.755385 
L 657.416327 345.755385 
L 657.416327 44.630909 
L 641.10102 44.630909 
z
" clip-path="url(#p3e09e3829c)" style="fill: #22c55e"/>
   </g>
   <g id="patch_40">
    <path d="M 657.416327 345.755385 
L 673.731633 345.755385 
L 673.731633 353.283497 
L 657.416327 353.283497 
z
" clip-path="url(#p3e09e3829c)" style="fill: #ef4444"/>
   </g>
   <g id="patch_41">
    <path d="M 673.731633 345.755385 
L 690.046939 345.755385 
L 690.046939 330.699161 
L 673.731633 330.699161 
z
" clip-path="url(#p3e09e3829c)" style="fill: #22c55e"/>
   </g>
   <g id="patch_42">
    <path d="M 690.046939 345.755385 
L 706.362245 345.755385 
L 706.362245 348.443996 
L 690.046939 348.443996 
z
" clip-path="url(#p3e09e3829c)" style="fill: #ef4444"/>
   </g>
   <g id="patch_43">
    <path d="M 706.362245 345.755385 
L 722.677551 345.755385 
L 722.677551 357.047552 
L 706.362245 357.047552 
z
" clip-path="url(#p3e09e3829c)" style="fill: #ef4444"/>
   </g>
   <g id="patch_44">
    <path d="M 722.677551 345.755385 
L 738.992857 345.755385 
L 738.992857 364.575664 
L 722.677551 364.575664 
z
" clip-path="url(#p3e09e3829c)" style="fill: #ef4444"/>
   </g>
   <g id="patch_45">
    <path d="M 738.992857 345.755385 
L 755.308163 345.755385 
L 755.308163 354.205306 
L 738.992857 354.205306 
z
" clip-path="url(#p3e09e3829c)" style="fill: #ef4444"/>
   </g>
   <g id="patch_46">
    <path d="M 755.308163 345.755385 
L 771.623469 345.755385 
L 771.623469 365.023766 
L 755.308163 365.023766 
z
" clip-path="url(#p3e09e3829c)" style="fill: #ef4444"/>
   </g>
   <g id="patch_47">
    <path d="M 771.623469 345.755385 
L 787.938776 345.755385 
L 787.938776 356.321156 
L 771.623469 356.321156 
z
" clip-path="url(#p3e09e3829c)" style="fill: #ef4444"/>
   </g>
   <g id="patch_48">
    <path d="M 787.938776 345.755385 
L 804.254082 345.755385 
L 804.254082 329.623716 
L 787.938776 329.623716 
z
" clip-path="url(#p3e09e3829c)" style="fill: #22c55e"/>
   </g>
   <g id="patch_49">
    <path d="M 804.254082 345.755385 
L 820.569388 345.755385 
L 820.569388 357.211207 
L 804.254082 357.211207 
z
" clip-path="url(#p3e09e3829c)" style="fill: #ef4444"/>
   </g>
   <g id="patch_50">
    <path d="M 820.569388 345.755385 
L 836.884694 345.755385 
L 836.884694 360.594451 
L 820.569388 360.594451 
z
" clip-path="url(#p3e09e3829c)" style="fill: #ef4444"/>
   </g>
   <g id="matplotlib.axis_1">
    <g id="xtick_1">
     <g id="line2d_1">
      <defs>
       <path id="m3ea09bbb11" d="M 0 0 
L 0 3.5 
" style="stroke: #000000; stroke-width: 0.8"/>
      </defs>
      <g>
       <use xlink:href="#m3ea09bbb11" x="61.907653" y="387.16" style="stroke: #000000; stroke-width: 0.8"/>
      </g>
     </g>
     <g id="text_1">
      <!-- 0 -->
      <g transform="translate(58.726403 401.758438) scale(0.1 -0.1)">
       <defs>
        <path id="DejaVuSans-30" d="M 2034 4250 
Q 1547 4250 1301 3770 
Q 1056 3291 1056 2328 
Q 1056 1369 1301 889 
Q 1547 409 2034 409 
Q 2525 409 2770 889 
Q 3016 1369 3016 2328 
Q 3016 3291 2770 3770 
Q 2525 4250 2034 4250 
z
M 2034 4750 
Q 2819 4750 3233 4129 
Q 3647 3509 3647 2328 
Q 3647 1150 3233 529 
Q 2819 -91 2034 -91 
Q 1250 -91 836 529 
Q 422 1150 422 2328 
Q 422 3509 836 4129 
Q 1250 4750 2034 4750 
z
" transform="scale(0.015625)"/>
       </defs>
       <use xlink:href="#DejaVuSans-30"/>
      </g>
     </g>
    </g>
    <g id="xtick_2">
     <g id="line2d_2">
      <g>
       <use xlink:href="#m3ea09bbb11" x="159.79949" y="387.16" style="stroke: #000000; stroke-width: 0.8"/>
      </g>
     </g>
     <g id="text_2">
      <!-- 6 -->
      <g transform="translate(156.61824 401.758438) scale(0.1 -0.1)">
       <defs>
        <path id="DejaVuSans-36" d="M 2113 2584 
Q 1688 2584 1439 2293 
Q 1191 2003 1191 1497 
Q 1191 994 1439 701 
Q 1688 409 2113 409 
Q 2538 409 2786 701 
Q 3034 994 3034 1497 
Q 3034 2003 2786 2293 
Q 2538 2584 2113 2584 
z
M 3366 4563 
L 3366 3988 
Q 3128 4100 2886 4159 
Q 2644 4219 2406 4219 
Q 1781 4219 1451 3797 
Q 1122 3375 1075 2522 
Q 1259 2794 1537 2939 
Q 1816 3084 2150 3084 
Q 2853 3084 3261 2657 
Q 3669 2231 3669 1497 
Q 3669 778 3244 343 
Q 2819 -91 2113 -91 
Q 1303 -91 875 529 
Q 447 1150 447 2328 
Q 447 3434 972 4092 
Q 1497 4750 2381 4750 
Q 2619 4750 2861 4703 
Q 3103 4656 3366 4563 
z
" transform="scale(0.015625)"/>
       </defs>
       <use xlink:href="#DejaVuSans-36"/>
      </g>
     </g>
    </g>
    <g id="xtick_3">
     <g id="line2d_3">
      <g>
       <use xlink:href="#m3ea09bbb11" x="257.691327" y="387.16" style="stroke: #000000; stroke-width: 0.8"/>
      </g>
     </g>
     <g id="text_3">
      <!-- 12 -->
      <g transform="translate(251.328827 401.758438) scale(0.1 -0.1)">
       <defs>
        <path id="DejaVuSans-31" d="M 794 531 
L 1825 531 
L 1825 4091 
L 703 3866 
L 703 4441 
L 1819 4666 
L 2450 4666 
L 2450 531 
L 3481 531 
L 3481 0 
L 794 0 
L 794 531 
z
" transform="scale(0.015625)"/>
        <path id="DejaVuSans-32" d="M 1228 531 
L 3431 531 
L 3431 0 
L 469 0 
L 469 531 
Q 828 903 1448 1529 
Q 2069 2156 2228 2338 
Q 2531 2678 2651 2914 
Q 2772 3150 2772 3378 
Q 2772 3750 2511 3984 
Q 2250 4219 1831 4219 
Q 1534 4219 1204 4116 
Q 875 4013 500 3803 
L 500 4441 
Q 881 4594 1212 4672 
Q 1544 4750 1819 4750 
Q 2544 4750 2975 4387 
Q 3406 4025 3406 3419 
Q 3406 3131 3298 2873 
Q 3191 2616 2906 2266 
Q 2828 2175 2409 1742 
Q 1991 1309 1228 531 
z
" transform="scale(0.015625)"/>
       </defs>
       <use xlink:href="#DejaVuSans-31"/>
       <use xlink:href="#DejaVuSans-32" transform="translate(63.623047 0)"/>
      </g>
     </g>
    </g>
    <g id="xtick_4">
     <g id="line2d_4">
      <g>
       <use xlink:href="#m3ea09bbb11" x="355.583163" y="387.16" style="stroke: #000000; stroke-width: 0.8"/>
      </g>
     </g>
     <g id="text_4">
      <!-- 18 -->
      <g transform="translate(349.220663 401.758438) scale(0.1 -0.1)">
       <defs>
        <path id="DejaVuSans-38" d="M 2034 2216 
Q 1584 2216 1326 1975 
Q 1069 1734 1069 1313 
Q 1069 891 1326 650 
Q 1584 409 2034 409 
Q 2484 409 2743 651 
Q 3003 894 3003 1313 
Q 3003 1734 2745 1975 
Q 2488 2216 2034 2216 
z
M 1403 2484 
Q 997 2584 770 2862 
Q 544 3141 544 3541 
Q 544 4100 942 4425 
Q 1341 4750 2034 4750 
Q 2731 4750 3128 4425 
Q 3525 4100 3525 3541 
Q 3525 3141 3298 2862 
Q 3072 2584 2669 2484 
Q 3125 2378 3379 2068 
Q 3634 1759 3634 1313 
Q 3634 634 3220 271 
Q 2806 -91 2034 -91 
Q 1263 -91 848 271 
Q 434 634 434 1313 
Q 434 1759 690 2068 
Q 947 2378 1403 2484 
z
M 1172 3481 
Q 1172 3119 1398 2916 
Q 1625 2713 2034 2713 
Q 2441 2713 2670 2916 
Q 2900 3119 2900 3481 
Q 2900 3844 2670 4047 
Q 2441 4250 2034 4250 
Q 1625 4250 1398 4047 
Q 1172 3844 1172 3481 
z
" transform="scale(0.015625)"/>
       </defs>
       <use xlink:href="#DejaVuSans-31"/>
       <use xlink:href="#DejaVuSans-38" transform="translate(63.623047 0)"/>
      </g>
     </g>
    </g>
    <g id="xtick_5">
     <g id="line2d_5">
      <g>
       <use xlink:href="#m3ea09bbb11" x="453.475" y="387.16" style="stroke: #000000; stroke-width: 0.8"/>
      </g>
     </g>
     <g id="text_5">
      <!-- 24 -->
      <g transform="translate(447.1125 401.758438) scale(0.1 -0.1)">
       <defs>
        <path id="DejaVuSans-34" d="M 2419 4116 
L 825 1625 
L 2419 1625 
L 2419 4116 
z
M 2253 4666 
L 3047 4666 
L 3047 1625 
L 3713 1625 
L 3713 1100 
L 3047 1100 
L 3047 0 
L 2419 0 
L 2419 1100 
L 313 1100 
L 313 1709 
L 2253 4666 
z
" transform="scale(0.015625)"/>
       </defs>
       <use xlink:href="#DejaVuSans-32"/>
       <use xlink:href="#DejaVuSans-34" transform="translate(63.623047 0)"/>
      </g>
     </g>
    </g>
    <g id="xtick_6">
     <g id="line2d_6">
      <g>
       <use xlink:href="#m3ea09bbb11" x="551.366837" y="387.16" style="stroke: #000000; stroke-width: 0.8"/>
      </g>
     </g>
     <g id="text_6">
      <!-- 30 -->
      <g transform="translate(545.004337 401.758438) scale(0.1 -0.1)">
       <defs>
        <path id="DejaVuSans-33" d="M 2597 2516 
Q 3050 2419 3304 2112 
Q 3559 1806 3559 1356 
Q 3559 666 3084 287 
Q 2609 -91 1734 -91 
Q 1441 -91 1130 -33 
Q 819 25 488 141 
L 488 750 
Q 750 597 1062 519 
Q 1375 441 1716 441 
Q 2309 441 2620 675 
Q 2931 909 2931 1356 
Q 2931 1769 2642 2001 
Q 2353 2234 1838 2234 
L 1294 2234 
L 1294 2753 
L 1863 2753 
Q 2328 2753 2575 2939 
Q 2822 3125 2822 3475 
Q 2822 3834 2567 4026 
Q 2313 4219 1838 4219 
Q 1578 4219 1281 4162 
Q 984 4106 628 3988 
L 628 4550 
Q 988 4650 1302 4700 
Q 1616 4750 1894 4750 
Q 2613 4750 3031 4423 
Q 3450 4097 3450 3541 
Q 3450 3153 3228 2886 
Q 3006 2619 2597 2516 
z
" transform="scale(0.015625)"/>
       </defs>
       <use xlink:href="#DejaVuSans-33"/>
       <use xlink:href="#DejaVuSans-30" transform="translate(63.623047 0)"/>
      </g>
     </g>
    </g>
    <g id="xtick_7">
     <g id="line2d_7">
      <g>
       <use xlink:href="#m3ea09bbb11" x="649.258673" y="387.16" style="stroke: #000000; stroke-width: 0.8"/>
      </g>
     </g>
     <g id="text_7">
      <!-- 36 -->
      <g transform="translate(642.896173 401.758438) scale(0.1 -0.1)">
       <use xlink:href="#DejaVuSans-33"/>
       <use xlink:href="#DejaVuSans-36" transform="translate(63.623047 0)"/>
      </g>
     </g>
    </g>
    <g id="xtick_8">
     <g id="line2d_8">
      <g>
       <use xlink:href="#m3ea09bbb11" x="747.15051" y="387.16" style="stroke: #000000; stroke-width: 0.8"/>
      </g>
     </g>
     <g id="text_8">
      <!-- 42 -->
      <g transform="translate(740.78801 401.758438) scale(0.1 -0.1)">
       <use xlink:href="#DejaVuSans-34"/>
       <use xlink:href="#DejaVuSans-32" transform="translate(63.623047 0)"/>
      </g>
     </g>
    </g>
    <g id="xtick_9">
     <g id="line2d_9">
      <g>
       <use xlink:href="#m3ea09bbb11" x="845.042347" y="387.16" style="stroke: #000000; stroke-width: 0.8"/>
      </g>
     </g>
     <g id="text_9">
      <!-- 48 -->
      <g transform="translate(838.679847 401.758438) scale(0.1 -0.1)">
       <use xlink:href="#DejaVuSans-34"/>
       <use xlink:href="#DejaVuSans-38" transform="translate(63.623047 0)"/>
      </g>
     </g>
    </g>
    <g id="text_10">
     <!-- Game Minute -->
     <g transform="translate(413.213125 416.95625) scale(0.12 -0.12)">
      <defs>
       <path id="DejaVuSans-47" d="M 3809 666 
L 3809 1919 
L 2778 1919 
L 2778 2438 
L 4434 2438 
L 4434 434 
Q 4069 175 3628 42 
Q 3188 -91 2688 -91 
Q 1594 -91 976 548 
Q 359 1188 359 2328 
Q 359 3472 976 4111 
Q 1594 4750 2688 4750 
Q 3144 4750 3555 4637 
Q 3966 4525 4313 4306 
L 4313 3634 
Q 3963 3931 3569 4081 
Q 3175 4231 2741 4231 
Q 1884 4231 1454 3753 
Q 1025 3275 1025 2328 
Q 1025 1384 1454 906 
Q 1884 428 2741 428 
Q 3075 428 3337 486 
Q 3600 544 3809 666 
z
" transform="scale(0.015625)"/>
       <path id="DejaVuSans-61" d="M 2194 1759 
Q 1497 1759 1228 1600 
Q 959 1441 959 1056 
Q 959 750 1161 570 
Q 1363 391 1709 391 
Q 2188 391 2477 730 
Q 2766 1069 2766 1631 
L 2766 1759 
L 2194 1759 
z
M 3341 1997 
L 3341 0 
L 2766 0 
L 2766 531 
Q 2569 213 2275 61 
Q 1981 -91 1556 -91 
Q 1019 -91 701 211 
Q 384 513 384 1019 
Q 384 1609 779 1909 
Q 1175 2209 1959 2209 
L 2766 2209 
L 2766 2266 
Q 2766 2663 2505 2880 
Q 2244 3097 1772 3097 
Q 1472 3097 1187 3025 
Q 903 2953 641 2809 
L 641 3341 
Q 956 3463 1253 3523 
Q 1550 3584 1831 3584 
Q 2591 3584 2966 3190 
Q 3341 2797 3341 1997 
z
" transform="scale(0.015625)"/>
       <path id="DejaVuSans-6d" d="M 3328 2828 
Q 3544 3216 3844 3400 
Q 4144 3584 4550 3584 
Q 5097 3584 5394 3201 
Q 5691 2819 5691 2113 
L 5691 0 
L 5113 0 
L 5113 2094 
Q 5113 2597 4934 2840 
Q 4756 3084 4391 3084 
Q 3944 3084 3684 2787 
Q 3425 2491 3425 1978 
L 3425 0 
L 2847 0 
L 2847 2094 
Q 2847 2600 2669 2842 
Q 2491 3084 2119 3084 
Q 1678 3084 1418 2786 
Q 1159 2488 1159 1978 
L 1159 0 
L 581 0 
L 581 3500 
L 1159 3500 
L 1159 2956 
Q 1356 3278 1631 3431 
Q 1906 3584 2284 3584 
Q 2666 3584 2933 3390 
Q 3200 3197 3328 2828 
z
" transform="scale(0.015625)"/>
       <path id="DejaVuSans-65" d="M 3597 1894 
L 3597 1613 
L 953 1613 
Q 991 1019 1311 708 
Q 1631 397 2203 397 
Q 2534 397 2845 478 
Q 3156 559 3463 722 
L 3463 178 
Q 3153 47 2828 -22 
Q 2503 -91 2169 -91 
Q 1331 -91 842 396 
Q 353 884 353 1716 
Q 353 2575 817 3079 
Q 1281 3584 2069 3584 
Q 2775 3584 3186 3129 
Q 3597 2675 3597 1894 
z
M 3022 2063 
Q 3016 2534 2758 2815 
Q 2500 3097 2075 3097 
Q 1594 3097 1305 2825 
Q 1016 2553 972 2059 
L 3022 2063 
z
" transform="scale(0.015625)"/>
       <path id="DejaVuSans-20" transform="scale(0.015625)"/>
       <path id="DejaVuSans-4d" d="M 628 4666 
L 1569 4666 
L 2759 1491 
L 3956 4666 
L 4897 4666 
L 4897 0 
L 4281 0 
L 4281 4097 
L 3078 897 
L 2444 897 
L 1241 4097 
L 1241 0 
L 628 0 
L 628 4666 
z
" transform="scale(0.015625)"/>
       <path id="DejaVuSans-69" d="M 603 3500 
L 1178 3500 
L 1178 0 
L 603 0 
L 603 3500 
z
M 603 4863 
L 1178 4863 
L 1178 4134 
L 603 4134 
L 603 4863 
z
" transform="scale(0.015625)"/>
       <path id="DejaVuSans-6e" d="M 3513 2113 
L 3513 0 
L 2938 0 
L 2938 2094 
Q 2938 2591 2744 2837 
Q 2550 3084 2163 3084 
Q 1697 3084 1428 2787 
Q 1159 2491 1159 1978 
L 1159 0 
L 581 0 
L 581 3500 
L 1159 3500 
L 1159 2956 
Q 1366 3272 1645 3428 
Q 1925 3584 2291 3584 
Q 2894 3584 3203 3211 
Q 3513 2838 3513 2113 
z
" transform="scale(0.015625)"/>
       <path id="DejaVuSans-75" d="M 544 1381 
L 544 3500 
L 1119 3500 
L 1119 1403 
Q 1119 906 1312 657 
Q 1506 409 1894 409 
Q 2359 409 2629 706 
Q 2900 1003 2900 1516 
L 2900 3500 
L 3475 3500 
L 3475 0 
L 2900 0 
L 2900 538 
Q 2691 219 2414 64 
Q 2138 -91 1772 -91 
Q 1169 -91 856 284 
Q 544 659 544 1381 
z
M 1991 3584 
L 1991 3584 
z
" transform="scale(0.015625)"/>
       <path id="DejaVuSans-74" d="M 1172 4494 
L 1172 3500 
L 2356 3500 
L 2356 3053 
L 1172 3053 
L 1172 1153 
Q 1172 725 1289 603 
Q 1406 481 1766 481 
L 2356 481 
L 2356 0 
L 1766 0 
Q 1100 0 847 248 
Q 594 497 594 1153 
L 594 3053 
L 172 3053 
L 172 3500 
L 594 3500 
L 594 4494 
L 1172 4494 
z
" transform="scale(0.015625)"/>
      </defs>
      <use xlink:href="#DejaVuSans-47"/>
      <use xlink:href="#DejaVuSans-61" transform="translate(77.490234 0)"/>
      <use xlink:href="#DejaVuSans-6d" transform="translate(138.769531 0)"/>
      <use xlink:href="#DejaVuSans-65" transform="translate(236.181641 0)"/>
      <use xlink:href="#DejaVuSans-20" transform="translate(297.705078 0)"/>
      <use xlink:href="#DejaVuSans-4d" transform="translate(329.492188 0)"/>
      <use xlink:href="#DejaVuSans-69" transform="translate(415.771484 0)"/>
      <use xlink:href="#DejaVuSans-6e" transform="translate(443.554688 0)"/>
      <use xlink:href="#DejaVuSans-75" transform="translate(506.933594 0)"/>
      <use xlink:href="#DejaVuSans-74" transform="translate(570.3125 0)"/>
      <use xlink:href="#DejaVuSans-65" transform="translate(609.521484 0)"/>
     </g>
    </g>
   </g>
   <g id="matplotlib.axis_2">
    <g id="ytick_1">
     <g id="line2d_10">
      <path d="M 53.75 345.755385 
L 853.2 345.755385 
" clip-path="url(#p3e09e3829c)" style="fill: none; stroke-dasharray: 2.96,1.28; stroke-dashoffset: 0; stroke: #b0b0b0; stroke-opacity: 0.7; stroke-width: 0.8"/>
     </g>
     <g id="line2d_11">
      <defs>
       <path id="md1da538f6b" d="M 0 0 
L -3.5 0 
" style="stroke: #000000; stroke-width: 0.8"/>
      </defs>
      <g>
       <use xlink:href="#md1da538f6b" x="53.75" y="345.755385" style="stroke: #000000; stroke-width: 0.8"/>
      </g>
     </g>
     <g id="text_11">
      <!-- 0 -->
      <g transform="translate(40.3875 349.554603) scale(0.1 -0.1)">
       <use xlink:href="#DejaVuSans-30"/>
      </g>
     </g>
    </g>
    <g id="ytick_2">
     <g id="line2d_12">
      <path d="M 53.75 270.474266 
L 853.2 270.474266 
" clip-path="url(#p3e09e3829c)" style="fill: none; stroke-dasharray: 2.96,1.28; stroke-dashoffset: 0; stroke: #b0b0b0; stroke-opacity: 0.7; stroke-width: 0.8"/>
     </g>
     <g id="line2d_13">
      <g>
       <use xlink:href="#md1da538f6b" x="53.75" y="270.474266" style="stroke: #000000; stroke-width: 0.8"/>
      </g>
     </g>
     <g id="text_12">
      <!-- 200 -->
      <g transform="translate(27.6625 274.273484) scale(0.1 -0.1)">
       <use xlink:href="#DejaVuSans-32"/>
       <use xlink:href="#DejaVuSans-30" transform="translate(63.623047 0)"/>
       <use xlink:href="#DejaVuSans-30" transform="translate(127.246094 0)"/>
      </g>
     </g>
    </g>
    <g id="ytick_3">
     <g id="line2d_14">
      <path d="M 53.75 195.193147 
L 853.2 195.193147 
" clip-path="url(#p3e09e3829c)" style="fill: none; stroke-dasharray: 2.96,1.28; stroke-dashoffset: 0; stroke: #b0b0b0; stroke-opacity: 0.7; stroke-width: 0.8"/>
     </g>
     <g id="line2d_15">
      <g>
       <use xlink:href="#md1da538f6b" x="53.75" y="195.193147" style="stroke: #000000; stroke-width: 0.8"/>
      </g>
     </g>
     <g id="text_13">
      <!-- 400 -->
      <g transform="translate(27.6625 198.992366) scale(0.1 -0.1)">
       <use xlink:href="#DejaVuSans-34"/>
       <use xlink:href="#DejaVuSans-30" transform="translate(63.623047 0)"/>
       <use xlink:href="#DejaVuSans-30" transform="translate(127.246094 0)"/>
      </g>
     </g>
    </g>
    <g id="ytick_4">
     <g id="line2d_16">
      <path d="M 53.75 119.912028 
L 853.2 119.912028 
" clip-path="url(#p3e09e3829c)" style="fill: none; stroke-dasharray: 2.96,1.28; stroke-dashoffset: 0; stroke: #b0b0b0; stroke-opacity: 0.7; stroke-width: 0.8"/>
     </g>
     <g id="line2d_17">
      <g>
       <use xlink:href="#md1da538f6b" x="53.75" y="119.912028" style="stroke: #000000; stroke-width: 0.8"/>
      </g>
     </g>
     <g id="text_14">
      <!-- 600 -->
      <g transform="translate(27.6625 123.711247) scale(0.1 -0.1)">
       <use xlink:href="#DejaVuSans-36"/>
       <use xlink:href="#DejaVuSans-30" transform="translate(63.623047 0)"/>
       <use xlink:href="#DejaVuSans-30" transform="translate(127.246094 0)"/>
      </g>
     </g>
    </g>
    <g id="ytick_5">
     <g id="line2d_18">
      <path d="M 53.75 44.630909 
L 853.2 44.630909 
" clip-path="url(#p3e09e3829c)" style="fill: none; stroke-dasharray: 2.96,1.28; stroke-dashoffset: 0; stroke: #b0b0b0; stroke-opacity: 0.7; stroke-width: 0.8"/>
     </g>
     <g id="line2d_19">
      <g>
       <use xlink:href="#md1da538f6b" x="53.75" y="44.630909" style="stroke: #000000; stroke-width: 0.8"/>
      </g>
     </g>
     <g id="text_15">
      <!-- 800 -->
      <g transform="translate(27.6625 48.430128) scale(0.1 -0.1)">
       <use xlink:href="#DejaVuSans-38"/>
       <use xlink:href="#DejaVuSans-30" transform="translate(63.623047 0)"/>
       <use xlink:href="#DejaVuSans-30" transform="translate(127.246094 0)"/>
      </g>
     </g>
    </g>
    <g id="text_16">
     <!-- Percentage Change (%) -->
     <g transform="translate(21.166875 278.65625) rotate(-90) scale(0.12 -0.12)">
      <defs>
       <path id="DejaVuSans-50" d="M 1259 4147 
L 1259 2394 
L 2053 2394 
Q 2494 2394 2734 2622 
Q 2975 2850 2975 3272 
Q 2975 3691 2734 3919 
Q 2494 4147 2053 4147 
L 1259 4147 
z
M 628 4666 
L 2053 4666 
Q 2838 4666 3239 4311 
Q 3641 3956 3641 3272 
Q 3641 2581 3239 2228 
Q 2838 1875 2053 1875 
L 1259 1875 
L 1259 0 
L 628 0 
L 628 4666 
z
" transform="scale(0.015625)"/>
       <path id="DejaVuSans-72" d="M 2631 2963 
Q 2534 3019 2420 3045 
Q 2306 3072 2169 3072 
Q 1681 3072 1420 2755 
Q 1159 2438 1159 1844 
L 1159 0 
L 581 0 
L 581 3500 
L 1159 3500 
L 1159 2956 
Q 1341 3275 1631 3429 
Q 1922 3584 2338 3584 
Q 2397 3584 2469 3576 
Q 2541 3569 2628 3553 
L 2631 2963 
z
" transform="scale(0.015625)"/>
       <path id="DejaVuSans-63" d="M 3122 3366 
L 3122 2828 
Q 2878 2963 2633 3030 
Q 2388 3097 2138 3097 
Q 1578 3097 1268 2742 
Q 959 2388 959 1747 
Q 959 1106 1268 751 
Q 1578 397 2138 397 
Q 2388 397 2633 464 
Q 2878 531 3122 666 
L 3122 134 
Q 2881 22 2623 -34 
Q 2366 -91 2075 -91 
Q 1284 -91 818 406 
Q 353 903 353 1747 
Q 353 2603 823 3093 
Q 1294 3584 2113 3584 
Q 2378 3584 2631 3529 
Q 2884 3475 3122 3366 
z
" transform="scale(0.015625)"/>
       <path id="DejaVuSans-67" d="M 2906 1791 
Q 2906 2416 2648 2759 
Q 2391 3103 1925 3103 
Q 1463 3103 1205 2759 
Q 947 2416 947 1791 
Q 947 1169 1205 825 
Q 1463 481 1925 481 
Q 2391 481 2648 825 
Q 2906 1169 2906 1791 
z
M 3481 434 
Q 3481 -459 3084 -895 
Q 2688 -1331 1869 -1331 
Q 1566 -1331 1297 -1286 
Q 1028 -1241 775 -1147 
L 775 -588 
Q 1028 -725 1275 -790 
Q 1522 -856 1778 -856 
Q 2344 -856 2625 -561 
Q 2906 -266 2906 331 
L 2906 616 
Q 2728 306 2450 153 
Q 2172 0 1784 0 
Q 1141 0 747 490 
Q 353 981 353 1791 
Q 353 2603 747 3093 
Q 1141 3584 1784 3584 
Q 2172 3584 2450 3431 
Q 2728 3278 2906 2969 
L 2906 3500 
L 3481 3500 
L 3481 434 
z
" transform="scale(0.015625)"/>
       <path id="DejaVuSans-43" d="M 4122 4306 
L 4122 3641 
Q 3803 3938 3442 4084 
Q 3081 4231 2675 4231 
Q 1875 4231 1450 3742 
Q 1025 3253 1025 2328 
Q 1025 1406 1450 917 
Q 1875 428 2675 428 
Q 3081 428 3442 575 
Q 3803 722 4122 1019 
L 4122 359 
Q 3791 134 3420 21 
Q 3050 -91 2638 -91 
Q 1578 -91 968 557 
Q 359 1206 359 2328 
Q 359 3453 968 4101 
Q 1578 4750 2638 4750 
Q 3056 4750 3426 4639 
Q 3797 4528 4122 4306 
z
" transform="scale(0.015625)"/>
       <path id="DejaVuSans-68" d="M 3513 2113 
L 3513 0 
L 2938 0 
L 2938 2094 
Q 2938 2591 2744 2837 
Q 2550 3084 2163 3084 
Q 1697 3084 1428 2787 
Q 1159 2491 1159 1978 
L 1159 0 
L 581 0 
L 581 4863 
L 1159 4863 
L 1159 2956 
Q 1366 3272 1645 3428 
Q 1925 3584 2291 3584 
Q 2894 3584 3203 3211 
Q 3513 2838 3513 2113 
z
" transform="scale(0.015625)"/>
       <path id="DejaVuSans-28" d="M 1984 4856 
Q 1566 4138 1362 3434 
Q 1159 2731 1159 2009 
Q 1159 1288 1364 580 
Q 1569 -128 1984 -844 
L 1484 -844 
Q 1016 -109 783 600 
Q 550 1309 550 2009 
Q 550 2706 781 3412 
Q 1013 4119 1484 4856 
L 1984 4856 
z
" transform="scale(0.015625)"/>
       <path id="DejaVuSans-25" d="M 4653 2053 
Q 4381 2053 4226 1822 
Q 4072 1591 4072 1178 
Q 4072 772 4226 539 
Q 4381 306 4653 306 
Q 4919 306 5073 539 
Q 5228 772 5228 1178 
Q 5228 1588 5073 1820 
Q 4919 2053 4653 2053 
z
M 4653 2450 
Q 5147 2450 5437 2106 
Q 5728 1763 5728 1178 
Q 5728 594 5436 251 
Q 5144 -91 4653 -91 
Q 4153 -91 3862 251 
Q 3572 594 3572 1178 
Q 3572 1766 3864 2108 
Q 4156 2450 4653 2450 
z
M 1428 4353 
Q 1159 4353 1004 4120 
Q 850 3888 850 3481 
Q 850 3069 1003 2837 
Q 1156 2606 1428 2606 
Q 1700 2606 1854 2837 
Q 2009 3069 2009 3481 
Q 2009 3884 1853 4118 
Q 1697 4353 1428 4353 
z
M 4250 4750 
L 4750 4750 
L 1831 -91 
L 1331 -91 
L 4250 4750 
z
M 1428 4750 
Q 1922 4750 2215 4408 
Q 2509 4066 2509 3481 
Q 2509 2891 2217 2550 
Q 1925 2209 1428 2209 
Q 931 2209 642 2551 
Q 353 2894 353 3481 
Q 353 4063 643 4406 
Q 934 4750 1428 4750 
z
" transform="scale(0.015625)"/>
       <path id="DejaVuSans-29" d="M 513 4856 
L 1013 4856 
Q 1481 4119 1714 3412 
Q 1947 2706 1947 2009 
Q 1947 1309 1714 600 
Q 1481 -109 1013 -844 
L 513 -844 
Q 928 -128 1133 580 
Q 1338 1288 1338 2009 
Q 1338 2731 1133 3434 
Q 928 4138 513 4856 
z
" transform="scale(0.015625)"/>
      </defs>
      <use xlink:href="#DejaVuSans-50"/>
      <use xlink:href="#DejaVuSans-65" transform="translate(56.677734 0)"/>
      <use xlink:href="#DejaVuSans-72" transform="translate(118.201172 0)"/>
      <use xlink:href="#DejaVuSans-63" transform="translate(157.064453 0)"/>
      <use xlink:href="#DejaVuSans-65" transform="translate(212.044922 0)"/>
      <use xlink:href="#DejaVuSans-6e" transform="translate(273.568359 0)"/>
      <use xlink:href="#DejaVuSans-74" transform="translate(336.947266 0)"/>
      <use xlink:href="#DejaVuSans-61" transform="translate(376.15625 0)"/>
      <use xlink:href="#DejaVuSans-67" transform="translate(437.435547 0)"/>
      <use xlink:href="#DejaVuSans-65" transform="translate(500.912109 0)"/>
      <use xlink:href="#DejaVuSans-20" transform="translate(562.435547 0)"/>
      <use xlink:href="#DejaVuSans-43" transform="translate(594.222656 0)"/>
      <use xlink:href="#DejaVuSans-68" transform="translate(664.046875 0)"/>
      <use xlink:href="#DejaVuSans-61" transform="translate(727.425781 0)"/>
      <use xlink:href="#DejaVuSans-6e" transform="translate(788.705078 0)"/>
      <use xlink:href="#DejaVuSans-67" transform="translate(852.083984 0)"/>
      <use xlink:href="#DejaVuSans-65" transform="translate(915.560547 0)"/>
      <use xlink:href="#DejaVuSans-20" transform="translate(977.083984 0)"/>
      <use xlink:href="#DejaVuSans-28" transform="translate(1008.871094 0)"/>
      <use xlink:href="#DejaVuSans-25" transform="translate(1047.884766 0)"/>
      <use xlink:href="#DejaVuSans-29" transform="translate(1142.904297 0)"/>
     </g>
    </g>
   </g>
   <g id="line2d_20">
    <path d="M 53.75 345.755385 
L 853.2 345.755385 
" clip-path="url(#p3e09e3829c)" style="fill: none; stroke: #000000; stroke-width: 0.8; stroke-linecap: square"/>
   </g>
   <g id="patch_51">
    <path d="M 53.75 387.16 
L 53.75 28.32 
" style="fill: none; stroke: #000000; stroke-width: 0.8; stroke-linejoin: miter; stroke-linecap: square"/>
   </g>
   <g id="patch_52">
    <path d="M 853.2 387.16 
L 853.2 28.32 
" style="fill: none; stroke: #000000; stroke-width: 0.8; stroke-linejoin: miter; stroke-linecap: square"/>
   </g>
   <g id="patch_53">
    <path d="M 53.75 387.16 
L 853.2 387.16 
" style="fill: none; stroke: #000000; stroke-width: 0.8; stroke-linejoin: miter; stroke-linecap: square"/>
   </g>
   <g id="patch_54">
    <path d="M 53.75 28.32 
L 853.2 28.32 
" style="fill: none; stroke: #000000; stroke-width: 0.8; stroke-linejoin: miter; stroke-linecap: square"/>
   </g>
   <g id="text_17">
    <!-- Point Pct Change per Minute: Stephen Curry (24-25 vs 23-24) -->
    <g transform="translate(207.6925 22.32) scale(0.16 -0.16)">
     <defs>
      <path id="DejaVuSans-6f" d="M 1959 3097 
Q 1497 3097 1228 2736 
Q 959 2375 959 1747 
Q 959 1119 1226 758 
Q 1494 397 1959 397 
Q 2419 397 2687 759 
Q 2956 1122 2956 1747 
Q 2956 2369 2687 2733 
Q 2419 3097 1959 3097 
z
M 1959 3584 
Q 2709 3584 3137 3096 
Q 3566 2609 3566 1747 
Q 3566 888 3137 398 
Q 2709 -91 1959 -91 
Q 1206 -91 779 398 
Q 353 888 353 1747 
Q 353 2609 779 3096 
Q 1206 3584 1959 3584 
z
" transform="scale(0.015625)"/>
      <path id="DejaVuSans-70" d="M 1159 525 
L 1159 -1331 
L 581 -1331 
L 581 3500 
L 1159 3500 
L 1159 2969 
Q 1341 3281 1617 3432 
Q 1894 3584 2278 3584 
Q 2916 3584 3314 3078 
Q 3713 2572 3713 1747 
Q 3713 922 3314 415 
Q 2916 -91 2278 -91 
Q 1894 -91 1617 61 
Q 1341 213 1159 525 
z
M 3116 1747 
Q 3116 2381 2855 2742 
Q 2594 3103 2138 3103 
Q 1681 3103 1420 2742 
Q 1159 2381 1159 1747 
Q 1159 1113 1420 752 
Q 1681 391 2138 391 
Q 2594 391 2855 752 
Q 3116 1113 3116 1747 
z
" transform="scale(0.015625)"/>
      <path id="DejaVuSans-3a" d="M 750 794 
L 1409 794 
L 1409 0 
L 750 0 
L 750 794 
z
M 750 3309 
L 1409 3309 
L 1409 2516 
L 750 2516 
L 750 3309 
z
" transform="scale(0.015625)"/>
      <path id="DejaVuSans-53" d="M 3425 4513 
L 3425 3897 
Q 3066 4069 2747 4153 
Q 2428 4238 2131 4238 
Q 1616 4238 1336 4038 
Q 1056 3838 1056 3469 
Q 1056 3159 1242 3001 
Q 1428 2844 1947 2747 
L 2328 2669 
Q 3034 2534 3370 2195 
Q 3706 1856 3706 1288 
Q 3706 609 3251 259 
Q 2797 -91 1919 -91 
Q 1588 -91 1214 -16 
Q 841 59 441 206 
L 441 856 
Q 825 641 1194 531 
Q 1563 422 1919 422 
Q 2459 422 2753 634 
Q 3047 847 3047 1241 
Q 3047 1584 2836 1778 
Q 2625 1972 2144 2069 
L 1759 2144 
Q 1053 2284 737 2584 
Q 422 2884 422 3419 
Q 422 4038 858 4394 
Q 1294 4750 2059 4750 
Q 2388 4750 2728 4690 
Q 3069 4631 3425 4513 
z
" transform="scale(0.015625)"/>
      <path id="DejaVuSans-79" d="M 2059 -325 
Q 1816 -950 1584 -1140 
Q 1353 -1331 966 -1331 
L 506 -1331 
L 506 -850 
L 844 -850 
Q 1081 -850 1212 -737 
Q 1344 -625 1503 -206 
L 1606 56 
L 191 3500 
L 800 3500 
L 1894 763 
L 2988 3500 
L 3597 3500 
L 2059 -325 
z
" transform="scale(0.015625)"/>
      <path id="DejaVuSans-2d" d="M 313 2009 
L 1997 2009 
L 1997 1497 
L 313 1497 
L 313 2009 
z
" transform="scale(0.015625)"/>
      <path id="DejaVuSans-35" d="M 691 4666 
L 3169 4666 
L 3169 4134 
L 1269 4134 
L 1269 2991 
Q 1406 3038 1543 3061 
Q 1681 3084 1819 3084 
Q 2600 3084 3056 2656 
Q 3513 2228 3513 1497 
Q 3513 744 3044 326 
Q 2575 -91 1722 -91 
Q 1428 -91 1123 -41 
Q 819 9 494 109 
L 494 744 
Q 775 591 1075 516 
Q 1375 441 1709 441 
Q 2250 441 2565 725 
Q 2881 1009 2881 1497 
Q 2881 1984 2565 2268 
Q 2250 2553 1709 2553 
Q 1456 2553 1204 2497 
Q 953 2441 691 2322 
L 691 4666 
z
" transform="scale(0.015625)"/>
      <path id="DejaVuSans-76" d="M 191 3500 
L 800 3500 
L 1894 563 
L 2988 3500 
L 3597 3500 
L 2284 0 
L 1503 0 
L 191 3500 
z
" transform="scale(0.015625)"/>
      <path id="DejaVuSans-73" d="M 2834 3397 
L 2834 2853 
Q 2591 2978 2328 3040 
Q 2066 3103 1784 3103 
Q 1356 3103 1142 2972 
Q 928 2841 928 2578 
Q 928 2378 1081 2264 
Q 1234 2150 1697 2047 
L 1894 2003 
Q 2506 1872 2764 1633 
Q 3022 1394 3022 966 
Q 3022 478 2636 193 
Q 2250 -91 1575 -91 
Q 1294 -91 989 -36 
Q 684 19 347 128 
L 347 722 
Q 666 556 975 473 
Q 1284 391 1588 391 
Q 1994 391 2212 530 
Q 2431 669 2431 922 
Q 2431 1156 2273 1281 
Q 2116 1406 1581 1522 
L 1381 1569 
Q 847 1681 609 1914 
Q 372 2147 372 2553 
Q 372 3047 722 3315 
Q 1072 3584 1716 3584 
Q 2034 3584 2315 3537 
Q 2597 3491 2834 3397 
z
" transform="scale(0.015625)"/>
     </defs>
     <use xlink:href="#DejaVuSans-50"/>
     <use xlink:href="#DejaVuSans-6f" transform="translate(56.677734 0)"/>
     <use xlink:href="#DejaVuSans-69" transform="translate(117.859375 0)"/>
     <use xlink:href="#DejaVuSans-6e" transform="translate(145.642578 0)"/>
     <use xlink:href="#DejaVuSans-74" transform="translate(209.021484 0)"/>
     <use xlink:href="#DejaVuSans-20" transform="translate(248.230469 0)"/>
     <use xlink:href="#DejaVuSans-50" transform="translate(280.017578 0)"/>
     <use xlink:href="#DejaVuSans-63" transform="translate(340.320312 0)"/>
     <use xlink:href="#DejaVuSans-74" transform="translate(395.300781 0)"/>
     <use xlink:href="#DejaVuSans-20" transform="translate(434.509766 0)"/>
     <use xlink:href="#DejaVuSans-43" transform="translate(466.296875 0)"/>
     <use xlink:href="#DejaVuSans-68" transform="translate(536.121094 0)"/>
     <use xlink:href="#DejaVuSans-61" transform="translate(599.5 0)"/>
     <use xlink:href="#DejaVuSans-6e" transform="translate(660.779297 0)"/>
     <use xlink:href="#DejaVuSans-67" transform="translate(724.158203 0)"/>
     <use xlink:href="#DejaVuSans-65" transform="translate(787.634766 0)"/>
     <use xlink:href="#DejaVuSans-20" transform="translate(849.158203 0)"/>
     <use xlink:href="#DejaVuSans-70" transform="translate(880.945312 0)"/>
     <use xlink:href="#DejaVuSans-65" transform="translate(944.421875 0)"/>
     <use xlink:href="#DejaVuSans-72" transform="translate(1005.945312 0)"/>
     <use xlink:href="#DejaVuSans-20" transform="translate(1047.058594 0)"/>
     <use xlink:href="#DejaVuSans-4d" transform="translate(1078.845703 0)"/>
     <use xlink:href="#DejaVuSans-69" transform="translate(1165.125 0)"/>
     <use xlink:href="#DejaVuSans-6e" transform="translate(1192.908203 0)"/>
     <use xlink:href="#DejaVuSans-75" transform="translate(1256.287109 0)"/>
     <use xlink:href="#DejaVuSans-74" transform="translate(1319.666016 0)"/>
     <use xlink:href="#DejaVuSans-65" transform="translate(1358.875 0)"/>
     <use xlink:href="#DejaVuSans-3a" transform="translate(1420.398438 0)"/>
     <use xlink:href="#DejaVuSans-20" transform="translate(1454.089844 0)"/>
     <use xlink:href="#DejaVuSans-53" transform="translate(1485.876953 0)"/>
     <use xlink:href="#DejaVuSans-74" transform="translate(1549.353516 0)"/>
     <use xlink:href="#DejaVuSans-65" transform="translate(1588.5625 0)"/>
     <use xlink:href="#DejaVuSans-70" transform="translate(1650.085938 0)"/>
     <use xlink:href="#DejaVuSans-68" transform="translate(1713.5625 0)"/>
     <use xlink:href="#DejaVuSans-65" transform="translate(1776.941406 0)"/>
     <use xlink:href="#DejaVuSans-6e" transform="translate(1838.464844 0)"/>
     <use xlink:href="#DejaVuSans-20" transform="translate(1901.84375 0)"/>
     <use xlink:href="#DejaVuSans-43" transform="translate(1933.630859 0)"/>
     <use xlink:href="#DejaVuSans-75" transform="translate(2003.455078 0)"/>
     <use xlink:href="#DejaVuSans-72" transform="translate(2066.833984 0)"/>
     <use xlink:href="#DejaVuSans-72" transform="translate(2106.197266 0)"/>
     <use xlink:href="#DejaVuSans-79" transform="translate(2147.310547 0)"/>
     <use xlink:href="#DejaVuSans-20" transform="translate(2206.490234 0)"/>
     <use xlink:href="#DejaVuSans-28" transform="translate(2238.277344 0)"/>
     <use xlink:href="#DejaVuSans-32" transform="translate(2277.291016 0)"/>
     <use xlink:href="#DejaVuSans-34" transform="translate(2340.914062 0)"/>
     <use xlink:href="#DejaVuSans-2d" transform="translate(2404.537109 0)"/>
     <use xlink:href="#DejaVuSans-32" transform="translate(2440.621094 0)"/>
     <use xlink:href="#DejaVuSans-35" transform="translate(2504.244141 0)"/>
     <use xlink:href="#DejaVuSans-20" transform="translate(2567.867188 0)"/>
     <use xlink:href="#DejaVuSans-76" transform="translate(2599.654297 0)"/>
     <use xlink:href="#DejaVuSans-73" transform="translate(2658.833984 0)"/>
     <use xlink:href="#DejaVuSans-20" transform="translate(2710.933594 0)"/>
     <use xlink:href="#DejaVuSans-32" transform="translate(2742.720703 0)"/>
     <use xlink:href="#DejaVuSans-33" transform="translate(2806.34375 0)"/>
     <use xlink:href="#DejaVuSans-2d" transform="translate(2869.966797 0)"/>
     <use xlink:href="#DejaVuSans-32" transform="translate(2906.050781 0)"/>
     <use xlink:href="#DejaVuSans-34" transform="translate(2969.673828 0)"/>
     <use xlink:href="#DejaVuSans-29" transform="translate(3033.296875 0)"/>
    </g>
   </g>
  </g>
 </g>
 <defs>
  <clipPath id="p3e09e3829c">
   <rect x="53.75" y="28.32" width="799.45" height="358.84"/>
  </clipPath>
 </defs>
</svg>
