<?xml version="1.0" encoding="utf-8" standalone="no"?>
<!DOCTYPE svg PUBLIC "-//W3C//DTD SVG 1.1//EN"
  "http://www.w3.org/Graphics/SVG/1.1/DTD/svg11.dtd">
<svg xmlns:xlink="http://www.w3.org/1999/xlink" width="864pt" height="504pt" viewBox="0 0 864 504" xmlns="http://www.w3.org/2000/svg" version="1.1">
 <metadata>
  <rdf:RDF xmlns:dc="http://purl.org/dc/elements/1.1/" xmlns:cc="http://creativecommons.org/ns#" xmlns:rdf="http://www.w3.org/1999/02/22-rdf-syntax-ns#">
   <cc:Work>
    <dc:type rdf:resource="http://purl.org/dc/dcmitype/StillImage"/>
    <dc:date>2025-08-24T03:18:17.029092</dc:date>
    <dc:format>image/svg+xml</dc:format>
    <dc:creator>
     <cc:Agent>
      <dc:title>Matplotlib v3.10.5, https://matplotlib.org/</dc:title>
     </cc:Agent>
    </dc:creator>
   </cc:Work>
  </rdf:RDF>
 </metadata>
 <defs>
  <style type="text/css">*{stroke-linejoin: round; stroke-linecap: butt}</style>
 </defs>
 <g id="figure_1">
  <g id="patch_1">
   <path d="M 0 504 
L 864 504 
L 864 0 
L 0 0 
z
" style="fill: #ffffff"/>
  </g>
  <g id="axes_1">
   <g id="patch_2">
    <path d="M 38.27 456.082818 
L 853.2 456.082818 
L 853.2 26.88 
L 38.27 26.88 
z
" style="fill: #ffffff"/>
   </g>
   <g id="patch_3">
    <path d="M 44.779026 456.082818 
L 65.607907 456.082818 
L 65.607907 456.082818 
L 44.779026 456.082818 
z
" clip-path="url(#p916443aa74)" style="fill: #ffc107"/>
   </g>
   <g id="patch_4">
    <path d="M 70.815128 456.082818 
L 91.64401 456.082818 
L 91.64401 456.082818 
L 70.815128 456.082818 
z
" clip-path="url(#p916443aa74)" style="fill: #ffc107"/>
   </g>
   <g id="patch_5">
    <path d="M 96.85123 456.082818 
L 117.680112 456.082818 
L 117.680112 456.082818 
L 96.85123 456.082818 
z
" clip-path="url(#p916443aa74)" style="fill: #ffc107"/>
   </g>
   <g id="patch_6">
    <path d="M 122.887332 456.082818 
L 143.716214 456.082818 
L 143.716214 456.082818 
L 122.887332 456.082818 
z
" clip-path="url(#p916443aa74)" style="fill: #ffc107"/>
   </g>
   <g id="patch_7">
    <path d="M 148.923435 456.082818 
L 169.752316 456.082818 
L 169.752316 456.082818 
L 148.923435 456.082818 
z
" clip-path="url(#p916443aa74)" style="fill: #ffc107"/>
   </g>
   <g id="patch_8">
    <path d="M 174.959537 456.082818 
L 195.788419 456.082818 
L 195.788419 456.082818 
L 174.959537 456.082818 
z
" clip-path="url(#p916443aa74)" style="fill: #ffc107"/>
   </g>
   <g id="patch_9">
    <path d="M 200.995639 456.082818 
L 221.824521 456.082818 
L 221.824521 404.987245 
L 200.995639 404.987245 
z
" clip-path="url(#p916443aa74)" style="fill: #ffc107"/>
   </g>
   <g id="patch_10">
    <path d="M 227.031741 456.082818 
L 247.860623 456.082818 
L 247.860623 456.082818 
L 227.031741 456.082818 
z
" clip-path="url(#p916443aa74)" style="fill: #ffc107"/>
   </g>
   <g id="patch_11">
    <path d="M 253.067843 456.082818 
L 273.896725 456.082818 
L 273.896725 404.987245 
L 253.067843 404.987245 
z
" clip-path="url(#p916443aa74)" style="fill: #ffc107"/>
   </g>
   <g id="patch_12">
    <path d="M 279.103946 456.082818 
L 299.932827 456.082818 
L 299.932827 353.891671 
L 279.103946 353.891671 
z
" clip-path="url(#p916443aa74)" style="fill: #ffc107"/>
   </g>
   <g id="patch_13">
    <path d="M 305.140048 456.082818 
L 325.96893 456.082818 
L 325.96893 353.891671 
L 305.140048 353.891671 
z
" clip-path="url(#p916443aa74)" style="fill: #ffc107"/>
   </g>
   <g id="patch_14">
    <path d="M 331.17615 456.082818 
L 352.005032 456.082818 
L 352.005032 456.082818 
L 331.17615 456.082818 
z
" clip-path="url(#p916443aa74)" style="fill: #ffc107"/>
   </g>
   <g id="patch_15">
    <path d="M 357.212252 456.082818 
L 378.041134 456.082818 
L 378.041134 456.082818 
L 357.212252 456.082818 
z
" clip-path="url(#p916443aa74)" style="fill: #ffc107"/>
   </g>
   <g id="patch_16">
    <path d="M 383.248355 456.082818 
L 404.077236 456.082818 
L 404.077236 456.082818 
L 383.248355 456.082818 
z
" clip-path="url(#p916443aa74)" style="fill: #ffc107"/>
   </g>
   <g id="patch_17">
    <path d="M 409.284457 456.082818 
L 430.113339 456.082818 
L 430.113339 456.082818 
L 409.284457 456.082818 
z
" clip-path="url(#p916443aa74)" style="fill: #ffc107"/>
   </g>
   <g id="patch_18">
    <path d="M 435.320559 456.082818 
L 456.149441 456.082818 
L 456.149441 456.082818 
L 435.320559 456.082818 
z
" clip-path="url(#p916443aa74)" style="fill: #ffc107"/>
   </g>
   <g id="patch_19">
    <path d="M 461.356661 456.082818 
L 482.185543 456.082818 
L 482.185543 353.891671 
L 461.356661 353.891671 
z
" clip-path="url(#p916443aa74)" style="fill: #ffc107"/>
   </g>
   <g id="patch_20">
    <path d="M 487.392764 456.082818 
L 508.221645 456.082818 
L 508.221645 456.082818 
L 487.392764 456.082818 
z
" clip-path="url(#p916443aa74)" style="fill: #ffc107"/>
   </g>
   <g id="patch_21">
    <path d="M 513.428866 456.082818 
L 534.257748 456.082818 
L 534.257748 353.891671 
L 513.428866 353.891671 
z
" clip-path="url(#p916443aa74)" style="fill: #ffc107"/>
   </g>
   <g id="patch_22">
    <path d="M 539.464968 456.082818 
L 560.29385 456.082818 
L 560.29385 353.891671 
L 539.464968 353.891671 
z
" clip-path="url(#p916443aa74)" style="fill: #ffc107"/>
   </g>
   <g id="patch_23">
    <path d="M 565.50107 456.082818 
L 586.329952 456.082818 
L 586.329952 456.082818 
L 565.50107 456.082818 
z
" clip-path="url(#p916443aa74)" style="fill: #ffc107"/>
   </g>
   <g id="patch_24">
    <path d="M 591.537173 456.082818 
L 612.366054 456.082818 
L 612.366054 404.987245 
L 591.537173 404.987245 
z
" clip-path="url(#p916443aa74)" style="fill: #ffc107"/>
   </g>
   <g id="patch_25">
    <path d="M 617.573275 456.082818 
L 638.402157 456.082818 
L 638.402157 353.891671 
L 617.573275 353.891671 
z
" clip-path="url(#p916443aa74)" style="fill: #ffc107"/>
   </g>
   <g id="patch_26">
    <path d="M 643.609377 456.082818 
L 664.438259 456.082818 
L 664.438259 302.796097 
L 643.609377 302.796097 
z
" clip-path="url(#p916443aa74)" style="fill: #ffc107"/>
   </g>
   <g id="patch_27">
    <path d="M 669.645479 456.082818 
L 690.474361 456.082818 
L 690.474361 456.082818 
L 669.645479 456.082818 
z
" clip-path="url(#p916443aa74)" style="fill: #ffc107"/>
   </g>
   <g id="patch_28">
    <path d="M 695.681581 456.082818 
L 716.510463 456.082818 
L 716.510463 353.891671 
L 695.681581 353.891671 
z
" clip-path="url(#p916443aa74)" style="fill: #ffc107"/>
   </g>
   <g id="patch_29">
    <path d="M 721.717684 456.082818 
L 742.546565 456.082818 
L 742.546565 353.891671 
L 721.717684 353.891671 
z
" clip-path="url(#p916443aa74)" style="fill: #ffc107"/>
   </g>
   <g id="patch_30">
    <path d="M 747.753786 456.082818 
L 768.582668 456.082818 
L 768.582668 251.700524 
L 747.753786 251.700524 
z
" clip-path="url(#p916443aa74)" style="fill: #ffc107"/>
   </g>
   <g id="patch_31">
    <path d="M 773.789888 456.082818 
L 794.61877 456.082818 
L 794.61877 353.891671 
L 773.789888 353.891671 
z
" clip-path="url(#p916443aa74)" style="fill: #ffc107"/>
   </g>
   <g id="patch_32">
    <path d="M 799.82599 456.082818 
L 820.654872 456.082818 
L 820.654872 353.891671 
L 799.82599 353.891671 
z
" clip-path="url(#p916443aa74)" style="fill: #ffc107"/>
   </g>
   <g id="patch_33">
    <path d="M 825.862093 456.082818 
L 846.690974 456.082818 
L 846.690974 456.082818 
L 825.862093 456.082818 
z
" clip-path="url(#p916443aa74)" style="fill: #ffc107"/>
   </g>
   <g id="patch_34">
    <path d="M 44.779026 456.082818 
L 65.607907 456.082818 
L 65.607907 251.700524 
L 44.779026 251.700524 
z
" clip-path="url(#p916443aa74)" style="fill: #2196f3"/>
   </g>
   <g id="patch_35">
    <path d="M 70.815128 456.082818 
L 91.64401 456.082818 
L 91.64401 353.891671 
L 70.815128 353.891671 
z
" clip-path="url(#p916443aa74)" style="fill: #2196f3"/>
   </g>
   <g id="patch_36">
    <path d="M 96.85123 456.082818 
L 117.680112 456.082818 
L 117.680112 251.700524 
L 96.85123 251.700524 
z
" clip-path="url(#p916443aa74)" style="fill: #2196f3"/>
   </g>
   <g id="patch_37">
    <path d="M 122.887332 456.082818 
L 143.716214 456.082818 
L 143.716214 251.700524 
L 122.887332 251.700524 
z
" clip-path="url(#p916443aa74)" style="fill: #2196f3"/>
   </g>
   <g id="patch_38">
    <path d="M 148.923435 456.082818 
L 169.752316 456.082818 
L 169.752316 251.700524 
L 148.923435 251.700524 
z
" clip-path="url(#p916443aa74)" style="fill: #2196f3"/>
   </g>
   <g id="patch_39">
    <path d="M 174.959537 456.082818 
L 195.788419 456.082818 
L 195.788419 456.082818 
L 174.959537 456.082818 
z
" clip-path="url(#p916443aa74)" style="fill: #2196f3"/>
   </g>
   <g id="patch_40">
    <path d="M 200.995639 404.987245 
L 221.824521 404.987245 
L 221.824521 98.413803 
L 200.995639 98.413803 
z
" clip-path="url(#p916443aa74)" style="fill: #2196f3"/>
   </g>
   <g id="patch_41">
    <path d="M 227.031741 456.082818 
L 247.860623 456.082818 
L 247.860623 353.891671 
L 227.031741 353.891671 
z
" clip-path="url(#p916443aa74)" style="fill: #2196f3"/>
   </g>
   <g id="patch_42">
    <path d="M 253.067843 404.987245 
L 273.896725 404.987245 
L 273.896725 200.60495 
L 253.067843 200.60495 
z
" clip-path="url(#p916443aa74)" style="fill: #2196f3"/>
   </g>
   <g id="patch_43">
    <path d="M 279.103946 456.082818 
L 299.932827 456.082818 
L 299.932827 456.082818 
L 279.103946 456.082818 
z
" clip-path="url(#p916443aa74)" style="fill: #2196f3"/>
   </g>
   <g id="patch_44">
    <path d="M 305.140048 456.082818 
L 325.96893 456.082818 
L 325.96893 456.082818 
L 305.140048 456.082818 
z
" clip-path="url(#p916443aa74)" style="fill: #2196f3"/>
   </g>
   <g id="patch_45">
    <path d="M 331.17615 456.082818 
L 352.005032 456.082818 
L 352.005032 251.700524 
L 331.17615 251.700524 
z
" clip-path="url(#p916443aa74)" style="fill: #2196f3"/>
   </g>
   <g id="patch_46">
    <path d="M 357.212252 456.082818 
L 378.041134 456.082818 
L 378.041134 251.700524 
L 357.212252 251.700524 
z
" clip-path="url(#p916443aa74)" style="fill: #2196f3"/>
   </g>
   <g id="patch_47">
    <path d="M 383.248355 456.082818 
L 404.077236 456.082818 
L 404.077236 353.891671 
L 383.248355 353.891671 
z
" clip-path="url(#p916443aa74)" style="fill: #2196f3"/>
   </g>
   <g id="patch_48">
    <path d="M 409.284457 456.082818 
L 430.113339 456.082818 
L 430.113339 353.891671 
L 409.284457 353.891671 
z
" clip-path="url(#p916443aa74)" style="fill: #2196f3"/>
   </g>
   <g id="patch_49">
    <path d="M 435.320559 456.082818 
L 456.149441 456.082818 
L 456.149441 456.082818 
L 435.320559 456.082818 
z
" clip-path="url(#p916443aa74)" style="fill: #2196f3"/>
   </g>
   <g id="patch_50">
    <path d="M 461.356661 353.891671 
L 482.185543 353.891671 
L 482.185543 251.700524 
L 461.356661 251.700524 
z
" clip-path="url(#p916443aa74)" style="fill: #2196f3"/>
   </g>
   <g id="patch_51">
    <path d="M 487.392764 456.082818 
L 508.221645 456.082818 
L 508.221645 456.082818 
L 487.392764 456.082818 
z
" clip-path="url(#p916443aa74)" style="fill: #2196f3"/>
   </g>
   <g id="patch_52">
    <path d="M 513.428866 353.891671 
L 534.257748 353.891671 
L 534.257748 251.700524 
L 513.428866 251.700524 
z
" clip-path="url(#p916443aa74)" style="fill: #2196f3"/>
   </g>
   <g id="patch_53">
    <path d="M 539.464968 353.891671 
L 560.29385 353.891671 
L 560.29385 149.509377 
L 539.464968 149.509377 
z
" clip-path="url(#p916443aa74)" style="fill: #2196f3"/>
   </g>
   <g id="patch_54">
    <path d="M 565.50107 456.082818 
L 586.329952 456.082818 
L 586.329952 149.509377 
L 565.50107 149.509377 
z
" clip-path="url(#p916443aa74)" style="fill: #2196f3"/>
   </g>
   <g id="patch_55">
    <path d="M 591.537173 404.987245 
L 612.366054 404.987245 
L 612.366054 302.796097 
L 591.537173 302.796097 
z
" clip-path="url(#p916443aa74)" style="fill: #2196f3"/>
   </g>
   <g id="patch_56">
    <path d="M 617.573275 353.891671 
L 638.402157 353.891671 
L 638.402157 251.700524 
L 617.573275 251.700524 
z
" clip-path="url(#p916443aa74)" style="fill: #2196f3"/>
   </g>
   <g id="patch_57">
    <path d="M 643.609377 302.796097 
L 664.438259 302.796097 
L 664.438259 200.60495 
L 643.609377 200.60495 
z
" clip-path="url(#p916443aa74)" style="fill: #2196f3"/>
   </g>
   <g id="patch_58">
    <path d="M 669.645479 456.082818 
L 690.474361 456.082818 
L 690.474361 353.891671 
L 669.645479 353.891671 
z
" clip-path="url(#p916443aa74)" style="fill: #2196f3"/>
   </g>
   <g id="patch_59">
    <path d="M 695.681581 353.891671 
L 716.510463 353.891671 
L 716.510463 251.700524 
L 695.681581 251.700524 
z
" clip-path="url(#p916443aa74)" style="fill: #2196f3"/>
   </g>
   <g id="patch_60">
    <path d="M 721.717684 353.891671 
L 742.546565 353.891671 
L 742.546565 251.700524 
L 721.717684 251.700524 
z
" clip-path="url(#p916443aa74)" style="fill: #2196f3"/>
   </g>
   <g id="patch_61">
    <path d="M 747.753786 456.082818 
L 768.582668 456.082818 
L 768.582668 456.082818 
L 747.753786 456.082818 
z
" clip-path="url(#p916443aa74)" style="fill: #2196f3"/>
   </g>
   <g id="patch_62">
    <path d="M 773.789888 353.891671 
L 794.61877 353.891671 
L 794.61877 251.700524 
L 773.789888 251.700524 
z
" clip-path="url(#p916443aa74)" style="fill: #2196f3"/>
   </g>
   <g id="patch_63">
    <path d="M 799.82599 353.891671 
L 820.654872 353.891671 
L 820.654872 47.318229 
L 799.82599 47.318229 
z
" clip-path="url(#p916443aa74)" style="fill: #2196f3"/>
   </g>
   <g id="patch_64">
    <path d="M 825.862093 456.082818 
L 846.690974 456.082818 
L 846.690974 353.891671 
L 825.862093 353.891671 
z
" clip-path="url(#p916443aa74)" style="fill: #2196f3"/>
   </g>
   <g id="patch_65">
    <path d="M 44.779026 456.082818 
L 65.607907 456.082818 
L 65.607907 456.082818 
L 44.779026 456.082818 
z
" clip-path="url(#p916443aa74)" style="fill: #4caf50"/>
   </g>
   <g id="patch_66">
    <path d="M 70.815128 456.082818 
L 91.64401 456.082818 
L 91.64401 456.082818 
L 70.815128 456.082818 
z
" clip-path="url(#p916443aa74)" style="fill: #4caf50"/>
   </g>
   <g id="patch_67">
    <path d="M 96.85123 456.082818 
L 117.680112 456.082818 
L 117.680112 456.082818 
L 96.85123 456.082818 
z
" clip-path="url(#p916443aa74)" style="fill: #4caf50"/>
   </g>
   <g id="patch_68">
    <path d="M 122.887332 456.082818 
L 143.716214 456.082818 
L 143.716214 456.082818 
L 122.887332 456.082818 
z
" clip-path="url(#p916443aa74)" style="fill: #4caf50"/>
   </g>
   <g id="patch_69">
    <path d="M 148.923435 456.082818 
L 169.752316 456.082818 
L 169.752316 456.082818 
L 148.923435 456.082818 
z
" clip-path="url(#p916443aa74)" style="fill: #4caf50"/>
   </g>
   <g id="patch_70">
    <path d="M 174.959537 456.082818 
L 195.788419 456.082818 
L 195.788419 302.796097 
L 174.959537 302.796097 
z
" clip-path="url(#p916443aa74)" style="fill: #4caf50"/>
   </g>
   <g id="patch_71">
    <path d="M 200.995639 456.082818 
L 221.824521 456.082818 
L 221.824521 456.082818 
L 200.995639 456.082818 
z
" clip-path="url(#p916443aa74)" style="fill: #4caf50"/>
   </g>
   <g id="patch_72">
    <path d="M 227.031741 353.891671 
L 247.860623 353.891671 
L 247.860623 200.60495 
L 227.031741 200.60495 
z
" clip-path="url(#p916443aa74)" style="fill: #4caf50"/>
   </g>
   <g id="patch_73">
    <path d="M 253.067843 456.082818 
L 273.896725 456.082818 
L 273.896725 456.082818 
L 253.067843 456.082818 
z
" clip-path="url(#p916443aa74)" style="fill: #4caf50"/>
   </g>
   <g id="patch_74">
    <path d="M 279.103946 353.891671 
L 299.932827 353.891671 
L 299.932827 200.60495 
L 279.103946 200.60495 
z
" clip-path="url(#p916443aa74)" style="fill: #4caf50"/>
   </g>
   <g id="patch_75">
    <path d="M 305.140048 456.082818 
L 325.96893 456.082818 
L 325.96893 456.082818 
L 305.140048 456.082818 
z
" clip-path="url(#p916443aa74)" style="fill: #4caf50"/>
   </g>
   <g id="patch_76">
    <path d="M 331.17615 456.082818 
L 352.005032 456.082818 
L 352.005032 456.082818 
L 331.17615 456.082818 
z
" clip-path="url(#p916443aa74)" style="fill: #4caf50"/>
   </g>
   <g id="patch_77">
    <path d="M 357.212252 456.082818 
L 378.041134 456.082818 
L 378.041134 456.082818 
L 357.212252 456.082818 
z
" clip-path="url(#p916443aa74)" style="fill: #4caf50"/>
   </g>
   <g id="patch_78">
    <path d="M 383.248355 353.891671 
L 404.077236 353.891671 
L 404.077236 200.60495 
L 383.248355 200.60495 
z
" clip-path="url(#p916443aa74)" style="fill: #4caf50"/>
   </g>
   <g id="patch_79">
    <path d="M 409.284457 353.891671 
L 430.113339 353.891671 
L 430.113339 200.60495 
L 409.284457 200.60495 
z
" clip-path="url(#p916443aa74)" style="fill: #4caf50"/>
   </g>
   <g id="patch_80">
    <path d="M 435.320559 456.082818 
L 456.149441 456.082818 
L 456.149441 149.509377 
L 435.320559 149.509377 
z
" clip-path="url(#p916443aa74)" style="fill: #4caf50"/>
   </g>
   <g id="patch_81">
    <path d="M 461.356661 456.082818 
L 482.185543 456.082818 
L 482.185543 456.082818 
L 461.356661 456.082818 
z
" clip-path="url(#p916443aa74)" style="fill: #4caf50"/>
   </g>
   <g id="patch_82">
    <path d="M 487.392764 456.082818 
L 508.221645 456.082818 
L 508.221645 302.796097 
L 487.392764 302.796097 
z
" clip-path="url(#p916443aa74)" style="fill: #4caf50"/>
   </g>
   <g id="patch_83">
    <path d="M 513.428866 251.700524 
L 534.257748 251.700524 
L 534.257748 98.413803 
L 513.428866 98.413803 
z
" clip-path="url(#p916443aa74)" style="fill: #4caf50"/>
   </g>
   <g id="patch_84">
    <path d="M 539.464968 456.082818 
L 560.29385 456.082818 
L 560.29385 456.082818 
L 539.464968 456.082818 
z
" clip-path="url(#p916443aa74)" style="fill: #4caf50"/>
   </g>
   <g id="patch_85">
    <path d="M 565.50107 456.082818 
L 586.329952 456.082818 
L 586.329952 456.082818 
L 565.50107 456.082818 
z
" clip-path="url(#p916443aa74)" style="fill: #4caf50"/>
   </g>
   <g id="patch_86">
    <path d="M 591.537173 302.796097 
L 612.366054 302.796097 
L 612.366054 149.509377 
L 591.537173 149.509377 
z
" clip-path="url(#p916443aa74)" style="fill: #4caf50"/>
   </g>
   <g id="patch_87">
    <path d="M 617.573275 456.082818 
L 638.402157 456.082818 
L 638.402157 456.082818 
L 617.573275 456.082818 
z
" clip-path="url(#p916443aa74)" style="fill: #4caf50"/>
   </g>
   <g id="patch_88">
    <path d="M 643.609377 200.60495 
L 664.438259 200.60495 
L 664.438259 47.318229 
L 643.609377 47.318229 
z
" clip-path="url(#p916443aa74)" style="fill: #4caf50"/>
   </g>
   <g id="patch_89">
    <path d="M 669.645479 353.891671 
L 690.474361 353.891671 
L 690.474361 200.60495 
L 669.645479 200.60495 
z
" clip-path="url(#p916443aa74)" style="fill: #4caf50"/>
   </g>
   <g id="patch_90">
    <path d="M 695.681581 456.082818 
L 716.510463 456.082818 
L 716.510463 456.082818 
L 695.681581 456.082818 
z
" clip-path="url(#p916443aa74)" style="fill: #4caf50"/>
   </g>
   <g id="patch_91">
    <path d="M 721.717684 251.700524 
L 742.546565 251.700524 
L 742.546565 98.413803 
L 721.717684 98.413803 
z
" clip-path="url(#p916443aa74)" style="fill: #4caf50"/>
   </g>
   <g id="patch_92">
    <path d="M 747.753786 251.700524 
L 768.582668 251.700524 
L 768.582668 98.413803 
L 747.753786 98.413803 
z
" clip-path="url(#p916443aa74)" style="fill: #4caf50"/>
   </g>
   <g id="patch_93">
    <path d="M 773.789888 456.082818 
L 794.61877 456.082818 
L 794.61877 456.082818 
L 773.789888 456.082818 
z
" clip-path="url(#p916443aa74)" style="fill: #4caf50"/>
   </g>
   <g id="patch_94">
    <path d="M 799.82599 456.082818 
L 820.654872 456.082818 
L 820.654872 456.082818 
L 799.82599 456.082818 
z
" clip-path="url(#p916443aa74)" style="fill: #4caf50"/>
   </g>
   <g id="patch_95">
    <path d="M 825.862093 456.082818 
L 846.690974 456.082818 
L 846.690974 456.082818 
L 825.862093 456.082818 
z
" clip-path="url(#p916443aa74)" style="fill: #4caf50"/>
   </g>
   <g id="matplotlib.axis_1">
    <g id="xtick_1">
     <g id="line2d_1">
      <defs>
       <path id="m9897785aa1" d="M 0 0 
L 0 3.5 
" style="stroke: #000000; stroke-width: 0.8"/>
      </defs>
      <g>
       <use xlink:href="#m9897785aa1" x="55.193466" y="456.082818" style="stroke: #000000; stroke-width: 0.8"/>
      </g>
     </g>
    </g>
    <g id="xtick_2">
     <g id="line2d_2">
      <g>
       <use xlink:href="#m9897785aa1" x="81.229569" y="456.082818" style="stroke: #000000; stroke-width: 0.8"/>
      </g>
     </g>
    </g>
    <g id="xtick_3">
     <g id="line2d_3">
      <g>
       <use xlink:href="#m9897785aa1" x="107.265671" y="456.082818" style="stroke: #000000; stroke-width: 0.8"/>
      </g>
     </g>
    </g>
    <g id="xtick_4">
     <g id="line2d_4">
      <g>
       <use xlink:href="#m9897785aa1" x="133.301773" y="456.082818" style="stroke: #000000; stroke-width: 0.8"/>
      </g>
     </g>
     <g id="text_1">
      <!-- 5 -->
      <g transform="translate(133.003462 472.954692) rotate(-45) scale(0.1 -0.1)">
       <defs>
        <path id="DejaVuSans-35" d="M 691 4666 
L 3169 4666 
L 3169 4134 
L 1269 4134 
L 1269 2991 
Q 1406 3038 1543 3061 
Q 1681 3084 1819 3084 
Q 2600 3084 3056 2656 
Q 3513 2228 3513 1497 
Q 3513 744 3044 326 
Q 2575 -91 1722 -91 
Q 1428 -91 1123 -41 
Q 819 9 494 109 
L 494 744 
Q 775 591 1075 516 
Q 1375 441 1709 441 
Q 2250 441 2565 725 
Q 2881 1009 2881 1497 
Q 2881 1984 2565 2268 
Q 2250 2553 1709 2553 
Q 1456 2553 1204 2497 
Q 953 2441 691 2322 
L 691 4666 
z
" transform="scale(0.015625)"/>
       </defs>
       <use xlink:href="#DejaVuSans-35"/>
      </g>
     </g>
    </g>
    <g id="xtick_5">
     <g id="line2d_5">
      <g>
       <use xlink:href="#m9897785aa1" x="159.337875" y="456.082818" style="stroke: #000000; stroke-width: 0.8"/>
      </g>
     </g>
    </g>
    <g id="xtick_6">
     <g id="line2d_6">
      <g>
       <use xlink:href="#m9897785aa1" x="185.373978" y="456.082818" style="stroke: #000000; stroke-width: 0.8"/>
      </g>
     </g>
    </g>
    <g id="xtick_7">
     <g id="line2d_7">
      <g>
       <use xlink:href="#m9897785aa1" x="211.41008" y="456.082818" style="stroke: #000000; stroke-width: 0.8"/>
      </g>
     </g>
    </g>
    <g id="xtick_8">
     <g id="line2d_8">
      <g>
       <use xlink:href="#m9897785aa1" x="237.446182" y="456.082818" style="stroke: #000000; stroke-width: 0.8"/>
      </g>
     </g>
    </g>
    <g id="xtick_9">
     <g id="line2d_9">
      <g>
       <use xlink:href="#m9897785aa1" x="263.482284" y="456.082818" style="stroke: #000000; stroke-width: 0.8"/>
      </g>
     </g>
    </g>
    <g id="xtick_10">
     <g id="line2d_10">
      <g>
       <use xlink:href="#m9897785aa1" x="289.518387" y="456.082818" style="stroke: #000000; stroke-width: 0.8"/>
      </g>
     </g>
    </g>
    <g id="xtick_11">
     <g id="line2d_11">
      <g>
       <use xlink:href="#m9897785aa1" x="315.554489" y="456.082818" style="stroke: #000000; stroke-width: 0.8"/>
      </g>
     </g>
     <g id="text_2">
      <!-- 20 -->
      <g transform="translate(313.006695 477.453659) rotate(-45) scale(0.1 -0.1)">
       <defs>
        <path id="DejaVuSans-32" d="M 1228 531 
L 3431 531 
L 3431 0 
L 469 0 
L 469 531 
Q 828 903 1448 1529 
Q 2069 2156 2228 2338 
Q 2531 2678 2651 2914 
Q 2772 3150 2772 3378 
Q 2772 3750 2511 3984 
Q 2250 4219 1831 4219 
Q 1534 4219 1204 4116 
Q 875 4013 500 3803 
L 500 4441 
Q 881 4594 1212 4672 
Q 1544 4750 1819 4750 
Q 2544 4750 2975 4387 
Q 3406 4025 3406 3419 
Q 3406 3131 3298 2873 
Q 3191 2616 2906 2266 
Q 2828 2175 2409 1742 
Q 1991 1309 1228 531 
z
" transform="scale(0.015625)"/>
        <path id="DejaVuSans-30" d="M 2034 4250 
Q 1547 4250 1301 3770 
Q 1056 3291 1056 2328 
Q 1056 1369 1301 889 
Q 1547 409 2034 409 
Q 2525 409 2770 889 
Q 3016 1369 3016 2328 
Q 3016 3291 2770 3770 
Q 2525 4250 2034 4250 
z
M 2034 4750 
Q 2819 4750 3233 4129 
Q 3647 3509 3647 2328 
Q 3647 1150 3233 529 
Q 2819 -91 2034 -91 
Q 1250 -91 836 529 
Q 422 1150 422 2328 
Q 422 3509 836 4129 
Q 1250 4750 2034 4750 
z
" transform="scale(0.015625)"/>
       </defs>
       <use xlink:href="#DejaVuSans-32"/>
       <use xlink:href="#DejaVuSans-30" transform="translate(63.623047 0)"/>
      </g>
     </g>
    </g>
    <g id="xtick_12">
     <g id="line2d_12">
      <g>
       <use xlink:href="#m9897785aa1" x="341.590591" y="456.082818" style="stroke: #000000; stroke-width: 0.8"/>
      </g>
     </g>
     <g id="text_3">
      <!-- 23 -->
      <g transform="translate(339.042797 477.453659) rotate(-45) scale(0.1 -0.1)">
       <defs>
        <path id="DejaVuSans-33" d="M 2597 2516 
Q 3050 2419 3304 2112 
Q 3559 1806 3559 1356 
Q 3559 666 3084 287 
Q 2609 -91 1734 -91 
Q 1441 -91 1130 -33 
Q 819 25 488 141 
L 488 750 
Q 750 597 1062 519 
Q 1375 441 1716 441 
Q 2309 441 2620 675 
Q 2931 909 2931 1356 
Q 2931 1769 2642 2001 
Q 2353 2234 1838 2234 
L 1294 2234 
L 1294 2753 
L 1863 2753 
Q 2328 2753 2575 2939 
Q 2822 3125 2822 3475 
Q 2822 3834 2567 4026 
Q 2313 4219 1838 4219 
Q 1578 4219 1281 4162 
Q 984 4106 628 3988 
L 628 4550 
Q 988 4650 1302 4700 
Q 1616 4750 1894 4750 
Q 2613 4750 3031 4423 
Q 3450 4097 3450 3541 
Q 3450 3153 3228 2886 
Q 3006 2619 2597 2516 
z
" transform="scale(0.015625)"/>
       </defs>
       <use xlink:href="#DejaVuSans-32"/>
       <use xlink:href="#DejaVuSans-33" transform="translate(63.623047 0)"/>
      </g>
     </g>
    </g>
    <g id="xtick_13">
     <g id="line2d_13">
      <g>
       <use xlink:href="#m9897785aa1" x="367.626693" y="456.082818" style="stroke: #000000; stroke-width: 0.8"/>
      </g>
     </g>
    </g>
    <g id="xtick_14">
     <g id="line2d_14">
      <g>
       <use xlink:href="#m9897785aa1" x="393.662796" y="456.082818" style="stroke: #000000; stroke-width: 0.8"/>
      </g>
     </g>
    </g>
    <g id="xtick_15">
     <g id="line2d_15">
      <g>
       <use xlink:href="#m9897785aa1" x="419.698898" y="456.082818" style="stroke: #000000; stroke-width: 0.8"/>
      </g>
     </g>
    </g>
    <g id="xtick_16">
     <g id="line2d_16">
      <g>
       <use xlink:href="#m9897785aa1" x="445.735" y="456.082818" style="stroke: #000000; stroke-width: 0.8"/>
      </g>
     </g>
    </g>
    <g id="xtick_17">
     <g id="line2d_17">
      <g>
       <use xlink:href="#m9897785aa1" x="471.771102" y="456.082818" style="stroke: #000000; stroke-width: 0.8"/>
      </g>
     </g>
     <g id="text_4">
      <!-- 30 -->
      <g transform="translate(469.223308 477.453659) rotate(-45) scale(0.1 -0.1)">
       <use xlink:href="#DejaVuSans-33"/>
       <use xlink:href="#DejaVuSans-30" transform="translate(63.623047 0)"/>
      </g>
     </g>
    </g>
    <g id="xtick_18">
     <g id="line2d_18">
      <g>
       <use xlink:href="#m9897785aa1" x="497.807204" y="456.082818" style="stroke: #000000; stroke-width: 0.8"/>
      </g>
     </g>
    </g>
    <g id="xtick_19">
     <g id="line2d_19">
      <g>
       <use xlink:href="#m9897785aa1" x="523.843307" y="456.082818" style="stroke: #000000; stroke-width: 0.8"/>
      </g>
     </g>
    </g>
    <g id="xtick_20">
     <g id="line2d_20">
      <g>
       <use xlink:href="#m9897785aa1" x="549.879409" y="456.082818" style="stroke: #000000; stroke-width: 0.8"/>
      </g>
     </g>
    </g>
    <g id="xtick_21">
     <g id="line2d_21">
      <g>
       <use xlink:href="#m9897785aa1" x="575.915511" y="456.082818" style="stroke: #000000; stroke-width: 0.8"/>
      </g>
     </g>
    </g>
    <g id="xtick_22">
     <g id="line2d_22">
      <g>
       <use xlink:href="#m9897785aa1" x="601.951613" y="456.082818" style="stroke: #000000; stroke-width: 0.8"/>
      </g>
     </g>
     <g id="text_5">
      <!-- 35 -->
      <g transform="translate(599.403819 477.453659) rotate(-45) scale(0.1 -0.1)">
       <use xlink:href="#DejaVuSans-33"/>
       <use xlink:href="#DejaVuSans-35" transform="translate(63.623047 0)"/>
      </g>
     </g>
    </g>
    <g id="xtick_23">
     <g id="line2d_23">
      <g>
       <use xlink:href="#m9897785aa1" x="627.987716" y="456.082818" style="stroke: #000000; stroke-width: 0.8"/>
      </g>
     </g>
    </g>
    <g id="xtick_24">
     <g id="line2d_24">
      <g>
       <use xlink:href="#m9897785aa1" x="654.023818" y="456.082818" style="stroke: #000000; stroke-width: 0.8"/>
      </g>
     </g>
    </g>
    <g id="xtick_25">
     <g id="line2d_25">
      <g>
       <use xlink:href="#m9897785aa1" x="680.05992" y="456.082818" style="stroke: #000000; stroke-width: 0.8"/>
      </g>
     </g>
    </g>
    <g id="xtick_26">
     <g id="line2d_26">
      <g>
       <use xlink:href="#m9897785aa1" x="706.096022" y="456.082818" style="stroke: #000000; stroke-width: 0.8"/>
      </g>
     </g>
     <g id="text_6">
      <!-- 40 -->
      <g transform="translate(703.548228 477.453659) rotate(-45) scale(0.1 -0.1)">
       <defs>
        <path id="DejaVuSans-34" d="M 2419 4116 
L 825 1625 
L 2419 1625 
L 2419 4116 
z
M 2253 4666 
L 3047 4666 
L 3047 1625 
L 3713 1625 
L 3713 1100 
L 3047 1100 
L 3047 0 
L 2419 0 
L 2419 1100 
L 313 1100 
L 313 1709 
L 2253 4666 
z
" transform="scale(0.015625)"/>
       </defs>
       <use xlink:href="#DejaVuSans-34"/>
       <use xlink:href="#DejaVuSans-30" transform="translate(63.623047 0)"/>
      </g>
     </g>
    </g>
    <g id="xtick_27">
     <g id="line2d_27">
      <g>
       <use xlink:href="#m9897785aa1" x="732.132125" y="456.082818" style="stroke: #000000; stroke-width: 0.8"/>
      </g>
     </g>
    </g>
    <g id="xtick_28">
     <g id="line2d_28">
      <g>
       <use xlink:href="#m9897785aa1" x="758.168227" y="456.082818" style="stroke: #000000; stroke-width: 0.8"/>
      </g>
     </g>
    </g>
    <g id="xtick_29">
     <g id="line2d_29">
      <g>
       <use xlink:href="#m9897785aa1" x="784.204329" y="456.082818" style="stroke: #000000; stroke-width: 0.8"/>
      </g>
     </g>
     <g id="text_7">
      <!-- 45 -->
      <g transform="translate(781.656535 477.453659) rotate(-45) scale(0.1 -0.1)">
       <use xlink:href="#DejaVuSans-34"/>
       <use xlink:href="#DejaVuSans-35" transform="translate(63.623047 0)"/>
      </g>
     </g>
    </g>
    <g id="xtick_30">
     <g id="line2d_30">
      <g>
       <use xlink:href="#m9897785aa1" x="810.240431" y="456.082818" style="stroke: #000000; stroke-width: 0.8"/>
      </g>
     </g>
    </g>
    <g id="xtick_31">
     <g id="line2d_31">
      <g>
       <use xlink:href="#m9897785aa1" x="836.276534" y="456.082818" style="stroke: #000000; stroke-width: 0.8"/>
      </g>
     </g>
     <g id="text_8">
      <!-- 47 -->
      <g transform="translate(833.728739 477.453659) rotate(-45) scale(0.1 -0.1)">
       <defs>
        <path id="DejaVuSans-37" d="M 525 4666 
L 3525 4666 
L 3525 4397 
L 1831 0 
L 1172 0 
L 2766 4134 
L 525 4134 
L 525 4666 
z
" transform="scale(0.015625)"/>
       </defs>
       <use xlink:href="#DejaVuSans-34"/>
       <use xlink:href="#DejaVuSans-37" transform="translate(63.623047 0)"/>
      </g>
     </g>
    </g>
    <g id="text_9">
     <!-- Game Minute -->
     <g transform="translate(412.183438 490.522657) scale(0.1 -0.1)">
      <defs>
       <path id="DejaVuSans-47" d="M 3809 666 
L 3809 1919 
L 2778 1919 
L 2778 2438 
L 4434 2438 
L 4434 434 
Q 4069 175 3628 42 
Q 3188 -91 2688 -91 
Q 1594 -91 976 548 
Q 359 1188 359 2328 
Q 359 3472 976 4111 
Q 1594 4750 2688 4750 
Q 3144 4750 3555 4637 
Q 3966 4525 4313 4306 
L 4313 3634 
Q 3963 3931 3569 4081 
Q 3175 4231 2741 4231 
Q 1884 4231 1454 3753 
Q 1025 3275 1025 2328 
Q 1025 1384 1454 906 
Q 1884 428 2741 428 
Q 3075 428 3337 486 
Q 3600 544 3809 666 
z
" transform="scale(0.015625)"/>
       <path id="DejaVuSans-61" d="M 2194 1759 
Q 1497 1759 1228 1600 
Q 959 1441 959 1056 
Q 959 750 1161 570 
Q 1363 391 1709 391 
Q 2188 391 2477 730 
Q 2766 1069 2766 1631 
L 2766 1759 
L 2194 1759 
z
M 3341 1997 
L 3341 0 
L 2766 0 
L 2766 531 
Q 2569 213 2275 61 
Q 1981 -91 1556 -91 
Q 1019 -91 701 211 
Q 384 513 384 1019 
Q 384 1609 779 1909 
Q 1175 2209 1959 2209 
L 2766 2209 
L 2766 2266 
Q 2766 2663 2505 2880 
Q 2244 3097 1772 3097 
Q 1472 3097 1187 3025 
Q 903 2953 641 2809 
L 641 3341 
Q 956 3463 1253 3523 
Q 1550 3584 1831 3584 
Q 2591 3584 2966 3190 
Q 3341 2797 3341 1997 
z
" transform="scale(0.015625)"/>
       <path id="DejaVuSans-6d" d="M 3328 2828 
Q 3544 3216 3844 3400 
Q 4144 3584 4550 3584 
Q 5097 3584 5394 3201 
Q 5691 2819 5691 2113 
L 5691 0 
L 5113 0 
L 5113 2094 
Q 5113 2597 4934 2840 
Q 4756 3084 4391 3084 
Q 3944 3084 3684 2787 
Q 3425 2491 3425 1978 
L 3425 0 
L 2847 0 
L 2847 2094 
Q 2847 2600 2669 2842 
Q 2491 3084 2119 3084 
Q 1678 3084 1418 2786 
Q 1159 2488 1159 1978 
L 1159 0 
L 581 0 
L 581 3500 
L 1159 3500 
L 1159 2956 
Q 1356 3278 1631 3431 
Q 1906 3584 2284 3584 
Q 2666 3584 2933 3390 
Q 3200 3197 3328 2828 
z
" transform="scale(0.015625)"/>
       <path id="DejaVuSans-65" d="M 3597 1894 
L 3597 1613 
L 953 1613 
Q 991 1019 1311 708 
Q 1631 397 2203 397 
Q 2534 397 2845 478 
Q 3156 559 3463 722 
L 3463 178 
Q 3153 47 2828 -22 
Q 2503 -91 2169 -91 
Q 1331 -91 842 396 
Q 353 884 353 1716 
Q 353 2575 817 3079 
Q 1281 3584 2069 3584 
Q 2775 3584 3186 3129 
Q 3597 2675 3597 1894 
z
M 3022 2063 
Q 3016 2534 2758 2815 
Q 2500 3097 2075 3097 
Q 1594 3097 1305 2825 
Q 1016 2553 972 2059 
L 3022 2063 
z
" transform="scale(0.015625)"/>
       <path id="DejaVuSans-20" transform="scale(0.015625)"/>
       <path id="DejaVuSans-4d" d="M 628 4666 
L 1569 4666 
L 2759 1491 
L 3956 4666 
L 4897 4666 
L 4897 0 
L 4281 0 
L 4281 4097 
L 3078 897 
L 2444 897 
L 1241 4097 
L 1241 0 
L 628 0 
L 628 4666 
z
" transform="scale(0.015625)"/>
       <path id="DejaVuSans-69" d="M 603 3500 
L 1178 3500 
L 1178 0 
L 603 0 
L 603 3500 
z
M 603 4863 
L 1178 4863 
L 1178 4134 
L 603 4134 
L 603 4863 
z
" transform="scale(0.015625)"/>
       <path id="DejaVuSans-6e" d="M 3513 2113 
L 3513 0 
L 2938 0 
L 2938 2094 
Q 2938 2591 2744 2837 
Q 2550 3084 2163 3084 
Q 1697 3084 1428 2787 
Q 1159 2491 1159 1978 
L 1159 0 
L 581 0 
L 581 3500 
L 1159 3500 
L 1159 2956 
Q 1366 3272 1645 3428 
Q 1925 3584 2291 3584 
Q 2894 3584 3203 3211 
Q 3513 2838 3513 2113 
z
" transform="scale(0.015625)"/>
       <path id="DejaVuSans-75" d="M 544 1381 
L 544 3500 
L 1119 3500 
L 1119 1403 
Q 1119 906 1312 657 
Q 1506 409 1894 409 
Q 2359 409 2629 706 
Q 2900 1003 2900 1516 
L 2900 3500 
L 3475 3500 
L 3475 0 
L 2900 0 
L 2900 538 
Q 2691 219 2414 64 
Q 2138 -91 1772 -91 
Q 1169 -91 856 284 
Q 544 659 544 1381 
z
M 1991 3584 
L 1991 3584 
z
" transform="scale(0.015625)"/>
       <path id="DejaVuSans-74" d="M 1172 4494 
L 1172 3500 
L 2356 3500 
L 2356 3053 
L 1172 3053 
L 1172 1153 
Q 1172 725 1289 603 
Q 1406 481 1766 481 
L 2356 481 
L 2356 0 
L 1766 0 
Q 1100 0 847 248 
Q 594 497 594 1153 
L 594 3053 
L 172 3053 
L 172 3500 
L 594 3500 
L 594 4494 
L 1172 4494 
z
" transform="scale(0.015625)"/>
      </defs>
      <use xlink:href="#DejaVuSans-47"/>
      <use xlink:href="#DejaVuSans-61" transform="translate(77.490234 0)"/>
      <use xlink:href="#DejaVuSans-6d" transform="translate(138.769531 0)"/>
      <use xlink:href="#DejaVuSans-65" transform="translate(236.181641 0)"/>
      <use xlink:href="#DejaVuSans-20" transform="translate(297.705078 0)"/>
      <use xlink:href="#DejaVuSans-4d" transform="translate(329.492188 0)"/>
      <use xlink:href="#DejaVuSans-69" transform="translate(415.771484 0)"/>
      <use xlink:href="#DejaVuSans-6e" transform="translate(443.554688 0)"/>
      <use xlink:href="#DejaVuSans-75" transform="translate(506.933594 0)"/>
      <use xlink:href="#DejaVuSans-74" transform="translate(570.3125 0)"/>
      <use xlink:href="#DejaVuSans-65" transform="translate(609.521484 0)"/>
     </g>
    </g>
   </g>
   <g id="matplotlib.axis_2">
    <g id="ytick_1">
     <g id="line2d_32">
      <path d="M 38.27 456.082818 
L 853.2 456.082818 
" clip-path="url(#p916443aa74)" style="fill: none; stroke-dasharray: 2.96,1.28; stroke-dashoffset: 0; stroke: #b0b0b0; stroke-opacity: 0.6; stroke-width: 0.8"/>
     </g>
     <g id="line2d_33">
      <defs>
       <path id="mde374b0644" d="M 0 0 
L -3.5 0 
" style="stroke: #000000; stroke-width: 0.8"/>
      </defs>
      <g>
       <use xlink:href="#mde374b0644" x="38.27" y="456.082818" style="stroke: #000000; stroke-width: 0.8"/>
      </g>
     </g>
     <g id="text_10">
      <!-- 0 -->
      <g transform="translate(24.9075 459.882037) scale(0.1 -0.1)">
       <use xlink:href="#DejaVuSans-30"/>
      </g>
     </g>
    </g>
    <g id="ytick_2">
     <g id="line2d_34">
      <path d="M 38.27 404.987245 
L 853.2 404.987245 
" clip-path="url(#p916443aa74)" style="fill: none; stroke-dasharray: 2.96,1.28; stroke-dashoffset: 0; stroke: #b0b0b0; stroke-opacity: 0.6; stroke-width: 0.8"/>
     </g>
     <g id="line2d_35">
      <g>
       <use xlink:href="#mde374b0644" x="38.27" y="404.987245" style="stroke: #000000; stroke-width: 0.8"/>
      </g>
     </g>
     <g id="text_11">
      <!-- 1 -->
      <g transform="translate(24.9075 408.786463) scale(0.1 -0.1)">
       <defs>
        <path id="DejaVuSans-31" d="M 794 531 
L 1825 531 
L 1825 4091 
L 703 3866 
L 703 4441 
L 1819 4666 
L 2450 4666 
L 2450 531 
L 3481 531 
L 3481 0 
L 794 0 
L 794 531 
z
" transform="scale(0.015625)"/>
       </defs>
       <use xlink:href="#DejaVuSans-31"/>
      </g>
     </g>
    </g>
    <g id="ytick_3">
     <g id="line2d_36">
      <path d="M 38.27 353.891671 
L 853.2 353.891671 
" clip-path="url(#p916443aa74)" style="fill: none; stroke-dasharray: 2.96,1.28; stroke-dashoffset: 0; stroke: #b0b0b0; stroke-opacity: 0.6; stroke-width: 0.8"/>
     </g>
     <g id="line2d_37">
      <g>
       <use xlink:href="#mde374b0644" x="38.27" y="353.891671" style="stroke: #000000; stroke-width: 0.8"/>
      </g>
     </g>
     <g id="text_12">
      <!-- 2 -->
      <g transform="translate(24.9075 357.69089) scale(0.1 -0.1)">
       <use xlink:href="#DejaVuSans-32"/>
      </g>
     </g>
    </g>
    <g id="ytick_4">
     <g id="line2d_38">
      <path d="M 38.27 302.796097 
L 853.2 302.796097 
" clip-path="url(#p916443aa74)" style="fill: none; stroke-dasharray: 2.96,1.28; stroke-dashoffset: 0; stroke: #b0b0b0; stroke-opacity: 0.6; stroke-width: 0.8"/>
     </g>
     <g id="line2d_39">
      <g>
       <use xlink:href="#mde374b0644" x="38.27" y="302.796097" style="stroke: #000000; stroke-width: 0.8"/>
      </g>
     </g>
     <g id="text_13">
      <!-- 3 -->
      <g transform="translate(24.9075 306.595316) scale(0.1 -0.1)">
       <use xlink:href="#DejaVuSans-33"/>
      </g>
     </g>
    </g>
    <g id="ytick_5">
     <g id="line2d_40">
      <path d="M 38.27 251.700524 
L 853.2 251.700524 
" clip-path="url(#p916443aa74)" style="fill: none; stroke-dasharray: 2.96,1.28; stroke-dashoffset: 0; stroke: #b0b0b0; stroke-opacity: 0.6; stroke-width: 0.8"/>
     </g>
     <g id="line2d_41">
      <g>
       <use xlink:href="#mde374b0644" x="38.27" y="251.700524" style="stroke: #000000; stroke-width: 0.8"/>
      </g>
     </g>
     <g id="text_14">
      <!-- 4 -->
      <g transform="translate(24.9075 255.499743) scale(0.1 -0.1)">
       <use xlink:href="#DejaVuSans-34"/>
      </g>
     </g>
    </g>
    <g id="ytick_6">
     <g id="line2d_42">
      <path d="M 38.27 200.60495 
L 853.2 200.60495 
" clip-path="url(#p916443aa74)" style="fill: none; stroke-dasharray: 2.96,1.28; stroke-dashoffset: 0; stroke: #b0b0b0; stroke-opacity: 0.6; stroke-width: 0.8"/>
     </g>
     <g id="line2d_43">
      <g>
       <use xlink:href="#mde374b0644" x="38.27" y="200.60495" style="stroke: #000000; stroke-width: 0.8"/>
      </g>
     </g>
     <g id="text_15">
      <!-- 5 -->
      <g transform="translate(24.9075 204.404169) scale(0.1 -0.1)">
       <use xlink:href="#DejaVuSans-35"/>
      </g>
     </g>
    </g>
    <g id="ytick_7">
     <g id="line2d_44">
      <path d="M 38.27 149.509377 
L 853.2 149.509377 
" clip-path="url(#p916443aa74)" style="fill: none; stroke-dasharray: 2.96,1.28; stroke-dashoffset: 0; stroke: #b0b0b0; stroke-opacity: 0.6; stroke-width: 0.8"/>
     </g>
     <g id="line2d_45">
      <g>
       <use xlink:href="#mde374b0644" x="38.27" y="149.509377" style="stroke: #000000; stroke-width: 0.8"/>
      </g>
     </g>
     <g id="text_16">
      <!-- 6 -->
      <g transform="translate(24.9075 153.308595) scale(0.1 -0.1)">
       <defs>
        <path id="DejaVuSans-36" d="M 2113 2584 
Q 1688 2584 1439 2293 
Q 1191 2003 1191 1497 
Q 1191 994 1439 701 
Q 1688 409 2113 409 
Q 2538 409 2786 701 
Q 3034 994 3034 1497 
Q 3034 2003 2786 2293 
Q 2538 2584 2113 2584 
z
M 3366 4563 
L 3366 3988 
Q 3128 4100 2886 4159 
Q 2644 4219 2406 4219 
Q 1781 4219 1451 3797 
Q 1122 3375 1075 2522 
Q 1259 2794 1537 2939 
Q 1816 3084 2150 3084 
Q 2853 3084 3261 2657 
Q 3669 2231 3669 1497 
Q 3669 778 3244 343 
Q 2819 -91 2113 -91 
Q 1303 -91 875 529 
Q 447 1150 447 2328 
Q 447 3434 972 4092 
Q 1497 4750 2381 4750 
Q 2619 4750 2861 4703 
Q 3103 4656 3366 4563 
z
" transform="scale(0.015625)"/>
       </defs>
       <use xlink:href="#DejaVuSans-36"/>
      </g>
     </g>
    </g>
    <g id="ytick_8">
     <g id="line2d_46">
      <path d="M 38.27 98.413803 
L 853.2 98.413803 
" clip-path="url(#p916443aa74)" style="fill: none; stroke-dasharray: 2.96,1.28; stroke-dashoffset: 0; stroke: #b0b0b0; stroke-opacity: 0.6; stroke-width: 0.8"/>
     </g>
     <g id="line2d_47">
      <g>
       <use xlink:href="#mde374b0644" x="38.27" y="98.413803" style="stroke: #000000; stroke-width: 0.8"/>
      </g>
     </g>
     <g id="text_17">
      <!-- 7 -->
      <g transform="translate(24.9075 102.213022) scale(0.1 -0.1)">
       <use xlink:href="#DejaVuSans-37"/>
      </g>
     </g>
    </g>
    <g id="ytick_9">
     <g id="line2d_48">
      <path d="M 38.27 47.318229 
L 853.2 47.318229 
" clip-path="url(#p916443aa74)" style="fill: none; stroke-dasharray: 2.96,1.28; stroke-dashoffset: 0; stroke: #b0b0b0; stroke-opacity: 0.6; stroke-width: 0.8"/>
     </g>
     <g id="line2d_49">
      <g>
       <use xlink:href="#mde374b0644" x="38.27" y="47.318229" style="stroke: #000000; stroke-width: 0.8"/>
      </g>
     </g>
     <g id="text_18">
      <!-- 8 -->
      <g transform="translate(24.9075 51.117448) scale(0.1 -0.1)">
       <defs>
        <path id="DejaVuSans-38" d="M 2034 2216 
Q 1584 2216 1326 1975 
Q 1069 1734 1069 1313 
Q 1069 891 1326 650 
Q 1584 409 2034 409 
Q 2484 409 2743 651 
Q 3003 894 3003 1313 
Q 3003 1734 2745 1975 
Q 2488 2216 2034 2216 
z
M 1403 2484 
Q 997 2584 770 2862 
Q 544 3141 544 3541 
Q 544 4100 942 4425 
Q 1341 4750 2034 4750 
Q 2731 4750 3128 4425 
Q 3525 4100 3525 3541 
Q 3525 3141 3298 2862 
Q 3072 2584 2669 2484 
Q 3125 2378 3379 2068 
Q 3634 1759 3634 1313 
Q 3634 634 3220 271 
Q 2806 -91 2034 -91 
Q 1263 -91 848 271 
Q 434 634 434 1313 
Q 434 1759 690 2068 
Q 947 2378 1403 2484 
z
M 1172 3481 
Q 1172 3119 1398 2916 
Q 1625 2713 2034 2713 
Q 2441 2713 2670 2916 
Q 2900 3119 2900 3481 
Q 2900 3844 2670 4047 
Q 2441 4250 2034 4250 
Q 1625 4250 1398 4047 
Q 1172 3844 1172 3481 
z
" transform="scale(0.015625)"/>
       </defs>
       <use xlink:href="#DejaVuSans-38"/>
      </g>
     </g>
    </g>
    <g id="text_19">
     <!-- Points Scored -->
     <g transform="translate(18.827813 275.262659) rotate(-90) scale(0.1 -0.1)">
      <defs>
       <path id="DejaVuSans-50" d="M 1259 4147 
L 1259 2394 
L 2053 2394 
Q 2494 2394 2734 2622 
Q 2975 2850 2975 3272 
Q 2975 3691 2734 3919 
Q 2494 4147 2053 4147 
L 1259 4147 
z
M 628 4666 
L 2053 4666 
Q 2838 4666 3239 4311 
Q 3641 3956 3641 3272 
Q 3641 2581 3239 2228 
Q 2838 1875 2053 1875 
L 1259 1875 
L 1259 0 
L 628 0 
L 628 4666 
z
" transform="scale(0.015625)"/>
       <path id="DejaVuSans-6f" d="M 1959 3097 
Q 1497 3097 1228 2736 
Q 959 2375 959 1747 
Q 959 1119 1226 758 
Q 1494 397 1959 397 
Q 2419 397 2687 759 
Q 2956 1122 2956 1747 
Q 2956 2369 2687 2733 
Q 2419 3097 1959 3097 
z
M 1959 3584 
Q 2709 3584 3137 3096 
Q 3566 2609 3566 1747 
Q 3566 888 3137 398 
Q 2709 -91 1959 -91 
Q 1206 -91 779 398 
Q 353 888 353 1747 
Q 353 2609 779 3096 
Q 1206 3584 1959 3584 
z
" transform="scale(0.015625)"/>
       <path id="DejaVuSans-73" d="M 2834 3397 
L 2834 2853 
Q 2591 2978 2328 3040 
Q 2066 3103 1784 3103 
Q 1356 3103 1142 2972 
Q 928 2841 928 2578 
Q 928 2378 1081 2264 
Q 1234 2150 1697 2047 
L 1894 2003 
Q 2506 1872 2764 1633 
Q 3022 1394 3022 966 
Q 3022 478 2636 193 
Q 2250 -91 1575 -91 
Q 1294 -91 989 -36 
Q 684 19 347 128 
L 347 722 
Q 666 556 975 473 
Q 1284 391 1588 391 
Q 1994 391 2212 530 
Q 2431 669 2431 922 
Q 2431 1156 2273 1281 
Q 2116 1406 1581 1522 
L 1381 1569 
Q 847 1681 609 1914 
Q 372 2147 372 2553 
Q 372 3047 722 3315 
Q 1072 3584 1716 3584 
Q 2034 3584 2315 3537 
Q 2597 3491 2834 3397 
z
" transform="scale(0.015625)"/>
       <path id="DejaVuSans-53" d="M 3425 4513 
L 3425 3897 
Q 3066 4069 2747 4153 
Q 2428 4238 2131 4238 
Q 1616 4238 1336 4038 
Q 1056 3838 1056 3469 
Q 1056 3159 1242 3001 
Q 1428 2844 1947 2747 
L 2328 2669 
Q 3034 2534 3370 2195 
Q 3706 1856 3706 1288 
Q 3706 609 3251 259 
Q 2797 -91 1919 -91 
Q 1588 -91 1214 -16 
Q 841 59 441 206 
L 441 856 
Q 825 641 1194 531 
Q 1563 422 1919 422 
Q 2459 422 2753 634 
Q 3047 847 3047 1241 
Q 3047 1584 2836 1778 
Q 2625 1972 2144 2069 
L 1759 2144 
Q 1053 2284 737 2584 
Q 422 2884 422 3419 
Q 422 4038 858 4394 
Q 1294 4750 2059 4750 
Q 2388 4750 2728 4690 
Q 3069 4631 3425 4513 
z
" transform="scale(0.015625)"/>
       <path id="DejaVuSans-63" d="M 3122 3366 
L 3122 2828 
Q 2878 2963 2633 3030 
Q 2388 3097 2138 3097 
Q 1578 3097 1268 2742 
Q 959 2388 959 1747 
Q 959 1106 1268 751 
Q 1578 397 2138 397 
Q 2388 397 2633 464 
Q 2878 531 3122 666 
L 3122 134 
Q 2881 22 2623 -34 
Q 2366 -91 2075 -91 
Q 1284 -91 818 406 
Q 353 903 353 1747 
Q 353 2603 823 3093 
Q 1294 3584 2113 3584 
Q 2378 3584 2631 3529 
Q 2884 3475 3122 3366 
z
" transform="scale(0.015625)"/>
       <path id="DejaVuSans-72" d="M 2631 2963 
Q 2534 3019 2420 3045 
Q 2306 3072 2169 3072 
Q 1681 3072 1420 2755 
Q 1159 2438 1159 1844 
L 1159 0 
L 581 0 
L 581 3500 
L 1159 3500 
L 1159 2956 
Q 1341 3275 1631 3429 
Q 1922 3584 2338 3584 
Q 2397 3584 2469 3576 
Q 2541 3569 2628 3553 
L 2631 2963 
z
" transform="scale(0.015625)"/>
       <path id="DejaVuSans-64" d="M 2906 2969 
L 2906 4863 
L 3481 4863 
L 3481 0 
L 2906 0 
L 2906 525 
Q 2725 213 2448 61 
Q 2172 -91 1784 -91 
Q 1150 -91 751 415 
Q 353 922 353 1747 
Q 353 2572 751 3078 
Q 1150 3584 1784 3584 
Q 2172 3584 2448 3432 
Q 2725 3281 2906 2969 
z
M 947 1747 
Q 947 1113 1208 752 
Q 1469 391 1925 391 
Q 2381 391 2643 752 
Q 2906 1113 2906 1747 
Q 2906 2381 2643 2742 
Q 2381 3103 1925 3103 
Q 1469 3103 1208 2742 
Q 947 2381 947 1747 
z
" transform="scale(0.015625)"/>
      </defs>
      <use xlink:href="#DejaVuSans-50"/>
      <use xlink:href="#DejaVuSans-6f" transform="translate(56.677734 0)"/>
      <use xlink:href="#DejaVuSans-69" transform="translate(117.859375 0)"/>
      <use xlink:href="#DejaVuSans-6e" transform="translate(145.642578 0)"/>
      <use xlink:href="#DejaVuSans-74" transform="translate(209.021484 0)"/>
      <use xlink:href="#DejaVuSans-73" transform="translate(248.230469 0)"/>
      <use xlink:href="#DejaVuSans-20" transform="translate(300.330078 0)"/>
      <use xlink:href="#DejaVuSans-53" transform="translate(332.117188 0)"/>
      <use xlink:href="#DejaVuSans-63" transform="translate(395.59375 0)"/>
      <use xlink:href="#DejaVuSans-6f" transform="translate(450.574219 0)"/>
      <use xlink:href="#DejaVuSans-72" transform="translate(511.755859 0)"/>
      <use xlink:href="#DejaVuSans-65" transform="translate(550.619141 0)"/>
      <use xlink:href="#DejaVuSans-64" transform="translate(612.142578 0)"/>
     </g>
    </g>
   </g>
   <g id="patch_96">
    <path d="M 38.27 456.082818 
L 38.27 26.88 
" style="fill: none; stroke: #000000; stroke-width: 0.8; stroke-linejoin: miter; stroke-linecap: square"/>
   </g>
   <g id="patch_97">
    <path d="M 853.2 456.082818 
L 853.2 26.88 
" style="fill: none; stroke: #000000; stroke-width: 0.8; stroke-linejoin: miter; stroke-linecap: square"/>
   </g>
   <g id="patch_98">
    <path d="M 38.27 456.082818 
L 853.2 456.082818 
" style="fill: none; stroke: #000000; stroke-width: 0.8; stroke-linejoin: miter; stroke-linecap: square"/>
   </g>
   <g id="patch_99">
    <path d="M 38.27 26.88 
L 853.2 26.88 
" style="fill: none; stroke: #000000; stroke-width: 0.8; stroke-linejoin: miter; stroke-linecap: square"/>
   </g>
   <g id="text_20">
    <!-- Keion Brooks Scoring Timeline (2024-25) -->
    <g transform="translate(323.465313 20.88) scale(0.12 -0.12)">
     <defs>
      <path id="DejaVuSans-4b" d="M 628 4666 
L 1259 4666 
L 1259 2694 
L 3353 4666 
L 4166 4666 
L 1850 2491 
L 4331 0 
L 3500 0 
L 1259 2247 
L 1259 0 
L 628 0 
L 628 4666 
z
" transform="scale(0.015625)"/>
      <path id="DejaVuSans-42" d="M 1259 2228 
L 1259 519 
L 2272 519 
Q 2781 519 3026 730 
Q 3272 941 3272 1375 
Q 3272 1813 3026 2020 
Q 2781 2228 2272 2228 
L 1259 2228 
z
M 1259 4147 
L 1259 2741 
L 2194 2741 
Q 2656 2741 2882 2914 
Q 3109 3088 3109 3444 
Q 3109 3797 2882 3972 
Q 2656 4147 2194 4147 
L 1259 4147 
z
M 628 4666 
L 2241 4666 
Q 2963 4666 3353 4366 
Q 3744 4066 3744 3513 
Q 3744 3084 3544 2831 
Q 3344 2578 2956 2516 
Q 3422 2416 3680 2098 
Q 3938 1781 3938 1306 
Q 3938 681 3513 340 
Q 3088 0 2303 0 
L 628 0 
L 628 4666 
z
" transform="scale(0.015625)"/>
      <path id="DejaVuSans-6b" d="M 581 4863 
L 1159 4863 
L 1159 1991 
L 2875 3500 
L 3609 3500 
L 1753 1863 
L 3688 0 
L 2938 0 
L 1159 1709 
L 1159 0 
L 581 0 
L 581 4863 
z
" transform="scale(0.015625)"/>
      <path id="DejaVuSans-67" d="M 2906 1791 
Q 2906 2416 2648 2759 
Q 2391 3103 1925 3103 
Q 1463 3103 1205 2759 
Q 947 2416 947 1791 
Q 947 1169 1205 825 
Q 1463 481 1925 481 
Q 2391 481 2648 825 
Q 2906 1169 2906 1791 
z
M 3481 434 
Q 3481 -459 3084 -895 
Q 2688 -1331 1869 -1331 
Q 1566 -1331 1297 -1286 
Q 1028 -1241 775 -1147 
L 775 -588 
Q 1028 -725 1275 -790 
Q 1522 -856 1778 -856 
Q 2344 -856 2625 -561 
Q 2906 -266 2906 331 
L 2906 616 
Q 2728 306 2450 153 
Q 2172 0 1784 0 
Q 1141 0 747 490 
Q 353 981 353 1791 
Q 353 2603 747 3093 
Q 1141 3584 1784 3584 
Q 2172 3584 2450 3431 
Q 2728 3278 2906 2969 
L 2906 3500 
L 3481 3500 
L 3481 434 
z
" transform="scale(0.015625)"/>
      <path id="DejaVuSans-54" d="M -19 4666 
L 3928 4666 
L 3928 4134 
L 2272 4134 
L 2272 0 
L 1638 0 
L 1638 4134 
L -19 4134 
L -19 4666 
z
" transform="scale(0.015625)"/>
      <path id="DejaVuSans-6c" d="M 603 4863 
L 1178 4863 
L 1178 0 
L 603 0 
L 603 4863 
z
" transform="scale(0.015625)"/>
      <path id="DejaVuSans-28" d="M 1984 4856 
Q 1566 4138 1362 3434 
Q 1159 2731 1159 2009 
Q 1159 1288 1364 580 
Q 1569 -128 1984 -844 
L 1484 -844 
Q 1016 -109 783 600 
Q 550 1309 550 2009 
Q 550 2706 781 3412 
Q 1013 4119 1484 4856 
L 1984 4856 
z
" transform="scale(0.015625)"/>
      <path id="DejaVuSans-2d" d="M 313 2009 
L 1997 2009 
L 1997 1497 
L 313 1497 
L 313 2009 
z
" transform="scale(0.015625)"/>
      <path id="DejaVuSans-29" d="M 513 4856 
L 1013 4856 
Q 1481 4119 1714 3412 
Q 1947 2706 1947 2009 
Q 1947 1309 1714 600 
Q 1481 -109 1013 -844 
L 513 -844 
Q 928 -128 1133 580 
Q 1338 1288 1338 2009 
Q 1338 2731 1133 3434 
Q 928 4138 513 4856 
z
" transform="scale(0.015625)"/>
     </defs>
     <use xlink:href="#DejaVuSans-4b"/>
     <use xlink:href="#DejaVuSans-65" transform="translate(60.576172 0)"/>
     <use xlink:href="#DejaVuSans-69" transform="translate(122.099609 0)"/>
     <use xlink:href="#DejaVuSans-6f" transform="translate(149.882812 0)"/>
     <use xlink:href="#DejaVuSans-6e" transform="translate(211.064453 0)"/>
     <use xlink:href="#DejaVuSans-20" transform="translate(274.443359 0)"/>
     <use xlink:href="#DejaVuSans-42" transform="translate(306.230469 0)"/>
     <use xlink:href="#DejaVuSans-72" transform="translate(374.833984 0)"/>
     <use xlink:href="#DejaVuSans-6f" transform="translate(413.697266 0)"/>
     <use xlink:href="#DejaVuSans-6f" transform="translate(474.878906 0)"/>
     <use xlink:href="#DejaVuSans-6b" transform="translate(536.060547 0)"/>
     <use xlink:href="#DejaVuSans-73" transform="translate(593.970703 0)"/>
     <use xlink:href="#DejaVuSans-20" transform="translate(646.070312 0)"/>
     <use xlink:href="#DejaVuSans-53" transform="translate(677.857422 0)"/>
     <use xlink:href="#DejaVuSans-63" transform="translate(741.333984 0)"/>
     <use xlink:href="#DejaVuSans-6f" transform="translate(796.314453 0)"/>
     <use xlink:href="#DejaVuSans-72" transform="translate(857.496094 0)"/>
     <use xlink:href="#DejaVuSans-69" transform="translate(898.609375 0)"/>
     <use xlink:href="#DejaVuSans-6e" transform="translate(926.392578 0)"/>
     <use xlink:href="#DejaVuSans-67" transform="translate(989.771484 0)"/>
     <use xlink:href="#DejaVuSans-20" transform="translate(1053.248047 0)"/>
     <use xlink:href="#DejaVuSans-54" transform="translate(1085.035156 0)"/>
     <use xlink:href="#DejaVuSans-69" transform="translate(1142.994141 0)"/>
     <use xlink:href="#DejaVuSans-6d" transform="translate(1170.777344 0)"/>
     <use xlink:href="#DejaVuSans-65" transform="translate(1268.189453 0)"/>
     <use xlink:href="#DejaVuSans-6c" transform="translate(1329.712891 0)"/>
     <use xlink:href="#DejaVuSans-69" transform="translate(1357.496094 0)"/>
     <use xlink:href="#DejaVuSans-6e" transform="translate(1385.279297 0)"/>
     <use xlink:href="#DejaVuSans-65" transform="translate(1448.658203 0)"/>
     <use xlink:href="#DejaVuSans-20" transform="translate(1510.181641 0)"/>
     <use xlink:href="#DejaVuSans-28" transform="translate(1541.96875 0)"/>
     <use xlink:href="#DejaVuSans-32" transform="translate(1580.982422 0)"/>
     <use xlink:href="#DejaVuSans-30" transform="translate(1644.605469 0)"/>
     <use xlink:href="#DejaVuSans-32" transform="translate(1708.228516 0)"/>
     <use xlink:href="#DejaVuSans-34" transform="translate(1771.851562 0)"/>
     <use xlink:href="#DejaVuSans-2d" transform="translate(1835.474609 0)"/>
     <use xlink:href="#DejaVuSans-32" transform="translate(1871.558594 0)"/>
     <use xlink:href="#DejaVuSans-35" transform="translate(1935.181641 0)"/>
     <use xlink:href="#DejaVuSans-29" transform="translate(1998.804688 0)"/>
    </g>
   </g>
   <g id="legend_1">
    <g id="patch_100">
     <path d="M 45.27 93.5925 
L 98.13875 93.5925 
Q 100.13875 93.5925 100.13875 91.5925 
L 100.13875 33.88 
Q 100.13875 31.88 98.13875 31.88 
L 45.27 31.88 
Q 43.27 31.88 43.27 33.88 
L 43.27 91.5925 
Q 43.27 93.5925 45.27 93.5925 
z
" style="fill: #ffffff; opacity: 0.8; stroke: #cccccc; stroke-linejoin: miter"/>
    </g>
    <g id="text_21">
     <!-- Shot Type -->
     <g transform="translate(47.27 43.478437) scale(0.1 -0.1)">
      <defs>
       <path id="DejaVuSans-68" d="M 3513 2113 
L 3513 0 
L 2938 0 
L 2938 2094 
Q 2938 2591 2744 2837 
Q 2550 3084 2163 3084 
Q 1697 3084 1428 2787 
Q 1159 2491 1159 1978 
L 1159 0 
L 581 0 
L 581 4863 
L 1159 4863 
L 1159 2956 
Q 1366 3272 1645 3428 
Q 1925 3584 2291 3584 
Q 2894 3584 3203 3211 
Q 3513 2838 3513 2113 
z
" transform="scale(0.015625)"/>
       <path id="DejaVuSans-79" d="M 2059 -325 
Q 1816 -950 1584 -1140 
Q 1353 -1331 966 -1331 
L 506 -1331 
L 506 -850 
L 844 -850 
Q 1081 -850 1212 -737 
Q 1344 -625 1503 -206 
L 1606 56 
L 191 3500 
L 800 3500 
L 1894 763 
L 2988 3500 
L 3597 3500 
L 2059 -325 
z
" transform="scale(0.015625)"/>
       <path id="DejaVuSans-70" d="M 1159 525 
L 1159 -1331 
L 581 -1331 
L 581 3500 
L 1159 3500 
L 1159 2969 
Q 1341 3281 1617 3432 
Q 1894 3584 2278 3584 
Q 2916 3584 3314 3078 
Q 3713 2572 3713 1747 
Q 3713 922 3314 415 
Q 2916 -91 2278 -91 
Q 1894 -91 1617 61 
Q 1341 213 1159 525 
z
M 3116 1747 
Q 3116 2381 2855 2742 
Q 2594 3103 2138 3103 
Q 1681 3103 1420 2742 
Q 1159 2381 1159 1747 
Q 1159 1113 1420 752 
Q 1681 391 2138 391 
Q 2594 391 2855 752 
Q 3116 1113 3116 1747 
z
" transform="scale(0.015625)"/>
      </defs>
      <use xlink:href="#DejaVuSans-53"/>
      <use xlink:href="#DejaVuSans-68" transform="translate(63.476562 0)"/>
      <use xlink:href="#DejaVuSans-6f" transform="translate(126.855469 0)"/>
      <use xlink:href="#DejaVuSans-74" transform="translate(188.037109 0)"/>
      <use xlink:href="#DejaVuSans-20" transform="translate(227.246094 0)"/>
      <use xlink:href="#DejaVuSans-54" transform="translate(259.033203 0)"/>
      <use xlink:href="#DejaVuSans-79" transform="translate(304.492188 0)"/>
      <use xlink:href="#DejaVuSans-70" transform="translate(363.671875 0)"/>
      <use xlink:href="#DejaVuSans-65" transform="translate(427.148438 0)"/>
     </g>
    </g>
    <g id="patch_101">
     <path d="M 48.454375 58.156562 
L 68.454375 58.156562 
L 68.454375 51.156562 
L 48.454375 51.156562 
z
" style="fill: #ffc107"/>
    </g>
    <g id="text_22">
     <!-- FT -->
     <g transform="translate(76.454375 58.156562) scale(0.1 -0.1)">
      <defs>
       <path id="DejaVuSans-46" d="M 628 4666 
L 3309 4666 
L 3309 4134 
L 1259 4134 
L 1259 2759 
L 3109 2759 
L 3109 2228 
L 1259 2228 
L 1259 0 
L 628 0 
L 628 4666 
z
" transform="scale(0.015625)"/>
      </defs>
      <use xlink:href="#DejaVuSans-46"/>
      <use xlink:href="#DejaVuSans-54" transform="translate(55.769531 0)"/>
     </g>
    </g>
    <g id="patch_102">
     <path d="M 48.454375 72.834687 
L 68.454375 72.834687 
L 68.454375 65.834687 
L 48.454375 65.834687 
z
" style="fill: #2196f3"/>
    </g>
    <g id="text_23">
     <!-- 2PT -->
     <g transform="translate(76.454375 72.834687) scale(0.1 -0.1)">
      <use xlink:href="#DejaVuSans-32"/>
      <use xlink:href="#DejaVuSans-50" transform="translate(63.623047 0)"/>
      <use xlink:href="#DejaVuSans-54" transform="translate(123.925781 0)"/>
     </g>
    </g>
    <g id="patch_103">
     <path d="M 48.454375 87.512812 
L 68.454375 87.512812 
L 68.454375 80.512812 
L 48.454375 80.512812 
z
" style="fill: #4caf50"/>
    </g>
    <g id="text_24">
     <!-- 3PT -->
     <g transform="translate(76.454375 87.512812) scale(0.1 -0.1)">
      <use xlink:href="#DejaVuSans-33"/>
      <use xlink:href="#DejaVuSans-50" transform="translate(63.623047 0)"/>
      <use xlink:href="#DejaVuSans-54" transform="translate(123.925781 0)"/>
     </g>
    </g>
   </g>
  </g>
 </g>
 <defs>
  <clipPath id="p916443aa74">
   <rect x="38.27" y="26.88" width="814.93" height="429.202818"/>
  </clipPath>
 </defs>
</svg>
