<?xml version="1.0" encoding="utf-8" standalone="no"?>
<!DOCTYPE svg PUBLIC "-//W3C//DTD SVG 1.1//EN"
  "http://www.w3.org/Graphics/SVG/1.1/DTD/svg11.dtd">
<svg xmlns:xlink="http://www.w3.org/1999/xlink" width="864pt" height="432pt" viewBox="0 0 864 432" xmlns="http://www.w3.org/2000/svg" version="1.1">
 <metadata>
  <rdf:RDF xmlns:dc="http://purl.org/dc/elements/1.1/" xmlns:cc="http://creativecommons.org/ns#" xmlns:rdf="http://www.w3.org/1999/02/22-rdf-syntax-ns#">
   <cc:Work>
    <dc:type rdf:resource="http://purl.org/dc/dcmitype/StillImage"/>
    <dc:date>2025-08-24T11:16:47.290495</dc:date>
    <dc:format>image/svg+xml</dc:format>
    <dc:creator>
     <cc:Agent>
      <dc:title>Matplotlib v3.10.5, https://matplotlib.org/</dc:title>
     </cc:Agent>
    </dc:creator>
   </cc:Work>
  </rdf:RDF>
 </metadata>
 <defs>
  <style type="text/css">*{stroke-linejoin: round; stroke-linecap: butt}</style>
 </defs>
 <g id="figure_1">
  <g id="patch_1">
   <path d="M 0 432 
L 864 432 
L 864 0 
L 0 0 
z
" style="fill: #ffffff"/>
  </g>
  <g id="axes_1">
   <g id="patch_2">
    <path d="M 47.45 387.16 
L 853.2 387.16 
L 853.2 28.32 
L 47.45 28.32 
z
" style="fill: #ffffff"/>
   </g>
   <g id="patch_3">
    <path d="M 47.45 387.16 
L 63.893878 387.16 
L 63.893878 364.120514 
L 47.45 364.120514 
z
" clip-path="url(#p06e2c3e2ae)" style="fill: #ef4444"/>
   </g>
   <g id="patch_4">
    <path d="M 63.893878 387.16 
L 80.337755 387.16 
L 80.337755 352.60077 
L 63.893878 352.60077 
z
" clip-path="url(#p06e2c3e2ae)" style="fill: #ef4444"/>
   </g>
   <g id="patch_5">
    <path d="M 80.337755 387.16 
L 96.781633 387.16 
L 96.781633 260.442825 
L 80.337755 260.442825 
z
" clip-path="url(#p06e2c3e2ae)" style="fill: #ef4444"/>
   </g>
   <g id="patch_6">
    <path d="M 96.781633 387.16 
L 113.22551 387.16 
L 113.22551 329.561284 
L 96.781633 329.561284 
z
" clip-path="url(#p06e2c3e2ae)" style="fill: #ef4444"/>
   </g>
   <g id="patch_7">
    <path d="M 113.22551 387.16 
L 129.669388 387.16 
L 129.669388 295.002055 
L 113.22551 295.002055 
z
" clip-path="url(#p06e2c3e2ae)" style="fill: #ef4444"/>
   </g>
   <g id="patch_8">
    <path d="M 129.669388 387.16 
L 146.113265 387.16 
L 146.113265 306.521798 
L 129.669388 306.521798 
z
" clip-path="url(#p06e2c3e2ae)" style="fill: #ef4444"/>
   </g>
   <g id="patch_9">
    <path d="M 146.113265 387.16 
L 162.557143 387.16 
L 162.557143 306.521798 
L 146.113265 306.521798 
z
" clip-path="url(#p06e2c3e2ae)" style="fill: #ef4444"/>
   </g>
   <g id="patch_10">
    <path d="M 162.557143 387.16 
L 179.00102 387.16 
L 179.00102 306.521798 
L 162.557143 306.521798 
z
" clip-path="url(#p06e2c3e2ae)" style="fill: #ef4444"/>
   </g>
   <g id="patch_11">
    <path d="M 179.00102 387.16 
L 195.444898 387.16 
L 195.444898 318.041541 
L 179.00102 318.041541 
z
" clip-path="url(#p06e2c3e2ae)" style="fill: #ef4444"/>
   </g>
   <g id="patch_12">
    <path d="M 195.444898 387.16 
L 211.888776 387.16 
L 211.888776 364.120514 
L 195.444898 364.120514 
z
" clip-path="url(#p06e2c3e2ae)" style="fill: #ef4444"/>
   </g>
   <g id="patch_13">
    <path d="M 211.888776 387.16 
L 228.332653 387.16 
L 228.332653 375.640257 
L 211.888776 375.640257 
z
" clip-path="url(#p06e2c3e2ae)" style="fill: #ef4444"/>
   </g>
   <g id="patch_14">
    <path d="M 228.332653 387.16 
L 244.776531 387.16 
L 244.776531 375.640257 
L 228.332653 375.640257 
z
" clip-path="url(#p06e2c3e2ae)" style="fill: #ef4444"/>
   </g>
   <g id="patch_15">
    <path d="M 244.776531 387.16 
L 261.220408 387.16 
L 261.220408 387.16 
L 244.776531 387.16 
z
" clip-path="url(#p06e2c3e2ae)" style="fill: #ef4444"/>
   </g>
   <g id="patch_16">
    <path d="M 261.220408 387.16 
L 277.664286 387.16 
L 277.664286 387.16 
L 261.220408 387.16 
z
" clip-path="url(#p06e2c3e2ae)" style="fill: #ef4444"/>
   </g>
   <g id="patch_17">
    <path d="M 277.664286 387.16 
L 294.108163 387.16 
L 294.108163 375.640257 
L 277.664286 375.640257 
z
" clip-path="url(#p06e2c3e2ae)" style="fill: #ef4444"/>
   </g>
   <g id="patch_18">
    <path d="M 294.108163 387.16 
L 310.552041 387.16 
L 310.552041 352.60077 
L 294.108163 352.60077 
z
" clip-path="url(#p06e2c3e2ae)" style="fill: #ef4444"/>
   </g>
   <g id="patch_19">
    <path d="M 310.552041 387.16 
L 326.995918 387.16 
L 326.995918 341.081027 
L 310.552041 341.081027 
z
" clip-path="url(#p06e2c3e2ae)" style="fill: #ef4444"/>
   </g>
   <g id="patch_20">
    <path d="M 326.995918 387.16 
L 343.439796 387.16 
L 343.439796 352.60077 
L 326.995918 352.60077 
z
" clip-path="url(#p06e2c3e2ae)" style="fill: #ef4444"/>
   </g>
   <g id="patch_21">
    <path d="M 343.439796 387.16 
L 359.883673 387.16 
L 359.883673 352.60077 
L 343.439796 352.60077 
z
" clip-path="url(#p06e2c3e2ae)" style="fill: #ef4444"/>
   </g>
   <g id="patch_22">
    <path d="M 359.883673 387.16 
L 376.327551 387.16 
L 376.327551 318.041541 
L 359.883673 318.041541 
z
" clip-path="url(#p06e2c3e2ae)" style="fill: #ef4444"/>
   </g>
   <g id="patch_23">
    <path d="M 376.327551 387.16 
L 392.771429 387.16 
L 392.771429 283.482311 
L 376.327551 283.482311 
z
" clip-path="url(#p06e2c3e2ae)" style="fill: #ef4444"/>
   </g>
   <g id="patch_24">
    <path d="M 392.771429 387.16 
L 409.215306 387.16 
L 409.215306 318.041541 
L 392.771429 318.041541 
z
" clip-path="url(#p06e2c3e2ae)" style="fill: #ef4444"/>
   </g>
   <g id="patch_25">
    <path d="M 409.215306 387.16 
L 425.659184 387.16 
L 425.659184 306.521798 
L 409.215306 306.521798 
z
" clip-path="url(#p06e2c3e2ae)" style="fill: #ef4444"/>
   </g>
   <g id="patch_26">
    <path d="M 425.659184 387.16 
L 442.103061 387.16 
L 442.103061 318.041541 
L 425.659184 318.041541 
z
" clip-path="url(#p06e2c3e2ae)" style="fill: #ef4444"/>
   </g>
   <g id="patch_27">
    <path d="M 442.103061 387.16 
L 458.546939 387.16 
L 458.546939 352.60077 
L 442.103061 352.60077 
z
" clip-path="url(#p06e2c3e2ae)" style="fill: #ef4444"/>
   </g>
   <g id="patch_28">
    <path d="M 458.546939 387.16 
L 474.990816 387.16 
L 474.990816 306.521798 
L 458.546939 306.521798 
z
" clip-path="url(#p06e2c3e2ae)" style="fill: #ef4444"/>
   </g>
   <g id="patch_29">
    <path d="M 474.990816 387.16 
L 491.434694 387.16 
L 491.434694 283.482311 
L 474.990816 283.482311 
z
" clip-path="url(#p06e2c3e2ae)" style="fill: #ef4444"/>
   </g>
   <g id="patch_30">
    <path d="M 491.434694 387.16 
L 507.878571 387.16 
L 507.878571 306.521798 
L 491.434694 306.521798 
z
" clip-path="url(#p06e2c3e2ae)" style="fill: #ef4444"/>
   </g>
   <g id="patch_31">
    <path d="M 507.878571 387.16 
L 524.322449 387.16 
L 524.322449 237.403339 
L 507.878571 237.403339 
z
" clip-path="url(#p06e2c3e2ae)" style="fill: #ef4444"/>
   </g>
   <g id="patch_32">
    <path d="M 524.322449 387.16 
L 540.766327 387.16 
L 540.766327 295.002055 
L 524.322449 295.002055 
z
" clip-path="url(#p06e2c3e2ae)" style="fill: #ef4444"/>
   </g>
   <g id="patch_33">
    <path d="M 540.766327 387.16 
L 557.210204 387.16 
L 557.210204 295.002055 
L 540.766327 295.002055 
z
" clip-path="url(#p06e2c3e2ae)" style="fill: #ef4444"/>
   </g>
   <g id="patch_34">
    <path d="M 557.210204 387.16 
L 573.654082 387.16 
L 573.654082 352.60077 
L 557.210204 352.60077 
z
" clip-path="url(#p06e2c3e2ae)" style="fill: #ef4444"/>
   </g>
   <g id="patch_35">
    <path d="M 573.654082 387.16 
L 590.097959 387.16 
L 590.097959 306.521798 
L 573.654082 306.521798 
z
" clip-path="url(#p06e2c3e2ae)" style="fill: #ef4444"/>
   </g>
   <g id="patch_36">
    <path d="M 590.097959 387.16 
L 606.541837 387.16 
L 606.541837 341.081027 
L 590.097959 341.081027 
z
" clip-path="url(#p06e2c3e2ae)" style="fill: #ef4444"/>
   </g>
   <g id="patch_37">
    <path d="M 606.541837 387.16 
L 622.985714 387.16 
L 622.985714 352.60077 
L 606.541837 352.60077 
z
" clip-path="url(#p06e2c3e2ae)" style="fill: #ef4444"/>
   </g>
   <g id="patch_38">
    <path d="M 622.985714 387.16 
L 639.429592 387.16 
L 639.429592 364.120514 
L 622.985714 364.120514 
z
" clip-path="url(#p06e2c3e2ae)" style="fill: #ef4444"/>
   </g>
   <g id="patch_39">
    <path d="M 639.429592 387.16 
L 655.873469 387.16 
L 655.873469 387.16 
L 639.429592 387.16 
z
" clip-path="url(#p06e2c3e2ae)" style="fill: #ef4444"/>
   </g>
   <g id="patch_40">
    <path d="M 655.873469 387.16 
L 672.317347 387.16 
L 672.317347 387.16 
L 655.873469 387.16 
z
" clip-path="url(#p06e2c3e2ae)" style="fill: #ef4444"/>
   </g>
   <g id="patch_41">
    <path d="M 672.317347 387.16 
L 688.761224 387.16 
L 688.761224 387.16 
L 672.317347 387.16 
z
" clip-path="url(#p06e2c3e2ae)" style="fill: #ef4444"/>
   </g>
   <g id="patch_42">
    <path d="M 688.761224 387.16 
L 705.205102 387.16 
L 705.205102 364.120514 
L 688.761224 364.120514 
z
" clip-path="url(#p06e2c3e2ae)" style="fill: #ef4444"/>
   </g>
   <g id="patch_43">
    <path d="M 705.205102 387.16 
L 721.64898 387.16 
L 721.64898 352.60077 
L 705.205102 352.60077 
z
" clip-path="url(#p06e2c3e2ae)" style="fill: #ef4444"/>
   </g>
   <g id="patch_44">
    <path d="M 721.64898 387.16 
L 738.092857 387.16 
L 738.092857 341.081027 
L 721.64898 341.081027 
z
" clip-path="url(#p06e2c3e2ae)" style="fill: #ef4444"/>
   </g>
   <g id="patch_45">
    <path d="M 738.092857 387.16 
L 754.536735 387.16 
L 754.536735 341.081027 
L 738.092857 341.081027 
z
" clip-path="url(#p06e2c3e2ae)" style="fill: #ef4444"/>
   </g>
   <g id="patch_46">
    <path d="M 754.536735 387.16 
L 770.980612 387.16 
L 770.980612 318.041541 
L 754.536735 318.041541 
z
" clip-path="url(#p06e2c3e2ae)" style="fill: #ef4444"/>
   </g>
   <g id="patch_47">
    <path d="M 770.980612 387.16 
L 787.42449 387.16 
L 787.42449 341.081027 
L 770.980612 341.081027 
z
" clip-path="url(#p06e2c3e2ae)" style="fill: #ef4444"/>
   </g>
   <g id="patch_48">
    <path d="M 787.42449 387.16 
L 803.868367 387.16 
L 803.868367 352.60077 
L 787.42449 352.60077 
z
" clip-path="url(#p06e2c3e2ae)" style="fill: #ef4444"/>
   </g>
   <g id="patch_49">
    <path d="M 803.868367 387.16 
L 820.312245 387.16 
L 820.312245 352.60077 
L 803.868367 352.60077 
z
" clip-path="url(#p06e2c3e2ae)" style="fill: #ef4444"/>
   </g>
   <g id="patch_50">
    <path d="M 820.312245 387.16 
L 836.756122 387.16 
L 836.756122 387.16 
L 820.312245 387.16 
z
" clip-path="url(#p06e2c3e2ae)" style="fill: #ef4444"/>
   </g>
   <g id="patch_51">
    <path d="M 47.45 364.120514 
L 63.893878 364.120514 
L 63.893878 248.923082 
L 47.45 248.923082 
z
" clip-path="url(#p06e2c3e2ae)" style="fill: #3b82f6"/>
   </g>
   <g id="patch_52">
    <path d="M 63.893878 352.60077 
L 80.337755 352.60077 
L 80.337755 229.72351 
L 63.893878 229.72351 
z
" clip-path="url(#p06e2c3e2ae)" style="fill: #3b82f6"/>
   </g>
   <g id="patch_53">
    <path d="M 80.337755 260.442825 
L 96.781633 260.442825 
L 96.781633 160.605051 
L 80.337755 160.605051 
z
" clip-path="url(#p06e2c3e2ae)" style="fill: #3b82f6"/>
   </g>
   <g id="patch_54">
    <path d="M 96.781633 329.561284 
L 113.22551 329.561284 
L 113.22551 245.083167 
L 96.781633 245.083167 
z
" clip-path="url(#p06e2c3e2ae)" style="fill: #3b82f6"/>
   </g>
   <g id="patch_55">
    <path d="M 113.22551 295.002055 
L 129.669388 295.002055 
L 129.669388 156.765136 
L 113.22551 156.765136 
z
" clip-path="url(#p06e2c3e2ae)" style="fill: #3b82f6"/>
   </g>
   <g id="patch_56">
    <path d="M 129.669388 306.521798 
L 146.113265 306.521798 
L 146.113265 222.043681 
L 129.669388 222.043681 
z
" clip-path="url(#p06e2c3e2ae)" style="fill: #3b82f6"/>
   </g>
   <g id="patch_57">
    <path d="M 146.113265 306.521798 
L 162.557143 306.521798 
L 162.557143 183.644537 
L 146.113265 183.644537 
z
" clip-path="url(#p06e2c3e2ae)" style="fill: #3b82f6"/>
   </g>
   <g id="patch_58">
    <path d="M 162.557143 306.521798 
L 179.00102 306.521798 
L 179.00102 222.043681 
L 162.557143 222.043681 
z
" clip-path="url(#p06e2c3e2ae)" style="fill: #3b82f6"/>
   </g>
   <g id="patch_59">
    <path d="M 179.00102 318.041541 
L 195.444898 318.041541 
L 195.444898 202.844109 
L 179.00102 202.844109 
z
" clip-path="url(#p06e2c3e2ae)" style="fill: #3b82f6"/>
   </g>
   <g id="patch_60">
    <path d="M 195.444898 364.120514 
L 211.888776 364.120514 
L 211.888776 256.602911 
L 195.444898 256.602911 
z
" clip-path="url(#p06e2c3e2ae)" style="fill: #3b82f6"/>
   </g>
   <g id="patch_61">
    <path d="M 211.888776 375.640257 
L 228.332653 375.640257 
L 228.332653 321.881455 
L 211.888776 321.881455 
z
" clip-path="url(#p06e2c3e2ae)" style="fill: #3b82f6"/>
   </g>
   <g id="patch_62">
    <path d="M 228.332653 375.640257 
L 244.776531 375.640257 
L 244.776531 321.881455 
L 228.332653 321.881455 
z
" clip-path="url(#p06e2c3e2ae)" style="fill: #3b82f6"/>
   </g>
   <g id="patch_63">
    <path d="M 244.776531 387.16 
L 261.220408 387.16 
L 261.220408 387.16 
L 244.776531 387.16 
z
" clip-path="url(#p06e2c3e2ae)" style="fill: #3b82f6"/>
   </g>
   <g id="patch_64">
    <path d="M 261.220408 387.16 
L 277.664286 387.16 
L 277.664286 371.800342 
L 261.220408 371.800342 
z
" clip-path="url(#p06e2c3e2ae)" style="fill: #3b82f6"/>
   </g>
   <g id="patch_65">
    <path d="M 277.664286 375.640257 
L 294.108163 375.640257 
L 294.108163 367.960428 
L 277.664286 367.960428 
z
" clip-path="url(#p06e2c3e2ae)" style="fill: #3b82f6"/>
   </g>
   <g id="patch_66">
    <path d="M 294.108163 352.60077 
L 310.552041 352.60077 
L 310.552041 306.521798 
L 294.108163 306.521798 
z
" clip-path="url(#p06e2c3e2ae)" style="fill: #3b82f6"/>
   </g>
   <g id="patch_67">
    <path d="M 310.552041 341.081027 
L 326.995918 341.081027 
L 326.995918 295.002055 
L 310.552041 295.002055 
z
" clip-path="url(#p06e2c3e2ae)" style="fill: #3b82f6"/>
   </g>
   <g id="patch_68">
    <path d="M 326.995918 352.60077 
L 343.439796 352.60077 
L 343.439796 222.043681 
L 326.995918 222.043681 
z
" clip-path="url(#p06e2c3e2ae)" style="fill: #3b82f6"/>
   </g>
   <g id="patch_69">
    <path d="M 343.439796 352.60077 
L 359.883673 352.60077 
L 359.883673 214.363852 
L 343.439796 214.363852 
z
" clip-path="url(#p06e2c3e2ae)" style="fill: #3b82f6"/>
   </g>
   <g id="patch_70">
    <path d="M 359.883673 318.041541 
L 376.327551 318.041541 
L 376.327551 179.804623 
L 359.883673 179.804623 
z
" clip-path="url(#p06e2c3e2ae)" style="fill: #3b82f6"/>
   </g>
   <g id="patch_71">
    <path d="M 376.327551 283.482311 
L 392.771429 283.482311 
L 392.771429 152.925222 
L 376.327551 152.925222 
z
" clip-path="url(#p06e2c3e2ae)" style="fill: #3b82f6"/>
   </g>
   <g id="patch_72">
    <path d="M 392.771429 318.041541 
L 409.215306 318.041541 
L 409.215306 195.16428 
L 392.771429 195.16428 
z
" clip-path="url(#p06e2c3e2ae)" style="fill: #3b82f6"/>
   </g>
   <g id="patch_73">
    <path d="M 409.215306 306.521798 
L 425.659184 306.521798 
L 425.659184 252.762996 
L 409.215306 252.762996 
z
" clip-path="url(#p06e2c3e2ae)" style="fill: #3b82f6"/>
   </g>
   <g id="patch_74">
    <path d="M 425.659184 318.041541 
L 442.103061 318.041541 
L 442.103061 179.804623 
L 425.659184 179.804623 
z
" clip-path="url(#p06e2c3e2ae)" style="fill: #3b82f6"/>
   </g>
   <g id="patch_75">
    <path d="M 442.103061 352.60077 
L 458.546939 352.60077 
L 458.546939 206.684024 
L 442.103061 206.684024 
z
" clip-path="url(#p06e2c3e2ae)" style="fill: #3b82f6"/>
   </g>
   <g id="patch_76">
    <path d="M 458.546939 306.521798 
L 474.990816 306.521798 
L 474.990816 168.28488 
L 458.546939 168.28488 
z
" clip-path="url(#p06e2c3e2ae)" style="fill: #3b82f6"/>
   </g>
   <g id="patch_77">
    <path d="M 474.990816 283.482311 
L 491.434694 283.482311 
L 491.434694 191.324366 
L 474.990816 191.324366 
z
" clip-path="url(#p06e2c3e2ae)" style="fill: #3b82f6"/>
   </g>
   <g id="patch_78">
    <path d="M 491.434694 306.521798 
L 507.878571 306.521798 
L 507.878571 214.363852 
L 491.434694 214.363852 
z
" clip-path="url(#p06e2c3e2ae)" style="fill: #3b82f6"/>
   </g>
   <g id="patch_79">
    <path d="M 507.878571 237.403339 
L 524.322449 237.403339 
L 524.322449 83.806763 
L 507.878571 83.806763 
z
" clip-path="url(#p06e2c3e2ae)" style="fill: #3b82f6"/>
   </g>
   <g id="patch_80">
    <path d="M 524.322449 295.002055 
L 540.766327 295.002055 
L 540.766327 202.844109 
L 524.322449 202.844109 
z
" clip-path="url(#p06e2c3e2ae)" style="fill: #3b82f6"/>
   </g>
   <g id="patch_81">
    <path d="M 540.766327 295.002055 
L 557.210204 295.002055 
L 557.210204 164.444965 
L 540.766327 164.444965 
z
" clip-path="url(#p06e2c3e2ae)" style="fill: #3b82f6"/>
   </g>
   <g id="patch_82">
    <path d="M 557.210204 352.60077 
L 573.654082 352.60077 
L 573.654082 252.762996 
L 557.210204 252.762996 
z
" clip-path="url(#p06e2c3e2ae)" style="fill: #3b82f6"/>
   </g>
   <g id="patch_83">
    <path d="M 573.654082 306.521798 
L 590.097959 306.521798 
L 590.097959 214.363852 
L 573.654082 214.363852 
z
" clip-path="url(#p06e2c3e2ae)" style="fill: #3b82f6"/>
   </g>
   <g id="patch_84">
    <path d="M 590.097959 341.081027 
L 606.541837 341.081027 
L 606.541837 225.883596 
L 590.097959 225.883596 
z
" clip-path="url(#p06e2c3e2ae)" style="fill: #3b82f6"/>
   </g>
   <g id="patch_85">
    <path d="M 606.541837 352.60077 
L 622.985714 352.60077 
L 622.985714 291.16214 
L 606.541837 291.16214 
z
" clip-path="url(#p06e2c3e2ae)" style="fill: #3b82f6"/>
   </g>
   <g id="patch_86">
    <path d="M 622.985714 364.120514 
L 639.429592 364.120514 
L 639.429592 325.72137 
L 622.985714 325.72137 
z
" clip-path="url(#p06e2c3e2ae)" style="fill: #3b82f6"/>
   </g>
   <g id="patch_87">
    <path d="M 639.429592 387.16 
L 655.873469 387.16 
L 655.873469 371.800342 
L 639.429592 371.800342 
z
" clip-path="url(#p06e2c3e2ae)" style="fill: #3b82f6"/>
   </g>
   <g id="patch_88">
    <path d="M 655.873469 387.16 
L 672.317347 387.16 
L 672.317347 356.440685 
L 655.873469 356.440685 
z
" clip-path="url(#p06e2c3e2ae)" style="fill: #3b82f6"/>
   </g>
   <g id="patch_89">
    <path d="M 672.317347 387.16 
L 688.761224 387.16 
L 688.761224 356.440685 
L 672.317347 356.440685 
z
" clip-path="url(#p06e2c3e2ae)" style="fill: #3b82f6"/>
   </g>
   <g id="patch_90">
    <path d="M 688.761224 364.120514 
L 705.205102 364.120514 
L 705.205102 310.361712 
L 688.761224 310.361712 
z
" clip-path="url(#p06e2c3e2ae)" style="fill: #3b82f6"/>
   </g>
   <g id="patch_91">
    <path d="M 705.205102 352.60077 
L 721.64898 352.60077 
L 721.64898 291.16214 
L 705.205102 291.16214 
z
" clip-path="url(#p06e2c3e2ae)" style="fill: #3b82f6"/>
   </g>
   <g id="patch_92">
    <path d="M 721.64898 341.081027 
L 738.092857 341.081027 
L 738.092857 256.602911 
L 721.64898 256.602911 
z
" clip-path="url(#p06e2c3e2ae)" style="fill: #3b82f6"/>
   </g>
   <g id="patch_93">
    <path d="M 738.092857 341.081027 
L 754.536735 341.081027 
L 754.536735 187.484452 
L 738.092857 187.484452 
z
" clip-path="url(#p06e2c3e2ae)" style="fill: #3b82f6"/>
   </g>
   <g id="patch_94">
    <path d="M 754.536735 318.041541 
L 770.980612 318.041541 
L 770.980612 164.444965 
L 754.536735 164.444965 
z
" clip-path="url(#p06e2c3e2ae)" style="fill: #3b82f6"/>
   </g>
   <g id="patch_95">
    <path d="M 770.980612 341.081027 
L 787.42449 341.081027 
L 787.42449 271.962568 
L 770.980612 271.962568 
z
" clip-path="url(#p06e2c3e2ae)" style="fill: #3b82f6"/>
   </g>
   <g id="patch_96">
    <path d="M 787.42449 352.60077 
L 803.868367 352.60077 
L 803.868367 191.324366 
L 787.42449 191.324366 
z
" clip-path="url(#p06e2c3e2ae)" style="fill: #3b82f6"/>
   </g>
   <g id="patch_97">
    <path d="M 803.868367 352.60077 
L 820.312245 352.60077 
L 820.312245 260.442825 
L 803.868367 260.442825 
z
" clip-path="url(#p06e2c3e2ae)" style="fill: #3b82f6"/>
   </g>
   <g id="patch_98">
    <path d="M 820.312245 387.16 
L 836.756122 387.16 
L 836.756122 256.602911 
L 820.312245 256.602911 
z
" clip-path="url(#p06e2c3e2ae)" style="fill: #3b82f6"/>
   </g>
   <g id="patch_99">
    <path d="M 47.45 248.923082 
L 63.893878 248.923082 
L 63.893878 229.72351 
L 47.45 229.72351 
z
" clip-path="url(#p06e2c3e2ae)" style="fill: #22c55e"/>
   </g>
   <g id="patch_100">
    <path d="M 63.893878 229.72351 
L 80.337755 229.72351 
L 80.337755 206.684024 
L 63.893878 206.684024 
z
" clip-path="url(#p06e2c3e2ae)" style="fill: #22c55e"/>
   </g>
   <g id="patch_101">
    <path d="M 80.337755 160.605051 
L 96.781633 160.605051 
L 96.781633 141.405479 
L 80.337755 141.405479 
z
" clip-path="url(#p06e2c3e2ae)" style="fill: #22c55e"/>
   </g>
   <g id="patch_102">
    <path d="M 96.781633 245.083167 
L 113.22551 245.083167 
L 113.22551 195.16428 
L 96.781633 195.16428 
z
" clip-path="url(#p06e2c3e2ae)" style="fill: #22c55e"/>
   </g>
   <g id="patch_103">
    <path d="M 113.22551 156.765136 
L 129.669388 156.765136 
L 129.669388 137.565564 
L 113.22551 137.565564 
z
" clip-path="url(#p06e2c3e2ae)" style="fill: #22c55e"/>
   </g>
   <g id="patch_104">
    <path d="M 129.669388 222.043681 
L 146.113265 222.043681 
L 146.113265 199.004195 
L 129.669388 199.004195 
z
" clip-path="url(#p06e2c3e2ae)" style="fill: #22c55e"/>
   </g>
   <g id="patch_105">
    <path d="M 146.113265 183.644537 
L 162.557143 183.644537 
L 162.557143 160.605051 
L 146.113265 160.605051 
z
" clip-path="url(#p06e2c3e2ae)" style="fill: #22c55e"/>
   </g>
   <g id="patch_106">
    <path d="M 162.557143 222.043681 
L 179.00102 222.043681 
L 179.00102 156.765136 
L 162.557143 156.765136 
z
" clip-path="url(#p06e2c3e2ae)" style="fill: #22c55e"/>
   </g>
   <g id="patch_107">
    <path d="M 179.00102 202.844109 
L 195.444898 202.844109 
L 195.444898 164.444965 
L 179.00102 164.444965 
z
" clip-path="url(#p06e2c3e2ae)" style="fill: #22c55e"/>
   </g>
   <g id="patch_108">
    <path d="M 195.444898 256.602911 
L 211.888776 256.602911 
L 211.888776 237.403339 
L 195.444898 237.403339 
z
" clip-path="url(#p06e2c3e2ae)" style="fill: #22c55e"/>
   </g>
   <g id="patch_109">
    <path d="M 211.888776 321.881455 
L 228.332653 321.881455 
L 228.332653 298.841969 
L 211.888776 298.841969 
z
" clip-path="url(#p06e2c3e2ae)" style="fill: #22c55e"/>
   </g>
   <g id="patch_110">
    <path d="M 228.332653 321.881455 
L 244.776531 321.881455 
L 244.776531 310.361712 
L 228.332653 310.361712 
z
" clip-path="url(#p06e2c3e2ae)" style="fill: #22c55e"/>
   </g>
   <g id="patch_111">
    <path d="M 244.776531 387.16 
L 261.220408 387.16 
L 261.220408 383.320086 
L 244.776531 383.320086 
z
" clip-path="url(#p06e2c3e2ae)" style="fill: #22c55e"/>
   </g>
   <g id="patch_112">
    <path d="M 261.220408 371.800342 
L 277.664286 371.800342 
L 277.664286 367.960428 
L 261.220408 367.960428 
z
" clip-path="url(#p06e2c3e2ae)" style="fill: #22c55e"/>
   </g>
   <g id="patch_113">
    <path d="M 277.664286 367.960428 
L 294.108163 367.960428 
L 294.108163 364.120514 
L 277.664286 364.120514 
z
" clip-path="url(#p06e2c3e2ae)" style="fill: #22c55e"/>
   </g>
   <g id="patch_114">
    <path d="M 294.108163 306.521798 
L 310.552041 306.521798 
L 310.552041 298.841969 
L 294.108163 298.841969 
z
" clip-path="url(#p06e2c3e2ae)" style="fill: #22c55e"/>
   </g>
   <g id="patch_115">
    <path d="M 310.552041 295.002055 
L 326.995918 295.002055 
L 326.995918 283.482311 
L 310.552041 283.482311 
z
" clip-path="url(#p06e2c3e2ae)" style="fill: #22c55e"/>
   </g>
   <g id="patch_116">
    <path d="M 326.995918 222.043681 
L 343.439796 222.043681 
L 343.439796 156.765136 
L 326.995918 156.765136 
z
" clip-path="url(#p06e2c3e2ae)" style="fill: #22c55e"/>
   </g>
   <g id="patch_117">
    <path d="M 343.439796 214.363852 
L 359.883673 214.363852 
L 359.883673 168.28488 
L 343.439796 168.28488 
z
" clip-path="url(#p06e2c3e2ae)" style="fill: #22c55e"/>
   </g>
   <g id="patch_118">
    <path d="M 359.883673 179.804623 
L 376.327551 179.804623 
L 376.327551 114.526078 
L 359.883673 114.526078 
z
" clip-path="url(#p06e2c3e2ae)" style="fill: #22c55e"/>
   </g>
   <g id="patch_119">
    <path d="M 376.327551 152.925222 
L 392.771429 152.925222 
L 392.771429 99.166421 
L 376.327551 99.166421 
z
" clip-path="url(#p06e2c3e2ae)" style="fill: #22c55e"/>
   </g>
   <g id="patch_120">
    <path d="M 392.771429 195.16428 
L 409.215306 195.16428 
L 409.215306 137.565564 
L 392.771429 137.565564 
z
" clip-path="url(#p06e2c3e2ae)" style="fill: #22c55e"/>
   </g>
   <g id="patch_121">
    <path d="M 409.215306 252.762996 
L 425.659184 252.762996 
L 425.659184 218.203767 
L 409.215306 218.203767 
z
" clip-path="url(#p06e2c3e2ae)" style="fill: #22c55e"/>
   </g>
   <g id="patch_122">
    <path d="M 425.659184 179.804623 
L 442.103061 179.804623 
L 442.103061 87.646677 
L 425.659184 87.646677 
z
" clip-path="url(#p06e2c3e2ae)" style="fill: #22c55e"/>
   </g>
   <g id="patch_123">
    <path d="M 442.103061 206.684024 
L 458.546939 206.684024 
L 458.546939 187.484452 
L 442.103061 187.484452 
z
" clip-path="url(#p06e2c3e2ae)" style="fill: #22c55e"/>
   </g>
   <g id="patch_124">
    <path d="M 458.546939 168.28488 
L 474.990816 168.28488 
L 474.990816 122.205907 
L 458.546939 122.205907 
z
" clip-path="url(#p06e2c3e2ae)" style="fill: #22c55e"/>
   </g>
   <g id="patch_125">
    <path d="M 474.990816 191.324366 
L 491.434694 191.324366 
L 491.434694 129.885736 
L 474.990816 129.885736 
z
" clip-path="url(#p06e2c3e2ae)" style="fill: #22c55e"/>
   </g>
   <g id="patch_126">
    <path d="M 491.434694 214.363852 
L 507.878571 214.363852 
L 507.878571 160.605051 
L 491.434694 160.605051 
z
" clip-path="url(#p06e2c3e2ae)" style="fill: #22c55e"/>
   </g>
   <g id="patch_127">
    <path d="M 507.878571 83.806763 
L 524.322449 83.806763 
L 524.322449 45.407619 
L 507.878571 45.407619 
z
" clip-path="url(#p06e2c3e2ae)" style="fill: #22c55e"/>
   </g>
   <g id="patch_128">
    <path d="M 524.322449 202.844109 
L 540.766327 202.844109 
L 540.766327 172.124794 
L 524.322449 172.124794 
z
" clip-path="url(#p06e2c3e2ae)" style="fill: #22c55e"/>
   </g>
   <g id="patch_129">
    <path d="M 540.766327 164.444965 
L 557.210204 164.444965 
L 557.210204 103.006335 
L 540.766327 103.006335 
z
" clip-path="url(#p06e2c3e2ae)" style="fill: #22c55e"/>
   </g>
   <g id="patch_130">
    <path d="M 557.210204 252.762996 
L 573.654082 252.762996 
L 573.654082 199.004195 
L 557.210204 199.004195 
z
" clip-path="url(#p06e2c3e2ae)" style="fill: #22c55e"/>
   </g>
   <g id="patch_131">
    <path d="M 573.654082 214.363852 
L 590.097959 214.363852 
L 590.097959 156.765136 
L 573.654082 156.765136 
z
" clip-path="url(#p06e2c3e2ae)" style="fill: #22c55e"/>
   </g>
   <g id="patch_132">
    <path d="M 590.097959 225.883596 
L 606.541837 225.883596 
L 606.541837 164.444965 
L 590.097959 164.444965 
z
" clip-path="url(#p06e2c3e2ae)" style="fill: #22c55e"/>
   </g>
   <g id="patch_133">
    <path d="M 606.541837 291.16214 
L 622.985714 291.16214 
L 622.985714 256.602911 
L 606.541837 256.602911 
z
" clip-path="url(#p06e2c3e2ae)" style="fill: #22c55e"/>
   </g>
   <g id="patch_134">
    <path d="M 622.985714 325.72137 
L 639.429592 325.72137 
L 639.429592 283.482311 
L 622.985714 283.482311 
z
" clip-path="url(#p06e2c3e2ae)" style="fill: #22c55e"/>
   </g>
   <g id="patch_135">
    <path d="M 639.429592 371.800342 
L 655.873469 371.800342 
L 655.873469 356.440685 
L 639.429592 356.440685 
z
" clip-path="url(#p06e2c3e2ae)" style="fill: #22c55e"/>
   </g>
   <g id="patch_136">
    <path d="M 655.873469 356.440685 
L 672.317347 356.440685 
L 672.317347 344.920942 
L 655.873469 344.920942 
z
" clip-path="url(#p06e2c3e2ae)" style="fill: #22c55e"/>
   </g>
   <g id="patch_137">
    <path d="M 672.317347 356.440685 
L 688.761224 356.440685 
L 688.761224 314.201627 
L 672.317347 314.201627 
z
" clip-path="url(#p06e2c3e2ae)" style="fill: #22c55e"/>
   </g>
   <g id="patch_138">
    <path d="M 688.761224 310.361712 
L 705.205102 310.361712 
L 705.205102 279.642397 
L 688.761224 279.642397 
z
" clip-path="url(#p06e2c3e2ae)" style="fill: #22c55e"/>
   </g>
   <g id="patch_139">
    <path d="M 705.205102 291.16214 
L 721.64898 291.16214 
L 721.64898 256.602911 
L 705.205102 256.602911 
z
" clip-path="url(#p06e2c3e2ae)" style="fill: #22c55e"/>
   </g>
   <g id="patch_140">
    <path d="M 721.64898 256.602911 
L 738.092857 256.602911 
L 738.092857 214.363852 
L 721.64898 214.363852 
z
" clip-path="url(#p06e2c3e2ae)" style="fill: #22c55e"/>
   </g>
   <g id="patch_141">
    <path d="M 738.092857 187.484452 
L 754.536735 187.484452 
L 754.536735 156.765136 
L 738.092857 156.765136 
z
" clip-path="url(#p06e2c3e2ae)" style="fill: #22c55e"/>
   </g>
   <g id="patch_142">
    <path d="M 754.536735 164.444965 
L 770.980612 164.444965 
L 770.980612 129.885736 
L 754.536735 129.885736 
z
" clip-path="url(#p06e2c3e2ae)" style="fill: #22c55e"/>
   </g>
   <g id="patch_143">
    <path d="M 770.980612 271.962568 
L 787.42449 271.962568 
L 787.42449 218.203767 
L 770.980612 218.203767 
z
" clip-path="url(#p06e2c3e2ae)" style="fill: #22c55e"/>
   </g>
   <g id="patch_144">
    <path d="M 787.42449 191.324366 
L 803.868367 191.324366 
L 803.868367 118.365993 
L 787.42449 118.365993 
z
" clip-path="url(#p06e2c3e2ae)" style="fill: #22c55e"/>
   </g>
   <g id="patch_145">
    <path d="M 803.868367 260.442825 
L 820.312245 260.442825 
L 820.312245 199.004195 
L 803.868367 199.004195 
z
" clip-path="url(#p06e2c3e2ae)" style="fill: #22c55e"/>
   </g>
   <g id="patch_146">
    <path d="M 820.312245 256.602911 
L 836.756122 256.602911 
L 836.756122 126.045821 
L 820.312245 126.045821 
z
" clip-path="url(#p06e2c3e2ae)" style="fill: #22c55e"/>
   </g>
   <g id="matplotlib.axis_1">
    <g id="xtick_1">
     <g id="line2d_1">
      <defs>
       <path id="m26bb573854" d="M 0 0 
L 0 3.5 
" style="stroke: #000000; stroke-width: 0.8"/>
      </defs>
      <g>
       <use xlink:href="#m26bb573854" x="55.671939" y="387.16" style="stroke: #000000; stroke-width: 0.8"/>
      </g>
     </g>
     <g id="text_1">
      <!-- 0 -->
      <g transform="translate(52.490689 401.758438) scale(0.1 -0.1)">
       <defs>
        <path id="DejaVuSans-30" d="M 2034 4250 
Q 1547 4250 1301 3770 
Q 1056 3291 1056 2328 
Q 1056 1369 1301 889 
Q 1547 409 2034 409 
Q 2525 409 2770 889 
Q 3016 1369 3016 2328 
Q 3016 3291 2770 3770 
Q 2525 4250 2034 4250 
z
M 2034 4750 
Q 2819 4750 3233 4129 
Q 3647 3509 3647 2328 
Q 3647 1150 3233 529 
Q 2819 -91 2034 -91 
Q 1250 -91 836 529 
Q 422 1150 422 2328 
Q 422 3509 836 4129 
Q 1250 4750 2034 4750 
z
" transform="scale(0.015625)"/>
       </defs>
       <use xlink:href="#DejaVuSans-30"/>
      </g>
     </g>
    </g>
    <g id="xtick_2">
     <g id="line2d_2">
      <g>
       <use xlink:href="#m26bb573854" x="154.335204" y="387.16" style="stroke: #000000; stroke-width: 0.8"/>
      </g>
     </g>
     <g id="text_2">
      <!-- 6 -->
      <g transform="translate(151.153954 401.758438) scale(0.1 -0.1)">
       <defs>
        <path id="DejaVuSans-36" d="M 2113 2584 
Q 1688 2584 1439 2293 
Q 1191 2003 1191 1497 
Q 1191 994 1439 701 
Q 1688 409 2113 409 
Q 2538 409 2786 701 
Q 3034 994 3034 1497 
Q 3034 2003 2786 2293 
Q 2538 2584 2113 2584 
z
M 3366 4563 
L 3366 3988 
Q 3128 4100 2886 4159 
Q 2644 4219 2406 4219 
Q 1781 4219 1451 3797 
Q 1122 3375 1075 2522 
Q 1259 2794 1537 2939 
Q 1816 3084 2150 3084 
Q 2853 3084 3261 2657 
Q 3669 2231 3669 1497 
Q 3669 778 3244 343 
Q 2819 -91 2113 -91 
Q 1303 -91 875 529 
Q 447 1150 447 2328 
Q 447 3434 972 4092 
Q 1497 4750 2381 4750 
Q 2619 4750 2861 4703 
Q 3103 4656 3366 4563 
z
" transform="scale(0.015625)"/>
       </defs>
       <use xlink:href="#DejaVuSans-36"/>
      </g>
     </g>
    </g>
    <g id="xtick_3">
     <g id="line2d_3">
      <g>
       <use xlink:href="#m26bb573854" x="252.998469" y="387.16" style="stroke: #000000; stroke-width: 0.8"/>
      </g>
     </g>
     <g id="text_3">
      <!-- 12 -->
      <g transform="translate(246.635969 401.758438) scale(0.1 -0.1)">
       <defs>
        <path id="DejaVuSans-31" d="M 794 531 
L 1825 531 
L 1825 4091 
L 703 3866 
L 703 4441 
L 1819 4666 
L 2450 4666 
L 2450 531 
L 3481 531 
L 3481 0 
L 794 0 
L 794 531 
z
" transform="scale(0.015625)"/>
        <path id="DejaVuSans-32" d="M 1228 531 
L 3431 531 
L 3431 0 
L 469 0 
L 469 531 
Q 828 903 1448 1529 
Q 2069 2156 2228 2338 
Q 2531 2678 2651 2914 
Q 2772 3150 2772 3378 
Q 2772 3750 2511 3984 
Q 2250 4219 1831 4219 
Q 1534 4219 1204 4116 
Q 875 4013 500 3803 
L 500 4441 
Q 881 4594 1212 4672 
Q 1544 4750 1819 4750 
Q 2544 4750 2975 4387 
Q 3406 4025 3406 3419 
Q 3406 3131 3298 2873 
Q 3191 2616 2906 2266 
Q 2828 2175 2409 1742 
Q 1991 1309 1228 531 
z
" transform="scale(0.015625)"/>
       </defs>
       <use xlink:href="#DejaVuSans-31"/>
       <use xlink:href="#DejaVuSans-32" transform="translate(63.623047 0)"/>
      </g>
     </g>
    </g>
    <g id="xtick_4">
     <g id="line2d_4">
      <g>
       <use xlink:href="#m26bb573854" x="351.661735" y="387.16" style="stroke: #000000; stroke-width: 0.8"/>
      </g>
     </g>
     <g id="text_4">
      <!-- 18 -->
      <g transform="translate(345.299235 401.758438) scale(0.1 -0.1)">
       <defs>
        <path id="DejaVuSans-38" d="M 2034 2216 
Q 1584 2216 1326 1975 
Q 1069 1734 1069 1313 
Q 1069 891 1326 650 
Q 1584 409 2034 409 
Q 2484 409 2743 651 
Q 3003 894 3003 1313 
Q 3003 1734 2745 1975 
Q 2488 2216 2034 2216 
z
M 1403 2484 
Q 997 2584 770 2862 
Q 544 3141 544 3541 
Q 544 4100 942 4425 
Q 1341 4750 2034 4750 
Q 2731 4750 3128 4425 
Q 3525 4100 3525 3541 
Q 3525 3141 3298 2862 
Q 3072 2584 2669 2484 
Q 3125 2378 3379 2068 
Q 3634 1759 3634 1313 
Q 3634 634 3220 271 
Q 2806 -91 2034 -91 
Q 1263 -91 848 271 
Q 434 634 434 1313 
Q 434 1759 690 2068 
Q 947 2378 1403 2484 
z
M 1172 3481 
Q 1172 3119 1398 2916 
Q 1625 2713 2034 2713 
Q 2441 2713 2670 2916 
Q 2900 3119 2900 3481 
Q 2900 3844 2670 4047 
Q 2441 4250 2034 4250 
Q 1625 4250 1398 4047 
Q 1172 3844 1172 3481 
z
" transform="scale(0.015625)"/>
       </defs>
       <use xlink:href="#DejaVuSans-31"/>
       <use xlink:href="#DejaVuSans-38" transform="translate(63.623047 0)"/>
      </g>
     </g>
    </g>
    <g id="xtick_5">
     <g id="line2d_5">
      <g>
       <use xlink:href="#m26bb573854" x="450.325" y="387.16" style="stroke: #000000; stroke-width: 0.8"/>
      </g>
     </g>
     <g id="text_5">
      <!-- 24 -->
      <g transform="translate(443.9625 401.758438) scale(0.1 -0.1)">
       <defs>
        <path id="DejaVuSans-34" d="M 2419 4116 
L 825 1625 
L 2419 1625 
L 2419 4116 
z
M 2253 4666 
L 3047 4666 
L 3047 1625 
L 3713 1625 
L 3713 1100 
L 3047 1100 
L 3047 0 
L 2419 0 
L 2419 1100 
L 313 1100 
L 313 1709 
L 2253 4666 
z
" transform="scale(0.015625)"/>
       </defs>
       <use xlink:href="#DejaVuSans-32"/>
       <use xlink:href="#DejaVuSans-34" transform="translate(63.623047 0)"/>
      </g>
     </g>
    </g>
    <g id="xtick_6">
     <g id="line2d_6">
      <g>
       <use xlink:href="#m26bb573854" x="548.988265" y="387.16" style="stroke: #000000; stroke-width: 0.8"/>
      </g>
     </g>
     <g id="text_6">
      <!-- 30 -->
      <g transform="translate(542.625765 401.758438) scale(0.1 -0.1)">
       <defs>
        <path id="DejaVuSans-33" d="M 2597 2516 
Q 3050 2419 3304 2112 
Q 3559 1806 3559 1356 
Q 3559 666 3084 287 
Q 2609 -91 1734 -91 
Q 1441 -91 1130 -33 
Q 819 25 488 141 
L 488 750 
Q 750 597 1062 519 
Q 1375 441 1716 441 
Q 2309 441 2620 675 
Q 2931 909 2931 1356 
Q 2931 1769 2642 2001 
Q 2353 2234 1838 2234 
L 1294 2234 
L 1294 2753 
L 1863 2753 
Q 2328 2753 2575 2939 
Q 2822 3125 2822 3475 
Q 2822 3834 2567 4026 
Q 2313 4219 1838 4219 
Q 1578 4219 1281 4162 
Q 984 4106 628 3988 
L 628 4550 
Q 988 4650 1302 4700 
Q 1616 4750 1894 4750 
Q 2613 4750 3031 4423 
Q 3450 4097 3450 3541 
Q 3450 3153 3228 2886 
Q 3006 2619 2597 2516 
z
" transform="scale(0.015625)"/>
       </defs>
       <use xlink:href="#DejaVuSans-33"/>
       <use xlink:href="#DejaVuSans-30" transform="translate(63.623047 0)"/>
      </g>
     </g>
    </g>
    <g id="xtick_7">
     <g id="line2d_7">
      <g>
       <use xlink:href="#m26bb573854" x="647.651531" y="387.16" style="stroke: #000000; stroke-width: 0.8"/>
      </g>
     </g>
     <g id="text_7">
      <!-- 36 -->
      <g transform="translate(641.289031 401.758438) scale(0.1 -0.1)">
       <use xlink:href="#DejaVuSans-33"/>
       <use xlink:href="#DejaVuSans-36" transform="translate(63.623047 0)"/>
      </g>
     </g>
    </g>
    <g id="xtick_8">
     <g id="line2d_8">
      <g>
       <use xlink:href="#m26bb573854" x="746.314796" y="387.16" style="stroke: #000000; stroke-width: 0.8"/>
      </g>
     </g>
     <g id="text_8">
      <!-- 42 -->
      <g transform="translate(739.952296 401.758438) scale(0.1 -0.1)">
       <use xlink:href="#DejaVuSans-34"/>
       <use xlink:href="#DejaVuSans-32" transform="translate(63.623047 0)"/>
      </g>
     </g>
    </g>
    <g id="xtick_9">
     <g id="line2d_9">
      <g>
       <use xlink:href="#m26bb573854" x="844.978061" y="387.16" style="stroke: #000000; stroke-width: 0.8"/>
      </g>
     </g>
     <g id="text_9">
      <!-- 48 -->
      <g transform="translate(838.615561 401.758438) scale(0.1 -0.1)">
       <use xlink:href="#DejaVuSans-34"/>
       <use xlink:href="#DejaVuSans-38" transform="translate(63.623047 0)"/>
      </g>
     </g>
    </g>
    <g id="text_10">
     <!-- Game Minute -->
     <g transform="translate(410.063125 416.95625) scale(0.12 -0.12)">
      <defs>
       <path id="DejaVuSans-47" d="M 3809 666 
L 3809 1919 
L 2778 1919 
L 2778 2438 
L 4434 2438 
L 4434 434 
Q 4069 175 3628 42 
Q 3188 -91 2688 -91 
Q 1594 -91 976 548 
Q 359 1188 359 2328 
Q 359 3472 976 4111 
Q 1594 4750 2688 4750 
Q 3144 4750 3555 4637 
Q 3966 4525 4313 4306 
L 4313 3634 
Q 3963 3931 3569 4081 
Q 3175 4231 2741 4231 
Q 1884 4231 1454 3753 
Q 1025 3275 1025 2328 
Q 1025 1384 1454 906 
Q 1884 428 2741 428 
Q 3075 428 3337 486 
Q 3600 544 3809 666 
z
" transform="scale(0.015625)"/>
       <path id="DejaVuSans-61" d="M 2194 1759 
Q 1497 1759 1228 1600 
Q 959 1441 959 1056 
Q 959 750 1161 570 
Q 1363 391 1709 391 
Q 2188 391 2477 730 
Q 2766 1069 2766 1631 
L 2766 1759 
L 2194 1759 
z
M 3341 1997 
L 3341 0 
L 2766 0 
L 2766 531 
Q 2569 213 2275 61 
Q 1981 -91 1556 -91 
Q 1019 -91 701 211 
Q 384 513 384 1019 
Q 384 1609 779 1909 
Q 1175 2209 1959 2209 
L 2766 2209 
L 2766 2266 
Q 2766 2663 2505 2880 
Q 2244 3097 1772 3097 
Q 1472 3097 1187 3025 
Q 903 2953 641 2809 
L 641 3341 
Q 956 3463 1253 3523 
Q 1550 3584 1831 3584 
Q 2591 3584 2966 3190 
Q 3341 2797 3341 1997 
z
" transform="scale(0.015625)"/>
       <path id="DejaVuSans-6d" d="M 3328 2828 
Q 3544 3216 3844 3400 
Q 4144 3584 4550 3584 
Q 5097 3584 5394 3201 
Q 5691 2819 5691 2113 
L 5691 0 
L 5113 0 
L 5113 2094 
Q 5113 2597 4934 2840 
Q 4756 3084 4391 3084 
Q 3944 3084 3684 2787 
Q 3425 2491 3425 1978 
L 3425 0 
L 2847 0 
L 2847 2094 
Q 2847 2600 2669 2842 
Q 2491 3084 2119 3084 
Q 1678 3084 1418 2786 
Q 1159 2488 1159 1978 
L 1159 0 
L 581 0 
L 581 3500 
L 1159 3500 
L 1159 2956 
Q 1356 3278 1631 3431 
Q 1906 3584 2284 3584 
Q 2666 3584 2933 3390 
Q 3200 3197 3328 2828 
z
" transform="scale(0.015625)"/>
       <path id="DejaVuSans-65" d="M 3597 1894 
L 3597 1613 
L 953 1613 
Q 991 1019 1311 708 
Q 1631 397 2203 397 
Q 2534 397 2845 478 
Q 3156 559 3463 722 
L 3463 178 
Q 3153 47 2828 -22 
Q 2503 -91 2169 -91 
Q 1331 -91 842 396 
Q 353 884 353 1716 
Q 353 2575 817 3079 
Q 1281 3584 2069 3584 
Q 2775 3584 3186 3129 
Q 3597 2675 3597 1894 
z
M 3022 2063 
Q 3016 2534 2758 2815 
Q 2500 3097 2075 3097 
Q 1594 3097 1305 2825 
Q 1016 2553 972 2059 
L 3022 2063 
z
" transform="scale(0.015625)"/>
       <path id="DejaVuSans-20" transform="scale(0.015625)"/>
       <path id="DejaVuSans-4d" d="M 628 4666 
L 1569 4666 
L 2759 1491 
L 3956 4666 
L 4897 4666 
L 4897 0 
L 4281 0 
L 4281 4097 
L 3078 897 
L 2444 897 
L 1241 4097 
L 1241 0 
L 628 0 
L 628 4666 
z
" transform="scale(0.015625)"/>
       <path id="DejaVuSans-69" d="M 603 3500 
L 1178 3500 
L 1178 0 
L 603 0 
L 603 3500 
z
M 603 4863 
L 1178 4863 
L 1178 4134 
L 603 4134 
L 603 4863 
z
" transform="scale(0.015625)"/>
       <path id="DejaVuSans-6e" d="M 3513 2113 
L 3513 0 
L 2938 0 
L 2938 2094 
Q 2938 2591 2744 2837 
Q 2550 3084 2163 3084 
Q 1697 3084 1428 2787 
Q 1159 2491 1159 1978 
L 1159 0 
L 581 0 
L 581 3500 
L 1159 3500 
L 1159 2956 
Q 1366 3272 1645 3428 
Q 1925 3584 2291 3584 
Q 2894 3584 3203 3211 
Q 3513 2838 3513 2113 
z
" transform="scale(0.015625)"/>
       <path id="DejaVuSans-75" d="M 544 1381 
L 544 3500 
L 1119 3500 
L 1119 1403 
Q 1119 906 1312 657 
Q 1506 409 1894 409 
Q 2359 409 2629 706 
Q 2900 1003 2900 1516 
L 2900 3500 
L 3475 3500 
L 3475 0 
L 2900 0 
L 2900 538 
Q 2691 219 2414 64 
Q 2138 -91 1772 -91 
Q 1169 -91 856 284 
Q 544 659 544 1381 
z
M 1991 3584 
L 1991 3584 
z
" transform="scale(0.015625)"/>
       <path id="DejaVuSans-74" d="M 1172 4494 
L 1172 3500 
L 2356 3500 
L 2356 3053 
L 1172 3053 
L 1172 1153 
Q 1172 725 1289 603 
Q 1406 481 1766 481 
L 2356 481 
L 2356 0 
L 1766 0 
Q 1100 0 847 248 
Q 594 497 594 1153 
L 594 3053 
L 172 3053 
L 172 3500 
L 594 3500 
L 594 4494 
L 1172 4494 
z
" transform="scale(0.015625)"/>
      </defs>
      <use xlink:href="#DejaVuSans-47"/>
      <use xlink:href="#DejaVuSans-61" transform="translate(77.490234 0)"/>
      <use xlink:href="#DejaVuSans-6d" transform="translate(138.769531 0)"/>
      <use xlink:href="#DejaVuSans-65" transform="translate(236.181641 0)"/>
      <use xlink:href="#DejaVuSans-20" transform="translate(297.705078 0)"/>
      <use xlink:href="#DejaVuSans-4d" transform="translate(329.492188 0)"/>
      <use xlink:href="#DejaVuSans-69" transform="translate(415.771484 0)"/>
      <use xlink:href="#DejaVuSans-6e" transform="translate(443.554688 0)"/>
      <use xlink:href="#DejaVuSans-75" transform="translate(506.933594 0)"/>
      <use xlink:href="#DejaVuSans-74" transform="translate(570.3125 0)"/>
      <use xlink:href="#DejaVuSans-65" transform="translate(609.521484 0)"/>
     </g>
    </g>
   </g>
   <g id="matplotlib.axis_2">
    <g id="ytick_1">
     <g id="line2d_10">
      <path d="M 47.45 387.16 
L 853.2 387.16 
" clip-path="url(#p06e2c3e2ae)" style="fill: none; stroke-dasharray: 2.96,1.28; stroke-dashoffset: 0; stroke: #b0b0b0; stroke-opacity: 0.7; stroke-width: 0.8"/>
     </g>
     <g id="line2d_11">
      <defs>
       <path id="m025fb0ce0d" d="M 0 0 
L -3.5 0 
" style="stroke: #000000; stroke-width: 0.8"/>
      </defs>
      <g>
       <use xlink:href="#m025fb0ce0d" x="47.45" y="387.16" style="stroke: #000000; stroke-width: 0.8"/>
      </g>
     </g>
     <g id="text_11">
      <!-- 0 -->
      <g transform="translate(34.0875 390.959219) scale(0.1 -0.1)">
       <use xlink:href="#DejaVuSans-30"/>
      </g>
     </g>
    </g>
    <g id="ytick_2">
     <g id="line2d_12">
      <path d="M 47.45 310.361712 
L 853.2 310.361712 
" clip-path="url(#p06e2c3e2ae)" style="fill: none; stroke-dasharray: 2.96,1.28; stroke-dashoffset: 0; stroke: #b0b0b0; stroke-opacity: 0.7; stroke-width: 0.8"/>
     </g>
     <g id="line2d_13">
      <g>
       <use xlink:href="#m025fb0ce0d" x="47.45" y="310.361712" style="stroke: #000000; stroke-width: 0.8"/>
      </g>
     </g>
     <g id="text_12">
      <!-- 20 -->
      <g transform="translate(27.725 314.160931) scale(0.1 -0.1)">
       <use xlink:href="#DejaVuSans-32"/>
       <use xlink:href="#DejaVuSans-30" transform="translate(63.623047 0)"/>
      </g>
     </g>
    </g>
    <g id="ytick_3">
     <g id="line2d_14">
      <path d="M 47.45 233.563424 
L 853.2 233.563424 
" clip-path="url(#p06e2c3e2ae)" style="fill: none; stroke-dasharray: 2.96,1.28; stroke-dashoffset: 0; stroke: #b0b0b0; stroke-opacity: 0.7; stroke-width: 0.8"/>
     </g>
     <g id="line2d_15">
      <g>
       <use xlink:href="#m025fb0ce0d" x="47.45" y="233.563424" style="stroke: #000000; stroke-width: 0.8"/>
      </g>
     </g>
     <g id="text_13">
      <!-- 40 -->
      <g transform="translate(27.725 237.362643) scale(0.1 -0.1)">
       <use xlink:href="#DejaVuSans-34"/>
       <use xlink:href="#DejaVuSans-30" transform="translate(63.623047 0)"/>
      </g>
     </g>
    </g>
    <g id="ytick_4">
     <g id="line2d_16">
      <path d="M 47.45 156.765136 
L 853.2 156.765136 
" clip-path="url(#p06e2c3e2ae)" style="fill: none; stroke-dasharray: 2.96,1.28; stroke-dashoffset: 0; stroke: #b0b0b0; stroke-opacity: 0.7; stroke-width: 0.8"/>
     </g>
     <g id="line2d_17">
      <g>
       <use xlink:href="#m025fb0ce0d" x="47.45" y="156.765136" style="stroke: #000000; stroke-width: 0.8"/>
      </g>
     </g>
     <g id="text_14">
      <!-- 60 -->
      <g transform="translate(27.725 160.564355) scale(0.1 -0.1)">
       <use xlink:href="#DejaVuSans-36"/>
       <use xlink:href="#DejaVuSans-30" transform="translate(63.623047 0)"/>
      </g>
     </g>
    </g>
    <g id="ytick_5">
     <g id="line2d_18">
      <path d="M 47.45 79.966849 
L 853.2 79.966849 
" clip-path="url(#p06e2c3e2ae)" style="fill: none; stroke-dasharray: 2.96,1.28; stroke-dashoffset: 0; stroke: #b0b0b0; stroke-opacity: 0.7; stroke-width: 0.8"/>
     </g>
     <g id="line2d_19">
      <g>
       <use xlink:href="#m025fb0ce0d" x="47.45" y="79.966849" style="stroke: #000000; stroke-width: 0.8"/>
      </g>
     </g>
     <g id="text_15">
      <!-- 80 -->
      <g transform="translate(27.725 83.766067) scale(0.1 -0.1)">
       <use xlink:href="#DejaVuSans-38"/>
       <use xlink:href="#DejaVuSans-30" transform="translate(63.623047 0)"/>
      </g>
     </g>
    </g>
    <g id="text_16">
     <!-- Points Scored -->
     <g transform="translate(21.229375 248.2775) rotate(-90) scale(0.12 -0.12)">
      <defs>
       <path id="DejaVuSans-50" d="M 1259 4147 
L 1259 2394 
L 2053 2394 
Q 2494 2394 2734 2622 
Q 2975 2850 2975 3272 
Q 2975 3691 2734 3919 
Q 2494 4147 2053 4147 
L 1259 4147 
z
M 628 4666 
L 2053 4666 
Q 2838 4666 3239 4311 
Q 3641 3956 3641 3272 
Q 3641 2581 3239 2228 
Q 2838 1875 2053 1875 
L 1259 1875 
L 1259 0 
L 628 0 
L 628 4666 
z
" transform="scale(0.015625)"/>
       <path id="DejaVuSans-6f" d="M 1959 3097 
Q 1497 3097 1228 2736 
Q 959 2375 959 1747 
Q 959 1119 1226 758 
Q 1494 397 1959 397 
Q 2419 397 2687 759 
Q 2956 1122 2956 1747 
Q 2956 2369 2687 2733 
Q 2419 3097 1959 3097 
z
M 1959 3584 
Q 2709 3584 3137 3096 
Q 3566 2609 3566 1747 
Q 3566 888 3137 398 
Q 2709 -91 1959 -91 
Q 1206 -91 779 398 
Q 353 888 353 1747 
Q 353 2609 779 3096 
Q 1206 3584 1959 3584 
z
" transform="scale(0.015625)"/>
       <path id="DejaVuSans-73" d="M 2834 3397 
L 2834 2853 
Q 2591 2978 2328 3040 
Q 2066 3103 1784 3103 
Q 1356 3103 1142 2972 
Q 928 2841 928 2578 
Q 928 2378 1081 2264 
Q 1234 2150 1697 2047 
L 1894 2003 
Q 2506 1872 2764 1633 
Q 3022 1394 3022 966 
Q 3022 478 2636 193 
Q 2250 -91 1575 -91 
Q 1294 -91 989 -36 
Q 684 19 347 128 
L 347 722 
Q 666 556 975 473 
Q 1284 391 1588 391 
Q 1994 391 2212 530 
Q 2431 669 2431 922 
Q 2431 1156 2273 1281 
Q 2116 1406 1581 1522 
L 1381 1569 
Q 847 1681 609 1914 
Q 372 2147 372 2553 
Q 372 3047 722 3315 
Q 1072 3584 1716 3584 
Q 2034 3584 2315 3537 
Q 2597 3491 2834 3397 
z
" transform="scale(0.015625)"/>
       <path id="DejaVuSans-53" d="M 3425 4513 
L 3425 3897 
Q 3066 4069 2747 4153 
Q 2428 4238 2131 4238 
Q 1616 4238 1336 4038 
Q 1056 3838 1056 3469 
Q 1056 3159 1242 3001 
Q 1428 2844 1947 2747 
L 2328 2669 
Q 3034 2534 3370 2195 
Q 3706 1856 3706 1288 
Q 3706 609 3251 259 
Q 2797 -91 1919 -91 
Q 1588 -91 1214 -16 
Q 841 59 441 206 
L 441 856 
Q 825 641 1194 531 
Q 1563 422 1919 422 
Q 2459 422 2753 634 
Q 3047 847 3047 1241 
Q 3047 1584 2836 1778 
Q 2625 1972 2144 2069 
L 1759 2144 
Q 1053 2284 737 2584 
Q 422 2884 422 3419 
Q 422 4038 858 4394 
Q 1294 4750 2059 4750 
Q 2388 4750 2728 4690 
Q 3069 4631 3425 4513 
z
" transform="scale(0.015625)"/>
       <path id="DejaVuSans-63" d="M 3122 3366 
L 3122 2828 
Q 2878 2963 2633 3030 
Q 2388 3097 2138 3097 
Q 1578 3097 1268 2742 
Q 959 2388 959 1747 
Q 959 1106 1268 751 
Q 1578 397 2138 397 
Q 2388 397 2633 464 
Q 2878 531 3122 666 
L 3122 134 
Q 2881 22 2623 -34 
Q 2366 -91 2075 -91 
Q 1284 -91 818 406 
Q 353 903 353 1747 
Q 353 2603 823 3093 
Q 1294 3584 2113 3584 
Q 2378 3584 2631 3529 
Q 2884 3475 3122 3366 
z
" transform="scale(0.015625)"/>
       <path id="DejaVuSans-72" d="M 2631 2963 
Q 2534 3019 2420 3045 
Q 2306 3072 2169 3072 
Q 1681 3072 1420 2755 
Q 1159 2438 1159 1844 
L 1159 0 
L 581 0 
L 581 3500 
L 1159 3500 
L 1159 2956 
Q 1341 3275 1631 3429 
Q 1922 3584 2338 3584 
Q 2397 3584 2469 3576 
Q 2541 3569 2628 3553 
L 2631 2963 
z
" transform="scale(0.015625)"/>
       <path id="DejaVuSans-64" d="M 2906 2969 
L 2906 4863 
L 3481 4863 
L 3481 0 
L 2906 0 
L 2906 525 
Q 2725 213 2448 61 
Q 2172 -91 1784 -91 
Q 1150 -91 751 415 
Q 353 922 353 1747 
Q 353 2572 751 3078 
Q 1150 3584 1784 3584 
Q 2172 3584 2448 3432 
Q 2725 3281 2906 2969 
z
M 947 1747 
Q 947 1113 1208 752 
Q 1469 391 1925 391 
Q 2381 391 2643 752 
Q 2906 1113 2906 1747 
Q 2906 2381 2643 2742 
Q 2381 3103 1925 3103 
Q 1469 3103 1208 2742 
Q 947 2381 947 1747 
z
" transform="scale(0.015625)"/>
      </defs>
      <use xlink:href="#DejaVuSans-50"/>
      <use xlink:href="#DejaVuSans-6f" transform="translate(56.677734 0)"/>
      <use xlink:href="#DejaVuSans-69" transform="translate(117.859375 0)"/>
      <use xlink:href="#DejaVuSans-6e" transform="translate(145.642578 0)"/>
      <use xlink:href="#DejaVuSans-74" transform="translate(209.021484 0)"/>
      <use xlink:href="#DejaVuSans-73" transform="translate(248.230469 0)"/>
      <use xlink:href="#DejaVuSans-20" transform="translate(300.330078 0)"/>
      <use xlink:href="#DejaVuSans-53" transform="translate(332.117188 0)"/>
      <use xlink:href="#DejaVuSans-63" transform="translate(395.59375 0)"/>
      <use xlink:href="#DejaVuSans-6f" transform="translate(450.574219 0)"/>
      <use xlink:href="#DejaVuSans-72" transform="translate(511.755859 0)"/>
      <use xlink:href="#DejaVuSans-65" transform="translate(550.619141 0)"/>
      <use xlink:href="#DejaVuSans-64" transform="translate(612.142578 0)"/>
     </g>
    </g>
   </g>
   <g id="patch_147">
    <path d="M 47.45 387.16 
L 47.45 28.32 
" style="fill: none; stroke: #000000; stroke-width: 0.8; stroke-linejoin: miter; stroke-linecap: square"/>
   </g>
   <g id="patch_148">
    <path d="M 853.2 387.16 
L 853.2 28.32 
" style="fill: none; stroke: #000000; stroke-width: 0.8; stroke-linejoin: miter; stroke-linecap: square"/>
   </g>
   <g id="patch_149">
    <path d="M 47.45 387.16 
L 853.2 387.16 
" style="fill: none; stroke: #000000; stroke-width: 0.8; stroke-linejoin: miter; stroke-linecap: square"/>
   </g>
   <g id="patch_150">
    <path d="M 47.45 28.32 
L 853.2 28.32 
" style="fill: none; stroke: #000000; stroke-width: 0.8; stroke-linejoin: miter; stroke-linecap: square"/>
   </g>
   <g id="text_17">
    <!-- Scoring Timeline: Jalen Brunson (2023-24) -->
    <g transform="translate(281.22 22.32) scale(0.16 -0.16)">
     <defs>
      <path id="DejaVuSans-67" d="M 2906 1791 
Q 2906 2416 2648 2759 
Q 2391 3103 1925 3103 
Q 1463 3103 1205 2759 
Q 947 2416 947 1791 
Q 947 1169 1205 825 
Q 1463 481 1925 481 
Q 2391 481 2648 825 
Q 2906 1169 2906 1791 
z
M 3481 434 
Q 3481 -459 3084 -895 
Q 2688 -1331 1869 -1331 
Q 1566 -1331 1297 -1286 
Q 1028 -1241 775 -1147 
L 775 -588 
Q 1028 -725 1275 -790 
Q 1522 -856 1778 -856 
Q 2344 -856 2625 -561 
Q 2906 -266 2906 331 
L 2906 616 
Q 2728 306 2450 153 
Q 2172 0 1784 0 
Q 1141 0 747 490 
Q 353 981 353 1791 
Q 353 2603 747 3093 
Q 1141 3584 1784 3584 
Q 2172 3584 2450 3431 
Q 2728 3278 2906 2969 
L 2906 3500 
L 3481 3500 
L 3481 434 
z
" transform="scale(0.015625)"/>
      <path id="DejaVuSans-54" d="M -19 4666 
L 3928 4666 
L 3928 4134 
L 2272 4134 
L 2272 0 
L 1638 0 
L 1638 4134 
L -19 4134 
L -19 4666 
z
" transform="scale(0.015625)"/>
      <path id="DejaVuSans-6c" d="M 603 4863 
L 1178 4863 
L 1178 0 
L 603 0 
L 603 4863 
z
" transform="scale(0.015625)"/>
      <path id="DejaVuSans-3a" d="M 750 794 
L 1409 794 
L 1409 0 
L 750 0 
L 750 794 
z
M 750 3309 
L 1409 3309 
L 1409 2516 
L 750 2516 
L 750 3309 
z
" transform="scale(0.015625)"/>
      <path id="DejaVuSans-4a" d="M 628 4666 
L 1259 4666 
L 1259 325 
Q 1259 -519 939 -900 
Q 619 -1281 -91 -1281 
L -331 -1281 
L -331 -750 
L -134 -750 
Q 284 -750 456 -515 
Q 628 -281 628 325 
L 628 4666 
z
" transform="scale(0.015625)"/>
      <path id="DejaVuSans-42" d="M 1259 2228 
L 1259 519 
L 2272 519 
Q 2781 519 3026 730 
Q 3272 941 3272 1375 
Q 3272 1813 3026 2020 
Q 2781 2228 2272 2228 
L 1259 2228 
z
M 1259 4147 
L 1259 2741 
L 2194 2741 
Q 2656 2741 2882 2914 
Q 3109 3088 3109 3444 
Q 3109 3797 2882 3972 
Q 2656 4147 2194 4147 
L 1259 4147 
z
M 628 4666 
L 2241 4666 
Q 2963 4666 3353 4366 
Q 3744 4066 3744 3513 
Q 3744 3084 3544 2831 
Q 3344 2578 2956 2516 
Q 3422 2416 3680 2098 
Q 3938 1781 3938 1306 
Q 3938 681 3513 340 
Q 3088 0 2303 0 
L 628 0 
L 628 4666 
z
" transform="scale(0.015625)"/>
      <path id="DejaVuSans-28" d="M 1984 4856 
Q 1566 4138 1362 3434 
Q 1159 2731 1159 2009 
Q 1159 1288 1364 580 
Q 1569 -128 1984 -844 
L 1484 -844 
Q 1016 -109 783 600 
Q 550 1309 550 2009 
Q 550 2706 781 3412 
Q 1013 4119 1484 4856 
L 1984 4856 
z
" transform="scale(0.015625)"/>
      <path id="DejaVuSans-2d" d="M 313 2009 
L 1997 2009 
L 1997 1497 
L 313 1497 
L 313 2009 
z
" transform="scale(0.015625)"/>
      <path id="DejaVuSans-29" d="M 513 4856 
L 1013 4856 
Q 1481 4119 1714 3412 
Q 1947 2706 1947 2009 
Q 1947 1309 1714 600 
Q 1481 -109 1013 -844 
L 513 -844 
Q 928 -128 1133 580 
Q 1338 1288 1338 2009 
Q 1338 2731 1133 3434 
Q 928 4138 513 4856 
z
" transform="scale(0.015625)"/>
     </defs>
     <use xlink:href="#DejaVuSans-53"/>
     <use xlink:href="#DejaVuSans-63" transform="translate(63.476562 0)"/>
     <use xlink:href="#DejaVuSans-6f" transform="translate(118.457031 0)"/>
     <use xlink:href="#DejaVuSans-72" transform="translate(179.638672 0)"/>
     <use xlink:href="#DejaVuSans-69" transform="translate(220.751953 0)"/>
     <use xlink:href="#DejaVuSans-6e" transform="translate(248.535156 0)"/>
     <use xlink:href="#DejaVuSans-67" transform="translate(311.914062 0)"/>
     <use xlink:href="#DejaVuSans-20" transform="translate(375.390625 0)"/>
     <use xlink:href="#DejaVuSans-54" transform="translate(407.177734 0)"/>
     <use xlink:href="#DejaVuSans-69" transform="translate(465.136719 0)"/>
     <use xlink:href="#DejaVuSans-6d" transform="translate(492.919922 0)"/>
     <use xlink:href="#DejaVuSans-65" transform="translate(590.332031 0)"/>
     <use xlink:href="#DejaVuSans-6c" transform="translate(651.855469 0)"/>
     <use xlink:href="#DejaVuSans-69" transform="translate(679.638672 0)"/>
     <use xlink:href="#DejaVuSans-6e" transform="translate(707.421875 0)"/>
     <use xlink:href="#DejaVuSans-65" transform="translate(770.800781 0)"/>
     <use xlink:href="#DejaVuSans-3a" transform="translate(832.324219 0)"/>
     <use xlink:href="#DejaVuSans-20" transform="translate(866.015625 0)"/>
     <use xlink:href="#DejaVuSans-4a" transform="translate(897.802734 0)"/>
     <use xlink:href="#DejaVuSans-61" transform="translate(927.294922 0)"/>
     <use xlink:href="#DejaVuSans-6c" transform="translate(988.574219 0)"/>
     <use xlink:href="#DejaVuSans-65" transform="translate(1016.357422 0)"/>
     <use xlink:href="#DejaVuSans-6e" transform="translate(1077.880859 0)"/>
     <use xlink:href="#DejaVuSans-20" transform="translate(1141.259766 0)"/>
     <use xlink:href="#DejaVuSans-42" transform="translate(1173.046875 0)"/>
     <use xlink:href="#DejaVuSans-72" transform="translate(1241.650391 0)"/>
     <use xlink:href="#DejaVuSans-75" transform="translate(1282.763672 0)"/>
     <use xlink:href="#DejaVuSans-6e" transform="translate(1346.142578 0)"/>
     <use xlink:href="#DejaVuSans-73" transform="translate(1409.521484 0)"/>
     <use xlink:href="#DejaVuSans-6f" transform="translate(1461.621094 0)"/>
     <use xlink:href="#DejaVuSans-6e" transform="translate(1522.802734 0)"/>
     <use xlink:href="#DejaVuSans-20" transform="translate(1586.181641 0)"/>
     <use xlink:href="#DejaVuSans-28" transform="translate(1617.96875 0)"/>
     <use xlink:href="#DejaVuSans-32" transform="translate(1656.982422 0)"/>
     <use xlink:href="#DejaVuSans-30" transform="translate(1720.605469 0)"/>
     <use xlink:href="#DejaVuSans-32" transform="translate(1784.228516 0)"/>
     <use xlink:href="#DejaVuSans-33" transform="translate(1847.851562 0)"/>
     <use xlink:href="#DejaVuSans-2d" transform="translate(1911.474609 0)"/>
     <use xlink:href="#DejaVuSans-32" transform="translate(1947.558594 0)"/>
     <use xlink:href="#DejaVuSans-34" transform="translate(2011.181641 0)"/>
     <use xlink:href="#DejaVuSans-29" transform="translate(2074.804688 0)"/>
    </g>
   </g>
   <g id="legend_1">
    <g id="patch_151">
     <path d="M 795.7 80.354375 
L 846.2 80.354375 
Q 848.2 80.354375 848.2 78.354375 
L 848.2 35.32 
Q 848.2 33.32 846.2 33.32 
L 795.7 33.32 
Q 793.7 33.32 793.7 35.32 
L 793.7 78.354375 
Q 793.7 80.354375 795.7 80.354375 
z
" style="fill: #ffffff; opacity: 0.8; stroke: #cccccc; stroke-linejoin: miter"/>
    </g>
    <g id="patch_152">
     <path d="M 797.7 44.918437 
L 817.7 44.918437 
L 817.7 37.918437 
L 797.7 37.918437 
z
" style="fill: #ef4444"/>
    </g>
    <g id="text_18">
     <!-- 3PT -->
     <g transform="translate(825.7 44.918437) scale(0.1 -0.1)">
      <use xlink:href="#DejaVuSans-33"/>
      <use xlink:href="#DejaVuSans-50" transform="translate(63.623047 0)"/>
      <use xlink:href="#DejaVuSans-54" transform="translate(123.925781 0)"/>
     </g>
    </g>
    <g id="patch_153">
     <path d="M 797.7 59.596563 
L 817.7 59.596563 
L 817.7 52.596563 
L 797.7 52.596563 
z
" style="fill: #3b82f6"/>
    </g>
    <g id="text_19">
     <!-- 2PT -->
     <g transform="translate(825.7 59.596563) scale(0.1 -0.1)">
      <use xlink:href="#DejaVuSans-32"/>
      <use xlink:href="#DejaVuSans-50" transform="translate(63.623047 0)"/>
      <use xlink:href="#DejaVuSans-54" transform="translate(123.925781 0)"/>
     </g>
    </g>
    <g id="patch_154">
     <path d="M 797.7 74.274687 
L 817.7 74.274687 
L 817.7 67.274687 
L 797.7 67.274687 
z
" style="fill: #22c55e"/>
    </g>
    <g id="text_20">
     <!-- FT -->
     <g transform="translate(825.7 74.274687) scale(0.1 -0.1)">
      <defs>
       <path id="DejaVuSans-46" d="M 628 4666 
L 3309 4666 
L 3309 4134 
L 1259 4134 
L 1259 2759 
L 3109 2759 
L 3109 2228 
L 1259 2228 
L 1259 0 
L 628 0 
L 628 4666 
z
" transform="scale(0.015625)"/>
      </defs>
      <use xlink:href="#DejaVuSans-46"/>
      <use xlink:href="#DejaVuSans-54" transform="translate(55.769531 0)"/>
     </g>
    </g>
   </g>
  </g>
 </g>
 <defs>
  <clipPath id="p06e2c3e2ae">
   <rect x="47.45" y="28.32" width="805.75" height="358.84"/>
  </clipPath>
 </defs>
</svg>
