<?xml version="1.0" encoding="utf-8" standalone="no"?>
<!DOCTYPE svg PUBLIC "-//W3C//DTD SVG 1.1//EN"
  "http://www.w3.org/Graphics/SVG/1.1/DTD/svg11.dtd">
<svg xmlns:xlink="http://www.w3.org/1999/xlink" width="864pt" height="504pt" viewBox="0 0 864 504" xmlns="http://www.w3.org/2000/svg" version="1.1">
 <metadata>
  <rdf:RDF xmlns:dc="http://purl.org/dc/elements/1.1/" xmlns:cc="http://creativecommons.org/ns#" xmlns:rdf="http://www.w3.org/1999/02/22-rdf-syntax-ns#">
   <cc:Work>
    <dc:type rdf:resource="http://purl.org/dc/dcmitype/StillImage"/>
    <dc:date>2025-08-24T04:34:10.139762</dc:date>
    <dc:format>image/svg+xml</dc:format>
    <dc:creator>
     <cc:Agent>
      <dc:title>Matplotlib v3.10.5, https://matplotlib.org/</dc:title>
     </cc:Agent>
    </dc:creator>
   </cc:Work>
  </rdf:RDF>
 </metadata>
 <defs>
  <style type="text/css">*{stroke-linejoin: round; stroke-linecap: butt}</style>
 </defs>
 <g id="figure_1">
  <g id="patch_1">
   <path d="M 0 504 
L 864 504 
L 864 0 
L 0 0 
z
" style="fill: #ffffff"/>
  </g>
  <g id="axes_1">
   <g id="patch_2">
    <path d="M 44.57 455.955539 
L 853.2 455.955539 
L 853.2 26.88 
L 44.57 26.88 
z
" style="fill: #ffffff"/>
   </g>
   <g id="patch_3">
    <path d="M 48.589036 455.955539 
L 61.44995 455.955539 
L 61.44995 436.800381 
L 48.589036 436.800381 
z
" clip-path="url(#p788ecfd3d4)" style="fill: #ffc107"/>
   </g>
   <g id="patch_4">
    <path d="M 64.665179 455.955539 
L 77.526093 455.955539 
L 77.526093 449.570486 
L 64.665179 449.570486 
z
" clip-path="url(#p788ecfd3d4)" style="fill: #ffc107"/>
   </g>
   <g id="patch_5">
    <path d="M 80.741322 455.955539 
L 93.602237 455.955539 
L 93.602237 392.105012 
L 80.741322 392.105012 
z
" clip-path="url(#p788ecfd3d4)" style="fill: #ffc107"/>
   </g>
   <g id="patch_6">
    <path d="M 96.817465 455.955539 
L 109.67838 455.955539 
L 109.67838 424.030276 
L 96.817465 424.030276 
z
" clip-path="url(#p788ecfd3d4)" style="fill: #ffc107"/>
   </g>
   <g id="patch_7">
    <path d="M 112.893608 455.955539 
L 125.754523 455.955539 
L 125.754523 404.875118 
L 112.893608 404.875118 
z
" clip-path="url(#p788ecfd3d4)" style="fill: #ffc107"/>
   </g>
   <g id="patch_8">
    <path d="M 128.969751 455.955539 
L 141.830666 455.955539 
L 141.830666 443.185434 
L 128.969751 443.185434 
z
" clip-path="url(#p788ecfd3d4)" style="fill: #ffc107"/>
   </g>
   <g id="patch_9">
    <path d="M 145.045895 455.955539 
L 157.906809 455.955539 
L 157.906809 404.875118 
L 145.045895 404.875118 
z
" clip-path="url(#p788ecfd3d4)" style="fill: #ffc107"/>
   </g>
   <g id="patch_10">
    <path d="M 161.122038 455.955539 
L 173.982952 455.955539 
L 173.982952 366.564802 
L 161.122038 366.564802 
z
" clip-path="url(#p788ecfd3d4)" style="fill: #ffc107"/>
   </g>
   <g id="patch_11">
    <path d="M 177.198181 455.955539 
L 190.059095 455.955539 
L 190.059095 449.570486 
L 177.198181 449.570486 
z
" clip-path="url(#p788ecfd3d4)" style="fill: #ffc107"/>
   </g>
   <g id="patch_12">
    <path d="M 193.274324 455.955539 
L 206.135239 455.955539 
L 206.135239 455.955539 
L 193.274324 455.955539 
z
" clip-path="url(#p788ecfd3d4)" style="fill: #ffc107"/>
   </g>
   <g id="patch_13">
    <path d="M 209.350467 455.955539 
L 222.211382 455.955539 
L 222.211382 436.800381 
L 209.350467 436.800381 
z
" clip-path="url(#p788ecfd3d4)" style="fill: #ffc107"/>
   </g>
   <g id="patch_14">
    <path d="M 225.42661 455.955539 
L 238.287525 455.955539 
L 238.287525 417.645223 
L 225.42661 417.645223 
z
" clip-path="url(#p788ecfd3d4)" style="fill: #ffc107"/>
   </g>
   <g id="patch_15">
    <path d="M 241.502753 455.955539 
L 254.363668 455.955539 
L 254.363668 411.26017 
L 241.502753 411.26017 
z
" clip-path="url(#p788ecfd3d4)" style="fill: #ffc107"/>
   </g>
   <g id="patch_16">
    <path d="M 257.578897 455.955539 
L 270.439811 455.955539 
L 270.439811 385.71996 
L 257.578897 385.71996 
z
" clip-path="url(#p788ecfd3d4)" style="fill: #ffc107"/>
   </g>
   <g id="patch_17">
    <path d="M 273.65504 455.955539 
L 286.515954 455.955539 
L 286.515954 392.105012 
L 273.65504 392.105012 
z
" clip-path="url(#p788ecfd3d4)" style="fill: #ffc107"/>
   </g>
   <g id="patch_18">
    <path d="M 289.731183 455.955539 
L 302.592097 455.955539 
L 302.592097 430.415328 
L 289.731183 430.415328 
z
" clip-path="url(#p788ecfd3d4)" style="fill: #ffc107"/>
   </g>
   <g id="patch_19">
    <path d="M 305.807326 455.955539 
L 318.668241 455.955539 
L 318.668241 392.105012 
L 305.807326 392.105012 
z
" clip-path="url(#p788ecfd3d4)" style="fill: #ffc107"/>
   </g>
   <g id="patch_20">
    <path d="M 321.883469 455.955539 
L 334.744384 455.955539 
L 334.744384 424.030276 
L 321.883469 424.030276 
z
" clip-path="url(#p788ecfd3d4)" style="fill: #ffc107"/>
   </g>
   <g id="patch_21">
    <path d="M 337.959612 455.955539 
L 350.820527 455.955539 
L 350.820527 417.645223 
L 337.959612 417.645223 
z
" clip-path="url(#p788ecfd3d4)" style="fill: #ffc107"/>
   </g>
   <g id="patch_22">
    <path d="M 354.035755 455.955539 
L 366.89667 455.955539 
L 366.89667 411.26017 
L 354.035755 411.26017 
z
" clip-path="url(#p788ecfd3d4)" style="fill: #ffc107"/>
   </g>
   <g id="patch_23">
    <path d="M 370.111899 455.955539 
L 382.972813 455.955539 
L 382.972813 372.949854 
L 370.111899 372.949854 
z
" clip-path="url(#p788ecfd3d4)" style="fill: #ffc107"/>
   </g>
   <g id="patch_24">
    <path d="M 386.188042 455.955539 
L 399.048956 455.955539 
L 399.048956 404.875118 
L 386.188042 404.875118 
z
" clip-path="url(#p788ecfd3d4)" style="fill: #ffc107"/>
   </g>
   <g id="patch_25">
    <path d="M 402.264185 455.955539 
L 415.125099 455.955539 
L 415.125099 424.030276 
L 402.264185 424.030276 
z
" clip-path="url(#p788ecfd3d4)" style="fill: #ffc107"/>
   </g>
   <g id="patch_26">
    <path d="M 418.340328 455.955539 
L 431.201243 455.955539 
L 431.201243 398.490065 
L 418.340328 398.490065 
z
" clip-path="url(#p788ecfd3d4)" style="fill: #ffc107"/>
   </g>
   <g id="patch_27">
    <path d="M 434.416471 455.955539 
L 447.277386 455.955539 
L 447.277386 443.185434 
L 434.416471 443.185434 
z
" clip-path="url(#p788ecfd3d4)" style="fill: #ffc107"/>
   </g>
   <g id="patch_28">
    <path d="M 450.492614 455.955539 
L 463.353529 455.955539 
L 463.353529 366.564802 
L 450.492614 366.564802 
z
" clip-path="url(#p788ecfd3d4)" style="fill: #ffc107"/>
   </g>
   <g id="patch_29">
    <path d="M 466.568757 455.955539 
L 479.429672 455.955539 
L 479.429672 347.409644 
L 466.568757 347.409644 
z
" clip-path="url(#p788ecfd3d4)" style="fill: #ffc107"/>
   </g>
   <g id="patch_30">
    <path d="M 482.644901 455.955539 
L 495.505815 455.955539 
L 495.505815 424.030276 
L 482.644901 424.030276 
z
" clip-path="url(#p788ecfd3d4)" style="fill: #ffc107"/>
   </g>
   <g id="patch_31">
    <path d="M 498.721044 455.955539 
L 511.581958 455.955539 
L 511.581958 417.645223 
L 498.721044 417.645223 
z
" clip-path="url(#p788ecfd3d4)" style="fill: #ffc107"/>
   </g>
   <g id="patch_32">
    <path d="M 514.797187 455.955539 
L 527.658101 455.955539 
L 527.658101 398.490065 
L 514.797187 398.490065 
z
" clip-path="url(#p788ecfd3d4)" style="fill: #ffc107"/>
   </g>
   <g id="patch_33">
    <path d="M 530.87333 455.955539 
L 543.734245 455.955539 
L 543.734245 417.645223 
L 530.87333 417.645223 
z
" clip-path="url(#p788ecfd3d4)" style="fill: #ffc107"/>
   </g>
   <g id="patch_34">
    <path d="M 546.949473 455.955539 
L 559.810388 455.955539 
L 559.810388 411.26017 
L 546.949473 411.26017 
z
" clip-path="url(#p788ecfd3d4)" style="fill: #ffc107"/>
   </g>
   <g id="patch_35">
    <path d="M 563.025616 455.955539 
L 575.886531 455.955539 
L 575.886531 455.955539 
L 563.025616 455.955539 
z
" clip-path="url(#p788ecfd3d4)" style="fill: #ffc107"/>
   </g>
   <g id="patch_36">
    <path d="M 579.101759 455.955539 
L 591.962674 455.955539 
L 591.962674 417.645223 
L 579.101759 417.645223 
z
" clip-path="url(#p788ecfd3d4)" style="fill: #ffc107"/>
   </g>
   <g id="patch_37">
    <path d="M 595.177903 455.955539 
L 608.038817 455.955539 
L 608.038817 417.645223 
L 595.177903 417.645223 
z
" clip-path="url(#p788ecfd3d4)" style="fill: #ffc107"/>
   </g>
   <g id="patch_38">
    <path d="M 611.254046 455.955539 
L 624.11496 455.955539 
L 624.11496 417.645223 
L 611.254046 417.645223 
z
" clip-path="url(#p788ecfd3d4)" style="fill: #ffc107"/>
   </g>
   <g id="patch_39">
    <path d="M 627.330189 455.955539 
L 640.191103 455.955539 
L 640.191103 455.955539 
L 627.330189 455.955539 
z
" clip-path="url(#p788ecfd3d4)" style="fill: #ffc107"/>
   </g>
   <g id="patch_40">
    <path d="M 643.406332 455.955539 
L 656.267247 455.955539 
L 656.267247 417.645223 
L 643.406332 417.645223 
z
" clip-path="url(#p788ecfd3d4)" style="fill: #ffc107"/>
   </g>
   <g id="patch_41">
    <path d="M 659.482475 455.955539 
L 672.34339 455.955539 
L 672.34339 424.030276 
L 659.482475 424.030276 
z
" clip-path="url(#p788ecfd3d4)" style="fill: #ffc107"/>
   </g>
   <g id="patch_42">
    <path d="M 675.558618 455.955539 
L 688.419533 455.955539 
L 688.419533 449.570486 
L 675.558618 449.570486 
z
" clip-path="url(#p788ecfd3d4)" style="fill: #ffc107"/>
   </g>
   <g id="patch_43">
    <path d="M 691.634761 455.955539 
L 704.495676 455.955539 
L 704.495676 417.645223 
L 691.634761 417.645223 
z
" clip-path="url(#p788ecfd3d4)" style="fill: #ffc107"/>
   </g>
   <g id="patch_44">
    <path d="M 707.710905 455.955539 
L 720.571819 455.955539 
L 720.571819 411.26017 
L 707.710905 411.26017 
z
" clip-path="url(#p788ecfd3d4)" style="fill: #ffc107"/>
   </g>
   <g id="patch_45">
    <path d="M 723.787048 455.955539 
L 736.647962 455.955539 
L 736.647962 436.800381 
L 723.787048 436.800381 
z
" clip-path="url(#p788ecfd3d4)" style="fill: #ffc107"/>
   </g>
   <g id="patch_46">
    <path d="M 739.863191 455.955539 
L 752.724105 455.955539 
L 752.724105 385.71996 
L 739.863191 385.71996 
z
" clip-path="url(#p788ecfd3d4)" style="fill: #ffc107"/>
   </g>
   <g id="patch_47">
    <path d="M 755.939334 455.955539 
L 768.800249 455.955539 
L 768.800249 411.26017 
L 755.939334 411.26017 
z
" clip-path="url(#p788ecfd3d4)" style="fill: #ffc107"/>
   </g>
   <g id="patch_48">
    <path d="M 772.015477 455.955539 
L 784.876392 455.955539 
L 784.876392 398.490065 
L 772.015477 398.490065 
z
" clip-path="url(#p788ecfd3d4)" style="fill: #ffc107"/>
   </g>
   <g id="patch_49">
    <path d="M 788.09162 455.955539 
L 800.952535 455.955539 
L 800.952535 417.645223 
L 788.09162 417.645223 
z
" clip-path="url(#p788ecfd3d4)" style="fill: #ffc107"/>
   </g>
   <g id="patch_50">
    <path d="M 804.167763 455.955539 
L 817.028678 455.955539 
L 817.028678 353.794696 
L 804.167763 353.794696 
z
" clip-path="url(#p788ecfd3d4)" style="fill: #ffc107"/>
   </g>
   <g id="patch_51">
    <path d="M 820.243907 455.955539 
L 833.104821 455.955539 
L 833.104821 455.955539 
L 820.243907 455.955539 
z
" clip-path="url(#p788ecfd3d4)" style="fill: #ffc107"/>
   </g>
   <g id="patch_52">
    <path d="M 836.32005 455.955539 
L 849.180964 455.955539 
L 849.180964 443.185434 
L 836.32005 443.185434 
z
" clip-path="url(#p788ecfd3d4)" style="fill: #ffc107"/>
   </g>
   <g id="patch_53">
    <path d="M 48.589036 436.800381 
L 61.44995 436.800381 
L 61.44995 296.329222 
L 48.589036 296.329222 
z
" clip-path="url(#p788ecfd3d4)" style="fill: #2196f3"/>
   </g>
   <g id="patch_54">
    <path d="M 64.665179 449.570486 
L 77.526093 449.570486 
L 77.526093 347.409644 
L 64.665179 347.409644 
z
" clip-path="url(#p788ecfd3d4)" style="fill: #2196f3"/>
   </g>
   <g id="patch_55">
    <path d="M 80.741322 392.105012 
L 93.602237 392.105012 
L 93.602237 213.323538 
L 80.741322 213.323538 
z
" clip-path="url(#p788ecfd3d4)" style="fill: #2196f3"/>
   </g>
   <g id="patch_56">
    <path d="M 96.817465 424.030276 
L 109.67838 424.030276 
L 109.67838 270.789012 
L 96.817465 270.789012 
z
" clip-path="url(#p788ecfd3d4)" style="fill: #2196f3"/>
   </g>
   <g id="patch_57">
    <path d="M 112.893608 404.875118 
L 125.754523 404.875118 
L 125.754523 162.243116 
L 112.893608 162.243116 
z
" clip-path="url(#p788ecfd3d4)" style="fill: #2196f3"/>
   </g>
   <g id="patch_58">
    <path d="M 128.969751 443.185434 
L 141.830666 443.185434 
L 141.830666 353.794696 
L 128.969751 353.794696 
z
" clip-path="url(#p788ecfd3d4)" style="fill: #2196f3"/>
   </g>
   <g id="patch_59">
    <path d="M 145.045895 404.875118 
L 157.906809 404.875118 
L 157.906809 379.334907 
L 145.045895 379.334907 
z
" clip-path="url(#p788ecfd3d4)" style="fill: #2196f3"/>
   </g>
   <g id="patch_60">
    <path d="M 161.122038 366.564802 
L 173.982952 366.564802 
L 173.982952 328.254486 
L 161.122038 328.254486 
z
" clip-path="url(#p788ecfd3d4)" style="fill: #2196f3"/>
   </g>
   <g id="patch_61">
    <path d="M 177.198181 449.570486 
L 190.059095 449.570486 
L 190.059095 436.800381 
L 177.198181 436.800381 
z
" clip-path="url(#p788ecfd3d4)" style="fill: #2196f3"/>
   </g>
   <g id="patch_62">
    <path d="M 193.274324 455.955539 
L 206.135239 455.955539 
L 206.135239 455.955539 
L 193.274324 455.955539 
z
" clip-path="url(#p788ecfd3d4)" style="fill: #2196f3"/>
   </g>
   <g id="patch_63">
    <path d="M 209.350467 436.800381 
L 222.211382 436.800381 
L 222.211382 385.71996 
L 209.350467 385.71996 
z
" clip-path="url(#p788ecfd3d4)" style="fill: #2196f3"/>
   </g>
   <g id="patch_64">
    <path d="M 225.42661 417.645223 
L 238.287525 417.645223 
L 238.287525 341.024591 
L 225.42661 341.024591 
z
" clip-path="url(#p788ecfd3d4)" style="fill: #2196f3"/>
   </g>
   <g id="patch_65">
    <path d="M 241.502753 411.26017 
L 254.363668 411.26017 
L 254.363668 321.869433 
L 241.502753 321.869433 
z
" clip-path="url(#p788ecfd3d4)" style="fill: #2196f3"/>
   </g>
   <g id="patch_66">
    <path d="M 257.578897 385.71996 
L 270.439811 385.71996 
L 270.439811 245.248801 
L 257.578897 245.248801 
z
" clip-path="url(#p788ecfd3d4)" style="fill: #2196f3"/>
   </g>
   <g id="patch_67">
    <path d="M 273.65504 392.105012 
L 286.515954 392.105012 
L 286.515954 200.553432 
L 273.65504 200.553432 
z
" clip-path="url(#p788ecfd3d4)" style="fill: #2196f3"/>
   </g>
   <g id="patch_68">
    <path d="M 289.731183 430.415328 
L 302.592097 430.415328 
L 302.592097 277.174064 
L 289.731183 277.174064 
z
" clip-path="url(#p788ecfd3d4)" style="fill: #2196f3"/>
   </g>
   <g id="patch_69">
    <path d="M 305.807326 392.105012 
L 318.668241 392.105012 
L 318.668241 289.94417 
L 305.807326 289.94417 
z
" clip-path="url(#p788ecfd3d4)" style="fill: #2196f3"/>
   </g>
   <g id="patch_70">
    <path d="M 321.883469 424.030276 
L 334.744384 424.030276 
L 334.744384 245.248801 
L 321.883469 245.248801 
z
" clip-path="url(#p788ecfd3d4)" style="fill: #2196f3"/>
   </g>
   <g id="patch_71">
    <path d="M 337.959612 417.645223 
L 350.820527 417.645223 
L 350.820527 315.48438 
L 337.959612 315.48438 
z
" clip-path="url(#p788ecfd3d4)" style="fill: #2196f3"/>
   </g>
   <g id="patch_72">
    <path d="M 354.035755 411.26017 
L 366.89667 411.26017 
L 366.89667 321.869433 
L 354.035755 321.869433 
z
" clip-path="url(#p788ecfd3d4)" style="fill: #2196f3"/>
   </g>
   <g id="patch_73">
    <path d="M 370.111899 372.949854 
L 382.972813 372.949854 
L 382.972813 194.16838 
L 370.111899 194.16838 
z
" clip-path="url(#p788ecfd3d4)" style="fill: #2196f3"/>
   </g>
   <g id="patch_74">
    <path d="M 386.188042 404.875118 
L 399.048956 404.875118 
L 399.048956 289.94417 
L 386.188042 289.94417 
z
" clip-path="url(#p788ecfd3d4)" style="fill: #2196f3"/>
   </g>
   <g id="patch_75">
    <path d="M 402.264185 424.030276 
L 415.125099 424.030276 
L 415.125099 347.409644 
L 402.264185 347.409644 
z
" clip-path="url(#p788ecfd3d4)" style="fill: #2196f3"/>
   </g>
   <g id="patch_76">
    <path d="M 418.340328 398.490065 
L 431.201243 398.490065 
L 431.201243 309.099328 
L 418.340328 309.099328 
z
" clip-path="url(#p788ecfd3d4)" style="fill: #2196f3"/>
   </g>
   <g id="patch_77">
    <path d="M 434.416471 443.185434 
L 447.277386 443.185434 
L 447.277386 277.174064 
L 434.416471 277.174064 
z
" clip-path="url(#p788ecfd3d4)" style="fill: #2196f3"/>
   </g>
   <g id="patch_78">
    <path d="M 450.492614 366.564802 
L 463.353529 366.564802 
L 463.353529 226.093643 
L 450.492614 226.093643 
z
" clip-path="url(#p788ecfd3d4)" style="fill: #2196f3"/>
   </g>
   <g id="patch_79">
    <path d="M 466.568757 347.409644 
L 479.429672 347.409644 
L 479.429672 206.938485 
L 466.568757 206.938485 
z
" clip-path="url(#p788ecfd3d4)" style="fill: #2196f3"/>
   </g>
   <g id="patch_80">
    <path d="M 482.644901 424.030276 
L 495.505815 424.030276 
L 495.505815 219.70859 
L 482.644901 219.70859 
z
" clip-path="url(#p788ecfd3d4)" style="fill: #2196f3"/>
   </g>
   <g id="patch_81">
    <path d="M 498.721044 417.645223 
L 511.581958 417.645223 
L 511.581958 175.013222 
L 498.721044 175.013222 
z
" clip-path="url(#p788ecfd3d4)" style="fill: #2196f3"/>
   </g>
   <g id="patch_82">
    <path d="M 514.797187 398.490065 
L 527.658101 398.490065 
L 527.658101 283.559117 
L 514.797187 283.559117 
z
" clip-path="url(#p788ecfd3d4)" style="fill: #2196f3"/>
   </g>
   <g id="patch_83">
    <path d="M 530.87333 417.645223 
L 543.734245 417.645223 
L 543.734245 226.093643 
L 530.87333 226.093643 
z
" clip-path="url(#p788ecfd3d4)" style="fill: #2196f3"/>
   </g>
   <g id="patch_84">
    <path d="M 546.949473 411.26017 
L 559.810388 411.26017 
L 559.810388 283.559117 
L 546.949473 283.559117 
z
" clip-path="url(#p788ecfd3d4)" style="fill: #2196f3"/>
   </g>
   <g id="patch_85">
    <path d="M 563.025616 455.955539 
L 575.886531 455.955539 
L 575.886531 417.645223 
L 563.025616 417.645223 
z
" clip-path="url(#p788ecfd3d4)" style="fill: #2196f3"/>
   </g>
   <g id="patch_86">
    <path d="M 579.101759 417.645223 
L 591.962674 417.645223 
L 591.962674 392.105012 
L 579.101759 392.105012 
z
" clip-path="url(#p788ecfd3d4)" style="fill: #2196f3"/>
   </g>
   <g id="patch_87">
    <path d="M 595.177903 417.645223 
L 608.038817 417.645223 
L 608.038817 379.334907 
L 595.177903 379.334907 
z
" clip-path="url(#p788ecfd3d4)" style="fill: #2196f3"/>
   </g>
   <g id="patch_88">
    <path d="M 611.254046 417.645223 
L 624.11496 417.645223 
L 624.11496 328.254486 
L 611.254046 328.254486 
z
" clip-path="url(#p788ecfd3d4)" style="fill: #2196f3"/>
   </g>
   <g id="patch_89">
    <path d="M 627.330189 455.955539 
L 640.191103 455.955539 
L 640.191103 315.48438 
L 627.330189 315.48438 
z
" clip-path="url(#p788ecfd3d4)" style="fill: #2196f3"/>
   </g>
   <g id="patch_90">
    <path d="M 643.406332 417.645223 
L 656.267247 417.645223 
L 656.267247 328.254486 
L 643.406332 328.254486 
z
" clip-path="url(#p788ecfd3d4)" style="fill: #2196f3"/>
   </g>
   <g id="patch_91">
    <path d="M 659.482475 424.030276 
L 672.34339 424.030276 
L 672.34339 347.409644 
L 659.482475 347.409644 
z
" clip-path="url(#p788ecfd3d4)" style="fill: #2196f3"/>
   </g>
   <g id="patch_92">
    <path d="M 675.558618 449.570486 
L 688.419533 449.570486 
L 688.419533 283.559117 
L 675.558618 283.559117 
z
" clip-path="url(#p788ecfd3d4)" style="fill: #2196f3"/>
   </g>
   <g id="patch_93">
    <path d="M 691.634761 417.645223 
L 704.495676 417.645223 
L 704.495676 264.403959 
L 691.634761 264.403959 
z
" clip-path="url(#p788ecfd3d4)" style="fill: #2196f3"/>
   </g>
   <g id="patch_94">
    <path d="M 707.710905 411.26017 
L 720.571819 411.26017 
L 720.571819 309.099328 
L 707.710905 309.099328 
z
" clip-path="url(#p788ecfd3d4)" style="fill: #2196f3"/>
   </g>
   <g id="patch_95">
    <path d="M 723.787048 436.800381 
L 736.647962 436.800381 
L 736.647962 309.099328 
L 723.787048 309.099328 
z
" clip-path="url(#p788ecfd3d4)" style="fill: #2196f3"/>
   </g>
   <g id="patch_96">
    <path d="M 739.863191 385.71996 
L 752.724105 385.71996 
L 752.724105 296.329222 
L 739.863191 296.329222 
z
" clip-path="url(#p788ecfd3d4)" style="fill: #2196f3"/>
   </g>
   <g id="patch_97">
    <path d="M 755.939334 411.26017 
L 768.800249 411.26017 
L 768.800249 283.559117 
L 755.939334 283.559117 
z
" clip-path="url(#p788ecfd3d4)" style="fill: #2196f3"/>
   </g>
   <g id="patch_98">
    <path d="M 772.015477 398.490065 
L 784.876392 398.490065 
L 784.876392 321.869433 
L 772.015477 321.869433 
z
" clip-path="url(#p788ecfd3d4)" style="fill: #2196f3"/>
   </g>
   <g id="patch_99">
    <path d="M 788.09162 417.645223 
L 800.952535 417.645223 
L 800.952535 379.334907 
L 788.09162 379.334907 
z
" clip-path="url(#p788ecfd3d4)" style="fill: #2196f3"/>
   </g>
   <g id="patch_100">
    <path d="M 804.167763 353.794696 
L 817.028678 353.794696 
L 817.028678 149.473011 
L 804.167763 149.473011 
z
" clip-path="url(#p788ecfd3d4)" style="fill: #2196f3"/>
   </g>
   <g id="patch_101">
    <path d="M 820.243907 455.955539 
L 833.104821 455.955539 
L 833.104821 443.185434 
L 820.243907 443.185434 
z
" clip-path="url(#p788ecfd3d4)" style="fill: #2196f3"/>
   </g>
   <g id="patch_102">
    <path d="M 836.32005 455.955539 
L 849.180964 455.955539 
L 849.180964 455.955539 
L 836.32005 455.955539 
z
" clip-path="url(#p788ecfd3d4)" style="fill: #2196f3"/>
   </g>
   <g id="patch_103">
    <path d="M 48.589036 455.955539 
L 61.44995 455.955539 
L 61.44995 455.955539 
L 48.589036 455.955539 
z
" clip-path="url(#p788ecfd3d4)" style="fill: #4caf50"/>
   </g>
   <g id="patch_104">
    <path d="M 64.665179 347.409644 
L 77.526093 347.409644 
L 77.526093 289.94417 
L 64.665179 289.94417 
z
" clip-path="url(#p788ecfd3d4)" style="fill: #4caf50"/>
   </g>
   <g id="patch_105">
    <path d="M 80.741322 213.323538 
L 93.602237 213.323538 
L 93.602237 194.16838 
L 80.741322 194.16838 
z
" clip-path="url(#p788ecfd3d4)" style="fill: #4caf50"/>
   </g>
   <g id="patch_106">
    <path d="M 96.817465 270.789012 
L 109.67838 270.789012 
L 109.67838 232.478696 
L 96.817465 232.478696 
z
" clip-path="url(#p788ecfd3d4)" style="fill: #4caf50"/>
   </g>
   <g id="patch_107">
    <path d="M 112.893608 162.243116 
L 125.754523 162.243116 
L 125.754523 47.312169 
L 112.893608 47.312169 
z
" clip-path="url(#p788ecfd3d4)" style="fill: #4caf50"/>
   </g>
   <g id="patch_108">
    <path d="M 128.969751 353.794696 
L 141.830666 353.794696 
L 141.830666 334.639538 
L 128.969751 334.639538 
z
" clip-path="url(#p788ecfd3d4)" style="fill: #4caf50"/>
   </g>
   <g id="patch_109">
    <path d="M 145.045895 379.334907 
L 157.906809 379.334907 
L 157.906809 360.179749 
L 145.045895 360.179749 
z
" clip-path="url(#p788ecfd3d4)" style="fill: #4caf50"/>
   </g>
   <g id="patch_110">
    <path d="M 161.122038 328.254486 
L 173.982952 328.254486 
L 173.982952 309.099328 
L 161.122038 309.099328 
z
" clip-path="url(#p788ecfd3d4)" style="fill: #4caf50"/>
   </g>
   <g id="patch_111">
    <path d="M 177.198181 455.955539 
L 190.059095 455.955539 
L 190.059095 455.955539 
L 177.198181 455.955539 
z
" clip-path="url(#p788ecfd3d4)" style="fill: #4caf50"/>
   </g>
   <g id="patch_112">
    <path d="M 193.274324 455.955539 
L 206.135239 455.955539 
L 206.135239 436.800381 
L 193.274324 436.800381 
z
" clip-path="url(#p788ecfd3d4)" style="fill: #4caf50"/>
   </g>
   <g id="patch_113">
    <path d="M 209.350467 455.955539 
L 222.211382 455.955539 
L 222.211382 455.955539 
L 209.350467 455.955539 
z
" clip-path="url(#p788ecfd3d4)" style="fill: #4caf50"/>
   </g>
   <g id="patch_114">
    <path d="M 225.42661 341.024591 
L 238.287525 341.024591 
L 238.287525 321.869433 
L 225.42661 321.869433 
z
" clip-path="url(#p788ecfd3d4)" style="fill: #4caf50"/>
   </g>
   <g id="patch_115">
    <path d="M 241.502753 455.955539 
L 254.363668 455.955539 
L 254.363668 455.955539 
L 241.502753 455.955539 
z
" clip-path="url(#p788ecfd3d4)" style="fill: #4caf50"/>
   </g>
   <g id="patch_116">
    <path d="M 257.578897 245.248801 
L 270.439811 245.248801 
L 270.439811 206.938485 
L 257.578897 206.938485 
z
" clip-path="url(#p788ecfd3d4)" style="fill: #4caf50"/>
   </g>
   <g id="patch_117">
    <path d="M 273.65504 200.553432 
L 286.515954 200.553432 
L 286.515954 162.243116 
L 273.65504 162.243116 
z
" clip-path="url(#p788ecfd3d4)" style="fill: #4caf50"/>
   </g>
   <g id="patch_118">
    <path d="M 289.731183 455.955539 
L 302.592097 455.955539 
L 302.592097 455.955539 
L 289.731183 455.955539 
z
" clip-path="url(#p788ecfd3d4)" style="fill: #4caf50"/>
   </g>
   <g id="patch_119">
    <path d="M 305.807326 289.94417 
L 318.668241 289.94417 
L 318.668241 251.633854 
L 305.807326 251.633854 
z
" clip-path="url(#p788ecfd3d4)" style="fill: #4caf50"/>
   </g>
   <g id="patch_120">
    <path d="M 321.883469 245.248801 
L 334.744384 245.248801 
L 334.744384 206.938485 
L 321.883469 206.938485 
z
" clip-path="url(#p788ecfd3d4)" style="fill: #4caf50"/>
   </g>
   <g id="patch_121">
    <path d="M 337.959612 315.48438 
L 350.820527 315.48438 
L 350.820527 258.018906 
L 337.959612 258.018906 
z
" clip-path="url(#p788ecfd3d4)" style="fill: #4caf50"/>
   </g>
   <g id="patch_122">
    <path d="M 354.035755 321.869433 
L 366.89667 321.869433 
L 366.89667 302.714275 
L 354.035755 302.714275 
z
" clip-path="url(#p788ecfd3d4)" style="fill: #4caf50"/>
   </g>
   <g id="patch_123">
    <path d="M 370.111899 194.16838 
L 382.972813 194.16838 
L 382.972813 175.013222 
L 370.111899 175.013222 
z
" clip-path="url(#p788ecfd3d4)" style="fill: #4caf50"/>
   </g>
   <g id="patch_124">
    <path d="M 386.188042 289.94417 
L 399.048956 289.94417 
L 399.048956 270.789012 
L 386.188042 270.789012 
z
" clip-path="url(#p788ecfd3d4)" style="fill: #4caf50"/>
   </g>
   <g id="patch_125">
    <path d="M 402.264185 347.409644 
L 415.125099 347.409644 
L 415.125099 309.099328 
L 402.264185 309.099328 
z
" clip-path="url(#p788ecfd3d4)" style="fill: #4caf50"/>
   </g>
   <g id="patch_126">
    <path d="M 418.340328 309.099328 
L 431.201243 309.099328 
L 431.201243 232.478696 
L 418.340328 232.478696 
z
" clip-path="url(#p788ecfd3d4)" style="fill: #4caf50"/>
   </g>
   <g id="patch_127">
    <path d="M 434.416471 277.174064 
L 447.277386 277.174064 
L 447.277386 200.553432 
L 434.416471 200.553432 
z
" clip-path="url(#p788ecfd3d4)" style="fill: #4caf50"/>
   </g>
   <g id="patch_128">
    <path d="M 450.492614 226.093643 
L 463.353529 226.093643 
L 463.353529 206.938485 
L 450.492614 206.938485 
z
" clip-path="url(#p788ecfd3d4)" style="fill: #4caf50"/>
   </g>
   <g id="patch_129">
    <path d="M 466.568757 206.938485 
L 479.429672 206.938485 
L 479.429672 72.852379 
L 466.568757 72.852379 
z
" clip-path="url(#p788ecfd3d4)" style="fill: #4caf50"/>
   </g>
   <g id="patch_130">
    <path d="M 482.644901 219.70859 
L 495.505815 219.70859 
L 495.505815 85.622485 
L 482.644901 85.622485 
z
" clip-path="url(#p788ecfd3d4)" style="fill: #4caf50"/>
   </g>
   <g id="patch_131">
    <path d="M 498.721044 175.013222 
L 511.581958 175.013222 
L 511.581958 136.702906 
L 498.721044 136.702906 
z
" clip-path="url(#p788ecfd3d4)" style="fill: #4caf50"/>
   </g>
   <g id="patch_132">
    <path d="M 514.797187 283.559117 
L 527.658101 283.559117 
L 527.658101 187.783327 
L 514.797187 187.783327 
z
" clip-path="url(#p788ecfd3d4)" style="fill: #4caf50"/>
   </g>
   <g id="patch_133">
    <path d="M 530.87333 226.093643 
L 543.734245 226.093643 
L 543.734245 187.783327 
L 530.87333 187.783327 
z
" clip-path="url(#p788ecfd3d4)" style="fill: #4caf50"/>
   </g>
   <g id="patch_134">
    <path d="M 546.949473 455.955539 
L 559.810388 455.955539 
L 559.810388 455.955539 
L 546.949473 455.955539 
z
" clip-path="url(#p788ecfd3d4)" style="fill: #4caf50"/>
   </g>
   <g id="patch_135">
    <path d="M 563.025616 417.645223 
L 575.886531 417.645223 
L 575.886531 398.490065 
L 563.025616 398.490065 
z
" clip-path="url(#p788ecfd3d4)" style="fill: #4caf50"/>
   </g>
   <g id="patch_136">
    <path d="M 579.101759 455.955539 
L 591.962674 455.955539 
L 591.962674 455.955539 
L 579.101759 455.955539 
z
" clip-path="url(#p788ecfd3d4)" style="fill: #4caf50"/>
   </g>
   <g id="patch_137">
    <path d="M 595.177903 455.955539 
L 608.038817 455.955539 
L 608.038817 455.955539 
L 595.177903 455.955539 
z
" clip-path="url(#p788ecfd3d4)" style="fill: #4caf50"/>
   </g>
   <g id="patch_138">
    <path d="M 611.254046 328.254486 
L 624.11496 328.254486 
L 624.11496 289.94417 
L 611.254046 289.94417 
z
" clip-path="url(#p788ecfd3d4)" style="fill: #4caf50"/>
   </g>
   <g id="patch_139">
    <path d="M 627.330189 315.48438 
L 640.191103 315.48438 
L 640.191103 277.174064 
L 627.330189 277.174064 
z
" clip-path="url(#p788ecfd3d4)" style="fill: #4caf50"/>
   </g>
   <g id="patch_140">
    <path d="M 643.406332 328.254486 
L 656.267247 328.254486 
L 656.267247 289.94417 
L 643.406332 289.94417 
z
" clip-path="url(#p788ecfd3d4)" style="fill: #4caf50"/>
   </g>
   <g id="patch_141">
    <path d="M 659.482475 347.409644 
L 672.34339 347.409644 
L 672.34339 309.099328 
L 659.482475 309.099328 
z
" clip-path="url(#p788ecfd3d4)" style="fill: #4caf50"/>
   </g>
   <g id="patch_142">
    <path d="M 675.558618 283.559117 
L 688.419533 283.559117 
L 688.419533 226.093643 
L 675.558618 226.093643 
z
" clip-path="url(#p788ecfd3d4)" style="fill: #4caf50"/>
   </g>
   <g id="patch_143">
    <path d="M 691.634761 264.403959 
L 704.495676 264.403959 
L 704.495676 187.783327 
L 691.634761 187.783327 
z
" clip-path="url(#p788ecfd3d4)" style="fill: #4caf50"/>
   </g>
   <g id="patch_144">
    <path d="M 707.710905 309.099328 
L 720.571819 309.099328 
L 720.571819 194.16838 
L 707.710905 194.16838 
z
" clip-path="url(#p788ecfd3d4)" style="fill: #4caf50"/>
   </g>
   <g id="patch_145">
    <path d="M 723.787048 309.099328 
L 736.647962 309.099328 
L 736.647962 232.478696 
L 723.787048 232.478696 
z
" clip-path="url(#p788ecfd3d4)" style="fill: #4caf50"/>
   </g>
   <g id="patch_146">
    <path d="M 739.863191 296.329222 
L 752.724105 296.329222 
L 752.724105 258.018906 
L 739.863191 258.018906 
z
" clip-path="url(#p788ecfd3d4)" style="fill: #4caf50"/>
   </g>
   <g id="patch_147">
    <path d="M 755.939334 455.955539 
L 768.800249 455.955539 
L 768.800249 455.955539 
L 755.939334 455.955539 
z
" clip-path="url(#p788ecfd3d4)" style="fill: #4caf50"/>
   </g>
   <g id="patch_148">
    <path d="M 772.015477 321.869433 
L 784.876392 321.869433 
L 784.876392 302.714275 
L 772.015477 302.714275 
z
" clip-path="url(#p788ecfd3d4)" style="fill: #4caf50"/>
   </g>
   <g id="patch_149">
    <path d="M 788.09162 455.955539 
L 800.952535 455.955539 
L 800.952535 455.955539 
L 788.09162 455.955539 
z
" clip-path="url(#p788ecfd3d4)" style="fill: #4caf50"/>
   </g>
   <g id="patch_150">
    <path d="M 804.167763 455.955539 
L 817.028678 455.955539 
L 817.028678 455.955539 
L 804.167763 455.955539 
z
" clip-path="url(#p788ecfd3d4)" style="fill: #4caf50"/>
   </g>
   <g id="patch_151">
    <path d="M 820.243907 455.955539 
L 833.104821 455.955539 
L 833.104821 455.955539 
L 820.243907 455.955539 
z
" clip-path="url(#p788ecfd3d4)" style="fill: #4caf50"/>
   </g>
   <g id="patch_152">
    <path d="M 836.32005 455.955539 
L 849.180964 455.955539 
L 849.180964 455.955539 
L 836.32005 455.955539 
z
" clip-path="url(#p788ecfd3d4)" style="fill: #4caf50"/>
   </g>
   <g id="matplotlib.axis_1">
    <g id="xtick_1">
     <g id="line2d_1">
      <defs>
       <path id="m694ae5bba2" d="M 0 0 
L 0 3.5 
" style="stroke: #000000; stroke-width: 0.8"/>
      </defs>
      <g>
       <use xlink:href="#m694ae5bba2" x="55.019493" y="455.955539" style="stroke: #000000; stroke-width: 0.8"/>
      </g>
     </g>
     <g id="text_1">
      <!-- 0 -->
      <g transform="translate(54.721182 472.827413) rotate(-45) scale(0.1 -0.1)">
       <defs>
        <path id="DejaVuSans-30" d="M 2034 4250 
Q 1547 4250 1301 3770 
Q 1056 3291 1056 2328 
Q 1056 1369 1301 889 
Q 1547 409 2034 409 
Q 2525 409 2770 889 
Q 3016 1369 3016 2328 
Q 3016 3291 2770 3770 
Q 2525 4250 2034 4250 
z
M 2034 4750 
Q 2819 4750 3233 4129 
Q 3647 3509 3647 2328 
Q 3647 1150 3233 529 
Q 2819 -91 2034 -91 
Q 1250 -91 836 529 
Q 422 1150 422 2328 
Q 422 3509 836 4129 
Q 1250 4750 2034 4750 
z
" transform="scale(0.015625)"/>
       </defs>
       <use xlink:href="#DejaVuSans-30"/>
      </g>
     </g>
    </g>
    <g id="xtick_2">
     <g id="line2d_2">
      <g>
       <use xlink:href="#m694ae5bba2" x="71.095636" y="455.955539" style="stroke: #000000; stroke-width: 0.8"/>
      </g>
     </g>
    </g>
    <g id="xtick_3">
     <g id="line2d_3">
      <g>
       <use xlink:href="#m694ae5bba2" x="87.171779" y="455.955539" style="stroke: #000000; stroke-width: 0.8"/>
      </g>
     </g>
    </g>
    <g id="xtick_4">
     <g id="line2d_4">
      <g>
       <use xlink:href="#m694ae5bba2" x="103.247922" y="455.955539" style="stroke: #000000; stroke-width: 0.8"/>
      </g>
     </g>
    </g>
    <g id="xtick_5">
     <g id="line2d_5">
      <g>
       <use xlink:href="#m694ae5bba2" x="119.324066" y="455.955539" style="stroke: #000000; stroke-width: 0.8"/>
      </g>
     </g>
    </g>
    <g id="xtick_6">
     <g id="line2d_6">
      <g>
       <use xlink:href="#m694ae5bba2" x="135.400209" y="455.955539" style="stroke: #000000; stroke-width: 0.8"/>
      </g>
     </g>
     <g id="text_2">
      <!-- 5 -->
      <g transform="translate(135.101898 472.827413) rotate(-45) scale(0.1 -0.1)">
       <defs>
        <path id="DejaVuSans-35" d="M 691 4666 
L 3169 4666 
L 3169 4134 
L 1269 4134 
L 1269 2991 
Q 1406 3038 1543 3061 
Q 1681 3084 1819 3084 
Q 2600 3084 3056 2656 
Q 3513 2228 3513 1497 
Q 3513 744 3044 326 
Q 2575 -91 1722 -91 
Q 1428 -91 1123 -41 
Q 819 9 494 109 
L 494 744 
Q 775 591 1075 516 
Q 1375 441 1709 441 
Q 2250 441 2565 725 
Q 2881 1009 2881 1497 
Q 2881 1984 2565 2268 
Q 2250 2553 1709 2553 
Q 1456 2553 1204 2497 
Q 953 2441 691 2322 
L 691 4666 
z
" transform="scale(0.015625)"/>
       </defs>
       <use xlink:href="#DejaVuSans-35"/>
      </g>
     </g>
    </g>
    <g id="xtick_7">
     <g id="line2d_7">
      <g>
       <use xlink:href="#m694ae5bba2" x="151.476352" y="455.955539" style="stroke: #000000; stroke-width: 0.8"/>
      </g>
     </g>
    </g>
    <g id="xtick_8">
     <g id="line2d_8">
      <g>
       <use xlink:href="#m694ae5bba2" x="167.552495" y="455.955539" style="stroke: #000000; stroke-width: 0.8"/>
      </g>
     </g>
    </g>
    <g id="xtick_9">
     <g id="line2d_9">
      <g>
       <use xlink:href="#m694ae5bba2" x="183.628638" y="455.955539" style="stroke: #000000; stroke-width: 0.8"/>
      </g>
     </g>
    </g>
    <g id="xtick_10">
     <g id="line2d_10">
      <g>
       <use xlink:href="#m694ae5bba2" x="199.704781" y="455.955539" style="stroke: #000000; stroke-width: 0.8"/>
      </g>
     </g>
    </g>
    <g id="xtick_11">
     <g id="line2d_11">
      <g>
       <use xlink:href="#m694ae5bba2" x="215.780924" y="455.955539" style="stroke: #000000; stroke-width: 0.8"/>
      </g>
     </g>
     <g id="text_3">
      <!-- 10 -->
      <g transform="translate(213.23313 477.326379) rotate(-45) scale(0.1 -0.1)">
       <defs>
        <path id="DejaVuSans-31" d="M 794 531 
L 1825 531 
L 1825 4091 
L 703 3866 
L 703 4441 
L 1819 4666 
L 2450 4666 
L 2450 531 
L 3481 531 
L 3481 0 
L 794 0 
L 794 531 
z
" transform="scale(0.015625)"/>
       </defs>
       <use xlink:href="#DejaVuSans-31"/>
       <use xlink:href="#DejaVuSans-30" transform="translate(63.623047 0)"/>
      </g>
     </g>
    </g>
    <g id="xtick_12">
     <g id="line2d_12">
      <g>
       <use xlink:href="#m694ae5bba2" x="231.857068" y="455.955539" style="stroke: #000000; stroke-width: 0.8"/>
      </g>
     </g>
     <g id="text_4">
      <!-- 11 -->
      <g transform="translate(229.309273 477.326379) rotate(-45) scale(0.1 -0.1)">
       <use xlink:href="#DejaVuSans-31"/>
       <use xlink:href="#DejaVuSans-31" transform="translate(63.623047 0)"/>
      </g>
     </g>
    </g>
    <g id="xtick_13">
     <g id="line2d_13">
      <g>
       <use xlink:href="#m694ae5bba2" x="247.933211" y="455.955539" style="stroke: #000000; stroke-width: 0.8"/>
      </g>
     </g>
    </g>
    <g id="xtick_14">
     <g id="line2d_14">
      <g>
       <use xlink:href="#m694ae5bba2" x="264.009354" y="455.955539" style="stroke: #000000; stroke-width: 0.8"/>
      </g>
     </g>
    </g>
    <g id="xtick_15">
     <g id="line2d_15">
      <g>
       <use xlink:href="#m694ae5bba2" x="280.085497" y="455.955539" style="stroke: #000000; stroke-width: 0.8"/>
      </g>
     </g>
    </g>
    <g id="xtick_16">
     <g id="line2d_16">
      <g>
       <use xlink:href="#m694ae5bba2" x="296.16164" y="455.955539" style="stroke: #000000; stroke-width: 0.8"/>
      </g>
     </g>
     <g id="text_5">
      <!-- 15 -->
      <g transform="translate(293.613846 477.326379) rotate(-45) scale(0.1 -0.1)">
       <use xlink:href="#DejaVuSans-31"/>
       <use xlink:href="#DejaVuSans-35" transform="translate(63.623047 0)"/>
      </g>
     </g>
    </g>
    <g id="xtick_17">
     <g id="line2d_17">
      <g>
       <use xlink:href="#m694ae5bba2" x="312.237783" y="455.955539" style="stroke: #000000; stroke-width: 0.8"/>
      </g>
     </g>
    </g>
    <g id="xtick_18">
     <g id="line2d_18">
      <g>
       <use xlink:href="#m694ae5bba2" x="328.313926" y="455.955539" style="stroke: #000000; stroke-width: 0.8"/>
      </g>
     </g>
    </g>
    <g id="xtick_19">
     <g id="line2d_19">
      <g>
       <use xlink:href="#m694ae5bba2" x="344.39007" y="455.955539" style="stroke: #000000; stroke-width: 0.8"/>
      </g>
     </g>
    </g>
    <g id="xtick_20">
     <g id="line2d_20">
      <g>
       <use xlink:href="#m694ae5bba2" x="360.466213" y="455.955539" style="stroke: #000000; stroke-width: 0.8"/>
      </g>
     </g>
    </g>
    <g id="xtick_21">
     <g id="line2d_21">
      <g>
       <use xlink:href="#m694ae5bba2" x="376.542356" y="455.955539" style="stroke: #000000; stroke-width: 0.8"/>
      </g>
     </g>
     <g id="text_6">
      <!-- 20 -->
      <g transform="translate(373.994562 477.326379) rotate(-45) scale(0.1 -0.1)">
       <defs>
        <path id="DejaVuSans-32" d="M 1228 531 
L 3431 531 
L 3431 0 
L 469 0 
L 469 531 
Q 828 903 1448 1529 
Q 2069 2156 2228 2338 
Q 2531 2678 2651 2914 
Q 2772 3150 2772 3378 
Q 2772 3750 2511 3984 
Q 2250 4219 1831 4219 
Q 1534 4219 1204 4116 
Q 875 4013 500 3803 
L 500 4441 
Q 881 4594 1212 4672 
Q 1544 4750 1819 4750 
Q 2544 4750 2975 4387 
Q 3406 4025 3406 3419 
Q 3406 3131 3298 2873 
Q 3191 2616 2906 2266 
Q 2828 2175 2409 1742 
Q 1991 1309 1228 531 
z
" transform="scale(0.015625)"/>
       </defs>
       <use xlink:href="#DejaVuSans-32"/>
       <use xlink:href="#DejaVuSans-30" transform="translate(63.623047 0)"/>
      </g>
     </g>
    </g>
    <g id="xtick_22">
     <g id="line2d_22">
      <g>
       <use xlink:href="#m694ae5bba2" x="392.618499" y="455.955539" style="stroke: #000000; stroke-width: 0.8"/>
      </g>
     </g>
    </g>
    <g id="xtick_23">
     <g id="line2d_23">
      <g>
       <use xlink:href="#m694ae5bba2" x="408.694642" y="455.955539" style="stroke: #000000; stroke-width: 0.8"/>
      </g>
     </g>
    </g>
    <g id="xtick_24">
     <g id="line2d_24">
      <g>
       <use xlink:href="#m694ae5bba2" x="424.770785" y="455.955539" style="stroke: #000000; stroke-width: 0.8"/>
      </g>
     </g>
     <g id="text_7">
      <!-- 23 -->
      <g transform="translate(422.222991 477.326379) rotate(-45) scale(0.1 -0.1)">
       <defs>
        <path id="DejaVuSans-33" d="M 2597 2516 
Q 3050 2419 3304 2112 
Q 3559 1806 3559 1356 
Q 3559 666 3084 287 
Q 2609 -91 1734 -91 
Q 1441 -91 1130 -33 
Q 819 25 488 141 
L 488 750 
Q 750 597 1062 519 
Q 1375 441 1716 441 
Q 2309 441 2620 675 
Q 2931 909 2931 1356 
Q 2931 1769 2642 2001 
Q 2353 2234 1838 2234 
L 1294 2234 
L 1294 2753 
L 1863 2753 
Q 2328 2753 2575 2939 
Q 2822 3125 2822 3475 
Q 2822 3834 2567 4026 
Q 2313 4219 1838 4219 
Q 1578 4219 1281 4162 
Q 984 4106 628 3988 
L 628 4550 
Q 988 4650 1302 4700 
Q 1616 4750 1894 4750 
Q 2613 4750 3031 4423 
Q 3450 4097 3450 3541 
Q 3450 3153 3228 2886 
Q 3006 2619 2597 2516 
z
" transform="scale(0.015625)"/>
       </defs>
       <use xlink:href="#DejaVuSans-32"/>
       <use xlink:href="#DejaVuSans-33" transform="translate(63.623047 0)"/>
      </g>
     </g>
    </g>
    <g id="xtick_25">
     <g id="line2d_25">
      <g>
       <use xlink:href="#m694ae5bba2" x="440.846928" y="455.955539" style="stroke: #000000; stroke-width: 0.8"/>
      </g>
     </g>
    </g>
    <g id="xtick_26">
     <g id="line2d_26">
      <g>
       <use xlink:href="#m694ae5bba2" x="456.923072" y="455.955539" style="stroke: #000000; stroke-width: 0.8"/>
      </g>
     </g>
     <g id="text_8">
      <!-- 25 -->
      <g transform="translate(454.375277 477.326379) rotate(-45) scale(0.1 -0.1)">
       <use xlink:href="#DejaVuSans-32"/>
       <use xlink:href="#DejaVuSans-35" transform="translate(63.623047 0)"/>
      </g>
     </g>
    </g>
    <g id="xtick_27">
     <g id="line2d_27">
      <g>
       <use xlink:href="#m694ae5bba2" x="472.999215" y="455.955539" style="stroke: #000000; stroke-width: 0.8"/>
      </g>
     </g>
    </g>
    <g id="xtick_28">
     <g id="line2d_28">
      <g>
       <use xlink:href="#m694ae5bba2" x="489.075358" y="455.955539" style="stroke: #000000; stroke-width: 0.8"/>
      </g>
     </g>
    </g>
    <g id="xtick_29">
     <g id="line2d_29">
      <g>
       <use xlink:href="#m694ae5bba2" x="505.151501" y="455.955539" style="stroke: #000000; stroke-width: 0.8"/>
      </g>
     </g>
    </g>
    <g id="xtick_30">
     <g id="line2d_30">
      <g>
       <use xlink:href="#m694ae5bba2" x="521.227644" y="455.955539" style="stroke: #000000; stroke-width: 0.8"/>
      </g>
     </g>
    </g>
    <g id="xtick_31">
     <g id="line2d_31">
      <g>
       <use xlink:href="#m694ae5bba2" x="537.303787" y="455.955539" style="stroke: #000000; stroke-width: 0.8"/>
      </g>
     </g>
     <g id="text_9">
      <!-- 30 -->
      <g transform="translate(534.755993 477.326379) rotate(-45) scale(0.1 -0.1)">
       <use xlink:href="#DejaVuSans-33"/>
       <use xlink:href="#DejaVuSans-30" transform="translate(63.623047 0)"/>
      </g>
     </g>
    </g>
    <g id="xtick_32">
     <g id="line2d_32">
      <g>
       <use xlink:href="#m694ae5bba2" x="553.37993" y="455.955539" style="stroke: #000000; stroke-width: 0.8"/>
      </g>
     </g>
    </g>
    <g id="xtick_33">
     <g id="line2d_33">
      <g>
       <use xlink:href="#m694ae5bba2" x="569.456074" y="455.955539" style="stroke: #000000; stroke-width: 0.8"/>
      </g>
     </g>
    </g>
    <g id="xtick_34">
     <g id="line2d_34">
      <g>
       <use xlink:href="#m694ae5bba2" x="585.532217" y="455.955539" style="stroke: #000000; stroke-width: 0.8"/>
      </g>
     </g>
    </g>
    <g id="xtick_35">
     <g id="line2d_35">
      <g>
       <use xlink:href="#m694ae5bba2" x="601.60836" y="455.955539" style="stroke: #000000; stroke-width: 0.8"/>
      </g>
     </g>
    </g>
    <g id="xtick_36">
     <g id="line2d_36">
      <g>
       <use xlink:href="#m694ae5bba2" x="617.684503" y="455.955539" style="stroke: #000000; stroke-width: 0.8"/>
      </g>
     </g>
     <g id="text_10">
      <!-- 35 -->
      <g transform="translate(615.136709 477.326379) rotate(-45) scale(0.1 -0.1)">
       <use xlink:href="#DejaVuSans-33"/>
       <use xlink:href="#DejaVuSans-35" transform="translate(63.623047 0)"/>
      </g>
     </g>
    </g>
    <g id="xtick_37">
     <g id="line2d_37">
      <g>
       <use xlink:href="#m694ae5bba2" x="633.760646" y="455.955539" style="stroke: #000000; stroke-width: 0.8"/>
      </g>
     </g>
    </g>
    <g id="xtick_38">
     <g id="line2d_38">
      <g>
       <use xlink:href="#m694ae5bba2" x="649.836789" y="455.955539" style="stroke: #000000; stroke-width: 0.8"/>
      </g>
     </g>
    </g>
    <g id="xtick_39">
     <g id="line2d_39">
      <g>
       <use xlink:href="#m694ae5bba2" x="665.912932" y="455.955539" style="stroke: #000000; stroke-width: 0.8"/>
      </g>
     </g>
    </g>
    <g id="xtick_40">
     <g id="line2d_40">
      <g>
       <use xlink:href="#m694ae5bba2" x="681.989076" y="455.955539" style="stroke: #000000; stroke-width: 0.8"/>
      </g>
     </g>
    </g>
    <g id="xtick_41">
     <g id="line2d_41">
      <g>
       <use xlink:href="#m694ae5bba2" x="698.065219" y="455.955539" style="stroke: #000000; stroke-width: 0.8"/>
      </g>
     </g>
     <g id="text_11">
      <!-- 40 -->
      <g transform="translate(695.517425 477.326379) rotate(-45) scale(0.1 -0.1)">
       <defs>
        <path id="DejaVuSans-34" d="M 2419 4116 
L 825 1625 
L 2419 1625 
L 2419 4116 
z
M 2253 4666 
L 3047 4666 
L 3047 1625 
L 3713 1625 
L 3713 1100 
L 3047 1100 
L 3047 0 
L 2419 0 
L 2419 1100 
L 313 1100 
L 313 1709 
L 2253 4666 
z
" transform="scale(0.015625)"/>
       </defs>
       <use xlink:href="#DejaVuSans-34"/>
       <use xlink:href="#DejaVuSans-30" transform="translate(63.623047 0)"/>
      </g>
     </g>
    </g>
    <g id="xtick_42">
     <g id="line2d_42">
      <g>
       <use xlink:href="#m694ae5bba2" x="714.141362" y="455.955539" style="stroke: #000000; stroke-width: 0.8"/>
      </g>
     </g>
    </g>
    <g id="xtick_43">
     <g id="line2d_43">
      <g>
       <use xlink:href="#m694ae5bba2" x="730.217505" y="455.955539" style="stroke: #000000; stroke-width: 0.8"/>
      </g>
     </g>
    </g>
    <g id="xtick_44">
     <g id="line2d_44">
      <g>
       <use xlink:href="#m694ae5bba2" x="746.293648" y="455.955539" style="stroke: #000000; stroke-width: 0.8"/>
      </g>
     </g>
    </g>
    <g id="xtick_45">
     <g id="line2d_45">
      <g>
       <use xlink:href="#m694ae5bba2" x="762.369791" y="455.955539" style="stroke: #000000; stroke-width: 0.8"/>
      </g>
     </g>
    </g>
    <g id="xtick_46">
     <g id="line2d_46">
      <g>
       <use xlink:href="#m694ae5bba2" x="778.445934" y="455.955539" style="stroke: #000000; stroke-width: 0.8"/>
      </g>
     </g>
     <g id="text_12">
      <!-- 45 -->
      <g transform="translate(775.89814 477.326379) rotate(-45) scale(0.1 -0.1)">
       <use xlink:href="#DejaVuSans-34"/>
       <use xlink:href="#DejaVuSans-35" transform="translate(63.623047 0)"/>
      </g>
     </g>
    </g>
    <g id="xtick_47">
     <g id="line2d_47">
      <g>
       <use xlink:href="#m694ae5bba2" x="794.522078" y="455.955539" style="stroke: #000000; stroke-width: 0.8"/>
      </g>
     </g>
    </g>
    <g id="xtick_48">
     <g id="line2d_48">
      <g>
       <use xlink:href="#m694ae5bba2" x="810.598221" y="455.955539" style="stroke: #000000; stroke-width: 0.8"/>
      </g>
     </g>
     <g id="text_13">
      <!-- 47 -->
      <g transform="translate(808.050427 477.326379) rotate(-45) scale(0.1 -0.1)">
       <defs>
        <path id="DejaVuSans-37" d="M 525 4666 
L 3525 4666 
L 3525 4397 
L 1831 0 
L 1172 0 
L 2766 4134 
L 525 4134 
L 525 4666 
z
" transform="scale(0.015625)"/>
       </defs>
       <use xlink:href="#DejaVuSans-34"/>
       <use xlink:href="#DejaVuSans-37" transform="translate(63.623047 0)"/>
      </g>
     </g>
    </g>
    <g id="xtick_49">
     <g id="line2d_49">
      <g>
       <use xlink:href="#m694ae5bba2" x="826.674364" y="455.955539" style="stroke: #000000; stroke-width: 0.8"/>
      </g>
     </g>
    </g>
    <g id="xtick_50">
     <g id="line2d_50">
      <g>
       <use xlink:href="#m694ae5bba2" x="842.750507" y="455.955539" style="stroke: #000000; stroke-width: 0.8"/>
      </g>
     </g>
    </g>
    <g id="text_14">
     <!-- Game Minute -->
     <g transform="translate(415.333438 490.395378) scale(0.1 -0.1)">
      <defs>
       <path id="DejaVuSans-47" d="M 3809 666 
L 3809 1919 
L 2778 1919 
L 2778 2438 
L 4434 2438 
L 4434 434 
Q 4069 175 3628 42 
Q 3188 -91 2688 -91 
Q 1594 -91 976 548 
Q 359 1188 359 2328 
Q 359 3472 976 4111 
Q 1594 4750 2688 4750 
Q 3144 4750 3555 4637 
Q 3966 4525 4313 4306 
L 4313 3634 
Q 3963 3931 3569 4081 
Q 3175 4231 2741 4231 
Q 1884 4231 1454 3753 
Q 1025 3275 1025 2328 
Q 1025 1384 1454 906 
Q 1884 428 2741 428 
Q 3075 428 3337 486 
Q 3600 544 3809 666 
z
" transform="scale(0.015625)"/>
       <path id="DejaVuSans-61" d="M 2194 1759 
Q 1497 1759 1228 1600 
Q 959 1441 959 1056 
Q 959 750 1161 570 
Q 1363 391 1709 391 
Q 2188 391 2477 730 
Q 2766 1069 2766 1631 
L 2766 1759 
L 2194 1759 
z
M 3341 1997 
L 3341 0 
L 2766 0 
L 2766 531 
Q 2569 213 2275 61 
Q 1981 -91 1556 -91 
Q 1019 -91 701 211 
Q 384 513 384 1019 
Q 384 1609 779 1909 
Q 1175 2209 1959 2209 
L 2766 2209 
L 2766 2266 
Q 2766 2663 2505 2880 
Q 2244 3097 1772 3097 
Q 1472 3097 1187 3025 
Q 903 2953 641 2809 
L 641 3341 
Q 956 3463 1253 3523 
Q 1550 3584 1831 3584 
Q 2591 3584 2966 3190 
Q 3341 2797 3341 1997 
z
" transform="scale(0.015625)"/>
       <path id="DejaVuSans-6d" d="M 3328 2828 
Q 3544 3216 3844 3400 
Q 4144 3584 4550 3584 
Q 5097 3584 5394 3201 
Q 5691 2819 5691 2113 
L 5691 0 
L 5113 0 
L 5113 2094 
Q 5113 2597 4934 2840 
Q 4756 3084 4391 3084 
Q 3944 3084 3684 2787 
Q 3425 2491 3425 1978 
L 3425 0 
L 2847 0 
L 2847 2094 
Q 2847 2600 2669 2842 
Q 2491 3084 2119 3084 
Q 1678 3084 1418 2786 
Q 1159 2488 1159 1978 
L 1159 0 
L 581 0 
L 581 3500 
L 1159 3500 
L 1159 2956 
Q 1356 3278 1631 3431 
Q 1906 3584 2284 3584 
Q 2666 3584 2933 3390 
Q 3200 3197 3328 2828 
z
" transform="scale(0.015625)"/>
       <path id="DejaVuSans-65" d="M 3597 1894 
L 3597 1613 
L 953 1613 
Q 991 1019 1311 708 
Q 1631 397 2203 397 
Q 2534 397 2845 478 
Q 3156 559 3463 722 
L 3463 178 
Q 3153 47 2828 -22 
Q 2503 -91 2169 -91 
Q 1331 -91 842 396 
Q 353 884 353 1716 
Q 353 2575 817 3079 
Q 1281 3584 2069 3584 
Q 2775 3584 3186 3129 
Q 3597 2675 3597 1894 
z
M 3022 2063 
Q 3016 2534 2758 2815 
Q 2500 3097 2075 3097 
Q 1594 3097 1305 2825 
Q 1016 2553 972 2059 
L 3022 2063 
z
" transform="scale(0.015625)"/>
       <path id="DejaVuSans-20" transform="scale(0.015625)"/>
       <path id="DejaVuSans-4d" d="M 628 4666 
L 1569 4666 
L 2759 1491 
L 3956 4666 
L 4897 4666 
L 4897 0 
L 4281 0 
L 4281 4097 
L 3078 897 
L 2444 897 
L 1241 4097 
L 1241 0 
L 628 0 
L 628 4666 
z
" transform="scale(0.015625)"/>
       <path id="DejaVuSans-69" d="M 603 3500 
L 1178 3500 
L 1178 0 
L 603 0 
L 603 3500 
z
M 603 4863 
L 1178 4863 
L 1178 4134 
L 603 4134 
L 603 4863 
z
" transform="scale(0.015625)"/>
       <path id="DejaVuSans-6e" d="M 3513 2113 
L 3513 0 
L 2938 0 
L 2938 2094 
Q 2938 2591 2744 2837 
Q 2550 3084 2163 3084 
Q 1697 3084 1428 2787 
Q 1159 2491 1159 1978 
L 1159 0 
L 581 0 
L 581 3500 
L 1159 3500 
L 1159 2956 
Q 1366 3272 1645 3428 
Q 1925 3584 2291 3584 
Q 2894 3584 3203 3211 
Q 3513 2838 3513 2113 
z
" transform="scale(0.015625)"/>
       <path id="DejaVuSans-75" d="M 544 1381 
L 544 3500 
L 1119 3500 
L 1119 1403 
Q 1119 906 1312 657 
Q 1506 409 1894 409 
Q 2359 409 2629 706 
Q 2900 1003 2900 1516 
L 2900 3500 
L 3475 3500 
L 3475 0 
L 2900 0 
L 2900 538 
Q 2691 219 2414 64 
Q 2138 -91 1772 -91 
Q 1169 -91 856 284 
Q 544 659 544 1381 
z
M 1991 3584 
L 1991 3584 
z
" transform="scale(0.015625)"/>
       <path id="DejaVuSans-74" d="M 1172 4494 
L 1172 3500 
L 2356 3500 
L 2356 3053 
L 1172 3053 
L 1172 1153 
Q 1172 725 1289 603 
Q 1406 481 1766 481 
L 2356 481 
L 2356 0 
L 1766 0 
Q 1100 0 847 248 
Q 594 497 594 1153 
L 594 3053 
L 172 3053 
L 172 3500 
L 594 3500 
L 594 4494 
L 1172 4494 
z
" transform="scale(0.015625)"/>
      </defs>
      <use xlink:href="#DejaVuSans-47"/>
      <use xlink:href="#DejaVuSans-61" transform="translate(77.490234 0)"/>
      <use xlink:href="#DejaVuSans-6d" transform="translate(138.769531 0)"/>
      <use xlink:href="#DejaVuSans-65" transform="translate(236.181641 0)"/>
      <use xlink:href="#DejaVuSans-20" transform="translate(297.705078 0)"/>
      <use xlink:href="#DejaVuSans-4d" transform="translate(329.492188 0)"/>
      <use xlink:href="#DejaVuSans-69" transform="translate(415.771484 0)"/>
      <use xlink:href="#DejaVuSans-6e" transform="translate(443.554688 0)"/>
      <use xlink:href="#DejaVuSans-75" transform="translate(506.933594 0)"/>
      <use xlink:href="#DejaVuSans-74" transform="translate(570.3125 0)"/>
      <use xlink:href="#DejaVuSans-65" transform="translate(609.521484 0)"/>
     </g>
    </g>
   </g>
   <g id="matplotlib.axis_2">
    <g id="ytick_1">
     <g id="line2d_51">
      <path d="M 44.57 455.955539 
L 853.2 455.955539 
" clip-path="url(#p788ecfd3d4)" style="fill: none; stroke-dasharray: 2.96,1.28; stroke-dashoffset: 0; stroke: #b0b0b0; stroke-opacity: 0.6; stroke-width: 0.8"/>
     </g>
     <g id="line2d_52">
      <defs>
       <path id="m46e01fd9c7" d="M 0 0 
L -3.5 0 
" style="stroke: #000000; stroke-width: 0.8"/>
      </defs>
      <g>
       <use xlink:href="#m46e01fd9c7" x="44.57" y="455.955539" style="stroke: #000000; stroke-width: 0.8"/>
      </g>
     </g>
     <g id="text_15">
      <!-- 0 -->
      <g transform="translate(31.2075 459.754758) scale(0.1 -0.1)">
       <use xlink:href="#DejaVuSans-30"/>
      </g>
     </g>
    </g>
    <g id="ytick_2">
     <g id="line2d_53">
      <path d="M 44.57 392.105012 
L 853.2 392.105012 
" clip-path="url(#p788ecfd3d4)" style="fill: none; stroke-dasharray: 2.96,1.28; stroke-dashoffset: 0; stroke: #b0b0b0; stroke-opacity: 0.6; stroke-width: 0.8"/>
     </g>
     <g id="line2d_54">
      <g>
       <use xlink:href="#m46e01fd9c7" x="44.57" y="392.105012" style="stroke: #000000; stroke-width: 0.8"/>
      </g>
     </g>
     <g id="text_16">
      <!-- 10 -->
      <g transform="translate(24.845 395.904231) scale(0.1 -0.1)">
       <use xlink:href="#DejaVuSans-31"/>
       <use xlink:href="#DejaVuSans-30" transform="translate(63.623047 0)"/>
      </g>
     </g>
    </g>
    <g id="ytick_3">
     <g id="line2d_55">
      <path d="M 44.57 328.254486 
L 853.2 328.254486 
" clip-path="url(#p788ecfd3d4)" style="fill: none; stroke-dasharray: 2.96,1.28; stroke-dashoffset: 0; stroke: #b0b0b0; stroke-opacity: 0.6; stroke-width: 0.8"/>
     </g>
     <g id="line2d_56">
      <g>
       <use xlink:href="#m46e01fd9c7" x="44.57" y="328.254486" style="stroke: #000000; stroke-width: 0.8"/>
      </g>
     </g>
     <g id="text_17">
      <!-- 20 -->
      <g transform="translate(24.845 332.053704) scale(0.1 -0.1)">
       <use xlink:href="#DejaVuSans-32"/>
       <use xlink:href="#DejaVuSans-30" transform="translate(63.623047 0)"/>
      </g>
     </g>
    </g>
    <g id="ytick_4">
     <g id="line2d_57">
      <path d="M 44.57 264.403959 
L 853.2 264.403959 
" clip-path="url(#p788ecfd3d4)" style="fill: none; stroke-dasharray: 2.96,1.28; stroke-dashoffset: 0; stroke: #b0b0b0; stroke-opacity: 0.6; stroke-width: 0.8"/>
     </g>
     <g id="line2d_58">
      <g>
       <use xlink:href="#m46e01fd9c7" x="44.57" y="264.403959" style="stroke: #000000; stroke-width: 0.8"/>
      </g>
     </g>
     <g id="text_18">
      <!-- 30 -->
      <g transform="translate(24.845 268.203178) scale(0.1 -0.1)">
       <use xlink:href="#DejaVuSans-33"/>
       <use xlink:href="#DejaVuSans-30" transform="translate(63.623047 0)"/>
      </g>
     </g>
    </g>
    <g id="ytick_5">
     <g id="line2d_59">
      <path d="M 44.57 200.553432 
L 853.2 200.553432 
" clip-path="url(#p788ecfd3d4)" style="fill: none; stroke-dasharray: 2.96,1.28; stroke-dashoffset: 0; stroke: #b0b0b0; stroke-opacity: 0.6; stroke-width: 0.8"/>
     </g>
     <g id="line2d_60">
      <g>
       <use xlink:href="#m46e01fd9c7" x="44.57" y="200.553432" style="stroke: #000000; stroke-width: 0.8"/>
      </g>
     </g>
     <g id="text_19">
      <!-- 40 -->
      <g transform="translate(24.845 204.352651) scale(0.1 -0.1)">
       <use xlink:href="#DejaVuSans-34"/>
       <use xlink:href="#DejaVuSans-30" transform="translate(63.623047 0)"/>
      </g>
     </g>
    </g>
    <g id="ytick_6">
     <g id="line2d_61">
      <path d="M 44.57 136.702906 
L 853.2 136.702906 
" clip-path="url(#p788ecfd3d4)" style="fill: none; stroke-dasharray: 2.96,1.28; stroke-dashoffset: 0; stroke: #b0b0b0; stroke-opacity: 0.6; stroke-width: 0.8"/>
     </g>
     <g id="line2d_62">
      <g>
       <use xlink:href="#m46e01fd9c7" x="44.57" y="136.702906" style="stroke: #000000; stroke-width: 0.8"/>
      </g>
     </g>
     <g id="text_20">
      <!-- 50 -->
      <g transform="translate(24.845 140.502125) scale(0.1 -0.1)">
       <use xlink:href="#DejaVuSans-35"/>
       <use xlink:href="#DejaVuSans-30" transform="translate(63.623047 0)"/>
      </g>
     </g>
    </g>
    <g id="ytick_7">
     <g id="line2d_63">
      <path d="M 44.57 72.852379 
L 853.2 72.852379 
" clip-path="url(#p788ecfd3d4)" style="fill: none; stroke-dasharray: 2.96,1.28; stroke-dashoffset: 0; stroke: #b0b0b0; stroke-opacity: 0.6; stroke-width: 0.8"/>
     </g>
     <g id="line2d_64">
      <g>
       <use xlink:href="#m46e01fd9c7" x="44.57" y="72.852379" style="stroke: #000000; stroke-width: 0.8"/>
      </g>
     </g>
     <g id="text_21">
      <!-- 60 -->
      <g transform="translate(24.845 76.651598) scale(0.1 -0.1)">
       <defs>
        <path id="DejaVuSans-36" d="M 2113 2584 
Q 1688 2584 1439 2293 
Q 1191 2003 1191 1497 
Q 1191 994 1439 701 
Q 1688 409 2113 409 
Q 2538 409 2786 701 
Q 3034 994 3034 1497 
Q 3034 2003 2786 2293 
Q 2538 2584 2113 2584 
z
M 3366 4563 
L 3366 3988 
Q 3128 4100 2886 4159 
Q 2644 4219 2406 4219 
Q 1781 4219 1451 3797 
Q 1122 3375 1075 2522 
Q 1259 2794 1537 2939 
Q 1816 3084 2150 3084 
Q 2853 3084 3261 2657 
Q 3669 2231 3669 1497 
Q 3669 778 3244 343 
Q 2819 -91 2113 -91 
Q 1303 -91 875 529 
Q 447 1150 447 2328 
Q 447 3434 972 4092 
Q 1497 4750 2381 4750 
Q 2619 4750 2861 4703 
Q 3103 4656 3366 4563 
z
" transform="scale(0.015625)"/>
       </defs>
       <use xlink:href="#DejaVuSans-36"/>
       <use xlink:href="#DejaVuSans-30" transform="translate(63.623047 0)"/>
      </g>
     </g>
    </g>
    <g id="text_22">
     <!-- Points Scored -->
     <g transform="translate(18.765312 275.199019) rotate(-90) scale(0.1 -0.1)">
      <defs>
       <path id="DejaVuSans-50" d="M 1259 4147 
L 1259 2394 
L 2053 2394 
Q 2494 2394 2734 2622 
Q 2975 2850 2975 3272 
Q 2975 3691 2734 3919 
Q 2494 4147 2053 4147 
L 1259 4147 
z
M 628 4666 
L 2053 4666 
Q 2838 4666 3239 4311 
Q 3641 3956 3641 3272 
Q 3641 2581 3239 2228 
Q 2838 1875 2053 1875 
L 1259 1875 
L 1259 0 
L 628 0 
L 628 4666 
z
" transform="scale(0.015625)"/>
       <path id="DejaVuSans-6f" d="M 1959 3097 
Q 1497 3097 1228 2736 
Q 959 2375 959 1747 
Q 959 1119 1226 758 
Q 1494 397 1959 397 
Q 2419 397 2687 759 
Q 2956 1122 2956 1747 
Q 2956 2369 2687 2733 
Q 2419 3097 1959 3097 
z
M 1959 3584 
Q 2709 3584 3137 3096 
Q 3566 2609 3566 1747 
Q 3566 888 3137 398 
Q 2709 -91 1959 -91 
Q 1206 -91 779 398 
Q 353 888 353 1747 
Q 353 2609 779 3096 
Q 1206 3584 1959 3584 
z
" transform="scale(0.015625)"/>
       <path id="DejaVuSans-73" d="M 2834 3397 
L 2834 2853 
Q 2591 2978 2328 3040 
Q 2066 3103 1784 3103 
Q 1356 3103 1142 2972 
Q 928 2841 928 2578 
Q 928 2378 1081 2264 
Q 1234 2150 1697 2047 
L 1894 2003 
Q 2506 1872 2764 1633 
Q 3022 1394 3022 966 
Q 3022 478 2636 193 
Q 2250 -91 1575 -91 
Q 1294 -91 989 -36 
Q 684 19 347 128 
L 347 722 
Q 666 556 975 473 
Q 1284 391 1588 391 
Q 1994 391 2212 530 
Q 2431 669 2431 922 
Q 2431 1156 2273 1281 
Q 2116 1406 1581 1522 
L 1381 1569 
Q 847 1681 609 1914 
Q 372 2147 372 2553 
Q 372 3047 722 3315 
Q 1072 3584 1716 3584 
Q 2034 3584 2315 3537 
Q 2597 3491 2834 3397 
z
" transform="scale(0.015625)"/>
       <path id="DejaVuSans-53" d="M 3425 4513 
L 3425 3897 
Q 3066 4069 2747 4153 
Q 2428 4238 2131 4238 
Q 1616 4238 1336 4038 
Q 1056 3838 1056 3469 
Q 1056 3159 1242 3001 
Q 1428 2844 1947 2747 
L 2328 2669 
Q 3034 2534 3370 2195 
Q 3706 1856 3706 1288 
Q 3706 609 3251 259 
Q 2797 -91 1919 -91 
Q 1588 -91 1214 -16 
Q 841 59 441 206 
L 441 856 
Q 825 641 1194 531 
Q 1563 422 1919 422 
Q 2459 422 2753 634 
Q 3047 847 3047 1241 
Q 3047 1584 2836 1778 
Q 2625 1972 2144 2069 
L 1759 2144 
Q 1053 2284 737 2584 
Q 422 2884 422 3419 
Q 422 4038 858 4394 
Q 1294 4750 2059 4750 
Q 2388 4750 2728 4690 
Q 3069 4631 3425 4513 
z
" transform="scale(0.015625)"/>
       <path id="DejaVuSans-63" d="M 3122 3366 
L 3122 2828 
Q 2878 2963 2633 3030 
Q 2388 3097 2138 3097 
Q 1578 3097 1268 2742 
Q 959 2388 959 1747 
Q 959 1106 1268 751 
Q 1578 397 2138 397 
Q 2388 397 2633 464 
Q 2878 531 3122 666 
L 3122 134 
Q 2881 22 2623 -34 
Q 2366 -91 2075 -91 
Q 1284 -91 818 406 
Q 353 903 353 1747 
Q 353 2603 823 3093 
Q 1294 3584 2113 3584 
Q 2378 3584 2631 3529 
Q 2884 3475 3122 3366 
z
" transform="scale(0.015625)"/>
       <path id="DejaVuSans-72" d="M 2631 2963 
Q 2534 3019 2420 3045 
Q 2306 3072 2169 3072 
Q 1681 3072 1420 2755 
Q 1159 2438 1159 1844 
L 1159 0 
L 581 0 
L 581 3500 
L 1159 3500 
L 1159 2956 
Q 1341 3275 1631 3429 
Q 1922 3584 2338 3584 
Q 2397 3584 2469 3576 
Q 2541 3569 2628 3553 
L 2631 2963 
z
" transform="scale(0.015625)"/>
       <path id="DejaVuSans-64" d="M 2906 2969 
L 2906 4863 
L 3481 4863 
L 3481 0 
L 2906 0 
L 2906 525 
Q 2725 213 2448 61 
Q 2172 -91 1784 -91 
Q 1150 -91 751 415 
Q 353 922 353 1747 
Q 353 2572 751 3078 
Q 1150 3584 1784 3584 
Q 2172 3584 2448 3432 
Q 2725 3281 2906 2969 
z
M 947 1747 
Q 947 1113 1208 752 
Q 1469 391 1925 391 
Q 2381 391 2643 752 
Q 2906 1113 2906 1747 
Q 2906 2381 2643 2742 
Q 2381 3103 1925 3103 
Q 1469 3103 1208 2742 
Q 947 2381 947 1747 
z
" transform="scale(0.015625)"/>
      </defs>
      <use xlink:href="#DejaVuSans-50"/>
      <use xlink:href="#DejaVuSans-6f" transform="translate(56.677734 0)"/>
      <use xlink:href="#DejaVuSans-69" transform="translate(117.859375 0)"/>
      <use xlink:href="#DejaVuSans-6e" transform="translate(145.642578 0)"/>
      <use xlink:href="#DejaVuSans-74" transform="translate(209.021484 0)"/>
      <use xlink:href="#DejaVuSans-73" transform="translate(248.230469 0)"/>
      <use xlink:href="#DejaVuSans-20" transform="translate(300.330078 0)"/>
      <use xlink:href="#DejaVuSans-53" transform="translate(332.117188 0)"/>
      <use xlink:href="#DejaVuSans-63" transform="translate(395.59375 0)"/>
      <use xlink:href="#DejaVuSans-6f" transform="translate(450.574219 0)"/>
      <use xlink:href="#DejaVuSans-72" transform="translate(511.755859 0)"/>
      <use xlink:href="#DejaVuSans-65" transform="translate(550.619141 0)"/>
      <use xlink:href="#DejaVuSans-64" transform="translate(612.142578 0)"/>
     </g>
    </g>
   </g>
   <g id="patch_153">
    <path d="M 44.57 455.955539 
L 44.57 26.88 
" style="fill: none; stroke: #000000; stroke-width: 0.8; stroke-linejoin: miter; stroke-linecap: square"/>
   </g>
   <g id="patch_154">
    <path d="M 853.2 455.955539 
L 853.2 26.88 
" style="fill: none; stroke: #000000; stroke-width: 0.8; stroke-linejoin: miter; stroke-linecap: square"/>
   </g>
   <g id="patch_155">
    <path d="M 44.57 455.955539 
L 853.2 455.955539 
" style="fill: none; stroke: #000000; stroke-width: 0.8; stroke-linejoin: miter; stroke-linecap: square"/>
   </g>
   <g id="patch_156">
    <path d="M 44.57 26.88 
L 853.2 26.88 
" style="fill: none; stroke: #000000; stroke-width: 0.8; stroke-linejoin: miter; stroke-linecap: square"/>
   </g>
   <g id="text_23">
    <!-- Franz Wagner Scoring Timeline (2023-24) -->
    <g transform="translate(324.365313 20.88) scale(0.12 -0.12)">
     <defs>
      <path id="DejaVuSans-46" d="M 628 4666 
L 3309 4666 
L 3309 4134 
L 1259 4134 
L 1259 2759 
L 3109 2759 
L 3109 2228 
L 1259 2228 
L 1259 0 
L 628 0 
L 628 4666 
z
" transform="scale(0.015625)"/>
      <path id="DejaVuSans-7a" d="M 353 3500 
L 3084 3500 
L 3084 2975 
L 922 459 
L 3084 459 
L 3084 0 
L 275 0 
L 275 525 
L 2438 3041 
L 353 3041 
L 353 3500 
z
" transform="scale(0.015625)"/>
      <path id="DejaVuSans-57" d="M 213 4666 
L 850 4666 
L 1831 722 
L 2809 4666 
L 3519 4666 
L 4500 722 
L 5478 4666 
L 6119 4666 
L 4947 0 
L 4153 0 
L 3169 4050 
L 2175 0 
L 1381 0 
L 213 4666 
z
" transform="scale(0.015625)"/>
      <path id="DejaVuSans-67" d="M 2906 1791 
Q 2906 2416 2648 2759 
Q 2391 3103 1925 3103 
Q 1463 3103 1205 2759 
Q 947 2416 947 1791 
Q 947 1169 1205 825 
Q 1463 481 1925 481 
Q 2391 481 2648 825 
Q 2906 1169 2906 1791 
z
M 3481 434 
Q 3481 -459 3084 -895 
Q 2688 -1331 1869 -1331 
Q 1566 -1331 1297 -1286 
Q 1028 -1241 775 -1147 
L 775 -588 
Q 1028 -725 1275 -790 
Q 1522 -856 1778 -856 
Q 2344 -856 2625 -561 
Q 2906 -266 2906 331 
L 2906 616 
Q 2728 306 2450 153 
Q 2172 0 1784 0 
Q 1141 0 747 490 
Q 353 981 353 1791 
Q 353 2603 747 3093 
Q 1141 3584 1784 3584 
Q 2172 3584 2450 3431 
Q 2728 3278 2906 2969 
L 2906 3500 
L 3481 3500 
L 3481 434 
z
" transform="scale(0.015625)"/>
      <path id="DejaVuSans-54" d="M -19 4666 
L 3928 4666 
L 3928 4134 
L 2272 4134 
L 2272 0 
L 1638 0 
L 1638 4134 
L -19 4134 
L -19 4666 
z
" transform="scale(0.015625)"/>
      <path id="DejaVuSans-6c" d="M 603 4863 
L 1178 4863 
L 1178 0 
L 603 0 
L 603 4863 
z
" transform="scale(0.015625)"/>
      <path id="DejaVuSans-28" d="M 1984 4856 
Q 1566 4138 1362 3434 
Q 1159 2731 1159 2009 
Q 1159 1288 1364 580 
Q 1569 -128 1984 -844 
L 1484 -844 
Q 1016 -109 783 600 
Q 550 1309 550 2009 
Q 550 2706 781 3412 
Q 1013 4119 1484 4856 
L 1984 4856 
z
" transform="scale(0.015625)"/>
      <path id="DejaVuSans-2d" d="M 313 2009 
L 1997 2009 
L 1997 1497 
L 313 1497 
L 313 2009 
z
" transform="scale(0.015625)"/>
      <path id="DejaVuSans-29" d="M 513 4856 
L 1013 4856 
Q 1481 4119 1714 3412 
Q 1947 2706 1947 2009 
Q 1947 1309 1714 600 
Q 1481 -109 1013 -844 
L 513 -844 
Q 928 -128 1133 580 
Q 1338 1288 1338 2009 
Q 1338 2731 1133 3434 
Q 928 4138 513 4856 
z
" transform="scale(0.015625)"/>
     </defs>
     <use xlink:href="#DejaVuSans-46"/>
     <use xlink:href="#DejaVuSans-72" transform="translate(50.269531 0)"/>
     <use xlink:href="#DejaVuSans-61" transform="translate(91.382812 0)"/>
     <use xlink:href="#DejaVuSans-6e" transform="translate(152.662109 0)"/>
     <use xlink:href="#DejaVuSans-7a" transform="translate(216.041016 0)"/>
     <use xlink:href="#DejaVuSans-20" transform="translate(268.53125 0)"/>
     <use xlink:href="#DejaVuSans-57" transform="translate(300.318359 0)"/>
     <use xlink:href="#DejaVuSans-61" transform="translate(392.820312 0)"/>
     <use xlink:href="#DejaVuSans-67" transform="translate(454.099609 0)"/>
     <use xlink:href="#DejaVuSans-6e" transform="translate(517.576172 0)"/>
     <use xlink:href="#DejaVuSans-65" transform="translate(580.955078 0)"/>
     <use xlink:href="#DejaVuSans-72" transform="translate(642.478516 0)"/>
     <use xlink:href="#DejaVuSans-20" transform="translate(683.591797 0)"/>
     <use xlink:href="#DejaVuSans-53" transform="translate(715.378906 0)"/>
     <use xlink:href="#DejaVuSans-63" transform="translate(778.855469 0)"/>
     <use xlink:href="#DejaVuSans-6f" transform="translate(833.835938 0)"/>
     <use xlink:href="#DejaVuSans-72" transform="translate(895.017578 0)"/>
     <use xlink:href="#DejaVuSans-69" transform="translate(936.130859 0)"/>
     <use xlink:href="#DejaVuSans-6e" transform="translate(963.914062 0)"/>
     <use xlink:href="#DejaVuSans-67" transform="translate(1027.292969 0)"/>
     <use xlink:href="#DejaVuSans-20" transform="translate(1090.769531 0)"/>
     <use xlink:href="#DejaVuSans-54" transform="translate(1122.556641 0)"/>
     <use xlink:href="#DejaVuSans-69" transform="translate(1180.515625 0)"/>
     <use xlink:href="#DejaVuSans-6d" transform="translate(1208.298828 0)"/>
     <use xlink:href="#DejaVuSans-65" transform="translate(1305.710938 0)"/>
     <use xlink:href="#DejaVuSans-6c" transform="translate(1367.234375 0)"/>
     <use xlink:href="#DejaVuSans-69" transform="translate(1395.017578 0)"/>
     <use xlink:href="#DejaVuSans-6e" transform="translate(1422.800781 0)"/>
     <use xlink:href="#DejaVuSans-65" transform="translate(1486.179688 0)"/>
     <use xlink:href="#DejaVuSans-20" transform="translate(1547.703125 0)"/>
     <use xlink:href="#DejaVuSans-28" transform="translate(1579.490234 0)"/>
     <use xlink:href="#DejaVuSans-32" transform="translate(1618.503906 0)"/>
     <use xlink:href="#DejaVuSans-30" transform="translate(1682.126953 0)"/>
     <use xlink:href="#DejaVuSans-32" transform="translate(1745.75 0)"/>
     <use xlink:href="#DejaVuSans-33" transform="translate(1809.373047 0)"/>
     <use xlink:href="#DejaVuSans-2d" transform="translate(1872.996094 0)"/>
     <use xlink:href="#DejaVuSans-32" transform="translate(1909.080078 0)"/>
     <use xlink:href="#DejaVuSans-34" transform="translate(1972.703125 0)"/>
     <use xlink:href="#DejaVuSans-29" transform="translate(2036.326172 0)"/>
    </g>
   </g>
   <g id="legend_1">
    <g id="patch_157">
     <path d="M 793.33125 93.5925 
L 846.2 93.5925 
Q 848.2 93.5925 848.2 91.5925 
L 848.2 33.88 
Q 848.2 31.88 846.2 31.88 
L 793.33125 31.88 
Q 791.33125 31.88 791.33125 33.88 
L 791.33125 91.5925 
Q 791.33125 93.5925 793.33125 93.5925 
z
" style="fill: #ffffff; opacity: 0.8; stroke: #cccccc; stroke-linejoin: miter"/>
    </g>
    <g id="text_24">
     <!-- Shot Type -->
     <g transform="translate(795.33125 43.478437) scale(0.1 -0.1)">
      <defs>
       <path id="DejaVuSans-68" d="M 3513 2113 
L 3513 0 
L 2938 0 
L 2938 2094 
Q 2938 2591 2744 2837 
Q 2550 3084 2163 3084 
Q 1697 3084 1428 2787 
Q 1159 2491 1159 1978 
L 1159 0 
L 581 0 
L 581 4863 
L 1159 4863 
L 1159 2956 
Q 1366 3272 1645 3428 
Q 1925 3584 2291 3584 
Q 2894 3584 3203 3211 
Q 3513 2838 3513 2113 
z
" transform="scale(0.015625)"/>
       <path id="DejaVuSans-79" d="M 2059 -325 
Q 1816 -950 1584 -1140 
Q 1353 -1331 966 -1331 
L 506 -1331 
L 506 -850 
L 844 -850 
Q 1081 -850 1212 -737 
Q 1344 -625 1503 -206 
L 1606 56 
L 191 3500 
L 800 3500 
L 1894 763 
L 2988 3500 
L 3597 3500 
L 2059 -325 
z
" transform="scale(0.015625)"/>
       <path id="DejaVuSans-70" d="M 1159 525 
L 1159 -1331 
L 581 -1331 
L 581 3500 
L 1159 3500 
L 1159 2969 
Q 1341 3281 1617 3432 
Q 1894 3584 2278 3584 
Q 2916 3584 3314 3078 
Q 3713 2572 3713 1747 
Q 3713 922 3314 415 
Q 2916 -91 2278 -91 
Q 1894 -91 1617 61 
Q 1341 213 1159 525 
z
M 3116 1747 
Q 3116 2381 2855 2742 
Q 2594 3103 2138 3103 
Q 1681 3103 1420 2742 
Q 1159 2381 1159 1747 
Q 1159 1113 1420 752 
Q 1681 391 2138 391 
Q 2594 391 2855 752 
Q 3116 1113 3116 1747 
z
" transform="scale(0.015625)"/>
      </defs>
      <use xlink:href="#DejaVuSans-53"/>
      <use xlink:href="#DejaVuSans-68" transform="translate(63.476562 0)"/>
      <use xlink:href="#DejaVuSans-6f" transform="translate(126.855469 0)"/>
      <use xlink:href="#DejaVuSans-74" transform="translate(188.037109 0)"/>
      <use xlink:href="#DejaVuSans-20" transform="translate(227.246094 0)"/>
      <use xlink:href="#DejaVuSans-54" transform="translate(259.033203 0)"/>
      <use xlink:href="#DejaVuSans-79" transform="translate(304.492188 0)"/>
      <use xlink:href="#DejaVuSans-70" transform="translate(363.671875 0)"/>
      <use xlink:href="#DejaVuSans-65" transform="translate(427.148438 0)"/>
     </g>
    </g>
    <g id="patch_158">
     <path d="M 796.515625 58.156563 
L 816.515625 58.156563 
L 816.515625 51.156563 
L 796.515625 51.156563 
z
" style="fill: #ffc107"/>
    </g>
    <g id="text_25">
     <!-- FT -->
     <g transform="translate(824.515625 58.156563) scale(0.1 -0.1)">
      <use xlink:href="#DejaVuSans-46"/>
      <use xlink:href="#DejaVuSans-54" transform="translate(55.769531 0)"/>
     </g>
    </g>
    <g id="patch_159">
     <path d="M 796.515625 72.834688 
L 816.515625 72.834688 
L 816.515625 65.834688 
L 796.515625 65.834688 
z
" style="fill: #2196f3"/>
    </g>
    <g id="text_26">
     <!-- 2PT -->
     <g transform="translate(824.515625 72.834688) scale(0.1 -0.1)">
      <use xlink:href="#DejaVuSans-32"/>
      <use xlink:href="#DejaVuSans-50" transform="translate(63.623047 0)"/>
      <use xlink:href="#DejaVuSans-54" transform="translate(123.925781 0)"/>
     </g>
    </g>
    <g id="patch_160">
     <path d="M 796.515625 87.512812 
L 816.515625 87.512812 
L 816.515625 80.512812 
L 796.515625 80.512812 
z
" style="fill: #4caf50"/>
    </g>
    <g id="text_27">
     <!-- 3PT -->
     <g transform="translate(824.515625 87.512812) scale(0.1 -0.1)">
      <use xlink:href="#DejaVuSans-33"/>
      <use xlink:href="#DejaVuSans-50" transform="translate(63.623047 0)"/>
      <use xlink:href="#DejaVuSans-54" transform="translate(123.925781 0)"/>
     </g>
    </g>
   </g>
  </g>
 </g>
 <defs>
  <clipPath id="p788ecfd3d4">
   <rect x="44.57" y="26.88" width="808.63" height="429.075539"/>
  </clipPath>
 </defs>
</svg>
