<?xml version="1.0" encoding="utf-8" standalone="no"?>
<!DOCTYPE svg PUBLIC "-//W3C//DTD SVG 1.1//EN"
  "http://www.w3.org/Graphics/SVG/1.1/DTD/svg11.dtd">
<svg xmlns:xlink="http://www.w3.org/1999/xlink" width="864pt" height="432pt" viewBox="0 0 864 432" xmlns="http://www.w3.org/2000/svg" version="1.1">
 <metadata>
  <rdf:RDF xmlns:dc="http://purl.org/dc/elements/1.1/" xmlns:cc="http://creativecommons.org/ns#" xmlns:rdf="http://www.w3.org/1999/02/22-rdf-syntax-ns#">
   <cc:Work>
    <dc:type rdf:resource="http://purl.org/dc/dcmitype/StillImage"/>
    <dc:date>2025-08-24T10:46:12.864535</dc:date>
    <dc:format>image/svg+xml</dc:format>
    <dc:creator>
     <cc:Agent>
      <dc:title>Matplotlib v3.10.5, https://matplotlib.org/</dc:title>
     </cc:Agent>
    </dc:creator>
   </cc:Work>
  </rdf:RDF>
 </metadata>
 <defs>
  <style type="text/css">*{stroke-linejoin: round; stroke-linecap: butt}</style>
 </defs>
 <g id="figure_1">
  <g id="patch_1">
   <path d="M 0 432 
L 864 432 
L 864 0 
L 0 0 
z
" style="fill: #ffffff"/>
  </g>
  <g id="axes_1">
   <g id="patch_2">
    <path d="M 55.73 387.16 
L 853.2 387.16 
L 853.2 28.32 
L 55.73 28.32 
z
" style="fill: #ffffff"/>
   </g>
   <g id="patch_3">
    <path d="M 55.73 190.866646 
L 72.004898 190.866646 
L 72.004898 164.619206 
L 55.73 164.619206 
z
" clip-path="url(#paf5d7783ac)" style="fill: #22c55e"/>
   </g>
   <g id="patch_4">
    <path d="M 72.004898 190.866646 
L 88.279796 190.866646 
L 88.279796 179.617743 
L 72.004898 179.617743 
z
" clip-path="url(#paf5d7783ac)" style="fill: #22c55e"/>
   </g>
   <g id="patch_5">
    <path d="M 88.279796 190.866646 
L 104.554694 190.866646 
L 104.554694 157.119937 
L 88.279796 157.119937 
z
" clip-path="url(#paf5d7783ac)" style="fill: #22c55e"/>
   </g>
   <g id="patch_6">
    <path d="M 104.554694 190.866646 
L 120.829592 190.866646 
L 120.829592 175.868109 
L 104.554694 175.868109 
z
" clip-path="url(#paf5d7783ac)" style="fill: #22c55e"/>
   </g>
   <g id="patch_7">
    <path d="M 120.829592 190.866646 
L 137.10449 190.866646 
L 137.10449 157.119937 
L 120.829592 157.119937 
z
" clip-path="url(#paf5d7783ac)" style="fill: #22c55e"/>
   </g>
   <g id="patch_8">
    <path d="M 137.10449 190.866646 
L 153.379388 190.866646 
L 153.379388 247.11116 
L 137.10449 247.11116 
z
" clip-path="url(#paf5d7783ac)" style="fill: #ef4444"/>
   </g>
   <g id="patch_9">
    <path d="M 153.379388 190.866646 
L 169.654286 190.866646 
L 169.654286 205.865183 
L 153.379388 205.865183 
z
" clip-path="url(#paf5d7783ac)" style="fill: #ef4444"/>
   </g>
   <g id="patch_10">
    <path d="M 169.654286 190.866646 
L 185.929184 190.866646 
L 185.929184 164.619206 
L 169.654286 164.619206 
z
" clip-path="url(#paf5d7783ac)" style="fill: #22c55e"/>
   </g>
   <g id="patch_11">
    <path d="M 185.929184 190.866646 
L 202.204082 190.866646 
L 202.204082 100.875423 
L 185.929184 100.875423 
z
" clip-path="url(#paf5d7783ac)" style="fill: #22c55e"/>
   </g>
   <g id="patch_12">
    <path d="M 202.204082 190.866646 
L 218.47898 190.866646 
L 218.47898 123.373229 
L 202.204082 123.373229 
z
" clip-path="url(#paf5d7783ac)" style="fill: #22c55e"/>
   </g>
   <g id="patch_13">
    <path d="M 218.47898 190.866646 
L 234.753878 190.866646 
L 234.753878 273.3586 
L 218.47898 273.3586 
z
" clip-path="url(#paf5d7783ac)" style="fill: #ef4444"/>
   </g>
   <g id="patch_14">
    <path d="M 234.753878 190.866646 
L 251.028776 190.866646 
L 251.028776 370.849091 
L 234.753878 370.849091 
z
" clip-path="url(#paf5d7783ac)" style="fill: #ef4444"/>
   </g>
   <g id="patch_15">
    <path d="M 251.028776 190.866646 
L 267.303673 190.866646 
L 267.303673 363.349822 
L 251.028776 363.349822 
z
" clip-path="url(#paf5d7783ac)" style="fill: #ef4444"/>
   </g>
   <g id="patch_16">
    <path d="M 267.303673 190.866646 
L 283.578571 190.866646 
L 283.578571 277.108234 
L 267.303673 277.108234 
z
" clip-path="url(#paf5d7783ac)" style="fill: #ef4444"/>
   </g>
   <g id="patch_17">
    <path d="M 283.578571 190.866646 
L 299.853469 190.866646 
L 299.853469 194.61628 
L 283.578571 194.61628 
z
" clip-path="url(#paf5d7783ac)" style="fill: #ef4444"/>
   </g>
   <g id="patch_18">
    <path d="M 299.853469 190.866646 
L 316.128367 190.866646 
L 316.128367 247.11116 
L 299.853469 247.11116 
z
" clip-path="url(#paf5d7783ac)" style="fill: #ef4444"/>
   </g>
   <g id="patch_19">
    <path d="M 316.128367 190.866646 
L 332.403265 190.866646 
L 332.403265 127.122863 
L 316.128367 127.122863 
z
" clip-path="url(#paf5d7783ac)" style="fill: #22c55e"/>
   </g>
   <g id="patch_20">
    <path d="M 332.403265 190.866646 
L 348.678163 190.866646 
L 348.678163 93.376155 
L 332.403265 93.376155 
z
" clip-path="url(#paf5d7783ac)" style="fill: #22c55e"/>
   </g>
   <g id="patch_21">
    <path d="M 348.678163 190.866646 
L 364.953061 190.866646 
L 364.953061 89.62652 
L 348.678163 89.62652 
z
" clip-path="url(#paf5d7783ac)" style="fill: #22c55e"/>
   </g>
   <g id="patch_22">
    <path d="M 364.953061 190.866646 
L 381.227959 190.866646 
L 381.227959 123.373229 
L 364.953061 123.373229 
z
" clip-path="url(#paf5d7783ac)" style="fill: #22c55e"/>
   </g>
   <g id="patch_23">
    <path d="M 381.227959 190.866646 
L 397.502857 190.866646 
L 397.502857 190.866646 
L 381.227959 190.866646 
z
" clip-path="url(#paf5d7783ac)" style="fill: #22c55e"/>
   </g>
   <g id="patch_24">
    <path d="M 397.502857 190.866646 
L 413.777755 190.866646 
L 413.777755 239.611891 
L 397.502857 239.611891 
z
" clip-path="url(#paf5d7783ac)" style="fill: #ef4444"/>
   </g>
   <g id="patch_25">
    <path d="M 413.777755 190.866646 
L 430.052653 190.866646 
L 430.052653 243.361526 
L 413.777755 243.361526 
z
" clip-path="url(#paf5d7783ac)" style="fill: #ef4444"/>
   </g>
   <g id="patch_26">
    <path d="M 430.052653 190.866646 
L 446.327551 190.866646 
L 446.327551 187.117011 
L 430.052653 187.117011 
z
" clip-path="url(#paf5d7783ac)" style="fill: #22c55e"/>
   </g>
   <g id="patch_27">
    <path d="M 446.327551 190.866646 
L 462.602449 190.866646 
L 462.602449 198.365914 
L 446.327551 198.365914 
z
" clip-path="url(#paf5d7783ac)" style="fill: #ef4444"/>
   </g>
   <g id="patch_28">
    <path d="M 462.602449 190.866646 
L 478.877347 190.866646 
L 478.877347 153.370303 
L 462.602449 153.370303 
z
" clip-path="url(#paf5d7783ac)" style="fill: #22c55e"/>
   </g>
   <g id="patch_29">
    <path d="M 478.877347 190.866646 
L 495.152245 190.866646 
L 495.152245 194.61628 
L 478.877347 194.61628 
z
" clip-path="url(#paf5d7783ac)" style="fill: #ef4444"/>
   </g>
   <g id="patch_30">
    <path d="M 495.152245 190.866646 
L 511.427143 190.866646 
L 511.427143 183.367377 
L 495.152245 183.367377 
z
" clip-path="url(#paf5d7783ac)" style="fill: #22c55e"/>
   </g>
   <g id="patch_31">
    <path d="M 511.427143 190.866646 
L 527.702041 190.866646 
L 527.702041 228.362989 
L 511.427143 228.362989 
z
" clip-path="url(#paf5d7783ac)" style="fill: #ef4444"/>
   </g>
   <g id="patch_32">
    <path d="M 527.702041 190.866646 
L 543.976939 190.866646 
L 543.976939 254.610428 
L 527.702041 254.610428 
z
" clip-path="url(#paf5d7783ac)" style="fill: #ef4444"/>
   </g>
   <g id="patch_33">
    <path d="M 543.976939 190.866646 
L 560.251837 190.866646 
L 560.251837 239.611891 
L 543.976939 239.611891 
z
" clip-path="url(#paf5d7783ac)" style="fill: #ef4444"/>
   </g>
   <g id="patch_34">
    <path d="M 560.251837 190.866646 
L 576.526735 190.866646 
L 576.526735 164.619206 
L 560.251837 164.619206 
z
" clip-path="url(#paf5d7783ac)" style="fill: #22c55e"/>
   </g>
   <g id="patch_35">
    <path d="M 576.526735 190.866646 
L 592.801633 190.866646 
L 592.801633 187.117011 
L 576.526735 187.117011 
z
" clip-path="url(#paf5d7783ac)" style="fill: #22c55e"/>
   </g>
   <g id="patch_36">
    <path d="M 592.801633 190.866646 
L 609.076531 190.866646 
L 609.076531 172.118474 
L 592.801633 172.118474 
z
" clip-path="url(#paf5d7783ac)" style="fill: #22c55e"/>
   </g>
   <g id="patch_37">
    <path d="M 609.076531 190.866646 
L 625.351429 190.866646 
L 625.351429 322.103845 
L 609.076531 322.103845 
z
" clip-path="url(#paf5d7783ac)" style="fill: #ef4444"/>
   </g>
   <g id="patch_38">
    <path d="M 625.351429 190.866646 
L 641.626327 190.866646 
L 641.626327 262.109697 
L 625.351429 262.109697 
z
" clip-path="url(#paf5d7783ac)" style="fill: #ef4444"/>
   </g>
   <g id="patch_39">
    <path d="M 641.626327 190.866646 
L 657.901224 190.866646 
L 657.901224 254.610428 
L 641.626327 254.610428 
z
" clip-path="url(#paf5d7783ac)" style="fill: #ef4444"/>
   </g>
   <g id="patch_40">
    <path d="M 657.901224 190.866646 
L 674.176122 190.866646 
L 674.176122 262.109697 
L 657.901224 262.109697 
z
" clip-path="url(#paf5d7783ac)" style="fill: #ef4444"/>
   </g>
   <g id="patch_41">
    <path d="M 674.176122 190.866646 
L 690.45102 190.866646 
L 690.45102 337.102382 
L 674.176122 337.102382 
z
" clip-path="url(#paf5d7783ac)" style="fill: #ef4444"/>
   </g>
   <g id="patch_42">
    <path d="M 690.45102 190.866646 
L 706.725918 190.866646 
L 706.725918 187.117011 
L 690.45102 187.117011 
z
" clip-path="url(#paf5d7783ac)" style="fill: #22c55e"/>
   </g>
   <g id="patch_43">
    <path d="M 706.725918 190.866646 
L 723.000816 190.866646 
L 723.000816 153.370303 
L 706.725918 153.370303 
z
" clip-path="url(#paf5d7783ac)" style="fill: #22c55e"/>
   </g>
   <g id="patch_44">
    <path d="M 723.000816 190.866646 
L 739.275714 190.866646 
L 739.275714 127.122863 
L 723.000816 127.122863 
z
" clip-path="url(#paf5d7783ac)" style="fill: #22c55e"/>
   </g>
   <g id="patch_45">
    <path d="M 739.275714 190.866646 
L 755.550612 190.866646 
L 755.550612 44.630909 
L 739.275714 44.630909 
z
" clip-path="url(#paf5d7783ac)" style="fill: #22c55e"/>
   </g>
   <g id="patch_46">
    <path d="M 755.550612 190.866646 
L 771.82551 190.866646 
L 771.82551 220.86372 
L 755.550612 220.86372 
z
" clip-path="url(#paf5d7783ac)" style="fill: #ef4444"/>
   </g>
   <g id="patch_47">
    <path d="M 771.82551 190.866646 
L 788.100408 190.866646 
L 788.100408 303.355674 
L 771.82551 303.355674 
z
" clip-path="url(#paf5d7783ac)" style="fill: #ef4444"/>
   </g>
   <g id="patch_48">
    <path d="M 788.100408 190.866646 
L 804.375306 190.866646 
L 804.375306 145.871034 
L 788.100408 145.871034 
z
" clip-path="url(#paf5d7783ac)" style="fill: #22c55e"/>
   </g>
   <g id="patch_49">
    <path d="M 804.375306 190.866646 
L 820.650204 190.866646 
L 820.650204 239.611891 
L 804.375306 239.611891 
z
" clip-path="url(#paf5d7783ac)" style="fill: #ef4444"/>
   </g>
   <g id="patch_50">
    <path d="M 820.650204 190.866646 
L 836.925102 190.866646 
L 836.925102 367.099457 
L 820.650204 367.099457 
z
" clip-path="url(#paf5d7783ac)" style="fill: #ef4444"/>
   </g>
   <g id="matplotlib.axis_1">
    <g id="xtick_1">
     <g id="line2d_1">
      <defs>
       <path id="mae6e87b28b" d="M 0 0 
L 0 3.5 
" style="stroke: #000000; stroke-width: 0.8"/>
      </defs>
      <g>
       <use xlink:href="#mae6e87b28b" x="63.867449" y="387.16" style="stroke: #000000; stroke-width: 0.8"/>
      </g>
     </g>
     <g id="text_1">
      <!-- 0 -->
      <g transform="translate(60.686199 401.758438) scale(0.1 -0.1)">
       <defs>
        <path id="DejaVuSans-30" d="M 2034 4250 
Q 1547 4250 1301 3770 
Q 1056 3291 1056 2328 
Q 1056 1369 1301 889 
Q 1547 409 2034 409 
Q 2525 409 2770 889 
Q 3016 1369 3016 2328 
Q 3016 3291 2770 3770 
Q 2525 4250 2034 4250 
z
M 2034 4750 
Q 2819 4750 3233 4129 
Q 3647 3509 3647 2328 
Q 3647 1150 3233 529 
Q 2819 -91 2034 -91 
Q 1250 -91 836 529 
Q 422 1150 422 2328 
Q 422 3509 836 4129 
Q 1250 4750 2034 4750 
z
" transform="scale(0.015625)"/>
       </defs>
       <use xlink:href="#DejaVuSans-30"/>
      </g>
     </g>
    </g>
    <g id="xtick_2">
     <g id="line2d_2">
      <g>
       <use xlink:href="#mae6e87b28b" x="161.516837" y="387.16" style="stroke: #000000; stroke-width: 0.8"/>
      </g>
     </g>
     <g id="text_2">
      <!-- 6 -->
      <g transform="translate(158.335587 401.758438) scale(0.1 -0.1)">
       <defs>
        <path id="DejaVuSans-36" d="M 2113 2584 
Q 1688 2584 1439 2293 
Q 1191 2003 1191 1497 
Q 1191 994 1439 701 
Q 1688 409 2113 409 
Q 2538 409 2786 701 
Q 3034 994 3034 1497 
Q 3034 2003 2786 2293 
Q 2538 2584 2113 2584 
z
M 3366 4563 
L 3366 3988 
Q 3128 4100 2886 4159 
Q 2644 4219 2406 4219 
Q 1781 4219 1451 3797 
Q 1122 3375 1075 2522 
Q 1259 2794 1537 2939 
Q 1816 3084 2150 3084 
Q 2853 3084 3261 2657 
Q 3669 2231 3669 1497 
Q 3669 778 3244 343 
Q 2819 -91 2113 -91 
Q 1303 -91 875 529 
Q 447 1150 447 2328 
Q 447 3434 972 4092 
Q 1497 4750 2381 4750 
Q 2619 4750 2861 4703 
Q 3103 4656 3366 4563 
z
" transform="scale(0.015625)"/>
       </defs>
       <use xlink:href="#DejaVuSans-36"/>
      </g>
     </g>
    </g>
    <g id="xtick_3">
     <g id="line2d_3">
      <g>
       <use xlink:href="#mae6e87b28b" x="259.166224" y="387.16" style="stroke: #000000; stroke-width: 0.8"/>
      </g>
     </g>
     <g id="text_3">
      <!-- 12 -->
      <g transform="translate(252.803724 401.758438) scale(0.1 -0.1)">
       <defs>
        <path id="DejaVuSans-31" d="M 794 531 
L 1825 531 
L 1825 4091 
L 703 3866 
L 703 4441 
L 1819 4666 
L 2450 4666 
L 2450 531 
L 3481 531 
L 3481 0 
L 794 0 
L 794 531 
z
" transform="scale(0.015625)"/>
        <path id="DejaVuSans-32" d="M 1228 531 
L 3431 531 
L 3431 0 
L 469 0 
L 469 531 
Q 828 903 1448 1529 
Q 2069 2156 2228 2338 
Q 2531 2678 2651 2914 
Q 2772 3150 2772 3378 
Q 2772 3750 2511 3984 
Q 2250 4219 1831 4219 
Q 1534 4219 1204 4116 
Q 875 4013 500 3803 
L 500 4441 
Q 881 4594 1212 4672 
Q 1544 4750 1819 4750 
Q 2544 4750 2975 4387 
Q 3406 4025 3406 3419 
Q 3406 3131 3298 2873 
Q 3191 2616 2906 2266 
Q 2828 2175 2409 1742 
Q 1991 1309 1228 531 
z
" transform="scale(0.015625)"/>
       </defs>
       <use xlink:href="#DejaVuSans-31"/>
       <use xlink:href="#DejaVuSans-32" transform="translate(63.623047 0)"/>
      </g>
     </g>
    </g>
    <g id="xtick_4">
     <g id="line2d_4">
      <g>
       <use xlink:href="#mae6e87b28b" x="356.815612" y="387.16" style="stroke: #000000; stroke-width: 0.8"/>
      </g>
     </g>
     <g id="text_4">
      <!-- 18 -->
      <g transform="translate(350.453112 401.758438) scale(0.1 -0.1)">
       <defs>
        <path id="DejaVuSans-38" d="M 2034 2216 
Q 1584 2216 1326 1975 
Q 1069 1734 1069 1313 
Q 1069 891 1326 650 
Q 1584 409 2034 409 
Q 2484 409 2743 651 
Q 3003 894 3003 1313 
Q 3003 1734 2745 1975 
Q 2488 2216 2034 2216 
z
M 1403 2484 
Q 997 2584 770 2862 
Q 544 3141 544 3541 
Q 544 4100 942 4425 
Q 1341 4750 2034 4750 
Q 2731 4750 3128 4425 
Q 3525 4100 3525 3541 
Q 3525 3141 3298 2862 
Q 3072 2584 2669 2484 
Q 3125 2378 3379 2068 
Q 3634 1759 3634 1313 
Q 3634 634 3220 271 
Q 2806 -91 2034 -91 
Q 1263 -91 848 271 
Q 434 634 434 1313 
Q 434 1759 690 2068 
Q 947 2378 1403 2484 
z
M 1172 3481 
Q 1172 3119 1398 2916 
Q 1625 2713 2034 2713 
Q 2441 2713 2670 2916 
Q 2900 3119 2900 3481 
Q 2900 3844 2670 4047 
Q 2441 4250 2034 4250 
Q 1625 4250 1398 4047 
Q 1172 3844 1172 3481 
z
" transform="scale(0.015625)"/>
       </defs>
       <use xlink:href="#DejaVuSans-31"/>
       <use xlink:href="#DejaVuSans-38" transform="translate(63.623047 0)"/>
      </g>
     </g>
    </g>
    <g id="xtick_5">
     <g id="line2d_5">
      <g>
       <use xlink:href="#mae6e87b28b" x="454.465" y="387.16" style="stroke: #000000; stroke-width: 0.8"/>
      </g>
     </g>
     <g id="text_5">
      <!-- 24 -->
      <g transform="translate(448.1025 401.758438) scale(0.1 -0.1)">
       <defs>
        <path id="DejaVuSans-34" d="M 2419 4116 
L 825 1625 
L 2419 1625 
L 2419 4116 
z
M 2253 4666 
L 3047 4666 
L 3047 1625 
L 3713 1625 
L 3713 1100 
L 3047 1100 
L 3047 0 
L 2419 0 
L 2419 1100 
L 313 1100 
L 313 1709 
L 2253 4666 
z
" transform="scale(0.015625)"/>
       </defs>
       <use xlink:href="#DejaVuSans-32"/>
       <use xlink:href="#DejaVuSans-34" transform="translate(63.623047 0)"/>
      </g>
     </g>
    </g>
    <g id="xtick_6">
     <g id="line2d_6">
      <g>
       <use xlink:href="#mae6e87b28b" x="552.114388" y="387.16" style="stroke: #000000; stroke-width: 0.8"/>
      </g>
     </g>
     <g id="text_6">
      <!-- 30 -->
      <g transform="translate(545.751888 401.758438) scale(0.1 -0.1)">
       <defs>
        <path id="DejaVuSans-33" d="M 2597 2516 
Q 3050 2419 3304 2112 
Q 3559 1806 3559 1356 
Q 3559 666 3084 287 
Q 2609 -91 1734 -91 
Q 1441 -91 1130 -33 
Q 819 25 488 141 
L 488 750 
Q 750 597 1062 519 
Q 1375 441 1716 441 
Q 2309 441 2620 675 
Q 2931 909 2931 1356 
Q 2931 1769 2642 2001 
Q 2353 2234 1838 2234 
L 1294 2234 
L 1294 2753 
L 1863 2753 
Q 2328 2753 2575 2939 
Q 2822 3125 2822 3475 
Q 2822 3834 2567 4026 
Q 2313 4219 1838 4219 
Q 1578 4219 1281 4162 
Q 984 4106 628 3988 
L 628 4550 
Q 988 4650 1302 4700 
Q 1616 4750 1894 4750 
Q 2613 4750 3031 4423 
Q 3450 4097 3450 3541 
Q 3450 3153 3228 2886 
Q 3006 2619 2597 2516 
z
" transform="scale(0.015625)"/>
       </defs>
       <use xlink:href="#DejaVuSans-33"/>
       <use xlink:href="#DejaVuSans-30" transform="translate(63.623047 0)"/>
      </g>
     </g>
    </g>
    <g id="xtick_7">
     <g id="line2d_7">
      <g>
       <use xlink:href="#mae6e87b28b" x="649.763776" y="387.16" style="stroke: #000000; stroke-width: 0.8"/>
      </g>
     </g>
     <g id="text_7">
      <!-- 36 -->
      <g transform="translate(643.401276 401.758438) scale(0.1 -0.1)">
       <use xlink:href="#DejaVuSans-33"/>
       <use xlink:href="#DejaVuSans-36" transform="translate(63.623047 0)"/>
      </g>
     </g>
    </g>
    <g id="xtick_8">
     <g id="line2d_8">
      <g>
       <use xlink:href="#mae6e87b28b" x="747.413163" y="387.16" style="stroke: #000000; stroke-width: 0.8"/>
      </g>
     </g>
     <g id="text_8">
      <!-- 42 -->
      <g transform="translate(741.050663 401.758438) scale(0.1 -0.1)">
       <use xlink:href="#DejaVuSans-34"/>
       <use xlink:href="#DejaVuSans-32" transform="translate(63.623047 0)"/>
      </g>
     </g>
    </g>
    <g id="xtick_9">
     <g id="line2d_9">
      <g>
       <use xlink:href="#mae6e87b28b" x="845.062551" y="387.16" style="stroke: #000000; stroke-width: 0.8"/>
      </g>
     </g>
     <g id="text_9">
      <!-- 48 -->
      <g transform="translate(838.700051 401.758438) scale(0.1 -0.1)">
       <use xlink:href="#DejaVuSans-34"/>
       <use xlink:href="#DejaVuSans-38" transform="translate(63.623047 0)"/>
      </g>
     </g>
    </g>
    <g id="text_10">
     <!-- Game Minute -->
     <g transform="translate(414.203125 416.95625) scale(0.12 -0.12)">
      <defs>
       <path id="DejaVuSans-47" d="M 3809 666 
L 3809 1919 
L 2778 1919 
L 2778 2438 
L 4434 2438 
L 4434 434 
Q 4069 175 3628 42 
Q 3188 -91 2688 -91 
Q 1594 -91 976 548 
Q 359 1188 359 2328 
Q 359 3472 976 4111 
Q 1594 4750 2688 4750 
Q 3144 4750 3555 4637 
Q 3966 4525 4313 4306 
L 4313 3634 
Q 3963 3931 3569 4081 
Q 3175 4231 2741 4231 
Q 1884 4231 1454 3753 
Q 1025 3275 1025 2328 
Q 1025 1384 1454 906 
Q 1884 428 2741 428 
Q 3075 428 3337 486 
Q 3600 544 3809 666 
z
" transform="scale(0.015625)"/>
       <path id="DejaVuSans-61" d="M 2194 1759 
Q 1497 1759 1228 1600 
Q 959 1441 959 1056 
Q 959 750 1161 570 
Q 1363 391 1709 391 
Q 2188 391 2477 730 
Q 2766 1069 2766 1631 
L 2766 1759 
L 2194 1759 
z
M 3341 1997 
L 3341 0 
L 2766 0 
L 2766 531 
Q 2569 213 2275 61 
Q 1981 -91 1556 -91 
Q 1019 -91 701 211 
Q 384 513 384 1019 
Q 384 1609 779 1909 
Q 1175 2209 1959 2209 
L 2766 2209 
L 2766 2266 
Q 2766 2663 2505 2880 
Q 2244 3097 1772 3097 
Q 1472 3097 1187 3025 
Q 903 2953 641 2809 
L 641 3341 
Q 956 3463 1253 3523 
Q 1550 3584 1831 3584 
Q 2591 3584 2966 3190 
Q 3341 2797 3341 1997 
z
" transform="scale(0.015625)"/>
       <path id="DejaVuSans-6d" d="M 3328 2828 
Q 3544 3216 3844 3400 
Q 4144 3584 4550 3584 
Q 5097 3584 5394 3201 
Q 5691 2819 5691 2113 
L 5691 0 
L 5113 0 
L 5113 2094 
Q 5113 2597 4934 2840 
Q 4756 3084 4391 3084 
Q 3944 3084 3684 2787 
Q 3425 2491 3425 1978 
L 3425 0 
L 2847 0 
L 2847 2094 
Q 2847 2600 2669 2842 
Q 2491 3084 2119 3084 
Q 1678 3084 1418 2786 
Q 1159 2488 1159 1978 
L 1159 0 
L 581 0 
L 581 3500 
L 1159 3500 
L 1159 2956 
Q 1356 3278 1631 3431 
Q 1906 3584 2284 3584 
Q 2666 3584 2933 3390 
Q 3200 3197 3328 2828 
z
" transform="scale(0.015625)"/>
       <path id="DejaVuSans-65" d="M 3597 1894 
L 3597 1613 
L 953 1613 
Q 991 1019 1311 708 
Q 1631 397 2203 397 
Q 2534 397 2845 478 
Q 3156 559 3463 722 
L 3463 178 
Q 3153 47 2828 -22 
Q 2503 -91 2169 -91 
Q 1331 -91 842 396 
Q 353 884 353 1716 
Q 353 2575 817 3079 
Q 1281 3584 2069 3584 
Q 2775 3584 3186 3129 
Q 3597 2675 3597 1894 
z
M 3022 2063 
Q 3016 2534 2758 2815 
Q 2500 3097 2075 3097 
Q 1594 3097 1305 2825 
Q 1016 2553 972 2059 
L 3022 2063 
z
" transform="scale(0.015625)"/>
       <path id="DejaVuSans-20" transform="scale(0.015625)"/>
       <path id="DejaVuSans-4d" d="M 628 4666 
L 1569 4666 
L 2759 1491 
L 3956 4666 
L 4897 4666 
L 4897 0 
L 4281 0 
L 4281 4097 
L 3078 897 
L 2444 897 
L 1241 4097 
L 1241 0 
L 628 0 
L 628 4666 
z
" transform="scale(0.015625)"/>
       <path id="DejaVuSans-69" d="M 603 3500 
L 1178 3500 
L 1178 0 
L 603 0 
L 603 3500 
z
M 603 4863 
L 1178 4863 
L 1178 4134 
L 603 4134 
L 603 4863 
z
" transform="scale(0.015625)"/>
       <path id="DejaVuSans-6e" d="M 3513 2113 
L 3513 0 
L 2938 0 
L 2938 2094 
Q 2938 2591 2744 2837 
Q 2550 3084 2163 3084 
Q 1697 3084 1428 2787 
Q 1159 2491 1159 1978 
L 1159 0 
L 581 0 
L 581 3500 
L 1159 3500 
L 1159 2956 
Q 1366 3272 1645 3428 
Q 1925 3584 2291 3584 
Q 2894 3584 3203 3211 
Q 3513 2838 3513 2113 
z
" transform="scale(0.015625)"/>
       <path id="DejaVuSans-75" d="M 544 1381 
L 544 3500 
L 1119 3500 
L 1119 1403 
Q 1119 906 1312 657 
Q 1506 409 1894 409 
Q 2359 409 2629 706 
Q 2900 1003 2900 1516 
L 2900 3500 
L 3475 3500 
L 3475 0 
L 2900 0 
L 2900 538 
Q 2691 219 2414 64 
Q 2138 -91 1772 -91 
Q 1169 -91 856 284 
Q 544 659 544 1381 
z
M 1991 3584 
L 1991 3584 
z
" transform="scale(0.015625)"/>
       <path id="DejaVuSans-74" d="M 1172 4494 
L 1172 3500 
L 2356 3500 
L 2356 3053 
L 1172 3053 
L 1172 1153 
Q 1172 725 1289 603 
Q 1406 481 1766 481 
L 2356 481 
L 2356 0 
L 1766 0 
Q 1100 0 847 248 
Q 594 497 594 1153 
L 594 3053 
L 172 3053 
L 172 3500 
L 594 3500 
L 594 4494 
L 1172 4494 
z
" transform="scale(0.015625)"/>
      </defs>
      <use xlink:href="#DejaVuSans-47"/>
      <use xlink:href="#DejaVuSans-61" transform="translate(77.490234 0)"/>
      <use xlink:href="#DejaVuSans-6d" transform="translate(138.769531 0)"/>
      <use xlink:href="#DejaVuSans-65" transform="translate(236.181641 0)"/>
      <use xlink:href="#DejaVuSans-20" transform="translate(297.705078 0)"/>
      <use xlink:href="#DejaVuSans-4d" transform="translate(329.492188 0)"/>
      <use xlink:href="#DejaVuSans-69" transform="translate(415.771484 0)"/>
      <use xlink:href="#DejaVuSans-6e" transform="translate(443.554688 0)"/>
      <use xlink:href="#DejaVuSans-75" transform="translate(506.933594 0)"/>
      <use xlink:href="#DejaVuSans-74" transform="translate(570.3125 0)"/>
      <use xlink:href="#DejaVuSans-65" transform="translate(609.521484 0)"/>
     </g>
    </g>
   </g>
   <g id="matplotlib.axis_2">
    <g id="ytick_1">
     <g id="line2d_10">
      <path d="M 55.73 340.852017 
L 853.2 340.852017 
" clip-path="url(#paf5d7783ac)" style="fill: none; stroke-dasharray: 2.96,1.28; stroke-dashoffset: 0; stroke: #b0b0b0; stroke-opacity: 0.7; stroke-width: 0.8"/>
     </g>
     <g id="line2d_11">
      <defs>
       <path id="m82a37d8e14" d="M 0 0 
L -3.5 0 
" style="stroke: #000000; stroke-width: 0.8"/>
      </defs>
      <g>
       <use xlink:href="#m82a37d8e14" x="55.73" y="340.852017" style="stroke: #000000; stroke-width: 0.8"/>
      </g>
     </g>
     <g id="text_11">
      <!-- −40 -->
      <g transform="translate(27.625313 344.651235) scale(0.1 -0.1)">
       <defs>
        <path id="DejaVuSans-2212" d="M 678 2272 
L 4684 2272 
L 4684 1741 
L 678 1741 
L 678 2272 
z
" transform="scale(0.015625)"/>
       </defs>
       <use xlink:href="#DejaVuSans-2212"/>
       <use xlink:href="#DejaVuSans-34" transform="translate(83.789062 0)"/>
       <use xlink:href="#DejaVuSans-30" transform="translate(147.412109 0)"/>
      </g>
     </g>
    </g>
    <g id="ytick_2">
     <g id="line2d_12">
      <path d="M 55.73 265.859331 
L 853.2 265.859331 
" clip-path="url(#paf5d7783ac)" style="fill: none; stroke-dasharray: 2.96,1.28; stroke-dashoffset: 0; stroke: #b0b0b0; stroke-opacity: 0.7; stroke-width: 0.8"/>
     </g>
     <g id="line2d_13">
      <g>
       <use xlink:href="#m82a37d8e14" x="55.73" y="265.859331" style="stroke: #000000; stroke-width: 0.8"/>
      </g>
     </g>
     <g id="text_12">
      <!-- −20 -->
      <g transform="translate(27.625313 269.65855) scale(0.1 -0.1)">
       <use xlink:href="#DejaVuSans-2212"/>
       <use xlink:href="#DejaVuSans-32" transform="translate(83.789062 0)"/>
       <use xlink:href="#DejaVuSans-30" transform="translate(147.412109 0)"/>
      </g>
     </g>
    </g>
    <g id="ytick_3">
     <g id="line2d_14">
      <path d="M 55.73 190.866646 
L 853.2 190.866646 
" clip-path="url(#paf5d7783ac)" style="fill: none; stroke-dasharray: 2.96,1.28; stroke-dashoffset: 0; stroke: #b0b0b0; stroke-opacity: 0.7; stroke-width: 0.8"/>
     </g>
     <g id="line2d_15">
      <g>
       <use xlink:href="#m82a37d8e14" x="55.73" y="190.866646" style="stroke: #000000; stroke-width: 0.8"/>
      </g>
     </g>
     <g id="text_13">
      <!-- 0 -->
      <g transform="translate(42.3675 194.665865) scale(0.1 -0.1)">
       <use xlink:href="#DejaVuSans-30"/>
      </g>
     </g>
    </g>
    <g id="ytick_4">
     <g id="line2d_16">
      <path d="M 55.73 115.87396 
L 853.2 115.87396 
" clip-path="url(#paf5d7783ac)" style="fill: none; stroke-dasharray: 2.96,1.28; stroke-dashoffset: 0; stroke: #b0b0b0; stroke-opacity: 0.7; stroke-width: 0.8"/>
     </g>
     <g id="line2d_17">
      <g>
       <use xlink:href="#m82a37d8e14" x="55.73" y="115.87396" style="stroke: #000000; stroke-width: 0.8"/>
      </g>
     </g>
     <g id="text_14">
      <!-- 20 -->
      <g transform="translate(36.005 119.673179) scale(0.1 -0.1)">
       <use xlink:href="#DejaVuSans-32"/>
       <use xlink:href="#DejaVuSans-30" transform="translate(63.623047 0)"/>
      </g>
     </g>
    </g>
    <g id="ytick_5">
     <g id="line2d_18">
      <path d="M 55.73 40.881275 
L 853.2 40.881275 
" clip-path="url(#paf5d7783ac)" style="fill: none; stroke-dasharray: 2.96,1.28; stroke-dashoffset: 0; stroke: #b0b0b0; stroke-opacity: 0.7; stroke-width: 0.8"/>
     </g>
     <g id="line2d_19">
      <g>
       <use xlink:href="#m82a37d8e14" x="55.73" y="40.881275" style="stroke: #000000; stroke-width: 0.8"/>
      </g>
     </g>
     <g id="text_15">
      <!-- 40 -->
      <g transform="translate(36.005 44.680494) scale(0.1 -0.1)">
       <use xlink:href="#DejaVuSans-34"/>
       <use xlink:href="#DejaVuSans-30" transform="translate(63.623047 0)"/>
      </g>
     </g>
    </g>
    <g id="text_16">
     <!-- Point Difference -->
     <g transform="translate(21.129687 255.56) rotate(-90) scale(0.12 -0.12)">
      <defs>
       <path id="DejaVuSans-50" d="M 1259 4147 
L 1259 2394 
L 2053 2394 
Q 2494 2394 2734 2622 
Q 2975 2850 2975 3272 
Q 2975 3691 2734 3919 
Q 2494 4147 2053 4147 
L 1259 4147 
z
M 628 4666 
L 2053 4666 
Q 2838 4666 3239 4311 
Q 3641 3956 3641 3272 
Q 3641 2581 3239 2228 
Q 2838 1875 2053 1875 
L 1259 1875 
L 1259 0 
L 628 0 
L 628 4666 
z
" transform="scale(0.015625)"/>
       <path id="DejaVuSans-6f" d="M 1959 3097 
Q 1497 3097 1228 2736 
Q 959 2375 959 1747 
Q 959 1119 1226 758 
Q 1494 397 1959 397 
Q 2419 397 2687 759 
Q 2956 1122 2956 1747 
Q 2956 2369 2687 2733 
Q 2419 3097 1959 3097 
z
M 1959 3584 
Q 2709 3584 3137 3096 
Q 3566 2609 3566 1747 
Q 3566 888 3137 398 
Q 2709 -91 1959 -91 
Q 1206 -91 779 398 
Q 353 888 353 1747 
Q 353 2609 779 3096 
Q 1206 3584 1959 3584 
z
" transform="scale(0.015625)"/>
       <path id="DejaVuSans-44" d="M 1259 4147 
L 1259 519 
L 2022 519 
Q 2988 519 3436 956 
Q 3884 1394 3884 2338 
Q 3884 3275 3436 3711 
Q 2988 4147 2022 4147 
L 1259 4147 
z
M 628 4666 
L 1925 4666 
Q 3281 4666 3915 4102 
Q 4550 3538 4550 2338 
Q 4550 1131 3912 565 
Q 3275 0 1925 0 
L 628 0 
L 628 4666 
z
" transform="scale(0.015625)"/>
       <path id="DejaVuSans-66" d="M 2375 4863 
L 2375 4384 
L 1825 4384 
Q 1516 4384 1395 4259 
Q 1275 4134 1275 3809 
L 1275 3500 
L 2222 3500 
L 2222 3053 
L 1275 3053 
L 1275 0 
L 697 0 
L 697 3053 
L 147 3053 
L 147 3500 
L 697 3500 
L 697 3744 
Q 697 4328 969 4595 
Q 1241 4863 1831 4863 
L 2375 4863 
z
" transform="scale(0.015625)"/>
       <path id="DejaVuSans-72" d="M 2631 2963 
Q 2534 3019 2420 3045 
Q 2306 3072 2169 3072 
Q 1681 3072 1420 2755 
Q 1159 2438 1159 1844 
L 1159 0 
L 581 0 
L 581 3500 
L 1159 3500 
L 1159 2956 
Q 1341 3275 1631 3429 
Q 1922 3584 2338 3584 
Q 2397 3584 2469 3576 
Q 2541 3569 2628 3553 
L 2631 2963 
z
" transform="scale(0.015625)"/>
       <path id="DejaVuSans-63" d="M 3122 3366 
L 3122 2828 
Q 2878 2963 2633 3030 
Q 2388 3097 2138 3097 
Q 1578 3097 1268 2742 
Q 959 2388 959 1747 
Q 959 1106 1268 751 
Q 1578 397 2138 397 
Q 2388 397 2633 464 
Q 2878 531 3122 666 
L 3122 134 
Q 2881 22 2623 -34 
Q 2366 -91 2075 -91 
Q 1284 -91 818 406 
Q 353 903 353 1747 
Q 353 2603 823 3093 
Q 1294 3584 2113 3584 
Q 2378 3584 2631 3529 
Q 2884 3475 3122 3366 
z
" transform="scale(0.015625)"/>
      </defs>
      <use xlink:href="#DejaVuSans-50"/>
      <use xlink:href="#DejaVuSans-6f" transform="translate(56.677734 0)"/>
      <use xlink:href="#DejaVuSans-69" transform="translate(117.859375 0)"/>
      <use xlink:href="#DejaVuSans-6e" transform="translate(145.642578 0)"/>
      <use xlink:href="#DejaVuSans-74" transform="translate(209.021484 0)"/>
      <use xlink:href="#DejaVuSans-20" transform="translate(248.230469 0)"/>
      <use xlink:href="#DejaVuSans-44" transform="translate(280.017578 0)"/>
      <use xlink:href="#DejaVuSans-69" transform="translate(357.019531 0)"/>
      <use xlink:href="#DejaVuSans-66" transform="translate(384.802734 0)"/>
      <use xlink:href="#DejaVuSans-66" transform="translate(420.007812 0)"/>
      <use xlink:href="#DejaVuSans-65" transform="translate(455.212891 0)"/>
      <use xlink:href="#DejaVuSans-72" transform="translate(516.736328 0)"/>
      <use xlink:href="#DejaVuSans-65" transform="translate(555.599609 0)"/>
      <use xlink:href="#DejaVuSans-6e" transform="translate(617.123047 0)"/>
      <use xlink:href="#DejaVuSans-63" transform="translate(680.501953 0)"/>
      <use xlink:href="#DejaVuSans-65" transform="translate(735.482422 0)"/>
     </g>
    </g>
   </g>
   <g id="line2d_20">
    <path d="M 55.73 190.866646 
L 853.2 190.866646 
" clip-path="url(#paf5d7783ac)" style="fill: none; stroke: #000000; stroke-width: 0.8; stroke-linecap: square"/>
   </g>
   <g id="patch_51">
    <path d="M 55.73 387.16 
L 55.73 28.32 
" style="fill: none; stroke: #000000; stroke-width: 0.8; stroke-linejoin: miter; stroke-linecap: square"/>
   </g>
   <g id="patch_52">
    <path d="M 853.2 387.16 
L 853.2 28.32 
" style="fill: none; stroke: #000000; stroke-width: 0.8; stroke-linejoin: miter; stroke-linecap: square"/>
   </g>
   <g id="patch_53">
    <path d="M 55.73 387.16 
L 853.2 387.16 
" style="fill: none; stroke: #000000; stroke-width: 0.8; stroke-linejoin: miter; stroke-linecap: square"/>
   </g>
   <g id="patch_54">
    <path d="M 55.73 28.32 
L 853.2 28.32 
" style="fill: none; stroke: #000000; stroke-width: 0.8; stroke-linejoin: miter; stroke-linecap: square"/>
   </g>
   <g id="text_17">
    <!-- Point Difference per Minute: DeMar DeRozan (24-25 vs 23-24) -->
    <g transform="translate(206.4375 22.32) scale(0.16 -0.16)">
     <defs>
      <path id="DejaVuSans-70" d="M 1159 525 
L 1159 -1331 
L 581 -1331 
L 581 3500 
L 1159 3500 
L 1159 2969 
Q 1341 3281 1617 3432 
Q 1894 3584 2278 3584 
Q 2916 3584 3314 3078 
Q 3713 2572 3713 1747 
Q 3713 922 3314 415 
Q 2916 -91 2278 -91 
Q 1894 -91 1617 61 
Q 1341 213 1159 525 
z
M 3116 1747 
Q 3116 2381 2855 2742 
Q 2594 3103 2138 3103 
Q 1681 3103 1420 2742 
Q 1159 2381 1159 1747 
Q 1159 1113 1420 752 
Q 1681 391 2138 391 
Q 2594 391 2855 752 
Q 3116 1113 3116 1747 
z
" transform="scale(0.015625)"/>
      <path id="DejaVuSans-3a" d="M 750 794 
L 1409 794 
L 1409 0 
L 750 0 
L 750 794 
z
M 750 3309 
L 1409 3309 
L 1409 2516 
L 750 2516 
L 750 3309 
z
" transform="scale(0.015625)"/>
      <path id="DejaVuSans-52" d="M 2841 2188 
Q 3044 2119 3236 1894 
Q 3428 1669 3622 1275 
L 4263 0 
L 3584 0 
L 2988 1197 
Q 2756 1666 2539 1819 
Q 2322 1972 1947 1972 
L 1259 1972 
L 1259 0 
L 628 0 
L 628 4666 
L 2053 4666 
Q 2853 4666 3247 4331 
Q 3641 3997 3641 3322 
Q 3641 2881 3436 2590 
Q 3231 2300 2841 2188 
z
M 1259 4147 
L 1259 2491 
L 2053 2491 
Q 2509 2491 2742 2702 
Q 2975 2913 2975 3322 
Q 2975 3731 2742 3939 
Q 2509 4147 2053 4147 
L 1259 4147 
z
" transform="scale(0.015625)"/>
      <path id="DejaVuSans-7a" d="M 353 3500 
L 3084 3500 
L 3084 2975 
L 922 459 
L 3084 459 
L 3084 0 
L 275 0 
L 275 525 
L 2438 3041 
L 353 3041 
L 353 3500 
z
" transform="scale(0.015625)"/>
      <path id="DejaVuSans-28" d="M 1984 4856 
Q 1566 4138 1362 3434 
Q 1159 2731 1159 2009 
Q 1159 1288 1364 580 
Q 1569 -128 1984 -844 
L 1484 -844 
Q 1016 -109 783 600 
Q 550 1309 550 2009 
Q 550 2706 781 3412 
Q 1013 4119 1484 4856 
L 1984 4856 
z
" transform="scale(0.015625)"/>
      <path id="DejaVuSans-2d" d="M 313 2009 
L 1997 2009 
L 1997 1497 
L 313 1497 
L 313 2009 
z
" transform="scale(0.015625)"/>
      <path id="DejaVuSans-35" d="M 691 4666 
L 3169 4666 
L 3169 4134 
L 1269 4134 
L 1269 2991 
Q 1406 3038 1543 3061 
Q 1681 3084 1819 3084 
Q 2600 3084 3056 2656 
Q 3513 2228 3513 1497 
Q 3513 744 3044 326 
Q 2575 -91 1722 -91 
Q 1428 -91 1123 -41 
Q 819 9 494 109 
L 494 744 
Q 775 591 1075 516 
Q 1375 441 1709 441 
Q 2250 441 2565 725 
Q 2881 1009 2881 1497 
Q 2881 1984 2565 2268 
Q 2250 2553 1709 2553 
Q 1456 2553 1204 2497 
Q 953 2441 691 2322 
L 691 4666 
z
" transform="scale(0.015625)"/>
      <path id="DejaVuSans-76" d="M 191 3500 
L 800 3500 
L 1894 563 
L 2988 3500 
L 3597 3500 
L 2284 0 
L 1503 0 
L 191 3500 
z
" transform="scale(0.015625)"/>
      <path id="DejaVuSans-73" d="M 2834 3397 
L 2834 2853 
Q 2591 2978 2328 3040 
Q 2066 3103 1784 3103 
Q 1356 3103 1142 2972 
Q 928 2841 928 2578 
Q 928 2378 1081 2264 
Q 1234 2150 1697 2047 
L 1894 2003 
Q 2506 1872 2764 1633 
Q 3022 1394 3022 966 
Q 3022 478 2636 193 
Q 2250 -91 1575 -91 
Q 1294 -91 989 -36 
Q 684 19 347 128 
L 347 722 
Q 666 556 975 473 
Q 1284 391 1588 391 
Q 1994 391 2212 530 
Q 2431 669 2431 922 
Q 2431 1156 2273 1281 
Q 2116 1406 1581 1522 
L 1381 1569 
Q 847 1681 609 1914 
Q 372 2147 372 2553 
Q 372 3047 722 3315 
Q 1072 3584 1716 3584 
Q 2034 3584 2315 3537 
Q 2597 3491 2834 3397 
z
" transform="scale(0.015625)"/>
      <path id="DejaVuSans-29" d="M 513 4856 
L 1013 4856 
Q 1481 4119 1714 3412 
Q 1947 2706 1947 2009 
Q 1947 1309 1714 600 
Q 1481 -109 1013 -844 
L 513 -844 
Q 928 -128 1133 580 
Q 1338 1288 1338 2009 
Q 1338 2731 1133 3434 
Q 928 4138 513 4856 
z
" transform="scale(0.015625)"/>
     </defs>
     <use xlink:href="#DejaVuSans-50"/>
     <use xlink:href="#DejaVuSans-6f" transform="translate(56.677734 0)"/>
     <use xlink:href="#DejaVuSans-69" transform="translate(117.859375 0)"/>
     <use xlink:href="#DejaVuSans-6e" transform="translate(145.642578 0)"/>
     <use xlink:href="#DejaVuSans-74" transform="translate(209.021484 0)"/>
     <use xlink:href="#DejaVuSans-20" transform="translate(248.230469 0)"/>
     <use xlink:href="#DejaVuSans-44" transform="translate(280.017578 0)"/>
     <use xlink:href="#DejaVuSans-69" transform="translate(357.019531 0)"/>
     <use xlink:href="#DejaVuSans-66" transform="translate(384.802734 0)"/>
     <use xlink:href="#DejaVuSans-66" transform="translate(420.007812 0)"/>
     <use xlink:href="#DejaVuSans-65" transform="translate(455.212891 0)"/>
     <use xlink:href="#DejaVuSans-72" transform="translate(516.736328 0)"/>
     <use xlink:href="#DejaVuSans-65" transform="translate(555.599609 0)"/>
     <use xlink:href="#DejaVuSans-6e" transform="translate(617.123047 0)"/>
     <use xlink:href="#DejaVuSans-63" transform="translate(680.501953 0)"/>
     <use xlink:href="#DejaVuSans-65" transform="translate(735.482422 0)"/>
     <use xlink:href="#DejaVuSans-20" transform="translate(797.005859 0)"/>
     <use xlink:href="#DejaVuSans-70" transform="translate(828.792969 0)"/>
     <use xlink:href="#DejaVuSans-65" transform="translate(892.269531 0)"/>
     <use xlink:href="#DejaVuSans-72" transform="translate(953.792969 0)"/>
     <use xlink:href="#DejaVuSans-20" transform="translate(994.90625 0)"/>
     <use xlink:href="#DejaVuSans-4d" transform="translate(1026.693359 0)"/>
     <use xlink:href="#DejaVuSans-69" transform="translate(1112.972656 0)"/>
     <use xlink:href="#DejaVuSans-6e" transform="translate(1140.755859 0)"/>
     <use xlink:href="#DejaVuSans-75" transform="translate(1204.134766 0)"/>
     <use xlink:href="#DejaVuSans-74" transform="translate(1267.513672 0)"/>
     <use xlink:href="#DejaVuSans-65" transform="translate(1306.722656 0)"/>
     <use xlink:href="#DejaVuSans-3a" transform="translate(1368.246094 0)"/>
     <use xlink:href="#DejaVuSans-20" transform="translate(1401.9375 0)"/>
     <use xlink:href="#DejaVuSans-44" transform="translate(1433.724609 0)"/>
     <use xlink:href="#DejaVuSans-65" transform="translate(1510.726562 0)"/>
     <use xlink:href="#DejaVuSans-4d" transform="translate(1572.25 0)"/>
     <use xlink:href="#DejaVuSans-61" transform="translate(1658.529297 0)"/>
     <use xlink:href="#DejaVuSans-72" transform="translate(1719.808594 0)"/>
     <use xlink:href="#DejaVuSans-20" transform="translate(1760.921875 0)"/>
     <use xlink:href="#DejaVuSans-44" transform="translate(1792.708984 0)"/>
     <use xlink:href="#DejaVuSans-65" transform="translate(1869.710938 0)"/>
     <use xlink:href="#DejaVuSans-52" transform="translate(1931.234375 0)"/>
     <use xlink:href="#DejaVuSans-6f" transform="translate(1996.216797 0)"/>
     <use xlink:href="#DejaVuSans-7a" transform="translate(2057.398438 0)"/>
     <use xlink:href="#DejaVuSans-61" transform="translate(2109.888672 0)"/>
     <use xlink:href="#DejaVuSans-6e" transform="translate(2171.167969 0)"/>
     <use xlink:href="#DejaVuSans-20" transform="translate(2234.546875 0)"/>
     <use xlink:href="#DejaVuSans-28" transform="translate(2266.333984 0)"/>
     <use xlink:href="#DejaVuSans-32" transform="translate(2305.347656 0)"/>
     <use xlink:href="#DejaVuSans-34" transform="translate(2368.970703 0)"/>
     <use xlink:href="#DejaVuSans-2d" transform="translate(2432.59375 0)"/>
     <use xlink:href="#DejaVuSans-32" transform="translate(2468.677734 0)"/>
     <use xlink:href="#DejaVuSans-35" transform="translate(2532.300781 0)"/>
     <use xlink:href="#DejaVuSans-20" transform="translate(2595.923828 0)"/>
     <use xlink:href="#DejaVuSans-76" transform="translate(2627.710938 0)"/>
     <use xlink:href="#DejaVuSans-73" transform="translate(2686.890625 0)"/>
     <use xlink:href="#DejaVuSans-20" transform="translate(2738.990234 0)"/>
     <use xlink:href="#DejaVuSans-32" transform="translate(2770.777344 0)"/>
     <use xlink:href="#DejaVuSans-33" transform="translate(2834.400391 0)"/>
     <use xlink:href="#DejaVuSans-2d" transform="translate(2898.023438 0)"/>
     <use xlink:href="#DejaVuSans-32" transform="translate(2934.107422 0)"/>
     <use xlink:href="#DejaVuSans-34" transform="translate(2997.730469 0)"/>
     <use xlink:href="#DejaVuSans-29" transform="translate(3061.353516 0)"/>
    </g>
   </g>
  </g>
 </g>
 <defs>
  <clipPath id="paf5d7783ac">
   <rect x="55.73" y="28.32" width="797.47" height="358.84"/>
  </clipPath>
 </defs>
</svg>
