<svg xmlns="http://www.w3.org/2000/svg" width="2500" height="2500" viewBox="0 0 192.756 192.756"><g fill-rule="evenodd" clip-rule="evenodd"><path fill="#fff" d="M0 0h192.756v192.756H0z"/><path fill="#245497" d="M184.252 96.378c0 48.53-39.344 87.874-87.875 87.874S8.504 144.908 8.504 96.378c0-48.532 39.341-87.874 87.873-87.874 48.531 0 87.875 39.342 87.875 87.874"/><path fill="#fff" d="M96.377 23.821c-40.073 0-72.557 32.484-72.557 72.557 0 40.071 32.484 72.559 72.557 72.559s72.557-32.487 72.557-72.559c0-40.073-32.485-72.557-72.557-72.557"/><path fill="#c31f39" d="M96.377 138.63c-29.506 0-53.643-17.385-55.596-39.375h-11.12c1.508 35.551 30.794 63.914 66.716 63.914s65.209-28.363 66.717-63.914h-11.119c-1.954 21.99-26.092 39.375-55.598 39.375m0-84.501c29.506 0 53.645 17.382 55.598 39.373h11.119c-1.508-35.55-30.795-63.913-66.717-63.913S31.169 57.951 29.661 93.501h11.12c1.953-21.99 26.09-39.372 55.596-39.372"/><path fill="#c31f39" d="M96.377 138.63c29.506 0 53.645-17.385 55.598-39.375h-7.402v-5.753h7.402c-1.953-21.991-26.092-39.373-55.598-39.373S42.734 71.511 40.781 93.502h7.501v5.753h-7.501c1.953 21.99 26.09 39.375 55.596 39.375"/><path fill="#fff" d="M96.377 48.338c-33.927 0-61.53 21.552-61.53 48.04 0 26.49 27.603 48.043 61.53 48.043 33.93 0 61.531-21.553 61.531-48.043 0-26.488-27.601-48.04-61.531-48.04m0 90.292c-30.783 0-55.739-18.917-55.739-42.252 0-23.333 24.956-42.249 55.739-42.249 30.785 0 55.74 18.916 55.74 42.249 0 23.335-24.955 42.252-55.74 42.252"/><path fill="#fff" d="M55.375 72.968h4.069q2.376 0 3.579.38a4.5 4.5 0 0 1 2.004 1.269q.772.862 1.104 2.22t.332 3.799v5.111q0 2.437-.332 3.807t-1.104 2.227q-.789.871-2.011 1.247-1.221.373-3.571.372h-4.069zm4.277 3.168v14.129h.382q1.258-.002 1.738-.479.478-.478.478-1.682v-9.821q0-1.206-.478-1.676-.48-.471-1.738-.471zm9.666-3.168h8.394v3.168h-4.181v5.005h3.865v3.168h-3.865v5.956h4.53v3.134h-8.743zm10.056 0h10.643v3.168H86.85v17.263h-4.34V76.136h-3.136zm12.479 0h5.117q3.005 0 4.312 1.107c.877.738 1.311 1.949 1.311 3.627v.862q.001 2.208-.941 3.277-.944 1.07-3.121 1.389 2.263.194 3.16 1.314.903 1.123.902 3.848v5.007H98.38v-6.266q0-1.535-.42-1.941-.422-.41-1.693-.409h-.454v8.616h-3.959V72.968zm3.959 3.042v5.764h.372q1.228 0 1.695-.506c.467-.506.467-.946.467-1.827v-1.099q0-1.319-.467-1.825-.467-.508-1.695-.507zm20.813 3.867v6.582c0 2.778-.416 4.686-1.256 5.728q-1.252 1.561-4.461 1.561-3.219 0-4.467-1.546c-.832-1.033-1.252-2.946-1.252-5.742v-6.582c0-2.761.42-4.653 1.252-5.682s2.32-1.544 4.467-1.544c2.145 0 3.639.515 4.469 1.544q1.248 1.54 1.248 5.681m-4.213-.929q0-1.983-.324-2.572-.323-.588-1.18-.588-.839 0-1.174.608-.332.61-.332 2.552v8.454c0 1.313.111 2.166.324 2.558q.327.59 1.182.589.842 0 1.176-.603.328-.602.328-2.543zm7.127-5.98h4.213v20.431h-4.213zm6.15 0h10.643v3.168h-3.168v17.263h-4.338V76.136h-3.137zM55.375 99.324h4.307q3.294 0 4.645 1.276 1.347 1.273 1.349 4.296v1.337q0 2.87-1.291 4.219-1.292 1.354-4.024 1.354h-1.118v7.951h-3.867V99.324zm3.868 3.042v6.432h.359q1.092 0 1.527-.575.432-.571.433-2.044v-1.228q0-1.46-.433-2.021-.436-.565-1.527-.563h-.359zm8.607-3.042h4.115v20.433H67.85zm17.14 4.547v1.535h-4.02v-1.813q-.001-.818-.231-1.152-.229-.325-.797-.326c-.369 0-.624.104-.768.323-.145.214-.216.603-.216 1.155v1.329q.001.776.371 1.376.372.605 1.423 1.405l1.679 1.304q.137.095.408.305 1.219.914 1.667 1.674.34.57.49 1.269c.099.468.147 1.023.147 1.683v1.244q0 2.368-1.426 3.646-1.428 1.277-4.079 1.278-2.705-.001-3.89-1.195c-.79-.797-1.182-2.11-1.182-3.952v-1.505h4.113v1.728q0 .938.271 1.329c.181.261.485.396.918.396q.648-.001.904-.367.258-.363.258-1.358v-.789c0-.575-.12-1.068-.362-1.488-.238-.421-.811-.971-1.71-1.655l-1.702-1.315q-1.209-.926-1.734-1.992-.525-1.067-.524-2.534v-1.785q0-2.072 1.454-3.342 1.452-1.272 3.885-1.271 2.299 0 3.476 1.228 1.177 1.226 1.177 3.632m1.586-4.547h10.393v3.167h-3.093v17.266h-4.238v-17.266h-3.062zm23.285 6.906v6.586q.001 4.162-1.223 5.726c-.82 1.041-2.27 1.563-4.361 1.563s-3.547-.519-4.357-1.549q-1.223-1.548-1.221-5.74v-6.586c0-2.76.404-4.652 1.221-5.683q1.219-1.539 4.357-1.54 3.148.001 4.365 1.54c.817 1.031 1.219 2.924 1.219 5.683m-4.109-.924q0-1.984-.32-2.576-.314-.588-1.154-.587-.815 0-1.143.611c-.213.405-.324 1.257-.324 2.552v8.452c0 1.312.107 2.168.32 2.558q.317.59 1.146.591c.829.001.934-.202 1.15-.605.213-.4.324-1.248.324-2.543zm6.861-5.982h5.395l2.957 17.286h.275l-.302-17.286h3.369v20.433h-5.45l-2.9-17.303h-.271l.271 17.303h-3.344zm24.612 4.547v1.535h-4.023v-1.813q0-.818-.229-1.152-.226-.325-.793-.326c-.373 0-.627.104-.771.323-.145.214-.215.603-.215 1.155v1.329q0 .776.371 1.376.37.605 1.424 1.405l1.678 1.304q.134.095.408.305 1.219.914 1.666 1.674.34.57.486 1.269c.1.468.152 1.023.152 1.683v1.244q-.001 2.368-1.426 3.646-1.428 1.277-4.082 1.278c-1.803 0-3.102-.4-3.887-1.195-.791-.797-1.184-2.11-1.184-3.952v-1.505h4.111v1.728q0 .938.273 1.329c.178.261.482.396.918.396q.647-.001.904-.367.258-.363.258-1.358v-.789c0-.575-.121-1.068-.361-1.488q-.363-.63-1.711-1.655l-1.703-1.315q-1.211-.926-1.732-1.992-.524-1.067-.523-2.534v-1.785q-.002-2.072 1.453-3.342 1.454-1.272 3.883-1.271c1.537 0 2.693.409 3.479 1.228.781.817 1.176 2.028 1.176 3.632"/></g></svg>