<?xml version="1.0" encoding="UTF-8"?>
<!DOCTYPE svg PUBLIC "-//W3C//DTD SVG 1.1//EN" "http://www.w3.org/Graphics/SVG/1.1/DTD/svg11.dtd">
<svg xmlns="http://www.w3.org/2000/svg" version="1.1" width="1657px" height="2000px" style="shape-rendering:geometricPrecision; text-rendering:geometricPrecision; image-rendering:optimizeQuality; fill-rule:evenodd; clip-rule:evenodd" xmlns:xlink="http://www.w3.org/1999/xlink">
<g><path style="opacity:0.952" fill="#fcb827" d="M 746.5,-0.5 C 761.167,-0.5 775.833,-0.5 790.5,-0.5C 809.45,24.9566 828.617,50.29 848,75.5C 848.5,50.1689 848.667,24.8355 848.5,-0.5C 859.5,-0.5 870.5,-0.5 881.5,-0.5C 881.5,43.8333 881.5,88.1667 881.5,132.5C 870.495,132.667 859.495,132.5 848.5,132C 829.333,106.833 810.167,81.6667 791,56.5C 790.667,81.5 790.333,106.5 790,131.5C 778.915,132.487 767.748,132.821 756.5,132.5C 756.667,93.1653 756.5,53.8319 756,14.5C 753,12.1667 750,9.83333 747,7.5C 746.503,4.85397 746.336,2.1873 746.5,-0.5 Z"/></g>
<g><path style="opacity:0.938" fill="#fcb827" d="M 692.5,4.5 C 694.924,4.19244 697.257,4.52577 699.5,5.5C 698.304,15.1288 697.304,24.7954 696.5,34.5C 679.826,37.2234 663.16,40.0568 646.5,43C 645.422,43.6739 644.755,44.6739 644.5,46C 645.28,52.6186 646.613,59.1186 648.5,65.5C 664.073,62.2934 679.739,59.6267 695.5,57.5C 697.316,67.0975 698.649,76.7641 699.5,86.5C 684.406,88.6522 669.406,91.3189 654.5,94.5C 654.167,95.3333 653.833,96.1667 653.5,97C 654.667,103.5 655.833,110 657,116.5C 657.725,117.059 658.558,117.392 659.5,117.5C 677.738,114.322 695.904,110.989 714,107.5C 717.17,117.189 719.003,127.189 719.5,137.5C 689.785,142.109 660.118,147.109 630.5,152.5C 629.5,152.167 628.5,151.833 627.5,151.5C 620.608,113.151 613.608,74.818 606.5,36.5C 603.254,34.9608 600.088,33.2941 597,31.5C 595.801,28.2744 595.301,24.941 595.5,21.5C 628.079,16.5712 660.412,10.9045 692.5,4.5 Z"/></g>
<g><path style="opacity:0.94" fill="#fcb827" d="M 1056.5,29.5 C 1080.47,27.8281 1101.13,35.1615 1118.5,51.5C 1115.32,61.9021 1111.98,72.2354 1108.5,82.5C 1101.18,74.0019 1092.52,67.1686 1082.5,62C 1077.03,59.7146 1071.36,59.0479 1065.5,60C 1063.67,60.5 1062.5,61.6667 1062,63.5C 1060.96,67.5328 1061.63,71.1995 1064,74.5C 1071.72,82.5588 1079.72,90.2254 1088,97.5C 1104.83,115.645 1105.83,134.645 1091,154.5C 1078.54,165.574 1064.04,169.408 1047.5,166C 1030.89,162.945 1016.39,155.778 1004,144.5C 1006.35,132.78 1009.18,121.113 1012.5,109.5C 1018.18,114.677 1023.85,120.177 1029.5,126C 1036.79,131.562 1044.96,135.062 1054,136.5C 1063.66,135.163 1066.33,130.163 1062,121.5C 1051.61,111.113 1041.28,100.779 1031,90.5C 1019.75,68.4185 1023.91,49.9185 1043.5,35C 1047.74,32.6512 1052.07,30.8179 1056.5,29.5 Z"/></g>
<g><path style="opacity:0.944" fill="#fcb827" d="M 502.5,52.5 C 548.069,52.5639 572.736,75.3973 576.5,121C 574.652,146.495 562.652,165.495 540.5,178C 519.887,186.759 499.054,194.926 478,202.5C 475.427,198.455 473.427,194.122 472,189.5C 460.394,156.847 448.894,124.18 437.5,91.5C 433.049,90.8509 428.716,89.6842 424.5,88C 422.596,85.1226 421.596,81.9559 421.5,78.5C 443.244,71.3072 464.911,63.8072 486.5,56C 491.954,54.7451 497.287,53.5784 502.5,52.5 Z M 497.5,83.5 C 517.071,81.3654 530.571,89.3654 538,107.5C 546.027,130.613 538.86,147.113 516.5,157C 510.981,159.34 505.314,161.173 499.5,162.5C 491.745,138.983 483.411,115.65 474.5,92.5C 482.124,89.1805 489.79,86.1805 497.5,83.5 Z"/></g>
<g><path style="opacity:0.938" fill="#fcb827" d="M 1167.5,64.5 C 1203.26,80.5477 1238.93,96.881 1274.5,113.5C 1275.58,114.365 1275.75,115.365 1275,116.5C 1271.01,124.295 1267.51,132.295 1264.5,140.5C 1251.41,135.522 1238.58,129.855 1226,123.5C 1211.4,154.457 1196.9,185.457 1182.5,216.5C 1181.28,217.614 1179.94,217.781 1178.5,217C 1169.17,212.667 1159.83,208.333 1150.5,204C 1150.04,203.586 1149.71,203.086 1149.5,202.5C 1164.04,171.258 1178.7,140.091 1193.5,109C 1181.53,102.766 1169.36,96.9324 1157,91.5C 1156.33,90.1667 1156.33,88.8333 1157,87.5C 1160.8,79.9354 1164.3,72.2687 1167.5,64.5 Z"/></g>
<g><path style="opacity:0.938" fill="#fcb827" d="M 319.5,134.5 C 320.675,134.281 321.675,134.614 322.5,135.5C 339.081,164.996 355.914,194.33 373,223.5C 393.022,211.744 413.188,200.41 433.5,189.5C 435.358,197.908 437.525,206.242 440,214.5C 440.667,216.5 440.667,218.5 440,220.5C 412.915,236.293 385.748,251.96 358.5,267.5C 338.091,234.361 318.425,200.695 299.5,166.5C 295.688,164.922 291.688,163.756 287.5,163C 283.326,158.976 283.659,155.643 288.5,153C 299.228,147.311 309.561,141.144 319.5,134.5 Z"/></g>
<g><path style="opacity:0.942" fill="#fcb827" d="M 1326.5,145.5 C 1341.83,154.329 1356.5,164.162 1370.5,175C 1360.59,214.803 1350.76,254.636 1341,294.5C 1338.35,299.805 1335.18,304.805 1331.5,309.5C 1323.11,304.312 1315.11,298.646 1307.5,292.5C 1312.44,284.004 1315.11,274.838 1315.5,265C 1302.26,255.462 1288.76,246.296 1275,237.5C 1270.25,240.128 1265.41,242.628 1260.5,245C 1257.69,248.981 1254.35,252.481 1250.5,255.5C 1242.08,250.89 1234.41,245.39 1227.5,239C 1230.2,233.269 1233.86,228.269 1238.5,224C 1266.83,203.667 1295.17,183.333 1323.5,163C 1324.06,162.275 1324.39,161.442 1324.5,160.5C 1323.69,158.377 1323.02,156.21 1322.5,154C 1323.19,150.827 1324.52,147.994 1326.5,145.5 Z M 1330.5,195.5 C 1331.5,195.47 1332.16,195.97 1332.5,197C 1328.77,209.767 1325.27,222.601 1322,235.5C 1314.17,230.333 1306.33,225.167 1298.5,220C 1309.35,211.97 1320.02,203.803 1330.5,195.5 Z"/></g>
<g><path style="opacity:0.985" fill="#1e4289" d="M 782.5,168.5 C 998.462,163.901 1186.8,232.735 1347.5,375C 1508.69,524.587 1595.86,709.754 1609,930.5C 1614.31,1147.38 1545.31,1336.38 1402,1497.5C 1252.34,1658.4 1067.17,1745.23 846.5,1758C 630.858,1763.36 442.858,1695.03 282.5,1553C 148.222,1429.56 64.389,1278.73 31,1100.5C -4.34246,881.892 41.6575,681.892 169,500.5C 287.518,340.098 444.018,235.931 638.5,188C 686.093,177.386 734.093,170.886 782.5,168.5 Z"/></g>
<g><path style="opacity:0.947" fill="#fcb827" d="M 214.5,212.5 C 254.108,209.962 280.608,227.295 294,264.5C 299.761,305.141 283.928,333.974 246.5,351C 204.279,362.599 173.945,348.599 155.5,309C 146.043,271.572 157.71,242.572 190.5,222C 198.272,217.936 206.272,214.769 214.5,212.5 Z M 215.5,245.5 C 237.796,245.24 252.962,255.573 261,276.5C 264.972,298.058 256.805,312.892 236.5,321C 212.253,324.451 195.753,314.617 187,291.5C 183.514,268.14 193.014,252.807 215.5,245.5 Z"/></g>
<g><path style="opacity:0.938" fill="#fcb827" d="M 1426.5,218.5 C 1427.87,218.343 1429.21,218.51 1430.5,219C 1458.98,245.317 1487.32,271.817 1515.5,298.5C 1508.81,305.526 1502.14,312.526 1495.5,319.5C 1485.18,310.351 1475.02,301.018 1465,291.5C 1441.63,317.529 1417.63,342.862 1393,367.5C 1384.36,360.031 1375.86,352.365 1367.5,344.5C 1391.17,318.833 1414.83,293.167 1438.5,267.5C 1428.5,257.833 1418.5,248.167 1408.5,238.5C 1414.89,232.112 1420.89,225.445 1426.5,218.5 Z"/></g>
<g><path style="opacity:1" fill="#fbb728" d="M 1521.5,764.5 C 1521.41,767.152 1522.08,769.485 1523.5,771.5C 1546.49,855.987 1554.15,941.987 1546.5,1029.5C 1545.19,1034.62 1544.53,1039.95 1544.5,1045.5C 1544.5,1046.17 1544.5,1046.83 1544.5,1047.5C 1543.11,1052.27 1542.44,1057.27 1542.5,1062.5C 1511.71,1257.98 1419.71,1417.48 1266.5,1541C 1161.02,1623.21 1041.69,1673.38 908.5,1691.5C 904.295,1691.72 900.295,1692.38 896.5,1693.5C 842.815,1698.8 789.148,1698.8 735.5,1693.5C 730.384,1692.19 725.051,1691.53 719.5,1691.5C 524.174,1663.29 364.341,1573.29 240,1421.5C 114.483,1259.16 62.8161,1075.49 85,870.5C 90.1119,833.097 97.9453,796.43 108.5,760.5C 109.924,758.485 110.59,756.152 110.5,753.5C 164.935,580.722 267.602,444.555 418.5,345C 504.872,289.32 598.872,253.487 700.5,237.5C 705.414,237.638 710.081,236.972 714.5,235.5C 717.287,234.523 720.287,234.19 723.5,234.5C 728.1,234.72 732.433,234.054 736.5,232.5C 918.579,215.767 1084.91,258.6 1235.5,361C 1361,450.195 1450.83,567.029 1505,711.5C 1511.59,728.854 1517.09,746.521 1521.5,764.5 Z"/></g>
<g><path style="opacity:1" fill="#c79b42" d="M 736.5,232.5 C 732.433,234.054 728.1,234.72 723.5,234.5C 727.567,232.946 731.9,232.28 736.5,232.5 Z"/></g>
<g><path style="opacity:1" fill="#c99c42" d="M 714.5,235.5 C 710.081,236.972 705.414,237.638 700.5,237.5C 704.919,236.028 709.586,235.362 714.5,235.5 Z"/></g>
<g><path style="opacity:1" fill="#1d4289" d="M 875.5,271.5 C 880.616,272.806 885.949,273.473 891.5,273.5C 917.642,276.794 943.642,281.127 969.5,286.5C 971.515,287.924 973.848,288.59 976.5,288.5C 1147,332.924 1283.17,426.591 1385,569.5C 1482.91,712.806 1522.74,871.14 1504.5,1044.5C 1503.48,1047.97 1502.81,1051.64 1502.5,1055.5C 1493.81,1119.87 1476.64,1181.87 1451,1241.5C 1450.21,1244.12 1448.71,1246.12 1446.5,1247.5C 1257.09,1184.79 1077.42,1101.62 907.5,998C 799.944,931.853 699.944,855.519 607.5,769C 580.197,742.37 554.364,714.537 530,685.5C 528.958,657.837 528.125,630.17 527.5,602.5C 515.935,600.775 504.602,598.109 493.5,594.5C 492.501,609.819 492.167,625.152 492.5,640.5C 482.833,640.5 473.167,640.5 463.5,640.5C 463.5,624.5 463.5,608.5 463.5,592.5C 461.585,592.216 459.919,592.549 458.5,593.5C 447.555,595.795 436.722,598.462 426,601.5C 425.667,607.5 425.333,613.5 425,619.5C 420.086,622.04 415.253,624.706 410.5,627.5C 409.667,646.825 409.167,666.158 409,685.5C 357.828,774.636 301.161,859.969 239,941.5C 213.35,973.493 185.85,1003.99 156.5,1033C 147.2,1041.31 137.533,1049.15 127.5,1056.5C 103.892,878.985 142.059,716.319 242,568.5C 353.765,411.973 504.598,315.473 694.5,279C 706.478,277.169 718.478,275.669 730.5,274.5C 735.414,274.638 740.081,273.972 744.5,272.5C 788.128,268.942 831.794,268.609 875.5,271.5 Z"/></g>
<g><path style="opacity:1" fill="#ad8d4c" d="M 875.5,271.5 C 881.069,271.376 886.402,272.043 891.5,273.5C 885.949,273.473 880.616,272.806 875.5,271.5 Z"/></g>
<g><path style="opacity:1" fill="#595d72" d="M 744.5,272.5 C 740.081,273.972 735.414,274.638 730.5,274.5C 734.919,273.028 739.586,272.362 744.5,272.5 Z"/></g>
<g><path style="opacity:1" fill="#b3904a" d="M 969.5,286.5 C 972.152,286.41 974.485,287.076 976.5,288.5C 973.848,288.59 971.515,287.924 969.5,286.5 Z"/></g>
<g><path style="opacity:0.937" fill="#fcb827" d="M 1540.5,327.5 C 1545.88,331.386 1550.04,336.386 1553,342.5C 1571.23,365.058 1589.06,387.891 1606.5,411C 1598.18,416.075 1589.35,420.242 1580,423.5C 1568.82,410.306 1557.98,396.806 1547.5,383C 1544.46,383.327 1541.79,384.66 1539.5,387C 1536.02,389.646 1532.69,392.479 1529.5,395.5C 1539.17,408.167 1548.83,420.833 1558.5,433.5C 1551.13,439.373 1543.63,445.04 1536,450.5C 1525.7,438.517 1515.7,426.183 1506,413.5C 1499.83,418.333 1493.67,423.167 1487.5,428C 1499.41,443.171 1511.08,458.504 1522.5,474C 1515.67,480.658 1508.33,486.825 1500.5,492.5C 1481.01,468.168 1461.67,443.668 1442.5,419C 1473.42,394.62 1504.26,370.12 1535,345.5C 1535.25,341.147 1535.25,336.813 1535,332.5C 1537.33,331.336 1539.16,329.67 1540.5,327.5 Z"/></g>
<g><path style="opacity:0.939" fill="#fcb827" d="M 95.5,337.5 C 103.5,337.5 111.5,337.5 119.5,337.5C 119.649,338.552 119.483,339.552 119,340.5C 110.976,350.357 103.143,360.357 95.5,370.5C 75.2223,378.263 65.7223,392.929 67,414.5C 75.5922,438.373 92.4255,448.873 117.5,446C 139.867,436.909 147.7,420.743 141,397.5C 134.156,405.873 127.323,414.206 120.5,422.5C 112.805,417.317 105.472,411.651 98.5,405.5C 109.808,390.358 121.308,375.358 133,360.5C 136.368,356.136 140.034,352.136 144,348.5C 167.428,363.687 178.428,385.354 177,413.5C 174.073,434.852 164.239,452.352 147.5,466C 117.618,486.91 87.9517,486.576 58.5,465C 31.4521,438.877 26.6188,409.044 44,375.5C 55.7393,355.39 72.906,342.723 95.5,337.5 Z"/></g>
<g><path style="opacity:1" fill="#9d8452" d="M 458.5,593.5 C 459.919,592.549 461.585,592.216 463.5,592.5C 463.5,608.5 463.5,624.5 463.5,640.5C 473.167,640.5 482.833,640.5 492.5,640.5C 482.681,641.494 472.681,641.827 462.5,641.5C 462.5,625.5 462.5,609.5 462.5,593.5C 461.167,593.5 459.833,593.5 458.5,593.5 Z"/></g>
<g><path style="opacity:1" fill="#1c418a" d="M 463.5,725.5 C 472.833,725.5 482.167,725.5 491.5,725.5C 491.5,733.833 491.5,742.167 491.5,750.5C 482.167,750.5 472.833,750.5 463.5,750.5C 463.5,742.167 463.5,733.833 463.5,725.5 Z"/></g>
<g><path style="opacity:1" fill="#39517c" d="M 463.5,725.5 C 463.5,733.833 463.5,742.167 463.5,750.5C 472.833,750.5 482.167,750.5 491.5,750.5C 482.014,751.494 472.348,751.827 462.5,751.5C 462.174,742.651 462.507,733.984 463.5,725.5 Z"/></g>
<g><path style="opacity:1" fill="#4b5677" d="M 462.5,751.5 C 462.5,764.833 462.5,778.167 462.5,791.5C 461.5,791.5 460.5,791.5 459.5,791.5C 459.5,778.167 459.5,764.833 459.5,751.5C 460.5,751.5 461.5,751.5 462.5,751.5 Z"/></g>
<g><path style="opacity:1" fill="#1f4289" d="M 782.5,1316.5 C 781.198,1318.03 779.531,1319.03 777.5,1319.5C 762.156,1319.46 746.823,1319.79 731.5,1320.5C 724.5,1320.5 717.5,1320.5 710.5,1320.5C 710.405,1318.21 709.738,1316.21 708.5,1314.5C 702.661,1291.61 696.328,1268.94 689.5,1246.5C 689.59,1243.85 688.924,1241.51 687.5,1239.5C 676.405,1197.57 664.739,1155.9 652.5,1114.5C 652.59,1111.85 651.924,1109.51 650.5,1107.5C 646.946,1092.94 642.946,1078.61 638.5,1064.5C 638.59,1061.85 637.924,1059.51 636.5,1057.5C 623.106,1007.25 609.106,957.247 594.5,907.5C 594.59,904.848 593.924,902.515 592.5,900.5C 578.53,850.954 565.03,801.288 552,751.5C 558.667,758.833 565.333,766.167 572,773.5C 595.082,796.916 618.415,819.916 642,842.5C 688.557,1000.61 735.391,1158.61 782.5,1316.5 Z"/></g>
<g><path style="opacity:1" fill="#b2904c" d="M 110.5,753.5 C 110.59,756.152 109.924,758.485 108.5,760.5C 108.41,757.848 109.076,755.515 110.5,753.5 Z"/></g>
<g><path style="opacity:1" fill="#65656b" d="M 387.5,765.5 C 387.5,764.833 387.167,764.5 386.5,764.5C 387.32,762.86 388.153,761.193 389,759.5C 389.405,761.775 388.905,763.775 387.5,765.5 Z"/></g>
<g><path style="opacity:1" fill="#4e5975" d="M 533.5,766.5 C 532.511,771.975 532.178,777.642 532.5,783.5C 531.344,776.011 531.178,768.345 532,760.5C 532.813,762.436 533.313,764.436 533.5,766.5 Z"/></g>
<g><path style="opacity:1" fill="#b6924a" d="M 1521.5,764.5 C 1522.92,766.515 1523.59,768.848 1523.5,771.5C 1522.08,769.485 1521.41,767.152 1521.5,764.5 Z"/></g>
<g><path style="opacity:1" fill="#1f4289" d="M 386.5,764.5 C 387.167,764.5 387.5,764.833 387.5,765.5C 386.293,769.786 385.293,774.12 384.5,778.5C 383.076,780.515 382.41,782.848 382.5,785.5C 370.579,827.033 358.913,868.7 347.5,910.5C 346.076,912.515 345.41,914.848 345.5,917.5C 333.611,958.992 321.944,1000.66 310.5,1042.5C 309.076,1044.51 308.41,1046.85 308.5,1049.5C 301.568,1071.88 295.235,1094.55 289.5,1117.5C 288.076,1119.51 287.41,1121.85 287.5,1124.5C 267.408,1194.63 247.574,1264.96 228,1335.5C 209.985,1307.64 194.151,1278.48 180.5,1248C 183.904,1235.96 187.571,1224.13 191.5,1212.5C 192.924,1210.49 193.59,1208.15 193.5,1205.5C 218.984,1118.2 244.818,1030.87 271,943.5C 313.498,886.526 351.998,826.86 386.5,764.5 Z"/></g>
<g><path style="opacity:1" fill="#204289" d="M 533.5,766.5 C 536.105,773.651 538.105,780.984 539.5,788.5C 539.41,791.152 540.076,793.485 541.5,795.5C 565.368,878.603 588.702,961.936 611.5,1045.5C 611.41,1048.15 612.076,1050.49 613.5,1052.5C 622.303,1083.37 630.97,1114.37 639.5,1145.5C 639.41,1148.15 640.076,1150.49 641.5,1152.5C 648.722,1177.32 655.722,1202.32 662.5,1227.5C 662.41,1230.15 663.076,1232.49 664.5,1234.5C 668.946,1248.61 672.946,1262.94 676.5,1277.5C 676.41,1280.15 677.076,1282.49 678.5,1284.5C 682.751,1296.83 686.085,1309.5 688.5,1322.5C 667.509,1323.25 646.509,1323.59 625.5,1323.5C 596.799,1211.69 567.632,1100.03 538,988.5C 535.817,920.174 533.984,851.841 532.5,783.5C 532.178,777.642 532.511,771.975 533.5,766.5 Z"/></g>
<g><path style="opacity:1" fill="#565d72" d="M 408.5,851.5 C 408.831,825.328 408.498,799.328 407.5,773.5C 407.372,771.345 407.872,769.345 409,767.5C 409.83,795.67 409.664,823.67 408.5,851.5 Z"/></g>
<g><path style="opacity:1" fill="#204289" d="M 407.5,773.5 C 408.498,799.328 408.831,825.328 408.5,851.5C 408.054,894.166 407.554,936.833 407,979.5C 375.867,1097.51 344.867,1215.51 314,1333.5C 313.25,1334.13 312.416,1334.63 311.5,1335C 290.831,1335.48 270.164,1335.98 249.5,1336.5C 254.132,1318.64 259.132,1300.97 264.5,1283.5C 265.924,1281.49 266.59,1279.15 266.5,1276.5C 277.574,1234.62 289.241,1192.95 301.5,1151.5C 302.924,1149.49 303.59,1147.15 303.5,1144.5C 329.918,1047.93 356.918,951.592 384.5,855.5C 385.924,853.485 386.59,851.152 386.5,848.5C 389.739,833.869 393.739,819.536 398.5,805.5C 399.924,803.485 400.59,801.152 400.5,798.5C 402.253,789.92 404.586,781.587 407.5,773.5 Z"/></g>
<g><path style="opacity:1" fill="#b5914b" d="M 384.5,778.5 C 384.59,781.152 383.924,783.485 382.5,785.5C 382.41,782.848 383.076,780.515 384.5,778.5 Z"/></g>
<g><path style="opacity:1" fill="#616070" d="M 539.5,788.5 C 540.924,790.515 541.59,792.848 541.5,795.5C 540.076,793.485 539.41,791.152 539.5,788.5 Z"/></g>
<g><path style="opacity:1" fill="#4a5677" d="M 462.5,791.5 C 472.5,791.5 482.5,791.5 492.5,791.5C 492.5,805.833 492.5,820.167 492.5,834.5C 482.5,834.5 472.5,834.5 462.5,834.5C 462.5,820.167 462.5,805.833 462.5,791.5 Z"/></g>
<g><path style="opacity:1" fill="#1c418a" d="M 463.5,792.5 C 472.833,792.5 482.167,792.5 491.5,792.5C 491.5,806.167 491.5,819.833 491.5,833.5C 482.167,833.5 472.833,833.5 463.5,833.5C 463.5,819.833 463.5,806.167 463.5,792.5 Z"/></g>
<g><path style="opacity:1" fill="#62606f" d="M 400.5,798.5 C 400.59,801.152 399.924,803.485 398.5,805.5C 398.41,802.848 399.076,800.515 400.5,798.5 Z"/></g>
<g><path style="opacity:1" fill="#6e666a" d="M 462.5,834.5 C 462.5,847.833 462.5,861.167 462.5,874.5C 461.5,874.5 460.5,874.5 459.5,874.5C 459.5,861.167 459.5,847.833 459.5,834.5C 460.5,834.5 461.5,834.5 462.5,834.5 Z"/></g>
<g><path style="opacity:1" fill="#605f70" d="M 386.5,848.5 C 386.59,851.152 385.924,853.485 384.5,855.5C 384.41,852.848 385.076,850.515 386.5,848.5 Z"/></g>
<g><path style="opacity:1" fill="#1f4289" d="M 670.5,868.5 C 670.897,867.475 671.563,867.308 672.5,868C 698.085,890.256 724.252,911.756 751,932.5C 790.921,1060.1 830.755,1187.77 870.5,1315.5C 848.501,1316.59 826.501,1317.59 804.5,1318.5C 760.749,1168.15 716.082,1018.15 670.5,868.5 Z"/></g>
<g><path style="opacity:1" fill="#1e4289" d="M 462.5,874.5 C 472.167,874.5 481.833,874.5 491.5,874.5C 491.5,888.5 491.5,902.5 491.5,916.5C 481.833,916.5 472.167,916.5 462.5,916.5C 462.5,902.5 462.5,888.5 462.5,874.5 Z"/></g>
<g><path style="opacity:1" fill="#b6914a" d="M 592.5,900.5 C 593.924,902.515 594.59,904.848 594.5,907.5C 593.076,905.485 592.41,903.152 592.5,900.5 Z"/></g>
<g><path style="opacity:1" fill="#b5914b" d="M 347.5,910.5 C 347.59,913.152 346.924,915.485 345.5,917.5C 345.41,914.848 346.076,912.515 347.5,910.5 Z"/></g>
<g><path style="opacity:1" fill="#948154" d="M 491.5,874.5 C 492.496,888.657 492.829,902.99 492.5,917.5C 482.5,917.5 472.5,917.5 462.5,917.5C 461.833,917.5 461.167,917.5 460.5,917.5C 460.842,916.662 461.508,916.328 462.5,916.5C 472.167,916.5 481.833,916.5 491.5,916.5C 491.5,902.5 491.5,888.5 491.5,874.5 Z"/></g>
<g><path style="opacity:1" fill="#525875" d="M 460.5,917.5 C 461.167,917.5 461.833,917.5 462.5,917.5C 462.5,930.5 462.5,943.5 462.5,956.5C 460.519,943.876 459.852,930.876 460.5,917.5 Z"/></g>
<g><path style="opacity:1" fill="#be9743" d="M 460.5,917.5 C 459.852,930.876 460.519,943.876 462.5,956.5C 462.5,983.167 462.5,1009.83 462.5,1036.5C 462.167,1036.5 461.833,1036.5 461.5,1036.5C 461.829,1003.48 461.162,970.48 459.5,937.5C 459.5,930.658 459.834,923.991 460.5,917.5 Z"/></g>
<g><path style="opacity:1" fill="#4f5975" d="M 462.5,956.5 C 472.5,956.5 482.5,956.5 492.5,956.5C 492.5,983.167 492.5,1009.83 492.5,1036.5C 482.5,1036.5 472.5,1036.5 462.5,1036.5C 462.5,1009.83 462.5,983.167 462.5,956.5 Z"/></g>
<g><path style="opacity:1" fill="#1c418a" d="M 463.5,957.5 C 472.833,957.5 482.167,957.5 491.5,957.5C 491.5,983.5 491.5,1009.5 491.5,1035.5C 482.167,1035.5 472.833,1035.5 463.5,1035.5C 463.5,1009.5 463.5,983.5 463.5,957.5 Z"/></g>
<g><path style="opacity:1" fill="#1f4289" d="M 780.5,955.5 C 806.955,974.115 833.288,992.949 859.5,1012C 893.064,1112.19 926.731,1212.36 960.5,1312.5C 937.512,1313.86 914.512,1314.86 891.5,1315.5C 890.523,1309.4 889.023,1303.4 887,1297.5C 851.4,1183.53 815.9,1069.53 780.5,955.5 Z"/></g>
<g><path style="opacity:1" fill="#1f4289" d="M 168.5,1215.5 C 167.833,1215.5 167.167,1215.5 166.5,1215.5C 155.95,1187.29 146.95,1158.63 139.5,1129.5C 139.59,1126.85 138.924,1124.51 137.5,1122.5C 135.128,1112.27 133.628,1101.94 133,1091.5C 170.018,1061.32 203.518,1027.65 233.5,990.5C 234.167,989.167 234.833,989.167 235.5,990.5C 212.547,1065.35 190.214,1140.35 168.5,1215.5 Z"/></g>
<g><path style="opacity:1" fill="#1f4289" d="M 1046.5,1308.5 C 1042.17,1309.17 1037.83,1309.83 1033.5,1310.5C 1016.26,1311.26 999.096,1311.26 982,1310.5C 950.571,1216.88 919.571,1123.21 889,1029.5C 914.331,1046 939.997,1062 966,1077.5C 993.549,1154.32 1020.38,1231.32 1046.5,1308.5 Z"/></g>
<g><path style="opacity:1" fill="#6e666a" d="M 461.5,1036.5 C 461.833,1036.5 462.167,1036.5 462.5,1036.5C 462.5,1049.83 462.5,1063.17 462.5,1076.5C 462.167,1076.5 461.833,1076.5 461.5,1076.5C 460.17,1070.2 459.503,1063.54 459.5,1056.5C 459.503,1049.46 460.17,1042.8 461.5,1036.5 Z"/></g>
<g><path style="opacity:1" fill="#62636d" d="M 1546.5,1029.5 C 1546.62,1035.07 1545.96,1040.4 1544.5,1045.5C 1544.53,1039.95 1545.19,1034.62 1546.5,1029.5 Z"/></g>
<g><path style="opacity:1" fill="#b5914b" d="M 310.5,1042.5 C 310.59,1045.15 309.924,1047.49 308.5,1049.5C 308.41,1046.85 309.076,1044.51 310.5,1042.5 Z"/></g>
<g><path style="opacity:1" fill="#626070" d="M 611.5,1045.5 C 612.924,1047.51 613.59,1049.85 613.5,1052.5C 612.076,1050.49 611.41,1048.15 611.5,1045.5 Z"/></g>
<g><path style="opacity:1" fill="#b5924a" d="M 1504.5,1044.5 C 1504.88,1048.49 1504.22,1052.16 1502.5,1055.5C 1502.81,1051.64 1503.48,1047.97 1504.5,1044.5 Z"/></g>
<g><path style="opacity:1" fill="#64626e" d="M 1544.5,1047.5 C 1544.56,1052.73 1543.89,1057.73 1542.5,1062.5C 1542.44,1057.27 1543.11,1052.27 1544.5,1047.5 Z"/></g>
<g><path style="opacity:1" fill="#b3904b" d="M 636.5,1057.5 C 637.924,1059.51 638.59,1061.85 638.5,1064.5C 637.076,1062.49 636.41,1060.15 636.5,1057.5 Z"/></g>
<g><path style="opacity:1" fill="#c89c3e" d="M 461.5,1076.5 C 461.833,1076.5 462.167,1076.5 462.5,1076.5C 462.169,1104.01 462.502,1131.34 463.5,1158.5C 472.833,1158.5 482.167,1158.5 491.5,1158.5C 491.833,1158.5 492.167,1158.5 492.5,1158.5C 482.681,1159.49 472.681,1159.83 462.5,1159.5C 461.833,1159.5 461.167,1159.5 460.5,1159.5C 461.491,1131.91 461.824,1104.24 461.5,1076.5 Z"/></g>
<g><path style="opacity:1" fill="#4f5876" d="M 462.5,1076.5 C 472.5,1076.5 482.5,1076.5 492.5,1076.5C 492.5,1103.83 492.5,1131.17 492.5,1158.5C 492.167,1158.5 491.833,1158.5 491.5,1158.5C 491.5,1131.5 491.5,1104.5 491.5,1077.5C 482.167,1077.5 472.833,1077.5 463.5,1077.5C 463.5,1104.5 463.5,1131.5 463.5,1158.5C 462.502,1131.34 462.169,1104.01 462.5,1076.5 Z"/></g>
<g><path style="opacity:1" fill="#1c4189" d="M 491.5,1158.5 C 482.167,1158.5 472.833,1158.5 463.5,1158.5C 463.5,1131.5 463.5,1104.5 463.5,1077.5C 472.833,1077.5 482.167,1077.5 491.5,1077.5C 491.5,1104.5 491.5,1131.5 491.5,1158.5 Z"/></g>
<g><path style="opacity:1" fill="#214388" d="M 352.5,1333.5 C 347.167,1333.5 341.833,1333.5 336.5,1333.5C 336.5,1332.5 336.5,1331.5 336.5,1330.5C 358.997,1244.51 381.497,1158.51 404,1072.5C 402.228,1158.87 399.228,1245.2 395,1331.5C 380.898,1332.34 366.732,1333 352.5,1333.5 Z"/></g>
<g><path style="opacity:1" fill="#535b73" d="M 543.5,1091.5 C 542.549,1092.92 542.216,1094.59 542.5,1096.5C 541.357,1093.02 541.19,1089.36 542,1085.5C 543.128,1087.35 543.628,1089.35 543.5,1091.5 Z"/></g>
<g><path style="opacity:1" fill="#214289" d="M 543.5,1091.5 C 563.459,1166.67 583.126,1242 602.5,1317.5C 602.674,1319.86 603.007,1322.19 603.5,1324.5C 596.646,1324.18 589.979,1324.51 583.5,1325.5C 572.507,1326.01 561.507,1326.34 550.5,1326.5C 547.279,1249.85 544.612,1173.19 542.5,1096.5C 542.216,1094.59 542.549,1092.92 543.5,1091.5 Z"/></g>
<g><path style="opacity:1" fill="#1f4289" d="M 993.5,1094.5 C 1022.03,1110.35 1050.53,1126.35 1079,1142.5C 1100.14,1197.42 1120.97,1252.42 1141.5,1307.5C 1117.17,1307.78 1092.83,1308.11 1068.5,1308.5C 1043.88,1236.98 1018.88,1165.65 993.5,1094.5 Z"/></g>
<g><path style="opacity:1" fill="#b5914b" d="M 650.5,1107.5 C 651.924,1109.51 652.59,1111.85 652.5,1114.5C 651.076,1112.49 650.41,1110.15 650.5,1107.5 Z"/></g>
<g><path style="opacity:1" fill="#b6914a" d="M 289.5,1117.5 C 289.59,1120.15 288.924,1122.49 287.5,1124.5C 287.41,1121.85 288.076,1119.51 289.5,1117.5 Z"/></g>
<g><path style="opacity:1" fill="#b3904a" d="M 137.5,1122.5 C 138.924,1124.51 139.59,1126.85 139.5,1129.5C 138.076,1127.49 137.41,1125.15 137.5,1122.5 Z"/></g>
<g><path style="opacity:1" fill="#616070" d="M 303.5,1144.5 C 303.59,1147.15 302.924,1149.49 301.5,1151.5C 301.41,1148.85 302.076,1146.51 303.5,1144.5 Z"/></g>
<g><path style="opacity:1" fill="#605f70" d="M 639.5,1145.5 C 640.924,1147.51 641.59,1149.85 641.5,1152.5C 640.076,1150.49 639.41,1148.15 639.5,1145.5 Z"/></g>
<g><path style="opacity:1" fill="#1f4289" d="M 1234.5,1301.5 C 1230.43,1303.13 1226.09,1304.13 1221.5,1304.5C 1202.26,1305.25 1183.1,1305.25 1164,1304.5C 1145.02,1255.24 1125.86,1206.07 1106.5,1157C 1107,1156.83 1107.5,1156.67 1108,1156.5C 1135.44,1170.72 1163.1,1184.38 1191,1197.5C 1205.79,1232.07 1220.29,1266.74 1234.5,1301.5 Z"/></g>
<g><path style="opacity:1" fill="#62616f" d="M 460.5,1159.5 C 461.167,1159.5 461.833,1159.5 462.5,1159.5C 462.5,1172.5 462.5,1185.5 462.5,1198.5C 462.167,1198.5 461.833,1198.5 461.5,1198.5C 460.17,1192.37 459.503,1185.87 459.5,1179C 459.5,1172.32 459.834,1165.82 460.5,1159.5 Z"/></g>
<g><path style="opacity:1" fill="#ca9d3d" d="M 461.5,1198.5 C 461.833,1198.5 462.167,1198.5 462.5,1198.5C 462.168,1242 462.501,1285.34 463.5,1328.5C 468.833,1328.5 474.167,1328.5 479.5,1328.5C 473.69,1329.49 467.69,1329.82 461.5,1329.5C 461.5,1285.83 461.5,1242.17 461.5,1198.5 Z"/></g>
<g><path style="opacity:1" fill="#515a74" d="M 462.5,1198.5 C 472.5,1198.5 482.5,1198.5 492.5,1198.5C 492.832,1242 492.499,1285.34 491.5,1328.5C 491.5,1285.5 491.5,1242.5 491.5,1199.5C 482.167,1199.5 472.833,1199.5 463.5,1199.5C 463.5,1242.5 463.5,1285.5 463.5,1328.5C 462.501,1285.34 462.168,1242 462.5,1198.5 Z"/></g>
<g><path style="opacity:1" fill="#1d4189" d="M 491.5,1328.5 C 487.5,1328.5 483.5,1328.5 479.5,1328.5C 474.167,1328.5 468.833,1328.5 463.5,1328.5C 463.5,1285.5 463.5,1242.5 463.5,1199.5C 472.833,1199.5 482.167,1199.5 491.5,1199.5C 491.5,1242.5 491.5,1285.5 491.5,1328.5 Z"/></g>
<g><path style="opacity:1" fill="#64606f" d="M 193.5,1205.5 C 193.59,1208.15 192.924,1210.49 191.5,1212.5C 191.41,1209.85 192.076,1207.51 193.5,1205.5 Z"/></g>
<g><path style="opacity:1" fill="#1f4289" d="M 1219.5,1210.5 C 1247.77,1222.76 1276.1,1234.92 1304.5,1247C 1313.74,1264.3 1321.74,1282.14 1328.5,1300.5C 1307.82,1300.75 1287.15,1301.41 1266.5,1302.5C 1263.5,1302.17 1260.5,1301.83 1257.5,1301.5C 1244.54,1271.26 1231.88,1240.93 1219.5,1210.5 Z"/></g>
<g><path style="opacity:1" fill="#84775c" d="M 166.5,1215.5 C 167.167,1215.5 167.833,1215.5 168.5,1215.5C 167.833,1218.17 167.167,1218.17 166.5,1215.5 Z"/></g>
<g><path style="opacity:1" fill="#64616f" d="M 662.5,1227.5 C 663.924,1229.51 664.59,1231.85 664.5,1234.5C 663.076,1232.49 662.41,1230.15 662.5,1227.5 Z"/></g>
<g><path style="opacity:1" fill="#b38f4c" d="M 687.5,1239.5 C 688.924,1241.51 689.59,1243.85 689.5,1246.5C 688.076,1244.49 687.41,1242.15 687.5,1239.5 Z"/></g>
<g><path style="opacity:1" fill="#214388" d="M 1334.5,1259.5 C 1364.68,1271.1 1394.68,1282.93 1424.5,1295C 1424.33,1295.5 1424.17,1296 1424,1296.5C 1403.58,1297.98 1383.08,1298.98 1362.5,1299.5C 1358.83,1299.17 1355.17,1298.83 1351.5,1298.5C 1345.55,1285.6 1339.88,1272.6 1334.5,1259.5 Z"/></g>
<g><path style="opacity:1" fill="#605f70" d="M 266.5,1276.5 C 266.59,1279.15 265.924,1281.49 264.5,1283.5C 264.41,1280.85 265.076,1278.51 266.5,1276.5 Z"/></g>
<g><path style="opacity:1" fill="#63616f" d="M 676.5,1277.5 C 677.924,1279.51 678.59,1281.85 678.5,1284.5C 677.076,1282.49 676.41,1280.15 676.5,1277.5 Z"/></g>
<g><path style="opacity:1" fill="#736f63" d="M 1234.5,1301.5 C 1235.4,1302.21 1235.74,1303.21 1235.5,1304.5C 1230.83,1304.5 1226.17,1304.5 1221.5,1304.5C 1226.09,1304.13 1230.43,1303.13 1234.5,1301.5 Z"/></g>
<g><path style="opacity:1" fill="#575f70" d="M 1046.5,1308.5 C 1047.04,1308.56 1047.38,1308.89 1047.5,1309.5C 1042.88,1310.49 1038.21,1310.83 1033.5,1310.5C 1037.83,1309.83 1042.17,1309.17 1046.5,1308.5 Z"/></g>
<g><path style="opacity:1" fill="#9b8356" d="M 708.5,1314.5 C 709.738,1316.21 710.405,1318.21 710.5,1320.5C 717.5,1320.5 724.5,1320.5 731.5,1320.5C 724.352,1321.49 717.019,1321.82 709.5,1321.5C 709.007,1319.19 708.674,1316.86 708.5,1314.5 Z"/></g>
<g><path style="opacity:1" fill="#6c6a68" d="M 782.5,1316.5 C 783.404,1317.21 783.737,1318.21 783.5,1319.5C 781.5,1319.5 779.5,1319.5 777.5,1319.5C 779.531,1319.03 781.198,1318.03 782.5,1316.5 Z"/></g>
<g><path style="opacity:1" fill="#525a74" d="M 602.5,1317.5 C 604.04,1319.84 604.706,1322.5 604.5,1325.5C 597.5,1325.5 590.5,1325.5 583.5,1325.5C 589.979,1324.51 596.646,1324.18 603.5,1324.5C 603.007,1322.19 602.674,1319.86 602.5,1317.5 Z"/></g>
<g><path style="opacity:1" fill="#bd9743" d="M 336.5,1330.5 C 336.5,1331.5 336.5,1332.5 336.5,1333.5C 341.833,1333.5 347.167,1333.5 352.5,1333.5C 347.025,1334.49 341.358,1334.82 335.5,1334.5C 335.232,1332.9 335.566,1331.57 336.5,1330.5 Z"/></g>
<g><path style="opacity:1" fill="#254388" d="M 1241.5,1372.5 C 1285.83,1373.17 1330.17,1373.83 1374.5,1374.5C 1370.3,1380.39 1365.96,1386.23 1361.5,1392C 1092.17,1387.1 822.833,1381.94 553.5,1376.5C 553.5,1374.17 553.5,1371.83 553.5,1369.5C 782.832,1370.84 1012.17,1371.84 1241.5,1372.5 Z"/></g>
<g><path style="opacity:1" fill="#a88b4d" d="M 1241.5,1372.5 C 1286.17,1372.17 1330.84,1372.5 1375.5,1373.5C 1375.38,1374.11 1375.04,1374.44 1374.5,1374.5C 1330.17,1373.83 1285.83,1373.17 1241.5,1372.5 Z"/></g>
<g><path style="opacity:0.964" fill="#fcb827" d="M -0.5,1605.5 C -0.5,1604.17 -0.5,1602.83 -0.5,1601.5C 27.8769,1546.41 56.0436,1491.08 84,1435.5C 84.4563,1428.6 83.9563,1421.77 82.5,1415C 85.3173,1411.85 88.484,1409.02 92,1406.5C 105.209,1419.87 118.209,1433.54 131,1447.5C 132.733,1449.72 134.233,1452.06 135.5,1454.5C 116.193,1491.78 96.3594,1528.78 76,1565.5C 74.3737,1568.06 73.3737,1570.72 73,1573.5C 112.528,1553.98 152.194,1534.65 192,1515.5C 198.267,1521.77 204.6,1528.1 211,1534.5C 212.404,1536.39 213.57,1538.39 214.5,1540.5C 192.687,1578.79 170.353,1616.79 147.5,1654.5C 181.916,1640.95 216.249,1626.45 250.5,1611C 250.957,1610.59 251.291,1610.09 251.5,1609.5C 250.294,1605.23 249.794,1600.89 250,1596.5C 252.727,1593.27 255.894,1590.6 259.5,1588.5C 277.024,1606.52 294.024,1625.02 310.5,1644C 244.301,1671.51 177.801,1698.35 111,1724.5C 104.361,1719.03 98.1941,1713.03 92.5,1706.5C 88.5553,1701.05 84.0553,1696.05 79,1691.5C 77.5962,1689.61 76.4295,1687.61 75.5,1685.5C 88.2424,1660.35 101.242,1635.35 114.5,1610.5C 114.167,1610.17 113.833,1609.83 113.5,1609.5C 87.2478,1620.7 60.9145,1631.7 34.5,1642.5C 23.1774,1629.84 11.5107,1617.51 -0.5,1605.5 Z"/></g>
<g><path style="opacity:1" fill="#204289" d="M 382.5,1412.5 C 384.607,1413.47 386.941,1413.8 389.5,1413.5C 389.5,1416.83 389.5,1420.17 389.5,1423.5C 388.293,1451.61 385.959,1479.61 382.5,1507.5C 345.939,1478.61 312.606,1446.27 282.5,1410.5C 284.667,1410.17 286.833,1409.83 289,1409.5C 320.16,1410.71 351.327,1411.71 382.5,1412.5 Z"/></g>
<g><path style="opacity:1" fill="#84775c" d="M 382.5,1412.5 C 385.167,1412.5 387.833,1412.5 390.5,1412.5C 390.815,1416.37 390.482,1420.04 389.5,1423.5C 389.5,1420.17 389.5,1416.83 389.5,1413.5C 386.941,1413.8 384.607,1413.47 382.5,1412.5 Z"/></g>
<g><path style="opacity:1" fill="#3d517b" d="M 480.5,1416.5 C 474.833,1416.5 469.167,1416.5 463.5,1416.5C 463.5,1465.17 463.5,1513.83 463.5,1562.5C 462.501,1513.67 462.168,1464.67 462.5,1415.5C 468.69,1415.18 474.69,1415.51 480.5,1416.5 Z"/></g>
<g><path style="opacity:1" fill="#1d4289" d="M 480.5,1416.5 C 751.492,1426.21 1022.49,1435.54 1293.5,1444.5C 1300.17,1445.17 1306.83,1445.83 1313.5,1446.5C 1234.84,1527.87 1141.51,1586.53 1033.5,1622.5C 1028.61,1623.8 1023.94,1625.46 1019.5,1627.5C 991.554,1635.69 963.22,1642.36 934.5,1647.5C 930.64,1647.81 926.974,1648.48 923.5,1649.5C 921.585,1649.22 919.919,1649.55 918.5,1650.5C 910.934,1650.77 903.601,1651.77 896.5,1653.5C 895.5,1653.5 894.5,1653.5 893.5,1653.5C 888.269,1653.44 883.269,1654.11 878.5,1655.5C 770.666,1665.29 666.333,1650.79 565.5,1612C 561.741,1556.6 558.741,1501.1 556.5,1445.5C 535.488,1438.72 514.488,1431.72 493.5,1424.5C 493.44,1423.96 493.107,1423.62 492.5,1423.5C 492.164,1475.17 491.164,1526.51 489.5,1577.5C 480.471,1572.99 471.804,1567.99 463.5,1562.5C 463.5,1513.83 463.5,1465.17 463.5,1416.5C 469.167,1416.5 474.833,1416.5 480.5,1416.5 Z"/></g>
<g><path style="opacity:0.959" fill="#fcb827" d="M 1656.5,1526.5 C 1656.5,1535.5 1656.5,1544.5 1656.5,1553.5C 1645.37,1588.67 1623.2,1614.67 1590,1631.5C 1575.05,1621.04 1560.55,1610.04 1546.5,1598.5C 1567.88,1593.73 1586.05,1583.4 1601,1567.5C 1606.97,1560.93 1609.3,1553.26 1608,1544.5C 1603.79,1536.32 1597.29,1533.82 1588.5,1537C 1573.17,1544 1557.83,1551 1542.5,1558C 1506.51,1572.06 1479.34,1562.22 1461,1528.5C 1454.88,1512.06 1455.21,1495.73 1462,1479.5C 1474.28,1453.06 1493.45,1433.39 1519.5,1420.5C 1533.51,1429.34 1546.84,1439.17 1559.5,1450C 1540.07,1456.46 1523.57,1467.29 1510,1482.5C 1505.67,1488.15 1504,1494.49 1505,1501.5C 1509.77,1509.54 1516.61,1511.71 1525.5,1508C 1544.15,1498.84 1563.15,1490.51 1582.5,1483C 1619.92,1475.94 1644.59,1490.44 1656.5,1526.5 Z"/></g>
<g><path style="opacity:1" fill="#787260" d="M 493.5,1424.5 C 492.501,1475.66 492.168,1527 492.5,1578.5C 491.209,1578.74 490.209,1578.4 489.5,1577.5C 491.164,1526.51 492.164,1475.17 492.5,1423.5C 493.107,1423.62 493.44,1423.96 493.5,1424.5 Z"/></g>
<g><path style="opacity:1" fill="#c09843" d="M 1293.5,1444.5 C 1300.53,1444.17 1307.53,1444.5 1314.5,1445.5C 1314.38,1446.11 1314.04,1446.44 1313.5,1446.5C 1306.83,1445.83 1300.17,1445.17 1293.5,1444.5 Z"/></g>
<g><path style="opacity:0.963" fill="#fcb827" d="M 1398.5,1573.5 C 1436.13,1573.3 1458.63,1591.64 1466,1628.5C 1467.09,1640.31 1465.25,1651.64 1460.5,1662.5C 1492.69,1670.8 1525.02,1678.63 1557.5,1686C 1557.96,1686.41 1558.29,1686.91 1558.5,1687.5C 1543.37,1701.97 1527.37,1715.3 1510.5,1727.5C 1482.69,1720.06 1454.85,1712.73 1427,1705.5C 1423.94,1706.88 1421.1,1708.71 1418.5,1711C 1416.99,1711.84 1416.49,1713 1417,1714.5C 1432.5,1732.67 1448,1750.83 1463.5,1769C 1450.31,1780.35 1436.98,1791.52 1423.5,1802.5C 1385.18,1758.01 1347.01,1713.34 1309,1668.5C 1307.35,1666.97 1305.35,1666.3 1303,1666.5C 1298.51,1667.33 1294.01,1667.5 1289.5,1667C 1286.47,1664.3 1283.8,1661.3 1281.5,1658C 1307.61,1635.1 1333.95,1612.44 1360.5,1590C 1371.93,1581.45 1384.6,1575.95 1398.5,1573.5 Z M 1390.5,1625.5 C 1408.3,1625.8 1416.47,1634.8 1415,1652.5C 1413.67,1655.17 1412.33,1657.83 1411,1660.5C 1403.65,1667.35 1396.15,1674.02 1388.5,1680.5C 1378.68,1669.84 1369.01,1659.01 1359.5,1648C 1366.46,1642.71 1373.13,1637.04 1379.5,1631C 1383.02,1628.67 1386.68,1626.84 1390.5,1625.5 Z"/></g>
<g><path style="opacity:1" fill="#c79b43" d="M 1033.5,1622.5 C 1029.37,1625.32 1024.7,1626.99 1019.5,1627.5C 1023.94,1625.46 1028.61,1623.8 1033.5,1622.5 Z"/></g>
<g><path style="opacity:1" fill="#b4904b" d="M 934.5,1647.5 C 931.155,1649.22 927.489,1649.88 923.5,1649.5C 926.974,1648.48 930.64,1647.81 934.5,1647.5 Z"/></g>
<g><path style="opacity:1" fill="#c19845" d="M 918.5,1650.5 C 911.399,1652.23 904.066,1653.23 896.5,1653.5C 903.601,1651.77 910.934,1650.77 918.5,1650.5 Z"/></g>
<g><path style="opacity:1" fill="#be9645" d="M 893.5,1653.5 C 888.731,1654.89 883.731,1655.56 878.5,1655.5C 883.269,1654.11 888.269,1653.44 893.5,1653.5 Z"/></g>
<g><path style="opacity:0.961" fill="#fcb827" d="M 351.5,1656.5 C 373.18,1669.01 395.18,1681.01 417.5,1692.5C 406.42,1755.89 394.92,1819.22 383,1882.5C 379.25,1889 375.25,1895.34 371,1901.5C 359.249,1894.37 347.416,1887.37 335.5,1880.5C 334.386,1879.28 334.219,1877.94 335,1876.5C 337.057,1870.72 339.39,1865.05 342,1859.5C 342.199,1851.78 342.699,1844.12 343.5,1836.5C 322.932,1822.96 301.766,1810.29 280,1798.5C 272.94,1801.95 266.107,1805.78 259.5,1810C 255.02,1816.14 250.187,1821.98 245,1827.5C 234.177,1821.35 223.343,1815.18 212.5,1809C 210.673,1808.1 209.34,1806.77 208.5,1805C 212.326,1797.68 216.659,1790.68 221.5,1784C 264.791,1749.04 307.791,1713.71 350.5,1678C 348.933,1674.47 347.267,1670.97 345.5,1667.5C 347.779,1663.94 349.779,1660.27 351.5,1656.5 Z M 363.5,1727.5 C 360.511,1748.62 356.511,1769.79 351.5,1791C 338.692,1784.59 326.026,1777.59 313.5,1770C 330.358,1755.97 347.025,1741.8 363.5,1727.5 Z"/></g>
<g><path style="opacity:1" fill="#ac8c4e" d="M 719.5,1691.5 C 725.051,1691.53 730.384,1692.19 735.5,1693.5C 729.931,1693.62 724.598,1692.96 719.5,1691.5 Z"/></g>
<g><path style="opacity:1" fill="#62626e" d="M 908.5,1691.5 C 904.79,1693.14 900.79,1693.8 896.5,1693.5C 900.295,1692.38 904.295,1691.72 908.5,1691.5 Z"/></g>
<g><path style="opacity:0.964" fill="#fcb827" d="M 1201.5,1699.5 C 1251.84,1697.57 1287.67,1719.24 1309,1764.5C 1327.63,1819.29 1313.13,1862.79 1265.5,1895C 1225.78,1918.74 1185.78,1919.41 1145.5,1897C 1105.1,1865.8 1090.93,1825.3 1103,1775.5C 1117.38,1738.78 1143.55,1714.95 1181.5,1704C 1188.28,1702.38 1194.94,1700.88 1201.5,1699.5 Z M 1203.5,1746.5 C 1232.12,1748.07 1251.29,1762.41 1261,1789.5C 1271.53,1829.95 1256.7,1855.45 1216.5,1866C 1192.02,1868.01 1173.52,1858.51 1161,1837.5C 1149.13,1817.94 1147.46,1797.61 1156,1776.5C 1167.29,1759.28 1183.12,1749.28 1203.5,1746.5 Z"/></g>
<g><path style="opacity:0.963" fill="#fcb827" d="M 485.5,1733.5 C 521.368,1743.22 557.035,1753.72 592.5,1765C 627.946,1782.06 640.446,1809.56 630,1847.5C 619.772,1869.03 602.938,1882.03 579.5,1886.5C 591.235,1918.04 602.568,1949.71 613.5,1981.5C 593.052,1976.41 572.885,1970.41 553,1963.5C 544,1935.83 535,1908.17 526,1880.5C 521.714,1878.47 517.214,1877.14 512.5,1876.5C 506.307,1900.08 499.307,1923.41 491.5,1946.5C 475.371,1941.05 459.038,1936.39 442.5,1932.5C 458.305,1874.79 474.972,1817.29 492.5,1760C 489.167,1755 485.833,1750 482.5,1745C 484.018,1741.28 485.018,1737.45 485.5,1733.5 Z M 537.5,1794.5 C 546.619,1796.53 555.619,1799.03 564.5,1802C 578.99,1809.17 582.49,1820 575,1834.5C 570.313,1840.46 564.146,1843.46 556.5,1843.5C 545.804,1841.58 535.47,1838.58 525.5,1834.5C 529.707,1821.21 533.707,1807.88 537.5,1794.5 Z"/></g>
<g><path style="opacity:0.959" fill="#fcb827" d="M 1039.5,1767.5 C 1041.14,1767.29 1042.64,1767.62 1044,1768.5C 1046.61,1782.5 1049.11,1796.5 1051.5,1810.5C 1036.81,1813.14 1022.14,1815.97 1007.5,1819C 1015.25,1856.4 1022.75,1893.9 1030,1931.5C 1030.33,1931.83 1030.67,1932.17 1031,1932.5C 1045.08,1928.96 1059.24,1926.13 1073.5,1924C 1076.97,1937.99 1079.64,1952.16 1081.5,1966.5C 1034.92,1975.93 988.255,1984.93 941.5,1993.5C 939.037,1979.19 936.704,1964.85 934.5,1950.5C 948.854,1947.94 963.188,1945.27 977.5,1942.5C 970.655,1905.12 963.488,1867.78 956,1830.5C 954.938,1829.9 953.772,1829.57 952.5,1829.5C 939.258,1831.98 926.091,1834.65 913,1837.5C 909.143,1823.39 905.976,1809.05 903.5,1794.5C 949.057,1785.99 994.391,1776.99 1039.5,1767.5 Z"/></g>
<g><path style="opacity:0.964" fill="#fcb827" d="M 874.5,1999.5 C 861.833,1999.5 849.167,1999.5 836.5,1999.5C 828.677,1998.67 820.677,1998.17 812.5,1998C 796.293,1973.76 780.46,1949.26 765,1924.5C 760.667,1923.83 756.333,1923.17 752,1922.5C 750.555,1946.7 749.388,1971.03 748.5,1995.5C 731.161,1995.42 713.827,1995.08 696.5,1994.5C 698.364,1934.12 700.197,1874.12 702,1814.5C 697.667,1811.17 693.333,1807.83 689,1804.5C 688.204,1800.25 688.371,1796.08 689.5,1792C 721.504,1792.1 753.504,1792.76 785.5,1794C 808.603,1793.81 828.103,1801.97 844,1818.5C 862.409,1845.61 861.742,1872.28 842,1898.5C 834.978,1905.93 826.811,1911.76 817.5,1916C 836.747,1943.73 855.747,1971.57 874.5,1999.5 Z M 754.5,1836.5 C 765.543,1836.94 776.543,1837.78 787.5,1839C 802.017,1846.24 805.517,1857.07 798,1871.5C 793.931,1876.29 788.764,1879.12 782.5,1880C 772.466,1880.76 762.466,1880.59 752.5,1879.5C 753.081,1865.15 753.748,1850.82 754.5,1836.5 Z"/></g>
</svg>
