<svg id="Layer_1" data-name="Layer 1" xmlns="http://www.w3.org/2000/svg" viewBox="0 0 400 400"><title>LA Clippers logo - Brandlogos.net</title><g id="_Group_" data-name="&lt;Group&gt;"><circle cx="200" cy="200" r="200" style="fill:#ce0e2d"/><circle cx="200" cy="200" r="190" style="fill:#0a2240"/><circle cx="200" cy="200" r="138.7" style="fill:#3a8dde"/><circle cx="200" cy="200" r="133.2" style="fill:#fff"/><path d="M252.2,483c6.1-5.3,13.2-3.7,17.9,1.8a14.76,14.76,0,0,1,3.5,7.1l-3.3,2.8-.2-.2a9.06,9.06,0,0,0-2.2-6.8c-2.5-2.9-5.9-3.6-8.7-1.2l-4.3,3.7c-3,2.5-3,5.9-.4,9a10.11,10.11,0,0,0,6.7,3.4l.2.2-3.3,2.9a14,14,0,0,1-6.8-4.6C246.4,495.4,246,488.2,252.2,483Z" transform="translate(-184 -184)" style="fill:#fff"/><path d="M287.4,507.1a8.87,8.87,0,0,0,.6-3.7l.2-.3,6.9,4.9-11.6,16.3,9.1,6.4-3,2.4L276,523.4l10.5-14.8A4.62,4.62,0,0,0,287.4,507.1Z" transform="translate(-184 -184)" style="fill:#fff"/><path d="M319.5,526.5a9.74,9.74,0,0,0-.2-3.7l.1-.3,7.8,3.3-9.3,21.8-6.1-2.6,7.1-16.7A9.42,9.42,0,0,0,319.5,526.5Z" transform="translate(-184 -184)" style="fill:#fff"/><path d="M346.5,536.1a8.56,8.56,0,0,0-1-3.6l.1-.3,13.4,2.4c5.9,1.1,8.9,4.7,7.9,9.9s-5,7.7-10.9,6.6l-5.1-.9-1.2,6.9-6.5-1.2,3.2-17.8A14.8,14.8,0,0,0,346.5,536.1Zm9.1,11.3c2.2.4,3.7-.4,4.1-2.7l.5-2.9c.4-2.3-.7-3.5-2.9-3.9l-4.1-.7-1.7,9.4Z" transform="translate(-184 -184)" style="fill:#fff"/><path d="M387.5,540.6a10.22,10.22,0,0,0-1.9-3.2v-.3l13.6-1.1c6-.5,9.8,2.3,10.2,7.5s-2.8,8.7-8.8,9.2l-5.2.4.6,7-6.6.6-1.5-18.1A7.74,7.74,0,0,0,387.5,540.6Zm11.8,8.5c2.2-.2,3.4-1.3,3.2-3.6l-.2-2.9c-.2-2.3-1.6-3.2-3.8-3l-4.1.4.8,9.5Z" transform="translate(-184 -184)" style="fill:#fff"/><path d="M428.4,534.2a8.41,8.41,0,0,0-2.7-2.6l-.1-.3,17.7-6.3,2.2,3.1-10.7,3.8,2,5.6,8.2-2.9.3,3.7-7.3,2.6,2.3,6.5,11.3-4,.2,3.8-16.5,5.9L429.2,536A10.52,10.52,0,0,0,428.4,534.2Z" transform="translate(-184 -184)" style="fill:#fff"/><path d="M464.2,518.6a9.92,9.92,0,0,0-3.3-1.8l-.2-.3,11.8-8.2c4.7-3.2,9-2.9,11.6.8,2.1,3,1.7,6.3-.9,9.1l10.8,4-6.6,4.6-9.9-4-1.5,1,5.1,7.3-5.4,3.8L465.4,520A8.7,8.7,0,0,0,464.2,518.6Zm14.1-.4a2.58,2.58,0,0,0,.8-4l-1.2-1.8c-1.1-1.6-2.6-1.7-4.1-.6l-4.1,2.8,4.5,6.4Z" transform="translate(-184 -184)" style="fill:#fff"/><path d="M510.2,505.1l-3.4-2.9.2-.2a12.93,12.93,0,0,0,8-4.5c2-2.3,2.6-4.4,1.1-5.7-1-.8-2.1-.9-3.7.2l-4.6,3c-3.5,2.2-6.5,2.6-9,.5-3.3-2.8-3.2-7.8,1-12.7a15.57,15.57,0,0,1,6.7-4.8l3.2,2.8-.2.2a11,11,0,0,0-7,4c-1.7,2-2.3,4-1.1,5.1.9.7,2.1.5,3.5-.4l4.7-3c3.7-2.4,6.9-2.8,9.7-.4,3.8,3.3,2.8,8.6-1.3,13.4C515.7,502.2,512.7,504.5,510.2,505.1Z" transform="translate(-184 -184)" style="fill:#fff"/><path d="M220.9,326.6a8.32,8.32,0,0,0-3.7.3l-.3-.1,3.2-7.8,18.6,7.5,4.2-10.3,3.1,2.4L239.6,334l-16.8-6.8A8.24,8.24,0,0,0,220.9,326.6Z" transform="translate(-184 -184)" style="fill:#fff"/><path d="M242.8,298.7c-6.1-4.4-7.1-11.4-2.6-17.7s11.5-7.6,17.6-3.2,7.1,11.4,2.6,17.7S248.9,303.1,242.8,298.7Zm14.6-5.3c2.1-2.9,1.6-5.9-1.4-8l-4.9-3.5c-3-2.1-6-1.6-8,1.3s-1.6,5.9,1.4,8l4.9,3.5C252.4,296.8,255.4,296.2,257.4,293.4Z" transform="translate(-184 -184)" style="fill:#fff"/><path d="M276.6,272.7l-2.8-3.4.2-.2a12.43,12.43,0,0,0,8.6-3.2c2.3-2,3.3-4,2-5.5-.8-1-2-1.2-3.7-.4l-5,2.2c-3.8,1.7-6.8,1.5-8.9-1-2.8-3.3-1.9-8.2,3-12.4a15.69,15.69,0,0,1,7.4-3.7l2.8,3.3-.2.2a11.11,11.11,0,0,0-7.5,2.8c-2,1.7-2.9,3.6-1.9,4.8.8.9,2,.9,3.5.2l5.1-2.2c4-1.8,7.3-1.6,9.6,1.2,3.2,3.9,1.4,8.9-3.4,13C282.5,270.7,279.2,272.5,276.6,272.7Z" transform="translate(-184 -184)" style="fill:#fff"/><path d="M331.6,215.8l-.1-.3,9.1-2.5,16,20.2-6.9,1.9-3.2-4.1-11.2,3.1-.7,5.2-4.1,1.1L333,222C333.5,218.5,333.4,217.7,331.6,215.8ZM344,228l-6.9-8.7-1.4,11Z" transform="translate(-184 -184)" style="fill:#fff"/><path d="M372.5,211.4a10.08,10.08,0,0,0-1.6-3.4v-.3h8.6l11.9,14.7.1-14.6h4.3l-.1,23.7h-5.4l-13.2-16.4-.1,16.3h-4.3l.1-18.1A14.82,14.82,0,0,1,372.5,211.4Z" transform="translate(-184 -184)" style="fill:#fff"/><path d="M414.7,222.1c1.9-7.2,8-10.8,16.3-8.6a14.6,14.6,0,0,1,7,3.8l-1.1,4.2-.3-.1a9.36,9.36,0,0,0-6-4.3c-4.1-1.1-7.1.3-8.1,4.1l-1.4,5.3c-1.1,4,.8,6.6,4.5,7.6a8.58,8.58,0,0,0,3.1.3l1.8-6.8-4.1-1.1,1.9-3.2,9.7,2.6-3,11.4a16.75,16.75,0,0,1-10.4.3C416.2,235.2,412.8,229.2,414.7,222.1Z" transform="translate(-184 -184)" style="fill:#fff"/><path d="M459.1,228.2a10.54,10.54,0,0,0,.2-3.7l.2-.3,16.5,9-.8,3.7-10-5.5-2.9,5.2,7.7,4.2-2.6,2.7-6.8-3.7-3.3,6.1,10.5,5.7-2.7,2.7-15.4-8.4,8.7-15.9C458.7,229.3,458.9,228.8,459.1,228.2Z" transform="translate(-184 -184)" style="fill:#fff"/><path d="M492.7,249.6a9.17,9.17,0,0,0,1-3.6l.2-.2,6.3,5.6-13.3,15,8.3,7.4-3.3,2.1-12.5-11.1,12-13.6A5.69,5.69,0,0,0,492.7,249.6Z" transform="translate(-184 -184)" style="fill:#fff"/><path d="M519.4,276.5a9.92,9.92,0,0,0,1.8-3.3l.3-.2,10.9,15.3-2.3,3-6.6-9.3-4.8,3.5,5.1,7.1-3.5,1.3-4.5-6.3-5.6,4,7,9.7-3.6,1.3-10.2-14.2,14.7-10.5A16.6,16.6,0,0,0,519.4,276.5Z" transform="translate(-184 -184)" style="fill:#fff"/><path d="M522.9,315.9l4.1-1.7.1.3a12.42,12.42,0,0,0,.4,9.1c1.2,2.8,2.8,4.3,4.6,3.6,1.2-.5,1.7-1.5,1.5-3.4l-.5-5.5c-.4-4.1.7-7,3.7-8.2,4-1.6,8.4.7,10.9,6.7a15,15,0,0,1,1.2,8.1l-3.9,1.6-.1-.3c1-2.4.6-5.5-.4-8s-2.5-3.9-4-3.3c-1.1.5-1.4,1.6-1.3,3.3l.5,5.5c.4,4.4-.7,7.4-4.1,8.8-4.7,1.9-8.9-1.4-11.4-7.2C523,322.1,522.4,318.4,522.9,315.9Z" transform="translate(-184 -184)" style="fill:#fff"/></g><path d="M294.5,375.8l-23.8,3.7A113.46,113.46,0,0,1,384,270.6h0V308h0v11h0v6h0v6.2l.6.2,1.7-6.4H416l.2.7c-.3,2.2-.1,8.6,10.7,13.3l.3.9-43.1-1.1L341,339.9l.3-.9c10.9-4.7,11-11.1,10.7-13.3l.2-.7h29.7l-1.5-5.9-21.6.7.2-.6c6.4-3.6,6.6-8.7,6.5-10.6l.2-.7h11.8L374,294.6A90.17,90.17,0,0,0,294.5,375.8Zm166.1-38.9-3.5,10.5.7,1.6h31.4l1.3-3.9a113.28,113.28,0,0,0-101.9-74.3l3.7,23.8A89,89,0,0,1,460.6,336.9ZM457.9,419l-.7,1.6,3.5,10.5a89.89,89.89,0,0,1-68.1,42.4l-3.7,23.8A113.44,113.44,0,0,0,490.7,423l-1.3-3.9H457.9Zm-28.7-73.1-.3-.9H339.1l-.3.9c-.1,2.7-1.3,11.2-13.1,22.9l-.3,1c6.6-2.8,12.5-5.2,18-7.3,6.8-2.5,13.2-4.6,19.4-6.2,3.4-.9,6.8-1.7,10.1-2.4,3.5-.7,6.9-1.3,10.3-1.8l.7-.1.7.1c2.9.4,5.8.9,8.8,1.5,2.8.6,5.7,1.2,8.7,2,5.4,1.4,10.9,3.1,16.9,5.2,8.1,2.9,16,6.1,23.7,9.4l-.4-1.4C430.6,357.2,429.3,348.6,429.2,345.9Zm-20-26.6c-6.4-3.6-6.6-8.7-6.5-10.6l-.2-.7H390.7l-2.9,11.1,21.6.7Zm-5.1,117.8a1.38,1.38,0,0,1,.3.4h0a4.5,4.5,0,0,0,1,.9,5.3,5.3,0,0,0,1.5.8h0a19.9,19.9,0,0,0,4.1,1.3,65.08,65.08,0,0,0,9.7,1.5,22.75,22.75,0,0,0,2.6.2,102.71,102.71,0,0,1,5.1-12,92.93,92.93,0,0,1-11.6,4.2A86.5,86.5,0,0,1,404.1,437.1Zm-47,3.4a22.14,22.14,0,0,0,4.1-1.3h0a10.19,10.19,0,0,0,1.5-.8,4.5,4.5,0,0,0,1-.9h0c.1-.1.2-.3.3-.4a102.2,102.2,0,0,1-12.7-2.6,92.93,92.93,0,0,1-11.6-4.2,95.94,95.94,0,0,1,5.1,12c.9-.1,1.7-.1,2.6-.2A85.19,85.19,0,0,0,357.1,440.5ZM497.3,384h0v4.5l-23.8,3.7-24.9,3.9c-5.3,8.6-11,17.2-16,25.9-.6.4-1.2.7-1.8,1.1a63.17,63.17,0,0,1-26.4,8,41.63,41.63,0,0,1,3.5-6.1c.7-1.1,1.5-2.2,2.5-3.6q1.2-1.65,2.7-3.6c2.5-3.2,5.1-6.5,7.6-9.6,1.2-1.5,2.5-3.1,3.8-4.7l2.9-3.6a1.76,1.76,0,0,1,.4-.5c.8-1.1,1.6-2.2,2.4-3.2.9-1.2,1.8-2.5,2.7-3.8.3-.4.5-.8.8-1.2a3,3,0,0,1,.5-.7h0l-4.8-1.4a.1.1,0,0,1-.1.1c-.2.4-.5.8-.7,1.2A44,44,0,0,1,426,394a83.72,83.72,0,0,1-5.4,6.6c-.1.1-.2.3-.3.4h0c-2.5,2.9-5.3,5.9-7.9,8.7-1.5,1.6-3.1,3.3-4.6,5-1.9,2.1-4.1,4.6-6.1,7.2-1,1.3-1.9,2.6-2.8,3.9a29.42,29.42,0,0,0-2.3,4.4,12.48,12.48,0,0,0-1,5.3,8.87,8.87,0,0,0,2.4,5.9,13.22,13.22,0,0,0,2.6,2.2h0a27,27,0,0,0,2.9,1.5,28.59,28.59,0,0,0,5.8,1.6,37.26,37.26,0,0,0,5.6.7,53.37,53.37,0,0,0,5.5.2h1.3c-.3,1.1-.5,2.2-.8,3.3h0l-16.6,6L394,460.7l-7.2-74-.7-6.7-1.3-13.6-.8.3V466.8h0v30.7A113.35,113.35,0,0,1,270.6,384.2h0v-.1H344l.2-.7-10.9-3-10.2-2.8.4-1.1c18.7-8.3,39-16.2,60.5-19.2,21.1,2.8,41.4,11.2,60.6,19.5l.3.8-10.2,2.8-10.8,3,.2.7h73.2ZM375.8,473.5l-2-13-9.8-3.7-16.6-6h-.1c-.2-1.1-.5-2.2-.8-3.3h1.3a52.41,52.41,0,0,0,5.5-.2,37.25,37.25,0,0,0,5.6-.7,30.53,30.53,0,0,0,5.8-1.6,16.11,16.11,0,0,0,2.9-1.5h0a16.9,16.9,0,0,0,2.6-2.2,9.38,9.38,0,0,0,2.4-5.9,13.44,13.44,0,0,0-1-5.3,29.42,29.42,0,0,0-2.3-4.4,34.84,34.84,0,0,0-2.8-3.9c-2-2.6-4.2-5.1-6.1-7.2-1.5-1.7-3.1-3.4-4.6-5-2.7-2.8-5.4-5.8-7.9-8.7h0a1.38,1.38,0,0,1-.3-.4c-2.1-2.4-4-4.8-5.4-6.7-1-1.4-1.8-2.5-2.6-3.6a7.46,7.46,0,0,1-.7-1.2.1.1,0,0,0-.1-.1l-4.8,1.4h0c.2.2.3.5.5.7.3.4.5.8.8,1.2.9,1.3,1.8,2.6,2.7,3.8l2.4,3.3c.1.1.2.3.3.4l2.9,3.6c1.3,1.6,2.5,3.2,3.8,4.7,2.5,3.2,5.2,6.4,7.6,9.6,1,1.3,1.9,2.4,2.7,3.6,1,1.4,1.8,2.5,2.5,3.6a41.63,41.63,0,0,1,3.5,6.1,65.75,65.75,0,0,1-26.3-8,17.39,17.39,0,0,1-1.8-1.1c-4.9-8.7-10.6-17.3-16-25.9L294.7,392A89.62,89.62,0,0,0,375.8,473.5Zm8.3-6.8Z" transform="translate(-184 -184)" style="fill:#0a2240"/></svg>