<svg xmlns="http://www.w3.org/2000/svg" width="2500" height="2064" viewBox="-111.2 -1.4 559.8 552.7"><path fill="#c4ced4" d="m408.5 195.5.1-.1-2.5-7.3C371.1 87.5 276.4 20.1 170 20c-27.9 0-55.6 4.7-82 13.9C-42.1 79.1-111.2 221.8-66.1 352-21 482.3 121.2 551.3 251.5 506.2c.1-.1.3-.1.4-.2 127.8-44.3 196.7-182.4 156.6-310.5"/><path fill="#002b5c" d="M170 511.1C67.4 511-24 446-57.7 349.1-101.3 223.5-34.6 85.9 90.9 42.3 216.6-1.4 353.9 65 397.6 190.6c0 .1.1.2.1.3l1.1 3.3c41.3 124.7-25.3 260.3-149.8 303.5-25.3 8.9-52.1 13.4-79 13.4"/><g fill="#005083"><path d="M195 161.7c-1.3-.1-2.9-.2-4.6-.3-13.5-.7-26.8-3.2-39.6-7.5-3.1 3.5-5.9 7.2-8.4 11.2 4.3 4.5 12.6 13.1 16.6 17.7 7.1 4.2 14.1 8.9 21.2 13.8 11.2-12.6 21.1-22.8 30.9-33-4.7-.7-9.7-1.2-14.8-1.7zM90.3 203.3c-18.6 26.2-31.8 60.3-33.1 101.1 19.9-21.9 36.2-42.1 47.3-52.9 6.7-6.5 14.3-11.8 22.6-16-7.4-17-17.2-31-30.4-37.6-2.2 1.7-4.4 3.5-6.4 5.4m52.9-63.6c11-4.5 23-9.1 34.6-13 12.2-4.5 24.8-7.8 37.7-9.8l-.8-.2c-7.1-2.1-14.3-3.6-21.5-4.7-19.4-2.8-39.1-2.1-58.2 2.2-1.1 3.5-2.5 10.3-.1 16.4 1.6 3.9 4.6 7.1 8.3 9.1m-23 44.8c-4.4 2.1-9.2 4.5-13.8 7.2 13 8.5 22.7 23 30 39.9 10.3-3.6 17.4-3.7 17.4-3.7 6.9-8.8 13.3-16.6 19.4-23.6-6.9-4.9-13.9-9.4-20.9-13.6-7.6-2.7-25.8-5.3-32.1-6.2"/><path d="M159.6 146.1q15.45 4.35 31.5 5.1c1.8.1 3.4.2 4.8.4l1.1.1c5 .4 12 1.2 20.3 2.7 6.2-7.5 13.6-12.2 18.6-13.3 5.1 1.7 9.1 5.6 11 10.6 8.2 3.4 13.6 9.4 17.2 16.7 18.9 8.2 37.9 20.4 52.4 38.5-15.5-36-43.7-65-79.3-81.6v.2c-.4 0-34-.8-75.6 19.4-.6.3-1.3.7-2 1.2"/><path d="M329.2 256.8c-4.1-18.9-17.5-53.8-60.6-75.9 4.9 21.7-.7 46.4-.7 46.4s11.8 6.8 14.7 19.9c1.2.6 2.1 1.5 2.8 2.6 3.3 4 7.5 13.3.7 31.7 0 0-4-8.6-12.5.7-.7 1-1.4 2.1-2.1 3.1 16.2 22.3 28.5 45.5 34.8 68.2 17.7-29.1 25.7-62.9 22.9-96.7M46.8 315.6c-.6-22.4 2.5-44.7 9.2-66.1 5-15.9 12.2-31.1 21.3-45.1 1.2-2.4 3.3-6.2 5.7-10.6-30.8-3.3-58.6 29.5-69.5 44.2-6.9 33.5-2.8 68.3 11.6 99.3 7.6-7.1 14.8-14.4 21.7-21.7m202.4 39.6c-.3 15.3 7.2 27.1 12.8 45.3 14-9.9 26.3-21.9 36.5-35.7-4.6-22.8-16.6-47-33.2-70.4-10.4 17-15.5 32.9-16.1 60.8M113.7 152.3c5.2-2.3 11.5-5.1 18.5-8.1-3-2.8-5.4-6.2-6.9-10-2-5.5-2.5-11.4-1.5-17.2-22.8 7-43.8 19-61.5 35h2.5c15.1-.8 36.6-.2 48.9.3"/><path d="M88.3 184.4c2.1-3.8 4.3-7.6 6.3-11.1-8.5-5.6-13.8-9.6-28.4-10.9-6-.2-11 0-14.5.3-13.5 14.9-24.1 32.3-31.2 51.2 16.2-16.9 40.7-34.8 67.8-29.5"/></g><path fill="#7ac143" d="m138.8 150.2-11 16c5.5 4 10.7 8.6 15.2 13.6-12-2.5-25.2-4.7-25.2-4.7l-20.9 11.4 9.8-16.3c-4.5-3.8-9.3-7.3-14.2-10.5 8.3.2 24.2 1.6 24.2 1.6zm8.9 95.6c-1.7 5-2.8 10.2-3.3 15.5 0 0-18.2 2.7-26.9 8.6 0 .1 18.2-18 30.2-24.1"/><path fill="#fff" d="M270.3 245c1.5-.4 3.1-.6 4.7-.5-.5-1.3-1.2-2.6-2.1-3.7-1.2-1.3-2.5-2.5-3.9-3.4 1.5 2.4 1.5 5.6 1.3 7.6m-16.4 8.3c2.3-1.6 4.5-3 6.4-4-.5-1.2-1.1-2.4-1.7-3.5-1.6-2.8-5.6-5.2-5.6-5.2 1.3 4.1 1.6 8.4.9 12.7"/><path fill="#c4ced4" d="M58.8 376.1c-15.5 6.3-52.1-2.3-52.1-2.3 36.9-2.1 73.1-28.6 73.1-28.6s-.1.1-.1.2c-6.9 10.3-15.6 19.2-25.8 26.2 1.4 1.8 3 3.3 4.9 4.5"/><path fill="#7ac143" d="M243.1 155.5s-9.1-7.1-19.4 3.9c11.1-20.1 17.4-8.6 19.4-3.9"/><path fill="#c4ced4" d="M279.1 253.1s-.9-.6-1.1-.7c-5.8-3.1-16.1 5.9-22.8 9.6s-16.5 11.6-21.3.7 6.2-27.9 10-38.6c8.4-23.7 8.7-37.6 6.9-45.1 7.8 8.8 10.3 25.6 10.3 25.6s2.9-31.6-12.6-40c.4 1.1 0 5.1-.4 8.2v-.1c-7.2 1.3-23.1-.5-28.2-3.2-19.5 21-40.8 50.1-56.9 76.9-6.9 14.2-13.8 30.8-15.5 44.3-1.5-4.6-2.4-9.4-2.7-14.2-8.9 3.4-39 18.2-45.5 63.7 0 0 19.2-19.8 40.4-27.5 0 0-13.4 35.1 12.2 97.4 0 0 10.4-38.2 32-47.8 13.1 65.2 51.6 66.3 62.8 110.6 0 0 11.8-23-2.4-62 3.5 1.2 6.6 3.4 9 6.2 0 0-.6-11.4-11.3-36.1-7-13.2-9.1-31-9.1-31-6.3 5.7-7.8 24.8-7.8 24.8-19.1-51.8 35.1-103.2 45-110.8 4.8-3.7 7.8-3.8 9.6-2.9 1.9-3.9 1.7-6.3-.5-7.9"/><path fill="#c4ced4" d="M313.4 161.4c-28.7-38.1-71.5-63.2-118.8-69.6-8.2-1.1-16.5-1.7-24.8-1.7C80.5 90 4 156.8-8.2 245.4c-5.1 36.2 1 73.2 17.6 105.8 2.1-1.7 4.1-3.5 6.2-5.3-15.2-30.8-20.8-65.5-16-99.5C11.2 161.8 84.4 97.9 169.8 97.9c7.9 0 15.9.5 23.7 1.6 94.1 12.9 160 99.6 147.1 193.7-6.7 48.9-34.1 92.6-75.3 120 .5 2.7 1 5.5 1.4 8.4 83.7-53.2 108.5-164.2 55.3-247.9-2.7-4.2-5.6-8.4-8.6-12.3"/><path fill="#fff" d="M56.2 77.7c-8.7 0-15.7 7-15.7 15.7s7 15.7 15.7 15.7 15.7-7 15.7-15.7-7-15.7-15.7-15.7m0 24.2c-4.7 0-8.6-3.8-8.6-8.6 0-4.7 3.8-8.6 8.6-8.6 4.7 0 8.6 3.8 8.6 8.6s-3.9 8.6-8.6 8.6m-35.2 15-3.7 2.1c-1.4.8-2.1.8-2.9.1s-.7-2.1.4-3.3c1.2-1.4 2.8-2.2 4.6-2.3h.6l-.5-7H19c-3.4.1-6.6 1.8-9.6 5-1.8 1.8-2.9 4.2-3.2 6.7-.3 2.7.8 5.4 2.9 7.2 3.3 3.1 7.2 3.3 12 .6l3.3-1.8c1.7-1 2.8-1.3 3.7-.5 1.1 1 .8 2.4-.8 4.2-1.6 1.7-3.8 2.6-6.2 2.4h-.6l-.7 7.6h.6c2.5.1 7.5-.4 12.2-5.6l.1-.1c2.4-2.7 3.7-5.3 3.8-7.8.1-2.8-1.1-5.4-3.3-7.2-3.2-3.2-6.9-3.3-12.2-.3m-46.31 161.523-30.591.726-.164-6.898 30.59-.726zM2.7 169.2l11.6-17.3-5.7-3.8-7.7 11.6-4.3-2.9 6.7-9.9-5.7-3.8L-9 153l-4.3-2.8 7.8-11.5-5.6-3.8-11.6 17.3zM103 86.7l-8.9-22.1 7.9-3.2-2.5-6.2-22.2 8.9 2.5 6.2 7.9-3.2 9 22.1zM-22.6 186.8l-21.5 9.8-.5 1.1 28.6 11.6 2.6-6.3-14.9-6.1 21.7-9.8.4-1-28.6-11.7-2.6 6.4zm-14 45.8-18.7 14.5-.2 1.1 30.5 4.7 1-6.7-15.8-2.5 18.7-14.6.2-1.1-30.4-4.7-1.1 6.8zM238.52 55.5l-8.697 29.34-6.616-1.96 8.697-29.34zM391 316.6l1.5-6.7-29.7-6.9-4.7 19.8 6.8 1.6 3.1-13.2zm-10.7-61.1c-8.7 0-15.7 7-15.7 15.7s7 15.7 15.7 15.7 15.7-7 15.7-15.7-7.1-15.7-15.7-15.7m0 24.2c-4.7 0-8.6-3.8-8.6-8.6 0-4.7 3.8-8.6 8.6-8.6 4.7 0 8.6 3.8 8.6 8.6-.1 4.8-3.9 8.6-8.6 8.6m-62-136.1 12.9 16.3 5.3-4.2-8.6-10.9 4-3.2 7.5 9.4 5.3-4.2-7.4-9.4 3.9-3.2 8.6 10.9 5.4-4.2-12.9-16.3zM339.5 367l-11.2 17.5 5.8 3.7 7.4-11.8 4.4 2.8-6.4 10.1 5.7 3.7 6.4-10.2 4.3 2.7-7.4 11.8 5.7 3.6 11.1-17.6zM200.1 77.7l3.2-23.7 8.4 1.1.9-6.6-23.7-3.2-.9 6.7 8.5 1.1-3.2 23.7zM365.5 349l16.5-.8 2.9-7-33.8 1.5-.4.9 23.4 24.4 2.8-7zM268 84.7l-5.5-20.6v-.2l-.9-.4-14.3 27.3 6.1 3.2 6.6-12.6 3.1 11.7.8.4 11.3-4.1-6.6 12.6 6.1 3.2L289 77.8l-.9-.5zM-35.6 315-48 332.3l-.1.1.2 1 30.2-6.4-1.4-6.7-13.9 3 7-9.9-.2-.8-10.4-6.2 14-2.9-1.5-6.7-30.2 6.3.2 1.1zm412.5-85.2 12.9-10.8-.2-1-16.4-3.9 13.1-8.7-1.7-7.1-27.3 18.2.2 1.1 18.4 4.2-14.4 12.2.2 1 32.6 3.7-1.7-7zm-19.5-45c2.6 2.8 6.9 3.1 10.7 1.3 5.7-2.8 7.5-8.5 4.3-14.9l-5-10.3-27.4 13.5 3.1 6.2 12.7-6.3-8.7 14.4 3.6 7.3s6.3-10.6 6.7-11.2m1.3-7.1-1.9-3.9 7.7-3.8 1.9 3.9c1.4 2.8.7 4.8-1.8 6s-4.5.6-5.9-2.2m-43.4-60.5c1.8-.5 3.4-1.5 4.6-2.9 1.9-2.1 2.7-4.9 2.2-7.7-.5-2.3-1.8-4.4-3.6-5.9l-3.8-3.3-5.1-4.5-4.5 5.1-3.1 3.5-.2.3-4.2 4.9-.2.3-3.4 3.9-4.5 5.1 5.1 4.5 4.5 3.9c1.8 1.6 4.2 2.6 6.6 2.7 2.8.1 5.5-1.1 7.4-3.3 1.5-1.8 2.3-4.2 2.2-6.6m-5.2-14.7 3.8 3.3c1.6 1.4 1.8 2.7.7 4-1.4 1.6-3.1.7-4.3-.4l-3.6-3.1zm-6.7 16.8-4.5-3.9 3.6-4.2 4.2 3.7c1.7 1.5 2.1 3.3 1 4.5s-2.7 1.2-4.3-.1m7.3 285.1c1.3-1.3 2.9-2.4 4.5-3.2 3.3-1.6 8.2-1.7 8.8-1.7v6.9c-2 0-3.9.3-5.8 1-1.9.8-3.4 2.3-4.1 4.2-.3.8 0 1.8.6 2.4.5.5 1.3.6 1.9.3.6-.2 1.7-.7 2.8-1.3 2.5-1.2 5.3-2.6 7.7-2.9 2.5-.3 5 .5 6.9 2.3s2.9 4.4 2.8 7c-.1 2.1-1.1 6.1-6.2 9.2-2.4 1.3-4.9 2.1-7.6 2.4l-.9-6.9q2.55-.45 4.8-1.5c3.6-1.8 3.7-5.8.9-5.7-1.2.1-3.7 1.4-5.4 2.2-1.2.6-2.4 1.2-3.7 1.7-3.1 1.1-6.5.3-8.8-1.9-2.5-2.4-3.4-5.9-2.5-9.2.6-1.9 1.8-3.8 3.3-5.3M132.4 63.6l9.4 13.7 7.5-1.3-19-28-1 .2-8.5 32.8 7.4-1.3z"/></svg>