<?xml version="1.0" encoding="UTF-8"?>
<!DOCTYPE svg PUBLIC "-//W3C//DTD SVG 1.1//EN" "http://www.w3.org/Graphics/SVG/1.1/DTD/svg11.dtd">
<svg xmlns="http://www.w3.org/2000/svg" version="1.1" width="1200px" height="1025px" style="shape-rendering:geometricPrecision; text-rendering:geometricPrecision; image-rendering:optimizeQuality; fill-rule:evenodd; clip-rule:evenodd" xmlns:xlink="http://www.w3.org/1999/xlink">
<g><path style="opacity:0.99" fill="#020101" d="M 573.5,-0.5 C 667.167,-0.5 760.833,-0.5 854.5,-0.5C 823.035,31.4654 791.368,63.2987 759.5,95C 812.742,142.35 837.909,201.85 835,273.5C 831.402,322.997 813.402,366.33 781,403.5C 742.167,442.333 703.333,481.167 664.5,520C 571.165,520.833 477.832,520.667 384.5,519.5C 415.986,487.514 447.653,455.68 479.5,424C 422.905,373.585 398.072,310.418 405,234.5C 411.002,186.172 430.668,144.506 464,109.5C 500.701,72.9654 537.201,36.2987 573.5,-0.5 Z"/></g>
<g><path style="opacity:1" fill="#6e0517" d="M 582.5,17.5 C 590.676,16.1791 599.009,16.1791 607.5,17.5C 607.376,18.1067 607.043,18.44 606.5,18.5C 598.684,17.5076 590.684,17.1743 582.5,17.5 Z"/></g>
<g><path style="opacity:1" fill="#6d0516" d="M 633.5,17.5 C 641.676,16.1791 650.009,16.1791 658.5,17.5C 658.376,18.1067 658.043,18.44 657.5,18.5C 649.684,17.5076 641.684,17.1743 633.5,17.5 Z"/></g>
<g><path style="opacity:1" fill="#6e0517" d="M 684.5,17.5 C 692.676,16.1791 701.009,16.1791 709.5,17.5C 709.376,18.1067 709.043,18.44 708.5,18.5C 700.684,17.5076 692.684,17.1743 684.5,17.5 Z"/></g>
<g><path style="opacity:1" fill="#6d0516" d="M 735.5,17.5 C 743.676,16.1791 752.009,16.1791 760.5,17.5C 760.376,18.1067 760.043,18.44 759.5,18.5C 751.684,17.5076 743.684,17.1743 735.5,17.5 Z"/></g>
<g><path style="opacity:1" fill="#6c0416" d="M 786.5,17.5 C 794.676,16.1791 803.009,16.1791 811.5,17.5C 811.376,18.1067 811.043,18.44 810.5,18.5C 802.684,17.5076 794.684,17.1743 786.5,17.5 Z"/></g>
<g><path style="opacity:1" fill="#ca092b" d="M 582.5,17.5 C 590.684,17.1743 598.684,17.5076 606.5,18.5C 565.868,59.632 525.035,100.632 484,141.5C 437.415,199.357 427.749,263.023 455,332.5C 463.83,353.144 476.33,371.144 492.5,386.5C 496.833,382.833 500.833,378.833 504.5,374.5C 459.788,325.452 447.288,269.119 467,205.5C 474.704,185.076 485.704,166.743 500,150.5C 544.368,105.965 588.868,61.6319 633.5,17.5C 641.684,17.1743 649.684,17.5076 657.5,18.5C 608.201,68.2987 558.701,117.965 509,167.5C 470.733,217.74 465.4,271.406 493,328.5C 499.797,340.635 508.131,351.635 518,361.5C 522.167,357.333 526.333,353.167 530.5,349C 492.518,307.285 484.018,260.119 505,207.5C 510.42,196.316 517.087,185.983 525,176.5C 578.035,123.299 631.201,70.2986 684.5,17.5C 692.684,17.1743 700.684,17.5076 708.5,18.5C 653.507,74.3262 598.007,129.66 542,184.5C 510.826,219.721 503.826,259.388 521,303.5C 526.298,315.781 533.798,326.448 543.5,335.5C 547.833,331.833 551.833,327.833 555.5,323.5C 526.112,289.378 521.945,252.378 543,212.5C 545.422,208.656 548.089,204.99 551,201.5C 612.368,139.965 673.868,78.632 735.5,17.5C 743.684,17.1743 751.684,17.5076 759.5,18.5C 694.201,84.2988 628.701,149.965 563,215.5C 544.641,240.878 542.641,267.544 557,295.5C 560.349,300.86 564.182,305.86 568.5,310.5C 572.985,306.515 577.318,302.349 581.5,298C 562.088,275.303 560.588,251.47 577,226.5C 646.701,156.632 716.535,86.9653 786.5,17.5C 794.684,17.1743 802.684,17.5076 810.5,18.5C 736.786,91.3802 663.62,164.714 591,238.5C 582.333,252.833 582.333,267.167 591,281.5C 596.227,287.862 602.727,292.362 610.5,295C 571.653,334.014 532.653,372.847 493.5,411.5C 452.467,377.114 428.967,333.114 423,279.5C 418.341,224.824 433.008,176.158 467,133.5C 505.007,94.3264 543.507,55.6598 582.5,17.5 Z"/></g>
<g><path style="opacity:1" fill="#fafafa" d="M 744.5,108.5 C 745.873,108.343 747.207,108.51 748.5,109C 809.752,166.437 829.919,235.937 809,317.5C 800.677,344.153 787.677,368.153 770,389.5C 733.195,427.306 696.028,464.806 658.5,502C 649.833,502.667 641.167,502.667 632.5,502C 675.028,459.806 717.194,417.306 759,374.5C 800.936,318.958 810.269,258.291 787,192.5C 777.799,170.073 764.632,150.406 747.5,133.5C 742.969,137.197 738.969,141.364 735.5,146C 781.229,196.304 793.062,253.804 771,318.5C 764.535,335.446 755.535,350.779 744,364.5C 698.861,410.639 653.361,456.472 607.5,502C 598.833,502.667 590.167,502.667 581.5,502C 630,453.5 678.5,405 727,356.5C 763.297,312.798 772.631,263.798 755,209.5C 747.749,189.979 736.749,172.979 722,158.5C 717.833,162.667 713.667,166.833 709.5,171C 750.021,216.431 756.854,266.598 730,321.5C 726,327.5 722,333.5 718,339.5C 664.528,393.973 610.694,448.139 556.5,502C 547.833,502.667 539.167,502.667 530.5,502C 587.667,444.833 644.833,387.667 702,330.5C 730.472,293.384 735.139,253.384 716,210.5C 710.994,201.16 704.828,192.66 697.5,185C 692.532,187.782 688.198,191.616 684.5,196.5C 710.144,225.349 716.311,258.016 703,294.5C 698.584,304.343 692.917,313.343 686,321.5C 625.833,381.667 565.667,441.833 505.5,502C 496.833,502.667 488.167,502.667 479.5,502C 544.667,436.833 609.833,371.667 675,306.5C 691.763,284.34 695.763,260.007 687,233.5C 683.155,224.468 677.822,216.468 671,209.5C 666.833,213.667 662.667,217.833 658.5,222C 675.251,241.536 678.084,263.036 667,286.5C 664.578,290.344 661.911,294.01 659,297.5C 590.833,365.667 522.667,433.833 454.5,502C 445.833,502.667 437.167,502.667 428.5,502C 501.667,428.833 574.833,355.667 648,282.5C 659.798,263.517 657.631,246.35 641.5,231C 637.779,228.473 633.779,226.473 629.5,225C 668.424,186.577 706.757,147.744 744.5,108.5 Z"/></g>
<g><path style="opacity:0.974" fill="#000000" d="M -0.5,568.5 C 29.5019,568.333 59.5019,568.5 89.5,569C 104.622,568.636 119.288,570.969 133.5,576C 151.525,584.377 161.359,598.543 163,618.5C 164.535,644.813 164.868,671.147 164,697.5C 161.139,727.696 144.639,744.863 114.5,749C 105.204,750.182 95.8703,750.682 86.5,750.5C 86.5,797.5 86.5,844.5 86.5,891.5C 70.1667,891.5 53.8333,891.5 37.5,891.5C 37.6667,796.833 37.5,702.166 37,607.5C 24.6318,594.965 12.1318,582.631 -0.5,570.5C -0.5,569.833 -0.5,569.167 -0.5,568.5 Z M 87.5,608.5 C 93.8979,608.243 100.231,608.743 106.5,610C 108.96,611.458 111.127,613.291 113,615.5C 114.143,630.268 114.643,645.102 114.5,660C 114.643,674.898 114.143,689.732 113,704.5C 111.062,707.106 108.562,708.939 105.5,710C 99.5551,711.162 93.5551,711.662 87.5,711.5C 87.5,677.167 87.5,642.833 87.5,608.5 Z"/></g>
<g><path style="opacity:0.977" fill="#000000" d="M 245.5,568.5 C 260.368,568.55 274.368,572.05 287.5,579C 300.442,587.711 307.609,599.878 309,615.5C 309.667,692.167 309.667,768.833 309,845.5C 305.643,868.859 292.477,883.359 269.5,889C 248.119,893.862 227.453,891.862 207.5,883C 193.623,874.778 185.789,862.611 184,846.5C 183.333,769.167 183.333,691.833 184,614.5C 187.154,593.672 198.654,579.839 218.5,573C 227.479,570.468 236.479,568.968 245.5,568.5 Z M 241.5,608.5 C 251.357,606.364 257.524,610.031 260,619.5C 260.667,693.5 260.667,767.5 260,841.5C 258.683,848.978 254.183,852.644 246.5,852.5C 238.385,852.551 233.885,848.551 233,840.5C 232.333,767.167 232.333,693.833 233,620.5C 233.368,614.649 236.201,610.649 241.5,608.5 Z"/></g>
<g><path style="opacity:0.977" fill="#000000" d="M 328.5,568.5 C 350.169,568.333 371.836,568.5 393.5,569C 409.328,568.29 423.995,571.957 437.5,580C 447.69,589.552 453.19,601.385 454,615.5C 454.667,647.167 454.667,678.833 454,710.5C 452.498,720.339 446.998,726.839 437.5,730C 447.379,735.575 452.879,744.075 454,755.5C 455.389,800.836 455.556,846.17 454.5,891.5C 438.833,891.5 423.167,891.5 407.5,891.5C 407.961,849.47 407.461,807.47 406,765.5C 404.509,757.342 399.676,752.509 391.5,751C 387.179,750.501 382.846,750.334 378.5,750.5C 378.5,797.5 378.5,844.5 378.5,891.5C 361.833,891.5 345.167,891.5 328.5,891.5C 328.5,783.833 328.5,676.167 328.5,568.5 Z M 377.5,608.5 C 383.176,608.334 388.843,608.501 394.5,609C 400.127,609.957 403.96,613.124 406,618.5C 406.667,644.5 406.667,670.5 406,696.5C 404.951,703.882 400.784,708.382 393.5,710C 388.177,710.499 382.844,710.666 377.5,710.5C 377.5,676.5 377.5,642.5 377.5,608.5 Z"/></g>
<g><path style="opacity:0.973" fill="#000000" d="M 440.5,568.5 C 493.5,568.5 546.5,568.5 599.5,568.5C 599.5,581.833 599.5,595.167 599.5,608.5C 585.833,608.5 572.167,608.5 558.5,608.5C 558.5,702.833 558.5,797.167 558.5,891.5C 542.167,891.5 525.833,891.5 509.5,891.5C 509.5,797.167 509.5,702.833 509.5,608.5C 499.494,608.666 489.494,608.5 479.5,608C 466.57,595.615 453.737,583.115 441,570.5C 440.536,569.906 440.369,569.239 440.5,568.5 Z"/></g>
<g><path style="opacity:0.965" fill="#000000" d="M 618.5,568.5 C 635.077,568.175 651.577,568.508 668,569.5C 668.5,663.833 668.667,758.166 668.5,852.5C 688.833,852.5 709.167,852.5 729.5,852.5C 729.5,865.5 729.5,878.5 729.5,891.5C 692.5,891.5 655.5,891.5 618.5,891.5C 618.5,783.833 618.5,676.167 618.5,568.5 Z"/></g>
<g><path style="opacity:0.977" fill="#000000" d="M 784.5,568.5 C 809.167,568.5 833.833,568.5 858.5,568.5C 870.207,676.198 882.207,783.865 894.5,891.5C 878.167,891.5 861.833,891.5 845.5,891.5C 841.705,857.219 838.372,822.886 835.5,788.5C 825.167,788.5 814.833,788.5 804.5,788.5C 800.558,822.477 796.725,856.477 793,890.5C 778.245,891.491 763.412,891.824 748.5,891.5C 760.747,783.859 772.747,676.193 784.5,568.5 Z M 819.5,626.5 C 821.117,627.589 821.95,629.256 822,631.5C 825.071,670.821 827.904,710.155 830.5,749.5C 823.5,749.5 816.5,749.5 809.5,749.5C 812.778,708.496 816.111,667.496 819.5,626.5 Z"/></g>
<g><path style="opacity:0.977" fill="#000000" d="M 914.5,568.5 C 929.182,568.167 943.848,568.501 958.5,569.5C 976.301,627.405 993.801,685.405 1011,743.5C 1011.5,685.168 1011.67,626.834 1011.5,568.5C 1026.5,568.5 1041.5,568.5 1056.5,568.5C 1056.5,676.167 1056.5,783.833 1056.5,891.5C 1041.49,891.833 1026.49,891.499 1011.5,890.5C 994.103,833.142 976.603,775.809 959,718.5C 958.5,776.166 958.333,833.832 958.5,891.5C 943.833,891.5 929.167,891.5 914.5,891.5C 914.5,783.833 914.5,676.167 914.5,568.5 Z"/></g>
<g><path style="opacity:0.982" fill="#000000" d="M 1199.5,609.5 C 1199.5,690.833 1199.5,772.167 1199.5,853.5C 1191.99,874.833 1176.99,887.333 1154.5,891C 1128.17,891.5 1101.84,891.667 1075.5,891.5C 1075.5,783.833 1075.5,676.167 1075.5,568.5C 1101.18,568.189 1126.85,568.689 1152.5,570C 1177.59,572.281 1193.26,585.448 1199.5,609.5 Z M 1124.5,608.5 C 1131.24,608.171 1137.91,608.671 1144.5,610C 1148.49,611.99 1150.99,615.157 1152,619.5C 1153.15,656.463 1153.65,693.463 1153.5,730.5C 1153.65,767.865 1153.15,805.199 1152,842.5C 1150.9,846.598 1148.4,849.431 1144.5,851C 1137.9,852.274 1131.23,852.774 1124.5,852.5C 1124.5,771.167 1124.5,689.833 1124.5,608.5 Z"/></g>
<g><path style="opacity:0.93" fill="#000000" d="M 285.5,1024.5 C 280.167,1024.5 274.833,1024.5 269.5,1024.5C 269.5,1002.17 269.5,979.833 269.5,957.5C 264.833,957.5 260.167,957.5 255.5,957.5C 255.5,952.5 255.5,947.5 255.5,942.5C 270.167,942.5 284.833,942.5 299.5,942.5C 299.5,947.5 299.5,952.5 299.5,957.5C 294.833,957.5 290.167,957.5 285.5,957.5C 285.5,979.833 285.5,1002.17 285.5,1024.5 Z"/></g>
<g><path style="opacity:0.933" fill="#000000" d="M 362.5,1024.5 C 357.167,1024.5 351.833,1024.5 346.5,1024.5C 344.161,1014.14 341.661,1003.81 339,993.5C 337.599,991.808 335.766,991.141 333.5,991.5C 333.5,1002.5 333.5,1013.5 333.5,1024.5C 328.167,1024.5 322.833,1024.5 317.5,1024.5C 317.5,997.167 317.5,969.833 317.5,942.5C 329.171,942.333 340.838,942.5 352.5,943C 355.667,946.167 358.833,949.333 362,952.5C 362.667,962.5 362.667,972.5 362,982.5C 358.391,984.437 355.891,987.271 354.5,991C 357.563,1002.09 360.23,1013.25 362.5,1024.5 Z M 333.5,955.5 C 343.574,953.075 347.574,956.908 345.5,967C 347.414,976.919 343.414,981.085 333.5,979.5C 333.5,971.5 333.5,963.5 333.5,955.5 Z"/></g>
<g><path style="opacity:0.928" fill="#000000" d="M 427.5,1024.5 C 422.167,1024.5 416.833,1024.5 411.5,1024.5C 410.396,1018.23 409.729,1011.9 409.5,1005.5C 405.233,1005.2 401.066,1005.54 397,1006.5C 396.328,1012.55 395.495,1018.55 394.5,1024.5C 389.5,1024.5 384.5,1024.5 379.5,1024.5C 383.717,997.198 387.717,969.865 391.5,942.5C 399.609,941.886 407.442,942.553 415,944.5C 419.033,971.235 423.2,997.902 427.5,1024.5 Z M 402.5,959.5 C 404.555,970.276 405.888,981.276 406.5,992.5C 403.833,992.5 401.167,992.5 398.5,992.5C 399.752,981.484 401.085,970.484 402.5,959.5 Z"/></g>
<g><path style="opacity:0.942" fill="#000000" d="M 477.5,1024.5 C 466.167,1024.5 454.833,1024.5 443.5,1024.5C 443.5,1020.5 443.5,1016.5 443.5,1012.5C 446.5,1012.5 449.5,1012.5 452.5,1012.5C 452.5,993.5 452.5,974.5 452.5,955.5C 449.5,955.5 446.5,955.5 443.5,955.5C 443.5,951.167 443.5,946.833 443.5,942.5C 454.833,942.5 466.167,942.5 477.5,942.5C 477.5,946.833 477.5,951.167 477.5,955.5C 474.5,955.5 471.5,955.5 468.5,955.5C 468.5,974.5 468.5,993.5 468.5,1012.5C 471.5,1012.5 474.5,1012.5 477.5,1012.5C 477.5,1016.5 477.5,1020.5 477.5,1024.5 Z"/></g>
<g><path style="opacity:0.946" fill="#000000" d="M 531.5,1024.5 C 520.167,1024.5 508.833,1024.5 497.5,1024.5C 497.5,997.167 497.5,969.833 497.5,942.5C 502.833,942.5 508.167,942.5 513.5,942.5C 513.5,965.167 513.5,987.833 513.5,1010.5C 519.5,1010.5 525.5,1010.5 531.5,1010.5C 531.5,1015.17 531.5,1019.83 531.5,1024.5 Z"/></g>
<g><path style="opacity:0.932" fill="#000000" d="M 616.5,1024.5 C 605.167,1024.5 593.833,1024.5 582.5,1024.5C 582.5,997.167 582.5,969.833 582.5,942.5C 593.838,942.333 605.172,942.5 616.5,943C 619.667,946.167 622.833,949.333 626,952.5C 626.667,960.167 626.667,967.833 626,975.5C 623.65,977.683 621.483,980.016 619.5,982.5C 621.483,984.984 623.65,987.317 626,989.5C 626.667,997.833 626.667,1006.17 626,1014.5C 622.629,1017.7 619.462,1021.04 616.5,1024.5 Z M 598.5,956.5 C 606.904,954.42 610.904,957.586 610.5,966C 610.753,974.243 606.753,977.743 598.5,976.5C 598.5,969.833 598.5,963.167 598.5,956.5 Z M 598.5,989.5 C 607.659,987.661 611.659,991.328 610.5,1000.5C 611.659,1009.67 607.659,1013.34 598.5,1011.5C 598.5,1004.17 598.5,996.833 598.5,989.5 Z"/></g>
<g><path style="opacity:0.924" fill="#000000" d="M 681.5,1024.5 C 670.167,1024.5 658.833,1024.5 647.5,1024.5C 647.5,997.167 647.5,969.833 647.5,942.5C 652.833,942.5 658.167,942.5 663.5,942.5C 663.5,965.167 663.5,987.833 663.5,1010.5C 669.5,1010.5 675.5,1010.5 681.5,1010.5C 681.5,1015.17 681.5,1019.83 681.5,1024.5 Z"/></g>
<g><path style="opacity:0.928" fill="#000000" d="M 744.5,1024.5 C 739.167,1024.5 733.833,1024.5 728.5,1024.5C 727.833,1018.17 727.167,1011.83 726.5,1005.5C 722.5,1005.5 718.5,1005.5 714.5,1005.5C 713.587,1011.8 712.92,1018.14 712.5,1024.5C 707.167,1024.5 701.833,1024.5 696.5,1024.5C 700.879,997.555 705.046,970.555 709,943.5C 716.747,942.518 724.58,942.185 732.5,942.5C 736.407,969.847 740.407,997.181 744.5,1024.5 Z M 719.5,958.5 C 721.895,969.591 723.561,980.924 724.5,992.5C 721.833,992.5 719.167,992.5 716.5,992.5C 717.647,981.181 718.647,969.847 719.5,958.5 Z"/></g>
<g><path style="opacity:0.917" fill="#000000" d="M 799.5,1024.5 C 786.5,1024.5 773.5,1024.5 760.5,1024.5C 760.334,1020.49 760.501,1016.49 761,1012.5C 767.642,994.239 774.475,976.072 781.5,958C 774.842,957.5 768.175,957.334 761.5,957.5C 761.5,952.5 761.5,947.5 761.5,942.5C 774.08,942.178 786.58,942.511 799,943.5C 799.667,946.833 799.667,950.167 799,953.5C 792.193,972.089 785.693,990.756 779.5,1009.5C 785.842,1009.33 792.175,1009.5 798.5,1010C 799.469,1014.74 799.803,1019.57 799.5,1024.5 Z"/></g>
<g><path style="opacity:0.956" fill="#000000" d="M 856.5,1024.5 C 844.167,1024.5 831.833,1024.5 819.5,1024.5C 819.5,997.167 819.5,969.833 819.5,942.5C 831.5,942.5 843.5,942.5 855.5,942.5C 855.5,947.167 855.5,951.833 855.5,956.5C 848.833,956.5 842.167,956.5 835.5,956.5C 835.5,962.833 835.5,969.167 835.5,975.5C 841.5,975.5 847.5,975.5 853.5,975.5C 853.5,980.167 853.5,984.833 853.5,989.5C 847.5,989.5 841.5,989.5 835.5,989.5C 835.5,996.5 835.5,1003.5 835.5,1010.5C 842.5,1010.5 849.5,1010.5 856.5,1010.5C 856.5,1015.17 856.5,1019.83 856.5,1024.5 Z"/></g>
<g><path style="opacity:0.941" fill="#000000" d="M 922.5,1024.5 C 917.167,1024.5 911.833,1024.5 906.5,1024.5C 903.677,1013.54 901.01,1002.54 898.5,991.5C 896.833,991.5 895.167,991.5 893.5,991.5C 893.5,1002.5 893.5,1013.5 893.5,1024.5C 888.167,1024.5 882.833,1024.5 877.5,1024.5C 877.5,997.167 877.5,969.833 877.5,942.5C 889.171,942.333 900.838,942.5 912.5,943C 915.333,945.833 918.167,948.667 921,951.5C 921.667,961.833 921.667,972.167 921,982.5C 918.012,984.807 915.845,987.64 914.5,991C 917.249,1002.16 919.916,1013.33 922.5,1024.5 Z M 893.5,955.5 C 903.101,953.551 907.101,957.384 905.5,967C 907.358,976.974 903.358,981.141 893.5,979.5C 893.5,971.5 893.5,963.5 893.5,955.5 Z"/></g>
<g><path style="opacity:0.938" fill="#000000" d="M 974.5,1024.5 C 966.167,1024.5 957.833,1024.5 949.5,1024.5C 946.871,1021.37 944.038,1018.37 941,1015.5C 940.501,1010.18 940.334,1004.84 940.5,999.5C 945.833,999.5 951.167,999.5 956.5,999.5C 956.335,1002.52 956.502,1005.52 957,1008.5C 960.388,1012.4 963.721,1012.4 967,1008.5C 967.667,1003.17 967.667,997.833 967,992.5C 966.5,992 966,991.5 965.5,991C 959.833,990.667 954.167,990.333 948.5,990C 946.667,988.167 944.833,986.333 943,984.5C 941.38,973.598 941.046,962.598 942,951.5C 944.833,948.667 947.667,945.833 950.5,943C 958.5,942.333 966.5,942.333 974.5,943C 977.333,945.833 980.167,948.667 983,951.5C 983.499,956.823 983.666,962.156 983.5,967.5C 978.167,967.5 972.833,967.5 967.5,967.5C 967.665,964.482 967.498,961.482 967,958.5C 963.381,955.657 960.048,955.99 957,959.5C 956.333,964.167 956.333,968.833 957,973.5C 957.5,974 958,974.5 958.5,975C 964.167,975.333 969.833,975.667 975.5,976C 978,978.5 980.5,981 983,983.5C 983.667,994.167 983.667,1004.83 983,1015.5C 979.962,1018.37 977.129,1021.37 974.5,1024.5 Z"/></g>
</svg>
