<svg xmlns="http://www.w3.org/2000/svg" width="241.44" height="241.56"><path fill="#cd1141" d="M241.44 120.84A120.72 120.72 0 1 1 120.72 0a120.81 120.81 0 0 1 120.72 120.84"/><path d="M120.72 235.2A114.484 114.484 0 0 1 119.4 6.24h1.32a114.469 114.469 0 0 1 81.84 194.52 114 114 0 0 1-80.64 34.44Z"/><path fill="#fff" d="m120.36 22.56-1.2 1.2V38.4l1.2 1.2h3.96l1.2-1.2V23.76l-1.2-1.2ZM132 42.24l-4.08 3.96h-11.16l-3.96-3.96v-22.2l3.96-3.96h11.16l3.96 3.96v22.2ZM209.16 75.36l-1.56-.48-13.08 6.36-.6 1.56 1.68 3.6 1.56.6 13.2-6.36.6-1.56Zm-12.6 18.96-5.28-1.92-4.8-9.96 1.92-5.4 19.92-9.48 5.28 1.8 4.8 10.08-1.8 5.4ZM50.64 53.64v1.68l10.56 10.2h1.68l2.88-2.88v-1.8l-10.44-10.2h-1.8Zm22.08 5.28.12 5.64-7.8 8.04H59.4L43.56 57.24l-.12-5.64 7.8-8.04 5.76-.12ZM172.92 28.8l-11.64 27.72-4.92-2.04-1.2-19.68-6.84 16.2-5.28-2.16 11.76-27.72 6.48 2.76.12 17.28 6.12-14.64zM83.28 37.92l4.68-2.16a8.3 8.3 0 0 0 .6-1.56L87 30.48l-1.68-.6-4.68 2.16Zm12.24-2.76-1.32 4.68 8.4 8.16-5.88 2.64-7.8-7.56-2.76 1.32 3.96 9.12-5.4 2.28-12-27.6 12.96-5.64 5.52 2.28ZM196.56 55.8l-3.96-3.84-16.56 16.8-4.44-4.32 16.56-16.92-3.96-3.84 4.56-4.68 12.36 12.24zM36 72.96 33.72 78l21.6 9.6-2.52 5.76-21.6-9.6-2.28 5.04-6-2.76 7.2-15.72zM201 149.76l-3 5.64-2.16-1.08-.6 1.08-1.8 3.6.48 1.56 3 1.68-.36-.24 1.56-.48 3.6-6.72 5.52-1.68 9.12 4.68 1.56 5.4-5.16 9.96-5.4 1.68-4.56-2.4 3-5.64 2.28 1.2 2.52-4.68-.6-1.68-2.4-1.2-1.68.48-3.36 6.6-5.64 1.68-9.12-4.68L186 159l5.16-9.96 5.52-1.56zM42.72 158.4l2.4 4.56a9.4 9.4 0 0 0 1.68.6l3.6-1.92.48-1.68-2.4-4.56Zm3.6 12.12-4.8-.96-7.56 8.88-3-5.64 6.96-8.28-1.44-2.76-8.88 4.56-2.64-5.16 26.64-13.92 6.6 12.48-1.8 5.52ZM87.96 201.6l4.2 1.8 1.56-.72 1.68-3.84-.6-1.56-4.32-1.8Zm-2.28 5.28-4.32 10.44-5.28-2.16 11.52-27.84 12.72 5.28 2.16 5.4-4.2 10.2-4.2 2.16ZM131.4 201.72l-5.52.12.24 23.52-6.36.12-.24-23.64-5.4.12-.12-6.6 17.28-.12zM148.56 197.4l-.72 1.56 5.16 13.68 1.56.6 3.84-1.44.72-1.56-5.16-13.68-1.56-.6Zm17.76 14.16-2.16 5.16-10.44 3.96-5.16-2.28-7.92-20.76 2.28-5.16 10.44-3.96 5.16 2.28ZM177.48 188.64l3.96-3.48.12-1.56-2.64-3.24-1.56-.12-3.96 3.36Zm10.92-6.24.12 4.92 10.44 5.52-4.92 4.08-9.6-4.92-2.28 2.04 6.36 7.56-4.32 3.84-19.56-23.04 10.68-9 5.88.48ZM60.96 192.84l4.2-8.28-8.04 4.8Zm-.12 14.28-4.68-4.32 2.16-4.44-6.48-6-4.32 2.64-4.68-4.44 27.24-16.32 4.68 4.32Z"/><path fill="#a0a0a3" d="m144.12 181.32.24.24a6.5 6.5 0 0 0 .96-.12l.72-.24 1.92-.84 4.68-2.16.84-.48.48-.24.48-.36.84-.48.96-.6 1.32-.84 2.16-1.56 1.2-.84 1.56-1.08 1.44-1.08.6-.48 1.08-.96.96-.96 1.56-1.68 1.8-1.8 2.16-2.52 1.2-1.56.36-.48 1.32-1.56 2.4-3.6.72-1.08 1.68-3.24.84-1.68 1.56-3.24.84-2.04.96-3s1.08-3.96 1.68-6c.12-.12.12-.36-.12-.6a10 10 0 0 1-.84-1.56 5 5 0 0 0-.48-.84c-.24-.24-.6-.72-.84-.96-.12-.24-.36-.36-.6-.6-.48-.36-.96-.96-1.32-1.2-.24-.12-.36-.24-.6-.36a15 15 0 0 0-4.2-2.52 12.5 12.5 0 0 0-1.92-.72 9 9 0 0 0-1.68-.48.565.565 0 0 0-.72.12c-.12.12-.12.36-.12.72a18 18 0 0 0-.24 2.52 18 18 0 0 0-.24 2.52c-.12.84-.12 1.56-.24 2.4a26 26 0 0 1-.48 3c-.36 1.92-.72 3.84-1.08 5.64a6 6 0 0 1-.36 1.56 19 19 0 0 0-.84 2.4 37 37 0 0 1-1.56 5.16 15.6 15.6 0 0 1-1.8 4.08c0 .12 0 .12-.12.36-.36.84-.72 1.68-1.08 2.64-.24.48-.6.96-.84 1.56a11.4 11.4 0 0 1-1.2 2.04c-.6 1.08-1.32 2.04-1.92 3.12a12 12 0 0 1-1.32 2.04c-.12.24-.24.36-.36.6a8.5 8.5 0 0 1-1.2 1.68c-.84 1.08-1.68 2.16-2.52 3.12L153 174l-1.56 1.56c-.12.24-.24.24-.36.36a3.2 3.2 0 0 0-.96.84 10.8 10.8 0 0 1-2.16 1.8 6 6 0 0 0-.96.84 12 12 0 0 1-2.88 1.92M186.48 130.68l.12-.12v-.48l.48-4.08.24-3.84v-4.44l-.36-4.32s-.6-3.96-.96-6c-.12-.72-.6-.96-1.2-1.32-.24-.12-.36-.24-.6-.24a5.9 5.9 0 0 1-1.32-.48c-.96-.12-1.92-.6-2.88-.72-1.2-.24-2.4-.24-3.6-.48-.96 0-1.92-.12-2.88-.12h-2.04c-.48 0-.84 0-1.08.36-.24.24 0 .72 0 1.2.12.96.36 1.44.48 2.28a64 64 0 0 1 1.08 8.4c0 1.32.12 2.52.12 3.84v.96a5 5 0 0 0 .12.6 2.6 2.6 0 0 0 .6.36 2.1 2.1 0 0 1 .72.12 3.7 3.7 0 0 1 .96.24c1.08.36 2.28.72 3.48 1.2a18 18 0 0 1 2.16 1.08.37.37 0 0 0 .24.12c.48.36.96.72 1.32.96a15 15 0 0 1 2.88 2.64.94.94 0 0 0 .48.48c.36.36.84 1.32 1.2 1.68.12 0 .12.12.24.12M157.44 84.36h1.08c.24 0 .48 0 .48-.36.12-.24 0-.36-.12-.6s-.84-1.44-.84-1.44l-.72-1.2-3.12-4.32-.6-.84-.6-.84-.96-1.08-2.52-2.64-.96-1.08-3.84-3.6-3.12-2.4-1.2-.6-3.6-2.16-2.64-1.44-.48-.24-2.16-.72-3.12-1.2-.24-.12-.96-.24L126 57l-1.8-.36h-.96l-1.68-.36-1.92-.12-.72-.12h-1.2l-2.16.12-2.04.24h-1.56l-1.44.12-1.32.24-1.2.36-1.8.36h-.36l-1.68.6-.96.36-.6.36-1.44.36-.6.36-.84.48-2.16.96-2.76 1.08-.84.36-1.92 1.08-1.68 1.08-1.56.84-.6.24-1.68.96-.36.12-1.92 1.44-1.56 1.08-.36.24-1.8 1.44-.6.48a7.2 7.2 0 0 0-.96.96l.6-.12 1.32-.48h.24l1.8-.72h.24l1.92-.84 1.08-.24.96-.36 1.44-.6 3.6-1.32h.24l1.8-.6 1.44-.6.24.12 2.76.12 1.8.12h.12l3.48.36 4.92.24v.12l1.8 1.44h.12l1.8 1.8.12-.12 2.52.12.12-.12 6.12.36v.12l2.76 1.68h.12l4.8 2.28v.24l2.76-1.08 4.08 1.32.72 1.2h1.44l1.44 1.56h.12l1.2 1.32v.12h.12l3.12.72 1.2 1.8 2.88 1.08a40 40 0 0 0 4.8.96 17.3 17.3 0 0 0 4.32 0M184.8 102.96c-.12-.36-.48-1.32-.48-1.32l-.12-.6-.24-.6-.48-1.56-.48-1.32-1.56-3.36-.72-1.68-.72-1.92-1.08-1.56-.96-1.8-.6-1.08-.36-.36-4.32-6-.72-.72a.26.26 0 0 0-.24-.24s-1.32 2.16-1.92 2.88c-.6.6-1.8 1.68-1.8 1.68s-.96.72-1.08.84a11 11 0 0 1-.96.6l-.96.6a6 6 0 0 1-.84.36c-.24.12-.36.12-.36.24-.12.12-.12.12-.12.36s.12.24.12.36a26 26 0 0 0 1.2 2.64 22 22 0 0 1 1.68 3.84 13 13 0 0 1 .48 1.2c.36 1.2.84 2.28 1.08 3.36.12.6.36.96.48 1.56.12.48.24 1.08.36 1.44s.24.6.72.48h.96c1.2 0 2.28-.12 3.48-.12.36 0 2.76.24 2.76.24s.72.12 1.2.24c.96.12 1.8.36 2.76.48a15 15 0 0 1 2.16.72l1.08.36a1.2 1.2 0 0 1 .36.12c.24-.12.24-.24.24-.36"/><path fill="#a0a0a3" d="M169.32 76.8a2.6 2.6 0 0 0-.36-.6l-.24-.36-.6-.84-.36-.6-.84-.72a1.5 1.5 0 0 0-.36-.24c-1.44-1.08-4.2-3.36-4.2-3.36l-.72-.6-1.44-1.32-7.2-4.32-5.76-2.64-3.12-1.2-1.08-.36-3.72-1.32-2.64-.72-2.52-.48h-.36l-.24.24s.24.24.36.24c.84.24 1.68.6 2.4.84.6.24 1.08.48 1.68.72a1.48 1.48 0 0 1 .96.48c1.2.6 2.4 1.32 3.72 2.04a13 13 0 0 1 2.04 1.56l1.44 1.08a3.2 3.2 0 0 1 .72.6c.12.12.24.24.36.24.72.6 1.56 1.2 2.16 1.8a17.4 17.4 0 0 0 2.04 2.16c.72.72 1.32 1.32 1.92 2.04a21 21 0 0 0 1.56 1.8c1.08 1.08 1.8 2.28 2.88 3.36.12.12.12.24.24.48a24 24 0 0 0 1.92 2.88 12.5 12.5 0 0 1 1.44 2.04 7 7 0 0 0 .72 1.32c.24.12.48.36.6.36a.84.84 0 0 0 .48-.24l.48-.12a7 7 0 0 0 .84-.48 1.93 1.93 0 0 0 .84-.48 7 7 0 0 0 1.2-.96c.36-.36 1.2-1.32 1.2-1.32l.6-.72.96-1.68c-.12 0 .12-.36 0-.6M166.32 101.04c-.36-1.2-.6-2.4-1.08-3.6a28 28 0 0 0-1.08-2.88c-.24-.6-.36-1.2-.6-1.8-.12-.36-.24-.6-.36-.96a22.5 22.5 0 0 0-2.04-4.2.37.37 0 0 0-.12-.24c-.12-.12-.12-.24-.24-.36-.24-.12-.36 0-.72 0-.6 0-1.44.12-1.68.12-.36 0-1.56.12-2.52.12h-1.44l-3.12-.48c-1.2-.12-3.72-.72-3.72-.72l-2.04-.72-2.4-.84-.12.12-3.72-.36-.12.12-2.04-1.56h-.24l-1.32-1.2v-.24l-1.44-.24-.24.12-1.2-.48-.12-.12-2.64.24-2.52-.96-8.52.48-.12-.12-1.68.12-.12.24-4.2.24-.12-.12-6 3.48-.12.24-.24.24-.12-.12-3-.24h-5.64L96 84.24l-.48-.24L90 88.32v.12L88.08 90l-2.16-1.08-.12.12-.84-.24s-4.08.96-3.96.96l-3.84-.6-.24-.12-.6.72-1.56.72v.12l-3 2.4-4.32 3-4.8 3.6-2.16 1.56-.12.96-.84 2.04-.36 1.8-.6 3.72-.36 1.56-.24 1.92-.48 3.96-.24 8.64.24.48.12 2.4s0 .48.12.48L68.4 118.2l3.36-1.44 3-.12 1.8-2.04.12-.36h.24l4.8-.48.24-.12H84l.6-.72 2.16-1.32 2.4-1.56h6.36l.12.12 2.52.24 2.04-.36 3.6-3.6 2.88-2.76 4.32-.48.12-.24.24.24 2.16.96.24-.12 1.92-.24h.12l1.8-.36h.12l2.04 1.68.12-.12 4.08-.12.36-.24 3.36.12.12.12.6-.12v-.12l1.32-.6h.24l1.44-.72.12-.12 1.68-.6.12-.24 4.68-1.8.84-.24.12-.12.24.24 1.32.6h.48l1.44.84.12-.12.36-.24h.12l.72-.36v-.12l1.08-.24 2.76.72.6-.12.48.24 2.04.36 1.92.72 1.08-.12.48.24.24-.12s3.84-.48 5.76-.6c1.32-.12 2.52-.24 3.72-.36.72-.12 1.44-.12 2.16-.24.24.12.48-.12.24-.48"/><path fill="#a0a0a3" d="M169.2 120.72c0-.36-.12-.48-.12-.72a13 13 0 0 1-.12-2.16c0-.24-.12-.6-.12-.84a20 20 0 0 1-.12-2.76c-.12-1.2-.36-2.28-.48-3.48a20 20 0 0 0-.48-2.64 22 22 0 0 0-.48-2.76c-.24-.96-.36-.96-1.32-.96-.12 0-.24 0-.24.12a4 4 0 0 1-1.2.12c-1.92.24-3.72.36-5.52.6l-5.4 1.92-7.8-.24-.84-.36v.24l-2.4 1.68h-.24l-1.8 1.68-.12.24-4.68.6-4.2 3.36h-.48l-2.28 1.32-.84.12-.96.72-.24-.12-4.32-.36-.72.84v.12l-3.72 4.2-.12.24h-.12l-4.8 5.4h-1.32l-.12.12-3.96.72h-.36v.24l-6.6 3.6-2.88-.36-.6.24-2.88-.24-2.88 3.12-1.8.36h-.96l-.96.36H87v.12l-3.6 2.76-.48.12-5.52 4.32v.24l-3.48 8.4.24.36-5.76.48-1.8 1.68-.24.6 2.64 3.48 1.8 2.88 1.68 2.16 2.64 2.76v.24c.12 0 .48 0 .48.12l1.56.48 1.92.6a.12.12 0 0 0 .12.12h.12l3.24 1.32h.24l.12.12h.36l.72.6 1.32-.72h.12l.6-.48 4.92 1.2 3.6-1.8 7.92-.72 3.24-5.28 1.44-1.44h.24l1.08-1.08v-.12l2.04-1.92.96-.96.24-.12 1.08-1.08.96-.96.24-.12-.24-.72.84-3.48 1.8-.48.12-.12.48-.12v-.24l2.4-3.96h.24l.96-2.04 1.68-.84.24-.36.24.12.96-.48h.12l1.68-.84.24-.24 5.76-2.64h.48v-.36l.24-.12.6-2.04 1.92-.84 2.04-.12 1.92-1.44 2.88.24.24.12.12-.12 3.96-1.68v-.6l.84-1.8 1.92-.48.12-.12 2.52-.6 1.08-1.2h.12l.6-.6 1.8.24v.12l1.08.12.6.12s2.52-1.2 3.72-1.68a5.9 5.9 0 0 0 1.32-.48c.6-.24 1.2-.36 1.8-.6a2.8 2.8 0 0 0 .96-.24l1.2-.24 1.32-.24.96-.12h.6a.78.78 0 0 0 .6-.24c.24-.12.12-.36.24-.48a2.1 2.1 0 0 1-.12-.72"/><path fill="#a0a0a3" d="M169.2 125.76a1.01 1.01 0 0 0-.24-.72.9.9 0 0 0-.48-.24c-.12 0-.84.12-.84.12l-1.08.12c-.24 0-.24.12-.36.12a10 10 0 0 0-2.04.48 9 9 0 0 0-2.16.72 14.6 14.6 0 0 0-2.4 1.08c-.24.12-2.76 1.32-3.84 1.92l-1.56 1.56v.24H153v.12l-3 .96v.36l-.36.24v.24l-1.44 2.52h-.24v.24s-.24.36-.6.96l-6.24 3.96H141l-1.08.84-.6 2.64-.6.6-2.52 9.12.36 1.08-3.6 1.68h-.6l-.72 3.12-.12.12-.96 2.88.12.12-.36 2.4-.12.24.12.24-3.6 5.52h-.24l-.84 1.44v.24l-3 4.2-3.12 1.92.12.24-.12 1.32.24.48-.36.12-2.28 1.32h-.24l-3.36 1.92-.36.6 1.2.24 2.16.12 1.56.12h5.04l4.68-.6 2.76-.6 2.16-.6 2.28-.6 2.88-1.2.24-.12.84-.48a31 31 0 0 0 3.36-2.04 58 58 0 0 0 5.28-4.2 20 20 0 0 0 1.56-1.68 19 19 0 0 0 1.56-1.56c.12-.12.24-.12.24-.36a7 7 0 0 1 .84-.96 3.2 3.2 0 0 0 .6-.72 16 16 0 0 1 1.32-1.44 3.4 3.4 0 0 0 1.08-1.2 16.5 16.5 0 0 0 1.56-2.4 30 30 0 0 0 2.16-3.24c.6-1.2 1.2-2.4 1.92-3.6.6-.96 1.08-2.04 1.56-3 .72-1.8 1.56-3.6 2.16-5.28a35.4 35.4 0 0 0 1.8-5.76 30.5 30.5 0 0 1 1.2-4.44 1.3 1.3 0 0 1 .12-.6c.24-1.2.36-2.4.6-3.6.12-1.08.24-2.16.48-3.36a15 15 0 0 0 .36-2.28c0-1.08.12-2.16.12-3.24v-.36a.9.9 0 0 0 .36-.36"/></svg>