<svg xmlns="http://www.w3.org/2000/svg" width="1296" height="1296" style="shape-rendering:geometricPrecision;text-rendering:geometricPrecision;image-rendering:optimizeQuality;fill-rule:evenodd;clip-rule:evenodd"><path fill="#fefefe" d="M-.5-.5h1296v1296H-.5z" style="opacity:1"/><path fill="#09428b" d="M613.5 64.5q276.4-8.868 465.5 191c105.12 119.38 154.79 259.047 149 419-12.32 179.818-89.15 324.985-230.5 435.5-132.16 96.16-279.493 132.83-442 110-155.486-27.44-280.652-103.61-375.5-228.5Q41.987 798.452 72 561.5 112.095 318.956 308.5 173q136.982-97.473 305-108.5" style="opacity:1"/><path fill="#f9b728" d="M623.5 107.5q281.049-3.849 454.5 215 130.26 178.655 102 399c-23.22 148.357-94.39 267.524-213.5 357.5-128.426 90.87-270.426 122.2-426 94-163.278-36.99-285.778-128.16-367.5-273.5q-97.81-191.004-44-399Q200.92 263.6 423.5 156q95.662-42.666 200-48.5" style="opacity:1"/><path fill="#06428a" d="M390.5 410.5v-36q-1.937-.356-3 1a830 830 0 0 1-25 5 49.9 49.9 0 0 1-1 14 163 163 0 0 1-10.5 6l-1 43q-62.702 111.165-143 210a815 815 0 0 1-32.5 35.5 554 554 0 0 1-30.5 25.5q-27.727-226.693 118-401Q442.274 113.823 711.5 141q220.56 31.847 351.5 210.5c88.51 130.379 113.84 272.379 76 426a528 528 0 0 1-26 73q-.525 2.52-3 3Q865.146 772.94 652.5 630 553.192 561.738 468 475.5l-29-33q-.5-30.018-2-60a363 363 0 0 0-25.5-6v34z" style="opacity:1"/><path fill="#8d8057" d="M387.5 375.5q1.063-1.356 3-1v36a305 305 0 0 0-3-35" style="opacity:1"/><path fill="#08428a" d="M390.5 471.5h21v19h-21z" style="opacity:1"/><path fill="#6a7164" d="M390.5 471.5v19h21q-10.722 1.488-22 1-.486-10.281 1-20" style="opacity:1"/><path fill="#817b5a" d="M350.5 559.5a703 703 0 0 0-1-53q-.014-2.712 1.5-5a563 563 0 0 1-.5 58" style="opacity:1"/><path fill="#0a428a" d="M565.5 887.5a51773 51773 0 0 0-109-390q-1.235-2.933-.5-6a982 982 0 0 0 65 64q51.773 175.106 103.5 350a385 385 0 0 1-53 1 251 251 0 0 0-6-19" style="opacity:1"/><path fill="#06418b" d="M390.5 520.5h21v31h-21z" style="opacity:1"/><path fill="#0c428a" d="M450.5 530.5a49356 49356 0 0 0 103 367 129 129 0 0 1 2 11q-23.006.27-46 1a33288 33288 0 0 0-63.5-244 8430 8430 0 0 1-5-168 584 584 0 0 0 9.5 33" style="opacity:1"/><path fill="#0a428a" d="M327.5 529.5a37959 37959 0 0 0-102 364 347 347 0 0 1-7.5 24 465 465 0 0 1-34-62q-.255-3.518 1-7 32.027-108.072 64-216a1204 1204 0 0 0 87-136l.5 1.5a247 247 0 0 0-9 31.5" style="opacity:1"/><path fill="#0b428a" d="M349.5 506.5a703 703 0 0 1 1 53q0 49.01-1.5 98a37198 37198 0 0 0-67.5 260 1040 1040 0 0 1-47 1 82 82 0 0 1 2-10 31589 31589 0 0 0 106-379 242 242 0 0 0 7-23" style="opacity:1"/><path fill="#f7b629" d="M456.5 497.5a51773 51773 0 0 1 109 390q-1.852-.332-3-2a29.2 29.2 0 0 0-.5 8l-6-6q-2.714 2.976-.5 6.5a11.8 11.8 0 0 1-2 3.5 49356 49356 0 0 1-103-367 5.58 5.58 0 0 1 3 1 25.84 25.84 0 0 0 3.5-11l1 2a29 29 0 0 1 1.5-4 27.8 27.8 0 0 1-3-10.5q.996-5.478 0-10.5" style="opacity:1"/><path fill="#07418b" d="M390.5 580.5h21v31h-21z" style="opacity:1"/><path fill="#0a428a" d="M687.5 901.5q-6.11 2.452-13 3a291 291 0 0 0-26.5 1q-4.425-.101-8-2a35564 35564 0 0 1-96.5-328 832 832 0 0 0 52 42.5 34.7 34.7 0 0 1 6.5 7.5 48574 48574 0 0 1 85.5 276" style="opacity:1"/><path fill="#f7b629" d="M342.5 529.5a31589 31589 0 0 1-106 379q-.954-3.909 0-7.5a11.3 11.3 0 0 1-1.5-3.5l-1 1-1-3-1 1q-.663-3.268-3-2-.22-7.468-3.5-1a37959 37959 0 0 1 102-364q-.362 5.248 2.5 1a7.3 7.3 0 0 1 2 3q2-4 4 0 1-6 2 0l3-5q.574.834 1.5 1" style="opacity:1"/><path fill="#06418b" d="M411.5 641.5v58h-21v-58z" style="opacity:1"/><path fill="#847b58" d="M411.5 641.5h-21v58a871 871 0 0 1-1-59q11.278-.488 22 1" style="opacity:1"/><path fill="#0b428a" d="M753.5 899.5q-4.572 2.428-10 3h-40a115630 115630 0 0 1-80.5-263 87687 87687 0 0 0 57.5 41.5 27986 27986 0 0 1 73 218.5" style="opacity:1"/><path fill="#0c428a" d="M222.5 664.5q.895.352 1 1.5A62586 62586 0 0 0 174 831.5a626.5 626.5 0 0 1-26.5-90.5 542 542 0 0 0 75-76.5" style="opacity:1"/><path fill="#0b428a" d="M787.5 900.5a86.8 86.8 0 0 1-18-1 105552 105552 0 0 0-68-203.5l1-1.5a693 693 0 0 0 52 32.5q3.105 1.422 4.5 4.5a16477 16477 0 0 1 58.5 167 227 227 0 0 1-30 2" style="opacity:1"/><path fill="#05418b" d="M411.5 729.5v59h-21v-59z" style="opacity:1"/><path fill="#74755f" d="M411.5 729.5h-21v59h21q-10.722 1.488-22 1v-61q11.278-.488 22 1" style="opacity:1"/><path fill="#877e59" d="M449.5 739.5q-1.475 5.697-1 12-1.726-7.726-.5-16a10.1 10.1 0 0 1 1.5 4" style="opacity:1"/><path fill="#0a428a" d="M779.5 742.5a5670 5670 0 0 1 61.5 34 26467 26467 0 0 1 46.5 120 848 848 0 0 1-54 2q-26.97-77.955-54-156" style="opacity:1"/><path fill="#0d428a" d="M346.5 726.5q.999 5.98 1 12.5a11780 11780 0 0 1-7 176.5q-21.494.708-43 1a24304 24304 0 0 1 49-190" style="opacity:1"/><path fill="#0f428a" d="M449.5 739.5a6426 6426 0 0 1 44 171q-19.499.55-39 1a21545 21545 0 0 1-6-160q-.475-6.303 1-12" style="opacity:1"/><path fill="#0a428a" d="M954.5 892.5q-7.635 2.466-16 3a358 358 0 0 1-35.5 0 5498 5498 0 0 1-41-109 1290 1290 0 0 0 61 30 10201 10201 0 0 0 31.5 76" style="opacity:1"/><path fill="#06418b" d="M390.5 818.5h21v95h-21z" style="opacity:1"/><path fill="#0f428a" d="M943.5 827.5q1.126-1.61 3-.5a2392 2392 0 0 0 60 26.5q8.265 17.516 16.5 35c.49 1.293.66 2.627.5 4q-25.982 1.285-52 2a750 750 0 0 0-28-67" style="opacity:1"/><path fill="#0d428a" d="M1027.5 863.5q1.125-1.61 3-.5a3717 3717 0 0 0 64 25c-.46.414-.79.914-1 1.5a398 398 0 0 1-53 1 290 290 0 0 0-13-27" style="opacity:1"/><path fill="#606b69" d="M954.5 892.5q1.356 1.063 1 3h-17q8.365-.534 16-3" style="opacity:1"/><path fill="#ab9048" d="M769.5 899.5a86.8 86.8 0 0 0 18 1q-4.221.997-9 1-5.12-.026-9-2" style="opacity:1"/><path fill="#9c8650" d="M753.5 899.5q1.356 1.063 1 3h-11q5.428-.572 10-3" style="opacity:1"/><path fill="#606c68" d="M687.5 901.5q1.356 1.063 1 3h-14q6.89-.548 13-3" style="opacity:1"/><path fill="#174389" d="M456.5 942.5q300.502 1.594 601 4l-9 12-14 1a278488 278488 0 0 0-578-11z" style="opacity:1"/><path fill="#d6a739" d="M336.5 983.5v-9q-12.775.49-25-1 10.512.25 21-.5l-8-1a103 103 0 0 0 13-1.5l1 1.5a191 191 0 0 1-2 11.5" style="opacity:1"/><path fill="#0c428a" d="M311.5 973.5q12.225 1.49 25 1v9a2157 2157 0 0 0-3.5 48 37.8 37.8 0 0 1-2.5 12 480 480 0 0 1-72-70.5 833 833 0 0 1 53 .5" style="opacity:1"/><path fill="#08428a" d="M411.5 977.5a145991 145991 0 0 1 601 22c-87.179 88.25-192.846 139.08-317 152.5-79.123 7.36-155.79-2.97-230-31a3362 3362 0 0 1-7-122.5 58627 58627 0 0 0-46-15l-2 112a145.6 145.6 0 0 1-20-11v-107z" style="opacity:1"/><path fill="#6e7261" d="M411.5 977.5h-21v107q-1.498-53.745-1-108 11.278-.488 22 1" style="opacity:1"/><path fill="#b69a42" d="M412.5 983.5c.333 37.67 0 75.34-1 113-.607-.12-.94-.46-1-1z" style="opacity:1"/></svg>