<svg xmlns="http://www.w3.org/2000/svg" width="2500" height="1339" viewBox="-2.923 -111.758 282.905 300.161"><path d="M177.24 47.04c.6 3.96-3.6 5.28-6.12 5.64l-.12-7.92v-.6c3.12.36 6 1.08 6.24 2.88m-9.12-3c0 .24-.12.48-.12.72l-.12 20.76 3.24-1.8L171 52.8c2.28.12 5.64.6 5.64 2.4v8.52l3.12 1.8-.12-10.92c0-3.24-4.8-2.16-4.8-2.16s6-1.32 5.64-6.24c-.24-3-3.36-4.44-9-3.84h-.84a20.4 20.4 0 0 0-1.2-4.44 25 25 0 0 0-1.32 4.92 32 32 0 0 0-5.88 1.56 54 54 0 0 1 5.88-.36m25.92 15.36c0 1.92-1.08 3.12-2.88 3.12s-2.88-.96-2.88-3.12V47.52c0-2.16 1.2-3.12 2.88-3.12a2.906 2.906 0 0 1 2.88 3.12zm-.84-16.44h-3.96s-4.2 0-4.2 3.96V60c0 3.96 4.2 3.96 4.2 3.96h3.96s4.2.12 4.2-3.96V46.92c0-3.96-4.2-3.96-4.2-3.96m16.92 0h-3.96s-4.32 0-4.32 3.96V60c0 3.96 4.32 3.96 4.32 3.96h3.96s4.2.12 4.2-3.96v-1.68h-3.24v1.08a2.868 2.868 0 0 1-3 3.12c-1.8 0-2.88-.96-2.88-3.12V47.52c0-2.16 1.2-3.12 2.88-3.12a2.93 2.93 0 0 1 3 3.12v1.08h3.24v-1.68c.12-3.96-4.2-3.96-4.2-3.96m63.36 8.52c-2.76 0-3.6-.12-3.6-2.4v-2.16c0-1.68.36-2.64 3-2.64 2.76 0 3 1.32 3 3v1.08l3-1.56v-.36a3.49 3.49 0 0 0-3.48-3.72h-4.68s-3.96 0-3.96 3.48v3.12c0 2.88.12 3.84 4.2 3.84 3.12 0 5.04.12 5.04 2.76v3c0 2.4-.36 3.48-3 3.48-2.76 0-3.12-1.32-3.12-3.84v-1.44l-3 1.2v2.28c0 3.24 3.96 3.24 3.96 3.24h4.56a3.766 3.766 0 0 0 3.72-4.08V55.2c-.12-3.48-1.8-3.72-5.64-3.72m-34.68 7.8v-5.04h1.08a24.7 24.7 0 0 0 7.56-1.44 26.5 26.5 0 0 0-7.56-1.44h-1.08v-3.48c-.12-.6.48-1.68.6-2.04a3.33 3.33 0 0 1 2.4-.84h5.64c-.36-2.28-4.2-1.92-4.2-1.92h-3.36s-4.56 0-4.56 4.2V60c0 4.08 4.56 3.96 4.56 3.96h3.36s3.84.36 4.2-1.8h-5.64c-.12-.12-3 .12-3-2.88m11.04-16.32v2.76h5.04v17.4l3.12 2.04V45.72h1.2a17.8 17.8 0 0 0 6.12-1.32 15.3 15.3 0 0 0-6.12-1.44zm-18.36 0h-3L222 52.2v-9.24l-3.24-2.16v24.36l3.24-2.04V52.68l6.84 10.92h3.48L225 51.96zM26.04 59.4c0 1.92-1.08 3.12-2.88 3.12s-2.88-.96-2.88-3.12V47.52c0-2.16 1.2-3.12 2.88-3.12a2.906 2.906 0 0 1 2.88 3.12zm-.96-16.44h-3.96s-4.32 0-4.32 3.96V60c0 3.96 4.32 3.96 4.32 3.96h3.96s4.32.12 4.32-3.96V46.92c0-3.96-4.32-3.96-4.32-3.96m17.76 1.92v14.64c0 3-2.4 3-2.4 3h-.96a2.655 2.655 0 0 1-2.28-3V45l-3.24-2.04v17.16c0 3.72 3.96 3.96 3.96 3.96H42s4.44-.12 4.44-3.96v-7.8s-.12-9.24-.12-9.36zM99 65.4l2.76-2.04V51.6l9.48 12.48V48.36a33.5 33.5 0 0 0-1.44-7.92 37.7 37.7 0 0 0-1.32 7.92v6.96L99 42.96zM57 51.48c-2.76 0-3.6-.12-3.6-2.4v-2.16c0-1.68.36-2.64 3-2.64 2.76 0 3 1.32 3 3v1.08l3-1.56v-.36a3.49 3.49 0 0 0-3.48-3.72h-4.68s-3.96 0-3.96 3.48v3.12c0 2.88.12 3.84 4.2 3.84 3.12 0 5.04.12 5.04 2.76v3c0 2.4-.36 3.48-2.88 3.48-2.88 0-3.24-1.32-3.24-3.84v-1.44l-3 1.2v2.28c0 3.24 3.84 3.24 3.84 3.24h4.68a3.766 3.766 0 0 0 3.72-4.08V55.2c0-3.48-1.8-3.72-5.64-3.72m7.8-7.92v2.64h5.04v17.16l3.12 2.04V46.2h1.08a14.3 14.3 0 0 0 6-1.32 12.7 12.7 0 0 0-6-1.32zM85.2 59.4V47.52c0-2.16 1.2-3.12 2.88-3.12a2.93 2.93 0 0 1 3 3.12V59.4a2.868 2.868 0 0 1-3 3.12c-1.8 0-2.88-.84-2.88-3.12m4.8 4.56s4.32 0 4.32-4.08V46.92c0-4.08-4.32-4.08-4.32-4.08h-3.96s-4.2 0-4.2 4.08v12.96c0 4.08 4.2 4.08 4.2 4.08zM11.04 40.2a18.7 18.7 0 0 0-1.32 6.24v5.64H2.88v-5.64a21.5 21.5 0 0 0-1.44-6.24 24.2 24.2 0 0 0-1.32 6.24L0 65.76l3-1.68v-9.84h6.84v9.84l3 1.68-.12-19.32a32.3 32.3 0 0 0-1.68-6.24"/><path d="m158.4 86.16.12-15.36c14.16 1.8 25.8 3.72 25.8 7.2.12 3.72-10.56 6.72-25.92 8.16m-27.24.6.12-3.24c-.24-8.76.24-19.8.36-31.44 7.08.72 16.08 2.64 15.96 7.68l-.24 27.12c-2.64.12-5.28.12-7.92.12-2.88 0-5.64-.12-8.28-.24M94.8 78c0-3.48 12.84-5.4 25.68-7.32 0 4.08-.12 8.64-.24 13.56v1.92C105 84.72 94.8 81.72 94.8 78m55.32-43.32c1.56 11.4-10.08 15.12-18.36 16.32a249 249 0 0 0-.84-24.96c9.84.96 18.48 3.36 19.2 8.64m8.52 35.88.12-13.44c0-8.28-11.52-7.44-15.24-6.96 4.44-.84 19.44-4.44 18.48-18.24-.6-9-12-13.56-30.72-11.76-.36 0-.6.12-.96.12A100.6 100.6 0 0 0 126 .96a121 121 0 0 0-5.04 20.64 150 150 0 0 0-19.92 4.56 188 188 0 0 1 19.44-.6c-1.2 12 .12 23.28 0 45-19.8-.6-37.08 3.24-36.84 9 .24 5.16 15.48 9.84 36.84 11.64l.96 29.16 1.44-19.8c.12-2.4 1.92-2.16 1.92-.12l.6 25.92 1.68-21.12c0-2.88 1.92-2.64 1.8-.12l.72 27 1.32-40.32c2.76.12 5.52.12 8.4.12 2.76 0 5.4 0 7.92-.12l1.32 41.16 1.08-21.6c0-2.76 1.92-2.64 1.92-.12l1.08 30.12 1.2-26.04c0-2.52 2.04-2.4 2.16 0l.84 34.56 1.44-58.68c21.6-1.8 37.32-6.6 37.32-11.64-.12-5.64-17.04-9.96-36.96-9"/><g fill="#ce1141"><path d="M178.08 46.32c.48 3.96-3.72 5.28-6.24 5.64v-8.04a.72.72 0 0 0-.12-.48c3.24.36 6.12 1.08 6.36 2.88m-9.24-3v.6l-.24 20.88 3.24-1.8V52.08c2.16.12 5.64.48 5.52 2.28l.12 8.64 3 1.8V53.76c0-3.24-4.8-2.04-4.8-2.04s5.88-1.32 5.52-6.36c-.12-2.88-3.36-4.44-9-3.84-.24 0-.6.12-.72.12a15.6 15.6 0 0 0-1.32-4.44 23 23 0 0 0-1.32 4.92 41 41 0 0 0-5.76 1.44s2.76-.24 5.76-.24m26.04 15.36a2.868 2.868 0 0 1-3 3.12c-1.8 0-2.88-.96-2.88-3.12V46.8c0-2.28 1.2-3.12 2.88-3.12a2.93 2.93 0 0 1 3 3.12zm-.96-16.56h-3.96s-4.32 0-4.32 4.08v12.96c0 4.08 4.32 4.08 4.32 4.08h3.96s4.2.12 4.2-4.08V46.2c0-4.08-4.2-4.08-4.2-4.08m16.92 0h-3.96s-4.2 0-4.2 4.08v12.96c0 4.08 4.32 4.08 4.32 4.08h3.96s4.2.12 4.2-4.08V57.6h-3.36v1.08c0 1.92-1.08 3.12-2.88 3.12s-2.88-.96-2.88-3.12V46.8c0-2.28 1.2-3.12 2.88-3.12a2.906 2.906 0 0 1 2.88 3.12v1.08h3.36V46.2c0-4.08-4.32-4.08-4.32-4.08m63.36 8.64c-2.76 0-3.6-.12-3.6-2.4V46.2c0-1.68.36-2.64 3-2.64 2.76 0 3 1.32 3 3v1.08l3-1.56v-.36a3.49 3.49 0 0 0-3.48-3.72h-4.68s-3.96 0-3.96 3.36v3.24c0 2.88.12 3.84 4.2 3.84 3.12 0 5.04.12 5.04 2.76v3c0 2.4-.36 3.48-2.88 3.48-2.88 0-3.24-1.32-3.24-3.84V56.4l-3 1.2v2.28c0 3.24 3.96 3.24 3.96 3.24h4.68s3.6 0 3.6-4.2v-4.44c0-3.48-1.8-3.72-5.64-3.72m-34.68 7.8v-5.04h1.08a24.3 24.3 0 0 0 7.56-1.56 26.5 26.5 0 0 0-7.56-1.44h-1.08v-3.36a3.8 3.8 0 0 1 .72-2.04 3.56 3.56 0 0 1 2.4-.96h5.64c-.48-2.16-4.2-1.8-4.2-1.8h-3.48s-4.56 0-4.56 4.2v12.6c0 4.2 4.56 4.08 4.56 4.08h3.48s3.72.36 4.2-1.92h-5.76a2.642 2.642 0 0 1-3-2.76m11.04-16.32V45h5.04v17.4l3.24 2.04V45h1.2a17 17 0 0 0 6-1.44 14.8 14.8 0 0 0-6-1.32zm-18.36 0h-3l-6.48 9.24v-9.36l-3.24-2.04v24.36l3.24-2.04V51.84l6.84 10.92h3.48l-7.32-11.64zM26.88 58.68a2.868 2.868 0 0 1-3 3.12c-1.8 0-2.88-.96-2.88-3.12V46.8c0-2.28 1.2-3.12 2.88-3.12a2.93 2.93 0 0 1 3 3.12zm-.96-16.56h-3.96s-4.32 0-4.32 4.08v12.96c0 4.08 4.32 4.08 4.32 4.08h3.96s4.32.12 4.32-4.08V46.2c-.12-4.08-4.32-4.08-4.32-4.08m17.76 2.04v14.52c0 3.12-2.52 3.12-2.52 3.12h-.96a2.967 2.967 0 0 1-2.4-3.12v-6.6l.12-7.92-3.24-2.04V59.4c0 3.6 3.96 3.84 3.96 3.84h4.08s4.32-.12 4.32-3.84V42.12zm56.16 20.4 2.76-2.04V50.76l9.48 12.48V47.52a33.5 33.5 0 0 0-1.44-7.92 38 38 0 0 0-1.44 7.92v6.96l-9.36-12.36zm-42.12-13.8c-2.64 0-3.6-.12-3.6-2.4V46.2c0-1.68.36-2.64 3-2.64 2.76 0 3.12 1.32 3.12 3v1.08l3-1.56v-.36a3.564 3.564 0 0 0-3.6-3.72h-4.56S51 42 51 45.36v3.24c0 2.88.24 3.84 4.2 3.84 3.24 0 5.04.12 5.04 2.76v3c0 2.4-.36 3.48-2.88 3.48-2.88 0-3.12-1.32-3.12-3.84V56.4l-3 1.2v2.28c0 3.24 3.84 3.24 3.84 3.24h4.68a3.81 3.81 0 0 0 3.72-4.2v-4.44c-.12-3.48-1.8-3.72-5.76-3.72m7.92-8.04v2.76h5.04v17.04l3 2.16v-19.2h1.2a15.2 15.2 0 0 0 6-1.32 14.7 14.7 0 0 0-6-1.44zm20.28 15.96V46.8c0-2.28 1.2-3.12 2.88-3.12a2.93 2.93 0 0 1 3 3.12v11.88a2.868 2.868 0 0 1-3 3.12c-1.8 0-2.88-.96-2.88-3.12m4.92 4.44s4.2.12 4.2-3.96V46.2c0-4.08-4.2-4.08-4.2-4.08h-3.96s-4.32 0-4.32 4.08v12.96c0 3.96 4.32 3.96 4.32 3.96zM11.88 39.36a23.3 23.3 0 0 0-1.44 6.36v5.64H3.6v-5.64a23.1 23.1 0 0 0-1.32-6.36 21.1 21.1 0 0 0-1.44 6.36v19.32l3-1.68-.12-9.84h6.96l-.12 9.84 3 1.68-.12-19.32a44.6 44.6 0 0 0-1.56-6.36"/><path d="m159.36 85.2.12-15.48c14.16 1.8 25.8 3.84 25.8 7.2 0 3.84-10.56 6.96-25.92 8.28m-11.04.72c-2.52 0-5.28.12-7.92.12-2.88 0-5.52-.12-8.28-.12l.12-3.36c-.24-8.64.24-19.68.36-31.44 7.08.84 16.08 2.64 15.96 7.68zm-16.44-60.84c9.72.96 18.48 3.24 19.2 8.64 1.44 11.4-10.08 15.12-18.48 16.32a249 249 0 0 0-.72-24.96M121.2 85.2c-15.24-1.32-25.56-4.44-25.56-8.28 0-3.36 12.84-5.28 25.68-7.2 0 4.08-.12 8.64-.24 13.56zm38.28-15.6.12-13.44c0-8.28-11.4-7.44-15.12-6.96 4.32-.84 19.32-4.44 18.48-18.24-.6-9-12-13.56-30.84-11.76-.24 0-.6.12-.84.12A100.7 100.7 0 0 0 126.84 0a132.5 132.5 0 0 0-5.04 20.52 168 168 0 0 0-19.92 4.68 192 192 0 0 1 19.56-.6c-1.2 12 0 23.28 0 45-19.8-.6-37.08 3.12-36.84 9 .12 5.16 15.48 9.84 36.84 11.64l.84 29.16 1.56-19.8c0-2.4 1.8-2.28 1.8-.12l.72 25.92 1.56-21.12c0-2.88 1.92-2.76 1.92-.12l.72 27 1.32-40.32c2.76.12 5.52.12 8.4.12 2.64 0 5.4 0 7.92-.12l1.2 41.16 1.2-21.6c0-2.64 1.8-2.64 1.8-.12l1.2 30.12 1.08-26.04c.12-2.52 2.16-2.4 2.16 0l.96 34.56 1.32-58.68v-.12c21.72-1.8 37.32-6.48 37.32-11.52 0-5.52-17.04-9.84-36.96-9"/></g></svg>