<svg xmlns="http://www.w3.org/2000/svg" data-name="Layer 1" viewBox="0 0 400 400"><g data-name="&lt;Group&gt;"><circle cx="200" cy="200" r="200" style="fill:#ce0e2d"/><circle cx="200" cy="200" r="190" style="fill:#0a2240"/><circle cx="200" cy="200" r="138.7" style="fill:#3a8dde"/><circle cx="200" cy="200" r="133.2" style="fill:#fff"/><path d="M252.2 483c6.1-5.3 13.2-3.7 17.9 1.8a14.76 14.76 0 0 1 3.5 7.1l-3.3 2.8-.2-.2a9.06 9.06 0 0 0-2.2-6.8c-2.5-2.9-5.9-3.6-8.7-1.2l-4.3 3.7c-3 2.5-3 5.9-.4 9a10.1 10.1 0 0 0 6.7 3.4l.2.2-3.3 2.9a14 14 0 0 1-6.8-4.6c-4.9-5.7-5.3-12.9.9-18.1M287.4 507.1a8.9 8.9 0 0 0 .6-3.7l.2-.3 6.9 4.9-11.6 16.3 9.1 6.4-3 2.4-13.6-9.7 10.5-14.8a4.6 4.6 0 0 0 .9-1.5M319.5 526.5a9.7 9.7 0 0 0-.2-3.7l.1-.3 7.8 3.3-9.3 21.8-6.1-2.6 7.1-16.7a9.4 9.4 0 0 0 .6-1.8M346.5 536.1a8.6 8.6 0 0 0-1-3.6l.1-.3 13.4 2.4c5.9 1.1 8.9 4.7 7.9 9.9s-5 7.7-10.9 6.6l-5.1-.9-1.2 6.9-6.5-1.2 3.2-17.8a15 15 0 0 0 .1-2m9.1 11.3c2.2.4 3.7-.4 4.1-2.7l.5-2.9c.4-2.3-.7-3.5-2.9-3.9l-4.1-.7-1.7 9.4ZM387.5 540.6a10.2 10.2 0 0 0-1.9-3.2v-.3l13.6-1.1c6-.5 9.8 2.3 10.2 7.5s-2.8 8.7-8.8 9.2l-5.2.4.6 7-6.6.6-1.5-18.1a7.7 7.7 0 0 0-.4-2m11.8 8.5c2.2-.2 3.4-1.3 3.2-3.6l-.2-2.9c-.2-2.3-1.6-3.2-3.8-3l-4.1.4.8 9.5ZM428.4 534.2a8.4 8.4 0 0 0-2.7-2.6l-.1-.3 17.7-6.3 2.2 3.1-10.7 3.8 2 5.6 8.2-2.9.3 3.7-7.3 2.6 2.3 6.5 11.3-4 .2 3.8-16.5 5.9-6.1-17.1a10.5 10.5 0 0 0-.8-1.8M464.2 518.6a9.9 9.9 0 0 0-3.3-1.8l-.2-.3 11.8-8.2c4.7-3.2 9-2.9 11.6.8 2.1 3 1.7 6.3-.9 9.1l10.8 4-6.6 4.6-9.9-4-1.5 1 5.1 7.3-5.4 3.8-10.3-14.9a8.7 8.7 0 0 0-1.2-1.4m14.1-.4a2.58 2.58 0 0 0 .8-4l-1.2-1.8c-1.1-1.6-2.6-1.7-4.1-.6l-4.1 2.8 4.5 6.4ZM510.2 505.1l-3.4-2.9.2-.2a12.93 12.93 0 0 0 8-4.5c2-2.3 2.6-4.4 1.1-5.7-1-.8-2.1-.9-3.7.2l-4.6 3c-3.5 2.2-6.5 2.6-9 .5-3.3-2.8-3.2-7.8 1-12.7a15.57 15.57 0 0 1 6.7-4.8l3.2 2.8-.2.2a11 11 0 0 0-7 4c-1.7 2-2.3 4-1.1 5.1.9.7 2.1.5 3.5-.4l4.7-3c3.7-2.4 6.9-2.8 9.7-.4 3.8 3.3 2.8 8.6-1.3 13.4-2.3 2.5-5.3 4.8-7.8 5.4M220.9 326.6a8.3 8.3 0 0 0-3.7.3l-.3-.1 3.2-7.8 18.6 7.5 4.2-10.3 3.1 2.4-6.4 15.4-16.8-6.8a8.2 8.2 0 0 0-1.9-.6M242.8 298.7c-6.1-4.4-7.1-11.4-2.6-17.7s11.5-7.6 17.6-3.2 7.1 11.4 2.6 17.7-11.5 7.6-17.6 3.2m14.6-5.3c2.1-2.9 1.6-5.9-1.4-8l-4.9-3.5c-3-2.1-6-1.6-8 1.3s-1.6 5.9 1.4 8l4.9 3.5c3 2.1 6 1.5 8-1.3M276.6 272.7l-2.8-3.4.2-.2a12.43 12.43 0 0 0 8.6-3.2c2.3-2 3.3-4 2-5.5-.8-1-2-1.2-3.7-.4l-5 2.2c-3.8 1.7-6.8 1.5-8.9-1-2.8-3.3-1.9-8.2 3-12.4a15.7 15.7 0 0 1 7.4-3.7l2.8 3.3-.2.2a11.1 11.1 0 0 0-7.5 2.8c-2 1.7-2.9 3.6-1.9 4.8.8.9 2 .9 3.5.2l5.1-2.2c4-1.8 7.3-1.6 9.6 1.2 3.2 3.9 1.4 8.9-3.4 13-2.9 2.3-6.2 4.1-8.8 4.3M331.6 215.8l-.1-.3 9.1-2.5 16 20.2-6.9 1.9-3.2-4.1-11.2 3.1-.7 5.2-4.1 1.1L333 222c.5-3.5.4-4.3-1.4-6.2M344 228l-6.9-8.7-1.4 11ZM372.5 211.4a10.1 10.1 0 0 0-1.6-3.4v-.3h8.6l11.9 14.7.1-14.6h4.3l-.1 23.7h-5.4l-13.2-16.4-.1 16.3h-4.3l.1-18.1a15 15 0 0 1-.3-1.9M414.7 222.1c1.9-7.2 8-10.8 16.3-8.6a14.6 14.6 0 0 1 7 3.8l-1.1 4.2-.3-.1a9.36 9.36 0 0 0-6-4.3c-4.1-1.1-7.1.3-8.1 4.1l-1.4 5.3c-1.1 4 .8 6.6 4.5 7.6a8.6 8.6 0 0 0 3.1.3l1.8-6.8-4.1-1.1 1.9-3.2 9.7 2.6-3 11.4a16.75 16.75 0 0 1-10.4.3c-8.4-2.4-11.8-8.4-9.9-15.5M459.1 228.2a10.5 10.5 0 0 0 .2-3.7l.2-.3 16.5 9-.8 3.7-10-5.5-2.9 5.2 7.7 4.2-2.6 2.7-6.8-3.7-3.3 6.1 10.5 5.7-2.7 2.7-15.4-8.4 8.7-15.9c.3-.7.5-1.2.7-1.8M492.7 249.6a9.2 9.2 0 0 0 1-3.6l.2-.2 6.3 5.6-13.3 15 8.3 7.4-3.3 2.1-12.5-11.1 12-13.6a5.7 5.7 0 0 0 1.3-1.6M519.4 276.5a9.9 9.9 0 0 0 1.8-3.3l.3-.2 10.9 15.3-2.3 3-6.6-9.3-4.8 3.5 5.1 7.1-3.5 1.3-4.5-6.3-5.6 4 7 9.7-3.6 1.3-10.2-14.2 14.7-10.5a17 17 0 0 0 1.3-1.4M522.9 315.9l4.1-1.7.1.3a12.42 12.42 0 0 0 .4 9.1c1.2 2.8 2.8 4.3 4.6 3.6 1.2-.5 1.7-1.5 1.5-3.4l-.5-5.5c-.4-4.1.7-7 3.7-8.2 4-1.6 8.4.7 10.9 6.7a15 15 0 0 1 1.2 8.1l-3.9 1.6-.1-.3c1-2.4.6-5.5-.4-8s-2.5-3.9-4-3.3c-1.1.5-1.4 1.6-1.3 3.3l.5 5.5c.4 4.4-.7 7.4-4.1 8.8-4.7 1.9-8.9-1.4-11.4-7.2-1.2-3.2-1.8-6.9-1.3-9.4" style="fill:#fff" transform="translate(-184 -184)"/></g><path d="m294.5 375.8-23.8 3.7A113.46 113.46 0 0 1 384 270.6v60.6l.6.2 1.7-6.4H416l.2.7c-.3 2.2-.1 8.6 10.7 13.3l.3.9-43.1-1.1-43.1 1.1.3-.9c10.9-4.7 11-11.1 10.7-13.3l.2-.7h29.7l-1.5-5.9-21.6.7.2-.6c6.4-3.6 6.6-8.7 6.5-10.6l.2-.7h11.8l-3.5-13.3a90.17 90.17 0 0 0-79.5 81.2m166.1-38.9-3.5 10.5.7 1.6h31.4l1.3-3.9a113.28 113.28 0 0 0-101.9-74.3l3.7 23.8a89 89 0 0 1 68.3 42.3m-2.7 82.1-.7 1.6 3.5 10.5a89.89 89.89 0 0 1-68.1 42.4l-3.7 23.8A113.44 113.44 0 0 0 490.7 423l-1.3-3.9h-31.5Zm-28.7-73.1-.3-.9h-89.8l-.3.9c-.1 2.7-1.3 11.2-13.1 22.9l-.3 1c6.6-2.8 12.5-5.2 18-7.3 6.8-2.5 13.2-4.6 19.4-6.2 3.4-.9 6.8-1.7 10.1-2.4 3.5-.7 6.9-1.3 10.3-1.8l.7-.1.7.1c2.9.4 5.8.9 8.8 1.5 2.8.6 5.7 1.2 8.7 2 5.4 1.4 10.9 3.1 16.9 5.2 8.1 2.9 16 6.1 23.7 9.4l-.4-1.4c-11.7-11.6-13-20.2-13.1-22.9m-20-26.6c-6.4-3.6-6.6-8.7-6.5-10.6l-.2-.7h-11.8l-2.9 11.1 21.6.7Zm-5.1 117.8a1.4 1.4 0 0 1 .3.4 4.5 4.5 0 0 0 1 .9 5.3 5.3 0 0 0 1.5.8 20 20 0 0 0 4.1 1.3 65 65 0 0 0 9.7 1.5 23 23 0 0 0 2.6.2 103 103 0 0 1 5.1-12 93 93 0 0 1-11.6 4.2 86.5 86.5 0 0 1-12.7 2.7m-47 3.4a22 22 0 0 0 4.1-1.3 10 10 0 0 0 1.5-.8 4.5 4.5 0 0 0 1-.9c.1-.1.2-.3.3-.4a102 102 0 0 1-12.7-2.6 93 93 0 0 1-11.6-4.2 96 96 0 0 1 5.1 12c.9-.1 1.7-.1 2.6-.2a85 85 0 0 0 9.7-1.6M497.3 384v4.5l-23.8 3.7-24.9 3.9c-5.3 8.6-11 17.2-16 25.9-.6.4-1.2.7-1.8 1.1a63.2 63.2 0 0 1-26.4 8 41.6 41.6 0 0 1 3.5-6.1c.7-1.1 1.5-2.2 2.5-3.6q1.2-1.65 2.7-3.6c2.5-3.2 5.1-6.5 7.6-9.6 1.2-1.5 2.5-3.1 3.8-4.7l2.9-3.6a1.8 1.8 0 0 1 .4-.5c.8-1.1 1.6-2.2 2.4-3.2.9-1.2 1.8-2.5 2.7-3.8.3-.4.5-.8.8-1.2a3 3 0 0 1 .5-.7l-4.8-1.4a.1.1 0 0 1-.1.1c-.2.4-.5.8-.7 1.2a44 44 0 0 1-2.6 3.6 84 84 0 0 1-5.4 6.6c-.1.1-.2.3-.3.4-2.5 2.9-5.3 5.9-7.9 8.7-1.5 1.6-3.1 3.3-4.6 5-1.9 2.1-4.1 4.6-6.1 7.2-1 1.3-1.9 2.6-2.8 3.9a29.4 29.4 0 0 0-2.3 4.4 12.5 12.5 0 0 0-1 5.3 8.87 8.87 0 0 0 2.4 5.9 13.2 13.2 0 0 0 2.6 2.2 27 27 0 0 0 2.9 1.5 28.6 28.6 0 0 0 5.8 1.6 37 37 0 0 0 5.6.7 53 53 0 0 0 5.5.2h1.3c-.3 1.1-.5 2.2-.8 3.3l-16.6 6-10.3 3.8-7.2-74-.7-6.7-1.3-13.6-.8.3v130.8a113.35 113.35 0 0 1-113.4-113.3v-.1H344l.2-.7-10.9-3-10.2-2.8.4-1.1c18.7-8.3 39-16.2 60.5-19.2 21.1 2.8 41.4 11.2 60.6 19.5l.3.8-10.2 2.8-10.8 3 .2.7h73.2Zm-121.5 89.5-2-13-9.8-3.7-16.6-6h-.1c-.2-1.1-.5-2.2-.8-3.3h1.3a52 52 0 0 0 5.5-.2 37 37 0 0 0 5.6-.7 30.5 30.5 0 0 0 5.8-1.6 16 16 0 0 0 2.9-1.5 17 17 0 0 0 2.6-2.2 9.38 9.38 0 0 0 2.4-5.9 13.4 13.4 0 0 0-1-5.3 29.4 29.4 0 0 0-2.3-4.4 35 35 0 0 0-2.8-3.9c-2-2.6-4.2-5.1-6.1-7.2-1.5-1.7-3.1-3.4-4.6-5-2.7-2.8-5.4-5.8-7.9-8.7a1.4 1.4 0 0 1-.3-.4c-2.1-2.4-4-4.8-5.4-6.7-1-1.4-1.8-2.5-2.6-3.6a7.5 7.5 0 0 1-.7-1.2.1.1 0 0 0-.1-.1l-4.8 1.4c.2.2.3.5.5.7.3.4.5.8.8 1.2.9 1.3 1.8 2.6 2.7 3.8l2.4 3.3c.1.1.2.3.3.4l2.9 3.6c1.3 1.6 2.5 3.2 3.8 4.7 2.5 3.2 5.2 6.4 7.6 9.6 1 1.3 1.9 2.4 2.7 3.6 1 1.4 1.8 2.5 2.5 3.6a41.6 41.6 0 0 1 3.5 6.1 65.75 65.75 0 0 1-26.3-8 17 17 0 0 1-1.8-1.1c-4.9-8.7-10.6-17.3-16-25.9l-24.9-3.9a89.62 89.62 0 0 0 81.1 81.5m8.3-6.8" style="fill:#0a2240" transform="translate(-184 -184)"/></svg>