<svg xmlns="http://www.w3.org/2000/svg" width="1280" height="1278" style="shape-rendering:geometricPrecision;text-rendering:geometricPrecision;image-rendering:optimizeQuality;fill-rule:evenodd;clip-rule:evenodd"><path fill="#f7a193" d="M575.5-.5h8q-2.733 2.601-7 3-1.197-.686-1-2z" style="opacity:.149"/><path fill="#f48971" d="M638.5-.5h17q1.577 1.083 2 3a82.7 82.7 0 0 0-14-1v3h-3q.514 2.975-2 4z" style="opacity:.224"/><path fill="#ef4f32" d="M671.5-.5h18a1176 1176 0 0 1-3 80q-5.626 2.995-12 1.5l-2.5-2.5-1-33-1 8q-2.478 4.973-7 8-7.135-5.038-6.5-13 1.79-.705 2-3-3.1-6.569-3.5-14a7.25 7.25 0 0 0-2.5-2 31.1 31.1 0 0 0-1 11h3v6q.25 16.007-.5 32-3.062 3.711-8 3-4.36.105-7-3-.75-34.996-.5-70 2.514-1.025 2-4h3v-3q7.055-.095 14 1-.24 2.55.5 5a47.5 47.5 0 0 1 6 15 55.5 55.5 0 0 1 6-13 52 52 0 0 0 1.5-10" style="opacity:.798"/><path fill="#ef4e31" d="M735.5.5q7.367-.79 14 2a1008 1008 0 0 0 4.5 20 564 564 0 0 0 7.5 59q-.434 2.316-2 4a28.7 28.7 0 0 1-13 .5l-2.5-2.5q-.37-8.287-2.5-16-4.915-.426-9.5 1a69.7 69.7 0 0 0-3 12l-2.5 2.5a30.5 30.5 0 0 1-11 0q-2.436-1.675-3-4.5a377 377 0 0 0 12.5-49q4.596-11.008 7-23a83 83 0 0 0 3.5-6m4 38q.991 2.45 1 5.5.293 4.19-2 7.5-2.237-1.272-2-4a51.5 51.5 0 0 0 3-9" style="opacity:.792"/><path fill="#ef4f32" d="M583.5-.5h15a48.6 48.6 0 0 1 8.5 13 1026 1026 0 0 0 3.5 32 293 293 0 0 0-2.5 24q-4.351 10.85-15.5 14.5a30.5 30.5 0 0 1-11 0q-14.548-9.848-16-27.5a273 273 0 0 1-1-33h3q-.15-3.913 2-7 2.517-4.215-1-7 2.39-4.895 7-8-.197 1.314 1 2 4.267-.399 7-3m2 13q1.941 1.185 3.5 3 2.766 4.55 3 10a306 306 0 0 1 0 35q-.812 4.064-4.5 6a7.25 7.25 0 0 1-2.5-2q-6.681-20.314-3.5-42a40.7 40.7 0 0 1 4-10" style="opacity:.816"/><path fill="#ef4f31" d="M520.5 1.5q6.542-.394 12 3a1476 1476 0 0 1 5.5 58 67.2 67.2 0 0 1-.5 20q-7 4-14 0a10.3 10.3 0 0 1-1.5-4l-1-22a20.5 20.5 0 0 1-2.5-4.5q-11.192-2.602-8 9a555 555 0 0 0 2 16q2.073 10.106-8 9.5l-6-1a69 69 0 0 1-3.5-11 1548 1548 0 0 1-5-68q9.353-6.714 17 2 .241 13.076 2 26 3.601 1.653 7.5.5a102.2 102.2 0 0 0 .5-24.5q-3.228-6.309 3.5-9" style="opacity:.78"/><path fill="#ef4f31" d="M435.5 9.5q5.901-.718 11 2a71484 71484 0 0 1 17.5 53 144 144 0 0 0 5.5 12q6.135 19.14-13 14a88.4 88.4 0 0 1-7-14.5q-2.547.745-5-.5-1.536 2.03-4 2 .831 8.843-2 17-17.961 5.543-14-13a2683 2683 0 0 0 4.5-68q2.655-3.145 6.5-4m7 41q2.313 1.2 5 1-4.895 18.143-5-1" style="opacity:.778"/><path fill="#fdd7d2" d="M568.5 8.5q3.517 2.785 1 7-1.345 1.647-2.5 0a8.4 8.4 0 0 1-.5-4z" style="opacity:1"/><path fill="#ef4e31" d="M848.5 12.5q8.514-.25 17 .5 9.555 9.638-.5 19.5-4.302-3.383-9.5-3.5-4.443 3.43-6.5 8.5-5.046 19.068-3 39l4.5 4.5q4.205.195 8-1 3.178 3.163 3 8-.082 10.824-11 9.5-17.36-1.845-22-19a160.7 160.7 0 0 1-.5-31 151 151 0 0 1 9-25q5.188-5.958 11.5-10" style="opacity:.793"/><path fill="#f79688" d="M566.5 11.5a8.4 8.4 0 0 0 .5 4q1.155 1.647 2.5 0-2.15 3.087-2 7h-3q-.247-5.025.5-10 .575-.835 1.5-1" style="opacity:.012"/><path fill="#ef4f31" d="M365.5 66.5q-.197-1.314 1-2 2.715 5.975 3-1a54 54 0 0 0-2-7h-4a142.2 142.2 0 0 0-4-28.5q.12-7.81 8-6.5 3.815.21 7 2a68 68 0 0 1 4.5 12 56.4 56.4 0 0 0 2.5 15.5 3.65 3.65 0 0 0-1 1.5 303 303 0 0 1 7 34q5.578.198 10.5-2 6.508 1.14 5.5 8l-1 6a33.5 33.5 0 0 1-7 3.5q-5.787.119-11 2-11.002 3.324-13-7.5a710 710 0 0 0-6-30" style="opacity:.785"/><path fill="#ef4e31" d="M900.5 19.5q7.124-1.137 12 4a38.1 38.1 0 0 1 .5 15 1015 1015 0 0 1-10.5 58q-1.53 10.767-12 7.5-5.523-3.246-5-9.5a1444 1444 0 0 0 12.5-72 10.5 10.5 0 0 0 2.5-3" style="opacity:.775"/><path fill="#f38a7b" d="M739.5 33.5a25 25 0 0 1-1-8h3q.804 4.797-2 8" style="opacity:.891"/><path fill="#ef4f31" d="M969.5 49.5q-1.593-5.78-7-3-1.694 3.193-.5 7 1.006 1.128 2.5 1a1190 1190 0 0 1-11 52 19 19 0 0 1-3 5q-6 2-12 0-2.936-4.602-1.5-10a67.4 67.4 0 0 1 3.5-10.5 6.3 6.3 0 0 1-1-3 351 351 0 0 1 3.5-11.5q.015-10.135 4.5-19-.198-2.195-1-4.5 2.202-3.989 1-8-11.895-1.62-6.5-12.5 3.368-5.11 9.5-4a130 130 0 0 0 21 3.5q12.411 6.195 3 17-2.451.74-5 .5" style="opacity:.79"/><path fill="#f7a799" d="M656.5 48.5q-.5-1.5-2-2v-6h-3a31.1 31.1 0 0 1 1-11 7.25 7.25 0 0 1 2.5 2q.4 7.431 3.5 14-.21 2.295-2 3" style="opacity:.998"/><path fill="#f3795f" d="M672.5 27.5h4v9q-2.682.428-5-1a19.4 19.4 0 0 0 1-8" style="opacity:.908"/><path fill="#ef4f31" d="M323.5 28.5q4.12-.47 8 1 1.565 1.684 2 4a1947 1947 0 0 0-6.5 34q1.323 4.578 5.5 7 .555 5.813 5.5 9l1 5q7.192 7.182 10.5 16.5.5 4-3 6-10.72 4.77-17.5-4.5a245 245 0 0 0-9-16q1.51 11.62 3 23l-2.5 2.5q-4.558.504-8.5 2.5-2.835-.428-4-3a134 134 0 0 1-4-9l-1-10a571 571 0 0 0-8-31q-.509-12.068-3.5-23.5.287-3.075 2-5.5 5.298-2.626 11-2.5 7.065 5.026 4 13a33.7 33.7 0 0 1 3.5 8.5q2.567-11.216 3-23 4.57-1.774 8.5-4m-6 58q2.377.753 1.5 3-1.558-1.116-1.5-3" style="opacity:.801"/><path fill="#fde2dd" d="M652.5 31.5q2.29 1.488 2 4.5l-1 3.5a16.9 16.9 0 0 1-1-8" style="opacity:.892"/><path fill="#f58d7b" d="M442.5 44.5h-1q-.482-2.322-3-2a16.9 16.9 0 0 1 1-8q1.948.885 2.5 3 .745 3.465.5 7" style="opacity:.773"/><path fill="#ef4f31" d="M1003.5 40.5c5-.638 9.33.695 13 4 .69 7.832 1.85 15.498 3.5 23q4.155-9.533 10.5-17.5c4.67-.667 9.33-.667 14 0q3.825 6.63-1.5 12.5c-1.17 1.167-2.33 2.333-3.5 3.5.33.333.67.667 1 1a154.7 154.7 0 0 0-19 27.5q-.855 3.626-3 6.5c.56.725.89 1.558 1 2.5a119 119 0 0 0-6.5 21c-4.31 4.804-9.14 5.304-14.5 1.5q-2.22-1.949-2-5 1.106-13.479 6.5-25.5 1.515-23.001-1.5-45.5c.2-3.35.86-6.516 2-9.5" style="opacity:.816"/><path fill="#fdd7c4" d="M969.5 49.5q-2.343.35-4 2-3.876-.822-3-5 5.407-2.78 7 3" style="opacity:.698"/><path fill="#ef4f32" d="M232.5 49.5q16.695-2.98 28.5 8a30.3 30.3 0 0 0 5 8q2.795 12.52 8 25 1.194 6.382-.5 12.5 2.339 2.994 2 7-.252 13.474-12 22a64.2 64.2 0 0 1-16 0q-8.904-7.894-15.5-17.5a275 275 0 0 1-9.5-40.5 79.2 79.2 0 0 0 2.5-14.5 116 116 0 0 1 7.5-10m9 14q6.732 5.382 10 13.5 3.248 7.317 3.5 15.5 5.096 10.278 3 22-3.414 3.846-6-1a66.7 66.7 0 0 0-6.5-12 3.65 3.65 0 0 1 1-1.5q-7.787-17.457-5-36.5" style="opacity:.781"/><path fill="#f89a81" d="M962.5 46.5q-.876 4.178 3 5a5.73 5.73 0 0 0-1 3q-1.494.128-2.5-1-1.194-3.807.5-7" style="opacity:.365"/><path fill="#f7a18e" d="M363.5 56.5h4a54 54 0 0 1 2 7q-.285 6.975-3 1-1.197.686-1 2-1.971-3.593 0-7.5-1.321-1.062-2-2.5" style="opacity:.329"/><path fill="#f4866e" d="M1018.5 68.5c-.04 1.724.29 2.057 1 1 .88-.13 1.54.203 2 1q-2.865 3.465-3 8h-4c-.52-4.247.82-7.58 4-10" style="opacity:.578"/><path fill="#1d305f" d="M630.5 172.5a1765 1765 0 0 1 11 61 31822 31822 0 0 0 12 64 282 282 0 0 1 4.5 31q-1.47-100.004 1.5-200 19.007-.25 38 .5 2.342.477 3.5 2.5.383 29.37.5 58.5l-.5 13.5-1-26a64895 64895 0 0 0-5 320q-.75 1.75-2.5 2.5l-9.5.5q-9.495-1-18 0a90 90 0 0 1-10-2 1712 1712 0 0 0-14.5-81q-9.186-50.286-18.5-101a917 917 0 0 1-2-19q.023 39.026 1.5 78.5-1.272 55.73-2.5 111.5a436 436 0 0 0-1.5 11q-19.007.25-38-.5a9.5 9.5 0 0 1-2.5-1.5q-.41-15.384-.5-30.5 1.934-52.677 3.5-105.5a21262 21262 0 0 1 3.5-233 486 486 0 0 1 40 1 491 491 0 0 0 7 44" style="opacity:.966"/><path fill="#1d305f" d="M521.5 266.5q6.508 41.325 13 82 6.52 48.15 15.5 96 2.664 49.104-41.5 66.5-57.304 9.729-75.5-45.5a1574 1574 0 0 0-8.5-56q-11.618-69.08-22.5-145l-1 3a4784 4784 0 0 1-10-75 2526 2526 0 0 1-7.5-36.5 11.3 11.3 0 0 1 2-4q18.075-2.307 36.5-6.5 1.31.353 2.5 1a569 569 0 0 1 11.5 71 896 896 0 0 1 13 82q14.199 82.2 26.5 165l2 7a283 283 0 0 1 33-6.5q-8.784-49.5-15.5-99.5l-1 2a2330 2330 0 0 1-7-54q-1.866-4.707-2-10-.981 1.794-1.5 0-.228-3.274 1-7a455 455 0 0 1-4.5-20q-4.005-28.049-8-56l-1 3q-1.08-2.418.5-4.5a6757 6757 0 0 1-10-60.5q.174-9.284-2-18a120.6 120.6 0 0 1 17-2.5l-1-1q12.55-1.108 25-2.5a12361 12361 0 0 1 10.5 69l1-3q3.506 33.558 9.5 66" style="opacity:.958"/><path fill="#1d305f" d="M859.5 147.5q25.8 9.69 28 38.5-22.764 148.191-45 286.5-1.832 27.133-27 38.5-8.776 3.177-18 2a7015 7015 0 0 0-73.5-11.5l-4.5-1a11.5 11.5 0 0 1-1-2.5 125.5 125.5 0 0 0 3.5-26.5l1 5a553 553 0 0 1 5-40 22267 22267 0 0 0 41.5-254 17.4 17.4 0 0 0-1-5q.519-1.794 1.5 0 3.205-21.495 6.5-43 18.426 1.112 34 5.5a329.5 329.5 0 0 1 49 7.5m-79 230a8530 8530 0 0 1 20.5-127 670 670 0 0 1 11.5-69l3 1.5 30 3.5a15231 15231 0 0 0-40 252 2186 2186 0 0 1-5 33q-16.51-4.224-34-6a2487 2487 0 0 1 14-88" style="opacity:.961"/><path fill="#1e2d5e" d="M818.5 140.5q1.651-1.647 4-.5a8.4 8.4 0 0 1-4 .5" style="opacity:.004"/><path fill="#151e3b" d="M859.5 146.5q2 1 0 0" style="opacity:.004"/><path fill="#1b305e" d="M391.5 150.5q.595-1.538 2-.5a2.43 2.43 0 0 1-2 .5" style="opacity:.004"/><path fill="#252255" d="M459.5 149.5q1.538.595.5 2a2.43 2.43 0 0 1-.5-2" style="opacity:.004"/><path fill="#1c265a" d="M426.5 152.5q2 1 0 0" style="opacity:.004"/><path fill="#161d46" d="M461.5 158.5a2.43 2.43 0 0 1-.5 2q-1.038-1.405.5-2" style="opacity:.004"/><path fill="#1e305a" d="M630.5 172.5a2.43 2.43 0 0 1 .5-2q1.038 1.405-.5 2" style="opacity:.004"/><path fill="#1d305f" d="M306.5 177.5q22.08 71.398 47 145 19.965 61.473 39 120a1237 1237 0 0 1 10 31 3279 3279 0 0 1 14.5 45q.743 2.96.5 6a2115 2115 0 0 1-39 11 524 524 0 0 1-10-30 294760 294760 0 0 0-39.5-124 3.94 3.94 0 0 0-2-1 308 308 0 0 1-31.5 9q23.053 73.788 48.5 150a30.5 30.5 0 0 1 1.5 9 190 190 0 0 0-25 6.5l2 1a44.1 44.1 0 0 0-14.5 3.5l-1.5-1a2146 2146 0 0 0-21-62q-11.803-40.07-26-81a126575 126575 0 0 1-59.5-184l-1 1a335 335 0 0 0-6.5-24q1.918-2.47 5-3.5a1374 1374 0 0 1 35-9.5 10927 10927 0 0 0 50 154l1.5 1a716 716 0 0 0 31.5-10.5 443 443 0 0 1-7-19.5q-21.576-68.906-44-134 .798-3.362 4-4.5 13.45-4.19 27-8l-2-1a53.4 53.4 0 0 1 11-1 61 61 0 0 0 2 5.5" style="opacity:.96"/><path fill="#202d5e" d="M306.5 176.5q2 1 0 0" style="opacity:.004"/><path fill="#1d305f" d="M1078.5 211.5a580 580 0 0 1-11 35c-3.87.258-7.53-.408-11-2-7.24-2.429-14.57-4.929-22-7.5a73.5 73.5 0 0 0-11-2c.67-.333 1.33-.667 2-1-10.76-2.264-20.93-5.764-30.5-10.5a7.3 7.3 0 0 1-2 3q-16.954 55.779-36.5 114.5a700 700 0 0 1 35 11.5c5.725 2.294 11.73 4.127 18 5.5a3.9 3.9 0 0 1 1 2c-1.36 1.567-2.02 3.4-2 5.5a1260 1260 0 0 1-10 31q-6.006.771-12-1.5-21.623-7.992-42.5-14.5a159 159 0 0 0-8.5 26 4654 4654 0 0 0-29 90q-2 .5 0 1a10059 10059 0 0 0 69 22.5q1.956 1.206 2 3.5-6.572 15.046-10.5 33-1.349 2.74-4 4a2347 2347 0 0 0-72.5-23.5q-29.759-13.73-26.5-46.5a3338 3338 0 0 0 24.5-76q4.897-18.455 13-37a3.65 3.65 0 0 0-1-1.5A32073 32073 0 0 0 957 204.5q14.302-24.288 42.5-22.5 39.18 12.647 78 25.5c.93 1.189 1.26 2.522 1 4" style="opacity:.961"/><path fill="#1e325d" d="M1013.5 185.5q1.995 1 0 0" style="opacity:.004"/><path fill="#1b3362" d="M886.5 196.5q2 1 0 0" style="opacity:.004"/><path fill="#1b2d59" d="M390.5 201.5q1.538.595.5 2a2.43 2.43 0 0 1-.5-2" style="opacity:.004"/><path fill="#1e2f5e" d="M1078.5 211.5c1.03.397 1.19 1.063.5 2-.46-.594-.63-1.261-.5-2" style="opacity:.004"/><path fill="#1e3556" d="M949.5 222.5q2 1 0 0" style="opacity:.004"/><path fill="#1d305f" d="m130.5 280.5-6 2a77.7 77.7 0 0 0 6 13q22.83 49.874 47 97a23466 23466 0 0 0 91 185 48.3 48.3 0 0 1-7 5.5q-7.566 1.91-13.5 6.5l-1-1a84.7 84.7 0 0 1-12.5 7.5q-2.098.892-4-.5a4808 4808 0 0 0-41-83 945 945 0 0 0-26-54q-23.152-49.16-47-96a2655 2655 0 0 0-23-48l-6.5-13a366 366 0 0 1-33 15l-2.5-1a57998 57998 0 0 0-16-33l.5-2q23.71-11.678 47.5-23.5l-1-1q24.61-9.211 48-22.5a76 76 0 0 0 8.5-4q1.892.389 3 2a62167 62167 0 0 0 15 31 12.9 12.9 0 0 1 .5 5 505 505 0 0 0-27 13" style="opacity:.961"/><path fill="#192d5c" d="M130.5 233.5q-1-2 0 0" style="opacity:.004"/><path fill="#1f355c" d="M641.5 233.5a2.43 2.43 0 0 1 .5-2q1.038 1.405-.5 2" style="opacity:.004"/><path fill="#1a2962" d="M1142.5 232.5q1.995 1 0 0" style="opacity:.004"/><path fill="#1d305f" d="M1127.5 486.5a3715 3715 0 0 0-13 53 5458 5458 0 0 0-20.5 81q-2.085 1.58-4.5.5a134 134 0 0 1-14-6.5 188 188 0 0 0-18-8.5c-1.07-.739-1.74-1.739-2-3a552 552 0 0 0 9-35.5c4.6-16.764 8.94-33.764 13-51q1.365-6.466 3-13a986 986 0 0 0 15-61q-2.67-4.229-7.5-6-15.825 35.35-33 68a1070 1070 0 0 1-36.5 74.5 13 13 0 0 0-1 5.5c-1.7.16-3.37-.006-5-.5a460 460 0 0 0-31-15l-3-3q4.005-5.293 6-11.5a6449 6449 0 0 0 23-47c23.3-47.929 46.63-95.929 70-144a3703 3703 0 0 1 34.5-70q13.41-28.329 28.5-58c1.57-1.131 3.24-1.298 5-.5a5296 5296 0 0 0 63.5 30.5c20.17 10.827 27.84 27.493 23 50-21.59 45.267-42.76 88.933-63.5 131-3.77 6.272-8.94 10.939-15.5 14-.33-.333-.67-.667-1-1q-3.375 2.22-7.5 2a70 70 0 0 1-11-2q-2.25 13.746-6 27m46-146a4798 4798 0 0 0-36.5 74 1319 1319 0 0 0-30.5-15.5 1238 1238 0 0 0 8-15.5q22.5-47.011 45-94a8.4 8.4 0 0 1 4 .5c9.33 4.667 18.67 9.333 28 14a405 405 0 0 1-18 36.5" style="opacity:.962"/><path fill="#182d5a" d="M473.5 241.5q2 1 0 0" style="opacity:.004"/><path fill="#202a5d" d="M518.5 244.5q2 1 0 0" style="opacity:.004"/><path fill="#161c55" d="M1056.5 244.5q-1.005 1 0 0" style="opacity:.004"/><path fill="#1d2d5c" d="M284.5 250.5q2 1 0 0" style="opacity:.004"/><path fill="#1b2f60" d="M755.5 257.5q2 1 0 0" style="opacity:.004"/><path fill="#192d5c" d="M876.5 257.5q1.647 1.651.5 4a8.4 8.4 0 0 1-.5-4" style="opacity:.004"/><path fill="#1c3259" d="M1196.5 258.5q1.995 1 0 0" style="opacity:.004"/><path fill="#17234c" d="M521.5 266.5a4.93 4.93 0 0 1 .5-3q1.11 1.874-.5 3" style="opacity:.004"/><path fill="#1b325d" d="M579.5 251.5q1.73 9.23.5 19-.75-9.487-.5-19" style="opacity:.004"/><path fill="#242f5b" d="M522.5 271.5q1.61 1.126.5 3a4.93 4.93 0 0 1-.5-3" style="opacity:.004"/><path fill="#1d2f5b" d="M130.5 280.5q2 1 0 0" style="opacity:.004"/><path fill="#112247" d="M579.5 279.5q1.683 2.682.5 6a18.5 18.5 0 0 1-.5-6" style="opacity:.004"/><path fill="#1c2e61" d="M651.5 284.5q2 1 0 0" style="opacity:.004"/><path fill="#131d3e" d="M130.5 294.5q2 1 0 0" style="opacity:.004"/><path fill="#182450" d="M653.5 296.5q2 1 0 0" style="opacity:.004"/><path fill="#1b2b5e" d="M449.5 297.5q2 1 0 0" style="opacity:.004"/><path fill="#1a315d" d="M224.5 311.5q2 1 0 0" style="opacity:.004"/><path fill="#12234b" d="M93.5 314.5a2.43 2.43 0 0 1-.5 2q-1.038-1.405.5-2" style="opacity:.004"/><path fill="#232c62" d="M53.5 318.5q.595-1.538 2-.5a2.43 2.43 0 0 1-2 .5" style="opacity:.004"/><path fill="#1e2d60" d="M308.5 320.5a2.43 2.43 0 0 1-.5 2q-1.038-1.405.5-2" style="opacity:.004"/><path fill="#1e355d" d="M353.5 321.5q2 1 0 0" style="opacity:.004"/><path fill="#163158" d="M866.5 320.5q1.61 1.126.5 3a4.93 4.93 0 0 1-.5-3" style="opacity:.004"/><path fill="#1c315e" d="M486.5 322.5q1.61 1.126.5 3a4.93 4.93 0 0 1-.5-3" style="opacity:.004"/><path fill="#1b315a" d="M744.5 327.5q1.61 1.126.5 3a4.93 4.93 0 0 1-.5-3" style="opacity:.004"/><path fill="#1b2e60" d="M625.5 339.5q2 1 0 0" style="opacity:.004"/><path fill="#102958" d="M534.5 347.5q2 1 0 0" style="opacity:.004"/><path fill="#162959" d="M991.5 352.5q.595-1.538 2-.5a2.43 2.43 0 0 1-2 .5" style="opacity:.004"/><path fill="#192f5e" d="M628.5 357.5q1.538.595.5 2a2.43 2.43 0 0 1-.5-2" style="opacity:.004"/><path fill="#1b3360" d="M116.5 362.5q-1 1 0 0" style="opacity:.004"/><path fill="#182c5c" d="M1077.5 363.5q-1.005-2 0 0" style="opacity:.004"/><path fill="#1b2e5f" d="M416.5 366.5q1.538.595.5 2a2.43 2.43 0 0 1-.5-2" style="opacity:.004"/><path fill="#1d315c" d="M1008.5 365.5c1.03.397 1.19 1.063.5 2-.46-.594-.63-1.261-.5-2" style="opacity:.004"/><path fill="#203158" d="M900.5 372.5q2 1 0 0" style="opacity:.004"/><path fill="#1b2e5d" d="M697.5 369.5q1.73 9.23.5 19-.75-9.487-.5-19" style="opacity:.004"/><path fill="#1c2e5e" d="M462.5 376.5q1.61 1.126.5 3a4.93 4.93 0 0 1-.5-3" style="opacity:.004"/><path fill="#23325a" d="M247.5 381.5q2 1 0 0" style="opacity:.004"/><path fill="#1b2e5c" d="M496.5 385.5q1.647 1.651.5 4a8.4 8.4 0 0 1-.5-4" style="opacity:.004"/><path fill="#0a193d" d="M177.5 391.5q2 1 0 0" style="opacity:.004"/><path fill="#1d335e" d="M330.5 391.5q2 1 0 0" style="opacity:.004"/><path fill="#203165" d="M376.5 391.5q2 1 0 0" style="opacity:.004"/><path fill="#1e2e57" d="M935.5 406.5q2 1 0 0" style="opacity:.004"/><path fill="#1b2e5b" d="M424.5 409.5a2.43 2.43 0 0 1-.5 2q-1.038-1.405.5-2" style="opacity:.004"/><path fill="#203161" d="M638.5 411.5q1.538.595.5 2a2.43 2.43 0 0 1-.5-2" style="opacity:.004"/><path fill="#1c325c" d="M888.5 414.5q-1-2 0 0" style="opacity:.004"/><path fill="#162c7f" d="M259.5 415.5q-1 1 0 0" style="opacity:.004"/><path fill="#1f305a" d="M545.5 416.5q1.61 1.126.5 3a4.93 4.93 0 0 1-.5-3" style="opacity:.004"/><path fill="#1c3150" d="M640.5 417.5q-1 1 0 0" style="opacity:.004"/><path fill="#222a5e" d="M306.5 422.5q2 1 0 0" style="opacity:.004"/><path fill="#1b2f5c" d="M472.5 440.5q1.61 1.126.5 3a4.93 4.93 0 0 1-.5-3" style="opacity:.004"/><path fill="#203762" d="M392.5 441.5q2 1 0 0" style="opacity:.004"/><path fill="#112753" d="M163.5 458.5q-1 1 0 0" style="opacity:.004"/><path fill="#1d2656" d="M475.5 461.5q1.538.595.5 2a2.43 2.43 0 0 1-.5-2" style="opacity:.004"/><path fill="#1c2563" d="M843.5 466.5q2 1 0 0" style="opacity:.004"/><path fill="#203757" d="M487.5 468.5q.595-1.538 2-.5a2.43 2.43 0 0 1-2 .5" style="opacity:.004"/><path fill="#1e2d5c" d="M402.5 472.5q2 1 0 0" style="opacity:.004"/><path fill="#1d295d" d="M842.5 472.5q1.538.595.5 2a2.43 2.43 0 0 1-.5-2" style="opacity:.004"/><path fill="#1b2d5f" d="M912.5 477.5q2 1 0 0" style="opacity:.004"/><path fill="#1a325e" d="M651.5 482.5q2 1 0 0" style="opacity:.004"/><path fill="#173158" d="M1127.5 486.5q1.995 1 0 0" style="opacity:.004"/><path fill="#1b2d5e" d="M863.5 487.5q2 1 0 0" style="opacity:.004"/><path fill="#1c2f5c" d="M285.5 496.5q-1 1 0 0" style="opacity:.004"/><path fill="#172f68" d="M906.5 496.5q2 1 0 0" style="opacity:.004"/><path fill="#1c2c5d" d="M1124.5 499.5q1.995 1 0 0" style="opacity:.004"/><path fill="#1c2d59" d="M1080.5 503.5c-1.03-.397-1.19-1.063-.5-2 .46.594.63 1.261.5 2" style="opacity:.004"/><path fill="#191d4e" d="M368.5 505.5q-1 1 0 0" style="opacity:.004"/><path fill="#1c2f5c" d="M1007.5 507.5q-1.005-2 0 0" style="opacity:.004"/><path fill="#19305c" d="M766.5 508.5q2 1 0 0" style="opacity:.004"/><path fill="#1f3262" d="M863.5 508.5q2 1 0 0" style="opacity:.004"/><path fill="#1e2761" d="M189.5 512.5q-1 1 0 0" style="opacity:.004"/><path fill="#182b58" d="M1077.5 516.5c-1.03-.397-1.19-1.063-.5-2 .46.594.63 1.261.5 2" style="opacity:.004"/><path fill="#fafafb" d="M894.5 577.5a2204 2204 0 0 1 36 13c40.574 16.024 80.57 34.357 120 55 1.15 2.606 1.32 5.273.5 8a430 430 0 0 1-5.5 22c-.54.06-.88.393-1 1l5 1c49.33-1.291 98.66-1.124 148 .5 16.44.444 32.77 1.944 49 4.5 7.54 4.203 9.38 10.203 5.5 18q-3.045 3.355-7.5 4.5-51.015 7.755-102 15.5a3648 3648 0 0 0-116 19.5c-4.33 12.333-8.67 24.667-13 37 17.61-3.639 35.28-6.972 53-10q-1.8-.981 0-1.5c2.8 1.276 5.47 1.276 8 0a2105 2105 0 0 1 167.5-22c4.98.416 9.15 2.416 12.5 6q4.665 9.785-4.5 16a4235 4235 0 0 0-87.5 28 216 216 0 0 1-31 9.5q1.8.981 0 1.5c-.67-.333-1.33-.667-2-1-11.7 5.822-24.03 9.988-37 12.5.67.333 1.33.667 2 1a711 711 0 0 0-68 22.5 793 793 0 0 0-47 17 912 912 0 0 1-44 79q-26.57 42.938-59 80a84 84 0 0 1-10 12c-.667 0-1 .33-1 1-4 4.33-8 8.67-12 13-62.708 66.18-133.208 121.85-211.5 167q-81.978-47.73-154.5-111a1394 1394 0 0 0-28.5-26 1497 1497 0 0 1-33.5 16 5253 5253 0 0 0-123 60 4664 4664 0 0 0-195 103.5c-6.488 2.96-12.988 3.13-19.5.5q-3.407-3.93-2-9c1.95-3.78 4.45-7.11 7.5-10a6.57 6.57 0 0 0 3-3 1848 1848 0 0 1 56-47 1312 1312 0 0 1 104-77.5c-22.461-4.75-32.961-18.59-31.5-41.5a131.5 131.5 0 0 1 6-24c16.98-37.79 34.147-75.461 51.5-113q1.914-1.329 0-3a938 938 0 0 1-27 9q-38.425 11.74-80 26a4844 4844 0 0 0-130 45.5q-10.852 5.715-20.5-1.5a14.4 14.4 0 0 0-2.5-5.5q2.725-7.239 9-12a1872 1872 0 0 1 132-76.5q62.423-32.983 126-59.5l-1-1 5-1q.913-3.087 3-2.5-30.544-61.491-48-127a4673 4673 0 0 1-12-45q-1.923-10.886-6-23.5a6.3 6.3 0 0 1 1-3 3605 3605 0 0 1 67-32.5 339 339 0 0 1 23-10 728 728 0 0 1 39-16 238 238 0 0 1 28-10q120.955-42.029 252.5-42 132.082-.336 253.5 42" style="opacity:.829"/><path fill="#f9faf9" d="M729.5 539.5q2 1 0 0" style="opacity:.004"/><path fill="#192b56" d="M1114.5 539.5q1.995 1 0 0" style="opacity:.004"/><path fill="#fcfdfc" d="M542.5 540.5q2 1 0 0" style="opacity:.004"/><path fill="#f8f9f8" d="M739.5 540.5q2 1 0 0" style="opacity:.004"/><path fill="#f9faf9" d="M526.5 542.5q2 1 0 0" style="opacity:.004"/><path fill="#c5c9d5" d="M709.5 550.5a1536 1536 0 0 0-73.5-2q-24.048-.333-47.5 2h-2a134 134 0 0 0-20 1q.626-1.083 2-1.5a1492 1492 0 0 1 127-2 749 749 0 0 0 14 2.5" style="opacity:1"/><path fill="#5d6a8c" d="M709.5 550.5h1l5 2a1138 1138 0 0 0-127-2q23.452-2.333 47.5-2 36.778.12 73.5 2" style="opacity:1"/><path fill="#203160" d="M715.5 552.5a1138 1138 0 0 0 35 3h3q6.1 2.33 13 2l7 2q10.107 3.095 21 4a52.5 52.5 0 0 1 14 2q12.498 4.484 26 6 1.757 1.267 4 2 5.55 2.618 12 3h1q2.403 2.361 6 2a457 457 0 0 1 23 7 51 51 0 0 1 4 2.5 127 127 0 0 1 15 3.5q6.857 4.13 15 6a61 61 0 0 0 6 3.5 8.4 8.4 0 0 0 4 .5q4.766 3.48 11 4a5.73 5.73 0 0 1 3 1q6.24 4.617 14 6a39.6 39.6 0 0 1 10 4q5.963 5.001 14 6a41 41 0 0 0 13 7 79 79 0 0 0 13 6 44.3 44.3 0 0 0 9 4q3.765 3.635 9 5c3.24 2.451 6.91 4.118 11 5 1.24 1.543 2.9 2.543 5 3q1.86 4.556 0 9c-2.09 4.691-3.42 9.691-4 15v1c-1.71 1.135-2.38 2.802-2 5-.33 2-.67 4-1 6v1q-3.09 3.823-3 9a379 379 0 0 0-7 26c-1.71 1.135-2.38 2.802-2 5-1.57 1.602-2.24 3.602-2 6-3.18 4.017-4.85 8.684-5 14-2.49 3.126-3.82 6.792-4 11-1.66 1.938-2.33 4.272-2 7q-5.506 7.536-7 17-1.437 2.703-2 6-1.356 1.063-1 3-12.003 27.001-24 54-3.165 5.77-8.5 10 .764 5.052-1.5 10-2.618 2.3-3 6a174.6 174.6 0 0 0-12 22q-5.511 6.01-8 14a99.1 99.1 0 0 0-13.5 23 333 333 0 0 0-20.5 29 26.2 26.2 0 0 0-5 7 63.8 63.8 0 0 0-11 15q-3.621 2.116-5 6-2.11.71-2 3a67.2 67.2 0 0 0-10 12c-4.128 2.79-7.128 6.46-9 11q-5.105 3.6-8 9c-4.73 3.73-8.73 8.06-12 13-1.667 1-3 2.33-4 4-4.066 3.06-7.399 6.73-10 11a148.5 148.5 0 0 0-21 20 285 285 0 0 0-21 19c-3.6 1.93-6.6 4.6-9 8a85.2 85.2 0 0 0-17 14c-4.072 1.71-7.405 4.37-10 8a287 287 0 0 0-23 17 24.14 24.14 0 0 0-9 7 1473 1473 0 0 0-43 29c-3.204.88-5.871 2.55-8 5-2.675 1.67-5.341 3.34-8 5-3.204.88-5.871 2.55-8 5q-4.529 4.815-11 4.5-.834-.57-1-1.5-4.113-4.38-10-6-81.39-48.36-150-114a84.8 84.8 0 0 0-16-15 1508 1508 0 0 1-32-33.5 19.9 19.9 0 0 0-5-2.5c-5.662 2.16-11.328 4.33-17 6.5-12.467 7.07-25.467 13.4-39 19-5.772 5.1-12.438 8.43-20 10-7.112 3.88-14.112 7.72-21 11.5-3.492.91-6.492 2.58-9 5a90.8 90.8 0 0 0-20 11c-1.333.33-2.667.67-4 1q-3.7.375-6 3c-1.109.06-2.109.39-3 1a92.2 92.2 0 0 1-32 2.5 47 47 0 0 1-7-3.5q-5.037-3.54-8-9a74.4 74.4 0 0 1 1-28 85.3 85.3 0 0 1 5-15q2.618-2.295 3-6v-1c3.893-3.79 6.226-8.45 7-14 1-2.67 2-5.33 3-8 1.387-2.55 3.22-4.89 5.5-7a178 178 0 0 1 4.5-14 155 155 0 0 1 10-22q3.052-5.625 5-12 1.258-.513 1-2 2.548-3.1 4-7a429 429 0 0 1 19-41 70.6 70.6 0 0 1 8-17q2.618-2.3 3-6 4.647-6.588 1.5-14-3.033-7.085-7.5-13a260 260 0 0 0-18-39 83.4 83.4 0 0 0-3.5-12q-1.353-2.896-3.5-5a3175 3175 0 0 1-26-76q-.414-8.568-4-16v-1q-.864-7.963-4-15-.392-12.948-6-24v-1a50 50 0 0 1-1.5-10 50 50 0 0 0 5.5-4q5.105-.86 9-4 5.744-1.3 10-5 0-1 1-1 3.7-.382 6-3a351 351 0 0 1 33-15q9.235-1.225 16-7a1014 1014 0 0 1 39-16q4.617-.18 8-3 8.729-1.569 16-6a54 54 0 0 0 8-2q10.2-2.062 19-7 5.809-.951 11-3 6.603.288 12-3a19.2 19.2 0 0 0 6-1 283 283 0 0 1 32-8q3.429-.143 6-2a3054 3054 0 0 1 62-10 487 487 0 0 0 41-3h2a1138 1138 0 0 1 127 2" style="opacity:1"/><path fill="#abb2c3" d="M710.5 550.5q20.473.372 40 5a1138 1138 0 0 1-35-3z" style="opacity:1"/><path fill="#fafafa" d="M472.5 553.5q.595-1.538 2-.5a2.43 2.43 0 0 1-2 .5" style="opacity:.004"/><path fill="#8a93ac" d="M586.5 550.5a487 487 0 0 1-41 3q10.2-1.883 21-2a134 134 0 0 1 20-1" style="opacity:1"/><path fill="#fbfbfb" d="M808.5 553.5q1.126-1.61 3-.5a4.93 4.93 0 0 1-3 .5" style="opacity:.004"/><path fill="#1a3253" d="M984.5 554.5q-1-2 0 0" style="opacity:.004"/><path fill="#b1b7c7" d="M753.5 555.5q6.9-.33 13 2-6.9.33-13-2" style="opacity:1"/><path fill="#747f9c" d="M773.5 559.5q11.043.11 21 4-10.893-.905-21-4" style="opacity:1"/><path fill="#9ea6ba" d="M545.5 553.5a3054 3054 0 0 0-62 10q30.323-7.714 62-10" style="opacity:1"/><path fill="#1f254d" d="M1064.5 567.5q-1.005-2 0 0" style="opacity:.004"/><path fill="#697494" d="M477.5 565.5a283 283 0 0 0-32 8q15.024-7.184 32-8" style="opacity:1"/><path fill="#b3b9c9" d="M808.5 565.5a21.1 21.1 0 0 1 9 1 197 197 0 0 0 17 5q-13.502-1.516-26-6" style="opacity:1"/><path fill="#505e83" d="M682.5 574.5h-17q-14.742-1-30-1a592 592 0 0 0-52 2 93.3 93.3 0 0 1-18 1q16.119-3.297 33-3.5 40.5-1 81 0 1.855.348 3 1.5" style="opacity:1"/><path fill="#b1b7c8" d="M665.5 574.5a7729 7729 0 0 0-82 1 592 592 0 0 1 52-2q15.258 0 30 1" style="opacity:1"/><path fill="#959eb4" d="M670.5 574.5h12q11.011-.25 22 .5 3.312.287 6 1.5a599 599 0 0 1-40-2" style="opacity:1"/><path fill="#a4abbe" d="M838.5 573.5a32.5 32.5 0 0 1 8 .5q2.73.3 4 2.5-6.45-.382-12-3" style="opacity:1"/><path fill="#7b86a1" d="M439.5 574.5q-5.397 3.288-12 3 5.697-2.052 12-3" style="opacity:1"/><path fill="#fbfcfc" d="M665.5 574.5h5a599 599 0 0 0 40 2q4.82-.465 9 1a285 285 0 0 0 24 2h2q7.122 2.457 15 3 6.841 3.777 15 3a394 394 0 0 1 31 6q.436 1.724 2.5 2a122 122 0 0 0 16.5 3 47 47 0 0 0 9 2q17.835 4.25 36 9.5a704 704 0 0 0 44 16.5q4.688 3.735 11 4 23.011 10 46 20 2.3 2.618 6 3 6.569.54 11 5 2.3 2.618 6 3 3.071 2.363 7 3c1.56 1.329 3.23 2.662 5 4 .95 1.545 1.29 3.212 1 5a1129 1129 0 0 1-14 51q-.925.166-1.5 1a56.4 56.4 0 0 0-2.5 10 942 942 0 0 1-29 75q-4.389 4.464-5 11a645 645 0 0 1-14 31q-3.713 1.78-3 6-2.618 2.3-3 6-5.54 4.058-6 11-1.314-.197-2 1-2.565 6.432-6 12-3.635 3.762-5 9a216 216 0 0 1-18 29q-3.6 2.694-5 7a10.1 10.1 0 0 1-1.5 4 71.4 71.4 0 0 0-13.5 18 39.7 39.7 0 0 0-9 12q-2.643 1.144-3 4a361 361 0 0 0-23 28q-4.05 2.603-6 7-5.105 3.6-8 9c-1 .33-1.667 1-2 2-3.734 2.73-6.734 6.06-9 10-1 .33-1.667 1-2 2a257 257 0 0 0-19 19c-6.557 4.89-12.557 10.55-18 17a148.7 148.7 0 0 0-22 19q-4.391 1.89-7 6a45.5 45.5 0 0 0-10 8 45.8 45.8 0 0 0-9 7 24.14 24.14 0 0 0-9 7q-2.856.36-4 3a39.8 39.8 0 0 0-12 9c-2.698.34-4.698 1.68-6 4-2.87.93-5.204 2.6-7 5a26.5 26.5 0 0 0-10 7 57.4 57.4 0 0 0-15 10 623 623 0 0 0-26.5 16q-5.637-1.755-10.5-4.5a997 997 0 0 1-103-75 647 647 0 0 1-22-20.5q-4.096-5.595-10-9a6.58 6.58 0 0 1-3-3q-4.135-5.64-10-9c-.333-1-1-1.67-2-2a102.6 102.6 0 0 0-12-12l-14-15c-.548-1.89-1.548-3.56-3-5q4.591-3.135 9-6 5.02-.42 8-4.5a8.4 8.4 0 0 1 4-.5q4.92-1.96 9-5a39.6 39.6 0 0 0 10-4c4.947 5.956 9.947 11.96 15 18 3.605 5.27 7.938 9.94 13 14 38.569 39.09 80.236 74.26 125 105.5q2.5 1.005 5 0a95.5 95.5 0 0 0 10-9.5c4.944-2.57 9.944-5.24 15-8a97.5 97.5 0 0 0 11-8 2831 2831 0 0 1 48-38.5 578 578 0 0 1 37-33.5c3.667-3 7-6.33 10-10 6.059-5.06 11.393-10.72 16-17q5.601-4.096 9-10 0-1 1-1 5.105-3.6 8-9a313 313 0 0 1 19-23 72 72 0 0 0 14-18 686 686 0 0 1 18.5-27q4.141-1.499 4-6a231 231 0 0 1 13-17 29.8 29.8 0 0 0 5-11q1.965-4.46 6-7a10.1 10.1 0 0 0 1.5-4 35.4 35.4 0 0 0 5.5-7 43 43 0 0 0 1.5-5 82 82 0 0 1 6.5-10 2522 2522 0 0 1 28.5-58 33.6 33.6 0 0 0 5-12 294.6 294.6 0 0 1 16-40q7.416-12.892 10-28a12401 12401 0 0 0 6.5-22q1.197-2.639-.5-5a673 673 0 0 0-98-38 144 144 0 0 1 4 18q-.077 10.617 4 20a1629 1629 0 0 1 2 65 554 554 0 0 1-1 20 1386 1386 0 0 1-3 26 546 546 0 0 1-14 50q-5.775 19.059-16.5 36-.92 7.912-7 13a230 230 0 0 1-9.5 18 774 774 0 0 1-32 42 605 605 0 0 1-43 40 352 352 0 0 0-26 18 287 287 0 0 1-20 10.5c-1.563.76-2.563 1.93-3 3.5a133.7 133.7 0 0 0-31 14.5 200 200 0 0 0-33 10.5 313 313 0 0 1-42 7.5c-2.223.57-4.223 1.4-6 2.5-2.582-.47-4.582.19-6 2-3.667-3-7-6.33-10-10 10.077.48 19.744-.85 29-4h1c7.44-.29 14.44-1.96 21-5a35 35 0 0 0 8-2c2-.33 4-.67 6-1 9.331-1.99 17.998-5.33 26-10 3.34-2.09 7.007-3.42 11-4a8.4 8.4 0 0 0 4-.5c4.929-2.62 9.596-5.45 14-8.5 6.984-1.82 12.984-5.15 18-10a167 167 0 0 0 17-13 17.34 17.34 0 0 0 7-3.5 227 227 0 0 0 13-11.5h2q7.828-3.82 13-11 8-9 17-17 8.667-6.66 14-16a24.2 24.2 0 0 0 7-9 315 315 0 0 1 19-28q2.9-1.713 4.5-5a8.4 8.4 0 0 0 .5-4 160 160 0 0 1 11.5-21 8.4 8.4 0 0 0 .5-4 129 129 0 0 0 4.5-7q.453-5.617 3.5-10 4.599-7.234 6-16a136.7 136.7 0 0 0 6-25q2.678-.639 3-3.5a36.1 36.1 0 0 0 2-13.5 580 580 0 0 0 4-39q1.742-23.742.5-48-.279-3.804-1.5-7v-1q.453-6.435-2-12a84 84 0 0 0-3-17q.576-5.983-2-11a45.5 45.5 0 0 1-3-13q-11.626-1.707-22-6-3.022-2.135-7-2-2.819-1.262-6-1a69 69 0 0 0-9-2 27.1 27.1 0 0 0-10-2q-2.145-1.556-5-2-.166-.925-1-1.5a546 546 0 0 0-52-8.5 3836 3836 0 0 1-48-5q-2.178-1.203-5-1.5a242 242 0 0 0-22-.5q-42.305-2.18-85 1.5-7.254 1.02-14 2.5-4.82-.465-9 1a687 687 0 0 0-31 3.5 1431 1431 0 0 1-28 6.5 255 255 0 0 0-31 7 186 186 0 0 0-18 3.5q-2.987.56-5 2.5-2.398-.401-4 1-9.396 1.553-18 5-9.023 1.839-17 6a757 757 0 0 0-33 12 259 259 0 0 0-13 3.5q-2.728 1.11-4 3.5a1504 1504 0 0 1-40 16q-.126 5.747 2 11-.361 3.597 2 6a285 285 0 0 0 6 18q.835 6.997 4 13 3.3 7.9 6 16 .787 6.05 4 11a75034 75034 0 0 0 18 43 157 157 0 0 0-14 16q-7.056 5.066-11 13a53 53 0 0 0-8.5 12 9.6 9.6 0 0 1-3-3q-.743-4.992-3.5-9-1.3-5.744-5-10a723 723 0 0 1-32-82q-.869-7.707-5-14a318 318 0 0 0-9-32q-.835-6.997-4-13a35.9 35.9 0 0 0-2-10.5 11 11 0 0 1 1-3.5q9.315-1.658 16-8 9.42-2.447 17-8h1q3.7-.382 6-3a236 236 0 0 1 19-8q3.7-.382 6-3h1a181 181 0 0 0 17.5-6q3.04-1.852 5.5-4 2.722-1.695 6-2 7.444-.488 13-5a182 182 0 0 1 18-6q9.642-1.546 18-6 7.44-1.074 14-4a103 103 0 0 1 10-1.5 135 135 0 0 0 16-5.5h2q14.556-2.373 28-7 1.063-1.356 3-1 23.503-2.14 46-8h3q12.385-.189 24-3a93.3 93.3 0 0 0 18-1 7729 7729 0 0 1 82-1" style="opacity:1"/><path fill="#fafbfa" d="M388.5 577.5q-1-2 0 0" style="opacity:.004"/><path fill="#fbfcfb" d="M894.5 576.5q2 1 0 0" style="opacity:.004"/><path fill="#5f6c8d" d="M719.5 577.5q12.365-.653 24 2a285 285 0 0 1-24-2" style="opacity:1"/><path fill="#949db3" d="M851.5 576.5q3.597-.361 6 2-3.597.361-6-2" style="opacity:1"/><path fill="#7a84a0" d="M565.5 576.5q-11.615 2.811-24 3 11.615-2.811 24-3" style="opacity:1"/><path fill="#6d7998" d="M745.5 579.5q8.022-.197 15 3-7.878-.543-15-3" style="opacity:1"/><path fill="#9199b1" d="M416.5 580.5q-8.8 4.938-19 7 .837-1.935 3-2.5a149 149 0 0 0 16-4.5" style="opacity:1"/><path fill="#8c95ad" d="M538.5 579.5q-22.497 5.86-46 8a551 551 0 0 1 46-8" style="opacity:1"/><path fill="#aeb5c6" d="M760.5 582.5q8.091-.564 15 3-8.159.777-15-3" style="opacity:1"/><path fill="#fcfdfc" d="M360.5 587.5q-1-2 0 0" style="opacity:.004"/><path fill="#1c2d5d" d="M249.5 588.5q2 1 0 0" style="opacity:.004"/><path fill="#c3c7d4" d="M880.5 585.5a693 693 0 0 1 16 3.5 81 81 0 0 1 3 2.5 127 127 0 0 0-15-3.5 51 51 0 0 0-4-2.5" style="opacity:1"/><path fill="#fafbfa" d="M930.5 589.5q2 1 0 0" style="opacity:.004"/><path fill="#1c2d5c" d="M1101.5 591.5q1.995 1 0 0" style="opacity:.004"/><path fill="#858fa8" d="M389.5 589.5q-7.271 4.431-16 6 7.471-3.831 16-6" style="opacity:1"/><path fill="#c6cad6" d="M806.5 591.5q6.947 1.244 14 2a27.2 27.2 0 0 0 5 3 122 122 0 0 1-16.5-3q-2.064-.276-2.5-2" style="opacity:1"/><path fill="#bac0ce" d="M489.5 588.5q-13.444 4.627-28 7 13.192-5.975 28-7" style="opacity:1"/><path fill="#727d9b" d="M820.5 593.5q7.525 1.34 14 5a47 47 0 0 1-9-2 27.2 27.2 0 0 1-5-3" style="opacity:1"/><path fill="#818ba5" d="M373.5 595.5q-3.383 2.82-8 3 3.383-2.82 8-3" style="opacity:1"/><path fill="#8a93ac" d="M914.5 597.5q5.787.405 10 4a8.4 8.4 0 0 1-4-.5 61 61 0 0 1-6-3.5" style="opacity:1"/><path fill="#a0a7bb" d="M459.5 595.5a135 135 0 0 1-16 5.5q-5.07.509-10 1.5.166-.925 1-1.5a250 250 0 0 1 25-5.5" style="opacity:1"/><path fill="#fafbfa" d="M321.5 603.5q-1-2 0 0M962.5 602.5q2 1 0 0" style="opacity:.004"/><path fill="#a0a8bc" d="M433.5 602.5q-6.56 2.926-14 4 6.457-3.37 14-4" style="opacity:1"/><path fill="#929bb2" d="M924.5 601.5q6.312.265 11 4-6.234-.52-11-4" style="opacity:1"/><path fill="#a5adbf" d="M938.5 606.5q7.76 1.383 14 6-7.76-1.383-14-6" style="opacity:1"/><path fill="#9aa2b7" d="M419.5 606.5q-8.358 4.454-18 6 .166-.925 1-1.5a319 319 0 0 1 17-4.5" style="opacity:1"/><path fill="#fde8bc" d="M679.5 608.5q11.011-.25 22 .5 2.822.297 5 1.5a426 426 0 0 1-27-2" style="opacity:1"/><path fill="#fddd99" d="M679.5 608.5a895 895 0 0 0-99 4q6.746-1.48 14-2.5 42.695-3.68 85-1.5" style="opacity:1"/><path fill="#fbba31" d="M679.5 608.5q13.245 1.412 27 2a3836 3836 0 0 0 48 5 134 134 0 0 0 17 4 6456 6456 0 0 0-55.5-1q-23.046-.28-45.5 2-15.82.446-31 3a72.3 72.3 0 0 0-19 2h-4a120 120 0 0 0-14 2 644 644 0 0 0-120 27 169 169 0 0 0-24 8 565 565 0 0 0-31 10.5 47.2 47.2 0 0 1-11 4.5q-1.197.686-1 2-4.562.35-8 3-4.617.18-8 3a329 329 0 0 0-17 6.5 1462 1462 0 0 0-8 6 442 442 0 0 1 6.5 24.5 445 445 0 0 1 17.5 52v1q-3.884 1.379-6 5a6.55 6.55 0 0 0-3 3q-7.593 6.089-13 14-1.5.5-2 2l-3 2a75034 75034 0 0 1-18-43q-.787-6.05-4-11-2.7-8.1-6-16-.835-6.997-4-13a285 285 0 0 1-6-18q.361-3.597-2-6-2.126-5.253-2-11a1504 1504 0 0 0 40-16 301 301 0 0 0 17-7 757 757 0 0 1 33-12q9.023-1.839 17-6 9.975.502 18-5 1.602-1.401 4-1 12.12-1.216 23-6a255 255 0 0 1 31-7 1599 1599 0 0 1 59-10q4.18-1.465 9-1a895 895 0 0 1 99-4" style="opacity:1"/><path fill="#fbfcfb" d="M298.5 613.5q-1-2 0 0" style="opacity:.004"/><path fill="#132a55" d="M1075.5 614.5q-1.005 1 0 0" style="opacity:.004"/><path fill="#b1b7c8" d="M962.5 616.5q7.968 1.024 14 6-8.037-.999-14-6" style="opacity:1"/><path fill="#546185" d="M326.5 614.5q-6.765 5.775-16 7a81 81 0 0 1 3-2.5 113 113 0 0 1 13-4.5" style="opacity:1"/><path fill="#f9ac39" d="M771.5 619.5q6.35.058 12 2a1160 1160 0 0 0-113-1q22.454-2.28 45.5-2 27.755.38 55.5 1" style="opacity:1"/><path fill="#8791aa" d="M383.5 618.5q-5.556 4.512-13 5 .166-.925 1-1.5a263 263 0 0 0 12-3.5" style="opacity:1"/><path fill="#fdd37d" d="M571.5 613.5a1599 1599 0 0 0-59 10 1431 1431 0 0 0 28-6.5 687 687 0 0 1 31-3.5" style="opacity:1"/><path fill="#f37338" d="M783.5 621.5q1 0 1 1a1825 1825 0 0 0-145 1q15.18-2.554 31-3 56.525-2.255 113 1" style="opacity:1"/><path fill="#fdd5ab" d="M754.5 615.5a546 546 0 0 1 52 8.5q.834.575 1 1.5a681 681 0 0 0-23-3q0-1-1-1-5.65-1.942-12-2a134 134 0 0 1-17-4" style="opacity:1"/><path fill="#ef5333" d="M784.5 622.5a681 681 0 0 1 23 3q2.855.444 5 2v3q-2.283 7.16-3 15v1a389 389 0 0 1-4.5 20q-4.634.792-8.5 3-12.006 1.64-23 7.5-1.321 1.063-2 2.5-2.322-.482-2-3 1.1-1.812 1-4h-7q-7.425.405-14 3-2.872-.426-5 1a436 436 0 0 0-29 4.5q-1.374.417-2 1.5-3.838-.165-7 2l-16 17q-1.66-3.85 1-7 2.31-3.507 2-8-1.937-.356-3 1l-10 1q-7.425.405-14 3a188 188 0 0 0-18 4q-6.512.237-12 3h-5v-4q.15-9.48-3-18 .267-5.433-2-10a259 259 0 0 0-2-17q-1.247-9.486-2.5-19-.575-.834-1.5-1v-4a72.3 72.3 0 0 1 19-2 1825 1825 0 0 1 145-1" style="opacity:1"/><path fill="#635c58" d="M616.5 625.5q-.626 1.083-2 1.5a72.4 72.4 0 0 1-12 .5 120 120 0 0 1 14-2" style="opacity:1"/><path fill="#8e96af" d="M914.5 624.5a91 91 0 0 0 10 2.5q.834.575 1 1.5-6.312-.265-11-4" style="opacity:1"/><path fill="#8b94ad" d="M989.5 629.5q7.557 1.032 13 6a79 79 0 0 1-13-6" style="opacity:1"/><path fill="#a6acbf" d="M364.5 625.5q-2.46 2.148-5.5 4a181 181 0 0 1-17.5 6q10.607-6.714 23-10" style="opacity:1"/><path fill="#ef5333" d="M602.5 627.5v4q.462 5.79 2 11a113 113 0 0 0 .5 15 62.4 62.4 0 0 0 3.5 9v2a189 189 0 0 0 4 22 77 77 0 0 1 1 13q-2.398-.401-4 1-5.009.585-10 1.5-1.129 1.006-1 2.5-3.635 2.175-6 6-6.099 4.594-10 11a54.4 54.4 0 0 1-9-4q-1.27-2.2-4-2.5-9.77-1.23-19 .5h-1a32.5 32.5 0 0 0-8 .5q-.834.575-1 1.5h-1q-10.47 2.224-21 4.5-4.31 1.413-8 3.5h-2q-6.45.382-12 3-15.111 2.399-29 8h-2q-5.977 1.482-12 3l-19-28q-.382-3.7-3-6a63598 63598 0 0 0-16-30q-.197-1.314 1-2a47.2 47.2 0 0 0 11-4.5 565 565 0 0 1 31-10.5q12.623-2.54 24-8a644 644 0 0 1 120-27" style="opacity:1"/><path fill="#4c3c5e" d="M822.5 629.5a69 69 0 0 1 9 2 159 159 0 0 1-3 26q-1.442 2.648-1 6-.979-1.423-1-3.5 4.012-13.374 2.5-27.5-1.574 1.526-3.5.5l2-1q-3.229-.149-5-2.5" style="opacity:1"/><path fill="#fdd47e" d="M481.5 630.5q-10.88 4.784-23 6 2.013-1.94 5-2.5a186 186 0 0 1 18-3.5" style="opacity:1"/><path fill="#f8ad9e" d="M837.5 632.5q3.978-.135 7 2-3.978.135-7-2" style="opacity:1"/><path fill="#919ab1" d="M340.5 635.5q-2.3 2.618-6 3 2.3-2.618 6-3" style="opacity:1"/><path fill="#6f4355" d="M812.5 630.5q.563 8.116-3 15 .717-7.84 3-15" style="opacity:1"/><path fill="#929bb1" d="M277.5 636.5q-2.3 2.618-6 3 2.3-2.618 6-3" style="opacity:1"/><path fill="#fdd073" d="M454.5 637.5q-8.025 5.502-18 5 8.604-3.447 18-5" style="opacity:1"/><path fill="#ac4d48" d="M620.5 629.5q.925.166 1.5 1 1.253 9.514 2.5 19-3.234-9.559-4-20" style="opacity:1"/><path fill="#9ba3b8" d="M1011.5 639.5a8.4 8.4 0 0 1 4 .5c2.19 1.067 3.86 2.567 5 4.5q-5.235-1.365-9-5" style="opacity:1"/><path fill="#6b7796" d="M270.5 640.5q-4.256 3.7-10 5 .679-1.437 2-2.5a15 15 0 0 1 8-2.5" style="opacity:1"/><path fill="#9aa3b8" d="M1020.5 644.5c4.34.337 8 2.004 11 5-4.09-.882-7.76-2.549-11-5" style="opacity:1"/><path fill="#fedb96" d="M436.5 642.5q-7.977 4.161-17 6 7.977-4.161 17-6" style="opacity:1"/><path fill="#8791aa" d="M315.5 646.5q-2.3 2.618-6 3 2.3-2.618 6-3" style="opacity:1"/><path fill="#949db3" d="M971.5 648.5q3.7.382 6 3-3.7-.382-6-3" style="opacity:1"/><path fill="#4d587f" d="M308.5 649.5q-7.58 5.553-17 8 .129-1.494-1-2.5l2-1q8.557-.606 16-4.5" style="opacity:1"/><path fill="#cd5140" d="M604.5 642.5a107 107 0 0 0 4 20v4a62.4 62.4 0 0 1-3.5-9 113 113 0 0 1-.5-15" style="opacity:1"/><path fill="#593f5a" d="M602.5 631.5q5.168 14.85 6 31a107 107 0 0 1-4-20q-1.538-5.21-2-11" style="opacity:1"/><path fill="#0e7ec2" d="M969.5 709.5q-2.088 2.66-3.5 6a278 278 0 0 1-6.5 22 294.6 294.6 0 0 0-16 40q-4.092 5.202-5 12a2522 2522 0 0 0-28.5 58 82 82 0 0 0-6.5 10q-4.685 5.214-7 12a10.1 10.1 0 0 1-1.5 4q-4.035 2.54-6 7a29.8 29.8 0 0 1-5 11 231 231 0 0 0-13 17q.141 4.501-4 6a686 686 0 0 0-18.5 27 143 143 0 0 0-14 18 313 313 0 0 0-19 23q-5.105 3.6-8 9-1 0-1 1-5.601 4.096-9 10c-6.059 5.06-11.393 10.72-16 17-4.333 2.33-7.667 5.67-10 10a578 578 0 0 0-37 33.5 2831 2831 0 0 0-48 38.5c-4.63 1.47-8.296 4.14-11 8a838 838 0 0 1-15 8c-5.74-3.86-11.073-8.2-16-13-1.411-2.41-3.411-4.08-6-5a30 30 0 0 1-6-3.5 479 479 0 0 1-19-17.5q-2.609-4.11-7-6c-3.063-4.07-6.729-7.4-11-10-.667 0-1-.33-1-1 1.418-1.81 3.418-2.47 6-2 8.623-1.27 17.29-2.44 26-3.5 7.712-1.26 15.046-3.42 22-6.5a200 200 0 0 1 33-10.5 133.7 133.7 0 0 1 31-14.5 47.1 47.1 0 0 0 13-6.5q3.6-.285 7-1.5c-.333-.67-.667-1.33-1-2 1.579-1.17 2.912-2.5 4-4a352 352 0 0 1 26-18q24.326-16.82 43-40a360 360 0 0 0 15-16.5 10.3 10.3 0 0 0 4-1.5q3.31-7.184 10-11a6.8 6.8 0 0 0 1.5-3l1 1q1-2.5 0-5-1.523 3.844-4.5 4 3.951-4.402 5-10a230 230 0 0 0 9.5-18q6.08-5.088 7-13 10.725-16.941 16.5-36 10.589-23.917 14-50a1386 1386 0 0 0 3-26q1.836-8.2 2.5-17 1.242-22.758-.5-45a289 289 0 0 0-3-23q.077-10.617-4-20a144 144 0 0 0-4-18 673 673 0 0 1 98 38q1.697 2.361.5 5a12401 12401 0 0 1-6.5 22" style="opacity:1"/><path fill="#aeb4c5" d="M251.5 649.5a50 50 0 0 1-5.5 4q.233 5.01 1.5 10-9.75-10.6 4-14" style="opacity:1"/><path fill="#8a94ac" d="M988.5 656.5q3.7.382 6 3-3.7-.382-6-3" style="opacity:1"/><path fill="#9aa2b7" d="M291.5 657.5q-6.685 6.342-16 8a89.7 89.7 0 0 1 16-8" style="opacity:1"/><path fill="#f58339" d="M482.5 654.5q-11.377 5.46-24 8a169 169 0 0 1 24-8" style="opacity:1"/><path fill="#523d5b" d="M809.5 646.5q-.198 11.32-3 22-5.04.174-10 1 3.866-2.208 8.5-3a389 389 0 0 0 4.5-20" style="opacity:1"/><path fill="#8e4950" d="M828.5 657.5q-.428 2.682 1 5a51.6 51.6 0 0 1 15-2q-8.172 2.28-17 3-.442-3.352 1-6" style="opacity:1"/><path fill="#fdde9e" d="M386.5 660.5a301 301 0 0 1-17 7q1.272-2.39 4-3.5a259 259 0 0 1 13-3.5" style="opacity:1"/><path fill="#f6927c" d="M869.5 653.5q2.576 5.017 2 11-2.576-5.017-2-11" style="opacity:1"/><path fill="#ee5333" d="M831.5 631.5q3.181-.262 6 1 3.022 2.135 7 2 10.374 4.293 22 6a45.5 45.5 0 0 0 3 13q-.576 5.983 2 11a84 84 0 0 1 3 17q-.453 6.435 2 12v1a913 913 0 0 1 1 55 580 580 0 0 1-4 39 307 307 0 0 0-5 17 266 266 0 0 0-15 23q-3.13 1.627-4 5a352 352 0 0 1-46 48.5q-27.045 20.268-58 33.5-3.7.382-6 3-1.812 1.1-4 1-.427-4.994 2-9a151.5 151.5 0 0 0 5-22q2.135-3.022 2-7 .016-2.276 2-3.5a249 249 0 0 1 16-6.5q5.744-1.3 10-5a112 112 0 0 1 22-9 31.8 31.8 0 0 0 7-2.5 159 159 0 0 1 16-20.5 25.7 25.7 0 0 1 6-6q.975-.456 2-1a39.7 39.7 0 0 0 2-10q-.12-4.921 2-9 2.135-3.022 2-7v-1q2.361-2.403 2-6a47.2 47.2 0 0 1 3-13q2.135-3.022 2-7 2.135-3.022 2-7-.262-3.181 1-6 2.361-2.403 2-6a44.4 44.4 0 0 1 2-10q-8.964-.618-17.5 3l-1.5-1a181 181 0 0 1 16-16 95 95 0 0 0 8.5-8 56.3 56.3 0 0 0 2.5-13 1131 1131 0 0 1 9-37q2.361-2.403 2-6v-1q2.648-3.935 2-9-3.352-.442-6 1-8.326.04-16 2a51.6 51.6 0 0 0-15 2q-1.428-2.318-1-5a159 159 0 0 0 3-26" style="opacity:1"/><path fill="#a54e4b" d="M860.5 658.5q2.648-1.442 6-1 .648 5.065-2 9l1-8z" style="opacity:1"/><path fill="#979fb5" d="M1001.5 662.5c3.64.203 6.31 1.869 8 5-.17 1.671-.83 3.004-2 4 .29-1.788-.05-3.455-1-5a110 110 0 0 1-5-4" style="opacity:1"/><path fill="#bcc1cf" d="M1036.5 661.5q.12 6.595-1.5 13c-.42 1.256-1.25 1.923-2.5 2 .58-5.309 1.91-10.309 4-15" style="opacity:1"/><path fill="#4e5b81" d="M247.5 664.5q5.608 11.052 6 24a488 488 0 0 0-6-24" style="opacity:1"/><path fill="#fafafb" d="M840.5 671.5h11v3q-2.633 3.392-3.5 8l-1.5 12a77.3 77.3 0 0 1-7 20 202 202 0 0 0-20 3.5q-.834.575-1 1.5-2.682.428-5-1a34.3 34.3 0 0 0 3-11v-3a147 147 0 0 1-19 2q-11.484 40.93-23 82-4.377 6.888-3 15a699 699 0 0 0 10-4 48.7 48.7 0 0 1 9-3.5q3.013-4.281 4-9.5 2.763-5.488 3-12 2.055-2.625 3-6a72 72 0 0 1 16-5q6.991-.373 13-4 1.329 1.238 1 3a47 47 0 0 0-3 13 440 440 0 0 0-6 22 194 194 0 0 0-4.5 18 6.98 6.98 0 0 1-2.5 3.5 917 917 0 0 0-52 21.5q-3.521.138-5 3-14.73 6.996-31 6.5-3.416-2.42-4.5-6.5a53.5 53.5 0 0 1 .5-17q4.752-7.75 6-17l7.5-28a259 259 0 0 0 9.5-27q2.361-2.403 2-6a190 190 0 0 0 4-13q4.454-7.349 6-16l1-6q5.416-5.325 7-13 7.295-11.041 19-17.5a8.4 8.4 0 0 1 4-.5 741 741 0 0 1 47-10q2.872.426 5-1" style="opacity:1"/><path fill="#fafbfa" d="M236.5 672.5q-1 1 0 0" style="opacity:.004"/><path fill="#994b4e" d="M864.5 667.5q.361 3.597-2 6-.361-3.597 2-6" style="opacity:1"/><path fill="#8a4850" d="M608.5 668.5q1.083.626 1.5 2a224 224 0 0 1 2.5 17v3a189 189 0 0 1-4-22" style="opacity:1"/><path fill="#674358" d="M626.5 666.5q2.267 4.567 2 10v2q-2.453-5.565-2-12" style="opacity:1"/><path fill="#a84e4a" d="M763.5 672.5q-6.575 2.595-14 3 6.575-2.595 14-3" style="opacity:1"/><path fill="#fcfdfc" d="M1045.5 675.5q1.995 1 0 0" style="opacity:.004"/><path fill="#9fa7bb" d="M835.5 672.5a741 741 0 0 0-47 10q2.222-2.62 6-3.5a603 603 0 0 1 41-6.5" style="opacity:1"/><path fill="#acb3c4" d="M851.5 674.5a19.2 19.2 0 0 0-1 6 442 442 0 0 1-4 14l1.5-12q.867-4.608 3.5-8" style="opacity:1"/><path fill="#8f494f" d="M744.5 676.5q-15.084 4.102-31 6 .626-1.083 2-1.5a436 436 0 0 1 29-4.5" style="opacity:1"/><path fill="#914c51" d="M769.5 676.5q-.322 2.518 2 3-.467 1.467-2 2-1.932-2.698 0-5" style="opacity:1"/><path fill="#5d6a8c" d="M840.5 671.5q5.697-1.475 12-1 .512 5.49-2 10a19.2 19.2 0 0 1 1-6v-3z" style="opacity:1"/><path fill="#8ec1e2" d="M881.5 662.5q4.077 9.383 4 20-4.077-9.383-4-20" style="opacity:1"/><path fill="#7f89a4" d="M1032.5 677.5c.38 2.198-.29 3.865-2 5-.38-2.198.29-3.865 2-5" style="opacity:1"/><path fill="#ad4e48" d="M628.5 676.5q3.15 8.52 3 18a222 222 0 0 1-3-16z" style="opacity:1"/><path fill="#657192" d="M276.5 679.5q3.165 6.003 4 13-3.165-6.003-4-13" style="opacity:1"/><path fill="#59515c" d="M407.5 682.5q-2.431 2.426-6 3.5-1.129 1.006-1 2.5-1.356-1.063-1-3 3.383-2.82 8-3" style="opacity:1"/><path fill="#fcfcfc" d="M754.5 688.5q-4.231 13.906-8.5 28l-2.5 2.5q-6.272.279-12 2.5-4.587 2.615-6 8a115 115 0 0 0-16 24q-3.6 2.694-5 7a73.4 73.4 0 0 0-8 12q-4.111 3.713-6 9a57.5 57.5 0 0 0-8 12q-3.564 1.518-3 5.5l.5 3.5q1.353 2.896 3.5 5 2.371 2.463 2 6 .138 3.521 3 5a374 374 0 0 1 13 31q.382 3.7 3 6 .35 2.343 2 4v3a8.4 8.4 0 0 0-4 .5q-2.896 1.353-5 3.5h-1q-9.293 2.9-17 8a146 146 0 0 1-15 6q-1.983.255-3.5-1-2.286-6.688-6.5-12a565 565 0 0 1-5-10 50.6 50.6 0 0 0-6-12q.428-2.682-1-5a335 335 0 0 0-4-5 30.9 30.9 0 0 0-6-11q-3.15 2.796-4 7-3.735 4.688-4 11a67 67 0 0 1-5 12q-2.135 3.022-2 7a61 61 0 0 0-3.5 6 8.4 8.4 0 0 0-.5 4q-.925.166-1.5 1a66 66 0 0 0-2.5 11 4903 4903 0 0 0-4 11q-3.232 3.176-3 8a39 39 0 0 0-4 8 125 125 0 0 1-12 4.5q-3.771 1.322-6 4.5-5.424 1.137-10 4a78 78 0 0 0-13 6 628 628 0 0 1-8 4q-6.016.816-10 5a2509 2509 0 0 1-10 4q2.368-7.44 4.5-15l3-4a530 530 0 0 1 8.5-24q2.927-2.97 4.5-7 .743-2.96.5-6 3.138-3.882 4-9 3.595-4.213 4-10 2.147-2.104 3.5-5a95 95 0 0 1 3.5-12 20.7 20.7 0 0 0 1-5q6.514-9.513 9-21a1274 1274 0 0 1 19-46q3.622-4.26 4-10 2.49-6.936 5-14a20.7 20.7 0 0 0-5 1 51.6 51.6 0 0 0-7 1v-3l1-4q3.501-2.514 3-7a702 702 0 0 0 3.5-5q.614-5.986 3.5-11 2.618-2.3 3-6v-2a10.5 10.5 0 0 0 3-2.5q5.45-.223 10-2.5.626-1.083 2-1.5a32.5 32.5 0 0 1 8-.5q7.543-.63 14-4a68 68 0 0 1 13-2q9.068-.35 17-4h4a79.4 79.4 0 0 0-4 11 1514 1514 0 0 0-15 41q-.925.166-1.5 1a263 263 0 0 1-3.5 12q-1.1 1.812-1 4-3.332 4.143-5 9.5.525 1.886 2 1a68 68 0 0 1 5-7.5 265 265 0 0 1 16-22q4.296-2.285 5-7a45.6 45.6 0 0 1 7-9q3.621-2.116 5-6a124.3 124.3 0 0 1 18-24 45.7 45.7 0 0 0 7-9q.933-4.914 6-4a2997 2997 0 0 0 34.5-6q2.064.276 2.5 2" style="opacity:1"/><path fill="#f8b5a6" d="m1191.5 689.5 15 2a546 546 0 0 1-33-1 1073 1073 0 0 0-68.5-2q-19.005 0-37.5 1h-38v-1a2321 2321 0 0 1 162 1" style="opacity:1"/><path fill="#8b94ad" d="M754.5 688.5q-.436-1.724-2.5-2a2997 2997 0 0 1-34.5 6q18.341-5.418 38-7 .356 1.937-1 3" style="opacity:1"/><path fill="#f2775e" d="M1067.5 689.5q18.495-1 37.5-1c23.02-.058 45.85.609 68.5 2-35.33-.657-70.66-.99-106-1" style="opacity:1"/><path fill="#ee5433" d="M399.5 685.5q-.356 1.937 1 3a983 983 0 0 1 10.5 23 533 533 0 0 1 23.5 37q.255 1.983-1 3.5a77 77 0 0 0-8 4.5 182 182 0 0 0-27 18 445 445 0 0 0-17.5-52 442 442 0 0 0-6.5-24.5q3.954-2.986 8-6a329 329 0 0 1 17-6.5" style="opacity:1"/><path fill="#5c405a" d="M612.5 687.5q1.083.626 1.5 2a342 342 0 0 1 1.5 15h-6q1.602-1.401 4-1a77 77 0 0 0-1-13z" style="opacity:1"/><path fill="#aa4d49" d="M680.5 688.5q-.626 1.083-2 1.5l-12 1.5q6.575-2.595 14-3" style="opacity:1"/><path fill="#e36048" d="M1029.5 689.5h35c-11.5.995-23.17 1.828-35 2.5q-.54 3.945-3 6.5-.09-5.177 3-9" style="opacity:1"/><path fill="#7d4653" d="M690.5 687.5q1.063-1.356 3-1 .31 4.493-2 8a13 13 0 0 1 1-5.5q-.504-1.545-2-1.5" style="opacity:1"/><path fill="#ef5232" d="M1064.5 689.5h3c35.34.01 70.67.343 106 1q16.485.999 33 1c5.3.775 10.63 1.108 16 1 1.45.802 3.12 1.302 5 1.5l-13 1a62 62 0 0 0-9 3.5c-4.91-.138-9.58.528-14 2q-4.815-.465-9 1c-7.69.057-15.02 1.39-22 4h-4q-7.845.717-15 3h-1c-4.6-.22-8.93.446-13 2h-1a601 601 0 0 0-34 4.5q-1.86.348-3 1.5h-3c-3.66.452-7.33.952-11 1.5-.56.383-.89.883-1 1.5h-1a880 880 0 0 0-44 7c-3.65.783-7.31.95-11 .5.75-.671 1.09-1.504 1-2.5a379 379 0 0 1 7-26q2.46-2.555 3-6.5c11.83-.672 23.5-1.505 35-2.5" style="opacity:1"/><path fill="#f69480" d="M874.5 681.5q2.453 5.565 2 12-2.453-5.565-2-12" style="opacity:1"/><path fill="#9c4b4c" d="M666.5 691.5q-8.417 3.788-18 4a188 188 0 0 1 18-4" style="opacity:1"/><path fill="#f47e65" d="M1222.5 692.5a98.4 98.4 0 0 1 14 .5c-.33.333-.67.667-1 1a345 345 0 0 0-30 4.5 62 62 0 0 1 9-3.5l13-1c-1.88-.198-3.55-.698-5-1.5" style="opacity:1"/><path fill="#fcdbd3" d="M1191.5 689.5c15.34.364 30.67.864 46 1.5 1.54 1.11 2.2 2.61 2 4.5a595 595 0 0 1-48 5c4.42-1.472 9.09-2.138 14-2a345 345 0 0 1 30-4.5c.33-.333.67-.667 1-1a98.4 98.4 0 0 0-14-.5c-5.37.108-10.7-.225-16-1z" style="opacity:1"/><path fill="#864852" d="M648.5 695.5q-5.488 2.763-12 3 5.488-2.763 12-3" style="opacity:1"/><path fill="#a7aec1" d="M253.5 688.5q3.136 7.037 4 15-4.942-6.381-4-15" style="opacity:1"/><path fill="#fddd9b" d="M331.5 694.5q2.361 2.403 2 6-2.361-2.403-2-6" style="opacity:1"/><path fill="#929ab2" d="M711.5 696.5a45.7 45.7 0 0 1-7 9q1.79-5.794 7-9" style="opacity:1"/><path fill="#a8afc1" d="M672.5 701.5q-7.932 3.65-17 4a127 127 0 0 1 17-4" style="opacity:1"/><path fill="#f9b1a2" d="M1182.5 701.5c-7.05 2.255-14.38 3.588-22 4 6.98-2.61 14.31-3.943 22-4" style="opacity:1"/><path fill="#694257" d="M609.5 704.5a1453 1453 0 0 1-11 4q-.129-1.494 1-2.5 4.991-.915 10-1.5" style="opacity:1"/><path fill="#fac3b8" d="M1156.5 705.5q-6.885 3.563-15 3 7.155-2.283 15-3" style="opacity:1"/><path fill="#fcfcfc" d="M1228.5 708.5q1.125-1.61 3-.5-1.425.724-3 .5" style="opacity:.004"/><path fill="#9ea6ba" d="M642.5 707.5q-6.457 3.37-14 4 6.377-2.957 14-4" style="opacity:1"/><path fill="#f9bcaf" d="M1140.5 708.5c-4.07 1.554-8.4 2.22-13 2 4.07-1.554 8.4-2.22 13-2" style="opacity:1"/><path fill="#98a0b6" d="M672.5 701.5q2.128-1.426 5-1a12.9 12.9 0 0 1-.5 5 75 75 0 0 1-4.5 7 79.4 79.4 0 0 1 4-11z" style="opacity:1"/><path fill="#f7a28f" d="M1126.5 710.5c-11.98 3.385-24.31 5.385-37 6q1.14-1.152 3-1.5a601 601 0 0 1 34-4.5" style="opacity:1"/><path fill="#858ea8" d="M765.5 700.5q-1.584 7.675-7 13 2.339-7.182 7-13" style="opacity:1"/><path fill="#7e4753" d="M431.5 709.5q2.618 2.3 3 6-2.618-2.3-3-6" style="opacity:1"/><path fill="#a4abbe" d="M618.5 713.5q-4.55 2.277-10 2.5a10.5 10.5 0 0 1-3 2.5q.016-2.276 2-3.5a27.9 27.9 0 0 1 11-1.5" style="opacity:1"/><path fill="#8d97ae" d="M839.5 714.5q-10.111 3.282-21 5 .166-.925 1-1.5a202 202 0 0 1 20-3.5" style="opacity:1"/><path fill="#fbfbfb" d="M248.5 717.5a2.43 2.43 0 0 1-.5 2q-1.038-1.405.5-2" style="opacity:.004"/><path fill="#a9b0c2" d="M257.5 704.5q3.586 7.432 4 16-2.682-7.63-4-16" style="opacity:1"/><path fill="#f58e79" d="M1086.5 716.5q-5.55 2.618-12 3c.11-.617.44-1.117 1-1.5 3.67-.548 7.34-1.048 11-1.5" style="opacity:1"/><path fill="#984c4e" d="M550.5 719.5q9.23-1.73 19-.5 2.73.3 4 2.5-11.282-2.712-23-2" style="opacity:1"/><path fill="#94494e" d="M549.5 719.5a69 69 0 0 1-9 2q.166-.925 1-1.5a32.5 32.5 0 0 1 8-.5" style="opacity:1"/><path fill="#7e88a3" d="M816.5 707.5a34.3 34.3 0 0 1-3 11q2.318 1.428 5 1-2.648 1.442-6 1 .835-6.997 4-13" style="opacity:1"/><path fill="#fbfbfb" d="M1142.5 720.5a8.4 8.4 0 0 1 4 .5c-1.57.765-2.9.598-4-.5" style="opacity:.004"/><path fill="#fddb94" d="M339.5 718.5q3.165 6.003 4 13-3.165-6.003-4-13" style="opacity:1"/><path fill="#b65047" d="M853.5 710.5a56.3 56.3 0 0 1-2.5 13 95 95 0 0 1-8.5 8q2.832-5.099 7.5-9 1.283-6.322 3.5-12" style="opacity:1"/><path fill="#654258" d="M592.5 714.5q-3.901 6.406-10 11 3.901-6.406 10-11" style="opacity:1"/><path fill="#868fa8" d="M731.5 721.5a36 36 0 0 1-6 8q1.413-5.385 6-8" style="opacity:1"/><path fill="#fac1b5" d="M1073.5 719.5a688 688 0 0 1-47 9l3-2a880 880 0 0 1 44-7" style="opacity:1"/><path fill="#734455" d="M539.5 721.5q-13.987 5.372-29 8 3.69-2.087 8-3.5 10.53-2.276 21-4.5" style="opacity:1"/><path fill="#939bb2" d="M605.5 720.5q-.382 3.7-3 6 .382-3.7 3-6" style="opacity:1"/><path fill="#f7a796" d="M876.5 694.5q1.221 3.196 1.5 7 1.242 24.258-.5 48a913 913 0 0 0-1-55" style="opacity:1"/><path fill="#cde4f2" d="M885.5 682.5a289 289 0 0 1 3 23 442 442 0 0 1-1 42 1629 1629 0 0 0-2-65" style="opacity:1"/><path fill="#78b6dc" d="M888.5 705.5q1.742 22.242.5 45-.664 8.8-2.5 17 .68-9.989 1-20a442 442 0 0 0 1-42" style="opacity:1"/><path fill="#eb8370" d="M1019.5 724.5c.09.996-.25 1.829-1 2.5 3.69.45 7.35.283 11-.5l-3 2q-4.665-.354-9 1c-.38-2.198.29-3.865 2-5" style="opacity:1"/><path fill="#616d8f" d="M565.5 729.5a98.4 98.4 0 0 0-14 .5 95 95 0 0 1-17 3.5q14.865-7.022 31-4" style="opacity:1"/><path fill="#9ea6ba" d="M757.5 719.5q-1.546 8.651-6 16 1.546-8.651 6-16" style="opacity:1"/><path fill="#bad9ed" d="M969.5 709.5q-2.584 15.108-10 28a278 278 0 0 0 6.5-22q1.412-3.34 3.5-6" style="opacity:1"/><path fill="#914a4f" d="M508.5 729.5q-5.55 2.618-12 3 5.55-2.618 12-3" style="opacity:1"/><path fill="#fcfdfd" d="M565.5 729.5a26.36 26.36 0 0 1 10 7q2.075 10.605-1 21a345 345 0 0 1-9 23q-3.363 3.873-4 9a93490 93490 0 0 0-36 87q-2.618 2.3-3 6a77 77 0 0 1-6 16q-3.363 3.873-4 9-5.285 12.058-13 23a182 182 0 0 0-14 18 102 102 0 0 0-12 12 37.4 37.4 0 0 0-11 9q-2.856.357-4 3-4.047.517-6 4-3.53 1.26-6 4a37.8 37.8 0 0 0-10 6 168 168 0 0 0-19 10q-.679 1.438-2 2.5-9.95 1.965-18 7.5c-3.708.21-6.374 1.88-8 5q-3.479.735-6 3a8.4 8.4 0 0 0-4 .5c-3.908 1.54-7.242 3.71-10 6.5a84 84 0 0 0-11 5q-3.7.375-6 3a68.8 68.8 0 0 0-17 9 582 582 0 0 0-19 9 701 701 0 0 1-17 5c-5.344.17-10.677 0-16-.5-2.039-1.93-3.706-4.09-5-6.5a102 102 0 0 1-1-18c2.473-3.96 4.14-8.29 5-13a31.6 31.6 0 0 0 2-6q4.553-5.1 6-12a8.4 8.4 0 0 1 .5-4 115 115 0 0 0 6.5-13q3.406-3.168 4-8a197 197 0 0 1 11-24q2.262-2.522 3-6a258 258 0 0 0 5.5-15q2.672-3.38 4.5-7 2.262-2.522 3-6-.202-3.081 2-5 4.407-5.17 6-12 3.851-11.196 10-21 3.261-4.523 5-10a186 186 0 0 0 13-28 86 86 0 0 1 6-11q2.361-.656 3.5-3a26.9 26.9 0 0 0 3.5-8q.375-3.261 3-5a35.2 35.2 0 0 0 6-8 141 141 0 0 1 9-11.5 94.4 94.4 0 0 1 16-12.5q3.381-.936 5-4a43 43 0 0 0 5-1.5 99.7 99.7 0 0 1 15-9.5q1.52-1.76 4-2a257 257 0 0 0 24-9q18.668-3.163 36-10a41 41 0 0 0 9-.5 72.3 72.3 0 0 0 15-5.5q4.507-2.666 10-3a95 95 0 0 0 17-3.5 98.4 98.4 0 0 1 14-.5" style="opacity:1"/><path fill="#6a7595" d="M993.5 722.5q-.516 6.18-4 11a56.4 56.4 0 0 1 2.5-10q.575-.834 1.5-1" style="opacity:1"/><path fill="#6f7a99" d="M289.5 724.5q4.131 6.293 5 14-4.131-6.293-5-14" style="opacity:1"/><path fill="#8f98af" d="M686.5 729.5q-1.379 3.884-5 6 1.379-3.884 5-6" style="opacity:1"/><path fill="#664157" d="M496.5 732.5q-.679 1.438-2 2.5-13.527 2.773-27 5.5 13.889-5.601 29-8" style="opacity:1"/><path fill="#bcc1cf" d="M524.5 736.5a72.3 72.3 0 0 1-15 5.5 41 41 0 0 1-9 .5q11.322-4.83 24-6" style="opacity:1"/><path fill="#fdfefd" d="M1027.5 740.5q1.995 1 0 0" style="opacity:.004"/><path fill="#737e9c" d="M575.5 736.5q.925.166 1.5 1a64.2 64.2 0 0 1 0 16 51 51 0 0 0-2.5 4q3.075-10.395 1-21" style="opacity:1"/><path fill="#854852" d="M465.5 740.5q-5.532 4.317-12 3 6.023-1.518 12-3" style="opacity:1"/><path fill="#b6bbcb" d="M1015.5 735.5c.07 5.414-1.6 10.081-5 14 .15-5.316 1.82-9.983 5-14" style="opacity:1"/><path fill="#fdfdfd" d="M1218.5 745.5q1.125-1.61 3-.5-1.425.724-3 .5" style="opacity:.004"/><path fill="#929ab1" d="M595.5 742.5q.501 4.486-3 7 .652-3.986 3-7" style="opacity:1"/><path fill="#a7aec1" d="M500.5 742.5q-17.332 6.837-36 10 3.537-2.443 8-3.5a710 710 0 0 1 28-6.5" style="opacity:1"/><path fill="#949cb3" d="M674.5 744.5q-.704 4.715-5 7a26.2 26.2 0 0 1 5-7" style="opacity:1"/><path fill="#fede9d" d="M349.5 747.5q3.213 4.95 4 11-3.213-4.95-4-11" style="opacity:1"/><path fill="#8992ab" d="M747.5 748.5q.361 3.597-2 6-.361-3.597 2-6" style="opacity:1"/><path fill="#834752" d="M434.5 748.5q3.124 1.628 1 4.5a55.6 55.6 0 0 1-10 3.5 77 77 0 0 1 8-4.5q1.255-1.517 1-3.5" style="opacity:1"/><path fill="#fbfbfb" d="M1132.5 755.5c.4-1.025 1.06-1.192 2-.5-.59.464-1.26.631-2 .5" style="opacity:.004"/><path fill="#747f9c" d="M709.5 753.5q-1.4 4.306-5 7 1.4-4.306 5-7" style="opacity:1"/><path fill="#a5acbf" d="M591.5 753.5v3a51.6 51.6 0 0 1 7-1q-4.072 2.358-9 3-.147-3.08 2-5" style="opacity:1"/><path fill="#a7aec1" d="M464.5 752.5a257 257 0 0 1-24 9q10.948-6.823 24-9" style="opacity:1"/><path fill="#7eb8dd" d="M1233.5 758.5c-.95-.652-2.12-.986-3.5-1a522 522 0 0 1-34.5 3c10.92-2.179 22.08-3.512 33.5-4l6.5 1c-.46.798-1.12 1.131-2 1" style="opacity:1"/><path fill="#a0a8bc" d="M1010.5 749.5c-.18 4.208-1.51 7.874-4 11 .18-4.208 1.51-7.874 4-11" style="opacity:1"/><path fill="#994b4d" d="M843.5 755.5q.361 3.597-2 6-.361-3.597 2-6" style="opacity:1"/><path fill="#2b87c6" d="M1233.5 758.5a208.6 208.6 0 0 1-35 10q1.65-1.345 0-2.5a23 23 0 0 1 5-2 41 41 0 0 0-9-.5 4.95 4.95 0 0 1-.5 3 73.5 73.5 0 0 0-11.5-1.5q9.93-1.23 0-1.5c-5.66.555-11.33 1.055-17 1.5-6.01 2.254-12.68 3.921-20 5-2.1 2.913-4.26 3.08-6.5.5l-9 2a71 71 0 0 0-16.5-1 261 261 0 0 1 32-5.5c16.63-2.162 33.29-3.995 50-5.5a522 522 0 0 0 34.5-3c1.38.014 2.55.348 3.5 1" style="opacity:1"/><path fill="#7c86a2" d="M657.5 753.5q-.488 7.444-5 13a263 263 0 0 0 3.5-12q.575-.834 1.5-1" style="opacity:1"/><path fill="#8790aa" d="M830.5 762.5q.329-1.762-1-3-6.009 3.627-13 4 6.954-3.706 15-5 .401 2.398-1 4" style="opacity:1"/><path fill="#fbfbfb" d="M1074.5 765.5a2.42 2.42 0 0 1-2-.5c.94-.692 1.6-.525 2 .5" style="opacity:.004"/><path fill="#adb4c5" d="M436.5 763.5a99.7 99.7 0 0 0-15 9.5 43 43 0 0 1-5 1.5q1.824-2.927 5-4.5a74 74 0 0 1 15-6.5" style="opacity:1"/><path fill="#0e7ec1" d="M1198.5 768.5a43.3 43.3 0 0 0-7 3c-7.67 1.557-15 3.891-22 7q-6.63.541-12 4-11.175 1.91-21 7a737 737 0 0 0-46 15q-8.925 2.736-18 5.5c-.56.383-.89.883-1 1.5a81.5 81.5 0 0 0-15 5.5q-6.765-.184-12 3.5c-3.72.517-7.39 1.35-11 2.5a79 79 0 0 0-9 4.5 95.3 95.3 0 0 0-18 6 787 787 0 0 0-36 14q11.997-26.999 24-54c8.76-.288 17.09-1.955 25-5h2c7.68-.781 15.01-2.448 22-5h1q7.575.075 15-1.5a527 527 0 0 1 31-6.5c7.37-2.729 15.04-4.062 23-4q8.385-.46 16.5 1l9-2c2.24 2.58 4.4 2.413 6.5-.5 7.32-1.079 13.99-2.746 20-5 5.67-.445 11.34-.945 17-1.5q9.93.27 0 1.5c3.92.203 7.75.703 11.5 1.5.48-.948.65-1.948.5-3a41 41 0 0 1 9 .5 23 23 0 0 0-5 2q1.65 1.155 0 2.5" style="opacity:1"/><path fill="#8b94ad" d="M800.5 768.5q-.945 3.375-3 6-.704-4.34 3-6" style="opacity:1"/><path fill="#a94e49" d="M840.5 767.5q.135 3.978-2 7-.135-3.978 2-7" style="opacity:1"/><path fill="#808ba5" d="M696.5 772.5q-1.834 5.323-6 9 1.889-5.287 6-9" style="opacity:1"/><path fill="#969eb5" d="M416.5 774.5q-1.619 3.064-5 4 1.558-3.046 5-4" style="opacity:1"/><path fill="#a0a8bc" d="M598.5 768.5q-.378 5.74-4 10 .378-5.74 4-10" style="opacity:1"/><path fill="#838da7" d="M651.5 770.5q-2.803 6.438 2 3a68 68 0 0 0-5 7.5q-1.475.886-2-1 1.668-5.357 5-9.5" style="opacity:1"/><path fill="#61a7d5" d="M1090.5 775.5a527 527 0 0 0-31 6.5 68.8 68.8 0 0 1-15 1.5c14.95-4.045 30.28-6.711 46-8" style="opacity:1"/><path fill="#93c4e3" d="M1191.5 771.5c-7 3.109-14.33 5.443-22 7 7-3.109 14.33-5.443 22-7" style="opacity:1"/><path fill="#655e59" d="M398.5 775.5q-2.116 3.621-6 5 2.116-3.621 6-5" style="opacity:1"/><path fill="#8d96ae" d="M1004.5 767.5a63.1 63.1 0 0 1-7 17q1.494-9.464 7-17" style="opacity:1"/><path fill="#964a4e" d="M838.5 774.5q.135 3.978-2 7-.135-3.978 2-7" style="opacity:1"/><path fill="#fafbfa" d="M1203.5 780.5q1.995 1 0 0" style="opacity:.004"/><path fill="#5c698c" d="M827.5 775.5q-.914 11.716-6 22a440 440 0 0 1 6-22" style="opacity:1"/><path fill="#65aad6" d="M1043.5 783.5c-6.99 2.552-14.32 4.219-22 5 6.96-2.867 14.3-4.534 22-5" style="opacity:1"/><path fill="#969eb4" d="M797.5 774.5q-.237 6.512-3 12 .237-6.512 3-12" style="opacity:1"/><path fill="#a0cae6" d="M943.5 777.5a33.6 33.6 0 0 1-5 12q.908-6.798 5-12" style="opacity:1"/><path fill="#b2d4ea" d="M1157.5 782.5q-9.555 5.865-21 7 9.825-5.09 21-7" style="opacity:1"/><path fill="#6d7897" d="M565.5 780.5q-.003 5.497-4 9 .637-5.127 4-9" style="opacity:1"/><path fill="#203261" d="M493.5 801.5q-4.619 6.303-7 14a313 313 0 0 0-17 40q-3.364 3.873-4 9-5.621 16.04-14.5 31a43.4 43.4 0 0 1-2 8q-8.665 13.941-12.5 30a58.6 58.6 0 0 1-7 7 193 193 0 0 1-13 6q-3.522.138-5 3h-2q-3.736.494-6.5 3-3.165-3.507-6.5.5l2 1q-3.126 1.046-5 3.5a44 44 0 0 1-7 3l-1-1.5a62 62 0 0 0 2.5-8.5 243 243 0 0 1 4.5-8q3.915-4.698 5-11a141 141 0 0 1 8-19q3.165-5.09 5-11l4-10q3.241-4.482 5-10a1153 1153 0 0 1 34-73q2.971-3.942 4.5-9 2.113-1.921 4.5-3 7.614-1.196 14-5a395 395 0 0 1 24-7 325 325 0 0 0-7 17" style="opacity:1"/><path fill="#68aad6" d="M1019.5 788.5c-7.91 3.045-16.24 4.712-25 5q-.356-1.937 1-3 .18 1.63 2 2c7.04-2.618 14.37-3.951 22-4" style="opacity:1"/><path fill="#fbfbfb" d="M1172.5 791.5c.4-1.025 1.06-1.192 2-.5-.59.464-1.26.631-2 .5" style="opacity:.004"/><path fill="#645d59" d="M389.5 783.5q-5.407 7.911-13 14 5.407-7.911 13-14" style="opacity:1"/><path fill="#fafbfa" d="M1162.5 793.5q1.995 1 0 0" style="opacity:.004"/><path fill="#8a94ac" d="M476.5 791.5q-6.386 3.804-14 5 6.391-3.812 14-5" style="opacity:1"/><path fill="#8892ab" d="M682.5 793.5a24.3 24.3 0 0 0-2 5.5 43 43 0 0 1 3 8.5q-2.147-2.104-3.5-5l-.5-3.5q-.564-3.982 3-5.5" style="opacity:1"/><path fill="#facac1" d="M873.5 788.5q.288 6.945-2 13.5-.322 2.861-3 3.5a307 307 0 0 1 5-17" style="opacity:1"/><path fill="#9f4b4c" d="M833.5 794.5q.361 3.597-2 6-.361-3.597 2-6" style="opacity:1"/><path fill="#4e5b81" d="M774.5 788.5a37.8 37.8 0 0 0-1.5 13 22.7 22.7 0 0 1 8.5-2 699 699 0 0 1-10 4q-1.377-8.112 3-15" style="opacity:1"/><path fill="#b6bbcb" d="M287.5 796.5q2.147 2.104 3.5 5a83.4 83.4 0 0 1 3.5 12 53.6 53.6 0 0 1-7-17" style="opacity:1"/><path fill="#747f9c" d="M462.5 796.5q-2.387 1.079-4.5 3-1.529 5.058-4.5 9a55.6 55.6 0 0 1 3.5-10q2.167-2.483 5.5-2" style="opacity:1"/><path fill="#9099b0" d="M386.5 802.5a35.2 35.2 0 0 1-6 8q1.28-5.28 6-8" style="opacity:1"/><path fill="#7e88a3" d="M493.5 801.5q-2.381 7.697-7 14 2.381-7.697 7-14" style="opacity:1"/><path fill="#964b4e" d="M831.5 801.5q.135 3.978-2 7-.135-3.978 2-7" style="opacity:1"/><path fill="#bbdaed" d="M1090.5 804.5c-5.57 4.058-11.9 6.392-19 7 .11-.617.44-1.117 1-1.5q9.075-2.764 18-5.5" style="opacity:1"/><path fill="#a9b0c2" d="M728.5 809.5q-1.248 9.25-6 17 1.839-9.023 6-17" style="opacity:1"/><path fill="#b1b7c8" d="M960.5 808.5a52.8 52.8 0 0 1-5 11q.611-6.536 5-11" style="opacity:1"/><path fill="#616c8d" d="M374.5 799.5a108.3 108.3 0 0 1-17 18 157 157 0 0 1 14-16z" style="opacity:1"/><path fill="#8d96ae" d="M685.5 813.5q2.625 1.739 3 5-2.862-1.479-3-5" style="opacity:1"/><path fill="#73b2da" d="M883.5 793.5q-3.411 26.083-14 50a546 546 0 0 0 14-50" style="opacity:1"/><path fill="#92c3e2" d="M1044.5 820.5c-6.62 2.331-13.29 4.664-20 7a79 79 0 0 1 9-4.5 66 66 0 0 1 11-2.5" style="opacity:1"/><path fill="#aeb5c6" d="M377.5 815.5a26.9 26.9 0 0 1-3.5 8q-1.139 2.344-3.5 3 1.633-6.783 7-11" style="opacity:1"/><path fill="#b44f47" d="M827.5 817.5a39.7 39.7 0 0 1-2 10q-1.025.544-2 1a175 175 0 0 1 4-11" style="opacity:1"/><path fill="#6f7b99" d="M357.5 817.5a103 103 0 0 1-11 13q3.944-7.934 11-13" style="opacity:1"/><path fill="#727c9a" d="M326.5 820.5q3.7 4.256 5 10a157 157 0 0 0-4.5-6 8.4 8.4 0 0 1-.5-4" style="opacity:1"/><path fill="#b5d6eb" d="M1024.5 827.5q-7.92 5.641-18 6a95.3 95.3 0 0 1 18-6" style="opacity:1"/><path fill="#7f4754" d="M853.5 828.5q-.87 3.373-4 5 .87-3.373 4-5" style="opacity:1"/><path fill="#929bb2" d="M628.5 831.5q-1.444 5.842-4 11 .265-6.312 4-11" style="opacity:1"/><path fill="#8790aa" d="M575.5 824.5q-2.486 11.487-9 21a301 301 0 0 1 9-21" style="opacity:1"/><path fill="#fafbfa" d="M1026.5 839.5q1.995 1 0 0" style="opacity:.004"/><path fill="#acb3c4" d="M638.5 835.5a335 335 0 0 1 4 5q1.428 2.318 1 5-3.752-4.286-5-10" style="opacity:1"/><path fill="#8c95ad" d="M762.5 840.5q-1.739 2.625-5 3 1.479-2.862 5-3" style="opacity:1"/><path fill="#8c95ae" d="M862.5 830.5q-1.401 8.766-6 16 .034-3.64 1.5-7z" style="opacity:1"/><path fill="#d4523e" d="M817.5 834.5a159 159 0 0 0-16 20.5 31.8 31.8 0 0 1-7 2.5 644 644 0 0 1 23-23" style="opacity:1"/><path fill="#7984a0" d="M941.5 850.5a599 599 0 0 1-3 6q-.713-4.22 3-6" style="opacity:1"/><path fill="#949cb2" d="M701.5 849.5q2.618 2.3 3 6-2.618-2.3-3-6" style="opacity:1"/><path fill="#ef5434" d="M312.5 852.5q4.467 5.915 7.5 13 3.147 7.412-1.5 14-2.618 2.3-3 6a70.6 70.6 0 0 0-8 17l-2 1q-6.457 1.102-12 4-6.4 1.134-12 4-2.398-.401-4 1-5.493.334-10 3-4.724-.128-8 3-5.124.042-9 3a227 227 0 0 0-12 2.5q-2.35.912-4 2.5-3.978-.135-7 2-6.623.541-12 4a71 71 0 0 0-9 3 87.3 87.3 0 0 0-16 4.5q-3.853 1.347-7 3.5a1155 1155 0 0 0-25.5 7 285 285 0 0 0-13.5 6 73 73 0 0 1-13 4 675 675 0 0 0-22 8q-7.754.749-14 5-5.466 1.222-11 2.5-.835.575-1 1.5a14861 14861 0 0 1-22 7q-2.519.322-3-2 12.783-10.148 28-16.5l2-3a468 468 0 0 1 44-23.5q5.803-1.833 10-6 3.522-.138 5-3 13.055-7.025 26-14 7.316-.657 12-6 3.328-3.159 8-3 6.817-2.364 12-7 3.7-.382 6-3a92.5 92.5 0 0 1 12-4.5 31.3 31.3 0 0 1 9-5.5q3.7-.382 6-3a43412 43412 0 0 1 40-18q4.832-.594 8-4a259 259 0 0 1 26-10" style="opacity:1"/><path fill="#9ba2b8" d="M364.5 837.5a186 186 0 0 1-13 28 8.4 8.4 0 0 1 .5-4 330 330 0 0 1 12.5-24" style="opacity:1"/><path fill="#77819e" d="M643.5 845.5a50.6 50.6 0 0 1 6 12q-5.355-4.711-6-12" style="opacity:1"/><path fill="#566186" d="m970.5 847.5-10 20q2.264-4.948 1.5-10 5.335-4.23 8.5-10" style="opacity:1"/><path fill="#7c87a2" d="M619.5 854.5q.135 3.978-2 7-.135-3.978 2-7" style="opacity:1"/><path fill="#abb2c4" d="M565.5 850.5a95 95 0 0 0-3.5 12q-1.353 2.896-3.5 5 3.087-6.629 4.5-14 .565-2.163 2.5-3" style="opacity:1"/><path fill="#adb3c5" d="M469.5 855.5q-.003 5.497-4 9 .636-5.127 4-9" style="opacity:1"/><path fill="#959eb4" d="M706.5 859.5q1.401 1.602 1 4a293 293 0 0 0-10 3q2.104-2.147 5-3.5a8.4 8.4 0 0 1 4-.5z" style="opacity:1"/><path fill="#78829f" d="M935.5 862.5a72.6 72.6 0 0 1-6 11q.46-6.942 6-11" style="opacity:1"/><path fill="#f8ad9d" d="M286.5 862.5q-3.168 3.406-8 4 3.506-2.845 8-4" style="opacity:1"/><path fill="#96c5e3" d="M903.5 857.5a43 43 0 0 1-1.5 5 35.4 35.4 0 0 1-5.5 7q2.315-6.786 7-12" style="opacity:1"/><path fill="#99a1b7" d="M696.5 866.5q-7.661 5.56-17 8 7.707-5.1 17-8" style="opacity:1"/><path fill="#864852" d="M772.5 866.5q-4.256 3.7-10 5 4.256-3.7 10-5" style="opacity:1"/><path fill="#8f98b0" d="M558.5 867.5q-.405 5.787-4 10a8.4 8.4 0 0 1 .5-4 61 61 0 0 1 3.5-6" style="opacity:1"/><path fill="#9ba2b8" d="M351.5 865.5q-1.739 5.477-5 10 .186-6.373 5-10" style="opacity:1"/><path fill="#979fb5" d="M654.5 867.5q4.214 5.312 6.5 12 1.517 1.255 3.5 1-2.983 2.08-5.5-1a52 52 0 0 1-4.5-12" style="opacity:1"/><path fill="#8b94ac" d="M960.5 867.5q-.382 3.7-3 6 .382-3.7 3-6" style="opacity:1"/><path fill="#8891ab" d="M613.5 871.5q-.699 6.579-4 12a66 66 0 0 1 2.5-11q.575-.834 1.5-1" style="opacity:1"/><path fill="#9098b1" d="M525.5 876.5q-.382 3.7-3 6 .382-3.7 3-6" style="opacity:1"/><path fill="#ee5333" d="M848.5 863.5a8.4 8.4 0 0 1-.5 4 160 160 0 0 0-11.5 21q-3.635 3.762-5 9a315 315 0 0 0-19 28 24.2 24.2 0 0 0-7 9 159 159 0 0 0-14 16q-9 8-17 17a5790 5790 0 0 0-13 10 51.3 51.3 0 0 1-14-2q-1.815-.648-3-2-4.161-4.14-7-9v-1a95.2 95.2 0 0 1-2.5-23 19.6 19.6 0 0 0 3.5-2q3.7-.382 6-3 6.901.045 12-4a58.4 58.4 0 0 1 9-5q4.953-.618 8-4 1.52-1.76 4-2 5.698-.772 9-5 34.988-20.965 62-52" style="opacity:1"/><path fill="#afb5c6" d="M957.5 873.5q-3.747 12.514-12 22a174.6 174.6 0 0 1 12-22" style="opacity:1"/><path fill="#92494e" d="M318.5 879.5q-.382 3.7-3 6 .382-3.7 3-6" style="opacity:1"/><path fill="#874851" d="M744.5 881.5q.135 3.978-2 7-.135-3.978 2-7" style="opacity:1"/><path fill="#f8ad9d" d="M238.5 884.5q-2.3 2.618-6 3 2.3-2.618 6-3" style="opacity:1"/><path fill="#aab1c3" d="M419.5 881.5q-1.759 5.518-5 10 .286-6.244 5-10" style="opacity:1"/><path fill="#9aa2b7" d="M550.5 886.5a18.5 18.5 0 0 1-.5 6q-1.573 4.03-4.5 7a114 114 0 0 1 5-13" style="opacity:1"/><path fill="#d15340" d="M723.5 890.5q.045-1.496-1.5-2-11.581 5.436-24.5 5 .166-.925 1-1.5a156.5 156.5 0 0 0 26-4.5q.356 1.937-1 3" style="opacity:1"/><path fill="#ee5333" d="M723.5 890.5a19.2 19.2 0 0 1-1 6q-2.135 3.022-2 7a1059 1059 0 0 0-3.5 23q-3.068 2.139-6.5 3-7.9 1.634-15 5-9.465 1.382-18 5-2.398-.401-4 1-3.978-.135-7 2a82 82 0 0 0-10 2q.488-11.278-1-22-.354-4.664 1-9 3.106-2.168 7-3 3.7-.382 6-3h2q5.251-1.343 9-5h2q3.7-.382 6-3 5.202-1.907 9-6 12.919.436 24.5-5 1.545.504 1.5 2" style="opacity:1"/><path fill="#fbc2b5" d="M836.5 888.5a8.4 8.4 0 0 1-.5 4q-1.6 3.287-4.5 5 1.365-5.238 5-9" style="opacity:1"/><path fill="#6b7695" d="M921.5 886.5q-.095 6.082-5 9 1.365-5.238 5-9" style="opacity:1"/><path fill="#8d96ae" d="M605.5 894.5q-.944 4.346-3 8-.232-4.824 3-8" style="opacity:1"/><path fill="#f8ad9d" d="M211.5 897.5q-2.3 2.618-6 3 2.3-2.618 6-3" style="opacity:1"/><path fill="#a54d4a" d="M742.5 888.5a151.5 151.5 0 0 1-5 22q.188-11.737 5-22" style="opacity:1"/><path fill="#a74d49" d="M688.5 899.5q-2.3 2.618-6 3 2.3-2.618 6-3" style="opacity:1"/><path fill="#9b4b4d" d="M722.5 896.5q.135 3.978-2 7-.135-3.978 2-7" style="opacity:1"/><path fill="#a9afc2" d="M945.5 895.5a8.4 8.4 0 0 1-.5 4q-3.447 5.473-7.5 10 2.489-7.99 8-14" style="opacity:1"/><path fill="#acb3c4" d="M336.5 896.5q-1.593 6.83-6 12 1.501-7.004 6-12" style="opacity:1"/><path fill="#8b4850" d="M680.5 902.5q-3.749 3.657-9 5 3.372-4.34 9-5" style="opacity:1"/><path fill="#f7947e" d="M205.5 900.5q-5.183 4.636-12 7 .656-2.361 3-3.5a29.6 29.6 0 0 1 9-3.5" style="opacity:1"/><path fill="#694258" d="M620.5 912.5q-2.2-1.27-2.5-4-1.006-1.128-2.5-1 1.025-2.514 4-2a51.6 51.6 0 0 1 1 7" style="opacity:1"/><path fill="#faaf9f" d="M305.5 903.5q-5.064 4.206-12 4 5.543-2.898 12-4" style="opacity:1"/><path fill="#616c8e" d="M516.5 898.5q-.003 5.497-4 9 .637-5.127 4-9" style="opacity:1"/><path fill="#fafbfa" d="M163.5 908.5q-1-2 0 0" style="opacity:.004"/><path fill="#8d96ae" d="M410.5 901.5q-1.835 5.91-5 11a141 141 0 0 0 2.5-9q1.063-1.321 2.5-2" style="opacity:1"/><path fill="#884952" d="M669.5 907.5q-2.3 2.618-6 3 2.3-2.618 6-3" style="opacity:1"/><path fill="#fabeb1" d="M293.5 907.5q-5.377 3.459-12 4 5.6-2.866 12-4" style="opacity:1"/><path fill="#f9aa99" d="M185.5 910.5q-4.684 5.343-12 6 5.523-3.762 12-6" style="opacity:1"/><path fill="#6d7797" d="M598.5 910.5q-3.66 5.995-11 5.5a104 104 0 0 1-7 3.5q2.229-3.178 6-4.5 6.177-1.965 12-4.5" style="opacity:1"/><path fill="#ec5334" d="M615.5 907.5q1.494-.128 2.5 1 .3 2.73 2.5 4a156 156 0 0 1 7 12.5q3.526-.21 7-1.5h3v26a19.2 19.2 0 0 1-6 1q-6.303.948-12 3-4.473.694-9 1-7.371-.208-14 2h-4q-11.979.898-24 1-2.246-6.293 5-6 3.261-.375 5-3a614 614 0 0 0 30.5-25 77 77 0 0 0 6.5-16" style="opacity:1"/><path fill="#f7a493" d="M277.5 912.5q-4.507 2.666-10 3 4.507-2.666 10-3" style="opacity:1"/><path fill="#f8ac9b" d="M267.5 915.5q-3.276 3.128-8 3 3.276-3.128 8-3" style="opacity:1"/><path fill="#929ab1" d="M328.5 913.5q-.738 3.478-3 6-.703-4.34 3-6" style="opacity:1"/><path fill="#a24c4b" d="M745.5 915.5q-2.3 2.618-6 3 2.3-2.618 6-3" style="opacity:1"/><path fill="#af4f49" d="M786.5 915.5q-3.302 4.228-9 5 4.08-3.04 9-5" style="opacity:1"/><path fill="#4593cc" d="M836.5 910.5q-1.049 5.598-5 10 2.977-.156 4.5-4 1 2.5 0 5l-1-1a6.8 6.8 0 0 1-1.5 3q-6.69 3.816-10 11a10.3 10.3 0 0 1-4 1.5 360 360 0 0 1-15 16.5 774 774 0 0 0 32-42" style="opacity:1"/><path fill="#fabcaf" d="M250.5 921.5q-7.395 3.76-16 5 1.65-1.588 4-2.5a227 227 0 0 1 12-2.5" style="opacity:1"/><path fill="#a64d4a" d="M773.5 922.5q-3.047 3.382-8 4 3.433-2.831 8-4" style="opacity:1"/><path fill="#fafbfa" d="M282.5 926.5q-1-2 0 0" style="opacity:.004"/><path fill="#8892ab" d="M898.5 924.5q-1.4 4.306-5 7 1.4-4.306 5-7" style="opacity:1"/><path fill="#f8afa0" d="M234.5 926.5q-3.022 2.135-7 2 3.022-2.135 7-2" style="opacity:1"/><path fill="#737d9b" d="M570.5 923.5q-4.995 5.85-13 6a78 78 0 0 1 13-6" style="opacity:1"/><path fill="#9f4b4b" d="M655.5 922.5q1.488 10.722 1 22a82 82 0 0 1 10-2q-4.949 2.974-11 3z" style="opacity:1"/><path fill="#f9b5a7" d="M812.5 925.5a24.2 24.2 0 0 1-7 9 24.2 24.2 0 0 1 7-9" style="opacity:1"/><path fill="#f8ab9b" d="M227.5 928.5q-5.377 3.459-12 4 5.377-3.459 12-4" style="opacity:1"/><path fill="#774555" d="M710.5 929.5q-6.878 3.96-15 5 7.1-3.366 15-5" style="opacity:1"/><path fill="#f79b88" d="M147.5 930.5q-1.478 2.862-5 3 1.739-2.625 5-3" style="opacity:1"/><path fill="#fbfcfb" d="M255.5 932.5q2 1 0 0" style="opacity:.004"/><path fill="#52405e" d="M656.5 913.5q-1.354 4.336-1 9v23q-.999-7.734-1-16 .008-8.566 2-16" style="opacity:1"/><path fill="#bf5044" d="M756.5 931.5q-5.099 4.045-12 4 5.6-2.866 12-4" style="opacity:1"/><path fill="#8891aa" d="M549.5 933.5q-4.47 3.385-10 5 3.984-4.184 10-5" style="opacity:1"/><path fill="#7a85a1" d="M499.5 930.5q-5.29 10.296-14 18a182 182 0 0 1 14-18" style="opacity:1"/><path fill="#964a4d" d="M634.5 923.5q1.602-1.401 4-1 .49 13.773-1 27v-26z" style="opacity:1"/><path fill="#e2e3e2" d="M935.5 935.5q2 1 0 0" style="opacity:.004"/><path fill="#9ea5ba" d="M436.5 933.5q-.558 6.558-7 7a58.6 58.6 0 0 0 7-7" style="opacity:1"/><path fill="#f69079" d="M142.5 933.5q-4.197 4.167-10 6 3.78-4.731 10-6" style="opacity:1"/><path fill="#8a4950" d="M695.5 934.5q-8.535 3.618-18 5 8.535-3.618 18-5" style="opacity:1"/><path fill="#8d4a51" d="M744.5 935.5q-2.3 2.618-6 3 2.3-2.618 6-3" style="opacity:1"/><path fill="#f9b6a8" d="M206.5 935.5q-10.825 5.592-23 8 3.147-2.153 7-3.5a87.3 87.3 0 0 1 16-4.5" style="opacity:1"/><path fill="#626e8f" d="M397.5 931.5q-1.085 6.302-5 11a141 141 0 0 0 2.5-9q1.063-1.321 2.5-2" style="opacity:1"/><path fill="#914a4f" d="M673.5 940.5q-3.022 2.135-7 2 3.022-2.135 7-2" style="opacity:1"/><path fill="#949cb2" d="M315.5 941.5q-.738 3.478-3 6-.703-4.34 3-6" style="opacity:1"/><path fill="#858ea8" d="M288.5 943.5q-1.452 3.9-4 7 .337-4.569 4-7" style="opacity:1"/><path fill="#fabcaf" d="M805.5 934.5q-5.333 9.34-14 16a159 159 0 0 1 14-16" style="opacity:1"/><path fill="#fbc3b8" d="M183.5 943.5q-7.47 4.248-16 6.5a868 868 0 0 0-23 6.5 285 285 0 0 1 13.5-6 1155 1155 0 0 1 25.5-7" style="opacity:1"/><path fill="#8e98af" d="M416.5 946.5q-1.739 2.625-5 3 1.478-2.862 5-3" style="opacity:1"/><path fill="#9fcbe6" d="M848.5 941.5a72 72 0 0 1-14 18 143 143 0 0 1 14-18" style="opacity:1"/><path fill="#a84d49" d="M578.5 948.5q-1.739 2.625-5 3 1.479-2.862 5-3" style="opacity:1"/><path fill="#525c83" d="M409.5 949.5q-7.469 4.734-16 8 1.874-2.454 5-3.5l-2-1q3.335-4.007 6.5-.5 2.764-2.506 6.5-3" style="opacity:1"/><path fill="#ef5333" d="M719.5 965.5q-.135 3.978 2 7 5.718 13.224 18 21a167 167 0 0 1-17 13 117 117 0 0 0-18 10q-9.849 2.925-18 9c-3.993.58-7.66 1.91-11 4a298 298 0 0 1-26 9h-3v-4c1.592-4.13 2.592-8.46 3-13 1.424-2.01 2.09-4.35 2-7a21.4 21.4 0 0 1 1-7q2.186-7.648 2-16a218 218 0 0 0 1-20q-.245-3.535.5-7 .575-.834 1.5-1 8.836.71 16-4 7.65-.317 14-4 10.75-.921 20-6h1a31.7 31.7 0 0 0 6-2q1.305 6.988 2.5 14 .912 2.35 2.5 4" style="opacity:1"/><path fill="#824752" d="M631.5 950.5q-5.147 3.921-12 3 5.697-2.052 12-3" style="opacity:1"/><path fill="#b54f46" d="M707.5 949.5q-9.25 5.079-20 6a354 354 0 0 1 20-6" style="opacity:1"/><path fill="#c15144" d="M738.5 938.5a19.6 19.6 0 0 1-3.5 2 95.2 95.2 0 0 0 2.5 23q-.925-.166-1.5-1a60.5 60.5 0 0 1-2-23q2.034-1.32 4.5-1" style="opacity:1"/><path fill="#8f4a50" d="M610.5 954.5q-6.629 2.208-14 2 6.629-2.208 14-2" style="opacity:1"/><path fill="#af4e47" d="M719.5 965.5q-1.588-1.65-2.5-4a903 903 0 0 0-2.5-14 31.7 31.7 0 0 1-6 2q3.176-3.233 8-3a80.8 80.8 0 0 0 3 19" style="opacity:1"/><path fill="#6d7998" d="M878.5 953.5a39.7 39.7 0 0 1-9 12 39.7 39.7 0 0 1 9-12" style="opacity:1"/><path fill="#9fa6bb" d="M283.5 952.5q-1.948 6.375-5 12 .775-6.853 5-12" style="opacity:1"/><path fill="#674358" d="M592.5 956.5q-6.594 2.3-14 2-5.277-.003-10-1a362 362 0 0 0 24-1" style="opacity:1"/><path fill="#fcfdfc" d="M175.5 958.5q2 1 0 0" style="opacity:.004"/><path fill="#ae4e49" d="M687.5 955.5q-6.35 3.683-14 4a87 87 0 0 1 14-4" style="opacity:1"/><path fill="#6a7695" d="M473.5 960.5a37.4 37.4 0 0 1-11 9 37.4 37.4 0 0 1 11-9" style="opacity:1"/><path fill="#b84f46" d="M673.5 959.5q-7.164 4.71-16 4 7.504-3.309 16-4" style="opacity:1"/><path fill="#fbc8bd" d="M131.5 960.5q-1.454 1.694-3.5 3a879 879 0 0 0-18.5 5 675 675 0 0 1 22-8" style="opacity:1"/><path fill="#929bb2" d="M903.5 961.5q-.765 4.762-5 7a26.2 26.2 0 0 1 5-7" style="opacity:1"/><path fill="#934a4e" d="M719.5 965.5q2.135 3.022 2 7-2.135-3.022-2-7" style="opacity:1"/><path fill="#754555" d="M737.5 964.5q2.839 4.86 7 9-6.266-2.274-7-9" style="opacity:1"/><path fill="#ef5333" d="M633.5 969.5h3a942 942 0 0 0-1 24v8c-.801 1.54-1.134 3.21-1 5-1.737 4.04-2.737 8.38-3 13a43.3 43.3 0 0 1-3 10 98.4 98.4 0 0 1-10 14c-1.667 1-3 2.33-4 4h-1a156.5 156.5 0 0 1-31 3 679 679 0 0 1-30-32v-2c.667-.33 1.333-.67 2-1 2.087-1.08 3.42-2.75 4-5q2.832-6.165 6.5-12a128 128 0 0 0 2.5-12 379 379 0 0 0 2-10.5 145 145 0 0 1 17-.5q13.45.62 26-3h1q7.371.208 14-2 2.819-1.262 6-1" style="opacity:1"/><path fill="#fac1b5" d="M774.5 967.5q-5.172 7.18-13 11v-1q6.528-5.036 13-10" style="opacity:1"/><path fill="#a74d4a" d="M627.5 970.5q-6.629 2.208-14 2 6.629-2.208 14-2" style="opacity:1"/><path fill="#fac1b5" d="M109.5 968.5a63 63 0 0 1-14 5q6.246-4.251 14-5" style="opacity:1"/><path fill="#848da7" d="M458.5 972.5q-2.47 2.74-6 4 1.953-3.483 6-4" style="opacity:1"/><path fill="#9b4b4b" d="M612.5 972.5q-12.55 3.62-26 3v-1q12.993-1.09 26-2" style="opacity:1"/><path fill="#737e9c" d="M866.5 969.5a181.4 181.4 0 0 1-23 28 361 361 0 0 1 23-28" style="opacity:1"/><path fill="#634258" d="M586.5 974.5v1a145 145 0 0 0-17 .5 379 379 0 0 1-2 10.5q-.44-5.905 1-11.5a163 163 0 0 1 18-.5" style="opacity:1"/><path fill="#f9b7a8" d="M95.5 973.5q-5.421 3.301-12 4 .165-.925 1-1.5 5.534-1.278 11-2.5" style="opacity:1"/><path fill="#bc4f44" d="M636.5 969.5q1.479 6.705 1 14v4l-2 6q.347-12.007 1-24" style="opacity:1"/><path fill="#a94d4a" d="M747.5 975.5a51.3 51.3 0 0 0 14 2v1h-2a25 25 0 0 1-7-.5q-3.229-.149-5-2.5" style="opacity:1"/><path fill="#949db3" d="M301.5 971.5q-.594 4.832-4 8 .594-4.832 4-8" style="opacity:1"/><path fill="#78839f" d="M452.5 976.5q-1.953 3.483-6 4 2.47-2.74 6-4" style="opacity:1"/><path fill="#ef5433" d="M522.5 975.5q13.497.571 27 1a73.3 73.3 0 0 1-1 12v1a83 83 0 0 0-5 11 10.3 10.3 0 0 0-3 3q-2.806-.54-4.5-3l-16-20q-1.665-2.305-4.5-2 3.106-2.168 7-3" style="opacity:1"/><path fill="#593f5a" d="M655.5 971.5a218 218 0 0 1-1 20h-1q-.649-10.386 2-20" style="opacity:1"/><path fill="#a14b4a" d="M522.5 975.5q13.236-1.736 27-.5 2.214 7.075-1 13.5a73.3 73.3 0 0 0 1-12q-13.503-.429-27-1" style="opacity:1"/><path fill="#a5874c" d="M513.5 978.5q-1.953 3.483-6 4 2.301-2.803 6-4" style="opacity:1"/><path fill="#63aad6" d="M804.5 952.5q-18.674 23.18-43 40a605 605 0 0 0 43-40" style="opacity:1"/><path fill="#fbba33" d="M513.5 978.5h2q2.835-.305 4.5 2l16 20q1.694 2.46 4.5 3a525 525 0 0 0 6 9c1 3 3 5 6 6a679 679 0 0 0 30 32c.342.84 1.008 1.17 2 1 3 3.67 6.333 7 10 10 0 .67.333 1 1 1 3.063 4.07 6.729 7.4 11 10q2.609 4.11 7 6c6.137 5.97 12.47 11.8 19 17.5a30 30 0 0 0 6 3.5c1.411 2.41 3.411 4.08 6 5 4.927 4.8 10.26 9.14 16 13a95.5 95.5 0 0 1-10 9.5q-2.5 1.005-5 0c-44.764-31.24-86.431-66.41-125-105.5-3.605-5.27-7.938-9.94-13-14a6617 6617 0 0 1-15-18q6.993-4.748 15-7 4.047-.517 6-4" style="opacity:1"/><path fill="#6b4357" d="M633.5 969.5q2.128-1.426 5-1 .481 7.793-1 15 .479-7.295-1-14z" style="opacity:1"/><path fill="#f58167" d="M58.5 982.5q.481 2.322 3 2-4.633 2.938-10 5-2.482 1.092-5 .5 5.055-5.314 12-7.5" style="opacity:1"/><path fill="#6c7796" d="M446.5 980.5q-3.542 5.277-10 6a37.8 37.8 0 0 1 10-6" style="opacity:1"/><path fill="#78829f" d="M436.5 986.5q-2.337 3.014-6 5a36.4 36.4 0 0 1-13 5 168 168 0 0 1 19-10" style="opacity:1"/><path fill="#919ab0" d="M887.5 983.5q-1.379 3.884-5 6 1.379-3.884 5-6" style="opacity:1"/><path fill="#606b8d" d="M268.5 986.5a178 178 0 0 0-4.5 14c-2.28 2.11-4.113 4.45-5.5 7q4.43-10.8 10-21" style="opacity:1"/><path fill="#a4cde7" d="M815.5 982.5q-2.895 5.4-8 9 2.895-5.4 8-9" style="opacity:1"/><path fill="#fefffe" d="M22.5 993.5q2 1 0 0" style="opacity:.004"/><path fill="#939cb2" d="M482.5 993.5q-4.08 3.04-9 5 3.302-4.228 9-5" style="opacity:1"/><path fill="#a3aabe" d="M880.5 992.5q-3.573 7.124-10 12a67.2 67.2 0 0 1 10-12" style="opacity:1"/><path fill="#fbfcfb" d="M247.5 999.5q2 1.005 0 0" style="opacity:.004"/><path fill="#684258" d="M548.5 989.5a23.9 23.9 0 0 1-2.5 9c-.417 1.256-1.25 1.92-2.5 2a83 83 0 0 1 5-11" style="opacity:1"/><path fill="#a04c4b" d="M653.5 991.5h1q.186 8.352-2 16c.187-5.34.52-10.678 1-16" style="opacity:1"/><path fill="#664359" d="M637.5 987.5q.207 7.371-2 14v-8z" style="opacity:1"/><path fill="#a3cde7" d="M806.5 992.5q-3.399 5.904-9 10 3.399-5.904 9-10" style="opacity:1"/><path fill="#a4aabe" d="M290.5 996.5q-1.447 6.9-6 12 1.447-6.899 6-12" style="opacity:1"/><path fill="#fbfcfb" d="M28.5 1005.5q2 1.005 0 0" style="opacity:.004"/><path fill="#fbfbfb" d="M40.5 1006.5c.397-1.03 1.063-1.19 2-.5-.594.46-1.261.63-2 .5" style="opacity:.004"/><path fill="#969fb4" d="M461.5 1003.5a475 475 0 0 0-9 6c1.452 1.44 2.452 3.11 3 5-2.183-1.35-3.85-3.18-5-5.5 3.315-2.47 6.982-4.3 11-5.5" style="opacity:1"/><path fill="#fbc2b5" d="M722.5 1006.5c-5.016 4.85-11.016 8.18-18 10a117 117 0 0 1 18-10" style="opacity:1"/><path fill="#9098b0" d="M397.5 1006.5a27.2 27.2 0 0 1-8 5c1.626-3.12 4.292-4.79 8-5" style="opacity:1"/><path fill="#fee7ba" d="M507.5 1007.5c5.062 4.06 9.395 8.73 13 14-5.062-4.06-9.395-8.73-13-14" style="opacity:1"/><path fill="#727d9b" d="M837.5 1004.5q-2.895 5.4-8 9 2.895-5.4 8-9" style="opacity:1"/><path fill="#a5804d" d="M546.5 1012.5a18 18 0 0 0 6 4v2c-3-1-5-3-6-6" style="opacity:1"/><path fill="#ac4f4a" d="M558.5 1010.5c-.58 2.25-1.913 3.92-4 5 .58-2.25 1.913-3.92 4-5" style="opacity:1"/><path fill="#9ca4b9" d="M870.5 1004.5a71.2 71.2 0 0 1-9 11c1.872-4.54 4.872-8.21 9-11" style="opacity:1"/><path fill="#f6f7f6" d="M876.5 1015.5q2 1.005 0 0" style="opacity:.004"/><path fill="#7c4652" d="M634.5 1006.5c.535 4.81-.465 9.15-3 13 .263-4.62 1.263-8.96 3-13" style="opacity:1"/><path fill="#b1d4ea" d="M797.5 1002.5c-4.607 6.28-9.941 11.94-16 17 4.607-6.28 9.941-11.94 16-17" style="opacity:1"/><path fill="#647091" d="M827.5 1015.5c-2.266 3.94-5.266 7.27-9 10 2.266-3.94 5.266-7.27 9-10M383.5 1014.5a92.3 92.3 0 0 1-14 7c2.758-2.79 6.092-4.96 10-6.5a8.4 8.4 0 0 1 4-.5" style="opacity:1"/><path fill="#934b4f" d="M651.5 1014.5c.09 2.65-.576 4.99-2 7-.09-2.65.576-4.99 2-7" style="opacity:1"/><path fill="#509acf" d="M735.5 1010.5c-1.088 1.5-2.421 2.83-4 4 .333.67.667 1.33 1 2a27 27 0 0 1-7 1.5c-3.981 2.83-8.315 5-13 6.5.437-1.57 1.437-2.74 3-3.5a287 287 0 0 0 20-10.5" style="opacity:1"/><path fill="#aeb4c5" d="M282.5 1014.5c-.86 4.71-2.527 9.04-5 13 .699-4.77 2.366-9.11 5-13" style="opacity:1"/><path fill="#117ec1" d="M462.5 1057.5a983 983 0 0 0-85 40 8.4 8.4 0 0 0-4 .5q-4.03 1.575-7 4.5h-1c-5.132 1.59-9.798 3.92-14 7l-78 39q-6.22 1.275-10 6a54.7 54.7 0 0 0-9 4 148 148 0 0 0-25 13 203 203 0 0 1-25 13c-5.516 1.92-10.516 4.59-15 8-1.333.67-2.667 1.33-4 2a942 942 0 0 0-9 4c-.798.46-1.131 1.12-1 2a155 155 0 0 1-11 5c-5.136 1.57-9.469 4.24-13 8a66 66 0 0 0-17 8c-1.617.54-3.284.87-5 1 .17-1.32-.163-2.49-1-3.5 1.21-1.04 2.21-2.21 3-3.5 3.252-4.28 7.252-7.62 12-10a221 221 0 0 0 22-18 149.2 149.2 0 0 0 23-18 55.9 55.9 0 0 1 14-11 39.8 39.8 0 0 0 12-9 463 463 0 0 1 51-37 46.1 46.1 0 0 0 13-9 380 380 0 0 1 27-19 265 265 0 0 1 19-11c3.314-.8 5.98-2.63 8-5.5-1.319-.19-2.653-.03-4 .5 6.888-3.78 13.888-7.62 21-11.5 7.562-1.57 14.228-4.9 20-10 13.533-5.6 26.533-11.93 39-19 5.672-2.17 11.338-4.34 17-6.5 1.766.59 3.433 1.42 5 2.5a1508 1508 0 0 0 32 33.5" style="opacity:1"/><path fill="#a8afc1" d="M861.5 1015.5q-2.895 5.4-8 9 2.895-5.4 8-9" style="opacity:1"/><path fill="#6e7897" d="M255.5 1015.5c-.774 5.55-3.107 10.21-7 14 1.581-5.1 3.914-9.76 7-14" style="opacity:1"/><path fill="#fbc5ba" d="M704.5 1016.5a140 140 0 0 1-14 8.5 8.4 8.4 0 0 1-4 .5q8.151-6.075 18-9" style="opacity:1"/><path fill="#9ecae6" d="M781.5 1019.5c-3 3.67-6.333 7-10 10 2.333-4.33 5.667-7.67 10-10" style="opacity:1"/><path fill="#fbfcfb" d="M866.5 1027.5q2 1.005 0 0" style="opacity:.004"/><path fill="#8b93ac" d="M358.5 1026.5q-2.3 2.625-6 3 2.3-2.625 6-3" style="opacity:1"/><path fill="#fafbfa" d="M865.5 1028.5h1q-.278 1.005-1 0" style="opacity:.004"/><path fill="#636f90" d="M469.5 1029.5q6.5 5.505 12 12c-5-3-9-7-12-12" style="opacity:1"/><path fill="#78829f" d="M352.5 1029.5q-7.415 6.465-17 9a68.8 68.8 0 0 1 17-9" style="opacity:1"/><path fill="#a1a9bc" d="M853.5 1024.5c-3.27 4.94-7.27 9.27-12 13 3.27-4.94 7.27-9.27 12-13" style="opacity:1"/><path fill="#b3b9c9" d="M277.5 1027.5q-.295 9.075 1 18c-.722-.42-1.222-1.08-1.5-2-.817-5.52-.651-10.85.5-16" style="opacity:1"/><path fill="#9099b1" d="M248.5 1030.5q-.382 3.705-3 6 .382-3.705 3-6" style="opacity:1"/><path fill="#f9b5a7" d="M675.5 1029.5c-8.002 4.67-16.669 8.01-26 10v-1a298 298 0 0 0 26-9" style="opacity:1"/><path fill="#d26454" d="M646.5 1034.5v4h3v1c-2 .33-4 .67-6 1q-.058-3.885 3-6" style="opacity:1"/><path fill="#5a3e5a" d="M628.5 1029.5a85 85 0 0 0-3.5 11q-3.143.675-6.5 3a98.4 98.4 0 0 0 10-14" style="opacity:1"/><path fill="#4e5b81" d="M816.5 1027.5a85.6 85.6 0 0 1-19 19 257 257 0 0 1 19-19" style="opacity:1"/><path fill="#f9faf9" d="M853.5 1041.5q2 1.005 0 0" style="opacity:.004"/><path fill="#aeb4c6" d="M837.5 1041.5c-2.601 4.27-5.934 7.94-10 11 2.601-4.27 5.934-7.94 10-11" style="opacity:1"/><path fill="#a5acbf" d="M483.5 1043.5q5.865 3.36 10 9-5.904-3.405-10-9" style="opacity:1"/><path fill="#888ca4" d="M635.5 1042.5c-6.56 3.04-13.56 4.71-21 5 1-1.67 2.333-3 4-4 .47 1.19 1.47 1.86 3 2a65.5 65.5 0 0 1 14-3" style="opacity:1"/><path fill="#f9b5a7" d="M613.5 1047.5c-9.256 3.15-18.923 4.48-29 4-.992.17-1.658-.16-2-1q15.66.045 31-3" style="opacity:1"/><path fill="#939bb2" d="M316.5 1047.5c-5.052 3.25-10.719 4.91-17 5a701 701 0 0 0 17-5" style="opacity:1"/><path fill="#aeb4c5" d="M496.5 1055.5q5.904 3.405 10 9-5.904-3.405-10-9" style="opacity:1"/><path fill="#80b9dd" d="M648.5 1049.5c-6.954 3.08-14.288 5.24-22 6.5-8.71 1.06-17.377 2.23-26 3.5 1.777-1.1 3.777-1.93 6-2.5a313 313 0 0 0 42-7.5" style="opacity:1"/><path fill="#6a7695" d="M462.5 1057.5a84.8 84.8 0 0 1 16 15 84.8 84.8 0 0 1-16-15" style="opacity:1"/><path fill="#fcfcfc" d="M224.5 1058.5q1.61 1.125.5 3a4.94 4.94 0 0 1-.5-3" style="opacity:.004"/><path fill="#adb4c5" d="M827.5 1052.5a148.5 148.5 0 0 1-21 20 148.5 148.5 0 0 1 21-20" style="opacity:1"/><path fill="#6d9590" d="M595.5 1062.5c4.271 2.6 7.937 5.93 11 10-4.271-2.6-7.937-5.93-11-10" style="opacity:1"/><path fill="#5e6a8c" d="M240.5 1051.5a74.4 74.4 0 0 0-1 28q-2.871-5.475-3-12 1.008-7.53 2.5-15c.383-.56.883-.89 1.5-1" style="opacity:1"/><path fill="#889eba" d="M324.5 1073.5q-2.249-1.485-5 0c2.508-2.42 5.508-4.09 9-5 1.347-.53 2.681-.69 4-.5-2.02 2.87-4.686 4.7-8 5.5" style="opacity:1"/><path fill="#5f9198" d="M606.5 1072.5q4.391 1.89 7 6-4.391-1.89-7-6" style="opacity:1"/><path fill="#fafafa" d="M224.5 1076.5c1.025.4 1.192 1.06.5 2a2.42 2.42 0 0 1-.5-2" style="opacity:.004"/><path fill="#616d8f" d="M779.5 1063.5a148.7 148.7 0 0 1-22 19 148.7 148.7 0 0 1 22-19" style="opacity:1"/><path fill="#cfd7e2" d="M324.5 1073.5a265 265 0 0 0-19 11q-2.639-.675-6 0a90.8 90.8 0 0 1 20-11q2.751-1.485 5 0" style="opacity:1"/><path fill="#818ba5" d="M295.5 1085.5q-2.3 2.625-6 3 2.3-2.625 6-3" style="opacity:1"/><path fill="#fafbfa" d="M425.5 1087.5q2 1.005 0 0" style="opacity:.004"/><path fill="#b0b6c7" d="M247.5 1088.5a47 47 0 0 0 7 3.5 92.2 92.2 0 0 0 32-2.5c-7.648 3.49-15.814 5.15-24.5 5q-9.166 1.29-14.5-6" style="opacity:1"/><path fill="#657191" d="M750.5 1088.5c-2.595 3.63-5.928 6.29-10 8a45.5 45.5 0 0 1 10-8" style="opacity:1"/><path fill="#a6adc0" d="M785.5 1091.5c-2.4 3.4-5.4 6.07-9 8 2.4-3.4 5.4-6.07 9-8" style="opacity:1"/><path fill="#fafbfa" d="M487.5 1097.5q-1 1.005 0 0" style="opacity:.004"/><path fill="#9dc9e5" d="M377.5 1097.5c-3.209 2.43-6.876 4.1-11 5q2.97-2.925 7-4.5a8.4 8.4 0 0 1 4-.5" style="opacity:1"/><path fill="#679497" d="M638.5 1099.5c2.589.92 4.589 2.59 6 5-2.589-.92-4.589-2.59-6-5" style="opacity:1"/><path fill="#7cb8dd" d="M278.5 1103.5a46.1 46.1 0 0 1-13 9 46.1 46.1 0 0 1 13-9" style="opacity:1"/><path fill="#97c5e3" d="M365.5 1102.5c-.79 1.29-1.79 2.46-3 3.5-3.654 1.27-7.32 2.44-11 3.5 4.202-3.08 8.868-5.41 14-7" style="opacity:1"/><path fill="#8dc1e1" d="M686.5 1101.5a97.5 97.5 0 0 1-11 8c2.704-3.86 6.37-6.53 11-8" style="opacity:1"/><path fill="#747f9c" d="M731.5 1103.5a24.14 24.14 0 0 1-9 7 24.14 24.14 0 0 1 9-7" style="opacity:1"/><path fill="#9ea6ba" d="M759.5 1113.5a45.5 45.5 0 0 1-10 8c2.595-3.63 5.928-6.29 10-8" style="opacity:1"/><path fill="#727e9b" d="M718.5 1113.5a39.8 39.8 0 0 1-12 9 39.8 39.8 0 0 1 12-9" style="opacity:1"/><path fill="#fbfcfb" d="M355.5 1121.5q2 1.005 0 0" style="opacity:.004"/><path fill="#7c86a2" d="M706.5 1122.5c-1.647 1.83-3.647 3.16-6 4 1.302-2.32 3.302-3.66 6-4" style="opacity:1"/><path fill="#7c87a3" d="M700.5 1126.5c-1.796 2.4-4.13 4.07-7 5 1.796-2.4 4.13-4.07 7-5" style="opacity:1"/><path fill="#919ab1" d="M726.5 1138.5a24.14 24.14 0 0 1-9 7 24.14 24.14 0 0 1 9-7" style="opacity:1"/><path fill="#4e587f" d="M683.5 1138.5q-2.63 2.58-6 4.5 3.586 1.035 0 3a44.8 44.8 0 0 1-9 2.5 57.4 57.4 0 0 1 15-10" style="opacity:1"/><path fill="#fafbfa" d="M302.5 1147.5q2 1.005 0 0" style="opacity:.004"/><path fill="#70b1da" d="M214.5 1149.5a39.8 39.8 0 0 1-12 9 39.8 39.8 0 0 1 12-9" style="opacity:1"/><path fill="#96c5e3" d="M273.5 1148.5q-4.197 4.17-10 6 3.78-4.725 10-6" style="opacity:1"/><path fill="#a5cde7" d="M254.5 1158.5c-7.593 5.63-15.926 9.96-25 13a148 148 0 0 1 25-13" style="opacity:1"/><path fill="#62a9d6" d="M188.5 1169.5a149.2 149.2 0 0 1-23 18 149.2 149.2 0 0 1 23-18" style="opacity:1"/><path fill="#919ab2" d="M674.5 1174.5c-2.082 2.38-4.749 4.05-8 5 2.129-2.45 4.796-4.12 8-5" style="opacity:1"/><path fill="#fbfcfb" d="M152.5 1182.5q-1-1.995 0 0" style="opacity:.004"/><path fill="#b1b7c8" d="M658.5 1184.5a44 44 0 0 1-4 4.5 8.4 8.4 0 0 1-4 .5c2.129-2.45 4.796-4.12 8-5" style="opacity:1"/><path fill="#8cbfe1" d="M204.5 1184.5c.131.88-.202 1.54-1 2a175 175 0 0 0-14 6c4.484-3.41 9.484-6.08 15-8" style="opacity:1"/><path fill="#626e8f" d="M628.5 1186.5q5.887 1.62 10 6-6.458-.72-10-6" style="opacity:1"/><path fill="#66abd7" d="M165.5 1187.5a221 221 0 0 1-22 18 112 112 0 0 1 22-18" style="opacity:1"/><path fill="#a5cee7" d="M185.5 1194.5q-3.88 4.455-10 6c-.131-.88.202-1.54 1-2 3.014-1.36 6.014-2.69 9-4" style="opacity:1"/><path fill="#a2cce6" d="M164.5 1205.5c-3.902 3.27-8.235 5.93-13 8 3.531-3.76 7.864-6.43 13-8" style="opacity:1"/><path fill="#3f91cb" d="M131.5 1215.5c-.79 1.29-1.79 2.46-3 3.5.837 1.01 1.17 2.18 1 3.5 1.716-.13 3.383-.46 5-1-1.074 1.38-2.407 2.55-4 3.5q-10.555 3.78-20 9a110.7 110.7 0 0 1 21-18.5" style="opacity:1"/><path fill="#fafbfa" d="M96.5 1229.5q-1-1.995 0 0" style="opacity:.004"/><path fill="#fcfdfc" d="M93.5 1232.5q-1-1.995 0 0" style="opacity:.004"/><path fill="#fafbfa" d="M126.5 1240.5q2 1.005 0 0" style="opacity:.004"/></svg>