<svg xmlns="http://www.w3.org/2000/svg" width="1200" height="1025" style="shape-rendering:geometricPrecision;text-rendering:geometricPrecision;image-rendering:optimizeQuality;fill-rule:evenodd;clip-rule:evenodd"><path fill="#020101" d="M573.5-.5h281a12815 12815 0 0 1-95 95.5q79.863 71.025 75.5 178.5-5.397 74.245-54 130L664.5 520q-140.002 1.25-280-.5a12822 12822 0 0 1 95-95.5q-84.892-75.623-74.5-189.5 9.002-72.491 59-125A17041 17041 0 0 0 573.5-.5" style="opacity:.99"/><path fill="#6e0517" d="M582.5 17.5q12.264-1.98 25 0-.186.91-1 1-11.724-1.489-24-1" style="opacity:1"/><path fill="#6d0516" d="M633.5 17.5q12.264-1.98 25 0-.186.91-1 1-11.724-1.489-24-1" style="opacity:1"/><path fill="#6e0517" d="M684.5 17.5q12.264-1.98 25 0-.186.91-1 1-11.724-1.489-24-1" style="opacity:1"/><path fill="#6d0516" d="M735.5 17.5q12.264-1.98 25 0-.186.91-1 1-11.724-1.489-24-1" style="opacity:1"/><path fill="#6c0416" d="M786.5 17.5q12.264-1.98 25 0-.186.91-1 1-11.724-1.489-24-1" style="opacity:1"/><path fill="#ca092b" d="M582.5 17.5q12.276-.489 24 1a21289 21289 0 0 1-122.5 123q-69.877 86.785-29 191 13.245 30.966 37.5 54a102 102 0 0 0 12-12q-67.068-73.572-37.5-169 11.556-30.636 33-55a25084 25084 0 0 1 133.5-133q12.276-.489 24 1a31326 31326 0 0 1-148.5 149q-57.4 75.36-16 161a150.3 150.3 0 0 0 25 33l12.5-12.5q-56.973-62.572-25.5-141.5a151 151 0 0 1 20-31 35868 35868 0 0 1 159.5-159q12.276-.489 24 1a13029 13029 0 0 1-166.5 166q-46.761 52.832-21 119 7.947 18.422 22.5 32a102 102 0 0 0 12-12q-44.082-51.183-12.5-111a102 102 0 0 1 8-11 47973 47973 0 0 1 184.5-184q12.276-.489 24 1a54802 54802 0 0 1-196.5 197q-27.539 38.066-6 80a99 99 0 0 0 11.5 15 230 230 0 0 0 13-12.5q-29.118-34.045-4.5-71.5a61904 61904 0 0 1 209.5-209q12.276-.489 24 1a22764 22764 0 0 0-219.5 220q-13 21.5 0 43 7.84 9.543 19.5 13.5a19264 19264 0 0 1-117 116.5q-61.55-51.579-70.5-132-6.988-82.013 44-146a6317 6317 0 0 1 115.5-116" style="opacity:1"/><path fill="#fafafa" d="M744.5 108.5a8.4 8.4 0 0 1 4 .5q91.878 86.156 60.5 208.5-12.485 39.98-39 72A8856 8856 0 0 1 658.5 502q-13 1-26 0A11396 11396 0 0 0 759 374.5q62.904-83.313 28-182-13.802-33.64-39.5-59a71 71 0 0 0-12 12.5q68.593 75.456 35.5 172.5-9.697 25.419-27 46A13271 13271 0 0 1 607.5 502q-13 1-26 0L727 356.5q54.446-65.553 28-147-10.876-29.282-33-51L709.5 171q60.781 68.147 20.5 150.5l-12 18A18544 18544 0 0 1 556.5 502q-13 1-26 0L702 330.5q42.708-55.674 14-120a116 116 0 0 0-18.5-25.5q-7.452 4.173-13 11.5 38.466 43.274 18.5 98-6.624 14.764-17 27L505.5 502q-13 1-26 0L675 306.5q25.145-33.24 12-73-5.767-13.548-16-24L658.5 222q25.126 29.304 8.5 64.5a102 102 0 0 1-8 11L454.5 502q-13 1-26 0L648 282.5q17.697-28.475-6.5-51.5a50.6 50.6 0 0 0-12-6 6303 6303 0 0 0 115-116.5" style="opacity:1"/><path d="M-.5 568.5q45.003-.25 90 .5 22.682-.546 44 7 27.038 12.565 29.5 42.5a866 866 0 0 1 1 79q-4.291 45.294-49.5 51.5a192 192 0 0 1-28 1.5v141h-49q.25-142-.5-284a1957 1957 0 0 0-37.5-37zm88 40a80 80 0 0 1 19 1.5 25.6 25.6 0 0 1 6.5 5.5 513 513 0 0 1 1.5 44.5 513 513 0 0 1-1.5 44.5q-2.907 3.909-7.5 5.5a82 82 0 0 1-18 1.5z" style="opacity:.974"/><path d="M245.5 568.5q22.302.075 42 10.5 19.413 13.067 21.5 36.5 1 115 0 230-5.035 35.039-39.5 43.5-32.071 7.293-62-6-20.816-12.333-23.5-36.5-1-116 0-232 4.731-31.242 34.5-41.5 13.468-3.798 27-4.5m-4 40q14.786-3.204 18.5 11 1 111 0 222-1.976 11.216-13.5 11-12.173.077-13.5-12-1-110 0-220 .552-8.776 8.5-12M328.5 568.5q32.504-.25 65 .5 23.742-1.065 44 11 15.285 14.328 16.5 35.5 1 47.5 0 95-2.253 14.759-16.5 19.5 14.819 8.363 16.5 25.5 2.084 68.004.5 136h-47q.692-63.045-1.5-126-2.236-12.237-14.5-14.5a85 85 0 0 0-13-.5v141h-50zm49 40q8.514-.249 17 .5 8.44 1.436 11.5 9.5 1 39 0 78-1.574 11.073-12.5 13.5-7.984.749-16 .5z" style="opacity:.977"/><path d="M440.5 568.5h159v40h-41v283h-49v-283q-15.009.25-30-.5a3216 3216 0 0 1-38.5-37.5 2.43 2.43 0 0 1-.5-2" style="opacity:.973"/><path d="M618.5 568.5a619 619 0 0 1 49.5 1q.75 141.5.5 283h61v39h-111z" style="opacity:.965"/><path d="M784.5 568.5h74a59739 59739 0 0 0 36 323h-49a3843 3843 0 0 1-10-103h-31a15907 15907 0 0 0-11.5 102 501 501 0 0 1-44.5 1 70882 70882 0 0 0 36-323m35 58q2.425 1.634 2.5 5a9812 9812 0 0 1 8.5 118h-21q4.917-61.506 10-123M914.5 568.5a485 485 0 0 1 44 1 17444 17444 0 0 1 52.5 174c.5-58.332.67-116.666.5-175h45v323q-22.515.499-45-1a51011 51011 0 0 0-52.5-172q-.75 86.498-.5 173h-44z" style="opacity:.977"/><path d="M1199.5 609.5v244q-11.265 32-45 37.5c-26.33.5-52.66.667-79 .5v-323c25.68-.311 51.35.189 77 1.5 25.09 2.281 40.76 15.448 47 39.5m-75-1c6.74-.329 13.41.171 20 1.5q5.985 2.985 7.5 9.5a3158 3158 0 0 1 1.5 111 3215 3215 0 0 1-1.5 112q-1.65 6.147-7.5 8.5a86.6 86.6 0 0 1-20 1.5z" style="opacity:.982"/><path d="M285.5 1024.5h-16v-67h-14v-15h44v15h-14z" style="opacity:.93"/><path d="M362.5 1024.5h-16a1044 1044 0 0 0-7.5-31q-2.101-2.538-5.5-2v33h-16v-82q17.507-.25 35 .5l9.5 9.5q1 15 0 30-5.413 2.906-7.5 8.5a489 489 0 0 1 8 33.5m-29-69q15.111-3.638 12 11.5 2.871 14.878-12 12.5z" style="opacity:.933"/><path d="M427.5 1024.5h-16a138 138 0 0 1-2-19c-4.267-.3-8.434.04-12.5 1a330 330 0 0 1-2.5 18h-15a5220 5220 0 0 0 12-82q12.163-.92 23.5 2 6.05 40.103 12.5 80m-25-65q3.082 16.164 4 33h-8a2223 2223 0 0 1 4-33" style="opacity:.928"/><path d="M477.5 1024.5h-34v-12h9v-57h-9v-13h34v13h-9v57h9z" style="opacity:.942"/><path d="M531.5 1024.5h-34v-82h16v68h18z" style="opacity:.946"/><path d="M616.5 1024.5h-34v-82q17.007-.25 34 .5l9.5 9.5q1 11.5 0 23a64 64 0 0 0-6.5 7 64 64 0 0 0 6.5 7c.667 8.333.667 16.67 0 25-3.371 3.2-6.538 6.54-9.5 10m-18-68q12.606-3.12 12 9.5.38 12.365-12 10.5zm0 33q13.738-2.758 12 11c1.159 9.17-2.841 12.84-12 11z" style="opacity:.932"/><path d="M681.5 1024.5h-34v-82h16v68h18z" style="opacity:.924"/><path d="M744.5 1024.5h-16l-2-19h-12c-.913 6.3-1.58 12.64-2 19h-16a5126 5126 0 0 0 12.5-81 142 142 0 0 1 23.5-1q5.86 41.021 12 82m-25-66q3.592 16.636 5 34h-8a1315 1315 0 0 0 3-34" style="opacity:.928"/><path d="M799.5 1024.5h-39q-.249-6.015.5-12a2659 2659 0 0 1 20.5-54.5q-9.987-.75-20-.5v-15q18.87-.483 37.5 1a25.2 25.2 0 0 1 0 10 1858 1858 0 0 0-19.5 56c6.342-.17 12.675 0 19 .5a55.2 55.2 0 0 1 1 14.5" style="opacity:.917"/><path d="M856.5 1024.5h-37v-82h36v14h-20v19h18v14h-18v21h21z" style="opacity:.956"/><path d="M922.5 1024.5h-16a1190 1190 0 0 1-8-33h-5v33h-16v-82q17.507-.25 35 .5l8.5 8.5a240 240 0 0 1 0 31q-4.482 3.46-6.5 8.5a2429 2429 0 0 1 8 33.5m-29-69q14.401-2.924 12 11.5 2.787 14.961-12 12.5z" style="opacity:.941"/><path d="M974.5 1024.5h-25a107 107 0 0 0-8.5-9c-.499-5.32-.666-10.66-.5-16h16a41 41 0 0 0 .5 9q5.082 5.85 10 0a64.2 64.2 0 0 0 0-16l-1.5-1.5-17-1-5.5-5.5a141.4 141.4 0 0 1-1-33l8.5-8.5q12-1 24 0l8.5 8.5q.749 7.984.5 16h-16a41 41 0 0 0-.5-9q-5.428-4.265-10 1a49.2 49.2 0 0 0 0 14l1.5 1.5 17 1 7.5 7.5c.667 10.667.667 21.33 0 32a107 107 0 0 0-8.5 9" style="opacity:.938"/></svg>