<svg xmlns="http://www.w3.org/2000/svg" width="750" height="327" style="shape-rendering:geometricPrecision;text-rendering:geometricPrecision;image-rendering:optimizeQuality;fill-rule:evenodd;clip-rule:evenodd"><path fill="#4d008e" d="M255.5 1.5h220a1956 1956 0 0 1-46 100.5q-93.004.25-186 1.5a20907 20907 0 0 1-58 123.5q-26.996.75-54 .5 2.782-32.62 27-54.5a10.3 10.3 0 0 1 4-1.5q5.361 3.61 8 9.5 1.423.926 2.5-.5 41.301-89.594 82.5-179" style="opacity:.968"/><path fill="#4d008e" d="M496.5 1.5h19a1882 1882 0 0 1-38 83.5q10.371 1.216 20.5-.5l38.5-83q10.05-.495 20 1a14645 14645 0 0 1-40.5 86q-10.743 17.361-31.5 15-16.404 2.977-24.5-11-1-6 0-12a11546 11546 0 0 1 36.5-79" style="opacity:.885"/><path fill="#4d008e" d="M562.5 1.5q27.505-.25 55 .5a178 178 0 0 1-8 15.5q-8.83 1.03-17.5 2a9436 9436 0 0 1-38.5 82.5 60.7 60.7 0 0 1-19-.5q19.041-41.076 38-82a73 73 0 0 0-17-1 8.4 8.4 0 0 1 .5-4 59.3 59.3 0 0 0 6.5-13" style="opacity:.883"/><path fill="#4d008e" d="M634.5 1.5h23a2964 2964 0 0 1-21.5 100 79.6 79.6 0 0 1-17.5 1 112.3 112.3 0 0 1 4-23q-11.543-.496-23 1a479 479 0 0 1-15 21.5q-10.754 1.437-21-1a4276 4276 0 0 0 71-99.5m-3 33q.895.352 1 1.5a188 188 0 0 0-6 24.5 28.7 28.7 0 0 1-13 .5 655 655 0 0 0 18-26.5" style="opacity:.892"/><path fill="#4d008e" d="M688.5 1.5q10.05-.495 20 1a1033 1033 0 0 1-18 39q9.95 1.495 20 1a8.4 8.4 0 0 1 .5-4 445 445 0 0 0 17-36 98.3 98.3 0 0 1 19.5-1 2087 2087 0 0 1-46 100 50.5 50.5 0 0 1-20 0q9.475-19.878 19-40-9.834-1.965-19.5 0a71479 71479 0 0 0-18.5 41h-20a241062 241062 0 0 1 46-101" style="opacity:.884"/><path fill="#4d008e" d="M257.5 123.5q34.096-.975 67.5 2a8341 8341 0 0 1 23.5 199q-33.504.25-67-.5-2.64-22.73-6-45.5-27.505-.25-55 .5-10.969 22.438-22 45a204.7 204.7 0 0 1-35-.5 13561 13561 0 0 0 94-200m6 62q5.49 29.451 8 60a307 307 0 0 1-35-1 2334 2334 0 0 0 27-59" style="opacity:.957"/><path fill="#4d008e" d="M362.5 123.5q80.506-.5 161 1a19183 19183 0 0 0-78 167l69 2a833 833 0 0 1-14 30q-71.993 1.5-144 1a8882 8882 0 0 1 78-168l-86-2a628 628 0 0 0 14-31" style="opacity:.959"/><path fill="#4d008e" d="M546.5 123.5q72.507-.5 145 1a13406 13406 0 0 0-77 168h81a639 639 0 0 1-14 31q-77.493 1.5-155 1a12.9 12.9 0 0 1 .5-5 16494 16494 0 0 0 76.5-163q-35.486-1.5-71-1a342 342 0 0 1 14-32" style="opacity:.958"/><path fill="#4d008e" d="M86.5 138.5q2.988 43.972 2 89h-26q-2.679-38.862-33-63 24.1-22.295 57-26" style="opacity:.937"/><path fill="#4d008e" d="M97.5 138.5q25.244 2.594 47 15.5a79.3 79.3 0 0 1 11 10 157 157 0 0 1-14.5 15.5q-15.873 21.274-17.5 48h-27q-.488-44.61 1-89" style="opacity:.916"/><path fill="#4d008e" d="M22.5 171.5q2.519.588 5 1.5 23.955 21.158 27 53.5a730 730 0 0 1-54 1q1.328-32.015 22-56" style="opacity:.925"/><path fill="#4d008e" d="M.5 235.5q26.865-.488 53.5 1-1.872 35.748-30.5 57-21.41-24.858-23-58" style="opacity:.902"/><path fill="#4d008e" d="M63.5 235.5h25v89q-34.398-1.445-59-25 29.729-25.147 34-64" style="opacity:.93"/><path fill="#4d008e" d="M97.5 235.5q12.877-.475 25.5 1 3.62 38.244 32.5 63-9.952 11.152-24 17.5-16.79 6.966-35 7.5-.488-44.61 1-89" style="opacity:.91"/><path fill="#4d008e" d="M131.5 235.5h54q-1.515 33.157-23 58-19.72-13.983-27.5-37a93.2 93.2 0 0 1-3.5-21" style="opacity:.902"/></svg>