<?xml version="1.0" encoding="UTF-8"?>
<!DOCTYPE svg PUBLIC "-//W3C//DTD SVG 1.1//EN" "http://www.w3.org/Graphics/SVG/1.1/DTD/svg11.dtd">
<svg xmlns="http://www.w3.org/2000/svg" version="1.1" width="1920px" height="1305px" style="shape-rendering:geometricPrecision; text-rendering:geometricPrecision; image-rendering:optimizeQuality; fill-rule:evenodd; clip-rule:evenodd" xmlns:xlink="http://www.w3.org/1999/xlink">
<g><path style="opacity:0.996" fill="#4e008e" d="M 1034.5,-0.5 C 1329.5,-0.5 1624.5,-0.5 1919.5,-0.5C 1919.5,0.833333 1919.5,2.16667 1919.5,3.5C 1856.89,136.454 1794.56,269.62 1732.5,403C 1481.83,403.333 1231.17,403.667 980.5,404C 901.538,572.758 822.705,741.591 744,910.5C 672.904,911.498 601.738,911.831 530.5,911.5C 537.186,826.629 572.186,756.129 635.5,700C 640.748,695.464 646.248,691.297 652,687.5C 665.025,701.214 676.358,716.214 686,732.5C 687.323,735.059 689.157,735.725 691.5,734.5C 805.574,489.353 919.907,244.353 1034.5,-0.5 Z"/></g>
<g><path style="opacity:0.994" fill="#4e008e" d="M 345.5,559.5 C 347.167,559.5 348.833,559.5 350.5,559.5C 350.5,676.833 350.5,794.167 350.5,911.5C 317.5,911.5 284.5,911.5 251.5,911.5C 242.953,807.726 198.619,723.059 118.5,657.5C 182.691,598.92 258.358,566.254 345.5,559.5 Z"/></g>
<g><path style="opacity:0.993" fill="#4e008e" d="M 391.5,559.5 C 480.777,564.829 558.11,597.496 623.5,657.5C 542.927,722.29 498.26,806.623 489.5,910.5C 456.84,911.5 424.173,911.833 391.5,911.5C 391.5,794.167 391.5,676.833 391.5,559.5 Z"/></g>
<g><path style="opacity:0.991" fill="#4e008e" d="M -0.5,911.5 C -0.5,906.833 -0.5,902.167 -0.5,897.5C 7.95927,818.078 37.9593,748.078 89.5,687.5C 162.741,743.958 203.075,818.624 210.5,911.5C 140.167,911.5 69.8333,911.5 -0.5,911.5 Z"/></g>
<g><path style="opacity:0.992" fill="#4e008e" d="M 530.5,951.5 C 601.5,951.5 672.5,951.5 743.5,951.5C 738.634,1036.98 708.467,1111.98 653,1176.5C 579.327,1119.85 538.494,1044.85 530.5,951.5 Z"/></g>
<g><path style="opacity:0.994" fill="#4e008d" d="M -0.5,951.5 C 70.1667,951.5 140.833,951.5 211.5,951.5C 203.298,1044.56 162.631,1119.56 89.5,1176.5C 37.9011,1115.61 7.90113,1045.28 -0.5,965.5C -0.5,960.833 -0.5,956.167 -0.5,951.5 Z"/></g>
<g><path style="opacity:0.995" fill="#4d008e" d="M 350.5,1304.5 C 348.5,1304.5 346.5,1304.5 344.5,1304.5C 258.091,1296.55 182.758,1263.72 118.5,1206C 199.299,1140.58 243.966,1055.75 252.5,951.5C 285.167,951.5 317.833,951.5 350.5,951.5C 350.5,1069.17 350.5,1186.83 350.5,1304.5 Z"/></g>
<g><path style="opacity:0.991" fill="#4e008e" d="M 397.5,1304.5 C 395.167,1304.5 392.833,1304.5 390.5,1304.5C 390.5,1186.83 390.5,1069.17 390.5,951.5C 423.5,951.5 456.5,951.5 489.5,951.5C 496.486,1046.97 535.153,1126.8 605.5,1191C 611.967,1195.63 617.967,1200.8 623.5,1206.5C 559.439,1264.54 484.106,1297.21 397.5,1304.5 Z"/></g>
</svg>
